<?xml version="1.0" encoding="UTF-8" standalone="no"?>
<!DOCTYPE svg PUBLIC "-//W3C//DTD SVG 1.1//EN" "http://www.w3.org/Graphics/SVG/1.1/DTD/svg11.dtd">
<svg width="100%" height="100%" viewBox="0 0 475 110" version="1.1" xmlns="http://www.w3.org/2000/svg" xmlns:xlink="http://www.w3.org/1999/xlink" xml:space="preserve" xmlns:serif="http://www.serif.com/" style="fill-rule:evenodd;clip-rule:evenodd;stroke-linecap:round;stroke-linejoin:round;stroke-miterlimit:10;">
    <g transform="matrix(1.33333,0,0,1.33333,-131.618,-105.185)">
        <text x="131.04px" y="132px" style="font-family:'ArialMT', 'Arial', sans-serif;font-size:10px;">NH</text>
        <text x="145.44px" y="134.64px" style="font-family:'ArialMT', 'Arial', sans-serif;font-size:8px;">2</text>
    </g>
    <g transform="matrix(1.33333,0,0,1.33333,-131.618,-105.185)">
        <text x="101.04px" y="114.72px" style="font-family:'ArialMT', 'Arial', sans-serif;font-size:10px;">R</text>
    </g>
    <g transform="matrix(1.33333,0,0,1.33333,-131.618,-105.185)">
        <text x="216px" y="123.36px" style="font-family:'ArialMT', 'Arial', sans-serif;font-size:10px;">R	<tspan x="235.92px " y="123.36px ">C</tspan>H</text>
        <text x="250.333px" y="126px" style="font-family:'ArialMT', 'Arial', sans-serif;font-size:8px;">2</text>
    </g>
    <g transform="matrix(1.33333,0,0,1.33333,-131.618,-105.185)">
        <text x="250.32px" y="116.4px" style="font-family:'ArialMT', 'Arial', sans-serif;font-size:8px;">+</text>
    </g>
    <g transform="matrix(1.33333,0,0,1.33333,-131.618,-105.185)">
        <text x="266.4px" y="126.48px" style="font-family:'ArialMT', 'Arial', sans-serif;font-size:18px;">+</text>
        <text x="289.44px" y="123.6px" style="font-family:'ArialMT', 'Arial', sans-serif;font-size:10px;">NH</text>
        <text x="303.861px" y="126.24px" style="font-family:'ArialMT', 'Arial', sans-serif;font-size:8px;">2</text>
    </g>
    <g transform="matrix(1.33333,0,0,1.33333,-131.618,-105.185)">
        <text x="303.84px" y="116.64px" style="font-family:'ArialMT', 'Arial', sans-serif;font-size:8px;">–</text>
    </g>
    <g transform="matrix(1.33333,0,0,1.33333,-131.618,-105.185)">
        <text x="438px" y="123.84px" style="font-family:'ArialMT', 'Arial', sans-serif;font-size:10px;">NK</text>
    </g>
    <g transform="matrix(1.33333,0,0,1.33333,-131.618,-105.185)">
        <text x="432.24px" y="88.56px" style="font-family:'ArialMT', 'Arial', sans-serif;font-size:10px;">O</text>
    </g>
    <g transform="matrix(1.33333,0,0,1.33333,-131.618,-105.185)">
        <text x="432.24px" y="158.88px" style="font-family:'ArialMT', 'Arial', sans-serif;font-size:10px;">O</text>
    </g>
    <g transform="matrix(1.33333,0,0,1.33333,-131.618,-886.625)">
        <path d="M114.72,714L130.08,714" style="fill:none;fill-rule:nonzero;stroke:black;stroke-width:0.72px;"/>
    </g>
    <g transform="matrix(-0.666796,-1.15463,-1.15463,0.666796,922.237,-294.26)">
        <path d="M104.326,720L118.184,720" style="fill:none;fill-rule:nonzero;stroke:black;stroke-width:0.72px;"/>
    </g>
    <g transform="matrix(1.33333,0,0,1.33333,-131.618,-903.905)">
        <path d="M162,720.48L196.08,720.48" style="fill:none;fill-rule:nonzero;stroke:black;stroke-width:0.72px;"/>
    </g>
    <g transform="matrix(1.33333,0,0,1.33333,-131.618,-911.585)">
        <path d="M162,723.36L196.08,723.36" style="fill:none;fill-rule:nonzero;stroke:black;stroke-width:0.72px;"/>
    </g>
    <g transform="matrix(1.33333,0,0,1.33333,-131.618,-907.745)">
        <path d="M191.52,718.32L199.44,721.92L191.52,725.52" style="fill:none;fill-rule:nonzero;stroke:black;stroke-width:0.72px;"/>
    </g>
    <g transform="matrix(1.33333,0,0,1.33333,-131.618,-909.665)">
        <path d="M224.16,722.64L234.96,722.64" style="fill:none;fill-rule:nonzero;stroke:black;stroke-width:0.72px;"/>
    </g>
    <g transform="matrix(1.33333,0,0,1.33333,-131.618,-902.625)">
        <path d="M323.52,720L357.6,720" style="fill:none;fill-rule:nonzero;stroke:black;stroke-width:0.72px;"/>
    </g>
    <g transform="matrix(1.33333,0,0,1.33333,-131.618,-910.305)">
        <path d="M323.52,722.88L357.6,722.88" style="fill:none;fill-rule:nonzero;stroke:black;stroke-width:0.72px;"/>
    </g>
    <g transform="matrix(1.33333,0,0,1.33333,-131.618,-906.465)">
        <path d="M353.04,717.84L360.96,721.44L353.04,725.04" style="fill:none;fill-rule:nonzero;stroke:black;stroke-width:0.72px;"/>
    </g>
    <g transform="matrix(-1.15468,-0.666702,-0.666702,1.15468,1361.15,-548.215)">
        <path d="M392.506,737.1L412.424,737.1" style="fill:none;fill-rule:nonzero;stroke:black;stroke-width:0.72px;"/>
    </g>
    <g transform="matrix(-1.15458,-0.666876,-0.666876,1.15458,1355.11,-541.951)">
        <path d="M392.488,734.19L409.082,734.19" style="fill:none;fill-rule:nonzero;stroke:black;stroke-width:0.72px;"/>
    </g>
    <g transform="matrix(-1.15468,0.666702,0.666702,1.15468,398.215,-1010.52)">
        <path d="M392.506,707.22L412.424,707.22" style="fill:none;fill-rule:nonzero;stroke:black;stroke-width:0.72px;"/>
    </g>
    <g transform="matrix(-1.15458,0.666876,0.666876,1.15458,391.932,-1016.64)">
        <path d="M392.488,710.13L409.082,710.13" style="fill:none;fill-rule:nonzero;stroke:black;stroke-width:0.72px;"/>
    </g>
    <g transform="matrix(-1.15468,0.666702,0.666702,1.15468,335.376,-1073.36)">
        <path d="M375.256,737.1L395.174,737.1" style="fill:none;fill-rule:nonzero;stroke:black;stroke-width:0.72px;"/>
    </g>
    <g transform="matrix(-1.15468,-0.666702,-0.666702,1.15468,1298.31,-485.374)">
        <path d="M375.256,707.22L395.174,707.22" style="fill:none;fill-rule:nonzero;stroke:black;stroke-width:0.72px;"/>
    </g>
    <g transform="matrix(0,1.33333,1.33333,0,-592.378,-447.625)">
        <path d="M366.63,722.16L386.55,722.16" style="fill:none;fill-rule:nonzero;stroke:black;stroke-width:0.72px;"/>
    </g>
    <g transform="matrix(0,1.33333,1.33333,0,-587.898,-452.105)">
        <path d="M371.65,722.16L388.25,722.16" style="fill:none;fill-rule:nonzero;stroke:black;stroke-width:0.72px;"/>
    </g>
    <g transform="matrix(1.26822,-0.411585,-0.411585,-1.26822,198.363,1142.6)">
        <path d="M410.604,735.195L430.526,735.195" style="fill:none;fill-rule:nonzero;stroke:black;stroke-width:0.72px;"/>
    </g>
    <g transform="matrix(0,1.33333,1.33333,0,-546.378,-493.625)">
        <path d="M401.13,722.16L421.05,722.16" style="fill:none;fill-rule:nonzero;stroke:black;stroke-width:0.72px;"/>
    </g>
    <g transform="matrix(0.783533,1.07882,1.07882,-0.783533,-683.461,146.245)">
        <path d="M427.219,732.735L440.901,732.735" style="fill:none;fill-rule:nonzero;stroke:black;stroke-width:0.72px;"/>
    </g>
    <g transform="matrix(1.26802,0.41219,0.41219,-1.26802,-396.442,797.708)">
        <path d="M410.602,709.12L430.528,709.12" style="fill:none;fill-rule:nonzero;stroke:black;stroke-width:0.72px;"/>
    </g>
    <g transform="matrix(-0.783341,1.07896,1.07896,0.783341,19.3291,-956.795)">
        <path d="M427.277,711.46L440.673,711.46" style="fill:none;fill-rule:nonzero;stroke:black;stroke-width:0.72px;"/>
    </g>
    <g transform="matrix(0.412115,-1.26805,-1.26805,-0.412115,1212.81,881.398)">
        <path d="M426.399,744.96L441.541,744.96" style="fill:none;fill-rule:nonzero;stroke:black;stroke-width:0.72px;"/>
    </g>
    <g transform="matrix(0.411664,-1.26819,-1.26819,-0.411664,1210.67,876.39)">
        <path d="M423.582,745.475L437.638,745.475" style="fill:none;fill-rule:nonzero;stroke:black;stroke-width:0.72px;"/>
    </g>
    <g transform="matrix(0.411943,1.2681,1.2681,-0.411943,-621.058,-172.586)">
        <path d="M423.586,698.84L437.634,698.84" style="fill:none;fill-rule:nonzero;stroke:black;stroke-width:0.72px;"/>
    </g>
    <g transform="matrix(0.412115,1.26805,1.26805,-0.412115,-618.647,-177.194)">
        <path d="M426.409,699.36L441.551,699.36" style="fill:none;fill-rule:nonzero;stroke:black;stroke-width:0.72px;"/>
    </g>
</svg>
