<?xml version="1.0" encoding="UTF-8" standalone="no"?>
<!DOCTYPE svg PUBLIC "-//W3C//DTD SVG 1.1//EN" "http://www.w3.org/Graphics/SVG/1.1/DTD/svg11.dtd">
<svg width="100%" height="100%" viewBox="0 0 560 190" version="1.1" xmlns="http://www.w3.org/2000/svg" xmlns:xlink="http://www.w3.org/1999/xlink" xml:space="preserve" xmlns:serif="http://www.serif.com/" style="fill-rule:evenodd;clip-rule:evenodd;stroke-linecap:round;stroke-linejoin:round;stroke-miterlimit:10;">
    <g transform="matrix(1.33333,0,0,1.33333,-78.4335,-72.5423)">
        <text x="102px" y="99.12px" style="font-family:'ArialMT', 'Arial', sans-serif;font-size:10px;">R</text>
        <text x="109.44px" y="92.16px" style="font-family:'ArialMT', 'Arial', sans-serif;font-size:8px;">3</text>
    </g>
    <g transform="matrix(1.33333,0,0,1.33333,-78.4335,-72.5423)">
        <text x="82.08px" y="79.2px" style="font-family:'ArialMT', 'Arial', sans-serif;font-size:10px;">N</text>
    </g>
    <g transform="matrix(1.33333,0,0,1.33333,-78.4335,-72.5423)">
        <text x="82.08px" y="119.04px" style="font-family:'ArialMT', 'Arial', sans-serif;font-size:10px;">R</text>
        <text x="89.52px" y="112.08px" style="font-family:'ArialMT', 'Arial', sans-serif;font-size:8px;">2</text>
    </g>
    <g transform="matrix(1.33333,0,0,1.33333,-78.4335,-72.5423)">
        <text x="62.16px" y="99.12px" style="font-family:'ArialMT', 'Arial', sans-serif;font-size:10px;">R</text>
        <text x="69.6px" y="92.16px" style="font-family:'ArialMT', 'Arial', sans-serif;font-size:8px;">1</text>
    </g>
    <g transform="matrix(1.33333,0,0,1.33333,-78.4335,-72.5423)">
        <text x="99.36px" y="69.12px" style="font-family:'ArialMT', 'Arial', sans-serif;font-size:10px;">R</text>
        <text x="106.8px" y="62.16px" style="font-family:'ArialMT', 'Arial', sans-serif;font-size:8px;">4</text>
    </g>
    <g transform="matrix(1.33333,0,0,1.33333,-78.4335,-72.5423)">
        <text x="64.8px" y="69.12px" style="font-family:'ArialMT', 'Arial', sans-serif;font-size:10px;">H</text>
    </g>
    <g transform="matrix(1.33333,0,0,1.33333,-78.4335,-72.5423)">
        <text x="176.88px" y="94.32px" style="font-family:'ArialMT', 'Arial', sans-serif;font-size:10px;">R</text>
        <text x="184.319px" y="87.36px" style="font-family:'ArialMT', 'Arial', sans-serif;font-size:8px;">2</text>
        <text x="197.76px" y="94.32px" style="font-family:'ArialMT', 'Arial', sans-serif;font-size:10px;"><tspan x="197.76px " y="94.32px ">L</tspan>i</text>
        <text x="216.96px" y="95.28px" style="font-family:'ArialMT', 'Arial', sans-serif;font-size:18px;"><tspan x="216.96px " y="95.28px ">+</tspan></text>
    </g>
    <g transform="matrix(1.33333,0,0,1.33333,-78.4335,-72.5423)">
        <text x="270.24px" y="92.64px" style="font-family:'ArialMT', 'Arial', sans-serif;font-size:10px;">N</text>
    </g>
    <g transform="matrix(1.33333,0,0,1.33333,-78.4335,-72.5423)">
        <text x="240.48px" y="75.36px" style="font-family:'ArialMT', 'Arial', sans-serif;font-size:10px;">R</text>
        <text x="247.92px" y="68.4px" style="font-family:'ArialMT', 'Arial', sans-serif;font-size:8px;">1</text>
    </g>
    <g transform="matrix(1.33333,0,0,1.33333,-78.4335,-72.5423)">
        <text x="236.88px" y="113.28px" style="font-family:'ArialMT', 'Arial', sans-serif;font-size:10px;">R</text>
        <text x="244.32px" y="106.32px" style="font-family:'ArialMT', 'Arial', sans-serif;font-size:8px;">3</text>
    </g>
    <g transform="matrix(1.33333,0,0,1.33333,-78.4335,-72.5423)">
        <text x="280.32px" y="109.68px" style="font-family:'ArialMT', 'Arial', sans-serif;font-size:10px;">R</text>
        <text x="287.76px" y="102.72px" style="font-family:'ArialMT', 'Arial', sans-serif;font-size:8px;">4</text>
    </g>
    <g transform="matrix(1.33333,0,0,1.33333,-78.4335,-72.5423)">
        <text x="270.24px" y="172.08px" style="font-family:'ArialMT', 'Arial', sans-serif;font-size:10px;">N</text>
    </g>
    <g transform="matrix(1.33333,0,0,1.33333,-78.4335,-72.5423)">
        <text x="240.48px" y="154.8px" style="font-family:'ArialMT', 'Arial', sans-serif;font-size:10px;">R</text>
        <text x="247.92px" y="147.84px" style="font-family:'ArialMT', 'Arial', sans-serif;font-size:8px;">1</text>
    </g>
    <g transform="matrix(1.33333,0,0,1.33333,-78.4335,-72.5423)">
        <text x="236.88px" y="192.72px" style="font-family:'ArialMT', 'Arial', sans-serif;font-size:10px;">R</text>
        <text x="244.32px" y="185.76px" style="font-family:'ArialMT', 'Arial', sans-serif;font-size:8px;">3</text>
    </g>
    <g transform="matrix(1.33333,0,0,1.33333,-78.4335,-72.5423)">
        <text x="280.32px" y="189.12px" style="font-family:'ArialMT', 'Arial', sans-serif;font-size:10px;">R</text>
        <text x="287.76px" y="182.16px" style="font-family:'ArialMT', 'Arial', sans-serif;font-size:8px;">4</text>
    </g>
    <g transform="matrix(1.33333,0,0,1.33333,-78.4335,-72.5423)">
        <text x="280.56px" y="154.8px" style="font-family:'ArialMT', 'Arial', sans-serif;font-size:10px;">Br</text>
    </g>
    <g transform="matrix(1.33333,0,0,1.33333,-78.4335,-72.5423)">
        <text x="392.64px" y="174.24px" style="font-family:'ArialMT', 'Arial', sans-serif;font-size:10px;">N</text>
    </g>
    <g transform="matrix(1.33333,0,0,1.33333,-78.4335,-72.5423)">
        <text x="362.88px" y="156.96px" style="font-family:'ArialMT', 'Arial', sans-serif;font-size:10px;">R</text>
        <text x="370.32px" y="150px" style="font-family:'ArialMT', 'Arial', sans-serif;font-size:8px;">1</text>
    </g>
    <g transform="matrix(1.33333,0,0,1.33333,-78.4335,-72.5423)">
        <text x="359.28px" y="194.88px" style="font-family:'ArialMT', 'Arial', sans-serif;font-size:10px;">R</text>
        <text x="366.72px" y="187.92px" style="font-family:'ArialMT', 'Arial', sans-serif;font-size:8px;">3</text>
    </g>
    <g transform="matrix(1.33333,0,0,1.33333,-78.4335,-72.5423)">
        <text x="402.72px" y="191.28px" style="font-family:'ArialMT', 'Arial', sans-serif;font-size:10px;">R</text>
        <text x="410.16px" y="184.32px" style="font-family:'ArialMT', 'Arial', sans-serif;font-size:8px;">4</text>
    </g>
    <g transform="matrix(1.33333,0,0,1.33333,-78.4335,-72.5423)">
        <text x="402.72px" y="156.96px" style="font-family:'ArialMT', 'Arial', sans-serif;font-size:10px;">H</text>
    </g>
    <g transform="matrix(1.33333,0,0,1.33333,-78.4335,-72.5423)">
        <text x="391.2px" y="91.44px" style="font-family:'ArialMT', 'Arial', sans-serif;font-size:10px;">O</text>
    </g>
    <g transform="matrix(1.33333,0,0,1.33333,-78.4335,-72.5423)">
        <text x="361.68px" y="74.16px" style="font-family:'ArialMT', 'Arial', sans-serif;font-size:10px;">R</text>
        <text x="369.12px" y="67.2px" style="font-family:'ArialMT', 'Arial', sans-serif;font-size:8px;">1</text>
    </g>
    <g transform="matrix(1.33333,0,0,1.33333,-78.4335,-72.5423)">
        <text x="358.08px" y="112.08px" style="font-family:'ArialMT', 'Arial', sans-serif;font-size:10px;">R</text>
        <text x="365.52px" y="105.12px" style="font-family:'ArialMT', 'Arial', sans-serif;font-size:8px;">3</text>
    </g>
    <g transform="matrix(1.33333,0,0,1.33333,-78.4335,-72.5423)">
        <text x="411.12px" y="94.56px" style="font-family:'ArialMT', 'Arial', sans-serif;font-size:18px;">+</text>
        <text x="431.76px" y="91.68px" style="font-family:'ArialMT', 'Arial', sans-serif;font-size:10px;">H</text>
        <text x="438.972px" y="94.32px" style="font-family:'ArialMT', 'Arial', sans-serif;font-size:8px;">2</text>
        <text x="443.294px" y="91.68px" style="font-family:'ArialMT', 'Arial', sans-serif;font-size:10px;">N</text>
        <text x="463.2px" y="91.68px" style="font-family:'ArialMT', 'Arial', sans-serif;font-size:10px;">R</text>
        <text x="470.642px" y="84.72px" style="font-family:'ArialMT', 'Arial', sans-serif;font-size:8px;">4</text>
    </g>
    <g transform="matrix(1.33333,0,0,1.33333,-78.4335,-941.662)">
        <path d="M85.8,746.88L101.04,746.88" style="fill:none;fill-rule:nonzero;stroke:black;stroke-width:0.72px;"/>
    </g>
    <g transform="matrix(0,-1.33333,-1.33333,0,1041.57,158.818)">
        <path d="M78.48,754.2L93.12,754.2" style="fill:none;fill-rule:nonzero;stroke:black;stroke-width:0.72px;"/>
    </g>
    <g transform="matrix(0,1.33333,1.33333,0,-949.953,-50.3023)">
        <path d="M78.36,739.44L93.24,739.44" style="fill:none;fill-rule:nonzero;stroke:black;stroke-width:0.72px;"/>
    </g>
    <g transform="matrix(-1.33333,0,0,1.33333,129.727,-941.662)">
        <path d="M70.32,746.88L85.8,746.88" style="fill:none;fill-rule:nonzero;stroke:black;stroke-width:0.72px;"/>
    </g>
    <g transform="matrix(1.15477,-0.666542,-0.666542,-1.15477,452.789,975.088)">
        <path d="M89.609,771.715L99.031,771.715" style="fill:none;fill-rule:nonzero;stroke:black;stroke-width:0.72px;"/>
    </g>
    <g transform="matrix(-1.15477,-0.666542,-0.666542,1.15477,627.724,-819.089)">
        <path d="M72.329,771.855L81.751,771.855" style="fill:none;fill-rule:nonzero;stroke:black;stroke-width:0.72px;"/>
    </g>
    <g transform="matrix(1.33333,0,0,1.33333,-78.4335,-981.342)">
        <path d="M82.8,769.92L80.88,769.92L79.92,769.68L78.72,769.44L77.76,768.96L76.56,768.48L75.84,768L74.88,767.28L73.2,765.6L71.76,762.72L71.28,761.52L71.04,760.56L71.04,756.96L71.52,755.28L72.24,753.6" style="fill:none;fill-rule:nonzero;stroke:black;stroke-width:0.48px;"/>
    </g>
    <g transform="matrix(1.3242,-0.155788,-0.155788,-1.3242,39.8371,1055.39)">
        <path d="M74.444,753.13L82.66,753.13L75.369,756.887L76.547,754.574L74.444,753.13Z" style="stroke:black;stroke-width:0.48px;"/>
    </g>
    <g transform="matrix(1.33333,0,0,1.33333,-78.4335,-903.902)">
        <path d="M89.04,723.84L91.44,723.6L92.64,723.6L93.84,723.84L94.8,724.08L96,724.56L96.72,725.28L97.68,725.76L98.4,726.72L99.12,727.44L99.84,728.4L100.32,729.36L100.8,731.76L100.8,734.16L100.32,735.6L99.36,738L97.44,739.92L96.48,740.64L95.28,741.36L94.56,741.6L94.08,741.84" style="fill:none;fill-rule:nonzero;stroke:black;stroke-width:0.48px;"/>
    </g>
    <g transform="matrix(-1.24844,0.468165,0.468165,1.24844,-165.795,-871.741)">
        <path d="M94.367,728.061L102.569,728.061L95.294,724.381L96.361,726.544L94.367,728.061Z" style="stroke:black;stroke-width:0.48px;"/>
    </g>
    <g transform="matrix(1.33333,0,0,1.33333,-78.4335,-957.022)">
        <path d="M126.96,752.64L161.04,752.64" style="fill:none;fill-rule:nonzero;stroke:black;stroke-width:0.72px;"/>
    </g>
    <g transform="matrix(1.33333,0,0,1.33333,-78.4335,-964.702)">
        <path d="M126.96,755.52L161.04,755.52" style="fill:none;fill-rule:nonzero;stroke:black;stroke-width:0.72px;"/>
    </g>
    <g transform="matrix(1.33333,0,0,1.33333,-78.4335,-960.862)">
        <path d="M156.48,750.48L164.4,754.08L156.48,757.68" style="fill:none;fill-rule:nonzero;stroke:black;stroke-width:0.72px;"/>
    </g>
    <g transform="matrix(1.33333,0,0,1.33333,-78.4335,-954.462)">
        <path d="M185.04,751.68L196.8,751.68" style="fill:none;fill-rule:nonzero;stroke:black;stroke-width:0.72px;"/>
    </g>
    <g transform="matrix(1.33333,0,0,1.33333,-78.4335,-958.942)">
        <path d="M254.1,753.36L269.28,753.36" style="fill:none;fill-rule:nonzero;stroke:black;stroke-width:0.72px;"/>
    </g>
    <g transform="matrix(1.33333,0,0,1.33333,-78.4335,-949.982)">
        <path d="M255.51,750L269.28,750" style="fill:none;fill-rule:nonzero;stroke:black;stroke-width:0.72px;"/>
    </g>
    <g transform="matrix(-0.666796,-1.15463,-1.15463,0.666796,1299.65,-179.411)">
        <path d="M243.706,759.36L257.564,759.36" style="fill:none;fill-rule:nonzero;stroke:black;stroke-width:0.72px;"/>
    </g>
    <g transform="matrix(-0.727097,1.11763,1.11763,0.727097,-398.036,-771.501)">
        <path d="M244.366,748.08L256.964,748.08" style="fill:none;fill-rule:nonzero;stroke:black;stroke-width:0.72px;"/>
    </g>
    <g transform="matrix(0.666693,1.15469,1.15469,-0.666693,-752.351,231.389)">
        <path d="M275.13,744.72L282.89,744.72" style="fill:none;fill-rule:nonzero;stroke:black;stroke-width:0.72px;"/>
    </g>
    <g transform="matrix(0,1.33333,1.33333,0,-682.273,-254.622)">
        <path d="M254.88,715.68L270.72,715.68" style="fill:none;fill-rule:nonzero;stroke:black;stroke-width:0.72px;"/>
    </g>
    <g transform="matrix(0,1.33333,1.33333,0,-678.433,-258.462)">
        <path d="M257.76,715.68L273.6,715.68" style="fill:none;fill-rule:nonzero;stroke:black;stroke-width:0.72px;"/>
    </g>
    <g transform="matrix(1.33333,0,0,1.33333,-78.4335,-838.942)">
        <path d="M267.84,704.4L264.24,712.32L260.64,704.4" style="fill:none;fill-rule:nonzero;stroke:black;stroke-width:0.72px;"/>
    </g>
    <g transform="matrix(1.33333,0,0,1.33333,-78.4335,-747.102)">
        <path d="M254.1,673.92L269.28,673.92" style="fill:none;fill-rule:nonzero;stroke:black;stroke-width:0.72px;"/>
    </g>
    <g transform="matrix(-0.666796,-1.15463,-1.15463,0.666796,1207.92,-20.5208)">
        <path d="M243.706,679.92L257.564,679.92" style="fill:none;fill-rule:nonzero;stroke:black;stroke-width:0.72px;"/>
    </g>
    <g transform="matrix(-0.727097,1.11763,1.11763,0.727097,-309.251,-607.821)">
        <path d="M244.366,668.64L256.964,668.64" style="fill:none;fill-rule:nonzero;stroke:black;stroke-width:0.72px;"/>
    </g>
    <g transform="matrix(0.666693,1.15469,1.15469,-0.666693,-660.623,284.347)">
        <path d="M275.13,665.28L282.89,665.28" style="fill:none;fill-rule:nonzero;stroke:black;stroke-width:0.72px;"/>
    </g>
    <g transform="matrix(0.666871,-1.15458,-1.15458,-0.666871,895.403,917.256)">
        <path d="M274.921,682.44L282.959,682.44" style="fill:none;fill-rule:nonzero;stroke:black;stroke-width:0.72px;"/>
    </g>
    <g transform="matrix(1.33333,0,0,1.33333,-78.4335,-738.782)">
        <path d="M307.92,670.8L342,670.8" style="fill:none;fill-rule:nonzero;stroke:black;stroke-width:0.72px;"/>
    </g>
    <g transform="matrix(1.33333,0,0,1.33333,-78.4335,-746.462)">
        <path d="M307.92,673.68L342,673.68" style="fill:none;fill-rule:nonzero;stroke:black;stroke-width:0.72px;"/>
    </g>
    <g transform="matrix(1.33333,0,0,1.33333,-78.4335,-742.622)">
        <path d="M337.44,668.64L345.36,672.24L337.44,675.84" style="fill:none;fill-rule:nonzero;stroke:black;stroke-width:0.72px;"/>
    </g>
    <g transform="matrix(1.33333,0,0,1.33333,-78.4335,-741.342)">
        <path d="M376.5,671.76L391.68,671.76" style="fill:none;fill-rule:nonzero;stroke:black;stroke-width:0.72px;"/>
    </g>
    <g transform="matrix(-0.666796,-1.15463,-1.15463,0.666796,1450.24,125.126)">
        <path d="M366.106,677.76L379.964,677.76" style="fill:none;fill-rule:nonzero;stroke:black;stroke-width:0.72px;"/>
    </g>
    <g transform="matrix(-0.727097,1.11763,1.11763,0.727097,-54.6399,-740.169)">
        <path d="M366.766,666.48L379.364,666.48" style="fill:none;fill-rule:nonzero;stroke:black;stroke-width:0.72px;"/>
    </g>
    <g transform="matrix(0.666693,1.15469,1.15469,-0.666693,-576.532,144.453)">
        <path d="M397.53,663.12L405.29,663.12" style="fill:none;fill-rule:nonzero;stroke:black;stroke-width:0.72px;"/>
    </g>
    <g transform="matrix(0.666871,-1.15458,-1.15458,-0.666871,974.484,1060.02)">
        <path d="M397.321,680.28L405.359,680.28" style="fill:none;fill-rule:nonzero;stroke:black;stroke-width:0.72px;"/>
    </g>
    <g transform="matrix(1.33333,0,0,1.33333,-78.4335,-956.382)">
        <path d="M306.24,752.4L340.32,752.4" style="fill:none;fill-rule:nonzero;stroke:black;stroke-width:0.72px;"/>
    </g>
    <g transform="matrix(1.33333,0,0,1.33333,-78.4335,-964.062)">
        <path d="M306.24,755.28L340.32,755.28" style="fill:none;fill-rule:nonzero;stroke:black;stroke-width:0.72px;"/>
    </g>
    <g transform="matrix(1.33333,0,0,1.33333,-78.4335,-960.222)">
        <path d="M335.76,750.24L343.68,753.84L335.76,757.44" style="fill:none;fill-rule:nonzero;stroke:black;stroke-width:0.72px;"/>
    </g>
    <g transform="matrix(1.33333,0,0,1.33333,-78.4335,-957.662)">
        <path d="M375.3,752.88L390.24,752.88" style="fill:none;fill-rule:nonzero;stroke:black;stroke-width:0.72px;"/>
    </g>
    <g transform="matrix(1.33333,0,0,1.33333,-78.4335,-966.622)">
        <path d="M375.3,756.24L390.24,756.24" style="fill:none;fill-rule:nonzero;stroke:black;stroke-width:0.72px;"/>
    </g>
    <g transform="matrix(-0.666796,-1.15463,-1.15463,0.666796,1543.45,-41.8707)">
        <path d="M364.906,760.56L378.764,760.56" style="fill:none;fill-rule:nonzero;stroke:black;stroke-width:0.72px;"/>
    </g>
    <g transform="matrix(-0.727097,1.11763,1.11763,0.727097,-149.653,-909.431)">
        <path d="M365.566,749.28L378.164,749.28" style="fill:none;fill-rule:nonzero;stroke:black;stroke-width:0.72px;"/>
    </g>
    <g transform="matrix(1.33333,0,0,1.33333,-78.4335,-961.502)">
        <path d="M451.44,754.32L462.24,754.32" style="fill:none;fill-rule:nonzero;stroke:black;stroke-width:0.72px;"/>
    </g>
</svg>
