<?xml version="1.0" encoding="UTF-8" standalone="no"?>
<!DOCTYPE svg PUBLIC "-//W3C//DTD SVG 1.1//EN" "http://www.w3.org/Graphics/SVG/1.1/DTD/svg11.dtd">
<svg width="100%" height="100%" viewBox="0 0 600 180" version="1.1" xmlns="http://www.w3.org/2000/svg" xmlns:xlink="http://www.w3.org/1999/xlink" xml:space="preserve" xmlns:serif="http://www.serif.com/" style="fill-rule:evenodd;clip-rule:evenodd;stroke-linecap:round;stroke-linejoin:round;stroke-miterlimit:10;">
    <g transform="matrix(1.33333,0,0,1.33333,-92.1339,-78.8279)">
        <text x="72px" y="99.6px" style="font-family:'ArialMT', 'Arial', sans-serif;font-size:10px;">R</text>
    </g>
    <g transform="matrix(1.33333,0,0,1.33333,-92.1339,-78.8279)">
        <text x="123.84px" y="89.76px" style="font-family:'ArialMT', 'Arial', sans-serif;font-size:10px;">NH</text>
    </g>
    <g transform="matrix(1.33333,0,0,1.33333,-92.1339,-78.8279)">
        <text x="147.12px" y="99.6px" style="font-family:'ArialMT', 'Arial', sans-serif;font-size:10px;">R</text>
        <text x="154.56px" y="92.64px" style="font-family:'ArialMT', 'Arial', sans-serif;font-size:8px;">1</text>
    </g>
    <g transform="matrix(1.33333,0,0,1.33333,-92.1339,-78.8279)">
        <text x="216.96px" y="119.52px" style="font-family:'ArialMT', 'Arial', sans-serif;font-size:10px;">R</text>
    </g>
    <g transform="matrix(1.33333,0,0,1.33333,-92.1339,-78.8279)">
        <text x="268.8px" y="109.44px" style="font-family:'ArialMT', 'Arial', sans-serif;font-size:10px;">B</text>
        <text x="275.52px" y="102.48px" style="font-family:'ArialMT', 'Arial', sans-serif;font-size:8px;">–</text>
    </g>
    <g transform="matrix(1.33333,0,0,1.33333,-92.1339,-78.8279)">
        <text x="285.84px" y="119.52px" style="font-family:'ArialMT', 'Arial', sans-serif;font-size:10px;">R</text>
    </g>
    <g transform="matrix(1.33333,0,0,1.33333,-92.1339,-78.8279)">
        <text x="268.56px" y="89.52px" style="font-family:'ArialMT', 'Arial', sans-serif;font-size:10px;">N</text>
    </g>
    <g transform="matrix(1.33333,0,0,1.33333,-92.1339,-78.8279)">
        <text x="251.28px" y="99.6px" style="font-family:'ArialMT', 'Arial', sans-serif;font-size:10px;">R</text>
    </g>
    <g transform="matrix(1.33333,0,0,1.33333,-92.1339,-78.8279)">
        <text x="285.84px" y="79.68px" style="font-family:'ArialMT', 'Arial', sans-serif;font-size:10px;">N</text>
        <text x="293.04px" y="72.72px" style="font-family:'ArialMT', 'Arial', sans-serif;font-size:8px;">+</text>
    </g>
    <g transform="matrix(1.33333,0,0,1.33333,-92.1339,-78.8279)">
        <text x="251.28px" y="79.68px" style="font-family:'ArialMT', 'Arial', sans-serif;font-size:10px;">R</text>
        <text x="258.72px" y="72.72px" style="font-family:'ArialMT', 'Arial', sans-serif;font-size:8px;">1</text>
    </g>
    <g transform="matrix(1.33333,0,0,1.33333,-92.1339,-78.8279)">
        <text x="303.12px" y="69.6px" style="font-family:'ArialMT', 'Arial', sans-serif;font-size:10px;">N</text>
    </g>
    <g transform="matrix(1.33333,0,0,1.33333,-92.1339,-78.8279)">
        <text x="439.44px" y="110.16px" style="font-family:'ArialMT', 'Arial', sans-serif;font-size:10px;">R</text>
    </g>
    <g transform="matrix(1.33333,0,0,1.33333,-92.1339,-78.8279)">
        <text x="491.28px" y="100.32px" style="font-family:'ArialMT', 'Arial', sans-serif;font-size:10px;">B</text>
    </g>
    <g transform="matrix(1.33333,0,0,1.33333,-92.1339,-78.8279)">
        <text x="508.32px" y="110.16px" style="font-family:'ArialMT', 'Arial', sans-serif;font-size:10px;">R</text>
    </g>
    <g transform="matrix(1.33333,0,0,1.33333,-92.1339,-78.8279)">
        <text x="491.04px" y="80.4px" style="font-family:'ArialMT', 'Arial', sans-serif;font-size:10px;">R</text>
    </g>
    <g transform="matrix(1.33333,0,0,1.33333,-92.1339,-78.8279)">
        <text x="456.48px" y="175.92px" style="font-family:'ArialMT', 'Arial', sans-serif;font-size:10px;">R</text>
    </g>
    <g transform="matrix(1.33333,0,0,1.33333,-92.1339,-78.8279)">
        <text x="491.04px" y="175.92px" style="font-family:'ArialMT', 'Arial', sans-serif;font-size:10px;">CH</text>
        <text x="505.44px" y="178.56px" style="font-family:'ArialMT', 'Arial', sans-serif;font-size:8px;">2</text>
    </g>
    <g transform="matrix(1.33333,0,0,1.33333,-92.1339,-78.8279)">
        <text x="431.76px" y="176.64px" style="font-family:'ArialMT', 'Arial', sans-serif;font-size:18px;">+</text>
    </g>
    <g transform="matrix(1.33333,0,0,1.33333,-92.1339,-78.8279)">
        <text x="382.08px" y="173.52px" style="font-family:'ArialMT', 'Arial', sans-serif;font-size:10px;">H	<tspan x="402.24px " y="173.52px ">B</tspan></text>
    </g>
    <g transform="matrix(1.33333,0,0,1.33333,-92.1339,-78.8279)">
        <text x="411.84px" y="190.8px" style="font-family:'ArialMT', 'Arial', sans-serif;font-size:10px;">R</text>
    </g>
    <g transform="matrix(1.33333,0,0,1.33333,-92.1339,-78.8279)">
        <text x="411.84px" y="156.24px" style="font-family:'ArialMT', 'Arial', sans-serif;font-size:10px;">R</text>
    </g>
    <g transform="matrix(1.33333,0,0,1.33333,-92.1339,-78.8279)">
        <text x="368.16px" y="93.84px" style="font-family:'ArialMT', 'Arial', sans-serif;font-size:10px;">R</text>
        <text x="388.08px" y="93.84px" style="font-family:'ArialMT', 'Arial', sans-serif;font-size:10px;">N</text>
        <text x="395.52px" y="96.48px" style="font-family:'ArialMT', 'Arial', sans-serif;font-size:8px;">3</text>
        <text x="414.72px" y="97.68px" style="font-family:'ArialMT', 'Arial', sans-serif;font-size:18px;"><tspan x="414.72px " y="97.68px ">+</tspan></text>
    </g>
    <g transform="matrix(-1.15456,0.666917,0.666917,1.15456,-378.545,-886.184)">
        <path d="M79.163,752.51L94.037,752.51" style="fill:none;fill-rule:nonzero;stroke:black;stroke-width:0.72px;"/>
    </g>
    <g transform="matrix(-1.15468,-0.666702,-0.666702,1.15468,661.67,-757.608)">
        <path d="M91.706,751.25L111.624,751.25" style="fill:none;fill-rule:nonzero;stroke:black;stroke-width:0.72px;"/>
    </g>
    <g transform="matrix(-1.15505,0.666058,0.666058,1.15505,-301.503,-899.96)">
        <path d="M109.318,749.9L123.852,749.9" style="fill:none;fill-rule:nonzero;stroke:black;stroke-width:0.72px;"/>
    </g>
    <g transform="matrix(1.22571,0.524801,0.524801,-1.22571,-470.242,888.163)">
        <path d="M138.894,749.74L146.466,749.74" style="fill:none;fill-rule:nonzero;stroke:black;stroke-width:0.72px;"/>
    </g>
    <g transform="matrix(1.33333,0,0,1.33333,-92.1339,-954.348)">
        <path d="M171.84,749.28L205.92,749.28" style="fill:none;fill-rule:nonzero;stroke:black;stroke-width:0.72px;"/>
    </g>
    <g transform="matrix(1.33333,0,0,1.33333,-92.1339,-962.028)">
        <path d="M171.84,752.16L205.92,752.16" style="fill:none;fill-rule:nonzero;stroke:black;stroke-width:0.72px;"/>
    </g>
    <g transform="matrix(1.33333,0,0,1.33333,-92.1339,-958.188)">
        <path d="M201.36,747.12L209.28,750.72L201.36,754.32" style="fill:none;fill-rule:nonzero;stroke:black;stroke-width:0.72px;"/>
    </g>
    <g transform="matrix(-1.15475,0.666584,0.666584,1.15475,-4.52162,-933.447)">
        <path d="M224.134,732.64L238.856,732.64" style="fill:none;fill-rule:nonzero;stroke:black;stroke-width:0.72px;"/>
    </g>
    <g transform="matrix(-1.15468,-0.666702,-0.666702,1.15468,1008.73,-611.513)">
        <path d="M236.536,731.34L256.454,731.34" style="fill:none;fill-rule:nonzero;stroke:black;stroke-width:0.72px;"/>
    </g>
    <g transform="matrix(-1.15446,0.667082,0.667082,1.15446,71.3811,-946.873)">
        <path d="M254.135,730.035L268.825,730.035" style="fill:none;fill-rule:nonzero;stroke:black;stroke-width:0.72px;"/>
    </g>
    <g transform="matrix(1.15469,0.666693,0.666693,-1.15469,-529.694,725.919)">
        <path d="M275.83,731.525L285.53,731.525" style="fill:none;fill-rule:nonzero;stroke:black;stroke-width:0.72px;"/>
    </g>
    <g transform="matrix(0,-1.33333,-1.33333,0,1266.23,411.692)">
        <path d="M267.57,746.4L277.17,746.4" style="fill:none;fill-rule:nonzero;stroke:black;stroke-width:0.72px;"/>
    </g>
    <g transform="matrix(-1.15469,-0.666693,-0.666693,1.15469,1058.07,-625.031)">
        <path d="M258.79,741.365L268.49,741.365" style="fill:none;fill-rule:nonzero;stroke:black;stroke-width:0.72px;"/>
    </g>
    <g transform="matrix(1.15477,-0.666542,-0.666542,-1.15477,465.321,1094.99)">
        <path d="M276.089,761.115L285.511,761.115" style="fill:none;fill-rule:nonzero;stroke:black;stroke-width:0.72px;"/>
    </g>
    <g transform="matrix(-1.15477,-0.666542,-0.666542,1.15477,1071.01,-674.953)">
        <path d="M258.809,761.355L268.231,761.355" style="fill:none;fill-rule:nonzero;stroke:black;stroke-width:0.72px;"/>
    </g>
    <g transform="matrix(1.15449,-0.667037,-0.667037,-1.15449,476.804,1105.94)">
        <path d="M298.281,772.4L302.439,772.4" style="fill:none;fill-rule:nonzero;stroke:black;stroke-width:0.72px;"/>
    </g>
    <g transform="matrix(1.15442,-0.667146,-0.667146,-1.15442,479.465,1105.2)">
        <path d="M298.266,776.25L302.344,776.25" style="fill:none;fill-rule:nonzero;stroke:black;stroke-width:0.72px;"/>
    </g>
    <g transform="matrix(1.15464,-0.666778,-0.666778,-1.15464,473.552,1106.25)">
        <path d="M293.616,768.09L305.614,768.09" style="fill:none;fill-rule:nonzero;stroke:black;stroke-width:0.72px;"/>
    </g>
    <g transform="matrix(1.33333,0,0,1.33333,-92.1339,-958.188)">
        <path d="M280.08,744.96L282,745.44L282.72,745.92L283.68,746.64L284.16,747.36L284.64,748.32L285.12,749.52L285.12,751.68L284.88,752.64L284.4,753.6L283.92,754.32L283.2,755.28L281.76,756L280.08,756.48L278.64,756.48" style="fill:none;fill-rule:nonzero;stroke:black;stroke-width:0.48px;"/>
    </g>
    <g transform="matrix(-1.27603,-0.386677,-0.386677,1.27603,940.43,-812.854)">
        <path d="M280.389,751.992L288.665,751.992L281.252,755.765L282.408,753.607L280.389,751.992Z" style="stroke:black;stroke-width:0.48px;"/>
    </g>
    <g transform="matrix(1.33333,0,0,1.33333,-92.1339,-956.268)">
        <path d="M318.48,750L352.56,750" style="fill:none;fill-rule:nonzero;stroke:black;stroke-width:0.72px;"/>
    </g>
    <g transform="matrix(1.33333,0,0,1.33333,-92.1339,-963.948)">
        <path d="M318.48,752.88L352.56,752.88" style="fill:none;fill-rule:nonzero;stroke:black;stroke-width:0.72px;"/>
    </g>
    <g transform="matrix(1.33333,0,0,1.33333,-92.1339,-960.108)">
        <path d="M348,747.84L355.92,751.44L348,755.04" style="fill:none;fill-rule:nonzero;stroke:black;stroke-width:0.72px;"/>
    </g>
    <g transform="matrix(-1.15475,0.666584,0.666584,1.15475,542.868,-1104.74)">
        <path d="M446.614,741.88L461.336,741.88" style="fill:none;fill-rule:nonzero;stroke:black;stroke-width:0.72px;"/>
    </g>
    <g transform="matrix(-1.15468,-0.666702,-0.666702,1.15468,1568.43,-486.174)">
        <path d="M459.016,740.58L478.934,740.58" style="fill:none;fill-rule:nonzero;stroke:black;stroke-width:0.72px;"/>
    </g>
    <g transform="matrix(-1.15446,0.667082,0.667082,1.15446,618.702,-1118.27)">
        <path d="M476.615,739.275L491.305,739.275" style="fill:none;fill-rule:nonzero;stroke:black;stroke-width:0.72px;"/>
    </g>
    <g transform="matrix(1.15469,0.666693,0.666693,-1.15469,-496.108,575.942)">
        <path d="M498.31,740.765L508.01,740.765" style="fill:none;fill-rule:nonzero;stroke:black;stroke-width:0.72px;"/>
    </g>
    <g transform="matrix(0,-1.33333,-1.33333,0,1575.03,696.172)">
        <path d="M490.05,755.52L499.65,755.52" style="fill:none;fill-rule:nonzero;stroke:black;stroke-width:0.72px;"/>
    </g>
    <g transform="matrix(0,1.33333,1.33333,0,-396.774,-537.068)">
        <path d="M471.12,707.04L486,707.04" style="fill:none;fill-rule:nonzero;stroke:black;stroke-width:0.72px;"/>
    </g>
    <g transform="matrix(0,1.33333,1.33333,0,-392.934,-540.908)">
        <path d="M474,707.04L488.88,707.04" style="fill:none;fill-rule:nonzero;stroke:black;stroke-width:0.72px;"/>
    </g>
    <g transform="matrix(1.33333,0,0,1.33333,-92.1339,-823.468)">
        <path d="M483.6,696.24L480,704.16L476.4,696.24" style="fill:none;fill-rule:nonzero;stroke:black;stroke-width:0.72px;"/>
    </g>
    <g transform="matrix(-1.15494,0.666245,0.666245,1.15494,629.586,-952.484)">
        <path d="M463.645,676.115L478.515,676.115" style="fill:none;fill-rule:nonzero;stroke:black;stroke-width:0.72px;"/>
    </g>
    <g transform="matrix(-1.15476,-0.666562,-0.666562,1.15476,1562.34,-316.247)">
        <path d="M476.549,676.205L491.051,676.205" style="fill:none;fill-rule:nonzero;stroke:black;stroke-width:0.72px;"/>
    </g>
    <g transform="matrix(-1.15457,-0.6669,-0.6669,1.15457,1559.52,-306.664)">
        <path d="M476.298,672.425L490.952,672.425" style="fill:none;fill-rule:nonzero;stroke:black;stroke-width:0.72px;"/>
    </g>
    <g transform="matrix(1.33333,0,0,1.33333,-92.1339,-749.388)">
        <path d="M390.24,672.42L401.28,672.42" style="fill:none;fill-rule:nonzero;stroke:black;stroke-width:0.72px;"/>
    </g>
    <g transform="matrix(0.666871,1.15458,1.15458,-0.666871,-584.731,127.189)">
        <path d="M406.691,663.72L414.729,663.72" style="fill:none;fill-rule:nonzero;stroke:black;stroke-width:0.72px;"/>
    </g>
    <g transform="matrix(0.666871,-1.15458,-1.15458,-0.666871,967.806,1063.98)">
        <path d="M406.611,681L414.649,681" style="fill:none;fill-rule:nonzero;stroke:black;stroke-width:0.72px;"/>
    </g>
    <g transform="matrix(1.33333,0,0,1.33333,-92.1339,-962.028)">
        <path d="M376.32,752.16L387.12,752.16" style="fill:none;fill-rule:nonzero;stroke:black;stroke-width:0.72px;"/>
    </g>
</svg>
