<?xml version="1.0" encoding="UTF-8" standalone="no"?>
<!DOCTYPE svg PUBLIC "-//W3C//DTD SVG 1.1//EN" "http://www.w3.org/Graphics/SVG/1.1/DTD/svg11.dtd">
<svg width="100%" height="100%" viewBox="0 0 630 335" version="1.1" xmlns="http://www.w3.org/2000/svg" xmlns:xlink="http://www.w3.org/1999/xlink" xml:space="preserve" xmlns:serif="http://www.serif.com/" style="fill-rule:evenodd;clip-rule:evenodd;stroke-linecap:round;stroke-linejoin:round;stroke-miterlimit:10;">
    <g transform="matrix(1.33333,0,0,1.33333,-78.9739,-67.38)">
        <text x="137.76px" y="82.56px" style="font-family:'ArialMT', 'Arial', sans-serif;font-size:10px;">NH</text>
        <text x="152.16px" y="85.2px" style="font-family:'ArialMT', 'Arial', sans-serif;font-size:8px;">2</text>
    </g>
    <g transform="matrix(1.33333,0,0,1.33333,-78.9739,-67.38)">
        <text x="73.44px" y="67.44px" style="font-family:'ArialMT', 'Arial', sans-serif;font-size:10px;">C</text>
    </g>
    <g transform="matrix(1.33333,0,0,1.33333,-78.9739,-67.38)">
        <text x="61.92px" y="67.44px" style="font-family:'ArialMT', 'Arial', sans-serif;font-size:10px;">H</text>
        <text x="69.12px" y="70.08px" style="font-family:'ArialMT', 'Arial', sans-serif;font-size:8px;">3</text>
    </g>
    <g transform="matrix(1.33333,0,0,1.33333,-78.9739,-67.38)">
        <text x="73.68px" y="102px" style="font-family:'ArialMT', 'Arial', sans-serif;font-size:10px;">C</text>
    </g>
    <g transform="matrix(1.33333,0,0,1.33333,-78.9739,-67.38)">
        <text x="62.16px" y="102px" style="font-family:'ArialMT', 'Arial', sans-serif;font-size:10px;">H</text>
        <text x="69.36px" y="104.64px" style="font-family:'ArialMT', 'Arial', sans-serif;font-size:8px;">3</text>
    </g>
    <g transform="matrix(1.33333,0,0,1.33333,-78.9739,-67.38)">
        <text x="291.12px" y="81.12px" style="font-family:'ArialMT', 'Arial', sans-serif;font-size:10px;">N</text>
        <text x="298.56px" y="83.76px" style="font-family:'ArialMT', 'Arial', sans-serif;font-size:8px;">3</text>
    </g>
    <g transform="matrix(1.33333,0,0,1.33333,-78.9739,-67.38)">
        <text x="226.8px" y="66px" style="font-family:'ArialMT', 'Arial', sans-serif;font-size:10px;">C</text>
    </g>
    <g transform="matrix(1.33333,0,0,1.33333,-78.9739,-67.38)">
        <text x="215.28px" y="66px" style="font-family:'ArialMT', 'Arial', sans-serif;font-size:10px;">H</text>
        <text x="222.48px" y="68.64px" style="font-family:'ArialMT', 'Arial', sans-serif;font-size:8px;">3</text>
    </g>
    <g transform="matrix(1.33333,0,0,1.33333,-78.9739,-67.38)">
        <text x="227.04px" y="100.56px" style="font-family:'ArialMT', 'Arial', sans-serif;font-size:10px;">C</text>
    </g>
    <g transform="matrix(1.33333,0,0,1.33333,-78.9739,-67.38)">
        <text x="215.52px" y="100.56px" style="font-family:'ArialMT', 'Arial', sans-serif;font-size:10px;">H</text>
        <text x="222.72px" y="103.2px" style="font-family:'ArialMT', 'Arial', sans-serif;font-size:8px;">3</text>
    </g>
    <g transform="matrix(1.33333,0,0,1.33333,-78.9739,-67.38)">
        <text x="436.08px" y="79.68px" style="font-family:'ArialMT', 'Arial', sans-serif;font-size:10px;">CH</text>
        <text x="450.48px" y="82.32px" style="font-family:'ArialMT', 'Arial', sans-serif;font-size:8px;">2</text>
    </g>
    <g transform="matrix(1.33333,0,0,1.33333,-78.9739,-67.38)">
        <text x="450.48px" y="72.72px" style="font-family:'ArialMT', 'Arial', sans-serif;font-size:8px;">+</text>
    </g>
    <g transform="matrix(1.33333,0,0,1.33333,-78.9739,-67.38)">
        <text x="396.72px" y="114.96px" style="font-family:'ArialMT', 'Arial', sans-serif;font-size:10px;">C</text>
    </g>
    <g transform="matrix(1.33333,0,0,1.33333,-78.9739,-67.38)">
        <text x="385.2px" y="114.96px" style="font-family:'ArialMT', 'Arial', sans-serif;font-size:10px;">H</text>
        <text x="392.4px" y="117.6px" style="font-family:'ArialMT', 'Arial', sans-serif;font-size:8px;">3</text>
    </g>
    <g transform="matrix(1.33333,0,0,1.33333,-78.9739,-67.38)">
        <text x="396.24px" y="80.64px" style="font-family:'ArialMT', 'Arial', sans-serif;font-size:10px;">C</text>
    </g>
    <g transform="matrix(1.33333,0,0,1.33333,-78.9739,-67.38)">
        <text x="384.72px" y="80.64px" style="font-family:'ArialMT', 'Arial', sans-serif;font-size:10px;">H</text>
        <text x="391.92px" y="83.28px" style="font-family:'ArialMT', 'Arial', sans-serif;font-size:8px;">3</text>
    </g>
    <g transform="matrix(1.33333,0,0,1.33333,-78.9739,-67.38)">
        <text x="441.36px" y="153.36px" style="font-family:'ArialMT', 'Arial', sans-serif;font-size:10px;">CH</text>
        <text x="455.76px" y="156px" style="font-family:'ArialMT', 'Arial', sans-serif;font-size:8px;">2</text>
    </g>
    <g transform="matrix(1.33333,0,0,1.33333,-78.9739,-67.38)">
        <text x="411.6px" y="171.36px" style="font-family:'ArialMT', 'Arial', sans-serif;font-size:10px;">C</text>
        <text x="418.8px" y="164.4px" style="font-family:'ArialMT', 'Arial', sans-serif;font-size:8px;">+</text>
    </g>
    <g transform="matrix(1.33333,0,0,1.33333,-78.9739,-67.38)">
        <text x="402px" y="188.64px" style="font-family:'ArialMT', 'Arial', sans-serif;font-size:10px;">C</text>
    </g>
    <g transform="matrix(1.33333,0,0,1.33333,-78.9739,-67.38)">
        <text x="390.48px" y="188.64px" style="font-family:'ArialMT', 'Arial', sans-serif;font-size:10px;">H</text>
        <text x="397.68px" y="191.28px" style="font-family:'ArialMT', 'Arial', sans-serif;font-size:8px;">3</text>
    </g>
    <g transform="matrix(1.33333,0,0,1.33333,-78.9739,-67.38)">
        <text x="401.52px" y="154.32px" style="font-family:'ArialMT', 'Arial', sans-serif;font-size:10px;">C</text>
    </g>
    <g transform="matrix(1.33333,0,0,1.33333,-78.9739,-67.38)">
        <text x="390px" y="154.32px" style="font-family:'ArialMT', 'Arial', sans-serif;font-size:10px;">H</text>
        <text x="397.2px" y="156.96px" style="font-family:'ArialMT', 'Arial', sans-serif;font-size:8px;">3</text>
    </g>
    <g transform="matrix(1.33333,0,0,1.33333,-78.9739,-67.38)">
        <text x="483.84px" y="86.16px" style="font-family:'ArialMT', 'Arial', sans-serif;font-size:18px;">+</text>
        <text x="502.56px" y="84.48px" style="font-family:'ArialMT', 'Arial', sans-serif;font-size:10px;">N</text>
        <text x="510px" y="87.12px" style="font-family:'ArialMT', 'Arial', sans-serif;font-size:8px;">3</text>
        <text x="514.56px" y="77.52px" style="font-family:'ArialMT', 'Arial', sans-serif;font-size:8px;">-</text>
    </g>
    <g transform="matrix(1.33333,0,0,1.33333,-78.9739,-67.38)">
        <text x="190.32px" y="276.96px" style="font-family:'ArialMT', 'Arial', sans-serif;font-size:10px;">CH</text>
        <text x="204.72px" y="279.6px" style="font-family:'ArialMT', 'Arial', sans-serif;font-size:8px;">2</text>
    </g>
    <g transform="matrix(1.33333,0,0,1.33333,-78.9739,-67.38)">
        <text x="137.76px" y="281.52px" style="font-family:'ArialMT', 'Arial', sans-serif;font-size:10px;">C</text>
    </g>
    <g transform="matrix(1.33333,0,0,1.33333,-78.9739,-67.38)">
        <text x="126.24px" y="281.52px" style="font-family:'ArialMT', 'Arial', sans-serif;font-size:10px;">H</text>
        <text x="133.44px" y="284.16px" style="font-family:'ArialMT', 'Arial', sans-serif;font-size:8px;">3</text>
    </g>
    <g transform="matrix(1.33333,0,0,1.33333,-78.9739,-67.38)">
        <text x="143.52px" y="253.44px" style="font-family:'ArialMT', 'Arial', sans-serif;font-size:10px;">C</text>
    </g>
    <g transform="matrix(1.33333,0,0,1.33333,-78.9739,-67.38)">
        <text x="132px" y="253.44px" style="font-family:'ArialMT', 'Arial', sans-serif;font-size:10px;">H</text>
        <text x="139.2px" y="256.08px" style="font-family:'ArialMT', 'Arial', sans-serif;font-size:8px;">3</text>
    </g>
    <g transform="matrix(1.33333,0,0,1.33333,-78.9739,-67.38)">
        <text x="180.96px" y="263.04px" style="font-family:'ArialMT', 'Arial', sans-serif;font-size:10px;">O<tspan x="188.88px " y="263.04px ">H</tspan></text>
    </g>
    <g transform="matrix(1.33333,0,0,1.33333,-78.9739,-67.38)">
        <text x="282px" y="255.36px" style="font-family:'ArialMT', 'Arial', sans-serif;font-size:10px;">C</text>
    </g>
    <g transform="matrix(1.33333,0,0,1.33333,-78.9739,-67.38)">
        <text x="270.48px" y="255.36px" style="font-family:'ArialMT', 'Arial', sans-serif;font-size:10px;">H</text>
        <text x="277.68px" y="258px" style="font-family:'ArialMT', 'Arial', sans-serif;font-size:8px;">3</text>
    </g>
    <g transform="matrix(1.33333,0,0,1.33333,-78.9739,-67.38)">
        <text x="306px" y="279.84px" style="font-family:'ArialMT', 'Arial', sans-serif;font-size:10px;">O</text>
        <text x="313.92px" y="272.88px" style="font-family:'ArialMT', 'Arial', sans-serif;font-size:8px;">+</text>
    </g>
    <g transform="matrix(1.33333,0,0,1.33333,-78.9739,-67.38)">
        <text x="272.88px" y="288.48px" style="font-family:'ArialMT', 'Arial', sans-serif;font-size:10px;">C</text>
    </g>
    <g transform="matrix(1.33333,0,0,1.33333,-78.9739,-67.38)">
        <text x="261.36px" y="288.48px" style="font-family:'ArialMT', 'Arial', sans-serif;font-size:10px;">H</text>
        <text x="268.56px" y="291.12px" style="font-family:'ArialMT', 'Arial', sans-serif;font-size:8px;">3</text>
    </g>
    <g transform="matrix(1.33333,0,0,1.33333,-78.9739,-67.38)">
        <text x="306.48px" y="299.28px" style="font-family:'ArialMT', 'Arial', sans-serif;font-size:10px;">H</text>
    </g>
    <g transform="matrix(1.33333,0,0,1.33333,-78.9739,-67.38)">
        <text x="331.2px" y="275.28px" style="font-family:'ArialMT', 'Arial', sans-serif;font-size:18px;">+</text>
        <text x="354.24px" y="271.92px" style="font-family:'ArialMT', 'Arial', sans-serif;font-size:10px;">H</text>
        <text x="361.452px" y="274.56px" style="font-family:'ArialMT', 'Arial', sans-serif;font-size:8px;">2</text>
        <text x="365.773px" y="271.92px" style="font-family:'ArialMT', 'Arial', sans-serif;font-size:10px;">C	<tspan x="385.68px " y="271.92px ">C</tspan>H</text>
        <text x="400.096px" y="264.96px" style="font-family:'ArialMT', 'Arial', sans-serif;font-size:8px;">–</text>
    </g>
    <g transform="matrix(1.19494,0.591519,0.591519,-1.19494,-515.852,871.689)">
        <path d="M122.994,769.05L137.556,769.05" style="fill:none;fill-rule:nonzero;stroke:black;stroke-width:0.72px;"/>
    </g>
    <g transform="matrix(1.11033,-0.73821,-0.73821,-1.11033,512.807,969.416)">
        <path d="M105.494,766.765L125.416,766.765" style="fill:none;fill-rule:nonzero;stroke:black;stroke-width:0.72px;"/>
    </g>
    <g transform="matrix(-0.6685,-1.15364,-1.15364,0.6685,973.778,-384.101)">
        <path d="M76.759,767.24L90.721,767.24" style="fill:none;fill-rule:nonzero;stroke:black;stroke-width:0.72px;"/>
    </g>
    <g transform="matrix(-1.33333,0.00334671,0.00334671,1.33333,177.678,-975.075)">
        <path d="M87.24,761.225L107.16,761.225" style="fill:none;fill-rule:nonzero;stroke:black;stroke-width:0.72px;"/>
    </g>
    <g transform="matrix(-1.33333,0.00292077,0.00292077,1.33333,180.206,-984.011)">
        <path d="M88.9,764.59L107.16,764.59" style="fill:none;fill-rule:nonzero;stroke:black;stroke-width:0.72px;"/>
    </g>
    <g transform="matrix(0.66377,-1.15637,-1.15637,-0.66377,850.299,646.425)">
        <path d="M76.74,755.12L90.76,755.12" style="fill:none;fill-rule:nonzero;stroke:black;stroke-width:0.72px;"/>
    </g>
    <g transform="matrix(1.33333,0,0,1.33333,-78.9739,-976.82)">
        <path d="M170.64,762L204.72,762" style="fill:none;fill-rule:nonzero;stroke:black;stroke-width:0.72px;"/>
    </g>
    <g transform="matrix(1.33333,0,0,1.33333,-78.9739,-984.5)">
        <path d="M170.64,764.88L204.72,764.88" style="fill:none;fill-rule:nonzero;stroke:black;stroke-width:0.72px;"/>
    </g>
    <g transform="matrix(1.33333,0,0,1.33333,-78.9739,-980.66)">
        <path d="M200.16,759.84L208.08,763.44L200.16,767.04" style="fill:none;fill-rule:nonzero;stroke:black;stroke-width:0.72px;"/>
    </g>
    <g transform="matrix(1.19494,0.591519,0.591519,-1.19494,-495.48,780.775)">
        <path d="M276.354,770.49L290.916,770.49" style="fill:none;fill-rule:nonzero;stroke:black;stroke-width:0.72px;"/>
    </g>
    <g transform="matrix(1.11033,-0.73821,-0.73821,-1.11033,548.07,1082.31)">
        <path d="M258.854,768.205L278.776,768.205" style="fill:none;fill-rule:nonzero;stroke:black;stroke-width:0.72px;"/>
    </g>
    <g transform="matrix(-0.6685,-1.15364,-1.15364,0.6685,1282.44,-210.061)">
        <path d="M230.119,768.68L244.081,768.68" style="fill:none;fill-rule:nonzero;stroke:black;stroke-width:0.72px;"/>
    </g>
    <g transform="matrix(-1.33333,0.00334671,0.00334671,1.33333,586.633,-979.429)">
        <path d="M240.6,762.665L260.52,762.665" style="fill:none;fill-rule:nonzero;stroke:black;stroke-width:0.72px;"/>
    </g>
    <g transform="matrix(-1.33333,0.00292077,0.00292077,1.33333,589.161,-988.298)">
        <path d="M242.26,766.03L260.52,766.03" style="fill:none;fill-rule:nonzero;stroke:black;stroke-width:0.72px;"/>
    </g>
    <g transform="matrix(0.66377,-1.15637,-1.15637,-0.66377,954.648,822.802)">
        <path d="M230.1,756.56L244.12,756.56" style="fill:none;fill-rule:nonzero;stroke:black;stroke-width:0.72px;"/>
    </g>
    <g transform="matrix(1.33333,0,0,1.33333,-78.9739,-989.3)">
        <path d="M280.08,785.04L278.88,782.88L277.44,778.08L276.96,775.44L276.96,771.12L277.44,767.76L278.4,764.4L278.88,762.96L279.6,761.52L281.52,758.64L282.48,757.44L283.44,756L284.64,755.04L285.84,753.84L287.28,752.88L288.48,751.92L289.92,751.2L291.6,750.48L293.04,749.76L296.4,748.8L299.76,748.32L301.68,748.32" style="fill:none;fill-rule:nonzero;stroke:black;stroke-width:0.48px;"/>
    </g>
    <g transform="matrix(0.818587,1.05247,1.05247,-0.818587,-727.979,375.762)">
        <path d="M274.118,751.884L282.328,751.884L275.15,755.947L276.118,753.673L274.118,751.884Z" style="stroke:black;stroke-width:0.48px;"/>
    </g>
    <g transform="matrix(1.33333,0,0,1.33333,-78.9739,-976.82)">
        <path d="M318.96,762L353.04,762" style="fill:none;fill-rule:nonzero;stroke:black;stroke-width:0.72px;"/>
    </g>
    <g transform="matrix(1.33333,0,0,1.33333,-78.9739,-984.5)">
        <path d="M318.96,764.88L353.04,764.88" style="fill:none;fill-rule:nonzero;stroke:black;stroke-width:0.72px;"/>
    </g>
    <g transform="matrix(1.33333,0,0,1.33333,-78.9739,-980.66)">
        <path d="M348.48,759.84L356.4,763.44L348.48,767.04" style="fill:none;fill-rule:nonzero;stroke:black;stroke-width:0.72px;"/>
    </g>
    <g transform="matrix(0.644402,-1.16727,-1.16727,-0.644402,1100.78,1041.14)">
        <path d="M426.414,754.845L440.566,754.845" style="fill:none;fill-rule:nonzero;stroke:black;stroke-width:0.72px;"/>
    </g>
    <g transform="matrix(1.3331,-0.0247615,-0.0247615,-1.3331,-60.3442,1065.41)">
        <path d="M410.148,748.465L430.072,748.465" style="fill:none;fill-rule:nonzero;stroke:black;stroke-width:0.72px;"/>
    </g>
    <g transform="matrix(1.3331,-0.0248953,-0.0248953,-1.3331,-60.1593,1065.46)">
        <path d="M411.749,751.825L428.351,751.825" style="fill:none;fill-rule:nonzero;stroke:black;stroke-width:0.72px;"/>
    </g>
    <g transform="matrix(0.644761,-1.16707,-1.16707,-0.644761,1067.3,1018.88)">
        <path d="M399.811,742.18L413.749,742.18" style="fill:none;fill-rule:nonzero;stroke:black;stroke-width:0.72px;"/>
    </g>
    <g transform="matrix(0.688128,1.14204,1.14204,-0.688128,-677.941,104.231)">
        <path d="M399.707,754.18L413.483,754.18" style="fill:none;fill-rule:nonzero;stroke:black;stroke-width:0.72px;"/>
    </g>
    <g transform="matrix(0,1.33333,1.33333,0,-470.654,-469.3)">
        <path d="M410.88,718.56L438.72,718.56" style="fill:none;fill-rule:nonzero;stroke:black;stroke-width:0.72px;"/>
    </g>
    <g transform="matrix(1.33333,0,0,1.33333,-78.9739,-834.42)">
        <path d="M426.72,704.64L424.8,712.56L422.88,704.64" style="fill:none;fill-rule:nonzero;stroke:black;stroke-width:0.72px;"/>
    </g>
    <g transform="matrix(1.33333,0,0,1.33333,-78.9739,-887.54)">
        <path d="M426.72,732.48L424.8,724.56L422.88,732.48" style="fill:none;fill-rule:nonzero;stroke:black;stroke-width:0.72px;"/>
    </g>
    <g transform="matrix(0.644402,-1.16727,-1.16727,-0.644402,1018.41,1098.07)">
        <path d="M431.694,681.165L445.846,681.165" style="fill:none;fill-rule:nonzero;stroke:black;stroke-width:0.72px;"/>
    </g>
    <g transform="matrix(0.644896,-1.167,-1.167,-0.644896,1020.47,1093.66)">
        <path d="M429.426,684.465L444.084,684.465" style="fill:none;fill-rule:nonzero;stroke:black;stroke-width:0.72px;"/>
    </g>
    <g transform="matrix(1.3331,-0.0247979,-0.0247979,-1.3331,-62.141,1065.63)">
        <path d="M419.759,674.825L435.351,674.825" style="fill:none;fill-rule:nonzero;stroke:black;stroke-width:0.72px;"/>
    </g>
    <g transform="matrix(0.644103,-1.16744,-1.16744,-0.644103,981.404,1075.6)">
        <path d="M406.635,665.88L414.585,665.88" style="fill:none;fill-rule:nonzero;stroke:black;stroke-width:0.72px;"/>
    </g>
    <g transform="matrix(0.688242,1.14197,1.14197,-0.688242,-594.277,145.954)">
        <path d="M406.422,683.04L414.268,683.04" style="fill:none;fill-rule:nonzero;stroke:black;stroke-width:0.72px;"/>
    </g>
    <g transform="matrix(1.33333,0,0,1.33333,-78.9739,-846.26)">
        <path d="M472.08,788.88L465.6,788.88L465.6,788.64L471.36,788.64L471.36,637.44L465.6,637.44L465.6,637.2L472.08,637.2L472.08,788.88Z" style="stroke:black;stroke-width:0.02px;"/>
    </g>
    <g transform="matrix(1.33333,0,0,1.33333,-78.9739,-846.26)">
        <path d="M372.72,637.2L379.2,637.2L379.2,637.44L373.44,637.44L373.44,788.64L379.2,788.64L379.2,788.88L372.72,788.88L372.72,637.2Z" style="stroke:black;stroke-width:0.02px;"/>
    </g>
    <g transform="matrix(1.33333,0,0,1.33333,-78.9739,-741.3)">
        <path d="M490.8,673.68L524.88,673.68" style="fill:none;fill-rule:nonzero;stroke:black;stroke-width:0.72px;"/>
    </g>
    <g transform="matrix(1.33333,0,0,1.33333,-78.9739,-748.98)">
        <path d="M490.8,676.56L524.88,676.56" style="fill:none;fill-rule:nonzero;stroke:black;stroke-width:0.72px;"/>
    </g>
    <g transform="matrix(1.33333,0,0,1.33333,-78.9739,-745.14)">
        <path d="M520.32,671.52L528.24,675.12L520.32,678.72" style="fill:none;fill-rule:nonzero;stroke:black;stroke-width:0.72px;"/>
    </g>
    <g transform="matrix(1.33333,0,0,1.33333,-78.9739,-473.78)">
        <path d="M73.2,573.36L107.28,573.36" style="fill:none;fill-rule:nonzero;stroke:black;stroke-width:0.72px;"/>
    </g>
    <g transform="matrix(1.33333,0,0,1.33333,-78.9739,-481.46)">
        <path d="M73.2,576.24L107.28,576.24" style="fill:none;fill-rule:nonzero;stroke:black;stroke-width:0.72px;"/>
    </g>
    <g transform="matrix(1.33333,0,0,1.33333,-78.9739,-477.62)">
        <path d="M102.72,571.2L110.64,574.8L102.72,578.4" style="fill:none;fill-rule:nonzero;stroke:black;stroke-width:0.72px;"/>
    </g>
    <g transform="matrix(1.21768,-0.543175,-0.543175,-1.21768,248.419,1089.12)">
        <path d="M175.083,563.87L190.007,563.87" style="fill:none;fill-rule:nonzero;stroke:black;stroke-width:0.72px;"/>
    </g>
    <g transform="matrix(1.21778,-0.542952,-0.542952,-1.21778,250.284,1088.72)">
        <path d="M175.245,567.565L189.905,567.565" style="fill:none;fill-rule:nonzero;stroke:black;stroke-width:0.72px;"/>
    </g>
    <g transform="matrix(1.07907,0.783194,0.783194,-1.07907,-480.161,779.774)">
        <path d="M157.711,566.68L177.629,566.68" style="fill:none;fill-rule:nonzero;stroke:black;stroke-width:0.72px;"/>
    </g>
    <g transform="matrix(1.2179,-0.542673,-0.542673,-1.2179,247.702,1072.35)">
        <path d="M145.271,569.48L160.259,569.48" style="fill:none;fill-rule:nonzero;stroke:black;stroke-width:0.72px;"/>
    </g>
    <g transform="matrix(0.704525,1.132,1.132,-0.704525,-637.948,515.049)">
        <path d="M146.333,579.905L163.707,579.905" style="fill:none;fill-rule:nonzero;stroke:black;stroke-width:0.72px;"/>
    </g>
    <g transform="matrix(1.23196,-0.509945,-0.509945,-1.23196,232.35,1083.31)">
        <path d="M158.771,576.75L180.839,576.75" style="fill:none;fill-rule:nonzero;stroke:black;stroke-width:0.72px;"/>
    </g>
    <g transform="matrix(1.33333,0,0,1.33333,-78.9739,-474.42)">
        <path d="M218.4,573.6L252.48,573.6" style="fill:none;fill-rule:nonzero;stroke:black;stroke-width:0.72px;"/>
    </g>
    <g transform="matrix(1.33333,0,0,1.33333,-78.9739,-482.1)">
        <path d="M218.4,576.48L252.48,576.48" style="fill:none;fill-rule:nonzero;stroke:black;stroke-width:0.72px;"/>
    </g>
    <g transform="matrix(1.33333,0,0,1.33333,-78.9739,-478.26)">
        <path d="M247.92,571.44L255.84,575.04L247.92,578.64" style="fill:none;fill-rule:nonzero;stroke:black;stroke-width:0.72px;"/>
    </g>
    <g transform="matrix(-0.33331,-1.291,-1.291,0.33331,1149.22,464.339)">
        <path d="M281.684,578.33L296.206,578.33" style="fill:none;fill-rule:nonzero;stroke:black;stroke-width:0.72px;"/>
    </g>
    <g transform="matrix(-1.28461,-0.357137,-0.357137,1.28461,904.236,-328.865)">
        <path d="M290.489,569.315L305.311,569.315" style="fill:none;fill-rule:nonzero;stroke:black;stroke-width:0.72px;"/>
    </g>
    <g transform="matrix(-1.2845,-0.357541,-0.357541,1.2845,904.067,-319.17)">
        <path d="M291.202,565.73L305.298,565.73" style="fill:none;fill-rule:nonzero;stroke:black;stroke-width:0.72px;"/>
    </g>
    <g transform="matrix(0.951579,-0.933957,-0.933957,-0.951579,559.284,1105.92)">
        <path d="M279.09,566.53L292.71,566.53" style="fill:none;fill-rule:nonzero;stroke:black;stroke-width:0.72px;"/>
    </g>
    <g transform="matrix(0.0102336,1.33329,1.33329,-0.0102336,-410.531,-94.228)">
        <path d="M305.455,556.32L314.575,556.32" style="fill:none;fill-rule:nonzero;stroke:black;stroke-width:0.72px;"/>
    </g>
    <g transform="matrix(1.33333,0,0,1.33333,-78.9739,-503.22)">
        <path d="M162,590.64L162.72,588.96L163.68,587.52L164.64,585.84L165.84,584.64L167.04,583.2L168.48,582.24L169.92,581.04L174.96,578.88L176.88,578.4L178.8,578.16L180.72,578.16L183.12,578.4L185.76,578.88L188.16,579.6" style="fill:none;fill-rule:nonzero;stroke:black;stroke-width:0.48px;"/>
    </g>
    <g transform="matrix(-0.350823,1.28635,1.28635,0.350823,-550.303,-137.141)">
        <path d="M161.097,580.499L169.307,580.499L162.066,584.246L163.16,582.057L161.097,580.499Z" style="stroke:black;stroke-width:0.48px;"/>
    </g>
    <g transform="matrix(1.33333,0,0,1.33333,-78.9739,-471.22)">
        <path d="M373.92,572.4L384.72,572.4" style="fill:none;fill-rule:nonzero;stroke:black;stroke-width:0.72px;"/>
    </g>
    <g transform="matrix(1.33333,0,0,1.33333,-78.9739,-480.18)">
        <path d="M373.92,575.76L384.72,575.76" style="fill:none;fill-rule:nonzero;stroke:black;stroke-width:0.72px;"/>
    </g>
</svg>
