<?xml version="1.0" encoding="UTF-8" standalone="no"?>
<!DOCTYPE svg PUBLIC "-//W3C//DTD SVG 1.1//EN" "http://www.w3.org/Graphics/SVG/1.1/DTD/svg11.dtd">
<svg width="100%" height="100%" viewBox="0 0 610 165" version="1.1" xmlns="http://www.w3.org/2000/svg" xmlns:xlink="http://www.w3.org/1999/xlink" xml:space="preserve" xmlns:serif="http://www.serif.com/" style="fill-rule:evenodd;clip-rule:evenodd;stroke-linecap:round;stroke-linejoin:round;stroke-miterlimit:10;">
    <g transform="matrix(1.33333,0,0,1.33333,-72.44,-72.1354)">
        <text x="87.84px" y="63.12px" style="font-family:'ArialMT', 'Arial', sans-serif;font-size:10px;">O</text>
    </g>
    <g transform="matrix(1.33333,0,0,1.33333,-72.44,-72.1354)">
        <text x="105.6px" y="92.64px" style="font-family:'ArialMT', 'Arial', sans-serif;font-size:10px;">CH</text>
        <text x="120px" y="95.28px" style="font-family:'ArialMT', 'Arial', sans-serif;font-size:8px;">3</text>
    </g>
    <g transform="matrix(1.33333,0,0,1.33333,-72.44,-72.1354)">
        <text x="71.04px" y="93.12px" style="font-family:'ArialMT', 'Arial', sans-serif;font-size:10px;">C</text>
    </g>
    <g transform="matrix(1.33333,0,0,1.33333,-72.44,-72.1354)">
        <text x="59.52px" y="93.12px" style="font-family:'ArialMT', 'Arial', sans-serif;font-size:10px;">H</text>
        <text x="66.72px" y="95.76px" style="font-family:'ArialMT', 'Arial', sans-serif;font-size:8px;">3</text>
    </g>
    <g transform="matrix(1.33333,0,0,1.33333,-72.44,-72.1354)">
        <text x="131.28px" y="85.44px" style="font-family:'ArialMT', 'Arial', sans-serif;font-size:18px;">+</text>
    </g>
    <g transform="matrix(1.33333,0,0,1.33333,-72.44,-72.1354)">
        <text x="259.92px" y="98.88px" style="font-family:'ArialMT', 'Arial', sans-serif;font-size:10px;">O</text>
    </g>
    <g transform="matrix(1.33333,0,0,1.33333,-72.44,-72.1354)">
        <text x="252.72px" y="98.88px" style="font-family:'ArialMT', 'Arial', sans-serif;font-size:10px;">H</text>
    </g>
    <g transform="matrix(1.33333,0,0,1.33333,-72.44,-72.1354)">
        <text x="280.08px" y="64.56px" style="font-family:'ArialMT', 'Arial', sans-serif;font-size:10px;">CH</text>
        <text x="294.48px" y="67.2px" style="font-family:'ArialMT', 'Arial', sans-serif;font-size:8px;">3</text>
    </g>
    <g transform="matrix(1.33333,0,0,1.33333,-72.44,-72.1354)">
        <text x="252.96px" y="72px" style="font-family:'ArialMT', 'Arial', sans-serif;font-size:10px;">C</text>
    </g>
    <g transform="matrix(1.33333,0,0,1.33333,-72.44,-72.1354)">
        <text x="241.44px" y="72px" style="font-family:'ArialMT', 'Arial', sans-serif;font-size:10px;">H</text>
        <text x="248.64px" y="74.64px" style="font-family:'ArialMT', 'Arial', sans-serif;font-size:8px;">3</text>
    </g>
    <g transform="matrix(1.33333,0,0,1.33333,-72.44,-72.1354)">
        <text x="304.8px" y="81.84px" style="font-family:'ArialMT', 'Arial', sans-serif;font-size:10px;">CH</text>
        <text x="319.2px" y="84.48px" style="font-family:'ArialMT', 'Arial', sans-serif;font-size:8px;">2</text>
    </g>
    <g transform="matrix(1.33333,0,0,1.33333,-72.44,-72.1354)">
        <text x="407.04px" y="65.04px" style="font-family:'ArialMT', 'Arial', sans-serif;font-size:10px;">CH</text>
        <text x="421.44px" y="67.68px" style="font-family:'ArialMT', 'Arial', sans-serif;font-size:8px;">3</text>
    </g>
    <g transform="matrix(1.33333,0,0,1.33333,-72.44,-72.1354)">
        <text x="389.76px" y="94.8px" style="font-family:'ArialMT', 'Arial', sans-serif;font-size:10px;">C</text>
    </g>
    <g transform="matrix(1.33333,0,0,1.33333,-72.44,-72.1354)">
        <text x="378.24px" y="94.8px" style="font-family:'ArialMT', 'Arial', sans-serif;font-size:10px;">H</text>
        <text x="385.44px" y="97.44px" style="font-family:'ArialMT', 'Arial', sans-serif;font-size:8px;">3</text>
    </g>
    <g transform="matrix(1.33333,0,0,1.33333,-72.44,-72.1354)">
        <text x="459.6px" y="94.08px" style="font-family:'ArialMT', 'Arial', sans-serif;font-size:10px;">Br</text>
    </g>
    <g transform="matrix(1.33333,0,0,1.33333,-72.44,-72.1354)">
        <text x="130.08px" y="141.6px" style="font-family:'ArialMT', 'Arial', sans-serif;font-size:10px;">CH</text>
        <text x="144.48px" y="144.24px" style="font-family:'ArialMT', 'Arial', sans-serif;font-size:8px;">3</text>
    </g>
    <g transform="matrix(1.33333,0,0,1.33333,-72.44,-72.1354)">
        <text x="112.8px" y="171.36px" style="font-family:'ArialMT', 'Arial', sans-serif;font-size:10px;">C</text>
    </g>
    <g transform="matrix(1.33333,0,0,1.33333,-72.44,-72.1354)">
        <text x="101.28px" y="171.36px" style="font-family:'ArialMT', 'Arial', sans-serif;font-size:10px;">H</text>
        <text x="108.48px" y="174px" style="font-family:'ArialMT', 'Arial', sans-serif;font-size:8px;">3</text>
    </g>
    <g transform="matrix(1.33333,0,0,1.33333,-72.44,-72.1354)">
        <text x="182.4px" y="170.64px" style="font-family:'ArialMT', 'Arial', sans-serif;font-size:10px;">N</text>
        <text x="189.84px" y="173.28px" style="font-family:'ArialMT', 'Arial', sans-serif;font-size:8px;">3</text>
    </g>
    <g transform="matrix(1.33333,0,0,1.33333,-72.44,-72.1354)">
        <text x="251.76px" y="159.12px" style="font-family:'ArialMT', 'Arial', sans-serif;font-size:10px;">T<tspan x="258px " y="159.12px ">M</tspan></text>
    </g>
    <g transform="matrix(1.33333,0,0,1.33333,-72.44,-72.1354)">
        <text x="158.16px" y="72px" style="font-family:'ArialMT', 'Arial', sans-serif;font-size:10px;">1</text>
        <text x="163.68px" y="72px" style="font-family:'ArialMT', 'Arial', sans-serif;font-size:10px;">)</text>
        <text x="169.952px" y="72px" style="font-family:'ArialMT', 'Arial', sans-serif;font-size:10px;">CH</text>
        <text x="184.352px" y="74.64px" style="font-family:'ArialMT', 'Arial', sans-serif;font-size:6px;">2</text>
        <text x="187.952px" y="72px" style="font-family:'ArialMT', 'Arial', sans-serif;font-size:10px;">=</text>
        <text x="193.952px" y="72px" style="font-family:'ArialMT', 'Arial', sans-serif;font-size:10px;">CH</text>
        <text x="208.352px" y="72px" style="font-family:'ArialMT', 'Arial', sans-serif;font-size:10px;">M</text>
        <text x="216.752px" y="72px" style="font-family:'ArialMT', 'Arial', sans-serif;font-size:10px;">g</text>
        <text x="222.272px" y="72px" style="font-family:'ArialMT', 'Arial', sans-serif;font-size:10px;">Br</text>
    </g>
    <g transform="matrix(1.33333,0,0,1.33333,-72.44,-72.1354)">
        <text x="172.32px" y="92.4px" style="font-family:'ArialMT', 'Arial', sans-serif;font-size:10px;">2</text>
        <text x="177.84px" y="92.4px" style="font-family:'ArialMT', 'Arial', sans-serif;font-size:10px;">)</text>
        <text x="184.112px" y="92.4px" style="font-family:'ArialMT', 'Arial', sans-serif;font-size:10px;">NH</text>
        <text x="198.512px" y="95.04px" style="font-family:'ArialMT', 'Arial', sans-serif;font-size:6px;">4</text>
        <text x="202.112px" y="92.4px" style="font-family:'ArialMT', 'Arial', sans-serif;font-size:10px;">Cl</text>
    </g>
    <g transform="matrix(1.33333,0,0,1.33333,-72.44,-72.1354)">
        <text x="335.52px" y="72px" style="font-family:'ArialMT', 'Arial', sans-serif;font-size:10px;">1</text>
        <text x="341.04px" y="72px" style="font-family:'ArialMT', 'Arial', sans-serif;font-size:10px;">)</text>
        <text x="347.312px" y="72px" style="font-family:'ArialMT', 'Arial', sans-serif;font-size:10px;">H</text>
        <text x="354.512px" y="72px" style="font-family:'ArialMT', 'Arial', sans-serif;font-size:10px;">Br</text>
    </g>
    <g transform="matrix(1.33333,0,0,1.33333,-72.44,-72.1354)">
        <text x="337.2px" y="90.24px" style="font-family:'ArialMT', 'Arial', sans-serif;font-size:10px;">2</text>
        <text x="342.72px" y="90.24px" style="font-family:'ArialMT', 'Arial', sans-serif;font-size:10px;">) <tspan x="349.013px " y="90.24px ">M</tspan>g</text>
    </g>
    <g transform="matrix(1.33333,0,0,1.33333,-72.44,-72.1354)">
        <text x="480.48px" y="70.56px" style="font-family:'ArialMT', 'Arial', sans-serif;font-size:10px;">NaN</text>
        <text x="500.4px" y="73.2px" style="font-family:'ArialMT', 'Arial', sans-serif;font-size:6px;">3</text>
    </g>
    <g transform="matrix(1.33333,0,0,1.33333,-72.44,-72.1354)">
        <text x="201.84px" y="147.6px" style="font-family:'ArialMT', 'Arial', sans-serif;font-size:10px;">1</text>
        <text x="207.36px" y="147.6px" style="font-family:'ArialMT', 'Arial', sans-serif;font-size:10px;">) <tspan x="213.646px " y="147.6px ">P</tspan>P</text>
        <text x="227.073px" y="147.6px" style="font-family:'ArialMT', 'Arial', sans-serif;font-size:10px;">h</text>
        <text x="232.593px" y="150.24px" style="font-family:'ArialMT', 'Arial', sans-serif;font-size:6px;">3</text>
    </g>
    <g transform="matrix(1.33333,0,0,1.33333,-72.44,-72.1354)">
        <text x="203.76px" y="169.44px" style="font-family:'ArialMT', 'Arial', sans-serif;font-size:10px;">2</text>
        <text x="209.28px" y="169.44px" style="font-family:'ArialMT', 'Arial', sans-serif;font-size:10px;">)</text>
        <text x="215.552px" y="169.44px" style="font-family:'ArialMT', 'Arial', sans-serif;font-size:10px;">H</text>
        <text x="222.752px" y="172.08px" style="font-family:'ArialMT', 'Arial', sans-serif;font-size:6px;">2</text>
        <text x="226.352px" y="169.44px" style="font-family:'ArialMT', 'Arial', sans-serif;font-size:10px;">O</text>
    </g>
    <g transform="matrix(-0.00911348,-1.3333,-1.3333,0.00911348,1080.29,141.208)">
        <path d="M86.325,770.285L100.955,770.285" style="fill:none;fill-rule:nonzero;stroke:black;stroke-width:0.72px;"/>
    </g>
    <g transform="matrix(-0.00910104,-1.3333,-1.3333,0.00910104,1075.76,136.751)">
        <path d="M82.955,770.275L97.605,770.275" style="fill:none;fill-rule:nonzero;stroke:black;stroke-width:0.72px;"/>
    </g>
    <g transform="matrix(-1.15952,-0.658253,-0.658253,1.15952,672.531,-777.861)">
        <path d="M91.063,759.375L105.587,759.375" style="fill:none;fill-rule:nonzero;stroke:black;stroke-width:0.72px;"/>
    </g>
    <g transform="matrix(1.14985,-0.675007,-0.675007,-1.14985,455.733,968.904)">
        <path d="M78.178,759.2L93.032,759.2" style="fill:none;fill-rule:nonzero;stroke:black;stroke-width:0.72px;"/>
    </g>
    <g transform="matrix(-0.669909,1.15282,1.15282,0.669909,-404.554,-780.158)">
        <path d="M263.589,758.14L277.421,758.14" style="fill:none;fill-rule:nonzero;stroke:black;stroke-width:0.72px;"/>
    </g>
    <g transform="matrix(-0.66369,1.15641,1.15641,0.66369,-408.997,-808.392)">
        <path d="M270.494,770.14L284.376,770.14" style="fill:none;fill-rule:nonzero;stroke:black;stroke-width:0.72px;"/>
    </g>
    <g transform="matrix(1.15876,0.659577,0.659577,-1.15876,-532.144,739.925)">
        <path d="M260.151,767.78L274.949,767.78" style="fill:none;fill-rule:nonzero;stroke:black;stroke-width:0.72px;"/>
    </g>
    <g transform="matrix(-1.15021,-0.674379,-0.674379,1.15021,1141.15,-644.332)">
        <path d="M272.62,759.11L292.43,759.11" style="fill:none;fill-rule:nonzero;stroke:black;stroke-width:0.72px;"/>
    </g>
    <g transform="matrix(-1.15481,0.666479,0.666479,1.15481,162.622,-1033.3)">
        <path d="M290.083,757.785L304.827,757.785" style="fill:none;fill-rule:nonzero;stroke:black;stroke-width:0.72px;"/>
    </g>
    <g transform="matrix(-1.15481,0.666479,0.666479,1.15481,159.569,-1042.51)">
        <path d="M289.863,761.545L304.607,761.545" style="fill:none;fill-rule:nonzero;stroke:black;stroke-width:0.72px;"/>
    </g>
    <g transform="matrix(0.00722174,-1.33331,-1.33331,-0.00722174,1496.68,579.278)">
        <path d="M403.395,768.295L418.165,768.295" style="fill:none;fill-rule:nonzero;stroke:black;stroke-width:0.72px;"/>
    </g>
    <g transform="matrix(-1.15122,-0.67266,-0.67266,1.15122,1477.89,-545.538)">
        <path d="M409.38,755.885L429.3,755.885" style="fill:none;fill-rule:nonzero;stroke:black;stroke-width:0.72px;"/>
    </g>
    <g transform="matrix(-1.15104,-0.672975,-0.672975,1.15104,1484.23,-551.3)">
        <path d="M412.734,758.775L429.356,758.775" style="fill:none;fill-rule:nonzero;stroke:black;stroke-width:0.72px;"/>
    </g>
    <g transform="matrix(1.15827,-0.660448,-0.660448,-1.15827,498.471,1184.89)">
        <path d="M396.951,757.255L411.709,757.255" style="fill:none;fill-rule:nonzero;stroke:black;stroke-width:0.72px;"/>
    </g>
    <g transform="matrix(-1.16196,0.653936,0.653936,1.16196,522.845,-1120.9)">
        <path d="M426.66,755.745L446.58,755.745" style="fill:none;fill-rule:nonzero;stroke:black;stroke-width:0.72px;"/>
    </g>
    <g transform="matrix(-1.19649,-0.588379,-0.588379,1.19649,1516.57,-599.607)">
        <path d="M444.537,757.35L459.403,757.35" style="fill:none;fill-rule:nonzero;stroke:black;stroke-width:0.72px;"/>
    </g>
    <g transform="matrix(0.00631477,-1.33332,-1.33332,-0.00631477,1027.46,310.931)">
        <path d="M126.445,691.73L141.225,691.73" style="fill:none;fill-rule:nonzero;stroke:black;stroke-width:0.72px;"/>
    </g>
    <g transform="matrix(-1.15105,-0.672952,-0.672952,1.15105,738.47,-541.429)">
        <path d="M132.439,679.315L152.351,679.315" style="fill:none;fill-rule:nonzero;stroke:black;stroke-width:0.72px;"/>
    </g>
    <g transform="matrix(-1.15124,-0.672625,-0.672625,1.15124,744.462,-547.663)">
        <path d="M135.784,682.215L152.416,682.215" style="fill:none;fill-rule:nonzero;stroke:black;stroke-width:0.72px;"/>
    </g>
    <g transform="matrix(1.15871,-0.659671,-0.659671,-1.15871,398.832,1015.59)">
        <path d="M119.992,680.685L134.768,680.685" style="fill:none;fill-rule:nonzero;stroke:black;stroke-width:0.72px;"/>
    </g>
    <g transform="matrix(-1.16196,0.653936,0.653936,1.16196,-118.154,-748.729)">
        <path d="M149.71,679.175L169.63,679.175" style="fill:none;fill-rule:nonzero;stroke:black;stroke-width:0.72px;"/>
    </g>
    <g transform="matrix(-1.19675,-0.587859,-0.587859,1.19675,770.299,-569.353)">
        <path d="M167.603,680.845L182.187,680.845" style="fill:none;fill-rule:nonzero;stroke:black;stroke-width:0.72px;"/>
    </g>
    <g transform="matrix(1.33333,0,0,1.33333,-72.44,-987.335)">
        <path d="M156.48,764.16L233.76,764.16" style="fill:none;fill-rule:nonzero;stroke:black;stroke-width:0.72px;"/>
    </g>
    <g transform="matrix(1.2958,0.314133,0.314133,-1.2958,-303.863,949.555)">
        <path d="M225.499,765.093L233.649,765.093L226.404,761.361L227.351,763.566L225.499,765.093Z" style="stroke:black;stroke-width:0.72px;"/>
    </g>
    <g transform="matrix(1.33333,0,0,1.33333,-72.44,-987.335)">
        <path d="M332.88,764.16L366.96,764.16" style="fill:none;fill-rule:nonzero;stroke:black;stroke-width:0.72px;"/>
    </g>
    <g transform="matrix(1.2958,0.314133,0.314133,-1.2958,-298.864,907.713)">
        <path d="M358.699,765.093L366.849,765.093L359.604,761.361L360.551,763.566L358.699,765.093Z" style="stroke:black;stroke-width:0.72px;"/>
    </g>
    <g transform="matrix(1.33333,0,0,1.33333,-72.44,-984.775)">
        <path d="M474.96,763.2L509.04,763.2" style="fill:none;fill-rule:nonzero;stroke:black;stroke-width:0.72px;"/>
    </g>
    <g transform="matrix(1.2958,0.314133,0.314133,-1.2958,-293.229,863.117)">
        <path d="M500.779,764.133L508.929,764.133L501.684,760.401L502.631,762.606L500.779,764.133Z" style="stroke:black;stroke-width:0.72px;"/>
    </g>
    <g transform="matrix(1.33333,0,0,1.33333,-72.44,-780.615)">
        <path d="M57.12,686.64L91.2,686.64" style="fill:none;fill-rule:nonzero;stroke:black;stroke-width:0.72px;"/>
    </g>
    <g transform="matrix(1.2958,0.314133,0.314133,-1.2958,-284.862,997.248)">
        <path d="M82.939,687.573L91.089,687.573L83.844,683.841L84.791,686.046L82.939,687.573Z" style="stroke:black;stroke-width:0.72px;"/>
    </g>
    <g transform="matrix(1.33333,0,0,1.33333,-72.44,-780.615)">
        <path d="M201.84,686.64L235.92,686.64" style="fill:none;fill-rule:nonzero;stroke:black;stroke-width:0.72px;"/>
    </g>
    <g transform="matrix(1.2958,0.314133,0.314133,-1.2958,-279.43,951.786)">
        <path d="M227.659,687.573L235.809,687.573L228.564,683.841L229.511,686.046L227.659,687.573Z" style="stroke:black;stroke-width:0.72px;"/>
    </g>
</svg>
