<?xml version="1.0" encoding="UTF-8" standalone="no"?>
<!DOCTYPE svg PUBLIC "-//W3C//DTD SVG 1.1//EN" "http://www.w3.org/Graphics/SVG/1.1/DTD/svg11.dtd">
<svg width="100%" height="100%" viewBox="0 0 435 105" version="1.1" xmlns="http://www.w3.org/2000/svg" xmlns:xlink="http://www.w3.org/1999/xlink" xml:space="preserve" xmlns:serif="http://www.serif.com/" style="fill-rule:evenodd;clip-rule:evenodd;stroke-linecap:round;stroke-linejoin:round;stroke-miterlimit:10;">
    <g transform="matrix(1.33333,0,0,1.33333,-74.4488,-84.6499)">
        <text x="72.48px" y="78.48px" style="font-family:'ArialMT', 'Arial', sans-serif;font-size:10px;">O</text>
    </g>
    <g transform="matrix(1.33333,0,0,1.33333,-74.4488,-84.6499)">
        <text x="168.24px" y="83.52px" style="font-family:'ArialMT', 'Arial', sans-serif;font-size:10px;">N</text>
    </g>
    <g transform="matrix(1.33333,0,0,1.33333,-74.4488,-84.6499)">
        <text x="185.28px" y="73.68px" style="font-family:'ArialMT', 'Arial', sans-serif;font-size:10px;">O<tspan x="193.2px " y="73.68px ">H</tspan></text>
    </g>
    <g transform="matrix(1.33333,0,0,1.33333,-74.4488,-84.6499)">
        <text x="267.6px" y="87.6px" style="font-family:'ArialMT', 'Arial', sans-serif;font-size:10px;">NH</text>
    </g>
    <g transform="matrix(1.33333,0,0,1.33333,-74.4488,-84.6499)">
        <text x="300.72px" y="83.76px" style="font-family:'ArialMT', 'Arial', sans-serif;font-size:10px;">O</text>
    </g>
    <g transform="matrix(1.33333,0,0,1.33333,-74.4488,-84.6499)">
        <text x="364.8px" y="105.84px" style="font-family:'ArialMT', 'Arial', sans-serif;font-size:10px;">T<tspan x="371.04px " y="105.84px ">M</tspan></text>
    </g>
    <g transform="matrix(1.33333,0,0,1.33333,-74.4488,-84.6499)">
        <text x="108px" y="94.56px" style="font-family:'ArialMT', 'Arial', sans-serif;font-size:10px;">NH</text>
        <text x="122.4px" y="97.2px" style="font-family:'ArialMT', 'Arial', sans-serif;font-size:6px;">2</text>
        <text x="126px" y="94.56px" style="font-family:'ArialMT', 'Arial', sans-serif;font-size:10px;">O<tspan x="133.92px " y="94.56px ">H</tspan></text>
    </g>
    <g transform="matrix(1.33333,0,0,1.33333,-74.4488,-84.6499)">
        <text x="203.52px" y="94.56px" style="font-family:'ArialMT', 'Arial', sans-serif;font-size:10px;">H</text>
        <text x="210.72px" y="97.2px" style="font-family:'ArialMT', 'Arial', sans-serif;font-size:6px;">2</text>
        <text x="214.32px" y="94.56px" style="font-family:'ArialMT', 'Arial', sans-serif;font-size:10px;">S</text>
        <text x="221.04px" y="94.56px" style="font-family:'ArialMT', 'Arial', sans-serif;font-size:10px;">O</text>
        <text x="228.96px" y="97.2px" style="font-family:'ArialMT', 'Arial', sans-serif;font-size:6px;">4</text>
    </g>
    <g transform="matrix(1.33333,0,0,1.33333,-74.4488,-84.6499)">
        <text x="322.32px" y="95.52px" style="font-family:'ArialMT', 'Arial', sans-serif;font-size:10px;">L</text>
        <text x="327.84px" y="95.52px" style="font-family:'ArialMT', 'Arial', sans-serif;font-size:10px;">i</text>
        <text x="330.24px" y="95.52px" style="font-family:'ArialMT', 'Arial', sans-serif;font-size:10px;">A</text>
        <text x="336.96px" y="95.52px" style="font-family:'ArialMT', 'Arial', sans-serif;font-size:10px;">l</text>
        <text x="339.36px" y="95.52px" style="font-family:'ArialMT', 'Arial', sans-serif;font-size:10px;">H</text>
        <text x="346.56px" y="98.16px" style="font-family:'ArialMT', 'Arial', sans-serif;font-size:6px;">4</text>
    </g>
    <g transform="matrix(0,-1.33333,-1.33333,0,1020.87,192.75)">
        <path d="M83.85,727.68L103.77,727.68" style="fill:none;fill-rule:nonzero;stroke:black;stroke-width:0.72px;"/>
    </g>
    <g transform="matrix(1.15468,0.666702,0.666702,-1.15468,-554.337,848.446)">
        <path d="M75.226,742.62L95.144,742.62" style="fill:none;fill-rule:nonzero;stroke:black;stroke-width:0.72px;"/>
    </g>
    <g transform="matrix(1.15468,-0.666702,-0.666702,-1.15468,415.955,967.37)">
        <path d="M75.226,712.74L95.144,712.74" style="fill:none;fill-rule:nonzero;stroke:black;stroke-width:0.72px;"/>
    </g>
    <g transform="matrix(1.15468,-0.666702,-0.666702,-1.15468,432.794,950.531)">
        <path d="M57.976,742.62L77.894,742.62" style="fill:none;fill-rule:nonzero;stroke:black;stroke-width:0.72px;"/>
    </g>
    <g transform="matrix(1.15468,0.666702,0.666702,-1.15468,-537.497,865.284)">
        <path d="M57.976,712.74L77.894,712.74" style="fill:none;fill-rule:nonzero;stroke:black;stroke-width:0.72px;"/>
    </g>
    <g transform="matrix(0,-1.33333,-1.33333,0,974.871,146.75)">
        <path d="M49.35,727.68L69.27,727.68" style="fill:none;fill-rule:nonzero;stroke:black;stroke-width:0.72px;"/>
    </g>
    <g transform="matrix(0,-1.33333,-1.33333,0,1036.43,135.67)">
        <path d="M70.92,754.92L85.56,754.92" style="fill:none;fill-rule:nonzero;stroke:black;stroke-width:0.72px;"/>
    </g>
    <g transform="matrix(0,-1.33333,-1.33333,0,1031.95,131.19)">
        <path d="M67.56,754.92L82.2,754.92" style="fill:none;fill-rule:nonzero;stroke:black;stroke-width:0.72px;"/>
    </g>
    <g transform="matrix(0,-1.33333,-1.33333,0,1141.19,326.857)">
        <path d="M179.26,722.51L199.18,722.51" style="fill:none;fill-rule:nonzero;stroke:black;stroke-width:0.72px;"/>
    </g>
    <g transform="matrix(1.15468,0.666702,0.666702,-1.15468,-533.844,785.759)">
        <path d="M170.636,737.45L190.554,737.45" style="fill:none;fill-rule:nonzero;stroke:black;stroke-width:0.72px;"/>
    </g>
    <g transform="matrix(1.15468,-0.666702,-0.666702,-1.15468,429.554,1031.9)">
        <path d="M170.636,707.57L190.554,707.57" style="fill:none;fill-rule:nonzero;stroke:black;stroke-width:0.72px;"/>
    </g>
    <g transform="matrix(1.15468,-0.666702,-0.666702,-1.15468,446.393,1015.06)">
        <path d="M153.386,737.45L173.304,737.45" style="fill:none;fill-rule:nonzero;stroke:black;stroke-width:0.72px;"/>
    </g>
    <g transform="matrix(1.15468,0.666702,0.666702,-1.15468,-517.005,802.598)">
        <path d="M153.386,707.57L173.304,707.57" style="fill:none;fill-rule:nonzero;stroke:black;stroke-width:0.72px;"/>
    </g>
    <g transform="matrix(0,-1.33333,-1.33333,0,1095.19,280.857)">
        <path d="M144.76,722.51L164.68,722.51" style="fill:none;fill-rule:nonzero;stroke:black;stroke-width:0.72px;"/>
    </g>
    <g transform="matrix(0,-1.33333,-1.33333,0,1154.6,267.45)">
        <path d="M164.585,749.815L179.355,749.815" style="fill:none;fill-rule:nonzero;stroke:black;stroke-width:0.72px;"/>
    </g>
    <g transform="matrix(0,-1.33333,-1.33333,0,1160.18,270.823)">
        <path d="M168.775,750.645L181.885,750.645" style="fill:none;fill-rule:nonzero;stroke:black;stroke-width:0.72px;"/>
    </g>
    <g transform="matrix(-1.15487,0.666381,0.666381,1.15487,-136.921,-991.212)">
        <path d="M175.788,767.195L184.932,767.195" style="fill:none;fill-rule:nonzero;stroke:black;stroke-width:0.72px;"/>
    </g>
    <g transform="matrix(-0.297808,1.29965,1.29965,0.297808,-626.764,-495.487)">
        <path d="M241.083,740.05L261.007,740.05" style="fill:none;fill-rule:nonzero;stroke:black;stroke-width:0.72px;"/>
    </g>
    <g transform="matrix(-0.829985,-1.04351,-1.04351,0.829985,1231.22,-259.07)">
        <path d="M245.06,722.545L264.98,722.545" style="fill:none;fill-rule:nonzero;stroke:black;stroke-width:0.72px;"/>
    </g>
    <g transform="matrix(-1.20195,0.57715,0.57715,1.20195,150.033,-1021.11)">
        <path d="M252.539,752.97L267.371,752.97" style="fill:none;fill-rule:nonzero;stroke:black;stroke-width:0.72px;"/>
    </g>
    <g transform="matrix(-1.33333,-0.000669008,-0.000669008,1.33333,649.189,-867.895)">
        <path d="M261.22,714.745L281.15,714.745" style="fill:none;fill-rule:nonzero;stroke:black;stroke-width:0.72px;"/>
    </g>
    <g transform="matrix(-1.20064,-0.579856,-0.579856,1.20064,1085.1,-700.535)">
        <path d="M281.741,751.42L289.559,751.42" style="fill:none;fill-rule:nonzero;stroke:black;stroke-width:0.72px;"/>
    </g>
    <g transform="matrix(-0.832192,1.04175,1.04175,0.832192,-204.835,-826.086)">
        <path d="M277.407,722.52L297.323,722.52" style="fill:none;fill-rule:nonzero;stroke:black;stroke-width:0.72px;"/>
    </g>
    <g transform="matrix(0.295263,1.30023,1.30023,-0.295263,-734.164,-109.127)">
        <path d="M281.418,740.01L301.332,740.01" style="fill:none;fill-rule:nonzero;stroke:black;stroke-width:0.72px;"/>
    </g>
    <g transform="matrix(1.04315,-0.830437,-0.830437,-1.04315,636.382,1064.95)">
        <path d="M288.716,752.685L302.444,752.685" style="fill:none;fill-rule:nonzero;stroke:black;stroke-width:0.72px;"/>
    </g>
    <g transform="matrix(1.04343,-0.830081,-0.830081,-1.04343,638.033,1062.83)">
        <path d="M286.503,755.67L301.377,755.67" style="fill:none;fill-rule:nonzero;stroke:black;stroke-width:0.72px;"/>
    </g>
    <g transform="matrix(1.33333,0,0,1.33333,-74.4488,-936.49)">
        <path d="M107.28,740.4L141.36,740.4" style="fill:none;fill-rule:nonzero;stroke:black;stroke-width:0.72px;"/>
    </g>
    <g transform="matrix(1.2958,0.314133,0.314133,-1.2958,-301.876,966.959)">
        <path d="M133.099,741.333L141.249,741.333L134.004,737.601L134.951,739.806L133.099,741.333Z" style="stroke:black;stroke-width:0.72px;"/>
    </g>
    <g transform="matrix(1.33333,0,0,1.33333,-74.4488,-936.49)">
        <path d="M200.88,740.4L234.96,740.4" style="fill:none;fill-rule:nonzero;stroke:black;stroke-width:0.72px;"/>
    </g>
    <g transform="matrix(1.2958,0.314133,0.314133,-1.2958,-298.363,937.556)">
        <path d="M226.699,741.333L234.849,741.333L227.604,737.601L228.551,739.806L226.699,741.333Z" style="stroke:black;stroke-width:0.72px;"/>
    </g>
    <g transform="matrix(1.33333,0,0,1.33333,-74.4488,-933.93)">
        <path d="M318.96,739.44L353.04,739.44" style="fill:none;fill-rule:nonzero;stroke:black;stroke-width:0.72px;"/>
    </g>
    <g transform="matrix(1.2958,0.314133,0.314133,-1.2958,-293.63,900.499)">
        <path d="M344.779,740.373L352.929,740.373L345.684,736.641L346.631,738.846L344.779,740.373Z" style="stroke:black;stroke-width:0.72px;"/>
    </g>
</svg>
