<?xml version="1.0" encoding="UTF-8" standalone="no"?>
<!DOCTYPE svg PUBLIC "-//W3C//DTD SVG 1.1//EN" "http://www.w3.org/Graphics/SVG/1.1/DTD/svg11.dtd">
<svg width="100%" height="100%" viewBox="0 0 560 175" version="1.1" xmlns="http://www.w3.org/2000/svg" xmlns:xlink="http://www.w3.org/1999/xlink" xml:space="preserve" xmlns:serif="http://www.serif.com/" style="fill-rule:evenodd;clip-rule:evenodd;stroke-linecap:round;stroke-linejoin:round;stroke-miterlimit:10;">
    <g transform="matrix(1.33333,0,0,1.33333,-77.8819,-53.8432)">
        <text x="61.44px" y="85.44px" style="font-family:'ArialMT', 'Arial', sans-serif;font-size:10px;">Br</text>
    </g>
    <g transform="matrix(1.33333,0,0,1.33333,-77.8819,-53.8432)">
        <text x="135.12px" y="85.44px" style="font-family:'ArialMT', 'Arial', sans-serif;font-size:10px;">NH</text>
        <text x="149.52px" y="88.08px" style="font-family:'ArialMT', 'Arial', sans-serif;font-size:8px;">2</text>
    </g>
    <g transform="matrix(1.33333,0,0,1.33333,-77.8819,-53.8432)">
        <text x="209.28px" y="81.6px" style="font-family:'ArialMT', 'Arial', sans-serif;font-size:10px;">Br</text>
    </g>
    <g transform="matrix(1.33333,0,0,1.33333,-77.8819,-53.8432)">
        <text x="265.68px" y="91.44px" style="font-family:'ArialMT', 'Arial', sans-serif;font-size:10px;">CH</text>
        <text x="280.08px" y="94.08px" style="font-family:'ArialMT', 'Arial', sans-serif;font-size:8px;">2</text>
    </g>
    <g transform="matrix(1.33333,0,0,1.33333,-77.8819,-53.8432)">
        <text x="280.08px" y="84.48px" style="font-family:'ArialMT', 'Arial', sans-serif;font-size:8px;">+</text>
        <text x="297.12px" y="91.2px" style="font-family:'ArialMT', 'Arial', sans-serif;font-size:18px;"><tspan x="297.12px " y="91.2px ">+</tspan></text>
        <text x="319.2px" y="88.32px" style="font-family:'ArialMT', 'Arial', sans-serif;font-size:10px;">NH</text>
        <text x="333.625px" y="90.96px" style="font-family:'ArialMT', 'Arial', sans-serif;font-size:8px;">2</text>
    </g>
    <g transform="matrix(1.33333,0,0,1.33333,-77.8819,-53.8432)">
        <text x="333.6px" y="81.36px" style="font-family:'ArialMT', 'Arial', sans-serif;font-size:8px;">–</text>
    </g>
    <g transform="matrix(1.33333,0,0,1.33333,-77.8819,-53.8432)">
        <text x="460.8px" y="86.64px" style="font-family:'ArialMT', 'Arial', sans-serif;font-size:10px;">NK</text>
    </g>
    <g transform="matrix(1.33333,0,0,1.33333,-77.8819,-53.8432)">
        <text x="455.04px" y="51.36px" style="font-family:'ArialMT', 'Arial', sans-serif;font-size:10px;">O</text>
    </g>
    <g transform="matrix(1.33333,0,0,1.33333,-77.8819,-53.8432)">
        <text x="455.04px" y="121.68px" style="font-family:'ArialMT', 'Arial', sans-serif;font-size:10px;">O</text>
    </g>
    <g transform="matrix(1.33333,0,0,1.33333,-77.8819,-53.8432)">
        <text x="208.56px" y="162px" style="font-family:'ArialMT', 'Arial', sans-serif;font-size:10px;">Br</text>
    </g>
    <g transform="matrix(1.33333,0,0,1.33333,-77.8819,-53.8432)">
        <text x="282.48px" y="162px" style="font-family:'ArialMT', 'Arial', sans-serif;font-size:10px;">Br</text>
    </g>
    <g transform="matrix(-1.15469,-0.666683,-0.666683,1.15469,623.895,-755.971)">
        <path d="M71.345,754.775L88.285,754.775" style="fill:none;fill-rule:nonzero;stroke:black;stroke-width:0.72px;"/>
    </g>
    <g transform="matrix(-1.15468,0.666702,0.666702,1.15468,-343.299,-874.88)">
        <path d="M85.816,755.52L105.734,755.52" style="fill:none;fill-rule:nonzero;stroke:black;stroke-width:0.72px;"/>
    </g>
    <g transform="matrix(-1.15468,-0.666702,-0.666702,1.15468,707.033,-735.673)">
        <path d="M103.066,755.52L122.984,755.52" style="fill:none;fill-rule:nonzero;stroke:black;stroke-width:0.72px;"/>
    </g>
    <g transform="matrix(-1.15481,0.666483,0.666483,1.15481,-262.265,-892.96)">
        <path d="M120.683,754.15L135.127,754.15" style="fill:none;fill-rule:nonzero;stroke:black;stroke-width:0.72px;"/>
    </g>
    <g transform="matrix(1.33333,0,0,1.33333,-77.8819,-956.883)">
        <path d="M141.84,773.28L140.16,773.28L138.24,773.04L136.8,772.56L135.12,772.08L133.68,771.36L132.24,770.4L130.8,769.68L127.2,766.08L126.24,764.64L124.8,761.76L123.84,758.4L123.6,756.72L123.6,753.36L123.84,751.68L124.32,750.24L124.56,748.8L126,745.92" style="fill:none;fill-rule:nonzero;stroke:black;stroke-width:0.48px;"/>
    </g>
    <g transform="matrix(1.3242,-0.155788,-0.155788,-1.3242,39.7501,1083.36)">
        <path d="M133.47,745.451L141.686,745.451L134.423,749.447L135.601,747.133L133.47,745.451Z" style="stroke:black;stroke-width:0.48px;"/>
    </g>
    <g transform="matrix(1.33333,0,0,1.33333,-77.8819,-950.483)">
        <path d="M163.44,757.2L197.52,757.2" style="fill:none;fill-rule:nonzero;stroke:black;stroke-width:0.72px;"/>
    </g>
    <g transform="matrix(1.33333,0,0,1.33333,-77.8819,-958.163)">
        <path d="M163.44,760.08L197.52,760.08" style="fill:none;fill-rule:nonzero;stroke:black;stroke-width:0.72px;"/>
    </g>
    <g transform="matrix(1.33333,0,0,1.33333,-77.8819,-954.323)">
        <path d="M192.96,755.04L200.88,758.64L192.96,762.24" style="fill:none;fill-rule:nonzero;stroke:black;stroke-width:0.72px;"/>
    </g>
    <g transform="matrix(-1.15464,-0.666774,-0.666774,1.15464,994.314,-666.896)">
        <path d="M219.186,758.61L236.104,758.61" style="fill:none;fill-rule:nonzero;stroke:black;stroke-width:0.72px;"/>
    </g>
    <g transform="matrix(-1.15468,0.666702,0.666702,1.15468,21.9188,-982.986)">
        <path d="M233.636,759.36L253.554,759.36" style="fill:none;fill-rule:nonzero;stroke:black;stroke-width:0.72px;"/>
    </g>
    <g transform="matrix(-1.15498,-0.66619,-0.66619,1.15498,1072.07,-652.037)">
        <path d="M251.255,760.735L265.685,760.735" style="fill:none;fill-rule:nonzero;stroke:black;stroke-width:0.72px;"/>
    </g>
    <g transform="matrix(1.33333,0,0,1.33333,-77.8819,-949.843)">
        <path d="M350.88,756.96L384.96,756.96" style="fill:none;fill-rule:nonzero;stroke:black;stroke-width:0.72px;"/>
    </g>
    <g transform="matrix(1.33333,0,0,1.33333,-77.8819,-957.523)">
        <path d="M350.88,759.84L384.96,759.84" style="fill:none;fill-rule:nonzero;stroke:black;stroke-width:0.72px;"/>
    </g>
    <g transform="matrix(1.33333,0,0,1.33333,-77.8819,-953.683)">
        <path d="M380.4,754.8L388.32,758.4L380.4,762" style="fill:none;fill-rule:nonzero;stroke:black;stroke-width:0.72px;"/>
    </g>
    <g transform="matrix(1.15468,0.666702,0.666702,-1.15468,-518.134,646.86)">
        <path d="M415.306,774.3L435.224,774.3" style="fill:none;fill-rule:nonzero;stroke:black;stroke-width:0.72px;"/>
    </g>
    <g transform="matrix(1.15458,0.666876,0.666876,-1.15458,-516.586,648.349)">
        <path d="M415.288,771.39L431.882,771.39" style="fill:none;fill-rule:nonzero;stroke:black;stroke-width:0.72px;"/>
    </g>
    <g transform="matrix(1.15468,-0.666702,-0.666702,-1.15468,494.4,1219.25)">
        <path d="M415.306,744.42L435.224,744.42" style="fill:none;fill-rule:nonzero;stroke:black;stroke-width:0.72px;"/>
    </g>
    <g transform="matrix(1.15458,-0.666876,-0.666876,-1.15458,496.212,1217.61)">
        <path d="M415.288,747.33L431.882,747.33" style="fill:none;fill-rule:nonzero;stroke:black;stroke-width:0.72px;"/>
    </g>
    <g transform="matrix(1.15468,-0.666702,-0.666702,-1.15468,511.239,1202.41)">
        <path d="M398.056,774.3L417.974,774.3" style="fill:none;fill-rule:nonzero;stroke:black;stroke-width:0.72px;"/>
    </g>
    <g transform="matrix(1.15468,0.666702,0.666702,-1.15468,-501.295,663.699)">
        <path d="M398.056,744.42L417.974,744.42" style="fill:none;fill-rule:nonzero;stroke:black;stroke-width:0.72px;"/>
    </g>
    <g transform="matrix(0,-1.33333,-1.33333,0,1467.12,588.757)">
        <path d="M389.43,759.36L409.35,759.36" style="fill:none;fill-rule:nonzero;stroke:black;stroke-width:0.72px;"/>
    </g>
    <g transform="matrix(0,-1.33333,-1.33333,0,1471.6,593.237)">
        <path d="M394.45,759.36L411.05,759.36" style="fill:none;fill-rule:nonzero;stroke:black;stroke-width:0.72px;"/>
    </g>
    <g transform="matrix(-1.26822,0.411585,0.411585,1.26822,757.648,-1123.19)">
        <path d="M433.404,772.395L453.326,772.395" style="fill:none;fill-rule:nonzero;stroke:black;stroke-width:0.72px;"/>
    </g>
    <g transform="matrix(0,-1.33333,-1.33333,0,1513.12,634.757)">
        <path d="M423.93,759.36L443.85,759.36" style="fill:none;fill-rule:nonzero;stroke:black;stroke-width:0.72px;"/>
    </g>
    <g transform="matrix(-0.783533,-1.07882,-1.07882,0.783533,1719.85,-68.2632)">
        <path d="M450.019,769.935L463.701,769.935" style="fill:none;fill-rule:nonzero;stroke:black;stroke-width:0.72px;"/>
    </g>
    <g transform="matrix(-1.26802,-0.41219,-0.41219,1.26802,1383.09,-689.975)">
        <path d="M433.402,746.32L453.328,746.32" style="fill:none;fill-rule:nonzero;stroke:black;stroke-width:0.72px;"/>
    </g>
    <g transform="matrix(0.783341,-1.07896,-1.07896,-0.783341,981.115,1149.8)">
        <path d="M450.077,748.66L463.473,748.66" style="fill:none;fill-rule:nonzero;stroke:black;stroke-width:0.72px;"/>
    </g>
    <g transform="matrix(0.412115,-1.26805,-1.26805,-0.412115,1334.72,927.382)">
        <path d="M449.199,782.16L464.341,782.16" style="fill:none;fill-rule:nonzero;stroke:black;stroke-width:0.72px;"/>
    </g>
    <g transform="matrix(0.411664,-1.26819,-1.26819,-0.411664,1332.59,922.36)">
        <path d="M446.382,782.675L460.438,782.675" style="fill:none;fill-rule:nonzero;stroke:black;stroke-width:0.72px;"/>
    </g>
    <g transform="matrix(0.411943,1.2681,1.2681,-0.411943,-593.488,-184.433)">
        <path d="M446.386,736.04L460.434,736.04" style="fill:none;fill-rule:nonzero;stroke:black;stroke-width:0.72px;"/>
    </g>
    <g transform="matrix(0.412115,1.26805,1.26805,-0.412115,-591.079,-189.034)">
        <path d="M449.209,736.56L464.351,736.56" style="fill:none;fill-rule:nonzero;stroke:black;stroke-width:0.72px;"/>
    </g>
    <g transform="matrix(0,1.33333,1.33333,0,-705.402,-222.483)">
        <path d="M234.72,719.52L263.04,719.52" style="fill:none;fill-rule:nonzero;stroke:black;stroke-width:0.72px;"/>
    </g>
    <g transform="matrix(0,1.33333,1.33333,0,-701.562,-226.323)">
        <path d="M237.6,719.52L265.92,719.52" style="fill:none;fill-rule:nonzero;stroke:black;stroke-width:0.72px;"/>
    </g>
    <g transform="matrix(1.33333,0,0,1.33333,-77.8819,-813.843)">
        <path d="M253.92,702L250.32,709.92L246.72,702" style="fill:none;fill-rule:nonzero;stroke:black;stroke-width:0.72px;"/>
    </g>
    <g transform="matrix(-1.15469,-0.666683,-0.666683,1.15469,938.892,-467.405)">
        <path d="M218.465,678.215L235.405,678.215" style="fill:none;fill-rule:nonzero;stroke:black;stroke-width:0.72px;"/>
    </g>
    <g transform="matrix(-1.15468,0.666702,0.666702,1.15468,73.78,-782.483)">
        <path d="M232.936,678.96L252.854,678.96" style="fill:none;fill-rule:nonzero;stroke:black;stroke-width:0.72px;"/>
    </g>
    <g transform="matrix(-1.15468,-0.666702,-0.666702,1.15468,1022.03,-447.106)">
        <path d="M250.186,678.96L270.104,678.96" style="fill:none;fill-rule:nonzero;stroke:black;stroke-width:0.72px;"/>
    </g>
    <g transform="matrix(-1.15475,0.666584,0.666584,1.15475,154.984,-800.764)">
        <path d="M267.784,677.66L282.506,677.66" style="fill:none;fill-rule:nonzero;stroke:black;stroke-width:0.72px;"/>
    </g>
</svg>
