<?xml version="1.0" encoding="UTF-8" standalone="no"?>
<!DOCTYPE svg PUBLIC "-//W3C//DTD SVG 1.1//EN" "http://www.w3.org/Graphics/SVG/1.1/DTD/svg11.dtd">
<svg width="100%" height="100%" viewBox="0 0 690 540" version="1.1" xmlns="http://www.w3.org/2000/svg" xmlns:xlink="http://www.w3.org/1999/xlink" xml:space="preserve" xmlns:serif="http://www.serif.com/" style="fill-rule:evenodd;clip-rule:evenodd;stroke-linecap:round;stroke-linejoin:round;stroke-miterlimit:10;">
    <g transform="matrix(1.33333,0,0,1.33333,-45.56,-112.727)">
        <text x="91.44px" y="106.32px" style="font-family:'ArialMT', 'Arial', sans-serif;font-size:8px;fill:rgb(70,70,70);">3</text>
    </g>
    <g transform="matrix(1.33333,0,0,1.33333,-45.56,-112.727)">
        <text x="74.4px" y="96.48px" style="font-family:'ArialMT', 'Arial', sans-serif;font-size:8px;fill:rgb(70,70,70);">2</text>
    </g>
    <g transform="matrix(1.33333,0,0,1.33333,-45.56,-112.727)">
        <text x="51.6px" y="109.2px" style="font-family:'ArialMT', 'Arial', sans-serif;font-size:8px;fill:rgb(70,70,70);">1</text>
    </g>
    <g transform="matrix(1.33333,0,0,1.33333,-45.56,-112.727)">
        <text x="51.12px" y="134.4px" style="font-family:'ArialMT', 'Arial', sans-serif;font-size:10px;">N</text>
    </g>
    <g transform="matrix(1.33333,0,0,1.33333,-45.56,-112.727)">
        <text x="39.6px" y="134.4px" style="font-family:'ArialMT', 'Arial', sans-serif;font-size:10px;">H</text>
        <text x="46.8px" y="137.04px" style="font-family:'ArialMT', 'Arial', sans-serif;font-size:8px;">2</text>
    </g>
    <g transform="matrix(1.33333,0,0,1.33333,-45.56,-112.727)">
        <text x="107.76px" y="95.28px" style="font-family:'ArialMT', 'Arial', sans-serif;font-size:8px;fill:rgb(70,70,70);">4</text>
    </g>
    <g transform="matrix(1.33333,0,0,1.33333,-45.56,-112.727)">
        <text x="126.72px" y="118.32px" style="font-family:'ArialMT', 'Arial', sans-serif;font-size:8px;fill:rgb(70,70,70);">5</text>
    </g>
    <g transform="matrix(1.33333,0,0,1.33333,-45.56,-112.727)">
        <text x="142.32px" y="92.88px" style="font-family:'ArialMT', 'Arial', sans-serif;font-size:8px;fill:rgb(70,70,70);">6</text>
    </g>
    <g transform="matrix(1.33333,0,0,1.33333,-45.56,-112.727)">
        <text x="159.12px" y="109.92px" style="font-family:'ArialMT', 'Arial', sans-serif;font-size:10px;">NH</text>
        <text x="173.52px" y="112.56px" style="font-family:'ArialMT', 'Arial', sans-serif;font-size:8px;">2</text>
    </g>
    <g transform="matrix(1.33333,0,0,1.33333,-45.56,-112.727)">
        <text x="80.88px" y="129.36px" style="font-family:'ArialMT', 'Arial', sans-serif;font-size:10px;">C</text>
    </g>
    <g transform="matrix(1.33333,0,0,1.33333,-45.56,-112.727)">
        <text x="69.36px" y="129.36px" style="font-family:'ArialMT', 'Arial', sans-serif;font-size:10px;">H</text>
        <text x="76.56px" y="132px" style="font-family:'ArialMT', 'Arial', sans-serif;font-size:8px;">3</text>
    </g>
    <g transform="matrix(1.33333,0,0,1.33333,-45.56,-112.727)">
        <text x="104.64px" y="128.4px" style="font-family:'ArialMT', 'Arial', sans-serif;font-size:10px;">CH</text>
        <text x="119.04px" y="131.04px" style="font-family:'ArialMT', 'Arial', sans-serif;font-size:8px;">3</text>
    </g>
    <g transform="matrix(1.33333,0,0,1.33333,-45.56,-112.727)">
        <text x="287.04px" y="108.72px" style="font-family:'ArialMT', 'Arial', sans-serif;font-size:8px;fill:rgb(70,70,70);">3</text>
    </g>
    <g transform="matrix(1.33333,0,0,1.33333,-45.56,-112.727)">
        <text x="270px" y="98.88px" style="font-family:'ArialMT', 'Arial', sans-serif;font-size:8px;fill:rgb(70,70,70);">2</text>
    </g>
    <g transform="matrix(1.33333,0,0,1.33333,-45.56,-112.727)">
        <text x="247.2px" y="111.6px" style="font-family:'ArialMT', 'Arial', sans-serif;font-size:8px;fill:rgb(70,70,70);">1</text>
    </g>
    <g transform="matrix(1.33333,0,0,1.33333,-45.56,-112.727)">
        <text x="234px" y="136.8px" style="font-family:'ArialMT', 'Arial', sans-serif;font-size:10px;">O</text>
        <text x="242.16px" y="139.44px" style="font-family:'ArialMT', 'Arial', sans-serif;font-size:8px;">2</text>
        <text x="246.72px" y="136.8px" style="font-family:'ArialMT', 'Arial', sans-serif;font-size:10px;">N</text>
    </g>
    <g transform="matrix(1.33333,0,0,1.33333,-45.56,-112.727)">
        <text x="303.36px" y="97.68px" style="font-family:'ArialMT', 'Arial', sans-serif;font-size:8px;fill:rgb(70,70,70);">4</text>
    </g>
    <g transform="matrix(1.33333,0,0,1.33333,-45.56,-112.727)">
        <text x="322.32px" y="120.72px" style="font-family:'ArialMT', 'Arial', sans-serif;font-size:8px;fill:rgb(70,70,70);">5</text>
    </g>
    <g transform="matrix(1.33333,0,0,1.33333,-45.56,-112.727)">
        <text x="337.92px" y="95.28px" style="font-family:'ArialMT', 'Arial', sans-serif;font-size:8px;fill:rgb(70,70,70);">6</text>
    </g>
    <g transform="matrix(1.33333,0,0,1.33333,-45.56,-112.727)">
        <text x="354.72px" y="112.32px" style="font-family:'ArialMT', 'Arial', sans-serif;font-size:10px;">NH</text>
        <text x="369.12px" y="114.96px" style="font-family:'ArialMT', 'Arial', sans-serif;font-size:8px;">2</text>
    </g>
    <g transform="matrix(1.33333,0,0,1.33333,-45.56,-112.727)">
        <text x="300px" y="131.04px" style="font-family:'ArialMT', 'Arial', sans-serif;font-size:10px;">CH</text>
        <text x="314.4px" y="133.68px" style="font-family:'ArialMT', 'Arial', sans-serif;font-size:8px;">3</text>
    </g>
    <g transform="matrix(1.33333,0,0,1.33333,-45.56,-112.727)">
        <text x="274.08px" y="130.56px" style="font-family:'ArialMT', 'Arial', sans-serif;font-size:10px;">C</text>
    </g>
    <g transform="matrix(1.33333,0,0,1.33333,-45.56,-112.727)">
        <text x="262.56px" y="130.56px" style="font-family:'ArialMT', 'Arial', sans-serif;font-size:10px;">H</text>
        <text x="269.76px" y="133.2px" style="font-family:'ArialMT', 'Arial', sans-serif;font-size:8px;">3</text>
    </g>
    <g transform="matrix(1.33333,0,0,1.33333,-45.56,-112.727)">
        <text x="376.8px" y="195.6px" style="font-family:'ArialMT', 'Arial', sans-serif;font-size:10px;">O</text>
    </g>
    <g transform="matrix(1.33333,0,0,1.33333,-45.56,-112.727)">
        <text x="369.6px" y="195.6px" style="font-family:'ArialMT', 'Arial', sans-serif;font-size:10px;">H</text>
        <text x="384.72px" y="188.64px" style="font-family:'ArialMT', 'Arial', sans-serif;font-size:8px;">+</text>
    </g>
    <g transform="matrix(1.33333,0,0,1.33333,-45.56,-112.727)">
        <text x="480.24px" y="191.04px" style="font-family:'ArialMT', 'Arial', sans-serif;font-size:10px;">NH</text>
        <text x="494.64px" y="193.68px" style="font-family:'ArialMT', 'Arial', sans-serif;font-size:8px;">2</text>
    </g>
    <g transform="matrix(1.33333,0,0,1.33333,-45.56,-112.727)">
        <text x="425.52px" y="209.76px" style="font-family:'ArialMT', 'Arial', sans-serif;font-size:10px;">CH</text>
        <text x="439.92px" y="212.4px" style="font-family:'ArialMT', 'Arial', sans-serif;font-size:8px;">3</text>
    </g>
    <g transform="matrix(1.33333,0,0,1.33333,-45.56,-112.727)">
        <text x="396px" y="208.08px" style="font-family:'ArialMT', 'Arial', sans-serif;font-size:10px;">C</text>
    </g>
    <g transform="matrix(1.33333,0,0,1.33333,-45.56,-112.727)">
        <text x="384.48px" y="208.08px" style="font-family:'ArialMT', 'Arial', sans-serif;font-size:10px;">H</text>
        <text x="391.68px" y="210.72px" style="font-family:'ArialMT', 'Arial', sans-serif;font-size:8px;">3</text>
    </g>
    <g transform="matrix(1.33333,0,0,1.33333,-45.56,-112.727)">
        <text x="94.56px" y="334.08px" style="font-family:'ArialMT', 'Arial', sans-serif;font-size:10px;">O</text>
    </g>
    <g transform="matrix(1.33333,0,0,1.33333,-45.56,-112.727)">
        <text x="198px" y="329.52px" style="font-family:'ArialMT', 'Arial', sans-serif;font-size:10px;">NH</text>
        <text x="212.4px" y="332.16px" style="font-family:'ArialMT', 'Arial', sans-serif;font-size:8px;">2</text>
    </g>
    <g transform="matrix(1.33333,0,0,1.33333,-45.56,-112.727)">
        <text x="143.28px" y="348.24px" style="font-family:'ArialMT', 'Arial', sans-serif;font-size:10px;">CH</text>
        <text x="157.68px" y="350.88px" style="font-family:'ArialMT', 'Arial', sans-serif;font-size:8px;">3</text>
    </g>
    <g transform="matrix(1.33333,0,0,1.33333,-45.56,-112.727)">
        <text x="113.76px" y="346.56px" style="font-family:'ArialMT', 'Arial', sans-serif;font-size:10px;">C</text>
    </g>
    <g transform="matrix(1.33333,0,0,1.33333,-45.56,-112.727)">
        <text x="102.24px" y="346.56px" style="font-family:'ArialMT', 'Arial', sans-serif;font-size:10px;">H</text>
        <text x="109.44px" y="349.2px" style="font-family:'ArialMT', 'Arial', sans-serif;font-size:8px;">3</text>
    </g>
    <g transform="matrix(1.33333,0,0,1.33333,-45.56,-112.727)">
        <text x="98.16px" y="223.68px" style="font-family:'ArialMT', 'Arial', sans-serif;font-size:10px;">N</text>
    </g>
    <g transform="matrix(1.33333,0,0,1.33333,-45.56,-112.727)">
        <text x="86.64px" y="223.68px" style="font-family:'ArialMT', 'Arial', sans-serif;font-size:10px;">H</text>
        <text x="93.84px" y="226.32px" style="font-family:'ArialMT', 'Arial', sans-serif;font-size:8px;">2</text>
    </g>
    <g transform="matrix(1.33333,0,0,1.33333,-45.56,-112.727)">
        <text x="204.96px" y="199.2px" style="font-family:'ArialMT', 'Arial', sans-serif;font-size:10px;">NH</text>
        <text x="219.36px" y="201.84px" style="font-family:'ArialMT', 'Arial', sans-serif;font-size:8px;">2</text>
    </g>
    <g transform="matrix(1.33333,0,0,1.33333,-45.56,-112.727)">
        <text x="150.24px" y="217.92px" style="font-family:'ArialMT', 'Arial', sans-serif;font-size:10px;">CH</text>
        <text x="164.64px" y="220.56px" style="font-family:'ArialMT', 'Arial', sans-serif;font-size:8px;">3</text>
    </g>
    <g transform="matrix(1.33333,0,0,1.33333,-45.56,-112.727)">
        <text x="121.92px" y="218.64px" style="font-family:'ArialMT', 'Arial', sans-serif;font-size:10px;">C</text>
    </g>
    <g transform="matrix(1.33333,0,0,1.33333,-45.56,-112.727)">
        <text x="110.4px" y="218.64px" style="font-family:'ArialMT', 'Arial', sans-serif;font-size:10px;">H</text>
        <text x="117.6px" y="221.28px" style="font-family:'ArialMT', 'Arial', sans-serif;font-size:8px;">3</text>
    </g>
    <g transform="matrix(1.33333,0,0,1.33333,-45.56,-112.727)">
        <text x="118.56px" y="174px" style="font-family:'ArialMT', 'Arial', sans-serif;font-size:10px;">O<tspan x="126.48px " y="174px ">H</tspan></text>
    </g>
    <g transform="matrix(1.33333,0,0,1.33333,-45.56,-112.727)">
        <text x="292.32px" y="201.12px" style="font-family:'ArialMT', 'Arial', sans-serif;font-size:10px;">O</text>
        <text x="300.48px" y="203.76px" style="font-family:'ArialMT', 'Arial', sans-serif;font-size:8px;">2</text>
        <text x="305.04px" y="201.12px" style="font-family:'ArialMT', 'Arial', sans-serif;font-size:10px;">NC</text>
        <text x="319.44px" y="201.12px" style="font-family:'ArialMT', 'Arial', sans-serif;font-size:10px;">H</text>
        <text x="326.88px" y="203.76px" style="font-family:'ArialMT', 'Arial', sans-serif;font-size:8px;">2</text>
        <text x="331.44px" y="194.16px" style="font-family:'ArialMT', 'Arial', sans-serif;font-size:8px;">-</text>
        <text x="342.72px" y="204.48px" style="font-family:'ArialMT', 'Arial', sans-serif;font-size:18px;"><tspan x="342.72px " y="204.48px ">+</tspan></text>
    </g>
    <g transform="matrix(1.33333,0,0,1.33333,-45.56,-112.727)">
        <text x="295.2px" y="253.68px" style="font-family:'ArialMT', 'Arial', sans-serif;font-size:10px;">O</text>
        <text x="303.36px" y="256.32px" style="font-family:'ArialMT', 'Arial', sans-serif;font-size:8px;">2</text>
        <text x="307.92px" y="253.68px" style="font-family:'ArialMT', 'Arial', sans-serif;font-size:10px;">NC</text>
        <text x="322.32px" y="253.68px" style="font-family:'ArialMT', 'Arial', sans-serif;font-size:10px;">H</text>
        <text x="329.76px" y="256.32px" style="font-family:'ArialMT', 'Arial', sans-serif;font-size:8px;">3</text>
    </g>
    <g transform="matrix(1.33333,0,0,1.33333,-45.56,-112.727)">
        <text x="292.56px" y="352.08px" style="font-family:'ArialMT', 'Arial', sans-serif;font-size:10px;">O</text>
    </g>
    <g transform="matrix(1.33333,0,0,1.33333,-45.56,-112.727)">
        <text x="295.92px" y="307.92px" style="font-family:'ArialMT', 'Arial', sans-serif;font-size:10px;">C</text>
    </g>
    <g transform="matrix(1.33333,0,0,1.33333,-45.56,-112.727)">
        <text x="284.4px" y="307.92px" style="font-family:'ArialMT', 'Arial', sans-serif;font-size:10px;">H</text>
        <text x="291.6px" y="310.56px" style="font-family:'ArialMT', 'Arial', sans-serif;font-size:8px;">3</text>
    </g>
    <g transform="matrix(1.33333,0,0,1.33333,-45.56,-112.727)">
        <text x="324px" y="308.16px" style="font-family:'ArialMT', 'Arial', sans-serif;font-size:10px;">CH</text>
        <text x="338.4px" y="310.8px" style="font-family:'ArialMT', 'Arial', sans-serif;font-size:8px;">3</text>
    </g>
    <g transform="matrix(1.33333,0,0,1.33333,-45.56,-112.727)">
        <text x="344.4px" y="302.4px" style="font-family:'ArialMT', 'Arial', sans-serif;font-size:10px;">H</text>
    </g>
    <g transform="matrix(1.33333,0,0,1.33333,-45.56,-112.727)">
        <text x="378.96px" y="342px" style="font-family:'ArialMT', 'Arial', sans-serif;font-size:10px;">N</text>
    </g>
    <g transform="matrix(1.33333,0,0,1.33333,-45.56,-112.727)">
        <text x="80.88px" y="441.12px" style="font-family:'ArialMT', 'Arial', sans-serif;font-size:10px;">C</text>
        <text x="88.08px" y="434.16px" style="font-family:'ArialMT', 'Arial', sans-serif;font-size:8px;">–</text>
    </g>
    <g transform="matrix(1.33333,0,0,1.33333,-45.56,-112.727)">
        <text x="63.6px" y="470.88px" style="font-family:'ArialMT', 'Arial', sans-serif;font-size:10px;">O</text>
    </g>
    <g transform="matrix(1.33333,0,0,1.33333,-45.56,-112.727)">
        <text x="98.16px" y="450.96px" style="font-family:'ArialMT', 'Arial', sans-serif;font-size:10px;">CH</text>
        <text x="112.56px" y="453.6px" style="font-family:'ArialMT', 'Arial', sans-serif;font-size:8px;">3</text>
    </g>
    <g transform="matrix(1.33333,0,0,1.33333,-45.56,-112.727)">
        <text x="80.88px" y="421.2px" style="font-family:'ArialMT', 'Arial', sans-serif;font-size:10px;">CH</text>
        <text x="95.28px" y="423.84px" style="font-family:'ArialMT', 'Arial', sans-serif;font-size:8px;">3</text>
    </g>
    <g transform="matrix(1.33333,0,0,1.33333,-45.56,-112.727)">
        <text x="194.88px" y="447.12px" style="font-family:'ArialMT', 'Arial', sans-serif;font-size:10px;">CH</text>
        <text x="209.28px" y="449.76px" style="font-family:'ArialMT', 'Arial', sans-serif;font-size:8px;">3</text>
    </g>
    <g transform="matrix(1.33333,0,0,1.33333,-45.56,-112.727)">
        <text x="160.32px" y="467.04px" style="font-family:'ArialMT', 'Arial', sans-serif;font-size:10px;">O</text>
        <text x="168.24px" y="460.08px" style="font-family:'ArialMT', 'Arial', sans-serif;font-size:8px;">–</text>
    </g>
    <g transform="matrix(1.33333,0,0,1.33333,-45.56,-112.727)">
        <text x="177.6px" y="417.36px" style="font-family:'ArialMT', 'Arial', sans-serif;font-size:10px;">CH</text>
        <text x="192px" y="420px" style="font-family:'ArialMT', 'Arial', sans-serif;font-size:8px;">3</text>
    </g>
    <g transform="matrix(1.33333,0,0,1.33333,-45.56,-112.727)">
        <text x="236.64px" y="444.72px" style="font-family:'ArialMT', 'Arial', sans-serif;font-size:18px;">+</text>
        <text x="256.32px" y="440.88px" style="font-family:'ArialMT', 'Arial', sans-serif;font-size:10px;">H</text>
        <text x="263.533px" y="443.52px" style="font-family:'ArialMT', 'Arial', sans-serif;font-size:8px;">2</text>
        <text x="267.855px" y="440.88px" style="font-family:'ArialMT', 'Arial', sans-serif;font-size:10px;">C</text>
    </g>
    <g transform="matrix(1.33333,0,0,1.33333,-45.56,-112.727)">
        <text x="319.44px" y="451.92px" style="font-family:'ArialMT', 'Arial', sans-serif;font-size:10px;">N</text>
    </g>
    <g transform="matrix(1.15468,0.666702,0.666702,-1.15468,-521.245,821.324)">
        <path d="M75.466,736.38L95.384,736.38" style="fill:none;fill-rule:nonzero;stroke:black;stroke-width:0.72px;"/>
    </g>
    <g transform="matrix(1.15468,-0.666702,-0.666702,-1.15468,457.566,923.729)">
        <path d="M58.216,736.38L78.134,736.38" style="fill:none;fill-rule:nonzero;stroke:black;stroke-width:0.72px;"/>
    </g>
    <g transform="matrix(0.312625,-1.29616,-1.29616,-0.312625,951.856,345.7)">
        <path d="M50.178,724.02L65.362,724.02" style="fill:none;fill-rule:nonzero;stroke:black;stroke-width:0.72px;"/>
    </g>
    <g transform="matrix(-1.10713,0.742995,0.742995,1.10713,-343.402,-864.689)">
        <path d="M92.36,736.95L112.28,736.95" style="fill:none;fill-rule:nonzero;stroke:black;stroke-width:0.72px;"/>
    </g>
    <g transform="matrix(-1.10713,0.742995,0.742995,1.10713,-261.101,-895.932)">
        <path d="M126.79,739.27L146.71,739.27" style="fill:none;fill-rule:nonzero;stroke:black;stroke-width:0.72px;"/>
    </g>
    <g transform="matrix(1.19695,0.587437,0.587437,-1.19695,-462.851,838.95)">
        <path d="M109.571,738.11L129.499,738.11" style="fill:none;fill-rule:nonzero;stroke:black;stroke-width:0.72px;"/>
    </g>
    <g transform="matrix(1.19691,0.587524,0.587524,-1.19691,-460.585,819.6)">
        <path d="M144.271,741.595L158.909,741.595" style="fill:none;fill-rule:nonzero;stroke:black;stroke-width:0.72px;"/>
    </g>
    <g transform="matrix(0.718673,-1.12307,-1.12307,-0.718673,826.293,665.39)">
        <path d="M85.17,726.54L96.71,726.54" style="fill:none;fill-rule:nonzero;stroke:black;stroke-width:0.72px;"/>
    </g>
    <g transform="matrix(0.95265,0.932865,0.932865,-0.95265,-685.822,640.969)">
        <path d="M92.126,726.685L105.604,726.685" style="fill:none;fill-rule:nonzero;stroke:black;stroke-width:0.72px;"/>
    </g>
    <g transform="matrix(1.33333,0,0,1.33333,-45.56,-946.647)">
        <path d="M196.08,733.68L230.16,733.68" style="fill:none;fill-rule:nonzero;stroke:black;stroke-width:0.72px;"/>
    </g>
    <g transform="matrix(1.33333,0,0,1.33333,-45.56,-954.327)">
        <path d="M196.08,736.56L230.16,736.56" style="fill:none;fill-rule:nonzero;stroke:black;stroke-width:0.72px;"/>
    </g>
    <g transform="matrix(1.33333,0,0,1.33333,-45.56,-950.487)">
        <path d="M225.6,731.52L233.52,735.12L225.6,738.72" style="fill:none;fill-rule:nonzero;stroke:black;stroke-width:0.72px;"/>
    </g>
    <g transform="matrix(1.15468,0.666702,0.666702,-1.15468,-484.7,691.345)">
        <path d="M271.066,733.98L290.984,733.98" style="fill:none;fill-rule:nonzero;stroke:black;stroke-width:0.72px;"/>
    </g>
    <g transform="matrix(1.15468,-0.666702,-0.666702,-1.15468,490.91,1054.56)">
        <path d="M253.816,733.98L273.734,733.98" style="fill:none;fill-rule:nonzero;stroke:black;stroke-width:0.72px;"/>
    </g>
    <g transform="matrix(0.312625,-1.29616,-1.29616,-0.312625,1148.4,601.679)">
        <path d="M245.778,721.62L260.962,721.62" style="fill:none;fill-rule:nonzero;stroke:black;stroke-width:0.72px;"/>
    </g>
    <g transform="matrix(-1.10713,0.742995,0.742995,1.10713,135.736,-1004.16)">
        <path d="M287.96,734.55L307.88,734.55" style="fill:none;fill-rule:nonzero;stroke:black;stroke-width:0.72px;"/>
    </g>
    <g transform="matrix(-1.10713,0.742995,0.742995,1.10713,218.037,-1035.41)">
        <path d="M322.39,736.87L342.31,736.87" style="fill:none;fill-rule:nonzero;stroke:black;stroke-width:0.72px;"/>
    </g>
    <g transform="matrix(1.19695,0.587437,0.587437,-1.19695,-434.765,724.375)">
        <path d="M305.171,735.71L325.099,735.71" style="fill:none;fill-rule:nonzero;stroke:black;stroke-width:0.72px;"/>
    </g>
    <g transform="matrix(1.19691,0.587524,0.587524,-1.19691,-432.49,705.007)">
        <path d="M339.871,739.195L354.509,739.195" style="fill:none;fill-rule:nonzero;stroke:black;stroke-width:0.72px;"/>
    </g>
    <g transform="matrix(-0.938302,-0.947295,-0.947295,0.938302,1309.17,-356.589)">
        <path d="M287.673,724.26L301.017,724.26" style="fill:none;fill-rule:nonzero;stroke:black;stroke-width:0.72px;"/>
    </g>
    <g transform="matrix(0.876335,-1.0049,-1.0049,-0.876335,813.4,965.963)">
        <path d="M280.283,724.74L291.587,724.74" style="fill:none;fill-rule:nonzero;stroke:black;stroke-width:0.72px;"/>
    </g>
    <g transform="matrix(1.33333,0,0,1.33333,-45.56,-946.007)">
        <path d="M384.72,733.44L418.8,733.44" style="fill:none;fill-rule:nonzero;stroke:black;stroke-width:0.72px;"/>
    </g>
    <g transform="matrix(1.33333,0,0,1.33333,-45.56,-953.687)">
        <path d="M384.72,736.32L418.8,736.32" style="fill:none;fill-rule:nonzero;stroke:black;stroke-width:0.72px;"/>
    </g>
    <g transform="matrix(1.33333,0,0,1.33333,-45.56,-949.847)">
        <path d="M414.24,731.28L422.16,734.88L414.24,738.48" style="fill:none;fill-rule:nonzero;stroke:black;stroke-width:0.72px;"/>
    </g>
    <g transform="matrix(1.33333,0,0,1.33333,-45.56,-709.207)">
        <path d="M41.04,644.64L75.12,644.64" style="fill:none;fill-rule:nonzero;stroke:black;stroke-width:0.72px;"/>
    </g>
    <g transform="matrix(1.33333,0,0,1.33333,-45.56,-716.887)">
        <path d="M41.04,647.52L75.12,647.52" style="fill:none;fill-rule:nonzero;stroke:black;stroke-width:0.72px;"/>
    </g>
    <g transform="matrix(1.33333,0,0,1.33333,-45.56,-713.047)">
        <path d="M70.56,642.48L78.48,646.08L70.56,649.68" style="fill:none;fill-rule:nonzero;stroke:black;stroke-width:0.72px;"/>
    </g>
    <g transform="matrix(1.15468,0.666702,0.666702,-1.15468,-409.793,621.725)">
        <path d="M396.586,655.26L416.504,655.26" style="fill:none;fill-rule:nonzero;stroke:black;stroke-width:0.72px;"/>
    </g>
    <g transform="matrix(1.15496,-0.66621,-0.66621,-1.15496,463.114,1155)">
        <path d="M389.647,658.025L398.513,658.025" style="fill:none;fill-rule:nonzero;stroke:black;stroke-width:0.72px;"/>
    </g>
    <g transform="matrix(1.15451,-0.666991,-0.666991,-1.15451,459.998,1154.49)">
        <path d="M384.714,652.895L399.126,652.895" style="fill:none;fill-rule:nonzero;stroke:black;stroke-width:0.72px;"/>
    </g>
    <g transform="matrix(-1.10713,0.742995,0.742995,1.10713,500.551,-905.309)">
        <path d="M413.48,655.83L433.4,655.83" style="fill:none;fill-rule:nonzero;stroke:black;stroke-width:0.72px;"/>
    </g>
    <g transform="matrix(-1.10713,0.742995,0.742995,1.10713,582.853,-936.553)">
        <path d="M447.91,658.15L467.83,658.15" style="fill:none;fill-rule:nonzero;stroke:black;stroke-width:0.72px;"/>
    </g>
    <g transform="matrix(1.19695,0.587437,0.587437,-1.19695,-371.403,661.376)">
        <path d="M430.691,656.99L450.619,656.99" style="fill:none;fill-rule:nonzero;stroke:black;stroke-width:0.72px;"/>
    </g>
    <g transform="matrix(1.19691,0.587524,0.587524,-1.19691,-369.116,642)">
        <path d="M465.391,660.475L480.029,660.475" style="fill:none;fill-rule:nonzero;stroke:black;stroke-width:0.72px;"/>
    </g>
    <g transform="matrix(-0.938302,-0.947295,-0.947295,0.938302,1519.74,-58.8619)">
        <path d="M413.193,645.54L426.537,645.54" style="fill:none;fill-rule:nonzero;stroke:black;stroke-width:0.72px;"/>
    </g>
    <g transform="matrix(1.03922,-0.835342,-0.835342,-1.03922,614.437,1162.09)">
        <path d="M402.602,645.855L416.728,645.855" style="fill:none;fill-rule:nonzero;stroke:black;stroke-width:0.72px;"/>
    </g>
    <g transform="matrix(1.15468,0.666702,0.666702,-1.15468,-367.891,834.634)">
        <path d="M114.346,516.78L134.264,516.78" style="fill:none;fill-rule:nonzero;stroke:black;stroke-width:0.72px;"/>
    </g>
    <g transform="matrix(1.15457,-0.666895,-0.666895,-1.15457,319.627,990.258)">
        <path d="M102.492,518.225L116.628,518.225" style="fill:none;fill-rule:nonzero;stroke:black;stroke-width:0.72px;"/>
    </g>
    <g transform="matrix(1.15451,-0.666991,-0.666991,-1.15451,317.163,991.001)">
        <path d="M102.474,514.415L116.886,514.415" style="fill:none;fill-rule:nonzero;stroke:black;stroke-width:0.72px;"/>
    </g>
    <g transform="matrix(-1.10713,0.742995,0.742995,1.10713,-85.3551,-357.651)">
        <path d="M131.24,517.35L151.16,517.35" style="fill:none;fill-rule:nonzero;stroke:black;stroke-width:0.72px;"/>
    </g>
    <g transform="matrix(-1.10713,0.742995,0.742995,1.10713,-3.05375,-388.894)">
        <path d="M165.67,519.67L185.59,519.67" style="fill:none;fill-rule:nonzero;stroke:black;stroke-width:0.72px;"/>
    </g>
    <g transform="matrix(1.19695,0.587437,0.587437,-1.19695,-328.547,846.06)">
        <path d="M148.451,518.51L168.379,518.51" style="fill:none;fill-rule:nonzero;stroke:black;stroke-width:0.72px;"/>
    </g>
    <g transform="matrix(1.19691,0.587524,0.587524,-1.19691,-326.26,826.715)">
        <path d="M183.151,521.995L197.789,521.995" style="fill:none;fill-rule:nonzero;stroke:black;stroke-width:0.72px;"/>
    </g>
    <g transform="matrix(-0.938302,-0.947295,-0.947295,0.938302,747.409,-11.6504)">
        <path d="M130.953,507.06L144.297,507.06" style="fill:none;fill-rule:nonzero;stroke:black;stroke-width:0.72px;"/>
    </g>
    <g transform="matrix(1.03922,-0.835342,-0.835342,-1.03922,415.749,967.052)">
        <path d="M120.362,507.375L134.488,507.375" style="fill:none;fill-rule:nonzero;stroke:black;stroke-width:0.72px;"/>
    </g>
    <g transform="matrix(1.33333,0,0,1.33333,-45.56,-711.767)">
        <path d="M102.24,636.96L106.32,636.48L108.24,636.48L109.92,636.72L111.36,637.2L113.04,637.92L114.48,638.88L115.68,639.84L117.12,640.8L118.08,642.24L119.04,643.44L119.76,645.12L120.48,646.56L120.96,648.24L121.2,649.92L121.2,651.12L120.72,654.72" style="fill:none;fill-rule:nonzero;stroke:black;stroke-width:0.48px;"/>
    </g>
    <g transform="matrix(-1.24844,0.468165,0.468165,1.24844,-77.8074,-731.519)">
        <path d="M102.275,654.666L110.477,654.666L103.174,658.43L104.382,656.183L102.275,654.666Z" style="stroke:black;stroke-width:0.48px;"/>
    </g>
    <g transform="matrix(1.15468,0.666702,0.666702,-1.15468,-453.532,806.712)">
        <path d="M121.306,647.1L141.224,647.1" style="fill:none;fill-rule:nonzero;stroke:black;stroke-width:0.72px;"/>
    </g>
    <g transform="matrix(1.15468,-0.666702,-0.666702,-1.15468,406.232,970.241)">
        <path d="M104.056,647.1L123.974,647.1" style="fill:none;fill-rule:nonzero;stroke:black;stroke-width:0.72px;"/>
    </g>
    <g transform="matrix(0.23734,-1.31204,-1.31204,-0.23734,901.287,450.687)">
        <path d="M96.555,634.74L111.555,634.74" style="fill:none;fill-rule:nonzero;stroke:black;stroke-width:0.72px;"/>
    </g>
    <g transform="matrix(-1.10713,0.742995,0.742995,1.10713,-165.197,-680.863)">
        <path d="M138.2,647.67L158.12,647.67" style="fill:none;fill-rule:nonzero;stroke:black;stroke-width:0.72px;"/>
    </g>
    <g transform="matrix(-1.10713,0.742995,0.742995,1.10713,-82.8953,-712.107)">
        <path d="M172.63,649.99L192.55,649.99" style="fill:none;fill-rule:nonzero;stroke:black;stroke-width:0.72px;"/>
    </g>
    <g transform="matrix(1.19695,0.587437,0.587437,-1.19695,-404.153,824.198)">
        <path d="M155.411,648.83L175.339,648.83" style="fill:none;fill-rule:nonzero;stroke:black;stroke-width:0.72px;"/>
    </g>
    <g transform="matrix(1.19691,0.587524,0.587524,-1.19691,-401.877,804.847)">
        <path d="M190.111,652.315L204.749,652.315" style="fill:none;fill-rule:nonzero;stroke:black;stroke-width:0.72px;"/>
    </g>
    <g transform="matrix(-0.938302,-0.947295,-0.947295,0.938302,886.671,-301.097)">
        <path d="M137.913,637.38L151.257,637.38" style="fill:none;fill-rule:nonzero;stroke:black;stroke-width:0.72px;"/>
    </g>
    <g transform="matrix(0.924729,-0.960549,-0.960549,-0.924729,621.489,879.202)">
        <path d="M127.913,637.025L142.057,637.025" style="fill:none;fill-rule:nonzero;stroke:black;stroke-width:0.72px;"/>
    </g>
    <g transform="matrix(0,-1.33333,-1.33333,0,997.16,294.153)">
        <path d="M115.32,659.4L129.96,659.4" style="fill:none;fill-rule:nonzero;stroke:black;stroke-width:0.72px;"/>
    </g>
    <g transform="matrix(1.33333,0,0,1.33333,-45.56,-768.407)">
        <path d="M123.12,655.44L124.56,654.48L126.24,653.52L127.92,653.04L129.84,652.56L133.44,652.56L136.8,653.52L139.68,654.96L141.12,655.92L142.32,657.12L143.28,658.32L144.24,659.76L144.96,661.2L145.92,664.56L145.92,668.64L145.68,670.32L145.2,671.76L144.48,673.44L143.52,674.64L142.56,676.08L141.36,677.28L140.16,678.24L138.72,679.2L137.28,679.92L135.6,680.4L134.16,680.88L132.24,681.12L131.76,681.12L128.88,680.64L126.24,679.92" style="fill:none;fill-rule:nonzero;stroke:black;stroke-width:0.48px;"/>
    </g>
    <g transform="matrix(-1.20021,-0.580748,-0.580748,1.20021,663.306,-566.558)">
        <path d="M126.459,652.345L134.724,652.345L127.484,648.575L128.48,650.923L126.459,652.345Z" style="stroke:black;stroke-width:0.48px;"/>
    </g>
    <g transform="matrix(1.33333,0,0,1.33333,-45.56,-709.207)">
        <path d="M237.6,644.64L271.68,644.64" style="fill:none;fill-rule:nonzero;stroke:black;stroke-width:0.72px;"/>
    </g>
    <g transform="matrix(1.33333,0,0,1.33333,-45.56,-716.887)">
        <path d="M237.6,647.52L271.68,647.52" style="fill:none;fill-rule:nonzero;stroke:black;stroke-width:0.72px;"/>
    </g>
    <g transform="matrix(1.33333,0,0,1.33333,-45.56,-713.047)">
        <path d="M267.12,642.48L275.04,646.08L267.12,649.68" style="fill:none;fill-rule:nonzero;stroke:black;stroke-width:0.72px;"/>
    </g>
    <g transform="matrix(1.33333,0,0,1.33333,-45.56,-704.727)">
        <path d="M511.92,642.96L546,642.96" style="fill:none;fill-rule:nonzero;stroke:black;stroke-width:0.72px;"/>
    </g>
    <g transform="matrix(1.33333,0,0,1.33333,-45.56,-712.407)">
        <path d="M511.92,645.84L546,645.84" style="fill:none;fill-rule:nonzero;stroke:black;stroke-width:0.72px;"/>
    </g>
    <g transform="matrix(1.33333,0,0,1.33333,-45.56,-708.567)">
        <path d="M541.44,640.8L549.36,644.4L541.44,648" style="fill:none;fill-rule:nonzero;stroke:black;stroke-width:0.72px;"/>
    </g>
    <g transform="matrix(0,1.33333,1.33333,0,-454.84,-233.367)">
        <path d="M300.96,619.68L324.48,619.68" style="fill:none;fill-rule:nonzero;stroke:black;stroke-width:0.72px;"/>
    </g>
    <g transform="matrix(0,1.33333,1.33333,0,-451,-237.207)">
        <path d="M303.84,619.68L327.36,619.68" style="fill:none;fill-rule:nonzero;stroke:black;stroke-width:0.72px;"/>
    </g>
    <g transform="matrix(1.33333,0,0,1.33333,-45.56,-612.887)">
        <path d="M317.76,604.56L314.16,612.48L310.56,604.56" style="fill:none;fill-rule:nonzero;stroke:black;stroke-width:0.72px;"/>
    </g>
    <g transform="matrix(1.33333,0,0,1.33333,-45.56,-354.007)">
        <path d="M36.48,511.44L70.56,511.44" style="fill:none;fill-rule:nonzero;stroke:black;stroke-width:0.72px;"/>
    </g>
    <g transform="matrix(1.33333,0,0,1.33333,-45.56,-361.687)">
        <path d="M36.48,514.32L70.56,514.32" style="fill:none;fill-rule:nonzero;stroke:black;stroke-width:0.72px;"/>
    </g>
    <g transform="matrix(1.33333,0,0,1.33333,-45.56,-357.847)">
        <path d="M66,509.28L73.92,512.88L66,516.48" style="fill:none;fill-rule:nonzero;stroke:black;stroke-width:0.72px;"/>
    </g>
    <g transform="matrix(1.33333,0,0,1.33333,-45.56,-354.007)">
        <path d="M234.48,511.44L268.56,511.44" style="fill:none;fill-rule:nonzero;stroke:black;stroke-width:0.72px;"/>
    </g>
    <g transform="matrix(1.33333,0,0,1.33333,-45.56,-361.687)">
        <path d="M234.48,514.32L268.56,514.32" style="fill:none;fill-rule:nonzero;stroke:black;stroke-width:0.72px;"/>
    </g>
    <g transform="matrix(1.33333,0,0,1.33333,-45.56,-357.847)">
        <path d="M264,509.28L271.92,512.88L264,516.48" style="fill:none;fill-rule:nonzero;stroke:black;stroke-width:0.72px;"/>
    </g>
    <g transform="matrix(1.15468,0.666702,0.666702,-1.15468,-333.798,702.284)">
        <path d="M312.346,518.7L332.264,518.7" style="fill:none;fill-rule:nonzero;stroke:black;stroke-width:0.72px;"/>
    </g>
    <g transform="matrix(1.15468,-0.666702,-0.666702,-1.15468,354.758,1120.55)">
        <path d="M295.096,518.7L315.014,518.7" style="fill:none;fill-rule:nonzero;stroke:black;stroke-width:0.72px;"/>
    </g>
    <g transform="matrix(0,-1.33333,-1.33333,0,1024.8,729.953)">
        <path d="M289.05,506.34L303.81,506.34" style="fill:none;fill-rule:nonzero;stroke:black;stroke-width:0.72px;"/>
    </g>
    <g transform="matrix(0,-1.33333,-1.33333,0,1028.17,735.54)">
        <path d="M293.24,505.51L306.34,505.51" style="fill:none;fill-rule:nonzero;stroke:black;stroke-width:0.72px;"/>
    </g>
    <g transform="matrix(1.15485,0.666412,0.666412,-1.15485,-327.543,679.47)">
        <path d="M346.846,518.7L366.774,518.7" style="fill:none;fill-rule:nonzero;stroke:black;stroke-width:0.72px;"/>
    </g>
    <g transform="matrix(1.15468,-0.666702,-0.666702,-1.15468,360.921,1143.55)">
        <path d="M329.596,518.7L349.514,518.7" style="fill:none;fill-rule:nonzero;stroke:black;stroke-width:0.72px;"/>
    </g>
    <g transform="matrix(0.934012,0.951525,0.951525,-0.934012,-425.165,504.857)">
        <path d="M302.028,528.57L315.732,528.57" style="fill:none;fill-rule:nonzero;stroke:black;stroke-width:0.72px;"/>
    </g>
    <g transform="matrix(-0.944826,0.940788,0.940788,0.944826,182.659,-493.319)">
        <path d="M311.756,528.34L324.964,528.34" style="fill:none;fill-rule:nonzero;stroke:black;stroke-width:0.72px;"/>
    </g>
    <g transform="matrix(0,-1.33333,-1.33333,0,1126.68,766.073)">
        <path d="M340.86,531L355.5,531" style="fill:none;fill-rule:nonzero;stroke:black;stroke-width:0.72px;"/>
    </g>
    <g transform="matrix(1.15476,0.666562,0.666562,-1.15476,-319.191,670.97)">
        <path d="M364.469,510.095L378.971,510.095" style="fill:none;fill-rule:nonzero;stroke:black;stroke-width:0.72px;"/>
    </g>
    <g transform="matrix(1.15483,0.666449,0.666449,-1.15483,-320.647,669.26)">
        <path d="M366.098,512.85L381.222,512.85" style="fill:none;fill-rule:nonzero;stroke:black;stroke-width:0.72px;"/>
    </g>
    <g transform="matrix(1.15463,0.666792,0.666792,-1.15463,-317.175,672.015)">
        <path d="M362.667,506.73L378.983,506.73" style="fill:none;fill-rule:nonzero;stroke:black;stroke-width:0.72px;"/>
    </g>
    <g transform="matrix(1.33333,0,0,1.33333,-45.56,-393.687)">
        <path d="M352.08,515.04L353.76,516L355.2,516.96L356.4,518.16L357.36,519.6L358.32,521.28L358.8,522.96L359.04,524.88L359.28,525.84L359.04,527.04L359.04,528.24L358.56,529.2L358.32,530.4L357.36,532.32L356.64,533.04L355.92,534L355.2,534.72L354.24,535.44L351.36,536.88L350.16,537.36L349.2,537.6L347.52,537.6L344.88,537.36L342.72,536.64" style="fill:none;fill-rule:nonzero;stroke:black;stroke-width:0.48px;"/>
    </g>
    <g transform="matrix(-1.20021,-0.580748,-0.580748,1.20021,1131.83,-92.1205)">
        <path d="M342.887,514.813L351.152,514.813L344.016,510.827L345.012,513.175L342.887,514.813Z" style="stroke:black;stroke-width:0.48px;"/>
    </g>
    <g transform="matrix(1.33333,0,0,1.33333,-45.56,-367.127)">
        <path d="M330.24,511.68L330.24,513.12L330,514.32L329.52,515.52L328.56,517.44L327.84,518.16L326.88,518.88L326.16,519.6L325.2,520.08L324,520.56L323.04,520.8L321.84,521.04L320.16,521.04L318.96,520.8L317.76,520.32L315.84,519.36L314.88,518.64L314.16,517.68L313.68,516.72L312.96,515.76L312.72,514.8L312.48,513.6L312.24,512.88L312.24,512.4" style="fill:none;fill-rule:nonzero;stroke:black;stroke-width:0.48px;"/>
    </g>
    <g transform="matrix(-0.117192,-1.32817,-1.32817,0.117192,1096.14,678.592)">
        <path d="M310.462,518.033L318.654,518.033L311.341,514.341L312.509,516.648L310.462,518.033Z" style="stroke:black;stroke-width:0.48px;"/>
    </g>
    <g transform="matrix(1.33333,0,0,1.33333,-45.56,-354.647)">
        <path d="M403.44,511.68L437.52,511.68" style="fill:none;fill-rule:nonzero;stroke:black;stroke-width:0.72px;"/>
    </g>
    <g transform="matrix(1.33333,0,0,1.33333,-45.56,-362.327)">
        <path d="M403.44,514.56L437.52,514.56" style="fill:none;fill-rule:nonzero;stroke:black;stroke-width:0.72px;"/>
    </g>
    <g transform="matrix(1.33333,0,0,1.33333,-45.56,-358.487)">
        <path d="M432.96,509.52L440.88,513.12L432.96,516.72" style="fill:none;fill-rule:nonzero;stroke:black;stroke-width:0.72px;"/>
    </g>
    <g transform="matrix(1.15462,-0.666805,-0.666805,-1.15462,233.342,987.754)">
        <path d="M66.506,398.515L80.884,398.515" style="fill:none;fill-rule:nonzero;stroke:black;stroke-width:0.72px;"/>
    </g>
    <g transform="matrix(0,-1.33333,-1.33333,0,561.12,583.073)">
        <path d="M60.09,387.54L74.85,387.54" style="fill:none;fill-rule:nonzero;stroke:black;stroke-width:0.72px;"/>
    </g>
    <g transform="matrix(0,-1.33333,-1.33333,0,564.493,588.66)">
        <path d="M64.28,386.71L77.38,386.71" style="fill:none;fill-rule:nonzero;stroke:black;stroke-width:0.72px;"/>
    </g>
    <g transform="matrix(1.15416,0.667602,0.667602,-1.15416,-295.936,875.991)">
        <path d="M88.407,400.03L97.833,400.03" style="fill:none;fill-rule:nonzero;stroke:black;stroke-width:0.72px;"/>
    </g>
    <g transform="matrix(0.0152768,1.33325,1.33325,-0.0152768,-486.97,350.41)">
        <path d="M79.805,414.72L89.405,414.72" style="fill:none;fill-rule:nonzero;stroke:black;stroke-width:0.72px;"/>
    </g>
    <g transform="matrix(1.33333,0,0,1.33333,-45.56,-42.6467)">
        <path d="M87.12,390.96L86.88,392.16L85.92,394.56L85.2,395.52L84.24,396.48L83.28,397.2L80.88,398.16L79.68,398.16L78.96,398.4L77.76,398.16L76.32,397.92L75.12,397.44L74.16,396.72" style="fill:none;fill-rule:nonzero;stroke:black;stroke-width:0.48px;"/>
    </g>
    <g transform="matrix(-1.11528,-0.730702,-0.730702,1.11528,431.256,111.162)">
        <path d="M74.581,390.689L82.902,390.689L75.682,386.819L76.7,389.207L74.581,390.689Z" style="stroke:black;stroke-width:0.48px;"/>
    </g>
    <g transform="matrix(1.33333,0,0,1.33333,-45.56,-20.8867)">
        <path d="M61.68,394.08L60.72,393.36L59.76,392.4L59.04,391.44L58.56,390.48L58.08,389.28L57.84,388.08L57.6,386.64L57.84,384.96L58.32,383.52L59.04,382.08L60,380.88L60.96,379.92L62.4,378.96" style="fill:none;fill-rule:nonzero;stroke:black;stroke-width:0.48px;"/>
    </g>
    <g transform="matrix(1.08498,0.774984,0.774984,-1.08498,-327.647,869.596)">
        <path d="M54.958,381.606L63.216,381.606L55.767,385.428L57.106,383.14L54.958,381.606Z" style="stroke:black;stroke-width:0.48px;"/>
    </g>
    <g transform="matrix(1.33333,0,0,1.33333,-45.56,-70.4867)">
        <path d="M122.16,405.12L156.24,405.12" style="fill:none;fill-rule:nonzero;stroke:black;stroke-width:0.72px;"/>
    </g>
    <g transform="matrix(1.33333,0,0,1.33333,-45.56,-70.4867)">
        <path d="M148.32,403.2L156.24,405.12L148.32,407.04" style="fill:none;fill-rule:nonzero;stroke:black;stroke-width:0.72px;"/>
    </g>
    <g transform="matrix(1.33333,0,0,1.33333,-45.56,-70.4867)">
        <path d="M130.08,403.2L122.16,405.12L130.08,407.04" style="fill:none;fill-rule:nonzero;stroke:black;stroke-width:0.72px;"/>
    </g>
    <g transform="matrix(1.15451,0.666991,0.666991,-1.15451,-282.207,812.21)">
        <path d="M180.474,405.115L194.886,405.115" style="fill:none;fill-rule:nonzero;stroke:black;stroke-width:0.72px;"/>
    </g>
    <g transform="matrix(1.15468,-0.666702,-0.666702,-1.15468,254.488,1052.92)">
        <path d="M162.856,403.74L182.774,403.74" style="fill:none;fill-rule:nonzero;stroke:black;stroke-width:0.72px;"/>
    </g>
    <g transform="matrix(1.15458,-0.666876,-0.666876,-1.15458,252.936,1054.55)">
        <path d="M166.198,400.83L182.792,400.83" style="fill:none;fill-rule:nonzero;stroke:black;stroke-width:0.72px;"/>
    </g>
    <g transform="matrix(0,-1.33333,-1.33333,0,695.2,706.913)">
        <path d="M156.81,391.38L171.57,391.38" style="fill:none;fill-rule:nonzero;stroke:black;stroke-width:0.72px;"/>
    </g>
    <g transform="matrix(0.00637515,1.33332,1.33332,-0.00637515,-359.557,215.895)">
        <path d="M174.085,416.04L188.725,416.04" style="fill:none;fill-rule:nonzero;stroke:black;stroke-width:0.72px;"/>
    </g>
    <g transform="matrix(1.33333,0,0,1.33333,-45.56,-58.9667)">
        <path d="M225.36,445.2L218.88,445.2L218.88,444.96L224.64,444.96L224.64,356.64L218.88,356.64L218.88,356.4L225.36,356.4L225.36,445.2Z" style="stroke:black;stroke-width:0.02px;"/>
    </g>
    <g transform="matrix(1.33333,0,0,1.33333,-45.56,-55.1267)">
        <path d="M37.68,354.96L44.16,354.96L44.16,355.2L38.4,355.2L38.4,443.52L44.16,443.52L44.16,443.76L37.68,443.76L37.68,354.96Z" style="stroke:black;stroke-width:0.02px;"/>
    </g>
    <g transform="matrix(-1.13893,-0.693263,-0.693263,1.13893,974.014,203.791)">
        <path d="M287.617,409.48L307.543,409.48" style="fill:none;fill-rule:nonzero;stroke:black;stroke-width:0.72px;"/>
    </g>
    <g transform="matrix(1.16974,-0.639911,-0.639911,-1.16974,263.719,1123.38)">
        <path d="M275.086,411.085L289.984,411.085" style="fill:none;fill-rule:nonzero;stroke:black;stroke-width:0.72px;"/>
    </g>
    <g transform="matrix(1.16994,-0.639553,-0.639553,-1.16994,261.199,1124.13)">
        <path d="M275.472,407.395L290.128,407.395" style="fill:none;fill-rule:nonzero;stroke:black;stroke-width:0.72px;"/>
    </g>
    <g transform="matrix(1.139,0.693146,0.693146,-1.139,-262.499,715.539)">
        <path d="M305.033,400.53L319.537,400.53" style="fill:none;fill-rule:nonzero;stroke:black;stroke-width:0.72px;"/>
    </g>
    <g transform="matrix(1.13885,0.693398,0.693398,-1.13885,-263.914,713.36)">
        <path d="M306.703,403.115L322.297,403.115" style="fill:none;fill-rule:nonzero;stroke:black;stroke-width:0.72px;"/>
    </g>
    <g transform="matrix(1.13898,0.693185,0.693185,-1.13898,-260.377,716.84)">
        <path d="M303.15,397.185L319.48,397.185" style="fill:none;fill-rule:nonzero;stroke:black;stroke-width:0.72px;"/>
    </g>
</svg>
