<?xml version="1.0" encoding="UTF-8" standalone="no"?>
<!DOCTYPE svg PUBLIC "-//W3C//DTD SVG 1.1//EN" "http://www.w3.org/Graphics/SVG/1.1/DTD/svg11.dtd">
<svg width="100%" height="100%" viewBox="0 0 645 85" version="1.1" xmlns="http://www.w3.org/2000/svg" xmlns:xlink="http://www.w3.org/1999/xlink" xml:space="preserve" xmlns:serif="http://www.serif.com/" style="fill-rule:evenodd;clip-rule:evenodd;stroke-linecap:round;stroke-linejoin:round;stroke-miterlimit:10;">
    <g transform="matrix(1.33333,0,0,1.33333,-72.3814,-83.0432)">
        <text x="67.2px" y="97.68px" style="font-family:'ArialMT', 'Arial', sans-serif;font-size:10px;">N</text>
    </g>
    <g transform="matrix(1.33333,0,0,1.33333,-72.3814,-83.0432)">
        <text x="55.68px" y="97.68px" style="font-family:'ArialMT', 'Arial', sans-serif;font-size:10px;">H</text>
        <text x="62.88px" y="100.32px" style="font-family:'ArialMT', 'Arial', sans-serif;font-size:8px;">2</text>
    </g>
    <g transform="matrix(1.33333,0,0,1.33333,-72.3814,-83.0432)">
        <text x="153.36px" y="107.52px" style="font-family:'ArialMT', 'Arial', sans-serif;font-size:10px;">NH</text>
        <text x="167.76px" y="110.16px" style="font-family:'ArialMT', 'Arial', sans-serif;font-size:8px;">2</text>
    </g>
    <g transform="matrix(1.33333,0,0,1.33333,-72.3814,-83.0432)">
        <text x="135.84px" y="77.76px" style="font-family:'ArialMT', 'Arial', sans-serif;font-size:10px;">O</text>
    </g>
    <g transform="matrix(1.33333,0,0,1.33333,-72.3814,-83.0432)">
        <text x="231.84px" y="112.8px" style="font-family:'ArialMT', 'Arial', sans-serif;font-size:10px;">N</text>
    </g>
    <g transform="matrix(1.33333,0,0,1.33333,-72.3814,-83.0432)">
        <text x="318px" y="102.72px" style="font-family:'ArialMT', 'Arial', sans-serif;font-size:10px;">NH</text>
        <text x="332.4px" y="105.36px" style="font-family:'ArialMT', 'Arial', sans-serif;font-size:8px;">2</text>
    </g>
    <g transform="matrix(1.33333,0,0,1.33333,-72.3814,-83.0432)">
        <text x="300.48px" y="72.96px" style="font-family:'ArialMT', 'Arial', sans-serif;font-size:10px;">O</text>
    </g>
    <g transform="matrix(1.33333,0,0,1.33333,-72.3814,-83.0432)">
        <text x="283.44px" y="122.64px" style="font-family:'ArialMT', 'Arial', sans-serif;font-size:10px;">H</text>
    </g>
    <g transform="matrix(1.33333,0,0,1.33333,-72.3814,-83.0432)">
        <text x="410.88px" y="96.48px" style="font-family:'ArialMT', 'Arial', sans-serif;font-size:10px;">C</text>
    </g>
    <g transform="matrix(1.33333,0,0,1.33333,-72.3814,-83.0432)">
        <text x="399.36px" y="96.48px" style="font-family:'ArialMT', 'Arial', sans-serif;font-size:10px;">H</text>
        <text x="406.56px" y="99.12px" style="font-family:'ArialMT', 'Arial', sans-serif;font-size:8px;">2</text>
    </g>
    <g transform="matrix(1.33333,0,0,1.33333,-72.3814,-83.0432)">
        <text x="462.72px" y="106.32px" style="font-family:'ArialMT', 'Arial', sans-serif;font-size:10px;">NH</text>
        <text x="477.12px" y="108.96px" style="font-family:'ArialMT', 'Arial', sans-serif;font-size:8px;">2</text>
    </g>
    <g transform="matrix(1.33333,0,0,1.33333,-72.3814,-83.0432)">
        <text x="445.2px" y="76.56px" style="font-family:'ArialMT', 'Arial', sans-serif;font-size:10px;">O</text>
    </g>
    <g transform="matrix(1.33333,0,0,1.33333,-72.3814,-83.0432)">
        <text x="486.96px" y="102.96px" style="font-family:'ArialMT', 'Arial', sans-serif;font-size:18px;">+</text>
        <text x="509.52px" y="99.36px" style="font-family:'ArialMT', 'Arial', sans-serif;font-size:10px;">C</text>
        <text x="516.735px" y="92.4px" style="font-family:'ArialMT', 'Arial', sans-serif;font-size:8px;">–</text>
        <text x="529.44px" y="99.36px" style="font-family:'ArialMT', 'Arial', sans-serif;font-size:10px;"><tspan x="529.44px " y="99.36px ">N</tspan></text>
    </g>
    <g transform="matrix(-1.15475,-0.666584,-0.666584,1.15475,625.574,-752.107)">
        <path d="M74.374,741.98L89.096,741.98" style="fill:none;fill-rule:nonzero;stroke:black;stroke-width:0.72px;"/>
    </g>
    <g transform="matrix(-1.15468,0.666702,0.666702,1.15468,-327.25,-874.267)">
        <path d="M86.776,743.28L106.694,743.28" style="fill:none;fill-rule:nonzero;stroke:black;stroke-width:0.72px;"/>
    </g>
    <g transform="matrix(-1.15468,-0.666702,-0.666702,1.15468,706.761,-733.78)">
        <path d="M104.026,743.28L123.944,743.28" style="fill:none;fill-rule:nonzero;stroke:black;stroke-width:0.72px;"/>
    </g>
    <g transform="matrix(-1.15468,0.666702,0.666702,1.15468,-241.413,-897.268)">
        <path d="M121.276,743.28L141.194,743.28" style="fill:none;fill-rule:nonzero;stroke:black;stroke-width:0.72px;"/>
    </g>
    <g transform="matrix(1.1547,0.666669,0.666669,-1.1547,-542.706,809.079)">
        <path d="M138.89,744.64L153.37,744.64" style="fill:none;fill-rule:nonzero;stroke:black;stroke-width:0.72px;"/>
    </g>
    <g transform="matrix(0,-1.33333,-1.33333,0,1123.82,220.757)">
        <path d="M134.19,755.61L148.89,755.61" style="fill:none;fill-rule:nonzero;stroke:black;stroke-width:0.72px;"/>
    </g>
    <g transform="matrix(0,-1.33333,-1.33333,0,1119.34,216.277)">
        <path d="M130.83,755.61L145.53,755.61" style="fill:none;fill-rule:nonzero;stroke:black;stroke-width:0.72px;"/>
    </g>
    <g transform="matrix(1.33333,0,0,1.33333,-72.3814,-952.163)">
        <path d="M181.2,746.88L215.28,746.88" style="fill:none;fill-rule:nonzero;stroke:black;stroke-width:0.72px;"/>
    </g>
    <g transform="matrix(1.33333,0,0,1.33333,-72.3814,-959.843)">
        <path d="M181.2,749.76L215.28,749.76" style="fill:none;fill-rule:nonzero;stroke:black;stroke-width:0.72px;"/>
    </g>
    <g transform="matrix(1.33333,0,0,1.33333,-72.3814,-956.003)">
        <path d="M210.72,744.72L218.64,748.32L210.72,751.92" style="fill:none;fill-rule:nonzero;stroke:black;stroke-width:0.72px;"/>
    </g>
    <g transform="matrix(-1.15475,0.666584,0.666584,1.15475,47.7341,-964.45)">
        <path d="M239.014,739.42L253.736,739.42" style="fill:none;fill-rule:nonzero;stroke:black;stroke-width:0.72px;"/>
    </g>
    <g transform="matrix(-1.15463,0.666792,0.666792,1.15463,52.2211,-956.838)">
        <path d="M239.207,736.11L255.523,736.11" style="fill:none;fill-rule:nonzero;stroke:black;stroke-width:0.72px;"/>
    </g>
    <g transform="matrix(-1.1547,0.666667,0.666667,1.1547,40.7427,-969.755)">
        <path d="M236.515,742.11L252.115,742.11" style="fill:none;fill-rule:nonzero;stroke:black;stroke-width:0.72px;"/>
    </g>
    <g transform="matrix(-1.15468,0.666702,0.666702,1.15468,79.1765,-995.976)">
        <path d="M251.416,748.08L271.334,748.08" style="fill:none;fill-rule:nonzero;stroke:black;stroke-width:0.72px;"/>
    </g>
    <g transform="matrix(-1.15468,-0.666702,-0.666702,1.15468,1119.59,-635.956)">
        <path d="M268.666,748.08L288.584,748.08" style="fill:none;fill-rule:nonzero;stroke:black;stroke-width:0.72px;"/>
    </g>
    <g transform="matrix(-1.15468,0.666702,0.666702,1.15468,165.013,-1018.98)">
        <path d="M285.916,748.08L305.834,748.08" style="fill:none;fill-rule:nonzero;stroke:black;stroke-width:0.72px;"/>
    </g>
    <g transform="matrix(1.1547,0.666669,0.666669,-1.1547,-516.495,698.461)">
        <path d="M303.53,749.44L318.01,749.44" style="fill:none;fill-rule:nonzero;stroke:black;stroke-width:0.72px;"/>
    </g>
    <g transform="matrix(0,-1.33333,-1.33333,0,1349.74,433.877)">
        <path d="M298.83,760.41L313.53,760.41" style="fill:none;fill-rule:nonzero;stroke:black;stroke-width:0.72px;"/>
    </g>
    <g transform="matrix(0,-1.33333,-1.33333,0,1345.26,429.397)">
        <path d="M295.47,760.41L310.17,760.41" style="fill:none;fill-rule:nonzero;stroke:black;stroke-width:0.72px;"/>
    </g>
    <g transform="matrix(0,1.33333,1.33333,0,-670.381,-324.483)">
        <path d="M279.9,735.75L294.6,735.75" style="fill:none;fill-rule:nonzero;stroke:black;stroke-width:0.72px;"/>
    </g>
    <g transform="matrix(1.33333,0,0,1.33333,-72.3814,-935.203)">
        <path d="M290.16,745.44L288.24,746.4L286.08,746.88L283.92,747.12L282.72,747.12L281.52,746.88L280.56,746.64L279.36,746.16L278.4,745.92L277.44,745.2L276.48,744.72L275.52,744L274.08,742.56L272.64,740.64L271.68,738.72L271.44,737.52L271.2,736.56L270.96,735.36L270.96,733.92" style="fill:none;fill-rule:nonzero;stroke:black;stroke-width:0.48px;"/>
    </g>
    <g transform="matrix(0.117192,-1.32817,-1.32817,-0.117192,1245.49,497.351)">
        <path d="M267.927,744.594L276.119,744.594L268.743,740.811L269.987,743.089L267.927,744.594Z" style="stroke:black;stroke-width:0.48px;"/>
    </g>
    <g transform="matrix(1.33333,0,0,1.33333,-72.3814,-975.203)">
        <path d="M251.76,759.12L253.2,756.24L254.16,755.04L255.36,754.08L256.8,753.12L258.24,752.4L259.92,752.16L260.64,751.92L262.56,751.92L263.76,752.16L264.72,752.4L267.6,753.84L269.04,755.28" style="fill:none;fill-rule:nonzero;stroke:black;stroke-width:0.48px;"/>
    </g>
    <g transform="matrix(-0.386677,1.27603,1.27603,0.386677,-598.926,-585.533)">
        <path d="M250.989,754.272L259.265,754.272L251.852,758.045L253.008,755.887L250.989,754.272Z" style="stroke:black;stroke-width:0.48px;"/>
    </g>
    <g transform="matrix(1.33333,0,0,1.33333,-72.3814,-952.163)">
        <path d="M348.48,746.88L382.56,746.88" style="fill:none;fill-rule:nonzero;stroke:black;stroke-width:0.72px;"/>
    </g>
    <g transform="matrix(1.33333,0,0,1.33333,-72.3814,-959.843)">
        <path d="M348.48,749.76L382.56,749.76" style="fill:none;fill-rule:nonzero;stroke:black;stroke-width:0.72px;"/>
    </g>
    <g transform="matrix(1.33333,0,0,1.33333,-72.3814,-956.003)">
        <path d="M378,744.72L385.92,748.32L378,751.92" style="fill:none;fill-rule:nonzero;stroke:black;stroke-width:0.72px;"/>
    </g>
    <g transform="matrix(-1.15451,-0.666992,-0.666992,1.15451,1481.94,-525.729)">
        <path d="M418.039,743.235L432.971,743.235" style="fill:none;fill-rule:nonzero;stroke:black;stroke-width:0.72px;"/>
    </g>
    <g transform="matrix(-1.15457,-0.6669,-0.6669,1.15457,1485.24,-534.698)">
        <path d="M418.538,746.905L433.192,746.905" style="fill:none;fill-rule:nonzero;stroke:black;stroke-width:0.72px;"/>
    </g>
    <g transform="matrix(-1.15468,0.666702,0.666702,1.15468,527.478,-1106.51)">
        <path d="M430.636,744.48L450.554,744.48" style="fill:none;fill-rule:nonzero;stroke:black;stroke-width:0.72px;"/>
    </g>
    <g transform="matrix(1.1547,0.666669,0.666669,-1.1547,-488.244,602.624)">
        <path d="M448.25,745.84L462.73,745.84" style="fill:none;fill-rule:nonzero;stroke:black;stroke-width:0.72px;"/>
    </g>
    <g transform="matrix(0,-1.33333,-1.33333,0,1537.9,631.637)">
        <path d="M443.55,756.81L458.25,756.81" style="fill:none;fill-rule:nonzero;stroke:black;stroke-width:0.72px;"/>
    </g>
    <g transform="matrix(0,-1.33333,-1.33333,0,1533.42,627.157)">
        <path d="M440.19,756.81L454.89,756.81" style="fill:none;fill-rule:nonzero;stroke:black;stroke-width:0.72px;"/>
    </g>
    <g transform="matrix(1.33333,0,0,1.33333,-72.3814,-951.523)">
        <path d="M517.68,746.64L528.48,746.64" style="fill:none;fill-rule:nonzero;stroke:black;stroke-width:0.72px;"/>
    </g>
    <g transform="matrix(1.33333,0,0,1.33333,-72.3814,-960.483)">
        <path d="M522,750L528.48,750" style="fill:none;fill-rule:nonzero;stroke:black;stroke-width:0.72px;"/>
    </g>
    <g transform="matrix(1.33333,0,0,1.33333,-72.3814,-942.563)">
        <path d="M517.68,743.28L528.48,743.28" style="fill:none;fill-rule:nonzero;stroke:black;stroke-width:0.72px;"/>
    </g>
</svg>
