<?xml version="1.0" encoding="UTF-8" standalone="no"?>
<!DOCTYPE svg PUBLIC "-//W3C//DTD SVG 1.1//EN" "http://www.w3.org/Graphics/SVG/1.1/DTD/svg11.dtd">
<svg width="100%" height="100%" viewBox="0 0 560 225" version="1.1" xmlns="http://www.w3.org/2000/svg" xmlns:xlink="http://www.w3.org/1999/xlink" xml:space="preserve" xmlns:serif="http://www.serif.com/" style="fill-rule:evenodd;clip-rule:evenodd;stroke-linecap:round;stroke-linejoin:round;stroke-miterlimit:10;">
    <g transform="matrix(1.33333,0,0,1.33333,-67.177,-82.3333)">
        <text x="108px" y="74.64px" style="font-family:'ArialMT', 'Arial', sans-serif;font-size:10px;">CH</text>
        <text x="122.4px" y="77.28px" style="font-family:'ArialMT', 'Arial', sans-serif;font-size:8px;">3</text>
    </g>
    <g transform="matrix(1.33333,0,0,1.33333,-67.177,-82.3333)">
        <text x="94.56px" y="115.92px" style="font-family:'ArialMT', 'Arial', sans-serif;font-size:10px;">NH</text>
        <text x="108.96px" y="118.56px" style="font-family:'ArialMT', 'Arial', sans-serif;font-size:8px;">2</text>
    </g>
    <g transform="matrix(1.33333,0,0,1.33333,-67.177,-82.3333)">
        <text x="230.16px" y="73.44px" style="font-family:'ArialMT', 'Arial', sans-serif;font-size:10px;">CH</text>
        <text x="244.56px" y="76.08px" style="font-family:'ArialMT', 'Arial', sans-serif;font-size:8px;">3</text>
    </g>
    <g transform="matrix(1.33333,0,0,1.33333,-67.177,-82.3333)">
        <text x="216.96px" y="114.72px" style="font-family:'ArialMT', 'Arial', sans-serif;font-size:10px;">B</text>
        <text x="223.68px" y="107.76px" style="font-family:'ArialMT', 'Arial', sans-serif;font-size:8px;">–</text>
    </g>
    <g transform="matrix(1.33333,0,0,1.33333,-67.177,-82.3333)">
        <text x="208.56px" y="132.72px" style="font-family:'ArialMT', 'Arial', sans-serif;font-size:10px;">NH</text>
        <text x="222.96px" y="135.36px" style="font-family:'ArialMT', 'Arial', sans-serif;font-size:8px;">2</text>
    </g>
    <g transform="matrix(1.33333,0,0,1.33333,-67.177,-82.3333)">
        <text x="222.96px" y="125.76px" style="font-family:'ArialMT', 'Arial', sans-serif;font-size:8px;">+</text>
    </g>
    <g transform="matrix(1.33333,0,0,1.33333,-67.177,-82.3333)">
        <text x="236.4px" y="112.56px" style="font-family:'ArialMT', 'Arial', sans-serif;font-size:10px;">R</text>
    </g>
    <g transform="matrix(1.33333,0,0,1.33333,-67.177,-82.3333)">
        <text x="235.44px" y="130.8px" style="font-family:'ArialMT', 'Arial', sans-serif;font-size:10px;">R</text>
    </g>
    <g transform="matrix(1.33333,0,0,1.33333,-67.177,-82.3333)">
        <text x="189.12px" y="133.2px" style="font-family:'ArialMT', 'Arial', sans-serif;font-size:10px;">X</text>
    </g>
    <g transform="matrix(1.33333,0,0,1.33333,-67.177,-82.3333)">
        <text x="359.52px" y="73.68px" style="font-family:'ArialMT', 'Arial', sans-serif;font-size:10px;">CH</text>
        <text x="373.92px" y="76.32px" style="font-family:'ArialMT', 'Arial', sans-serif;font-size:8px;">3</text>
    </g>
    <g transform="matrix(1.33333,0,0,1.33333,-67.177,-82.3333)">
        <text x="346.32px" y="114.96px" style="font-family:'ArialMT', 'Arial', sans-serif;font-size:10px;">B</text>
    </g>
    <g transform="matrix(1.33333,0,0,1.33333,-67.177,-82.3333)">
        <text x="365.76px" y="112.8px" style="font-family:'ArialMT', 'Arial', sans-serif;font-size:10px;">R</text>
    </g>
    <g transform="matrix(1.33333,0,0,1.33333,-67.177,-82.3333)">
        <text x="345.6px" y="133.44px" style="font-family:'ArialMT', 'Arial', sans-serif;font-size:10px;">R</text>
    </g>
    <g transform="matrix(1.33333,0,0,1.33333,-67.177,-82.3333)">
        <text x="385.44px" y="96.72px" style="font-family:'ArialMT', 'Arial', sans-serif;font-size:18px;">+</text>
        <text x="409.2px" y="92.88px" style="font-family:'ArialMT', 'Arial', sans-serif;font-size:10px;">H</text>
        <text x="416.413px" y="95.52px" style="font-family:'ArialMT', 'Arial', sans-serif;font-size:8px;">2</text>
        <text x="420.734px" y="92.88px" style="font-family:'ArialMT', 'Arial', sans-serif;font-size:10px;">N	<tspan x="441.12px " y="92.88px ">X</tspan></text>
    </g>
    <g transform="matrix(1.33333,0,0,1.33333,-67.177,-82.3333)">
        <text x="181.2px" y="160.08px" style="font-family:'ArialMT', 'Arial', sans-serif;font-size:9px;">(</text>
        <text x="184.32px" y="160.08px" style="font-family:'ArialMT', 'Arial', sans-serif;font-size:9px;">X= <tspan x="198.223px " y="160.08px ">C</tspan></text>
        <text x="204.723px" y="160.08px" style="font-family:'ArialMT', 'Arial', sans-serif;font-size:9px;">l<tspan x="206.889px 209.556px 212.374px " y="160.08px 160.08px 160.08px ">; O</tspan></text>
        <text x="219.541px" y="160.08px" style="font-family:'ArialMT', 'Arial', sans-serif;font-size:9px;">S</text>
        <text x="225.541px" y="160.08px" style="font-family:'ArialMT', 'Arial', sans-serif;font-size:9px;">O</text>
        <text x="232.741px" y="162.34px" style="font-family:'ArialMT', 'Arial', sans-serif;font-size:6px;">2</text>
        <text x="236.101px" y="160.08px" style="font-family:'ArialMT', 'Arial', sans-serif;font-size:9px;">H)</text>
    </g>
    <g transform="matrix(1.33333,0,0,1.33333,-67.177,-82.3333)">
        <text x="406.56px" y="118.32px" style="font-family:'ArialMT', 'Arial', sans-serif;font-size:9px;">(</text>
        <text x="409.68px" y="118.32px" style="font-family:'ArialMT', 'Arial', sans-serif;font-size:9px;">X=C</text>
        <text x="427.44px" y="118.32px" style="font-family:'ArialMT', 'Arial', sans-serif;font-size:9px;">l<tspan x="429.606px 432.273px 435.069px " y="118.32px 118.32px 118.32px ">; O</tspan></text>
        <text x="442.236px" y="118.32px" style="font-family:'ArialMT', 'Arial', sans-serif;font-size:9px;">S</text>
        <text x="448.236px" y="118.32px" style="font-family:'ArialMT', 'Arial', sans-serif;font-size:9px;">O</text>
        <text x="455.436px" y="120.58px" style="font-family:'ArialMT', 'Arial', sans-serif;font-size:6px;">3</text>
        <text x="458.796px" y="118.32px" style="font-family:'ArialMT', 'Arial', sans-serif;font-size:9px;">H)</text>
    </g>
    <g transform="matrix(1.33333,0,0,1.33333,-67.177,-82.3333)">
        <text x="362.88px" y="196.32px" style="font-family:'ArialMT', 'Arial', sans-serif;font-size:10px;">CH</text>
        <text x="377.28px" y="198.96px" style="font-family:'ArialMT', 'Arial', sans-serif;font-size:8px;">3</text>
    </g>
    <g transform="matrix(1.33333,0,0,1.33333,-67.177,-82.3333)">
        <text x="389.76px" y="211.44px" style="font-family:'ArialMT', 'Arial', sans-serif;font-size:18px;">+</text>
        <text x="413.28px" y="207.12px" style="font-family:'ArialMT', 'Arial', sans-serif;font-size:10px;">H	<tspan x="433.44px " y="207.12px ">B</tspan></text>
    </g>
    <g transform="matrix(1.33333,0,0,1.33333,-67.177,-82.3333)">
        <text x="443.04px" y="224.16px" style="font-family:'ArialMT', 'Arial', sans-serif;font-size:10px;">R</text>
    </g>
    <g transform="matrix(1.33333,0,0,1.33333,-67.177,-82.3333)">
        <text x="443.04px" y="189.84px" style="font-family:'ArialMT', 'Arial', sans-serif;font-size:10px;">R</text>
    </g>
    <g transform="matrix(1.33333,0,0,1.33333,-67.177,-82.3333)">
        <text x="243.84px" y="196.8px" style="font-family:'ArialMT', 'Arial', sans-serif;font-size:10px;">CH</text>
        <text x="258.24px" y="199.44px" style="font-family:'ArialMT', 'Arial', sans-serif;font-size:8px;">3</text>
    </g>
    <g transform="matrix(1.33333,0,0,1.33333,-67.177,-82.3333)">
        <text x="238.8px" y="216.96px" style="font-family:'ArialMT', 'Arial', sans-serif;font-size:10px;">O<tspan x="246.72px " y="216.96px ">H</tspan></text>
    </g>
    <g transform="matrix(1.33333,0,0,1.33333,-67.177,-82.3333)">
        <text x="117.12px" y="181.68px" style="font-family:'ArialMT', 'Arial', sans-serif;font-size:10px;">O</text>
        <text x="125.04px" y="181.68px" style="font-family:'ArialMT', 'Arial', sans-serif;font-size:10px;">H</text>
        <text x="132.24px" y="174.72px" style="font-family:'ArialMT', 'Arial', sans-serif;font-size:8px;">+</text>
    </g>
    <g transform="matrix(1.33333,0,0,1.33333,-67.177,-82.3333)">
        <text x="83.52px" y="209.28px" style="font-family:'ArialMT', 'Arial', sans-serif;font-size:18px;">+</text>
    </g>
    <g transform="matrix(1.33333,0,0,1.33333,-67.177,-82.3333)">
        <text x="52.32px" y="206.88px" style="font-family:'ArialMT', 'Arial', sans-serif;font-size:10px;">CH</text>
        <text x="66.72px" y="209.52px" style="font-family:'ArialMT', 'Arial', sans-serif;font-size:8px;">3</text>
    </g>
    <g transform="matrix(1.33333,0,0,1.33333,-67.177,-82.3333)">
        <text x="66.72px" y="199.92px" style="font-family:'ArialMT', 'Arial', sans-serif;font-size:8px;">–</text>
    </g>
    <g transform="matrix(-1.07962,0.782437,0.782437,1.07962,-505.141,-873.77)">
        <path d="M58.545,771.005L78.465,771.005" style="fill:none;fill-rule:nonzero;stroke:black;stroke-width:0.72px;"/>
    </g>
    <g transform="matrix(-0.410979,-1.26841,-1.26841,0.410979,1002.13,-197.367)">
        <path d="M53.55,755.685L73.47,755.685" style="fill:none;fill-rule:nonzero;stroke:black;stroke-width:0.72px;"/>
    </g>
    <g transform="matrix(-1.0782,-0.784388,-0.784388,1.0782,741.654,-752.662)">
        <path d="M74.664,770.99L94.586,770.99" style="fill:none;fill-rule:nonzero;stroke:black;stroke-width:0.72px;"/>
    </g>
    <g transform="matrix(-1.33333,-0.00133802,-0.00133802,1.33333,137.941,-949.537)">
        <path d="M66.58,746.2L86.51,746.2" style="fill:none;fill-rule:nonzero;stroke:black;stroke-width:0.72px;"/>
    </g>
    <g transform="matrix(0.412993,-1.26776,-1.26776,-0.412993,973.276,458.347)">
        <path d="M79.635,755.66L99.555,755.66" style="fill:none;fill-rule:nonzero;stroke:black;stroke-width:0.72px;"/>
    </g>
    <g transform="matrix(1.30618,-0.267731,-0.267731,-1.30618,141.228,1046.17)">
        <path d="M92.204,766.688L107.393,766.688L107.017,770.031L92.204,766.688Z" style="stroke:black;stroke-width:0.24px;"/>
    </g>
    <g transform="matrix(1.08026,-0.78155,-0.78155,-1.08026,531.917,927.194)">
        <path d="M92.131,736.185L95.389,736.185" style="fill:none;fill-rule:nonzero;stroke:black;stroke-width:0.72px;"/>
    </g>
    <g transform="matrix(1.07719,-0.785775,-0.785775,-1.07719,536.598,923.561)">
        <path d="M90.924,738.325L93.486,738.325" style="fill:none;fill-rule:nonzero;stroke:black;stroke-width:0.72px;"/>
    </g>
    <g transform="matrix(1.07863,-0.783801,-0.783801,-1.07863,536.292,922.684)">
        <path d="M89.733,740.465L91.587,740.465" style="fill:none;fill-rule:nonzero;stroke:black;stroke-width:0.72px;"/>
    </g>
    <g transform="matrix(1.0803,-0.781493,-0.781493,-1.0803,535.708,921.962)">
        <path d="M88.53,742.6L89.69,742.6" style="fill:none;fill-rule:nonzero;stroke:black;stroke-width:0.72px;"/>
    </g>
    <g transform="matrix(1.07341,-0.790932,-0.790932,-1.07341,544.621,915.904)">
        <path d="M87.324,744.74L87.796,744.74" style="fill:none;fill-rule:nonzero;stroke:black;stroke-width:0.72px;"/>
    </g>
    <g transform="matrix(1.33333,0,0,1.33333,-67.177,-958.493)">
        <path d="M132.24,749.52L166.32,749.52" style="fill:none;fill-rule:nonzero;stroke:black;stroke-width:0.72px;"/>
    </g>
    <g transform="matrix(1.33333,0,0,1.33333,-67.177,-966.173)">
        <path d="M132.24,752.4L166.32,752.4" style="fill:none;fill-rule:nonzero;stroke:black;stroke-width:0.72px;"/>
    </g>
    <g transform="matrix(1.33333,0,0,1.33333,-67.177,-962.333)">
        <path d="M161.76,747.36L169.68,750.96L161.76,754.56" style="fill:none;fill-rule:nonzero;stroke:black;stroke-width:0.72px;"/>
    </g>
    <g transform="matrix(-1.07962,0.782437,0.782437,1.07962,-211.314,-972.248)">
        <path d="M180.705,772.205L200.625,772.205" style="fill:none;fill-rule:nonzero;stroke:black;stroke-width:0.72px;"/>
    </g>
    <g transform="matrix(-0.410979,-1.26841,-1.26841,0.410979,1216.73,-44.5111)">
        <path d="M175.71,756.885L195.63,756.885" style="fill:none;fill-rule:nonzero;stroke:black;stroke-width:0.72px;"/>
    </g>
    <g transform="matrix(-1.0782,-0.784388,-0.784388,1.0782,1037.19,-659.735)">
        <path d="M196.824,772.19L216.746,772.19" style="fill:none;fill-rule:nonzero;stroke:black;stroke-width:0.72px;"/>
    </g>
    <g transform="matrix(-1.33333,-0.00133802,-0.00133802,1.33333,463.703,-952.574)">
        <path d="M188.74,747.4L208.67,747.4" style="fill:none;fill-rule:nonzero;stroke:black;stroke-width:0.72px;"/>
    </g>
    <g transform="matrix(0.412993,-1.26776,-1.26776,-0.412993,1087.23,612.112)">
        <path d="M201.795,756.86L221.715,756.86" style="fill:none;fill-rule:nonzero;stroke:black;stroke-width:0.72px;"/>
    </g>
    <g transform="matrix(1.30618,-0.267731,-0.267731,-1.30618,144.866,1078.84)">
        <path d="M214.364,767.888L229.553,767.888L229.177,771.231L214.364,767.888Z" style="stroke:black;stroke-width:0.24px;"/>
    </g>
    <g transform="matrix(1.08026,-0.78155,-0.78155,-1.08026,563.77,1022.36)">
        <path d="M214.291,737.385L217.549,737.385" style="fill:none;fill-rule:nonzero;stroke:black;stroke-width:0.72px;"/>
    </g>
    <g transform="matrix(1.07719,-0.785775,-0.785775,-1.07719,568.832,1019.24)">
        <path d="M213.084,739.525L215.646,739.525" style="fill:none;fill-rule:nonzero;stroke:black;stroke-width:0.72px;"/>
    </g>
    <g transform="matrix(1.07863,-0.783801,-0.783801,-1.07863,568.348,1018.13)">
        <path d="M211.893,741.665L213.747,741.665" style="fill:none;fill-rule:nonzero;stroke:black;stroke-width:0.72px;"/>
    </g>
    <g transform="matrix(1.0803,-0.781493,-0.781493,-1.0803,567.556,1017.13)">
        <path d="M210.69,743.8L211.85,743.8" style="fill:none;fill-rule:nonzero;stroke:black;stroke-width:0.72px;"/>
    </g>
    <g transform="matrix(1.07341,-0.790932,-0.790932,-1.07341,577.322,1012.21)">
        <path d="M209.484,745.94L209.956,745.94" style="fill:none;fill-rule:nonzero;stroke:black;stroke-width:0.72px;"/>
    </g>
    <g transform="matrix(-0.542401,1.21802,1.21802,0.542401,-541.063,-577.812)">
        <path d="M212.096,722.16L220.504,722.16" style="fill:none;fill-rule:nonzero;stroke:black;stroke-width:0.72px;"/>
    </g>
    <g transform="matrix(1.32609,-0.138749,-0.138749,-1.32609,36.0905,1066.84)">
        <path d="M224.611,732.275L235.469,732.275" style="fill:none;fill-rule:nonzero;stroke:black;stroke-width:0.72px;"/>
    </g>
    <g transform="matrix(1.01459,0.865087,0.865087,-1.01459,-619.824,611.057)">
        <path d="M223.094,723.415L236.026,723.415" style="fill:none;fill-rule:nonzero;stroke:black;stroke-width:0.72px;"/>
    </g>
    <g transform="matrix(1.33316,-0.0217362,-0.0217362,-1.33316,-51.6452,1044.49)">
        <path d="M196.559,712.91L207.601,712.91" style="fill:none;fill-rule:nonzero;stroke:black;stroke-width:0.72px;"/>
    </g>
    <g transform="matrix(1.33333,0,0,1.33333,-67.177,-884.253)">
        <path d="M207.36,720L208.8,719.04L210.48,718.56L212.16,718.32L213.6,718.32L216,719.28L216.96,719.76L217.92,720.72L219.36,722.64L219.84,723.84L220.08,724.32L220.08,725.04" style="fill:none;fill-rule:nonzero;stroke:black;stroke-width:0.48px;"/>
    </g>
    <g transform="matrix(-1.11528,0.730702,0.730702,1.11528,-79.6682,-891.086)">
        <path d="M207.781,725.311L216.102,725.311L208.882,729.181L209.9,726.793L207.781,725.311Z" style="stroke:black;stroke-width:0.48px;"/>
    </g>
    <g transform="matrix(1.33333,0,0,1.33333,-67.177,-960.413)">
        <path d="M258,750.24L292.08,750.24" style="fill:none;fill-rule:nonzero;stroke:black;stroke-width:0.72px;"/>
    </g>
    <g transform="matrix(1.33333,0,0,1.33333,-67.177,-968.093)">
        <path d="M258,753.12L292.08,753.12" style="fill:none;fill-rule:nonzero;stroke:black;stroke-width:0.72px;"/>
    </g>
    <g transform="matrix(1.33333,0,0,1.33333,-67.177,-964.253)">
        <path d="M287.52,748.08L295.44,751.68L287.52,755.28" style="fill:none;fill-rule:nonzero;stroke:black;stroke-width:0.72px;"/>
    </g>
    <g transform="matrix(-1.07962,0.782437,0.782437,1.07962,101.013,-1072.88)">
        <path d="M310.065,771.965L329.985,771.965" style="fill:none;fill-rule:nonzero;stroke:black;stroke-width:0.72px;"/>
    </g>
    <g transform="matrix(-0.410979,-1.26841,-1.26841,0.410979,1442.07,119.99)">
        <path d="M305.07,756.645L324.99,756.645" style="fill:none;fill-rule:nonzero;stroke:black;stroke-width:0.72px;"/>
    </g>
    <g transform="matrix(-1.0782,-0.784388,-0.784388,1.0782,1348.96,-557.688)">
        <path d="M326.184,771.95L346.106,771.95" style="fill:none;fill-rule:nonzero;stroke:black;stroke-width:0.72px;"/>
    </g>
    <g transform="matrix(-1.33333,-0.00133802,-0.00133802,1.33333,808.662,-951.761)">
        <path d="M318.1,747.16L338.03,747.16" style="fill:none;fill-rule:nonzero;stroke:black;stroke-width:0.72px;"/>
    </g>
    <g transform="matrix(0.412993,-1.26776,-1.26776,-0.412993,1205.98,776.33)">
        <path d="M331.155,756.62L351.075,756.62" style="fill:none;fill-rule:nonzero;stroke:black;stroke-width:0.72px;"/>
    </g>
    <g transform="matrix(1.30618,-0.267731,-0.267731,-1.30618,148.315,1113.48)">
        <path d="M343.724,767.648L358.913,767.648L358.537,770.991L343.724,767.648Z" style="stroke:black;stroke-width:0.24px;"/>
    </g>
    <g transform="matrix(1.08026,-0.78155,-0.78155,-1.08026,596.321,1123.53)">
        <path d="M343.651,737.145L346.909,737.145" style="fill:none;fill-rule:nonzero;stroke:black;stroke-width:0.72px;"/>
    </g>
    <g transform="matrix(1.07719,-0.785775,-0.785775,-1.07719,601.778,1120.95)">
        <path d="M342.444,739.285L345.006,739.285" style="fill:none;fill-rule:nonzero;stroke:black;stroke-width:0.72px;"/>
    </g>
    <g transform="matrix(1.07863,-0.783801,-0.783801,-1.07863,601.109,1119.58)">
        <path d="M341.253,741.425L343.107,741.425" style="fill:none;fill-rule:nonzero;stroke:black;stroke-width:0.72px;"/>
    </g>
    <g transform="matrix(1.0803,-0.781493,-0.781493,-1.0803,600.101,1118.28)">
        <path d="M340.05,743.56L341.21,743.56" style="fill:none;fill-rule:nonzero;stroke:black;stroke-width:0.72px;"/>
    </g>
    <g transform="matrix(1.07341,-0.790932,-0.790932,-1.07341,610.757,1114.59)">
        <path d="M338.844,745.7L339.316,745.7" style="fill:none;fill-rule:nonzero;stroke:black;stroke-width:0.72px;"/>
    </g>
    <g transform="matrix(1.32609,-0.138749,-0.138749,-1.32609,36.9936,1084.79)">
        <path d="M353.971,732.035L364.829,732.035" style="fill:none;fill-rule:nonzero;stroke:black;stroke-width:0.72px;"/>
    </g>
    <g transform="matrix(-0.0228725,1.33314,1.33314,0.0228725,-555.187,-404.545)">
        <path d="M345.489,721.68L353.651,721.68" style="fill:none;fill-rule:nonzero;stroke:black;stroke-width:0.72px;"/>
    </g>
    <g transform="matrix(1.33333,0,0,1.33333,-67.177,-968.093)">
        <path d="M428.88,753.12L440.16,753.12" style="fill:none;fill-rule:nonzero;stroke:black;stroke-width:0.72px;"/>
    </g>
    <g transform="matrix(0,1.33333,1.33333,0,-547.497,-320.733)">
        <path d="M314.88,690.48L345.6,690.48" style="fill:none;fill-rule:nonzero;stroke:black;stroke-width:0.72px;"/>
    </g>
    <g transform="matrix(0,1.33333,1.33333,0,-543.657,-324.573)">
        <path d="M317.76,690.48L348.48,690.48" style="fill:none;fill-rule:nonzero;stroke:black;stroke-width:0.72px;"/>
    </g>
    <g transform="matrix(1.33333,0,0,1.33333,-67.177,-761.693)">
        <path d="M335.28,671.76L331.68,679.68L328.08,671.76" style="fill:none;fill-rule:nonzero;stroke:black;stroke-width:0.72px;"/>
    </g>
    <g transform="matrix(-1.07962,0.782437,0.782437,1.07962,205.079,-779.59)">
        <path d="M313.425,649.325L333.345,649.325" style="fill:none;fill-rule:nonzero;stroke:black;stroke-width:0.72px;"/>
    </g>
    <g transform="matrix(-0.410979,-1.26841,-1.26841,0.410979,1292.38,338.174)">
        <path d="M308.43,634.005L328.35,634.005" style="fill:none;fill-rule:nonzero;stroke:black;stroke-width:0.72px;"/>
    </g>
    <g transform="matrix(-1.0782,-0.784388,-0.784388,1.0782,1260.86,-259.302)">
        <path d="M329.544,649.31L349.466,649.31" style="fill:none;fill-rule:nonzero;stroke:black;stroke-width:0.72px;"/>
    </g>
    <g transform="matrix(-1.33333,-0.00133802,-0.00133802,1.33333,817.458,-624.716)">
        <path d="M321.46,624.52L341.39,624.52" style="fill:none;fill-rule:nonzero;stroke:black;stroke-width:0.72px;"/>
    </g>
    <g transform="matrix(0.412993,-1.26776,-1.26776,-0.412993,1053.59,893.461)">
        <path d="M334.515,633.98L354.435,633.98" style="fill:none;fill-rule:nonzero;stroke:black;stroke-width:0.72px;"/>
    </g>
    <g transform="matrix(0.412499,-1.26792,-1.26792,-0.412499,1052.23,888.193)">
        <path d="M333.824,635.015L348.726,635.015" style="fill:none;fill-rule:nonzero;stroke:black;stroke-width:0.72px;"/>
    </g>
    <g transform="matrix(1.26849,-0.410756,-0.410756,-1.26849,221.083,1144.06)">
        <path d="M347.193,645.775L362.287,645.775" style="fill:none;fill-rule:nonzero;stroke:black;stroke-width:0.72px;"/>
    </g>
    <g transform="matrix(1.33333,0,0,1.33333,-67.177,-663.453)">
        <path d="M421.44,638.88L432.48,638.88" style="fill:none;fill-rule:nonzero;stroke:black;stroke-width:0.72px;"/>
    </g>
    <g transform="matrix(0.666693,1.15469,1.15469,-0.666693,-500.391,109.955)">
        <path d="M437.91,630.24L445.67,630.24" style="fill:none;fill-rule:nonzero;stroke:black;stroke-width:0.72px;"/>
    </g>
    <g transform="matrix(0.666871,-1.15458,-1.15458,-0.666871,974.69,1118.76)">
        <path d="M437.701,647.4L445.739,647.4" style="fill:none;fill-rule:nonzero;stroke:black;stroke-width:0.72px;"/>
    </g>
    <g transform="matrix(-1.33333,0,0,1.33333,702.423,-671.133)">
        <path d="M272.16,641.76L305.04,641.76" style="fill:none;fill-rule:nonzero;stroke:black;stroke-width:0.72px;"/>
    </g>
    <g transform="matrix(-1.33333,0,0,1.33333,702.423,-663.453)">
        <path d="M272.16,638.88L305.04,638.88" style="fill:none;fill-rule:nonzero;stroke:black;stroke-width:0.72px;"/>
    </g>
    <g transform="matrix(1.33333,0,0,1.33333,-67.177,-667.293)">
        <path d="M276.72,643.92L268.8,640.32L276.72,636.72" style="fill:none;fill-rule:nonzero;stroke:black;stroke-width:0.72px;"/>
    </g>
    <g transform="matrix(-1.07907,0.783194,0.783194,1.07907,-81.9193,-685.334)">
        <path d="M194.591,648.88L214.509,648.88" style="fill:none;fill-rule:nonzero;stroke:black;stroke-width:0.72px;"/>
    </g>
    <g transform="matrix(-0.410979,-1.26841,-1.26841,0.410979,1084.53,188.233)">
        <path d="M189.6,633.555L209.52,633.555" style="fill:none;fill-rule:nonzero;stroke:black;stroke-width:0.72px;"/>
    </g>
    <g transform="matrix(-1.0782,-0.784388,-0.784388,1.0782,973.93,-351.457)">
        <path d="M210.704,648.87L230.626,648.87" style="fill:none;fill-rule:nonzero;stroke:black;stroke-width:0.72px;"/>
    </g>
    <g transform="matrix(-1.33333,-0.000669344,-0.000669344,1.33333,500.147,-623.831)">
        <path d="M202.63,624.075L222.55,624.075" style="fill:none;fill-rule:nonzero;stroke:black;stroke-width:0.72px;"/>
    </g>
    <g transform="matrix(0.412993,-1.26776,-1.26776,-0.412993,943.661,743.205)">
        <path d="M215.675,633.54L235.595,633.54" style="fill:none;fill-rule:nonzero;stroke:black;stroke-width:0.72px;"/>
    </g>
    <g transform="matrix(1.26862,-0.410332,-0.410332,-1.26862,212.869,1095.23)">
        <path d="M228.359,645.3L243.241,645.3" style="fill:none;fill-rule:nonzero;stroke:black;stroke-width:0.72px;"/>
    </g>
    <g transform="matrix(0.941776,0.943841,0.943841,-0.941776,-578.42,570.061)">
        <path d="M226.824,638.44L239.736,638.44" style="fill:none;fill-rule:nonzero;stroke:black;stroke-width:0.72px;"/>
    </g>
    <g transform="matrix(-1.33333,0,0,1.33333,382.103,-669.853)">
        <path d="M152.88,641.28L184.08,641.28" style="fill:none;fill-rule:nonzero;stroke:black;stroke-width:0.72px;"/>
    </g>
    <g transform="matrix(-1.33333,0,0,1.33333,382.103,-662.173)">
        <path d="M152.88,638.4L184.08,638.4" style="fill:none;fill-rule:nonzero;stroke:black;stroke-width:0.72px;"/>
    </g>
    <g transform="matrix(1.33333,0,0,1.33333,-67.177,-666.013)">
        <path d="M157.44,643.44L149.52,639.84L157.44,636.24" style="fill:none;fill-rule:nonzero;stroke:black;stroke-width:0.72px;"/>
    </g>
    <g transform="matrix(0.41219,1.26802,1.26802,-0.41219,-757.579,329.242)">
        <path d="M98.157,623.015L118.083,623.015" style="fill:none;fill-rule:nonzero;stroke:black;stroke-width:0.72px;"/>
    </g>
    <g transform="matrix(-1.33333,0,0,1.33333,255.916,-595.88)">
        <path d="M111.2,613.54L131.12,613.54" style="fill:none;fill-rule:nonzero;stroke:black;stroke-width:0.72px;"/>
    </g>
    <g transform="matrix(-1.07875,0.783632,0.783632,1.07875,-294.598,-588.143)">
        <path d="M103.138,638.345L123.062,638.345" style="fill:none;fill-rule:nonzero;stroke:black;stroke-width:0.72px;"/>
    </g>
    <g transform="matrix(-0.411585,1.26822,1.26822,0.411585,-623.136,-217.072)">
        <path d="M124.234,623.015L144.156,623.015" style="fill:none;fill-rule:nonzero;stroke:black;stroke-width:0.72px;"/>
    </g>
    <g transform="matrix(-1.07852,-0.78395,-0.78395,1.07852,744.901,-398.068)">
        <path d="M119.257,638.345L139.173,638.345" style="fill:none;fill-rule:nonzero;stroke:black;stroke-width:0.72px;"/>
    </g>
    <g transform="matrix(0,-1.33333,-1.33333,0,965.436,335.187)">
        <path d="M115.42,651.62L130.26,651.62" style="fill:none;fill-rule:nonzero;stroke:black;stroke-width:0.72px;"/>
    </g>
    <g transform="matrix(0,-1.33333,-1.33333,0,960.956,330.707)">
        <path d="M112.06,651.62L126.9,651.62" style="fill:none;fill-rule:nonzero;stroke:black;stroke-width:0.72px;"/>
    </g>
</svg>
