<?xml version="1.0" encoding="UTF-8" standalone="no"?>
<!DOCTYPE svg PUBLIC "-//W3C//DTD SVG 1.1//EN" "http://www.w3.org/Graphics/SVG/1.1/DTD/svg11.dtd">
<svg width="100%" height="100%" viewBox="0 0 665 305" version="1.1" xmlns="http://www.w3.org/2000/svg" xmlns:xlink="http://www.w3.org/1999/xlink" xml:space="preserve" xmlns:serif="http://www.serif.com/" style="fill-rule:evenodd;clip-rule:evenodd;stroke-linecap:round;stroke-linejoin:round;stroke-miterlimit:10;">
    <g transform="matrix(1.33333,0,0,1.33333,-76.1706,-70.56)">
        <text x="107.52px" y="67.92px" style="font-family:'ArialMT', 'Arial', sans-serif;font-size:10px;">CH</text>
        <text x="121.92px" y="70.56px" style="font-family:'ArialMT', 'Arial', sans-serif;font-size:8px;">3</text>
    </g>
    <g transform="matrix(1.33333,0,0,1.33333,-76.1706,-70.56)">
        <text x="107.52px" y="108px" style="font-family:'ArialMT', 'Arial', sans-serif;font-size:10px;">NH</text>
    </g>
    <g transform="matrix(1.33333,0,0,1.33333,-76.1706,-70.56)">
        <text x="246.48px" y="63.36px" style="font-family:'ArialMT', 'Arial', sans-serif;font-size:10px;">CH</text>
        <text x="260.88px" y="66px" style="font-family:'ArialMT', 'Arial', sans-serif;font-size:8px;">3</text>
    </g>
    <g transform="matrix(1.33333,0,0,1.33333,-76.1706,-70.56)">
        <text x="246.72px" y="103.44px" style="font-family:'ArialMT', 'Arial', sans-serif;font-size:10px;">B</text>
        <text x="253.44px" y="96.48px" style="font-family:'ArialMT', 'Arial', sans-serif;font-size:8px;">–</text>
    </g>
    <g transform="matrix(1.33333,0,0,1.33333,-76.1706,-70.56)">
        <text x="263.76px" y="93.36px" style="font-family:'ArialMT', 'Arial', sans-serif;font-size:10px;">R</text>
    </g>
    <g transform="matrix(1.33333,0,0,1.33333,-76.1706,-70.56)">
        <text x="246.48px" y="123.36px" style="font-family:'ArialMT', 'Arial', sans-serif;font-size:10px;">N</text>
    </g>
    <g transform="matrix(1.33333,0,0,1.33333,-76.1706,-70.56)">
        <text x="263.76px" y="113.28px" style="font-family:'ArialMT', 'Arial', sans-serif;font-size:10px;">R</text>
    </g>
    <g transform="matrix(1.33333,0,0,1.33333,-76.1706,-70.56)">
        <text x="229.2px" y="133.2px" style="font-family:'ArialMT', 'Arial', sans-serif;font-size:10px;">N</text>
        <text x="236.4px" y="126.24px" style="font-family:'ArialMT', 'Arial', sans-serif;font-size:8px;">+</text>
    </g>
    <g transform="matrix(1.33333,0,0,1.33333,-76.1706,-70.56)">
        <text x="212.16px" y="143.28px" style="font-family:'ArialMT', 'Arial', sans-serif;font-size:10px;">N</text>
    </g>
    <g transform="matrix(1.33333,0,0,1.33333,-76.1706,-70.56)">
        <text x="383.52px" y="63.36px" style="font-family:'ArialMT', 'Arial', sans-serif;font-size:10px;">CH</text>
        <text x="397.92px" y="66px" style="font-family:'ArialMT', 'Arial', sans-serif;font-size:8px;">3</text>
    </g>
    <g transform="matrix(1.33333,0,0,1.33333,-76.1706,-70.56)">
        <text x="383.76px" y="103.44px" style="font-family:'ArialMT', 'Arial', sans-serif;font-size:10px;">B</text>
    </g>
    <g transform="matrix(1.33333,0,0,1.33333,-76.1706,-70.56)">
        <text x="400.8px" y="93.36px" style="font-family:'ArialMT', 'Arial', sans-serif;font-size:10px;">R</text>
    </g>
    <g transform="matrix(1.33333,0,0,1.33333,-76.1706,-70.56)">
        <text x="400.8px" y="113.28px" style="font-family:'ArialMT', 'Arial', sans-serif;font-size:10px;">R</text>
    </g>
    <g transform="matrix(1.33333,0,0,1.33333,-76.1706,-70.56)">
        <text x="414px" y="86.16px" style="font-family:'ArialMT', 'Arial', sans-serif;font-size:18px;">+</text>
        <text x="438px" y="82.8px" style="font-family:'ArialMT', 'Arial', sans-serif;font-size:10px;">N</text>
        <text x="445.44px" y="85.44px" style="font-family:'ArialMT', 'Arial', sans-serif;font-size:8px;">3</text>
    </g>
    <g transform="matrix(1.33333,0,0,1.33333,-76.1706,-70.56)">
        <text x="497.52px" y="163.68px" style="font-family:'ArialMT', 'Arial', sans-serif;font-size:10px;">CH</text>
        <text x="511.944px" y="156.72px" style="font-family:'ArialMT', 'Arial', sans-serif;font-size:8px;">+</text>
        <text x="520.8px" y="167.52px" style="font-family:'ArialMT', 'Arial', sans-serif;font-size:18px;">+</text>
        <text x="539.04px" y="164.4px" style="font-family:'ArialMT', 'Arial', sans-serif;font-size:10px;">N</text>
        <text x="546.481px" y="167.04px" style="font-family:'ArialMT', 'Arial', sans-serif;font-size:8px;">3</text>
        <text x="551.042px" y="157.44px" style="font-family:'ArialMT', 'Arial', sans-serif;font-size:8px;">-</text>
    </g>
    <g transform="matrix(1.33333,0,0,1.33333,-76.1706,-70.56)">
        <text x="385.2px" y="239.76px" style="font-family:'ArialMT', 'Arial', sans-serif;font-size:10px;">CH</text>
        <text x="399.6px" y="242.4px" style="font-family:'ArialMT', 'Arial', sans-serif;font-size:8px;">3</text>
    </g>
    <g transform="matrix(1.33333,0,0,1.33333,-76.1706,-70.56)">
        <text x="396px" y="263.28px" style="font-family:'ArialMT', 'Arial', sans-serif;font-size:18px;">+</text>
        <text x="421.44px" y="260.88px" style="font-family:'ArialMT', 'Arial', sans-serif;font-size:10px;">H	<tspan x="441.6px " y="260.88px ">B</tspan></text>
    </g>
    <g transform="matrix(1.33333,0,0,1.33333,-76.1706,-70.56)">
        <text x="451.2px" y="277.92px" style="font-family:'ArialMT', 'Arial', sans-serif;font-size:10px;">R</text>
    </g>
    <g transform="matrix(1.33333,0,0,1.33333,-76.1706,-70.56)">
        <text x="451.2px" y="243.6px" style="font-family:'ArialMT', 'Arial', sans-serif;font-size:10px;">R</text>
    </g>
    <g transform="matrix(0,-1.33333,-1.33333,0,1059.79,166.84)">
        <path d="M84.09,757.92L104.01,757.92" style="fill:none;fill-rule:nonzero;stroke:black;stroke-width:0.72px;"/>
    </g>
    <g transform="matrix(1.15468,0.666702,0.666702,-1.15468,-576.177,856.973)">
        <path d="M75.466,772.86L95.384,772.86" style="fill:none;fill-rule:nonzero;stroke:black;stroke-width:0.72px;"/>
    </g>
    <g transform="matrix(1.15468,-0.666702,-0.666702,-1.15468,434.437,976.217)">
        <path d="M75.466,742.98L95.384,742.98" style="fill:none;fill-rule:nonzero;stroke:black;stroke-width:0.72px;"/>
    </g>
    <g transform="matrix(1.15468,-0.666702,-0.666702,-1.15468,451.277,959.378)">
        <path d="M58.216,772.86L78.134,772.86" style="fill:none;fill-rule:nonzero;stroke:black;stroke-width:0.72px;"/>
    </g>
    <g transform="matrix(1.15468,0.666702,0.666702,-1.15468,-559.337,873.812)">
        <path d="M58.216,742.98L78.134,742.98" style="fill:none;fill-rule:nonzero;stroke:black;stroke-width:0.72px;"/>
    </g>
    <g transform="matrix(0,-1.33333,-1.33333,0,1013.79,120.84)">
        <path d="M49.59,757.92L69.51,757.92" style="fill:none;fill-rule:nonzero;stroke:black;stroke-width:0.72px;"/>
    </g>
    <g transform="matrix(1.22391,-0.528985,-0.528985,-1.22391,343.344,1020.78)">
        <path d="M92.876,770.884L107.42,770.884L107.224,772.549L107.032,774.222L92.876,770.884Z" style="stroke:black;stroke-width:0.24px;"/>
    </g>
    <g transform="matrix(0.665472,-1.15539,-1.15539,-0.665472,850.832,678.646)">
        <path d="M103.782,741.395L107.048,741.395" style="fill:none;fill-rule:nonzero;stroke:black;stroke-width:0.72px;"/>
    </g>
    <g transform="matrix(0.66482,-1.15576,-1.15576,-0.66482,851.183,674.676)">
        <path d="M101.826,742.72L104.434,742.72" style="fill:none;fill-rule:nonzero;stroke:black;stroke-width:0.72px;"/>
    </g>
    <g transform="matrix(0.663728,-1.15639,-1.15639,-0.663728,851.752,670.407)">
        <path d="M99.871,744.035L101.819,744.035" style="fill:none;fill-rule:nonzero;stroke:black;stroke-width:0.72px;"/>
    </g>
    <g transform="matrix(0.669266,-1.1532,-1.1532,-0.669266,848.823,670.684)">
        <path d="M97.908,745.36L99.202,745.36" style="fill:none;fill-rule:nonzero;stroke:black;stroke-width:0.72px;"/>
    </g>
    <g transform="matrix(0.670525,-1.15246,-1.15246,-0.670525,848.154,668.045)">
        <path d="M95.952,746.675L96.588,746.675" style="fill:none;fill-rule:nonzero;stroke:black;stroke-width:0.72px;"/>
    </g>
    <g transform="matrix(-1.15468,-0.666702,-0.666702,1.15468,697.63,-642.248)">
        <path d="M109.966,713.1L129.884,713.1" style="fill:none;fill-rule:nonzero;stroke:black;stroke-width:0.72px;"/>
    </g>
    <g transform="matrix(1.15468,-0.666702,-0.666702,-1.15468,417.598,993.056)">
        <path d="M92.716,713.1L112.634,713.1" style="fill:none;fill-rule:nonzero;stroke:black;stroke-width:0.72px;"/>
    </g>
    <g transform="matrix(0,-1.33333,-1.33333,0,1026.11,292.52)">
        <path d="M118.59,698.16L138.51,698.16" style="fill:none;fill-rule:nonzero;stroke:black;stroke-width:0.72px;"/>
    </g>
    <g transform="matrix(0,-1.33333,-1.33333,0,980.109,246.52)">
        <path d="M84.09,698.16L104.01,698.16" style="fill:none;fill-rule:nonzero;stroke:black;stroke-width:0.72px;"/>
    </g>
    <g transform="matrix(1.15468,-0.666702,-0.666702,-1.15468,400.759,1009.89)">
        <path d="M109.966,683.22L129.884,683.22" style="fill:none;fill-rule:nonzero;stroke:black;stroke-width:0.72px;"/>
    </g>
    <g transform="matrix(-1.15468,-0.666702,-0.666702,1.15468,634.79,-579.407)">
        <path d="M92.716,683.22L112.634,683.22" style="fill:none;fill-rule:nonzero;stroke:black;stroke-width:0.72px;"/>
    </g>
    <g transform="matrix(0,1.33333,1.33333,0,-894.971,-63.6)">
        <path d="M103.98,725.4L118.62,725.4" style="fill:none;fill-rule:nonzero;stroke:black;stroke-width:0.72px;"/>
    </g>
    <g transform="matrix(1.33333,0,0,1.33333,-76.1706,-974.88)">
        <path d="M145.92,760.08L180,760.08" style="fill:none;fill-rule:nonzero;stroke:black;stroke-width:0.72px;"/>
    </g>
    <g transform="matrix(1.33333,0,0,1.33333,-76.1706,-982.56)">
        <path d="M145.92,762.96L180,762.96" style="fill:none;fill-rule:nonzero;stroke:black;stroke-width:0.72px;"/>
    </g>
    <g transform="matrix(1.33333,0,0,1.33333,-76.1706,-978.72)">
        <path d="M175.44,757.92L183.36,761.52L175.44,765.12" style="fill:none;fill-rule:nonzero;stroke:black;stroke-width:0.72px;"/>
    </g>
    <g transform="matrix(0,-1.33333,-1.33333,0,1251.15,346.04)">
        <path d="M223.05,762.48L242.97,762.48" style="fill:none;fill-rule:nonzero;stroke:black;stroke-width:0.72px;"/>
    </g>
    <g transform="matrix(1.15468,0.666702,0.666702,-1.15468,-554.391,763.513)">
        <path d="M214.426,777.42L234.344,777.42" style="fill:none;fill-rule:nonzero;stroke:black;stroke-width:0.72px;"/>
    </g>
    <g transform="matrix(1.15468,-0.666702,-0.666702,-1.15468,462.303,1068.05)">
        <path d="M214.426,747.54L234.344,747.54" style="fill:none;fill-rule:nonzero;stroke:black;stroke-width:0.72px;"/>
    </g>
    <g transform="matrix(1.15468,-0.666702,-0.666702,-1.15468,479.142,1051.21)">
        <path d="M197.176,777.42L217.094,777.42" style="fill:none;fill-rule:nonzero;stroke:black;stroke-width:0.72px;"/>
    </g>
    <g transform="matrix(1.15468,0.666702,0.666702,-1.15468,-537.552,780.352)">
        <path d="M197.176,747.54L217.094,747.54" style="fill:none;fill-rule:nonzero;stroke:black;stroke-width:0.72px;"/>
    </g>
    <g transform="matrix(0,-1.33333,-1.33333,0,1205.15,300.04)">
        <path d="M188.55,762.48L208.47,762.48" style="fill:none;fill-rule:nonzero;stroke:black;stroke-width:0.72px;"/>
    </g>
    <g transform="matrix(1.22391,-0.528985,-0.528985,-1.22391,360.962,1093.79)">
        <path d="M231.836,775.444L246.38,775.444L246.184,777.109L245.992,778.782L231.836,775.444Z" style="stroke:black;stroke-width:0.24px;"/>
    </g>
    <g transform="matrix(0.666766,-1.15464,-1.15464,-0.666766,948.041,837.309)">
        <path d="M242.98,745.82L246.26,745.82" style="fill:none;fill-rule:nonzero;stroke:black;stroke-width:0.72px;"/>
    </g>
    <g transform="matrix(0.668048,-1.1539,-1.1539,-0.668048,947.174,834.564)">
        <path d="M241.013,747.14L243.647,747.14" style="fill:none;fill-rule:nonzero;stroke:black;stroke-width:0.72px;"/>
    </g>
    <g transform="matrix(0.665133,-1.15558,-1.15558,-0.665133,949.136,829.271)">
        <path d="M239.053,748.46L241.037,748.46" style="fill:none;fill-rule:nonzero;stroke:black;stroke-width:0.72px;"/>
    </g>
    <g transform="matrix(0.666871,-1.15458,-1.15458,-0.666871,947.967,826.808)">
        <path d="M237.085,749.78L238.425,749.78" style="fill:none;fill-rule:nonzero;stroke:black;stroke-width:0.72px;"/>
    </g>
    <g transform="matrix(0.671828,-1.15171,-1.15171,-0.671828,944.643,826.341)">
        <path d="M235.128,751.1L235.822,751.1" style="fill:none;fill-rule:nonzero;stroke:black;stroke-width:0.72px;"/>
    </g>
    <g transform="matrix(0.8,-1.06667,-1.06667,-0.8,850.776,899.44)">
        <path d="M233.16,752.42L233.21,752.42" style="fill:none;fill-rule:nonzero;stroke:black;stroke-width:0.72px;"/>
    </g>
    <g transform="matrix(1.15416,-0.667602,-0.667602,-1.15416,470.331,1091.95)">
        <path d="M258.403,748.62L263.117,748.62" style="fill:none;fill-rule:nonzero;stroke:black;stroke-width:0.72px;"/>
    </g>
    <g transform="matrix(0,1.33333,1.33333,0,-719.131,-258.32)">
        <path d="M245.46,732.48L255.06,732.48" style="fill:none;fill-rule:nonzero;stroke:black;stroke-width:0.72px;"/>
    </g>
    <g transform="matrix(1.15469,0.666693,0.666693,-1.15469,-521.822,747.796)">
        <path d="M253.75,737.745L263.45,737.745" style="fill:none;fill-rule:nonzero;stroke:black;stroke-width:0.72px;"/>
    </g>
    <g transform="matrix(-1.15449,0.667037,0.667037,1.15449,50.6548,-898.965)">
        <path d="M241.641,718.86L245.799,718.86" style="fill:none;fill-rule:nonzero;stroke:black;stroke-width:0.72px;"/>
    </g>
    <g transform="matrix(-1.15485,0.666412,0.666412,1.15485,132.658,-917.691)">
        <path d="M266.176,717.66L286.104,717.66" style="fill:none;fill-rule:nonzero;stroke:black;stroke-width:0.72px;"/>
    </g>
    <g transform="matrix(-0.000669344,-1.33333,-1.33333,0.000669344,1217.66,471.256)">
        <path d="M257.555,702.72L277.475,702.72" style="fill:none;fill-rule:nonzero;stroke:black;stroke-width:0.72px;"/>
    </g>
    <g transform="matrix(-1.15468,-0.666702,-0.666702,1.15468,1132.27,-537.941)">
        <path d="M283.436,717.66L303.354,717.66" style="fill:none;fill-rule:nonzero;stroke:black;stroke-width:0.72px;"/>
    </g>
    <g transform="matrix(-1.15468,-0.666702,-0.666702,1.15468,1069.43,-475.099)">
        <path d="M266.186,687.78L286.104,687.78" style="fill:none;fill-rule:nonzero;stroke:black;stroke-width:0.72px;"/>
    </g>
    <g transform="matrix(0,-1.33333,-1.33333,0,1263.48,517.733)">
        <path d="M292.06,702.72L311.98,702.72" style="fill:none;fill-rule:nonzero;stroke:black;stroke-width:0.72px;"/>
    </g>
    <g transform="matrix(-1.15468,0.666702,0.666702,1.15468,195.256,-854.813)">
        <path d="M283.436,687.78L303.354,687.78" style="fill:none;fill-rule:nonzero;stroke:black;stroke-width:0.72px;"/>
    </g>
    <g transform="matrix(1.15472,0.666633,0.666633,-1.15472,-507.112,750.001)">
        <path d="M253.645,716.395L268.505,716.395" style="fill:none;fill-rule:nonzero;stroke:black;stroke-width:0.72px;"/>
    </g>
    <g transform="matrix(1.15487,-0.666381,-0.666381,-1.15487,435.41,1075.17)">
        <path d="M219.708,707.635L228.852,707.635" style="fill:none;fill-rule:nonzero;stroke:black;stroke-width:0.72px;"/>
    </g>
    <g transform="matrix(1.15464,-0.666778,-0.666778,-1.15464,437.62,1073.69)">
        <path d="M217.016,710.79L229.014,710.79" style="fill:none;fill-rule:nonzero;stroke:black;stroke-width:0.72px;"/>
    </g>
    <g transform="matrix(1.15457,-0.666886,-0.666886,-1.15457,434.021,1076.54)">
        <path d="M219.772,704.55L231.528,704.55" style="fill:none;fill-rule:nonzero;stroke:black;stroke-width:0.72px;"/>
    </g>
    <g transform="matrix(1.33333,0,0,1.33333,-76.1706,-899.36)">
        <path d="M238.8,733.68L240.48,731.76L242.4,730.08L244.8,729.12L247.44,728.4L248.64,728.4L252,728.88L253.44,729.36L254.88,730.08L257.28,732L258.24,733.2L258.96,734.4L259.44,735.12" style="fill:none;fill-rule:nonzero;stroke:black;stroke-width:0.48px;"/>
    </g>
    <g transform="matrix(0.580748,1.20021,1.20021,-0.580748,-762.148,193.667)">
        <path d="M252.627,733.524L260.892,733.524L253.644,729.566L254.578,732.047L252.627,733.524Z" style="stroke:black;stroke-width:0.48px;"/>
    </g>
    <g transform="matrix(1.33333,0,0,1.33333,-76.1706,-974.88)">
        <path d="M286.56,760.08L320.64,760.08" style="fill:none;fill-rule:nonzero;stroke:black;stroke-width:0.72px;"/>
    </g>
    <g transform="matrix(1.33333,0,0,1.33333,-76.1706,-982.56)">
        <path d="M286.56,762.96L320.64,762.96" style="fill:none;fill-rule:nonzero;stroke:black;stroke-width:0.72px;"/>
    </g>
    <g transform="matrix(1.33333,0,0,1.33333,-76.1706,-978.72)">
        <path d="M316.08,757.92L324,761.52L316.08,765.12" style="fill:none;fill-rule:nonzero;stroke:black;stroke-width:0.72px;"/>
    </g>
    <g transform="matrix(0,-1.33333,-1.33333,0,1433.87,528.76)">
        <path d="M360.09,762.48L380.01,762.48" style="fill:none;fill-rule:nonzero;stroke:black;stroke-width:0.72px;"/>
    </g>
    <g transform="matrix(1.15468,0.666702,0.666702,-1.15468,-529.908,672.148)">
        <path d="M351.466,777.42L371.384,777.42" style="fill:none;fill-rule:nonzero;stroke:black;stroke-width:0.72px;"/>
    </g>
    <g transform="matrix(1.15468,-0.666702,-0.666702,-1.15468,486.786,1159.41)">
        <path d="M351.466,747.54L371.384,747.54" style="fill:none;fill-rule:nonzero;stroke:black;stroke-width:0.72px;"/>
    </g>
    <g transform="matrix(1.15468,-0.666702,-0.666702,-1.15468,503.625,1142.57)">
        <path d="M334.216,777.42L354.134,777.42" style="fill:none;fill-rule:nonzero;stroke:black;stroke-width:0.72px;"/>
    </g>
    <g transform="matrix(1.15468,0.666702,0.666702,-1.15468,-513.069,688.987)">
        <path d="M334.216,747.54L354.134,747.54" style="fill:none;fill-rule:nonzero;stroke:black;stroke-width:0.72px;"/>
    </g>
    <g transform="matrix(0,-1.33333,-1.33333,0,1387.87,482.76)">
        <path d="M325.59,762.48L345.51,762.48" style="fill:none;fill-rule:nonzero;stroke:black;stroke-width:0.72px;"/>
    </g>
    <g transform="matrix(1.22391,-0.528985,-0.528985,-1.22391,375.958,1166.28)">
        <path d="M368.876,775.444L383.42,775.444L383.224,777.109L383.032,778.782L368.876,775.444Z" style="stroke:black;stroke-width:0.24px;"/>
    </g>
    <g transform="matrix(0.666766,-1.15464,-1.15464,-0.666766,1039.39,995.542)">
        <path d="M380.02,745.82L383.3,745.82" style="fill:none;fill-rule:nonzero;stroke:black;stroke-width:0.72px;"/>
    </g>
    <g transform="matrix(0.668048,-1.1539,-1.1539,-0.668048,1038.34,992.695)">
        <path d="M378.053,747.14L380.687,747.14" style="fill:none;fill-rule:nonzero;stroke:black;stroke-width:0.72px;"/>
    </g>
    <g transform="matrix(0.665133,-1.15558,-1.15558,-0.665133,1040.71,987.632)">
        <path d="M376.093,748.46L378.077,748.46" style="fill:none;fill-rule:nonzero;stroke:black;stroke-width:0.72px;"/>
    </g>
    <g transform="matrix(0.666871,-1.15458,-1.15458,-0.666871,1039.3,985.032)">
        <path d="M374.125,749.78L375.465,749.78" style="fill:none;fill-rule:nonzero;stroke:black;stroke-width:0.72px;"/>
    </g>
    <g transform="matrix(0.671828,-1.15171,-1.15171,-0.671828,1035.3,984.171)">
        <path d="M372.168,751.1L372.862,751.1" style="fill:none;fill-rule:nonzero;stroke:black;stroke-width:0.72px;"/>
    </g>
    <g transform="matrix(0.8,-1.06667,-1.06667,-0.8,923.864,1045.62)">
        <path d="M370.2,752.42L370.25,752.42" style="fill:none;fill-rule:nonzero;stroke:black;stroke-width:0.72px;"/>
    </g>
    <g transform="matrix(1.15469,-0.666693,-0.666693,-1.15469,492.78,1182.25)">
        <path d="M390.79,747.375L400.49,747.375" style="fill:none;fill-rule:nonzero;stroke:black;stroke-width:0.72px;"/>
    </g>
    <g transform="matrix(1.15469,0.666693,0.666693,-1.15469,-497.34,656.433)">
        <path d="M390.79,737.745L400.49,737.745" style="fill:none;fill-rule:nonzero;stroke:black;stroke-width:0.72px;"/>
    </g>
    <g transform="matrix(-1.33329,0.0107092,0.0107092,1.33329,1198.91,-1034.96)">
        <path d="M471.34,780.69L491.26,780.69" style="fill:none;fill-rule:nonzero;stroke:black;stroke-width:0.72px;"/>
    </g>
    <g transform="matrix(0.657333,-1.16004,-1.16004,-0.657333,1134.62,1071.24)">
        <path d="M456.471,771.945L476.389,771.945" style="fill:none;fill-rule:nonzero;stroke:black;stroke-width:0.72px;"/>
    </g>
    <g transform="matrix(-0.676027,-1.14925,-1.14925,0.676027,1808.53,70.7843)">
        <path d="M486.35,772.185L506.27,772.185" style="fill:none;fill-rule:nonzero;stroke:black;stroke-width:0.72px;"/>
    </g>
    <g transform="matrix(-0.676027,-1.14925,-1.14925,0.676027,1728.67,71.7495)">
        <path d="M456.61,754.695L476.53,754.695" style="fill:none;fill-rule:nonzero;stroke:black;stroke-width:0.72px;"/>
    </g>
    <g transform="matrix(0.657333,-1.16004,-1.16004,-0.657333,1135.18,1117.57)">
        <path d="M486.491,754.935L506.409,754.935" style="fill:none;fill-rule:nonzero;stroke:black;stroke-width:0.72px;"/>
    </g>
    <g transform="matrix(-1.33329,0.0107092,0.0107092,1.33329,1200.03,-942.965)">
        <path d="M471.62,746.19L491.54,746.19" style="fill:none;fill-rule:nonzero;stroke:black;stroke-width:0.72px;"/>
    </g>
    <g transform="matrix(-1.33329,0.0111107,0.0111107,1.33329,1131.65,-988.326)">
        <path d="M450.72,763.235L461.52,763.235" style="fill:none;fill-rule:nonzero;stroke:black;stroke-width:0.72px;"/>
    </g>
    <g transform="matrix(1.33333,0,0,1.33333,-76.1706,-982.88)">
        <path d="M453.12,753.36L454.8,754.56L456.48,756L457.68,757.92L458.4,759.84L458.88,762L458.88,765.12L458.4,766.8L457.68,768.48L456.72,769.92L455.76,771.12L454.32,772.32L453.6,772.8" style="fill:none;fill-rule:nonzero;stroke:black;stroke-width:0.48px;"/>
    </g>
    <g transform="matrix(-1.17647,0.627451,0.627451,1.17647,596.432,-1134.39)">
        <path d="M453.854,758.216L462.014,758.216L454.715,754.221L455.746,756.664L453.854,758.216Z" style="stroke:black;stroke-width:0.48px;"/>
    </g>
    <g transform="matrix(0,1.33333,1.33333,0,-407.531,-561.28)">
        <path d="M469.08,729.24L492.36,729.24" style="fill:none;fill-rule:nonzero;stroke:black;stroke-width:0.72px;"/>
    </g>
    <g transform="matrix(0,1.33333,1.33333,0,-403.691,-565.12)">
        <path d="M471.96,729.24L495.24,729.24" style="fill:none;fill-rule:nonzero;stroke:black;stroke-width:0.72px;"/>
    </g>
    <g transform="matrix(1.33333,0,0,1.33333,-76.1706,-863.2)">
        <path d="M485.76,714.24L482.16,722.16L478.56,714.24" style="fill:none;fill-rule:nonzero;stroke:black;stroke-width:0.72px;"/>
    </g>
    <g transform="matrix(-1.33332,0.00535471,0.00535471,1.33332,1203.73,-815.45)">
        <path d="M471.41,699.33L491.33,699.33" style="fill:none;fill-rule:nonzero;stroke:black;stroke-width:0.72px;"/>
    </g>
    <g transform="matrix(0.662023,-1.15737,-1.15737,-0.662023,1036.3,1128.24)">
        <path d="M456.506,690.645L476.424,690.645" style="fill:none;fill-rule:nonzero;stroke:black;stroke-width:0.72px;"/>
    </g>
    <g transform="matrix(-0.671411,-1.15195,-1.15195,0.671411,1714.56,232)">
        <path d="M487.879,693.365L501.781,693.365" style="fill:none;fill-rule:nonzero;stroke:black;stroke-width:0.72px;"/>
    </g>
    <g transform="matrix(-0.67137,-1.15197,-1.15197,0.67137,1634.83,239.478)">
        <path d="M456.575,673.395L476.495,673.395" style="fill:none;fill-rule:nonzero;stroke:black;stroke-width:0.72px;"/>
    </g>
    <g transform="matrix(0.661928,-1.15742,-1.15742,-0.661928,1032.72,1174.38)">
        <path d="M487.94,670.955L501.96,670.955" style="fill:none;fill-rule:nonzero;stroke:black;stroke-width:0.72px;"/>
    </g>
    <g transform="matrix(-1.33332,0.00535471,0.00535471,1.33332,1204.29,-723.451)">
        <path d="M471.55,664.83L491.47,664.83" style="fill:none;fill-rule:nonzero;stroke:black;stroke-width:0.72px;"/>
    </g>
    <g transform="matrix(0,1.33333,1.33333,0,-508.811,-324)">
        <path d="M300.48,678.24L407.04,678.24" style="fill:none;fill-rule:nonzero;stroke:black;stroke-width:0.72px;"/>
    </g>
    <g transform="matrix(0,1.33333,1.33333,0,-504.971,-327.84)">
        <path d="M303.36,678.24L409.92,678.24" style="fill:none;fill-rule:nonzero;stroke:black;stroke-width:0.72px;"/>
    </g>
    <g transform="matrix(1.33333,0,0,1.33333,-76.1706,-616.16)">
        <path d="M358.8,621.6L355.2,629.52L351.6,621.6" style="fill:none;fill-rule:nonzero;stroke:black;stroke-width:0.72px;"/>
    </g>
    <g transform="matrix(0,-1.33333,-1.33333,0,1200.91,766.2)">
        <path d="M361.77,586.08L381.69,586.08" style="fill:none;fill-rule:nonzero;stroke:black;stroke-width:0.72px;"/>
    </g>
    <g transform="matrix(0,-1.33333,-1.33333,0,1196.43,761.72)">
        <path d="M360.07,586.08L376.67,586.08" style="fill:none;fill-rule:nonzero;stroke:black;stroke-width:0.72px;"/>
    </g>
    <g transform="matrix(1.15468,0.666702,0.666702,-1.15468,-412.002,702.543)">
        <path d="M353.146,601.02L373.064,601.02" style="fill:none;fill-rule:nonzero;stroke:black;stroke-width:0.72px;"/>
    </g>
    <g transform="matrix(1.15468,-0.666702,-0.666702,-1.15468,369.48,1192.05)">
        <path d="M353.146,571.14L373.064,571.14" style="fill:none;fill-rule:nonzero;stroke:black;stroke-width:0.72px;"/>
    </g>
    <g transform="matrix(1.15468,-0.666702,-0.666702,-1.15468,386.319,1175.21)">
        <path d="M335.896,601.02L355.814,601.02" style="fill:none;fill-rule:nonzero;stroke:black;stroke-width:0.72px;"/>
    </g>
    <g transform="matrix(1.15468,0.666702,0.666702,-1.15468,-395.163,719.382)">
        <path d="M335.896,571.14L355.814,571.14" style="fill:none;fill-rule:nonzero;stroke:black;stroke-width:0.72px;"/>
    </g>
    <g transform="matrix(0,-1.33333,-1.33333,0,1154.91,720.2)">
        <path d="M327.27,586.08L347.19,586.08" style="fill:none;fill-rule:nonzero;stroke:black;stroke-width:0.72px;"/>
    </g>
    <g transform="matrix(1.22391,-0.528985,-0.528985,-1.22391,282.828,1186.47)">
        <path d="M370.556,599.044L385.1,599.044L384.904,600.709L384.712,602.382L370.556,599.044Z" style="stroke:black;stroke-width:0.24px;"/>
    </g>
    <g transform="matrix(1.33333,0,0,1.33333,-76.1706,-508.32)">
        <path d="M429.6,585.12L440.64,585.12" style="fill:none;fill-rule:nonzero;stroke:black;stroke-width:0.72px;"/>
    </g>
    <g transform="matrix(0.666693,1.15469,1.15469,-0.666693,-441.869,148.145)">
        <path d="M446.07,576.48L453.83,576.48" style="fill:none;fill-rule:nonzero;stroke:black;stroke-width:0.72px;"/>
    </g>
    <g transform="matrix(0.666871,-1.15458,-1.15458,-0.666871,909.064,1175.78)">
        <path d="M445.861,593.64L453.899,593.64" style="fill:none;fill-rule:nonzero;stroke:black;stroke-width:0.72px;"/>
    </g>
</svg>
