<?xml version="1.0" encoding="UTF-8" standalone="no"?>
<!DOCTYPE svg PUBLIC "-//W3C//DTD SVG 1.1//EN" "http://www.w3.org/Graphics/SVG/1.1/DTD/svg11.dtd">
<svg width="100%" height="100%" viewBox="0 0 625 435" version="1.1" xmlns="http://www.w3.org/2000/svg" xmlns:xlink="http://www.w3.org/1999/xlink" xml:space="preserve" xmlns:serif="http://www.serif.com/" style="fill-rule:evenodd;clip-rule:evenodd;stroke-linecap:round;stroke-linejoin:round;stroke-miterlimit:10;">
    <g transform="matrix(1.33333,0,0,1.33333,-73.74,-70.32)">
        <text x="77.04px" y="62.88px" style="font-family:'ArialMT', 'Arial', sans-serif;font-size:10px;">O</text>
    </g>
    <g transform="matrix(1.33333,0,0,1.33333,-73.74,-70.32)">
        <text x="202.08px" y="68.88px" style="font-family:'ArialMT', 'Arial', sans-serif;font-size:10px;">CH</text>
        <text x="216.48px" y="71.52px" style="font-family:'ArialMT', 'Arial', sans-serif;font-size:8px;">3</text>
    </g>
    <g transform="matrix(1.33333,0,0,1.33333,-73.74,-70.32)">
        <text x="211.92px" y="86.16px" style="font-family:'ArialMT', 'Arial', sans-serif;font-size:10px;">O<tspan x="219.84px " y="86.16px ">H</tspan></text>
    </g>
    <g transform="matrix(1.33333,0,0,1.33333,-73.74,-70.32)">
        <text x="328.8px" y="70.08px" style="font-family:'ArialMT', 'Arial', sans-serif;font-size:10px;">CH</text>
        <text x="343.2px" y="72.72px" style="font-family:'ArialMT', 'Arial', sans-serif;font-size:8px;">3</text>
    </g>
    <g transform="matrix(1.33333,0,0,1.33333,-73.74,-70.32)">
        <text x="450px" y="70.08px" style="font-family:'ArialMT', 'Arial', sans-serif;font-size:10px;">CH</text>
        <text x="464.4px" y="72.72px" style="font-family:'ArialMT', 'Arial', sans-serif;font-size:8px;">3</text>
    </g>
    <g transform="matrix(1.33333,0,0,1.33333,-73.74,-70.32)">
        <text x="450.24px" y="109.92px" style="font-family:'ArialMT', 'Arial', sans-serif;font-size:10px;">B</text>
    </g>
    <g transform="matrix(1.33333,0,0,1.33333,-73.74,-70.32)">
        <text x="467.28px" y="100.08px" style="font-family:'ArialMT', 'Arial', sans-serif;font-size:10px;">Cl</text>
    </g>
    <g transform="matrix(1.33333,0,0,1.33333,-73.74,-70.32)">
        <text x="467.28px" y="119.76px" style="font-family:'ArialMT', 'Arial', sans-serif;font-size:10px;">Cl</text>
    </g>
    <g transform="matrix(1.33333,0,0,1.33333,-73.74,-70.32)">
        <text x="214.56px" y="155.04px" style="font-family:'ArialMT', 'Arial', sans-serif;font-size:10px;">CH</text>
        <text x="228.96px" y="157.68px" style="font-family:'ArialMT', 'Arial', sans-serif;font-size:8px;">3</text>
    </g>
    <g transform="matrix(1.33333,0,0,1.33333,-73.74,-70.32)">
        <text x="214.8px" y="194.88px" style="font-family:'ArialMT', 'Arial', sans-serif;font-size:10px;">B</text>
        <text x="221.52px" y="187.92px" style="font-family:'ArialMT', 'Arial', sans-serif;font-size:8px;">–</text>
    </g>
    <g transform="matrix(1.33333,0,0,1.33333,-73.74,-70.32)">
        <text x="231.84px" y="185.04px" style="font-family:'ArialMT', 'Arial', sans-serif;font-size:10px;">Cl</text>
    </g>
    <g transform="matrix(1.33333,0,0,1.33333,-73.74,-70.32)">
        <text x="231.84px" y="204.72px" style="font-family:'ArialMT', 'Arial', sans-serif;font-size:10px;">Cl</text>
    </g>
    <g transform="matrix(1.33333,0,0,1.33333,-73.74,-70.32)">
        <text x="204.48px" y="212.16px" style="font-family:'ArialMT', 'Arial', sans-serif;font-size:10px;">N</text>
    </g>
    <g transform="matrix(1.33333,0,0,1.33333,-73.74,-70.32)">
        <text x="184.56px" y="212.16px" style="font-family:'ArialMT', 'Arial', sans-serif;font-size:10px;">N</text>
        <text x="191.76px" y="205.2px" style="font-family:'ArialMT', 'Arial', sans-serif;font-size:8px;">+</text>
    </g>
    <g transform="matrix(1.33333,0,0,1.33333,-73.74,-70.32)">
        <text x="164.64px" y="211.92px" style="font-family:'ArialMT', 'Arial', sans-serif;font-size:10px;">N</text>
    </g>
    <g transform="matrix(1.33333,0,0,1.33333,-73.74,-70.32)">
        <text x="348.24px" y="180.24px" style="font-family:'ArialMT', 'Arial', sans-serif;font-size:10px;">CH</text>
        <text x="362.64px" y="182.88px" style="font-family:'ArialMT', 'Arial', sans-serif;font-size:8px;">3</text>
    </g>
    <g transform="matrix(1.33333,0,0,1.33333,-73.74,-70.32)">
        <text x="348.24px" y="220.08px" style="font-family:'ArialMT', 'Arial', sans-serif;font-size:10px;">N</text>
    </g>
    <g transform="matrix(1.33333,0,0,1.33333,-73.74,-70.32)">
        <text x="348.48px" y="240px" style="font-family:'ArialMT', 'Arial', sans-serif;font-size:10px;">B</text>
    </g>
    <g transform="matrix(1.33333,0,0,1.33333,-73.74,-70.32)">
        <text x="365.52px" y="250.08px" style="font-family:'ArialMT', 'Arial', sans-serif;font-size:10px;">Cl</text>
    </g>
    <g transform="matrix(1.33333,0,0,1.33333,-73.74,-70.32)">
        <text x="365.52px" y="230.16px" style="font-family:'ArialMT', 'Arial', sans-serif;font-size:10px;">Cl</text>
    </g>
    <g transform="matrix(1.33333,0,0,1.33333,-73.74,-70.32)">
        <text x="155.52px" y="299.04px" style="font-family:'ArialMT', 'Arial', sans-serif;font-size:10px;">CH</text>
        <text x="169.92px" y="301.68px" style="font-family:'ArialMT', 'Arial', sans-serif;font-size:8px;">3</text>
    </g>
    <g transform="matrix(1.33333,0,0,1.33333,-73.74,-70.32)">
        <text x="155.52px" y="338.88px" style="font-family:'ArialMT', 'Arial', sans-serif;font-size:10px;">N</text>
        <text x="162.72px" y="331.92px" style="font-family:'ArialMT', 'Arial', sans-serif;font-size:8px;">+</text>
    </g>
    <g transform="matrix(1.33333,0,0,1.33333,-73.74,-70.32)">
        <text x="172.8px" y="329.04px" style="font-family:'ArialMT', 'Arial', sans-serif;font-size:10px;">H</text>
    </g>
    <g transform="matrix(1.33333,0,0,1.33333,-73.74,-70.32)">
        <text x="138.24px" y="348.96px" style="font-family:'ArialMT', 'Arial', sans-serif;font-size:10px;">H</text>
    </g>
    <g transform="matrix(1.33333,0,0,1.33333,-73.74,-70.32)">
        <text x="153.36px" y="364.32px" style="font-family:'ArialMT', 'Arial', sans-serif;font-size:10px;">C</text>
        <text x="160.56px" y="364.32px" style="font-family:'ArialMT', 'Arial', sans-serif;font-size:10px;">l</text>
        <text x="163.2px" y="357.36px" style="font-family:'ArialMT', 'Arial', sans-serif;font-size:8px;">-</text>
    </g>
    <g transform="matrix(1.33333,0,0,1.33333,-73.74,-70.32)">
        <text x="112.08px" y="78.96px" style="font-family:'ArialMT', 'Arial', sans-serif;font-size:10px;">CH</text>
        <text x="126.48px" y="81.6px" style="font-family:'ArialMT', 'Arial', sans-serif;font-size:6px;">3</text>
        <text x="130.08px" y="78.96px" style="font-family:'ArialMT', 'Arial', sans-serif;font-size:10px;">M</text>
        <text x="138.48px" y="78.96px" style="font-family:'ArialMT', 'Arial', sans-serif;font-size:10px;">gI</text>
    </g>
    <g transform="matrix(1.33333,0,0,1.33333,-73.74,-70.32)">
        <text x="248.88px" y="77.76px" style="font-family:'ArialMT', 'Arial', sans-serif;font-size:10px;">H</text>
        <text x="256.08px" y="72.72px" style="font-family:'ArialMT', 'Arial', sans-serif;font-size:6px;">+</text>
    </g>
    <g transform="matrix(1.33333,0,0,1.33333,-73.74,-70.32)">
        <text x="356.16px" y="79.2px" style="font-family:'ArialMT', 'Arial', sans-serif;font-size:10px;">H</text>
        <text x="363.36px" y="79.2px" style="font-family:'ArialMT', 'Arial', sans-serif;font-size:10px;">B</text>
        <text x="370.08px" y="79.2px" style="font-family:'ArialMT', 'Arial', sans-serif;font-size:10px;">C</text>
        <text x="377.28px" y="79.2px" style="font-family:'ArialMT', 'Arial', sans-serif;font-size:10px;">l</text>
        <text x="379.68px" y="81.84px" style="font-family:'ArialMT', 'Arial', sans-serif;font-size:6px;">2</text>
    </g>
    <g transform="matrix(1.33333,0,0,1.33333,-73.74,-70.32)">
        <text x="107.04px" y="160.56px" style="font-family:'ArialMT', 'Arial', sans-serif;font-size:10px;">N</text>
        <text x="114.24px" y="153.6px" style="font-family:'ArialMT', 'Arial', sans-serif;font-size:8px;">–</text>
    </g>
    <g transform="matrix(1.33333,0,0,1.33333,-73.74,-70.32)">
        <text x="124.32px" y="170.4px" style="font-family:'ArialMT', 'Arial', sans-serif;font-size:10px;">N</text>
        <text x="131.52px" y="163.44px" style="font-family:'ArialMT', 'Arial', sans-serif;font-size:8px;">+</text>
    </g>
    <g transform="matrix(1.33333,0,0,1.33333,-73.74,-70.32)">
        <text x="141.6px" y="180.48px" style="font-family:'ArialMT', 'Arial', sans-serif;font-size:10px;">N</text>
    </g>
    <g transform="matrix(1.33333,0,0,1.33333,-73.74,-70.32)">
        <text x="423.6px" y="206.88px" style="font-family:'ArialMT', 'Arial', sans-serif;font-size:10px;">HCl</text>
    </g>
    <g transform="matrix(1.33333,0,0,1.33333,-73.74,-70.32)">
        <text x="422.64px" y="225.6px" style="font-family:'ArialMT', 'Arial', sans-serif;font-size:10px;">H</text>
        <text x="429.84px" y="228.24px" style="font-family:'ArialMT', 'Arial', sans-serif;font-size:6px;">2</text>
        <text x="433.44px" y="225.6px" style="font-family:'ArialMT', 'Arial', sans-serif;font-size:10px;">O</text>
    </g>
    <g transform="matrix(-1.15468,-0.666702,-0.666702,1.15468,654.914,-774.266)">
        <path d="M79.746,758.16L99.664,758.16" style="fill:none;fill-rule:nonzero;stroke:black;stroke-width:0.72px;"/>
    </g>
    <g transform="matrix(1.15468,-0.666702,-0.666702,-1.15468,444.671,965.098)">
        <path d="M62.496,758.16L82.414,758.16" style="fill:none;fill-rule:nonzero;stroke:black;stroke-width:0.72px;"/>
    </g>
    <g transform="matrix(0,-1.33333,-1.33333,0,1048.33,192.387)">
        <path d="M88.37,743.22L108.29,743.22" style="fill:none;fill-rule:nonzero;stroke:black;stroke-width:0.72px;"/>
    </g>
    <g transform="matrix(0,-1.33333,-1.33333,0,1002.33,146.387)">
        <path d="M53.87,743.22L73.79,743.22" style="fill:none;fill-rule:nonzero;stroke:black;stroke-width:0.72px;"/>
    </g>
    <g transform="matrix(1.15468,-0.666702,-0.666702,-1.15468,427.832,981.937)">
        <path d="M79.746,728.28L99.664,728.28" style="fill:none;fill-rule:nonzero;stroke:black;stroke-width:0.72px;"/>
    </g>
    <g transform="matrix(-1.15468,-0.666702,-0.666702,1.15468,592.075,-711.424)">
        <path d="M62.496,728.28L82.414,728.28" style="fill:none;fill-rule:nonzero;stroke:black;stroke-width:0.72px;"/>
    </g>
    <g transform="matrix(0,-1.33333,-1.33333,0,1063.93,135.267)">
        <path d="M75.41,770.49L90.11,770.49" style="fill:none;fill-rule:nonzero;stroke:black;stroke-width:0.72px;"/>
    </g>
    <g transform="matrix(0,-1.33333,-1.33333,0,1059.45,130.787)">
        <path d="M72.05,770.49L86.75,770.49" style="fill:none;fill-rule:nonzero;stroke:black;stroke-width:0.72px;"/>
    </g>
    <g transform="matrix(0,-1.33333,-1.33333,0,1187.23,313.773)">
        <path d="M185.98,749.79L205.9,749.79" style="fill:none;fill-rule:nonzero;stroke:black;stroke-width:0.72px;"/>
    </g>
    <g transform="matrix(1.15468,0.666702,0.666702,-1.15468,-550.123,790.735)">
        <path d="M177.356,764.73L197.274,764.73" style="fill:none;fill-rule:nonzero;stroke:black;stroke-width:0.72px;"/>
    </g>
    <g transform="matrix(1.15468,-0.666702,-0.666702,-1.15468,449.651,1045.84)">
        <path d="M177.356,734.85L197.274,734.85" style="fill:none;fill-rule:nonzero;stroke:black;stroke-width:0.72px;"/>
    </g>
    <g transform="matrix(1.15485,-0.666412,-0.666412,-1.15485,466.239,1029.08)">
        <path d="M160.096,764.73L180.024,764.73" style="fill:none;fill-rule:nonzero;stroke:black;stroke-width:0.72px;"/>
    </g>
    <g transform="matrix(1.15485,0.666412,0.666412,-1.15485,-533.1,807.749)">
        <path d="M160.096,734.85L180.024,734.85" style="fill:none;fill-rule:nonzero;stroke:black;stroke-width:0.72px;"/>
    </g>
    <g transform="matrix(0,-1.33333,-1.33333,0,1141.22,267.76)">
        <path d="M151.47,749.79L171.39,749.79" style="fill:none;fill-rule:nonzero;stroke:black;stroke-width:0.72px;"/>
    </g>
    <g transform="matrix(0.666655,-1.15471,-1.15471,-0.666655,943.485,771.984)">
        <path d="M192.45,765.795L206.41,765.795" style="fill:none;fill-rule:nonzero;stroke:black;stroke-width:0.72px;"/>
    </g>
    <g transform="matrix(1.33333,0,0,1.33333,-73.74,-973.76)">
        <path d="M195.94,759.75L196.05,760.59L196.36,761.21L196.78,761.43L197.2,761.21L197.5,760.59L197.62,759.75L197.73,758.91L198.04,758.3L198.46,758.07L198.88,758.3L199.18,758.91L199.3,759.75L199.41,760.59L199.72,761.21L200.14,761.43L200.56,761.21L200.86,760.59L200.98,759.75L201.09,758.91L201.4,758.3L201.82,758.07L202.24,758.3L202.54,758.91L202.66,759.75L202.77,760.59L203.08,761.21L203.5,761.43L203.92,761.21L204.22,760.59L204.34,759.75L204.45,758.91L204.76,758.3L205.18,758.07L205.6,758.3L205.9,758.91L206.02,759.75L206.13,760.59L206.44,761.21L206.86,761.43L207.28,761.21L207.58,760.59L207.7,759.75L207.81,758.91L208.12,758.3L208.54,758.07L208.96,758.3L209.26,758.91L209.38,759.75L209.48,760.57L209.77,761.18L210.17,761.4L210.56,761.18L210.85,760.57L210.96,759.75" style="fill:none;fill-rule:nonzero;stroke:black;stroke-width:0.72px;"/>
    </g>
    <g transform="matrix(0,-1.33333,-1.33333,0,1354.43,464.733)">
        <path d="M305.29,755.88L325.21,755.88" style="fill:none;fill-rule:nonzero;stroke:black;stroke-width:0.72px;"/>
    </g>
    <g transform="matrix(0,-1.33333,-1.33333,0,1349.95,460.253)">
        <path d="M303.59,755.88L320.19,755.88" style="fill:none;fill-rule:nonzero;stroke:black;stroke-width:0.72px;"/>
    </g>
    <g transform="matrix(1.15485,0.666412,0.666412,-1.15485,-532.697,710.324)">
        <path d="M296.656,770.82L316.584,770.82" style="fill:none;fill-rule:nonzero;stroke:black;stroke-width:0.72px;"/>
    </g>
    <g transform="matrix(1.15485,-0.666412,-0.666412,-1.15485,474.759,1124.33)">
        <path d="M296.656,740.94L316.584,740.94" style="fill:none;fill-rule:nonzero;stroke:black;stroke-width:0.72px;"/>
    </g>
    <g transform="matrix(1.15468,-0.666702,-0.666702,-1.15468,491.863,1107.45)">
        <path d="M279.406,770.82L299.324,770.82" style="fill:none;fill-rule:nonzero;stroke:black;stroke-width:0.72px;"/>
    </g>
    <g transform="matrix(1.15468,0.666702,0.666702,-1.15468,-516.03,726.948)">
        <path d="M279.406,740.94L299.324,740.94" style="fill:none;fill-rule:nonzero;stroke:black;stroke-width:0.72px;"/>
    </g>
    <g transform="matrix(0,-1.33333,-1.33333,0,1308.42,418.72)">
        <path d="M270.78,755.88L290.7,755.88" style="fill:none;fill-rule:nonzero;stroke:black;stroke-width:0.72px;"/>
    </g>
    <g transform="matrix(1.15465,-0.666746,-0.666746,-1.15465,496.758,1129.14)">
        <path d="M314.276,769.475L328.814,769.475" style="fill:none;fill-rule:nonzero;stroke:black;stroke-width:0.72px;"/>
    </g>
    <g transform="matrix(0,-1.33333,-1.33333,0,1516.03,626.333)">
        <path d="M426.49,755.88L446.41,755.88" style="fill:none;fill-rule:nonzero;stroke:black;stroke-width:0.72px;"/>
    </g>
    <g transform="matrix(1.15485,0.666412,0.666412,-1.15485,-511.064,629.555)">
        <path d="M417.856,770.82L437.784,770.82" style="fill:none;fill-rule:nonzero;stroke:black;stroke-width:0.72px;"/>
    </g>
    <g transform="matrix(1.15485,-0.666412,-0.666412,-1.15485,496.392,1205.1)">
        <path d="M417.856,740.94L437.784,740.94" style="fill:none;fill-rule:nonzero;stroke:black;stroke-width:0.72px;"/>
    </g>
    <g transform="matrix(1.15468,-0.666702,-0.666702,-1.15468,513.516,1188.26)">
        <path d="M400.606,770.82L420.524,770.82" style="fill:none;fill-rule:nonzero;stroke:black;stroke-width:0.72px;"/>
    </g>
    <g transform="matrix(1.15468,0.666702,0.666702,-1.15468,-494.378,646.144)">
        <path d="M400.606,740.94L420.524,740.94" style="fill:none;fill-rule:nonzero;stroke:black;stroke-width:0.72px;"/>
    </g>
    <g transform="matrix(0,-1.33333,-1.33333,0,1470.02,580.32)">
        <path d="M391.98,755.88L411.9,755.88" style="fill:none;fill-rule:nonzero;stroke:black;stroke-width:0.72px;"/>
    </g>
    <g transform="matrix(1.2234,-0.530169,-0.530169,-1.2234,383.319,1202.52)">
        <path d="M435.268,768.87L449.905,768.87L449.711,770.534L449.52,772.208L435.268,768.87Z" style="stroke:black;stroke-width:0.24px;"/>
    </g>
    <g transform="matrix(0.666766,-1.15464,-1.15464,-0.666766,1078.45,1076.98)">
        <path d="M446.5,739.17L449.78,739.17" style="fill:none;fill-rule:nonzero;stroke:black;stroke-width:0.72px;"/>
    </g>
    <g transform="matrix(0.668048,-1.1539,-1.1539,-0.668048,1077.33,1074.07)">
        <path d="M444.533,740.49L447.167,740.49" style="fill:none;fill-rule:nonzero;stroke:black;stroke-width:0.72px;"/>
    </g>
    <g transform="matrix(0.662239,-1.15725,-1.15725,-0.662239,1082.4,1067.73)">
        <path d="M442.568,741.815L444.562,741.815" style="fill:none;fill-rule:nonzero;stroke:black;stroke-width:0.72px;"/>
    </g>
    <g transform="matrix(0.665731,-1.15524,-1.15524,-0.665731,1079.35,1065.91)">
        <path d="M440.599,743.13L441.961,743.13" style="fill:none;fill-rule:nonzero;stroke:black;stroke-width:0.72px;"/>
    </g>
    <g transform="matrix(0.669514,-1.15305,-1.15305,-0.669514,1076.06,1064.24)">
        <path d="M438.632,744.45L439.348,744.45" style="fill:none;fill-rule:nonzero;stroke:black;stroke-width:0.72px;"/>
    </g>
    <g transform="matrix(0.596285,-1.19257,-1.19257,-0.596285,1137.52,1023.37)">
        <path d="M436.671,745.77L436.739,745.77" style="fill:none;fill-rule:nonzero;stroke:black;stroke-width:0.72px;"/>
    </g>
    <g transform="matrix(1.15469,-0.666693,-0.666693,-1.15469,502.72,1227.99)">
        <path d="M457.27,740.825L466.97,740.825" style="fill:none;fill-rule:nonzero;stroke:black;stroke-width:0.72px;"/>
    </g>
    <g transform="matrix(1.15469,0.666693,0.666693,-1.15469,-478.599,613.539)">
        <path d="M457.27,731.095L466.97,731.095" style="fill:none;fill-rule:nonzero;stroke:black;stroke-width:0.72px;"/>
    </g>
    <g transform="matrix(0,-1.33333,-1.33333,0,1088.83,425.693)">
        <path d="M191.05,670.92L210.97,670.92" style="fill:none;fill-rule:nonzero;stroke:black;stroke-width:0.72px;"/>
    </g>
    <g transform="matrix(1.15485,0.666412,0.666412,-1.15485,-496.468,801.619)">
        <path d="M182.416,685.86L202.344,685.86" style="fill:none;fill-rule:nonzero;stroke:black;stroke-width:0.72px;"/>
    </g>
    <g transform="matrix(1.15485,-0.666412,-0.666412,-1.15485,397.75,1063.36)">
        <path d="M182.416,655.98L202.344,655.98" style="fill:none;fill-rule:nonzero;stroke:black;stroke-width:0.72px;"/>
    </g>
    <g transform="matrix(1.15468,-0.666702,-0.666702,-1.15468,414.811,1046.47)">
        <path d="M165.166,685.86L185.084,685.86" style="fill:none;fill-rule:nonzero;stroke:black;stroke-width:0.72px;"/>
    </g>
    <g transform="matrix(1.15468,0.666702,0.666702,-1.15468,-479.797,818.291)">
        <path d="M165.166,655.98L185.084,655.98" style="fill:none;fill-rule:nonzero;stroke:black;stroke-width:0.72px;"/>
    </g>
    <g transform="matrix(0,-1.33333,-1.33333,0,1042.82,379.68)">
        <path d="M156.54,670.92L176.46,670.92" style="fill:none;fill-rule:nonzero;stroke:black;stroke-width:0.72px;"/>
    </g>
    <g transform="matrix(1.2234,-0.530169,-0.530169,-1.2234,312.392,1087.04)">
        <path d="M199.828,683.91L214.465,683.91L214.271,685.574L214.08,687.248L199.828,683.91Z" style="stroke:black;stroke-width:0.24px;"/>
    </g>
    <g transform="matrix(0.666766,-1.15464,-1.15464,-0.666766,823.418,861.758)">
        <path d="M211.06,654.21L214.34,654.21" style="fill:none;fill-rule:nonzero;stroke:black;stroke-width:0.72px;"/>
    </g>
    <g transform="matrix(0.668048,-1.1539,-1.1539,-0.668048,822.66,858.918)">
        <path d="M209.093,655.53L211.727,655.53" style="fill:none;fill-rule:nonzero;stroke:black;stroke-width:0.72px;"/>
    </g>
    <g transform="matrix(0.662239,-1.15725,-1.15725,-0.662239,826.074,852.28)">
        <path d="M207.128,656.855L209.122,656.855" style="fill:none;fill-rule:nonzero;stroke:black;stroke-width:0.72px;"/>
    </g>
    <g transform="matrix(0.665731,-1.15524,-1.15524,-0.665731,824.023,850.639)">
        <path d="M205.159,658.17L206.521,658.17" style="fill:none;fill-rule:nonzero;stroke:black;stroke-width:0.72px;"/>
    </g>
    <g transform="matrix(0.669514,-1.15305,-1.15305,-0.669514,821.807,849.162)">
        <path d="M203.192,659.49L203.908,659.49" style="fill:none;fill-rule:nonzero;stroke:black;stroke-width:0.72px;"/>
    </g>
    <g transform="matrix(0.596285,-1.19257,-1.19257,-0.596285,862.664,805.213)">
        <path d="M201.231,660.81L201.299,660.81" style="fill:none;fill-rule:nonzero;stroke:black;stroke-width:0.72px;"/>
    </g>
    <g transform="matrix(1.15416,-0.667602,-0.667602,-1.15416,405.95,1087.28)">
        <path d="M226.483,657.11L231.197,657.11" style="fill:none;fill-rule:nonzero;stroke:black;stroke-width:0.72px;"/>
    </g>
    <g transform="matrix(1.15469,0.666693,0.666693,-1.15469,-464.018,785.683)">
        <path d="M221.83,646.135L231.53,646.135" style="fill:none;fill-rule:nonzero;stroke:black;stroke-width:0.72px;"/>
    </g>
    <g transform="matrix(-0.666871,1.15458,1.15458,0.666871,-388.814,-478.849)">
        <path d="M209.251,642.36L217.289,642.36" style="fill:none;fill-rule:nonzero;stroke:black;stroke-width:0.72px;"/>
    </g>
    <g transform="matrix(-1.33333,0,0,1.33333,454.58,-637.76)">
        <path d="M192.72,633.75L203.52,633.75" style="fill:none;fill-rule:nonzero;stroke:black;stroke-width:0.72px;"/>
    </g>
    <g transform="matrix(-1.33333,0,0,1.33333,534.847,-591.76)">
        <path d="M218.26,616.5L238.18,616.5" style="fill:none;fill-rule:nonzero;stroke:black;stroke-width:0.72px;"/>
    </g>
    <g transform="matrix(0.666412,-1.15485,-1.15485,-0.666412,770.498,893.145)">
        <path d="M203.316,607.87L223.244,607.87" style="fill:none;fill-rule:nonzero;stroke:black;stroke-width:0.72px;"/>
    </g>
    <g transform="matrix(-0.666412,-1.15485,-1.15485,0.666412,1114.52,117.467)">
        <path d="M233.196,607.87L253.124,607.87" style="fill:none;fill-rule:nonzero;stroke:black;stroke-width:0.72px;"/>
    </g>
    <g transform="matrix(-0.666702,-1.15468,-1.15468,0.666702,1034.8,117.259)">
        <path d="M203.321,590.615L223.239,590.615" style="fill:none;fill-rule:nonzero;stroke:black;stroke-width:0.72px;"/>
    </g>
    <g transform="matrix(0.666702,-1.15468,-1.15468,-0.666702,770.329,939.29)">
        <path d="M233.201,590.615L253.119,590.615" style="fill:none;fill-rule:nonzero;stroke:black;stroke-width:0.72px;"/>
    </g>
    <g transform="matrix(-1.33333,0,0,1.33333,534.847,-499.733)">
        <path d="M218.26,581.99L238.18,581.99" style="fill:none;fill-rule:nonzero;stroke:black;stroke-width:0.72px;"/>
    </g>
    <g transform="matrix(0.66718,1.1544,1.1544,-0.66718,-649.318,389.603)">
        <path d="M207.81,622.53L221.74,622.53" style="fill:none;fill-rule:nonzero;stroke:black;stroke-width:0.72px;"/>
    </g>
    <g transform="matrix(1.33329,0.0111107,0.0111107,-1.33329,-80.774,1050.23)">
        <path d="M172.8,633.825L183.6,633.825" style="fill:none;fill-rule:nonzero;stroke:black;stroke-width:0.72px;"/>
    </g>
    <g transform="matrix(1.33329,0.0111107,0.0111107,-1.33329,-80.8113,1050.23)">
        <path d="M172.81,637.185L183.61,637.185" style="fill:none;fill-rule:nonzero;stroke:black;stroke-width:0.72px;"/>
    </g>
    <g transform="matrix(1.33329,0.0111107,0.0111107,-1.33329,-80.7367,1050.23)">
        <path d="M172.75,630.465L183.55,630.465" style="fill:none;fill-rule:nonzero;stroke:black;stroke-width:0.72px;"/>
    </g>
    <g transform="matrix(1.33333,0,0,1.33333,-73.74,-640.24)">
        <path d="M194.88,622.56L196.8,624.48L198.24,626.4L199.68,628.8L200.4,631.2L200.64,632.64L200.64,634.08L200.4,635.52L200.16,637.2L199.92,638.64L199.2,640.08L197.76,642.48L195.6,644.64L194.4,645.6L192.96,646.32L192.48,646.8" style="fill:none;fill-rule:nonzero;stroke:black;stroke-width:0.48px;"/>
    </g>
    <g transform="matrix(-1.22154,0.534425,0.534425,1.22154,93.3901,-651.52)">
        <path d="M192.754,627.229L201.137,627.229L193.922,623.313L194.98,625.731L192.754,627.229Z" style="stroke:black;stroke-width:0.48px;"/>
    </g>
    <g transform="matrix(0,-1.33333,-1.33333,0,1233.47,637.533)">
        <path d="M324.73,645.72L344.65,645.72" style="fill:none;fill-rule:nonzero;stroke:black;stroke-width:0.72px;"/>
    </g>
    <g transform="matrix(1.15485,0.666412,0.666412,-1.15485,-455.815,717.031)">
        <path d="M316.096,660.66L336.024,660.66" style="fill:none;fill-rule:nonzero;stroke:black;stroke-width:0.72px;"/>
    </g>
    <g transform="matrix(1.15485,-0.666412,-0.666412,-1.15485,404.817,1156.95)">
        <path d="M316.096,630.78L336.024,630.78" style="fill:none;fill-rule:nonzero;stroke:black;stroke-width:0.72px;"/>
    </g>
    <g transform="matrix(1.15468,-0.666702,-0.666702,-1.15468,421.893,1140.09)">
        <path d="M298.846,660.66L318.764,660.66" style="fill:none;fill-rule:nonzero;stroke:black;stroke-width:0.72px;"/>
    </g>
    <g transform="matrix(1.15468,0.666702,0.666702,-1.15468,-439.113,733.668)">
        <path d="M298.846,630.78L318.764,630.78" style="fill:none;fill-rule:nonzero;stroke:black;stroke-width:0.72px;"/>
    </g>
    <g transform="matrix(0,-1.33333,-1.33333,0,1187.46,591.52)">
        <path d="M290.22,645.72L310.14,645.72" style="fill:none;fill-rule:nonzero;stroke:black;stroke-width:0.72px;"/>
    </g>
    <g transform="matrix(1.2234,-0.530169,-0.530169,-1.2234,313.728,1160.68)">
        <path d="M333.508,658.71L348.145,658.71L347.951,660.374L347.76,662.048L333.508,658.71Z" style="stroke:black;stroke-width:0.24px;"/>
    </g>
    <g transform="matrix(0.666766,-1.15464,-1.15464,-0.666766,883.429,1032.54)">
        <path d="M344.5,629.15L347.78,629.15" style="fill:none;fill-rule:nonzero;stroke:black;stroke-width:0.72px;"/>
    </g>
    <g transform="matrix(0.666443,-1.15483,-1.15483,-0.666443,883.653,1028.88)">
        <path d="M342.545,630.465L345.165,630.465" style="fill:none;fill-rule:nonzero;stroke:black;stroke-width:0.72px;"/>
    </g>
    <g transform="matrix(0.670985,-1.1522,-1.1522,-0.670985,880.441,1027.32)">
        <path d="M340.581,631.79L342.549,631.79" style="fill:none;fill-rule:nonzero;stroke:black;stroke-width:0.72px;"/>
    </g>
    <g transform="matrix(0.668048,-1.1539,-1.1539,-0.668048,882.525,1022.54)">
        <path d="M338.621,633.11L339.939,633.11" style="fill:none;fill-rule:nonzero;stroke:black;stroke-width:0.72px;"/>
    </g>
    <g transform="matrix(0.668048,-1.1539,-1.1539,-0.668048,882.522,1019.03)">
        <path d="M336.666,634.425L337.324,634.425" style="fill:none;fill-rule:nonzero;stroke:black;stroke-width:0.72px;"/>
    </g>
    <g transform="matrix(1.33333,0,0,1.33333,-73.74,-643.093)">
        <path d="M334.7,635.75L334.71,635.75" style="fill:none;fill-rule:nonzero;stroke:black;stroke-width:0.72px;"/>
    </g>
    <g transform="matrix(0,1.33333,1.33333,0,-425.607,-238.133)">
        <path d="M347.14,615.84L356.74,615.84" style="fill:none;fill-rule:nonzero;stroke:black;stroke-width:0.72px;"/>
    </g>
    <g transform="matrix(0,1.33333,1.33333,0,-442.447,-300.973)">
        <path d="M359.23,645.72L379.15,645.72" style="fill:none;fill-rule:nonzero;stroke:black;stroke-width:0.72px;"/>
    </g>
    <g transform="matrix(-1.15468,-0.666702,-0.666702,1.15468,1286.81,-265.259)">
        <path d="M367.856,630.78L387.774,630.78" style="fill:none;fill-rule:nonzero;stroke:black;stroke-width:0.72px;"/>
    </g>
    <g transform="matrix(-1.15468,0.666702,0.666702,1.15468,425.805,-843.381)">
        <path d="M367.856,660.66L387.774,660.66" style="fill:none;fill-rule:nonzero;stroke:black;stroke-width:0.72px;"/>
    </g>
    <g transform="matrix(-1.15468,0.666702,0.666702,1.15468,488.645,-780.54)">
        <path d="M385.106,630.78L405.024,630.78" style="fill:none;fill-rule:nonzero;stroke:black;stroke-width:0.72px;"/>
    </g>
    <g transform="matrix(-1.15468,-0.666702,-0.666702,1.15468,1349.65,-328.1)">
        <path d="M385.106,660.66L405.024,660.66" style="fill:none;fill-rule:nonzero;stroke:black;stroke-width:0.72px;"/>
    </g>
    <g transform="matrix(0,1.33333,1.33333,0,-396.447,-346.973)">
        <path d="M393.73,645.72L413.65,645.72" style="fill:none;fill-rule:nonzero;stroke:black;stroke-width:0.72px;"/>
    </g>
    <g transform="matrix(1.15487,-0.666375,-0.666375,-1.15487,412.201,1181.2)">
        <path d="M355.412,632.07L370.178,632.07" style="fill:none;fill-rule:nonzero;stroke:black;stroke-width:0.72px;"/>
    </g>
    <g transform="matrix(1.15469,0.666693,0.666693,-1.15469,-410.055,704.62)">
        <path d="M355.51,601.015L365.21,601.015" style="fill:none;fill-rule:nonzero;stroke:black;stroke-width:0.72px;"/>
    </g>
    <g transform="matrix(1.15469,-0.666693,-0.666693,-1.15469,397.817,1183.38)">
        <path d="M355.51,610.745L365.21,610.745" style="fill:none;fill-rule:nonzero;stroke:black;stroke-width:0.72px;"/>
    </g>
    <g transform="matrix(0,-1.33333,-1.33333,0,818.113,538.973)">
        <path d="M132.01,526.92L151.93,526.92" style="fill:none;fill-rule:nonzero;stroke:black;stroke-width:0.72px;"/>
    </g>
    <g transform="matrix(1.15485,0.666412,0.666412,-1.15485,-411.043,866.666)">
        <path d="M123.376,541.86L143.304,541.86" style="fill:none;fill-rule:nonzero;stroke:black;stroke-width:0.72px;"/>
    </g>
    <g transform="matrix(1.15485,-0.666412,-0.666412,-1.15485,291.249,1049.72)">
        <path d="M123.376,511.98L143.304,511.98" style="fill:none;fill-rule:nonzero;stroke:black;stroke-width:0.72px;"/>
    </g>
    <g transform="matrix(1.15468,-0.666702,-0.666702,-1.15468,308.258,1032.83)">
        <path d="M106.126,541.86L126.044,541.86" style="fill:none;fill-rule:nonzero;stroke:black;stroke-width:0.72px;"/>
    </g>
    <g transform="matrix(1.15468,0.666702,0.666702,-1.15468,-394.339,883.379)">
        <path d="M106.126,511.98L126.044,511.98" style="fill:none;fill-rule:nonzero;stroke:black;stroke-width:0.72px;"/>
    </g>
    <g transform="matrix(0,-1.33333,-1.33333,0,772.1,492.96)">
        <path d="M97.5,526.92L117.42,526.92" style="fill:none;fill-rule:nonzero;stroke:black;stroke-width:0.72px;"/>
    </g>
    <g transform="matrix(1.2234,-0.530169,-0.530169,-1.2234,229.557,1071.57)">
        <path d="M140.788,539.91L155.425,539.91L155.231,541.574L155.04,543.248L140.788,539.91Z" style="stroke:black;stroke-width:0.24px;"/>
    </g>
    <g transform="matrix(0.666766,-1.15464,-1.15464,-0.666766,617.797,889.203)">
        <path d="M151.78,510.35L155.06,510.35" style="fill:none;fill-rule:nonzero;stroke:black;stroke-width:0.72px;"/>
    </g>
    <g transform="matrix(0.666443,-1.15483,-1.15483,-0.666443,617.936,885.551)">
        <path d="M149.825,511.665L152.445,511.665" style="fill:none;fill-rule:nonzero;stroke:black;stroke-width:0.72px;"/>
    </g>
    <g transform="matrix(0.670985,-1.1522,-1.1522,-0.670985,615.913,883.961)">
        <path d="M147.861,512.99L149.829,512.99" style="fill:none;fill-rule:nonzero;stroke:black;stroke-width:0.72px;"/>
    </g>
    <g transform="matrix(0.668048,-1.1539,-1.1539,-0.668048,617.227,879.193)">
        <path d="M145.901,514.31L147.219,514.31" style="fill:none;fill-rule:nonzero;stroke:black;stroke-width:0.72px;"/>
    </g>
    <g transform="matrix(0.668048,-1.1539,-1.1539,-0.668048,617.225,875.682)">
        <path d="M143.946,515.625L144.604,515.625" style="fill:none;fill-rule:nonzero;stroke:black;stroke-width:0.72px;"/>
    </g>
    <g transform="matrix(1.33333,0,0,1.33333,-73.74,-326.293)">
        <path d="M141.98,516.95L141.99,516.95" style="fill:none;fill-rule:nonzero;stroke:black;stroke-width:0.72px;"/>
    </g>
    <g transform="matrix(1.15449,-0.667037,-0.667037,-1.15449,299.028,1073.87)">
        <path d="M167.961,513.25L172.119,513.25" style="fill:none;fill-rule:nonzero;stroke:black;stroke-width:0.72px;"/>
    </g>
    <g transform="matrix(-1.15468,0.666702,0.666702,1.15468,52.081,-320.196)">
        <path d="M175.136,502.02L195.054,502.02" style="fill:none;fill-rule:nonzero;stroke:black;stroke-width:0.72px;"/>
    </g>
    <g transform="matrix(0,-1.33333,-1.33333,0,810.993,638.093)">
        <path d="M166.51,487.08L186.43,487.08" style="fill:none;fill-rule:nonzero;stroke:black;stroke-width:0.72px;"/>
    </g>
    <g transform="matrix(-1.15468,-0.666702,-0.666702,1.15468,764.395,-61.8886)">
        <path d="M192.386,502.02L212.304,502.02" style="fill:none;fill-rule:nonzero;stroke:black;stroke-width:0.72px;"/>
    </g>
    <g transform="matrix(-1.15468,-0.666702,-0.666702,1.15468,701.556,0.952619)">
        <path d="M175.136,472.14L195.054,472.14" style="fill:none;fill-rule:nonzero;stroke:black;stroke-width:0.72px;"/>
    </g>
    <g transform="matrix(0,-1.33333,-1.33333,0,856.993,684.093)">
        <path d="M201.01,487.08L220.93,487.08" style="fill:none;fill-rule:nonzero;stroke:black;stroke-width:0.72px;"/>
    </g>
    <g transform="matrix(-1.15468,0.666702,0.666702,1.15468,114.92,-257.354)">
        <path d="M192.386,472.14L212.304,472.14" style="fill:none;fill-rule:nonzero;stroke:black;stroke-width:0.72px;"/>
    </g>
    <g transform="matrix(1.15487,0.666375,0.666375,-1.15487,-377.062,849.544)">
        <path d="M162.692,500.73L177.458,500.73" style="fill:none;fill-rule:nonzero;stroke:black;stroke-width:0.72px;"/>
    </g>
    <g transform="matrix(-1.15477,0.666542,0.666542,1.15477,-33.9037,-296.978)">
        <path d="M145.769,501.955L155.191,501.955" style="fill:none;fill-rule:nonzero;stroke:black;stroke-width:0.72px;"/>
    </g>
    <g transform="matrix(1.33333,0,0,1.33333,-73.74,-630.32)">
        <path d="M254.16,630.96L288.24,630.96" style="fill:none;fill-rule:nonzero;stroke:black;stroke-width:0.72px;"/>
    </g>
    <g transform="matrix(1.2958,0.314133,0.314133,-1.2958,-261.276,939.256)">
        <path d="M279.979,631.893L288.129,631.893L280.884,628.161L281.831,630.366L279.979,631.893Z" style="stroke:black;stroke-width:0.72px;"/>
    </g>
    <g transform="matrix(1.33333,0,0,1.33333,-73.74,-965.04)">
        <path d="M112.32,756.48L146.4,756.48" style="fill:none;fill-rule:nonzero;stroke:black;stroke-width:0.72px;"/>
    </g>
    <g transform="matrix(1.2958,0.314133,0.314133,-1.2958,-306.029,979.102)">
        <path d="M138.139,757.413L146.289,757.413L139.044,753.681L139.991,755.886L138.139,757.413Z" style="stroke:black;stroke-width:0.72px;"/>
    </g>
    <g transform="matrix(1.33333,0,0,1.33333,-73.74,-966.96)">
        <path d="M237.12,757.2L271.2,757.2" style="fill:none;fill-rule:nonzero;stroke:black;stroke-width:0.72px;"/>
    </g>
    <g transform="matrix(1.2958,0.314133,0.314133,-1.2958,-301.571,939.871)">
        <path d="M262.939,758.133L271.089,758.133L263.844,754.401L264.791,756.606L262.939,758.133Z" style="stroke:black;stroke-width:0.72px;"/>
    </g>
    <g transform="matrix(1.33333,0,0,1.33333,-73.74,-963.12)">
        <path d="M352.56,755.76L386.64,755.76" style="fill:none;fill-rule:nonzero;stroke:black;stroke-width:0.72px;"/>
    </g>
    <g transform="matrix(1.2958,0.314133,0.314133,-1.2958,-296.786,903.661)">
        <path d="M378.379,756.693L386.529,756.693L379.284,752.961L380.231,755.166L378.379,756.693Z" style="stroke:black;stroke-width:0.72px;"/>
    </g>
    <g transform="matrix(1.33333,0,0,1.33333,-73.74,-963.76)">
        <path d="M487.44,756L521.52,756" style="fill:none;fill-rule:nonzero;stroke:black;stroke-width:0.72px;"/>
    </g>
    <g transform="matrix(1.2958,0.314133,0.314133,-1.2958,-291.799,861.282)">
        <path d="M513.259,756.933L521.409,756.933L514.164,753.201L515.111,755.406L513.259,756.933Z" style="stroke:black;stroke-width:0.72px;"/>
    </g>
    <g transform="matrix(0,1.33333,1.33333,0,-836.22,40.32)">
        <path d="M83.58,665.4L103.5,665.4" style="fill:none;fill-rule:nonzero;stroke:black;stroke-width:0.72px;"/>
    </g>
    <g transform="matrix(-1.15468,-0.666702,-0.666702,1.15468,591.114,-583.842)">
        <path d="M74.956,680.34L94.874,680.34" style="fill:none;fill-rule:nonzero;stroke:black;stroke-width:0.72px;"/>
    </g>
    <g transform="matrix(-1.15468,0.666702,0.666702,1.15468,-296.133,-622.726)">
        <path d="M74.956,650.46L94.874,650.46" style="fill:none;fill-rule:nonzero;stroke:black;stroke-width:0.72px;"/>
    </g>
    <g transform="matrix(-1.15468,0.666702,0.666702,1.15468,-358.973,-685.567)">
        <path d="M57.706,680.34L77.624,680.34" style="fill:none;fill-rule:nonzero;stroke:black;stroke-width:0.72px;"/>
    </g>
    <g transform="matrix(-1.15468,-0.666702,-0.666702,1.15468,528.275,-521.001)">
        <path d="M57.706,650.46L77.624,650.46" style="fill:none;fill-rule:nonzero;stroke:black;stroke-width:0.72px;"/>
    </g>
    <g transform="matrix(0,1.33333,1.33333,0,-882.22,86.32)">
        <path d="M49.08,665.4L69,665.4" style="fill:none;fill-rule:nonzero;stroke:black;stroke-width:0.72px;"/>
    </g>
    <g transform="matrix(1.1547,-0.666669,-0.666669,-1.1547,396.744,997.491)">
        <path d="M92.57,678.98L107.05,678.98" style="fill:none;fill-rule:nonzero;stroke:black;stroke-width:0.72px;"/>
    </g>
    <g transform="matrix(1.15477,0.666542,0.666542,-1.15477,-505.973,851.238)">
        <path d="M114.569,680.425L123.991,680.425" style="fill:none;fill-rule:nonzero;stroke:black;stroke-width:0.72px;"/>
    </g>
    <g transform="matrix(1.15477,0.666542,0.666542,-1.15477,-496.235,841.502)">
        <path d="M131.849,670.445L141.271,670.445" style="fill:none;fill-rule:nonzero;stroke:black;stroke-width:0.72px;"/>
    </g>
    <g transform="matrix(1.15486,0.666395,0.666395,-1.15486,-497.959,840.112)">
        <path d="M132.053,673.53L143.817,673.53" style="fill:none;fill-rule:nonzero;stroke:black;stroke-width:0.72px;"/>
    </g>
    <g transform="matrix(1.15464,0.666778,0.666778,-1.15464,-494.495,842.779)">
        <path d="M129.306,667.29L141.304,667.29" style="fill:none;fill-rule:nonzero;stroke:black;stroke-width:0.72px;"/>
    </g>
    <g transform="matrix(1.33333,0,0,1.33333,-73.74,-632.88)">
        <path d="M60,631.92L146.88,631.92" style="fill:none;fill-rule:nonzero;stroke:black;stroke-width:0.72px;"/>
    </g>
    <g transform="matrix(1.2958,0.314133,0.314133,-1.2958,-266.883,983.626)">
        <path d="M138.619,632.853L146.769,632.853L139.524,629.121L140.471,631.326L138.619,632.853Z" style="stroke:black;stroke-width:0.72px;"/>
    </g>
    <g transform="matrix(1.33333,0,0,1.33333,-73.74,-629.04)">
        <path d="M414.72,630.48L448.8,630.48" style="fill:none;fill-rule:nonzero;stroke:black;stroke-width:0.72px;"/>
    </g>
    <g transform="matrix(1.2958,0.314133,0.314133,-1.2958,-255.099,888.837)">
        <path d="M440.539,631.413L448.689,631.413L441.444,627.681L442.391,629.886L440.539,631.413Z" style="stroke:black;stroke-width:0.72px;"/>
    </g>
    <g transform="matrix(1.33333,0,0,1.33333,-73.74,-298.8)">
        <path d="M57.84,506.64L91.92,506.64" style="fill:none;fill-rule:nonzero;stroke:black;stroke-width:0.72px;"/>
    </g>
    <g transform="matrix(1.2958,0.314133,0.314133,-1.2958,-229.591,1005.59)">
        <path d="M83.659,507.573L91.809,507.573L84.564,503.841L85.511,506.046L83.659,507.573Z" style="stroke:black;stroke-width:0.72px;"/>
    </g>
</svg>
