<?xml version="1.0" encoding="UTF-8" standalone="no"?>
<!DOCTYPE svg PUBLIC "-//W3C//DTD SVG 1.1//EN" "http://www.w3.org/Graphics/SVG/1.1/DTD/svg11.dtd">
<svg width="100%" height="100%" viewBox="0 0 710 295" version="1.1" xmlns="http://www.w3.org/2000/svg" xmlns:xlink="http://www.w3.org/1999/xlink" xml:space="preserve" xmlns:serif="http://www.serif.com/" style="fill-rule:evenodd;clip-rule:evenodd;stroke-linecap:round;stroke-linejoin:round;stroke-miterlimit:10;">
    <g transform="matrix(1.33333,0,0,1.33333,-61.804,-59.5754)">
        <text x="90.48px" y="77.04px" style="font-family:'ArialMT', 'Arial', sans-serif;font-size:10px;">N</text>
    </g>
    <g transform="matrix(1.33333,0,0,1.33333,-61.804,-59.5754)">
        <text x="73.2px" y="107.04px" style="font-family:'ArialMT', 'Arial', sans-serif;font-size:10px;">C</text>
    </g>
    <g transform="matrix(1.33333,0,0,1.33333,-61.804,-59.5754)">
        <text x="61.68px" y="107.04px" style="font-family:'ArialMT', 'Arial', sans-serif;font-size:10px;">H</text>
        <text x="68.88px" y="109.68px" style="font-family:'ArialMT', 'Arial', sans-serif;font-size:8px;">3</text>
    </g>
    <g transform="matrix(1.33333,0,0,1.33333,-61.804,-59.5754)">
        <text x="50.4px" y="77.04px" style="font-family:'ArialMT', 'Arial', sans-serif;font-size:10px;">Ph</text>
    </g>
    <g transform="matrix(1.33333,0,0,1.33333,-61.804,-59.5754)">
        <text x="107.76px" y="107.04px" style="font-family:'ArialMT', 'Arial', sans-serif;font-size:10px;">CH</text>
        <text x="122.16px" y="109.68px" style="font-family:'ArialMT', 'Arial', sans-serif;font-size:8px;">3</text>
    </g>
    <g transform="matrix(1.33333,0,0,1.33333,-61.804,-59.5754)">
        <text x="139.44px" y="62.88px" style="font-family:'ArialMT', 'Arial', sans-serif;font-size:10px;">CH</text>
        <text x="153.84px" y="65.52px" style="font-family:'ArialMT', 'Arial', sans-serif;font-size:8px;">3</text>
    </g>
    <g transform="matrix(1.33333,0,0,1.33333,-61.804,-59.5754)">
        <text x="125.28px" y="93.36px" style="font-family:'ArialMT', 'Arial', sans-serif;font-size:10px;">CH</text>
        <text x="139.68px" y="96px" style="font-family:'ArialMT', 'Arial', sans-serif;font-size:8px;">3</text>
    </g>
    <g transform="matrix(1.33333,0,0,1.33333,-61.804,-59.5754)">
        <text x="146.64px" y="77.28px" style="font-family:'ArialMT', 'Arial', sans-serif;font-size:10px;">CH</text>
        <text x="161.04px" y="79.92px" style="font-family:'ArialMT', 'Arial', sans-serif;font-size:8px;">3</text>
    </g>
    <g transform="matrix(1.33333,0,0,1.33333,-61.804,-59.5754)">
        <text x="264px" y="84.96px" style="font-family:'ArialMT', 'Arial', sans-serif;font-size:10px;">N</text>
    </g>
    <g transform="matrix(1.33333,0,0,1.33333,-61.804,-59.5754)">
        <text x="246.72px" y="114.96px" style="font-family:'ArialMT', 'Arial', sans-serif;font-size:10px;">C</text>
    </g>
    <g transform="matrix(1.33333,0,0,1.33333,-61.804,-59.5754)">
        <text x="235.2px" y="114.96px" style="font-family:'ArialMT', 'Arial', sans-serif;font-size:10px;">H</text>
        <text x="242.4px" y="117.6px" style="font-family:'ArialMT', 'Arial', sans-serif;font-size:8px;">3</text>
    </g>
    <g transform="matrix(1.33333,0,0,1.33333,-61.804,-59.5754)">
        <text x="223.92px" y="84.96px" style="font-family:'ArialMT', 'Arial', sans-serif;font-size:10px;">Ph</text>
    </g>
    <g transform="matrix(1.33333,0,0,1.33333,-61.804,-59.5754)">
        <text x="281.28px" y="114.96px" style="font-family:'ArialMT', 'Arial', sans-serif;font-size:10px;">CH</text>
        <text x="295.68px" y="117.6px" style="font-family:'ArialMT', 'Arial', sans-serif;font-size:8px;">3</text>
    </g>
    <g transform="matrix(1.33333,0,0,1.33333,-61.804,-59.5754)">
        <text x="312.96px" y="70.8px" style="font-family:'ArialMT', 'Arial', sans-serif;font-size:10px;">CH</text>
        <text x="327.36px" y="73.44px" style="font-family:'ArialMT', 'Arial', sans-serif;font-size:8px;">3</text>
    </g>
    <g transform="matrix(1.33333,0,0,1.33333,-61.804,-59.5754)">
        <text x="298.8px" y="101.28px" style="font-family:'ArialMT', 'Arial', sans-serif;font-size:10px;">CH</text>
        <text x="313.2px" y="103.92px" style="font-family:'ArialMT', 'Arial', sans-serif;font-size:8px;">3</text>
    </g>
    <g transform="matrix(1.33333,0,0,1.33333,-61.804,-59.5754)">
        <text x="320.16px" y="85.2px" style="font-family:'ArialMT', 'Arial', sans-serif;font-size:10px;">CH</text>
        <text x="334.56px" y="87.84px" style="font-family:'ArialMT', 'Arial', sans-serif;font-size:8px;">3</text>
    </g>
    <g transform="matrix(1.33333,0,0,1.33333,-61.804,-59.5754)">
        <text x="281.04px" y="55.2px" style="font-family:'ArialMT', 'Arial', sans-serif;font-size:10px;">O</text>
    </g>
    <g transform="matrix(1.33333,0,0,1.33333,-61.804,-59.5754)">
        <text x="393.6px" y="70.08px" style="font-family:'ArialMT', 'Arial', sans-serif;font-size:10px;">Ph</text>
    </g>
    <g transform="matrix(1.33333,0,0,1.33333,-61.804,-59.5754)">
        <text x="433.68px" y="70.08px" style="font-family:'ArialMT', 'Arial', sans-serif;font-size:10px;">N</text>
    </g>
    <g transform="matrix(1.33333,0,0,1.33333,-61.804,-59.5754)">
        <text x="449.76px" y="58.32px" style="font-family:'ArialMT', 'Arial', sans-serif;font-size:10px;">H</text>
    </g>
    <g transform="matrix(1.33333,0,0,1.33333,-61.804,-59.5754)">
        <text x="452.64px" y="99.12px" style="font-family:'ArialMT', 'Arial', sans-serif;font-size:10px;">CH</text>
        <text x="467.04px" y="101.76px" style="font-family:'ArialMT', 'Arial', sans-serif;font-size:8px;">3</text>
    </g>
    <g transform="matrix(1.33333,0,0,1.33333,-61.804,-59.5754)">
        <text x="418.08px" y="96px" style="font-family:'ArialMT', 'Arial', sans-serif;font-size:10px;">H</text>
    </g>
    <g transform="matrix(1.33333,0,0,1.33333,-61.804,-59.5754)">
        <text x="428.4px" y="110.88px" style="font-family:'ArialMT', 'Arial', sans-serif;font-size:10px;">C</text>
    </g>
    <g transform="matrix(1.33333,0,0,1.33333,-61.804,-59.5754)">
        <text x="416.88px" y="110.88px" style="font-family:'ArialMT', 'Arial', sans-serif;font-size:10px;">H</text>
        <text x="424.08px" y="113.52px" style="font-family:'ArialMT', 'Arial', sans-serif;font-size:8px;">3</text>
    </g>
    <g transform="matrix(1.33333,0,0,1.33333,-61.804,-59.5754)">
        <text x="473.04px" y="90.48px" style="font-family:'ArialMT', 'Arial', sans-serif;font-size:18px;">+</text>
    </g>
    <g transform="matrix(1.33333,0,0,1.33333,-61.804,-59.5754)">
        <text x="546.96px" y="68.4px" style="font-family:'ArialMT', 'Arial', sans-serif;font-size:10px;">CH</text>
        <text x="561.36px" y="71.04px" style="font-family:'ArialMT', 'Arial', sans-serif;font-size:8px;">3</text>
    </g>
    <g transform="matrix(1.33333,0,0,1.33333,-61.804,-59.5754)">
        <text x="545.04px" y="103.92px" style="font-family:'ArialMT', 'Arial', sans-serif;font-size:10px;">CH</text>
        <text x="559.44px" y="106.56px" style="font-family:'ArialMT', 'Arial', sans-serif;font-size:8px;">3</text>
    </g>
    <g transform="matrix(1.33333,0,0,1.33333,-61.804,-59.5754)">
        <text x="556.56px" y="81.36px" style="font-family:'ArialMT', 'Arial', sans-serif;font-size:10px;">CH</text>
        <text x="570.96px" y="84px" style="font-family:'ArialMT', 'Arial', sans-serif;font-size:8px;">3</text>
    </g>
    <g transform="matrix(1.33333,0,0,1.33333,-61.804,-59.5754)">
        <text x="497.04px" y="84.48px" style="font-family:'ArialMT', 'Arial', sans-serif;font-size:10px;">O</text>
        <text x="504.96px" y="77.52px" style="font-family:'ArialMT', 'Arial', sans-serif;font-size:8px;">+</text>
    </g>
    <g transform="matrix(1.33333,0,0,1.33333,-61.804,-59.5754)">
        <text x="140.88px" y="188.4px" style="font-family:'ArialMT', 'Arial', sans-serif;font-size:10px;">N</text>
    </g>
    <g transform="matrix(1.33333,0,0,1.33333,-61.804,-59.5754)">
        <text x="100.8px" y="188.4px" style="font-family:'ArialMT', 'Arial', sans-serif;font-size:10px;">Ph</text>
    </g>
    <g transform="matrix(1.33333,0,0,1.33333,-61.804,-59.5754)">
        <text x="158.16px" y="218.16px" style="font-family:'ArialMT', 'Arial', sans-serif;font-size:10px;">CH</text>
        <text x="172.56px" y="220.8px" style="font-family:'ArialMT', 'Arial', sans-serif;font-size:8px;">3</text>
    </g>
    <g transform="matrix(1.33333,0,0,1.33333,-61.804,-59.5754)">
        <text x="123.6px" y="218.16px" style="font-family:'ArialMT', 'Arial', sans-serif;font-size:10px;">C</text>
    </g>
    <g transform="matrix(1.33333,0,0,1.33333,-61.804,-59.5754)">
        <text x="112.08px" y="218.16px" style="font-family:'ArialMT', 'Arial', sans-serif;font-size:10px;">H</text>
        <text x="119.28px" y="220.8px" style="font-family:'ArialMT', 'Arial', sans-serif;font-size:8px;">3</text>
    </g>
    <g transform="matrix(1.33333,0,0,1.33333,-61.804,-59.5754)">
        <text x="177.36px" y="204.72px" style="font-family:'ArialMT', 'Arial', sans-serif;font-size:18px;">+</text>
        <text x="200.16px" y="200.64px" style="font-family:'ArialMT', 'Arial', sans-serif;font-size:10px;">H</text>
        <text x="207.374px" y="203.28px" style="font-family:'ArialMT', 'Arial', sans-serif;font-size:8px;">2</text>
    </g>
    <g transform="matrix(1.33333,0,0,1.33333,-61.804,-59.5754)">
        <text x="299.76px" y="261.12px" style="font-family:'ArialMT', 'Arial', sans-serif;font-size:18px;">+</text>
    </g>
    <g transform="matrix(1.33333,0,0,1.33333,-61.804,-59.5754)">
        <text x="370.8px" y="259.44px" style="font-family:'ArialMT', 'Arial', sans-serif;font-size:10px;">CH</text>
        <text x="385.2px" y="262.08px" style="font-family:'ArialMT', 'Arial', sans-serif;font-size:8px;">3</text>
    </g>
    <g transform="matrix(1.33333,0,0,1.33333,-61.804,-59.5754)">
        <text x="336.48px" y="259.44px" style="font-family:'ArialMT', 'Arial', sans-serif;font-size:10px;">C</text>
    </g>
    <g transform="matrix(1.33333,0,0,1.33333,-61.804,-59.5754)">
        <text x="324.96px" y="259.44px" style="font-family:'ArialMT', 'Arial', sans-serif;font-size:10px;">H</text>
        <text x="332.16px" y="262.08px" style="font-family:'ArialMT', 'Arial', sans-serif;font-size:8px;">3</text>
    </g>
    <g transform="matrix(1.33333,0,0,1.33333,-61.804,-59.5754)">
        <text x="353.28px" y="229.44px" style="font-family:'ArialMT', 'Arial', sans-serif;font-size:10px;">O</text>
    </g>
    <g transform="matrix(1.33333,0,0,1.33333,-61.804,-59.5754)">
        <text x="266.4px" y="257.52px" style="font-family:'ArialMT', 'Arial', sans-serif;font-size:10px;">NH</text>
        <text x="280.8px" y="260.16px" style="font-family:'ArialMT', 'Arial', sans-serif;font-size:8px;">2</text>
    </g>
    <g transform="matrix(1.33333,0,0,1.33333,-61.804,-59.5754)">
        <text x="226.32px" y="257.52px" style="font-family:'ArialMT', 'Arial', sans-serif;font-size:10px;">Ph</text>
    </g>
    <g transform="matrix(1.15451,0.666991,0.666991,-1.15451,-563.96,868.817)">
        <path d="M76.074,775.195L90.486,775.195" style="fill:none;fill-rule:nonzero;stroke:black;stroke-width:0.72px;"/>
    </g>
    <g transform="matrix(1.15451,-0.666992,-0.666992,-1.15451,450.934,988.309)">
        <path d="M80.359,745.185L95.291,745.185" style="fill:none;fill-rule:nonzero;stroke:black;stroke-width:0.72px;"/>
    </g>
    <g transform="matrix(1.15469,-0.666693,-0.666693,-1.15469,467.393,971.428)">
        <path d="M62.56,774.92L78.08,774.92" style="fill:none;fill-rule:nonzero;stroke:black;stroke-width:0.72px;"/>
    </g>
    <g transform="matrix(1.15462,-0.666813,-0.666813,-1.15462,473.808,994.541)">
        <path d="M97.642,775.075L112.538,775.075" style="fill:none;fill-rule:nonzero;stroke:black;stroke-width:0.72px;"/>
    </g>
    <g transform="matrix(1.15481,0.666483,0.666483,-1.15481,-540.59,862.915)">
        <path d="M93.323,745.31L107.767,745.31" style="fill:none;fill-rule:nonzero;stroke:black;stroke-width:0.72px;"/>
    </g>
    <g transform="matrix(0,-1.33333,-1.33333,0,1072.32,180.305)">
        <path d="M86.91,756.3L101.67,756.3" style="fill:none;fill-rule:nonzero;stroke:black;stroke-width:0.72px;"/>
    </g>
    <g transform="matrix(1.15468,0.666702,0.666702,-1.15468,-556.244,844.625)">
        <path d="M110.206,773.82L130.124,773.82" style="fill:none;fill-rule:nonzero;stroke:black;stroke-width:0.72px;"/>
    </g>
    <g transform="matrix(0.941837,-0.943781,-0.943781,-0.941837,720.712,886.208)">
        <path d="M126.776,773.695L140.494,773.695" style="fill:none;fill-rule:nonzero;stroke:black;stroke-width:0.72px;"/>
    </g>
    <g transform="matrix(0.00716836,1.33331,1.33331,-0.00716836,-908.633,-120.982)">
        <path d="M123.24,763.26L134.4,763.26" style="fill:none;fill-rule:nonzero;stroke:black;stroke-width:0.72px;"/>
    </g>
    <g transform="matrix(1.33331,0.00710469,0.00710469,-1.33331,-67.2634,1062)">
        <path d="M128.79,768.795L145.68,768.795" style="fill:none;fill-rule:nonzero;stroke:black;stroke-width:0.72px;"/>
    </g>
    <g transform="matrix(1.33333,0,0,1.33333,-61.804,-960.695)">
        <path d="M177.36,758.88L211.44,758.88" style="fill:none;fill-rule:nonzero;stroke:black;stroke-width:0.72px;"/>
    </g>
    <g transform="matrix(1.33333,0,0,1.33333,-61.804,-968.375)">
        <path d="M177.36,761.76L211.44,761.76" style="fill:none;fill-rule:nonzero;stroke:black;stroke-width:0.72px;"/>
    </g>
    <g transform="matrix(1.33333,0,0,1.33333,-61.804,-964.535)">
        <path d="M206.88,756.72L214.8,760.32L206.88,763.92" style="fill:none;fill-rule:nonzero;stroke:black;stroke-width:0.72px;"/>
    </g>
    <g transform="matrix(1.15451,0.666991,0.666991,-1.15451,-527.648,754.497)">
        <path d="M249.594,767.275L264.006,767.275" style="fill:none;fill-rule:nonzero;stroke:black;stroke-width:0.72px;"/>
    </g>
    <g transform="matrix(1.15451,-0.666992,-0.666992,-1.15451,476.68,1105.46)">
        <path d="M253.879,737.265L268.811,737.265" style="fill:none;fill-rule:nonzero;stroke:black;stroke-width:0.72px;"/>
    </g>
    <g transform="matrix(1.15469,-0.666693,-0.666693,-1.15469,493.111,1088.53)">
        <path d="M236.08,767L251.6,767" style="fill:none;fill-rule:nonzero;stroke:black;stroke-width:0.72px;"/>
    </g>
    <g transform="matrix(1.15462,-0.666813,-0.666813,-1.15462,499.537,1111.66)">
        <path d="M271.162,767.155L286.058,767.155" style="fill:none;fill-rule:nonzero;stroke:black;stroke-width:0.72px;"/>
    </g>
    <g transform="matrix(1.15481,0.666483,0.666483,-1.15481,-504.334,748.681)">
        <path d="M266.843,737.39L281.287,737.39" style="fill:none;fill-rule:nonzero;stroke:black;stroke-width:0.72px;"/>
    </g>
    <g transform="matrix(0,-1.33333,-1.33333,0,1293.12,422.225)">
        <path d="M260.43,748.38L275.19,748.38" style="fill:none;fill-rule:nonzero;stroke:black;stroke-width:0.72px;"/>
    </g>
    <g transform="matrix(1.15468,0.666702,0.666702,-1.15468,-519.963,730.354)">
        <path d="M283.726,765.9L303.644,765.9" style="fill:none;fill-rule:nonzero;stroke:black;stroke-width:0.72px;"/>
    </g>
    <g transform="matrix(0.941837,-0.943781,-0.943781,-0.941837,781.17,1053.07)">
        <path d="M300.296,765.775L314.014,765.775" style="fill:none;fill-rule:nonzero;stroke:black;stroke-width:0.72px;"/>
    </g>
    <g transform="matrix(0.00716836,1.33331,1.33331,-0.00716836,-667.957,-341.835)">
        <path d="M296.76,755.34L307.92,755.34" style="fill:none;fill-rule:nonzero;stroke:black;stroke-width:0.72px;"/>
    </g>
    <g transform="matrix(1.33331,0.00710469,0.00710469,-1.33331,-67.2039,1060.76)">
        <path d="M302.31,760.875L319.2,760.875" style="fill:none;fill-rule:nonzero;stroke:black;stroke-width:0.72px;"/>
    </g>
    <g transform="matrix(0,-1.33333,-1.33333,0,1358.12,407.705)">
        <path d="M279.42,778.2L294.06,778.2" style="fill:none;fill-rule:nonzero;stroke:black;stroke-width:0.72px;"/>
    </g>
    <g transform="matrix(0,-1.33333,-1.33333,0,1353.64,403.225)">
        <path d="M276.06,778.2L290.7,778.2" style="fill:none;fill-rule:nonzero;stroke:black;stroke-width:0.72px;"/>
    </g>
    <g transform="matrix(1.33333,0,0,1.33333,-61.804,-1017.66)">
        <path d="M289.68,770.88L291.36,772.08L292.8,773.52L294,775.2L294.96,777.12L295.2,779.28L295.44,780.48L295.2,782.16L294.72,783.84L293.28,786.72L292.08,788.16L290.88,789.12L290.16,789.6" style="fill:none;fill-rule:nonzero;stroke:black;stroke-width:0.48px;"/>
    </g>
    <g transform="matrix(-1.17647,0.627451,0.627451,1.17647,189.603,-1064.83)">
        <path d="M290.414,775.736L298.574,775.736L291.275,771.741L292.306,774.184L290.414,775.736Z" style="stroke:black;stroke-width:0.48px;"/>
    </g>
    <g transform="matrix(1.33333,0,0,1.33333,-61.804,-982.455)">
        <path d="M270.48,757.44L271.92,757.68L273.12,758.4L274.32,758.88L275.52,759.84L277.44,761.76L278.88,764.16L279.36,765.36L279.84,768.24L279.84,770.16L279.36,772.56L278.88,773.76L278.4,774.72L276.96,776.64" style="fill:none;fill-rule:nonzero;stroke:black;stroke-width:0.48px;"/>
    </g>
    <g transform="matrix(-0.923376,0.96185,0.96185,0.923376,-162.639,-924.438)">
        <path d="M276.374,762.065L284.691,762.065L277.316,758.311L278.382,760.666L276.374,762.065Z" style="stroke:black;stroke-width:0.48px;"/>
    </g>
    <g transform="matrix(1.33333,0,0,1.33333,-61.804,-958.135)">
        <path d="M346.8,757.92L380.88,757.92" style="fill:none;fill-rule:nonzero;stroke:black;stroke-width:0.72px;"/>
    </g>
    <g transform="matrix(1.33333,0,0,1.33333,-61.804,-965.815)">
        <path d="M346.8,760.8L380.88,760.8" style="fill:none;fill-rule:nonzero;stroke:black;stroke-width:0.72px;"/>
    </g>
    <g transform="matrix(1.33333,0,0,1.33333,-61.804,-961.975)">
        <path d="M376.32,755.76L384.24,759.36L376.32,762.96" style="fill:none;fill-rule:nonzero;stroke:black;stroke-width:0.72px;"/>
    </g>
    <g transform="matrix(1.33333,0,0,1.33333,-61.804,-922.935)">
        <path d="M451.2,745.68L450.96,744.96L451.2,744.24L451.68,743.76" style="fill:none;fill-rule:nonzero;stroke:black;stroke-width:0.48px;"/>
    </g>
    <g transform="matrix(-1.15463,0.666793,0.666793,1.15463,445.677,-1157.89)">
        <path d="M405.761,781.825L421.259,781.825" style="fill:none;fill-rule:nonzero;stroke:black;stroke-width:0.72px;"/>
    </g>
    <g transform="matrix(-1.15498,-0.66619,-0.66619,1.15498,1520.41,-598.999)">
        <path d="M419.255,782.095L433.685,782.095" style="fill:none;fill-rule:nonzero;stroke:black;stroke-width:0.72px;"/>
    </g>
    <g transform="matrix(-1.07624,0.787076,0.787076,1.07624,396.154,-1170.51)">
        <path d="M441.009,781.465L449.631,781.465" style="fill:none;fill-rule:nonzero;stroke:black;stroke-width:0.72px;"/>
    </g>
    <g transform="matrix(-1.18856,-0.604231,-0.604231,1.18856,1515.41,-565.818)">
        <path d="M437.74,752.51L452.48,752.51" style="fill:none;fill-rule:nonzero;stroke:black;stroke-width:0.72px;"/>
    </g>
    <g transform="matrix(1.25315,-0.455412,-0.455412,-1.25315,316.073,1199.47)">
        <path d="M425.846,753.615L438.934,753.615" style="fill:none;fill-rule:nonzero;stroke:black;stroke-width:0.72px;"/>
    </g>
    <g transform="matrix(0.0711179,1.33144,1.33144,-0.0711179,-524.982,-483.757)">
        <path d="M430.739,763.245L445.551,763.245" style="fill:none;fill-rule:nonzero;stroke:black;stroke-width:0.72px;"/>
    </g>
    <g transform="matrix(-0.388571,1.27546,1.27546,0.388571,-264.843,-781.299)">
        <path d="M427.949,748.005L444.351,748.005" style="fill:none;fill-rule:nonzero;stroke:black;stroke-width:0.72px;"/>
    </g>
    <g transform="matrix(1.33333,0,0,1.33333,-61.804,-1002.62)">
        <path d="M442.56,762.24L444.48,763.44L446.16,765.12L447.36,766.8L448.56,768.96L449.28,771.12L449.76,773.28L449.76,774.72L449.28,778.08L448.8,779.52L448.08,781.2L447.36,782.64L446.4,783.84L445.2,785.04L444,786L442.56,786.96" style="fill:none;fill-rule:nonzero;stroke:black;stroke-width:0.48px;"/>
    </g>
    <g transform="matrix(-1.20021,0.580748,0.580748,1.20021,624.316,-1135.57)">
        <path d="M442.775,766.776L451.04,766.776L443.681,763.138L444.726,765.299L442.775,766.776Z" style="stroke:black;stroke-width:0.48px;"/>
    </g>
    <g transform="matrix(1.33333,0,0,1.33333,-61.804,-941.175)">
        <path d="M425.04,745.2L426.24,745.44L427.44,745.92L428.64,746.64L429.6,747.36L431.04,749.28L431.52,750.48L431.76,751.68L432,752.4L432,753.12L431.76,754.32L431.52,755.76L431.04,756.96L430.32,757.92" style="fill:none;fill-rule:nonzero;stroke:black;stroke-width:0.48px;"/>
    </g>
    <g transform="matrix(-1.30594,-0.268871,-0.268871,1.30594,1273.83,-815.03)">
        <path d="M425.317,753.517L433.649,753.517L426.237,757.382L427.475,754.941L425.317,753.517Z" style="stroke:black;stroke-width:0.48px;"/>
    </g>
    <g transform="matrix(0.662448,-1.15713,-1.15713,-0.662448,1189.98,1178.61)">
        <path d="M537.251,766.285L551.159,766.285" style="fill:none;fill-rule:nonzero;stroke:black;stroke-width:0.72px;"/>
    </g>
    <g transform="matrix(0.541087,1.21861,1.21861,-0.541087,-549.533,-196.633)">
        <path d="M536.482,753.685L550.848,753.685" style="fill:none;fill-rule:nonzero;stroke:black;stroke-width:0.72px;"/>
    </g>
    <g transform="matrix(-1.33159,-0.0682521,-0.0682521,1.33159,1404.66,-928.151)">
        <path d="M520.837,760.76L540.763,760.76" style="fill:none;fill-rule:nonzero;stroke:black;stroke-width:0.72px;"/>
    </g>
    <g transform="matrix(-1.30341,0.28087,0.28087,1.30341,1169.61,-1099.79)">
        <path d="M540.58,761.85L555.77,761.85" style="fill:none;fill-rule:nonzero;stroke:black;stroke-width:0.72px;"/>
    </g>
    <g transform="matrix(1.33331,0.00714435,0.00714435,-1.33331,-67.2332,1059.3)">
        <path d="M505.92,761.31L520.85,761.31" style="fill:none;fill-rule:nonzero;stroke:black;stroke-width:0.72px;"/>
    </g>
    <g transform="matrix(1.33332,0.00645987,0.00645987,-1.33332,-66.7355,1059.64)">
        <path d="M510.55,764.655L520.87,764.655" style="fill:none;fill-rule:nonzero;stroke:black;stroke-width:0.72px;"/>
    </g>
    <g transform="matrix(1.33331,0.00716836,0.00716836,-1.33331,-67.2273,1059.29)">
        <path d="M505.96,757.95L520.84,757.95" style="fill:none;fill-rule:nonzero;stroke:black;stroke-width:0.72px;"/>
    </g>
    <g transform="matrix(1.15481,0.666483,0.666483,-1.15481,-480.453,855.366)">
        <path d="M126.443,663.95L140.887,663.95" style="fill:none;fill-rule:nonzero;stroke:black;stroke-width:0.72px;"/>
    </g>
    <g transform="matrix(1.15479,-0.66652,-0.66652,-1.15479,402.111,1024.94)">
        <path d="M112.963,663.69L128.447,663.69" style="fill:none;fill-rule:nonzero;stroke:black;stroke-width:0.72px;"/>
    </g>
    <g transform="matrix(1.1547,0.666669,0.666669,-1.1547,-457.551,849.1)">
        <path d="M143.69,634.06L158.17,634.06" style="fill:none;fill-rule:nonzero;stroke:black;stroke-width:0.72px;"/>
    </g>
    <g transform="matrix(0,-1.33333,-1.33333,0,991.076,395.865)">
        <path d="M137.34,645L151.98,645" style="fill:none;fill-rule:nonzero;stroke:black;stroke-width:0.72px;"/>
    </g>
    <g transform="matrix(0,-1.33333,-1.33333,0,987.703,390.278)">
        <path d="M134.81,645.83L147.79,645.83" style="fill:none;fill-rule:nonzero;stroke:black;stroke-width:0.72px;"/>
    </g>
    <g transform="matrix(-1.15462,0.666813,0.666813,1.15462,-140.674,-606.424)">
        <path d="M130.762,633.955L145.658,633.955" style="fill:none;fill-rule:nonzero;stroke:black;stroke-width:0.72px;"/>
    </g>
    <g transform="matrix(1.14247,0.687418,0.687418,-1.14247,-437.141,817.678)">
        <path d="M174.034,598.92L207.086,598.92" style="fill:none;fill-rule:nonzero;stroke:black;stroke-width:0.72px;"/>
    </g>
    <g transform="matrix(1.14247,0.687418,0.687418,-1.14247,-438.516,816.23)">
        <path d="M175.474,601.32L208.526,601.32" style="fill:none;fill-rule:nonzero;stroke:black;stroke-width:0.72px;"/>
    </g>
    <g transform="matrix(1.33333,0,0,1.33333,-61.804,-519.415)">
        <path d="M203.28,589.92L208.32,596.88L199.68,595.92" style="fill:none;fill-rule:nonzero;stroke:black;stroke-width:0.72px;"/>
    </g>
    <g transform="matrix(1.15481,0.666483,0.666483,-1.15481,-392.059,714.811)">
        <path d="M356.363,592.91L370.807,592.91" style="fill:none;fill-rule:nonzero;stroke:black;stroke-width:0.72px;"/>
    </g>
    <g transform="matrix(1.15457,-0.6669,-0.6669,-1.15457,396.316,1191.07)">
        <path d="M343.658,592.855L358.312,592.855" style="fill:none;fill-rule:nonzero;stroke:black;stroke-width:0.72px;"/>
    </g>
    <g transform="matrix(0,-1.33333,-1.33333,0,1222.08,736.465)">
        <path d="M351.63,603.9L366.39,603.9" style="fill:none;fill-rule:nonzero;stroke:black;stroke-width:0.72px;"/>
    </g>
    <g transform="matrix(0,-1.33333,-1.33333,0,1217.6,731.985)">
        <path d="M348.27,603.9L363.03,603.9" style="fill:none;fill-rule:nonzero;stroke:black;stroke-width:0.72px;"/>
    </g>
    <g transform="matrix(1.15623,0.664003,0.664003,-1.15623,-410.843,785.552)">
        <path d="M251.961,594.785L266.399,594.785" style="fill:none;fill-rule:nonzero;stroke:black;stroke-width:0.72px;"/>
    </g>
    <g transform="matrix(1.15308,-0.669473,-0.669473,-1.15308,380.574,1120.66)">
        <path d="M238.473,594.49L253.967,594.49" style="fill:none;fill-rule:nonzero;stroke:black;stroke-width:0.72px;"/>
    </g>
    <g transform="matrix(1.33333,0,0,1.33333,-61.804,-648.375)">
        <path d="M50.16,641.76L84.24,641.76" style="fill:none;fill-rule:nonzero;stroke:black;stroke-width:0.72px;"/>
    </g>
    <g transform="matrix(1.33333,0,0,1.33333,-61.804,-656.055)">
        <path d="M50.16,644.64L84.24,644.64" style="fill:none;fill-rule:nonzero;stroke:black;stroke-width:0.72px;"/>
    </g>
    <g transform="matrix(1.33333,0,0,1.33333,-61.804,-652.215)">
        <path d="M79.68,639.6L87.6,643.2L79.68,646.8" style="fill:none;fill-rule:nonzero;stroke:black;stroke-width:0.72px;"/>
    </g>
</svg>
