<?xml version="1.0" encoding="UTF-8" standalone="no"?>
<!DOCTYPE svg PUBLIC "-//W3C//DTD SVG 1.1//EN" "http://www.w3.org/Graphics/SVG/1.1/DTD/svg11.dtd">
<svg width="100%" height="100%" viewBox="0 0 685 945" version="1.1" xmlns="http://www.w3.org/2000/svg" xmlns:xlink="http://www.w3.org/1999/xlink" xml:space="preserve" xmlns:serif="http://www.serif.com/" style="fill-rule:evenodd;clip-rule:evenodd;stroke-linecap:round;stroke-linejoin:round;stroke-miterlimit:10;">
    <g transform="matrix(1.33333,0,0,1.33333,-80.54,-62.2309)">
        <text x="109.2px" y="132px" style="font-family:'ArialMT', 'Arial', sans-serif;font-size:10px;">NH</text>
    </g>
    <g transform="matrix(1.33333,0,0,1.33333,-80.54,-62.2309)">
        <text x="105.36px" y="57.6px" style="font-family:'ArialMT', 'Arial', sans-serif;font-size:10px;">O<tspan x="113.28px " y="57.6px ">H</tspan></text>
    </g>
    <g transform="matrix(1.33333,0,0,1.33333,-80.54,-62.2309)">
        <text x="212.16px" y="123.12px" style="font-family:'ArialMT', 'Arial', sans-serif;font-size:10px;">CH</text>
        <text x="226.56px" y="125.76px" style="font-family:'ArialMT', 'Arial', sans-serif;font-size:8px;">3</text>
    </g>
    <g transform="matrix(1.33333,0,0,1.33333,-80.54,-62.2309)">
        <text x="372.24px" y="110.64px" style="font-family:'ArialMT', 'Arial', sans-serif;font-size:10px;">N</text>
    </g>
    <g transform="matrix(1.33333,0,0,1.33333,-80.54,-62.2309)">
        <text x="441.84px" y="129.6px" style="font-family:'ArialMT', 'Arial', sans-serif;font-size:10px;">CH</text>
        <text x="456.24px" y="132.24px" style="font-family:'ArialMT', 'Arial', sans-serif;font-size:8px;">3</text>
    </g>
    <g transform="matrix(1.33333,0,0,1.33333,-80.54,-62.2309)">
        <text x="423.84px" y="100.8px" style="font-family:'ArialMT', 'Arial', sans-serif;font-size:10px;">O<tspan x="431.76px " y="100.8px ">H</tspan></text>
    </g>
    <g transform="matrix(1.33333,0,0,1.33333,-80.54,-62.2309)">
        <text x="286.08px" y="140.64px" style="font-family:'ArialMT', 'Arial', sans-serif;font-size:10px;">C</text>
    </g>
    <g transform="matrix(1.33333,0,0,1.33333,-80.54,-62.2309)">
        <text x="274.56px" y="140.64px" style="font-family:'ArialMT', 'Arial', sans-serif;font-size:10px;">H</text>
        <text x="281.76px" y="143.28px" style="font-family:'ArialMT', 'Arial', sans-serif;font-size:8px;">3</text>
    </g>
    <g transform="matrix(1.33333,0,0,1.33333,-80.54,-62.2309)">
        <text x="372.24px" y="130.56px" style="font-family:'ArialMT', 'Arial', sans-serif;font-size:10px;">H</text>
    </g>
    <g transform="matrix(1.33333,0,0,1.33333,-80.54,-62.2309)">
        <text x="145.68px" y="235.2px" style="font-family:'ArialMT', 'Arial', sans-serif;font-size:10px;">N</text>
    </g>
    <g transform="matrix(1.33333,0,0,1.33333,-80.54,-62.2309)">
        <text x="214.8px" y="255.12px" style="font-family:'ArialMT', 'Arial', sans-serif;font-size:10px;">CH</text>
        <text x="229.2px" y="257.76px" style="font-family:'ArialMT', 'Arial', sans-serif;font-size:8px;">3</text>
    </g>
    <g transform="matrix(1.33333,0,0,1.33333,-80.54,-62.2309)">
        <text x="197.28px" y="225.36px" style="font-family:'ArialMT', 'Arial', sans-serif;font-size:10px;">O</text>
        <text x="205.201px" y="225.36px" style="font-family:'ArialMT', 'Arial', sans-serif;font-size:10px;">H</text>
        <text x="227.28px" y="223.44px" style="font-family:'ArialMT', 'Arial', sans-serif;font-size:18px;"><tspan x="227.28px " y="223.44px ">+</tspan></text>
        <text x="253.92px" y="215.28px" style="font-family:'ArialMT', 'Arial', sans-serif;font-size:10px;">H</text>
        <text x="261.135px" y="217.92px" style="font-family:'ArialMT', 'Arial', sans-serif;font-size:8px;">3</text>
        <text x="265.456px" y="215.28px" style="font-family:'ArialMT', 'Arial', sans-serif;font-size:10px;">C</text>
    </g>
    <g transform="matrix(1.33333,0,0,1.33333,-80.54,-62.2309)">
        <text x="335.52px" y="235.2px" style="font-family:'ArialMT', 'Arial', sans-serif;font-size:10px;">Li</text>
    </g>
    <g transform="matrix(1.33333,0,0,1.33333,-80.54,-62.2309)">
        <text x="141.6px" y="371.04px" style="font-family:'ArialMT', 'Arial', sans-serif;font-size:10px;">N</text>
    </g>
    <g transform="matrix(1.33333,0,0,1.33333,-80.54,-62.2309)">
        <text x="210.72px" y="390.96px" style="font-family:'ArialMT', 'Arial', sans-serif;font-size:10px;">CH</text>
        <text x="225.12px" y="393.6px" style="font-family:'ArialMT', 'Arial', sans-serif;font-size:8px;">3</text>
    </g>
    <g transform="matrix(1.33333,0,0,1.33333,-80.54,-62.2309)">
        <text x="193.2px" y="361.2px" style="font-family:'ArialMT', 'Arial', sans-serif;font-size:10px;">O<tspan x="201.12px " y="361.2px ">H</tspan></text>
    </g>
    <g transform="matrix(1.33333,0,0,1.33333,-80.54,-62.2309)">
        <text x="141.84px" y="390.96px" style="font-family:'ArialMT', 'Arial', sans-serif;font-size:10px;">Br</text>
    </g>
    <g transform="matrix(1.33333,0,0,1.33333,-80.54,-62.2309)">
        <text x="319.68px" y="367.68px" style="font-family:'ArialMT', 'Arial', sans-serif;font-size:10px;">N</text>
    </g>
    <g transform="matrix(1.33333,0,0,1.33333,-80.54,-62.2309)">
        <text x="371.28px" y="357.84px" style="font-family:'ArialMT', 'Arial', sans-serif;font-size:10px;">O<tspan x="379.2px " y="357.84px ">H</tspan></text>
    </g>
    <g transform="matrix(1.33333,0,0,1.33333,-80.54,-62.2309)">
        <text x="319.2px" y="387.6px" style="font-family:'ArialMT', 'Arial', sans-serif;font-size:10px;">H</text>
    </g>
    <g transform="matrix(1.33333,0,0,1.33333,-80.54,-62.2309)">
        <text x="403.68px" y="375.84px" style="font-family:'ArialMT', 'Arial', sans-serif;font-size:10px;">CH</text>
        <text x="418.08px" y="378.48px" style="font-family:'ArialMT', 'Arial', sans-serif;font-size:8px;">3</text>
    </g>
    <g transform="matrix(1.33333,0,0,1.33333,-80.54,-62.2309)">
        <text x="150.96px" y="492px" style="font-family:'ArialMT', 'Arial', sans-serif;font-size:10px;">N</text>
    </g>
    <g transform="matrix(1.33333,0,0,1.33333,-80.54,-62.2309)">
        <text x="220.08px" y="511.92px" style="font-family:'ArialMT', 'Arial', sans-serif;font-size:10px;">CH</text>
        <text x="234.48px" y="514.56px" style="font-family:'ArialMT', 'Arial', sans-serif;font-size:8px;">3</text>
    </g>
    <g transform="matrix(1.33333,0,0,1.33333,-80.54,-62.2309)">
        <text x="202.56px" y="482.16px" style="font-family:'ArialMT', 'Arial', sans-serif;font-size:10px;">O<tspan x="210.48px " y="482.16px ">H</tspan></text>
    </g>
    <g transform="matrix(1.33333,0,0,1.33333,-80.54,-62.2309)">
        <text x="150.72px" y="511.92px" style="font-family:'ArialMT', 'Arial', sans-serif;font-size:10px;">H</text>
    </g>
    <g transform="matrix(1.33333,0,0,1.33333,-80.54,-62.2309)">
        <text x="133.92px" y="521.76px" style="font-family:'ArialMT', 'Arial', sans-serif;font-size:10px;">O</text>
    </g>
    <g transform="matrix(1.33333,0,0,1.33333,-80.54,-62.2309)">
        <text x="368.64px" y="484.08px" style="font-family:'ArialMT', 'Arial', sans-serif;font-size:10px;">O<tspan x="376.56px " y="484.08px ">H</tspan></text>
    </g>
    <g transform="matrix(1.33333,0,0,1.33333,-80.54,-62.2309)">
        <text x="386.16px" y="513.84px" style="font-family:'ArialMT', 'Arial', sans-serif;font-size:10px;">CH</text>
        <text x="400.56px" y="516.48px" style="font-family:'ArialMT', 'Arial', sans-serif;font-size:8px;">3</text>
    </g>
    <g transform="matrix(1.33333,0,0,1.33333,-80.54,-62.2309)">
        <text x="322.8px" y="509.28px" style="font-family:'ArialMT', 'Arial', sans-serif;font-size:10px;">N</text>
    </g>
    <g transform="matrix(1.33333,0,0,1.33333,-80.54,-62.2309)">
        <text x="314.4px" y="527.28px" style="font-family:'ArialMT', 'Arial', sans-serif;font-size:10px;">O</text>
    </g>
    <g transform="matrix(1.33333,0,0,1.33333,-80.54,-62.2309)">
        <text x="307.2px" y="527.28px" style="font-family:'ArialMT', 'Arial', sans-serif;font-size:10px;">H</text>
    </g>
    <g transform="matrix(1.33333,0,0,1.33333,-80.54,-62.2309)">
        <text x="527.76px" y="484.32px" style="font-family:'ArialMT', 'Arial', sans-serif;font-size:10px;">O<tspan x="535.68px " y="484.32px ">H</tspan></text>
    </g>
    <g transform="matrix(1.33333,0,0,1.33333,-80.54,-62.2309)">
        <text x="545.28px" y="514.08px" style="font-family:'ArialMT', 'Arial', sans-serif;font-size:10px;">CH</text>
        <text x="559.68px" y="516.72px" style="font-family:'ArialMT', 'Arial', sans-serif;font-size:8px;">3</text>
    </g>
    <g transform="matrix(1.33333,0,0,1.33333,-80.54,-62.2309)">
        <text x="481.92px" y="509.52px" style="font-family:'ArialMT', 'Arial', sans-serif;font-size:10px;">N</text>
    </g>
    <g transform="matrix(1.33333,0,0,1.33333,-80.54,-62.2309)">
        <text x="473.52px" y="527.52px" style="font-family:'ArialMT', 'Arial', sans-serif;font-size:10px;">O</text>
    </g>
    <g transform="matrix(1.33333,0,0,1.33333,-80.54,-62.2309)">
        <text x="476.4px" y="621.6px" style="font-family:'ArialMT', 'Arial', sans-serif;font-size:10px;">O</text>
    </g>
    <g transform="matrix(1.33333,0,0,1.33333,-80.54,-62.2309)">
        <text x="493.92px" y="651.36px" style="font-family:'ArialMT', 'Arial', sans-serif;font-size:10px;">CH</text>
        <text x="508.32px" y="654px" style="font-family:'ArialMT', 'Arial', sans-serif;font-size:8px;">3</text>
    </g>
    <g transform="matrix(1.33333,0,0,1.33333,-80.54,-62.2309)">
        <text x="493.92px" y="611.52px" style="font-family:'ArialMT', 'Arial', sans-serif;font-size:10px;">N</text>
    </g>
    <g transform="matrix(1.33333,0,0,1.33333,-80.54,-62.2309)">
        <text x="510.96px" y="621.6px" style="font-family:'ArialMT', 'Arial', sans-serif;font-size:10px;">O</text>
    </g>
    <g transform="matrix(1.33333,0,0,1.33333,-80.54,-62.2309)">
        <text x="192.48px" y="719.28px" style="font-family:'ArialMT', 'Arial', sans-serif;font-size:10px;">O<tspan x="200.4px " y="719.28px ">H</tspan></text>
    </g>
    <g transform="matrix(1.33333,0,0,1.33333,-80.54,-62.2309)">
        <text x="210px" y="749.04px" style="font-family:'ArialMT', 'Arial', sans-serif;font-size:10px;">CH</text>
        <text x="224.4px" y="751.68px" style="font-family:'ArialMT', 'Arial', sans-serif;font-size:8px;">3</text>
    </g>
    <g transform="matrix(1.33333,0,0,1.33333,-80.54,-62.2309)">
        <text x="336.24px" y="718.08px" style="font-family:'ArialMT', 'Arial', sans-serif;font-size:10px;">B</text>
        <text x="342.96px" y="711.12px" style="font-family:'ArialMT', 'Arial', sans-serif;font-size:8px;">–</text>
    </g>
    <g transform="matrix(1.33333,0,0,1.33333,-80.54,-62.2309)">
        <text x="353.28px" y="747.84px" style="font-family:'ArialMT', 'Arial', sans-serif;font-size:10px;">CH</text>
        <text x="367.68px" y="750.48px" style="font-family:'ArialMT', 'Arial', sans-serif;font-size:8px;">3</text>
    </g>
    <g transform="matrix(1.33333,0,0,1.33333,-80.54,-62.2309)">
        <text x="353.28px" y="708px" style="font-family:'ArialMT', 'Arial', sans-serif;font-size:10px;">R</text>
    </g>
    <g transform="matrix(1.33333,0,0,1.33333,-80.54,-62.2309)">
        <text x="353.28px" y="727.92px" style="font-family:'ArialMT', 'Arial', sans-serif;font-size:10px;">R</text>
    </g>
    <g transform="matrix(1.33333,0,0,1.33333,-80.54,-62.2309)">
        <text x="335.76px" y="698.16px" style="font-family:'ArialMT', 'Arial', sans-serif;font-size:10px;">O</text>
    </g>
    <g transform="matrix(1.33333,0,0,1.33333,-80.54,-62.2309)">
        <text x="353.04px" y="688.08px" style="font-family:'ArialMT', 'Arial', sans-serif;font-size:10px;">O<tspan x="360.96px " y="688.08px ">H</tspan></text>
    </g>
    <g transform="matrix(1.33333,0,0,1.33333,-80.54,-62.2309)">
        <text x="497.76px" y="719.28px" style="font-family:'ArialMT', 'Arial', sans-serif;font-size:10px;">B</text>
    </g>
    <g transform="matrix(1.33333,0,0,1.33333,-80.54,-62.2309)">
        <text x="514.8px" y="749.04px" style="font-family:'ArialMT', 'Arial', sans-serif;font-size:10px;">CH</text>
        <text x="529.2px" y="751.68px" style="font-family:'ArialMT', 'Arial', sans-serif;font-size:8px;">3</text>
    </g>
    <g transform="matrix(1.33333,0,0,1.33333,-80.54,-62.2309)">
        <text x="514.8px" y="709.2px" style="font-family:'ArialMT', 'Arial', sans-serif;font-size:10px;">R</text>
    </g>
    <g transform="matrix(1.33333,0,0,1.33333,-80.54,-62.2309)">
        <text x="514.8px" y="729.12px" style="font-family:'ArialMT', 'Arial', sans-serif;font-size:10px;">R</text>
    </g>
    <g transform="matrix(1.33333,0,0,1.33333,-80.54,-62.2309)">
        <text x="259.68px" y="101.28px" style="font-family:'ArialMT', 'Arial', sans-serif;font-size:12px;">=</text>
    </g>
    <g transform="matrix(1.27502,-0.390006,-0.390006,-1.27502,203.813,1050.4)">
        <path d="M71.053,716.88L92.387,716.88" style="fill:none;fill-rule:nonzero;stroke:black;stroke-width:0.72px;"/>
    </g>
    <g transform="matrix(0.942809,-0.942809,-0.942809,-0.942809,633.494,900.959)">
        <path d="M106.679,706.2L140.281,706.2" style="fill:none;fill-rule:nonzero;stroke:black;stroke-width:0.72px;"/>
    </g>
    <g transform="matrix(-1.31212,0.23691,0.23691,1.31212,93.3734,-867.526)">
        <path d="M124.473,717.105L135.447,717.105" style="fill:none;fill-rule:nonzero;stroke:black;stroke-width:0.72px;"/>
    </g>
    <g transform="matrix(-0.766121,-1.09125,-1.09125,0.766121,930.15,-355.134)">
        <path d="M92.407,727.8L113.813,727.8" style="fill:none;fill-rule:nonzero;stroke:black;stroke-width:0.72px;"/>
    </g>
    <g transform="matrix(0.99292,-0.889881,-0.889881,-0.99292,593.442,888.438)">
        <path d="M67.159,725.16L101.321,725.16" style="fill:none;fill-rule:nonzero;stroke:black;stroke-width:0.72px;"/>
    </g>
    <g transform="matrix(0,-1.33333,-1.33333,0,1043.46,194.889)">
        <path d="M87.48,746.04L106.44,746.04" style="fill:none;fill-rule:nonzero;stroke:black;stroke-width:0.72px;"/>
    </g>
    <g transform="matrix(0.942809,-0.942809,-0.942809,-0.942809,678.276,860.274)">
        <path d="M94.276,762L112.604,762" style="fill:none;fill-rule:nonzero;stroke:black;stroke-width:0.72px;"/>
    </g>
    <g transform="matrix(-1.30214,0.28671,0.28671,1.30214,-44.8259,-985.156)">
        <path d="M83.447,765.6L110.233,765.6" style="fill:none;fill-rule:nonzero;stroke:black;stroke-width:0.72px;"/>
    </g>
    <g transform="matrix(0,1.33333,1.33333,0,-972.06,-54.5509)">
        <path d="M73.44,752.4L94.08,752.4" style="fill:none;fill-rule:nonzero;stroke:black;stroke-width:0.72px;"/>
    </g>
    <g transform="matrix(0.0436924,1.33262,1.33262,-0.0436924,-972.937,-86.3359)">
        <path d="M102.356,775.8L117.004,775.8" style="fill:none;fill-rule:nonzero;stroke:black;stroke-width:0.72px;"/>
    </g>
    <g transform="matrix(0.934853,0.950698,0.950698,-0.934853,-699.613,641.64)">
        <path d="M132.342,710.88L152.538,710.88" style="fill:none;fill-rule:nonzero;stroke:black;stroke-width:0.72px;"/>
    </g>
    <g transform="matrix(-0.92695,0.958406,0.958406,0.92695,-408.203,-696.308)">
        <path d="M146.484,710.84L166.406,710.84" style="fill:none;fill-rule:nonzero;stroke:black;stroke-width:0.72px;"/>
    </g>
    <g transform="matrix(-0.92695,0.958406,0.958406,0.92695,-342.325,-749.549)">
        <path d="M179.654,720.33L199.576,720.33" style="fill:none;fill-rule:nonzero;stroke:black;stroke-width:0.72px;"/>
    </g>
    <g transform="matrix(-1.29342,-0.323796,-0.323796,1.29342,689.94,-779.775)">
        <path d="M196.314,725.655L211.426,725.655" style="fill:none;fill-rule:nonzero;stroke:black;stroke-width:0.72px;"/>
    </g>
    <g transform="matrix(1.29352,0.323381,0.323381,-1.29352,-305.058,975.887)">
        <path d="M163.073,715.585L182.987,715.585" style="fill:none;fill-rule:nonzero;stroke:black;stroke-width:0.72px;"/>
    </g>
    <g transform="matrix(-1.15203,0.671264,0.671264,1.15203,-365.901,-803.079)">
        <path d="M64.082,727.68L99.358,727.68" style="fill:none;fill-rule:nonzero;stroke:black;stroke-width:0.72px;"/>
    </g>
    <g transform="matrix(0.794692,-1.07063,-1.07063,-0.794692,741.951,747.31)">
        <path d="M60.624,730.44L89.616,730.44" style="fill:none;fill-rule:nonzero;stroke:black;stroke-width:0.72px;"/>
    </g>
    <g transform="matrix(-0.811034,-1.0583,-1.0583,0.811034,886.059,-348.389)">
        <path d="M85.583,707.16L117.937,707.16" style="fill:none;fill-rule:nonzero;stroke:black;stroke-width:0.72px;"/>
    </g>
    <g transform="matrix(0,-1.33333,-1.33333,0,1417.9,564.689)">
        <path d="M368.67,747.78L383.43,747.78" style="fill:none;fill-rule:nonzero;stroke:black;stroke-width:0.72px;"/>
    </g>
    <g transform="matrix(-1.09472,-0.761165,-0.761165,1.09472,1389.71,-507.738)">
        <path d="M356.322,760.385L376.309,760.385L376.033,763.726L356.322,760.385Z" style="stroke:black;stroke-width:0.24px;"/>
    </g>
    <g transform="matrix(1.15451,-0.666991,-0.666991,-1.15451,470.896,1173.47)">
        <path d="M357.834,728.885L372.246,728.885" style="fill:none;fill-rule:nonzero;stroke:black;stroke-width:0.72px;"/>
    </g>
    <g transform="matrix(1.15468,-0.666702,-0.666702,-1.15468,488.807,1157.99)">
        <path d="M340.216,760.14L360.134,760.14" style="fill:none;fill-rule:nonzero;stroke:black;stroke-width:0.72px;"/>
    </g>
    <g transform="matrix(1.15468,0.666702,0.666702,-1.15468,-504.846,696.403)">
        <path d="M340.216,730.26L360.134,730.26" style="fill:none;fill-rule:nonzero;stroke:black;stroke-width:0.72px;"/>
    </g>
    <g transform="matrix(0,-1.33333,-1.33333,0,1368.46,522.129)">
        <path d="M331.59,745.2L351.51,745.2" style="fill:none;fill-rule:nonzero;stroke:black;stroke-width:0.72px;"/>
    </g>
    <g transform="matrix(0,-1.33333,-1.33333,0,1487.03,587.582)">
        <path d="M400.6,765.12L420.52,765.12" style="fill:none;fill-rule:nonzero;stroke:black;stroke-width:0.72px;"/>
    </g>
    <g transform="matrix(1.15485,0.666412,0.666412,-1.15485,-528.643,653.248)">
        <path d="M391.966,780.06L411.894,780.06" style="fill:none;fill-rule:nonzero;stroke:black;stroke-width:0.72px;"/>
    </g>
    <g transform="matrix(1.15468,-0.666702,-0.666702,-1.15468,508.251,1177.43)">
        <path d="M374.716,780.06L394.634,780.06" style="fill:none;fill-rule:nonzero;stroke:black;stroke-width:0.72px;"/>
    </g>
    <g transform="matrix(1.15468,0.666702,0.666702,-1.15468,-511.963,669.843)">
        <path d="M374.716,750.18L394.634,750.18" style="fill:none;fill-rule:nonzero;stroke:black;stroke-width:0.72px;"/>
    </g>
    <g transform="matrix(0,-1.33333,-1.33333,0,1441.02,541.569)">
        <path d="M366.09,765.12L386.01,765.12" style="fill:none;fill-rule:nonzero;stroke:black;stroke-width:0.72px;"/>
    </g>
    <g transform="matrix(1.15468,-0.666702,-0.666702,-1.15468,474.574,1211.12)">
        <path d="M409.226,720.3L429.144,720.3" style="fill:none;fill-rule:nonzero;stroke:black;stroke-width:0.72px;"/>
    </g>
    <g transform="matrix(1.15485,-0.666412,-0.666412,-1.15485,491.128,1194.28)">
        <path d="M391.966,750.18L411.894,750.18" style="fill:none;fill-rule:nonzero;stroke:black;stroke-width:0.72px;"/>
    </g>
    <g transform="matrix(1.15485,0.666412,0.666412,-1.15485,-488.818,663.914)">
        <path d="M391.966,720.3L411.894,720.3" style="fill:none;fill-rule:nonzero;stroke:black;stroke-width:0.72px;"/>
    </g>
    <g transform="matrix(0,-1.33333,-1.33333,0,1424.18,604.409)">
        <path d="M383.34,735.24L403.26,735.24" style="fill:none;fill-rule:nonzero;stroke:black;stroke-width:0.72px;"/>
    </g>
    <g transform="matrix(-1.18689,-0.607519,-0.607519,1.18689,1452.69,-495.233)">
        <path d="M427.004,721.935L441.686,721.935" style="fill:none;fill-rule:nonzero;stroke:black;stroke-width:0.72px;"/>
    </g>
    <g transform="matrix(0.665472,-1.15539,-1.15539,-0.665472,1066.17,1047.57)">
        <path d="M420.102,748.705L423.368,748.705" style="fill:none;fill-rule:nonzero;stroke:black;stroke-width:0.72px;"/>
    </g>
    <g transform="matrix(0.667037,-1.15449,-1.15449,-0.667037,1064.83,1044.84)">
        <path d="M418.151,750.025L420.749,750.025" style="fill:none;fill-rule:nonzero;stroke:black;stroke-width:0.72px;"/>
    </g>
    <g transform="matrix(0.669681,-1.15296,-1.15296,-0.669681,1062.58,1042.67)">
        <path d="M416.199,751.345L418.131,751.345" style="fill:none;fill-rule:nonzero;stroke:black;stroke-width:0.72px;"/>
    </g>
    <g transform="matrix(0.667213,-1.15438,-1.15438,-0.667213,1064.68,1037.89)">
        <path d="M414.246,752.665L415.504,752.665" style="fill:none;fill-rule:nonzero;stroke:black;stroke-width:0.72px;"/>
    </g>
    <g transform="matrix(0.676027,-1.14925,-1.14925,-0.676027,1057.17,1038.9)">
        <path d="M412.294,753.985L412.886,753.985" style="fill:none;fill-rule:nonzero;stroke:black;stroke-width:0.72px;"/>
    </g>
    <g transform="matrix(1.33333,0,0,1.33333,-80.54,-824.151)">
        <path d="M357.12,706.68L360.48,706.68" style="fill:none;fill-rule:nonzero;stroke:black;stroke-width:0.72px;"/>
    </g>
    <g transform="matrix(1.33333,0,0,1.33333,-80.54,-831.191)">
        <path d="M357.36,709.32L360.24,709.32" style="fill:none;fill-rule:nonzero;stroke:black;stroke-width:0.72px;"/>
    </g>
    <g transform="matrix(1.33333,0,0,1.33333,-80.54,-838.231)">
        <path d="M357.6,711.96L360,711.96" style="fill:none;fill-rule:nonzero;stroke:black;stroke-width:0.72px;"/>
    </g>
    <g transform="matrix(1.33333,0,0,1.33333,-80.54,-845.271)">
        <path d="M357.83,714.6L359.76,714.6" style="fill:none;fill-rule:nonzero;stroke:black;stroke-width:0.72px;"/>
    </g>
    <g transform="matrix(1.33333,0,0,1.33333,-80.54,-852.311)">
        <path d="M358.07,717.24L359.53,717.24" style="fill:none;fill-rule:nonzero;stroke:black;stroke-width:0.72px;"/>
    </g>
    <g transform="matrix(1.33333,0,0,1.33333,-80.54,-859.351)">
        <path d="M358.31,719.88L359.29,719.88" style="fill:none;fill-rule:nonzero;stroke:black;stroke-width:0.72px;"/>
    </g>
    <g transform="matrix(1.33333,0,0,1.33333,-80.54,-866.391)">
        <path d="M358.55,722.52L359.05,722.52" style="fill:none;fill-rule:nonzero;stroke:black;stroke-width:0.72px;"/>
    </g>
    <g transform="matrix(1.33333,0,0,1.33333,-80.54,-873.431)">
        <path d="M358.79,725.16L358.81,725.16" style="fill:none;fill-rule:nonzero;stroke:black;stroke-width:0.72px;"/>
    </g>
    <g transform="matrix(1.15468,0.666702,0.666702,-1.15468,-491.565,699.962)">
        <path d="M340.216,710.34L360.134,710.34" style="fill:none;fill-rule:nonzero;stroke:black;stroke-width:0.72px;"/>
    </g>
    <g transform="matrix(1.15468,-0.666702,-0.666702,-1.15468,452.523,1155.39)">
        <path d="M322.966,710.34L342.884,710.34" style="fill:none;fill-rule:nonzero;stroke:black;stroke-width:0.72px;"/>
    </g>
    <g transform="matrix(1.15485,0.666412,0.666412,-1.15485,-497.577,723.177)">
        <path d="M305.706,710.34L325.634,710.34" style="fill:none;fill-rule:nonzero;stroke:black;stroke-width:0.72px;"/>
    </g>
    <g transform="matrix(1.1547,-0.666661,-0.666661,-1.1547,447.576,1133.64)">
        <path d="M293.25,711.625L308.03,711.625" style="fill:none;fill-rule:nonzero;stroke:black;stroke-width:0.72px;"/>
    </g>
    <g transform="matrix(0.0138881,-1.33326,-1.33326,-0.0138881,1382.49,604.601)">
        <path d="M371.15,725.28L380.75,725.28" style="fill:none;fill-rule:nonzero;stroke:black;stroke-width:0.72px;"/>
    </g>
    <g transform="matrix(1.33333,0,0,1.33333,-80.54,-851.671)">
        <path d="M347.76,716.88L348.72,715.92L349.92,714.96L351.36,714L354.24,713.04L355.68,712.8L357.36,712.56L358.8,712.56L360.24,712.8L361.68,713.28L362.88,713.76L365.28,715.2L367.2,717.12L368.16,718.32L368.88,719.52L369.36,720.72L369.6,721.44" style="fill:none;fill-rule:nonzero;stroke:black;stroke-width:0.48px;"/>
    </g>
    <g transform="matrix(-0.818587,1.05247,1.05247,0.818587,-82.3399,-859.751)">
        <path d="M348.112,719.413L356.321,719.413L349.101,723.223L350.007,720.886L348.112,719.413Z" style="stroke:black;stroke-width:0.48px;"/>
    </g>
    <g transform="matrix(1.33333,0,0,1.33333,-80.54,-870.871)">
        <path d="M383.76,722.88L383.04,723.84L380.16,726L376.56,726.72L374.88,726.48L373.44,726.24L372.24,725.52L370.8,724.56L369.84,723.6L368.88,722.4L368.64,721.68" style="fill:none;fill-rule:nonzero;stroke:black;stroke-width:0.48px;"/>
    </g>
    <g transform="matrix(-0.65735,-1.16003,-1.16003,0.65735,1499.07,52.4963)">
        <path d="M368.692,724.373L376.968,724.373L369.569,720.566L370.871,722.862L368.692,724.373Z" style="stroke:black;stroke-width:0.48px;"/>
    </g>
    <g transform="matrix(1.33333,0,0,1.33333,-80.54,-908.311)">
        <path d="M463.44,738.24L497.52,738.24" style="fill:none;fill-rule:nonzero;stroke:black;stroke-width:0.72px;"/>
    </g>
    <g transform="matrix(1.33333,0,0,1.33333,-80.54,-915.991)">
        <path d="M463.44,741.12L497.52,741.12" style="fill:none;fill-rule:nonzero;stroke:black;stroke-width:0.72px;"/>
    </g>
    <g transform="matrix(1.33333,0,0,1.33333,-80.54,-912.151)">
        <path d="M492.96,736.08L500.88,739.68L492.96,743.28" style="fill:none;fill-rule:nonzero;stroke:black;stroke-width:0.72px;"/>
    </g>
    <g transform="matrix(1.33333,0,0,1.33333,-80.54,-603.031)">
        <path d="M63.12,623.76L97.2,623.76" style="fill:none;fill-rule:nonzero;stroke:black;stroke-width:0.72px;"/>
    </g>
    <g transform="matrix(1.33333,0,0,1.33333,-80.54,-610.711)">
        <path d="M63.12,626.64L97.2,626.64" style="fill:none;fill-rule:nonzero;stroke:black;stroke-width:0.72px;"/>
    </g>
    <g transform="matrix(1.33333,0,0,1.33333,-80.54,-606.871)">
        <path d="M92.64,621.6L100.56,625.2L92.64,628.8" style="fill:none;fill-rule:nonzero;stroke:black;stroke-width:0.72px;"/>
    </g>
    <g transform="matrix(0,-1.33333,-1.33333,0,949.74,428.689)">
        <path d="M142.11,623.22L156.87,623.22" style="fill:none;fill-rule:nonzero;stroke:black;stroke-width:0.72px;"/>
    </g>
    <g transform="matrix(1.15468,0.666702,0.666702,-1.15468,-479.117,852.866)">
        <path d="M130.906,635.58L150.824,635.58" style="fill:none;fill-rule:nonzero;stroke:black;stroke-width:0.72px;"/>
    </g>
    <g transform="matrix(1.15451,-0.666991,-0.666991,-1.15451,347.302,1044.63)">
        <path d="M131.274,604.325L145.686,604.325" style="fill:none;fill-rule:nonzero;stroke:black;stroke-width:0.72px;"/>
    </g>
    <g transform="matrix(1.15457,-0.6669,-0.6669,-1.15457,349.75,1043.88)">
        <path d="M131.018,608.125L145.672,608.125" style="fill:none;fill-rule:nonzero;stroke:black;stroke-width:0.72px;"/>
    </g>
    <g transform="matrix(1.15468,-0.666702,-0.666702,-1.15468,365.287,1029.19)">
        <path d="M113.656,635.58L133.574,635.58" style="fill:none;fill-rule:nonzero;stroke:black;stroke-width:0.72px;"/>
    </g>
    <g transform="matrix(1.15468,0.666702,0.666702,-1.15468,-462.277,869.704)">
        <path d="M113.656,605.7L133.574,605.7" style="fill:none;fill-rule:nonzero;stroke:black;stroke-width:0.72px;"/>
    </g>
    <g transform="matrix(0,-1.33333,-1.33333,0,900.3,386.129)">
        <path d="M105.03,620.64L124.95,620.64" style="fill:none;fill-rule:nonzero;stroke:black;stroke-width:0.72px;"/>
    </g>
    <g transform="matrix(0,-1.33333,-1.33333,0,1018.87,451.582)">
        <path d="M174.04,640.56L193.96,640.56" style="fill:none;fill-rule:nonzero;stroke:black;stroke-width:0.72px;"/>
    </g>
    <g transform="matrix(1.15485,0.666412,0.666412,-1.15485,-486.072,826.463)">
        <path d="M165.406,655.5L185.334,655.5" style="fill:none;fill-rule:nonzero;stroke:black;stroke-width:0.72px;"/>
    </g>
    <g transform="matrix(1.15468,-0.666702,-0.666702,-1.15468,384.731,1048.64)">
        <path d="M148.156,655.5L168.074,655.5" style="fill:none;fill-rule:nonzero;stroke:black;stroke-width:0.72px;"/>
    </g>
    <g transform="matrix(1.15468,0.666702,0.666702,-1.15468,-469.394,843.144)">
        <path d="M148.156,625.62L168.074,625.62" style="fill:none;fill-rule:nonzero;stroke:black;stroke-width:0.72px;"/>
    </g>
    <g transform="matrix(0,-1.33333,-1.33333,0,972.86,405.569)">
        <path d="M139.53,640.56L159.45,640.56" style="fill:none;fill-rule:nonzero;stroke:black;stroke-width:0.72px;"/>
    </g>
    <g transform="matrix(1.15468,-0.666702,-0.666702,-1.15468,351.054,1082.32)">
        <path d="M182.666,595.74L202.584,595.74" style="fill:none;fill-rule:nonzero;stroke:black;stroke-width:0.72px;"/>
    </g>
    <g transform="matrix(1.15485,-0.666412,-0.666412,-1.15485,367.682,1065.53)">
        <path d="M165.406,625.62L185.334,625.62" style="fill:none;fill-rule:nonzero;stroke:black;stroke-width:0.72px;"/>
    </g>
    <g transform="matrix(1.15485,0.666412,0.666412,-1.15485,-446.247,837.129)">
        <path d="M165.406,595.74L185.334,595.74" style="fill:none;fill-rule:nonzero;stroke:black;stroke-width:0.72px;"/>
    </g>
    <g transform="matrix(0,-1.33333,-1.33333,0,956.02,468.409)">
        <path d="M156.78,610.68L176.7,610.68" style="fill:none;fill-rule:nonzero;stroke:black;stroke-width:0.72px;"/>
    </g>
    <g transform="matrix(-1.15465,-0.666746,-0.666746,1.15465,833.934,-286.831)">
        <path d="M200.276,597.085L214.814,597.085" style="fill:none;fill-rule:nonzero;stroke:black;stroke-width:0.72px;"/>
    </g>
    <g transform="matrix(0.665472,-1.15539,-1.15539,-0.665472,770.941,868.99)">
        <path d="M193.542,624.145L196.808,624.145" style="fill:none;fill-rule:nonzero;stroke:black;stroke-width:0.72px;"/>
    </g>
    <g transform="matrix(0.667037,-1.15449,-1.15449,-0.667037,770.073,866.273)">
        <path d="M191.591,625.465L194.189,625.465" style="fill:none;fill-rule:nonzero;stroke:black;stroke-width:0.72px;"/>
    </g>
    <g transform="matrix(0.669681,-1.15296,-1.15296,-0.669681,768.611,864.12)">
        <path d="M189.639,626.785L191.571,626.785" style="fill:none;fill-rule:nonzero;stroke:black;stroke-width:0.72px;"/>
    </g>
    <g transform="matrix(0.667213,-1.15438,-1.15438,-0.667213,769.975,859.324)">
        <path d="M187.686,628.105L188.944,628.105" style="fill:none;fill-rule:nonzero;stroke:black;stroke-width:0.72px;"/>
    </g>
    <g transform="matrix(0.676027,-1.14925,-1.14925,-0.676027,765.103,860.398)">
        <path d="M185.734,629.425L186.326,629.425" style="fill:none;fill-rule:nonzero;stroke:black;stroke-width:0.72px;"/>
    </g>
    <g transform="matrix(-1.15462,0.666813,0.666813,1.15462,191.56,-710.825)">
        <path d="M272.602,636.835L287.498,636.835" style="fill:none;fill-rule:nonzero;stroke:black;stroke-width:0.72px;"/>
    </g>
    <g transform="matrix(-1.15468,-0.666702,-0.666702,1.15468,1077.48,-324.242)">
        <path d="M285.166,635.58L305.084,635.58" style="fill:none;fill-rule:nonzero;stroke:black;stroke-width:0.72px;"/>
    </g>
    <g transform="matrix(-1.15468,0.666702,0.666702,1.15468,272.911,-729.264)">
        <path d="M302.416,635.58L322.334,635.58" style="fill:none;fill-rule:nonzero;stroke:black;stroke-width:0.72px;"/>
    </g>
    <g transform="matrix(-1.15485,-0.666412,-0.666412,1.15485,1163.2,-301.439)">
        <path d="M319.666,635.58L339.594,635.58" style="fill:none;fill-rule:nonzero;stroke:black;stroke-width:0.72px;"/>
    </g>
    <g transform="matrix(-0.00722663,-1.33331,-1.33331,0.00722663,1203.92,675.925)">
        <path d="M330.92,623.22L345.68,623.22" style="fill:none;fill-rule:nonzero;stroke:black;stroke-width:0.72px;"/>
    </g>
    <g transform="matrix(0,1.33333,1.33333,0,-613.18,96.9691)">
        <path d="M146.52,561L176.52,561" style="fill:none;fill-rule:nonzero;stroke:black;stroke-width:0.72px;"/>
    </g>
    <g transform="matrix(0,1.33333,1.33333,0,-609.34,93.1291)">
        <path d="M149.4,561L179.4,561" style="fill:none;fill-rule:nonzero;stroke:black;stroke-width:0.72px;"/>
    </g>
    <g transform="matrix(1.33333,0,0,1.33333,-80.54,-397.271)">
        <path d="M166.56,542.64L162.96,550.56L159.36,542.64" style="fill:none;fill-rule:nonzero;stroke:black;stroke-width:0.72px;"/>
    </g>
    <g transform="matrix(0,-1.33333,-1.33333,0,763.18,604.369)">
        <path d="M138.03,487.38L152.79,487.38" style="fill:none;fill-rule:nonzero;stroke:black;stroke-width:0.72px;"/>
    </g>
    <g transform="matrix(1.15468,0.666702,0.666702,-1.15468,-389.281,879.854)">
        <path d="M126.826,499.74L146.744,499.74" style="fill:none;fill-rule:nonzero;stroke:black;stroke-width:0.72px;"/>
    </g>
    <g transform="matrix(1.15451,-0.666991,-0.666991,-1.15451,255.968,1066.2)">
        <path d="M127.194,468.485L141.606,468.485" style="fill:none;fill-rule:nonzero;stroke:black;stroke-width:0.72px;"/>
    </g>
    <g transform="matrix(1.15468,-0.666702,-0.666702,-1.15468,273.993,1050.74)">
        <path d="M109.576,499.74L129.494,499.74" style="fill:none;fill-rule:nonzero;stroke:black;stroke-width:0.72px;"/>
    </g>
    <g transform="matrix(1.15468,0.666702,0.666702,-1.15468,-372.441,896.693)">
        <path d="M109.576,469.86L129.494,469.86" style="fill:none;fill-rule:nonzero;stroke:black;stroke-width:0.72px;"/>
    </g>
    <g transform="matrix(0,-1.33333,-1.33333,0,713.74,561.809)">
        <path d="M100.95,484.8L120.87,484.8" style="fill:none;fill-rule:nonzero;stroke:black;stroke-width:0.72px;"/>
    </g>
    <g transform="matrix(0,-1.33333,-1.33333,0,832.313,627.262)">
        <path d="M169.96,504.72L189.88,504.72" style="fill:none;fill-rule:nonzero;stroke:black;stroke-width:0.72px;"/>
    </g>
    <g transform="matrix(1.15485,0.666412,0.666412,-1.15485,-396.275,853.427)">
        <path d="M161.326,519.66L181.254,519.66" style="fill:none;fill-rule:nonzero;stroke:black;stroke-width:0.72px;"/>
    </g>
    <g transform="matrix(1.15468,-0.666702,-0.666702,-1.15468,293.437,1070.19)">
        <path d="M144.076,519.66L163.994,519.66" style="fill:none;fill-rule:nonzero;stroke:black;stroke-width:0.72px;"/>
    </g>
    <g transform="matrix(1.15468,0.666702,0.666702,-1.15468,-379.559,870.133)">
        <path d="M144.076,489.78L163.994,489.78" style="fill:none;fill-rule:nonzero;stroke:black;stroke-width:0.72px;"/>
    </g>
    <g transform="matrix(0,-1.33333,-1.33333,0,786.3,581.249)">
        <path d="M135.45,504.72L155.37,504.72" style="fill:none;fill-rule:nonzero;stroke:black;stroke-width:0.72px;"/>
    </g>
    <g transform="matrix(1.15468,-0.666702,-0.666702,-1.15468,259.761,1103.87)">
        <path d="M178.586,459.9L198.504,459.9" style="fill:none;fill-rule:nonzero;stroke:black;stroke-width:0.72px;"/>
    </g>
    <g transform="matrix(1.15485,-0.666412,-0.666412,-1.15485,276.428,1087.06)">
        <path d="M161.326,489.78L181.254,489.78" style="fill:none;fill-rule:nonzero;stroke:black;stroke-width:0.72px;"/>
    </g>
    <g transform="matrix(1.15485,0.666412,0.666412,-1.15485,-356.45,864.094)">
        <path d="M161.326,459.9L181.254,459.9" style="fill:none;fill-rule:nonzero;stroke:black;stroke-width:0.72px;"/>
    </g>
    <g transform="matrix(0,-1.33333,-1.33333,0,769.46,644.089)">
        <path d="M152.7,474.84L172.62,474.84" style="fill:none;fill-rule:nonzero;stroke:black;stroke-width:0.72px;"/>
    </g>
    <g transform="matrix(-1.15465,-0.666746,-0.666746,1.15465,733.212,48.4167)">
        <path d="M196.196,461.245L210.734,461.245" style="fill:none;fill-rule:nonzero;stroke:black;stroke-width:0.72px;"/>
    </g>
    <g transform="matrix(0.665472,-1.15539,-1.15539,-0.665472,611.268,954.998)">
        <path d="M189.462,488.305L192.728,488.305" style="fill:none;fill-rule:nonzero;stroke:black;stroke-width:0.72px;"/>
    </g>
    <g transform="matrix(0.667037,-1.15449,-1.15449,-0.667037,610.529,952.072)">
        <path d="M187.511,489.625L190.109,489.625" style="fill:none;fill-rule:nonzero;stroke:black;stroke-width:0.72px;"/>
    </g>
    <g transform="matrix(0.669681,-1.15296,-1.15296,-0.669681,609.285,949.567)">
        <path d="M185.559,490.945L187.491,490.945" style="fill:none;fill-rule:nonzero;stroke:black;stroke-width:0.72px;"/>
    </g>
    <g transform="matrix(0.667213,-1.15438,-1.15438,-0.667213,610.446,945.1)">
        <path d="M183.606,492.265L184.864,492.265" style="fill:none;fill-rule:nonzero;stroke:black;stroke-width:0.72px;"/>
    </g>
    <g transform="matrix(0.676027,-1.14925,-1.14925,-0.676027,606.307,944.998)">
        <path d="M181.654,493.585L182.246,493.585" style="fill:none;fill-rule:nonzero;stroke:black;stroke-width:0.72px;"/>
    </g>
    <g transform="matrix(0.00138889,-1.33333,-1.33333,-0.00138889,732.971,635.008)">
        <path d="M140.605,464.88L150.205,464.88" style="fill:none;fill-rule:nonzero;stroke:black;stroke-width:0.72px;"/>
    </g>
    <g transform="matrix(1.33333,0,0,1.33333,-80.54,-263.831)">
        <path d="M232.56,496.56L266.64,496.56" style="fill:none;fill-rule:nonzero;stroke:black;stroke-width:0.72px;"/>
    </g>
    <g transform="matrix(1.33333,0,0,1.33333,-80.54,-271.511)">
        <path d="M232.56,499.44L266.64,499.44" style="fill:none;fill-rule:nonzero;stroke:black;stroke-width:0.72px;"/>
    </g>
    <g transform="matrix(1.33333,0,0,1.33333,-80.54,-267.671)">
        <path d="M262.08,494.4L270,498L262.08,501.6" style="fill:none;fill-rule:nonzero;stroke:black;stroke-width:0.72px;"/>
    </g>
    <g transform="matrix(0,-1.33333,-1.33333,0,1005.1,837.329)">
        <path d="M316.11,490.74L330.87,490.74" style="fill:none;fill-rule:nonzero;stroke:black;stroke-width:0.72px;"/>
    </g>
    <g transform="matrix(1.15468,0.666702,0.666702,-1.15468,-359.706,760.527)">
        <path d="M304.906,503.1L324.824,503.1" style="fill:none;fill-rule:nonzero;stroke:black;stroke-width:0.72px;"/>
    </g>
    <g transform="matrix(1.15451,-0.666991,-0.666991,-1.15451,290.054,1184.38)">
        <path d="M305.274,471.845L319.686,471.845" style="fill:none;fill-rule:nonzero;stroke:black;stroke-width:0.72px;"/>
    </g>
    <g transform="matrix(1.15468,-0.666702,-0.666702,-1.15468,308.048,1168.87)">
        <path d="M287.656,503.1L307.574,503.1" style="fill:none;fill-rule:nonzero;stroke:black;stroke-width:0.72px;"/>
    </g>
    <g transform="matrix(1.15468,0.666702,0.666702,-1.15468,-342.867,777.366)">
        <path d="M287.656,473.22L307.574,473.22" style="fill:none;fill-rule:nonzero;stroke:black;stroke-width:0.72px;"/>
    </g>
    <g transform="matrix(0,-1.33333,-1.33333,0,955.66,794.769)">
        <path d="M279.03,488.16L298.95,488.16" style="fill:none;fill-rule:nonzero;stroke:black;stroke-width:0.72px;"/>
    </g>
    <g transform="matrix(0,-1.33333,-1.33333,0,1074.23,860.222)">
        <path d="M348.04,508.08L367.96,508.08" style="fill:none;fill-rule:nonzero;stroke:black;stroke-width:0.72px;"/>
    </g>
    <g transform="matrix(1.15485,0.666412,0.666412,-1.15485,-366.729,734.153)">
        <path d="M339.406,523.02L359.334,523.02" style="fill:none;fill-rule:nonzero;stroke:black;stroke-width:0.72px;"/>
    </g>
    <g transform="matrix(1.15468,-0.666702,-0.666702,-1.15468,327.492,1188.31)">
        <path d="M322.156,523.02L342.074,523.02" style="fill:none;fill-rule:nonzero;stroke:black;stroke-width:0.72px;"/>
    </g>
    <g transform="matrix(1.15468,0.666702,0.666702,-1.15468,-349.984,750.806)">
        <path d="M322.156,493.14L342.074,493.14" style="fill:none;fill-rule:nonzero;stroke:black;stroke-width:0.72px;"/>
    </g>
    <g transform="matrix(0,-1.33333,-1.33333,0,1028.22,814.209)">
        <path d="M313.53,508.08L333.45,508.08" style="fill:none;fill-rule:nonzero;stroke:black;stroke-width:0.72px;"/>
    </g>
    <g transform="matrix(1.15485,-0.666412,-0.666412,-1.15485,310.452,1205.13)">
        <path d="M339.406,493.14L359.334,493.14" style="fill:none;fill-rule:nonzero;stroke:black;stroke-width:0.72px;"/>
    </g>
    <g transform="matrix(0.665472,-1.15539,-1.15539,-0.665472,734.082,1158.51)">
        <path d="M367.542,491.665L370.808,491.665" style="fill:none;fill-rule:nonzero;stroke:black;stroke-width:0.72px;"/>
    </g>
    <g transform="matrix(0.667037,-1.15449,-1.15449,-0.667037,733.062,1155.42)">
        <path d="M365.591,492.985L368.189,492.985" style="fill:none;fill-rule:nonzero;stroke:black;stroke-width:0.72px;"/>
    </g>
    <g transform="matrix(0.669681,-1.15296,-1.15296,-0.669681,731.343,1152.66)">
        <path d="M363.639,494.305L365.571,494.305" style="fill:none;fill-rule:nonzero;stroke:black;stroke-width:0.72px;"/>
    </g>
    <g transform="matrix(0.667213,-1.15438,-1.15438,-0.667213,732.947,1148.43)">
        <path d="M361.686,495.625L362.944,495.625" style="fill:none;fill-rule:nonzero;stroke:black;stroke-width:0.72px;"/>
    </g>
    <g transform="matrix(0.676027,-1.14925,-1.14925,-0.676027,727.222,1147.45)">
        <path d="M359.734,496.945L360.326,496.945" style="fill:none;fill-rule:nonzero;stroke:black;stroke-width:0.72px;"/>
    </g>
    <g transform="matrix(0.0319353,-1.33295,-1.33295,-0.0319353,964.284,881.845)">
        <path d="M318.454,468.24L328.056,468.24" style="fill:none;fill-rule:nonzero;stroke:black;stroke-width:0.72px;"/>
    </g>
    <g transform="matrix(-0.940129,-0.945482,-0.945482,0.940129,1164.96,295.383)">
        <path d="M337.802,481.095L357.728,481.095" style="fill:none;fill-rule:nonzero;stroke:black;stroke-width:0.72px;"/>
    </g>
    <g transform="matrix(-1.28887,0.341466,0.341466,1.28887,712.293,-313.795)">
        <path d="M354.458,476.58L374.372,476.58" style="fill:none;fill-rule:nonzero;stroke:black;stroke-width:0.72px;"/>
    </g>
    <g transform="matrix(-0.940129,-0.945482,-0.945482,0.940129,1232.13,347.397)">
        <path d="M371.102,472.065L391.028,472.065" style="fill:none;fill-rule:nonzero;stroke:black;stroke-width:0.72px;"/>
    </g>
    <g transform="matrix(-1.28878,0.341795,0.341795,1.28878,796.659,-299.188)">
        <path d="M387.837,466.94L402.973,466.94" style="fill:none;fill-rule:nonzero;stroke:black;stroke-width:0.72px;"/>
    </g>
    <g transform="matrix(1.33333,0,0,1.33333,-80.54,-261.911)">
        <path d="M418.32,495.84L452.4,495.84" style="fill:none;fill-rule:nonzero;stroke:black;stroke-width:0.72px;"/>
    </g>
    <g transform="matrix(1.33333,0,0,1.33333,-80.54,-269.591)">
        <path d="M418.32,498.72L452.4,498.72" style="fill:none;fill-rule:nonzero;stroke:black;stroke-width:0.72px;"/>
    </g>
    <g transform="matrix(1.33333,0,0,1.33333,-80.54,-265.751)">
        <path d="M447.84,493.68L455.76,497.28L447.84,500.88" style="fill:none;fill-rule:nonzero;stroke:black;stroke-width:0.72px;"/>
    </g>
    <g transform="matrix(1.33333,0,0,1.33333,-80.54,69.6091)">
        <path d="M65.52,371.52L99.6,371.52" style="fill:none;fill-rule:nonzero;stroke:black;stroke-width:0.72px;"/>
    </g>
    <g transform="matrix(1.33333,0,0,1.33333,-80.54,61.9291)">
        <path d="M65.52,374.4L99.6,374.4" style="fill:none;fill-rule:nonzero;stroke:black;stroke-width:0.72px;"/>
    </g>
    <g transform="matrix(1.33333,0,0,1.33333,-80.54,65.7691)">
        <path d="M95.04,369.36L102.96,372.96L95.04,376.56" style="fill:none;fill-rule:nonzero;stroke:black;stroke-width:0.72px;"/>
    </g>
    <g transform="matrix(0,-1.33333,-1.33333,0,614.38,778.129)">
        <path d="M147.39,366.42L162.15,366.42" style="fill:none;fill-rule:nonzero;stroke:black;stroke-width:0.72px;"/>
    </g>
    <g transform="matrix(1.15468,0.666702,0.666702,-1.15468,-306.964,895.224)">
        <path d="M136.186,378.78L156.104,378.78" style="fill:none;fill-rule:nonzero;stroke:black;stroke-width:0.72px;"/>
    </g>
    <g transform="matrix(1.15451,-0.666991,-0.666991,-1.15451,176.963,1094.07)">
        <path d="M136.554,347.525L150.966,347.525" style="fill:none;fill-rule:nonzero;stroke:black;stroke-width:0.72px;"/>
    </g>
    <g transform="matrix(1.15468,-0.666702,-0.666702,-1.15468,195.021,1078.59)">
        <path d="M118.936,378.78L138.854,378.78" style="fill:none;fill-rule:nonzero;stroke:black;stroke-width:0.72px;"/>
    </g>
    <g transform="matrix(1.15468,0.666702,0.666702,-1.15468,-290.125,912.062)">
        <path d="M118.936,348.9L138.854,348.9" style="fill:none;fill-rule:nonzero;stroke:black;stroke-width:0.72px;"/>
    </g>
    <g transform="matrix(0,-1.33333,-1.33333,0,564.94,735.569)">
        <path d="M110.31,363.84L130.23,363.84" style="fill:none;fill-rule:nonzero;stroke:black;stroke-width:0.72px;"/>
    </g>
    <g transform="matrix(0,-1.33333,-1.33333,0,683.513,801.022)">
        <path d="M179.32,383.76L199.24,383.76" style="fill:none;fill-rule:nonzero;stroke:black;stroke-width:0.72px;"/>
    </g>
    <g transform="matrix(1.15485,0.666412,0.666412,-1.15485,-313.995,868.779)">
        <path d="M170.686,398.7L190.614,398.7" style="fill:none;fill-rule:nonzero;stroke:black;stroke-width:0.72px;"/>
    </g>
    <g transform="matrix(1.15468,-0.666702,-0.666702,-1.15468,214.465,1098.04)">
        <path d="M153.436,398.7L173.354,398.7" style="fill:none;fill-rule:nonzero;stroke:black;stroke-width:0.72px;"/>
    </g>
    <g transform="matrix(1.15468,0.666702,0.666702,-1.15468,-297.242,885.502)">
        <path d="M153.436,368.82L173.354,368.82" style="fill:none;fill-rule:nonzero;stroke:black;stroke-width:0.72px;"/>
    </g>
    <g transform="matrix(0,-1.33333,-1.33333,0,637.5,755.009)">
        <path d="M144.81,383.76L164.73,383.76" style="fill:none;fill-rule:nonzero;stroke:black;stroke-width:0.72px;"/>
    </g>
    <g transform="matrix(1.15468,-0.666702,-0.666702,-1.15468,180.788,1131.72)">
        <path d="M187.946,338.94L207.864,338.94" style="fill:none;fill-rule:nonzero;stroke:black;stroke-width:0.72px;"/>
    </g>
    <g transform="matrix(1.15485,-0.666412,-0.666412,-1.15485,197.49,1114.89)">
        <path d="M170.686,368.82L190.614,368.82" style="fill:none;fill-rule:nonzero;stroke:black;stroke-width:0.72px;"/>
    </g>
    <g transform="matrix(1.15485,0.666412,0.666412,-1.15485,-274.17,879.446)">
        <path d="M170.686,338.94L190.614,338.94" style="fill:none;fill-rule:nonzero;stroke:black;stroke-width:0.72px;"/>
    </g>
    <g transform="matrix(0,-1.33333,-1.33333,0,620.66,817.849)">
        <path d="M162.06,353.88L181.98,353.88" style="fill:none;fill-rule:nonzero;stroke:black;stroke-width:0.72px;"/>
    </g>
    <g transform="matrix(-1.15465,-0.666746,-0.666746,1.15465,675.85,355.604)">
        <path d="M205.556,340.285L220.094,340.285" style="fill:none;fill-rule:nonzero;stroke:black;stroke-width:0.72px;"/>
    </g>
    <g transform="matrix(0.665472,-1.15539,-1.15539,-0.665472,477.763,1046.6)">
        <path d="M198.822,367.345L202.088,367.345" style="fill:none;fill-rule:nonzero;stroke:black;stroke-width:0.72px;"/>
    </g>
    <g transform="matrix(0.667037,-1.15449,-1.15449,-0.667037,477.119,1043.47)">
        <path d="M196.871,368.665L199.469,368.665" style="fill:none;fill-rule:nonzero;stroke:black;stroke-width:0.72px;"/>
    </g>
    <g transform="matrix(0.669681,-1.15296,-1.15296,-0.669681,476.036,1040.63)">
        <path d="M194.919,369.985L196.851,369.985" style="fill:none;fill-rule:nonzero;stroke:black;stroke-width:0.72px;"/>
    </g>
    <g transform="matrix(0.667213,-1.15438,-1.15438,-0.667213,477.046,1036.48)">
        <path d="M192.966,371.305L194.224,371.305" style="fill:none;fill-rule:nonzero;stroke:black;stroke-width:0.72px;"/>
    </g>
    <g transform="matrix(0.676027,-1.14925,-1.14925,-0.676027,473.447,1035.26)">
        <path d="M191.014,372.625L191.606,372.625" style="fill:none;fill-rule:nonzero;stroke:black;stroke-width:0.72px;"/>
    </g>
    <g transform="matrix(0.0249956,-1.3331,-1.3331,-0.0249956,580.182,816.436)">
        <path d="M149.779,343.92L159.381,343.92" style="fill:none;fill-rule:nonzero;stroke:black;stroke-width:0.72px;"/>
    </g>
    <g transform="matrix(-0.0227188,-1.33314,-1.33314,0.0227188,557.147,789.601)">
        <path d="M131.989,336.615L146.661,336.615" style="fill:none;fill-rule:nonzero;stroke:black;stroke-width:0.72px;"/>
    </g>
    <g transform="matrix(-0.0228121,-1.33314,-1.33314,0.0228121,552.563,785.131)">
        <path d="M128.659,336.585L143.271,336.585" style="fill:none;fill-rule:nonzero;stroke:black;stroke-width:0.72px;"/>
    </g>
    <g transform="matrix(1.33333,0,0,1.33333,-80.54,67.6891)">
        <path d="M237.36,372.24L271.44,372.24" style="fill:none;fill-rule:nonzero;stroke:black;stroke-width:0.72px;"/>
    </g>
    <g transform="matrix(1.33333,0,0,1.33333,-80.54,60.0091)">
        <path d="M237.36,375.12L271.44,375.12" style="fill:none;fill-rule:nonzero;stroke:black;stroke-width:0.72px;"/>
    </g>
    <g transform="matrix(1.33333,0,0,1.33333,-80.54,63.8491)">
        <path d="M266.88,370.08L274.8,373.68L266.88,377.28" style="fill:none;fill-rule:nonzero;stroke:black;stroke-width:0.72px;"/>
    </g>
    <g transform="matrix(-1.07962,0.782437,0.782437,1.07962,340.007,-83.0934)">
        <path d="M286.785,377.645L306.705,377.645" style="fill:none;fill-rule:nonzero;stroke:black;stroke-width:0.72px;"/>
    </g>
    <g transform="matrix(-0.410979,-1.26841,-1.26841,0.410979,887.941,798.381)">
        <path d="M281.79,362.325L301.71,362.325" style="fill:none;fill-rule:nonzero;stroke:black;stroke-width:0.72px;"/>
    </g>
    <g transform="matrix(-1.0782,-0.784388,-0.784388,1.0782,970.153,395.07)">
        <path d="M302.904,377.63L322.826,377.63" style="fill:none;fill-rule:nonzero;stroke:black;stroke-width:0.72px;"/>
    </g>
    <g transform="matrix(-1.33333,-0.00133802,-0.00133802,1.33333,732.692,119.83)">
        <path d="M294.82,352.84L314.75,352.84" style="fill:none;fill-rule:nonzero;stroke:black;stroke-width:0.72px;"/>
    </g>
    <g transform="matrix(0.412993,-1.26776,-1.26776,-0.412993,671.286,1129.83)">
        <path d="M307.875,362.3L327.795,362.3" style="fill:none;fill-rule:nonzero;stroke:black;stroke-width:0.72px;"/>
    </g>
    <g transform="matrix(0,-1.33333,-1.33333,0,902.327,1025.25)">
        <path d="M345.46,381.73L365.38,381.73" style="fill:none;fill-rule:nonzero;stroke:black;stroke-width:0.72px;"/>
    </g>
    <g transform="matrix(1.15468,0.666702,0.666702,-1.15468,-283.045,758.254)">
        <path d="M336.836,396.67L356.754,396.67" style="fill:none;fill-rule:nonzero;stroke:black;stroke-width:0.72px;"/>
    </g>
    <g transform="matrix(1.15468,-0.666702,-0.666702,-1.15468,242.795,1209.17)">
        <path d="M319.586,396.67L339.504,396.67" style="fill:none;fill-rule:nonzero;stroke:black;stroke-width:0.72px;"/>
    </g>
    <g transform="matrix(1.15468,0.666702,0.666702,-1.15468,-266.205,775.092)">
        <path d="M319.586,366.79L339.504,366.79" style="fill:none;fill-rule:nonzero;stroke:black;stroke-width:0.72px;"/>
    </g>
    <g transform="matrix(0,-1.33333,-1.33333,0,856.327,979.249)">
        <path d="M310.96,381.73L330.88,381.73" style="fill:none;fill-rule:nonzero;stroke:black;stroke-width:0.72px;"/>
    </g>
    <g transform="matrix(0.667241,-1.15437,-1.15437,-0.667241,585.355,1240.09)">
        <path d="M364.906,365.35L368.164,365.35" style="fill:none;fill-rule:nonzero;stroke:black;stroke-width:0.72px;"/>
    </g>
    <g transform="matrix(0.669266,-1.1532,-1.1532,-0.669266,584.189,1236.89)">
        <path d="M362.955,366.67L365.545,366.67" style="fill:none;fill-rule:nonzero;stroke:black;stroke-width:0.72px;"/>
    </g>
    <g transform="matrix(0.6675,-1.15422,-1.15422,-0.6675,585.206,1233.09)">
        <path d="M361.001,367.99L362.919,367.99" style="fill:none;fill-rule:nonzero;stroke:black;stroke-width:0.72px;"/>
    </g>
    <g transform="matrix(0.663823,-1.15634,-1.15634,-0.663823,587.316,1228.98)">
        <path d="M359.057,369.31L360.303,369.31" style="fill:none;fill-rule:nonzero;stroke:black;stroke-width:0.72px;"/>
    </g>
    <g transform="matrix(0.668957,-1.15337,-1.15337,-0.668957,584.38,1226.3)">
        <path d="M357.106,370.63L357.684,370.63" style="fill:none;fill-rule:nonzero;stroke:black;stroke-width:0.72px;"/>
    </g>
    <g transform="matrix(1.15468,-0.666702,-0.666702,-1.15468,225.956,1226.01)">
        <path d="M336.836,366.79L356.754,366.79" style="fill:none;fill-rule:nonzero;stroke:black;stroke-width:0.72px;"/>
    </g>
    <g transform="matrix(0,-1.33333,-1.33333,0,839.487,1042.09)">
        <path d="M328.21,351.85L348.13,351.85" style="fill:none;fill-rule:nonzero;stroke:black;stroke-width:0.72px;"/>
    </g>
    <g transform="matrix(1.15468,-0.666702,-0.666702,-1.15468,209.116,1242.85)">
        <path d="M354.086,336.91L374.004,336.91" style="fill:none;fill-rule:nonzero;stroke:black;stroke-width:0.72px;"/>
    </g>
    <g transform="matrix(-1.15468,-0.666702,-0.666702,1.15468,1006.91,453.301)">
        <path d="M336.836,336.91L356.754,336.91" style="fill:none;fill-rule:nonzero;stroke:black;stroke-width:0.72px;"/>
    </g>
    <g transform="matrix(1.15447,0.667067,0.667067,-1.15447,-238.411,747.049)">
        <path d="M371.699,338.27L386.171,338.27" style="fill:none;fill-rule:nonzero;stroke:black;stroke-width:0.72px;"/>
    </g>
    <g transform="matrix(0.782256,1.07975,1.07975,-0.782256,-279.869,524.762)">
        <path d="M311.925,347.295L325.595,347.295" style="fill:none;fill-rule:nonzero;stroke:black;stroke-width:0.72px;"/>
    </g>
    <g transform="matrix(0.782868,1.0793,1.0793,-0.782868,-277.003,528.776)">
        <path d="M309.581,343.785L324.739,343.785" style="fill:none;fill-rule:nonzero;stroke:black;stroke-width:0.72px;"/>
    </g>
    <g transform="matrix(-0.542401,1.21802,1.21802,0.542401,125.135,53.1724)">
        <path d="M318.176,327.6L326.584,327.6" style="fill:none;fill-rule:nonzero;stroke:black;stroke-width:0.72px;"/>
    </g>
    <g transform="matrix(1.33333,0,0,1.33333,-80.54,70.8891)">
        <path d="M407.52,371.04L441.6,371.04" style="fill:none;fill-rule:nonzero;stroke:black;stroke-width:0.72px;"/>
    </g>
    <g transform="matrix(1.33333,0,0,1.33333,-80.54,63.2091)">
        <path d="M407.52,373.92L441.6,373.92" style="fill:none;fill-rule:nonzero;stroke:black;stroke-width:0.72px;"/>
    </g>
    <g transform="matrix(1.33333,0,0,1.33333,-80.54,63.2091)">
        <path d="M433.68,372L441.6,373.92L433.68,375.84" style="fill:none;fill-rule:nonzero;stroke:black;stroke-width:0.72px;"/>
    </g>
    <g transform="matrix(1.33333,0,0,1.33333,-80.54,70.8891)">
        <path d="M415.44,369.12L407.52,371.04L415.44,372.96" style="fill:none;fill-rule:nonzero;stroke:black;stroke-width:0.72px;"/>
    </g>
    <g transform="matrix(-1.07962,0.782437,0.782437,1.07962,724.143,-207.016)">
        <path d="M445.905,377.405L465.825,377.405" style="fill:none;fill-rule:nonzero;stroke:black;stroke-width:0.72px;"/>
    </g>
    <g transform="matrix(-0.410979,-1.26841,-1.26841,0.410979,1165.19,1000.63)">
        <path d="M440.91,362.085L460.83,362.085" style="fill:none;fill-rule:nonzero;stroke:black;stroke-width:0.72px;"/>
    </g>
    <g transform="matrix(-1.0782,-0.784388,-0.784388,1.0782,1353.69,520.46)">
        <path d="M462.024,377.39L481.946,377.39" style="fill:none;fill-rule:nonzero;stroke:black;stroke-width:0.72px;"/>
    </g>
    <g transform="matrix(-1.33333,-0.00133802,-0.00133802,1.33333,1157.01,120.683)">
        <path d="M453.94,352.6L473.87,352.6" style="fill:none;fill-rule:nonzero;stroke:black;stroke-width:0.72px;"/>
    </g>
    <g transform="matrix(0.412993,-1.26776,-1.26776,-0.412993,817.426,1331.77)">
        <path d="M466.995,362.06L486.915,362.06" style="fill:none;fill-rule:nonzero;stroke:black;stroke-width:0.72px;"/>
    </g>
    <g transform="matrix(0,-1.33333,-1.33333,0,1114.17,1237.73)">
        <path d="M504.58,381.49L524.5,381.49" style="fill:none;fill-rule:nonzero;stroke:black;stroke-width:0.72px;"/>
    </g>
    <g transform="matrix(1.15468,0.666702,0.666702,-1.15468,-254.457,652.211)">
        <path d="M495.956,396.43L515.874,396.43" style="fill:none;fill-rule:nonzero;stroke:black;stroke-width:0.72px;"/>
    </g>
    <g transform="matrix(1.15468,-0.666702,-0.666702,-1.15468,271.062,1315.3)">
        <path d="M478.706,396.43L498.624,396.43" style="fill:none;fill-rule:nonzero;stroke:black;stroke-width:0.72px;"/>
    </g>
    <g transform="matrix(1.15468,0.666702,0.666702,-1.15468,-237.618,669.05)">
        <path d="M478.706,366.55L498.624,366.55" style="fill:none;fill-rule:nonzero;stroke:black;stroke-width:0.72px;"/>
    </g>
    <g transform="matrix(0,-1.33333,-1.33333,0,1068.17,1191.73)">
        <path d="M470.08,381.49L490,381.49" style="fill:none;fill-rule:nonzero;stroke:black;stroke-width:0.72px;"/>
    </g>
    <g transform="matrix(0.667241,-1.15437,-1.15437,-0.667241,691.066,1423.93)">
        <path d="M524.026,365.11L527.284,365.11" style="fill:none;fill-rule:nonzero;stroke:black;stroke-width:0.72px;"/>
    </g>
    <g transform="matrix(0.669266,-1.1532,-1.1532,-0.669266,689.579,1420.54)">
        <path d="M522.075,366.43L524.665,366.43" style="fill:none;fill-rule:nonzero;stroke:black;stroke-width:0.72px;"/>
    </g>
    <g transform="matrix(0.6675,-1.15422,-1.15422,-0.6675,690.876,1416.91)">
        <path d="M520.121,367.75L522.039,367.75" style="fill:none;fill-rule:nonzero;stroke:black;stroke-width:0.72px;"/>
    </g>
    <g transform="matrix(0.663823,-1.15634,-1.15634,-0.663823,693.571,1413.14)">
        <path d="M518.177,369.07L519.423,369.07" style="fill:none;fill-rule:nonzero;stroke:black;stroke-width:0.72px;"/>
    </g>
    <g transform="matrix(0.668957,-1.15337,-1.15337,-0.668957,689.819,1409.99)">
        <path d="M516.226,370.39L516.804,370.39" style="fill:none;fill-rule:nonzero;stroke:black;stroke-width:0.72px;"/>
    </g>
    <g transform="matrix(1.15468,-0.666702,-0.666702,-1.15468,254.223,1332.14)">
        <path d="M495.956,366.55L515.874,366.55" style="fill:none;fill-rule:nonzero;stroke:black;stroke-width:0.72px;"/>
    </g>
    <g transform="matrix(0,-1.33333,-1.33333,0,1051.33,1254.57)">
        <path d="M487.33,351.61L507.25,351.61" style="fill:none;fill-rule:nonzero;stroke:black;stroke-width:0.72px;"/>
    </g>
    <g transform="matrix(1.15468,-0.666702,-0.666702,-1.15468,237.384,1348.98)">
        <path d="M513.206,336.67L533.124,336.67" style="fill:none;fill-rule:nonzero;stroke:black;stroke-width:0.72px;"/>
    </g>
    <g transform="matrix(-1.15468,-0.666702,-0.666702,1.15468,1402.64,559.984)">
        <path d="M495.956,336.67L515.874,336.67" style="fill:none;fill-rule:nonzero;stroke:black;stroke-width:0.72px;"/>
    </g>
    <g transform="matrix(1.15447,0.667067,0.667067,-1.15447,-209.79,640.949)">
        <path d="M530.819,338.03L545.291,338.03" style="fill:none;fill-rule:nonzero;stroke:black;stroke-width:0.72px;"/>
    </g>
    <g transform="matrix(0.782256,1.07975,1.07975,-0.782256,-191.923,353.085)">
        <path d="M471.045,347.055L484.715,347.055" style="fill:none;fill-rule:nonzero;stroke:black;stroke-width:0.72px;"/>
    </g>
    <g transform="matrix(-0.542401,1.21802,1.21802,0.542401,420.443,-137.948)">
        <path d="M475.456,327.36L483.864,327.36" style="fill:none;fill-rule:nonzero;stroke:black;stroke-width:0.72px;"/>
    </g>
    <g transform="matrix(-0.542401,1.21802,1.21802,0.542401,427.345,-142.43)">
        <path d="M479.136,327.36L487.544,327.36" style="fill:none;fill-rule:nonzero;stroke:black;stroke-width:0.72px;"/>
    </g>
    <g transform="matrix(0,1.33333,1.33333,0,99.14,93.1291)">
        <path d="M415.8,295.32L444.36,295.32" style="fill:none;fill-rule:nonzero;stroke:black;stroke-width:0.72px;"/>
    </g>
    <g transform="matrix(0,1.33333,1.33333,0,102.98,89.2891)">
        <path d="M418.68,295.32L447.24,295.32" style="fill:none;fill-rule:nonzero;stroke:black;stroke-width:0.72px;"/>
    </g>
    <g transform="matrix(1.33333,0,0,1.33333,-80.54,309.289)">
        <path d="M435.12,277.68L431.52,285.6L427.92,277.68" style="fill:none;fill-rule:nonzero;stroke:black;stroke-width:0.72px;"/>
    </g>
    <g transform="matrix(-1.07962,0.782437,0.782437,1.07962,707.627,164.42)">
        <path d="M394.545,240.125L414.465,240.125" style="fill:none;fill-rule:nonzero;stroke:black;stroke-width:0.72px;"/>
    </g>
    <g transform="matrix(-0.410979,-1.26841,-1.26841,0.410979,901.476,1174.94)">
        <path d="M389.55,224.805L409.47,224.805" style="fill:none;fill-rule:nonzero;stroke:black;stroke-width:0.72px;"/>
    </g>
    <g transform="matrix(-1.0782,-0.784388,-0.784388,1.0782,1122.15,811.229)">
        <path d="M410.664,240.11L430.586,240.11" style="fill:none;fill-rule:nonzero;stroke:black;stroke-width:0.72px;"/>
    </g>
    <g transform="matrix(-1.33333,-0.00133802,-0.00133802,1.33333,1019.87,486.695)">
        <path d="M402.58,215.32L422.51,215.32" style="fill:none;fill-rule:nonzero;stroke:black;stroke-width:0.72px;"/>
    </g>
    <g transform="matrix(0.412993,-1.26776,-1.26776,-0.412993,596.12,1393.01)">
        <path d="M415.635,224.78L435.555,224.78" style="fill:none;fill-rule:nonzero;stroke:black;stroke-width:0.72px;"/>
    </g>
    <g transform="matrix(0,-1.33333,-1.33333,0,862.647,1352.29)">
        <path d="M453.22,244.21L473.14,244.21" style="fill:none;fill-rule:nonzero;stroke:black;stroke-width:0.72px;"/>
    </g>
    <g transform="matrix(1.15468,0.666702,0.666702,-1.15468,-172.108,710.978)">
        <path d="M444.596,259.15L464.514,259.15" style="fill:none;fill-rule:nonzero;stroke:black;stroke-width:0.72px;"/>
    </g>
    <g transform="matrix(1.15468,-0.666702,-0.666702,-1.15468,170.362,1305.58)">
        <path d="M427.346,259.15L447.264,259.15" style="fill:none;fill-rule:nonzero;stroke:black;stroke-width:0.72px;"/>
    </g>
    <g transform="matrix(1.15468,0.666702,0.666702,-1.15468,-155.269,727.817)">
        <path d="M427.346,229.27L447.264,229.27" style="fill:none;fill-rule:nonzero;stroke:black;stroke-width:0.72px;"/>
    </g>
    <g transform="matrix(0,-1.33333,-1.33333,0,816.647,1306.29)">
        <path d="M418.72,244.21L438.64,244.21" style="fill:none;fill-rule:nonzero;stroke:black;stroke-width:0.72px;"/>
    </g>
    <g transform="matrix(0.667241,-1.15437,-1.15437,-0.667241,498.384,1456.08)">
        <path d="M472.666,227.83L475.924,227.83" style="fill:none;fill-rule:nonzero;stroke:black;stroke-width:0.72px;"/>
    </g>
    <g transform="matrix(0.669266,-1.1532,-1.1532,-0.669266,497.161,1452.48)">
        <path d="M470.715,229.15L473.305,229.15" style="fill:none;fill-rule:nonzero;stroke:black;stroke-width:0.72px;"/>
    </g>
    <g transform="matrix(0.6675,-1.15422,-1.15422,-0.6675,498.228,1449.03)">
        <path d="M468.761,230.47L470.679,230.47" style="fill:none;fill-rule:nonzero;stroke:black;stroke-width:0.72px;"/>
    </g>
    <g transform="matrix(0.663823,-1.15634,-1.15634,-0.663823,500.443,1445.66)">
        <path d="M466.817,231.79L468.063,231.79" style="fill:none;fill-rule:nonzero;stroke:black;stroke-width:0.72px;"/>
    </g>
    <g transform="matrix(0.668957,-1.15337,-1.15337,-0.668957,497.361,1441.95)">
        <path d="M464.866,233.11L465.444,233.11" style="fill:none;fill-rule:nonzero;stroke:black;stroke-width:0.72px;"/>
    </g>
    <g transform="matrix(1.15468,-0.666702,-0.666702,-1.15468,153.523,1322.42)">
        <path d="M444.596,229.27L464.514,229.27" style="fill:none;fill-rule:nonzero;stroke:black;stroke-width:0.72px;"/>
    </g>
    <g transform="matrix(0,-1.33333,-1.33333,0,799.807,1369.13)">
        <path d="M435.97,214.33L455.89,214.33" style="fill:none;fill-rule:nonzero;stroke:black;stroke-width:0.72px;"/>
    </g>
    <g transform="matrix(1.15468,-0.666702,-0.666702,-1.15468,136.683,1339.26)">
        <path d="M461.846,199.39L481.764,199.39" style="fill:none;fill-rule:nonzero;stroke:black;stroke-width:0.72px;"/>
    </g>
    <g transform="matrix(-1.15468,-0.666702,-0.666702,1.15468,1183.33,867.297)">
        <path d="M444.596,199.39L464.514,199.39" style="fill:none;fill-rule:nonzero;stroke:black;stroke-width:0.72px;"/>
    </g>
    <g transform="matrix(1.15447,0.667067,0.667067,-1.15447,-127.401,699.764)">
        <path d="M479.459,200.75L493.931,200.75" style="fill:none;fill-rule:nonzero;stroke:black;stroke-width:0.72px;"/>
    </g>
    <g transform="matrix(1.15496,-0.66621,-0.66621,-1.15496,159.469,1345.28)">
        <path d="M484.687,229.305L493.553,229.305" style="fill:none;fill-rule:nonzero;stroke:black;stroke-width:0.72px;"/>
    </g>
    <g transform="matrix(1.15423,0.667474,0.667474,-1.15423,-141.746,681.819)">
        <path d="M501.466,227.48L510.614,227.48" style="fill:none;fill-rule:nonzero;stroke:black;stroke-width:0.72px;"/>
    </g>
    <g transform="matrix(1.15423,0.667474,0.667474,-1.15423,-144.335,681.124)">
        <path d="M501.466,231.36L510.614,231.36" style="fill:none;fill-rule:nonzero;stroke:black;stroke-width:0.72px;"/>
    </g>
    <g transform="matrix(1.33333,0,0,1.33333,-80.54,419.049)">
        <path d="M534,240.48L568.08,240.48" style="fill:none;fill-rule:nonzero;stroke:black;stroke-width:0.72px;"/>
    </g>
    <g transform="matrix(1.33333,0,0,1.33333,-80.54,411.369)">
        <path d="M534,243.36L568.08,243.36" style="fill:none;fill-rule:nonzero;stroke:black;stroke-width:0.72px;"/>
    </g>
    <g transform="matrix(1.33333,0,0,1.33333,-80.54,415.209)">
        <path d="M563.52,238.32L571.44,241.92L563.52,245.52" style="fill:none;fill-rule:nonzero;stroke:black;stroke-width:0.72px;"/>
    </g>
    <g transform="matrix(1.33333,0,0,1.33333,-80.54,698.089)">
        <path d="M66.24,135.84L100.32,135.84" style="fill:none;fill-rule:nonzero;stroke:black;stroke-width:0.72px;"/>
    </g>
    <g transform="matrix(1.33333,0,0,1.33333,-80.54,690.409)">
        <path d="M66.24,138.72L100.32,138.72" style="fill:none;fill-rule:nonzero;stroke:black;stroke-width:0.72px;"/>
    </g>
    <g transform="matrix(1.33333,0,0,1.33333,-80.54,694.249)">
        <path d="M95.76,133.68L103.68,137.28L95.76,140.88" style="fill:none;fill-rule:nonzero;stroke:black;stroke-width:0.72px;"/>
    </g>
    <g transform="matrix(-1.07962,0.782437,0.782437,1.07962,98.9712,622.266)">
        <path d="M110.625,142.445L130.545,142.445" style="fill:none;fill-rule:nonzero;stroke:black;stroke-width:0.72px;"/>
    </g>
    <g transform="matrix(-0.410979,-1.26841,-1.26841,0.410979,282.332,985.199)">
        <path d="M105.63,127.125L125.55,127.125" style="fill:none;fill-rule:nonzero;stroke:black;stroke-width:0.72px;"/>
    </g>
    <g transform="matrix(-1.0782,-0.784388,-0.784388,1.0782,360.849,824.084)">
        <path d="M126.744,142.43L146.666,142.43" style="fill:none;fill-rule:nonzero;stroke:black;stroke-width:0.72px;"/>
    </g>
    <g transform="matrix(-1.33333,-0.00133802,-0.00133802,1.33333,262.617,746.795)">
        <path d="M118.66,117.64L138.59,117.64" style="fill:none;fill-rule:nonzero;stroke:black;stroke-width:0.72px;"/>
    </g>
    <g transform="matrix(0.412993,-1.26776,-1.26776,-0.412993,210.982,1122.96)">
        <path d="M131.715,127.1L151.635,127.1" style="fill:none;fill-rule:nonzero;stroke:black;stroke-width:0.72px;"/>
    </g>
    <g transform="matrix(0,-1.33333,-1.33333,0,353.847,1103.97)">
        <path d="M169.3,146.53L189.22,146.53" style="fill:none;fill-rule:nonzero;stroke:black;stroke-width:0.72px;"/>
    </g>
    <g transform="matrix(1.15468,0.666702,0.666702,-1.15468,-157.708,917.719)">
        <path d="M160.676,161.47L180.594,161.47" style="fill:none;fill-rule:nonzero;stroke:black;stroke-width:0.72px;"/>
    </g>
    <g transform="matrix(1.15468,-0.666702,-0.666702,-1.15468,54.5151,1133.74)">
        <path d="M143.426,161.47L163.344,161.47" style="fill:none;fill-rule:nonzero;stroke:black;stroke-width:0.72px;"/>
    </g>
    <g transform="matrix(1.15468,0.666702,0.666702,-1.15468,-140.869,934.558)">
        <path d="M143.426,131.59L163.344,131.59" style="fill:none;fill-rule:nonzero;stroke:black;stroke-width:0.72px;"/>
    </g>
    <g transform="matrix(0,-1.33333,-1.33333,0,307.847,1057.97)">
        <path d="M134.8,146.53L154.72,146.53" style="fill:none;fill-rule:nonzero;stroke:black;stroke-width:0.72px;"/>
    </g>
    <g transform="matrix(1.15463,0.666786,0.666786,-1.15463,-136.113,912.941)">
        <path d="M178.311,133.03L192.469,133.03" style="fill:none;fill-rule:nonzero;stroke:black;stroke-width:0.72px;"/>
    </g>
    <g transform="matrix(1.15468,-0.666702,-0.666702,-1.15468,37.6759,1150.58)">
        <path d="M160.676,131.59L180.594,131.59" style="fill:none;fill-rule:nonzero;stroke:black;stroke-width:0.72px;"/>
    </g>
    <g transform="matrix(0,-1.33333,-1.33333,0,291.007,1120.81)">
        <path d="M152.05,116.65L171.97,116.65" style="fill:none;fill-rule:nonzero;stroke:black;stroke-width:0.72px;"/>
    </g>
    <g transform="matrix(1.15468,-0.666702,-0.666702,-1.15468,20.8366,1167.42)">
        <path d="M177.926,101.71L197.844,101.71" style="fill:none;fill-rule:nonzero;stroke:black;stroke-width:0.72px;"/>
    </g>
    <g transform="matrix(-1.15468,-0.666702,-0.666702,1.15468,411.812,921.036)">
        <path d="M160.676,101.71L180.594,101.71" style="fill:none;fill-rule:nonzero;stroke:black;stroke-width:0.72px;"/>
    </g>
    <g transform="matrix(1.15447,0.667067,0.667067,-1.15447,-113.025,906.629)">
        <path d="M195.539,103.07L210.011,103.07" style="fill:none;fill-rule:nonzero;stroke:black;stroke-width:0.72px;"/>
    </g>
    <g transform="matrix(1.33333,0,0,1.33333,-80.54,698.089)">
        <path d="M213.36,135.84L247.44,135.84" style="fill:none;fill-rule:nonzero;stroke:black;stroke-width:0.72px;"/>
    </g>
    <g transform="matrix(1.33333,0,0,1.33333,-80.54,690.409)">
        <path d="M213.36,138.72L247.44,138.72" style="fill:none;fill-rule:nonzero;stroke:black;stroke-width:0.72px;"/>
    </g>
    <g transform="matrix(1.33333,0,0,1.33333,-80.54,694.249)">
        <path d="M242.88,133.68L250.8,137.28L242.88,140.88" style="fill:none;fill-rule:nonzero;stroke:black;stroke-width:0.72px;"/>
    </g>
    <g transform="matrix(-1.07962,0.782437,0.782437,1.07962,443.76,507.263)">
        <path d="M253.905,143.645L273.825,143.645" style="fill:none;fill-rule:nonzero;stroke:black;stroke-width:0.72px;"/>
    </g>
    <g transform="matrix(-0.410979,-1.26841,-1.26841,0.410979,533.779,1164.84)">
        <path d="M248.91,128.325L268.83,128.325" style="fill:none;fill-rule:nonzero;stroke:black;stroke-width:0.72px;"/>
    </g>
    <g transform="matrix(-1.0782,-0.784388,-0.784388,1.0782,707.315,933.578)">
        <path d="M270.024,143.63L289.946,143.63" style="fill:none;fill-rule:nonzero;stroke:black;stroke-width:0.72px;"/>
    </g>
    <g transform="matrix(-1.33333,-0.00133802,-0.00133802,1.33333,644.699,743.786)">
        <path d="M261.94,118.84L281.87,118.84" style="fill:none;fill-rule:nonzero;stroke:black;stroke-width:0.72px;"/>
    </g>
    <g transform="matrix(0.412993,-1.26776,-1.26776,-0.412993,344.369,1303.5)">
        <path d="M274.995,128.3L294.915,128.3" style="fill:none;fill-rule:nonzero;stroke:black;stroke-width:0.72px;"/>
    </g>
    <g transform="matrix(0,-1.33333,-1.33333,0,546.487,1293.41)">
        <path d="M312.58,147.73L332.5,147.73" style="fill:none;fill-rule:nonzero;stroke:black;stroke-width:0.72px;"/>
    </g>
    <g transform="matrix(1.15468,0.666702,0.666702,-1.15468,-132.91,821.98)">
        <path d="M303.956,162.67L323.874,162.67" style="fill:none;fill-rule:nonzero;stroke:black;stroke-width:0.72px;"/>
    </g>
    <g transform="matrix(1.15468,-0.666702,-0.666702,-1.15468,80.9126,1229.05)">
        <path d="M286.706,162.67L306.624,162.67" style="fill:none;fill-rule:nonzero;stroke:black;stroke-width:0.72px;"/>
    </g>
    <g transform="matrix(1.15468,0.666702,0.666702,-1.15468,-116.071,838.818)">
        <path d="M286.706,132.79L306.624,132.79" style="fill:none;fill-rule:nonzero;stroke:black;stroke-width:0.72px;"/>
    </g>
    <g transform="matrix(0,-1.33333,-1.33333,0,500.487,1247.41)">
        <path d="M278.08,147.73L298,147.73" style="fill:none;fill-rule:nonzero;stroke:black;stroke-width:0.72px;"/>
    </g>
    <g transform="matrix(0.666766,-1.15464,-1.15464,-0.666766,293.526,1358.77)">
        <path d="M332.5,131.07L335.78,131.07" style="fill:none;fill-rule:nonzero;stroke:black;stroke-width:0.72px;"/>
    </g>
    <g transform="matrix(0.668048,-1.1539,-1.1539,-0.668048,293,1355.17)">
        <path d="M330.533,132.39L333.167,132.39" style="fill:none;fill-rule:nonzero;stroke:black;stroke-width:0.72px;"/>
    </g>
    <g transform="matrix(0.665133,-1.15558,-1.15558,-0.665133,294.189,1351.82)">
        <path d="M328.573,133.71L330.557,133.71" style="fill:none;fill-rule:nonzero;stroke:black;stroke-width:0.72px;"/>
    </g>
    <g transform="matrix(0.666871,-1.15458,-1.15458,-0.666871,293.48,1348.2)">
        <path d="M326.605,135.03L327.945,135.03" style="fill:none;fill-rule:nonzero;stroke:black;stroke-width:0.72px;"/>
    </g>
    <g transform="matrix(0.671828,-1.15171,-1.15171,-0.671828,291.481,1344.43)">
        <path d="M324.648,136.35L325.342,136.35" style="fill:none;fill-rule:nonzero;stroke:black;stroke-width:0.72px;"/>
    </g>
    <g transform="matrix(0.8,-1.06667,-1.06667,-0.8,238.417,1331.12)">
        <path d="M322.68,137.67L322.73,137.67" style="fill:none;fill-rule:nonzero;stroke:black;stroke-width:0.72px;"/>
    </g>
    <g transform="matrix(1.15468,-0.666702,-0.666702,-1.15468,64.0733,1245.89)">
        <path d="M303.956,132.79L323.874,132.79" style="fill:none;fill-rule:nonzero;stroke:black;stroke-width:0.72px;"/>
    </g>
    <g transform="matrix(0,-1.33333,-1.33333,0,483.647,1310.25)">
        <path d="M295.33,117.85L315.25,117.85" style="fill:none;fill-rule:nonzero;stroke:black;stroke-width:0.72px;"/>
    </g>
    <g transform="matrix(-1.15468,-0.666702,-0.666702,1.15468,769.095,1013.58)">
        <path d="M303.956,102.91L323.874,102.91" style="fill:none;fill-rule:nonzero;stroke:black;stroke-width:0.72px;"/>
    </g>
    <g transform="matrix(1.15539,-0.665479,-0.665479,-1.15539,70.876,1269.61)">
        <path d="M347.926,133.865L352.634,133.865" style="fill:none;fill-rule:nonzero;stroke:black;stroke-width:0.72px;"/>
    </g>
    <g transform="matrix(-1.15447,-0.667067,-0.667067,1.15447,849.932,1031.77)">
        <path d="M338.819,104.27L353.291,104.27" style="fill:none;fill-rule:nonzero;stroke:black;stroke-width:0.72px;"/>
    </g>
    <g transform="matrix(1.15468,-0.666702,-0.666702,-1.15468,47.234,1262.73)">
        <path d="M321.206,102.91L341.124,102.91" style="fill:none;fill-rule:nonzero;stroke:black;stroke-width:0.72px;"/>
    </g>
    <g transform="matrix(1.15469,0.666693,0.666693,-1.15469,-100.349,806.267)">
        <path d="M343.27,122.995L352.97,122.995" style="fill:none;fill-rule:nonzero;stroke:black;stroke-width:0.72px;"/>
    </g>
    <g transform="matrix(0,-1.33333,-1.33333,0,556.193,1329.7)">
        <path d="M334.99,137.76L344.59,137.76" style="fill:none;fill-rule:nonzero;stroke:black;stroke-width:0.72px;"/>
    </g>
    <g transform="matrix(1.15507,-0.666028,-0.666028,-1.15507,83.2459,1265.13)">
        <path d="M344.066,152.675L352.654,152.675" style="fill:none;fill-rule:nonzero;stroke:black;stroke-width:0.72px;"/>
    </g>
    <g transform="matrix(1.33333,0,0,1.33333,-80.54,709.609)">
        <path d="M372.96,131.52L407.04,131.52" style="fill:none;fill-rule:nonzero;stroke:black;stroke-width:0.72px;"/>
    </g>
    <g transform="matrix(1.33333,0,0,1.33333,-80.54,701.929)">
        <path d="M372.96,134.4L407.04,134.4" style="fill:none;fill-rule:nonzero;stroke:black;stroke-width:0.72px;"/>
    </g>
    <g transform="matrix(1.33333,0,0,1.33333,-80.54,705.769)">
        <path d="M402.48,129.36L410.4,132.96L402.48,136.56" style="fill:none;fill-rule:nonzero;stroke:black;stroke-width:0.72px;"/>
    </g>
    <g transform="matrix(-1.07962,0.782437,0.782437,1.07962,834.438,383.78)">
        <path d="M415.425,142.445L435.345,142.445" style="fill:none;fill-rule:nonzero;stroke:black;stroke-width:0.72px;"/>
    </g>
    <g transform="matrix(-0.410979,-1.26841,-1.26841,0.410979,813.999,1371.81)">
        <path d="M410.43,127.125L430.35,127.125" style="fill:none;fill-rule:nonzero;stroke:black;stroke-width:0.72px;"/>
    </g>
    <g transform="matrix(-1.0782,-0.784388,-0.784388,1.0782,1095.88,1063.17)">
        <path d="M431.544,142.43L451.466,142.43" style="fill:none;fill-rule:nonzero;stroke:black;stroke-width:0.72px;"/>
    </g>
    <g transform="matrix(-1.33333,-0.00133802,-0.00133802,1.33333,1075.42,747.202)">
        <path d="M423.46,117.64L443.39,117.64" style="fill:none;fill-rule:nonzero;stroke:black;stroke-width:0.72px;"/>
    </g>
    <g transform="matrix(0.412993,-1.26776,-1.26776,-0.412993,491.501,1509.38)">
        <path d="M436.515,127.1L456.435,127.1" style="fill:none;fill-rule:nonzero;stroke:black;stroke-width:0.72px;"/>
    </g>
    <g transform="matrix(0,-1.33333,-1.33333,0,760.247,1510.37)">
        <path d="M474.1,146.53L494.02,146.53" style="fill:none;fill-rule:nonzero;stroke:black;stroke-width:0.72px;"/>
    </g>
    <g transform="matrix(1.15468,0.666702,0.666702,-1.15468,-103.254,714.508)">
        <path d="M465.476,161.47L485.394,161.47" style="fill:none;fill-rule:nonzero;stroke:black;stroke-width:0.72px;"/>
    </g>
    <g transform="matrix(1.15468,-0.666702,-0.666702,-1.15468,108.969,1336.95)">
        <path d="M448.226,161.47L468.144,161.47" style="fill:none;fill-rule:nonzero;stroke:black;stroke-width:0.72px;"/>
    </g>
    <g transform="matrix(1.15468,0.666702,0.666702,-1.15468,-86.4151,731.347)">
        <path d="M448.226,131.59L468.144,131.59" style="fill:none;fill-rule:nonzero;stroke:black;stroke-width:0.72px;"/>
    </g>
    <g transform="matrix(0,-1.33333,-1.33333,0,714.247,1464.37)">
        <path d="M439.6,146.53L459.52,146.53" style="fill:none;fill-rule:nonzero;stroke:black;stroke-width:0.72px;"/>
    </g>
    <g transform="matrix(0.666766,-1.15464,-1.15464,-0.666766,399.804,1546.07)">
        <path d="M494.02,129.87L497.3,129.87" style="fill:none;fill-rule:nonzero;stroke:black;stroke-width:0.72px;"/>
    </g>
    <g transform="matrix(0.668048,-1.1539,-1.1539,-0.668048,399.072,1542.35)">
        <path d="M492.053,131.19L494.687,131.19" style="fill:none;fill-rule:nonzero;stroke:black;stroke-width:0.72px;"/>
    </g>
    <g transform="matrix(0.665133,-1.15558,-1.15558,-0.665133,400.73,1539.28)">
        <path d="M490.093,132.51L492.077,132.51" style="fill:none;fill-rule:nonzero;stroke:black;stroke-width:0.72px;"/>
    </g>
    <g transform="matrix(0.666871,-1.15458,-1.15458,-0.666871,399.741,1535.49)">
        <path d="M488.125,133.83L489.465,133.83" style="fill:none;fill-rule:nonzero;stroke:black;stroke-width:0.72px;"/>
    </g>
    <g transform="matrix(0.671828,-1.15171,-1.15171,-0.671828,396.945,1531.25)">
        <path d="M486.168,135.15L486.862,135.15" style="fill:none;fill-rule:nonzero;stroke:black;stroke-width:0.72px;"/>
    </g>
    <g transform="matrix(0.8,-1.06667,-1.06667,-0.8,323.281,1504.05)">
        <path d="M484.2,136.47L484.25,136.47" style="fill:none;fill-rule:nonzero;stroke:black;stroke-width:0.72px;"/>
    </g>
    <g transform="matrix(1.15468,-0.666702,-0.666702,-1.15468,92.1294,1353.79)">
        <path d="M465.476,131.59L485.394,131.59" style="fill:none;fill-rule:nonzero;stroke:black;stroke-width:0.72px;"/>
    </g>
    <g transform="matrix(0,-1.33333,-1.33333,0,697.407,1527.21)">
        <path d="M456.85,116.65L476.77,116.65" style="fill:none;fill-rule:nonzero;stroke:black;stroke-width:0.72px;"/>
    </g>
    <g transform="matrix(-1.15468,-0.666702,-0.666702,1.15468,1170.16,1124.25)">
        <path d="M465.476,101.71L485.394,101.71" style="fill:none;fill-rule:nonzero;stroke:black;stroke-width:0.72px;"/>
    </g>
    <g transform="matrix(1.15469,-0.666693,-0.666693,-1.15469,98.1197,1376.63)">
        <path d="M504.79,131.415L514.49,131.415" style="fill:none;fill-rule:nonzero;stroke:black;stroke-width:0.72px;"/>
    </g>
    <g transform="matrix(-1.15447,-0.667067,-0.667067,1.15447,1250.96,1142.5)">
        <path d="M500.339,103.07L514.811,103.07" style="fill:none;fill-rule:nonzero;stroke:black;stroke-width:0.72px;"/>
    </g>
    <g transform="matrix(1.15468,-0.666702,-0.666702,-1.15468,75.2901,1370.63)">
        <path d="M482.726,101.71L502.644,101.71" style="fill:none;fill-rule:nonzero;stroke:black;stroke-width:0.72px;"/>
    </g>
    <g transform="matrix(1.15469,0.666693,0.666693,-1.15469,-70.6937,698.797)">
        <path d="M504.79,121.795L514.49,121.795" style="fill:none;fill-rule:nonzero;stroke:black;stroke-width:0.72px;"/>
    </g>
    <g transform="matrix(1.33333,0,0,1.33333,-80.54,710.889)">
        <path d="M531.84,131.04L565.92,131.04" style="fill:none;fill-rule:nonzero;stroke:black;stroke-width:0.72px;"/>
    </g>
    <g transform="matrix(1.33333,0,0,1.33333,-80.54,703.209)">
        <path d="M531.84,133.92L565.92,133.92" style="fill:none;fill-rule:nonzero;stroke:black;stroke-width:0.72px;"/>
    </g>
    <g transform="matrix(1.33333,0,0,1.33333,-80.54,707.049)">
        <path d="M561.36,128.88L569.28,132.48L561.36,136.08" style="fill:none;fill-rule:nonzero;stroke:black;stroke-width:0.72px;"/>
    </g>
</svg>
