<?xml version="1.0" encoding="UTF-8" standalone="no"?>
<!DOCTYPE svg PUBLIC "-//W3C//DTD SVG 1.1//EN" "http://www.w3.org/Graphics/SVG/1.1/DTD/svg11.dtd">
<svg width="100%" height="100%" viewBox="0 0 640 345" version="1.1" xmlns="http://www.w3.org/2000/svg" xmlns:xlink="http://www.w3.org/1999/xlink" xml:space="preserve" xmlns:serif="http://www.serif.com/" style="fill-rule:evenodd;clip-rule:evenodd;stroke-linecap:round;stroke-linejoin:round;stroke-miterlimit:10;">
    <g transform="matrix(1.33333,0,0,1.33333,-90.9557,-946.433)">
        <path d="M71.52,747.36L105.6,747.36" style="fill:none;fill-rule:nonzero;stroke:black;stroke-width:0.72px;"/>
    </g>
    <g transform="matrix(1.33333,0,0,1.33333,-90.9557,-954.113)">
        <path d="M71.52,750.24L105.6,750.24" style="fill:none;fill-rule:nonzero;stroke:black;stroke-width:0.72px;"/>
    </g>
    <g transform="matrix(1.33333,0,0,1.33333,-90.9557,-950.273)">
        <path d="M101.04,745.2L108.96,748.8L101.04,752.4" style="fill:none;fill-rule:nonzero;stroke:black;stroke-width:0.72px;"/>
    </g>
    <g transform="matrix(1.33333,0,0,1.33333,-90.9557,-76.0333)">
        <text x="215.04px" y="136.8px" style="font-family:'ArialMT', 'Arial', sans-serif;font-size:10px;">CH</text>
        <text x="229.44px" y="139.44px" style="font-family:'ArialMT', 'Arial', sans-serif;font-size:8px;">3</text>
    </g>
    <g transform="matrix(1.33333,0,0,1.33333,-90.9557,-76.0333)">
        <text x="336px" y="133.2px" style="font-family:'ArialMT', 'Arial', sans-serif;font-size:10px;">CH</text>
        <text x="350.4px" y="135.84px" style="font-family:'ArialMT', 'Arial', sans-serif;font-size:8px;">3</text>
    </g>
    <g transform="matrix(1.33333,0,0,1.33333,-90.9557,-76.0333)">
        <text x="301.2px" y="113.28px" style="font-family:'ArialMT', 'Arial', sans-serif;font-size:10px;">O<tspan x="309.12px " y="113.28px ">H</tspan></text>
    </g>
    <g transform="matrix(1.33333,0,0,1.33333,-90.9557,-76.0333)">
        <text x="413.52px" y="123.12px" style="font-family:'ArialMT', 'Arial', sans-serif;font-size:10px;">O</text>
    </g>
    <g transform="matrix(1.33333,0,0,1.33333,-90.9557,-76.0333)">
        <text x="444.24px" y="97.68px" style="font-family:'ArialMT', 'Arial', sans-serif;font-size:18px;">+</text>
        <text x="463.44px" y="93.6px" style="font-family:'ArialMT', 'Arial', sans-serif;font-size:10px;">H</text>
        <text x="470.653px" y="96.24px" style="font-family:'ArialMT', 'Arial', sans-serif;font-size:8px;">3</text>
        <text x="474.975px" y="93.6px" style="font-family:'ArialMT', 'Arial', sans-serif;font-size:10px;">C</text>
    </g>
    <g transform="matrix(1.33333,0,0,1.33333,-90.9557,-76.0333)">
        <text x="526.08px" y="80.4px" style="font-family:'ArialMT', 'Arial', sans-serif;font-size:10px;">CH</text>
        <text x="540.48px" y="83.04px" style="font-family:'ArialMT', 'Arial', sans-serif;font-size:8px;">2</text>
    </g>
    <g transform="matrix(1.33333,0,0,1.33333,-90.9557,-76.0333)">
        <text x="540.48px" y="73.44px" style="font-family:'ArialMT', 'Arial', sans-serif;font-size:8px;">–</text>
    </g>
    <g transform="matrix(1.33333,0,0,1.33333,-90.9557,-76.0333)">
        <text x="435.6px" y="214.56px" style="font-family:'ArialMT', 'Arial', sans-serif;font-size:10px;">C</text>
        <text x="442.8px" y="207.6px" style="font-family:'ArialMT', 'Arial', sans-serif;font-size:8px;">+</text>
    </g>
    <g transform="matrix(1.33333,0,0,1.33333,-90.9557,-76.0333)">
        <text x="435.36px" y="234.48px" style="font-family:'ArialMT', 'Arial', sans-serif;font-size:10px;">O</text>
        <text x="443.28px" y="227.52px" style="font-family:'ArialMT', 'Arial', sans-serif;font-size:8px;">–</text>
    </g>
    <g transform="matrix(1.33333,0,0,1.33333,-90.9557,-76.0333)">
        <text x="147.84px" y="297.36px" style="font-family:'ArialMT', 'Arial', sans-serif;font-size:10px;">C</text>
        <text x="155.04px" y="290.4px" style="font-family:'ArialMT', 'Arial', sans-serif;font-size:8px;">+</text>
    </g>
    <g transform="matrix(1.33333,0,0,1.33333,-90.9557,-76.0333)">
        <text x="157.68px" y="278.4px" style="font-family:'ArialMT', 'Arial', sans-serif;font-size:10px;">O</text>
        <text x="165.6px" y="271.44px" style="font-family:'ArialMT', 'Arial', sans-serif;font-size:8px;">–</text>
    </g>
    <g transform="matrix(1.33333,0,0,1.33333,-90.9557,-76.0333)">
        <text x="298.8px" y="278.4px" style="font-family:'ArialMT', 'Arial', sans-serif;font-size:10px;">O<tspan x="306.72px " y="278.4px ">H</tspan></text>
    </g>
    <g transform="matrix(1.33333,0,0,1.33333,-90.9557,-76.0333)">
        <text x="282.24px" y="278.4px" style="font-family:'ArialMT', 'Arial', sans-serif;font-size:10px;">O<tspan x="290.16px " y="278.4px ">H</tspan></text>
    </g>
    <g transform="matrix(1.33333,0,0,1.33333,-90.9557,-76.0333)">
        <text x="439.92px" y="292.08px" style="font-family:'ArialMT', 'Arial', sans-serif;font-size:10px;">O</text>
    </g>
    <g transform="matrix(-1.07962,0.782437,0.782437,1.07962,-378.322,-872.783)">
        <path d="M115.665,754.685L135.585,754.685" style="fill:none;fill-rule:nonzero;stroke:black;stroke-width:0.72px;"/>
    </g>
    <g transform="matrix(-0.410979,-1.26841,-1.26841,0.410979,1057.28,-90.1484)">
        <path d="M110.67,739.365L130.59,739.365" style="fill:none;fill-rule:nonzero;stroke:black;stroke-width:0.72px;"/>
    </g>
    <g transform="matrix(-1.0782,-0.784388,-0.784388,1.0782,842.821,-662.201)">
        <path d="M131.784,754.67L151.706,754.67" style="fill:none;fill-rule:nonzero;stroke:black;stroke-width:0.72px;"/>
    </g>
    <g transform="matrix(-1.33333,-0.00133802,-0.00133802,1.33333,266.461,-899.641)">
        <path d="M123.7,729.88L143.63,729.88" style="fill:none;fill-rule:nonzero;stroke:black;stroke-width:0.72px;"/>
    </g>
    <g transform="matrix(0.412993,-1.26776,-1.26776,-0.412993,981.378,552.081)">
        <path d="M136.755,739.34L156.675,739.34" style="fill:none;fill-rule:nonzero;stroke:black;stroke-width:0.72px;"/>
    </g>
    <g transform="matrix(0,-1.33333,-1.33333,0,1166.47,280.567)">
        <path d="M174.34,758.77L194.26,758.77" style="fill:none;fill-rule:nonzero;stroke:black;stroke-width:0.72px;"/>
    </g>
    <g transform="matrix(1.15468,0.666702,0.666702,-1.15468,-575.405,791.178)">
        <path d="M165.716,773.71L185.634,773.71" style="fill:none;fill-rule:nonzero;stroke:black;stroke-width:0.72px;"/>
    </g>
    <g transform="matrix(1.15468,-0.666702,-0.666702,-1.15468,453.182,1013.92)">
        <path d="M148.466,773.71L168.384,773.71" style="fill:none;fill-rule:nonzero;stroke:black;stroke-width:0.72px;"/>
    </g>
    <g transform="matrix(1.15468,0.666702,0.666702,-1.15468,-558.566,808.017)">
        <path d="M148.466,743.83L168.384,743.83" style="fill:none;fill-rule:nonzero;stroke:black;stroke-width:0.72px;"/>
    </g>
    <g transform="matrix(0,-1.33333,-1.33333,0,1120.47,234.567)">
        <path d="M139.84,758.77L159.76,758.77" style="fill:none;fill-rule:nonzero;stroke:black;stroke-width:0.72px;"/>
    </g>
    <g transform="matrix(1.15468,-0.666702,-0.666702,-1.15468,436.342,1030.76)">
        <path d="M165.716,743.83L185.634,743.83" style="fill:none;fill-rule:nonzero;stroke:black;stroke-width:0.72px;"/>
    </g>
    <g transform="matrix(1.15478,-0.666528,-0.666528,-1.15478,437.834,1029.16)">
        <path d="M165.688,746.74L182.292,746.74" style="fill:none;fill-rule:nonzero;stroke:black;stroke-width:0.72px;"/>
    </g>
    <g transform="matrix(0,-1.33333,-1.33333,0,1103.63,297.407)">
        <path d="M157.09,728.89L177.01,728.89" style="fill:none;fill-rule:nonzero;stroke:black;stroke-width:0.72px;"/>
    </g>
    <g transform="matrix(1.15468,-0.666702,-0.666702,-1.15468,419.503,1047.6)">
        <path d="M182.966,713.95L202.884,713.95" style="fill:none;fill-rule:nonzero;stroke:black;stroke-width:0.72px;"/>
    </g>
    <g transform="matrix(-1.15468,-0.666702,-0.666702,1.15468,822.118,-612.668)">
        <path d="M165.716,713.95L185.634,713.95" style="fill:none;fill-rule:nonzero;stroke:black;stroke-width:0.72px;"/>
    </g>
    <g transform="matrix(1.15447,0.667067,0.667067,-1.15447,-530.945,779.957)">
        <path d="M200.579,715.31L215.051,715.31" style="fill:none;fill-rule:nonzero;stroke:black;stroke-width:0.72px;"/>
    </g>
    <g transform="matrix(1.33333,0,0,1.33333,-90.9557,-953.473)">
        <path d="M196.56,750L230.64,750" style="fill:none;fill-rule:nonzero;stroke:black;stroke-width:0.72px;"/>
    </g>
    <g transform="matrix(1.33333,0,0,1.33333,-90.9557,-961.153)">
        <path d="M196.56,752.88L230.64,752.88" style="fill:none;fill-rule:nonzero;stroke:black;stroke-width:0.72px;"/>
    </g>
    <g transform="matrix(1.33333,0,0,1.33333,-90.9557,-957.313)">
        <path d="M226.08,747.84L234,751.44L226.08,755.04" style="fill:none;fill-rule:nonzero;stroke:black;stroke-width:0.72px;"/>
    </g>
    <g transform="matrix(-1.07962,0.782437,0.782437,1.07962,-89.2689,-976.114)">
        <path d="M236.625,758.285L256.545,758.285" style="fill:none;fill-rule:nonzero;stroke:black;stroke-width:0.72px;"/>
    </g>
    <g transform="matrix(-0.410979,-1.26841,-1.26841,0.410979,1272.84,56.9994)">
        <path d="M231.63,742.965L251.55,742.965" style="fill:none;fill-rule:nonzero;stroke:black;stroke-width:0.72px;"/>
    </g>
    <g transform="matrix(-1.0782,-0.784388,-0.784388,1.0782,1137.34,-576.003)">
        <path d="M252.744,758.27L272.666,758.27" style="fill:none;fill-rule:nonzero;stroke:black;stroke-width:0.72px;"/>
    </g>
    <g transform="matrix(-1.33333,-0.00133802,-0.00133802,1.33333,589.026,-909.079)">
        <path d="M244.66,733.48L264.59,733.48" style="fill:none;fill-rule:nonzero;stroke:black;stroke-width:0.72px;"/>
    </g>
    <g transform="matrix(0.412993,-1.26776,-1.26776,-0.412993,1097.27,702.116)">
        <path d="M257.715,742.94L277.635,742.94" style="fill:none;fill-rule:nonzero;stroke:black;stroke-width:0.72px;"/>
    </g>
    <g transform="matrix(0,-1.33333,-1.33333,0,1332.55,437.047)">
        <path d="M295.3,762.37L315.22,762.37" style="fill:none;fill-rule:nonzero;stroke:black;stroke-width:0.72px;"/>
    </g>
    <g transform="matrix(1.15468,0.666702,0.666702,-1.15468,-556.195,709.89)">
        <path d="M286.676,777.31L306.594,777.31" style="fill:none;fill-rule:nonzero;stroke:black;stroke-width:0.72px;"/>
    </g>
    <g transform="matrix(1.15468,-0.666702,-0.666702,-1.15468,477.192,1093.92)">
        <path d="M269.426,777.31L289.344,777.31" style="fill:none;fill-rule:nonzero;stroke:black;stroke-width:0.72px;"/>
    </g>
    <g transform="matrix(1.15468,0.666702,0.666702,-1.15468,-539.356,726.729)">
        <path d="M269.426,747.43L289.344,747.43" style="fill:none;fill-rule:nonzero;stroke:black;stroke-width:0.72px;"/>
    </g>
    <g transform="matrix(0,-1.33333,-1.33333,0,1286.55,391.047)">
        <path d="M260.8,762.37L280.72,762.37" style="fill:none;fill-rule:nonzero;stroke:black;stroke-width:0.72px;"/>
    </g>
    <g transform="matrix(1.15468,-0.666702,-0.666702,-1.15468,460.352,1110.76)">
        <path d="M286.676,747.43L306.594,747.43" style="fill:none;fill-rule:nonzero;stroke:black;stroke-width:0.72px;"/>
    </g>
    <g transform="matrix(0,-1.33333,-1.33333,0,1269.71,453.887)">
        <path d="M278.05,732.49L297.97,732.49" style="fill:none;fill-rule:nonzero;stroke:black;stroke-width:0.72px;"/>
    </g>
    <g transform="matrix(1.15468,-0.666702,-0.666702,-1.15468,443.513,1127.6)">
        <path d="M303.926,717.55L323.844,717.55" style="fill:none;fill-rule:nonzero;stroke:black;stroke-width:0.72px;"/>
    </g>
    <g transform="matrix(-1.15468,-0.666702,-0.666702,1.15468,1125.47,-540.98)">
        <path d="M286.676,717.55L306.594,717.55" style="fill:none;fill-rule:nonzero;stroke:black;stroke-width:0.72px;"/>
    </g>
    <g transform="matrix(1.15447,0.667067,0.667067,-1.15447,-511.711,698.624)">
        <path d="M321.539,718.91L336.011,718.91" style="fill:none;fill-rule:nonzero;stroke:black;stroke-width:0.72px;"/>
    </g>
    <g transform="matrix(1.15433,0.667304,0.667304,-1.15433,-531.388,717.989)">
        <path d="M287.062,738.915L301.188,738.915" style="fill:none;fill-rule:nonzero;stroke:black;stroke-width:0.72px;"/>
    </g>
    <g transform="matrix(1.33333,0,0,1.33333,-90.9557,-929.473)">
        <path d="M293.04,739.92L294.72,738.72L296.4,738L298.32,737.76L299.76,738L300.96,738.24L302.16,738.72L303.12,739.44L305.04,741.36L305.52,742.32L306,743.52L306.24,744.24" style="fill:none;fill-rule:nonzero;stroke:black;stroke-width:0.48px;"/>
    </g>
    <g transform="matrix(-1.08498,0.774984,0.774984,1.08498,50.6126,-984.121)">
        <path d="M293.577,744.062L301.835,744.062L294.497,747.828L295.558,745.596L293.577,744.062Z" style="stroke:black;stroke-width:0.48px;"/>
    </g>
    <g transform="matrix(1.33333,0,0,1.33333,-90.9557,-876.993)">
        <path d="M299.28,740.16L295.92,741.12L292.56,741.36L290.64,741.36L288.96,741.12L285.6,740.16L284.16,739.68L282.72,738.96L279.84,737.04L278.64,736.08L277.44,734.88L276.48,733.68L275.52,732.24L274.56,731.04L273.84,729.6L273.12,727.92L272.64,726.48L272.16,724.8L271.92,723.12L271.92,718.56L272.88,714.24L273.6,712.32L274.56,710.4L276.96,707.04L278.4,705.6L280.08,704.16L281.76,702.96L283.68,702L284.88,701.52L285.6,701.28" style="fill:none;fill-rule:nonzero;stroke:black;stroke-width:0.48px;"/>
    </g>
    <g transform="matrix(1.21516,-0.548782,-0.548782,-1.21516,328.647,1125.68)">
        <path d="M291.348,700.673L299.511,700.673L292.272,704.469L293.33,702.148L291.348,700.673Z" style="stroke:black;stroke-width:0.48px;"/>
    </g>
    <g transform="matrix(1.33333,0,0,1.33333,-90.9557,-955.393)">
        <path d="M319.92,750.72L354,750.72" style="fill:none;fill-rule:nonzero;stroke:black;stroke-width:0.72px;"/>
    </g>
    <g transform="matrix(1.33333,0,0,1.33333,-90.9557,-963.073)">
        <path d="M319.92,753.6L354,753.6" style="fill:none;fill-rule:nonzero;stroke:black;stroke-width:0.72px;"/>
    </g>
    <g transform="matrix(1.33333,0,0,1.33333,-90.9557,-959.233)">
        <path d="M349.44,748.56L357.36,752.16L349.44,755.76" style="fill:none;fill-rule:nonzero;stroke:black;stroke-width:0.72px;"/>
    </g>
    <g transform="matrix(-1.07962,0.782437,0.782437,1.07962,222.682,-1077.91)">
        <path d="M365.985,758.525L385.905,758.525" style="fill:none;fill-rule:nonzero;stroke:black;stroke-width:0.72px;"/>
    </g>
    <g transform="matrix(-0.410979,-1.26841,-1.26841,0.410979,1498.79,220.663)">
        <path d="M360.99,743.205L380.91,743.205" style="fill:none;fill-rule:nonzero;stroke:black;stroke-width:0.72px;"/>
    </g>
    <g transform="matrix(-1.0782,-0.784388,-0.784388,1.0782,1449.49,-475.114)">
        <path d="M382.104,758.51L402.026,758.51" style="fill:none;fill-rule:nonzero;stroke:black;stroke-width:0.72px;"/>
    </g>
    <g transform="matrix(-1.33333,-0.00133802,-0.00133802,1.33333,933.986,-909.546)">
        <path d="M374.02,733.72L393.95,733.72" style="fill:none;fill-rule:nonzero;stroke:black;stroke-width:0.72px;"/>
    </g>
    <g transform="matrix(0.412993,-1.26776,-1.26776,-0.412993,1216.63,865.893)">
        <path d="M387.075,743.18L406.995,743.18" style="fill:none;fill-rule:nonzero;stroke:black;stroke-width:0.72px;"/>
    </g>
    <g transform="matrix(0,-1.33333,-1.33333,0,1505.35,609.207)">
        <path d="M424.66,762.61L444.58,762.61" style="fill:none;fill-rule:nonzero;stroke:black;stroke-width:0.72px;"/>
    </g>
    <g transform="matrix(1.15468,0.666702,0.666702,-1.15468,-533.245,623.603)">
        <path d="M416.036,777.55L435.954,777.55" style="fill:none;fill-rule:nonzero;stroke:black;stroke-width:0.72px;"/>
    </g>
    <g transform="matrix(1.15468,-0.666702,-0.666702,-1.15468,500.462,1180.13)">
        <path d="M398.786,777.55L418.704,777.55" style="fill:none;fill-rule:nonzero;stroke:black;stroke-width:0.72px;"/>
    </g>
    <g transform="matrix(1.15468,0.666702,0.666702,-1.15468,-516.405,640.442)">
        <path d="M398.786,747.67L418.704,747.67" style="fill:none;fill-rule:nonzero;stroke:black;stroke-width:0.72px;"/>
    </g>
    <g transform="matrix(0,-1.33333,-1.33333,0,1459.35,563.207)">
        <path d="M390.16,762.61L410.08,762.61" style="fill:none;fill-rule:nonzero;stroke:black;stroke-width:0.72px;"/>
    </g>
    <g transform="matrix(1.15468,-0.666702,-0.666702,-1.15468,483.623,1196.96)">
        <path d="M416.036,747.67L435.954,747.67" style="fill:none;fill-rule:nonzero;stroke:black;stroke-width:0.72px;"/>
    </g>
    <g transform="matrix(0,-1.33333,-1.33333,0,1448.18,624.853)">
        <path d="M411.665,735.305L426.435,735.305" style="fill:none;fill-rule:nonzero;stroke:black;stroke-width:0.72px;"/>
    </g>
    <g transform="matrix(0,-1.33333,-1.33333,0,1443.7,620.373)">
        <path d="M408.305,735.305L423.075,735.305" style="fill:none;fill-rule:nonzero;stroke:black;stroke-width:0.72px;"/>
    </g>
    <g transform="matrix(-1.11278,0.734507,0.734507,1.11278,547.885,-1170.23)">
        <path d="M481.919,759.35L496.441,759.35" style="fill:none;fill-rule:nonzero;stroke:black;stroke-width:0.72px;"/>
    </g>
    <g transform="matrix(-1.19284,-0.595749,-0.595749,1.19284,1634.73,-570.237)">
        <path d="M494.191,758.9L514.109,758.9" style="fill:none;fill-rule:nonzero;stroke:black;stroke-width:0.72px;"/>
    </g>
    <g transform="matrix(-1.11237,0.735124,0.735124,1.11237,621.041,-1189.98)">
        <path d="M511.862,758.435L526.318,758.435" style="fill:none;fill-rule:nonzero;stroke:black;stroke-width:0.72px;"/>
    </g>
    <g transform="matrix(0,1.33333,1.33333,0,-460.236,-424.833)">
        <path d="M398.16,690.24L428.4,690.24" style="fill:none;fill-rule:nonzero;stroke:black;stroke-width:0.72px;"/>
    </g>
    <g transform="matrix(1.33333,0,0,1.33333,-90.9557,-764.353)">
        <path d="M415.2,675.12L413.28,683.04L411.36,675.12" style="fill:none;fill-rule:nonzero;stroke:black;stroke-width:0.72px;"/>
    </g>
    <g transform="matrix(1.33333,0,0,1.33333,-90.9557,-823.873)">
        <path d="M415.2,705.36L413.28,697.44L411.36,705.36" style="fill:none;fill-rule:nonzero;stroke:black;stroke-width:0.72px;"/>
    </g>
    <g transform="matrix(-1.07962,0.782437,0.782437,1.07962,362.513,-826.291)">
        <path d="M387.825,647.165L407.745,647.165" style="fill:none;fill-rule:nonzero;stroke:black;stroke-width:0.72px;"/>
    </g>
    <g transform="matrix(-0.410979,-1.26841,-1.26841,0.410979,1395.63,442.612)">
        <path d="M382.83,631.845L402.75,631.845" style="fill:none;fill-rule:nonzero;stroke:black;stroke-width:0.72px;"/>
    </g>
    <g transform="matrix(-1.0782,-0.784388,-0.784388,1.0782,1414.81,-189.434)">
        <path d="M403.944,647.15L423.866,647.15" style="fill:none;fill-rule:nonzero;stroke:black;stroke-width:0.72px;"/>
    </g>
    <g transform="matrix(-1.33333,-0.00133802,-0.00133802,1.33333,992.077,-612.557)">
        <path d="M395.86,622.36L415.79,622.36" style="fill:none;fill-rule:nonzero;stroke:black;stroke-width:0.72px;"/>
    </g>
    <g transform="matrix(0.412993,-1.26776,-1.26776,-0.412993,1095.55,996.07)">
        <path d="M408.915,631.82L428.835,631.82" style="fill:none;fill-rule:nonzero;stroke:black;stroke-width:0.72px;"/>
    </g>
    <g transform="matrix(0,-1.33333,-1.33333,0,1385.99,786.807)">
        <path d="M446.5,651.25L466.42,651.25" style="fill:none;fill-rule:nonzero;stroke:black;stroke-width:0.72px;"/>
    </g>
    <g transform="matrix(1.15468,0.666702,0.666702,-1.15468,-455.099,628.937)">
        <path d="M437.876,666.19L457.794,666.19" style="fill:none;fill-rule:nonzero;stroke:black;stroke-width:0.72px;"/>
    </g>
    <g transform="matrix(1.15468,-0.666702,-0.666702,-1.15468,430.12,1214.58)">
        <path d="M420.626,666.19L440.544,666.19" style="fill:none;fill-rule:nonzero;stroke:black;stroke-width:0.72px;"/>
    </g>
    <g transform="matrix(1.15434,0.667295,0.667295,-1.15434,-439.776,646.592)">
        <path d="M420.977,637.625L435.623,637.625" style="fill:none;fill-rule:nonzero;stroke:black;stroke-width:0.72px;"/>
    </g>
    <g transform="matrix(0,-1.33333,-1.33333,0,1339.99,740.807)">
        <path d="M412,651.25L431.92,651.25" style="fill:none;fill-rule:nonzero;stroke:black;stroke-width:0.72px;"/>
    </g>
    <g transform="matrix(1.15468,-0.666706,-0.666706,-1.15468,415.851,1233.99)">
        <path d="M447.69,638.94L457.09,638.94" style="fill:none;fill-rule:nonzero;stroke:black;stroke-width:0.72px;"/>
    </g>
    <g transform="matrix(0,1.33333,1.33333,0,-333.822,-367.567)">
        <path d="M434.41,621.36L444.01,621.36" style="fill:none;fill-rule:nonzero;stroke:black;stroke-width:0.72px;"/>
    </g>
    <g transform="matrix(1.33333,0,0,1.33333,-90.9557,-676.033)">
        <path d="M423.36,639.36L425.76,638.64L428.16,638.4L429.36,638.4L431.76,638.88L432.72,639.12L433.92,639.6L434.88,640.08L436.08,641.04L437.52,642L438.48,643.2L439.44,644.64L440.16,645.6L440.4,646.56L440.88,647.76L441.12,648.72L441.6,651.12L441.6,651.6L441.36,653.52" style="fill:none;fill-rule:nonzero;stroke:black;stroke-width:0.48px;"/>
    </g>
    <g transform="matrix(-0.268871,1.30594,1.30594,0.268871,-223.426,-558.778)">
        <path d="M436.592,643.655L444.924,643.655L437.65,639.708L438.625,642.114L436.592,643.655Z" style="stroke:black;stroke-width:0.48px;"/>
    </g>
    <g transform="matrix(1.33333,0,0,1.33333,-90.9557,-660.993)">
        <path d="M468.96,640.32L503.04,640.32" style="fill:none;fill-rule:nonzero;stroke:black;stroke-width:0.72px;"/>
    </g>
    <g transform="matrix(1.33333,0,0,1.33333,-90.9557,-668.673)">
        <path d="M468.96,643.2L503.04,643.2" style="fill:none;fill-rule:nonzero;stroke:black;stroke-width:0.72px;"/>
    </g>
    <g transform="matrix(1.33333,0,0,1.33333,-90.9557,-664.833)">
        <path d="M498.48,638.16L506.4,641.76L498.48,645.36" style="fill:none;fill-rule:nonzero;stroke:black;stroke-width:0.72px;"/>
    </g>
    <g transform="matrix(1.33333,0,0,1.33333,-90.9557,-408.833)">
        <path d="M72,545.76L106.08,545.76" style="fill:none;fill-rule:nonzero;stroke:black;stroke-width:0.72px;"/>
    </g>
    <g transform="matrix(1.33333,0,0,1.33333,-90.9557,-416.513)">
        <path d="M72,548.64L106.08,548.64" style="fill:none;fill-rule:nonzero;stroke:black;stroke-width:0.72px;"/>
    </g>
    <g transform="matrix(1.33333,0,0,1.33333,-90.9557,-412.673)">
        <path d="M101.52,543.6L109.44,547.2L101.52,550.8" style="fill:none;fill-rule:nonzero;stroke:black;stroke-width:0.72px;"/>
    </g>
    <g transform="matrix(-1.07962,0.782437,0.782437,1.07962,-217.468,-390.543)">
        <path d="M117.345,554.285L137.265,554.285" style="fill:none;fill-rule:nonzero;stroke:black;stroke-width:0.72px;"/>
    </g>
    <g transform="matrix(-0.410979,-1.26841,-1.26841,0.410979,806.022,261.543)">
        <path d="M112.35,538.965L132.27,538.965" style="fill:none;fill-rule:nonzero;stroke:black;stroke-width:0.72px;"/>
    </g>
    <g transform="matrix(-1.07791,-0.784786,-0.784786,1.07791,685.625,-183.227)">
        <path d="M134.006,555.94L148.244,555.94" style="fill:none;fill-rule:nonzero;stroke:black;stroke-width:0.72px;"/>
    </g>
    <g transform="matrix(-1.33333,-0.00133802,-0.00133802,1.33333,270.673,-365.239)">
        <path d="M125.38,529.48L145.31,529.48" style="fill:none;fill-rule:nonzero;stroke:black;stroke-width:0.72px;"/>
    </g>
    <g transform="matrix(0.412589,-1.26789,-1.26789,-0.412589,725.034,739.729)">
        <path d="M140.267,536.415L154.873,536.415" style="fill:none;fill-rule:nonzero;stroke:black;stroke-width:0.72px;"/>
    </g>
    <g transform="matrix(-1.07962,0.782437,0.782437,1.07962,-100.489,-428.476)">
        <path d="M165.825,554.285L185.745,554.285" style="fill:none;fill-rule:nonzero;stroke:black;stroke-width:0.72px;"/>
    </g>
    <g transform="matrix(-0.410979,-1.26841,-1.26841,0.410979,890.586,323.036)">
        <path d="M160.83,538.965L180.75,538.965" style="fill:none;fill-rule:nonzero;stroke:black;stroke-width:0.72px;"/>
    </g>
    <g transform="matrix(-1.0782,-0.784388,-0.784388,1.0782,806.592,-139.585)">
        <path d="M181.944,554.27L201.866,554.27" style="fill:none;fill-rule:nonzero;stroke:black;stroke-width:0.72px;"/>
    </g>
    <g transform="matrix(-1.33333,-0.00133802,-0.00133802,1.33333,399.953,-365.174)">
        <path d="M173.86,529.48L193.79,529.48" style="fill:none;fill-rule:nonzero;stroke:black;stroke-width:0.72px;"/>
    </g>
    <g transform="matrix(0.412993,-1.26776,-1.26776,-0.412993,773.483,800.108)">
        <path d="M186.915,538.94L206.835,538.94" style="fill:none;fill-rule:nonzero;stroke:black;stroke-width:0.72px;"/>
    </g>
    <g transform="matrix(1.33333,-0.00227531,-0.00227531,-1.33333,-89.7076,1046.89)">
        <path d="M156,548.43L167.72,548.43" style="fill:none;fill-rule:nonzero;stroke:black;stroke-width:0.72px;"/>
    </g>
    <g transform="matrix(-0.412032,-1.26807,-1.26807,0.412032,902.103,287.007)">
        <path d="M158.168,555.38L172.762,555.38" style="fill:none;fill-rule:nonzero;stroke:black;stroke-width:0.72px;"/>
    </g>
    <g transform="matrix(1.33333,0,0,1.33333,-90.9557,-408.833)">
        <path d="M211.44,545.76L245.52,545.76" style="fill:none;fill-rule:nonzero;stroke:black;stroke-width:0.72px;"/>
    </g>
    <g transform="matrix(1.33333,0,0,1.33333,-90.9557,-416.513)">
        <path d="M211.44,548.64L245.52,548.64" style="fill:none;fill-rule:nonzero;stroke:black;stroke-width:0.72px;"/>
    </g>
    <g transform="matrix(1.33333,0,0,1.33333,-90.9557,-412.673)">
        <path d="M240.96,543.6L248.88,547.2L240.96,550.8" style="fill:none;fill-rule:nonzero;stroke:black;stroke-width:0.72px;"/>
    </g>
    <g transform="matrix(-1.07962,0.782437,0.782437,1.07962,109.321,-493.949)">
        <path d="M252.465,553.325L272.385,553.325" style="fill:none;fill-rule:nonzero;stroke:black;stroke-width:0.72px;"/>
    </g>
    <g transform="matrix(-0.410979,-1.26841,-1.26841,0.410979,1040.5,434.605)">
        <path d="M247.47,538.005L267.39,538.005" style="fill:none;fill-rule:nonzero;stroke:black;stroke-width:0.72px;"/>
    </g>
    <g transform="matrix(-1.0782,-0.784388,-0.784388,1.0782,1014.77,-69.3109)">
        <path d="M268.584,553.31L288.506,553.31" style="fill:none;fill-rule:nonzero;stroke:black;stroke-width:0.72px;"/>
    </g>
    <g transform="matrix(-1.33333,-0.00133802,-0.00133802,1.33333,630.991,-362.498)">
        <path d="M260.5,528.52L280.43,528.52" style="fill:none;fill-rule:nonzero;stroke:black;stroke-width:0.72px;"/>
    </g>
    <g transform="matrix(0.412993,-1.26776,-1.26776,-0.412993,852.004,910.831)">
        <path d="M273.555,537.98L293.475,537.98" style="fill:none;fill-rule:nonzero;stroke:black;stroke-width:0.72px;"/>
    </g>
    <g transform="matrix(-1.07962,0.782437,0.782437,1.07962,226.3,-531.882)">
        <path d="M300.945,553.325L320.865,553.325" style="fill:none;fill-rule:nonzero;stroke:black;stroke-width:0.72px;"/>
    </g>
    <g transform="matrix(-0.410979,-1.26841,-1.26841,0.410979,1125.06,496.098)">
        <path d="M295.95,538.005L315.87,538.005" style="fill:none;fill-rule:nonzero;stroke:black;stroke-width:0.72px;"/>
    </g>
    <g transform="matrix(-1.0782,-0.784388,-0.784388,1.0782,1131.69,-31.2838)">
        <path d="M317.064,553.31L336.986,553.31" style="fill:none;fill-rule:nonzero;stroke:black;stroke-width:0.72px;"/>
    </g>
    <g transform="matrix(-1.33333,-0.00133802,-0.00133802,1.33333,760.271,-362.433)">
        <path d="M308.98,528.52L328.91,528.52" style="fill:none;fill-rule:nonzero;stroke:black;stroke-width:0.72px;"/>
    </g>
    <g transform="matrix(0.412993,-1.26776,-1.26776,-0.412993,896.622,972.292)">
        <path d="M322.035,537.98L341.955,537.98" style="fill:none;fill-rule:nonzero;stroke:black;stroke-width:0.72px;"/>
    </g>
    <g transform="matrix(1.33333,-0.00246305,-0.00246305,-1.33333,-89.6066,1047.25)">
        <path d="M286.6,547.465L302.84,547.465" style="fill:none;fill-rule:nonzero;stroke:black;stroke-width:0.72px;"/>
    </g>
    <g transform="matrix(0.00449234,1.33333,1.33333,-0.00449234,-428.425,-94.5982)">
        <path d="M295.395,554.9L310.235,554.9" style="fill:none;fill-rule:nonzero;stroke:black;stroke-width:0.72px;"/>
    </g>
    <g transform="matrix(0.021517,1.33316,1.33316,-0.021517,-454.897,-63.3041)">
        <path d="M279.044,554.885L293.916,554.885" style="fill:none;fill-rule:nonzero;stroke:black;stroke-width:0.72px;"/>
    </g>
    <g transform="matrix(1.33333,0,0,1.33333,-90.9557,-407.553)">
        <path d="M347.28,545.28L381.36,545.28" style="fill:none;fill-rule:nonzero;stroke:black;stroke-width:0.72px;"/>
    </g>
    <g transform="matrix(1.33333,0,0,1.33333,-90.9557,-415.233)">
        <path d="M347.28,548.16L381.36,548.16" style="fill:none;fill-rule:nonzero;stroke:black;stroke-width:0.72px;"/>
    </g>
    <g transform="matrix(1.33333,0,0,1.33333,-90.9557,-411.393)">
        <path d="M376.8,543.12L384.72,546.72L376.8,550.32" style="fill:none;fill-rule:nonzero;stroke:black;stroke-width:0.72px;"/>
    </g>
    <g transform="matrix(-1.07962,0.782437,0.782437,1.07962,442.699,-602.693)">
        <path d="M390.705,553.565L410.625,553.565" style="fill:none;fill-rule:nonzero;stroke:black;stroke-width:0.72px;"/>
    </g>
    <g transform="matrix(-0.410979,-1.26841,-1.26841,0.410979,1281.93,609.532)">
        <path d="M385.71,538.245L405.63,538.245" style="fill:none;fill-rule:nonzero;stroke:black;stroke-width:0.72px;"/>
    </g>
    <g transform="matrix(-1.0782,-0.784388,-0.784388,1.0782,1348.33,38.5441)">
        <path d="M406.824,553.55L426.746,553.55" style="fill:none;fill-rule:nonzero;stroke:black;stroke-width:0.72px;"/>
    </g>
    <g transform="matrix(-1.33333,-0.00133802,-0.00133802,1.33333,999.631,-362.953)">
        <path d="M398.74,528.76L418.67,528.76" style="fill:none;fill-rule:nonzero;stroke:black;stroke-width:0.72px;"/>
    </g>
    <g transform="matrix(0.412993,-1.26776,-1.26776,-0.412993,979.536,1085.86)">
        <path d="M411.795,538.22L431.715,538.22" style="fill:none;fill-rule:nonzero;stroke:black;stroke-width:0.72px;"/>
    </g>
    <g transform="matrix(1.26841,-0.410998,-0.410998,-1.26841,162.45,1188.54)">
        <path d="M425.002,548.295L439.308,548.295" style="fill:none;fill-rule:nonzero;stroke:black;stroke-width:0.72px;"/>
    </g>
    <g transform="matrix(1.2685,-0.410704,-0.410704,-1.2685,163.596,1188.04)">
        <path d="M423.946,551.66L439.334,551.66" style="fill:none;fill-rule:nonzero;stroke:black;stroke-width:0.72px;"/>
    </g>
</svg>
