<?xml version="1.0" encoding="UTF-8" standalone="no"?>
<!DOCTYPE svg PUBLIC "-//W3C//DTD SVG 1.1//EN" "http://www.w3.org/Graphics/SVG/1.1/DTD/svg11.dtd">
<svg width="100%" height="100%" viewBox="0 0 400 490" version="1.1" xmlns="http://www.w3.org/2000/svg" xmlns:xlink="http://www.w3.org/1999/xlink" xml:space="preserve" xmlns:serif="http://www.serif.com/" style="fill-rule:evenodd;clip-rule:evenodd;stroke-linecap:round;stroke-linejoin:round;stroke-miterlimit:10;">
    <g transform="matrix(1,0,0,1,-69.5323,-122.215)">
        <g transform="matrix(1.25,0,0,1.25,0,0)">
            <text x="125.76px" y="131.76px" style="font-family:'ArialMT', 'Arial', sans-serif;font-size:10px;">C</text>
            <text x="132.96px" y="131.76px" style="font-family:'ArialMT', 'Arial', sans-serif;font-size:10px;">O<tspan x="140.88px 148.8px " y="131.76px 131.76px ">OH</tspan></text>
        </g>
        <g transform="matrix(1.25,0,0,1.25,0,0)">
            <text x="76.08px" y="114.48px" style="font-family:'ArialMT', 'Arial', sans-serif;font-size:10px;">C</text>
            <text x="83.28px" y="114.48px" style="font-family:'ArialMT', 'Arial', sans-serif;font-size:10px;">O<tspan x="91.2px 99.12px " y="114.48px 114.48px ">OH</tspan></text>
        </g>
        <g transform="matrix(1.25,0,0,1.25,0,-690)">
            <path d="M79.68,696.96L99.6,696.96" style="fill:none;fill-rule:nonzero;stroke:black;stroke-width:0.72px;"/>
        </g>
        <g transform="matrix(1.25,0,0,1.25,0,-698.4)">
            <path d="M81.34,700.32L97.94,700.32" style="fill:none;fill-rule:nonzero;stroke:black;stroke-width:0.72px;"/>
        </g>
        <g transform="matrix(0.625033,-1.08251,-1.08251,-0.625033,829.164,724.642)">
            <path d="M94.621,705.585L114.539,705.585" style="fill:none;fill-rule:nonzero;stroke:black;stroke-width:0.72px;"/>
        </g>
        <g transform="matrix(-0.625033,-1.08251,-1.08251,0.625033,903.87,-189.732)">
            <path d="M64.741,705.585L84.659,705.585" style="fill:none;fill-rule:nonzero;stroke:black;stroke-width:0.72px;"/>
        </g>
        <g transform="matrix(1.25,0,0,1.25,0,-733.125)">
            <path d="M109.56,714.21L124.8,714.21" style="fill:none;fill-rule:nonzero;stroke:black;stroke-width:0.72px;"/>
        </g>
        <g transform="matrix(0.624627,-1.08275,-1.08275,-0.624627,825.592,681.237)">
            <path d="M66.246,720.225L80.134,720.225" style="fill:none;fill-rule:nonzero;stroke:black;stroke-width:0.72px;"/>
        </g>
        <g transform="matrix(1.25,0,0,1.25,0,-774.6)">
            <path d="M68.4,738.72L67.2,738.72L66,738.48L64.8,738L63.84,737.52L62.64,736.8L61.2,734.88L60.72,733.68L60.24,732.24L60.24,729.12L60.72,728.16L60.96,727.2L61.68,726.24L63.12,724.8L64.08,724.08L66,723.12L66.48,723.12L67.92,722.88L70.8,723.36L73.2,724.8L74.16,726L74.64,726.48" style="fill:none;fill-rule:nonzero;stroke:black;stroke-width:0.48px;"/>
        </g>
        <g transform="matrix(0.767426,0.98669,0.98669,-0.767426,-694.308,626.11)">
            <path d="M67.552,739.307L75.761,739.307L68.352,735.645L69.447,737.834L67.552,739.307Z" style="stroke:black;stroke-width:0.48px;"/>
        </g>
        <g transform="matrix(1.25,0,0,1.25,0,-763.8)">
            <path d="M116.88,732L116.16,730.32L115.92,728.4L115.92,727.2L116.16,726L117.12,724.08L118.56,722.64L119.52,721.92L120.48,721.44L121.44,721.2L122.64,720.96L124.32,720.96L125.52,721.44L126.48,721.68L127.44,722.16L128.16,722.88L128.88,723.84L129.6,724.56L130.08,725.52L130.32,726.72L130.56,727.68L130.56,728.4L130.32,730.32L129.6,732" style="fill:none;fill-rule:nonzero;stroke:black;stroke-width:0.48px;"/>
        </g>
        <g transform="matrix(-0.544451,1.1252,1.1252,0.544451,-580.239,-396.365)">
            <path d="M127.419,725.305L135.684,725.305L128.444,721.535L129.44,723.883L127.419,725.305Z" style="stroke:black;stroke-width:0.48px;"/>
        </g>
    </g>
    <g transform="matrix(1,0,0,1,-69.5323,-122.215)">
        <g transform="matrix(1.25,0,0,1.25,0,0)">
            <text x="259.68px" y="131.52px" style="font-family:'ArialMT', 'Arial', sans-serif;font-size:10px;">CH</text>
            <text x="274.08px" y="134.16px" style="font-family:'ArialMT', 'Arial', sans-serif;font-size:8px;">2</text>
        </g>
        <g transform="matrix(1.25,0,0,1.25,0,0)">
            <text x="274.08px" y="124.56px" style="font-family:'ArialMT', 'Arial', sans-serif;font-size:8px;">+</text>
            <text x="219.84px" y="131.52px" style="font-family:'ArialMT', 'Arial', sans-serif;font-size:10px;">C</text>
        </g>
        <g transform="matrix(1.25,0,0,1.25,0,0)">
            <text x="208.32px" y="131.52px" style="font-family:'ArialMT', 'Arial', sans-serif;font-size:10px;">H</text>
            <text x="215.529px" y="134.16px" style="font-family:'ArialMT', 'Arial', sans-serif;font-size:8px;">2</text>
            <text x="227.04px" y="124.56px" style="font-family:'ArialMT', 'Arial', sans-serif;font-size:8px;">+</text>
        </g>
        <g transform="matrix(1.25,0,0,1.25,0,-690.6)">
            <path d="M233.52,697.2L253.44,697.2" style="fill:none;fill-rule:nonzero;stroke:black;stroke-width:0.72px;"/>
        </g>
        <g transform="matrix(1.25,0,0,1.25,0,-699)">
            <path d="M235.18,700.56L251.78,700.56" style="fill:none;fill-rule:nonzero;stroke:black;stroke-width:0.72px;"/>
        </g>
        <g transform="matrix(0.625122,-1.08246,-1.08246,-0.625122,921.721,891.075)">
            <path d="M249.976,703.2L263.834,703.2" style="fill:none;fill-rule:nonzero;stroke:black;stroke-width:0.72px;"/>
        </g>
        <g transform="matrix(-0.625122,-1.08246,-1.08246,0.625122,1192.57,-17.1598)">
            <path d="M223.126,703.2L236.984,703.2" style="fill:none;fill-rule:nonzero;stroke:black;stroke-width:0.72px;"/>
        </g>
    </g>
    <g transform="matrix(1.25,0,0,1.25,-35.6308,-27.5362)">
        <text x="265.68px" y="59.04px" style="font-family:'ArialMT', 'Arial', sans-serif;font-size:18px;">+</text>
    </g>
    <g transform="matrix(1.25,0,0,1.25,-103.995,407.834)">
        <text x="265.68px" y="59.04px" style="font-family:'ArialMT', 'Arial', sans-serif;font-size:18px;">+</text>
    </g>
    <g transform="matrix(1,0,0,1,-69.5323,-122.215)">
        <g transform="matrix(1.25,0,0,1.25,0,0)">
            <text x="334.56px" y="126px" style="font-family:'ArialMT', 'Arial', sans-serif;font-size:10px;">C</text>
            <text x="341.76px" y="119.04px" style="font-family:'ArialMT', 'Arial', sans-serif;font-size:8px;">–</text>
            <text x="351.6px" y="136.08px" style="font-family:'ArialMT', 'Arial', sans-serif;font-size:10px;">O<tspan x="359.52px " y="136.08px ">H</tspan></text>
        </g>
        <g transform="matrix(1.25,0,0,1.25,0,0)">
            <text x="317.04px" y="136.08px" style="font-family:'ArialMT', 'Arial', sans-serif;font-size:10px;">O</text>
        </g>
        <g transform="matrix(1.08387,0.622677,0.622677,-1.08387,-387.611,717.749)">
            <path d="M342.113,714.985L351.247,714.985" style="fill:none;fill-rule:nonzero;stroke:black;stroke-width:0.72px;"/>
        </g>
        <g transform="matrix(-1.084,0.622452,0.622452,1.084,323.451,-825.998)">
            <path d="M325.332,716.855L334.188,716.855" style="fill:none;fill-rule:nonzero;stroke:black;stroke-width:0.72px;"/>
        </g>
        <g transform="matrix(-1.08461,0.62139,0.62139,1.08461,326.822,-817.038)">
            <path d="M325.334,712.98L334.186,712.98" style="fill:none;fill-rule:nonzero;stroke:black;stroke-width:0.72px;"/>
        </g>
    </g>
    <g transform="matrix(1,0,0,1,-69.5323,-122.215)">
        <g transform="matrix(1.25,0,0,1.25,0,0)">
            <text x="345.36px" y="204.48px" style="font-family:'ArialMT', 'Arial', sans-serif;font-size:10px;">C</text>
            <text x="352.56px" y="197.52px" style="font-family:'ArialMT', 'Arial', sans-serif;font-size:8px;">–</text>
        </g>
        <g transform="matrix(1.25,0,0,1.25,0,0)">
            <text x="325.44px" y="204.48px" style="font-family:'ArialMT', 'Arial', sans-serif;font-size:10px;">N</text>
        </g>
        <g transform="matrix(-1.25,0,0,1.25,847.5,-551.4)">
            <path d="M333.6,641.52L344.4,641.52" style="fill:none;fill-rule:nonzero;stroke:black;stroke-width:0.72px;"/>
        </g>
        <g transform="matrix(-1.25,0,0,1.25,847.5,-543)">
            <path d="M333.6,638.16L344.4,638.16" style="fill:none;fill-rule:nonzero;stroke:black;stroke-width:0.72px;"/>
        </g>
        <g transform="matrix(-1.25,0,0,1.25,847.5,-559.8)">
            <path d="M333.6,644.88L344.4,644.88" style="fill:none;fill-rule:nonzero;stroke:black;stroke-width:0.72px;"/>
        </g>
    </g>
    <g transform="matrix(1,0,0,1,-69.5323,-122.215)">
        <g transform="matrix(1.25,0,0,1.25,0,0)">
            <text x="223.68px" y="204.48px" style="font-family:'ArialMT', 'Arial', sans-serif;font-size:10px;">Br</text>
        </g>
        <g transform="matrix(1.25,0,0,1.25,0,0)">
            <text x="273.36px" y="221.76px" style="font-family:'ArialMT', 'Arial', sans-serif;font-size:10px;">Br</text>
        </g>
        <g transform="matrix(1.25,0,0,1.25,0,-465)">
            <path d="M227.04,606.96L246.96,606.96" style="fill:none;fill-rule:nonzero;stroke:black;stroke-width:0.72px;"/>
        </g>
        <g transform="matrix(1.25,0,0,1.25,0,-473.4)">
            <path d="M228.7,610.32L245.3,610.32" style="fill:none;fill-rule:nonzero;stroke:black;stroke-width:0.72px;"/>
        </g>
        <g transform="matrix(0.625033,-1.08251,-1.08251,-0.625033,823.833,940.408)">
            <path d="M241.981,615.585L261.899,615.585" style="fill:none;fill-rule:nonzero;stroke:black;stroke-width:0.72px;"/>
        </g>
        <g transform="matrix(-0.625033,-1.08251,-1.08251,0.625033,1082.75,138.54)">
            <path d="M212.101,615.585L232.019,615.585" style="fill:none;fill-rule:nonzero;stroke:black;stroke-width:0.72px;"/>
        </g>
        <g transform="matrix(0.624627,-1.08275,-1.08275,-0.624627,820.3,897.074)">
            <path d="M213.606,630.225L227.494,630.225" style="fill:none;fill-rule:nonzero;stroke:black;stroke-width:0.72px;"/>
        </g>
        <g transform="matrix(1.25,0,0,1.25,0,-508.125)">
            <path d="M256.92,624.21L272.4,624.21" style="fill:none;fill-rule:nonzero;stroke:black;stroke-width:0.72px;"/>
        </g>
    </g>
    <g transform="matrix(1,0,0,1,-69.5323,-122.215)">
        <g transform="matrix(1.25,0,0,1.25,0,0)">
            <text x="217.68px" y="300.48px" style="font-family:'ArialMT', 'Arial', sans-serif;font-size:10px;">O<tspan x="225.6px " y="300.48px ">H</tspan></text>
        </g>
        <g transform="matrix(1.25,0,0,1.25,0,0)">
            <text x="267.36px" y="317.76px" style="font-family:'ArialMT', 'Arial', sans-serif;font-size:10px;">O<tspan x="275.28px " y="317.76px ">H</tspan></text>
        </g>
        <g transform="matrix(1.25,0,0,1.25,0,-225)">
            <path d="M221.52,510.96L241.44,510.96" style="fill:none;fill-rule:nonzero;stroke:black;stroke-width:0.72px;"/>
        </g>
        <g transform="matrix(1.25,0,0,1.25,0,-233.4)">
            <path d="M223.18,514.32L239.78,514.32" style="fill:none;fill-rule:nonzero;stroke:black;stroke-width:0.72px;"/>
        </g>
        <g transform="matrix(0.625033,-1.08251,-1.08251,-0.625033,716.462,994.429)">
            <path d="M236.461,519.585L256.379,519.585" style="fill:none;fill-rule:nonzero;stroke:black;stroke-width:0.72px;"/>
        </g>
        <g transform="matrix(-0.625033,-1.08251,-1.08251,0.625033,968.477,312.568)">
            <path d="M206.581,519.585L226.499,519.585" style="fill:none;fill-rule:nonzero;stroke:black;stroke-width:0.72px;"/>
        </g>
        <g transform="matrix(0.624627,-1.08275,-1.08275,-0.624627,712.904,951.133)">
            <path d="M208.086,534.225L221.974,534.225" style="fill:none;fill-rule:nonzero;stroke:black;stroke-width:0.72px;"/>
        </g>
        <g transform="matrix(1.25,0,0,1.25,0,-268.125)">
            <path d="M251.4,528.21L266.4,528.21" style="fill:none;fill-rule:nonzero;stroke:black;stroke-width:0.72px;"/>
        </g>
    </g>
    <g transform="matrix(1,0,0,1,-69.5323,-122.215)">
        <g transform="matrix(1.25,0,0,1.25,0,0)">
            <text x="276.72px" y="423.36px" style="font-family:'ArialMT', 'Arial', sans-serif;font-size:10px;">O<tspan x="284.64px " y="423.36px ">H</tspan></text>
        </g>
        <g transform="matrix(1.25,0,0,1.25,0,0)">
            <text x="189.84px" y="389.04px" style="font-family:'ArialMT', 'Arial', sans-serif;font-size:10px;">HO</text>
        </g>
        <g transform="matrix(1.25,0,0,1.25,0,-46.8)">
            <path d="M230.88,439.68L250.8,439.68" style="fill:none;fill-rule:nonzero;stroke:black;stroke-width:0.72px;"/>
        </g>
        <g transform="matrix(1.25,0,0,1.25,0,-55.2)">
            <path d="M230.88,443.04L250.8,443.04" style="fill:none;fill-rule:nonzero;stroke:black;stroke-width:0.72px;"/>
        </g>
        <g transform="matrix(1.25,0,0,1.25,0,-38.4)">
            <path d="M230.88,436.32L250.8,436.32" style="fill:none;fill-rule:nonzero;stroke:black;stroke-width:0.72px;"/>
        </g>
        <g transform="matrix(1.25,0,0,1.25,0,-46.8)">
            <path d="M250.8,439.68L270.72,439.68" style="fill:none;fill-rule:nonzero;stroke:black;stroke-width:0.72px;"/>
        </g>
        <g transform="matrix(-1.25,0,0,1.25,552.3,-46.8)">
            <path d="M210.96,439.68L230.88,439.68" style="fill:none;fill-rule:nonzero;stroke:black;stroke-width:0.72px;"/>
        </g>
        <g transform="matrix(0.625122,1.08246,1.08246,-0.625122,-298.11,484.608)">
            <path d="M267.256,433.68L281.114,433.68" style="fill:none;fill-rule:nonzero;stroke:black;stroke-width:0.72px;"/>
        </g>
        <g transform="matrix(-0.625122,-1.08246,-1.08246,0.625122,871.51,441.301)">
            <path d="M200.566,445.68L214.424,445.68" style="fill:none;fill-rule:nonzero;stroke:black;stroke-width:0.72px;"/>
        </g>
    </g>
    <g transform="matrix(1,0,0,1,-69.5323,-122.215)">
        <g transform="matrix(1.25,0,0,1.25,0,0)">
            <text x="189.36px" y="481.2px" style="font-family:'ArialMT', 'Arial', sans-serif;font-size:10px;">C</text>
            <text x="196.566px" y="474.24px" style="font-family:'ArialMT', 'Arial', sans-serif;font-size:8px;">–</text>
            <text x="209.28px" y="481.2px" style="font-family:'ArialMT', 'Arial', sans-serif;font-size:10px;"><tspan x="209.28px " y="481.2px ">C</tspan></text>
            <text x="216.486px" y="474.24px" style="font-family:'ArialMT', 'Arial', sans-serif;font-size:8px;">–</text>
        </g>
        <g transform="matrix(1.25,0,0,1.25,0,140.4)">
            <path d="M197.52,364.8L208.32,364.8" style="fill:none;fill-rule:nonzero;stroke:black;stroke-width:0.72px;"/>
        </g>
        <g transform="matrix(1.25,0,0,1.25,0,132)">
            <path d="M201.84,368.16L208.32,368.16" style="fill:none;fill-rule:nonzero;stroke:black;stroke-width:0.72px;"/>
        </g>
        <g transform="matrix(1.25,0,0,1.25,0,148.8)">
            <path d="M197.52,361.44L208.32,361.44" style="fill:none;fill-rule:nonzero;stroke:black;stroke-width:0.72px;"/>
        </g>
    </g>
    <g transform="matrix(1,0,0,1,-67.9385,-126.402)">
        <g transform="matrix(1.25,0,0,1.25,0,0)">
            <text x="271.92px" y="483.12px" style="font-family:'ArialMT', 'Arial', sans-serif;font-size:10px;">C</text>
        </g>
        <g transform="matrix(1.25,0,0,1.25,0,0)">
            <text x="260.4px" y="483.12px" style="font-family:'ArialMT', 'Arial', sans-serif;font-size:10px;">H</text>
            <text x="267.6px" y="485.76px" style="font-family:'ArialMT', 'Arial', sans-serif;font-size:8px;">2</text>
        </g>
        <g transform="matrix(1.25,0,0,1.25,0,0)">
            <text x="291.6px" y="483.12px" style="font-family:'ArialMT', 'Arial', sans-serif;font-size:10px;">O</text>
            <text x="299.52px" y="483.12px" style="font-family:'ArialMT', 'Arial', sans-serif;font-size:10px;">H</text>
            <text x="306.72px" y="476.16px" style="font-family:'ArialMT', 'Arial', sans-serif;font-size:8px;">+</text>
        </g>
        <g transform="matrix(1.25,0,0,1.25,0,149.4)">
            <path d="M280.08,361.2L290.64,361.2" style="fill:none;fill-rule:nonzero;stroke:black;stroke-width:0.72px;"/>
        </g>
        <g transform="matrix(1.25,0,0,1.25,0,141)">
            <path d="M280.08,364.56L290.64,364.56" style="fill:none;fill-rule:nonzero;stroke:black;stroke-width:0.72px;"/>
        </g>
    </g>
    <g transform="matrix(1,0,0,1,-69.5323,-122.215)">
        <g transform="matrix(1.25,0,0,1.25,0,-726.6)">
            <path d="M168.96,711.6L188.16,711.6" style="fill:none;fill-rule:nonzero;stroke:black;stroke-width:0.48px;"/>
        </g>
        <g transform="matrix(1.25,0,0,1.25,0,-736.2)">
            <path d="M168.96,715.44L188.16,715.44" style="fill:none;fill-rule:nonzero;stroke:black;stroke-width:0.48px;"/>
        </g>
        <g transform="matrix(1.25,0,0,1.25,0,-731.4)">
            <path d="M184.08,709.44L192.24,713.52L184.08,717.6" style="fill:none;fill-rule:nonzero;stroke:black;stroke-width:0.48px;"/>
        </g>
    </g>
    <g transform="matrix(1,0,0,1,-69.5323,-122.215)">
        <g transform="matrix(0,1.25,1.25,0,-422.55,-216.75)">
            <path d="M327.48,676.68L349.8,676.68" style="fill:none;fill-rule:nonzero;stroke:black;stroke-width:0.48px;"/>
        </g>
        <g transform="matrix(0,1.25,1.25,0,-417.75,-221.55)">
            <path d="M331.32,676.68L353.64,676.68" style="fill:none;fill-rule:nonzero;stroke:black;stroke-width:0.48px;"/>
        </g>
        <g transform="matrix(1.25,0,0,1.25,0,-611.4)">
            <path d="M344.64,661.44L340.56,669.6L336.48,661.44" style="fill:none;fill-rule:nonzero;stroke:black;stroke-width:0.48px;"/>
        </g>
    </g>
    <g transform="matrix(1,0,0,1,-69.5323,-122.215)">
        <g transform="matrix(0,1.25,1.25,0,-540.15,-91.95)">
            <path d="M230.52,673.8L252.84,673.8" style="fill:none;fill-rule:nonzero;stroke:black;stroke-width:0.48px;"/>
        </g>
        <g transform="matrix(0,1.25,1.25,0,-535.35,-96.75)">
            <path d="M234.36,673.8L256.68,673.8" style="fill:none;fill-rule:nonzero;stroke:black;stroke-width:0.48px;"/>
        </g>
        <g transform="matrix(1.25,0,0,1.25,0,-604.2)">
            <path d="M247.68,658.56L243.6,666.72L239.52,658.56" style="fill:none;fill-rule:nonzero;stroke:black;stroke-width:0.48px;"/>
        </g>
    </g>
    <g transform="matrix(1,0,0,1,-69.5323,-122.215)">
        <g transform="matrix(0,1.25,1.25,0,-417.15,27.45)">
            <path d="M231.96,576.84L254.28,576.84" style="fill:none;fill-rule:nonzero;stroke:black;stroke-width:0.48px;"/>
        </g>
        <g transform="matrix(0,1.25,1.25,0,-412.35,22.65)">
            <path d="M235.8,576.84L258.12,576.84" style="fill:none;fill-rule:nonzero;stroke:black;stroke-width:0.48px;"/>
        </g>
        <g transform="matrix(1.25,0,0,1.25,0,-361.8)">
            <path d="M249.12,561.6L245.04,569.76L240.96,561.6" style="fill:none;fill-rule:nonzero;stroke:black;stroke-width:0.48px;"/>
        </g>
    </g>
    <g transform="matrix(1,0,0,1,-69.5323,-122.215)">
        <g transform="matrix(0,1.25,1.25,0,-294.45,148.95)">
            <path d="M232.44,479.16L254.76,479.16" style="fill:none;fill-rule:nonzero;stroke:black;stroke-width:0.48px;"/>
        </g>
        <g transform="matrix(0,1.25,1.25,0,-289.65,144.15)">
            <path d="M236.28,479.16L258.6,479.16" style="fill:none;fill-rule:nonzero;stroke:black;stroke-width:0.48px;"/>
        </g>
        <g transform="matrix(1.25,0,0,1.25,0,-117.6)">
            <path d="M249.6,463.92L245.52,472.08L241.44,463.92" style="fill:none;fill-rule:nonzero;stroke:black;stroke-width:0.48px;"/>
        </g>
    </g>
    <g transform="matrix(1,0,0,1,-69.5323,-122.215)">
        <g transform="matrix(0,1.25,1.25,0,-203.85,243.15)">
            <path d="M231,405.24L253.32,405.24" style="fill:none;fill-rule:nonzero;stroke:black;stroke-width:0.48px;"/>
        </g>
        <g transform="matrix(0,1.25,1.25,0,-199.05,238.35)">
            <path d="M234.84,405.24L257.16,405.24" style="fill:none;fill-rule:nonzero;stroke:black;stroke-width:0.48px;"/>
        </g>
        <g transform="matrix(1.25,0,0,1.25,0,67.2)">
            <path d="M248.16,390L244.08,398.16L240,390" style="fill:none;fill-rule:nonzero;stroke:black;stroke-width:0.48px;"/>
        </g>
    </g>
</svg>
