<?xml version="1.0" encoding="UTF-8" standalone="no"?>
<!DOCTYPE svg PUBLIC "-//W3C//DTD SVG 1.1//EN" "http://www.w3.org/Graphics/SVG/1.1/DTD/svg11.dtd">
<svg width="100%" height="100%" viewBox="0 0 515 245" version="1.1" xmlns="http://www.w3.org/2000/svg" xmlns:xlink="http://www.w3.org/1999/xlink" xml:space="preserve" xmlns:serif="http://www.serif.com/" style="fill-rule:evenodd;clip-rule:evenodd;stroke-linecap:round;stroke-linejoin:round;stroke-miterlimit:10;">
    <g transform="matrix(1,0,0,1,-66.7126,-103.003)">
        <g transform="matrix(1.25,0,0,1.25,0,0)">
            <text x="131.76px" y="94.08px" style="font-family:'ArialMT', 'Arial', sans-serif;font-size:10px;">O</text>
        </g>
        <g transform="matrix(1.25,0,0,1.25,0,0)">
            <text x="131.76px" y="173.52px" style="font-family:'ArialMT', 'Arial', sans-serif;font-size:10px;">O</text>
        </g>
        <g transform="matrix(-1.08251,-0.625033,-0.625033,1.08251,710.767,-574.689)">
            <path d="M99.946,727.02L119.864,727.02" style="fill:none;fill-rule:nonzero;stroke:black;stroke-width:0.72px;"/>
        </g>
        <g transform="matrix(-1.08251,0.625033,0.625033,1.08251,-179.381,-642.382)">
            <path d="M99.946,697.14L119.864,697.14" style="fill:none;fill-rule:nonzero;stroke:black;stroke-width:0.72px;"/>
        </g>
        <g transform="matrix(-1.08251,0.625033,0.625033,1.08251,-238.293,-701.296)">
            <path d="M82.696,727.02L102.614,727.02" style="fill:none;fill-rule:nonzero;stroke:black;stroke-width:0.72px;"/>
        </g>
        <g transform="matrix(-1.08242,0.625196,0.625196,1.08242,-232.682,-695.505)">
            <path d="M86.038,724.11L102.632,724.11" style="fill:none;fill-rule:nonzero;stroke:black;stroke-width:0.72px;"/>
        </g>
        <g transform="matrix(-1.08251,-0.625033,-0.625033,1.08251,651.855,-515.775)">
            <path d="M82.696,697.14L102.614,697.14" style="fill:none;fill-rule:nonzero;stroke:black;stroke-width:0.72px;"/>
        </g>
        <g transform="matrix(0,1.25,1.25,0,-785.062,57.2625)">
            <path d="M74.07,712.08L93.99,712.08" style="fill:none;fill-rule:nonzero;stroke:black;stroke-width:0.72px;"/>
        </g>
        <g transform="matrix(1.08251,-0.625033,-0.625033,-1.08251,475.709,1010.11)">
            <path d="M117.196,727.02L137.114,727.02" style="fill:none;fill-rule:nonzero;stroke:black;stroke-width:0.72px;"/>
        </g>
        <g transform="matrix(0,1.25,1.25,0,-741.938,14.1375)">
            <path d="M108.57,712.08L128.49,712.08" style="fill:none;fill-rule:nonzero;stroke:black;stroke-width:0.72px;"/>
        </g>
        <g transform="matrix(1.08251,0.625033,0.625033,-1.08251,-430.226,840.375)">
            <path d="M134.446,727.02L154.364,727.02" style="fill:none;fill-rule:nonzero;stroke:black;stroke-width:0.72px;"/>
        </g>
        <g transform="matrix(1.08251,0.625033,0.625033,-1.08251,-414.439,856.162)">
            <path d="M117.196,697.14L137.114,697.14" style="fill:none;fill-rule:nonzero;stroke:black;stroke-width:0.72px;"/>
        </g>
        <g transform="matrix(0,1.25,1.25,0,-698.812,-28.9875)">
            <path d="M143.07,712.08L162.99,712.08" style="fill:none;fill-rule:nonzero;stroke:black;stroke-width:0.72px;"/>
        </g>
        <g transform="matrix(0,1.25,1.25,0,-703.013,-24.7875)">
            <path d="M141.37,712.08L157.97,712.08" style="fill:none;fill-rule:nonzero;stroke:black;stroke-width:0.72px;"/>
        </g>
        <g transform="matrix(1.08251,-0.625033,-0.625033,-1.08251,459.922,1025.9)">
            <path d="M134.446,697.14L154.364,697.14" style="fill:none;fill-rule:nonzero;stroke:black;stroke-width:0.72px;"/>
        </g>
        <g transform="matrix(0,-1.25,-1.25,0,1095.97,300.075)">
            <path d="M130.14,739.32L144.78,739.32" style="fill:none;fill-rule:nonzero;stroke:black;stroke-width:0.72px;"/>
        </g>
        <g transform="matrix(0,-1.25,-1.25,0,1091.77,295.875)">
            <path d="M126.78,739.32L141.42,739.32" style="fill:none;fill-rule:nonzero;stroke:black;stroke-width:0.72px;"/>
        </g>
        <g transform="matrix(0,1.25,1.25,0,-688.425,28.725)">
            <path d="M126.78,684.84L141.42,684.84" style="fill:none;fill-rule:nonzero;stroke:black;stroke-width:0.72px;"/>
        </g>
        <g transform="matrix(0,1.25,1.25,0,-684.225,24.525)">
            <path d="M130.14,684.84L144.78,684.84" style="fill:none;fill-rule:nonzero;stroke:black;stroke-width:0.72px;"/>
        </g>
    </g>
    <g transform="matrix(1,0,0,1,-66.7126,-103.003)">
        <g transform="matrix(1.25,0,0,1.25,0,0)">
            <text x="254.88px" y="94.08px" style="font-family:'ArialMT', 'Arial', sans-serif;font-size:10px;">O</text>
        </g>
        <g transform="matrix(1.25,0,0,1.25,0,0)">
            <text x="254.88px" y="173.52px" style="font-family:'ArialMT', 'Arial', sans-serif;font-size:10px;">O</text>
        </g>
        <g transform="matrix(1.25,0,0,1.25,0,0)">
            <text x="220.8px" y="94.08px" style="font-family:'ArialMT', 'Arial', sans-serif;font-size:10px;">S<tspan x="227.594px 229.94px 238.394px " y="94.08px 94.08px 94.08px ">iMe</tspan></text>
            <text x="244.08px" y="96.72px" style="font-family:'ArialMT', 'Arial', sans-serif;font-size:8px;">3</text>
        </g>
        <g transform="matrix(-1.08251,-0.625033,-0.625033,1.08251,997.945,-497.735)">
            <path d="M223.066,727.02L242.984,727.02" style="fill:none;fill-rule:nonzero;stroke:black;stroke-width:0.72px;"/>
        </g>
        <g transform="matrix(-1.08251,0.625033,0.625033,1.08251,107.798,-719.336)">
            <path d="M223.066,697.14L242.984,697.14" style="fill:none;fill-rule:nonzero;stroke:black;stroke-width:0.72px;"/>
        </g>
        <g transform="matrix(-1.08251,0.625033,0.625033,1.08251,48.8862,-778.25)">
            <path d="M205.816,727.02L225.734,727.02" style="fill:none;fill-rule:nonzero;stroke:black;stroke-width:0.72px;"/>
        </g>
        <g transform="matrix(-1.08251,-0.625033,-0.625033,1.08251,939.034,-438.821)">
            <path d="M205.816,697.14L225.734,697.14" style="fill:none;fill-rule:nonzero;stroke:black;stroke-width:0.72px;"/>
        </g>
        <g transform="matrix(0,1.25,1.25,0,-631.162,-96.6375)">
            <path d="M197.19,712.08L217.11,712.08" style="fill:none;fill-rule:nonzero;stroke:black;stroke-width:0.72px;"/>
        </g>
        <g transform="matrix(0,1.25,1.25,0,-626.963,-100.838)">
            <path d="M202.21,712.08L218.81,712.08" style="fill:none;fill-rule:nonzero;stroke:black;stroke-width:0.72px;"/>
        </g>
        <g transform="matrix(1.08251,-0.625033,-0.625033,-1.08251,496.33,1087.06)">
            <path d="M240.316,727.02L260.234,727.02" style="fill:none;fill-rule:nonzero;stroke:black;stroke-width:0.72px;"/>
        </g>
        <g transform="matrix(0,1.25,1.25,0,-588.037,-139.762)">
            <path d="M231.69,712.08L251.61,712.08" style="fill:none;fill-rule:nonzero;stroke:black;stroke-width:0.72px;"/>
        </g>
        <g transform="matrix(1.08251,0.625033,0.625033,-1.08251,-409.605,763.421)">
            <path d="M257.566,727.02L277.484,727.02" style="fill:none;fill-rule:nonzero;stroke:black;stroke-width:0.72px;"/>
        </g>
        <g transform="matrix(1.08251,0.625033,0.625033,-1.08251,-393.818,779.208)">
            <path d="M240.316,697.14L260.234,697.14" style="fill:none;fill-rule:nonzero;stroke:black;stroke-width:0.72px;"/>
        </g>
        <g transform="matrix(0,1.25,1.25,0,-544.912,-182.888)">
            <path d="M266.19,712.08L286.11,712.08" style="fill:none;fill-rule:nonzero;stroke:black;stroke-width:0.72px;"/>
        </g>
        <g transform="matrix(0,1.25,1.25,0,-549.113,-178.688)">
            <path d="M264.49,712.08L281.09,712.08" style="fill:none;fill-rule:nonzero;stroke:black;stroke-width:0.72px;"/>
        </g>
        <g transform="matrix(1.08251,-0.625033,-0.625033,-1.08251,480.543,1102.85)">
            <path d="M257.566,697.14L277.484,697.14" style="fill:none;fill-rule:nonzero;stroke:black;stroke-width:0.72px;"/>
        </g>
        <g transform="matrix(0,-1.25,-1.25,0,1249.87,453.975)">
            <path d="M253.26,739.32L267.9,739.32" style="fill:none;fill-rule:nonzero;stroke:black;stroke-width:0.72px;"/>
        </g>
        <g transform="matrix(0,-1.25,-1.25,0,1245.67,449.775)">
            <path d="M249.9,739.32L264.54,739.32" style="fill:none;fill-rule:nonzero;stroke:black;stroke-width:0.72px;"/>
        </g>
        <g transform="matrix(0,1.25,1.25,0,-534.525,-125.175)">
            <path d="M249.9,684.84L264.54,684.84" style="fill:none;fill-rule:nonzero;stroke:black;stroke-width:0.72px;"/>
        </g>
        <g transform="matrix(0,1.25,1.25,0,-530.325,-129.375)">
            <path d="M253.26,684.84L267.9,684.84" style="fill:none;fill-rule:nonzero;stroke:black;stroke-width:0.72px;"/>
        </g>
        <g transform="matrix(0,-1.25,-1.25,0,1204.65,408.75)">
            <path d="M217.08,739.32L231.72,739.32" style="fill:none;fill-rule:nonzero;stroke:black;stroke-width:0.72px;"/>
        </g>
    </g>
    <g transform="matrix(1,0,0,1,-66.7126,-103.003)">
        <g transform="matrix(1.25,0,0,1.25,0,0)">
            <text x="345.6px" y="155.52px" style="font-family:'ArialMT', 'Arial', sans-serif;font-size:10px;">CH</text>
            <text x="360px" y="158.16px" style="font-family:'ArialMT', 'Arial', sans-serif;font-size:8px;">2</text>
        </g>
        <g transform="matrix(1.25,0,0,1.25,0,0)">
            <text x="345.84px" y="95.76px" style="font-family:'ArialMT', 'Arial', sans-serif;font-size:10px;">S<tspan x="352.634px 354.98px 363.434px " y="95.76px 95.76px 95.76px ">iMe</tspan></text>
            <text x="369.12px" y="98.4px" style="font-family:'ArialMT', 'Arial', sans-serif;font-size:8px;">3</text>
            <text x="366px" y="136.56px" style="font-family:'ArialMT', 'Arial', sans-serif;font-size:18px;">+</text>
        </g>
        <g transform="matrix(-1.08251,0.625033,0.625033,1.08251,341.594,-852.485)">
            <path d="M330.856,725.34L350.774,725.34" style="fill:none;fill-rule:nonzero;stroke:black;stroke-width:0.72px;"/>
        </g>
        <g transform="matrix(-1.08247,0.625107,0.625107,1.08247,334.368,-856.799)">
            <path d="M329.287,727.835L347.543,727.835" style="fill:none;fill-rule:nonzero;stroke:black;stroke-width:0.72px;"/>
        </g>
        <g transform="matrix(-1.08246,-0.62513,-0.62513,1.08246,1224.96,-361.408)">
            <path d="M331.226,696.845L345.604,696.845" style="fill:none;fill-rule:nonzero;stroke:black;stroke-width:0.72px;"/>
        </g>
        <g transform="matrix(-1.08243,-0.625168,-0.625168,1.08243,1233.23,-364.605)">
            <path d="M334.372,699.02L348.368,699.02" style="fill:none;fill-rule:nonzero;stroke:black;stroke-width:0.72px;"/>
        </g>
        <g transform="matrix(0,1.25,1.25,0,-472.762,-250.837)">
            <path d="M322.23,710.4L342.15,710.4" style="fill:none;fill-rule:nonzero;stroke:black;stroke-width:0.72px;"/>
        </g>
        <g transform="matrix(0,-1.25,-1.25,0,1358.85,567.15)">
            <path d="M342.12,737.64L356.76,737.64" style="fill:none;fill-rule:nonzero;stroke:black;stroke-width:0.72px;"/>
        </g>
    </g>
    <g transform="matrix(1,0,0,1,-66.7126,-103.003)">
        <g transform="matrix(1.25,0,0,1.25,0,0)">
            <text x="408.48px" y="92.4px" style="font-family:'ArialMT', 'Arial', sans-serif;font-size:10px;">O</text>
        </g>
        <g transform="matrix(1.25,0,0,1.25,0,0)">
            <text x="408.48px" y="172.32px" style="font-family:'ArialMT', 'Arial', sans-serif;font-size:10px;">O</text>
        </g>
        <g transform="matrix(0,1.25,1.25,0,-354.637,-376.762)">
            <path d="M419.85,713.52L439.77,713.52" style="fill:none;fill-rule:nonzero;stroke:black;stroke-width:0.72px;"/>
        </g>
        <g transform="matrix(0,1.25,1.25,0,-358.837,-372.563)">
            <path d="M418.15,713.52L434.75,713.52" style="fill:none;fill-rule:nonzero;stroke:black;stroke-width:0.72px;"/>
        </g>
        <g transform="matrix(-1.08251,-0.625033,-0.625033,1.08251,1437.73,-383.487)">
            <path d="M411.226,728.46L431.144,728.46" style="fill:none;fill-rule:nonzero;stroke:black;stroke-width:0.72px;"/>
        </g>
        <g transform="matrix(-1.08251,0.625033,0.625033,1.08251,545.784,-840.301)">
            <path d="M411.226,698.58L431.144,698.58" style="fill:none;fill-rule:nonzero;stroke:black;stroke-width:0.72px;"/>
        </g>
        <g transform="matrix(-1.08251,0.625033,0.625033,1.08251,486.872,-899.215)">
            <path d="M393.976,728.46L413.894,728.46" style="fill:none;fill-rule:nonzero;stroke:black;stroke-width:0.72px;"/>
        </g>
        <g transform="matrix(-1.08251,-0.625033,-0.625033,1.08251,1378.82,-324.574)">
            <path d="M393.976,698.58L413.894,698.58" style="fill:none;fill-rule:nonzero;stroke:black;stroke-width:0.72px;"/>
        </g>
        <g transform="matrix(0,1.25,1.25,0,-397.762,-333.637)">
            <path d="M385.35,713.52L405.27,713.52" style="fill:none;fill-rule:nonzero;stroke:black;stroke-width:0.72px;"/>
        </g>
        <g transform="matrix(0,1.25,1.25,0,-393.562,-337.838)">
            <path d="M390.37,713.52L406.97,713.52" style="fill:none;fill-rule:nonzero;stroke:black;stroke-width:0.72px;"/>
        </g>
        <g transform="matrix(0,-1.25,-1.25,0,1443.9,644.1)">
            <path d="M406.8,740.88L421.68,740.88" style="fill:none;fill-rule:nonzero;stroke:black;stroke-width:0.72px;"/>
        </g>
        <g transform="matrix(0,-1.25,-1.25,0,1439.7,639.9)">
            <path d="M403.44,740.88L418.32,740.88" style="fill:none;fill-rule:nonzero;stroke:black;stroke-width:0.72px;"/>
        </g>
        <g transform="matrix(0,1.25,1.25,0,-344.1,-318.9)">
            <path d="M403.44,686.16L418.32,686.16" style="fill:none;fill-rule:nonzero;stroke:black;stroke-width:0.72px;"/>
        </g>
        <g transform="matrix(0,1.25,1.25,0,-339.9,-323.1)">
            <path d="M406.8,686.16L421.68,686.16" style="fill:none;fill-rule:nonzero;stroke:black;stroke-width:0.72px;"/>
        </g>
    </g>
    <g transform="matrix(1,0,0,1,-90.2522,-120.176)">
        <g transform="matrix(1.25,0,0,1.25,0,0)">
            <text x="90.48px" y="246.48px" style="font-family:'ArialMT', 'Arial', sans-serif;font-size:10px;">C</text>
        </g>
        <g transform="matrix(1.25,0,0,1.25,0,0)">
            <text x="78.96px" y="246.48px" style="font-family:'ArialMT', 'Arial', sans-serif;font-size:10px;">H</text>
            <text x="86.16px" y="249.12px" style="font-family:'ArialMT', 'Arial', sans-serif;font-size:8px;">2</text>
        </g>
        <g transform="matrix(1.25,0,0,1.25,0,0)">
            <text x="142.32px" y="236.4px" style="font-family:'ArialMT', 'Arial', sans-serif;font-size:10px;">R</text>
        </g>
        <g transform="matrix(-1.08253,0.624995,0.624995,1.08253,-133.54,-426.031)">
            <path d="M97.65,605.685L112.43,605.685" style="fill:none;fill-rule:nonzero;stroke:black;stroke-width:0.72px;"/>
        </g>
        <g transform="matrix(-1.08262,0.62485,0.62485,1.08262,-130.426,-417.6)">
            <path d="M98.008,601.975L112.672,601.975" style="fill:none;fill-rule:nonzero;stroke:black;stroke-width:0.72px;"/>
        </g>
        <g transform="matrix(-1.08251,-0.625033,-0.625033,1.08251,657.823,-282.326)">
            <path d="M110.106,604.4L130.024,604.4" style="fill:none;fill-rule:nonzero;stroke:black;stroke-width:0.72px;"/>
        </g>
        <g transform="matrix(-1.08272,0.624678,0.624678,1.08272,-61.7523,-438.751)">
            <path d="M127.711,603.075L142.339,603.075" style="fill:none;fill-rule:nonzero;stroke:black;stroke-width:0.72px;"/>
        </g>
        <g transform="matrix(0,1.25,1.25,0,-579.175,151.5)">
            <path d="M121.3,592.03L136.08,592.03" style="fill:none;fill-rule:nonzero;stroke:black;stroke-width:0.72px;"/>
        </g>
    </g>
    <g transform="matrix(1.25,0,0,1.25,-90.2522,-120.176)">
        <text x="125.28px" y="266.4px" style="font-family:'ArialMT', 'Arial', sans-serif;font-size:10px;">S</text>
        <text x="132px" y="266.4px" style="font-family:'ArialMT', 'Arial', sans-serif;font-size:10px;">i</text>
        <text x="134.4px" y="266.4px" style="font-family:'ArialMT', 'Arial', sans-serif;font-size:10px;">M</text>
        <text x="142.8px" y="266.4px" style="font-family:'ArialMT', 'Arial', sans-serif;font-size:10px;">e</text>
        <text x="148.56px" y="269.04px" style="font-family:'ArialMT', 'Arial', sans-serif;font-size:8px;">3</text>
    </g>
    <g transform="matrix(1,0,0,1,-90.2522,-120.176)">
        <g transform="matrix(1.25,0,0,1.25,0,0)">
            <text x="224.16px" y="243.36px" style="font-family:'ArialMT', 'Arial', sans-serif;font-size:10px;">C</text>
        </g>
        <g transform="matrix(1.25,0,0,1.25,0,0)">
            <text x="212.64px" y="243.36px" style="font-family:'ArialMT', 'Arial', sans-serif;font-size:10px;">H</text>
            <text x="219.84px" y="246px" style="font-family:'ArialMT', 'Arial', sans-serif;font-size:8px;">3</text>
        </g>
        <g transform="matrix(1.25,0,0,1.25,0,0)">
            <text x="241.44px" y="233.28px" style="font-family:'ArialMT', 'Arial', sans-serif;font-size:10px;">CH</text>
            <text x="255.852px" y="226.32px" style="font-family:'ArialMT', 'Arial', sans-serif;font-size:8px;">+</text>
            <text x="276px" y="233.28px" style="font-family:'ArialMT', 'Arial', sans-serif;font-size:10px;"><tspan x="276px " y="233.28px ">R</tspan></text>
        </g>
        <g transform="matrix(1.25,0,0,1.25,0,0)">
            <text x="219.36px" y="286.8px" style="font-family:'ArialMT', 'Arial', sans-serif;font-size:10px;">Br</text>
            <text x="229.44px" y="279.84px" style="font-family:'ArialMT', 'Arial', sans-serif;font-size:8px;">–</text>
        </g>
        <g transform="matrix(-1.0826,0.624883,0.624883,1.0826,171.832,-512.295)">
            <path d="M231.689,607.465L241.111,607.465" style="fill:none;fill-rule:nonzero;stroke:black;stroke-width:0.72px;"/>
        </g>
        <g transform="matrix(-1.08231,-0.62539,-0.62539,1.08231,980.393,-197.19)">
            <path d="M253.233,604.99L263.027,604.99" style="fill:none;fill-rule:nonzero;stroke:black;stroke-width:0.72px;"/>
        </g>
        <g transform="matrix(-1.08272,0.624678,0.624678,1.08272,248.136,-529.536)">
            <path d="M261.391,606.195L276.019,606.195" style="fill:none;fill-rule:nonzero;stroke:black;stroke-width:0.72px;"/>
        </g>
        <g transform="matrix(0,1.25,1.25,0,-415.975,-19.5)">
            <path d="M254.98,595.15L269.76,595.15" style="fill:none;fill-rule:nonzero;stroke:black;stroke-width:0.72px;"/>
        </g>
        <g transform="matrix(1.25,0,0,1.25,0,-365.7)">
            <path d="M258.72,561.12L258.48,562.56L258,563.76L257.28,565.2L256.56,566.4L255.84,567.36L254.88,568.56L253.92,569.52L252.96,570.24L251.76,571.2L250.56,571.68L249.36,572.4L247.92,572.88L246.72,573.12L245.28,573.36L243.84,573.36L240.72,573.12" style="fill:none;fill-rule:nonzero;stroke:black;stroke-width:0.48px;"/>
        </g>
        <g transform="matrix(0.109867,-1.24516,-1.24516,-0.109867,1001.22,722.655)">
            <path d="M252.513,567.367L260.705,567.367L253.371,571.298L254.538,568.992L252.513,567.367Z" style="stroke:black;stroke-width:0.48px;"/>
        </g>
        <g transform="matrix(1.25,0,0,1.25,0,-443.7)">
            <path d="M259.2,602.64L257.52,603.6L255.6,603.84L254.4,603.84L253.2,603.6L252.24,602.88L251.28,602.4L250.56,601.44L249.6,599.52L249.36,598.32L249.36,597.84L249.6,596.88L249.6,595.92L250.08,595.2L250.56,594.24L251.76,593.04" style="fill:none;fill-rule:nonzero;stroke:black;stroke-width:0.48px;"/>
        </g>
        <g transform="matrix(0.865665,-0.901734,-0.901734,-0.865665,636.586,1046.27)">
            <path d="M245.414,600.545L253.731,600.545L246.522,596.618L247.588,598.973L245.414,600.545Z" style="stroke:black;stroke-width:0.48px;"/>
        </g>
    </g>
    <g transform="matrix(1.25,0,0,1.25,-90.2522,-120.176)">
        <text x="258.96px" y="263.28px" style="font-family:'ArialMT', 'Arial', sans-serif;font-size:10px;">S</text>
        <text x="265.68px" y="263.28px" style="font-family:'ArialMT', 'Arial', sans-serif;font-size:10px;">i</text>
        <text x="268.08px" y="263.28px" style="font-family:'ArialMT', 'Arial', sans-serif;font-size:10px;">M</text>
        <text x="276.48px" y="263.28px" style="font-family:'ArialMT', 'Arial', sans-serif;font-size:10px;">e</text>
        <text x="282.24px" y="265.92px" style="font-family:'ArialMT', 'Arial', sans-serif;font-size:8px;">3</text>
    </g>
    <g transform="matrix(1,0,0,1,-90.2522,-120.176)">
        <g transform="matrix(1.25,0,0,1.25,0,0)">
            <text x="174.96px" y="240.48px" style="font-family:'ArialMT', 'Arial', sans-serif;font-size:10px;">HBr</text>
        </g>
        <g transform="matrix(1.25,0,0,1.25,0,-433.8)">
            <path d="M166.32,594.48L200.4,594.48" style="fill:none;fill-rule:nonzero;stroke:black;stroke-width:0.72px;"/>
        </g>
        <g transform="matrix(1.21481,0.2945,0.2945,-1.21481,-168.162,973.63)">
            <path d="M192.139,595.413L200.289,595.413L193.044,591.681L193.991,593.886L192.139,595.413Z" style="stroke:black;stroke-width:0.72px;"/>
        </g>
    </g>
    <g transform="matrix(1,0,0,1,-90.2522,-120.176)">
        <g transform="matrix(1.25,0,0,1.25,0,0)">
            <text x="347.28px" y="250.8px" style="font-family:'ArialMT', 'Arial', sans-serif;font-size:10px;">C</text>
        </g>
        <g transform="matrix(1.25,0,0,1.25,0,0)">
            <text x="335.76px" y="250.8px" style="font-family:'ArialMT', 'Arial', sans-serif;font-size:10px;">H</text>
            <text x="342.96px" y="253.44px" style="font-family:'ArialMT', 'Arial', sans-serif;font-size:8px;">3</text>
        </g>
        <g transform="matrix(-1.08287,0.624411,0.624411,1.08287,468.848,-576.178)">
            <path d="M354.443,601.235L369.357,601.235" style="fill:none;fill-rule:nonzero;stroke:black;stroke-width:0.72px;"/>
        </g>
        <g transform="matrix(-1.08251,-0.625033,-0.625033,1.08251,1254.33,-111.433)">
            <path d="M367.026,599.98L386.944,599.98" style="fill:none;fill-rule:nonzero;stroke:black;stroke-width:0.72px;"/>
        </g>
        <g transform="matrix(-1.08237,0.625275,0.625275,1.08237,539.717,-588.853)">
            <path d="M384.638,598.625L399.132,598.625" style="fill:none;fill-rule:nonzero;stroke:black;stroke-width:0.72px;"/>
        </g>
    </g>
    <g transform="matrix(1.25,0,0,1.25,-90.2522,-120.176)">
        <text x="399.12px" y="240.96px" style="font-family:'ArialMT', 'Arial', sans-serif;font-size:10px;">R</text>
    </g>
    <g transform="matrix(1.25,0,0,1.25,-58.5452,-243.365)">
        <text x="392.16px" y="348px" style="font-family:'ArialMT', 'Arial', sans-serif;font-size:18px;">+</text>
    </g>
    <g transform="matrix(1.25,0,0,1.25,-90.2522,-120.176)">
        <text x="442.56px" y="246.24px" style="font-family:'ArialMT', 'Arial', sans-serif;font-size:10px;">M</text>
        <text x="450.96px" y="246.24px" style="font-family:'ArialMT', 'Arial', sans-serif;font-size:10px;">e</text>
        <text x="456.48px" y="248.88px" style="font-family:'ArialMT', 'Arial', sans-serif;font-size:6px;">3</text>
        <text x="460.08px" y="246.24px" style="font-family:'ArialMT', 'Arial', sans-serif;font-size:10px;">S</text>
        <text x="466.8px" y="246.24px" style="font-family:'ArialMT', 'Arial', sans-serif;font-size:10px;">i<tspan x="469.2px " y="246.24px ">X</tspan></text>
    </g>
    <g transform="matrix(1,0,0,1,-66.7126,-103.003)">
        <g transform="matrix(1.25,0,0,1.25,0,-722.4)">
            <path d="M162.96,709.92L192,709.92" style="fill:none;fill-rule:nonzero;stroke:black;stroke-width:0.48px;"/>
        </g>
        <g transform="matrix(1.25,0,0,1.25,0,-732)">
            <path d="M162.96,713.76L192,713.76" style="fill:none;fill-rule:nonzero;stroke:black;stroke-width:0.48px;"/>
        </g>
        <g transform="matrix(1.25,0,0,1.25,0,-727.2)">
            <path d="M187.92,707.76L196.08,711.84L187.92,715.92" style="fill:none;fill-rule:nonzero;stroke:black;stroke-width:0.48px;"/>
        </g>
    </g>
    <g transform="matrix(1,0,0,1,-66.7126,-103.003)">
        <g transform="matrix(1.25,0,0,1.25,0,-727.2)">
            <path d="M287.04,711.84L316.08,711.84" style="fill:none;fill-rule:nonzero;stroke:black;stroke-width:0.48px;"/>
        </g>
        <g transform="matrix(1.25,0,0,1.25,0,-736.8)">
            <path d="M287.04,715.68L316.08,715.68" style="fill:none;fill-rule:nonzero;stroke:black;stroke-width:0.48px;"/>
        </g>
        <g transform="matrix(1.25,0,0,1.25,0,-732)">
            <path d="M312,709.68L320.16,713.76L312,717.84" style="fill:none;fill-rule:nonzero;stroke:black;stroke-width:0.48px;"/>
        </g>
    </g>
    <g transform="matrix(1,0,0,1,-90.2522,-120.176)">
        <g transform="matrix(1.25,0,0,1.25,0,-441)">
            <path d="M291.6,597.36L325.68,597.36" style="fill:none;fill-rule:nonzero;stroke:black;stroke-width:0.72px;"/>
        </g>
        <g transform="matrix(1.21481,0.2945,0.2945,-1.21481,-164.602,936.634)">
            <path d="M317.419,598.293L325.569,598.293L318.324,594.561L319.271,596.766L317.419,598.293Z" style="stroke:black;stroke-width:0.72px;"/>
        </g>
    </g>
</svg>
