<?xml version="1.0" encoding="UTF-8" standalone="no"?>
<!DOCTYPE svg PUBLIC "-//W3C//DTD SVG 1.1//EN" "http://www.w3.org/Graphics/SVG/1.1/DTD/svg11.dtd">
<svg width="100%" height="100%" viewBox="0 0 64 20" version="1.1" xmlns="http://www.w3.org/2000/svg" xmlns:xlink="http://www.w3.org/1999/xlink" xml:space="preserve" xmlns:serif="http://www.serif.com/" style="fill-rule:evenodd;clip-rule:evenodd;stroke-linecap:round;stroke-linejoin:round;stroke-miterlimit:10;">
    <g transform="matrix(1.25,0,0,1.25,-228.4,-912.35)">
        <path d="M183.36,744.96L184.56,743.04L185.76,741.36L187.2,739.68L190.56,736.8L192.24,735.6L194.16,734.4L196.08,733.44L198.24,732.48L200.4,731.76L204.72,730.8L207.12,730.8L208.32,730.56L210.72,730.8L213.36,731.04L218.16,732.48L222.48,734.4L224.64,735.84L226.56,737.28L228.24,738.72L231.6,742.56L232.8,744.48L233.28,745.2" style="fill:none;fill-rule:nonzero;stroke:black;stroke-width:0.48px;"/>
    </g>
    <g transform="matrix(1.25,0,0,1.25,-228.4,-903.65)">
        <path d="M233.28,738.24L230.16,730.56L229.44,733.2L233.28,738.24Z" style="stroke:black;stroke-width:0.48px;"/>
    </g>
</svg>
