<?xml version="1.0" encoding="UTF-8" standalone="no"?>
<!DOCTYPE svg PUBLIC "-//W3C//DTD SVG 1.1//EN" "http://www.w3.org/Graphics/SVG/1.1/DTD/svg11.dtd">
<svg width="100%" height="100%" viewBox="0 0 365 435" version="1.1" xmlns="http://www.w3.org/2000/svg" xmlns:xlink="http://www.w3.org/1999/xlink" xml:space="preserve" xmlns:serif="http://www.serif.com/" style="fill-rule:evenodd;clip-rule:evenodd;stroke-linecap:round;stroke-linejoin:round;stroke-miterlimit:1.5;">
    <g transform="matrix(1,0,0,0.973848,-239.154,-66.1589)">
        <rect x="248.031" y="155.906" width="354.331" height="230.315" style="fill:rgb(230,212,254);stroke:black;stroke-width:1.01px;stroke-dasharray:4.05,4.05,0,0;"/>
    </g>
    <g transform="matrix(0.95881,0,0,1,-222.434,-76.2595)">
        <rect x="233.858" y="287.008" width="99.213" height="219.685" style="fill:rgb(255,253,184);fill-opacity:0.5;stroke:black;stroke-width:1.02px;stroke-dasharray:4.08,4.08,0,0;"/>
    </g>
    <g transform="matrix(1,0,0,1,-242.154,-70.2595)">
        <g transform="matrix(1.25,0,0,1.25,0,0)">
            <text x="218.4px" y="94.8px" style="font-family:'ArialMT', 'Arial', sans-serif;font-size:10px;">C</text>
        </g>
        <g transform="matrix(1.25,0,0,1.25,0,0)">
            <text x="206.88px" y="94.8px" style="font-family:'ArialMT', 'Arial', sans-serif;font-size:10px;">H</text>
            <text x="214.08px" y="97.44px" style="font-family:'ArialMT', 'Arial', sans-serif;font-size:8px;">3</text>
        </g>
        <g transform="matrix(1.25,0,0,1.25,0,0)">
            <text x="356.64px" y="94.8px" style="font-family:'ArialMT', 'Arial', sans-serif;font-size:10px;">CH</text>
            <text x="371.04px" y="97.44px" style="font-family:'ArialMT', 'Arial', sans-serif;font-size:8px;">3</text>
        </g>
        <g transform="matrix(1.25,0,0,1.25,0,0)">
            <text x="235.44px" y="65.04px" style="font-family:'ArialMT', 'Arial', sans-serif;font-size:10px;">O</text>
        </g>
        <g transform="matrix(1.25,0,0,1.25,0,0)">
            <text x="252.72px" y="114.72px" style="font-family:'ArialMT', 'Arial', sans-serif;font-size:10px;">O</text>
        </g>
        <g transform="matrix(1.25,0,0,1.25,0,0)">
            <text x="339.12px" y="65.04px" style="font-family:'ArialMT', 'Arial', sans-serif;font-size:10px;">O</text>
        </g>
        <g transform="matrix(-1.08272,0.624677,0.624677,1.08272,70.5635,-859.546)">
            <path d="M225.561,757.22L240.489,757.22" style="fill:none;fill-rule:nonzero;stroke:black;stroke-width:0.72px;stroke-miterlimit:10;"/>
        </g>
        <g transform="matrix(-1.08251,-0.625033,-0.625033,1.08251,1051.24,-555.829)">
            <path d="M238.156,755.97L258.074,755.97" style="fill:none;fill-rule:nonzero;stroke:black;stroke-width:0.72px;stroke-miterlimit:10;"/>
        </g>
        <g transform="matrix(-1.08251,0.625033,0.625033,1.08251,146.461,-876.771)">
            <path d="M255.406,755.97L275.324,755.97" style="fill:none;fill-rule:nonzero;stroke:black;stroke-width:0.72px;stroke-miterlimit:10;"/>
        </g>
        <g transform="matrix(-1.08251,-0.625033,-0.625033,1.08251,1131.71,-534.266)">
            <path d="M272.656,755.97L292.574,755.97" style="fill:none;fill-rule:nonzero;stroke:black;stroke-width:0.72px;stroke-miterlimit:10;"/>
        </g>
        <g transform="matrix(-1.08251,0.625033,0.625033,1.08251,226.932,-898.335)">
            <path d="M289.906,755.97L309.824,755.97" style="fill:none;fill-rule:nonzero;stroke:black;stroke-width:0.72px;stroke-miterlimit:10;"/>
        </g>
        <g transform="matrix(-1.08251,-0.625033,-0.625033,1.08251,1212.18,-512.702)">
            <path d="M307.156,755.97L327.074,755.97" style="fill:none;fill-rule:nonzero;stroke:black;stroke-width:0.72px;stroke-miterlimit:10;"/>
        </g>
        <g transform="matrix(-1.08267,0.624762,0.624762,1.08267,307.674,-919.93)">
            <path d="M324.406,755.97L344.334,755.97" style="fill:none;fill-rule:nonzero;stroke:black;stroke-width:0.72px;stroke-miterlimit:10;"/>
        </g>
        <g transform="matrix(-1.08256,-0.624949,-0.624949,1.08256,1288.12,-495.706)">
            <path d="M342.019,757.29L356.661,757.29" style="fill:none;fill-rule:nonzero;stroke:black;stroke-width:0.72px;stroke-miterlimit:10;"/>
        </g>
        <g transform="matrix(0,-1.25,-1.25,0,1261.86,393.469)">
            <path d="M233.805,768.315L248.535,768.315" style="fill:none;fill-rule:nonzero;stroke:black;stroke-width:0.72px;stroke-miterlimit:10;"/>
        </g>
        <g transform="matrix(0,-1.25,-1.25,0,1257.66,389.269)">
            <path d="M230.445,768.315L245.175,768.315" style="fill:none;fill-rule:nonzero;stroke:black;stroke-width:0.72px;stroke-miterlimit:10;"/>
        </g>
        <g transform="matrix(0,1.25,1.25,0,-610.744,-195.994)">
            <path d="M247.725,743.655L262.395,743.655" style="fill:none;fill-rule:nonzero;stroke:black;stroke-width:0.72px;stroke-miterlimit:10;"/>
        </g>
        <g transform="matrix(0,1.25,1.25,0,-606.544,-200.194)">
            <path d="M251.085,743.655L265.755,743.655" style="fill:none;fill-rule:nonzero;stroke:black;stroke-width:0.72px;stroke-miterlimit:10;"/>
        </g>
        <g transform="matrix(0,-1.25,-1.25,0,1391.24,522.856)">
            <path d="M337.315,768.315L352.045,768.315" style="fill:none;fill-rule:nonzero;stroke:black;stroke-width:0.72px;stroke-miterlimit:10;"/>
        </g>
        <g transform="matrix(0,-1.25,-1.25,0,1387.04,518.656)">
            <path d="M333.955,768.315L348.685,768.315" style="fill:none;fill-rule:nonzero;stroke:black;stroke-width:0.72px;stroke-miterlimit:10;"/>
        </g>
    </g>
    <g transform="matrix(1,0,0,1,-239.89,-103.959)">
        <g transform="matrix(1.25,0,0,1.25,0,0)">
            <text x="213.36px" y="401.52px" style="font-family:'ArialMT', 'Arial', sans-serif;font-size:10px;">C</text>
        </g>
        <g transform="matrix(1.25,0,0,1.25,0,0)">
            <text x="201.84px" y="401.52px" style="font-family:'ArialMT', 'Arial', sans-serif;font-size:10px;">H</text>
            <text x="209.04px" y="404.16px" style="font-family:'ArialMT', 'Arial', sans-serif;font-size:8px;">3</text>
        </g>
        <g transform="matrix(1.25,0,0,1.25,0,0)">
            <text x="243.12px" y="418.56px" style="font-family:'ArialMT', 'Arial', sans-serif;font-size:10px;">H</text>
        </g>
        <g transform="matrix(1.25,0,0,1.25,0,0)">
            <text x="242.88px" y="384.24px" style="font-family:'ArialMT', 'Arial', sans-serif;font-size:10px;">O</text>
        </g>
        <g transform="matrix(1.25,0,0,1.25,0,-58.8)">
            <path d="M221.52,444.48L236.88,444.48" style="fill:none;fill-rule:nonzero;stroke:black;stroke-width:0.72px;stroke-miterlimit:10;"/>
        </g>
        <g transform="matrix(0.625122,1.08246,1.08246,-0.625122,-324.451,518.239)">
            <path d="M233.416,438.48L247.274,438.48" style="fill:none;fill-rule:nonzero;stroke:black;stroke-width:0.72px;stroke-miterlimit:10;"/>
        </g>
        <g transform="matrix(0.625431,-1.08228,-1.08228,-0.625431,638.263,1033.26)">
            <path d="M234.625,450.06L249.455,450.06" style="fill:none;fill-rule:nonzero;stroke:black;stroke-width:0.72px;stroke-miterlimit:10;"/>
        </g>
        <g transform="matrix(0.624625,-1.08275,-1.08275,-0.624625,637.521,1028.82)">
            <path d="M232.181,450.945L245.169,450.945" style="fill:none;fill-rule:nonzero;stroke:black;stroke-width:0.72px;stroke-miterlimit:10;"/>
        </g>
    </g>
    <g transform="matrix(1.25,0,0,1.25,-236.752,-62.2587)">
        <text x="288.48px" y="263.76px" style="font-family:'ArialMT', 'Arial', sans-serif;font-size:18px;">+</text>
    </g>
    <g transform="matrix(0.930778,0,0,0.949999,-214.683,-61.9087)">
        <rect x="396.85" y="287.008" width="212.598" height="233.858" style="fill:rgb(83,255,164);fill-opacity:0.5;stroke:black;stroke-width:1.06px;stroke-dasharray:4.25,4.25,0,0;"/>
    </g>
    <g transform="matrix(1,0,0,1,-217.44,-99.5588)">
        <g transform="matrix(1.25,0,0,1.25,0,0)">
            <text x="346.08px" y="414.24px" style="font-family:'ArialMT', 'Arial', sans-serif;font-size:10px;">C</text>
        </g>
        <g transform="matrix(1.25,0,0,1.25,0,0)">
            <text x="334.56px" y="414.24px" style="font-family:'ArialMT', 'Arial', sans-serif;font-size:10px;">H</text>
            <text x="341.76px" y="416.88px" style="font-family:'ArialMT', 'Arial', sans-serif;font-size:8px;">3</text>
        </g>
        <g transform="matrix(0,1.25,1.25,0,-62.5375,-13.9625)">
            <path d="M391.57,451.56L411.49,451.56" style="fill:none;fill-rule:nonzero;stroke:black;stroke-width:0.72px;stroke-miterlimit:10;"/>
        </g>
        <g transform="matrix(-1.08251,-0.625033,-0.625033,1.08251,1208.03,209.862)">
            <path d="M382.946,466.5L402.864,466.5" style="fill:none;fill-rule:nonzero;stroke:black;stroke-width:0.72px;stroke-miterlimit:10;"/>
        </g>
        <g transform="matrix(-1.08251,0.625033,0.625033,1.08251,643.554,-211.6)">
            <path d="M382.946,436.62L402.864,436.62" style="fill:none;fill-rule:nonzero;stroke:black;stroke-width:0.72px;stroke-miterlimit:10;"/>
        </g>
        <g transform="matrix(-1.08251,0.625033,0.625033,1.08251,584.642,-270.514)">
            <path d="M365.696,466.5L385.614,466.5" style="fill:none;fill-rule:nonzero;stroke:black;stroke-width:0.72px;stroke-miterlimit:10;"/>
        </g>
        <g transform="matrix(-1.08251,-0.625033,-0.625033,1.08251,1149.12,268.775)">
            <path d="M365.696,436.62L385.614,436.62" style="fill:none;fill-rule:nonzero;stroke:black;stroke-width:0.72px;stroke-miterlimit:10;"/>
        </g>
        <g transform="matrix(0,1.25,1.25,0,-105.663,29.1625)">
            <path d="M357.07,451.56L376.99,451.56" style="fill:none;fill-rule:nonzero;stroke:black;stroke-width:0.72px;stroke-miterlimit:10;"/>
        </g>
        <g transform="matrix(0,1.25,1.25,0,-101.463,24.9625)">
            <path d="M362.09,451.56L378.69,451.56" style="fill:none;fill-rule:nonzero;stroke:black;stroke-width:0.72px;stroke-miterlimit:10;"/>
        </g>
        <g transform="matrix(-1.08269,0.624726,0.624726,1.08269,567.676,-194.406)">
            <path d="M353.252,437.91L368.018,437.91" style="fill:none;fill-rule:nonzero;stroke:black;stroke-width:0.72px;stroke-miterlimit:10;"/>
        </g>
    </g>
    <g transform="matrix(1,0,0,1,-242.486,-90.7433)">
        <g transform="matrix(1.25,0,0,1.25,0,0)">
            <text x="220.08px" y="201.36px" style="font-family:'ArialMT', 'Arial', sans-serif;font-size:10px;">C</text>
        </g>
        <g transform="matrix(1.25,0,0,1.25,0,0)">
            <text x="208.56px" y="201.36px" style="font-family:'ArialMT', 'Arial', sans-serif;font-size:10px;">H</text>
            <text x="215.76px" y="204px" style="font-family:'ArialMT', 'Arial', sans-serif;font-size:8px;">3</text>
        </g>
        <g transform="matrix(1.25,0,0,1.25,0,0)">
            <text x="358.32px" y="201.36px" style="font-family:'ArialMT', 'Arial', sans-serif;font-size:10px;">CH</text>
            <text x="372.72px" y="204px" style="font-family:'ArialMT', 'Arial', sans-serif;font-size:8px;">3</text>
        </g>
        <g transform="matrix(1.25,0,0,1.25,0,0)">
            <text x="254.4px" y="221.28px" style="font-family:'ArialMT', 'Arial', sans-serif;font-size:10px;">O</text>
        </g>
        <g transform="matrix(1.25,0,0,1.25,0,0)">
            <text x="340.8px" y="171.6px" style="font-family:'ArialMT', 'Arial', sans-serif;font-size:10px;">O</text>
            <text x="220.32px" y="181.44px" style="font-family:'ArialMT', 'Arial', sans-serif;font-size:10px;">S</text>
        </g>
        <g transform="matrix(1.25,0,0,1.25,0,0)">
            <text x="254.88px" y="181.44px" style="font-family:'ArialMT', 'Arial', sans-serif;font-size:10px;">S</text>
        </g>
        <g transform="matrix(-1.08251,0.62504,0.62504,1.08251,140.726,-612.06)">
            <path d="M227.24,650.7L242.16,650.7" style="fill:none;fill-rule:nonzero;stroke:black;stroke-width:0.72px;stroke-miterlimit:10;"/>
        </g>
        <g transform="matrix(-1.08267,-0.624762,-0.624762,1.08267,988.429,-306.493)">
            <path d="M239.826,649.45L259.754,649.45" style="fill:none;fill-rule:nonzero;stroke:black;stroke-width:0.72px;stroke-miterlimit:10;"/>
        </g>
        <g transform="matrix(-1.08251,0.625033,0.625033,1.08251,216.958,-629.362)">
            <path d="M257.086,649.45L277.004,649.45" style="fill:none;fill-rule:nonzero;stroke:black;stroke-width:0.72px;stroke-miterlimit:10;"/>
        </g>
        <g transform="matrix(-1.08251,-0.625033,-0.625033,1.08251,1069.05,-284.756)">
            <path d="M274.336,649.45L294.254,649.45" style="fill:none;fill-rule:nonzero;stroke:black;stroke-width:0.72px;stroke-miterlimit:10;"/>
        </g>
        <g transform="matrix(-1.08251,0.625033,0.625033,1.08251,297.43,-650.926)">
            <path d="M291.586,649.45L311.504,649.45" style="fill:none;fill-rule:nonzero;stroke:black;stroke-width:0.72px;stroke-miterlimit:10;"/>
        </g>
        <g transform="matrix(-1.08251,-0.625033,-0.625033,1.08251,1149.52,-263.193)">
            <path d="M308.836,649.45L328.754,649.45" style="fill:none;fill-rule:nonzero;stroke:black;stroke-width:0.72px;stroke-miterlimit:10;"/>
        </g>
        <g transform="matrix(-1.08251,0.625033,0.625033,1.08251,377.901,-672.49)">
            <path d="M326.086,649.45L346.004,649.45" style="fill:none;fill-rule:nonzero;stroke:black;stroke-width:0.72px;stroke-miterlimit:10;"/>
        </g>
        <g transform="matrix(-1.08241,-0.625219,-0.625219,1.08241,1225.58,-245.986)">
            <path d="M343.688,650.765L358.342,650.765" style="fill:none;fill-rule:nonzero;stroke:black;stroke-width:0.72px;stroke-miterlimit:10;"/>
        </g>
        <g transform="matrix(0,1.25,1.25,0,-475.469,-64.9188)">
            <path d="M249.385,637.115L264.095,637.115" style="fill:none;fill-rule:nonzero;stroke:black;stroke-width:0.72px;stroke-miterlimit:10;"/>
        </g>
        <g transform="matrix(0,1.25,1.25,0,-471.269,-69.1188)">
            <path d="M252.745,637.115L267.455,637.115" style="fill:none;fill-rule:nonzero;stroke:black;stroke-width:0.72px;stroke-miterlimit:10;"/>
        </g>
        <g transform="matrix(0,-1.25,-1.25,0,1260.16,658.119)">
            <path d="M339.005,661.775L353.695,661.775" style="fill:none;fill-rule:nonzero;stroke:black;stroke-width:0.72px;stroke-miterlimit:10;"/>
        </g>
        <g transform="matrix(0,-1.25,-1.25,0,1255.96,653.919)">
            <path d="M335.645,661.775L350.335,661.775" style="fill:none;fill-rule:nonzero;stroke:black;stroke-width:0.72px;stroke-miterlimit:10;"/>
        </g>
        <g transform="matrix(-1.08246,-0.625128,-0.625128,1.08246,958.626,-336.251)">
            <path d="M226.982,658.23L242.178,658.23" style="fill:none;fill-rule:nonzero;stroke:black;stroke-width:0.72px;stroke-miterlimit:10;"/>
        </g>
        <g transform="matrix(1.08279,-0.624555,-0.624555,-1.08279,452.418,1096.96)">
            <path d="M240.175,658.11L254.905,658.11" style="fill:none;fill-rule:nonzero;stroke:black;stroke-width:0.72px;stroke-miterlimit:10;"/>
        </g>
        <g transform="matrix(0,-1.25,-1.25,0,1126.08,486.094)">
            <path d="M216.555,676.955L231.265,676.955" style="fill:none;fill-rule:nonzero;stroke:black;stroke-width:0.72px;stroke-miterlimit:10;"/>
        </g>
        <g transform="matrix(0,-1.25,-1.25,0,1169.22,529.231)">
            <path d="M251.065,676.955L265.775,676.955" style="fill:none;fill-rule:nonzero;stroke:black;stroke-width:0.72px;stroke-miterlimit:10;"/>
        </g>
        <g transform="matrix(1.08267,-0.624762,-0.624762,-1.08267,469.553,1082.34)">
            <path d="M222.576,689.29L242.504,689.29" style="fill:none;fill-rule:nonzero;stroke:black;stroke-width:0.72px;stroke-miterlimit:10;"/>
        </g>
        <g transform="matrix(-1.08251,-0.625033,-0.625033,1.08251,1013.48,-399.247)">
            <path d="M239.836,689.29L259.754,689.29" style="fill:none;fill-rule:nonzero;stroke:black;stroke-width:0.72px;stroke-miterlimit:10;"/>
        </g>
    </g>
    <g transform="matrix(1,0,0,1,-249.304,-90.8948)">
        <g transform="matrix(1.25,0,0,1.25,0,0)">
            <text x="233.04px" y="311.76px" style="font-family:'ArialMT', 'Arial', sans-serif;font-size:10px;">CH</text>
            <text x="247.44px" y="314.4px" style="font-family:'ArialMT', 'Arial', sans-serif;font-size:8px;">3</text>
        </g>
        <g transform="matrix(1.25,0,0,1.25,0,0)">
            <text x="216px" y="282px" style="font-family:'ArialMT', 'Arial', sans-serif;font-size:10px;">S</text>
        </g>
        <g transform="matrix(1.25,0,0,1.25,0,0)">
            <text x="250.56px" y="282px" style="font-family:'ArialMT', 'Arial', sans-serif;font-size:10px;">S</text>
        </g>
        <g transform="matrix(0,1.25,1.25,0,-387.35,73.2)">
            <path d="M229.4,546.62L244.08,546.62" style="fill:none;fill-rule:nonzero;stroke:black;stroke-width:0.72px;stroke-miterlimit:10;"/>
        </g>
        <g transform="matrix(-1.08254,-0.624988,-0.624988,1.08254,885.548,-104.648)">
            <path d="M222.67,557.73L237.75,557.73" style="fill:none;fill-rule:nonzero;stroke:black;stroke-width:0.72px;stroke-miterlimit:10;"/>
        </g>
        <g transform="matrix(1.0827,-0.624702,-0.624702,-1.0827,389.059,1111.01)">
            <path d="M235.746,557.67L250.594,557.67" style="fill:none;fill-rule:nonzero;stroke:black;stroke-width:0.72px;stroke-miterlimit:10;"/>
        </g>
        <g transform="matrix(0,-1.25,-1.25,0,994.912,606.213)">
            <path d="M212.09,576.44L226.89,576.44" style="fill:none;fill-rule:nonzero;stroke:black;stroke-width:0.72px;stroke-miterlimit:10;"/>
        </g>
        <g transform="matrix(0,-1.25,-1.25,0,1038.04,649.338)">
            <path d="M246.59,576.44L261.39,576.44" style="fill:none;fill-rule:nonzero;stroke:black;stroke-width:0.72px;stroke-miterlimit:10;"/>
        </g>
        <g transform="matrix(1.08251,-0.625033,-0.625033,-1.08251,406.239,1096.36)">
            <path d="M218.156,588.82L238.074,588.82" style="fill:none;fill-rule:nonzero;stroke:black;stroke-width:0.72px;stroke-miterlimit:10;"/>
        </g>
        <g transform="matrix(-1.08251,-0.625033,-0.625033,1.08251,940.349,-167.669)">
            <path d="M235.406,588.82L255.324,588.82" style="fill:none;fill-rule:nonzero;stroke:black;stroke-width:0.72px;stroke-miterlimit:10;"/>
        </g>
    </g>
    <g transform="matrix(1,0,0,1,-229.386,-70.8112)">
        <g transform="matrix(1.25,0,0,1.25,0,0)">
            <text x="440.4px" y="268.08px" style="font-family:'ArialMT', 'Arial', sans-serif;font-size:10px;">CH</text>
            <text x="454.8px" y="270.72px" style="font-family:'ArialMT', 'Arial', sans-serif;font-size:8px;">3</text>
        </g>
        <g transform="matrix(1.25,0,0,1.25,0,0)">
            <text x="314.88px" y="258px" style="font-family:'ArialMT', 'Arial', sans-serif;font-size:10px;">Cl</text>
        </g>
        <g transform="matrix(1.25,0,0,1.25,0,0)">
            <text x="336.48px" y="288px" style="font-family:'ArialMT', 'Arial', sans-serif;font-size:10px;">O</text>
        </g>
        <g transform="matrix(1.25,0,0,1.25,0,0)">
            <text x="422.88px" y="238.08px" style="font-family:'ArialMT', 'Arial', sans-serif;font-size:10px;">O</text>
        </g>
        <g transform="matrix(-1.08251,0.625033,0.625033,1.08251,450.146,-525.474)">
            <path d="M339.226,582.9L359.144,582.9" style="fill:none;fill-rule:nonzero;stroke:black;stroke-width:0.72px;stroke-miterlimit:10;"/>
        </g>
        <g transform="matrix(-1.08251,-0.625033,-0.625033,1.08251,1219.05,-78.1875)">
            <path d="M356.476,582.9L376.394,582.9" style="fill:none;fill-rule:nonzero;stroke:black;stroke-width:0.72px;stroke-miterlimit:10;"/>
        </g>
        <g transform="matrix(-1.08251,0.625033,0.625033,1.08251,530.618,-547.037)">
            <path d="M373.726,582.9L393.644,582.9" style="fill:none;fill-rule:nonzero;stroke:black;stroke-width:0.72px;stroke-miterlimit:10;"/>
        </g>
        <g transform="matrix(-1.08251,-0.625033,-0.625033,1.08251,1299.52,-56.6238)">
            <path d="M390.976,582.9L410.894,582.9" style="fill:none;fill-rule:nonzero;stroke:black;stroke-width:0.72px;stroke-miterlimit:10;"/>
        </g>
        <g transform="matrix(-1.08267,0.624762,0.624762,1.08267,611.325,-568.582)">
            <path d="M408.226,582.9L428.154,582.9" style="fill:none;fill-rule:nonzero;stroke:black;stroke-width:0.72px;stroke-miterlimit:10;"/>
        </g>
        <g transform="matrix(-1.08239,-0.625247,-0.625247,1.08239,1375.52,-39.4501)">
            <path d="M425.843,584.235L440.417,584.235" style="fill:none;fill-rule:nonzero;stroke:black;stroke-width:0.72px;stroke-miterlimit:10;"/>
        </g>
        <g transform="matrix(-1.08252,-0.625025,-0.625025,1.08252,1140.67,-97.6566)">
            <path d="M324.27,582.285L341.73,582.285" style="fill:none;fill-rule:nonzero;stroke:black;stroke-width:0.72px;stroke-miterlimit:10;"/>
        </g>
        <g transform="matrix(0,1.25,1.25,0,-289.5,-84.3)">
            <path d="M331.44,570.48L346.32,570.48" style="fill:none;fill-rule:nonzero;stroke:black;stroke-width:0.72px;stroke-miterlimit:10;"/>
        </g>
        <g transform="matrix(0,1.25,1.25,0,-285.3,-88.5)">
            <path d="M334.8,570.48L349.68,570.48" style="fill:none;fill-rule:nonzero;stroke:black;stroke-width:0.72px;stroke-miterlimit:10;"/>
        </g>
        <g transform="matrix(0,-1.25,-1.25,0,1279.7,843.95)">
            <path d="M421.12,595.26L435.88,595.26" style="fill:none;fill-rule:nonzero;stroke:black;stroke-width:0.72px;stroke-miterlimit:10;"/>
        </g>
        <g transform="matrix(0,-1.25,-1.25,0,1275.5,839.75)">
            <path d="M417.76,595.26L432.52,595.26" style="fill:none;fill-rule:nonzero;stroke:black;stroke-width:0.72px;stroke-miterlimit:10;"/>
        </g>
    </g>
    <g transform="matrix(1,0,0,1,-242.154,-76.2595)">
        <g transform="matrix(0.0121354,1.24994,1.24994,-0.0121354,-521.933,-193.875)">
            <path d="M282.239,709.32L306.961,709.32" style="fill:none;fill-rule:nonzero;stroke:black;stroke-width:0.48px;stroke-miterlimit:10;"/>
        </g>
        <g transform="matrix(0.0121354,1.24994,1.24994,-0.0121354,-517.18,-198.675)">
            <path d="M286.079,709.32L310.801,709.32" style="fill:none;fill-rule:nonzero;stroke:black;stroke-width:0.48px;stroke-miterlimit:10;"/>
        </g>
        <g transform="matrix(1.25,0,0,1.25,0,-690)">
            <path d="M300.72,692.88L296.64,701.04L292.56,692.88" style="fill:none;fill-rule:nonzero;stroke:black;stroke-width:0.48px;stroke-miterlimit:10;"/>
        </g>
    </g>
    <g transform="matrix(1,0,0,1,-248.798,-102.019)">
        <g transform="matrix(0.0121354,1.24994,1.24994,-0.0121354,-330.126,142.847)">
            <path d="M222.959,497.16L247.681,497.16" style="fill:none;fill-rule:nonzero;stroke:black;stroke-width:0.48px;stroke-miterlimit:10;"/>
        </g>
        <g transform="matrix(0.0121354,1.24994,1.24994,-0.0121354,-325.373,138.047)">
            <path d="M226.799,497.16L251.521,497.16" style="fill:none;fill-rule:nonzero;stroke:black;stroke-width:0.48px;stroke-miterlimit:10;"/>
        </g>
        <g transform="matrix(1.25,0,0,1.25,0,-159.6)">
            <path d="M241.44,480.72L237.36,488.88L233.28,480.72" style="fill:none;fill-rule:nonzero;stroke:black;stroke-width:0.48px;stroke-miterlimit:10;"/>
        </g>
    </g>
    <g transform="matrix(1,0,0,1,-242.154,-76.2595)">
        <g transform="matrix(0.0121354,1.24994,1.24994,-0.0121354,-403.753,-79.8077)">
            <path d="M283.439,615.96L308.161,615.96" style="fill:none;fill-rule:nonzero;stroke:black;stroke-width:0.48px;stroke-miterlimit:10;"/>
        </g>
        <g transform="matrix(0.0121354,1.24994,1.24994,-0.0121354,-399,-84.6075)">
            <path d="M287.279,615.96L312.001,615.96" style="fill:none;fill-rule:nonzero;stroke:black;stroke-width:0.48px;stroke-miterlimit:10;"/>
        </g>
        <g transform="matrix(1.25,0,0,1.25,0,-456.6)">
            <path d="M301.92,599.52L297.84,607.68L293.76,599.52" style="fill:none;fill-rule:nonzero;stroke:black;stroke-width:0.48px;stroke-miterlimit:10;"/>
        </g>
    </g>
    <g transform="matrix(1,0,0,1,-216.709,-95.4194)">
        <g transform="matrix(0.0121354,1.24994,1.24994,-0.0121354,-162.93,-39.1806)">
            <path d="M363.359,502.44L388.081,502.44" style="fill:none;fill-rule:nonzero;stroke:black;stroke-width:0.48px;stroke-miterlimit:10;"/>
        </g>
        <g transform="matrix(0.0121354,1.24994,1.24994,-0.0121354,-158.176,-43.9804)">
            <path d="M367.199,502.44L391.921,502.44" style="fill:none;fill-rule:nonzero;stroke:black;stroke-width:0.48px;stroke-miterlimit:10;"/>
        </g>
        <g transform="matrix(1.25,0,0,1.25,0,-172.8)">
            <path d="M381.84,486L377.76,494.16L373.68,486" style="fill:none;fill-rule:nonzero;stroke:black;stroke-width:0.48px;stroke-miterlimit:10;"/>
        </g>
    </g>
</svg>
