<?xml version="1.0" encoding="UTF-8" standalone="no"?>
<!DOCTYPE svg PUBLIC "-//W3C//DTD SVG 1.1//EN" "http://www.w3.org/Graphics/SVG/1.1/DTD/svg11.dtd">
<svg width="100%" height="100%" viewBox="0 0 620 240" version="1.1" xmlns="http://www.w3.org/2000/svg" xmlns:xlink="http://www.w3.org/1999/xlink" xml:space="preserve" xmlns:serif="http://www.serif.com/" style="fill-rule:evenodd;clip-rule:evenodd;stroke-linecap:round;stroke-linejoin:round;stroke-miterlimit:10;">
    <g transform="matrix(1.33333,0,0,1.33333,-66.9679,-60.9012)">
        <text x="67.68px" y="70.32px" style="font-family:'ArialMT', 'Arial', sans-serif;font-size:10px;">O</text>
    </g>
    <g transform="matrix(1.33333,0,0,1.33333,-66.9679,-60.9012)">
        <text x="171.36px" y="70.8px" style="font-family:'ArialMT', 'Arial', sans-serif;font-size:10px;">O</text>
    </g>
    <g transform="matrix(1.33333,0,0,1.33333,-66.9679,-60.9012)">
        <text x="221.04px" y="109.44px" style="font-family:'ArialMT', 'Arial', sans-serif;font-size:10px;">O</text>
    </g>
    <g transform="matrix(1.33333,0,0,1.33333,-66.9679,-60.9012)">
        <text x="210.48px" y="76.8px" style="font-family:'ArialMT', 'Arial', sans-serif;font-size:10px;">O</text>
    </g>
    <g transform="matrix(1.33333,0,0,1.33333,-66.9679,-60.9012)">
        <text x="240.24px" y="103.44px" style="font-family:'ArialMT', 'Arial', sans-serif;font-size:10px;">CH</text>
        <text x="254.64px" y="106.08px" style="font-family:'ArialMT', 'Arial', sans-serif;font-size:8px;">3</text>
    </g>
    <g transform="matrix(1.33333,0,0,1.33333,-66.9679,-60.9012)">
        <text x="206.64px" y="75.84px" style="font-family:'ArialMT', 'Arial', sans-serif;font-size:10px;">:</text>
        <text x="218.16px" y="76.32px" style="font-family:'ArialMT', 'Arial', sans-serif;font-size:10px;">:</text>
    </g>
    <g transform="matrix(1.33333,0,0,1.33333,-66.9679,-60.9012)">
        <text x="346.8px" y="73.92px" style="font-family:'ArialMT', 'Arial', sans-serif;font-size:10px;">O</text>
        <text x="354.72px" y="66.96px" style="font-family:'ArialMT', 'Arial', sans-serif;font-size:8px;">–</text>
    </g>
    <g transform="matrix(1.33333,0,0,1.33333,-66.9679,-60.9012)">
        <text x="387.6px" y="98.16px" style="font-family:'ArialMT', 'Arial', sans-serif;font-size:18px;">+</text>
        <text x="414.72px" y="104.16px" style="font-family:'ArialMT', 'Arial', sans-serif;font-size:10px;">O</text>
        <text x="422.64px" y="97.2px" style="font-family:'ArialMT', 'Arial', sans-serif;font-size:8px;">+</text>
        <text x="454.56px" y="103.92px" style="font-family:'ArialMT', 'Arial', sans-serif;font-size:10px;"><tspan x="454.56px " y="103.92px ">O</tspan></text>
        <text x="465.095px" y="86.88px" style="font-family:'ArialMT', 'Arial', sans-serif;font-size:10px;">CH</text>
        <text x="479.517px" y="89.52px" style="font-family:'ArialMT', 'Arial', sans-serif;font-size:8px;">3</text>
    </g>
    <g transform="matrix(1.33333,0,0,1.33333,-66.9679,-60.9012)">
        <text x="354.72px" y="73.2px" style="font-family:'ArialMT', 'Arial', sans-serif;font-size:10px;">:</text>
    </g>
    <g transform="matrix(0.0186667,-1.3332,1.3332,0.0186667,-66.9679,-60.9012)">
        <text x="-61.201px" y="352.491px" style="font-family:'ArialMT', 'Arial', sans-serif;font-size:10px;">:</text>
    </g>
    <g transform="matrix(1.33333,0,0,1.33333,-66.9679,-60.9012)">
        <text x="343.44px" y="73.44px" style="font-family:'ArialMT', 'Arial', sans-serif;font-size:10px;">:</text>
    </g>
    <g transform="matrix(1.33333,0,0,1.33333,-66.9679,-60.9012)">
        <text x="411.84px" y="206.64px" style="font-family:'ArialMT', 'Arial', sans-serif;font-size:10px;">C</text>
    </g>
    <g transform="matrix(1.33333,0,0,1.33333,-66.9679,-60.9012)">
        <text x="400.32px" y="206.64px" style="font-family:'ArialMT', 'Arial', sans-serif;font-size:10px;">H</text>
        <text x="407.52px" y="209.28px" style="font-family:'ArialMT', 'Arial', sans-serif;font-size:8px;">3</text>
        <text x="428.88px" y="216.48px" style="font-family:'ArialMT', 'Arial', sans-serif;font-size:10px;">O</text>
    </g>
    <g transform="matrix(1.33333,0,0,1.33333,-66.9679,-60.9012)">
        <text x="463.2px" y="216.48px" style="font-family:'ArialMT', 'Arial', sans-serif;font-size:10px;">O</text>
    </g>
    <g transform="matrix(1.33333,0,0,1.33333,-66.9679,-60.9012)">
        <text x="445.92px" y="186.72px" style="font-family:'ArialMT', 'Arial', sans-serif;font-size:10px;">O</text>
    </g>
    <g transform="matrix(1.33333,0,0,1.33333,-66.9679,-60.9012)">
        <text x="480.72px" y="206.64px" style="font-family:'ArialMT', 'Arial', sans-serif;font-size:10px;">CH</text>
        <text x="495.12px" y="209.28px" style="font-family:'ArialMT', 'Arial', sans-serif;font-size:8px;">3</text>
    </g>
    <g transform="matrix(-1.07962,0.782437,0.782437,1.07962,-500.568,-797.433)">
        <path d="M53.505,749.885L73.425,749.885" style="fill:none;fill-rule:nonzero;stroke:black;stroke-width:0.72px;"/>
    </g>
    <g transform="matrix(-0.410979,-1.26841,-1.26841,0.410979,966.754,-145.488)">
        <path d="M48.51,734.565L68.43,734.565" style="fill:none;fill-rule:nonzero;stroke:black;stroke-width:0.72px;"/>
    </g>
    <g transform="matrix(-1.0782,-0.784388,-0.784388,1.0782,713.143,-684.251)">
        <path d="M69.624,749.87L89.546,749.87" style="fill:none;fill-rule:nonzero;stroke:black;stroke-width:0.72px;"/>
    </g>
    <g transform="matrix(-1.33333,-0.00133802,-0.00133802,1.33333,124.682,-871.792)">
        <path d="M61.54,725.08L81.47,725.08" style="fill:none;fill-rule:nonzero;stroke:black;stroke-width:0.72px;"/>
    </g>
    <g transform="matrix(0.412993,-1.26776,-1.26776,-0.412993,942.072,492.827)">
        <path d="M74.595,734.54L94.515,734.54" style="fill:none;fill-rule:nonzero;stroke:black;stroke-width:0.72px;"/>
    </g>
    <g transform="matrix(0.000908884,-1.33333,-1.33333,-0.000908884,1048.01,142.552)">
        <path d="M65.88,763.065L80.55,763.065" style="fill:none;fill-rule:nonzero;stroke:black;stroke-width:0.72px;"/>
    </g>
    <g transform="matrix(0.000908884,-1.33333,-1.33333,-0.000908884,1043.53,138.072)">
        <path d="M62.52,763.065L77.19,763.065" style="fill:none;fill-rule:nonzero;stroke:black;stroke-width:0.72px;"/>
    </g>
    <g transform="matrix(1.33333,0,0,1.33333,-66.9679,-936.421)">
        <path d="M102,749.28L136.08,749.28" style="fill:none;fill-rule:nonzero;stroke:black;stroke-width:0.72px;"/>
    </g>
    <g transform="matrix(1.33333,0,0,1.33333,-66.9679,-944.101)">
        <path d="M102,752.16L136.08,752.16" style="fill:none;fill-rule:nonzero;stroke:black;stroke-width:0.72px;"/>
    </g>
    <g transform="matrix(1.33333,0,0,1.33333,-66.9679,-940.261)">
        <path d="M131.52,747.12L139.44,750.72L131.52,754.32" style="fill:none;fill-rule:nonzero;stroke:black;stroke-width:0.72px;"/>
    </g>
    <g transform="matrix(-1.07962,0.782437,0.782437,1.07962,-250.018,-877.398)">
        <path d="M157.185,749.405L177.105,749.405" style="fill:none;fill-rule:nonzero;stroke:black;stroke-width:0.72px;"/>
    </g>
    <g transform="matrix(-0.410979,-1.26841,-1.26841,0.410979,1147,-13.1418)">
        <path d="M152.19,734.085L172.11,734.085" style="fill:none;fill-rule:nonzero;stroke:black;stroke-width:0.72px;"/>
    </g>
    <g transform="matrix(-1.0782,-0.784388,-0.784388,1.0782,962.794,-601.769)">
        <path d="M173.304,749.39L193.226,749.39" style="fill:none;fill-rule:nonzero;stroke:black;stroke-width:0.72px;"/>
    </g>
    <g transform="matrix(-1.33333,-0.00133802,-0.00133802,1.33333,401.161,-870.373)">
        <path d="M165.22,724.6L185.15,724.6" style="fill:none;fill-rule:nonzero;stroke:black;stroke-width:0.72px;"/>
    </g>
    <g transform="matrix(0.412993,-1.26776,-1.26776,-0.412993,1036.88,624.71)">
        <path d="M178.275,734.06L198.195,734.06" style="fill:none;fill-rule:nonzero;stroke:black;stroke-width:0.72px;"/>
    </g>
    <g transform="matrix(0.000908884,-1.33333,-1.33333,-0.000908884,1185.51,281.432)">
        <path d="M169.56,762.585L184.23,762.585" style="fill:none;fill-rule:nonzero;stroke:black;stroke-width:0.72px;"/>
    </g>
    <g transform="matrix(0.000908884,-1.33333,-1.33333,-0.000908884,1181.03,276.952)">
        <path d="M166.2,762.585L180.87,762.585" style="fill:none;fill-rule:nonzero;stroke:black;stroke-width:0.72px;"/>
    </g>
    <g transform="matrix(1.26841,-0.410979,-0.410979,-1.26841,252.905,1095.71)">
        <path d="M190.835,746.6L210.755,746.6" style="fill:none;fill-rule:nonzero;stroke:black;stroke-width:0.72px;"/>
    </g>
    <g transform="matrix(0.990004,0.893123,0.893123,-0.990004,-658.688,613.617)">
        <path d="M208.569,745.245L221.781,745.245" style="fill:none;fill-rule:nonzero;stroke:black;stroke-width:0.72px;"/>
    </g>
    <g transform="matrix(0.27864,-1.30389,-1.30389,-0.27864,1144.73,541.999)">
        <path d="M206.005,756.62L220.935,756.62" style="fill:none;fill-rule:nonzero;stroke:black;stroke-width:0.72px;"/>
    </g>
    <g transform="matrix(0.278603,-1.3039,-1.3039,-0.278603,1141.65,537.216)">
        <path d="M202.998,756.97L217.212,756.97" style="fill:none;fill-rule:nonzero;stroke:black;stroke-width:0.72px;"/>
    </g>
    <g transform="matrix(1.26813,-0.41187,-0.41187,-1.26813,252.875,1110.07)">
        <path d="M229.679,739.42L239.521,739.42" style="fill:none;fill-rule:nonzero;stroke:black;stroke-width:0.72px;"/>
    </g>
    <g transform="matrix(1.33333,0,0,1.33333,-66.9679,-965.861)">
        <path d="M205.92,768.96L204.72,768.72L202.32,767.76L201.36,767.04L200.4,766.08L198.96,764.16L198.48,762.96L198.24,761.52L198.24,759.12L198.48,757.92L199.92,755.04L200.64,754.08L201.6,753.36L204.48,751.92L205.68,751.68L207.84,751.68" style="fill:none;fill-rule:nonzero;stroke:black;stroke-width:0.48px;"/>
    </g>
    <g transform="matrix(1.31915,0.193992,0.193992,-1.31915,-210.413,1011.8)">
        <path d="M197.995,752.3L206.243,752.3L199.099,756.344L199.958,753.802L197.995,752.3Z" style="stroke:black;stroke-width:0.48px;"/>
    </g>
    <g transform="matrix(1.33333,0,0,1.33333,-66.9679,-914.021)">
        <path d="M204.48,736.8L204,739.2L203.52,740.4L203.04,741.36L201.6,743.28L200.64,744.24L199.68,744.96L198.72,745.44L197.76,746.16L196.56,746.4L195.36,746.88L192.24,746.88L191.04,746.64L190.08,746.4L188.88,745.92L186.96,744.96L185.52,743.52L184.8,742.56L184.08,741.84L183.6,740.88L183.12,739.68L182.64,738.72L182.4,737.52L182.4,734.88" style="fill:none;fill-rule:nonzero;stroke:black;stroke-width:0.48px;"/>
    </g>
    <g transform="matrix(0.117192,-1.32817,-1.32817,-0.117192,1142.88,402.161)">
        <path d="M179.367,744.354L187.559,744.354L180.183,740.571L181.427,742.849L179.367,744.354Z" style="stroke:black;stroke-width:0.48px;"/>
    </g>
    <g transform="matrix(1.33333,0,0,1.33333,-66.9679,-978.021)">
        <path d="M171.36,772.08L169.92,772.32L168.72,772.08L167.76,771.84L166.56,771.36L165.6,770.88L164.16,769.44L163.44,768.48L162.96,767.52L162.72,766.56L162.48,765.36L162.48,763.44L163.44,761.04L164.16,760.08L165.12,759.12L166.08,758.4L167.28,757.68L167.76,757.68L168.48,757.44" style="fill:none;fill-rule:nonzero;stroke:black;stroke-width:0.48px;"/>
    </g>
    <g transform="matrix(1.27603,-0.386677,-0.386677,-1.27603,239.984,1081.19)">
        <path d="M160.869,771.048L169.145,771.048L161.962,767.206L162.888,769.433L160.869,771.048Z" style="stroke:black;stroke-width:0.48px;"/>
    </g>
    <g transform="matrix(1.33333,0,0,1.33333,-66.9679,-939.621)">
        <path d="M276.72,750.48L310.8,750.48" style="fill:none;fill-rule:nonzero;stroke:black;stroke-width:0.72px;"/>
    </g>
    <g transform="matrix(1.33333,0,0,1.33333,-66.9679,-947.301)">
        <path d="M276.72,753.36L310.8,753.36" style="fill:none;fill-rule:nonzero;stroke:black;stroke-width:0.72px;"/>
    </g>
    <g transform="matrix(1.33333,0,0,1.33333,-66.9679,-943.461)">
        <path d="M306.24,748.32L314.16,751.92L306.24,755.52" style="fill:none;fill-rule:nonzero;stroke:black;stroke-width:0.72px;"/>
    </g>
    <g transform="matrix(-1.07962,0.782437,0.782437,1.07962,175.751,-1007.14)">
        <path d="M332.625,746.285L352.545,746.285" style="fill:none;fill-rule:nonzero;stroke:black;stroke-width:0.72px;"/>
    </g>
    <g transform="matrix(-0.410979,-1.26841,-1.26841,0.410979,1449.06,214.831)">
        <path d="M327.63,730.965L347.55,730.965" style="fill:none;fill-rule:nonzero;stroke:black;stroke-width:0.72px;"/>
    </g>
    <g transform="matrix(-1.0782,-0.784388,-0.784388,1.0782,1383.43,-456.632)">
        <path d="M348.744,746.27L368.666,746.27" style="fill:none;fill-rule:nonzero;stroke:black;stroke-width:0.72px;"/>
    </g>
    <g transform="matrix(-1.07804,-0.784601,-0.784601,1.07804,1376.62,-451.446)">
        <path d="M349.273,743.555L364.177,743.555" style="fill:none;fill-rule:nonzero;stroke:black;stroke-width:0.72px;"/>
    </g>
    <g transform="matrix(-1.33333,-0.00133802,-0.00133802,1.33333,868.997,-861.818)">
        <path d="M340.66,721.48L360.59,721.48" style="fill:none;fill-rule:nonzero;stroke:black;stroke-width:0.72px;"/>
    </g>
    <g transform="matrix(0.412993,-1.26776,-1.26776,-0.412993,1194.39,849.997)">
        <path d="M353.715,730.94L373.635,730.94" style="fill:none;fill-rule:nonzero;stroke:black;stroke-width:0.72px;"/>
    </g>
    <g transform="matrix(0.000908884,-1.33333,-1.33333,-0.000908884,1412.87,517.269)">
        <path d="M343.32,759.465L357.99,759.465" style="fill:none;fill-rule:nonzero;stroke:black;stroke-width:0.72px;"/>
    </g>
    <g transform="matrix(1.33333,0,0,1.33333,-66.9679,-916.581)">
        <path d="M423.6,741.84L438.48,741.84" style="fill:none;fill-rule:nonzero;stroke:black;stroke-width:0.72px;"/>
    </g>
    <g transform="matrix(1.33333,0,0,1.33333,-66.9679,-925.541)">
        <path d="M428.16,745.2L438.48,745.2" style="fill:none;fill-rule:nonzero;stroke:black;stroke-width:0.72px;"/>
    </g>
    <g transform="matrix(1.33333,0,0,1.33333,-66.9679,-907.621)">
        <path d="M423.6,738.48L438.48,738.48" style="fill:none;fill-rule:nonzero;stroke:black;stroke-width:0.72px;"/>
    </g>
    <g transform="matrix(1.33333,0,0,1.33333,-66.9679,-916.581)">
        <path d="M438.48,741.84L453.6,741.84" style="fill:none;fill-rule:nonzero;stroke:black;stroke-width:0.72px;"/>
    </g>
    <g transform="matrix(0.666693,-1.15469,-1.15469,-0.666693,1108.51,1096.43)">
        <path d="M459.51,750.48L467.27,750.48" style="fill:none;fill-rule:nonzero;stroke:black;stroke-width:0.72px;"/>
    </g>
    <g transform="matrix(0,1.33333,1.33333,0,-403.128,-470.021)">
        <path d="M430.44,700.44L466.2,700.44" style="fill:none;fill-rule:nonzero;stroke:black;stroke-width:0.72px;"/>
    </g>
    <g transform="matrix(0,1.33333,1.33333,0,-399.288,-473.861)">
        <path d="M433.32,700.44L469.08,700.44" style="fill:none;fill-rule:nonzero;stroke:black;stroke-width:0.72px;"/>
    </g>
    <g transform="matrix(1.33333,0,0,1.33333,-66.9679,-760.101)">
        <path d="M453.36,679.2L449.76,687.12L446.16,679.2" style="fill:none;fill-rule:nonzero;stroke:black;stroke-width:0.72px;"/>
    </g>
    <g transform="matrix(-1.15487,-0.666381,-0.666381,1.15487,1410.68,-234.323)">
        <path d="M419.388,634.395L428.532,634.395" style="fill:none;fill-rule:nonzero;stroke:black;stroke-width:0.72px;"/>
    </g>
    <g transform="matrix(-1.15468,0.666706,0.666706,1.15468,613.498,-816.084)">
        <path d="M436.815,635.775L450.915,635.775" style="fill:none;fill-rule:nonzero;stroke:black;stroke-width:0.72px;"/>
    </g>
    <g transform="matrix(1.15487,0.666378,0.666378,-1.15487,-409.225,644.259)">
        <path d="M449.022,635.76L463.188,635.76" style="fill:none;fill-rule:nonzero;stroke:black;stroke-width:0.72px;"/>
    </g>
    <g transform="matrix(0,-1.33333,-1.33333,0,1397.43,801.659)">
        <path d="M444.3,646.65L459,646.65" style="fill:none;fill-rule:nonzero;stroke:black;stroke-width:0.72px;"/>
    </g>
    <g transform="matrix(0,-1.33333,-1.33333,0,1392.95,797.179)">
        <path d="M440.94,646.65L455.64,646.65" style="fill:none;fill-rule:nonzero;stroke:black;stroke-width:0.72px;"/>
    </g>
    <g transform="matrix(1.15431,-0.667337,-0.667337,-1.15431,441.563,1265.69)">
        <path d="M471.484,634.36L480.356,634.36" style="fill:none;fill-rule:nonzero;stroke:black;stroke-width:0.72px;"/>
    </g>
</svg>
