<?xml version="1.0" encoding="UTF-8" standalone="no"?>
<!DOCTYPE svg PUBLIC "-//W3C//DTD SVG 1.1//EN" "http://www.w3.org/Graphics/SVG/1.1/DTD/svg11.dtd">
<svg width="100%" height="100%" viewBox="0 0 710 170" version="1.1" xmlns="http://www.w3.org/2000/svg" xmlns:xlink="http://www.w3.org/1999/xlink" xml:space="preserve" xmlns:serif="http://www.serif.com/" style="fill-rule:evenodd;clip-rule:evenodd;stroke-linecap:round;stroke-linejoin:round;stroke-miterlimit:10;">
    <g transform="matrix(1.33333,0,0,1.33333,-67.7455,-72.5974)">
        <text x="68.64px" y="83.52px" style="font-family:'ArialMT', 'Arial', sans-serif;font-size:10px;">C</text>
    </g>
    <g transform="matrix(1.33333,0,0,1.33333,-67.7455,-72.5974)">
        <text x="57.12px" y="83.52px" style="font-family:'ArialMT', 'Arial', sans-serif;font-size:10px;">H</text>
        <text x="64.32px" y="86.16px" style="font-family:'ArialMT', 'Arial', sans-serif;font-size:8px;">3</text>
    </g>
    <g transform="matrix(1.33333,0,0,1.33333,-67.7455,-72.5974)">
        <text x="68.64px" y="117.84px" style="font-family:'ArialMT', 'Arial', sans-serif;font-size:10px;">C</text>
    </g>
    <g transform="matrix(1.33333,0,0,1.33333,-67.7455,-72.5974)">
        <text x="57.12px" y="117.84px" style="font-family:'ArialMT', 'Arial', sans-serif;font-size:10px;">H</text>
        <text x="64.32px" y="120.48px" style="font-family:'ArialMT', 'Arial', sans-serif;font-size:8px;">3</text>
    </g>
    <g transform="matrix(1.33333,0,0,1.33333,-67.7455,-72.5974)">
        <text x="98.4px" y="66.24px" style="font-family:'ArialMT', 'Arial', sans-serif;font-size:10px;">O</text>
    </g>
    <g transform="matrix(1.33333,0,0,1.33333,-67.7455,-72.5974)">
        <text x="127.2px" y="92.64px" style="font-family:'ArialMT', 'Arial', sans-serif;font-size:18px;">+</text>
        <text x="149.52px" y="99.12px" style="font-family:'ArialMT', 'Arial', sans-serif;font-size:10px;">H</text>
        <text x="161.04px" y="99.12px" style="font-family:'ArialMT', 'Arial', sans-serif;font-size:10px;">C</text>
        <text x="156.72px" y="101.76px" style="font-family:'ArialMT', 'Arial', sans-serif;font-size:8px;">3</text>
    </g>
    <g transform="matrix(1.33333,0,0,1.33333,-67.7455,-72.5974)">
        <text x="195.36px" y="99.12px" style="font-family:'ArialMT', 'Arial', sans-serif;font-size:10px;">N</text>
        <text x="202.56px" y="99.12px" style="font-family:'ArialMT', 'Arial', sans-serif;font-size:10px;">O</text>
        <text x="210.72px" y="101.76px" style="font-family:'ArialMT', 'Arial', sans-serif;font-size:8px;">2</text>
    </g>
    <g transform="matrix(1.33333,0,0,1.33333,-67.7455,-72.5974)">
        <text x="248.16px" y="79.68px" style="font-family:'ArialMT', 'Arial', sans-serif;font-size:10px;">:<tspan x="251.04px " y="79.68px ">B</tspan></text>
    </g>
    <g transform="matrix(1.33333,0,0,1.33333,-67.7455,-72.5974)">
        <text x="382.8px" y="67.44px" style="font-family:'ArialMT', 'Arial', sans-serif;font-size:10px;">O</text>
    </g>
    <g transform="matrix(1.33333,0,0,1.33333,-67.7455,-72.5974)">
        <text x="314.16px" y="67.44px" style="font-family:'ArialMT', 'Arial', sans-serif;font-size:10px;">C</text>
    </g>
    <g transform="matrix(1.33333,0,0,1.33333,-67.7455,-72.5974)">
        <text x="302.64px" y="67.44px" style="font-family:'ArialMT', 'Arial', sans-serif;font-size:10px;">H</text>
        <text x="309.84px" y="70.08px" style="font-family:'ArialMT', 'Arial', sans-serif;font-size:8px;">3</text>
        <text x="303.84px" y="89.76px" style="font-family:'ArialMT', 'Arial', sans-serif;font-size:10px;">H</text>
        <text x="311.04px" y="92.4px" style="font-family:'ArialMT', 'Arial', sans-serif;font-size:8px;">3</text>
        <text x="315.36px" y="89.76px" style="font-family:'ArialMT', 'Arial', sans-serif;font-size:10px;">C</text>
        <text x="302.64px" y="107.28px" style="font-family:'ArialMT', 'Arial', sans-serif;font-size:10px;">H</text>
        <text x="309.84px" y="109.92px" style="font-family:'ArialMT', 'Arial', sans-serif;font-size:8px;">3</text>
        <text x="314.16px" y="107.28px" style="font-family:'ArialMT', 'Arial', sans-serif;font-size:10px;">C</text>
    </g>
    <g transform="matrix(1.33333,0,0,1.33333,-67.7455,-72.5974)">
        <text x="348.48px" y="107.28px" style="font-family:'ArialMT', 'Arial', sans-serif;font-size:10px;">N</text>
        <text x="355.68px" y="107.28px" style="font-family:'ArialMT', 'Arial', sans-serif;font-size:10px;">O</text>
        <text x="363.84px" y="109.92px" style="font-family:'ArialMT', 'Arial', sans-serif;font-size:8px;">2</text>
    </g>
    <g transform="matrix(1.33333,0,0,1.33333,-67.7455,-72.5974)">
        <text x="420.72px" y="78.48px" style="font-family:'ArialMT', 'Arial', sans-serif;font-size:10px;">T</text>
        <text x="426.96px" y="78.48px" style="font-family:'ArialMT', 'Arial', sans-serif;font-size:10px;">i</text>
        <text x="429.36px" y="78.48px" style="font-family:'ArialMT', 'Arial', sans-serif;font-size:10px;">C</text>
        <text x="436.56px" y="78.48px" style="font-family:'ArialMT', 'Arial', sans-serif;font-size:10px;">l</text>
        <text x="438.96px" y="81.12px" style="font-family:'ArialMT', 'Arial', sans-serif;font-size:6px;">3</text>
    </g>
    <g transform="matrix(1.33333,0,0,1.33333,-67.7455,-72.5974)">
        <text x="558.72px" y="67.92px" style="font-family:'ArialMT', 'Arial', sans-serif;font-size:10px;">O</text>
    </g>
    <g transform="matrix(1.33333,0,0,1.33333,-67.7455,-72.5974)">
        <text x="490.08px" y="67.92px" style="font-family:'ArialMT', 'Arial', sans-serif;font-size:10px;">C</text>
    </g>
    <g transform="matrix(1.33333,0,0,1.33333,-67.7455,-72.5974)">
        <text x="478.56px" y="67.92px" style="font-family:'ArialMT', 'Arial', sans-serif;font-size:10px;">H</text>
        <text x="485.76px" y="70.56px" style="font-family:'ArialMT', 'Arial', sans-serif;font-size:8px;">3</text>
        <text x="479.76px" y="90.24px" style="font-family:'ArialMT', 'Arial', sans-serif;font-size:10px;">H</text>
        <text x="486.96px" y="92.88px" style="font-family:'ArialMT', 'Arial', sans-serif;font-size:8px;">3</text>
        <text x="491.28px" y="90.24px" style="font-family:'ArialMT', 'Arial', sans-serif;font-size:10px;">C</text>
        <text x="478.56px" y="107.76px" style="font-family:'ArialMT', 'Arial', sans-serif;font-size:10px;">H</text>
        <text x="485.76px" y="110.4px" style="font-family:'ArialMT', 'Arial', sans-serif;font-size:8px;">3</text>
        <text x="490.08px" y="107.76px" style="font-family:'ArialMT', 'Arial', sans-serif;font-size:10px;">C</text>
    </g>
    <g transform="matrix(1.33333,0,0,1.33333,-67.7455,-72.5974)">
        <text x="524.16px" y="107.76px" style="font-family:'ArialMT', 'Arial', sans-serif;font-size:10px;">O</text>
    </g>
    <g transform="matrix(1.33333,0,0,1.33333,-67.7455,-72.5974)">
        <text x="521.28px" y="175.2px" style="font-family:'ArialMT', 'Arial', sans-serif;font-size:10px;">T<tspan x="527.52px " y="175.2px ">M</tspan></text>
    </g>
    <g transform="matrix(1.33333,0,0,1.33333,-67.7455,-937.237)">
        <path d="M82.32,745.2L102.24,745.2" style="fill:none;fill-rule:nonzero;stroke:black;stroke-width:0.72px;"/>
    </g>
    <g transform="matrix(1.33333,0,0,1.33333,-67.7455,-946.197)">
        <path d="M83.98,748.56L100.58,748.56" style="fill:none;fill-rule:nonzero;stroke:black;stroke-width:0.72px;"/>
    </g>
    <g transform="matrix(-0.666796,-1.15463,-1.15463,0.666796,957.329,-361.487)">
        <path d="M71.926,751.2L85.784,751.2" style="fill:none;fill-rule:nonzero;stroke:black;stroke-width:0.72px;"/>
    </g>
    <g transform="matrix(-0.666796,1.15463,1.15463,0.666796,-763.525,-519.581)">
        <path d="M71.926,739.2L85.784,739.2" style="fill:none;fill-rule:nonzero;stroke:black;stroke-width:0.72px;"/>
    </g>
    <g transform="matrix(0.666702,-1.15468,-1.15468,-0.666702,874.157,671.244)">
        <path d="M97.261,753.825L117.179,753.825" style="fill:none;fill-rule:nonzero;stroke:black;stroke-width:0.72px;"/>
    </g>
    <g transform="matrix(-0.666269,-1.15493,-1.15493,0.666269,1037.19,-361.086)">
        <path d="M101.786,768.465L115.674,768.465" style="fill:none;fill-rule:nonzero;stroke:black;stroke-width:0.72px;"/>
    </g>
    <g transform="matrix(-0.666378,-1.15487,-1.15487,0.666378,1029.4,-365.337)">
        <path d="M97.837,768.345L112.003,768.345" style="fill:none;fill-rule:nonzero;stroke:black;stroke-width:0.72px;"/>
    </g>
    <g transform="matrix(-1.15457,0.6669,0.6669,1.15457,-133.18,-940.484)">
        <path d="M168.218,752.995L182.872,752.995" style="fill:none;fill-rule:nonzero;stroke:black;stroke-width:0.72px;"/>
    </g>
    <g transform="matrix(1.15481,0.666483,0.666483,-1.15481,-536.052,790.128)">
        <path d="M180.923,753.05L195.367,753.05" style="fill:none;fill-rule:nonzero;stroke:black;stroke-width:0.72px;"/>
    </g>
    <g transform="matrix(1.33333,0,0,1.33333,-67.7455,-967.957)">
        <path d="M226.56,756.72L283.44,756.72" style="fill:none;fill-rule:nonzero;stroke:black;stroke-width:0.72px;"/>
    </g>
    <g transform="matrix(1.2958,0.314133,0.314133,-1.2958,-294.967,933.767)">
        <path d="M275.179,757.653L283.329,757.653L276.084,753.921L277.031,756.126L275.179,757.653Z" style="stroke:black;stroke-width:0.72px;"/>
    </g>
    <g transform="matrix(-1.15468,0.666702,0.666702,1.15468,271.59,-1103.69)">
        <path d="M333.706,773.52L353.624,773.52" style="fill:none;fill-rule:nonzero;stroke:black;stroke-width:0.72px;"/>
    </g>
    <g transform="matrix(1.15468,0.666702,0.666702,-1.15468,-518.974,671.148)">
        <path d="M350.956,773.52L370.874,773.52" style="fill:none;fill-rule:nonzero;stroke:black;stroke-width:0.72px;"/>
    </g>
    <g transform="matrix(1.15476,-0.666568,-0.666568,-1.15476,513.994,1162.51)">
        <path d="M368.589,772.09L382.791,772.09" style="fill:none;fill-rule:nonzero;stroke:black;stroke-width:0.72px;"/>
    </g>
    <g transform="matrix(1.1547,-0.666669,-0.666669,-1.1547,516.612,1161.74)">
        <path d="M368.33,775.9L382.81,775.9" style="fill:none;fill-rule:nonzero;stroke:black;stroke-width:0.72px;"/>
    </g>
    <g transform="matrix(-1.15485,-0.666401,-0.666401,1.15485,1264.67,-652.407)">
        <path d="M321.337,772.21L336.023,772.21" style="fill:none;fill-rule:nonzero;stroke:black;stroke-width:0.72px;"/>
    </g>
    <g transform="matrix(0,1.33333,1.33333,0,-632.466,-408.197)">
        <path d="M325.08,758.58L345,758.58" style="fill:none;fill-rule:nonzero;stroke:black;stroke-width:0.72px;"/>
    </g>
    <g transform="matrix(-1.05114,0.820292,0.820292,1.05114,90.6744,-1041.99)">
        <path d="M321.974,764.045L336.586,764.045" style="fill:none;fill-rule:nonzero;stroke:black;stroke-width:0.72px;"/>
    </g>
    <g transform="matrix(-1.15485,0.666401,0.666401,1.15485,253.636,-1022.65)">
        <path d="M321.337,744.95L336.023,744.95" style="fill:none;fill-rule:nonzero;stroke:black;stroke-width:0.72px;"/>
    </g>
    <g transform="matrix(1.15491,0.666297,0.666297,-1.15491,-503.259,689.643)">
        <path d="M334.076,745.02L348.484,745.02" style="fill:none;fill-rule:nonzero;stroke:black;stroke-width:0.72px;"/>
    </g>
    <g transform="matrix(1.33333,0,0,1.33333,-67.7455,-967.957)">
        <path d="M403.68,756.72L459.6,756.72" style="fill:none;fill-rule:nonzero;stroke:black;stroke-width:0.72px;"/>
    </g>
    <g transform="matrix(1.2958,0.314133,0.314133,-1.2958,-288.355,878.429)">
        <path d="M451.339,757.653L459.489,757.653L452.244,753.921L453.191,756.126L451.339,757.653Z" style="stroke:black;stroke-width:0.72px;"/>
    </g>
    <g transform="matrix(-1.15468,0.666702,0.666702,1.15468,709.601,-1219.78)">
        <path d="M509.626,773.04L529.544,773.04" style="fill:none;fill-rule:nonzero;stroke:black;stroke-width:0.72px;"/>
    </g>
    <g transform="matrix(1.15468,0.666702,0.666702,-1.15468,-487.226,553.947)">
        <path d="M526.876,773.04L546.794,773.04" style="fill:none;fill-rule:nonzero;stroke:black;stroke-width:0.72px;"/>
    </g>
    <g transform="matrix(1.15476,-0.666568,-0.666568,-1.15476,545.089,1279.86)">
        <path d="M544.509,771.61L558.711,771.61" style="fill:none;fill-rule:nonzero;stroke:black;stroke-width:0.72px;"/>
    </g>
    <g transform="matrix(1.1547,-0.666669,-0.666669,-1.1547,547.717,1279.11)">
        <path d="M544.25,775.42L558.73,775.42" style="fill:none;fill-rule:nonzero;stroke:black;stroke-width:0.72px;"/>
    </g>
    <g transform="matrix(-1.15485,-0.666401,-0.666401,1.15485,1702.08,-533.98)">
        <path d="M497.257,771.73L511.943,771.73" style="fill:none;fill-rule:nonzero;stroke:black;stroke-width:0.72px;"/>
    </g>
    <g transform="matrix(0,1.33333,1.33333,0,-397.266,-642.117)">
        <path d="M501,758.1L520.92,758.1" style="fill:none;fill-rule:nonzero;stroke:black;stroke-width:0.72px;"/>
    </g>
    <g transform="matrix(-1.05114,0.820292,0.820292,1.05114,510.545,-1185.15)">
        <path d="M497.894,763.565L512.506,763.565" style="fill:none;fill-rule:nonzero;stroke:black;stroke-width:0.72px;"/>
    </g>
    <g transform="matrix(-1.15485,0.666401,0.666401,1.15485,691.678,-1138.68)">
        <path d="M497.257,744.47L511.943,744.47" style="fill:none;fill-rule:nonzero;stroke:black;stroke-width:0.72px;"/>
    </g>
    <g transform="matrix(1.15477,0.666551,0.666551,-1.15477,-470.672,572.924)">
        <path d="M509.109,742.905L524.211,742.905" style="fill:none;fill-rule:nonzero;stroke:black;stroke-width:0.72px;"/>
    </g>
    <g transform="matrix(1.15478,0.66653,0.66653,-1.15478,-472.775,571.778)">
        <path d="M510.919,746.3L524.081,746.3" style="fill:none;fill-rule:nonzero;stroke:black;stroke-width:0.72px;"/>
    </g>
    <g transform="matrix(0,1.33333,1.33333,0,-300.226,-587.317)">
        <path d="M510.84,701.16L542.76,701.16" style="fill:none;fill-rule:nonzero;stroke:black;stroke-width:0.72px;"/>
    </g>
    <g transform="matrix(-0.314133,1.2958,1.2958,0.314133,-92.8737,-768.033)">
        <path d="M522.499,690.093L530.649,690.093L523.404,686.361L524.351,688.566L522.499,690.093Z" style="stroke:black;stroke-width:0.72px;"/>
    </g>
</svg>
