<?xml version="1.0" encoding="UTF-8" standalone="no"?>
<!DOCTYPE svg PUBLIC "-//W3C//DTD SVG 1.1//EN" "http://www.w3.org/Graphics/SVG/1.1/DTD/svg11.dtd">
<svg width="100%" height="100%" viewBox="0 0 730 280" version="1.1" xmlns="http://www.w3.org/2000/svg" xmlns:xlink="http://www.w3.org/1999/xlink" xml:space="preserve" xmlns:serif="http://www.serif.com/" style="fill-rule:evenodd;clip-rule:evenodd;stroke-linecap:round;stroke-linejoin:round;stroke-miterlimit:10;">
    <g transform="matrix(1.33333,0,0,1.33333,-48.7503,-45.6)">
        <text x="80.64px" y="84.24px" style="font-family:'ArialMT', 'Arial', sans-serif;font-size:10px;">CH</text>
        <text x="95.04px" y="77.28px" style="font-family:'ArialMT', 'Arial', sans-serif;font-size:8px;">–</text>
    </g>
    <g transform="matrix(1.33333,0,0,1.33333,-48.7503,-45.6)">
        <text x="64.32px" y="52.8px" style="font-family:'ArialMT', 'Arial', sans-serif;font-size:10px;">O</text>
    </g>
    <g transform="matrix(1.33333,0,0,1.33333,-48.7503,-45.6)">
        <text x="62.88px" y="177.84px" style="font-family:'ArialMT', 'Arial', sans-serif;font-size:10px;">O</text>
        <text x="70.8px" y="170.88px" style="font-family:'ArialMT', 'Arial', sans-serif;font-size:8px;">–</text>
    </g>
    <g transform="matrix(1.33333,0,0,1.33333,-48.7503,-45.6)">
        <text x="59.52px" y="176.64px" style="font-family:'ArialMT', 'Arial', sans-serif;font-size:10px;">:</text>
        <text x="71.76px" y="176.88px" style="font-family:'ArialMT', 'Arial', sans-serif;font-size:10px;">:</text>
    </g>
    <g transform="matrix(-0.0209328,-1.33317,1.33317,-0.0209328,-48.7503,-45.6)">
        <text x="-170.324px" y="64.534px" style="font-family:'ArialMT', 'Arial', sans-serif;font-size:10px;">:</text>
    </g>
    <g transform="matrix(1.33333,0,0,1.33333,-48.7503,-45.6)">
        <text x="201.12px" y="122.64px" style="font-family:'ArialMT', 'Arial', sans-serif;font-size:10px;">CH</text>
        <text x="215.52px" y="125.28px" style="font-family:'ArialMT', 'Arial', sans-serif;font-size:8px;">2</text>
    </g>
    <g transform="matrix(1.33333,0,0,1.33333,-48.7503,-45.6)">
        <text x="215.52px" y="115.68px" style="font-family:'ArialMT', 'Arial', sans-serif;font-size:8px;">+</text>
        <text x="179.04px" y="118.32px" style="font-family:'ArialMT', 'Arial', sans-serif;font-size:10px;">O</text>
        <text x="186.96px" y="111.36px" style="font-family:'ArialMT', 'Arial', sans-serif;font-size:8px;">–</text>
    </g>
    <g transform="matrix(-0.0186667,-1.3332,1.3332,-0.0186667,-48.7503,-45.6)">
        <text x="-112.356px" y="182.525px" style="font-family:'ArialMT', 'Arial', sans-serif;font-size:10px;">:</text>
    </g>
    <g transform="matrix(1.33333,0,0,1.33333,-48.7503,-45.6)">
        <text x="186.96px" y="117.6px" style="font-family:'ArialMT', 'Arial', sans-serif;font-size:10px;">:</text>
    </g>
    <g transform="matrix(1.33333,0,0,1.33333,-48.7503,-45.6)">
        <text x="176.16px" y="117.6px" style="font-family:'ArialMT', 'Arial', sans-serif;font-size:10px;">:</text>
    </g>
    <g transform="matrix(1.33333,0,0,1.33333,-48.7503,-45.6)">
        <text x="298.08px" y="119.04px" style="font-family:'ArialMT', 'Arial', sans-serif;font-size:10px;">O</text>
        <text x="306px" y="112.08px" style="font-family:'ArialMT', 'Arial', sans-serif;font-size:8px;">–</text>
    </g>
    <g transform="matrix(1.33333,0,0,1.33333,-48.7503,-45.6)">
        <text x="339.36px" y="128.64px" style="font-family:'ArialMT', 'Arial', sans-serif;font-size:10px;">N</text>
        <text x="346.56px" y="121.68px" style="font-family:'ArialMT', 'Arial', sans-serif;font-size:8px;">+</text>
        <text x="358.56px" y="133.68px" style="font-family:'ArialMT', 'Arial', sans-serif;font-size:10px;">N</text>
    </g>
    <g transform="matrix(1.33333,0,0,1.33333,-48.7503,-45.6)">
        <text x="293.76px" y="116.88px" style="font-family:'ArialMT', 'Arial', sans-serif;font-size:10px;">:</text>
    </g>
    <g transform="matrix(0.0209328,-1.33317,1.33317,0.0209328,-48.7503,-45.6)">
        <text x="-106.505px" y="304.35px" style="font-family:'ArialMT', 'Arial', sans-serif;font-size:10px;">:</text>
    </g>
    <g transform="matrix(1.33333,0,0,1.33333,-48.7503,-45.6)">
        <text x="306px" y="117.36px" style="font-family:'ArialMT', 'Arial', sans-serif;font-size:10px;">:</text>
    </g>
    <g transform="matrix(1.33333,0,0,1.33333,-48.7503,-45.6)">
        <text x="468.72px" y="112.56px" style="font-family:'ArialMT', 'Arial', sans-serif;font-size:10px;">O</text>
        <text x="483.36px" y="138.48px" style="font-family:'ArialMT', 'Arial', sans-serif;font-size:18px;">+</text>
        <text x="510.24px" y="134.88px" style="font-family:'ArialMT', 'Arial', sans-serif;font-size:10px;">H</text>
        <text x="517.452px" y="137.52px" style="font-family:'ArialMT', 'Arial', sans-serif;font-size:8px;">2</text>
        <text x="521.772px" y="134.88px" style="font-family:'ArialMT', 'Arial', sans-serif;font-size:10px;">C</text>
        <text x="528.983px" y="127.92px" style="font-family:'ArialMT', 'Arial', sans-serif;font-size:8px;">–</text>
        <text x="541.68px" y="134.88px" style="font-family:'ArialMT', 'Arial', sans-serif;font-size:10px;"><tspan x="541.68px " y="134.88px ">N</tspan></text>
        <text x="548.891px" y="127.92px" style="font-family:'ArialMT', 'Arial', sans-serif;font-size:8px;">+</text>
        <text x="561.6px" y="134.64px" style="font-family:'ArialMT', 'Arial', sans-serif;font-size:10px;"><tspan x="561.6px " y="134.64px ">N</tspan></text>
    </g>
    <g transform="matrix(0.315751,1.29541,-1.29541,0.315751,-48.7503,-45.6)">
        <text x="244.696px" y="-476.435px" style="font-family:'ArialMT', 'Arial', sans-serif;font-size:9.999px;">:</text>
    </g>
    <g transform="matrix(-1.07962,0.782437,0.782437,1.07962,-504.166,-821.778)">
        <path d="M50.145,767.405L70.065,767.405" style="fill:none;fill-rule:nonzero;stroke:black;stroke-width:0.72px;"/>
    </g>
    <g transform="matrix(-0.410979,-1.26841,-1.26841,0.410979,1001.33,-165.009)">
        <path d="M45.15,752.085L65.07,752.085" style="fill:none;fill-rule:nonzero;stroke:black;stroke-width:0.72px;"/>
    </g>
    <g transform="matrix(-1.07791,-0.784786,-0.784786,1.07791,733.048,-719.415)">
        <path d="M66.806,769.06L81.044,769.06" style="fill:none;fill-rule:nonzero;stroke:black;stroke-width:0.72px;"/>
    </g>
    <g transform="matrix(-1.33333,-0.00133802,-0.00133802,1.33333,133.963,-903.215)">
        <path d="M58.18,742.6L78.11,742.6" style="fill:none;fill-rule:nonzero;stroke:black;stroke-width:0.72px;"/>
    </g>
    <g transform="matrix(0.412589,-1.26789,-1.26789,-0.412589,975.579,488.731)">
        <path d="M73.067,749.535L87.673,749.535" style="fill:none;fill-rule:nonzero;stroke:black;stroke-width:0.72px;"/>
    </g>
    <g transform="matrix(0.000908884,-1.33333,-1.33333,-0.000908884,1085.11,130.029)">
        <path d="M62.52,780.585L77.19,780.585" style="fill:none;fill-rule:nonzero;stroke:black;stroke-width:0.72px;"/>
    </g>
    <g transform="matrix(0.000908884,-1.33333,-1.33333,-0.000908884,1080.63,125.549)">
        <path d="M59.16,780.585L73.83,780.585" style="fill:none;fill-rule:nonzero;stroke:black;stroke-width:0.72px;"/>
    </g>
    <g transform="matrix(0,1.33333,1.33333,0,-906.67,39.84)">
        <path d="M50.4,710.64L84,710.64" style="fill:none;fill-rule:nonzero;stroke:black;stroke-width:0.72px;"/>
    </g>
    <g transform="matrix(-0.314133,1.2958,1.2958,0.314133,-842.25,-159.72)">
        <path d="M62.899,698.733L71.049,698.733L63.804,695.001L64.751,697.206L62.899,698.733Z" style="stroke:black;stroke-width:0.72px;"/>
    </g>
    <g transform="matrix(-0.314133,-1.2958,-1.2958,0.314133,999.445,-27.8714)">
        <path d="M62.899,722.547L71.049,722.547L63.804,726.279L64.751,724.074L62.899,722.547Z" style="stroke:black;stroke-width:0.72px;"/>
    </g>
    <g transform="matrix(-1.07962,0.782437,0.782437,1.07962,-409.805,-518.936)">
        <path d="M48.705,642.365L68.625,642.365" style="fill:none;fill-rule:nonzero;stroke:black;stroke-width:0.72px;"/>
    </g>
    <g transform="matrix(-0.410979,-1.26841,-1.26841,0.410979,840.22,51.2731)">
        <path d="M43.71,627.045L63.63,627.045" style="fill:none;fill-rule:nonzero;stroke:black;stroke-width:0.72px;"/>
    </g>
    <g transform="matrix(-1.0782,-0.784388,-0.784388,1.0782,635.448,-413.427)">
        <path d="M64.824,642.35L84.746,642.35" style="fill:none;fill-rule:nonzero;stroke:black;stroke-width:0.72px;"/>
    </g>
    <g transform="matrix(-1.07804,-0.784601,-0.784601,1.07804,628.668,-408.318)">
        <path d="M65.353,639.635L80.257,639.635" style="fill:none;fill-rule:nonzero;stroke:black;stroke-width:0.72px;"/>
    </g>
    <g transform="matrix(-1.33333,-0.00133802,-0.00133802,1.33333,129.956,-569.777)">
        <path d="M56.74,617.56L76.67,617.56" style="fill:none;fill-rule:nonzero;stroke:black;stroke-width:0.72px;"/>
    </g>
    <g transform="matrix(0.412993,-1.26776,-1.26776,-0.412993,819.562,600.998)">
        <path d="M69.795,627.02L89.715,627.02" style="fill:none;fill-rule:nonzero;stroke:black;stroke-width:0.72px;"/>
    </g>
    <g transform="matrix(0.000908884,-1.33333,-1.33333,-0.000908884,914.229,292.476)">
        <path d="M59.4,655.545L74.07,655.545" style="fill:none;fill-rule:nonzero;stroke:black;stroke-width:0.72px;"/>
    </g>
    <g transform="matrix(1.33333,0,0,1.33333,-48.7503,-796.96)">
        <path d="M41.28,605.04L48.48,605.04L48.48,605.52L42.72,605.52L42.72,799.92L48.48,799.92L48.48,800.4L41.28,800.4L41.28,605.04Z" style="stroke:black;stroke-width:0.02px;"/>
    </g>
    <g transform="matrix(1.33333,0,0,1.33333,-48.7503,-796.96)">
        <path d="M105.6,605.04L98.4,605.04L98.4,605.52L104.16,605.52L104.16,799.92L98.4,799.92L98.4,800.4L105.6,800.4L105.6,605.04Z" style="stroke:black;stroke-width:0.02px;"/>
    </g>
    <g transform="matrix(1.33333,0,0,1.33333,-48.7503,-815.52)">
        <path d="M116.16,709.68L150.24,709.68" style="fill:none;fill-rule:nonzero;stroke:black;stroke-width:0.72px;"/>
    </g>
    <g transform="matrix(1.33333,0,0,1.33333,-48.7503,-823.2)">
        <path d="M116.16,712.56L150.24,712.56" style="fill:none;fill-rule:nonzero;stroke:black;stroke-width:0.72px;"/>
    </g>
    <g transform="matrix(1.33333,0,0,1.33333,-48.7503,-819.36)">
        <path d="M145.68,707.52L153.6,711.12L145.68,714.72" style="fill:none;fill-rule:nonzero;stroke:black;stroke-width:0.72px;"/>
    </g>
    <g transform="matrix(-1.33333,0,0,1.33333,433.17,-813.92)">
        <path d="M170.76,709.08L190.68,709.08" style="fill:none;fill-rule:nonzero;stroke:black;stroke-width:0.72px;"/>
    </g>
    <g transform="matrix(0,-1.33333,-1.33333,0,1111.09,372.48)">
        <path d="M160.8,699.12L180.72,699.12" style="fill:none;fill-rule:nonzero;stroke:black;stroke-width:0.72px;"/>
    </g>
    <g transform="matrix(1.33333,0,0,1.33333,-48.7503,-760.8)">
        <path d="M170.76,689.16L190.68,689.16" style="fill:none;fill-rule:nonzero;stroke:black;stroke-width:0.72px;"/>
    </g>
    <g transform="matrix(0,1.33333,1.33333,0,-726.67,-109.44)">
        <path d="M180.72,699.12L200.64,699.12" style="fill:none;fill-rule:nonzero;stroke:black;stroke-width:0.72px;"/>
    </g>
    <g transform="matrix(0.942809,-0.942809,-0.942809,-0.942809,700.562,982.44)">
        <path d="M188.717,713.82L202.123,713.82" style="fill:none;fill-rule:nonzero;stroke:black;stroke-width:0.72px;"/>
    </g>
    <g transform="matrix(-0.510456,-1.23175,-1.23175,0.510456,1179.35,-11.2428)">
        <path d="M180.711,715.74L195.129,715.74" style="fill:none;fill-rule:nonzero;stroke:black;stroke-width:0.72px;"/>
    </g>
    <g transform="matrix(1.33333,0,0,1.33333,-48.7503,-814.88)">
        <path d="M233.28,709.44L267.36,709.44" style="fill:none;fill-rule:nonzero;stroke:black;stroke-width:0.72px;"/>
    </g>
    <g transform="matrix(1.33333,0,0,1.33333,-48.7503,-822.56)">
        <path d="M233.28,712.32L267.36,712.32" style="fill:none;fill-rule:nonzero;stroke:black;stroke-width:0.72px;"/>
    </g>
    <g transform="matrix(1.33333,0,0,1.33333,-48.7503,-818.72)">
        <path d="M262.8,707.28L270.72,710.88L262.8,714.48" style="fill:none;fill-rule:nonzero;stroke:black;stroke-width:0.72px;"/>
    </g>
    <g transform="matrix(-1.33333,0,0,1.33333,750.61,-812)">
        <path d="M289.8,708.36L309.72,708.36" style="fill:none;fill-rule:nonzero;stroke:black;stroke-width:0.72px;"/>
    </g>
    <g transform="matrix(0,-1.33333,-1.33333,0,1268.85,532.16)">
        <path d="M279.84,698.4L299.76,698.4" style="fill:none;fill-rule:nonzero;stroke:black;stroke-width:0.72px;"/>
    </g>
    <g transform="matrix(1.33333,0,0,1.33333,-48.7503,-758.88)">
        <path d="M289.8,688.44L309.72,688.44" style="fill:none;fill-rule:nonzero;stroke:black;stroke-width:0.72px;"/>
    </g>
    <g transform="matrix(0,1.33333,1.33333,0,-566.99,-267.2)">
        <path d="M299.76,698.4L319.68,698.4" style="fill:none;fill-rule:nonzero;stroke:black;stroke-width:0.72px;"/>
    </g>
    <g transform="matrix(0.942809,-0.942809,-0.942809,-0.942809,749.444,1096.23)">
        <path d="M306.802,715.405L326.728,715.405" style="fill:none;fill-rule:nonzero;stroke:black;stroke-width:0.72px;"/>
    </g>
    <g transform="matrix(-0.510456,-1.23175,-1.23175,0.510456,1397.95,136.712)">
        <path d="M299.751,715.02L314.169,715.02" style="fill:none;fill-rule:nonzero;stroke:black;stroke-width:0.72px;"/>
    </g>
    <g transform="matrix(1.28767,0.345967,0.345967,-1.28767,-282.895,929.506)">
        <path d="M323.551,720.49L338.659,720.49" style="fill:none;fill-rule:nonzero;stroke:black;stroke-width:0.72px;"/>
    </g>
    <g transform="matrix(1.28793,0.344981,0.344981,-1.28793,-279.315,922.882)">
        <path d="M347.342,714.74L357.778,714.74" style="fill:none;fill-rule:nonzero;stroke:black;stroke-width:0.72px;"/>
    </g>
    <g transform="matrix(1.28798,0.344792,0.344792,-1.28798,-280.326,922.658)">
        <path d="M348.391,718.08L357.749,718.08" style="fill:none;fill-rule:nonzero;stroke:black;stroke-width:0.72px;"/>
    </g>
    <g transform="matrix(1.28768,0.345907,0.345907,-1.28768,-278.68,922.521)">
        <path d="M347.329,711.25L357.891,711.25" style="fill:none;fill-rule:nonzero;stroke:black;stroke-width:0.72px;"/>
    </g>
    <g transform="matrix(1.33333,0,0,1.33333,-48.7503,-816.8)">
        <path d="M381.12,710.16L415.2,710.16" style="fill:none;fill-rule:nonzero;stroke:black;stroke-width:0.72px;"/>
    </g>
    <g transform="matrix(1.33333,0,0,1.33333,-48.7503,-824.48)">
        <path d="M381.12,713.04L415.2,713.04" style="fill:none;fill-rule:nonzero;stroke:black;stroke-width:0.72px;"/>
    </g>
    <g transform="matrix(1.33333,0,0,1.33333,-48.7503,-820.64)">
        <path d="M410.64,708L418.56,711.6L410.64,715.2" style="fill:none;fill-rule:nonzero;stroke:black;stroke-width:0.72px;"/>
    </g>
    <g transform="matrix(-1.33333,0,0,1.33333,1147.41,-840.8)">
        <path d="M438.6,719.16L458.52,719.16" style="fill:none;fill-rule:nonzero;stroke:black;stroke-width:0.72px;"/>
    </g>
    <g transform="matrix(0,-1.33333,-1.33333,0,1481.65,716.16)">
        <path d="M428.64,709.2L448.56,709.2" style="fill:none;fill-rule:nonzero;stroke:black;stroke-width:0.72px;"/>
    </g>
    <g transform="matrix(1.33333,0,0,1.33333,-48.7503,-787.68)">
        <path d="M438.6,699.24L458.52,699.24" style="fill:none;fill-rule:nonzero;stroke:black;stroke-width:0.72px;"/>
    </g>
    <g transform="matrix(0,1.33333,1.33333,0,-382.99,-480)">
        <path d="M448.56,709.2L468.48,709.2" style="fill:none;fill-rule:nonzero;stroke:black;stroke-width:0.72px;"/>
    </g>
    <g transform="matrix(0.942809,-0.942809,-0.942809,-0.942809,814.48,1232.81)">
        <path d="M457.6,723.065L472.01,723.065" style="fill:none;fill-rule:nonzero;stroke:black;stroke-width:0.72px;"/>
    </g>
    <g transform="matrix(0.942809,-0.942809,-0.942809,-0.942809,815.954,1229.7)">
        <path d="M455.17,725.565L469.92,725.565" style="fill:none;fill-rule:nonzero;stroke:black;stroke-width:0.72px;"/>
    </g>
    <g transform="matrix(1.33333,0,0,1.33333,-48.7503,-819.36)">
        <path d="M529.92,711.12L540.72,711.12" style="fill:none;fill-rule:nonzero;stroke:black;stroke-width:0.72px;"/>
    </g>
    <g transform="matrix(1.33333,0,0,1.33333,-48.7503,-819.36)">
        <path d="M549.84,711.12L560.64,711.12" style="fill:none;fill-rule:nonzero;stroke:black;stroke-width:0.72px;"/>
    </g>
    <g transform="matrix(1.33333,0,0,1.33333,-48.7503,-828.32)">
        <path d="M554.4,714.48L560.64,714.48" style="fill:none;fill-rule:nonzero;stroke:black;stroke-width:0.72px;"/>
    </g>
    <g transform="matrix(1.33333,0,0,1.33333,-48.7503,-810.4)">
        <path d="M549.84,707.76L560.64,707.76" style="fill:none;fill-rule:nonzero;stroke:black;stroke-width:0.72px;"/>
    </g>
</svg>
