<?xml version="1.0" encoding="UTF-8" standalone="no"?>
<!DOCTYPE svg PUBLIC "-//W3C//DTD SVG 1.1//EN" "http://www.w3.org/Graphics/SVG/1.1/DTD/svg11.dtd">
<svg width="100%" height="100%" viewBox="0 0 450 100" version="1.1" xmlns="http://www.w3.org/2000/svg" xmlns:xlink="http://www.w3.org/1999/xlink" xml:space="preserve" xmlns:serif="http://www.serif.com/" style="fill-rule:evenodd;clip-rule:evenodd;stroke-linecap:round;stroke-linejoin:round;stroke-miterlimit:10;">
    <g transform="matrix(1.33333,0,0,1.33333,-68.0733,-62.1846)">
        <text x="119.52px" y="100.08px" style="font-family:'ArialMT', 'Arial', sans-serif;font-size:10px;">O<tspan x="127.404px 135.84px " y="100.08px 100.08px ">Me</tspan></text>
    </g>
    <g transform="matrix(1.33333,0,0,1.33333,-68.0733,-62.1846)">
        <text x="108.96px" y="67.44px" style="font-family:'ArialMT', 'Arial', sans-serif;font-size:10px;">O</text>
    </g>
    <g transform="matrix(1.33333,0,0,1.33333,-68.0733,-62.1846)">
        <text x="230.16px" y="59.52px" style="font-family:'ArialMT', 'Arial', sans-serif;font-size:10px;">O</text>
    </g>
    <g transform="matrix(1.33333,0,0,1.33333,-68.0733,-62.1846)">
        <text x="264.96px" y="79.44px" style="font-family:'ArialMT', 'Arial', sans-serif;font-size:10px;">Cl</text>
    </g>
    <g transform="matrix(1.33333,0,0,1.33333,-68.0733,-62.1846)">
        <text x="360.72px" y="60px" style="font-family:'ArialMT', 'Arial', sans-serif;font-size:10px;">O</text>
    </g>
    <g transform="matrix(-1.07962,0.782437,0.782437,1.07962,-503.409,-821.833)">
        <path d="M55.665,758.765L75.585,758.765" style="fill:none;fill-rule:nonzero;stroke:black;stroke-width:0.72px;"/>
    </g>
    <g transform="matrix(-0.410979,-1.26841,-1.26841,0.410979,980.68,-159.521)">
        <path d="M50.67,743.445L70.59,743.445" style="fill:none;fill-rule:nonzero;stroke:black;stroke-width:0.72px;"/>
    </g>
    <g transform="matrix(-1.0782,-0.784388,-0.784388,1.0782,724.212,-705.255)">
        <path d="M71.784,758.75L91.706,758.75" style="fill:none;fill-rule:nonzero;stroke:black;stroke-width:0.72px;"/>
    </g>
    <g transform="matrix(-1.33333,-0.00133802,-0.00133802,1.33333,129.349,-896.752)">
        <path d="M63.7,733.96L83.63,733.96" style="fill:none;fill-rule:nonzero;stroke:black;stroke-width:0.72px;"/>
    </g>
    <g transform="matrix(0.412993,-1.26776,-1.26776,-0.412993,954.212,486.109)">
        <path d="M76.755,743.42L96.675,743.42" style="fill:none;fill-rule:nonzero;stroke:black;stroke-width:0.72px;"/>
    </g>
    <g transform="matrix(1.26841,-0.410979,-0.410979,-1.26841,249.056,1052.1)">
        <path d="M89.315,755.96L109.235,755.96" style="fill:none;fill-rule:nonzero;stroke:black;stroke-width:0.72px;"/>
    </g>
    <g transform="matrix(0.990004,0.893123,0.893123,-0.990004,-703.008,699.79)">
        <path d="M107.049,754.605L120.261,754.605" style="fill:none;fill-rule:nonzero;stroke:black;stroke-width:0.72px;"/>
    </g>
    <g transform="matrix(0.27864,-1.30389,-1.30389,-0.27864,1048.76,398.472)">
        <path d="M104.485,765.98L119.415,765.98" style="fill:none;fill-rule:nonzero;stroke:black;stroke-width:0.72px;"/>
    </g>
    <g transform="matrix(0.278603,-1.3039,-1.3039,-0.278603,1045.67,393.688)">
        <path d="M101.478,766.33L115.692,766.33" style="fill:none;fill-rule:nonzero;stroke:black;stroke-width:0.72px;"/>
    </g>
    <g transform="matrix(1.33333,0,0,1.33333,-68.0733,-956.905)">
        <path d="M162,756.48L196.08,756.48" style="fill:none;fill-rule:nonzero;stroke:black;stroke-width:0.72px;"/>
    </g>
    <g transform="matrix(1.33333,0,0,1.33333,-68.0733,-964.585)">
        <path d="M162,759.36L196.08,759.36" style="fill:none;fill-rule:nonzero;stroke:black;stroke-width:0.72px;"/>
    </g>
    <g transform="matrix(1.33333,0,0,1.33333,-68.0733,-960.745)">
        <path d="M191.52,754.32L199.44,757.92L191.52,761.52" style="fill:none;fill-rule:nonzero;stroke:black;stroke-width:0.72px;"/>
    </g>
    <g transform="matrix(0,-1.33333,-1.33333,0,1262.45,400.495)">
        <path d="M241.53,746.4L261.45,746.4" style="fill:none;fill-rule:nonzero;stroke:black;stroke-width:0.72px;"/>
    </g>
    <g transform="matrix(1.15468,0.666702,0.666702,-1.15468,-532.272,762.441)">
        <path d="M232.906,761.34L252.824,761.34" style="fill:none;fill-rule:nonzero;stroke:black;stroke-width:0.72px;"/>
    </g>
    <g transform="matrix(1.15468,-0.666702,-0.666702,-1.15468,462.981,1091.62)">
        <path d="M232.906,731.46L252.824,731.46" style="fill:none;fill-rule:nonzero;stroke:black;stroke-width:0.72px;"/>
    </g>
    <g transform="matrix(1.15468,-0.666702,-0.666702,-1.15468,479.821,1074.78)">
        <path d="M215.656,761.34L235.574,761.34" style="fill:none;fill-rule:nonzero;stroke:black;stroke-width:0.72px;"/>
    </g>
    <g transform="matrix(1.15468,0.666702,0.666702,-1.15468,-515.432,779.28)">
        <path d="M215.656,731.46L235.574,731.46" style="fill:none;fill-rule:nonzero;stroke:black;stroke-width:0.72px;"/>
    </g>
    <g transform="matrix(0,-1.33333,-1.33333,0,1216.45,354.495)">
        <path d="M207.03,746.4L226.95,746.4" style="fill:none;fill-rule:nonzero;stroke:black;stroke-width:0.72px;"/>
    </g>
    <g transform="matrix(0,-1.33333,-1.33333,0,1278.17,343.255)">
        <path d="M228.48,773.76L243.36,773.76" style="fill:none;fill-rule:nonzero;stroke:black;stroke-width:0.72px;"/>
    </g>
    <g transform="matrix(0,-1.33333,-1.33333,0,1273.69,338.775)">
        <path d="M225.12,773.76L240,773.76" style="fill:none;fill-rule:nonzero;stroke:black;stroke-width:0.72px;"/>
    </g>
    <g transform="matrix(1.15481,-0.666483,-0.666483,-1.15481,484.448,1096.48)">
        <path d="M250.523,759.97L264.967,759.97" style="fill:none;fill-rule:nonzero;stroke:black;stroke-width:0.72px;"/>
    </g>
    <g transform="matrix(1.33333,0,0,1.33333,-68.0733,-956.905)">
        <path d="M290.64,756.48L324.72,756.48" style="fill:none;fill-rule:nonzero;stroke:black;stroke-width:0.72px;"/>
    </g>
    <g transform="matrix(1.33333,0,0,1.33333,-68.0733,-964.585)">
        <path d="M290.64,759.36L324.72,759.36" style="fill:none;fill-rule:nonzero;stroke:black;stroke-width:0.72px;"/>
    </g>
    <g transform="matrix(1.33333,0,0,1.33333,-68.0733,-960.745)">
        <path d="M320.16,754.32L328.08,757.92L320.16,761.52" style="fill:none;fill-rule:nonzero;stroke:black;stroke-width:0.72px;"/>
    </g>
    <g transform="matrix(0,-1.33333,-1.33333,0,1435.89,575.215)">
        <path d="M372.09,745.92L392.01,745.92" style="fill:none;fill-rule:nonzero;stroke:black;stroke-width:0.72px;"/>
    </g>
    <g transform="matrix(1.15468,0.666702,0.666702,-1.15468,-508.627,675.482)">
        <path d="M363.466,760.86L383.384,760.86" style="fill:none;fill-rule:nonzero;stroke:black;stroke-width:0.72px;"/>
    </g>
    <g transform="matrix(1.15468,-0.666702,-0.666702,-1.15468,485.986,1178.75)">
        <path d="M363.466,730.98L383.384,730.98" style="fill:none;fill-rule:nonzero;stroke:black;stroke-width:0.72px;"/>
    </g>
    <g transform="matrix(1.15468,-0.666702,-0.666702,-1.15468,502.826,1161.91)">
        <path d="M346.216,760.86L366.134,760.86" style="fill:none;fill-rule:nonzero;stroke:black;stroke-width:0.72px;"/>
    </g>
    <g transform="matrix(1.15468,0.666702,0.666702,-1.15468,-491.787,692.321)">
        <path d="M346.216,730.98L366.134,730.98" style="fill:none;fill-rule:nonzero;stroke:black;stroke-width:0.72px;"/>
    </g>
    <g transform="matrix(0,-1.33333,-1.33333,0,1389.89,529.215)">
        <path d="M337.59,745.92L357.51,745.92" style="fill:none;fill-rule:nonzero;stroke:black;stroke-width:0.72px;"/>
    </g>
    <g transform="matrix(0,-1.33333,-1.33333,0,1451.61,517.975)">
        <path d="M359.04,773.28L373.92,773.28" style="fill:none;fill-rule:nonzero;stroke:black;stroke-width:0.72px;"/>
    </g>
    <g transform="matrix(0,-1.33333,-1.33333,0,1447.13,513.495)">
        <path d="M355.68,773.28L370.56,773.28" style="fill:none;fill-rule:nonzero;stroke:black;stroke-width:0.72px;"/>
    </g>
</svg>
