<?xml version="1.0" encoding="UTF-8" standalone="no"?>
<!DOCTYPE svg PUBLIC "-//W3C//DTD SVG 1.1//EN" "http://www.w3.org/Graphics/SVG/1.1/DTD/svg11.dtd">
<svg width="100%" height="100%" viewBox="0 0 310 120" version="1.1" xmlns="http://www.w3.org/2000/svg" xmlns:xlink="http://www.w3.org/1999/xlink" xml:space="preserve" xmlns:serif="http://www.serif.com/" style="fill-rule:evenodd;clip-rule:evenodd;stroke-linecap:round;stroke-linejoin:round;stroke-miterlimit:10;">
    <g transform="matrix(1.33333,0,0,1.33333,-59.1878,-57.4324)">
        <text x="80.88px" y="61.68px" style="font-family:'ArialMT', 'Arial', sans-serif;font-size:8px;">4</text>
        <text x="80.64px" y="86.64px" style="font-family:'ArialMT', 'Arial', sans-serif;font-size:8px;">3</text>
        <text x="88.08px" y="97.68px" style="font-family:'ArialMT', 'Arial', sans-serif;font-size:8px;">2</text>
        <text x="75.6px" y="123.12px" style="font-family:'ArialMT', 'Arial', sans-serif;font-size:10px;">C</text>
    </g>
    <g transform="matrix(1.33333,0,0,1.33333,-59.1878,-57.4324)">
        <text x="64.08px" y="123.12px" style="font-family:'ArialMT', 'Arial', sans-serif;font-size:10px;">H</text>
        <text x="71.28px" y="125.76px" style="font-family:'ArialMT', 'Arial', sans-serif;font-size:8px;">3</text>
    </g>
    <g transform="matrix(1.33333,0,0,1.33333,-59.1878,-57.4324)">
        <text x="103.44px" y="102.96px" style="font-family:'ArialMT', 'Arial', sans-serif;font-size:10px;">CH</text>
        <text x="117.84px" y="105.6px" style="font-family:'ArialMT', 'Arial', sans-serif;font-size:8px;">2</text>
        <text x="104.88px" y="110.4px" style="font-family:'ArialMT', 'Arial', sans-serif;font-size:8px;">1</text>
    </g>
    <g transform="matrix(1.33333,0,0,1.33333,-59.1878,-57.4324)">
        <text x="100.08px" y="55.92px" style="font-family:'ArialMT', 'Arial', sans-serif;font-size:8px;">5</text>
        <text x="111.84px" y="77.04px" style="font-family:'ArialMT', 'Arial', sans-serif;font-size:10px;">H</text>
    </g>
    <g transform="matrix(1.33333,0,0,1.33333,-59.1878,-57.4324)">
        <text x="113.28px" y="84.48px" style="font-family:'ArialMT', 'Arial', sans-serif;font-size:8px;">6</text>
    </g>
    <g transform="matrix(1.33333,0,0,1.33333,-59.1878,-57.4324)">
        <text x="239.52px" y="64.56px" style="font-family:'ArialMT', 'Arial', sans-serif;font-size:10px;">CH</text>
        <text x="253.92px" y="67.2px" style="font-family:'ArialMT', 'Arial', sans-serif;font-size:8px;">2</text>
    </g>
    <g transform="matrix(1.33333,0,0,1.33333,-59.1878,-57.4324)">
        <text x="217.92px" y="123.84px" style="font-family:'ArialMT', 'Arial', sans-serif;font-size:10px;">C</text>
    </g>
    <g transform="matrix(1.33333,0,0,1.33333,-59.1878,-57.4324)">
        <text x="206.4px" y="123.84px" style="font-family:'ArialMT', 'Arial', sans-serif;font-size:10px;">H</text>
        <text x="213.6px" y="126.48px" style="font-family:'ArialMT', 'Arial', sans-serif;font-size:8px;">3</text>
    </g>
    <g transform="matrix(1.33333,0,0,1.33333,-59.1878,-57.4324)">
        <text x="253.92px" y="85.44px" style="font-family:'ArialMT', 'Arial', sans-serif;font-size:10px;">H</text>
    </g>
    <g transform="matrix(-1.07962,0.782437,0.782437,1.07962,-531.662,-866.479)">
        <path d="M47.745,781.805L67.665,781.805" style="fill:none;fill-rule:nonzero;stroke:black;stroke-width:0.72px;"/>
    </g>
    <g transform="matrix(-0.410979,-1.26841,-1.26841,0.410979,1004.98,-205.004)">
        <path d="M42.75,766.485L62.67,766.485" style="fill:none;fill-rule:nonzero;stroke:black;stroke-width:0.72px;"/>
    </g>
    <g transform="matrix(-1.0782,-0.784388,-0.784388,1.0782,732.07,-762.277)">
        <path d="M63.864,781.79L83.786,781.79" style="fill:none;fill-rule:nonzero;stroke:black;stroke-width:0.72px;"/>
    </g>
    <g transform="matrix(-1.33333,-0.00133802,-0.00133802,1.33333,117.145,-953.451)">
        <path d="M55.78,757L75.71,757" style="fill:none;fill-rule:nonzero;stroke:black;stroke-width:0.72px;"/>
    </g>
    <g transform="matrix(0.412993,-1.26776,-1.26776,-0.412993,985.018,459.616)">
        <path d="M68.835,766.46L88.755,766.46" style="fill:none;fill-rule:nonzero;stroke:black;stroke-width:0.72px;"/>
    </g>
    <g transform="matrix(0.782437,1.07962,1.07962,-0.782437,-822.811,564.499)">
        <path d="M71.595,748.925L91.515,748.925" style="fill:none;fill-rule:nonzero;stroke:black;stroke-width:0.72px;"/>
    </g>
    <g transform="matrix(-0.543002,1.21775,1.21775,0.543002,-794.916,-415.753)">
        <path d="M77.431,734.39L91.599,734.39" style="fill:none;fill-rule:nonzero;stroke:black;stroke-width:0.72px;"/>
    </g>
    <g transform="matrix(1.32609,-0.138838,-0.138838,-1.32609,44.2373,1072.96)">
        <path d="M87.539,739.97L102.521,739.97" style="fill:none;fill-rule:nonzero;stroke:black;stroke-width:0.72px;"/>
    </g>
    <g transform="matrix(1.32605,-0.139127,-0.139127,-1.32605,44.9199,1072.91)">
        <path d="M87.188,743.33L102.522,743.33" style="fill:none;fill-rule:nonzero;stroke:black;stroke-width:0.72px;"/>
    </g>
    <g transform="matrix(1.26841,-0.410979,-0.410979,-1.26841,266.896,1052.1)">
        <path d="M81.395,779L101.315,779" style="fill:none;fill-rule:nonzero;stroke:black;stroke-width:0.72px;"/>
    </g>
    <g transform="matrix(0.989834,0.893313,0.893313,-0.989834,-717.408,703.483)">
        <path d="M99.086,777.535L112.624,777.535" style="fill:none;fill-rule:nonzero;stroke:black;stroke-width:0.72px;"/>
    </g>
    <g transform="matrix(1.33333,0,0,1.33333,-59.1878,-990.232)">
        <path d="M106.8,766.8L106.32,769.2L105.84,770.16L105.36,771.36L104.64,772.32L103.92,773.04L102.96,773.76L102,774.24L100.8,774.72L99.84,775.2L98.64,775.2L97.92,775.44L96.72,775.2L95.76,774.96L94.56,774.72L93.6,774.24L92.64,773.52L91.2,772.08L90.48,771.12L89.52,769.2L89.28,768.24L89.04,767.04L89.04,766.08" style="fill:none;fill-rule:nonzero;stroke:black;stroke-width:0.48px;"/>
    </g>
    <g transform="matrix(0,-1.33333,-1.33333,0,1090.57,157.928)">
        <path d="M86.88,773.28L95.04,773.28L87.6,769.44L88.8,771.84L86.88,773.28Z" style="stroke:black;stroke-width:0.48px;"/>
    </g>
    <g transform="matrix(1.33333,0,0,1.33333,-59.1878,-953.432)">
        <path d="M80.16,768.48L76.32,768.48L75.36,768L74.16,767.76L72.24,766.8L71.28,766.08L69.84,764.64L69.12,763.68L67.2,759.84L67.2,758.64L66.96,757.44L66.96,755.76L67.2,754.32L67.68,753.12L68.16,752.16L68.64,750.96L70.08,749.04L71.04,748.32L72,747.36L72.96,746.88L73.92,746.16L75.12,745.92L76.32,745.44L77.04,745.44" style="fill:none;fill-rule:nonzero;stroke:black;stroke-width:0.48px;"/>
    </g>
    <g transform="matrix(1.31915,-0.193992,-0.193992,-1.31915,86.664,1069.3)">
        <path d="M71.747,744.855L79.994,744.855L72.815,748.822L73.688,746.51L71.747,744.855Z" style="stroke:black;stroke-width:0.48px;"/>
    </g>
    <g transform="matrix(1.33333,0,0,1.33333,-59.1878,-950.232)">
        <path d="M105.36,765.36L102.48,763.92L101.28,762.72L100.32,761.52L99.6,760.08L99.12,758.4L98.64,756.96L98.64,756L98.88,754.8L98.88,753.84L99.36,752.64L99.6,751.68L100.32,750.72L100.8,749.76L101.52,749.04L102.48,748.32L103.2,747.6L104.16,747.12L105.36,746.64L106.32,746.4L107.52,746.16L108.72,746.16L111.84,746.64" style="fill:none;fill-rule:nonzero;stroke:black;stroke-width:0.48px;"/>
    </g>
    <g transform="matrix(1.24844,0.468165,0.468165,-1.24844,-408.523,949.673)">
        <path d="M103.673,766.366L111.875,766.366L104.656,762.377L105.555,764.765L103.673,766.366Z" style="stroke:black;stroke-width:0.48px;"/>
    </g>
    <g transform="matrix(1.33333,0,0,1.33333,-59.1878,-953.432)">
        <path d="M138.24,756.96L172.32,756.96" style="fill:none;fill-rule:nonzero;stroke:black;stroke-width:0.72px;"/>
    </g>
    <g transform="matrix(1.33333,0,0,1.33333,-59.1878,-961.112)">
        <path d="M138.24,759.84L172.32,759.84" style="fill:none;fill-rule:nonzero;stroke:black;stroke-width:0.72px;"/>
    </g>
    <g transform="matrix(1.33333,0,0,1.33333,-59.1878,-957.272)">
        <path d="M167.76,754.8L175.68,758.4L167.76,762" style="fill:none;fill-rule:nonzero;stroke:black;stroke-width:0.72px;"/>
    </g>
    <g transform="matrix(-1.07962,0.782437,0.782437,1.07962,-187.687,-976.098)">
        <path d="M190.065,781.085L209.985,781.085" style="fill:none;fill-rule:nonzero;stroke:black;stroke-width:0.72px;"/>
    </g>
    <g transform="matrix(-0.410979,-1.26841,-1.26841,0.410979,1252.31,-23.2274)">
        <path d="M185.07,765.765L204.99,765.765" style="fill:none;fill-rule:nonzero;stroke:black;stroke-width:0.72px;"/>
    </g>
    <g transform="matrix(-1.0782,-0.784388,-0.784388,1.0782,1074.71,-648.906)">
        <path d="M206.184,781.07L226.106,781.07" style="fill:none;fill-rule:nonzero;stroke:black;stroke-width:0.72px;"/>
    </g>
    <g transform="matrix(-1.33333,-0.00133802,-0.00133802,1.33333,496.664,-951.34)">
        <path d="M198.1,756.28L218.03,756.28" style="fill:none;fill-rule:nonzero;stroke:black;stroke-width:0.72px;"/>
    </g>
    <g transform="matrix(1.26849,-0.410756,-0.410756,-1.26849,275.194,1109.75)">
        <path d="M223.833,777.535L238.927,777.535" style="fill:none;fill-rule:nonzero;stroke:black;stroke-width:0.72px;"/>
    </g>
    <g transform="matrix(1.2685,-0.41071,-0.41071,-1.2685,276.611,1109.53)">
        <path d="M223.895,781.075L238.925,781.075" style="fill:none;fill-rule:nonzero;stroke:black;stroke-width:0.72px;"/>
    </g>
    <g transform="matrix(0.782437,1.07962,1.07962,-0.782437,-743.63,411.245)">
        <path d="M213.915,748.205L233.835,748.205" style="fill:none;fill-rule:nonzero;stroke:black;stroke-width:0.72px;"/>
    </g>
    <g transform="matrix(0.78256,1.07953,1.07953,-0.78256,-743.258,415.424)">
        <path d="M212.457,746.435L229.563,746.435" style="fill:none;fill-rule:nonzero;stroke:black;stroke-width:0.72px;"/>
    </g>
    <g transform="matrix(-0.543002,1.21775,1.21775,0.543002,-526.999,-587.713)">
        <path d="M219.751,733.67L233.919,733.67" style="fill:none;fill-rule:nonzero;stroke:black;stroke-width:0.72px;"/>
    </g>
    <g transform="matrix(1.32611,-0.138569,-0.138569,-1.32611,45.2463,1092.98)">
        <path d="M229.666,741.175L249.584,741.175" style="fill:none;fill-rule:nonzero;stroke:black;stroke-width:0.72px;"/>
    </g>
    <g transform="matrix(0.543937,-1.21734,-1.21734,-0.543937,1051.57,781.388)">
        <path d="M245.292,748.745L259.608,748.745" style="fill:none;fill-rule:nonzero;stroke:black;stroke-width:0.72px;"/>
    </g>
</svg>
