<?xml version="1.0" encoding="UTF-8" standalone="no"?>
<!DOCTYPE svg PUBLIC "-//W3C//DTD SVG 1.1//EN" "http://www.w3.org/Graphics/SVG/1.1/DTD/svg11.dtd">
<svg width="100%" height="100%" viewBox="0 0 770 410" version="1.1" xmlns="http://www.w3.org/2000/svg" xmlns:xlink="http://www.w3.org/1999/xlink" xml:space="preserve" xmlns:serif="http://www.serif.com/" style="fill-rule:evenodd;clip-rule:evenodd;stroke-linecap:round;stroke-linejoin:round;stroke-miterlimit:10;">
    <g transform="matrix(1.33333,0,0,1.33333,-14.8479,-57.5118)">
        <text x="30px" y="68.64px" style="font-family:'ArialMT', 'Arial', sans-serif;font-size:10px;">O</text>
    </g>
    <g transform="matrix(1.33333,0,0,1.33333,-14.8479,-57.5118)">
        <text x="65.28px" y="94.08px" style="font-family:'ArialMT', 'Arial', sans-serif;font-size:10px;">CH</text>
        <text x="79.68px" y="96.72px" style="font-family:'ArialMT', 'Arial', sans-serif;font-size:8px;">3</text>
    </g>
    <g transform="matrix(1.33333,0,0,1.33333,-14.8479,-57.5118)">
        <text x="49.44px" y="80.4px" style="font-family:'ArialMT', 'Arial', sans-serif;font-size:10px;">CH</text>
        <text x="63.84px" y="83.04px" style="font-family:'ArialMT', 'Arial', sans-serif;font-size:8px;">3</text>
    </g>
    <g transform="matrix(1.33333,0,0,1.33333,-14.8479,-57.5118)">
        <text x="38.16px" y="67.68px" style="font-family:'ArialMT', 'Arial', sans-serif;font-size:10px;">:</text>
    </g>
    <g transform="matrix(0.0233344,-1.33313,1.33313,0.0233344,-14.8479,-57.5118)">
        <text x="-59.539px" y="36.568px" style="font-family:'ArialMT', 'Arial', sans-serif;font-size:10px;">:</text>
    </g>
    <g transform="matrix(1.33333,0,0,1.33333,-14.8479,-57.5118)">
        <text x="162.24px" y="99.84px" style="font-family:'ArialMT', 'Arial', sans-serif;font-size:10px;">C</text>
    </g>
    <g transform="matrix(1.33333,0,0,1.33333,-14.8479,-57.5118)">
        <text x="155.04px" y="99.84px" style="font-family:'ArialMT', 'Arial', sans-serif;font-size:10px;">H</text>
        <text x="169.44px" y="92.88px" style="font-family:'ArialMT', 'Arial', sans-serif;font-size:8px;">–</text>
    </g>
    <g transform="matrix(1.33333,0,0,1.33333,-14.8479,-57.5118)">
        <text x="178.32px" y="68.4px" style="font-family:'ArialMT', 'Arial', sans-serif;font-size:10px;">O</text>
        <text x="186.24px" y="61.44px" style="font-family:'ArialMT', 'Arial', sans-serif;font-size:8px;">+</text>
    </g>
    <g transform="matrix(1.33333,0,0,1.33333,-14.8479,-57.5118)">
        <text x="213.6px" y="93.84px" style="font-family:'ArialMT', 'Arial', sans-serif;font-size:10px;">CH</text>
        <text x="228px" y="96.48px" style="font-family:'ArialMT', 'Arial', sans-serif;font-size:8px;">3</text>
    </g>
    <g transform="matrix(1.33333,0,0,1.33333,-14.8479,-57.5118)">
        <text x="197.76px" y="80.16px" style="font-family:'ArialMT', 'Arial', sans-serif;font-size:10px;">CH</text>
        <text x="212.16px" y="82.8px" style="font-family:'ArialMT', 'Arial', sans-serif;font-size:8px;">3</text>
    </g>
    <g transform="matrix(0.0115996,1.33328,-1.33328,0.0115996,-14.8479,-57.5118)">
        <text x="90.059px" y="-162.663px" style="font-family:'ArialMT', 'Arial', sans-serif;font-size:10px;">:</text>
    </g>
    <g transform="matrix(1.33333,0,0,1.33333,-14.8479,-57.5118)">
        <text x="309.6px" y="103.92px" style="font-family:'ArialMT', 'Arial', sans-serif;font-size:10px;">C</text>
    </g>
    <g transform="matrix(1.33333,0,0,1.33333,-14.8479,-57.5118)">
        <text x="298.08px" y="103.92px" style="font-family:'ArialMT', 'Arial', sans-serif;font-size:10px;">H</text>
        <text x="305.28px" y="106.56px" style="font-family:'ArialMT', 'Arial', sans-serif;font-size:8px;">2</text>
    </g>
    <g transform="matrix(1.33333,0,0,1.33333,-14.8479,-57.5118)">
        <text x="331.68px" y="68.88px" style="font-family:'ArialMT', 'Arial', sans-serif;font-size:10px;">O</text>
    </g>
    <g transform="matrix(1.33333,0,0,1.33333,-14.8479,-57.5118)">
        <text x="366.96px" y="94.32px" style="font-family:'ArialMT', 'Arial', sans-serif;font-size:10px;">CH</text>
        <text x="381.36px" y="96.96px" style="font-family:'ArialMT', 'Arial', sans-serif;font-size:8px;">3</text>
    </g>
    <g transform="matrix(1.33333,0,0,1.33333,-14.8479,-57.5118)">
        <text x="351.12px" y="80.64px" style="font-family:'ArialMT', 'Arial', sans-serif;font-size:10px;">CH</text>
        <text x="365.52px" y="83.28px" style="font-family:'ArialMT', 'Arial', sans-serif;font-size:8px;">3</text>
        <text x="307.2px" y="88.8px" style="font-family:'ArialMT', 'Arial', sans-serif;font-size:10px;">Cl</text>
    </g>
    <g transform="matrix(1.33333,0,0,1.33333,-14.8479,-57.5118)">
        <text x="463.92px" y="103.92px" style="font-family:'ArialMT', 'Arial', sans-serif;font-size:10px;">C</text>
    </g>
    <g transform="matrix(1.33333,0,0,1.33333,-14.8479,-57.5118)">
        <text x="452.4px" y="103.92px" style="font-family:'ArialMT', 'Arial', sans-serif;font-size:10px;">H</text>
        <text x="459.6px" y="106.56px" style="font-family:'ArialMT', 'Arial', sans-serif;font-size:8px;">2</text>
    </g>
    <g transform="matrix(1.33333,0,0,1.33333,-14.8479,-57.5118)">
        <text x="486px" y="68.88px" style="font-family:'ArialMT', 'Arial', sans-serif;font-size:10px;">O</text>
    </g>
    <g transform="matrix(1.33333,0,0,1.33333,-14.8479,-57.5118)">
        <text x="521.28px" y="94.32px" style="font-family:'ArialMT', 'Arial', sans-serif;font-size:10px;">CH</text>
        <text x="535.68px" y="96.96px" style="font-family:'ArialMT', 'Arial', sans-serif;font-size:8px;">3</text>
    </g>
    <g transform="matrix(1.33333,0,0,1.33333,-14.8479,-57.5118)">
        <text x="505.44px" y="80.64px" style="font-family:'ArialMT', 'Arial', sans-serif;font-size:10px;">CH</text>
        <text x="519.84px" y="83.28px" style="font-family:'ArialMT', 'Arial', sans-serif;font-size:8px;">3</text>
        <text x="466.08px" y="88.8px" style="font-family:'ArialMT', 'Arial', sans-serif;font-size:10px;">O</text>
    </g>
    <g transform="matrix(1.33333,0,0,1.33333,-14.8479,-57.5118)">
        <text x="456.24px" y="71.52px" style="font-family:'ArialMT', 'Arial', sans-serif;font-size:10px;">H</text>
    </g>
    <g transform="matrix(1.33333,0,0,1.33333,-14.8479,-57.5118)">
        <text x="483.12px" y="205.92px" style="font-family:'ArialMT', 'Arial', sans-serif;font-size:18px;">+</text>
        <text x="506.64px" y="212.64px" style="font-family:'ArialMT', 'Arial', sans-serif;font-size:10px;">H</text>
        <text x="518.16px" y="212.64px" style="font-family:'ArialMT', 'Arial', sans-serif;font-size:10px;">C</text>
        <text x="513.84px" y="215.28px" style="font-family:'ArialMT', 'Arial', sans-serif;font-size:8px;">2</text>
    </g>
    <g transform="matrix(1.33333,0,0,1.33333,-14.8479,-57.5118)">
        <text x="552.48px" y="212.64px" style="font-family:'ArialMT', 'Arial', sans-serif;font-size:10px;">CH</text>
        <text x="566.88px" y="215.28px" style="font-family:'ArialMT', 'Arial', sans-serif;font-size:8px;">2</text>
    </g>
    <g transform="matrix(1.33333,0,0,1.33333,-14.8479,-57.5118)">
        <text x="566.88px" y="205.68px" style="font-family:'ArialMT', 'Arial', sans-serif;font-size:8px;">+</text>
    </g>
    <g transform="matrix(1.33333,0,0,1.33333,-14.8479,-57.5118)">
        <text x="376.32px" y="202.08px" style="font-family:'ArialMT', 'Arial', sans-serif;font-size:10px;">H</text>
        <text x="393.36px" y="211.92px" style="font-family:'ArialMT', 'Arial', sans-serif;font-size:10px;">O</text>
    </g>
    <g transform="matrix(1.33333,0,0,1.33333,-14.8479,-57.5118)">
        <text x="427.92px" y="211.92px" style="font-family:'ArialMT', 'Arial', sans-serif;font-size:10px;">C</text>
        <text x="435.12px" y="204.96px" style="font-family:'ArialMT', 'Arial', sans-serif;font-size:8px;">–</text>
    </g>
    <g transform="matrix(1.33333,0,0,1.33333,-14.8479,-57.5118)">
        <text x="410.4px" y="182.16px" style="font-family:'ArialMT', 'Arial', sans-serif;font-size:10px;">O</text>
    </g>
    <g transform="matrix(1.33333,0,0,1.33333,-14.8479,-57.5118)">
        <text x="427.92px" y="231.84px" style="font-family:'ArialMT', 'Arial', sans-serif;font-size:10px;">CH</text>
        <text x="442.32px" y="234.48px" style="font-family:'ArialMT', 'Arial', sans-serif;font-size:8px;">3</text>
    </g>
    <g transform="matrix(1.33333,0,0,1.33333,-14.8479,-57.5118)">
        <text x="445.2px" y="202.08px" style="font-family:'ArialMT', 'Arial', sans-serif;font-size:10px;">CH</text>
        <text x="459.6px" y="204.72px" style="font-family:'ArialMT', 'Arial', sans-serif;font-size:8px;">3</text>
    </g>
    <g transform="matrix(0.345077,1.28791,-1.28791,0.345077,-14.8479,-57.5118)">
        <text x="304.885px" y="-361.417px" style="font-family:'ArialMT', 'Arial', sans-serif;font-size:10px;">:</text>
    </g>
    <g transform="matrix(1.33333,0,0,1.33333,-14.8479,-57.5118)">
        <text x="518.4px" y="307.92px" style="font-family:'ArialMT', 'Arial', sans-serif;font-size:10px;">C</text>
    </g>
    <g transform="matrix(1.33333,0,0,1.33333,-14.8479,-57.5118)">
        <text x="506.88px" y="307.92px" style="font-family:'ArialMT', 'Arial', sans-serif;font-size:10px;">H</text>
        <text x="514.08px" y="310.56px" style="font-family:'ArialMT', 'Arial', sans-serif;font-size:8px;">2</text>
    </g>
    <g transform="matrix(1.33333,0,0,1.33333,-14.8479,-57.5118)">
        <text x="552.96px" y="327.84px" style="font-family:'ArialMT', 'Arial', sans-serif;font-size:10px;">Br</text>
    </g>
    <g transform="matrix(1.33333,0,0,1.33333,-14.8479,-57.5118)">
        <text x="376.56px" y="315.12px" style="font-family:'ArialMT', 'Arial', sans-serif;font-size:10px;">H</text>
        <text x="393.6px" y="324.96px" style="font-family:'ArialMT', 'Arial', sans-serif;font-size:10px;">O</text>
    </g>
    <g transform="matrix(1.33333,0,0,1.33333,-14.8479,-57.5118)">
        <text x="410.64px" y="295.2px" style="font-family:'ArialMT', 'Arial', sans-serif;font-size:10px;">O</text>
    </g>
    <g transform="matrix(1.33333,0,0,1.33333,-14.8479,-57.5118)">
        <text x="428.16px" y="344.88px" style="font-family:'ArialMT', 'Arial', sans-serif;font-size:10px;">CH</text>
        <text x="442.56px" y="347.52px" style="font-family:'ArialMT', 'Arial', sans-serif;font-size:8px;">3</text>
    </g>
    <g transform="matrix(1.33333,0,0,1.33333,-14.8479,-57.5118)">
        <text x="445.44px" y="315.12px" style="font-family:'ArialMT', 'Arial', sans-serif;font-size:10px;">CH</text>
        <text x="459.84px" y="317.76px" style="font-family:'ArialMT', 'Arial', sans-serif;font-size:8px;">3</text>
    </g>
    <g transform="matrix(-1.07962,0.782437,0.782437,1.07962,-540.682,-768.615)">
        <path d="M15.825,751.565L35.745,751.565" style="fill:none;fill-rule:nonzero;stroke:black;stroke-width:0.72px;"/>
    </g>
    <g transform="matrix(-0.410979,-1.26841,-1.26841,0.410979,955.28,-192.823)">
        <path d="M10.83,736.245L30.75,736.245" style="fill:none;fill-rule:nonzero;stroke:black;stroke-width:0.72px;"/>
    </g>
    <g transform="matrix(-0.411427,-1.26827,-1.26827,0.411427,962.078,-190.903)">
        <path d="M16.536,737.28L31.444,737.28" style="fill:none;fill-rule:nonzero;stroke:black;stroke-width:0.72px;"/>
    </g>
    <g transform="matrix(-1.0782,-0.784388,-0.784388,1.0782,675.714,-714.469)">
        <path d="M31.944,751.55L51.866,751.55" style="fill:none;fill-rule:nonzero;stroke:black;stroke-width:0.72px;"/>
    </g>
    <g transform="matrix(-1.33333,-0.00133802,-0.00133802,1.33333,76.3245,-872.933)">
        <path d="M23.86,726.76L43.79,726.76" style="fill:none;fill-rule:nonzero;stroke:black;stroke-width:0.72px;"/>
    </g>
    <g transform="matrix(0.412993,-1.26776,-1.26776,-0.412993,961.643,446.901)">
        <path d="M36.915,736.22L56.835,736.22" style="fill:none;fill-rule:nonzero;stroke:black;stroke-width:0.72px;"/>
    </g>
    <g transform="matrix(0.000908884,-1.33333,-1.33333,-0.000908884,1052.16,93.4633)">
        <path d="M28.2,764.745L42.87,764.745" style="fill:none;fill-rule:nonzero;stroke:black;stroke-width:0.72px;"/>
    </g>
    <g transform="matrix(0.000908884,-1.33333,-1.33333,-0.000908884,1047.68,88.9833)">
        <path d="M24.84,764.745L39.51,764.745" style="fill:none;fill-rule:nonzero;stroke:black;stroke-width:0.72px;"/>
    </g>
    <g transform="matrix(1.26849,-0.410756,-0.410756,-1.26849,296.109,1040.01)">
        <path d="M49.593,748.015L64.687,748.015" style="fill:none;fill-rule:nonzero;stroke:black;stroke-width:0.72px;"/>
    </g>
    <g transform="matrix(0.209706,-1.31674,-1.31674,-0.209706,1034.11,286.27)">
        <path d="M43.718,753.005L58.532,753.005" style="fill:none;fill-rule:nonzero;stroke:black;stroke-width:0.72px;"/>
    </g>
    <g transform="matrix(1.33333,0,0,1.33333,-14.8479,-985.192)">
        <path d="M28.8,779.76L27.6,779.76L26.64,779.52L25.44,779.28L22.56,777.84L21.6,777.12L20.88,776.4L20.16,775.44L19.44,774.72L18.48,772.8L18.24,771.6L18,770.64L18,766.56L18.48,765.6L18.72,764.4L19.2,763.44L19.92,762.48L22.08,760.32L23.04,759.6L24.96,758.64L25.92,758.4L28.32,757.92L28.8,757.92" style="fill:none;fill-rule:nonzero;stroke:black;stroke-width:0.48px;"/>
    </g>
    <g transform="matrix(1.33276,-0.0391987,-0.0391987,-1.33276,14.9417,1065.58)">
        <path d="M20.585,757.801L28.749,757.801L21.418,761.618L22.554,759.424L20.585,757.801Z" style="stroke:black;stroke-width:0.48px;"/>
    </g>
    <g transform="matrix(1.33333,0,0,1.33333,-14.8479,-919.912)">
        <path d="M29.04,737.76L30.24,738L32.64,739.44L33.36,740.64L34.08,741.6L34.56,743.04L34.56,745.44L34.32,746.64L33.84,747.6L33.12,748.56L31.68,750L30.72,750.48L29.76,750.72L28.56,750.96L26.88,750.96" style="fill:none;fill-rule:nonzero;stroke:black;stroke-width:0.48px;"/>
    </g>
    <g transform="matrix(-1.33103,-0.078296,-0.078296,1.33103,125.527,-902.347)">
        <path d="M26.767,741.117L34.941,741.117L27.726,737.086L28.783,739.553L26.767,741.117Z" style="stroke:black;stroke-width:0.48px;"/>
    </g>
    <g transform="matrix(1.33333,0,0,1.33333,-14.8479,-918.312)">
        <path d="M96.24,743.76L130.32,743.76" style="fill:none;fill-rule:nonzero;stroke:black;stroke-width:0.72px;"/>
    </g>
    <g transform="matrix(1.33333,0,0,1.33333,-14.8479,-925.992)">
        <path d="M96.24,746.64L130.32,746.64" style="fill:none;fill-rule:nonzero;stroke:black;stroke-width:0.72px;"/>
    </g>
    <g transform="matrix(1.33333,0,0,1.33333,-14.8479,-922.152)">
        <path d="M125.76,741.6L133.68,745.2L125.76,748.8" style="fill:none;fill-rule:nonzero;stroke:black;stroke-width:0.72px;"/>
    </g>
    <g transform="matrix(-0.410646,-1.26852,-1.26852,0.410646,1212.54,0.629438)">
        <path d="M162.646,733.945L177.224,733.945" style="fill:none;fill-rule:nonzero;stroke:black;stroke-width:0.72px;"/>
    </g>
    <g transform="matrix(-0.411363,-1.26829,-1.26829,0.411363,1220.75,-1.86749)">
        <path d="M165.682,736.92L179.328,736.92" style="fill:none;fill-rule:nonzero;stroke:black;stroke-width:0.72px;"/>
    </g>
    <g transform="matrix(-1.0782,-0.784388,-0.784388,1.0782,1033.58,-598.707)">
        <path d="M180.264,751.79L200.186,751.79" style="fill:none;fill-rule:nonzero;stroke:black;stroke-width:0.72px;"/>
    </g>
    <g transform="matrix(-1.33333,-0.00133802,-0.00133802,1.33333,471.845,-873.374)">
        <path d="M172.18,727L192.11,727" style="fill:none;fill-rule:nonzero;stroke:black;stroke-width:0.72px;"/>
    </g>
    <g transform="matrix(0.412993,-1.26776,-1.26776,-0.412993,1098.45,634.714)">
        <path d="M185.235,736.46L205.155,736.46" style="fill:none;fill-rule:nonzero;stroke:black;stroke-width:0.72px;"/>
    </g>
    <g transform="matrix(0.000908884,-1.33333,-1.33333,-0.000908884,1247.87,288.663)">
        <path d="M174.84,764.985L189.51,764.985" style="fill:none;fill-rule:nonzero;stroke:black;stroke-width:0.72px;"/>
    </g>
    <g transform="matrix(0.000992063,-1.33333,-1.33333,-0.000992063,1244.15,283.468)">
        <path d="M172.095,765.57L185.535,765.57" style="fill:none;fill-rule:nonzero;stroke:black;stroke-width:0.72px;"/>
    </g>
    <g transform="matrix(0.000992063,-1.33333,-1.33333,-0.000992063,1253.11,292.428)">
        <path d="M178.815,765.57L192.255,765.57" style="fill:none;fill-rule:nonzero;stroke:black;stroke-width:0.72px;"/>
    </g>
    <g transform="matrix(1.26849,-0.410756,-0.410756,-1.26849,305.826,1100.92)">
        <path d="M197.913,748.255L213.007,748.255" style="fill:none;fill-rule:nonzero;stroke:black;stroke-width:0.72px;"/>
    </g>
    <g transform="matrix(0.209706,-1.31674,-1.31674,-0.209706,1201.08,481.299)">
        <path d="M192.038,753.245L206.852,753.245" style="fill:none;fill-rule:nonzero;stroke:black;stroke-width:0.72px;"/>
    </g>
    <g transform="matrix(1.33333,0,0,1.33333,-14.8479,-918.952)">
        <path d="M244.08,744L278.16,744" style="fill:none;fill-rule:nonzero;stroke:black;stroke-width:0.72px;"/>
    </g>
    <g transform="matrix(1.33333,0,0,1.33333,-14.8479,-926.632)">
        <path d="M244.08,746.88L278.16,746.88" style="fill:none;fill-rule:nonzero;stroke:black;stroke-width:0.72px;"/>
    </g>
    <g transform="matrix(1.33333,0,0,1.33333,-14.8479,-922.792)">
        <path d="M273.6,741.84L281.52,745.44L273.6,749.04" style="fill:none;fill-rule:nonzero;stroke:black;stroke-width:0.72px;"/>
    </g>
    <g transform="matrix(-0.826952,-1.04591,-1.04591,0.826952,1444.9,-179.317)">
        <path d="M314.934,731.665L328.026,731.665" style="fill:none;fill-rule:nonzero;stroke:black;stroke-width:0.72px;"/>
    </g>
    <g transform="matrix(-0.827399,-1.04556,-1.04556,0.827399,1451.67,-185.973)">
        <path d="M315.417,735.245L330.453,735.245" style="fill:none;fill-rule:nonzero;stroke:black;stroke-width:0.72px;"/>
    </g>
    <g transform="matrix(-1.0782,-0.784388,-0.784388,1.0782,1403.04,-477.256)">
        <path d="M333.624,751.31L353.546,751.31" style="fill:none;fill-rule:nonzero;stroke:black;stroke-width:0.72px;"/>
    </g>
    <g transform="matrix(-1.33333,-0.00133802,-0.00133802,1.33333,880.804,-871.889)">
        <path d="M325.54,726.52L345.47,726.52" style="fill:none;fill-rule:nonzero;stroke:black;stroke-width:0.72px;"/>
    </g>
    <g transform="matrix(0.412993,-1.26776,-1.26776,-0.412993,1238.99,829.58)">
        <path d="M338.595,735.98L358.515,735.98" style="fill:none;fill-rule:nonzero;stroke:black;stroke-width:0.72px;"/>
    </g>
    <g transform="matrix(0.000908884,-1.33333,-1.33333,-0.000908884,1453.81,496.023)">
        <path d="M329.88,764.505L344.55,764.505" style="fill:none;fill-rule:nonzero;stroke:black;stroke-width:0.72px;"/>
    </g>
    <g transform="matrix(0.000908884,-1.33333,-1.33333,-0.000908884,1449.33,491.543)">
        <path d="M326.52,764.505L341.19,764.505" style="fill:none;fill-rule:nonzero;stroke:black;stroke-width:0.72px;"/>
    </g>
    <g transform="matrix(1.26849,-0.410756,-0.410756,-1.26849,315.574,1163.94)">
        <path d="M351.273,747.775L366.367,747.775" style="fill:none;fill-rule:nonzero;stroke:black;stroke-width:0.72px;"/>
    </g>
    <g transform="matrix(0.209706,-1.31674,-1.31674,-0.209706,1372.77,683.773)">
        <path d="M345.398,752.765L360.212,752.765" style="fill:none;fill-rule:nonzero;stroke:black;stroke-width:0.72px;"/>
    </g>
    <g transform="matrix(1.33333,0,0,1.33333,-14.8479,-954.072)">
        <path d="M317.76,757.17L335.53,757.17" style="fill:none;fill-rule:nonzero;stroke:black;stroke-width:0.72px;"/>
    </g>
    <g transform="matrix(1.33333,0,0,1.33333,-14.8479,-918.312)">
        <path d="M397.68,743.76L431.76,743.76" style="fill:none;fill-rule:nonzero;stroke:black;stroke-width:0.72px;"/>
    </g>
    <g transform="matrix(1.33333,0,0,1.33333,-14.8479,-925.992)">
        <path d="M397.68,746.64L431.76,746.64" style="fill:none;fill-rule:nonzero;stroke:black;stroke-width:0.72px;"/>
    </g>
    <g transform="matrix(1.33333,0,0,1.33333,-14.8479,-922.152)">
        <path d="M427.2,741.6L435.12,745.2L427.2,748.8" style="fill:none;fill-rule:nonzero;stroke:black;stroke-width:0.72px;"/>
    </g>
    <g transform="matrix(-0.826952,-1.04591,-1.04591,0.826952,1778.27,-17.9124)">
        <path d="M469.254,731.665L482.346,731.665" style="fill:none;fill-rule:nonzero;stroke:black;stroke-width:0.72px;"/>
    </g>
    <g transform="matrix(-0.827399,-1.04556,-1.04556,0.827399,1785.11,-24.6228)">
        <path d="M469.737,735.245L484.773,735.245" style="fill:none;fill-rule:nonzero;stroke:black;stroke-width:0.72px;"/>
    </g>
    <g transform="matrix(-1.0782,-0.784388,-0.784388,1.0782,1775.18,-356.209)">
        <path d="M487.944,751.31L507.866,751.31" style="fill:none;fill-rule:nonzero;stroke:black;stroke-width:0.72px;"/>
    </g>
    <g transform="matrix(-1.33333,-0.00133802,-0.00133802,1.33333,1292.32,-871.683)">
        <path d="M479.86,726.52L499.79,726.52" style="fill:none;fill-rule:nonzero;stroke:black;stroke-width:0.72px;"/>
    </g>
    <g transform="matrix(0.412993,-1.26776,-1.26776,-0.412993,1381.01,1025.22)">
        <path d="M492.915,735.98L512.835,735.98" style="fill:none;fill-rule:nonzero;stroke:black;stroke-width:0.72px;"/>
    </g>
    <g transform="matrix(0.000908884,-1.33333,-1.33333,-0.000908884,1659.43,701.783)">
        <path d="M484.2,764.505L498.87,764.505" style="fill:none;fill-rule:nonzero;stroke:black;stroke-width:0.72px;"/>
    </g>
    <g transform="matrix(0.000908884,-1.33333,-1.33333,-0.000908884,1654.95,697.303)">
        <path d="M480.84,764.505L495.51,764.505" style="fill:none;fill-rule:nonzero;stroke:black;stroke-width:0.72px;"/>
    </g>
    <g transform="matrix(1.26849,-0.410756,-0.410756,-1.26849,325.581,1227.33)">
        <path d="M505.593,747.775L520.687,747.775" style="fill:none;fill-rule:nonzero;stroke:black;stroke-width:0.72px;"/>
    </g>
    <g transform="matrix(0.209706,-1.31674,-1.31674,-0.209706,1546.17,886.972)">
        <path d="M499.718,752.765L514.532,752.765" style="fill:none;fill-rule:nonzero;stroke:black;stroke-width:0.72px;"/>
    </g>
    <g transform="matrix(1.33333,0,0,1.33333,-14.8479,-954.072)">
        <path d="M474.96,757.17L489.85,757.17" style="fill:none;fill-rule:nonzero;stroke:black;stroke-width:0.72px;"/>
    </g>
    <g transform="matrix(-0.665626,-1.1553,-1.1553,0.665626,1799.3,71.6143)">
        <path d="M460.979,765.72L469.011,765.72" style="fill:none;fill-rule:nonzero;stroke:black;stroke-width:0.72px;"/>
    </g>
    <g transform="matrix(1.33333,0,0,1.33333,-14.8479,-905.832)">
        <path d="M521.04,736.32L519.6,738.24L517.68,739.92L515.76,741.36L513.36,742.32L510.96,743.04L509.76,743.04L508.32,743.28L506.64,743.04L505.2,742.8L503.52,742.32L502.08,741.84L500.64,741.12L498.24,739.2L497.04,738L496.08,736.8L495.36,735.6L494.88,734.88" style="fill:none;fill-rule:nonzero;stroke:black;stroke-width:0.48px;"/>
    </g>
    <g transform="matrix(0.65735,-1.16003,-1.16003,-0.65735,1191.39,1166.4)">
        <path d="M514.132,736.987L522.408,736.987L515.009,740.794L516.311,738.498L514.132,736.987Z" style="stroke:black;stroke-width:0.48px;"/>
    </g>
    <g transform="matrix(0,1.33333,1.33333,0,-291.968,-511.912)">
        <path d="M471.6,695.28L503.28,695.28" style="fill:none;fill-rule:nonzero;stroke:black;stroke-width:0.72px;"/>
    </g>
    <g transform="matrix(0,1.33333,1.33333,0,-288.128,-515.752)">
        <path d="M474.48,695.28L506.16,695.28" style="fill:none;fill-rule:nonzero;stroke:black;stroke-width:0.72px;"/>
    </g>
    <g transform="matrix(1.33333,0,0,1.33333,-14.8479,-748.392)">
        <path d="M492.48,676.08L488.88,684L485.28,676.08" style="fill:none;fill-rule:nonzero;stroke:black;stroke-width:0.72px;"/>
    </g>
    <g transform="matrix(-1.15457,0.6669,0.6669,1.15457,883.903,-881.135)">
        <path d="M525.338,639.475L539.992,639.475" style="fill:none;fill-rule:nonzero;stroke:black;stroke-width:0.72px;"/>
    </g>
    <g transform="matrix(-1.15457,0.6669,0.6669,1.15457,886.994,-871.991)">
        <path d="M525.578,635.735L540.232,635.735" style="fill:none;fill-rule:nonzero;stroke:black;stroke-width:0.72px;"/>
    </g>
    <g transform="matrix(1.15481,0.666483,0.666483,-1.15481,-343.739,587.465)">
        <path d="M538.043,639.53L552.487,639.53" style="fill:none;fill-rule:nonzero;stroke:black;stroke-width:0.72px;"/>
    </g>
    <g transform="matrix(-1.15487,-0.666381,-0.666381,1.15487,1377.46,-265.95)">
        <path d="M383.868,638.955L393.012,638.955" style="fill:none;fill-rule:nonzero;stroke:black;stroke-width:0.72px;"/>
    </g>
    <g transform="matrix(-1.15468,0.666706,0.666706,1.15468,574.204,-800.358)">
        <path d="M401.295,640.335L415.395,640.335" style="fill:none;fill-rule:nonzero;stroke:black;stroke-width:0.72px;"/>
    </g>
    <g transform="matrix(1.15481,0.666483,0.666483,-1.15481,-366.457,670.354)">
        <path d="M413.483,640.25L427.927,640.25" style="fill:none;fill-rule:nonzero;stroke:black;stroke-width:0.72px;"/>
    </g>
    <g transform="matrix(0,-1.33333,-1.33333,0,1408.27,751.608)">
        <path d="M408.78,651.21L423.48,651.21" style="fill:none;fill-rule:nonzero;stroke:black;stroke-width:0.72px;"/>
    </g>
    <g transform="matrix(0,-1.33333,-1.33333,0,1403.79,747.128)">
        <path d="M405.42,651.21L420.12,651.21" style="fill:none;fill-rule:nonzero;stroke:black;stroke-width:0.72px;"/>
    </g>
    <g transform="matrix(0,1.33333,1.33333,0,-271.248,-342.552)">
        <path d="M426.9,624L436.5,624" style="fill:none;fill-rule:nonzero;stroke:black;stroke-width:0.72px;"/>
    </g>
    <g transform="matrix(1.15431,-0.667337,-0.667337,-1.15431,491.452,1245.65)">
        <path d="M440.102,640.03L444.538,640.03" style="fill:none;fill-rule:nonzero;stroke:black;stroke-width:0.72px;"/>
    </g>
    <g transform="matrix(0,1.33333,1.33333,0,-246.848,-266.472)">
        <path d="M395.28,586.32L429.36,586.32" style="fill:none;fill-rule:nonzero;stroke:black;stroke-width:0.72px;"/>
    </g>
    <g transform="matrix(0,1.33333,1.33333,0,-243.008,-270.312)">
        <path d="M398.16,586.32L432.24,586.32" style="fill:none;fill-rule:nonzero;stroke:black;stroke-width:0.72px;"/>
    </g>
    <g transform="matrix(1.33333,0,0,1.33333,-14.8479,-454.632)">
        <path d="M417.36,565.92L413.76,573.84L410.16,565.92" style="fill:none;fill-rule:nonzero;stroke:black;stroke-width:0.72px;"/>
    </g>
    <g transform="matrix(0,1.33333,1.33333,0,-80.4479,-434.152)">
        <path d="M520.56,586.8L554.64,586.8" style="fill:none;fill-rule:nonzero;stroke:black;stroke-width:0.72px;"/>
    </g>
    <g transform="matrix(0,1.33333,1.33333,0,-76.6079,-437.992)">
        <path d="M523.44,586.8L557.52,586.8" style="fill:none;fill-rule:nonzero;stroke:black;stroke-width:0.72px;"/>
    </g>
    <g transform="matrix(1.33333,0,0,1.33333,-14.8479,-455.912)">
        <path d="M542.64,566.4L539.04,574.32L535.44,566.4" style="fill:none;fill-rule:nonzero;stroke:black;stroke-width:0.72px;"/>
    </g>
    <g transform="matrix(-1.15457,0.6669,0.6669,1.15457,948.042,-644.248)">
        <path d="M525.578,544.195L540.232,544.195" style="fill:none;fill-rule:nonzero;stroke:black;stroke-width:0.72px;"/>
    </g>
    <g transform="matrix(-1.15457,0.6669,0.6669,1.15457,951.133,-635.104)">
        <path d="M525.818,540.455L540.472,540.455" style="fill:none;fill-rule:nonzero;stroke:black;stroke-width:0.72px;"/>
    </g>
    <g transform="matrix(1.15468,0.666702,0.666702,-1.15468,-278.908,602.791)">
        <path d="M537.916,542.88L557.834,542.88" style="fill:none;fill-rule:nonzero;stroke:black;stroke-width:0.72px;"/>
    </g>
    <g transform="matrix(0,1.33333,1.33333,0,19.7521,-384.352)">
        <path d="M549.15,530.55L563.85,530.55" style="fill:none;fill-rule:nonzero;stroke:black;stroke-width:0.72px;"/>
    </g>
    <g transform="matrix(-1.15487,-0.666381,-0.666381,1.15487,1302.72,15.476)">
        <path d="M384.108,525.915L393.252,525.915" style="fill:none;fill-rule:nonzero;stroke:black;stroke-width:0.72px;"/>
    </g>
    <g transform="matrix(-1.15468,0.666706,0.666706,1.15468,650.165,-519.274)">
        <path d="M401.535,527.295L415.635,527.295" style="fill:none;fill-rule:nonzero;stroke:black;stroke-width:0.72px;"/>
    </g>
    <g transform="matrix(1.15468,0.666702,0.666702,-1.15468,-289.8,688.88)">
        <path d="M413.356,525.84L433.274,525.84" style="fill:none;fill-rule:nonzero;stroke:black;stroke-width:0.72px;"/>
    </g>
    <g transform="matrix(0,-1.33333,-1.33333,0,1257.87,902.648)">
        <path d="M409.02,538.17L423.72,538.17" style="fill:none;fill-rule:nonzero;stroke:black;stroke-width:0.72px;"/>
    </g>
    <g transform="matrix(0,-1.33333,-1.33333,0,1253.39,898.168)">
        <path d="M405.66,538.17L420.36,538.17" style="fill:none;fill-rule:nonzero;stroke:black;stroke-width:0.72px;"/>
    </g>
    <g transform="matrix(0,1.33333,1.33333,0,-123.608,-195.552)">
        <path d="M424.59,513.51L439.29,513.51" style="fill:none;fill-rule:nonzero;stroke:black;stroke-width:0.72px;"/>
    </g>
    <g transform="matrix(1.1547,-0.666669,-0.666669,-1.1547,413.086,1263.5)">
        <path d="M430.97,524.48L445.45,524.48" style="fill:none;fill-rule:nonzero;stroke:black;stroke-width:0.72px;"/>
    </g>
</svg>
