<?xml version="1.0" encoding="UTF-8" standalone="no"?>
<!DOCTYPE svg PUBLIC "-//W3C//DTD SVG 1.1//EN" "http://www.w3.org/Graphics/SVG/1.1/DTD/svg11.dtd">
<svg width="100%" height="100%" viewBox="0 0 750 600" version="1.1" xmlns="http://www.w3.org/2000/svg" xmlns:xlink="http://www.w3.org/1999/xlink" xml:space="preserve" xmlns:serif="http://www.serif.com/" style="fill-rule:evenodd;clip-rule:evenodd;stroke-linecap:round;stroke-linejoin:round;stroke-miterlimit:10;">
    <g transform="matrix(1.33333,0,0,1.33333,-61.2668,-64.6646)">
        <text x="102.48px" y="62.88px" style="font-family:'ArialMT', 'Arial', sans-serif;font-size:10px;">O</text>
    </g>
    <g transform="matrix(1.33333,0,0,1.33333,-61.2668,-64.6646)">
        <text x="133.92px" y="117.12px" style="font-family:'ArialMT', 'Arial', sans-serif;font-size:10px;">O</text>
    </g>
    <g transform="matrix(1.33333,0,0,1.33333,-61.2668,-64.6646)">
        <text x="265.92px" y="62.16px" style="font-family:'ArialMT', 'Arial', sans-serif;font-size:10px;">O<tspan x="273.84px " y="62.16px ">H</tspan></text>
    </g>
    <g transform="matrix(1.33333,0,0,1.33333,-61.2668,-64.6646)">
        <text x="297.36px" y="116.4px" style="font-family:'ArialMT', 'Arial', sans-serif;font-size:10px;">O</text>
    </g>
    <g transform="matrix(1.33333,0,0,1.33333,-61.2668,-64.6646)">
        <text x="430.56px" y="62.4px" style="font-family:'ArialMT', 'Arial', sans-serif;font-size:10px;">O</text>
    </g>
    <g transform="matrix(1.33333,0,0,1.33333,-61.2668,-64.6646)">
        <text x="462px" y="116.64px" style="font-family:'ArialMT', 'Arial', sans-serif;font-size:10px;">O</text>
    </g>
    <g transform="matrix(1.33333,0,0,1.33333,-61.2668,-64.6646)">
        <text x="445.2px" y="78.96px" style="font-family:'ArialMT', 'Arial', sans-serif;font-size:10px;">O</text>
    </g>
    <g transform="matrix(1.33333,0,0,1.33333,-61.2668,-64.6646)">
        <text x="453.12px" y="60.48px" style="font-family:'ArialMT', 'Arial', sans-serif;font-size:10px;">CH</text>
        <text x="467.52px" y="63.12px" style="font-family:'ArialMT', 'Arial', sans-serif;font-size:8px;">3</text>
    </g>
    <g transform="matrix(1.33333,0,0,1.33333,-61.2668,-64.6646)">
        <text x="450.96px" y="95.28px" style="font-family:'ArialMT', 'Arial', sans-serif;font-size:10px;">O</text>
        <text x="470.88px" y="95.52px" style="font-family:'ArialMT', 'Arial', sans-serif;font-size:10px;">CH</text>
        <text x="485.296px" y="98.16px" style="font-family:'ArialMT', 'Arial', sans-serif;font-size:8px;">3</text>
    </g>
    <g transform="matrix(1.33333,0,0,1.33333,-61.2668,-64.6646)">
        <text x="455.04px" y="202.56px" style="font-family:'ArialMT', 'Arial', sans-serif;font-size:10px;">N</text>
    </g>
    <g transform="matrix(1.33333,0,0,1.33333,-61.2668,-64.6646)">
        <text x="463.2px" y="257.04px" style="font-family:'ArialMT', 'Arial', sans-serif;font-size:10px;">N</text>
    </g>
    <g transform="matrix(1.33333,0,0,1.33333,-61.2668,-64.6646)">
        <text x="296.88px" y="230.4px" style="font-family:'ArialMT', 'Arial', sans-serif;font-size:10px;">CH</text>
        <text x="311.28px" y="233.04px" style="font-family:'ArialMT', 'Arial', sans-serif;font-size:8px;">2</text>
    </g>
    <g transform="matrix(1.33333,0,0,1.33333,-61.2668,-64.6646)">
        <text x="311.28px" y="223.44px" style="font-family:'ArialMT', 'Arial', sans-serif;font-size:8px;">+</text>
    </g>
    <g transform="matrix(1.33333,0,0,1.33333,-61.2668,-64.6646)">
        <text x="281.04px" y="216.72px" style="font-family:'ArialMT', 'Arial', sans-serif;font-size:10px;">CH</text>
        <text x="295.44px" y="219.36px" style="font-family:'ArialMT', 'Arial', sans-serif;font-size:8px;">2</text>
    </g>
    <g transform="matrix(1.33333,0,0,1.33333,-61.2668,-64.6646)">
        <text x="295.44px" y="209.76px" style="font-family:'ArialMT', 'Arial', sans-serif;font-size:8px;">+</text>
    </g>
    <g transform="matrix(1.33333,0,0,1.33333,-61.2668,-64.6646)">
        <text x="159.84px" y="235.68px" style="font-family:'ArialMT', 'Arial', sans-serif;font-size:10px;">Br</text>
    </g>
    <g transform="matrix(1.33333,0,0,1.33333,-61.2668,-64.6646)">
        <text x="142.8px" y="205.92px" style="font-family:'ArialMT', 'Arial', sans-serif;font-size:10px;">Br</text>
    </g>
    <g transform="matrix(1.33333,0,0,1.33333,-61.2668,-64.6646)">
        <text x="159.84px" y="355.68px" style="font-family:'ArialMT', 'Arial', sans-serif;font-size:10px;">O<tspan x="167.76px " y="355.68px ">H</tspan></text>
    </g>
    <g transform="matrix(1.33333,0,0,1.33333,-61.2668,-64.6646)">
        <text x="142.8px" y="325.92px" style="font-family:'ArialMT', 'Arial', sans-serif;font-size:10px;">O<tspan x="150.72px " y="325.92px ">H</tspan></text>
    </g>
    <g transform="matrix(1.33333,0,0,1.33333,-61.2668,-64.6646)">
        <text x="143.04px" y="385.68px" style="font-family:'ArialMT', 'Arial', sans-serif;font-size:10px;">CH</text>
        <text x="157.44px" y="388.32px" style="font-family:'ArialMT', 'Arial', sans-serif;font-size:8px;">3</text>
    </g>
    <g transform="matrix(1.33333,0,0,1.33333,-61.2668,-64.6646)">
        <text x="312px" y="355.68px" style="font-family:'ArialMT', 'Arial', sans-serif;font-size:10px;">O</text>
    </g>
    <g transform="matrix(1.33333,0,0,1.33333,-61.2668,-64.6646)">
        <text x="294.96px" y="325.92px" style="font-family:'ArialMT', 'Arial', sans-serif;font-size:10px;">O</text>
    </g>
    <g transform="matrix(1.33333,0,0,1.33333,-61.2668,-64.6646)">
        <text x="294.96px" y="385.68px" style="font-family:'ArialMT', 'Arial', sans-serif;font-size:10px;">O</text>
    </g>
    <g transform="matrix(1.33333,0,0,1.33333,-61.2668,-64.6646)">
        <text x="346.8px" y="355.68px" style="font-family:'ArialMT', 'Arial', sans-serif;font-size:10px;">CH</text>
        <text x="361.2px" y="358.32px" style="font-family:'ArialMT', 'Arial', sans-serif;font-size:8px;">3</text>
    </g>
    <g transform="matrix(1.33333,0,0,1.33333,-61.2668,-64.6646)">
        <text x="260.4px" y="325.92px" style="font-family:'ArialMT', 'Arial', sans-serif;font-size:10px;">O</text>
    </g>
    <g transform="matrix(1.33333,0,0,1.33333,-61.2668,-64.6646)">
        <text x="329.52px" y="325.92px" style="font-family:'ArialMT', 'Arial', sans-serif;font-size:10px;">CH</text>
        <text x="343.92px" y="328.56px" style="font-family:'ArialMT', 'Arial', sans-serif;font-size:8px;">3</text>
    </g>
    <g transform="matrix(1.33333,0,0,1.33333,-61.2668,-64.6646)">
        <text x="572.64px" y="336.96px" style="font-family:'ArialMT', 'Arial', sans-serif;font-size:10px;">CH</text>
        <text x="587.04px" y="339.6px" style="font-family:'ArialMT', 'Arial', sans-serif;font-size:8px;">2</text>
    </g>
    <g transform="matrix(1.33333,0,0,1.33333,-61.2668,-64.6646)">
        <text x="587.04px" y="330px" style="font-family:'ArialMT', 'Arial', sans-serif;font-size:8px;">+</text>
    </g>
    <g transform="matrix(1.33333,0,0,1.33333,-61.2668,-64.6646)">
        <text x="572.64px" y="376.8px" style="font-family:'ArialMT', 'Arial', sans-serif;font-size:10px;">CH</text>
        <text x="587.04px" y="379.44px" style="font-family:'ArialMT', 'Arial', sans-serif;font-size:8px;">2</text>
    </g>
    <g transform="matrix(1.33333,0,0,1.33333,-61.2668,-64.6646)">
        <text x="587.04px" y="369.84px" style="font-family:'ArialMT', 'Arial', sans-serif;font-size:8px;">+</text>
    </g>
    <g transform="matrix(1.33333,0,0,1.33333,-61.2668,-64.6646)">
        <text x="527.52px" y="359.28px" style="font-family:'ArialMT', 'Arial', sans-serif;font-size:18px;">+</text>
    </g>
    <g transform="matrix(1.33333,0,0,1.33333,-61.2668,-64.6646)">
        <text x="458.64px" y="370.56px" style="font-family:'ArialMT', 'Arial', sans-serif;font-size:10px;">O</text>
    </g>
    <g transform="matrix(1.33333,0,0,1.33333,-61.2668,-64.6646)">
        <text x="455.52px" y="336.24px" style="font-family:'ArialMT', 'Arial', sans-serif;font-size:10px;">O</text>
    </g>
    <g transform="matrix(1.33333,0,0,1.33333,-61.2668,-64.6646)">
        <text x="427.44px" y="356.16px" style="font-family:'ArialMT', 'Arial', sans-serif;font-size:10px;">C</text>
        <text x="434.64px" y="349.2px" style="font-family:'ArialMT', 'Arial', sans-serif;font-size:8px;">2<tspan x="438.96px " y="349.2px ">–</tspan></text>
    </g>
    <g transform="matrix(1.33333,0,0,1.33333,-61.2668,-64.6646)">
        <text x="430.32px" y="390.48px" style="font-family:'ArialMT', 'Arial', sans-serif;font-size:10px;">O</text>
    </g>
    <g transform="matrix(1.33333,0,0,1.33333,-61.2668,-64.6646)">
        <text x="424.08px" y="321.84px" style="font-family:'ArialMT', 'Arial', sans-serif;font-size:10px;">O</text>
    </g>
    <g transform="matrix(1.33333,0,0,1.33333,-61.2668,-64.6646)">
        <text x="486.96px" y="350.64px" style="font-family:'ArialMT', 'Arial', sans-serif;font-size:10px;">CH</text>
        <text x="501.36px" y="353.28px" style="font-family:'ArialMT', 'Arial', sans-serif;font-size:8px;">3</text>
    </g>
    <g transform="matrix(1.33333,0,0,1.33333,-61.2668,-64.6646)">
        <text x="490.08px" y="384.96px" style="font-family:'ArialMT', 'Arial', sans-serif;font-size:10px;">CH</text>
        <text x="504.48px" y="387.6px" style="font-family:'ArialMT', 'Arial', sans-serif;font-size:8px;">3</text>
    </g>
    <g transform="matrix(0.851716,-1.02585,1.02585,0.851716,-61.2668,-64.6646)">
        <text x="-2.9px" y="559.152px" style="font-family:'ArialMT', 'Arial', sans-serif;font-size:10px;">:</text>
    </g>
    <g transform="matrix(0.911025,0.973556,-0.973556,0.911025,-61.2668,-64.6646)">
        <text x="544.68px" y="-73.335px" style="font-family:'ArialMT', 'Arial', sans-serif;font-size:10px;">:</text>
    </g>
    <g transform="matrix(1.33333,0,0,1.33333,-61.2668,-64.6646)">
        <text x="582px" y="467.76px" style="font-family:'ArialMT', 'Arial', sans-serif;font-size:10px;">Br</text>
        <text x="582px" y="487.68px" style="font-family:'ArialMT', 'Arial', sans-serif;font-size:10px;">Br</text>
    </g>
    <g transform="matrix(-1.07962,0.782437,0.782437,1.07962,-495.666,-774.057)">
        <path d="M49.905,739.805L69.825,739.805" style="fill:none;fill-rule:nonzero;stroke:black;stroke-width:0.72px;"/>
    </g>
    <g transform="matrix(-0.410979,-1.26841,-1.26841,0.410979,953.39,-136.235)">
        <path d="M44.91,724.485L64.83,724.485" style="fill:none;fill-rule:nonzero;stroke:black;stroke-width:0.72px;"/>
    </g>
    <g transform="matrix(-1.0782,-0.784388,-0.784388,1.0782,702.256,-666.53)">
        <path d="M66.024,739.79L85.946,739.79" style="fill:none;fill-rule:nonzero;stroke:black;stroke-width:0.72px;"/>
    </g>
    <g transform="matrix(-1.33333,-0.00133802,-0.00133802,1.33333,120.77,-848.68)">
        <path d="M57.94,715L77.87,715" style="fill:none;fill-rule:nonzero;stroke:black;stroke-width:0.72px;"/>
    </g>
    <g transform="matrix(0.412993,-1.26776,-1.26776,-0.412993,931.681,493.777)">
        <path d="M70.995,724.46L90.915,724.46" style="fill:none;fill-rule:nonzero;stroke:black;stroke-width:0.72px;"/>
    </g>
    <g transform="matrix(1.15468,-0.666702,-0.666702,-1.15468,444.362,1000.95)">
        <path d="M99.956,728.95L119.874,728.95" style="fill:none;fill-rule:nonzero;stroke:black;stroke-width:0.72px;"/>
    </g>
    <g transform="matrix(1.15468,-0.666702,-0.666702,-1.15468,461.202,984.108)">
        <path d="M82.706,758.83L102.624,758.83" style="fill:none;fill-rule:nonzero;stroke:black;stroke-width:0.72px;"/>
    </g>
    <g transform="matrix(1.15468,0.666702,0.666702,-1.15468,-530.704,865.886)">
        <path d="M82.706,728.95L102.624,728.95" style="fill:none;fill-rule:nonzero;stroke:black;stroke-width:0.72px;"/>
    </g>
    <g transform="matrix(0,-1.33333,-1.33333,0,1042.64,178.095)">
        <path d="M74.08,743.89L94,743.89" style="fill:none;fill-rule:nonzero;stroke:black;stroke-width:0.72px;"/>
    </g>
    <g transform="matrix(-0.666631,-1.15472,-1.15472,0.666631,1023.3,-312.897)">
        <path d="M92.664,748.87L127.166,748.87" style="fill:none;fill-rule:nonzero;stroke:black;stroke-width:0.72px;"/>
    </g>
    <g transform="matrix(0.345323,-1.28784,-1.28784,-0.345323,1034.74,431.559)">
        <path d="M97.359,770.605L112.341,770.605" style="fill:none;fill-rule:nonzero;stroke:black;stroke-width:0.72px;"/>
    </g>
    <g transform="matrix(0.345612,-1.28776,-1.28776,-0.345612,1031.89,427.012)">
        <path d="M94.444,771.04L108.526,771.04" style="fill:none;fill-rule:nonzero;stroke:black;stroke-width:0.72px;"/>
    </g>
    <g transform="matrix(1.28794,0.344953,0.344953,-1.28794,-307.494,981.441)">
        <path d="M117.838,730.32L133.222,730.32" style="fill:none;fill-rule:nonzero;stroke:black;stroke-width:0.72px;"/>
    </g>
    <g transform="matrix(1.28787,0.345212,0.345212,-1.28787,-308.813,981.055)">
        <path d="M118.723,733.675L133.207,733.675" style="fill:none;fill-rule:nonzero;stroke:black;stroke-width:0.72px;"/>
    </g>
    <g transform="matrix(1.33333,0,0,1.33333,-61.2668,-895.385)">
        <path d="M158.64,732.48L192.72,732.48" style="fill:none;fill-rule:nonzero;stroke:black;stroke-width:0.72px;"/>
    </g>
    <g transform="matrix(1.33333,0,0,1.33333,-61.2668,-903.065)">
        <path d="M158.64,735.36L192.72,735.36" style="fill:none;fill-rule:nonzero;stroke:black;stroke-width:0.72px;"/>
    </g>
    <g transform="matrix(1.33333,0,0,1.33333,-61.2668,-899.225)">
        <path d="M188.16,730.32L196.08,733.92L188.16,737.52" style="fill:none;fill-rule:nonzero;stroke:black;stroke-width:0.72px;"/>
    </g>
    <g transform="matrix(-1.07962,0.782437,0.782437,1.07962,-101.857,-903.676)">
        <path d="M213.345,740.525L233.265,740.525" style="fill:none;fill-rule:nonzero;stroke:black;stroke-width:0.72px;"/>
    </g>
    <g transform="matrix(-0.410979,-1.26841,-1.26841,0.410979,1239.39,69.8184)">
        <path d="M208.35,725.205L228.27,725.205" style="fill:none;fill-rule:nonzero;stroke:black;stroke-width:0.72px;"/>
    </g>
    <g transform="matrix(-1.0782,-0.784388,-0.784388,1.0782,1096.96,-540.066)">
        <path d="M229.464,740.51L249.386,740.51" style="fill:none;fill-rule:nonzero;stroke:black;stroke-width:0.72px;"/>
    </g>
    <g transform="matrix(-1.33333,-0.00133802,-0.00133802,1.33333,556.611,-850.381)">
        <path d="M221.38,715.72L241.31,715.72" style="fill:none;fill-rule:nonzero;stroke:black;stroke-width:0.72px;"/>
    </g>
    <g transform="matrix(0.412993,-1.26776,-1.26776,-0.412993,1083.01,700.317)">
        <path d="M234.435,725.18L254.355,725.18" style="fill:none;fill-rule:nonzero;stroke:black;stroke-width:0.72px;"/>
    </g>
    <g transform="matrix(1.15468,-0.666702,-0.666702,-1.15468,474.042,1109.78)">
        <path d="M263.396,729.67L283.314,729.67" style="fill:none;fill-rule:nonzero;stroke:black;stroke-width:0.72px;"/>
    </g>
    <g transform="matrix(1.15468,-0.666702,-0.666702,-1.15468,490.881,1092.95)">
        <path d="M246.146,759.55L266.064,759.55" style="fill:none;fill-rule:nonzero;stroke:black;stroke-width:0.72px;"/>
    </g>
    <g transform="matrix(1.15468,0.666702,0.666702,-1.15468,-501.985,756.792)">
        <path d="M246.146,729.67L266.064,729.67" style="fill:none;fill-rule:nonzero;stroke:black;stroke-width:0.72px;"/>
    </g>
    <g transform="matrix(0,-1.33333,-1.33333,0,1261.52,395.055)">
        <path d="M237.52,744.61L257.44,744.61" style="fill:none;fill-rule:nonzero;stroke:black;stroke-width:0.72px;"/>
    </g>
    <g transform="matrix(-0.666631,-1.15472,-1.15472,0.666631,1351,-125.609)">
        <path d="M256.104,749.59L290.606,749.59" style="fill:none;fill-rule:nonzero;stroke:black;stroke-width:0.72px;"/>
    </g>
    <g transform="matrix(0.34515,-1.28789,-1.28789,-0.34515,1195.85,638.83)">
        <path d="M259.347,771.545L273.873,771.545" style="fill:none;fill-rule:nonzero;stroke:black;stroke-width:0.72px;"/>
    </g>
    <g transform="matrix(1.28794,0.344953,0.344953,-1.28794,-300.323,925.029)">
        <path d="M281.278,731.04L296.662,731.04" style="fill:none;fill-rule:nonzero;stroke:black;stroke-width:0.72px;"/>
    </g>
    <g transform="matrix(1.28787,0.345212,0.345212,-1.28787,-301.631,924.601)">
        <path d="M282.163,734.395L296.647,734.395" style="fill:none;fill-rule:nonzero;stroke:black;stroke-width:0.72px;"/>
    </g>
    <g transform="matrix(1.33333,0,0,1.33333,-61.2668,-897.305)">
        <path d="M317.28,733.2L351.36,733.2" style="fill:none;fill-rule:nonzero;stroke:black;stroke-width:0.72px;"/>
    </g>
    <g transform="matrix(1.33333,0,0,1.33333,-61.2668,-904.985)">
        <path d="M317.28,736.08L351.36,736.08" style="fill:none;fill-rule:nonzero;stroke:black;stroke-width:0.72px;"/>
    </g>
    <g transform="matrix(1.33333,0,0,1.33333,-61.2668,-901.145)">
        <path d="M346.8,731.04L354.72,734.64L346.8,738.24" style="fill:none;fill-rule:nonzero;stroke:black;stroke-width:0.72px;"/>
    </g>
    <g transform="matrix(-1.07962,0.782437,0.782437,1.07962,295.598,-1031.92)">
        <path d="M377.985,740.285L397.905,740.285" style="fill:none;fill-rule:nonzero;stroke:black;stroke-width:0.72px;"/>
    </g>
    <g transform="matrix(-0.410979,-1.26841,-1.26841,0.410979,1526.27,279.069)">
        <path d="M372.99,724.965L392.91,724.965" style="fill:none;fill-rule:nonzero;stroke:black;stroke-width:0.72px;"/>
    </g>
    <g transform="matrix(-1.0782,-0.784388,-0.784388,1.0782,1493.81,-410.346)">
        <path d="M394.104,740.27L414.026,740.27" style="fill:none;fill-rule:nonzero;stroke:black;stroke-width:0.72px;"/>
    </g>
    <g transform="matrix(-1.33333,-0.00133802,-0.00133802,1.33333,995.65,-849.521)">
        <path d="M386.02,715.48L405.95,715.48" style="fill:none;fill-rule:nonzero;stroke:black;stroke-width:0.72px;"/>
    </g>
    <g transform="matrix(0.412993,-1.26776,-1.26776,-0.412993,1234.23,909.262)">
        <path d="M399.075,724.94L418.995,724.94" style="fill:none;fill-rule:nonzero;stroke:black;stroke-width:0.72px;"/>
    </g>
    <g transform="matrix(1.15468,-0.666702,-0.666702,-1.15468,503.295,1219.59)">
        <path d="M428.036,729.43L447.954,729.43" style="fill:none;fill-rule:nonzero;stroke:black;stroke-width:0.72px;"/>
    </g>
    <g transform="matrix(1.15468,-0.666702,-0.666702,-1.15468,520.134,1202.75)">
        <path d="M410.786,759.31L430.704,759.31" style="fill:none;fill-rule:nonzero;stroke:black;stroke-width:0.72px;"/>
    </g>
    <g transform="matrix(1.15468,0.666702,0.666702,-1.15468,-472.412,647.069)">
        <path d="M410.786,729.43L430.704,729.43" style="fill:none;fill-rule:nonzero;stroke:black;stroke-width:0.72px;"/>
    </g>
    <g transform="matrix(0,-1.33333,-1.33333,0,1480.72,614.895)">
        <path d="M402.16,744.37L422.08,744.37" style="fill:none;fill-rule:nonzero;stroke:black;stroke-width:0.72px;"/>
    </g>
    <g transform="matrix(0.345323,-1.28784,-1.28784,-0.345323,1359.51,853.599)">
        <path d="M425.439,771.085L440.421,771.085" style="fill:none;fill-rule:nonzero;stroke:black;stroke-width:0.72px;"/>
    </g>
    <g transform="matrix(0.345612,-1.28776,-1.28776,-0.345612,1356.56,849.026)">
        <path d="M422.524,771.52L436.606,771.52" style="fill:none;fill-rule:nonzero;stroke:black;stroke-width:0.72px;"/>
    </g>
    <g transform="matrix(1.28794,0.344953,0.344953,-1.28794,-292.767,868.247)">
        <path d="M445.918,730.8L461.302,730.8" style="fill:none;fill-rule:nonzero;stroke:black;stroke-width:0.72px;"/>
    </g>
    <g transform="matrix(1.28787,0.345212,0.345212,-1.28787,-294.063,867.776)">
        <path d="M446.803,734.155L461.287,734.155" style="fill:none;fill-rule:nonzero;stroke:black;stroke-width:0.72px;"/>
    </g>
    <g transform="matrix(1.3219,-0.174238,-0.174238,-1.3219,77.0668,1125.25)">
        <path d="M429.306,765.27L444.304,765.27" style="fill:none;fill-rule:nonzero;stroke:black;stroke-width:0.72px;"/>
    </g>
    <g transform="matrix(0.510247,-1.23184,-1.23184,-0.510247,1267.66,977.022)">
        <path d="M448.544,776.16L457.376,776.16" style="fill:none;fill-rule:nonzero;stroke:black;stroke-width:0.72px;"/>
    </g>
    <g transform="matrix(0.603603,-1.18888,-1.18888,-0.603603,1146.37,1052.26)">
        <path d="M443.235,739.925L455.605,739.925" style="fill:none;fill-rule:nonzero;stroke:black;stroke-width:0.72px;"/>
    </g>
    <g transform="matrix(1.3333,0.00925904,0.00925904,-1.3333,-68.2007,1053.57)">
        <path d="M459.84,750.495L469.92,750.495" style="fill:none;fill-rule:nonzero;stroke:black;stroke-width:0.72px;"/>
    </g>
    <g transform="matrix(0,1.33333,1.33333,0,-409.907,-412.665)">
        <path d="M403.8,682.2L437.64,682.2" style="fill:none;fill-rule:nonzero;stroke:black;stroke-width:0.72px;"/>
    </g>
    <g transform="matrix(0,1.33333,1.33333,0,-406.067,-416.505)">
        <path d="M406.68,682.2L440.52,682.2" style="fill:none;fill-rule:nonzero;stroke:black;stroke-width:0.72px;"/>
    </g>
    <g transform="matrix(1.33333,0,0,1.33333,-61.2668,-717.785)">
        <path d="M425.76,661.92L422.16,669.84L418.56,661.92" style="fill:none;fill-rule:nonzero;stroke:black;stroke-width:0.72px;"/>
    </g>
    <g transform="matrix(-1.07962,0.782437,0.782437,1.07962,408.491,-735.084)">
        <path d="M384.225,615.245L404.145,615.245" style="fill:none;fill-rule:nonzero;stroke:black;stroke-width:0.72px;"/>
    </g>
    <g transform="matrix(-0.410979,-1.26841,-1.26841,0.410979,1378.56,505.093)">
        <path d="M379.23,599.925L399.15,599.925" style="fill:none;fill-rule:nonzero;stroke:black;stroke-width:0.72px;"/>
    </g>
    <g transform="matrix(-1.0782,-0.784388,-0.784388,1.0782,1410.78,-103.913)">
        <path d="M400.344,615.23L420.266,615.23" style="fill:none;fill-rule:nonzero;stroke:black;stroke-width:0.72px;"/>
    </g>
    <g transform="matrix(-1.33333,-0.00133802,-0.00133802,1.33333,1012.12,-516.073)">
        <path d="M392.26,590.44L412.19,590.44" style="fill:none;fill-rule:nonzero;stroke:black;stroke-width:0.72px;"/>
    </g>
    <g transform="matrix(0.412993,-1.26776,-1.26776,-0.412993,1081.46,1032.25)">
        <path d="M405.315,599.9L425.235,599.9" style="fill:none;fill-rule:nonzero;stroke:black;stroke-width:0.72px;"/>
    </g>
    <g transform="matrix(1.26841,-0.410979,-0.410979,-1.26841,218.208,1193.97)">
        <path d="M417.875,612.44L437.795,612.44" style="fill:none;fill-rule:nonzero;stroke:black;stroke-width:0.72px;"/>
    </g>
    <g transform="matrix(0.209531,-1.31677,-1.31677,-0.209531,1225.99,914.975)">
        <path d="M409.966,619.205L429.884,619.205" style="fill:none;fill-rule:nonzero;stroke:black;stroke-width:0.72px;"/>
    </g>
    <g transform="matrix(0.990093,0.893025,0.893025,-0.990093,-452.335,451.784)">
        <path d="M434.746,608.84L454.664,608.84" style="fill:none;fill-rule:nonzero;stroke:black;stroke-width:0.72px;"/>
    </g>
    <g transform="matrix(1.24522,-0.476664,-0.476664,-1.24522,278.23,1207.5)">
        <path d="M420.832,632.6L440.748,632.6" style="fill:none;fill-rule:nonzero;stroke:black;stroke-width:0.72px;"/>
    </g>
    <g transform="matrix(1.24508,-0.477028,-0.477028,-1.24508,282.935,1214.79)">
        <path d="M439.594,638.84L454.576,638.84" style="fill:none;fill-rule:nonzero;stroke:black;stroke-width:0.72px;"/>
    </g>
    <g transform="matrix(1.24505,-0.477106,-0.477106,-1.24505,284.56,1214.23)">
        <path d="M438.35,642.22L454.67,642.22" style="fill:none;fill-rule:nonzero;stroke:black;stroke-width:0.72px;"/>
    </g>
    <g transform="matrix(1.24548,-0.475969,-0.475969,-1.24548,280.617,1215.3)">
        <path d="M440.816,635.6L455.214,635.6" style="fill:none;fill-rule:nonzero;stroke:black;stroke-width:0.72px;"/>
    </g>
    <g transform="matrix(0.989893,0.893247,0.893247,-0.989893,-438.056,444.292)">
        <path d="M450.341,597.595L463.999,597.595" style="fill:none;fill-rule:nonzero;stroke:black;stroke-width:0.72px;"/>
    </g>
    <g transform="matrix(0.98997,0.893162,0.893162,-0.98997,-438.561,441.039)">
        <path d="M452.311,599.355L468.149,599.355" style="fill:none;fill-rule:nonzero;stroke:black;stroke-width:0.72px;"/>
    </g>
    <g transform="matrix(0.990165,0.892946,0.892946,-0.990165,-435.405,446.88)">
        <path d="M447.75,594.205L464.07,594.205" style="fill:none;fill-rule:nonzero;stroke:black;stroke-width:0.72px;"/>
    </g>
    <g transform="matrix(1.33333,0,0,1.33333,-61.2668,-563.865)">
        <path d="M334.32,608.16L368.4,608.16" style="fill:none;fill-rule:nonzero;stroke:black;stroke-width:0.72px;"/>
    </g>
    <g transform="matrix(1.33333,0,0,1.33333,-61.2668,-571.545)">
        <path d="M334.32,611.04L368.4,611.04" style="fill:none;fill-rule:nonzero;stroke:black;stroke-width:0.72px;"/>
    </g>
    <g transform="matrix(1.33333,0,0,1.33333,-61.2668,-567.705)">
        <path d="M338.88,606L330.96,609.6L338.88,613.2" style="fill:none;fill-rule:nonzero;stroke:black;stroke-width:0.72px;"/>
    </g>
    <g transform="matrix(1.33333,0,0,1.33333,-61.2668,-626.585)">
        <path d="M433.44,636.96L431.04,637.68L428.64,637.92L427.44,637.92L426.24,637.68L425.28,637.44L424.08,637.2L423.12,636.72L421.2,635.28L419.76,633.84L419.04,632.88L417.6,630L417.12,627.6L417.12,625.44" style="fill:none;fill-rule:nonzero;stroke:black;stroke-width:0.48px;"/>
    </g>
    <g transform="matrix(1.20021,-0.580748,-0.580748,-1.20021,358.765,1224.07)">
        <path d="M425.447,624.467L433.712,624.467L426.576,628.453L427.572,626.105L425.447,624.467Z" style="stroke:black;stroke-width:0.48px;"/>
    </g>
    <g transform="matrix(1.33333,0,0,1.33333,-61.2668,-575.065)">
        <path d="M437.28,620.64L436.32,618.96L435.84,617.04L435.6,614.88L435.6,613.68L435.84,612.48L436.32,611.52L436.56,610.32L437.28,609.36L437.76,608.4L440.16,606L442.08,605.04L443.28,604.56L445.68,604.08L446.16,604.08" style="fill:none;fill-rule:nonzero;stroke:black;stroke-width:0.48px;"/>
    </g>
    <g transform="matrix(0.65735,1.16003,1.16003,-0.65735,-472.535,141.898)">
        <path d="M431.52,607.923L439.795,607.923L432.578,611.738L433.538,609.538L431.52,607.923Z" style="stroke:black;stroke-width:0.48px;"/>
    </g>
    <g transform="matrix(-1.07962,0.782437,0.782437,1.07962,78.3997,-628.047)">
        <path d="M247.425,615.245L267.345,615.245" style="fill:none;fill-rule:nonzero;stroke:black;stroke-width:0.72px;"/>
    </g>
    <g transform="matrix(-0.410979,-1.26841,-1.26841,0.410979,1139.93,331.574)">
        <path d="M242.43,599.925L262.35,599.925" style="fill:none;fill-rule:nonzero;stroke:black;stroke-width:0.72px;"/>
    </g>
    <g transform="matrix(-1.0782,-0.784388,-0.784388,1.0782,1080.88,-211.218)">
        <path d="M263.544,615.23L283.466,615.23" style="fill:none;fill-rule:nonzero;stroke:black;stroke-width:0.72px;"/>
    </g>
    <g transform="matrix(-1.33333,-0.00133802,-0.00133802,1.33333,647.323,-516.256)">
        <path d="M255.46,590.44L275.39,590.44" style="fill:none;fill-rule:nonzero;stroke:black;stroke-width:0.72px;"/>
    </g>
    <g transform="matrix(0.412993,-1.26776,-1.26776,-0.412993,955.554,858.822)">
        <path d="M268.515,599.9L288.435,599.9" style="fill:none;fill-rule:nonzero;stroke:black;stroke-width:0.72px;"/>
    </g>
    <g transform="matrix(1.26849,-0.410756,-0.410756,-1.26849,208.715,1136.83)">
        <path d="M281.193,611.695L296.287,611.695" style="fill:none;fill-rule:nonzero;stroke:black;stroke-width:0.72px;"/>
    </g>
    <g transform="matrix(0.209706,-1.31674,-1.31674,-0.209706,1068.42,737.246)">
        <path d="M275.318,616.685L290.132,616.685" style="fill:none;fill-rule:nonzero;stroke:black;stroke-width:0.72px;"/>
    </g>
    <g transform="matrix(1.33333,0,0,1.33333,-61.2668,-563.225)">
        <path d="M195.84,607.92L229.92,607.92" style="fill:none;fill-rule:nonzero;stroke:black;stroke-width:0.72px;"/>
    </g>
    <g transform="matrix(1.33333,0,0,1.33333,-61.2668,-570.905)">
        <path d="M195.84,610.8L229.92,610.8" style="fill:none;fill-rule:nonzero;stroke:black;stroke-width:0.72px;"/>
    </g>
    <g transform="matrix(1.33333,0,0,1.33333,-61.2668,-567.065)">
        <path d="M200.4,605.76L192.48,609.36L200.4,612.96" style="fill:none;fill-rule:nonzero;stroke:black;stroke-width:0.72px;"/>
    </g>
    <g transform="matrix(-1.07962,0.782437,0.782437,1.07962,-290.476,-510.353)">
        <path d="M94.785,615.965L114.705,615.965" style="fill:none;fill-rule:nonzero;stroke:black;stroke-width:0.72px;"/>
    </g>
    <g transform="matrix(-0.410979,-1.26841,-1.26841,0.410979,874.595,136.707)">
        <path d="M89.79,600.645L109.71,600.645" style="fill:none;fill-rule:nonzero;stroke:black;stroke-width:0.72px;"/>
    </g>
    <g transform="matrix(-1.0782,-0.784388,-0.784388,1.0782,713.347,-332.683)">
        <path d="M110.904,615.95L130.826,615.95" style="fill:none;fill-rule:nonzero;stroke:black;stroke-width:0.72px;"/>
    </g>
    <g transform="matrix(-1.33333,-0.00133802,-0.00133802,1.33333,240.284,-518.38)">
        <path d="M102.82,591.16L122.75,591.16" style="fill:none;fill-rule:nonzero;stroke:black;stroke-width:0.72px;"/>
    </g>
    <g transform="matrix(0.412993,-1.26776,-1.26776,-0.412993,815.986,664.649)">
        <path d="M115.875,600.62L135.795,600.62" style="fill:none;fill-rule:nonzero;stroke:black;stroke-width:0.72px;"/>
    </g>
    <g transform="matrix(1.15463,-0.666795,-0.666795,-1.15463,368.601,1051.7)">
        <path d="M145.186,603.8L159.864,603.8" style="fill:none;fill-rule:nonzero;stroke:black;stroke-width:0.72px;"/>
    </g>
    <g transform="matrix(1.15468,-0.666709,-0.666709,-1.15468,385.44,1034.93)">
        <path d="M127.92,633.74L142.84,633.74" style="fill:none;fill-rule:nonzero;stroke:black;stroke-width:0.72px;"/>
    </g>
    <g transform="matrix(1.15468,0.666702,0.666702,-1.15468,-440.122,858.089)">
        <path d="M127.586,605.11L147.504,605.11" style="fill:none;fill-rule:nonzero;stroke:black;stroke-width:0.72px;"/>
    </g>
    <g transform="matrix(0,-1.33333,-1.33333,0,937.36,403.055)">
        <path d="M118.96,620.05L138.88,620.05" style="fill:none;fill-rule:nonzero;stroke:black;stroke-width:0.72px;"/>
    </g>
    <g transform="matrix(0,1.33333,1.33333,0,-633.427,139.495)">
        <path d="M112.8,558.96L146.88,558.96" style="fill:none;fill-rule:nonzero;stroke:black;stroke-width:0.72px;"/>
    </g>
    <g transform="matrix(0,1.33333,1.33333,0,-629.587,135.655)">
        <path d="M115.68,558.96L149.76,558.96" style="fill:none;fill-rule:nonzero;stroke:black;stroke-width:0.72px;"/>
    </g>
    <g transform="matrix(1.33333,0,0,1.33333,-61.2668,-388.825)">
        <path d="M134.88,538.56L131.28,546.48L127.68,538.56" style="fill:none;fill-rule:nonzero;stroke:black;stroke-width:0.72px;"/>
    </g>
    <g transform="matrix(-1.07962,0.782437,0.782437,1.07962,-195.426,-221.175)">
        <path d="M95.265,495.965L115.185,495.965" style="fill:none;fill-rule:nonzero;stroke:black;stroke-width:0.72px;"/>
    </g>
    <g transform="matrix(-0.410979,-1.26841,-1.26841,0.410979,723.222,346.633)">
        <path d="M90.27,480.645L110.19,480.645" style="fill:none;fill-rule:nonzero;stroke:black;stroke-width:0.72px;"/>
    </g>
    <g transform="matrix(-1.0782,-0.784388,-0.784388,1.0782,620.378,-42.9225)">
        <path d="M111.384,495.95L131.306,495.95" style="fill:none;fill-rule:nonzero;stroke:black;stroke-width:0.72px;"/>
    </g>
    <g transform="matrix(-1.33333,-0.00133802,-0.00133802,1.33333,241.404,-198.379)">
        <path d="M103.3,471.16L123.23,471.16" style="fill:none;fill-rule:nonzero;stroke:black;stroke-width:0.72px;"/>
    </g>
    <g transform="matrix(0.412993,-1.26776,-1.26776,-0.412993,664.297,775.698)">
        <path d="M116.355,480.62L136.275,480.62" style="fill:none;fill-rule:nonzero;stroke:black;stroke-width:0.72px;"/>
    </g>
    <g transform="matrix(1.15474,-0.666596,-0.666596,-1.15474,288.422,1073.35)">
        <path d="M145.704,483.66L159.826,483.66" style="fill:none;fill-rule:nonzero;stroke:black;stroke-width:0.72px;"/>
    </g>
    <g transform="matrix(1.15479,-0.666511,-0.666511,-1.15479,305.267,1056.59)">
        <path d="M128.438,513.6L142.802,513.6" style="fill:none;fill-rule:nonzero;stroke:black;stroke-width:0.72px;"/>
    </g>
    <g transform="matrix(1.15468,0.666702,0.666702,-1.15468,-360.032,879.207)">
        <path d="M128.066,485.11L147.984,485.11" style="fill:none;fill-rule:nonzero;stroke:black;stroke-width:0.72px;"/>
    </g>
    <g transform="matrix(0,-1.33333,-1.33333,0,778,563.695)">
        <path d="M119.44,500.05L139.36,500.05" style="fill:none;fill-rule:nonzero;stroke:black;stroke-width:0.72px;"/>
    </g>
    <g transform="matrix(0,1.33333,1.33333,0,-496.06,232.035)">
        <path d="M139.265,472.745L154.035,472.745" style="fill:none;fill-rule:nonzero;stroke:black;stroke-width:0.72px;"/>
    </g>
    <g transform="matrix(1.33333,0,0,1.33333,-61.2668,-246.425)">
        <path d="M190.8,489.12L224.88,489.12" style="fill:none;fill-rule:nonzero;stroke:black;stroke-width:0.72px;"/>
    </g>
    <g transform="matrix(1.33333,0,0,1.33333,-61.2668,-254.105)">
        <path d="M190.8,492L224.88,492" style="fill:none;fill-rule:nonzero;stroke:black;stroke-width:0.72px;"/>
    </g>
    <g transform="matrix(1.33333,0,0,1.33333,-61.2668,-250.265)">
        <path d="M220.32,486.96L228.24,490.56L220.32,494.16" style="fill:none;fill-rule:nonzero;stroke:black;stroke-width:0.72px;"/>
    </g>
    <g transform="matrix(-1.07962,0.782437,0.782437,1.07962,171.729,-340.23)">
        <path d="M247.425,495.965L267.345,495.965" style="fill:none;fill-rule:nonzero;stroke:black;stroke-width:0.72px;"/>
    </g>
    <g transform="matrix(-0.410979,-1.26841,-1.26841,0.410979,988.637,539.635)">
        <path d="M242.43,480.645L262.35,480.645" style="fill:none;fill-rule:nonzero;stroke:black;stroke-width:0.72px;"/>
    </g>
    <g transform="matrix(-1.0782,-0.784388,-0.784388,1.0782,987.317,76.43)">
        <path d="M263.544,495.95L283.466,495.95" style="fill:none;fill-rule:nonzero;stroke:black;stroke-width:0.72px;"/>
    </g>
    <g transform="matrix(-1.33333,-0.00133802,-0.00133802,1.33333,647.163,-198.176)">
        <path d="M255.46,471.16L275.39,471.16" style="fill:none;fill-rule:nonzero;stroke:black;stroke-width:0.72px;"/>
    </g>
    <g transform="matrix(0.412993,-1.26776,-1.26776,-0.412993,804.336,968.601)">
        <path d="M268.515,480.62L288.435,480.62" style="fill:none;fill-rule:nonzero;stroke:black;stroke-width:0.72px;"/>
    </g>
    <g transform="matrix(1.15474,-0.666596,-0.666596,-1.15474,315.596,1174.78)">
        <path d="M297.864,483.66L311.986,483.66" style="fill:none;fill-rule:nonzero;stroke:black;stroke-width:0.72px;"/>
    </g>
    <g transform="matrix(1.15479,-0.666511,-0.666511,-1.15479,332.434,1158)">
        <path d="M280.598,513.6L294.962,513.6" style="fill:none;fill-rule:nonzero;stroke:black;stroke-width:0.72px;"/>
    </g>
    <g transform="matrix(1.15468,0.666702,0.666702,-1.15468,-332.848,777.762)">
        <path d="M280.226,485.11L300.144,485.11" style="fill:none;fill-rule:nonzero;stroke:black;stroke-width:0.72px;"/>
    </g>
    <g transform="matrix(0,-1.33333,-1.33333,0,980.88,766.575)">
        <path d="M271.6,500.05L291.52,500.05" style="fill:none;fill-rule:nonzero;stroke:black;stroke-width:0.72px;"/>
    </g>
    <g transform="matrix(0,1.33333,1.33333,0,-295.42,31.3954)">
        <path d="M289.745,472.745L304.515,472.745" style="fill:none;fill-rule:nonzero;stroke:black;stroke-width:0.72px;"/>
    </g>
    <g transform="matrix(0,1.33333,1.33333,0,-290.94,26.9154)">
        <path d="M293.105,472.745L307.875,472.745" style="fill:none;fill-rule:nonzero;stroke:black;stroke-width:0.72px;"/>
    </g>
    <g transform="matrix(1.15496,0.666216,0.666216,-1.15496,-325.181,753.698)">
        <path d="M319.92,483.715L334.27,483.715" style="fill:none;fill-rule:nonzero;stroke:black;stroke-width:0.72px;"/>
    </g>
    <g transform="matrix(1.15487,-0.666376,-0.666376,-1.15487,321.692,1197.85)">
        <path d="M332.342,483.745L346.808,483.745" style="fill:none;fill-rule:nonzero;stroke:black;stroke-width:0.72px;"/>
    </g>
    <g transform="matrix(-1.1545,-0.667007,-0.667007,1.1545,968.654,-39.9753)">
        <path d="M268.264,515.25L283.416,515.25" style="fill:none;fill-rule:nonzero;stroke:black;stroke-width:0.72px;"/>
    </g>
    <g transform="matrix(-1.15448,-0.667054,-0.667054,1.15448,964.316,-32.0631)">
        <path d="M268.394,511.855L281.606,511.855" style="fill:none;fill-rule:nonzero;stroke:black;stroke-width:0.72px;"/>
    </g>
    <g transform="matrix(1.15491,0.666297,0.666297,-1.15491,-348.132,759.752)">
        <path d="M302.896,513.535L317.004,513.535" style="fill:none;fill-rule:nonzero;stroke:black;stroke-width:0.72px;"/>
    </g>
    <g transform="matrix(1.15458,-0.666883,-0.666883,-1.15458,338.873,1181.02)">
        <path d="M315.092,513.62L329.528,513.62" style="fill:none;fill-rule:nonzero;stroke:black;stroke-width:0.72px;"/>
    </g>
    <g transform="matrix(1.33333,0,0,1.33333,-61.2668,-224.025)">
        <path d="M288.72,479.28L288,480.24L287.04,481.2L285.12,482.64L283.92,483.12L281.52,483.6L280.08,483.84L278.4,483.6L276.96,483.36L275.52,482.88L274.32,481.92L273.12,481.2L271.2,478.8L270.72,478.32L270.48,477.6" style="fill:none;fill-rule:nonzero;stroke:black;stroke-width:0.48px;"/>
    </g>
    <g transform="matrix(0.730702,-1.11528,-1.11528,-0.730702,644.419,1087.42)">
        <path d="M281.683,477.576L290.004,477.576L282.645,481.362L283.891,479.023L281.683,477.576Z" style="stroke:black;stroke-width:0.48px;"/>
    </g>
    <g transform="matrix(1.33333,0,0,1.33333,-61.2668,-264.985)">
        <path d="M267.36,502.8L266.88,499.44L266.88,498.24L267.12,497.04L267.36,496.08L268.32,494.16L269.04,493.2L269.76,492.48L270.48,491.52L273.36,490.08L274.56,489.6L275.76,489.6L276.24,489.36L276.72,489.36L278.64,489.6" style="fill:none;fill-rule:nonzero;stroke:black;stroke-width:0.48px;"/>
    </g>
    <g transform="matrix(1.2958,0.314133,0.314133,-1.2958,-208.828,952.747)">
        <path d="M270.379,503.493L278.529,503.493L271.284,499.761L272.231,501.966L270.379,503.493Z" style="stroke:black;stroke-width:0.48px;"/>
    </g>
    <g transform="matrix(1.33333,0,0,1.33333,-61.2668,-250.265)">
        <path d="M380.16,490.56L414.24,490.56" style="fill:none;fill-rule:nonzero;stroke:black;stroke-width:0.72px;"/>
    </g>
    <g transform="matrix(1.2958,0.314133,0.314133,-1.2958,-199.969,910.6)">
        <path d="M405.979,491.493L414.129,491.493L406.884,487.761L407.831,489.966L405.979,491.493Z" style="stroke:black;stroke-width:0.72px;"/>
    </g>
    <g transform="matrix(0,-1.33333,-1.33333,0,1336.01,1151.5)">
        <path d="M549.12,488.88L569.04,488.88" style="fill:none;fill-rule:nonzero;stroke:black;stroke-width:0.72px;"/>
    </g>
    <g transform="matrix(1.15449,-0.667037,-0.667037,-1.15449,375.022,1345.16)">
        <path d="M558.104,502.48L572.656,502.48" style="fill:none;fill-rule:nonzero;stroke:black;stroke-width:0.72px;"/>
    </g>
    <g transform="matrix(1.15488,0.66635,0.66635,-1.15488,-277.081,596.34)">
        <path d="M558.107,475.285L572.653,475.285" style="fill:none;fill-rule:nonzero;stroke:black;stroke-width:0.72px;"/>
    </g>
    <g transform="matrix(0.769761,1.08869,1.08869,-0.769761,-341.28,268.283)">
        <path d="M460.227,498.95L473.773,498.95" style="fill:none;fill-rule:nonzero;stroke:black;stroke-width:0.72px;"/>
    </g>
    <g transform="matrix(1.32769,-0.122556,-0.122556,-1.32769,-0.610839,1110.39)">
        <path d="M442.698,474.19L457.712,474.19" style="fill:none;fill-rule:nonzero;stroke:black;stroke-width:0.72px;"/>
    </g>
    <g transform="matrix(1.32772,-0.122232,-0.122232,-1.32772,3.40418,1109.69)">
        <path d="M439.538,508.55L454.592,508.55" style="fill:none;fill-rule:nonzero;stroke:black;stroke-width:0.72px;"/>
    </g>
    <g transform="matrix(0.769104,1.08915,1.08915,-0.769104,-335.406,309.665)">
        <path d="M432.055,479.03L445.595,479.03" style="fill:none;fill-rule:nonzero;stroke:black;stroke-width:0.72px;"/>
    </g>
    <g transform="matrix(0.558164,-1.21088,-1.21088,-0.558164,888.206,1197.35)">
        <path d="M433.369,503.89L442.111,503.89" style="fill:none;fill-rule:nonzero;stroke:black;stroke-width:0.72px;"/>
    </g>
    <g transform="matrix(-0.55835,1.21079,1.21079,0.55835,201.513,-356.646)">
        <path d="M430.555,467.38L445.575,467.38" style="fill:none;fill-rule:nonzero;stroke:black;stroke-width:0.72px;"/>
    </g>
    <g transform="matrix(-0.557991,1.21096,1.21096,0.557991,208.509,-359.314)">
        <path d="M434.702,466.68L448.178,466.68" style="fill:none;fill-rule:nonzero;stroke:black;stroke-width:0.72px;"/>
    </g>
    <g transform="matrix(-0.769592,-1.08881,-1.08881,0.769592,1417.77,451.748)">
        <path d="M430.037,514.475L443.863,514.475" style="fill:none;fill-rule:nonzero;stroke:black;stroke-width:0.72px;"/>
    </g>
    <g transform="matrix(-0.769909,-1.08859,-1.08859,0.769909,1409.78,451.577)">
        <path d="M426.617,512.885L441.303,512.885" style="fill:none;fill-rule:nonzero;stroke:black;stroke-width:0.72px;"/>
    </g>
    <g transform="matrix(1.32771,-0.122301,-0.122301,-1.32771,1.85328,1113.63)">
        <path d="M470.878,494.115L486.032,494.115" style="fill:none;fill-rule:nonzero;stroke:black;stroke-width:0.72px;"/>
    </g>
    <g transform="matrix(0.769873,1.08861,1.08861,-0.769873,-302.138,284.301)">
        <path d="M463.347,464.61L476.943,464.61" style="fill:none;fill-rule:nonzero;stroke:black;stroke-width:0.72px;"/>
    </g>
    <g transform="matrix(1.32768,-0.122623,-0.122623,-1.32768,-2.16883,1114.35)">
        <path d="M474.038,459.755L489.152,459.755" style="fill:none;fill-rule:nonzero;stroke:black;stroke-width:0.72px;"/>
    </g>
    <g transform="matrix(0,1.33333,1.33333,0,125.133,-270.585)">
        <path d="M550.92,428.28L585.24,428.28" style="fill:none;fill-rule:nonzero;stroke:black;stroke-width:0.72px;"/>
    </g>
    <g transform="matrix(0,1.33333,1.33333,0,128.973,-274.425)">
        <path d="M553.8,428.28L588.12,428.28" style="fill:none;fill-rule:nonzero;stroke:black;stroke-width:0.72px;"/>
    </g>
    <g transform="matrix(1.33333,0,0,1.33333,-61.2668,-40.0246)">
        <path d="M573.12,407.76L569.52,415.68L565.92,407.76" style="fill:none;fill-rule:nonzero;stroke:black;stroke-width:0.72px;"/>
    </g>
    <g transform="matrix(1.15485,0.666401,0.666401,-1.15485,-214.869,606.318)">
        <path d="M567.337,384.41L582.023,384.41" style="fill:none;fill-rule:nonzero;stroke:black;stroke-width:0.72px;"/>
    </g>
    <g transform="matrix(1.15485,-0.666401,-0.666401,-1.15485,275.815,1378.05)">
        <path d="M567.337,351.91L582.023,351.91" style="fill:none;fill-rule:nonzero;stroke:black;stroke-width:0.72px;"/>
    </g>
    <g transform="matrix(1.15468,-0.666702,-0.666702,-1.15468,294.138,1362.6)">
        <path d="M549.736,383.1L569.654,383.1" style="fill:none;fill-rule:nonzero;stroke:black;stroke-width:0.72px;"/>
    </g>
    <g transform="matrix(1.15468,0.666702,0.666702,-1.15468,-196.768,621.642)">
        <path d="M549.736,353.22L569.654,353.22" style="fill:none;fill-rule:nonzero;stroke:black;stroke-width:0.72px;"/>
    </g>
    <g transform="matrix(0,-1.33333,-1.33333,0,1164.37,1301.78)">
        <path d="M541.11,368.16L561.03,368.16" style="fill:none;fill-rule:nonzero;stroke:black;stroke-width:0.72px;"/>
    </g>
</svg>
