<?xml version="1.0" encoding="UTF-8" standalone="no"?>
<!DOCTYPE svg PUBLIC "-//W3C//DTD SVG 1.1//EN" "http://www.w3.org/Graphics/SVG/1.1/DTD/svg11.dtd">
<svg width="100%" height="100%" viewBox="0 0 780 450" version="1.1" xmlns="http://www.w3.org/2000/svg" xmlns:xlink="http://www.w3.org/1999/xlink" xml:space="preserve" xmlns:serif="http://www.serif.com/" style="fill-rule:evenodd;clip-rule:evenodd;stroke-linecap:round;stroke-linejoin:round;stroke-miterlimit:10;">
    <g transform="matrix(1.33333,0,0,1.33333,-19.2811,-63.7974)">
        <text x="67.92px" y="104.4px" style="font-family:'ArialMT', 'Arial', sans-serif;font-size:10px;">O</text>
    </g>
    <g transform="matrix(1.33333,0,0,1.33333,-19.2811,-63.7974)">
        <text x="67.68px" y="84.48px" style="font-family:'ArialMT', 'Arial', sans-serif;font-size:10px;">O</text>
    </g>
    <g transform="matrix(1.33333,0,0,1.33333,-19.2811,-63.7974)">
        <text x="42.24px" y="59.76px" style="font-family:'ArialMT', 'Arial', sans-serif;font-size:10px;">O</text>
    </g>
    <g transform="matrix(1.33333,0,0,1.33333,-19.2811,-63.7974)">
        <text x="43.2px" y="129.84px" style="font-family:'ArialMT', 'Arial', sans-serif;font-size:10px;">O</text>
    </g>
    <g transform="matrix(1.33333,0,0,1.33333,-19.2811,-63.7974)">
        <text x="102.24px" y="80.4px" style="font-family:'ArialMT', 'Arial', sans-serif;font-size:10px;">CH</text>
        <text x="116.64px" y="83.04px" style="font-family:'ArialMT', 'Arial', sans-serif;font-size:8px;">3</text>
        <text x="102.48px" y="107.52px" style="font-family:'ArialMT', 'Arial', sans-serif;font-size:10px;">CH</text>
        <text x="116.88px" y="110.16px" style="font-family:'ArialMT', 'Arial', sans-serif;font-size:8px;">3</text>
    </g>
    <g transform="matrix(1.33333,0,0,1.33333,-19.2811,-63.7974)">
        <text x="147.36px" y="81.12px" style="font-family:'ArialMT', 'Arial', sans-serif;font-size:10px;">E</text>
        <text x="154.08px" y="81.12px" style="font-family:'ArialMT', 'Arial', sans-serif;font-size:10px;">t<tspan x="156.98px " y="81.12px ">O</tspan></text>
        <text x="164.88px" y="76.08px" style="font-family:'ArialMT', 'Arial', sans-serif;font-size:6px;">-</text>
        <text x="167.04px" y="81.12px" style="font-family:'ArialMT', 'Arial', sans-serif;font-size:10px;">Na</text>
        <text x="179.76px" y="76.08px" style="font-family:'ArialMT', 'Arial', sans-serif;font-size:6px;">+</text>
    </g>
    <g transform="matrix(1.33333,0,0,1.33333,-19.2811,-63.7974)">
        <text x="156.24px" y="107.04px" style="font-family:'ArialMT', 'Arial', sans-serif;font-size:10px;">CH</text>
        <text x="170.64px" y="109.68px" style="font-family:'ArialMT', 'Arial', sans-serif;font-size:6px;">3</text>
        <text x="174.24px" y="107.04px" style="font-family:'ArialMT', 'Arial', sans-serif;font-size:10px;">I</text>
    </g>
    <g transform="matrix(1.33333,0,0,1.33333,-19.2811,-63.7974)">
        <text x="260.16px" y="104.16px" style="font-family:'ArialMT', 'Arial', sans-serif;font-size:10px;">O</text>
    </g>
    <g transform="matrix(1.33333,0,0,1.33333,-19.2811,-63.7974)">
        <text x="259.92px" y="84.24px" style="font-family:'ArialMT', 'Arial', sans-serif;font-size:10px;">O</text>
    </g>
    <g transform="matrix(1.33333,0,0,1.33333,-19.2811,-63.7974)">
        <text x="234.48px" y="59.52px" style="font-family:'ArialMT', 'Arial', sans-serif;font-size:10px;">O</text>
    </g>
    <g transform="matrix(1.33333,0,0,1.33333,-19.2811,-63.7974)">
        <text x="235.44px" y="129.6px" style="font-family:'ArialMT', 'Arial', sans-serif;font-size:10px;">O</text>
    </g>
    <g transform="matrix(1.33333,0,0,1.33333,-19.2811,-63.7974)">
        <text x="294.48px" y="80.16px" style="font-family:'ArialMT', 'Arial', sans-serif;font-size:10px;">CH</text>
        <text x="308.88px" y="82.8px" style="font-family:'ArialMT', 'Arial', sans-serif;font-size:8px;">3</text>
        <text x="294.72px" y="107.28px" style="font-family:'ArialMT', 'Arial', sans-serif;font-size:10px;">CH</text>
        <text x="309.12px" y="109.92px" style="font-family:'ArialMT', 'Arial', sans-serif;font-size:8px;">3</text>
    </g>
    <g transform="matrix(1.33333,0,0,1.33333,-19.2811,-63.7974)">
        <text x="220.8px" y="112.56px" style="font-family:'ArialMT', 'Arial', sans-serif;font-size:10px;">C</text>
    </g>
    <g transform="matrix(1.33333,0,0,1.33333,-19.2811,-63.7974)">
        <text x="209.28px" y="112.56px" style="font-family:'ArialMT', 'Arial', sans-serif;font-size:10px;">H</text>
        <text x="216.48px" y="115.2px" style="font-family:'ArialMT', 'Arial', sans-serif;font-size:8px;">3</text>
    </g>
    <g transform="matrix(1.33333,0,0,1.33333,-19.2811,-63.7974)">
        <text x="220.32px" y="77.04px" style="font-family:'ArialMT', 'Arial', sans-serif;font-size:10px;">C</text>
    </g>
    <g transform="matrix(1.33333,0,0,1.33333,-19.2811,-63.7974)">
        <text x="208.8px" y="77.04px" style="font-family:'ArialMT', 'Arial', sans-serif;font-size:10px;">H</text>
        <text x="216px" y="79.68px" style="font-family:'ArialMT', 'Arial', sans-serif;font-size:8px;">3</text>
    </g>
    <g transform="matrix(1.33333,0,0,1.33333,-19.2811,-63.7974)">
        <text x="346.32px" y="82.32px" style="font-family:'ArialMT', 'Arial', sans-serif;font-size:10px;">L</text>
        <text x="351.84px" y="82.32px" style="font-family:'ArialMT', 'Arial', sans-serif;font-size:10px;">i</text>
        <text x="354.24px" y="82.32px" style="font-family:'ArialMT', 'Arial', sans-serif;font-size:10px;">A</text>
        <text x="360.96px" y="82.32px" style="font-family:'ArialMT', 'Arial', sans-serif;font-size:10px;">l</text>
        <text x="363.36px" y="82.32px" style="font-family:'ArialMT', 'Arial', sans-serif;font-size:10px;">H</text>
        <text x="370.56px" y="84.96px" style="font-family:'ArialMT', 'Arial', sans-serif;font-size:6px;">4</text>
    </g>
    <g transform="matrix(1.33333,0,0,1.33333,-19.2811,-63.7974)">
        <text x="457.68px" y="112.8px" style="font-family:'ArialMT', 'Arial', sans-serif;font-size:10px;">O<tspan x="465.6px " y="112.8px ">H</tspan></text>
    </g>
    <g transform="matrix(1.33333,0,0,1.33333,-19.2811,-63.7974)">
        <text x="457.44px" y="79.68px" style="font-family:'ArialMT', 'Arial', sans-serif;font-size:10px;">O<tspan x="465.36px " y="79.68px ">H</tspan></text>
    </g>
    <g transform="matrix(1.33333,0,0,1.33333,-19.2811,-63.7974)">
        <text x="418.08px" y="113.52px" style="font-family:'ArialMT', 'Arial', sans-serif;font-size:10px;">C</text>
    </g>
    <g transform="matrix(1.33333,0,0,1.33333,-19.2811,-63.7974)">
        <text x="406.56px" y="113.52px" style="font-family:'ArialMT', 'Arial', sans-serif;font-size:10px;">H</text>
        <text x="413.76px" y="116.16px" style="font-family:'ArialMT', 'Arial', sans-serif;font-size:8px;">3</text>
    </g>
    <g transform="matrix(1.33333,0,0,1.33333,-19.2811,-63.7974)">
        <text x="418.08px" y="78px" style="font-family:'ArialMT', 'Arial', sans-serif;font-size:10px;">C</text>
    </g>
    <g transform="matrix(1.33333,0,0,1.33333,-19.2811,-63.7974)">
        <text x="406.56px" y="78px" style="font-family:'ArialMT', 'Arial', sans-serif;font-size:10px;">H</text>
        <text x="413.76px" y="80.64px" style="font-family:'ArialMT', 'Arial', sans-serif;font-size:8px;">3</text>
    </g>
    <g transform="matrix(1.33333,0,0,1.33333,-19.2811,-63.7974)">
        <text x="405.12px" y="148.32px" style="font-family:'ArialMT', 'Arial', sans-serif;font-size:10px;">1</text>
        <text x="410.64px" y="148.32px" style="font-family:'ArialMT', 'Arial', sans-serif;font-size:10px;">)</text>
        <text x="416.912px" y="148.32px" style="font-family:'ArialMT', 'Arial', sans-serif;font-size:10px;">H</text>
        <text x="424.112px" y="148.32px" style="font-family:'ArialMT', 'Arial', sans-serif;font-size:10px;">Br</text>
        <text x="405.12px" y="159.6px" style="font-family:'ArialMT', 'Arial', sans-serif;font-size:10px;">2</text>
        <text x="410.64px" y="159.6px" style="font-family:'ArialMT', 'Arial', sans-serif;font-size:10px;">) <tspan x="416.923px " y="159.6px ">K</tspan></text>
        <text x="423.633px" y="159.6px" style="font-family:'ArialMT', 'Arial', sans-serif;font-size:10px;">CN</text>
    </g>
    <g transform="matrix(1.33333,0,0,1.33333,-19.2811,-63.7974)">
        <text x="450.48px" y="153.36px" style="font-family:'ArialMT', 'Arial', sans-serif;font-size:10px;">3</text>
        <text x="455.979px" y="153.36px" style="font-family:'ArialMT', 'Arial', sans-serif;font-size:10px;">)</text>
        <text x="462.218px" y="153.36px" style="font-family:'ArialMT', 'Arial', sans-serif;font-size:10px;">H</text>
        <text x="469.397px" y="156px" style="font-family:'ArialMT', 'Arial', sans-serif;font-size:6px;">2</text>
        <text x="472.984px" y="153.36px" style="font-family:'ArialMT', 'Arial', sans-serif;font-size:10px;">O<tspan x="480.883px 483.899px " y="153.36px 153.36px "> ;</tspan></text>
        <text x="489.814px" y="153.36px" style="font-family:'ArialMT', 'Arial', sans-serif;font-size:10px;">H</text>
        <text x="496.993px" y="148.32px" style="font-family:'ArialMT', 'Arial', sans-serif;font-size:6px;">+</text>
    </g>
    <g transform="matrix(1.33333,0,0,1.33333,-19.2811,-63.7974)">
        <text x="463.2px" y="208.08px" style="font-family:'ArialMT', 'Arial', sans-serif;font-size:10px;">O</text>
        <text x="481.92px" y="216px" style="font-family:'ArialMT', 'Arial', sans-serif;font-size:10px;">H</text>
    </g>
    <g transform="matrix(1.33333,0,0,1.33333,-19.2811,-63.7974)">
        <text x="463.92px" y="251.52px" style="font-family:'ArialMT', 'Arial', sans-serif;font-size:10px;">O</text>
    </g>
    <g transform="matrix(1.33333,0,0,1.33333,-19.2811,-63.7974)">
        <text x="482.16px" y="243.12px" style="font-family:'ArialMT', 'Arial', sans-serif;font-size:10px;">H</text>
        <text x="408.24px" y="248.4px" style="font-family:'ArialMT', 'Arial', sans-serif;font-size:10px;">C</text>
    </g>
    <g transform="matrix(1.33333,0,0,1.33333,-19.2811,-63.7974)">
        <text x="396.72px" y="248.4px" style="font-family:'ArialMT', 'Arial', sans-serif;font-size:10px;">H</text>
        <text x="403.92px" y="251.04px" style="font-family:'ArialMT', 'Arial', sans-serif;font-size:8px;">3</text>
    </g>
    <g transform="matrix(1.33333,0,0,1.33333,-19.2811,-63.7974)">
        <text x="407.76px" y="212.88px" style="font-family:'ArialMT', 'Arial', sans-serif;font-size:10px;">C</text>
    </g>
    <g transform="matrix(1.33333,0,0,1.33333,-19.2811,-63.7974)">
        <text x="396.24px" y="212.88px" style="font-family:'ArialMT', 'Arial', sans-serif;font-size:10px;">H</text>
        <text x="403.44px" y="215.52px" style="font-family:'ArialMT', 'Arial', sans-serif;font-size:8px;">3</text>
    </g>
    <g transform="matrix(1.33333,0,0,1.33333,-19.2811,-63.7974)">
        <text x="444px" y="200.4px" style="font-family:'ArialMT', 'Arial', sans-serif;font-size:10px;">O</text>
    </g>
    <g transform="matrix(1.33333,0,0,1.33333,-19.2811,-63.7974)">
        <text x="437.52px" y="257.28px" style="font-family:'ArialMT', 'Arial', sans-serif;font-size:10px;">O</text>
    </g>
    <g transform="matrix(1.33333,0,0,1.33333,-19.2811,-63.7974)">
        <text x="325.68px" y="218.64px" style="font-family:'ArialMT', 'Arial', sans-serif;font-size:10px;">1</text>
        <text x="331.2px" y="218.64px" style="font-family:'ArialMT', 'Arial', sans-serif;font-size:10px;">) <tspan x="337.483px " y="218.64px ">E</tspan></text>
        <text x="344.193px" y="218.64px" style="font-family:'ArialMT', 'Arial', sans-serif;font-size:10px;">t<tspan x="347.093px 354.993px " y="218.64px 218.64px ">OH</tspan></text>
        <text x="326.4px" y="242.88px" style="font-family:'ArialMT', 'Arial', sans-serif;font-size:10px;">2</text>
        <text x="331.92px" y="242.88px" style="font-family:'ArialMT', 'Arial', sans-serif;font-size:10px;">)</text>
        <text x="338.192px" y="242.88px" style="font-family:'ArialMT', 'Arial', sans-serif;font-size:10px;">Na</text>
        <text x="322.32px" y="254.16px" style="font-family:'ArialMT', 'Arial', sans-serif;font-size:10px;">то<tspan x="332.498px 337.409px 343.487px 348.96px " y="254.16px 254.16px 254.16px 254.16px ">улол</tspan></text>
        <text x="320.64px" y="267.12px" style="font-family:'ArialMT', 'Arial', sans-serif;font-size:10px;">M</text>
        <text x="329.04px" y="267.12px" style="font-family:'ArialMT', 'Arial', sans-serif;font-size:10px;">e</text>
        <text x="334.56px" y="269.76px" style="font-family:'ArialMT', 'Arial', sans-serif;font-size:6px;">3</text>
        <text x="338.16px" y="267.12px" style="font-family:'ArialMT', 'Arial', sans-serif;font-size:10px;">S</text>
        <text x="344.88px" y="267.12px" style="font-family:'ArialMT', 'Arial', sans-serif;font-size:10px;">i</text>
        <text x="347.28px" y="267.12px" style="font-family:'ArialMT', 'Arial', sans-serif;font-size:10px;">Cl</text>
    </g>
    <g transform="matrix(1.33333,0,0,1.33333,-19.2811,-63.7974)">
        <text x="253.92px" y="209.76px" style="font-family:'ArialMT', 'Arial', sans-serif;font-size:10px;">O</text>
        <text x="261.84px" y="209.76px" style="font-family:'ArialMT', 'Arial', sans-serif;font-size:10px;">S</text>
        <text x="268.56px" y="209.76px" style="font-family:'ArialMT', 'Arial', sans-serif;font-size:10px;">i</text>
        <text x="270.96px" y="209.76px" style="font-family:'ArialMT', 'Arial', sans-serif;font-size:10px;">M</text>
        <text x="279.36px" y="209.76px" style="font-family:'ArialMT', 'Arial', sans-serif;font-size:10px;">e</text>
        <text x="285.12px" y="212.4px" style="font-family:'ArialMT', 'Arial', sans-serif;font-size:8px;">3</text>
        <text x="254.16px" y="253.2px" style="font-family:'ArialMT', 'Arial', sans-serif;font-size:10px;">O</text>
        <text x="262.08px" y="253.2px" style="font-family:'ArialMT', 'Arial', sans-serif;font-size:10px;">S</text>
        <text x="268.8px" y="253.2px" style="font-family:'ArialMT', 'Arial', sans-serif;font-size:10px;">i</text>
        <text x="271.2px" y="253.2px" style="font-family:'ArialMT', 'Arial', sans-serif;font-size:10px;">M</text>
        <text x="279.6px" y="253.2px" style="font-family:'ArialMT', 'Arial', sans-serif;font-size:10px;">e</text>
        <text x="285.36px" y="255.84px" style="font-family:'ArialMT', 'Arial', sans-serif;font-size:8px;">3</text>
    </g>
    <g transform="matrix(1.33333,0,0,1.33333,-19.2811,-63.7974)">
        <text x="198.48px" y="249.36px" style="font-family:'ArialMT', 'Arial', sans-serif;font-size:10px;">C</text>
    </g>
    <g transform="matrix(1.33333,0,0,1.33333,-19.2811,-63.7974)">
        <text x="186.96px" y="249.36px" style="font-family:'ArialMT', 'Arial', sans-serif;font-size:10px;">H</text>
        <text x="194.16px" y="252px" style="font-family:'ArialMT', 'Arial', sans-serif;font-size:8px;">3</text>
    </g>
    <g transform="matrix(1.33333,0,0,1.33333,-19.2811,-63.7974)">
        <text x="198.48px" y="213.84px" style="font-family:'ArialMT', 'Arial', sans-serif;font-size:10px;">C</text>
    </g>
    <g transform="matrix(1.33333,0,0,1.33333,-19.2811,-63.7974)">
        <text x="186.96px" y="213.84px" style="font-family:'ArialMT', 'Arial', sans-serif;font-size:10px;">H</text>
        <text x="194.16px" y="216.48px" style="font-family:'ArialMT', 'Arial', sans-serif;font-size:8px;">3</text>
        <text x="130.56px" y="220.56px" style="font-family:'ArialMT', 'Arial', sans-serif;font-size:10px;">M</text>
        <text x="138.96px" y="220.56px" style="font-family:'ArialMT', 'Arial', sans-serif;font-size:10px;">e</text>
        <text x="144.48px" y="220.56px" style="font-family:'ArialMT', 'Arial', sans-serif;font-size:10px;">O<tspan x="152.4px " y="220.56px ">H</tspan></text>
    </g>
    <g transform="matrix(1.33333,0,0,1.33333,-19.2811,-63.7974)">
        <text x="88.56px" y="209.04px" style="font-family:'ArialMT', 'Arial', sans-serif;font-size:10px;">O</text>
        <text x="88.8px" y="252.48px" style="font-family:'ArialMT', 'Arial', sans-serif;font-size:10px;">O<tspan x="96.72px " y="252.48px ">H</tspan></text>
    </g>
    <g transform="matrix(1.33333,0,0,1.33333,-19.2811,-63.7974)">
        <text x="33.12px" y="248.64px" style="font-family:'ArialMT', 'Arial', sans-serif;font-size:10px;">C</text>
    </g>
    <g transform="matrix(1.33333,0,0,1.33333,-19.2811,-63.7974)">
        <text x="21.6px" y="248.64px" style="font-family:'ArialMT', 'Arial', sans-serif;font-size:10px;">H</text>
        <text x="28.8px" y="251.28px" style="font-family:'ArialMT', 'Arial', sans-serif;font-size:8px;">3</text>
    </g>
    <g transform="matrix(1.33333,0,0,1.33333,-19.2811,-63.7974)">
        <text x="33.12px" y="213.12px" style="font-family:'ArialMT', 'Arial', sans-serif;font-size:10px;">C</text>
    </g>
    <g transform="matrix(1.33333,0,0,1.33333,-19.2811,-63.7974)">
        <text x="21.6px" y="213.12px" style="font-family:'ArialMT', 'Arial', sans-serif;font-size:10px;">H</text>
        <text x="28.8px" y="215.76px" style="font-family:'ArialMT', 'Arial', sans-serif;font-size:8px;">3</text>
    </g>
    <g transform="matrix(1.33333,0,0,1.33333,-19.2811,-63.7974)">
        <text x="41.04px" y="291.84px" style="font-family:'ArialMT', 'Arial', sans-serif;font-size:10px;">P</text>
        <text x="47.76px" y="294.48px" style="font-family:'ArialMT', 'Arial', sans-serif;font-size:6px;">2</text>
        <text x="51.36px" y="291.84px" style="font-family:'ArialMT', 'Arial', sans-serif;font-size:10px;">O</text>
        <text x="59.28px" y="294.48px" style="font-family:'ArialMT', 'Arial', sans-serif;font-size:6px;">5</text>
    </g>
    <g transform="matrix(1.33333,0,0,1.33333,-19.2811,-63.7974)">
        <text x="93.6px" y="338.4px" style="font-family:'ArialMT', 'Arial', sans-serif;font-size:10px;">O</text>
    </g>
    <g transform="matrix(1.33333,0,0,1.33333,-19.2811,-63.7974)">
        <text x="38.16px" y="378px" style="font-family:'ArialMT', 'Arial', sans-serif;font-size:10px;">C</text>
    </g>
    <g transform="matrix(1.33333,0,0,1.33333,-19.2811,-63.7974)">
        <text x="26.64px" y="378px" style="font-family:'ArialMT', 'Arial', sans-serif;font-size:10px;">H</text>
        <text x="33.84px" y="380.64px" style="font-family:'ArialMT', 'Arial', sans-serif;font-size:8px;">3</text>
    </g>
    <g transform="matrix(1.33333,0,0,1.33333,-19.2811,-63.7974)">
        <text x="38.16px" y="342.48px" style="font-family:'ArialMT', 'Arial', sans-serif;font-size:10px;">C</text>
    </g>
    <g transform="matrix(1.33333,0,0,1.33333,-19.2811,-63.7974)">
        <text x="26.64px" y="342.48px" style="font-family:'ArialMT', 'Arial', sans-serif;font-size:10px;">H</text>
        <text x="33.84px" y="345.12px" style="font-family:'ArialMT', 'Arial', sans-serif;font-size:8px;">3</text>
    </g>
    <g transform="matrix(1.33333,0,0,1.33333,-19.2811,-63.7974)">
        <text x="137.52px" y="348px" style="font-family:'ArialMT', 'Arial', sans-serif;font-size:10px;">L</text>
        <text x="143.04px" y="348px" style="font-family:'ArialMT', 'Arial', sans-serif;font-size:10px;">i</text>
        <text x="145.44px" y="348px" style="font-family:'ArialMT', 'Arial', sans-serif;font-size:10px;">A</text>
        <text x="152.16px" y="348px" style="font-family:'ArialMT', 'Arial', sans-serif;font-size:10px;">l</text>
        <text x="154.56px" y="348px" style="font-family:'ArialMT', 'Arial', sans-serif;font-size:10px;">H</text>
        <text x="161.76px" y="350.64px" style="font-family:'ArialMT', 'Arial', sans-serif;font-size:6px;">4</text>
    </g>
    <g transform="matrix(1.33333,0,0,1.33333,-19.2811,-63.7974)">
        <text x="264.72px" y="339.12px" style="font-family:'ArialMT', 'Arial', sans-serif;font-size:10px;">O<tspan x="272.64px " y="339.12px ">H</tspan></text>
    </g>
    <g transform="matrix(1.33333,0,0,1.33333,-19.2811,-63.7974)">
        <text x="209.28px" y="378.72px" style="font-family:'ArialMT', 'Arial', sans-serif;font-size:10px;">C</text>
    </g>
    <g transform="matrix(1.33333,0,0,1.33333,-19.2811,-63.7974)">
        <text x="197.76px" y="378.72px" style="font-family:'ArialMT', 'Arial', sans-serif;font-size:10px;">H</text>
        <text x="204.96px" y="381.36px" style="font-family:'ArialMT', 'Arial', sans-serif;font-size:8px;">3</text>
    </g>
    <g transform="matrix(1.33333,0,0,1.33333,-19.2811,-63.7974)">
        <text x="209.28px" y="343.2px" style="font-family:'ArialMT', 'Arial', sans-serif;font-size:10px;">C</text>
    </g>
    <g transform="matrix(1.33333,0,0,1.33333,-19.2811,-63.7974)">
        <text x="197.76px" y="343.2px" style="font-family:'ArialMT', 'Arial', sans-serif;font-size:10px;">H</text>
        <text x="204.96px" y="345.84px" style="font-family:'ArialMT', 'Arial', sans-serif;font-size:8px;">3</text>
    </g>
    <g transform="matrix(1.33333,0,0,1.33333,-19.2811,-63.7974)">
        <text x="305.76px" y="348.24px" style="font-family:'ArialMT', 'Arial', sans-serif;font-size:10px;">A</text>
        <text x="312.48px" y="348.24px" style="font-family:'ArialMT', 'Arial', sans-serif;font-size:10px;">l</text>
        <text x="314.88px" y="350.88px" style="font-family:'ArialMT', 'Arial', sans-serif;font-size:6px;">2</text>
        <text x="318.48px" y="348.24px" style="font-family:'ArialMT', 'Arial', sans-serif;font-size:10px;">O</text>
        <text x="326.4px" y="350.88px" style="font-family:'ArialMT', 'Arial', sans-serif;font-size:6px;">3</text>
        <text x="307.68px" y="371.52px" style="font-family:'ArialMT', 'Arial', sans-serif;font-size:10px;">200<tspan x="324.24px " y="371.52px ">°</tspan></text>
    </g>
    <g transform="matrix(1.33333,0,0,1.33333,-19.2811,-63.7974)">
        <text x="379.68px" y="378.48px" style="font-family:'ArialMT', 'Arial', sans-serif;font-size:10px;">C</text>
    </g>
    <g transform="matrix(1.33333,0,0,1.33333,-19.2811,-63.7974)">
        <text x="368.16px" y="378.48px" style="font-family:'ArialMT', 'Arial', sans-serif;font-size:10px;">H</text>
        <text x="375.36px" y="381.12px" style="font-family:'ArialMT', 'Arial', sans-serif;font-size:8px;">3</text>
    </g>
    <g transform="matrix(1.33333,0,0,1.33333,-19.2811,-63.7974)">
        <text x="379.68px" y="342.96px" style="font-family:'ArialMT', 'Arial', sans-serif;font-size:10px;">C</text>
    </g>
    <g transform="matrix(1.33333,0,0,1.33333,-19.2811,-63.7974)">
        <text x="368.16px" y="342.96px" style="font-family:'ArialMT', 'Arial', sans-serif;font-size:10px;">H</text>
        <text x="375.36px" y="345.6px" style="font-family:'ArialMT', 'Arial', sans-serif;font-size:8px;">3</text>
    </g>
    <g transform="matrix(1.33333,0,0,1.33333,-19.2811,-63.7974)">
        <text x="464.16px" y="339.36px" style="font-family:'ArialMT', 'Arial', sans-serif;font-size:10px;">C</text>
    </g>
    <g transform="matrix(1.33333,0,0,1.33333,-19.2811,-63.7974)">
        <text x="452.64px" y="339.36px" style="font-family:'ArialMT', 'Arial', sans-serif;font-size:10px;">H</text>
        <text x="459.84px" y="342px" style="font-family:'ArialMT', 'Arial', sans-serif;font-size:8px;">2</text>
    </g>
    <g transform="matrix(1.33333,0,0,1.33333,-19.2811,-63.7974)">
        <text x="515.52px" y="349.2px" style="font-family:'ArialMT', 'Arial', sans-serif;font-size:10px;">O</text>
    </g>
    <g transform="matrix(1.33333,0,0,1.33333,-19.2811,-63.7974)">
        <text x="533.04px" y="339.36px" style="font-family:'ArialMT', 'Arial', sans-serif;font-size:10px;">CH</text>
        <text x="547.44px" y="342px" style="font-family:'ArialMT', 'Arial', sans-serif;font-size:8px;">3</text>
    </g>
    <g transform="matrix(1.33333,0,0,1.33333,-19.2811,-63.7974)">
        <text x="498.24px" y="319.44px" style="font-family:'ArialMT', 'Arial', sans-serif;font-size:10px;">O</text>
    </g>
    <g transform="matrix(1.33333,0,0,1.33333,-19.2811,-63.7974)">
        <text x="567.12px" y="360.24px" style="font-family:'ArialMT', 'Arial', sans-serif;font-size:10px;">T<tspan x="573.36px " y="360.24px ">M</tspan></text>
    </g>
    <g transform="matrix(0.798286,1.06795,1.06795,-0.798286,-787.613,610.986)">
        <path d="M37.072,743.01L56.998,743.01" style="fill:none;fill-rule:nonzero;stroke:black;stroke-width:0.72px;"/>
    </g>
    <g transform="matrix(-1.26226,0.429495,0.429495,1.26226,-180.309,-881.005)">
        <path d="M52.607,737.405L67.353,737.405" style="fill:none;fill-rule:nonzero;stroke:black;stroke-width:0.72px;"/>
    </g>
    <g transform="matrix(-0.769147,1.08912,1.08912,0.769147,-747.634,-588.27)">
        <path d="M36.856,759.125L56.774,759.125" style="fill:none;fill-rule:nonzero;stroke:black;stroke-width:0.72px;"/>
    </g>
    <g transform="matrix(-1.27379,-0.39401,-0.39401,1.27379,437.653,-912.368)">
        <path d="M52.229,765.07L67.051,765.07" style="fill:none;fill-rule:nonzero;stroke:black;stroke-width:0.72px;"/>
    </g>
    <g transform="matrix(1.06783,-0.798443,-0.798443,-1.06783,616.662,920.053)">
        <path d="M75.195,769.195L88.905,769.195" style="fill:none;fill-rule:nonzero;stroke:black;stroke-width:0.72px;"/>
    </g>
    <g transform="matrix(-0.429685,-1.2622,-1.2622,0.429685,1049.66,-240.963)">
        <path d="M44.959,774.38L58.861,774.38" style="fill:none;fill-rule:nonzero;stroke:black;stroke-width:0.72px;"/>
    </g>
    <g transform="matrix(-0.429871,-1.26214,-1.26214,0.429871,1043.01,-244.405)">
        <path d="M41.023,773.84L56.067,773.84" style="fill:none;fill-rule:nonzero;stroke:black;stroke-width:0.72px;"/>
    </g>
    <g transform="matrix(-0.394612,1.2736,1.2736,0.394612,-861.964,-262.435)">
        <path d="M41.669,728.365L56.671,728.365" style="fill:none;fill-rule:nonzero;stroke:black;stroke-width:0.72px;"/>
    </g>
    <g transform="matrix(-0.394328,1.27369,1.27369,0.394328,-855.598,-265.663)">
        <path d="M45.553,727.87L59.517,727.87" style="fill:none;fill-rule:nonzero;stroke:black;stroke-width:0.72px;"/>
    </g>
    <g transform="matrix(1.22548,0.525333,0.525333,-1.22548,-413.792,926.081)">
        <path d="M86.935,770.355L101.885,770.355" style="fill:none;fill-rule:nonzero;stroke:black;stroke-width:0.72px;"/>
    </g>
    <g transform="matrix(1.08918,0.769062,0.769062,-1.08918,-563.608,816.146)">
        <path d="M75.53,733.96L89.4,733.96" style="fill:none;fill-rule:nonzero;stroke:black;stroke-width:0.72px;"/>
    </g>
    <g transform="matrix(1.21061,-0.558744,-0.558744,-1.21061,401.943,1021.79)">
        <path d="M87.451,733.05L102.199,733.05" style="fill:none;fill-rule:nonzero;stroke:black;stroke-width:0.72px;"/>
    </g>
    <g transform="matrix(1.33333,0,0,1.33333,-19.2811,-944.437)">
        <path d="M137.52,751.2L192.72,751.2" style="fill:none;fill-rule:nonzero;stroke:black;stroke-width:0.72px;"/>
    </g>
    <g transform="matrix(1.2958,0.314133,0.314133,-1.2958,-248.173,971.272)">
        <path d="M184.459,752.133L192.609,752.133L185.364,748.401L186.311,750.606L184.459,752.133Z" style="stroke:black;stroke-width:0.72px;"/>
    </g>
    <g transform="matrix(0.798286,1.06795,1.06795,-0.798286,-685.012,405.555)">
        <path d="M229.312,743.25L249.238,743.25" style="fill:none;fill-rule:nonzero;stroke:black;stroke-width:0.72px;"/>
    </g>
    <g transform="matrix(-1.26226,0.429495,0.429495,1.26226,318.565,-964.194)">
        <path d="M244.847,737.645L259.593,737.645" style="fill:none;fill-rule:nonzero;stroke:black;stroke-width:0.72px;"/>
    </g>
    <g transform="matrix(-0.769147,1.08912,1.08912,0.769147,-343.715,-798.148)">
        <path d="M229.096,759.365L249.014,759.365" style="fill:none;fill-rule:nonzero;stroke:black;stroke-width:0.72px;"/>
    </g>
    <g transform="matrix(-1.27379,-0.39401,-0.39401,1.27379,938.94,-837.249)">
        <path d="M244.469,765.31L259.291,765.31" style="fill:none;fill-rule:nonzero;stroke:black;stroke-width:0.72px;"/>
    </g>
    <g transform="matrix(1.06783,-0.798443,-0.798443,-1.06783,667.893,1073.48)">
        <path d="M267.435,769.435L281.145,769.435" style="fill:none;fill-rule:nonzero;stroke:black;stroke-width:0.72px;"/>
    </g>
    <g transform="matrix(-0.429685,-1.2622,-1.2622,0.429685,1388.89,1.25942)">
        <path d="M237.199,774.62L251.101,774.62" style="fill:none;fill-rule:nonzero;stroke:black;stroke-width:0.72px;"/>
    </g>
    <g transform="matrix(-0.429871,-1.26214,-1.26214,0.429871,1382.27,-2.19499)">
        <path d="M233.263,774.08L248.307,774.08" style="fill:none;fill-rule:nonzero;stroke:black;stroke-width:0.72px;"/>
    </g>
    <g transform="matrix(-0.394612,1.2736,1.2736,0.394612,-530.09,-507.687)">
        <path d="M233.909,728.605L248.911,728.605" style="fill:none;fill-rule:nonzero;stroke:black;stroke-width:0.72px;"/>
    </g>
    <g transform="matrix(-0.394328,1.27369,1.27369,0.394328,-523.778,-510.932)">
        <path d="M237.793,728.11L251.757,728.11" style="fill:none;fill-rule:nonzero;stroke:black;stroke-width:0.72px;"/>
    </g>
    <g transform="matrix(1.22548,0.525333,0.525333,-1.22548,-393.184,825.065)">
        <path d="M279.175,770.595L294.125,770.595" style="fill:none;fill-rule:nonzero;stroke:black;stroke-width:0.72px;"/>
    </g>
    <g transform="matrix(1.08918,0.769062,0.769062,-1.08918,-516.857,668.243)">
        <path d="M267.77,734.2L281.64,734.2" style="fill:none;fill-rule:nonzero;stroke:black;stroke-width:0.72px;"/>
    </g>
    <g transform="matrix(1.21061,-0.558744,-0.558744,-1.21061,425.669,1129.17)">
        <path d="M279.691,733.29L294.439,733.29" style="fill:none;fill-rule:nonzero;stroke:black;stroke-width:0.72px;"/>
    </g>
    <g transform="matrix(-0.589144,1.19611,1.19611,0.589144,-467.715,-648.514)">
        <path d="M223.064,744.855L237.276,744.855" style="fill:none;fill-rule:nonzero;stroke:black;stroke-width:0.72px;"/>
    </g>
    <g transform="matrix(-0.621542,-1.1796,-1.1796,0.621542,1323.9,-150.623)">
        <path d="M222.994,757.455L237.066,757.455" style="fill:none;fill-rule:nonzero;stroke:black;stroke-width:0.72px;"/>
    </g>
    <g transform="matrix(1.33333,0,0,1.33333,-19.2811,-945.077)">
        <path d="M334.32,751.44L391.92,751.44" style="fill:none;fill-rule:nonzero;stroke:black;stroke-width:0.72px;"/>
    </g>
    <g transform="matrix(1.2958,0.314133,0.314133,-1.2958,-240.772,908.688)">
        <path d="M383.659,752.373L391.809,752.373L384.564,748.641L385.511,750.846L383.659,752.373Z" style="stroke:black;stroke-width:0.72px;"/>
    </g>
    <g transform="matrix(0.788166,1.07544,1.07544,-0.788166,-579.326,184.511)">
        <path d="M426.759,742.14L446.671,742.14" style="fill:none;fill-rule:nonzero;stroke:black;stroke-width:0.72px;"/>
    </g>
    <g transform="matrix(-1.3316,-0.0679005,-0.0679005,1.3316,1228.86,-866.102)">
        <path d="M442.591,733.75L456.729,733.75" style="fill:none;fill-rule:nonzero;stroke:black;stroke-width:0.72px;"/>
    </g>
    <g transform="matrix(-0.778967,1.08212,1.08212,0.778967,82.5305,-1015.41)">
        <path d="M426.688,758.255L446.612,758.255" style="fill:none;fill-rule:nonzero;stroke:black;stroke-width:0.72px;"/>
    </g>
    <g transform="matrix(-1.33332,-0.00571015,-0.00571015,1.33332,1183.69,-982.155)">
        <path d="M442.47,766.31L456.48,766.31" style="fill:none;fill-rule:nonzero;stroke:black;stroke-width:0.72px;"/>
    </g>
    <g transform="matrix(-0.600422,1.19049,1.19049,0.600422,-77.8715,-888.754)">
        <path d="M420.556,743.845L434.724,743.845" style="fill:none;fill-rule:nonzero;stroke:black;stroke-width:0.72px;"/>
    </g>
    <g transform="matrix(-0.610224,-1.1855,-1.1855,0.610224,1708.55,95.487)">
        <path d="M420.542,756.445L434.658,756.445" style="fill:none;fill-rule:nonzero;stroke:black;stroke-width:0.72px;"/>
    </g>
    <g transform="matrix(0,1.33333,1.33333,0,-349.041,-455.637)">
        <path d="M418.68,691.56L469.8,691.56" style="fill:none;fill-rule:nonzero;stroke:black;stroke-width:0.72px;"/>
    </g>
    <g transform="matrix(-0.314133,1.2958,1.2958,0.314133,-155.545,-620.62)">
        <path d="M439.939,670.893L448.089,670.893L440.844,667.161L441.791,669.366L439.939,670.893Z" style="stroke:black;stroke-width:0.72px;"/>
    </g>
    <g transform="matrix(0.798286,1.06795,1.06795,-0.798286,-439.652,278.059)">
        <path d="M416.752,607.41L436.678,607.41" style="fill:none;fill-rule:nonzero;stroke:black;stroke-width:0.72px;"/>
    </g>
    <g transform="matrix(-1.26221,0.42966,0.42966,1.26221,869.304,-695.372)">
        <path d="M432.149,602.64L452.071,602.64" style="fill:none;fill-rule:nonzero;stroke:black;stroke-width:0.72px;"/>
    </g>
    <g transform="matrix(-0.769147,1.08912,1.08912,0.769147,198.321,-716.692)">
        <path d="M416.536,623.525L436.454,623.525" style="fill:none;fill-rule:nonzero;stroke:black;stroke-width:0.72px;"/>
    </g>
    <g transform="matrix(-1.27366,-0.39442,-0.39442,1.27366,1380.34,-406.059)">
        <path d="M431.794,628.715L451.706,628.715" style="fill:none;fill-rule:nonzero;stroke:black;stroke-width:0.72px;"/>
    </g>
    <g transform="matrix(1.06783,-0.798443,-0.798443,-1.06783,604.906,1256.22)">
        <path d="M449.895,629.875L463.605,629.875" style="fill:none;fill-rule:nonzero;stroke:black;stroke-width:0.72px;"/>
    </g>
    <g transform="matrix(1.22581,0.524559,0.524559,-1.22581,-300.464,740.662)">
        <path d="M471.691,633.71L481.349,633.71" style="fill:none;fill-rule:nonzero;stroke:black;stroke-width:0.72px;"/>
    </g>
    <g transform="matrix(1.08934,0.768836,0.768836,-1.08934,-370.418,560.374)">
        <path d="M450.261,601.82L464.239,601.82" style="fill:none;fill-rule:nonzero;stroke:black;stroke-width:0.72px;"/>
    </g>
    <g transform="matrix(1.21044,-0.55911,-0.55911,-1.21044,374.02,1251.9)">
        <path d="M472.374,598.6L481.626,598.6" style="fill:none;fill-rule:nonzero;stroke:black;stroke-width:0.72px;"/>
    </g>
    <g transform="matrix(-0.589144,1.19611,1.19611,0.589144,55.1139,-611.564)">
        <path d="M410.504,609.015L424.716,609.015" style="fill:none;fill-rule:nonzero;stroke:black;stroke-width:0.72px;"/>
    </g>
    <g transform="matrix(-0.621542,-1.1796,-1.1796,0.621542,1530.08,336.032)">
        <path d="M410.434,621.615L424.506,621.615" style="fill:none;fill-rule:nonzero;stroke:black;stroke-width:0.72px;"/>
    </g>
    <g transform="matrix(-0.226512,-1.31395,-1.31395,0.226512,1517.26,664.591)">
        <path d="M444.45,633.185L458.93,633.185" style="fill:none;fill-rule:nonzero;stroke:black;stroke-width:0.72px;"/>
    </g>
    <g transform="matrix(-0.226661,-1.31393,-1.31393,0.226661,1511.7,660.515)">
        <path d="M440.8,632.9L455.86,632.9" style="fill:none;fill-rule:nonzero;stroke:black;stroke-width:0.72px;"/>
    </g>
    <g transform="matrix(-0.666322,1.1549,1.1549,0.666322,180.066,-656.97)">
        <path d="M438.886,600.225L453.814,600.225" style="fill:none;fill-rule:nonzero;stroke:black;stroke-width:0.72px;"/>
    </g>
    <g transform="matrix(-0.666413,1.15485,1.15485,0.666413,187.895,-659.014)">
        <path d="M443.102,599.3L456.288,599.3" style="fill:none;fill-rule:nonzero;stroke:black;stroke-width:0.72px;"/>
    </g>
    <g transform="matrix(1.33333,0,0,1.33333,-19.2811,-580.277)">
        <path d="M308.64,614.64L379.2,614.64" style="fill:none;fill-rule:nonzero;stroke:black;stroke-width:0.72px;"/>
    </g>
    <g transform="matrix(-1.2958,0.314133,0.314133,1.2958,609.507,-655.406)">
        <path d="M308.299,613.707L316.449,613.707L309.204,617.439L310.151,615.234L308.299,613.707Z" style="stroke:black;stroke-width:0.72px;"/>
    </g>
    <g transform="matrix(0.785581,1.07733,1.07733,-0.785581,-553.571,492.761)">
        <path d="M207.137,606.32L227.063,606.32" style="fill:none;fill-rule:nonzero;stroke:black;stroke-width:0.72px;"/>
    </g>
    <g transform="matrix(-1.2671,0.415005,0.415005,1.2671,335.58,-601.523)">
        <path d="M222.475,601.37L242.395,601.37" style="fill:none;fill-rule:nonzero;stroke:black;stroke-width:0.72px;"/>
    </g>
    <g transform="matrix(-0.78168,1.08016,1.08016,0.78168,-232.512,-492.177)">
        <path d="M207.109,622.44L227.031,622.44" style="fill:none;fill-rule:nonzero;stroke:black;stroke-width:0.72px;"/>
    </g>
    <g transform="matrix(0.00267737,1.33333,1.33333,-0.00267737,-516.66,-81.3383)">
        <path d="M231.92,614.43L251.84,614.43" style="fill:none;fill-rule:nonzero;stroke:black;stroke-width:0.72px;"/>
    </g>
    <g transform="matrix(0.00268456,1.33333,1.33333,-0.00268456,-521.113,-76.8473)">
        <path d="M231.075,614.42L245.975,614.42" style="fill:none;fill-rule:nonzero;stroke:black;stroke-width:0.72px;"/>
    </g>
    <g transform="matrix(-1.26881,-0.409767,-0.409767,1.26881,842.526,-478.726)">
        <path d="M222.428,627.45L242.342,627.45" style="fill:none;fill-rule:nonzero;stroke:black;stroke-width:0.72px;"/>
    </g>
    <g transform="matrix(1.07752,-0.785325,-0.785325,-1.07752,537.536,1092.3)">
        <path d="M240.542,628.435L254.278,628.435" style="fill:none;fill-rule:nonzero;stroke:black;stroke-width:0.72px;"/>
    </g>
    <g transform="matrix(1.08005,0.78184,0.78184,-1.08005,-425.982,713.151)">
        <path d="M240.575,600.38L254.525,600.38" style="fill:none;fill-rule:nonzero;stroke:black;stroke-width:0.72px;"/>
    </g>
    <g transform="matrix(-0.603395,1.18899,1.18899,0.603395,-339.357,-366.138)">
        <path d="M200.895,608.025L215.125,608.025" style="fill:none;fill-rule:nonzero;stroke:black;stroke-width:0.72px;"/>
    </g>
    <g transform="matrix(-0.608018,-1.18663,-1.18663,0.608018,1121.02,100.76)">
        <path d="M200.997,620.625L215.053,620.625" style="fill:none;fill-rule:nonzero;stroke:black;stroke-width:0.72px;"/>
    </g>
    <g transform="matrix(1.33333,0,0,1.33333,-19.2811,-581.557)">
        <path d="M114.96,615.12L167.76,615.12" style="fill:none;fill-rule:nonzero;stroke:black;stroke-width:0.72px;"/>
    </g>
    <g transform="matrix(-1.2958,0.314133,0.314133,1.2958,100.146,-595.827)">
        <path d="M114.619,614.187L122.769,614.187L115.524,617.919L116.471,615.714L114.619,614.187Z" style="stroke:black;stroke-width:0.72px;"/>
    </g>
    <g transform="matrix(0.785581,1.07733,1.07733,-0.785581,-644.923,670.514)">
        <path d="M41.777,607.04L61.703,607.04" style="fill:none;fill-rule:nonzero;stroke:black;stroke-width:0.72px;"/>
    </g>
    <g transform="matrix(-1.2671,0.415005,0.415005,1.2671,-94.727,-534.77)">
        <path d="M57.115,602.09L77.035,602.09" style="fill:none;fill-rule:nonzero;stroke:black;stroke-width:0.72px;"/>
    </g>
    <g transform="matrix(-0.78168,1.08016,1.08016,0.78168,-583.029,-315.084)">
        <path d="M41.749,623.16L61.671,623.16" style="fill:none;fill-rule:nonzero;stroke:black;stroke-width:0.72px;"/>
    </g>
    <g transform="matrix(0.00267737,1.33333,1.33333,-0.00267737,-737.658,138.183)">
        <path d="M66.56,615.15L86.48,615.15" style="fill:none;fill-rule:nonzero;stroke:black;stroke-width:0.72px;"/>
    </g>
    <g transform="matrix(-1.26881,-0.409767,-0.409767,1.26881,412.531,-548.359)">
        <path d="M57.068,628.17L76.982,628.17" style="fill:none;fill-rule:nonzero;stroke:black;stroke-width:0.72px;"/>
    </g>
    <g transform="matrix(1.07716,-0.785819,-0.785819,-1.07716,495.233,963.121)">
        <path d="M76.197,627.715L89.653,627.715" style="fill:none;fill-rule:nonzero;stroke:black;stroke-width:0.72px;"/>
    </g>
    <g transform="matrix(1.07758,-0.785236,-0.785236,-1.07758,496.962,961.455)">
        <path d="M74.075,630.875L89.035,630.875" style="fill:none;fill-rule:nonzero;stroke:black;stroke-width:0.72px;"/>
    </g>
    <g transform="matrix(1.08005,0.78184,0.78184,-1.08005,-468.428,842.253)">
        <path d="M75.215,601.1L89.165,601.1" style="fill:none;fill-rule:nonzero;stroke:black;stroke-width:0.72px;"/>
    </g>
    <g transform="matrix(-0.603395,1.18899,1.18899,0.603395,-660.47,-170.921)">
        <path d="M35.535,608.745L49.765,608.745" style="fill:none;fill-rule:nonzero;stroke:black;stroke-width:0.72px;"/>
    </g>
    <g transform="matrix(-0.608018,-1.18663,-1.18663,0.608018,800.854,-96.8586)">
        <path d="M35.637,621.345L49.693,621.345" style="fill:none;fill-rule:nonzero;stroke:black;stroke-width:0.72px;"/>
    </g>
    <g transform="matrix(0,1.33333,1.33333,0,-668.561,237.323)">
        <path d="M41.28,551.52L87.84,551.52" style="fill:none;fill-rule:nonzero;stroke:black;stroke-width:0.72px;"/>
    </g>
    <g transform="matrix(-0.314133,1.2958,1.2958,0.314133,-602.546,98.324)">
        <path d="M60.259,533.133L68.409,533.133L61.164,529.401L62.111,531.606L60.259,533.133Z" style="stroke:black;stroke-width:0.72px;"/>
    </g>
    <g transform="matrix(0.785581,1.07733,1.07733,-0.785581,-502.799,735.942)">
        <path d="M46.817,477.68L66.743,477.68" style="fill:none;fill-rule:nonzero;stroke:black;stroke-width:0.72px;"/>
    </g>
    <g transform="matrix(-1.2671,0.415005,0.415005,1.2671,-27.9358,-200.47)">
        <path d="M62.155,472.73L82.075,472.73" style="fill:none;fill-rule:nonzero;stroke:black;stroke-width:0.72px;"/>
    </g>
    <g transform="matrix(-1.26731,0.414381,0.414381,1.26731,-31.6677,-208.397)">
        <path d="M63.621,475.925L78.519,475.925" style="fill:none;fill-rule:nonzero;stroke:black;stroke-width:0.72px;"/>
    </g>
    <g transform="matrix(-0.78168,1.08016,1.08016,0.78168,-432.639,-46.9303)">
        <path d="M46.789,493.8L66.711,493.8" style="fill:none;fill-rule:nonzero;stroke:black;stroke-width:0.72px;"/>
    </g>
    <g transform="matrix(0.00267737,1.33333,1.33333,-0.00267737,-558.472,303.597)">
        <path d="M71.6,485.79L91.52,485.79" style="fill:none;fill-rule:nonzero;stroke:black;stroke-width:0.72px;"/>
    </g>
    <g transform="matrix(-1.26881,-0.409767,-0.409767,1.26881,372.638,-209.681)">
        <path d="M62.108,498.81L82.022,498.81" style="fill:none;fill-rule:nonzero;stroke:black;stroke-width:0.72px;"/>
    </g>
    <g transform="matrix(1.07716,-0.785819,-0.785819,-1.07716,394.87,1000.22)">
        <path d="M81.237,498.355L94.693,498.355" style="fill:none;fill-rule:nonzero;stroke:black;stroke-width:0.72px;"/>
    </g>
    <g transform="matrix(1.07758,-0.785236,-0.785236,-1.07758,396.673,998.497)">
        <path d="M79.115,501.515L94.075,501.515" style="fill:none;fill-rule:nonzero;stroke:black;stroke-width:0.72px;"/>
    </g>
    <g transform="matrix(-0.603395,1.18899,1.18899,0.603395,-496.902,73.6213)">
        <path d="M40.575,479.385L54.805,479.385" style="fill:none;fill-rule:nonzero;stroke:black;stroke-width:0.72px;"/>
    </g>
    <g transform="matrix(-0.608018,-1.18663,-1.18663,0.608018,657.135,160.255)">
        <path d="M40.677,491.985L54.733,491.985" style="fill:none;fill-rule:nonzero;stroke:black;stroke-width:0.72px;"/>
    </g>
    <g transform="matrix(1.33333,0,0,1.33333,-19.2811,-236.597)">
        <path d="M120.96,485.76L182.64,485.76" style="fill:none;fill-rule:nonzero;stroke:black;stroke-width:0.72px;"/>
    </g>
    <g transform="matrix(1.2958,0.314133,0.314133,-1.2958,-165.168,984.401)">
        <path d="M174.379,486.693L182.529,486.693L175.284,482.961L176.231,485.166L174.379,486.693Z" style="stroke:black;stroke-width:0.72px;"/>
    </g>
    <g transform="matrix(0.785581,1.07733,1.07733,-0.785581,-408.292,551.983)">
        <path d="M217.937,476.96L237.863,476.96" style="fill:none;fill-rule:nonzero;stroke:black;stroke-width:0.72px;"/>
    </g>
    <g transform="matrix(-1.2671,0.415005,0.415005,1.2671,417.35,-269.613)">
        <path d="M233.275,472.01L253.195,472.01" style="fill:none;fill-rule:nonzero;stroke:black;stroke-width:0.72px;"/>
    </g>
    <g transform="matrix(-1.26731,0.414381,0.414381,1.26731,413.652,-277.433)">
        <path d="M234.741,475.205L249.639,475.205" style="fill:none;fill-rule:nonzero;stroke:black;stroke-width:0.72px;"/>
    </g>
    <g transform="matrix(-0.78168,1.08016,1.08016,0.78168,-69.9403,-230.245)">
        <path d="M217.909,493.08L237.831,493.08" style="fill:none;fill-rule:nonzero;stroke:black;stroke-width:0.72px;"/>
    </g>
    <g transform="matrix(0.00267737,1.33333,1.33333,-0.00267737,-329.81,76.3954)">
        <path d="M242.72,485.07L262.64,485.07" style="fill:none;fill-rule:nonzero;stroke:black;stroke-width:0.72px;"/>
    </g>
    <g transform="matrix(-1.26881,-0.409767,-0.409767,1.26881,817.621,-137.688)">
        <path d="M233.228,498.09L253.142,498.09" style="fill:none;fill-rule:nonzero;stroke:black;stroke-width:0.72px;"/>
    </g>
    <g transform="matrix(1.07752,-0.785325,-0.785325,-1.07752,438.709,1133.87)">
        <path d="M251.342,499.075L265.078,499.075" style="fill:none;fill-rule:nonzero;stroke:black;stroke-width:0.72px;"/>
    </g>
    <g transform="matrix(-0.603395,1.18899,1.18899,0.603395,-164.633,-128.444)">
        <path d="M211.695,478.665L225.925,478.665" style="fill:none;fill-rule:nonzero;stroke:black;stroke-width:0.72px;"/>
    </g>
    <g transform="matrix(-0.608018,-1.18663,-1.18663,0.608018,988.485,364.709)">
        <path d="M211.797,491.265L225.853,491.265" style="fill:none;fill-rule:nonzero;stroke:black;stroke-width:0.72px;"/>
    </g>
    <g transform="matrix(1.33333,0,0,1.33333,-19.2811,-234.037)">
        <path d="M289.92,484.8L350.88,484.8" style="fill:none;fill-rule:nonzero;stroke:black;stroke-width:0.72px;"/>
    </g>
    <g transform="matrix(1.2958,0.314133,0.314133,-1.2958,-158.552,931.587)">
        <path d="M342.619,485.733L350.769,485.733L343.524,482.001L344.471,484.206L342.619,485.733Z" style="stroke:black;stroke-width:0.72px;"/>
    </g>
    <g transform="matrix(0.785581,1.07733,1.07733,-0.785581,-315.213,368.275)">
        <path d="M388.337,477.2L408.263,477.2" style="fill:none;fill-rule:nonzero;stroke:black;stroke-width:0.72px;"/>
    </g>
    <g transform="matrix(-1.2671,0.415005,0.415005,1.2671,860.364,-340.954)">
        <path d="M403.675,472.25L423.595,472.25" style="fill:none;fill-rule:nonzero;stroke:black;stroke-width:0.72px;"/>
    </g>
    <g transform="matrix(-1.26731,0.414381,0.414381,1.26731,856.702,-348.668)">
        <path d="M405.141,475.445L420.039,475.445" style="fill:none;fill-rule:nonzero;stroke:black;stroke-width:0.72px;"/>
    </g>
    <g transform="matrix(-0.78168,1.08016,1.08016,0.78168,290.199,-414.813)">
        <path d="M388.309,493.32L408.231,493.32" style="fill:none;fill-rule:nonzero;stroke:black;stroke-width:0.72px;"/>
    </g>
    <g transform="matrix(0.00267737,1.33333,1.33333,-0.00267737,-103.386,-151.124)">
        <path d="M413.12,485.31L433.04,485.31" style="fill:none;fill-rule:nonzero;stroke:black;stroke-width:0.72px;"/>
    </g>
    <g transform="matrix(-1.26881,-0.409767,-0.409767,1.26881,1261.12,-68.4878)">
        <path d="M403.628,498.33L423.542,498.33" style="fill:none;fill-rule:nonzero;stroke:black;stroke-width:0.72px;"/>
    </g>
    <g transform="matrix(-1.26879,-0.409808,-0.409808,1.26879,1257.13,-60.562)">
        <path d="M405.099,495.13L420.001,495.13" style="fill:none;fill-rule:nonzero;stroke:black;stroke-width:0.72px;"/>
    </g>
    <g transform="matrix(-0.603395,1.18899,1.18899,0.603395,165.101,-331.512)">
        <path d="M382.095,478.905L396.325,478.905" style="fill:none;fill-rule:nonzero;stroke:black;stroke-width:0.72px;"/>
    </g>
    <g transform="matrix(-0.608018,-1.18663,-1.18663,0.608018,1319.58,566.445)">
        <path d="M382.197,491.505L396.253,491.505" style="fill:none;fill-rule:nonzero;stroke:black;stroke-width:0.72px;"/>
    </g>
    <g transform="matrix(1.33333,0,0,1.33333,-19.2811,-235.317)">
        <path d="M443.76,485.28L559.44,485.28" style="fill:none;fill-rule:nonzero;stroke:black;stroke-width:0.72px;"/>
    </g>
    <g transform="matrix(1.2958,0.314133,0.314133,-1.2958,-150.875,866.054)">
        <path d="M551.179,486.213L559.329,486.213L552.084,482.481L553.031,484.686L551.179,486.213Z" style="stroke:black;stroke-width:0.72px;"/>
    </g>
    <g transform="matrix(-1.15475,-0.666584,-0.666584,1.15475,1505.24,133.066)">
        <path d="M471.334,500.3L486.056,500.3" style="fill:none;fill-rule:nonzero;stroke:black;stroke-width:0.72px;"/>
    </g>
    <g transform="matrix(-1.15457,-0.6669,-0.6669,1.15457,1508.47,124.221)">
        <path d="M471.638,504.025L486.292,504.025" style="fill:none;fill-rule:nonzero;stroke:black;stroke-width:0.72px;"/>
    </g>
    <g transform="matrix(-1.15468,0.666702,0.666702,1.15468,874.621,-518.372)">
        <path d="M483.736,501.6L503.654,501.6" style="fill:none;fill-rule:nonzero;stroke:black;stroke-width:0.72px;"/>
    </g>
    <g transform="matrix(-1.15457,-0.666895,-0.666895,1.15457,1581.15,146.312)">
        <path d="M501.372,503.045L515.508,503.045" style="fill:none;fill-rule:nonzero;stroke:black;stroke-width:0.72px;"/>
    </g>
    <g transform="matrix(-1.15496,0.66621,0.66621,1.15496,960.95,-541.348)">
        <path d="M523.807,501.625L532.673,501.625" style="fill:none;fill-rule:nonzero;stroke:black;stroke-width:0.72px;"/>
    </g>
    <g transform="matrix(0,-1.33333,-1.33333,0,1337.96,1045.52)">
        <path d="M496.65,513.93L511.35,513.93" style="fill:none;fill-rule:nonzero;stroke:black;stroke-width:0.72px;"/>
    </g>
    <g transform="matrix(0,-1.33333,-1.33333,0,1333.48,1041.04)">
        <path d="M493.29,513.93L507.99,513.93" style="fill:none;fill-rule:nonzero;stroke:black;stroke-width:0.72px;"/>
    </g>
</svg>
