<?xml version="1.0" encoding="UTF-8" standalone="no"?>
<!DOCTYPE svg PUBLIC "-//W3C//DTD SVG 1.1//EN" "http://www.w3.org/Graphics/SVG/1.1/DTD/svg11.dtd">
<svg width="100%" height="100%" viewBox="0 0 600 520" version="1.1" xmlns="http://www.w3.org/2000/svg" xmlns:xlink="http://www.w3.org/1999/xlink" xml:space="preserve" xmlns:serif="http://www.serif.com/" style="fill-rule:evenodd;clip-rule:evenodd;stroke-linecap:round;stroke-linejoin:round;stroke-miterlimit:10;">
    <g transform="matrix(1.33333,0,0,1.33333,-62.4346,-64.4846)">
        <text x="53.76px" y="90.48px" style="font-family:'ArialMT', 'Arial', sans-serif;font-size:10px;">Br</text>
    </g>
    <g transform="matrix(1.33333,0,0,1.33333,-62.4346,-64.4846)">
        <text x="144.96px" y="100.32px" style="font-family:'ArialMT', 'Arial', sans-serif;font-size:10px;">B</text>
        <text x="151.68px" y="100.32px" style="font-family:'ArialMT', 'Arial', sans-serif;font-size:10px;">r</text>
        <text x="170.16px" y="98.64px" style="font-family:'ArialMT', 'Arial', sans-serif;font-size:18px;"><tspan x="170.16px " y="98.64px ">+</tspan></text>
    </g>
    <g transform="matrix(1.33333,0,0,1.33333,-62.4346,-64.4846)">
        <text x="224.4px" y="111.84px" style="font-family:'ArialMT', 'Arial', sans-serif;font-size:10px;">O</text>
    </g>
    <g transform="matrix(1.33333,0,0,1.33333,-62.4346,-64.4846)">
        <text x="223.44px" y="77.28px" style="font-family:'ArialMT', 'Arial', sans-serif;font-size:10px;">O</text>
    </g>
    <g transform="matrix(1.33333,0,0,1.33333,-62.4346,-64.4846)">
        <text x="192.96px" y="60.96px" style="font-family:'ArialMT', 'Arial', sans-serif;font-size:10px;">O</text>
    </g>
    <g transform="matrix(1.33333,0,0,1.33333,-62.4346,-64.4846)">
        <text x="194.88px" y="129.84px" style="font-family:'ArialMT', 'Arial', sans-serif;font-size:10px;">O</text>
    </g>
    <g transform="matrix(1.33333,0,0,1.33333,-62.4346,-64.4846)">
        <text x="253.92px" y="93.84px" style="font-family:'ArialMT', 'Arial', sans-serif;font-size:10px;">CH</text>
        <text x="268.32px" y="96.48px" style="font-family:'ArialMT', 'Arial', sans-serif;font-size:8px;">3</text>
        <text x="254.88px" y="128.16px" style="font-family:'ArialMT', 'Arial', sans-serif;font-size:10px;">CH</text>
        <text x="269.28px" y="130.8px" style="font-family:'ArialMT', 'Arial', sans-serif;font-size:8px;">3</text>
    </g>
    <g transform="matrix(1.33333,0,0,1.33333,-62.4346,-64.4846)">
        <text x="300px" y="81.84px" style="font-family:'ArialMT', 'Arial', sans-serif;font-size:10px;">E</text>
        <text x="306.72px" y="81.84px" style="font-family:'ArialMT', 'Arial', sans-serif;font-size:10px;">t<tspan x="309.62px " y="81.84px ">O</tspan></text>
        <text x="317.52px" y="76.8px" style="font-family:'ArialMT', 'Arial', sans-serif;font-size:6px;">-</text>
        <text x="319.68px" y="81.84px" style="font-family:'ArialMT', 'Arial', sans-serif;font-size:10px;">Na</text>
        <text x="332.4px" y="76.8px" style="font-family:'ArialMT', 'Arial', sans-serif;font-size:6px;">+</text>
    </g>
    <g transform="matrix(1.33333,0,0,1.33333,-62.4346,-64.4846)">
        <text x="425.76px" y="94.32px" style="font-family:'ArialMT', 'Arial', sans-serif;font-size:10px;">O</text>
    </g>
    <g transform="matrix(1.33333,0,0,1.33333,-62.4346,-64.4846)">
        <text x="408.72px" y="64.56px" style="font-family:'ArialMT', 'Arial', sans-serif;font-size:10px;">O</text>
    </g>
    <g transform="matrix(1.33333,0,0,1.33333,-62.4346,-64.4846)">
        <text x="408.72px" y="124.32px" style="font-family:'ArialMT', 'Arial', sans-serif;font-size:10px;">O</text>
    </g>
    <g transform="matrix(1.33333,0,0,1.33333,-62.4346,-64.4846)">
        <text x="374.16px" y="64.56px" style="font-family:'ArialMT', 'Arial', sans-serif;font-size:10px;">O</text>
    </g>
    <g transform="matrix(1.33333,0,0,1.33333,-62.4346,-64.4846)">
        <text x="443.28px" y="64.56px" style="font-family:'ArialMT', 'Arial', sans-serif;font-size:10px;">CH</text>
        <text x="457.68px" y="67.2px" style="font-family:'ArialMT', 'Arial', sans-serif;font-size:8px;">3</text>
    </g>
    <g transform="matrix(1.33333,0,0,1.33333,-62.4346,-64.4846)">
        <text x="460.56px" y="94.32px" style="font-family:'ArialMT', 'Arial', sans-serif;font-size:10px;">CH</text>
        <text x="474.96px" y="96.96px" style="font-family:'ArialMT', 'Arial', sans-serif;font-size:8px;">3</text>
    </g>
    <g transform="matrix(1.33333,0,0,1.33333,-62.4346,-64.4846)">
        <text x="373.68px" y="161.52px" style="font-family:'ArialMT', 'Arial', sans-serif;font-size:10px;">1</text>
        <text x="379.2px" y="161.52px" style="font-family:'ArialMT', 'Arial', sans-serif;font-size:10px;">)</text>
        <text x="385.472px" y="161.52px" style="font-family:'ArialMT', 'Arial', sans-serif;font-size:10px;">L</text>
        <text x="390.992px" y="161.52px" style="font-family:'ArialMT', 'Arial', sans-serif;font-size:10px;">i</text>
        <text x="393.392px" y="161.52px" style="font-family:'ArialMT', 'Arial', sans-serif;font-size:10px;">A</text>
        <text x="400.112px" y="161.52px" style="font-family:'ArialMT', 'Arial', sans-serif;font-size:10px;">l</text>
        <text x="402.512px" y="161.52px" style="font-family:'ArialMT', 'Arial', sans-serif;font-size:10px;">H</text>
        <text x="409.712px" y="164.16px" style="font-family:'ArialMT', 'Arial', sans-serif;font-size:6px;">4</text>
        <text x="373.68px" y="175.2px" style="font-family:'ArialMT', 'Arial', sans-serif;font-size:10px;">2</text>
        <text x="379.2px" y="175.2px" style="font-family:'ArialMT', 'Arial', sans-serif;font-size:10px;">)</text>
        <text x="385.472px" y="175.2px" style="font-family:'ArialMT', 'Arial', sans-serif;font-size:10px;">H</text>
        <text x="392.672px" y="175.2px" style="font-family:'ArialMT', 'Arial', sans-serif;font-size:10px;">Br</text>
    </g>
    <g transform="matrix(1.33333,0,0,1.33333,-62.4346,-64.4846)">
        <text x="426px" y="167.52px" style="font-family:'ArialMT', 'Arial', sans-serif;font-size:10px;">3</text>
        <text x="431.52px" y="167.52px" style="font-family:'ArialMT', 'Arial', sans-serif;font-size:10px;">) <tspan x="437.803px " y="167.52px ">K</tspan></text>
        <text x="444.513px" y="167.52px" style="font-family:'ArialMT', 'Arial', sans-serif;font-size:10px;">CN</text>
    </g>
    <g transform="matrix(1.33333,0,0,1.33333,-62.4346,-64.4846)">
        <text x="447.84px" y="218.64px" style="font-family:'ArialMT', 'Arial', sans-serif;font-size:10px;">N</text>
    </g>
    <g transform="matrix(1.33333,0,0,1.33333,-62.4346,-64.4846)">
        <text x="465.12px" y="248.64px" style="font-family:'ArialMT', 'Arial', sans-serif;font-size:10px;">N</text>
    </g>
    <g transform="matrix(1.33333,0,0,1.33333,-62.4346,-64.4846)">
        <text x="314.4px" y="245.28px" style="font-family:'ArialMT', 'Arial', sans-serif;font-size:10px;">1</text>
        <text x="319.92px" y="245.28px" style="font-family:'ArialMT', 'Arial', sans-serif;font-size:10px;">)</text>
        <text x="326.195px" y="245.28px" style="font-family:'ArialMT', 'Arial', sans-serif;font-size:10px;">H</text>
        <text x="333.395px" y="247.92px" style="font-family:'ArialMT', 'Arial', sans-serif;font-size:6px;">2</text>
        <text x="336.995px" y="245.28px" style="font-family:'ArialMT', 'Arial', sans-serif;font-size:10px;">O<tspan x="344.895px 347.904px " y="245.28px 245.28px "> ;</tspan></text>
        <text x="353.814px" y="245.28px" style="font-family:'ArialMT', 'Arial', sans-serif;font-size:10px;">H</text>
        <text x="361.014px" y="240.24px" style="font-family:'ArialMT', 'Arial', sans-serif;font-size:6px;">+</text>
    </g>
    <g transform="matrix(1.33333,0,0,1.33333,-62.4346,-64.4846)">
        <text x="312.96px" y="270.96px" style="font-family:'ArialMT', 'Arial', sans-serif;font-size:10px;">2</text>
        <text x="318.48px" y="270.96px" style="font-family:'ArialMT', 'Arial', sans-serif;font-size:10px;">) <tspan x="324.763px " y="270.96px ">E</tspan></text>
        <text x="331.473px" y="270.96px" style="font-family:'ArialMT', 'Arial', sans-serif;font-size:10px;">t<tspan x="334.373px 342.273px " y="270.96px 270.96px ">OH</tspan></text>
    </g>
    <g transform="matrix(1.33333,0,0,1.33333,-62.4346,-64.4846)">
        <text x="210px" y="238.56px" style="font-family:'ArialMT', 'Arial', sans-serif;font-size:10px;">O</text>
    </g>
    <g transform="matrix(1.33333,0,0,1.33333,-62.4346,-64.4846)">
        <text x="192.96px" y="208.8px" style="font-family:'ArialMT', 'Arial', sans-serif;font-size:10px;">O</text>
    </g>
    <g transform="matrix(1.33333,0,0,1.33333,-62.4346,-64.4846)">
        <text x="244.8px" y="238.56px" style="font-family:'ArialMT', 'Arial', sans-serif;font-size:10px;">CH</text>
        <text x="259.2px" y="241.2px" style="font-family:'ArialMT', 'Arial', sans-serif;font-size:8px;">3</text>
    </g>
    <g transform="matrix(1.33333,0,0,1.33333,-62.4346,-64.4846)">
        <text x="227.28px" y="268.56px" style="font-family:'ArialMT', 'Arial', sans-serif;font-size:10px;">O</text>
    </g>
    <g transform="matrix(1.33333,0,0,1.33333,-62.4346,-64.4846)">
        <text x="227.28px" y="248.64px" style="font-family:'ArialMT', 'Arial', sans-serif;font-size:10px;">O</text>
    </g>
    <g transform="matrix(1.33333,0,0,1.33333,-62.4346,-64.4846)">
        <text x="262.08px" y="248.64px" style="font-family:'ArialMT', 'Arial', sans-serif;font-size:10px;">CH</text>
        <text x="276.48px" y="251.28px" style="font-family:'ArialMT', 'Arial', sans-serif;font-size:8px;">3</text>
    </g>
    <g transform="matrix(1.33333,0,0,1.33333,-62.4346,-64.4846)">
        <text x="149.04px" y="323.04px" style="font-family:'ArialMT', 'Arial', sans-serif;font-size:10px;">1</text>
        <text x="154.56px" y="323.04px" style="font-family:'ArialMT', 'Arial', sans-serif;font-size:10px;">)</text>
        <text x="160.822px" y="323.04px" style="font-family:'ArialMT', 'Arial', sans-serif;font-size:10px;">Na</text>
        <text x="188.4px" y="323.52px" style="font-family:'ArialMT', 'Arial', sans-serif;font-size:10px;">2</text>
        <text x="193.94px" y="323.52px" style="font-family:'ArialMT', 'Arial', sans-serif;font-size:10px;">) <tspan x="200.243px " y="323.52px ">M</tspan></text>
        <text x="208.623px" y="323.52px" style="font-family:'ArialMT', 'Arial', sans-serif;font-size:10px;">e</text>
        <text x="214.143px" y="326.16px" style="font-family:'ArialMT', 'Arial', sans-serif;font-size:6px;">3</text>
        <text x="217.743px" y="323.52px" style="font-family:'ArialMT', 'Arial', sans-serif;font-size:10px;">S</text>
        <text x="224.463px" y="323.52px" style="font-family:'ArialMT', 'Arial', sans-serif;font-size:10px;">i</text>
        <text x="226.863px" y="323.52px" style="font-family:'ArialMT', 'Arial', sans-serif;font-size:10px;">Cl</text>
    </g>
    <g transform="matrix(1.33333,0,0,1.33333,-62.4346,-64.4846)">
        <text x="199.68px" y="368.88px" style="font-family:'ArialMT', 'Arial', sans-serif;font-size:10px;">O</text>
        <text x="207.6px" y="368.88px" style="font-family:'ArialMT', 'Arial', sans-serif;font-size:10px;">S</text>
        <text x="214.32px" y="368.88px" style="font-family:'ArialMT', 'Arial', sans-serif;font-size:10px;">i</text>
        <text x="216.72px" y="368.88px" style="font-family:'ArialMT', 'Arial', sans-serif;font-size:10px;">M</text>
        <text x="225.12px" y="368.88px" style="font-family:'ArialMT', 'Arial', sans-serif;font-size:10px;">e</text>
        <text x="230.88px" y="371.52px" style="font-family:'ArialMT', 'Arial', sans-serif;font-size:8px;">3</text>
    </g>
    <g transform="matrix(1.33333,0,0,1.33333,-62.4346,-64.4846)">
        <text x="231.12px" y="423.12px" style="font-family:'ArialMT', 'Arial', sans-serif;font-size:10px;">O</text>
        <text x="239.04px" y="423.12px" style="font-family:'ArialMT', 'Arial', sans-serif;font-size:10px;">S</text>
        <text x="245.76px" y="423.12px" style="font-family:'ArialMT', 'Arial', sans-serif;font-size:10px;">i</text>
        <text x="248.16px" y="423.12px" style="font-family:'ArialMT', 'Arial', sans-serif;font-size:10px;">M</text>
        <text x="256.56px" y="423.12px" style="font-family:'ArialMT', 'Arial', sans-serif;font-size:10px;">e</text>
        <text x="262.32px" y="425.76px" style="font-family:'ArialMT', 'Arial', sans-serif;font-size:8px;">3</text>
    </g>
    <g transform="matrix(1.33333,0,0,1.33333,-62.4346,-64.4846)">
        <text x="319.44px" y="406.32px" style="font-family:'ArialMT', 'Arial', sans-serif;font-size:10px;">Br</text>
        <text x="329.52px" y="408.96px" style="font-family:'ArialMT', 'Arial', sans-serif;font-size:6px;">2</text>
    </g>
    <g transform="matrix(1.33333,0,0,1.33333,-62.4346,-64.4846)">
        <text x="371.04px" y="418.08px" style="font-family:'ArialMT', 'Arial', sans-serif;font-size:10px;">T<tspan x="377.28px " y="418.08px ">M</tspan></text>
    </g>
    <g transform="matrix(-1.15469,-0.666683,-0.666683,1.15469,616.874,-759.193)">
        <path d="M63.665,749.735L80.605,749.735" style="fill:none;fill-rule:nonzero;stroke:black;stroke-width:0.72px;"/>
    </g>
    <g transform="matrix(-1.15468,0.666702,0.666702,1.15468,-343.6,-867.862)">
        <path d="M78.136,750.48L98.054,750.48" style="fill:none;fill-rule:nonzero;stroke:black;stroke-width:0.72px;"/>
    </g>
    <g transform="matrix(-1.15468,-0.666702,-0.666702,1.15468,700.012,-738.895)">
        <path d="M95.386,750.48L115.304,750.48" style="fill:none;fill-rule:nonzero;stroke:black;stroke-width:0.72px;"/>
    </g>
    <g transform="matrix(-1.15468,0.666702,0.666702,1.15468,-257.763,-890.863)">
        <path d="M112.636,750.48L132.554,750.48" style="fill:none;fill-rule:nonzero;stroke:black;stroke-width:0.72px;"/>
    </g>
    <g transform="matrix(1.15464,0.666766,0.666766,-1.15464,-539.1,831.988)">
        <path d="M130.231,751.77L144.989,751.77" style="fill:none;fill-rule:nonzero;stroke:black;stroke-width:0.72px;"/>
    </g>
    <g transform="matrix(0.699597,1.13505,1.13505,-0.699597,-773.874,312.27)">
        <path d="M227.159,757.51L241.091,757.51" style="fill:none;fill-rule:nonzero;stroke:black;stroke-width:0.72px;"/>
    </g>
    <g transform="matrix(1.33279,-0.0381303,-0.0381303,-1.33279,-34.3412,1065.91)">
        <path d="M208.407,733.685L223.443,733.685" style="fill:none;fill-rule:nonzero;stroke:black;stroke-width:0.72px;"/>
    </g>
    <g transform="matrix(1.33279,-0.0380544,-0.0380544,-1.33279,-33.0854,1065.84)">
        <path d="M207.417,768.175L222.483,768.175" style="fill:none;fill-rule:nonzero;stroke:black;stroke-width:0.72px;"/>
    </g>
    <g transform="matrix(0.699431,1.13515,1.13515,-0.699431,-775.862,357.106)">
        <path d="M193.225,741.95L213.145,741.95" style="fill:none;fill-rule:nonzero;stroke:black;stroke-width:0.72px;"/>
    </g>
    <g transform="matrix(0.633211,-1.17338,-1.17338,-0.633211,970.298,764.378)">
        <path d="M192.73,759.195L212.65,759.195" style="fill:none;fill-rule:nonzero;stroke:black;stroke-width:0.72px;"/>
    </g>
    <g transform="matrix(-0.699743,-1.13496,-1.13496,0.699743,1234.1,-283.535)">
        <path d="M198.666,774.525L212.024,774.525" style="fill:none;fill-rule:nonzero;stroke:black;stroke-width:0.72px;"/>
    </g>
    <g transform="matrix(-0.699895,-1.13487,-1.13487,0.699895,1226.17,-285.13)">
        <path d="M194.631,773.42L209.529,773.42" style="fill:none;fill-rule:nonzero;stroke:black;stroke-width:0.72px;"/>
    </g>
    <g transform="matrix(-0.63299,1.1735,1.1735,0.63299,-516.472,-611.582)">
        <path d="M195.98,727.735L210.83,727.735" style="fill:none;fill-rule:nonzero;stroke:black;stroke-width:0.72px;"/>
    </g>
    <g transform="matrix(-0.633231,1.17337,1.17337,0.633231,-508.722,-614.136)">
        <path d="M200.278,726.935L213.312,726.935" style="fill:none;fill-rule:nonzero;stroke:black;stroke-width:0.72px;"/>
    </g>
    <g transform="matrix(1.3328,-0.0377539,-0.0377539,-1.3328,-33.9202,1066.94)">
        <path d="M237.777,751.795L252.963,751.795" style="fill:none;fill-rule:nonzero;stroke:black;stroke-width:0.72px;"/>
    </g>
    <g transform="matrix(0.699119,1.13535,1.13535,-0.699119,-734.144,332.583)">
        <path d="M228.217,722.985L242.063,722.985" style="fill:none;fill-rule:nonzero;stroke:black;stroke-width:0.72px;"/>
    </g>
    <g transform="matrix(1.3328,-0.0378286,-0.0378286,-1.3328,-35.1678,1067.01)">
        <path d="M238.767,717.305L253.923,717.305" style="fill:none;fill-rule:nonzero;stroke:black;stroke-width:0.72px;"/>
    </g>
    <g transform="matrix(1.33333,0,0,1.33333,-62.4346,-945.125)">
        <path d="M291.36,751.2L346.08,751.2" style="fill:none;fill-rule:nonzero;stroke:black;stroke-width:0.72px;"/>
    </g>
    <g transform="matrix(1.2958,0.314133,0.314133,-1.2958,-285.571,922.409)">
        <path d="M337.819,752.133L345.969,752.133L338.724,748.401L339.671,750.606L337.819,752.133Z" style="stroke:black;stroke-width:0.72px;"/>
    </g>
    <g transform="matrix(-1.07962,0.782437,0.782437,1.07962,240.56,-1059.71)">
        <path d="M361.185,757.325L381.105,757.325" style="fill:none;fill-rule:nonzero;stroke:black;stroke-width:0.72px;"/>
    </g>
    <g transform="matrix(-0.410979,-1.26841,-1.26841,0.410979,1517.41,228.216)">
        <path d="M356.19,742.005L376.11,742.005" style="fill:none;fill-rule:nonzero;stroke:black;stroke-width:0.72px;"/>
    </g>
    <g transform="matrix(-1.0782,-0.784388,-0.784388,1.0782,1465.49,-464.436)">
        <path d="M377.304,757.31L397.226,757.31" style="fill:none;fill-rule:nonzero;stroke:black;stroke-width:0.72px;"/>
    </g>
    <g transform="matrix(-1.33333,-0.00133802,-0.00133802,1.33333,949.705,-894.803)">
        <path d="M369.22,732.52L389.15,732.52" style="fill:none;fill-rule:nonzero;stroke:black;stroke-width:0.72px;"/>
    </g>
    <g transform="matrix(0.412993,-1.26776,-1.26776,-0.412993,1239.21,872.461)">
        <path d="M382.275,741.98L402.195,741.98" style="fill:none;fill-rule:nonzero;stroke:black;stroke-width:0.72px;"/>
    </g>
    <g transform="matrix(1.15474,-0.666596,-0.666596,-1.15474,508.967,1204.11)">
        <path d="M411.624,745.02L425.746,745.02" style="fill:none;fill-rule:nonzero;stroke:black;stroke-width:0.72px;"/>
    </g>
    <g transform="matrix(1.15479,-0.666511,-0.666511,-1.15479,525.777,1187.34)">
        <path d="M394.358,774.96L408.722,774.96" style="fill:none;fill-rule:nonzero;stroke:black;stroke-width:0.72px;"/>
    </g>
    <g transform="matrix(1.15468,0.666702,0.666702,-1.15468,-487.942,655.405)">
        <path d="M393.986,746.47L413.904,746.47" style="fill:none;fill-rule:nonzero;stroke:black;stroke-width:0.72px;"/>
    </g>
    <g transform="matrix(0,-1.33333,-1.33333,0,1479.87,569.955)">
        <path d="M385.36,761.41L405.28,761.41" style="fill:none;fill-rule:nonzero;stroke:black;stroke-width:0.72px;"/>
    </g>
    <g transform="matrix(0,1.33333,1.33333,0,-493.388,-468.585)">
        <path d="M403.505,734.105L418.275,734.105" style="fill:none;fill-rule:nonzero;stroke:black;stroke-width:0.72px;"/>
    </g>
    <g transform="matrix(0,1.33333,1.33333,0,-488.908,-473.065)">
        <path d="M406.865,734.105L421.635,734.105" style="fill:none;fill-rule:nonzero;stroke:black;stroke-width:0.72px;"/>
    </g>
    <g transform="matrix(-1.1545,-0.667007,-0.667007,1.1545,1424.83,-614.138)">
        <path d="M382.024,776.61L397.176,776.61" style="fill:none;fill-rule:nonzero;stroke:black;stroke-width:0.72px;"/>
    </g>
    <g transform="matrix(-1.15448,-0.667054,-0.667054,1.15448,1420.5,-606.213)">
        <path d="M382.154,773.215L395.366,773.215" style="fill:none;fill-rule:nonzero;stroke:black;stroke-width:0.72px;"/>
    </g>
    <g transform="matrix(1.15491,0.666297,0.666297,-1.15491,-503.146,637.503)">
        <path d="M416.656,774.895L430.764,774.895" style="fill:none;fill-rule:nonzero;stroke:black;stroke-width:0.72px;"/>
    </g>
    <g transform="matrix(1.15458,-0.666883,-0.666883,-1.15458,532.337,1210.35)">
        <path d="M428.852,774.98L443.288,774.98" style="fill:none;fill-rule:nonzero;stroke:black;stroke-width:0.72px;"/>
    </g>
    <g transform="matrix(1.15456,0.666913,0.666913,-1.15456,-480.524,630.862)">
        <path d="M433.678,745.08L448.032,745.08" style="fill:none;fill-rule:nonzero;stroke:black;stroke-width:0.72px;"/>
    </g>
    <g transform="matrix(1.15487,-0.666376,-0.666376,-1.15487,514.99,1227.19)">
        <path d="M446.102,745.105L460.568,745.105" style="fill:none;fill-rule:nonzero;stroke:black;stroke-width:0.72px;"/>
    </g>
    <g transform="matrix(0,1.33333,1.33333,0,-400.995,-400.485)">
        <path d="M388.56,673.92L451.44,673.92" style="fill:none;fill-rule:nonzero;stroke:black;stroke-width:0.72px;"/>
    </g>
    <g transform="matrix(-0.314133,1.2958,1.2958,0.314133,-208.156,-551.149)">
        <path d="M415.699,647.373L423.849,647.373L416.604,643.641L417.551,645.846L415.699,647.373Z" style="stroke:black;stroke-width:0.72px;"/>
    </g>
    <g transform="matrix(-1.07962,0.782437,0.782437,1.07962,421.704,-680.688)">
        <path d="M383.025,593.165L402.945,593.165" style="fill:none;fill-rule:nonzero;stroke:black;stroke-width:0.72px;"/>
    </g>
    <g transform="matrix(-0.410979,-1.26841,-1.26841,0.410979,1347.29,542.265)">
        <path d="M378.03,577.845L397.95,577.845" style="fill:none;fill-rule:nonzero;stroke:black;stroke-width:0.72px;"/>
    </g>
    <g transform="matrix(-1.0782,-0.784388,-0.784388,1.0782,1389.4,-51.4279)">
        <path d="M399.144,593.15L419.066,593.15" style="fill:none;fill-rule:nonzero;stroke:black;stroke-width:0.72px;"/>
    </g>
    <g transform="matrix(-1.33333,-0.00133802,-0.00133802,1.33333,1007.73,-457.014)">
        <path d="M391.06,568.36L410.99,568.36" style="fill:none;fill-rule:nonzero;stroke:black;stroke-width:0.72px;"/>
    </g>
    <g transform="matrix(0.412993,-1.26776,-1.26776,-0.412993,1051.19,1051.23)">
        <path d="M404.115,577.82L424.035,577.82" style="fill:none;fill-rule:nonzero;stroke:black;stroke-width:0.72px;"/>
    </g>
    <g transform="matrix(1.15468,-0.666702,-0.666702,-1.15468,404.942,1249.42)">
        <path d="M433.076,582.31L452.994,582.31" style="fill:none;fill-rule:nonzero;stroke:black;stroke-width:0.72px;"/>
    </g>
    <g transform="matrix(1.15468,-0.666702,-0.666702,-1.15468,421.782,1232.58)">
        <path d="M415.826,612.19L435.744,612.19" style="fill:none;fill-rule:nonzero;stroke:black;stroke-width:0.72px;"/>
    </g>
    <g transform="matrix(1.15468,0.666702,0.666702,-1.15468,-374.594,670.172)">
        <path d="M415.826,582.31L435.744,582.31" style="fill:none;fill-rule:nonzero;stroke:black;stroke-width:0.72px;"/>
    </g>
    <g transform="matrix(0,-1.33333,-1.33333,0,1290.11,817.955)">
        <path d="M407.2,597.25L427.12,597.25" style="fill:none;fill-rule:nonzero;stroke:black;stroke-width:0.72px;"/>
    </g>
    <g transform="matrix(1.15468,-0.666697,-0.666697,-1.15468,430.153,1240.95)">
        <path d="M433.445,620.77L447.845,620.77" style="fill:none;fill-rule:nonzero;stroke:black;stroke-width:0.72px;"/>
    </g>
    <g transform="matrix(1.15463,-0.666792,-0.666792,-1.15463,432.344,1239.79)">
        <path d="M431.637,624.16L447.953,624.16" style="fill:none;fill-rule:nonzero;stroke:black;stroke-width:0.72px;"/>
    </g>
    <g transform="matrix(1.1547,-0.666667,-0.666667,-1.1547,428.779,1242.88)">
        <path d="M435.045,618.16L450.645,618.16" style="fill:none;fill-rule:nonzero;stroke:black;stroke-width:0.72px;"/>
    </g>
    <g transform="matrix(1.15458,-0.666883,-0.666883,-1.15458,413.481,1257.82)">
        <path d="M450.692,590.9L465.128,590.9" style="fill:none;fill-rule:nonzero;stroke:black;stroke-width:0.72px;"/>
    </g>
    <g transform="matrix(1.15463,-0.666792,-0.666792,-1.15463,415.503,1256.63)">
        <path d="M448.887,594.28L465.203,594.28" style="fill:none;fill-rule:nonzero;stroke:black;stroke-width:0.72px;"/>
    </g>
    <g transform="matrix(1.15465,-0.666747,-0.666747,-1.15465,411.95,1259.67)">
        <path d="M452.311,588.22L467.669,588.22" style="fill:none;fill-rule:nonzero;stroke:black;stroke-width:0.72px;"/>
    </g>
    <g transform="matrix(1.33333,0,0,1.33333,-62.4346,-506.085)">
        <path d="M301.2,586.56L368.4,586.56" style="fill:none;fill-rule:nonzero;stroke:black;stroke-width:0.72px;"/>
    </g>
    <g transform="matrix(-1.2958,0.314133,0.314133,1.2958,555.614,-579.93)">
        <path d="M300.859,585.627L309.009,585.627L301.764,589.359L302.711,587.154L300.859,585.627Z" style="stroke:black;stroke-width:0.72px;"/>
    </g>
    <g transform="matrix(-1.07962,0.782437,0.782437,1.07962,-151.613,-494.781)">
        <path d="M145.425,593.165L165.345,593.165" style="fill:none;fill-rule:nonzero;stroke:black;stroke-width:0.72px;"/>
    </g>
    <g transform="matrix(-0.410979,-1.26841,-1.26841,0.410979,932.839,240.89)">
        <path d="M140.43,577.845L160.35,577.845" style="fill:none;fill-rule:nonzero;stroke:black;stroke-width:0.72px;"/>
    </g>
    <g transform="matrix(-1.0782,-0.784388,-0.784388,1.0782,816.415,-237.799)">
        <path d="M161.544,593.15L181.466,593.15" style="fill:none;fill-rule:nonzero;stroke:black;stroke-width:0.72px;"/>
    </g>
    <g transform="matrix(-1.33333,-0.00133802,-0.00133802,1.33333,374.126,-457.332)">
        <path d="M153.46,568.36L173.39,568.36" style="fill:none;fill-rule:nonzero;stroke:black;stroke-width:0.72px;"/>
    </g>
    <g transform="matrix(0.412993,-1.26776,-1.26776,-0.412993,832.52,750.012)">
        <path d="M166.515,577.82L186.435,577.82" style="fill:none;fill-rule:nonzero;stroke:black;stroke-width:0.72px;"/>
    </g>
    <g transform="matrix(1.15474,0.666596,0.666596,-1.15474,-435.244,813.215)">
        <path d="M195.864,613.64L209.986,613.64" style="fill:none;fill-rule:nonzero;stroke:black;stroke-width:0.72px;"/>
    </g>
    <g transform="matrix(1.15468,-0.666702,-0.666702,-1.15468,362.494,1091.01)">
        <path d="M195.476,582.31L215.394,582.31" style="fill:none;fill-rule:nonzero;stroke:black;stroke-width:0.72px;"/>
    </g>
    <g transform="matrix(1.15468,-0.666702,-0.666702,-1.15468,379.334,1074.17)">
        <path d="M178.226,612.19L198.144,612.19" style="fill:none;fill-rule:nonzero;stroke:black;stroke-width:0.72px;"/>
    </g>
    <g transform="matrix(1.15468,0.666702,0.666702,-1.15468,-417.042,828.58)">
        <path d="M178.226,582.31L198.144,582.31" style="fill:none;fill-rule:nonzero;stroke:black;stroke-width:0.72px;"/>
    </g>
    <g transform="matrix(0,-1.33333,-1.33333,0,973.312,501.155)">
        <path d="M169.6,597.25L189.52,597.25" style="fill:none;fill-rule:nonzero;stroke:black;stroke-width:0.72px;"/>
    </g>
    <g transform="matrix(0,-1.33333,-1.33333,0,1034.95,490.002)">
        <path d="M191.115,624.545L205.865,624.545" style="fill:none;fill-rule:nonzero;stroke:black;stroke-width:0.72px;"/>
    </g>
    <g transform="matrix(0,-1.33333,-1.33333,0,1030.47,485.522)">
        <path d="M187.755,624.545L202.505,624.545" style="fill:none;fill-rule:nonzero;stroke:black;stroke-width:0.72px;"/>
    </g>
    <g transform="matrix(1.15456,-0.666913,-0.666913,-1.15456,387.011,1098.5)">
        <path d="M217.918,613.58L232.272,613.58" style="fill:none;fill-rule:nonzero;stroke:black;stroke-width:0.72px;"/>
    </g>
    <g transform="matrix(1.15447,0.667067,0.667067,-1.15447,-429.22,789.855)">
        <path d="M230.339,613.55L244.811,613.55" style="fill:none;fill-rule:nonzero;stroke:black;stroke-width:0.72px;"/>
    </g>
    <g transform="matrix(1.15483,0.666449,0.666449,-1.15483,-411.111,807.71)">
        <path d="M212.208,582.05L227.332,582.05" style="fill:none;fill-rule:nonzero;stroke:black;stroke-width:0.72px;"/>
    </g>
    <g transform="matrix(1.15485,0.666413,0.666413,-1.15485,-413.207,806.564)">
        <path d="M214.017,585.445L227.203,585.445" style="fill:none;fill-rule:nonzero;stroke:black;stroke-width:0.72px;"/>
    </g>
    <g transform="matrix(1.15463,-0.666786,-0.666786,-1.15463,370.871,1099.31)">
        <path d="M213.111,590.83L227.269,590.83" style="fill:none;fill-rule:nonzero;stroke:black;stroke-width:0.72px;"/>
    </g>
    <g transform="matrix(1.15467,0.666726,0.666726,-1.15467,-413.081,790.918)">
        <path d="M235.201,590.87L249.519,590.87" style="fill:none;fill-rule:nonzero;stroke:black;stroke-width:0.72px;"/>
    </g>
    <g transform="matrix(1.15476,-0.666562,-0.666562,-1.15476,376.954,1122.42)">
        <path d="M247.589,590.915L262.091,590.915" style="fill:none;fill-rule:nonzero;stroke:black;stroke-width:0.72px;"/>
    </g>
    <g transform="matrix(0,1.33333,1.33333,0,-512.195,122.555)">
        <path d="M156.36,519.48L207.96,519.48" style="fill:none;fill-rule:nonzero;stroke:black;stroke-width:0.72px;"/>
    </g>
    <g transform="matrix(-0.314133,1.2958,1.2958,0.314133,-407.174,2.18711)">
        <path d="M177.859,498.573L186.009,498.573L178.764,494.841L179.711,497.046L177.859,498.573Z" style="stroke:black;stroke-width:0.72px;"/>
    </g>
    <g transform="matrix(-1.07962,0.782437,0.782437,1.07962,-22.8698,-111.567)">
        <path d="M147.105,433.805L167.025,433.805" style="fill:none;fill-rule:nonzero;stroke:black;stroke-width:0.72px;"/>
    </g>
    <g transform="matrix(-0.410979,-1.26841,-1.26841,0.410979,733.635,520.994)">
        <path d="M142.11,418.485L162.03,418.485" style="fill:none;fill-rule:nonzero;stroke:black;stroke-width:0.72px;"/>
    </g>
    <g transform="matrix(-1.0782,-0.784388,-0.784388,1.0782,695.466,147.821)">
        <path d="M163.224,433.79L183.146,433.79" style="fill:none;fill-rule:nonzero;stroke:black;stroke-width:0.72px;"/>
    </g>
    <g transform="matrix(-1.33333,-0.00133802,-0.00133802,1.33333,378.393,-32.3701)">
        <path d="M155.14,409L175.07,409" style="fill:none;fill-rule:nonzero;stroke:black;stroke-width:0.72px;"/>
    </g>
    <g transform="matrix(0.412993,-1.26776,-1.26776,-0.412993,632.036,898.807)">
        <path d="M168.195,418.46L188.115,418.46" style="fill:none;fill-rule:nonzero;stroke:black;stroke-width:0.72px;"/>
    </g>
    <g transform="matrix(1.15468,-0.666702,-0.666702,-1.15468,256.549,1120.6)">
        <path d="M197.156,422.95L217.074,422.95" style="fill:none;fill-rule:nonzero;stroke:black;stroke-width:0.72px;"/>
    </g>
    <g transform="matrix(1.15468,-0.666702,-0.666702,-1.15468,273.388,1103.76)">
        <path d="M179.906,452.83L199.824,452.83" style="fill:none;fill-rule:nonzero;stroke:black;stroke-width:0.72px;"/>
    </g>
    <g transform="matrix(1.15468,0.666702,0.666702,-1.15468,-310.496,855.931)">
        <path d="M179.906,422.95L199.824,422.95" style="fill:none;fill-rule:nonzero;stroke:black;stroke-width:0.72px;"/>
    </g>
    <g transform="matrix(0,-1.33333,-1.33333,0,763.072,715.875)">
        <path d="M171.28,437.89L191.2,437.89" style="fill:none;fill-rule:nonzero;stroke:black;stroke-width:0.72px;"/>
    </g>
    <g transform="matrix(0.666631,1.15472,1.15472,-0.666631,-435.742,523.653)">
        <path d="M189.864,442.87L224.366,442.87" style="fill:none;fill-rule:nonzero;stroke:black;stroke-width:0.72px;"/>
    </g>
    <g transform="matrix(0.666719,1.15467,1.15467,-0.666719,-435.738,528.183)">
        <path d="M190.556,441.19L217.854,441.19" style="fill:none;fill-rule:nonzero;stroke:black;stroke-width:0.72px;"/>
    </g>
    <g transform="matrix(0.34515,-1.28789,-1.28789,-0.34515,734.209,856.797)">
        <path d="M193.107,464.825L207.633,464.825" style="fill:none;fill-rule:nonzero;stroke:black;stroke-width:0.72px;"/>
    </g>
    <g transform="matrix(1.28776,0.345606,0.345606,-1.28776,-199.501,961.61)">
        <path d="M215.485,425.995L230.415,425.995" style="fill:none;fill-rule:nonzero;stroke:black;stroke-width:0.72px;"/>
    </g>
    <g transform="matrix(1.33333,0,0,1.33333,-62.4346,-83.0446)">
        <path d="M294.72,427.92L358.32,427.92" style="fill:none;fill-rule:nonzero;stroke:black;stroke-width:0.72px;"/>
    </g>
    <g transform="matrix(1.2958,0.314133,0.314133,-1.2958,-183.558,930.698)">
        <path d="M350.059,428.853L358.209,428.853L350.964,425.121L351.911,427.326L350.059,428.853Z" style="stroke:black;stroke-width:0.72px;"/>
    </g>
</svg>
