<?xml version="1.0" encoding="UTF-8" standalone="no"?>
<!DOCTYPE svg PUBLIC "-//W3C//DTD SVG 1.1//EN" "http://www.w3.org/Graphics/SVG/1.1/DTD/svg11.dtd">
<svg width="100%" height="100%" viewBox="0 0 530 570" version="1.1" xmlns="http://www.w3.org/2000/svg" xmlns:xlink="http://www.w3.org/1999/xlink" xml:space="preserve" xmlns:serif="http://www.serif.com/" style="fill-rule:evenodd;clip-rule:evenodd;stroke-linecap:round;stroke-linejoin:round;stroke-miterlimit:10;">
    <g transform="matrix(1.33333,0,0,1.33333,-100.768,-44.063)">
        <text x="94.8px" y="61.2px" style="font-family:'ArialMT', 'Arial', sans-serif;font-size:10px;">O</text>
    </g>
    <g transform="matrix(1.33333,0,0,1.33333,-100.768,-44.063)">
        <text x="189.36px" y="88.8px" style="font-family:'ArialMT', 'Arial', sans-serif;font-size:10px;">CH</text>
    </g>
    <g transform="matrix(1.33333,0,0,1.33333,-100.768,-44.063)">
        <text x="229.44px" y="88.32px" style="font-family:'ArialMT', 'Arial', sans-serif;font-size:10px;">CH</text>
        <text x="243.84px" y="90.96px" style="font-family:'ArialMT', 'Arial', sans-serif;font-size:8px;">2</text>
    </g>
    <g transform="matrix(0.0162671,-1.33323,1.33323,0.0162671,-100.768,-44.063)">
        <text x="-52.406px" y="101.447px" style="font-family:'ArialMT', 'Arial', sans-serif;font-size:10px;">:</text>
    </g>
    <g transform="matrix(1.33333,0,0,1.33333,-100.768,-44.063)">
        <text x="102.72px" y="60.24px" style="font-family:'ArialMT', 'Arial', sans-serif;font-size:10px;">:</text>
    </g>
    <g transform="matrix(1.33333,0,0,1.33333,-100.768,-44.063)">
        <text x="257.76px" y="114.24px" style="font-family:'ArialMT', 'Arial', sans-serif;font-size:18px;">+</text>
        <text x="282.96px" y="110.16px" style="font-family:'ArialMT', 'Arial', sans-serif;font-size:10px;">:</text>
        <text x="285.84px" y="111.12px" style="font-family:'ArialMT', 'Arial', sans-serif;font-size:10px;">C</text>
        <text x="293.049px" y="104.16px" style="font-family:'ArialMT', 'Arial', sans-serif;font-size:8px;">–</text>
        <text x="305.52px" y="111.12px" style="font-family:'ArialMT', 'Arial', sans-serif;font-size:10px;"><tspan x="305.52px " y="111.12px ">O</tspan></text>
        <text x="313.44px" y="104.16px" style="font-family:'ArialMT', 'Arial', sans-serif;font-size:8px;">+</text>
    </g>
    <g transform="matrix(1.33333,0,0,1.33333,-100.768,-44.063)">
        <text x="313.92px" y="110.64px" style="font-family:'ArialMT', 'Arial', sans-serif;font-size:10px;">:</text>
    </g>
    <g transform="matrix(1.33333,0,0,1.33333,-100.768,-44.063)">
        <text x="262.08px" y="213.6px" style="font-family:'ArialMT', 'Arial', sans-serif;font-size:10px;">CH</text>
        <text x="276.48px" y="216.24px" style="font-family:'ArialMT', 'Arial', sans-serif;font-size:8px;">2</text>
        <text x="175.92px" y="223.44px" style="font-family:'ArialMT', 'Arial', sans-serif;font-size:10px;">C</text>
    </g>
    <g transform="matrix(1.33333,0,0,1.33333,-100.768,-44.063)">
        <text x="164.4px" y="223.44px" style="font-family:'ArialMT', 'Arial', sans-serif;font-size:10px;">H</text>
        <text x="171.609px" y="226.08px" style="font-family:'ArialMT', 'Arial', sans-serif;font-size:8px;">2</text>
        <text x="183.12px" y="216.48px" style="font-family:'ArialMT', 'Arial', sans-serif;font-size:8px;">+</text>
    </g>
    <g transform="matrix(1.33333,0,0,1.33333,-100.768,-44.063)">
        <text x="438.72px" y="214.8px" style="font-family:'ArialMT', 'Arial', sans-serif;font-size:10px;">CH</text>
        <text x="453.12px" y="217.44px" style="font-family:'ArialMT', 'Arial', sans-serif;font-size:8px;">2</text>
    </g>
    <g transform="matrix(1.33333,0,0,1.33333,-100.768,-44.063)">
        <text x="352.8px" y="244.56px" style="font-family:'ArialMT', 'Arial', sans-serif;font-size:10px;">Br</text>
    </g>
    <g transform="matrix(1.33333,0,0,1.33333,-100.768,-44.063)">
        <text x="439.92px" y="323.04px" style="font-family:'ArialMT', 'Arial', sans-serif;font-size:10px;">CH</text>
        <text x="454.32px" y="325.68px" style="font-family:'ArialMT', 'Arial', sans-serif;font-size:8px;">2</text>
    </g>
    <g transform="matrix(1.33333,0,0,1.33333,-100.768,-44.063)">
        <text x="353.52px" y="352.8px" style="font-family:'ArialMT', 'Arial', sans-serif;font-size:10px;">O<tspan x="361.44px " y="352.8px ">H</tspan></text>
    </g>
    <g transform="matrix(-0.0186667,1.3332,-1.3332,-0.0186667,-100.768,-44.063)">
        <text x="348.376px" y="-360.593px" style="font-family:'ArialMT', 'Arial', sans-serif;font-size:10px;">:</text>
    </g>
    <g transform="matrix(1.33333,0,0,1.33333,-100.768,-44.063)">
        <text x="350.4px" y="352.32px" style="font-family:'ArialMT', 'Arial', sans-serif;font-size:10px;">:</text>
    </g>
    <g transform="matrix(1.33333,0,0,1.33333,-100.768,-44.063)">
        <text x="262.32px" y="332.88px" style="font-family:'ArialMT', 'Arial', sans-serif;font-size:10px;">O</text>
        <text x="270.24px" y="325.92px" style="font-family:'ArialMT', 'Arial', sans-serif;font-size:8px;">+</text>
        <text x="262.56px" y="352.8px" style="font-family:'ArialMT', 'Arial', sans-serif;font-size:10px;">H</text>
    </g>
    <g transform="matrix(1.33333,0,0,1.33333,-100.768,-44.063)">
        <text x="231.84px" y="336px" style="font-family:'ArialMT', 'Arial', sans-serif;font-size:18px;">+</text>
        <text x="137.04px" y="338.16px" style="font-family:'ArialMT', 'Arial', sans-serif;font-size:10px;">C</text>
    </g>
    <g transform="matrix(1.33333,0,0,1.33333,-100.768,-44.063)">
        <text x="125.52px" y="338.16px" style="font-family:'ArialMT', 'Arial', sans-serif;font-size:10px;">H</text>
        <text x="132.729px" y="340.8px" style="font-family:'ArialMT', 'Arial', sans-serif;font-size:8px;">2</text>
        <text x="144.24px" y="331.2px" style="font-family:'ArialMT', 'Arial', sans-serif;font-size:8px;">–</text>
    </g>
    <g transform="matrix(1.33333,0,0,1.33333,-100.768,-44.063)">
        <text x="188.64px" y="328.32px" style="font-family:'ArialMT', 'Arial', sans-serif;font-size:10px;">CH</text>
        <text x="203.04px" y="330.96px" style="font-family:'ArialMT', 'Arial', sans-serif;font-size:8px;">2</text>
    </g>
    <g transform="matrix(0.497348,1.2371,-1.2371,0.497348,-100.768,-44.063)">
        <text x="355.845px" y="-4.35px" style="font-family:'ArialMT', 'Arial', sans-serif;font-size:10px;">:</text>
    </g>
    <g transform="matrix(1.33333,0,0,1.33333,-100.768,-44.063)">
        <text x="135.36px" y="451.2px" style="font-family:'ArialMT', 'Arial', sans-serif;font-size:10px;">M</text>
        <text x="143.76px" y="451.2px" style="font-family:'ArialMT', 'Arial', sans-serif;font-size:10px;">g</text>
        <text x="149.28px" y="451.2px" style="font-family:'ArialMT', 'Arial', sans-serif;font-size:10px;">Br</text>
    </g>
    <g transform="matrix(1.33333,0,0,1.33333,-100.768,-44.063)">
        <text x="187.44px" y="421.44px" style="font-family:'ArialMT', 'Arial', sans-serif;font-size:10px;">CH</text>
        <text x="201.84px" y="424.08px" style="font-family:'ArialMT', 'Arial', sans-serif;font-size:8px;">2</text>
    </g>
    <g transform="matrix(0.65762,-1.15988,-1.15988,-0.65762,797.564,686.131)">
        <path d="M74.355,725.39L94.265,725.39" style="fill:none;fill-rule:nonzero;stroke:black;stroke-width:0.72px;"/>
    </g>
    <g transform="matrix(-0.675237,-1.14971,-1.14971,0.675237,962.833,-247.682)">
        <path d="M104.223,725.62L124.147,725.62" style="fill:none;fill-rule:nonzero;stroke:black;stroke-width:0.72px;"/>
    </g>
    <g transform="matrix(-0.675237,-1.14971,-1.14971,0.675237,883.001,-246.765)">
        <path d="M74.483,708.14L94.407,708.14" style="fill:none;fill-rule:nonzero;stroke:black;stroke-width:0.72px;"/>
    </g>
    <g transform="matrix(0.65762,-1.15988,-1.15988,-0.65762,798.101,732.439)">
        <path d="M104.365,708.37L124.275,708.37" style="fill:none;fill-rule:nonzero;stroke:black;stroke-width:0.72px;"/>
    </g>
    <g transform="matrix(-1.33329,0.0107092,0.0107092,1.33329,156.935,-788.218)">
        <path d="M89.49,699.63L109.41,699.63" style="fill:none;fill-rule:nonzero;stroke:black;stroke-width:0.72px;"/>
    </g>
    <g transform="matrix(0.421637,1.26491,1.26491,-0.421637,-962.76,291.78)">
        <path d="M76.109,743.5L96.031,743.5" style="fill:none;fill-rule:nonzero;stroke:black;stroke-width:0.72px;"/>
    </g>
    <g transform="matrix(0.422442,1.26464,1.26464,-0.422442,-961.07,287.398)">
        <path d="M81.811,744.565L96.709,744.565" style="fill:none;fill-rule:nonzero;stroke:black;stroke-width:0.72px;"/>
    </g>
    <g transform="matrix(-1.33329,0.0107092,0.0107092,1.33329,155.846,-880.214)">
        <path d="M89.22,734.13L109.14,734.13" style="fill:none;fill-rule:nonzero;stroke:black;stroke-width:0.72px;"/>
    </g>
    <g transform="matrix(-1.07258,0.792051,0.792051,1.07258,-483.058,-819.29)">
        <path d="M80.973,758.865L100.887,758.865" style="fill:none;fill-rule:nonzero;stroke:black;stroke-width:0.72px;"/>
    </g>
    <g transform="matrix(-0.402309,1.27119,1.27119,0.402309,-851.515,-354.867)">
        <path d="M102.186,743.705L122.104,743.705" style="fill:none;fill-rule:nonzero;stroke:black;stroke-width:0.72px;"/>
    </g>
    <g transform="matrix(-1.08493,-0.775048,-0.775048,1.08493,746.349,-673.978)">
        <path d="M97.084,758.99L117.006,758.99" style="fill:none;fill-rule:nonzero;stroke:black;stroke-width:0.72px;"/>
    </g>
    <g transform="matrix(-0.00996349,-1.3333,-1.3333,0.00996349,1063.84,175.34)">
        <path d="M93.205,772.16L107.925,772.16" style="fill:none;fill-rule:nonzero;stroke:black;stroke-width:0.72px;"/>
    </g>
    <g transform="matrix(-0.00994323,-1.3333,-1.3333,0.00994323,1059.3,170.896)">
        <path d="M89.83,772.145L104.58,772.145" style="fill:none;fill-rule:nonzero;stroke:black;stroke-width:0.72px;"/>
    </g>
    <g transform="matrix(1.33333,0,0,1.33333,-100.768,-874.783)">
        <path d="M135.12,732.48L169.2,732.48" style="fill:none;fill-rule:nonzero;stroke:black;stroke-width:0.72px;"/>
    </g>
    <g transform="matrix(1.33333,0,0,1.33333,-100.768,-882.463)">
        <path d="M135.12,735.36L169.2,735.36" style="fill:none;fill-rule:nonzero;stroke:black;stroke-width:0.72px;"/>
    </g>
    <g transform="matrix(1.33333,0,0,1.33333,-100.768,-878.623)">
        <path d="M164.64,730.32L172.56,733.92L164.64,737.52" style="fill:none;fill-rule:nonzero;stroke:black;stroke-width:0.72px;"/>
    </g>
    <g transform="matrix(-0.0364417,1.33284,1.33284,0.0364417,-811.221,-181.769)">
        <path d="M184.837,731.835L202.033,731.835" style="fill:none;fill-rule:nonzero;stroke:black;stroke-width:0.72px;"/>
    </g>
    <g transform="matrix(-0.659932,-1.15856,-1.15856,0.659932,1122.05,-116.315)">
        <path d="M188.169,714.585L208.091,714.585" style="fill:none;fill-rule:nonzero;stroke:black;stroke-width:0.72px;"/>
    </g>
    <g transform="matrix(-1.33331,-0.00803602,-0.00803602,1.33331,472.939,-802.094)">
        <path d="M203.06,705.87L222.97,705.87" style="fill:none;fill-rule:nonzero;stroke:black;stroke-width:0.72px;"/>
    </g>
    <g transform="matrix(-0.673949,1.15047,1.15047,0.673949,-464.996,-617.827)">
        <path d="M218.044,714.405L237.966,714.405" style="fill:none;fill-rule:nonzero;stroke:black;stroke-width:0.72px;"/>
    </g>
    <g transform="matrix(-0.0394373,-1.33275,-1.33275,0.0394373,1159.33,312.057)">
        <path d="M187.752,746.175L199.248,746.175" style="fill:none;fill-rule:nonzero;stroke:black;stroke-width:0.72px;"/>
    </g>
    <g transform="matrix(-0.0388628,-1.33277,-1.33277,0.0388628,1154.6,308.031)">
        <path d="M184.308,746.16L195.972,746.16" style="fill:none;fill-rule:nonzero;stroke:black;stroke-width:0.72px;"/>
    </g>
    <g transform="matrix(-0.0385465,-1.33278,-1.33278,0.0385465,1163.86,317.116)">
        <path d="M191.148,746.235L202.562,746.235" style="fill:none;fill-rule:nonzero;stroke:black;stroke-width:0.72px;"/>
    </g>
    <g transform="matrix(-0.659427,-1.15885,-1.15885,0.659427,1201.69,-115.165)">
        <path d="M218.157,731.655L238.073,731.655" style="fill:none;fill-rule:nonzero;stroke:black;stroke-width:0.72px;"/>
    </g>
    <g transform="matrix(0.673071,-1.15098,-1.15098,-0.673071,907.969,846.662)">
        <path d="M219.722,746.355L233.728,746.355" style="fill:none;fill-rule:nonzero;stroke:black;stroke-width:0.72px;"/>
    </g>
    <g transform="matrix(0.67391,-1.15049,-1.15049,-0.67391,909.773,851.656)">
        <path d="M223.378,746.22L237.702,746.22" style="fill:none;fill-rule:nonzero;stroke:black;stroke-width:0.72px;"/>
    </g>
    <g transform="matrix(1.33333,0,0,1.33333,-100.768,-988.383)">
        <path d="M105.36,765.36L107.76,765.84L108.96,766.32L110.88,767.76L111.84,768.72L112.56,769.68L113.28,770.88L113.76,771.84L114,773.04L114.24,774.48L114.24,775.2L114,776.16L114,777.36L113.52,778.56L112.56,780.48L111.84,781.44L111.12,782.16L110.16,782.88L109.44,783.6L108.24,784.08L107.28,784.32L106.08,784.8L103.44,784.8" style="fill:none;fill-rule:nonzero;stroke:black;stroke-width:0.48px;"/>
    </g>
    <g transform="matrix(-1.32817,-0.117192,-0.117192,1.32817,275.232,-949.107)">
        <path d="M103.287,768.114L111.479,768.114L104.103,764.331L105.347,766.609L103.287,768.114Z" style="stroke:black;stroke-width:0.48px;"/>
    </g>
    <g transform="matrix(1.33333,0,0,1.33333,-100.768,-900.383)">
        <path d="M90.48,737.52L92.16,736.32L93.84,735.6L96,735.36L97.2,735.36L98.16,735.6L99.36,736.08L100.32,736.56L101.28,737.28L102,738L102.72,738.96L103.2,739.92L103.44,740.88L103.92,742.08L103.92,744.24L103.68,745.2L102.24,748.08L101.52,748.8" style="fill:none;fill-rule:nonzero;stroke:black;stroke-width:0.48px;"/>
    </g>
    <g transform="matrix(-1.08498,0.774984,0.774984,1.08498,-452.587,-806.197)">
        <path d="M91.017,748.622L99.275,748.622L92.077,752.583L92.998,750.156L91.017,748.622Z" style="stroke:black;stroke-width:0.48px;"/>
    </g>
    <g transform="matrix(1.33333,0,0,1.33333,-100.768,-920.543)">
        <path d="M109.92,740.16L111.6,739.92L114,740.4L114.96,740.64L116.88,741.6L118.8,743.04L119.28,744L120,744.96L120.96,746.88L121.44,749.28L121.44,749.76L121.2,750.96L120.96,752.4L120.72,753.36L120,754.56L119.52,755.52L118.56,756.48L117.84,757.44L116.64,758.16L115.68,758.64L114.48,759.12L114,759.12L113.28,759.36" style="fill:none;fill-rule:nonzero;stroke:black;stroke-width:0.48px;"/>
    </g>
    <g transform="matrix(-1.31915,0.193992,0.193992,1.31915,66.4996,-913.576)">
        <path d="M113.515,744.34L121.763,744.34L114.619,740.296L115.478,742.838L113.515,744.34Z" style="stroke:black;stroke-width:0.48px;"/>
    </g>
    <g transform="matrix(1.33333,0,0,1.33333,-100.768,-966.303)">
        <path d="M88.56,776.16L86.88,775.44L84.48,773.04L83.52,771.6L82.8,769.92L82.32,768L82.32,767.28L82.56,766.08L82.56,764.88L83.04,763.68L84,761.76L84.72,761.04L85.44,760.08L86.16,759.36L88.08,758.4L89.28,757.92L90.24,757.68L91.44,757.44L92.16,757.44L95.52,758.16" style="fill:none;fill-rule:nonzero;stroke:black;stroke-width:0.48px;"/>
    </g>
    <g transform="matrix(1.21516,0.548782,0.548782,-1.21516,-516.3,936.51)">
        <path d="M87.588,777.247L95.751,777.247L88.512,773.451L89.57,775.772L87.588,777.247Z" style="stroke:black;stroke-width:0.48px;"/>
    </g>
    <g transform="matrix(1.33333,0,0,1.33333,-100.768,-881.183)">
        <path d="M294,734.88L304.56,734.88" style="fill:none;fill-rule:nonzero;stroke:black;stroke-width:0.72px;"/>
    </g>
    <g transform="matrix(1.33333,0,0,1.33333,-100.768,-890.143)">
        <path d="M298.32,738.24L304.56,738.24" style="fill:none;fill-rule:nonzero;stroke:black;stroke-width:0.72px;"/>
    </g>
    <g transform="matrix(1.33333,0,0,1.33333,-100.768,-872.223)">
        <path d="M294,731.52L304.56,731.52" style="fill:none;fill-rule:nonzero;stroke:black;stroke-width:0.72px;"/>
    </g>
    <g transform="matrix(0,1.33333,1.33333,0,-706.048,-100.223)">
        <path d="M197.64,669L232.44,669" style="fill:none;fill-rule:nonzero;stroke:black;stroke-width:0.72px;"/>
    </g>
    <g transform="matrix(0,1.33333,1.33333,0,-702.208,-104.063)">
        <path d="M200.52,669L235.32,669" style="fill:none;fill-rule:nonzero;stroke:black;stroke-width:0.72px;"/>
    </g>
    <g transform="matrix(1.33333,0,0,1.33333,-100.768,-660.703)">
        <path d="M220.08,648.24L216.48,656.16L212.88,648.24" style="fill:none;fill-rule:nonzero;stroke:black;stroke-width:0.72px;"/>
    </g>
    <g transform="matrix(-1.15468,-0.666702,-0.666702,1.15468,828.744,-345.386)">
        <path d="M195.526,627.36L215.444,627.36" style="fill:none;fill-rule:nonzero;stroke:black;stroke-width:0.72px;"/>
    </g>
    <g transform="matrix(-1.15468,0.666702,0.666702,1.15468,35.1374,-630.881)">
        <path d="M212.776,627.36L232.694,627.36" style="fill:none;fill-rule:nonzero;stroke:black;stroke-width:0.72px;"/>
    </g>
    <g transform="matrix(-1.15468,-0.666702,-0.666702,1.15468,914.58,-322.385)">
        <path d="M230.026,627.36L249.944,627.36" style="fill:none;fill-rule:nonzero;stroke:black;stroke-width:0.72px;"/>
    </g>
    <g transform="matrix(-1.15481,0.666483,0.666483,1.15481,116.16,-648.917)">
        <path d="M247.643,625.99L262.087,625.99" style="fill:none;fill-rule:nonzero;stroke:black;stroke-width:0.72px;"/>
    </g>
    <g transform="matrix(-1.15457,0.6669,0.6669,1.15457,112.933,-658.214)">
        <path d="M247.388,629.785L262.042,629.785" style="fill:none;fill-rule:nonzero;stroke:black;stroke-width:0.72px;"/>
    </g>
    <g transform="matrix(-1.15445,0.667107,0.667107,1.15445,-41.5025,-617.302)">
        <path d="M188.003,629.965L197.497,629.965" style="fill:none;fill-rule:nonzero;stroke:black;stroke-width:0.72px;"/>
    </g>
    <g transform="matrix(1.33333,0,0,1.33333,-100.768,-588.703)">
        <path d="M298.08,625.2L332.16,625.2" style="fill:none;fill-rule:nonzero;stroke:black;stroke-width:0.72px;"/>
    </g>
    <g transform="matrix(1.33333,0,0,1.33333,-100.768,-596.383)">
        <path d="M298.08,628.08L332.16,628.08" style="fill:none;fill-rule:nonzero;stroke:black;stroke-width:0.72px;"/>
    </g>
    <g transform="matrix(1.33333,0,0,1.33333,-100.768,-592.543)">
        <path d="M327.6,623.04L335.52,626.64L327.6,630.24" style="fill:none;fill-rule:nonzero;stroke:black;stroke-width:0.72px;"/>
    </g>
    <g transform="matrix(-1.15468,-0.666702,-0.666702,1.15468,1267.43,-224.634)">
        <path d="M372.166,626.16L392.084,626.16" style="fill:none;fill-rule:nonzero;stroke:black;stroke-width:0.72px;"/>
    </g>
    <g transform="matrix(-1.15468,0.666702,0.666702,1.15468,475.42,-745.662)">
        <path d="M389.416,626.16L409.334,626.16" style="fill:none;fill-rule:nonzero;stroke:black;stroke-width:0.72px;"/>
    </g>
    <g transform="matrix(-1.15468,-0.666702,-0.666702,1.15468,1353.26,-201.633)">
        <path d="M406.666,626.16L426.584,626.16" style="fill:none;fill-rule:nonzero;stroke:black;stroke-width:0.72px;"/>
    </g>
    <g transform="matrix(-1.15481,0.666483,0.666483,1.15481,556.465,-763.659)">
        <path d="M424.283,624.79L438.727,624.79" style="fill:none;fill-rule:nonzero;stroke:black;stroke-width:0.72px;"/>
    </g>
    <g transform="matrix(-1.15457,0.6669,0.6669,1.15457,553.196,-773.03)">
        <path d="M424.028,628.585L438.682,628.585" style="fill:none;fill-rule:nonzero;stroke:black;stroke-width:0.72px;"/>
    </g>
    <g transform="matrix(-1.15468,0.666702,0.666702,1.15468,389.584,-722.66)">
        <path d="M354.916,626.16L374.834,626.16" style="fill:none;fill-rule:nonzero;stroke:black;stroke-width:0.72px;"/>
    </g>
    <g transform="matrix(0,1.33333,1.33333,0,-444.208,-214.943)">
        <path d="M348.9,613.83L363.6,613.83" style="fill:none;fill-rule:nonzero;stroke:black;stroke-width:0.72px;"/>
    </g>
    <g transform="matrix(0,1.33333,1.33333,0,-329.248,-210.463)">
        <path d="M379.92,569.04L415.44,569.04" style="fill:none;fill-rule:nonzero;stroke:black;stroke-width:0.72px;"/>
    </g>
    <g transform="matrix(0,1.33333,1.33333,0,-325.408,-214.303)">
        <path d="M382.8,569.04L418.32,569.04" style="fill:none;fill-rule:nonzero;stroke:black;stroke-width:0.72px;"/>
    </g>
    <g transform="matrix(1.33333,0,0,1.33333,-100.768,-393.183)">
        <path d="M402.72,547.92L399.12,555.84L395.52,547.92" style="fill:none;fill-rule:nonzero;stroke:black;stroke-width:0.72px;"/>
    </g>
    <g transform="matrix(-1.15468,-0.666702,-0.666702,1.15468,1198.25,45.4688)">
        <path d="M373.366,517.92L393.284,517.92" style="fill:none;fill-rule:nonzero;stroke:black;stroke-width:0.72px;"/>
    </g>
    <g transform="matrix(-1.15468,0.666702,0.666702,1.15468,550.57,-477.159)">
        <path d="M390.616,517.92L410.534,517.92" style="fill:none;fill-rule:nonzero;stroke:black;stroke-width:0.72px;"/>
    </g>
    <g transform="matrix(-1.15468,-0.666702,-0.666702,1.15468,1284.08,68.47)">
        <path d="M407.866,517.92L427.784,517.92" style="fill:none;fill-rule:nonzero;stroke:black;stroke-width:0.72px;"/>
    </g>
    <g transform="matrix(-1.15481,0.666483,0.666483,1.15481,631.591,-495.142)">
        <path d="M425.483,516.55L439.927,516.55" style="fill:none;fill-rule:nonzero;stroke:black;stroke-width:0.72px;"/>
    </g>
    <g transform="matrix(-1.15457,0.6669,0.6669,1.15457,628.367,-504.54)">
        <path d="M425.228,520.345L439.882,520.345" style="fill:none;fill-rule:nonzero;stroke:black;stroke-width:0.72px;"/>
    </g>
    <g transform="matrix(-1.15468,0.666702,0.666702,1.15468,464.733,-454.158)">
        <path d="M356.116,517.92L376.034,517.92" style="fill:none;fill-rule:nonzero;stroke:black;stroke-width:0.72px;"/>
    </g>
    <g transform="matrix(0,1.33333,1.33333,0,-298.288,-72.223)">
        <path d="M350.1,505.59L364.8,505.59" style="fill:none;fill-rule:nonzero;stroke:black;stroke-width:0.72px;"/>
    </g>
    <g transform="matrix(1.33333,0,0,1.33333,-100.768,-256.863)">
        <path d="M375.84,482.88L379.2,485.28L380.64,486.72L382.08,488.4L383.28,490.32L384.72,494.16L385.44,496.32L385.68,498.48L385.68,499.68L384.96,504.72L384.48,506.16L383.76,507.84L383.04,509.28L382.08,510.48L381.12,511.92L379.92,513.12L378.72,514.08L377.52,515.28L376.08,516L374.64,516.96L373.2,517.44L369.84,518.4L368.16,518.64L364.8,518.64L363.12,518.4L361.68,518.16L360,517.68L357.12,516.24" style="fill:none;fill-rule:nonzero;stroke:black;stroke-width:0.48px;"/>
    </g>
    <g transform="matrix(-1.23529,-0.501836,-0.501836,1.23529,1133.19,-55.1419)">
        <path d="M376.122,514.075L384.412,514.075L377.172,517.869L378.165,515.423L376.122,514.075Z" style="stroke:black;stroke-width:0.48px;"/>
    </g>
    <g transform="matrix(1.33333,0,0,1.33333,-100.768,-289.823)">
        <path d="M397.2,524.16L395.28,522.72L393.84,520.8L392.64,518.64L391.68,516.24L391.68,514.8L391.44,513.6L391.92,510.24L392.4,508.8L393.12,507.36L393.84,506.16L394.8,504.96L396,503.76L397.2,502.8L397.92,502.56L398.64,502.08" style="fill:none;fill-rule:nonzero;stroke:black;stroke-width:0.48px;"/>
    </g>
    <g transform="matrix(1.23529,-0.501836,-0.501836,-1.23529,199.357,1225.55)">
        <path d="M391.288,522.476L399.577,522.476L392.246,518.46L393.462,520.816L391.288,522.476Z" style="stroke:black;stroke-width:0.48px;"/>
    </g>
    <g transform="matrix(1.33333,0,0,1.33333,-100.768,-287.903)">
        <path d="M295.44,512.4L329.52,512.4" style="fill:none;fill-rule:nonzero;stroke:black;stroke-width:0.72px;"/>
    </g>
    <g transform="matrix(1.33333,0,0,1.33333,-100.768,-295.583)">
        <path d="M295.44,515.28L329.52,515.28" style="fill:none;fill-rule:nonzero;stroke:black;stroke-width:0.72px;"/>
    </g>
    <g transform="matrix(1.33333,0,0,1.33333,-100.768,-291.743)">
        <path d="M300,510.24L292.08,513.84L300,517.44" style="fill:none;fill-rule:nonzero;stroke:black;stroke-width:0.72px;"/>
    </g>
    <g transform="matrix(0.670276,-1.15261,-1.15261,-0.670276,688.124,1045.41)">
        <path d="M270.257,526.665L278.273,526.665" style="fill:none;fill-rule:nonzero;stroke:black;stroke-width:0.72px;"/>
    </g>
    <g transform="matrix(1.33333,0.00401605,0.00401605,-1.33333,-102.895,1077.42)">
        <path d="M256.36,530.16L276.28,530.16" style="fill:none;fill-rule:nonzero;stroke:black;stroke-width:0.72px;"/>
    </g>
    <g transform="matrix(0.663381,1.15659,1.15659,-0.663381,-532.964,426.831)">
        <path d="M252.876,524.175L266.744,524.175" style="fill:none;fill-rule:nonzero;stroke:black;stroke-width:0.72px;"/>
    </g>
    <g transform="matrix(-0.00416665,1.33333,1.33333,0.00416665,-415.382,50.6894)">
        <path d="M261.445,503.04L271.045,503.04" style="fill:none;fill-rule:nonzero;stroke:black;stroke-width:0.72px;"/>
    </g>
    <g transform="matrix(-1.15469,0.666693,0.666693,1.15469,-61.7867,-305.802)">
        <path d="M148.87,515.195L158.57,515.195" style="fill:none;fill-rule:nonzero;stroke:black;stroke-width:0.72px;"/>
    </g>
    <g transform="matrix(-1.15468,-0.666702,-0.666702,1.15468,655.376,-85.9222)">
        <path d="M156.586,512.64L176.504,512.64" style="fill:none;fill-rule:nonzero;stroke:black;stroke-width:0.72px;"/>
    </g>
    <g transform="matrix(-1.15481,0.666483,0.666483,1.15481,9.89006,-314.531)">
        <path d="M174.203,511.27L188.647,511.27" style="fill:none;fill-rule:nonzero;stroke:black;stroke-width:0.72px;"/>
    </g>
    <g transform="matrix(-1.15457,0.6669,0.6669,1.15457,6.72892,-323.825)">
        <path d="M173.948,515.065L188.602,515.065" style="fill:none;fill-rule:nonzero;stroke:black;stroke-width:0.72px;"/>
    </g>
    <g transform="matrix(0,1.33333,1.33333,0,-504.608,234.337)">
        <path d="M148.56,468L181.68,468" style="fill:none;fill-rule:nonzero;stroke:black;stroke-width:0.72px;"/>
    </g>
    <g transform="matrix(0,1.33333,1.33333,0,-500.768,230.497)">
        <path d="M151.44,468L184.56,468" style="fill:none;fill-rule:nonzero;stroke:black;stroke-width:0.72px;"/>
    </g>
    <g transform="matrix(1.33333,0,0,1.33333,-100.768,-126.943)">
        <path d="M170.16,448.08L166.56,456L162.96,448.08" style="fill:none;fill-rule:nonzero;stroke:black;stroke-width:0.72px;"/>
    </g>
    <g transform="matrix(-1.15468,0.666702,0.666702,1.15468,-12.0751,-63.9896)">
        <path d="M138.106,419.52L158.024,419.52" style="fill:none;fill-rule:nonzero;stroke:black;stroke-width:0.72px;"/>
    </g>
    <g transform="matrix(1.15468,0.666702,0.666702,-1.15468,-350.929,893.332)">
        <path d="M155.356,419.52L175.274,419.52" style="fill:none;fill-rule:nonzero;stroke:black;stroke-width:0.72px;"/>
    </g>
    <g transform="matrix(0,1.33333,1.33333,0,-457.768,349.657)">
        <path d="M132.09,407.19L146.79,407.19" style="fill:none;fill-rule:nonzero;stroke:black;stroke-width:0.72px;"/>
    </g>
    <g transform="matrix(1.1547,-0.666669,-0.666669,-1.1547,210.198,1123.94)">
        <path d="M172.97,418.16L187.45,418.16" style="fill:none;fill-rule:nonzero;stroke:black;stroke-width:0.72px;"/>
    </g>
    <g transform="matrix(1.15479,-0.666507,-0.666507,-1.15479,212.607,1123.17)">
        <path d="M172.718,421.945L187.382,421.945" style="fill:none;fill-rule:nonzero;stroke:black;stroke-width:0.72px;"/>
    </g>
</svg>
