<?xml version="1.0" encoding="UTF-8" standalone="no"?>
<!DOCTYPE svg PUBLIC "-//W3C//DTD SVG 1.1//EN" "http://www.w3.org/Graphics/SVG/1.1/DTD/svg11.dtd">
<svg width="100%" height="100%" viewBox="0 0 730 390" version="1.1" xmlns="http://www.w3.org/2000/svg" xmlns:xlink="http://www.w3.org/1999/xlink" xml:space="preserve" xmlns:serif="http://www.serif.com/" style="fill-rule:evenodd;clip-rule:evenodd;stroke-linecap:round;stroke-linejoin:round;stroke-miterlimit:10;">
    <g transform="matrix(1.33333,0,0,1.33333,-43.8666,-63.0774)">
        <text x="68.16px" y="94.32px" style="font-family:'ArialMT', 'Arial', sans-serif;font-size:10px;">O</text>
    </g>
    <g transform="matrix(1.33333,0,0,1.33333,-43.8666,-63.0774)">
        <text x="48.48px" y="132.24px" style="font-family:'ArialMT', 'Arial', sans-serif;font-size:10px;">N</text>
    </g>
    <g transform="matrix(1.33333,0,0,1.33333,-43.8666,-63.0774)">
        <text x="52.08px" y="62.88px" style="font-family:'ArialMT', 'Arial', sans-serif;font-size:10px;">O</text>
    </g>
    <g transform="matrix(1.33333,0,0,1.33333,-43.8666,-63.0774)">
        <text x="102.72px" y="98.16px" style="font-family:'ArialMT', 'Arial', sans-serif;font-size:10px;">CH</text>
        <text x="117.12px" y="100.8px" style="font-family:'ArialMT', 'Arial', sans-serif;font-size:8px;">3</text>
    </g>
    <g transform="matrix(1.33333,0,0,1.33333,-43.8666,-63.0774)">
        <text x="150.96px" y="117.6px" style="font-family:'ArialMT', 'Arial', sans-serif;font-size:10px;">Br</text>
    </g>
    <g transform="matrix(1.33333,0,0,1.33333,-43.8666,-63.0774)">
        <text x="195.84px" y="117.6px" style="font-family:'ArialMT', 'Arial', sans-serif;font-size:10px;">Br</text>
    </g>
    <g transform="matrix(1.33333,0,0,1.33333,-43.8666,-63.0774)">
        <text x="267.36px" y="147.12px" style="font-family:'ArialMT', 'Arial', sans-serif;font-size:10px;">N</text>
    </g>
    <g transform="matrix(1.33333,0,0,1.33333,-43.8666,-63.0774)">
        <text x="281.04px" y="84.24px" style="font-family:'ArialMT', 'Arial', sans-serif;font-size:10px;">O</text>
    </g>
    <g transform="matrix(1.33333,0,0,1.33333,-43.8666,-63.0774)">
        <text x="247.68px" y="75.36px" style="font-family:'ArialMT', 'Arial', sans-serif;font-size:10px;">O</text>
    </g>
    <g transform="matrix(1.33333,0,0,1.33333,-43.8666,-63.0774)">
        <text x="305.52px" y="59.76px" style="font-family:'ArialMT', 'Arial', sans-serif;font-size:10px;">CH</text>
        <text x="319.92px" y="62.4px" style="font-family:'ArialMT', 'Arial', sans-serif;font-size:8px;">3</text>
    </g>
    <g transform="matrix(1.33333,0,0,1.33333,-43.8666,-63.0774)">
        <text x="519.36px" y="85.2px" style="font-family:'ArialMT', 'Arial', sans-serif;font-size:10px;">O</text>
    </g>
    <g transform="matrix(1.33333,0,0,1.33333,-43.8666,-63.0774)">
        <text x="486px" y="76.32px" style="font-family:'ArialMT', 'Arial', sans-serif;font-size:10px;">O</text>
    </g>
    <g transform="matrix(1.33333,0,0,1.33333,-43.8666,-63.0774)">
        <text x="543.84px" y="60.72px" style="font-family:'ArialMT', 'Arial', sans-serif;font-size:10px;">CH</text>
        <text x="558.24px" y="63.36px" style="font-family:'ArialMT', 'Arial', sans-serif;font-size:8px;">3</text>
    </g>
    <g transform="matrix(1.33333,0,0,1.33333,-43.8666,-63.0774)">
        <text x="486px" y="143.04px" style="font-family:'ArialMT', 'Arial', sans-serif;font-size:10px;">O</text>
    </g>
    <g transform="matrix(1.33333,0,0,1.33333,-43.8666,-63.0774)">
        <text x="531.36px" y="179.76px" style="font-family:'ArialMT', 'Arial', sans-serif;font-size:10px;">M</text>
        <text x="539.76px" y="179.76px" style="font-family:'ArialMT', 'Arial', sans-serif;font-size:10px;">eNH</text>
        <text x="559.68px" y="182.4px" style="font-family:'ArialMT', 'Arial', sans-serif;font-size:6px;">2</text>
    </g>
    <g transform="matrix(1.33333,0,0,1.33333,-43.8666,-63.0774)">
        <text x="519.36px" y="255.36px" style="font-family:'ArialMT', 'Arial', sans-serif;font-size:10px;">O</text>
    </g>
    <g transform="matrix(1.33333,0,0,1.33333,-43.8666,-63.0774)">
        <text x="486px" y="246.48px" style="font-family:'ArialMT', 'Arial', sans-serif;font-size:10px;">O</text>
    </g>
    <g transform="matrix(1.33333,0,0,1.33333,-43.8666,-63.0774)">
        <text x="543.84px" y="230.88px" style="font-family:'ArialMT', 'Arial', sans-serif;font-size:10px;">CH</text>
        <text x="558.24px" y="233.52px" style="font-family:'ArialMT', 'Arial', sans-serif;font-size:8px;">3</text>
    </g>
    <g transform="matrix(1.33333,0,0,1.33333,-43.8666,-63.0774)">
        <text x="486.24px" y="313.2px" style="font-family:'ArialMT', 'Arial', sans-serif;font-size:10px;">N</text>
        <text x="491.52px" y="332.4px" style="font-family:'ArialMT', 'Arial', sans-serif;font-size:10px;">CH</text>
        <text x="505.92px" y="335.04px" style="font-family:'ArialMT', 'Arial', sans-serif;font-size:8px;">3</text>
    </g>
    <g transform="matrix(1.33333,0,0,1.33333,-43.8666,-63.0774)">
        <text x="432.96px" y="273.6px" style="font-family:'ArialMT', 'Arial', sans-serif;font-size:10px;">t</text>
        <text x="435.84px" y="268.56px" style="font-family:'ArialMT', 'Arial', sans-serif;font-size:6px;">o</text>
        <text x="378.72px" y="281.28px" style="font-family:'ArialMT', 'Arial', sans-serif;font-size:10px;">T<tspan x="384.96px " y="281.28px ">M</tspan></text>
    </g>
    <g transform="matrix(1.33333,0,0,1.33333,-43.8666,-63.0774)">
        <text x="160.32px" y="81.6px" style="font-family:'ArialMT', 'Arial', sans-serif;font-size:10px;">M</text>
        <text x="168.72px" y="81.6px" style="font-family:'ArialMT', 'Arial', sans-serif;font-size:10px;">e</text>
        <text x="174.24px" y="81.6px" style="font-family:'ArialMT', 'Arial', sans-serif;font-size:10px;">O</text>
        <text x="182.16px" y="81.6px" style="font-family:'ArialMT', 'Arial', sans-serif;font-size:10px;">Na</text>
    </g>
    <g transform="matrix(1.33333,0,0,1.33333,-43.8666,-63.0774)">
        <text x="378.72px" y="81.36px" style="font-family:'ArialMT', 'Arial', sans-serif;font-size:10px;">(</text>
        <text x="382.08px" y="81.36px" style="font-family:'ArialMT', 'Arial', sans-serif;font-size:10px;">i<tspan x="384.48px " y="81.36px ">-</tspan></text>
        <text x="387.988px" y="81.36px" style="font-family:'ArialMT', 'Arial', sans-serif;font-size:10px;">Pr)</text>
        <text x="401.428px" y="84px" style="font-family:'ArialMT', 'Arial', sans-serif;font-size:6px;">2</text>
        <text x="405.028px" y="81.36px" style="font-family:'ArialMT', 'Arial', sans-serif;font-size:10px;">A</text>
        <text x="411.748px" y="81.36px" style="font-family:'ArialMT', 'Arial', sans-serif;font-size:10px;">l<tspan x="414.148px " y="81.36px ">H</tspan></text>
    </g>
    <g transform="matrix(-1.07962,0.782437,0.782437,1.07962,-520.93,-805.355)">
        <path d="M37.905,757.325L57.825,757.325" style="fill:none;fill-rule:nonzero;stroke:black;stroke-width:0.72px;"/>
    </g>
    <g transform="matrix(-0.410979,-1.26841,-1.26841,0.410979,972.081,-180.429)">
        <path d="M32.91,742.005L52.83,742.005" style="fill:none;fill-rule:nonzero;stroke:black;stroke-width:0.72px;"/>
    </g>
    <g transform="matrix(-1.07815,-0.784456,-0.784456,1.07815,700.054,-722.706)">
        <path d="M54.596,759.07L68.534,759.07" style="fill:none;fill-rule:nonzero;stroke:black;stroke-width:0.72px;"/>
    </g>
    <g transform="matrix(0.411091,1.26838,1.26838,-0.411091,-919.864,329.152)">
        <path d="M40.948,725.665L55.382,725.665" style="fill:none;fill-rule:nonzero;stroke:black;stroke-width:0.72px;"/>
    </g>
    <g transform="matrix(0.41111,1.26837,1.26837,-0.41111,-917.346,324.441)">
        <path d="M43.745,726.14L59.345,726.14" style="fill:none;fill-rule:nonzero;stroke:black;stroke-width:0.72px;"/>
    </g>
    <g transform="matrix(0.41111,1.26837,1.26837,-0.41111,-920.613,334.455)">
        <path d="M37.355,724.07L52.955,724.07" style="fill:none;fill-rule:nonzero;stroke:black;stroke-width:0.72px;"/>
    </g>
    <g transform="matrix(0.000908884,-1.33333,-1.33333,-0.000908884,1060.24,109.663)">
        <path d="M50.28,770.505L64.95,770.505" style="fill:none;fill-rule:nonzero;stroke:black;stroke-width:0.72px;"/>
    </g>
    <g transform="matrix(0.000908884,-1.33333,-1.33333,-0.000908884,1055.76,105.183)">
        <path d="M46.92,770.505L61.59,770.505" style="fill:none;fill-rule:nonzero;stroke:black;stroke-width:0.72px;"/>
    </g>
    <g transform="matrix(1.21864,-0.541004,-0.541004,-1.21864,375.05,1017.96)">
        <path d="M76.419,756.6L90.861,756.6" style="fill:none;fill-rule:nonzero;stroke:black;stroke-width:0.72px;"/>
    </g>
    <g transform="matrix(1.07823,0.78434,0.78434,-1.07823,-611.821,791.499)">
        <path d="M88.877,755.34L103.123,755.34" style="fill:none;fill-rule:nonzero;stroke:black;stroke-width:0.72px;"/>
    </g>
    <g transform="matrix(1.33333,0,0,1.33333,-43.8666,-946.917)">
        <path d="M139.92,752.4L214.8,752.4" style="fill:none;fill-rule:nonzero;stroke:black;stroke-width:0.72px;"/>
    </g>
    <g transform="matrix(1.2958,0.314133,0.314133,-1.2958,-272.307,965.011)">
        <path d="M206.539,753.333L214.689,753.333L207.444,749.601L208.391,751.806L206.539,753.333Z" style="stroke:black;stroke-width:0.72px;"/>
    </g>
    <g transform="matrix(1.33333,0,0,1.33333,-43.8666,-928.357)">
        <path d="M169.44,745.44L189.36,745.44" style="fill:none;fill-rule:nonzero;stroke:black;stroke-width:0.72px;"/>
    </g>
    <g transform="matrix(-0.666529,1.15478,1.15478,0.666529,-565.826,-609.776)">
        <path d="M158.278,738.995L173.162,738.995" style="fill:none;fill-rule:nonzero;stroke:black;stroke-width:0.72px;"/>
    </g>
    <g transform="matrix(0.666796,1.15463,1.15463,-0.666796,-769.118,343.978)">
        <path d="M185.896,739.44L199.754,739.44" style="fill:none;fill-rule:nonzero;stroke:black;stroke-width:0.72px;"/>
    </g>
    <g transform="matrix(-1.15572,-0.664905,-0.664905,1.15572,1076.82,-620.278)">
        <path d="M242.034,742.175L261.946,742.175" style="fill:none;fill-rule:nonzero;stroke:black;stroke-width:0.72px;"/>
    </g>
    <g transform="matrix(-0.00133869,-1.33333,-1.33333,0.00133869,1263.86,400.082)">
        <path d="M233.41,737.18L253.33,737.18" style="fill:none;fill-rule:nonzero;stroke:black;stroke-width:0.72px;"/>
    </g>
    <g transform="matrix(1.15364,-0.668497,-0.668497,-1.15364,490.899,1096.37)">
        <path d="M242.037,732.215L261.963,732.215" style="fill:none;fill-rule:nonzero;stroke:black;stroke-width:0.72px;"/>
    </g>
    <g transform="matrix(0.343342,-1.28837,-1.28837,-0.343342,1178.88,659.202)">
        <path d="M253.224,746.835L273.146,746.835" style="fill:none;fill-rule:nonzero;stroke:black;stroke-width:0.72px;"/>
    </g>
    <g transform="matrix(0.346631,1.28749,1.28749,-0.346631,-720.92,2.68846)">
        <path d="M253.247,727.59L273.173,727.59" style="fill:none;fill-rule:nonzero;stroke:black;stroke-width:0.72px;"/>
    </g>
    <g transform="matrix(0.347256,1.28732,1.28732,-0.347256,-695.112,13.8266)">
        <path d="M260.419,710.945L274.971,710.945" style="fill:none;fill-rule:nonzero;stroke:black;stroke-width:0.72px;"/>
    </g>
    <g transform="matrix(0.347223,1.28733,1.28733,-0.347223,-692.432,8.9987)">
        <path d="M263.37,711.435L278.73,711.435" style="fill:none;fill-rule:nonzero;stroke:black;stroke-width:0.72px;"/>
    </g>
    <g transform="matrix(0.346893,1.28742,1.28742,-0.346893,-697.092,18.6032)">
        <path d="M257.143,710.03L271.787,710.03" style="fill:none;fill-rule:nonzero;stroke:black;stroke-width:0.72px;"/>
    </g>
    <g transform="matrix(1.28744,-0.346792,-0.346792,-1.28744,231.661,1119.33)">
        <path d="M265.495,758.39L280.335,758.39" style="fill:none;fill-rule:nonzero;stroke:black;stroke-width:0.72px;"/>
    </g>
    <g transform="matrix(-0.944627,-0.940987,-0.940987,0.944627,1270.19,-431.888)">
        <path d="M254.424,762.82L269.076,762.82" style="fill:none;fill-rule:nonzero;stroke:black;stroke-width:0.72px;"/>
    </g>
    <g transform="matrix(-0.944208,-0.941408,-0.941408,0.944208,1262.92,-427.87)">
        <path d="M252.355,760.315L266.645,760.315" style="fill:none;fill-rule:nonzero;stroke:black;stroke-width:0.72px;"/>
    </g>
    <g transform="matrix(0.342924,-1.28848,-1.28848,-0.342924,1238.69,664.444)">
        <path d="M280.945,773.845L295.525,773.845" style="fill:none;fill-rule:nonzero;stroke:black;stroke-width:0.72px;"/>
    </g>
    <g transform="matrix(1.2875,-0.346599,-0.346599,-1.2875,241.092,1126.66)">
        <path d="M289.853,782.835L304.817,782.835" style="fill:none;fill-rule:nonzero;stroke:black;stroke-width:0.72px;"/>
    </g>
    <g transform="matrix(1.33333,0,0,1.33333,-43.8666,-943.717)">
        <path d="M341.28,751.2L456.96,751.2" style="fill:none;fill-rule:nonzero;stroke:black;stroke-width:0.72px;"/>
    </g>
    <g transform="matrix(1.2958,0.314133,0.314133,-1.2958,-262.841,888.985)">
        <path d="M448.699,752.133L456.849,752.133L449.604,748.401L450.551,750.606L448.699,752.133Z" style="stroke:black;stroke-width:0.72px;"/>
    </g>
    <g transform="matrix(-1.15572,-0.664905,-0.664905,1.15572,1669.38,-459.428)">
        <path d="M480.354,741.215L500.266,741.215" style="fill:none;fill-rule:nonzero;stroke:black;stroke-width:0.72px;"/>
    </g>
    <g transform="matrix(-0.00133869,-1.33333,-1.33333,0.00133869,1580.66,719.123)">
        <path d="M471.73,736.22L491.65,736.22" style="fill:none;fill-rule:nonzero;stroke:black;stroke-width:0.72px;"/>
    </g>
    <g transform="matrix(1.15364,-0.668497,-0.668497,-1.15364,533.081,1255.86)">
        <path d="M480.357,731.255L500.283,731.255" style="fill:none;fill-rule:nonzero;stroke:black;stroke-width:0.72px;"/>
    </g>
    <g transform="matrix(0.343342,-1.28837,-1.28837,-0.343342,1413.58,967.196)">
        <path d="M491.544,745.875L511.466,745.875" style="fill:none;fill-rule:nonzero;stroke:black;stroke-width:0.72px;"/>
    </g>
    <g transform="matrix(0.346631,1.28749,1.28749,-0.346631,-484.533,-303.198)">
        <path d="M491.567,726.63L511.493,726.63" style="fill:none;fill-rule:nonzero;stroke:black;stroke-width:0.72px;"/>
    </g>
    <g transform="matrix(1.28744,-0.346792,-0.346792,-1.28744,242.264,1202.02)">
        <path d="M503.815,757.43L518.655,757.43" style="fill:none;fill-rule:nonzero;stroke:black;stroke-width:0.72px;"/>
    </g>
    <g transform="matrix(-0.944627,-0.940987,-0.940987,0.944627,1812.17,-205.445)">
        <path d="M492.744,761.86L507.396,761.86" style="fill:none;fill-rule:nonzero;stroke:black;stroke-width:0.72px;"/>
    </g>
    <g transform="matrix(-0.944208,-0.941408,-0.941408,0.944208,1804.8,-201.327)">
        <path d="M490.675,759.355L504.965,759.355" style="fill:none;fill-rule:nonzero;stroke:black;stroke-width:0.72px;"/>
    </g>
    <g transform="matrix(0.342924,-1.28848,-1.28848,-0.342924,1473.49,972.466)">
        <path d="M519.265,772.885L533.845,772.885" style="fill:none;fill-rule:nonzero;stroke:black;stroke-width:0.72px;"/>
    </g>
    <g transform="matrix(1.2875,-0.346599,-0.346599,-1.2875,251.684,1209.3)">
        <path d="M528.173,781.875L543.137,781.875" style="fill:none;fill-rule:nonzero;stroke:black;stroke-width:0.72px;"/>
    </g>
    <g transform="matrix(-0.94128,0.944336,0.944336,0.94128,419.581,-1032.59)">
        <path d="M492.956,712.375L506.044,712.375" style="fill:none;fill-rule:nonzero;stroke:black;stroke-width:0.72px;"/>
    </g>
    <g transform="matrix(-0.941421,0.944195,0.944195,0.941421,409.918,-1030.49)">
        <path d="M488.271,713.105L502.689,713.105" style="fill:none;fill-rule:nonzero;stroke:black;stroke-width:0.72px;"/>
    </g>
    <g transform="matrix(0,1.33333,1.33333,0,-231.067,-526.757)">
        <path d="M500.4,665.04L548.88,665.04" style="fill:none;fill-rule:nonzero;stroke:black;stroke-width:0.72px;"/>
    </g>
    <g transform="matrix(-0.314133,1.2958,1.2958,0.314133,-15.0198,-682.567)">
        <path d="M520.339,645.693L528.489,645.693L521.244,641.961L522.191,644.166L520.339,645.693Z" style="stroke:black;stroke-width:0.72px;"/>
    </g>
    <g transform="matrix(-1.15572,-0.664905,-0.664905,1.15572,1556.24,-35.8918)">
        <path d="M480.354,571.055L500.266,571.055" style="fill:none;fill-rule:nonzero;stroke:black;stroke-width:0.72px;"/>
    </g>
    <g transform="matrix(-0.00133869,-1.33333,-1.33333,0.00133869,1353.78,946.231)">
        <path d="M471.73,566.06L491.65,566.06" style="fill:none;fill-rule:nonzero;stroke:black;stroke-width:0.72px;"/>
    </g>
    <g transform="matrix(1.15364,-0.668497,-0.668497,-1.15364,419.33,1286.44)">
        <path d="M480.357,561.095L500.283,561.095" style="fill:none;fill-rule:nonzero;stroke:black;stroke-width:0.72px;"/>
    </g>
    <g transform="matrix(0.343342,-1.28837,-1.28837,-0.343342,1194.35,1135.65)">
        <path d="M491.544,575.715L511.466,575.715" style="fill:none;fill-rule:nonzero;stroke:black;stroke-width:0.72px;"/>
    </g>
    <g transform="matrix(0.346631,1.28749,1.28749,-0.346631,-265.454,-135.301)">
        <path d="M491.567,556.47L511.493,556.47" style="fill:none;fill-rule:nonzero;stroke:black;stroke-width:0.72px;"/>
    </g>
    <g transform="matrix(1.28744,-0.346792,-0.346792,-1.28744,183.254,1209.83)">
        <path d="M503.815,587.27L518.655,587.27" style="fill:none;fill-rule:nonzero;stroke:black;stroke-width:0.72px;"/>
    </g>
    <g transform="matrix(-0.944627,-0.940987,-0.940987,0.944627,1652.06,182.173)">
        <path d="M492.744,591.7L507.396,591.7" style="fill:none;fill-rule:nonzero;stroke:black;stroke-width:0.72px;"/>
    </g>
    <g transform="matrix(-0.944208,-0.941408,-0.941408,0.944208,1644.61,186.219)">
        <path d="M490.675,589.195L504.965,589.195" style="fill:none;fill-rule:nonzero;stroke:black;stroke-width:0.72px;"/>
    </g>
    <g transform="matrix(0.342924,-1.28848,-1.28848,-0.342924,1254.24,1140.99)">
        <path d="M519.265,602.725L533.845,602.725" style="fill:none;fill-rule:nonzero;stroke:black;stroke-width:0.72px;"/>
    </g>
    <g transform="matrix(1.2875,-0.346599,-0.346599,-1.2875,192.706,1217.1)">
        <path d="M528.173,611.715L543.137,611.715" style="fill:none;fill-rule:nonzero;stroke:black;stroke-width:0.72px;"/>
    </g>
    <g transform="matrix(-0.941355,0.944261,0.944261,0.941355,580.029,-644.773)">
        <path d="M492.376,541.975L506.144,541.975" style="fill:none;fill-rule:nonzero;stroke:black;stroke-width:0.72px;"/>
    </g>
    <g transform="matrix(-0.941421,0.944195,0.944195,0.941421,570.583,-643.414)">
        <path d="M488.271,542.945L502.689,542.945" style="fill:none;fill-rule:nonzero;stroke:black;stroke-width:0.72px;"/>
    </g>
    <g transform="matrix(0.346527,1.28752,1.28752,-0.346527,-231.176,-91.0098)">
        <path d="M488.067,523.08L497.263,523.08" style="fill:none;fill-rule:nonzero;stroke:black;stroke-width:0.72px;"/>
    </g>
    <g transform="matrix(-1.33333,0,0,1.33333,1111.01,-447.717)">
        <path d="M407.52,565.2L458.64,565.2" style="fill:none;fill-rule:nonzero;stroke:black;stroke-width:0.72px;"/>
    </g>
    <g transform="matrix(-1.2958,-0.314133,-0.314133,1.2958,1215.52,-297.244)">
        <path d="M407.179,566.133L415.329,566.133L408.084,562.401L409.031,564.606L407.179,566.133Z" style="stroke:black;stroke-width:0.72px;"/>
    </g>
</svg>
