<?xml version="1.0" encoding="UTF-8" standalone="no"?>
<!DOCTYPE svg PUBLIC "-//W3C//DTD SVG 1.1//EN" "http://www.w3.org/Graphics/SVG/1.1/DTD/svg11.dtd">
<svg width="100%" height="100%" viewBox="0 0 570 80" version="1.1" xmlns="http://www.w3.org/2000/svg" xmlns:xlink="http://www.w3.org/1999/xlink" xml:space="preserve" xmlns:serif="http://www.serif.com/" style="fill-rule:evenodd;clip-rule:evenodd;stroke-linecap:round;stroke-linejoin:round;stroke-miterlimit:10;">
    <g transform="matrix(1.33333,0,0,1.33333,-82.8918,-82.3928)">
        <text x="130.8px" y="98.16px" style="font-family:'ArialMT', 'Arial', sans-serif;font-size:10px;">H</text>
    </g>
    <g transform="matrix(1.33333,0,0,1.33333,-82.8918,-82.3928)">
        <text x="230.64px" y="106.8px" style="font-family:'ArialMT', 'Arial', sans-serif;font-size:10px;">CH</text>
        <text x="245.04px" y="109.44px" style="font-family:'ArialMT', 'Arial', sans-serif;font-size:8px;">2</text>
    </g>
    <g transform="matrix(1.33333,0,0,1.33333,-82.8918,-82.3928)">
        <text x="255.84px" y="81.84px" style="font-family:'ArialMT', 'Arial', sans-serif;font-size:10px;">CH</text>
    </g>
    <g transform="matrix(1.33333,0,0,1.33333,-82.8918,-82.3928)">
        <text x="382.8px" y="74.88px" style="font-family:'ArialMT', 'Arial', sans-serif;font-size:10px;">CH</text>
    </g>
    <g transform="matrix(1.33333,0,0,1.33333,-82.8918,-82.3928)">
        <text x="369.6px" y="116.16px" style="font-family:'ArialMT', 'Arial', sans-serif;font-size:10px;">Br</text>
    </g>
    <g transform="matrix(1.33333,0,0,1.33333,-82.8918,-82.3928)">
        <text x="409.2px" y="97.92px" style="font-family:'ArialMT', 'Arial', sans-serif;font-size:18px;">+</text>
        <text x="436.32px" y="94.56px" style="font-family:'ArialMT', 'Arial', sans-serif;font-size:10px;">B</text>
        <text x="443.012px" y="94.56px" style="font-family:'ArialMT', 'Arial', sans-serif;font-size:10px;">u</text>
        <text x="448.769px" y="97.2px" style="font-family:'ArialMT', 'Arial', sans-serif;font-size:8px;">3</text>
        <text x="453.327px" y="94.56px" style="font-family:'ArialMT', 'Arial', sans-serif;font-size:10px;">S</text>
        <text x="460.044px" y="94.56px" style="font-family:'ArialMT', 'Arial', sans-serif;font-size:10px;">uH</text>
    </g>
    <g transform="matrix(-1.07962,0.782437,0.782437,1.07962,-493.091,-855.312)">
        <path d="M66.705,760.685L86.625,760.685" style="fill:none;fill-rule:nonzero;stroke:black;stroke-width:0.72px;"/>
    </g>
    <g transform="matrix(-0.410979,-1.26841,-1.26841,0.410979,987.554,-169.075)">
        <path d="M61.71,745.365L81.63,745.365" style="fill:none;fill-rule:nonzero;stroke:black;stroke-width:0.72px;"/>
    </g>
    <g transform="matrix(-1.0782,-0.784388,-0.784388,1.0782,737.523,-721.434)">
        <path d="M82.824,760.67L102.746,760.67" style="fill:none;fill-rule:nonzero;stroke:black;stroke-width:0.72px;"/>
    </g>
    <g transform="matrix(-1.33333,-0.00133802,-0.00133802,1.33333,143.973,-922.066)">
        <path d="M74.74,735.88L94.67,735.88" style="fill:none;fill-rule:nonzero;stroke:black;stroke-width:0.72px;"/>
    </g>
    <g transform="matrix(0.412993,-1.26776,-1.26776,-0.412993,951.988,478.13)">
        <path d="M87.795,745.34L107.715,745.34" style="fill:none;fill-rule:nonzero;stroke:black;stroke-width:0.72px;"/>
    </g>
    <g transform="matrix(1.26841,-0.410979,-0.410979,-1.26841,235.743,1036.3)">
        <path d="M100.355,757.88L120.275,757.88" style="fill:none;fill-rule:nonzero;stroke:black;stroke-width:0.72px;"/>
    </g>
    <g transform="matrix(1.26845,-0.410863,-0.410863,-1.26845,234.356,1036.86)">
        <path d="M102.554,754.605L119.656,754.605" style="fill:none;fill-rule:nonzero;stroke:black;stroke-width:0.72px;"/>
    </g>
    <g transform="matrix(0.989834,0.893313,0.893313,-0.989834,-715.733,668.84)">
        <path d="M118.046,756.415L131.584,756.415" style="fill:none;fill-rule:nonzero;stroke:black;stroke-width:0.72px;"/>
    </g>
    <g transform="matrix(1.33333,0,0,1.33333,-82.8918,-925.593)">
        <path d="M87.12,731.52L89.04,730.8L91.2,730.32L93.36,730.08L94.56,730.08L95.52,730.32L96.72,730.56L97.68,730.8L99.36,731.52L100.8,732.24L102,733.2L103.2,734.4L104.16,735.6L105.12,737.04L105.84,738.48L106.32,739.68L106.56,740.64L106.8,741.84L106.8,744.24" style="fill:none;fill-rule:nonzero;stroke:black;stroke-width:0.48px;"/>
    </g>
    <g transform="matrix(-0.193992,1.31915,1.31915,0.193992,-889.52,-220.911)">
        <path d="M101.627,735.585L109.874,735.585L102.695,731.618L103.568,733.93L101.627,735.585Z" style="stroke:black;stroke-width:0.48px;"/>
    </g>
    <g transform="matrix(1.33333,0,0,1.33333,-82.8918,-973.913)">
        <path d="M126,747.12L127.2,748.56L128.64,751.92L128.64,755.04L128.4,756.24L128.16,757.2L127.2,759.12L126.48,760.08L125.76,760.8L123.84,762.24L121.92,763.2L120.72,763.44L117.84,763.44L116.88,763.2L115.68,762.96L113.76,762L112.8,761.28L112.08,760.56" style="fill:none;fill-rule:nonzero;stroke:black;stroke-width:0.48px;"/>
    </g>
    <g transform="matrix(-0.902742,-0.981241,-0.981241,0.902742,909.301,-516.436)">
        <path d="M112.575,747.795L120.728,747.795L113.408,744.093L114.503,746.346L112.575,747.795Z" style="stroke:black;stroke-width:0.48px;"/>
    </g>
    <g transform="matrix(1.33333,0,0,1.33333,-82.8918,-959.193)">
        <path d="M153.84,749.76L187.92,749.76" style="fill:none;fill-rule:nonzero;stroke:black;stroke-width:0.72px;"/>
    </g>
    <g transform="matrix(1.33333,0,0,1.33333,-82.8918,-966.873)">
        <path d="M153.84,752.64L187.92,752.64" style="fill:none;fill-rule:nonzero;stroke:black;stroke-width:0.72px;"/>
    </g>
    <g transform="matrix(1.33333,0,0,1.33333,-82.8918,-963.033)">
        <path d="M183.36,747.6L191.28,751.2L183.36,754.8" style="fill:none;fill-rule:nonzero;stroke:black;stroke-width:0.72px;"/>
    </g>
    <g transform="matrix(1.33333,0,0,1.33333,-82.8918,-946.713)">
        <path d="M246.6,744L246.75,744.01L246.91,744.04L247.06,744.1L247.21,744.19L247.36,744.32L247.49,744.47L247.58,744.62L247.64,744.77L247.67,744.93L247.67,745.23L247.64,745.39L247.58,745.54L247.49,745.69L247.36,745.84L247.21,745.97L247.06,746.06L246.91,746.12L246.75,746.15L246.6,746.16L246.45,746.15L246.29,746.12L246.14,746.06L245.99,745.97L245.84,745.84L245.71,745.69L245.62,745.54L245.56,745.39L245.53,745.23L245.53,744.93L245.56,744.77L245.62,744.62L245.71,744.47L245.84,744.32L245.99,744.19L246.14,744.1L246.29,744.04L246.45,744.01L246.6,744"/>
    </g>
    <g transform="matrix(-1.07962,0.782437,0.782437,1.07962,-158.492,-972.132)">
        <path d="M206.385,763.805L226.305,763.805" style="fill:none;fill-rule:nonzero;stroke:black;stroke-width:0.72px;"/>
    </g>
    <g transform="matrix(-0.410979,-1.26841,-1.26841,0.410979,1235.16,2.65454)">
        <path d="M201.39,748.485L221.31,748.485" style="fill:none;fill-rule:nonzero;stroke:black;stroke-width:0.72px;"/>
    </g>
    <g transform="matrix(-1.0782,-0.784388,-0.784388,1.0782,1076.81,-619.394)">
        <path d="M222.504,763.79L242.426,763.79" style="fill:none;fill-rule:nonzero;stroke:black;stroke-width:0.72px;"/>
    </g>
    <g transform="matrix(-1.33333,-0.00174749,-0.00174749,1.33333,510.533,-930.111)">
        <path d="M214.42,739L229.68,739" style="fill:none;fill-rule:nonzero;stroke:black;stroke-width:0.72px;"/>
    </g>
    <g transform="matrix(1.26849,-0.410756,-0.410756,-1.26849,245.45,1092.61)">
        <path d="M240.153,760.255L255.247,760.255" style="fill:none;fill-rule:nonzero;stroke:black;stroke-width:0.72px;"/>
    </g>
    <g transform="matrix(1.26836,-0.411142,-0.411142,-1.26836,247.226,1092.38)">
        <path d="M240.257,763.785L255.143,763.785" style="fill:none;fill-rule:nonzero;stroke:black;stroke-width:0.72px;"/>
    </g>
    <g transform="matrix(1.26843,-0.410929,-0.410929,-1.26843,244.35,1093.25)">
        <path d="M242.38,757.06L255.1,757.06" style="fill:none;fill-rule:nonzero;stroke:black;stroke-width:0.72px;"/>
    </g>
    <g transform="matrix(1.33333,0,0,1.33333,-82.8918,-957.273)">
        <path d="M285.12,749.04L319.2,749.04" style="fill:none;fill-rule:nonzero;stroke:black;stroke-width:0.72px;"/>
    </g>
    <g transform="matrix(1.33333,0,0,1.33333,-82.8918,-964.953)">
        <path d="M285.12,751.92L319.2,751.92" style="fill:none;fill-rule:nonzero;stroke:black;stroke-width:0.72px;"/>
    </g>
    <g transform="matrix(1.33333,0,0,1.33333,-82.8918,-961.113)">
        <path d="M314.64,746.88L322.56,750.48L314.64,754.08" style="fill:none;fill-rule:nonzero;stroke:black;stroke-width:0.72px;"/>
    </g>
    <g transform="matrix(-1.07962,0.782437,0.782437,1.07962,142.411,-1088.26)">
        <path d="M333.345,770.765L353.265,770.765" style="fill:none;fill-rule:nonzero;stroke:black;stroke-width:0.72px;"/>
    </g>
    <g transform="matrix(-0.410979,-1.26841,-1.26841,0.410979,1465.44,151.552)">
        <path d="M328.35,755.445L348.27,755.445" style="fill:none;fill-rule:nonzero;stroke:black;stroke-width:0.72px;"/>
    </g>
    <g transform="matrix(-1.0782,-0.784388,-0.784388,1.0782,1388.44,-536.593)">
        <path d="M349.464,770.75L369.386,770.75" style="fill:none;fill-rule:nonzero;stroke:black;stroke-width:0.72px;"/>
    </g>
    <g transform="matrix(-1.33333,-0.00133802,-0.00133802,1.33333,855.026,-948.589)">
        <path d="M341.38,745.96L361.31,745.96" style="fill:none;fill-rule:nonzero;stroke:black;stroke-width:0.72px;"/>
    </g>
    <g transform="matrix(1.26849,-0.410756,-0.410756,-1.26849,256.542,1144.31)">
        <path d="M367.113,767.215L382.207,767.215" style="fill:none;fill-rule:nonzero;stroke:black;stroke-width:0.72px;"/>
    </g>
    <g transform="matrix(1.26836,-0.411142,-0.411142,-1.26836,258.337,1144.13)">
        <path d="M367.217,770.745L382.103,770.745" style="fill:none;fill-rule:nonzero;stroke:black;stroke-width:0.72px;"/>
    </g>
    <g transform="matrix(1.26843,-0.410929,-0.410929,-1.26843,255.451,1144.97)">
        <path d="M369.34,764.02L382.06,764.02" style="fill:none;fill-rule:nonzero;stroke:black;stroke-width:0.72px;"/>
    </g>
    <g transform="matrix(0.782256,1.07975,1.07975,-0.782256,-681.033,237.688)">
        <path d="M358.485,740.415L372.155,740.415" style="fill:none;fill-rule:nonzero;stroke:black;stroke-width:0.72px;"/>
    </g>
</svg>
