<?xml version="1.0" encoding="UTF-8" standalone="no"?>
<!DOCTYPE svg PUBLIC "-//W3C//DTD SVG 1.1//EN" "http://www.w3.org/Graphics/SVG/1.1/DTD/svg11.dtd">
<svg width="100%" height="100%" viewBox="0 0 340 200" version="1.1" xmlns="http://www.w3.org/2000/svg" xmlns:xlink="http://www.w3.org/1999/xlink" xml:space="preserve" xmlns:serif="http://www.serif.com/" style="fill-rule:evenodd;clip-rule:evenodd;stroke-linecap:round;stroke-linejoin:round;stroke-miterlimit:10;">
    <g transform="matrix(1.33333,0,0,1.33333,-129.395,-117.277)">
        <text x="102.72px" y="128.88px" style="font-family:'ArialMT', 'Arial', sans-serif;font-size:10px;">R</text>
        <text x="110.16px" y="121.92px" style="font-family:'ArialMT', 'Arial', sans-serif;font-size:8px;">1</text>
    </g>
    <g transform="matrix(1.33333,0,0,1.33333,-129.395,-117.277)">
        <text x="188.88px" y="118.8px" style="font-family:'ArialMT', 'Arial', sans-serif;font-size:10px;">R</text>
        <text x="196.32px" y="111.84px" style="font-family:'ArialMT', 'Arial', sans-serif;font-size:8px;">2</text>
    </g>
    <g transform="matrix(1.33333,0,0,1.33333,-129.395,-117.277)">
        <text x="119.52px" y="98.88px" style="font-family:'ArialMT', 'Arial', sans-serif;font-size:10px;">O</text>
    </g>
    <g transform="matrix(1.33333,0,0,1.33333,-129.395,-117.277)">
        <text x="171.36px" y="148.8px" style="font-family:'ArialMT', 'Arial', sans-serif;font-size:10px;">O</text>
    </g>
    <g transform="matrix(1.33333,0,0,1.33333,-129.395,-117.277)">
        <text x="238.56px" y="129.12px" style="font-family:'ArialMT', 'Arial', sans-serif;font-size:10px;">R</text>
        <text x="246px" y="122.16px" style="font-family:'ArialMT', 'Arial', sans-serif;font-size:8px;">1</text>
    </g>
    <g transform="matrix(1.33333,0,0,1.33333,-129.395,-117.277)">
        <text x="324.72px" y="119.04px" style="font-family:'ArialMT', 'Arial', sans-serif;font-size:10px;">R</text>
        <text x="332.16px" y="112.08px" style="font-family:'ArialMT', 'Arial', sans-serif;font-size:8px;">2</text>
    </g>
    <g transform="matrix(1.33333,0,0,1.33333,-129.395,-117.277)">
        <text x="255.36px" y="99.12px" style="font-family:'ArialMT', 'Arial', sans-serif;font-size:10px;">O<tspan x="263.28px " y="99.12px ">H</tspan></text>
    </g>
    <g transform="matrix(1.33333,0,0,1.33333,-129.395,-117.277)">
        <text x="307.2px" y="149.04px" style="font-family:'ArialMT', 'Arial', sans-serif;font-size:10px;">O</text>
    </g>
    <g transform="matrix(1.33333,0,0,1.33333,-129.395,-117.277)">
        <text x="99.84px" y="212.16px" style="font-family:'ArialMT', 'Arial', sans-serif;font-size:10px;">R</text>
        <text x="107.28px" y="205.2px" style="font-family:'ArialMT', 'Arial', sans-serif;font-size:8px;">1</text>
    </g>
    <g transform="matrix(1.33333,0,0,1.33333,-129.395,-117.277)">
        <text x="186px" y="202.08px" style="font-family:'ArialMT', 'Arial', sans-serif;font-size:10px;">R</text>
        <text x="193.44px" y="195.12px" style="font-family:'ArialMT', 'Arial', sans-serif;font-size:8px;">2</text>
    </g>
    <g transform="matrix(1.33333,0,0,1.33333,-129.395,-117.277)">
        <text x="116.64px" y="182.16px" style="font-family:'ArialMT', 'Arial', sans-serif;font-size:10px;">O</text>
    </g>
    <g transform="matrix(1.33333,0,0,1.33333,-129.395,-117.277)">
        <text x="168.48px" y="232.08px" style="font-family:'ArialMT', 'Arial', sans-serif;font-size:10px;">O</text>
    </g>
    <g transform="matrix(1.33333,0,0,1.33333,-129.395,-117.277)">
        <text x="233.76px" y="222.48px" style="font-family:'ArialMT', 'Arial', sans-serif;font-size:10px;">R</text>
        <text x="241.2px" y="215.52px" style="font-family:'ArialMT', 'Arial', sans-serif;font-size:8px;">1</text>
    </g>
    <g transform="matrix(1.33333,0,0,1.33333,-129.395,-117.277)">
        <text x="250.56px" y="192.48px" style="font-family:'ArialMT', 'Arial', sans-serif;font-size:10px;">O</text>
    </g>
    <g transform="matrix(1.33333,0,0,1.33333,-129.395,-117.277)">
        <text x="319.92px" y="212.4px" style="font-family:'ArialMT', 'Arial', sans-serif;font-size:10px;">CH</text>
        <text x="334.32px" y="215.04px" style="font-family:'ArialMT', 'Arial', sans-serif;font-size:8px;">2</text>
    </g>
    <g transform="matrix(-1.15494,0.666256,0.666256,1.15494,-314.893,-877.675)">
        <path d="M114.812,724.735L124.198,724.735" style="fill:none;fill-rule:nonzero;stroke:black;stroke-width:0.48px;"/>
    </g>
    <g transform="matrix(-1.15468,-0.666702,-0.666702,1.15468,680.934,-703.177)">
        <path d="M122.236,722.1L142.154,722.1" style="fill:none;fill-rule:nonzero;stroke:black;stroke-width:0.48px;"/>
    </g>
    <g transform="matrix(-1.15468,0.666702,0.666702,1.15468,-238.999,-890.947)">
        <path d="M139.486,722.1L159.404,722.1" style="fill:none;fill-rule:nonzero;stroke:black;stroke-width:0.48px;"/>
    </g>
    <g transform="matrix(-1.15468,-0.666702,-0.666702,1.15468,766.77,-680.176)">
        <path d="M156.736,722.1L176.654,722.1" style="fill:none;fill-rule:nonzero;stroke:black;stroke-width:0.48px;"/>
    </g>
    <g transform="matrix(-1.15488,0.66635,0.66635,1.15488,-157.759,-909.135)">
        <path d="M174.347,720.755L188.893,720.755" style="fill:none;fill-rule:nonzero;stroke:black;stroke-width:0.48px;"/>
    </g>
    <g transform="matrix(0,-1.33333,-1.33333,0,1016.25,192.363)">
        <path d="M117.39,734.46L132.15,734.46" style="fill:none;fill-rule:nonzero;stroke:black;stroke-width:0.48px;"/>
    </g>
    <g transform="matrix(0,-1.33333,-1.33333,0,1013.05,189.163)">
        <path d="M114.99,734.46L129.75,734.46" style="fill:none;fill-rule:nonzero;stroke:black;stroke-width:0.48px;"/>
    </g>
    <g transform="matrix(0,1.33333,1.33333,0,-843.475,-173.117)">
        <path d="M166.68,709.68L181.56,709.68" style="fill:none;fill-rule:nonzero;stroke:black;stroke-width:0.48px;"/>
    </g>
    <g transform="matrix(0,1.33333,1.33333,0,-840.275,-176.317)">
        <path d="M169.08,709.68L183.96,709.68" style="fill:none;fill-rule:nonzero;stroke:black;stroke-width:0.48px;"/>
    </g>
    <g transform="matrix(-1.15494,0.666256,0.666256,1.15494,23.2741,-967.582)">
        <path d="M250.652,724.495L260.038,724.495" style="fill:none;fill-rule:nonzero;stroke:black;stroke-width:0.48px;"/>
    </g>
    <g transform="matrix(-1.15468,-0.666702,-0.666702,1.15468,1018.75,-612.015)">
        <path d="M258.076,721.86L277.994,721.86" style="fill:none;fill-rule:nonzero;stroke:black;stroke-width:0.48px;"/>
    </g>
    <g transform="matrix(-1.15468,0.666702,0.666702,1.15468,99.1327,-980.915)">
        <path d="M275.326,721.86L295.244,721.86" style="fill:none;fill-rule:nonzero;stroke:black;stroke-width:0.48px;"/>
    </g>
    <g transform="matrix(-1.15468,-0.666702,-0.666702,1.15468,1104.58,-589.014)">
        <path d="M292.576,721.86L312.494,721.86" style="fill:none;fill-rule:nonzero;stroke:black;stroke-width:0.48px;"/>
    </g>
    <g transform="matrix(-1.15488,0.66635,0.66635,1.15488,180.4,-999.054)">
        <path d="M310.187,720.515L324.733,720.515" style="fill:none;fill-rule:nonzero;stroke:black;stroke-width:0.48px;"/>
    </g>
    <g transform="matrix(0,-1.33333,-1.33333,0,1195.45,372.203)">
        <path d="M252.03,734.22L266.79,734.22" style="fill:none;fill-rule:nonzero;stroke:black;stroke-width:0.48px;"/>
    </g>
    <g transform="matrix(0,1.33333,1.33333,0,-662.035,-353.917)">
        <path d="M302.52,709.44L317.4,709.44" style="fill:none;fill-rule:nonzero;stroke:black;stroke-width:0.48px;"/>
    </g>
    <g transform="matrix(0,1.33333,1.33333,0,-658.835,-357.117)">
        <path d="M304.92,709.44L319.8,709.44" style="fill:none;fill-rule:nonzero;stroke:black;stroke-width:0.48px;"/>
    </g>
    <g transform="matrix(-1.15494,0.666256,0.666256,1.15494,-266.573,-668.533)">
        <path d="M111.932,641.455L121.318,641.455" style="fill:none;fill-rule:nonzero;stroke:black;stroke-width:0.48px;"/>
    </g>
    <g transform="matrix(-1.15468,-0.666702,-0.666702,1.15468,618.246,-497.895)">
        <path d="M119.356,638.82L139.274,638.82" style="fill:none;fill-rule:nonzero;stroke:black;stroke-width:0.48px;"/>
    </g>
    <g transform="matrix(-1.15468,0.666702,0.666702,1.15468,-190.642,-681.825)">
        <path d="M136.606,638.82L156.524,638.82" style="fill:none;fill-rule:nonzero;stroke:black;stroke-width:0.48px;"/>
    </g>
    <g transform="matrix(-1.1547,0.666668,0.666668,1.1547,-193.843,-687.355)">
        <path d="M136.58,641.215L155.24,641.215" style="fill:none;fill-rule:nonzero;stroke:black;stroke-width:0.48px;"/>
    </g>
    <g transform="matrix(-1.15468,-0.666702,-0.666702,1.15468,704.082,-474.894)">
        <path d="M153.856,638.82L173.774,638.82" style="fill:none;fill-rule:nonzero;stroke:black;stroke-width:0.48px;"/>
    </g>
    <g transform="matrix(-1.15488,0.66635,0.66635,1.15488,-109.432,-699.997)">
        <path d="M171.467,637.475L186.013,637.475" style="fill:none;fill-rule:nonzero;stroke:black;stroke-width:0.48px;"/>
    </g>
    <g transform="matrix(0,-1.33333,-1.33333,0,901.365,299.563)">
        <path d="M114.51,651.18L129.27,651.18" style="fill:none;fill-rule:nonzero;stroke:black;stroke-width:0.48px;"/>
    </g>
    <g transform="matrix(0,-1.33333,-1.33333,0,898.165,296.363)">
        <path d="M112.11,651.18L126.87,651.18" style="fill:none;fill-rule:nonzero;stroke:black;stroke-width:0.48px;"/>
    </g>
    <g transform="matrix(0,1.33333,1.33333,0,-736.275,-58.2374)">
        <path d="M163.8,626.4L178.68,626.4" style="fill:none;fill-rule:nonzero;stroke:black;stroke-width:0.48px;"/>
    </g>
    <g transform="matrix(0,1.33333,1.33333,0,-733.075,-61.4374)">
        <path d="M166.2,626.4L181.08,626.4" style="fill:none;fill-rule:nonzero;stroke:black;stroke-width:0.48px;"/>
    </g>
    <g transform="matrix(-1.15494,0.666256,0.666256,1.15494,73.5321,-732.079)">
        <path d="M245.852,631.135L255.238,631.135" style="fill:none;fill-rule:nonzero;stroke:black;stroke-width:0.48px;"/>
    </g>
    <g transform="matrix(-1.15468,-0.666702,-0.666702,1.15468,944.56,-382.934)">
        <path d="M253.276,628.5L273.194,628.5" style="fill:none;fill-rule:nonzero;stroke:black;stroke-width:0.48px;"/>
    </g>
    <g transform="matrix(-1.15468,0.666702,0.666702,1.15468,149.434,-745.434)">
        <path d="M270.526,628.5L290.444,628.5" style="fill:none;fill-rule:nonzero;stroke:black;stroke-width:0.48px;"/>
    </g>
    <g transform="matrix(-1.15468,-0.666702,-0.666702,1.15468,1030.4,-359.933)">
        <path d="M287.776,628.5L307.694,628.5" style="fill:none;fill-rule:nonzero;stroke:black;stroke-width:0.48px;"/>
    </g>
    <g transform="matrix(0,-1.33333,-1.33333,0,1066.17,491.883)">
        <path d="M248.43,640.86L263.19,640.86" style="fill:none;fill-rule:nonzero;stroke:black;stroke-width:0.48px;"/>
    </g>
    <g transform="matrix(0,-1.33333,-1.33333,0,1062.97,488.683)">
        <path d="M246.03,640.86L260.79,640.86" style="fill:none;fill-rule:nonzero;stroke:black;stroke-width:0.48px;"/>
    </g>
    <g transform="matrix(1.15488,-0.66635,-0.66635,-1.15488,344.304,1101.71)">
        <path d="M305.387,627.155L319.933,627.155" style="fill:none;fill-rule:nonzero;stroke:black;stroke-width:0.48px;"/>
    </g>
    <g transform="matrix(1.15502,-0.666113,-0.666113,-1.15502,345.928,1101.19)">
        <path d="M305.269,629.895L319.941,629.895" style="fill:none;fill-rule:nonzero;stroke:black;stroke-width:0.48px;"/>
    </g>
</svg>
