<?xml version="1.0" encoding="UTF-8" standalone="no"?>
<!DOCTYPE svg PUBLIC "-//W3C//DTD SVG 1.1//EN" "http://www.w3.org/Graphics/SVG/1.1/DTD/svg11.dtd">
<svg width="100%" height="100%" viewBox="0 0 475 215" version="1.1" xmlns="http://www.w3.org/2000/svg" xmlns:xlink="http://www.w3.org/1999/xlink" xml:space="preserve" xmlns:serif="http://www.serif.com/" style="fill-rule:evenodd;clip-rule:evenodd;stroke-linecap:round;stroke-linejoin:round;stroke-miterlimit:10;">
    <g transform="matrix(1.33333,0,0,1.33333,-82.3799,-112.843)">
        <text x="150.24px" y="128.64px" style="font-family:'ArialMT', 'Arial', sans-serif;font-size:10px;">R</text>
        <text x="157.68px" y="121.68px" style="font-family:'ArialMT', 'Arial', sans-serif;font-size:8px;">1</text>
    </g>
    <g transform="matrix(1.33333,0,0,1.33333,-82.3799,-112.843)">
        <text x="81.12px" y="108.72px" style="font-family:'ArialMT', 'Arial', sans-serif;font-size:10px;">O</text>
    </g>
    <g transform="matrix(1.33333,0,0,1.33333,-82.3799,-112.843)">
        <text x="64.08px" y="138.48px" style="font-family:'ArialMT', 'Arial', sans-serif;font-size:10px;">R</text>
    </g>
    <g transform="matrix(1.33333,0,0,1.33333,-82.3799,-112.843)">
        <text x="98.64px" y="98.64px" style="font-family:'ArialMT', 'Arial', sans-serif;font-size:10px;">H</text>
        <text x="115.68px" y="108.72px" style="font-family:'ArialMT', 'Arial', sans-serif;font-size:10px;">H</text>
    </g>
    <g transform="matrix(1.33333,0,0,1.33333,-82.3799,-112.843)">
        <text x="132.72px" y="158.4px" style="font-family:'ArialMT', 'Arial', sans-serif;font-size:10px;">O</text>
    </g>
    <g transform="matrix(1.33333,0,0,1.33333,-82.3799,-112.843)">
        <text x="234.72px" y="129.6px" style="font-family:'ArialMT', 'Arial', sans-serif;font-size:10px;">CH</text>
        <text x="249.12px" y="122.64px" style="font-family:'ArialMT', 'Arial', sans-serif;font-size:8px;">–</text>
    </g>
    <g transform="matrix(1.33333,0,0,1.33333,-82.3799,-112.843)">
        <text x="234.48px" y="109.68px" style="font-family:'ArialMT', 'Arial', sans-serif;font-size:10px;">O</text>
    </g>
    <g transform="matrix(1.33333,0,0,1.33333,-82.3799,-112.843)">
        <text x="217.44px" y="139.44px" style="font-family:'ArialMT', 'Arial', sans-serif;font-size:10px;">R</text>
    </g>
    <g transform="matrix(1.33333,0,0,1.33333,-82.3799,-112.843)">
        <text x="252px" y="99.6px" style="font-family:'ArialMT', 'Arial', sans-serif;font-size:10px;">H</text>
        <text x="230.88px" y="108.48px" style="font-family:'ArialMT', 'Arial', sans-serif;font-size:10px;">:</text>
    </g>
    <g transform="matrix(0.0534664,-1.33226,1.33226,0.0534664,-82.3799,-112.843)">
        <text x="-91.303px" y="242.406px" style="font-family:'ArialMT', 'Arial', sans-serif;font-size:10px;">:</text>
    </g>
    <g transform="matrix(1.23094,0.512404,-0.512404,1.23094,-82.3799,-112.843)">
        <text x="261.039px" y="24.677px" style="font-family:'ArialMT', 'Arial', sans-serif;font-size:10px;">:</text>
    </g>
    <g transform="matrix(1.33333,0,0,1.33333,-82.3799,-112.843)">
        <text x="267.84px" y="132.24px" style="font-family:'ArialMT', 'Arial', sans-serif;font-size:18px;">+</text>
    </g>
    <g transform="matrix(1.33333,0,0,1.33333,-82.3799,-112.843)">
        <text x="336.24px" y="149.28px" style="font-family:'ArialMT', 'Arial', sans-serif;font-size:10px;">O</text>
    </g>
    <g transform="matrix(1.33333,0,0,1.33333,-82.3799,-112.843)">
        <text x="302.16px" y="129.36px" style="font-family:'ArialMT', 'Arial', sans-serif;font-size:10px;">C</text>
    </g>
    <g transform="matrix(1.33333,0,0,1.33333,-82.3799,-112.843)">
        <text x="290.64px" y="129.36px" style="font-family:'ArialMT', 'Arial', sans-serif;font-size:10px;">H</text>
        <text x="297.84px" y="132px" style="font-family:'ArialMT', 'Arial', sans-serif;font-size:8px;">2</text>
    </g>
    <g transform="matrix(1.33333,0,0,1.33333,-82.3799,-112.843)">
        <text x="353.76px" y="119.28px" style="font-family:'ArialMT', 'Arial', sans-serif;font-size:10px;">R</text>
        <text x="361.2px" y="112.32px" style="font-family:'ArialMT', 'Arial', sans-serif;font-size:8px;">1</text>
        <text x="373.2px" y="132.96px" style="font-family:'ArialMT', 'Arial', sans-serif;font-size:18px;">+</text>
        <text x="393.36px" y="130.08px" style="font-family:'ArialMT', 'Arial', sans-serif;font-size:10px;">H</text>
        <text x="400.574px" y="123.12px" style="font-family:'ArialMT', 'Arial', sans-serif;font-size:8px;">+</text>
    </g>
    <g transform="matrix(1.33333,0,0,1.33333,-82.3799,-112.843)">
        <text x="234.24px" y="229.92px" style="font-family:'ArialMT', 'Arial', sans-serif;font-size:10px;">CH</text>
        <text x="248.64px" y="222.96px" style="font-family:'ArialMT', 'Arial', sans-serif;font-size:8px;">–</text>
    </g>
    <g transform="matrix(1.33333,0,0,1.33333,-82.3799,-112.843)">
        <text x="234px" y="210px" style="font-family:'ArialMT', 'Arial', sans-serif;font-size:10px;">O</text>
    </g>
    <g transform="matrix(1.33333,0,0,1.33333,-82.3799,-112.843)">
        <text x="216.96px" y="239.76px" style="font-family:'ArialMT', 'Arial', sans-serif;font-size:10px;">R</text>
    </g>
    <g transform="matrix(1.33333,0,0,1.33333,-82.3799,-112.843)">
        <text x="230.4px" y="209.28px" style="font-family:'ArialMT', 'Arial', sans-serif;font-size:10px;">:</text>
    </g>
    <g transform="matrix(-0.0140006,-1.33326,1.33326,-0.0140006,-82.3799,-112.843)">
        <text x="-204.469px" y="235.946px" style="font-family:'ArialMT', 'Arial', sans-serif;font-size:10px;">:</text>
    </g>
    <g transform="matrix(1.17504,0.630121,-0.630121,1.17504,-82.3799,-112.843)">
        <text x="308.983px" y="87.097px" style="font-family:'ArialMT', 'Arial', sans-serif;font-size:10px;">:</text>
    </g>
    <g transform="matrix(1.33333,0,0,1.33333,-82.3799,-112.843)">
        <text x="336px" y="211.2px" style="font-family:'ArialMT', 'Arial', sans-serif;font-size:10px;">O</text>
    </g>
    <g transform="matrix(1.33333,0,0,1.33333,-82.3799,-112.843)">
        <text x="318.96px" y="240.96px" style="font-family:'ArialMT', 'Arial', sans-serif;font-size:10px;">R</text>
    </g>
    <g transform="matrix(1.33333,0,0,1.33333,-82.3799,-112.843)">
        <text x="351.12px" y="234.96px" style="font-family:'ArialMT', 'Arial', sans-serif;font-size:18px;">+</text>
        <text x="369.36px" y="231.12px" style="font-family:'ArialMT', 'Arial', sans-serif;font-size:10px;">e</text>
    </g>
    <g transform="matrix(1.15468,0.666702,0.666702,-1.15468,-540.555,820.025)">
        <path d="M83.686,712.32L103.604,712.32" style="fill:none;fill-rule:nonzero;stroke:black;stroke-width:0.72px;"/>
    </g>
    <g transform="matrix(1.15468,-0.666702,-0.666702,-1.15468,412.337,956.392)">
        <path d="M100.936,712.32L120.854,712.32" style="fill:none;fill-rule:nonzero;stroke:black;stroke-width:0.72px;"/>
    </g>
    <g transform="matrix(1.15468,0.666702,0.666702,-1.15468,-534.392,797.024)">
        <path d="M118.186,712.32L138.104,712.32" style="fill:none;fill-rule:nonzero;stroke:black;stroke-width:0.72px;"/>
    </g>
    <g transform="matrix(1.15481,-0.666483,-0.666483,-1.15481,416.99,978.117)">
        <path d="M135.803,710.95L150.247,710.95" style="fill:none;fill-rule:nonzero;stroke:black;stroke-width:0.72px;"/>
    </g>
    <g transform="matrix(0,-1.33333,-1.33333,0,997.18,156.877)">
        <path d="M77.67,724.65L92.37,724.65" style="fill:none;fill-rule:nonzero;stroke:black;stroke-width:0.72px;"/>
    </g>
    <g transform="matrix(-1.15464,0.666766,0.666766,1.15464,-362.561,-818.156)">
        <path d="M71.251,713.61L86.009,713.61" style="fill:none;fill-rule:nonzero;stroke:black;stroke-width:0.72px;"/>
    </g>
    <g transform="matrix(1.15496,-0.66621,-0.66621,-1.15496,428.896,939.828)">
        <path d="M89.407,742.315L98.273,742.315" style="fill:none;fill-rule:nonzero;stroke:black;stroke-width:0.72px;"/>
    </g>
    <g transform="matrix(0,-1.33333,-1.33333,0,1043.18,202.877)">
        <path d="M112.17,724.65L126.87,724.65" style="fill:none;fill-rule:nonzero;stroke:black;stroke-width:0.72px;"/>
    </g>
    <g transform="matrix(0,1.33333,1.33333,0,-835.58,-103.723)">
        <path d="M127.74,699.99L142.44,699.99" style="fill:none;fill-rule:nonzero;stroke:black;stroke-width:0.72px;"/>
    </g>
    <g transform="matrix(0,1.33333,1.33333,0,-831.1,-108.203)">
        <path d="M131.1,699.99L145.8,699.99" style="fill:none;fill-rule:nonzero;stroke:black;stroke-width:0.72px;"/>
    </g>
    <g transform="matrix(1.33333,0,0,1.33333,-82.3799,-896.843)">
        <path d="M170.4,714.96L204.48,714.96" style="fill:none;fill-rule:nonzero;stroke:black;stroke-width:0.72px;"/>
    </g>
    <g transform="matrix(1.33333,0,0,1.33333,-82.3799,-904.523)">
        <path d="M170.4,717.84L204.48,717.84" style="fill:none;fill-rule:nonzero;stroke:black;stroke-width:0.72px;"/>
    </g>
    <g transform="matrix(1.33333,0,0,1.33333,-82.3799,-900.683)">
        <path d="M199.92,712.8L207.84,716.4L199.92,720" style="fill:none;fill-rule:nonzero;stroke:black;stroke-width:0.72px;"/>
    </g>
    <g transform="matrix(0,-1.33333,-1.33333,0,1203.86,359.317)">
        <path d="M233.64,726.24L243.24,726.24" style="fill:none;fill-rule:nonzero;stroke:black;stroke-width:0.72px;"/>
    </g>
    <g transform="matrix(-1.15477,0.666542,0.666542,1.15477,14.9473,-913.276)">
        <path d="M224.969,711.345L234.391,711.345" style="fill:none;fill-rule:nonzero;stroke:black;stroke-width:0.72px;"/>
    </g>
    <g transform="matrix(1.15496,-0.66621,-0.66621,-1.15496,455.624,1042.17)">
        <path d="M242.767,741.375L251.633,741.375" style="fill:none;fill-rule:nonzero;stroke:black;stroke-width:0.72px;"/>
    </g>
    <g transform="matrix(1.33333,0,0,1.33333,-82.3799,-971.723)">
        <path d="M256.32,751.68L253.92,751.92L252.72,751.92L251.52,751.68L250.56,751.44L248.64,750.48L247.68,749.76L246.96,749.04L246.24,748.08L245.28,746.16L245.04,745.2L244.8,744L244.8,741.6L245.04,740.16L246.24,737.76L247.2,736.56L248.16,735.6L249.36,734.88L250.56,734.4L251.28,734.16" style="fill:none;fill-rule:nonzero;stroke:black;stroke-width:0.48px;"/>
    </g>
    <g transform="matrix(1.33333,0,0,1.33333,-82.3799,-990.923)">
        <path d="M251.28,748.56L243.36,750.96L245.76,751.92L251.28,748.56Z" style="stroke:black;stroke-width:0.48px;"/>
    </g>
    <g transform="matrix(0,1.33333,1.33333,0,-576.42,-387.283)">
        <path d="M331.23,709.14L345.99,709.14" style="fill:none;fill-rule:nonzero;stroke:black;stroke-width:0.72px;"/>
    </g>
    <g transform="matrix(0,1.33333,1.33333,0,-571.94,-391.763)">
        <path d="M334.59,709.14L349.35,709.14" style="fill:none;fill-rule:nonzero;stroke:black;stroke-width:0.72px;"/>
    </g>
    <g transform="matrix(-1.15468,-0.666702,-0.666702,1.15468,1223.83,-564.263)">
        <path d="M321.706,721.5L341.624,721.5" style="fill:none;fill-rule:nonzero;stroke:black;stroke-width:0.72px;"/>
    </g>
    <g transform="matrix(-1.15485,0.666401,0.666401,1.15485,223.898,-999.806)">
        <path d="M309.337,722.81L324.023,722.81" style="fill:none;fill-rule:nonzero;stroke:black;stroke-width:0.72px;"/>
    </g>
    <g transform="matrix(-1.15457,0.6669,0.6669,1.15457,226.571,-990.633)">
        <path d="M309.608,719.075L324.262,719.075" style="fill:none;fill-rule:nonzero;stroke:black;stroke-width:0.72px;"/>
    </g>
    <g transform="matrix(1.15481,-0.666483,-0.666483,-1.15481,459.442,1112.12)">
        <path d="M339.323,720.13L353.767,720.13" style="fill:none;fill-rule:nonzero;stroke:black;stroke-width:0.72px;"/>
    </g>
    <g transform="matrix(1.33333,0,0,1.33333,-82.3799,-903.563)">
        <path d="M124.56,702.72L126.48,704.16L128.16,705.84L129.6,707.76L130.56,710.16L131.28,712.32L131.76,714.96L131.76,717.84L131.52,719.52L131.04,721.2L130.32,722.88L129.6,724.32L128.64,725.52L127.68,726.96L126.48,728.16L125.28,729.12L123.84,730.08L122.4,730.8L120.96,731.28L119.28,731.76L117.6,732L116.4,732.24L114.24,732.24L112.56,732L109.68,731.04L108.24,730.32L107.04,729.6" style="fill:none;fill-rule:nonzero;stroke:black;stroke-width:0.48px;"/>
    </g>
    <g transform="matrix(-1.03365,-0.842231,-0.842231,1.03365,772.491,-560.019)">
        <path d="M107.592,703.251L115.951,703.251L108.563,699.399L109.818,701.659L107.592,703.251Z" style="stroke:black;stroke-width:0.48px;"/>
    </g>
    <g transform="matrix(1.33333,0,0,1.33333,-82.3799,-886.283)">
        <path d="M101.52,705.6L101.76,707.52L101.52,708.48L101.52,709.68L101.04,710.64L100.56,711.84L100.08,712.8L99.36,713.52L98.4,714.24L97.68,714.96L96.72,715.44L95.52,715.92L94.56,716.16L93.36,716.4L92.88,716.4L91.44,716.16L90.24,715.92L87.84,714.96L86.88,714L85.92,713.28L85.2,712.08L84.48,711.12L84.24,709.92L84,709.2" style="fill:none;fill-rule:nonzero;stroke:black;stroke-width:0.48px;"/>
    </g>
    <g transform="matrix(-0.268871,-1.30594,-1.30594,0.268871,981.983,-12.6505)">
        <path d="M82.837,710.483L91.169,710.483L83.757,706.618L84.995,709.059L82.837,710.483Z" style="stroke:black;stroke-width:0.48px;"/>
    </g>
    <g transform="matrix(0,1.33333,1.33333,0,-669.26,-208.203)">
        <path d="M218.64,676.8L254.64,676.8" style="fill:none;fill-rule:nonzero;stroke:black;stroke-width:0.72px;"/>
    </g>
    <g transform="matrix(0,1.33333,1.33333,0,-665.42,-212.043)">
        <path d="M221.52,676.8L257.52,676.8" style="fill:none;fill-rule:nonzero;stroke:black;stroke-width:0.72px;"/>
    </g>
    <g transform="matrix(1.33333,0,0,1.33333,-82.3799,-748.683)">
        <path d="M241.68,655.44L238.08,663.36L234.48,655.44" style="fill:none;fill-rule:nonzero;stroke:black;stroke-width:0.72px;"/>
    </g>
    <g transform="matrix(1.33333,0,0,1.33333,-82.3799,-701.963)">
        <path d="M243.48,640.8L243.63,640.81L243.79,640.84L243.94,640.9L244.09,640.99L244.24,641.12L244.37,641.27L244.46,641.42L244.52,641.57L244.55,641.73L244.55,642.03L244.52,642.19L244.46,642.34L244.37,642.49L244.24,642.64L244.09,642.77L243.94,642.86L243.79,642.92L243.63,642.95L243.48,642.96L243.33,642.95L243.17,642.92L243.02,642.86L242.87,642.77L242.72,642.64L242.59,642.49L242.5,642.34L242.44,642.19L242.41,642.03L242.41,641.73L242.44,641.57L242.5,641.42L242.59,641.27L242.72,641.12L242.87,640.99L243.02,640.9L243.17,640.84L243.33,640.81L243.48,640.8"/>
    </g>
    <g transform="matrix(0,-1.33333,-1.33333,0,1069.46,492.437)">
        <path d="M233.16,625.92L242.76,625.92" style="fill:none;fill-rule:nonzero;stroke:black;stroke-width:0.72px;"/>
    </g>
    <g transform="matrix(-1.15477,0.666542,0.666542,1.15477,80.6205,-663.35)">
        <path d="M224.489,611.025L233.911,611.025" style="fill:none;fill-rule:nonzero;stroke:black;stroke-width:0.72px;"/>
    </g>
    <g transform="matrix(1.33333,0,0,1.33333,-82.3799,-612.683)">
        <path d="M252,613.44L249.84,614.4L247.44,615.12L245.04,615.36L243.84,615.36L242.64,615.12L240.96,614.64L239.52,614.16L238.08,613.44L236.64,612.48L235.44,611.52L234.24,610.32L233.28,608.88L231.84,606L231.36,604.32L231.12,603.12L231.12,601.44" style="fill:none;fill-rule:nonzero;stroke:black;stroke-width:0.48px;"/>
    </g>
    <g transform="matrix(1.33333,0,0,1.33333,-82.3799,-593.163)">
        <path d="M252,598.8L245.28,603.36L246,600.96L252,598.8Z" style="stroke:black;stroke-width:0.48px;"/>
    </g>
    <g transform="matrix(1.33333,0,0,1.33333,-82.3799,-628.043)">
        <path d="M267.12,614.16L301.2,614.16" style="fill:none;fill-rule:nonzero;stroke:black;stroke-width:0.72px;"/>
    </g>
    <g transform="matrix(1.33333,0,0,1.33333,-82.3799,-635.723)">
        <path d="M267.12,617.04L301.2,617.04" style="fill:none;fill-rule:nonzero;stroke:black;stroke-width:0.72px;"/>
    </g>
    <g transform="matrix(1.33333,0,0,1.33333,-82.3799,-631.883)">
        <path d="M296.64,612L304.56,615.6L296.64,619.2" style="fill:none;fill-rule:nonzero;stroke:black;stroke-width:0.72px;"/>
    </g>
    <g transform="matrix(1.33333,0,0,1.33333,-82.3799,-679.243)">
        <path d="M246.96,626.4L248.4,627.12L249.84,628.32L250.8,629.76L251.28,631.44L251.52,632.16L251.52,634.32L251.28,635.28L250.8,636.48L250.32,637.44L249.6,638.16L247.68,639.6L246.72,639.84L245.52,640.32L244.56,640.32L241.92,639.84" style="fill:none;fill-rule:nonzero;stroke:black;stroke-width:0.48px;"/>
    </g>
    <g transform="matrix(1.33333,0,0,1.33333,-82.3799,-659.403)">
        <path d="M241.92,624.96L249.84,626.88L248.4,624.96L241.92,624.96Z" style="stroke:black;stroke-width:0.48px;"/>
    </g>
    <g transform="matrix(0,-1.33333,-1.33333,0,1200.5,633.397)">
        <path d="M332.64,622.2L347.28,622.2" style="fill:none;fill-rule:nonzero;stroke:black;stroke-width:0.72px;"/>
    </g>
    <g transform="matrix(0,-1.33333,-1.33333,0,1197.13,627.81)">
        <path d="M330.11,623.03L343.09,623.03" style="fill:none;fill-rule:nonzero;stroke:black;stroke-width:0.72px;"/>
    </g>
    <g transform="matrix(-1.15482,0.666452,0.666452,1.15482,340.201,-733.272)">
        <path d="M326.128,611.175L340.952,611.175" style="fill:none;fill-rule:nonzero;stroke:black;stroke-width:0.72px;"/>
    </g>
</svg>
