<?xml version="1.0" encoding="UTF-8" standalone="no"?>
<!DOCTYPE svg PUBLIC "-//W3C//DTD SVG 1.1//EN" "http://www.w3.org/Graphics/SVG/1.1/DTD/svg11.dtd">
<svg width="100%" height="100%" viewBox="0 0 515 115" version="1.1" xmlns="http://www.w3.org/2000/svg" xmlns:xlink="http://www.w3.org/1999/xlink" xml:space="preserve" xmlns:serif="http://www.serif.com/" style="fill-rule:evenodd;clip-rule:evenodd;stroke-linecap:round;stroke-linejoin:round;stroke-miterlimit:10;">
    <g transform="matrix(1.33333,0,0,1.33333,-66.3426,-88.4174)">
        <text x="80.64px" y="86.16px" style="font-family:'ArialMT', 'Arial', sans-serif;font-size:10px;">O</text>
    </g>
    <g transform="matrix(1.33333,0,0,1.33333,-66.3426,-88.4174)">
        <text x="63.6px" y="115.92px" style="font-family:'ArialMT', 'Arial', sans-serif;font-size:10px;">C</text>
    </g>
    <g transform="matrix(1.33333,0,0,1.33333,-66.3426,-88.4174)">
        <text x="52.08px" y="115.92px" style="font-family:'ArialMT', 'Arial', sans-serif;font-size:10px;">H</text>
        <text x="59.28px" y="118.56px" style="font-family:'ArialMT', 'Arial', sans-serif;font-size:8px;">3</text>
    </g>
    <g transform="matrix(1.33333,0,0,1.33333,-66.3426,-88.4174)">
        <text x="96.48px" y="109.44px" style="font-family:'ArialMT', 'Arial', sans-serif;font-size:18px;">+</text>
    </g>
    <g transform="matrix(1.33333,0,0,1.33333,-66.3426,-88.4174)">
        <text x="166.32px" y="126.48px" style="font-family:'ArialMT', 'Arial', sans-serif;font-size:10px;">O</text>
    </g>
    <g transform="matrix(1.33333,0,0,1.33333,-66.3426,-88.4174)">
        <text x="132.24px" y="106.56px" style="font-family:'ArialMT', 'Arial', sans-serif;font-size:10px;">C</text>
    </g>
    <g transform="matrix(1.33333,0,0,1.33333,-66.3426,-88.4174)">
        <text x="120.72px" y="106.56px" style="font-family:'ArialMT', 'Arial', sans-serif;font-size:10px;">H</text>
        <text x="127.92px" y="109.2px" style="font-family:'ArialMT', 'Arial', sans-serif;font-size:8px;">2</text>
    </g>
    <g transform="matrix(1.33333,0,0,1.33333,-66.3426,-88.4174)">
        <text x="183.84px" y="96.48px" style="font-family:'ArialMT', 'Arial', sans-serif;font-size:10px;">R</text>
        <text x="191.28px" y="89.52px" style="font-family:'ArialMT', 'Arial', sans-serif;font-size:8px;">1</text>
    </g>
    <g transform="matrix(1.33333,0,0,1.33333,-66.3426,-88.4174)">
        <text x="234.24px" y="118.08px" style="font-family:'ArialMT', 'Arial', sans-serif;font-size:10px;">C</text>
    </g>
    <g transform="matrix(1.33333,0,0,1.33333,-66.3426,-88.4174)">
        <text x="222.72px" y="118.08px" style="font-family:'ArialMT', 'Arial', sans-serif;font-size:10px;">H</text>
        <text x="229.92px" y="120.72px" style="font-family:'ArialMT', 'Arial', sans-serif;font-size:8px;">3</text>
    </g>
    <g transform="matrix(1.33333,0,0,1.33333,-66.3426,-88.4174)">
        <text x="268.8px" y="118.8px" style="font-family:'ArialMT', 'Arial', sans-serif;font-size:10px;">CH</text>
        <text x="283.2px" y="121.44px" style="font-family:'ArialMT', 'Arial', sans-serif;font-size:8px;">3</text>
    </g>
    <g transform="matrix(1.33333,0,0,1.33333,-66.3426,-88.4174)">
        <text x="250.56px" y="148.32px" style="font-family:'ArialMT', 'Arial', sans-serif;font-size:10px;">O<tspan x="258.48px " y="148.32px ">H</tspan></text>
    </g>
    <g transform="matrix(1.33333,0,0,1.33333,-66.3426,-88.4174)">
        <text x="411.12px" y="95.52px" style="font-family:'ArialMT', 'Arial', sans-serif;font-size:10px;">R</text>
        <text x="418.56px" y="88.56px" style="font-family:'ArialMT', 'Arial', sans-serif;font-size:8px;">1</text>
    </g>
    <g transform="matrix(1.33333,0,0,1.33333,-66.3426,-88.4174)">
        <text x="342px" y="75.6px" style="font-family:'ArialMT', 'Arial', sans-serif;font-size:10px;">O<tspan x="349.92px " y="75.6px ">H</tspan></text>
    </g>
    <g transform="matrix(1.33333,0,0,1.33333,-66.3426,-88.4174)">
        <text x="324.96px" y="105.36px" style="font-family:'ArialMT', 'Arial', sans-serif;font-size:10px;">R</text>
    </g>
    <g transform="matrix(1.33333,0,0,1.33333,-66.3426,-88.4174)">
        <text x="393.6px" y="125.28px" style="font-family:'ArialMT', 'Arial', sans-serif;font-size:10px;">O</text>
    </g>
    <g transform="matrix(1.33333,0,0,1.33333,-66.3426,-88.4174)">
        <text x="245.04px" y="95.04px" style="font-family:'ArialMT', 'Arial', sans-serif;font-size:10px;">S<tspan x="251.864px 260.348px " y="95.04px 95.04px ">mI</tspan></text>
        <text x="263.28px" y="97.68px" style="font-family:'ArialMT', 'Arial', sans-serif;font-size:6px;">2</text>
    </g>
    <g transform="matrix(0,-1.33333,-1.33333,0,1042.78,150.623)">
        <path d="M77.28,747.24L91.92,747.24" style="fill:none;fill-rule:nonzero;stroke:black;stroke-width:0.72px;"/>
    </g>
    <g transform="matrix(0,-1.33333,-1.33333,0,1039.4,145.036)">
        <path d="M74.75,748.07L87.73,748.07" style="fill:none;fill-rule:nonzero;stroke:black;stroke-width:0.72px;"/>
    </g>
    <g transform="matrix(-1.15482,0.666452,0.666452,1.15482,-362.471,-849.78)">
        <path d="M70.768,736.215L85.592,736.215" style="fill:none;fill-rule:nonzero;stroke:black;stroke-width:0.72px;"/>
    </g>
    <g transform="matrix(0,1.33333,1.33333,0,-817.343,-166.697)">
        <path d="M161.31,731.94L176.07,731.94" style="fill:none;fill-rule:nonzero;stroke:black;stroke-width:0.72px;"/>
    </g>
    <g transform="matrix(0,1.33333,1.33333,0,-812.863,-171.177)">
        <path d="M164.67,731.94L179.43,731.94" style="fill:none;fill-rule:nonzero;stroke:black;stroke-width:0.72px;"/>
    </g>
    <g transform="matrix(-1.15468,-0.666702,-0.666702,1.15468,832.308,-709.85)">
        <path d="M151.786,744.3L171.704,744.3" style="fill:none;fill-rule:nonzero;stroke:black;stroke-width:0.72px;"/>
    </g>
    <g transform="matrix(-1.15485,0.666401,0.666401,1.15485,-198.052,-918.876)">
        <path d="M139.417,745.61L154.103,745.61" style="fill:none;fill-rule:nonzero;stroke:black;stroke-width:0.72px;"/>
    </g>
    <g transform="matrix(-1.15457,0.6669,0.6669,1.15457,-195.341,-909.612)">
        <path d="M139.688,741.875L154.342,741.875" style="fill:none;fill-rule:nonzero;stroke:black;stroke-width:0.72px;"/>
    </g>
    <g transform="matrix(1.15481,-0.666483,-0.666483,-1.15481,460.34,1019.23)">
        <path d="M169.403,742.93L183.847,742.93" style="fill:none;fill-rule:nonzero;stroke:black;stroke-width:0.72px;"/>
    </g>
    <g transform="matrix(1.33333,0,0,1.33333,-66.3426,-938.977)">
        <path d="M204.48,739.92L307.2,739.92" style="fill:none;fill-rule:nonzero;stroke:black;stroke-width:0.72px;"/>
    </g>
    <g transform="matrix(1.2958,0.314133,0.314133,-1.2958,-287.395,911.113)">
        <path d="M298.939,740.853L307.089,740.853L299.844,737.121L300.791,739.326L298.939,740.853Z" style="stroke:black;stroke-width:0.72px;"/>
    </g>
    <g transform="matrix(-1.13987,-0.691711,-0.691711,1.13987,1047.62,-577.609)">
        <path d="M241.332,721.24L256.058,721.24" style="fill:none;fill-rule:nonzero;stroke:black;stroke-width:0.72px;"/>
    </g>
    <g transform="matrix(1.16896,-0.641336,-0.641336,-1.16896,438.995,1083.29)">
        <path d="M254.087,720.945L268.743,720.945" style="fill:none;fill-rule:nonzero;stroke:black;stroke-width:0.72px;"/>
    </g>
    <g transform="matrix(-0.0290181,1.33302,1.33302,0.0290181,-665.71,-272.915)">
        <path d="M247.478,710.07L262.182,710.07" style="fill:none;fill-rule:nonzero;stroke:black;stroke-width:0.72px;"/>
    </g>
    <g transform="matrix(1.15468,0.666702,0.666702,-1.15468,-499.992,664.605)">
        <path d="M344.566,745.44L364.484,745.44" style="fill:none;fill-rule:nonzero;stroke:black;stroke-width:0.72px;"/>
    </g>
    <g transform="matrix(1.15468,-0.666702,-0.666702,-1.15468,497.063,1148.83)">
        <path d="M361.816,745.44L381.734,745.44" style="fill:none;fill-rule:nonzero;stroke:black;stroke-width:0.72px;"/>
    </g>
    <g transform="matrix(1.15468,0.666702,0.666702,-1.15468,-493.828,641.603)">
        <path d="M379.066,745.44L398.984,745.44" style="fill:none;fill-rule:nonzero;stroke:black;stroke-width:0.72px;"/>
    </g>
    <g transform="matrix(1.15481,-0.666483,-0.666483,-1.15481,501.675,1170.5)">
        <path d="M396.683,744.07L411.127,744.07" style="fill:none;fill-rule:nonzero;stroke:black;stroke-width:0.72px;"/>
    </g>
    <g transform="matrix(0,-1.33333,-1.33333,0,1405.22,484.983)">
        <path d="M338.55,757.77L353.25,757.77" style="fill:none;fill-rule:nonzero;stroke:black;stroke-width:0.72px;"/>
    </g>
    <g transform="matrix(-1.15464,0.666766,0.666766,1.15464,280.456,-1050.08)">
        <path d="M332.131,746.73L346.889,746.73" style="fill:none;fill-rule:nonzero;stroke:black;stroke-width:0.72px;"/>
    </g>
    <g transform="matrix(0,1.33333,1.33333,0,-515.863,-471.297)">
        <path d="M388.62,733.11L403.32,733.11" style="fill:none;fill-rule:nonzero;stroke:black;stroke-width:0.72px;"/>
    </g>
    <g transform="matrix(0,1.33333,1.33333,0,-511.383,-475.777)">
        <path d="M391.98,733.11L406.68,733.11" style="fill:none;fill-rule:nonzero;stroke:black;stroke-width:0.72px;"/>
    </g>
</svg>
