<?xml version="1.0" encoding="UTF-8" standalone="no"?>
<!DOCTYPE svg PUBLIC "-//W3C//DTD SVG 1.1//EN" "http://www.w3.org/Graphics/SVG/1.1/DTD/svg11.dtd">
<svg width="100%" height="100%" viewBox="0 0 625 90" version="1.1" xmlns="http://www.w3.org/2000/svg" xmlns:xlink="http://www.w3.org/1999/xlink" xml:space="preserve" xmlns:serif="http://www.serif.com/" style="fill-rule:evenodd;clip-rule:evenodd;stroke-linecap:round;stroke-linejoin:round;stroke-miterlimit:10;">
    <g transform="matrix(1.33333,0,0,1.33333,-74.8,-59.4594)">
        <text x="109.44px" y="95.04px" style="font-family:'ArialMT', 'Arial', sans-serif;font-size:10px;">O</text>
    </g>
    <g transform="matrix(1.33333,0,0,1.33333,-74.8,-59.4594)">
        <text x="144px" y="95.04px" style="font-family:'ArialMT', 'Arial', sans-serif;font-size:10px;">CH</text>
        <text x="158.4px" y="97.68px" style="font-family:'ArialMT', 'Arial', sans-serif;font-size:8px;">3</text>
    </g>
    <g transform="matrix(1.33333,0,0,1.33333,-74.8,-59.4594)">
        <text x="92.16px" y="65.28px" style="font-family:'ArialMT', 'Arial', sans-serif;font-size:10px;">O</text>
    </g>
    <g transform="matrix(1.33333,0,0,1.33333,-74.8,-59.4594)">
        <text x="75.12px" y="95.04px" style="font-family:'ArialMT', 'Arial', sans-serif;font-size:10px;">C</text>
    </g>
    <g transform="matrix(1.33333,0,0,1.33333,-74.8,-59.4594)">
        <text x="63.6px" y="95.04px" style="font-family:'ArialMT', 'Arial', sans-serif;font-size:10px;">H</text>
        <text x="70.8px" y="97.68px" style="font-family:'ArialMT', 'Arial', sans-serif;font-size:8px;">3</text>
    </g>
    <g transform="matrix(1.33333,0,0,1.33333,-74.8,-59.4594)">
        <text x="178.8px" y="73.68px" style="font-family:'ArialMT', 'Arial', sans-serif;font-size:10px;">1</text>
        <text x="184.32px" y="73.68px" style="font-family:'ArialMT', 'Arial', sans-serif;font-size:10px;">)</text>
        <text x="190.592px" y="73.68px" style="font-family:'ArialMT', 'Arial', sans-serif;font-size:10px;">LDA</text>
        <text x="179.04px" y="95.76px" style="font-family:'ArialMT', 'Arial', sans-serif;font-size:10px;">2</text>
        <text x="184.56px" y="95.76px" style="font-family:'ArialMT', 'Arial', sans-serif;font-size:10px;">)M</text>
        <text x="196.32px" y="95.76px" style="font-family:'ArialMT', 'Arial', sans-serif;font-size:10px;">e</text>
        <text x="201.84px" y="98.4px" style="font-family:'ArialMT', 'Arial', sans-serif;font-size:6px;">3</text>
        <text x="205.44px" y="95.76px" style="font-family:'ArialMT', 'Arial', sans-serif;font-size:10px;">S</text>
        <text x="212.16px" y="95.76px" style="font-family:'ArialMT', 'Arial', sans-serif;font-size:10px;">i</text>
        <text x="214.56px" y="95.76px" style="font-family:'ArialMT', 'Arial', sans-serif;font-size:10px;">Cl</text>
    </g>
    <g transform="matrix(1.33333,0,0,1.33333,-74.8,-59.4594)">
        <text x="292.56px" y="94.56px" style="font-family:'ArialMT', 'Arial', sans-serif;font-size:10px;">O</text>
    </g>
    <g transform="matrix(1.33333,0,0,1.33333,-74.8,-59.4594)">
        <text x="258.24px" y="94.56px" style="font-family:'ArialMT', 'Arial', sans-serif;font-size:10px;">C</text>
    </g>
    <g transform="matrix(1.33333,0,0,1.33333,-74.8,-59.4594)">
        <text x="246.72px" y="94.56px" style="font-family:'ArialMT', 'Arial', sans-serif;font-size:10px;">H</text>
        <text x="253.92px" y="97.2px" style="font-family:'ArialMT', 'Arial', sans-serif;font-size:8px;">2</text>
    </g>
    <g transform="matrix(1.33333,0,0,1.33333,-74.8,-59.4594)">
        <text x="275.52px" y="64.8px" style="font-family:'ArialMT', 'Arial', sans-serif;font-size:10px;">O</text>
        <text x="283.44px" y="64.8px" style="font-family:'ArialMT', 'Arial', sans-serif;font-size:10px;">S</text>
        <text x="290.16px" y="64.8px" style="font-family:'ArialMT', 'Arial', sans-serif;font-size:10px;">i</text>
        <text x="292.56px" y="64.8px" style="font-family:'ArialMT', 'Arial', sans-serif;font-size:10px;">M</text>
        <text x="300.96px" y="64.8px" style="font-family:'ArialMT', 'Arial', sans-serif;font-size:10px;">e</text>
        <text x="306.72px" y="67.44px" style="font-family:'ArialMT', 'Arial', sans-serif;font-size:8px;">3</text>
    </g>
    <g transform="matrix(1.33333,0,0,1.33333,-74.8,-59.4594)">
        <text x="327.36px" y="94.8px" style="font-family:'ArialMT', 'Arial', sans-serif;font-size:10px;">CH</text>
        <text x="341.76px" y="97.44px" style="font-family:'ArialMT', 'Arial', sans-serif;font-size:8px;">3</text>
    </g>
    <g transform="matrix(1.33333,0,0,1.33333,-74.8,-59.4594)">
        <text x="367.92px" y="73.44px" style="font-family:'ArialMT', 'Arial', sans-serif;font-size:10px;">CH</text>
        <text x="382.32px" y="76.08px" style="font-family:'ArialMT', 'Arial', sans-serif;font-size:6px;">2</text>
        <text x="385.92px" y="73.44px" style="font-family:'ArialMT', 'Arial', sans-serif;font-size:10px;">I</text>
        <text x="388.8px" y="76.08px" style="font-family:'ArialMT', 'Arial', sans-serif;font-size:6px;">2</text>
        <text x="364.8px" y="91.68px" style="font-family:'ArialMT', 'Arial', sans-serif;font-size:10px;">Z</text>
        <text x="371.04px" y="91.68px" style="font-family:'ArialMT', 'Arial', sans-serif;font-size:10px;">n</text>
        <text x="379.398px" y="91.68px" style="font-family:'ArialMT', 'Arial', sans-serif;font-size:10px;">/</text>
        <text x="385.265px" y="91.68px" style="font-family:'ArialMT', 'Arial', sans-serif;font-size:10px;">Cu</text>
    </g>
    <g transform="matrix(1.33333,0,0,1.33333,-74.8,-59.4594)">
        <text x="480.72px" y="78px" style="font-family:'ArialMT', 'Arial', sans-serif;font-size:10px;">O</text>
        <text x="425.76px" y="85.2px" style="font-family:'ArialMT', 'Arial', sans-serif;font-size:10px;">M</text>
        <text x="434.16px" y="85.2px" style="font-family:'ArialMT', 'Arial', sans-serif;font-size:10px;">e</text>
        <text x="439.92px" y="87.84px" style="font-family:'ArialMT', 'Arial', sans-serif;font-size:8px;">3</text>
        <text x="444.48px" y="85.2px" style="font-family:'ArialMT', 'Arial', sans-serif;font-size:10px;">S</text>
        <text x="451.2px" y="85.2px" style="font-family:'ArialMT', 'Arial', sans-serif;font-size:10px;">i<tspan x="453.6px " y="85.2px ">O</tspan></text>
    </g>
    <g transform="matrix(1.33333,0,0,1.33333,-74.8,-59.4594)">
        <text x="498.24px" y="107.76px" style="font-family:'ArialMT', 'Arial', sans-serif;font-size:10px;">CH</text>
        <text x="512.64px" y="110.4px" style="font-family:'ArialMT', 'Arial', sans-serif;font-size:8px;">3</text>
    </g>
    <g transform="matrix(1.15473,0.666619,0.666619,-1.15473,-561.268,859.694)">
        <path d="M95.099,757.155L109.441,757.155" style="fill:none;fill-rule:nonzero;stroke:black;stroke-width:0.72px;"/>
    </g>
    <g transform="matrix(1.15457,-0.666895,-0.666895,-1.15457,452.422,1010.73)">
        <path d="M117.372,757.205L131.508,757.205" style="fill:none;fill-rule:nonzero;stroke:black;stroke-width:0.72px;"/>
    </g>
    <g transform="matrix(1.15451,0.666991,0.666991,-1.15451,-555.339,836.465)">
        <path d="M129.594,757.135L144.006,757.135" style="fill:none;fill-rule:nonzero;stroke:black;stroke-width:0.72px;"/>
    </g>
    <g transform="matrix(0,-1.33333,-1.33333,0,1079.64,169.301)">
        <path d="M90.39,768.09L105.09,768.09" style="fill:none;fill-rule:nonzero;stroke:black;stroke-width:0.72px;"/>
    </g>
    <g transform="matrix(0,-1.33333,-1.33333,0,1075.16,164.821)">
        <path d="M87.03,768.09L101.73,768.09" style="fill:none;fill-rule:nonzero;stroke:black;stroke-width:0.72px;"/>
    </g>
    <g transform="matrix(-1.15464,0.666766,0.666766,1.15464,-356.478,-880.211)">
        <path d="M82.291,757.05L97.049,757.05" style="fill:none;fill-rule:nonzero;stroke:black;stroke-width:0.72px;"/>
    </g>
    <g transform="matrix(1.33333,0,0,1.33333,-74.8,-970.179)">
        <path d="M173.52,762.48L239.04,762.48" style="fill:none;fill-rule:nonzero;stroke:black;stroke-width:0.72px;"/>
    </g>
    <g transform="matrix(1.2958,0.314133,0.314133,-1.2958,-305.497,960.636)">
        <path d="M230.779,763.413L238.929,763.413L231.684,759.681L232.631,761.886L230.779,763.413Z" style="stroke:black;stroke-width:0.72px;"/>
    </g>
    <g transform="matrix(1.15341,0.668901,0.668901,-1.15341,-530.24,735.826)">
        <path d="M278.384,757.665L292.556,757.665" style="fill:none;fill-rule:nonzero;stroke:black;stroke-width:0.72px;"/>
    </g>
    <g transform="matrix(-1.15642,0.663677,0.663677,1.15642,99.6792,-1007.96)">
        <path d="M265.474,759.205L279.436,759.205" style="fill:none;fill-rule:nonzero;stroke:black;stroke-width:0.72px;"/>
    </g>
    <g transform="matrix(-1.156,0.664407,0.664407,1.156,103.345,-999.94)">
        <path d="M265.343,755.81L281.237,755.81" style="fill:none;fill-rule:nonzero;stroke:black;stroke-width:0.72px;"/>
    </g>
    <g transform="matrix(0.0036281,-1.33333,-1.33333,-0.0036281,1321.42,413.608)">
        <path d="M272.01,768.57L286.71,768.57" style="fill:none;fill-rule:nonzero;stroke:black;stroke-width:0.72px;"/>
    </g>
    <g transform="matrix(1.15651,-0.663525,-0.663525,-1.15651,482.272,1133.27)">
        <path d="M300.491,757.58L314.799,757.58" style="fill:none;fill-rule:nonzero;stroke:black;stroke-width:0.72px;"/>
    </g>
    <g transform="matrix(1.15334,0.669026,0.669026,-1.15334,-523.965,712.58)">
        <path d="M312.871,757.5L327.379,757.5" style="fill:none;fill-rule:nonzero;stroke:black;stroke-width:0.72px;"/>
    </g>
    <g transform="matrix(1.33333,0,0,1.33333,-74.8,-970.819)">
        <path d="M355.68,762.72L414.72,762.72" style="fill:none;fill-rule:nonzero;stroke:black;stroke-width:0.72px;"/>
    </g>
    <g transform="matrix(1.2958,0.314133,0.314133,-1.2958,-298.979,905.44)">
        <path d="M406.459,763.653L414.609,763.653L407.364,759.921L408.311,762.126L406.459,763.653Z" style="stroke:black;stroke-width:0.72px;"/>
    </g>
    <g transform="matrix(0.666412,1.15485,1.15485,-0.666412,-674.667,4.55616)">
        <path d="M452.456,786.48L472.384,786.48" style="fill:none;fill-rule:nonzero;stroke:black;stroke-width:0.72px;"/>
    </g>
    <g transform="matrix(-0.666412,1.15485,1.15485,0.666412,-78.2593,-1032.18)">
        <path d="M442.496,786.48L462.424,786.48" style="fill:none;fill-rule:nonzero;stroke:black;stroke-width:0.72px;"/>
    </g>
    <g transform="matrix(-1.33333,0,0,1.33333,1145.04,-1011.17)">
        <path d="M447.48,777.85L467.4,777.85" style="fill:none;fill-rule:nonzero;stroke:black;stroke-width:0.72px;"/>
    </g>
    <g transform="matrix(1.15495,0.666243,0.666243,-1.15495,-506.181,609.458)">
        <path d="M466.445,774.285L480.715,774.285" style="fill:none;fill-rule:nonzero;stroke:black;stroke-width:0.72px;"/>
    </g>
    <g transform="matrix(0.667101,-1.15445,-1.15445,-0.667101,1125.34,1084.46)">
        <path d="M456.995,771.845L470.865,771.845" style="fill:none;fill-rule:nonzero;stroke:black;stroke-width:0.72px;"/>
    </g>
    <g transform="matrix(0,1.33333,1.33333,0,-435.727,-590.226)">
        <path d="M477.275,755.345L492.025,755.345" style="fill:none;fill-rule:nonzero;stroke:black;stroke-width:0.72px;"/>
    </g>
    <g transform="matrix(1.15478,0.666534,0.666534,-1.15478,-483.253,602.952)">
        <path d="M483.674,744.325L498.256,744.325" style="fill:none;fill-rule:nonzero;stroke:black;stroke-width:0.72px;"/>
    </g>
</svg>
