<?xml version="1.0" encoding="UTF-8" standalone="no"?>
<!DOCTYPE svg PUBLIC "-//W3C//DTD SVG 1.1//EN" "http://www.w3.org/Graphics/SVG/1.1/DTD/svg11.dtd">
<svg width="100%" height="100%" viewBox="0 0 610 100" version="1.1" xmlns="http://www.w3.org/2000/svg" xmlns:xlink="http://www.w3.org/1999/xlink" xml:space="preserve" xmlns:serif="http://www.serif.com/" style="fill-rule:evenodd;clip-rule:evenodd;stroke-linecap:round;stroke-linejoin:round;stroke-miterlimit:10;">
    <g transform="matrix(1.33333,0,0,1.33333,-63.4811,-58.3174)">
        <text x="66.72px" y="63.6px" style="font-family:'ArialMT', 'Arial', sans-serif;font-size:10px;">O</text>
    </g>
    <g transform="matrix(1.33333,0,0,1.33333,-63.4811,-58.3174)">
        <text x="49.68px" y="93.36px" style="font-family:'ArialMT', 'Arial', sans-serif;font-size:10px;">R</text>
    </g>
    <g transform="matrix(1.33333,0,0,1.33333,-63.4811,-58.3174)">
        <text x="95.52px" y="86.4px" style="font-family:'ArialMT', 'Arial', sans-serif;font-size:18px;">+</text>
    </g>
    <g transform="matrix(1.33333,0,0,1.33333,-63.4811,-58.3174)">
        <text x="177.84px" y="84px" style="font-family:'ArialMT', 'Arial', sans-serif;font-size:10px;">O</text>
        <text x="122.88px" y="91.2px" style="font-family:'ArialMT', 'Arial', sans-serif;font-size:10px;">M</text>
        <text x="131.28px" y="91.2px" style="font-family:'ArialMT', 'Arial', sans-serif;font-size:10px;">e</text>
        <text x="137.04px" y="93.84px" style="font-family:'ArialMT', 'Arial', sans-serif;font-size:8px;">3</text>
        <text x="141.6px" y="91.2px" style="font-family:'ArialMT', 'Arial', sans-serif;font-size:10px;">S</text>
        <text x="148.32px" y="91.2px" style="font-family:'ArialMT', 'Arial', sans-serif;font-size:10px;">i<tspan x="150.72px " y="91.2px ">O</tspan></text>
    </g>
    <g transform="matrix(1.33333,0,0,1.33333,-63.4811,-58.3174)">
        <text x="195.36px" y="113.76px" style="font-family:'ArialMT', 'Arial', sans-serif;font-size:10px;">CH</text>
        <text x="209.76px" y="116.4px" style="font-family:'ArialMT', 'Arial', sans-serif;font-size:8px;">3</text>
    </g>
    <g transform="matrix(1.33333,0,0,1.33333,-63.4811,-58.3174)">
        <text x="212.16px" y="72px" style="font-family:'ArialMT', 'Arial', sans-serif;font-size:10px;">B</text>
        <text x="218.88px" y="72px" style="font-family:'ArialMT', 'Arial', sans-serif;font-size:10px;">u</text>
        <text x="224.4px" y="74.64px" style="font-family:'ArialMT', 'Arial', sans-serif;font-size:6px;">4</text>
        <text x="228px" y="72px" style="font-family:'ArialMT', 'Arial', sans-serif;font-size:10px;">NF</text>
    </g>
    <g transform="matrix(1.33333,0,0,1.33333,-63.4811,-58.3174)">
        <text x="360.48px" y="73.68px" style="font-family:'ArialMT', 'Arial', sans-serif;font-size:10px;">O</text>
    </g>
    <g transform="matrix(1.33333,0,0,1.33333,-63.4811,-58.3174)">
        <text x="291.6px" y="53.76px" style="font-family:'ArialMT', 'Arial', sans-serif;font-size:10px;">O</text>
        <text x="299.52px" y="46.8px" style="font-family:'ArialMT', 'Arial', sans-serif;font-size:8px;">–</text>
    </g>
    <g transform="matrix(1.33333,0,0,1.33333,-63.4811,-58.3174)">
        <text x="274.56px" y="83.52px" style="font-family:'ArialMT', 'Arial', sans-serif;font-size:10px;">R</text>
    </g>
    <g transform="matrix(1.33333,0,0,1.33333,-63.4811,-58.3174)">
        <text x="343.2px" y="103.44px" style="font-family:'ArialMT', 'Arial', sans-serif;font-size:10px;">O</text>
    </g>
    <g transform="matrix(1.33333,0,0,1.33333,-63.4811,-58.3174)">
        <text x="395.28px" y="73.68px" style="font-family:'ArialMT', 'Arial', sans-serif;font-size:10px;">CH</text>
        <text x="409.68px" y="76.32px" style="font-family:'ArialMT', 'Arial', sans-serif;font-size:8px;">3</text>
    </g>
    <g transform="matrix(1.33333,0,0,1.33333,-63.4811,-58.3174)">
        <text x="441.6px" y="74.16px" style="font-family:'ArialMT', 'Arial', sans-serif;font-size:10px;">H</text>
        <text x="448.8px" y="69.12px" style="font-family:'ArialMT', 'Arial', sans-serif;font-size:6px;">+</text>
    </g>
    <g transform="matrix(1.33333,0,0,1.33333,-63.4811,-58.3174)">
        <text x="477.84px" y="82.32px" style="font-family:'ArialMT', 'Arial', sans-serif;font-size:10px;">T<tspan x="484.08px " y="82.32px ">M</tspan></text>
    </g>
    <g transform="matrix(0,-1.33333,-1.33333,0,1057.16,132.083)">
        <path d="M63.36,769.8L78,769.8" style="fill:none;fill-rule:nonzero;stroke:black;stroke-width:0.72px;"/>
    </g>
    <g transform="matrix(0,-1.33333,-1.33333,0,1053.79,126.496)">
        <path d="M60.83,770.63L73.81,770.63" style="fill:none;fill-rule:nonzero;stroke:black;stroke-width:0.72px;"/>
    </g>
    <g transform="matrix(-1.15482,0.666452,0.666452,1.15482,-409.279,-866.535)">
        <path d="M56.848,758.775L71.672,758.775" style="fill:none;fill-rule:nonzero;stroke:black;stroke-width:0.72px;"/>
    </g>
    <g transform="matrix(0.666412,1.15485,1.15485,-0.666412,-858.416,359.48)">
        <path d="M149.576,780.48L169.504,780.48" style="fill:none;fill-rule:nonzero;stroke:black;stroke-width:0.72px;"/>
    </g>
    <g transform="matrix(-0.666412,1.15485,1.15485,0.666412,-665.694,-669.261)">
        <path d="M139.616,780.48L159.544,780.48" style="fill:none;fill-rule:nonzero;stroke:black;stroke-width:0.72px;"/>
    </g>
    <g transform="matrix(-1.33333,0,0,1.33333,348.679,-994.024)">
        <path d="M144.6,771.85L164.52,771.85" style="fill:none;fill-rule:nonzero;stroke:black;stroke-width:0.72px;"/>
    </g>
    <g transform="matrix(1.15495,0.666243,0.666243,-1.15495,-544.895,813.462)">
        <path d="M163.565,768.285L177.835,768.285" style="fill:none;fill-rule:nonzero;stroke:black;stroke-width:0.72px;"/>
    </g>
    <g transform="matrix(0.667101,-1.15445,-1.15445,-0.667101,927.945,739.936)">
        <path d="M154.115,765.845L167.985,765.845" style="fill:none;fill-rule:nonzero;stroke:black;stroke-width:0.72px;"/>
    </g>
    <g transform="matrix(0,1.33333,1.33333,0,-820.248,-177.244)">
        <path d="M174.395,749.345L189.145,749.345" style="fill:none;fill-rule:nonzero;stroke:black;stroke-width:0.72px;"/>
    </g>
    <g transform="matrix(1.15478,0.666534,0.666534,-1.15478,-522.016,807.045)">
        <path d="M180.794,738.325L195.376,738.325" style="fill:none;fill-rule:nonzero;stroke:black;stroke-width:0.72px;"/>
    </g>
    <g transform="matrix(1.33333,0,0,1.33333,-63.4811,-970.317)">
        <path d="M208.32,762.96L253.92,762.96" style="fill:none;fill-rule:nonzero;stroke:black;stroke-width:0.72px;"/>
    </g>
    <g transform="matrix(1.2958,0.314133,0.314133,-1.2958,-293.771,957.086)">
        <path d="M245.659,763.893L253.809,763.893L246.564,760.161L247.511,762.366L245.659,763.893Z" style="stroke:black;stroke-width:0.72px;"/>
    </g>
    <g transform="matrix(1.15468,0.666702,0.666702,-1.15468,-520.695,724.405)">
        <path d="M294.166,767.28L314.084,767.28" style="fill:none;fill-rule:nonzero;stroke:black;stroke-width:0.72px;"/>
    </g>
    <g transform="matrix(1.15468,-0.666702,-0.666702,-1.15468,505.481,1141.43)">
        <path d="M311.416,767.28L331.334,767.28" style="fill:none;fill-rule:nonzero;stroke:black;stroke-width:0.72px;"/>
    </g>
    <g transform="matrix(1.15468,0.666702,0.666702,-1.15468,-514.532,701.403)">
        <path d="M328.666,767.28L348.584,767.28" style="fill:none;fill-rule:nonzero;stroke:black;stroke-width:0.72px;"/>
    </g>
    <g transform="matrix(1.15487,-0.666378,-0.666378,-1.15487,509.925,1163.05)">
        <path d="M346.302,765.84L360.468,765.84" style="fill:none;fill-rule:nonzero;stroke:black;stroke-width:0.72px;"/>
    </g>
    <g transform="matrix(0,-1.33333,-1.33333,0,1370,418.763)">
        <path d="M288.15,779.61L302.85,779.61" style="fill:none;fill-rule:nonzero;stroke:black;stroke-width:0.72px;"/>
    </g>
    <g transform="matrix(-1.15464,0.666766,0.666766,1.15464,143.362,-1040.71)">
        <path d="M281.731,768.57L296.489,768.57" style="fill:none;fill-rule:nonzero;stroke:black;stroke-width:0.72px;"/>
    </g>
    <g transform="matrix(0,1.33333,1.33333,0,-609.321,-403.117)">
        <path d="M338.22,754.95L352.92,754.95" style="fill:none;fill-rule:nonzero;stroke:black;stroke-width:0.72px;"/>
    </g>
    <g transform="matrix(0,1.33333,1.33333,0,-604.841,-407.597)">
        <path d="M341.58,754.95L356.28,754.95" style="fill:none;fill-rule:nonzero;stroke:black;stroke-width:0.72px;"/>
    </g>
    <g transform="matrix(1.15484,0.666431,0.666431,-1.15484,-506.849,677.255)">
        <path d="M368.402,765.875L382.708,765.875" style="fill:none;fill-rule:nonzero;stroke:black;stroke-width:0.72px;"/>
    </g>
    <g transform="matrix(1.15499,-0.666164,-0.666164,-1.15499,515.954,1186.14)">
        <path d="M380.78,765.925L395.29,765.925" style="fill:none;fill-rule:nonzero;stroke:black;stroke-width:0.72px;"/>
    </g>
    <g transform="matrix(1.33333,0,0,1.33333,-63.4811,-970.957)">
        <path d="M429.84,763.2L463.92,763.2" style="fill:none;fill-rule:nonzero;stroke:black;stroke-width:0.72px;"/>
    </g>
    <g transform="matrix(1.2958,0.314133,0.314133,-1.2958,-285.964,891.109)">
        <path d="M455.659,764.133L463.809,764.133L456.564,760.401L457.511,762.606L455.659,764.133Z" style="stroke:black;stroke-width:0.72px;"/>
    </g>
</svg>
