<?xml version="1.0" encoding="UTF-8" standalone="no"?>
<!DOCTYPE svg PUBLIC "-//W3C//DTD SVG 1.1//EN" "http://www.w3.org/Graphics/SVG/1.1/DTD/svg11.dtd">
<svg width="100%" height="100%" viewBox="0 0 835 395" version="1.1" xmlns="http://www.w3.org/2000/svg" xmlns:xlink="http://www.w3.org/1999/xlink" xml:space="preserve" xmlns:serif="http://www.serif.com/" style="fill-rule:evenodd;clip-rule:evenodd;stroke-linecap:round;stroke-linejoin:round;stroke-miterlimit:10;">
    <g transform="matrix(1.33333,0,0,1.33333,-58.2146,-101.537)">
        <text x="132.72px" y="117.12px" style="font-family:'ArialMT', 'Arial', sans-serif;font-size:10px;">O</text>
    </g>
    <g transform="matrix(1.33333,0,0,1.33333,-58.2146,-101.537)">
        <text x="63.84px" y="97.2px" style="font-family:'ArialMT', 'Arial', sans-serif;font-size:10px;">O</text>
    </g>
    <g transform="matrix(1.33333,0,0,1.33333,-58.2146,-101.537)">
        <text x="46.8px" y="126.96px" style="font-family:'ArialMT', 'Arial', sans-serif;font-size:10px;">R</text>
    </g>
    <g transform="matrix(1.33333,0,0,1.33333,-58.2146,-101.537)">
        <text x="115.44px" y="146.88px" style="font-family:'ArialMT', 'Arial', sans-serif;font-size:10px;">O</text>
    </g>
    <g transform="matrix(1.33333,0,0,1.33333,-58.2146,-101.537)">
        <text x="167.52px" y="117.12px" style="font-family:'ArialMT', 'Arial', sans-serif;font-size:10px;">CH</text>
        <text x="181.92px" y="119.76px" style="font-family:'ArialMT', 'Arial', sans-serif;font-size:8px;">3</text>
    </g>
    <g transform="matrix(1.33333,0,0,1.33333,-58.2146,-101.537)">
        <text x="336.96px" y="117.6px" style="font-family:'ArialMT', 'Arial', sans-serif;font-size:10px;">O</text>
    </g>
    <g transform="matrix(1.33333,0,0,1.33333,-58.2146,-101.537)">
        <text x="268.08px" y="97.68px" style="font-family:'ArialMT', 'Arial', sans-serif;font-size:10px;">O</text>
    </g>
    <g transform="matrix(1.33333,0,0,1.33333,-58.2146,-101.537)">
        <text x="251.04px" y="127.44px" style="font-family:'ArialMT', 'Arial', sans-serif;font-size:10px;">R</text>
    </g>
    <g transform="matrix(1.33333,0,0,1.33333,-58.2146,-101.537)">
        <text x="319.68px" y="147.36px" style="font-family:'ArialMT', 'Arial', sans-serif;font-size:10px;">O</text>
    </g>
    <g transform="matrix(1.33333,0,0,1.33333,-58.2146,-101.537)">
        <text x="371.76px" y="117.6px" style="font-family:'ArialMT', 'Arial', sans-serif;font-size:10px;">CH</text>
        <text x="386.16px" y="120.24px" style="font-family:'ArialMT', 'Arial', sans-serif;font-size:8px;">3</text>
    </g>
    <g transform="matrix(1.33333,0,0,1.33333,-58.2146,-101.537)">
        <text x="285.84px" y="147.36px" style="font-family:'ArialMT', 'Arial', sans-serif;font-size:10px;">S</text>
        <text x="268.08px" y="157.44px" style="font-family:'ArialMT', 'Arial', sans-serif;font-size:10px;">O</text>
        <text x="292.08px" y="164.64px" style="font-family:'ArialMT', 'Arial', sans-serif;font-size:10px;">CH</text>
        <text x="306.48px" y="167.28px" style="font-family:'ArialMT', 'Arial', sans-serif;font-size:8px;">3</text>
    </g>
    <g transform="matrix(1.33333,0,0,1.33333,-58.2146,-101.537)">
        <text x="495.6px" y="116.88px" style="font-family:'ArialMT', 'Arial', sans-serif;font-size:10px;">CH</text>
        <text x="510px" y="109.92px" style="font-family:'ArialMT', 'Arial', sans-serif;font-size:8px;">–</text>
        <text x="495.84px" y="136.8px" style="font-family:'ArialMT', 'Arial', sans-serif;font-size:10px;">S</text>
    </g>
    <g transform="matrix(1.33333,0,0,1.33333,-58.2146,-101.537)">
        <text x="461.28px" y="116.88px" style="font-family:'ArialMT', 'Arial', sans-serif;font-size:10px;">R</text>
    </g>
    <g transform="matrix(1.33333,0,0,1.33333,-58.2146,-101.537)">
        <text x="478.08px" y="86.88px" style="font-family:'ArialMT', 'Arial', sans-serif;font-size:10px;">O</text>
    </g>
    <g transform="matrix(1.33333,0,0,1.33333,-58.2146,-101.537)">
        <text x="478.32px" y="146.64px" style="font-family:'ArialMT', 'Arial', sans-serif;font-size:10px;">O</text>
    </g>
    <g transform="matrix(1.33333,0,0,1.33333,-58.2146,-101.537)">
        <text x="512.88px" y="146.88px" style="font-family:'ArialMT', 'Arial', sans-serif;font-size:10px;">CH</text>
        <text x="527.28px" y="149.52px" style="font-family:'ArialMT', 'Arial', sans-serif;font-size:8px;">3</text>
    </g>
    <g transform="matrix(1.33333,0,0,1.33333,-58.2146,-101.537)">
        <text x="591.36px" y="108px" style="font-family:'ArialMT', 'Arial', sans-serif;font-size:10px;">O</text>
    </g>
    <g transform="matrix(1.33333,0,0,1.33333,-58.2146,-101.537)">
        <text x="574.32px" y="137.76px" style="font-family:'ArialMT', 'Arial', sans-serif;font-size:10px;">O</text>
    </g>
    <g transform="matrix(1.33333,0,0,1.33333,-58.2146,-101.537)">
        <text x="557.28px" y="108px" style="font-family:'ArialMT', 'Arial', sans-serif;font-size:10px;">C</text>
    </g>
    <g transform="matrix(1.33333,0,0,1.33333,-58.2146,-101.537)">
        <text x="545.76px" y="108px" style="font-family:'ArialMT', 'Arial', sans-serif;font-size:10px;">H</text>
        <text x="552.969px" y="110.64px" style="font-family:'ArialMT', 'Arial', sans-serif;font-size:8px;">2</text>
        <text x="564.48px" y="101.04px" style="font-family:'ArialMT', 'Arial', sans-serif;font-size:8px;">+</text>
    </g>
    <g transform="matrix(1.33333,0,0,1.33333,-58.2146,-101.537)">
        <text x="626.16px" y="107.76px" style="font-family:'ArialMT', 'Arial', sans-serif;font-size:10px;">CH</text>
        <text x="640.56px" y="110.4px" style="font-family:'ArialMT', 'Arial', sans-serif;font-size:8px;">3</text>
    </g>
    <g transform="matrix(0.486509,1.24141,-1.24141,0.486509,-58.2146,-101.537)">
        <text x="279.749px" y="-423.375px" style="font-family:'ArialMT', 'Arial', sans-serif;font-size:10px;">:</text>
    </g>
    <g transform="matrix(1.33333,0,0,1.33333,-58.2146,-101.537)">
        <text x="522.72px" y="120.48px" style="font-family:'ArialMT', 'Arial', sans-serif;font-size:18px;">+</text>
    </g>
    <g transform="matrix(1.33333,0,0,1.33333,-58.2146,-101.537)">
        <text x="585.36px" y="261.36px" style="font-family:'ArialMT', 'Arial', sans-serif;font-size:10px;">O</text>
    </g>
    <g transform="matrix(1.33333,0,0,1.33333,-58.2146,-101.537)">
        <text x="546.48px" y="241.44px" style="font-family:'ArialMT', 'Arial', sans-serif;font-size:10px;">Br</text>
    </g>
    <g transform="matrix(1.33333,0,0,1.33333,-58.2146,-101.537)">
        <text x="602.64px" y="231.36px" style="font-family:'ArialMT', 'Arial', sans-serif;font-size:10px;">O</text>
    </g>
    <g transform="matrix(1.33333,0,0,1.33333,-58.2146,-101.537)">
        <text x="637.44px" y="231.36px" style="font-family:'ArialMT', 'Arial', sans-serif;font-size:10px;">CH</text>
        <text x="651.84px" y="234px" style="font-family:'ArialMT', 'Arial', sans-serif;font-size:8px;">3</text>
    </g>
    <g transform="matrix(1.33333,0,0,1.33333,-58.2146,-101.537)">
        <text x="489.84px" y="274.08px" style="font-family:'ArialMT', 'Arial', sans-serif;font-size:10px;">S</text>
        <text x="472.08px" y="284.16px" style="font-family:'ArialMT', 'Arial', sans-serif;font-size:10px;">O</text>
    </g>
    <g transform="matrix(1.33333,0,0,1.33333,-58.2146,-101.537)">
        <text x="455.28px" y="254.16px" style="font-family:'ArialMT', 'Arial', sans-serif;font-size:10px;">R</text>
    </g>
    <g transform="matrix(1.33333,0,0,1.33333,-58.2146,-101.537)">
        <text x="472.08px" y="224.16px" style="font-family:'ArialMT', 'Arial', sans-serif;font-size:10px;">O</text>
    </g>
    <g transform="matrix(1.33333,0,0,1.33333,-58.2146,-101.537)">
        <text x="506.88px" y="284.16px" style="font-family:'ArialMT', 'Arial', sans-serif;font-size:10px;">CH</text>
        <text x="521.28px" y="286.8px" style="font-family:'ArialMT', 'Arial', sans-serif;font-size:8px;">3</text>
    </g>
    <g transform="matrix(1.33333,0,0,1.33333,-58.2146,-101.537)">
        <text x="468.24px" y="223.44px" style="font-family:'ArialMT', 'Arial', sans-serif;font-size:10px;">:	<tspan x="480.72px " y="223.44px ">:</tspan></text>
    </g>
    <g transform="matrix(1.33333,0,0,1.33333,-58.2146,-101.537)">
        <text x="341.52px" y="255.36px" style="font-family:'ArialMT', 'Arial', sans-serif;font-size:10px;">S</text>
    </g>
    <g transform="matrix(1.33333,0,0,1.33333,-58.2146,-101.537)">
        <text x="341.04px" y="235.44px" style="font-family:'ArialMT', 'Arial', sans-serif;font-size:10px;">O</text>
    </g>
    <g transform="matrix(1.33333,0,0,1.33333,-58.2146,-101.537)">
        <text x="361.2px" y="255.36px" style="font-family:'ArialMT', 'Arial', sans-serif;font-size:10px;">CH</text>
        <text x="375.6px" y="258px" style="font-family:'ArialMT', 'Arial', sans-serif;font-size:8px;">3</text>
    </g>
    <g transform="matrix(1.33333,0,0,1.33333,-58.2146,-101.537)">
        <text x="321.36px" y="255.36px" style="font-family:'ArialMT', 'Arial', sans-serif;font-size:10px;">C</text>
    </g>
    <g transform="matrix(1.33333,0,0,1.33333,-58.2146,-101.537)">
        <text x="309.84px" y="255.36px" style="font-family:'ArialMT', 'Arial', sans-serif;font-size:10px;">H</text>
        <text x="317.049px" y="258px" style="font-family:'ArialMT', 'Arial', sans-serif;font-size:8px;">2</text>
        <text x="328.56px" y="248.4px" style="font-family:'ArialMT', 'Arial', sans-serif;font-size:8px;">–</text>
    </g>
    <g transform="matrix(0.208532,1.31693,-1.31693,0.208532,-58.2146,-101.537)">
        <text x="292.288px" y="-278.716px" style="font-family:'ArialMT', 'Arial', sans-serif;font-size:10px;">:</text>
    </g>
    <g transform="matrix(1.33333,0,0,1.33333,-58.2146,-101.537)">
        <text x="289.2px" y="258.72px" style="font-family:'ArialMT', 'Arial', sans-serif;font-size:18px;">+</text>
    </g>
    <g transform="matrix(1.33333,0,0,1.33333,-58.2146,-101.537)">
        <text x="342.72px" y="339.84px" style="font-family:'ArialMT', 'Arial', sans-serif;font-size:10px;">S</text>
        <text x="359.52px" y="349.68px" style="font-family:'ArialMT', 'Arial', sans-serif;font-size:10px;">CH</text>
        <text x="373.92px" y="352.32px" style="font-family:'ArialMT', 'Arial', sans-serif;font-size:8px;">3</text>
    </g>
    <g transform="matrix(1.33333,0,0,1.33333,-58.2146,-101.537)">
        <text x="325.2px" y="349.68px" style="font-family:'ArialMT', 'Arial', sans-serif;font-size:10px;">C</text>
    </g>
    <g transform="matrix(1.33333,0,0,1.33333,-58.2146,-101.537)">
        <text x="313.68px" y="349.68px" style="font-family:'ArialMT', 'Arial', sans-serif;font-size:10px;">H</text>
        <text x="320.88px" y="352.32px" style="font-family:'ArialMT', 'Arial', sans-serif;font-size:8px;">3</text>
    </g>
    <g transform="matrix(1.33333,0,0,1.33333,-58.2146,-101.537)">
        <text x="342px" y="319.92px" style="font-family:'ArialMT', 'Arial', sans-serif;font-size:10px;">O</text>
    </g>
    <g transform="matrix(1.33333,0,0,1.33333,-58.2146,-101.537)">
        <text x="269.52px" y="256.08px" style="font-family:'ArialMT', 'Arial', sans-serif;font-size:10px;">O</text>
        <text x="277.44px" y="249.12px" style="font-family:'ArialMT', 'Arial', sans-serif;font-size:8px;">+</text>
    </g>
    <g transform="matrix(1.33333,0,0,1.33333,-58.2146,-101.537)">
        <text x="229.92px" y="256.08px" style="font-family:'ArialMT', 'Arial', sans-serif;font-size:10px;">R</text>
        <text x="104.16px" y="264.96px" style="font-family:'ArialMT', 'Arial', sans-serif;font-size:10px;">R</text>
    </g>
    <g transform="matrix(1.33333,0,0,1.33333,-58.2146,-101.537)">
        <text x="138.72px" y="265.2px" style="font-family:'ArialMT', 'Arial', sans-serif;font-size:10px;">Cl</text>
    </g>
    <g transform="matrix(1.33333,0,0,1.33333,-58.2146,-101.537)">
        <text x="121.2px" y="235.2px" style="font-family:'ArialMT', 'Arial', sans-serif;font-size:10px;">O</text>
    </g>
    <g transform="matrix(1.33333,0,0,1.33333,-58.2146,-101.537)">
        <text x="104.64px" y="366.72px" style="font-family:'ArialMT', 'Arial', sans-serif;font-size:10px;">R</text>
    </g>
    <g transform="matrix(1.33333,0,0,1.33333,-58.2146,-101.537)">
        <text x="138.96px" y="366.48px" style="font-family:'ArialMT', 'Arial', sans-serif;font-size:10px;">O</text>
    </g>
    <g transform="matrix(1.33333,0,0,1.33333,-58.2146,-101.537)">
        <text x="121.44px" y="336.72px" style="font-family:'ArialMT', 'Arial', sans-serif;font-size:10px;">O</text>
    </g>
    <g transform="matrix(1.33333,0,0,1.33333,-58.2146,-101.537)">
        <text x="156.48px" y="356.4px" style="font-family:'ArialMT', 'Arial', sans-serif;font-size:10px;">CH</text>
        <text x="170.88px" y="359.04px" style="font-family:'ArialMT', 'Arial', sans-serif;font-size:8px;">3</text>
    </g>
    <g transform="matrix(1.15468,0.666702,0.666702,-1.15468,-527.157,840.794)">
        <path d="M66.406,723.84L86.324,723.84" style="fill:none;fill-rule:nonzero;stroke:black;stroke-width:0.72px;"/>
    </g>
    <g transform="matrix(1.15468,-0.666702,-0.666702,-1.15468,441.096,954.12)">
        <path d="M83.656,723.84L103.574,723.84" style="fill:none;fill-rule:nonzero;stroke:black;stroke-width:0.72px;"/>
    </g>
    <g transform="matrix(1.15463,-0.666781,-0.666781,-1.15463,439.112,955.328)">
        <path d="M85.447,720.515L103.703,720.515" style="fill:none;fill-rule:nonzero;stroke:black;stroke-width:0.72px;"/>
    </g>
    <g transform="matrix(1.15468,0.666702,0.666702,-1.15468,-520.994,817.792)">
        <path d="M100.906,723.84L120.824,723.84" style="fill:none;fill-rule:nonzero;stroke:black;stroke-width:0.72px;"/>
    </g>
    <g transform="matrix(1.15487,-0.666378,-0.666378,-1.15487,445.597,975.812)">
        <path d="M118.542,722.4L132.708,722.4" style="fill:none;fill-rule:nonzero;stroke:black;stroke-width:0.72px;"/>
    </g>
    <g transform="matrix(0,-1.33333,-1.33333,0,1015.91,132.023)">
        <path d="M62.07,736.17L76.77,736.17" style="fill:none;fill-rule:nonzero;stroke:black;stroke-width:0.72px;"/>
    </g>
    <g transform="matrix(0,-1.33333,-1.33333,0,1011.43,127.543)">
        <path d="M58.71,736.17L73.41,736.17" style="fill:none;fill-rule:nonzero;stroke:black;stroke-width:0.72px;"/>
    </g>
    <g transform="matrix(-1.15464,0.666766,0.666766,1.15464,-389.069,-823.99)">
        <path d="M53.971,725.13L68.729,725.13" style="fill:none;fill-rule:nonzero;stroke:black;stroke-width:0.72px;"/>
    </g>
    <g transform="matrix(0,1.33333,1.33333,0,-849.815,-84.7374)">
        <path d="M110.46,711.51L125.16,711.51" style="fill:none;fill-rule:nonzero;stroke:black;stroke-width:0.72px;"/>
    </g>
    <g transform="matrix(0,1.33333,1.33333,0,-845.335,-89.2174)">
        <path d="M113.82,711.51L128.52,711.51" style="fill:none;fill-rule:nonzero;stroke:black;stroke-width:0.72px;"/>
    </g>
    <g transform="matrix(1.15484,0.666431,0.666431,-1.15484,-513.287,793.575)">
        <path d="M140.642,722.435L154.948,722.435" style="fill:none;fill-rule:nonzero;stroke:black;stroke-width:0.72px;"/>
    </g>
    <g transform="matrix(1.15499,-0.666164,-0.666164,-1.15499,451.663,998.942)">
        <path d="M153.02,722.485L167.53,722.485" style="fill:none;fill-rule:nonzero;stroke:black;stroke-width:0.72px;"/>
    </g>
    <g transform="matrix(1.33333,0,0,1.33333,-58.2146,-916.257)">
        <path d="M202.56,726.48L236.64,726.48" style="fill:none;fill-rule:nonzero;stroke:black;stroke-width:0.72px;"/>
    </g>
    <g transform="matrix(1.33333,0,0,1.33333,-58.2146,-923.937)">
        <path d="M202.56,729.36L236.64,729.36" style="fill:none;fill-rule:nonzero;stroke:black;stroke-width:0.72px;"/>
    </g>
    <g transform="matrix(1.33333,0,0,1.33333,-58.2146,-920.097)">
        <path d="M232.08,724.32L240,727.92L232.08,731.52" style="fill:none;fill-rule:nonzero;stroke:black;stroke-width:0.72px;"/>
    </g>
    <g transform="matrix(1.15468,0.666702,0.666702,-1.15468,-490.349,704.712)">
        <path d="M270.646,723.36L290.564,723.36" style="fill:none;fill-rule:nonzero;stroke:black;stroke-width:0.72px;"/>
    </g>
    <g transform="matrix(1.15468,-0.666702,-0.666702,-1.15468,477.264,1090.37)">
        <path d="M287.896,723.36L307.814,723.36" style="fill:none;fill-rule:nonzero;stroke:black;stroke-width:0.72px;"/>
    </g>
    <g transform="matrix(1.15468,0.666702,0.666702,-1.15468,-484.186,681.711)">
        <path d="M305.146,723.36L325.064,723.36" style="fill:none;fill-rule:nonzero;stroke:black;stroke-width:0.72px;"/>
    </g>
    <g transform="matrix(1.15487,-0.666378,-0.666378,-1.15487,481.727,1112)">
        <path d="M322.782,721.92L336.948,721.92" style="fill:none;fill-rule:nonzero;stroke:black;stroke-width:0.72px;"/>
    </g>
    <g transform="matrix(0,-1.33333,-1.33333,0,1287.59,404.983)">
        <path d="M266.31,735.69L281.01,735.69" style="fill:none;fill-rule:nonzero;stroke:black;stroke-width:0.72px;"/>
    </g>
    <g transform="matrix(0,-1.33333,-1.33333,0,1283.11,400.503)">
        <path d="M262.95,735.69L277.65,735.69" style="fill:none;fill-rule:nonzero;stroke:black;stroke-width:0.72px;"/>
    </g>
    <g transform="matrix(-1.15464,0.666766,0.666766,1.15464,119.395,-958.976)">
        <path d="M258.211,724.65L272.969,724.65" style="fill:none;fill-rule:nonzero;stroke:black;stroke-width:0.72px;"/>
    </g>
    <g transform="matrix(0,1.33333,1.33333,0,-576.855,-356.417)">
        <path d="M314.7,711.03L329.4,711.03" style="fill:none;fill-rule:nonzero;stroke:black;stroke-width:0.72px;"/>
    </g>
    <g transform="matrix(0,1.33333,1.33333,0,-572.375,-360.897)">
        <path d="M318.06,711.03L332.76,711.03" style="fill:none;fill-rule:nonzero;stroke:black;stroke-width:0.72px;"/>
    </g>
    <g transform="matrix(1.15484,0.666431,0.666431,-1.15484,-476.511,657.549)">
        <path d="M344.882,721.955L359.188,721.955" style="fill:none;fill-rule:nonzero;stroke:black;stroke-width:0.72px;"/>
    </g>
    <g transform="matrix(1.15499,-0.666164,-0.666164,-1.15499,487.768,1135.09)">
        <path d="M357.26,722.005L371.77,722.005" style="fill:none;fill-rule:nonzero;stroke:black;stroke-width:0.72px;"/>
    </g>
    <g transform="matrix(0,1.33333,1.33333,0,-620.615,-312.657)">
        <path d="M281.88,711.03L296.58,711.03" style="fill:none;fill-rule:nonzero;stroke:black;stroke-width:0.72px;"/>
    </g>
    <g transform="matrix(-1.15487,0.666381,0.666381,1.15487,177.232,-896.981)">
        <path d="M276.348,695.605L285.492,695.605" style="fill:none;fill-rule:nonzero;stroke:black;stroke-width:0.72px;"/>
    </g>
    <g transform="matrix(-1.15487,0.666381,0.666381,1.15487,179.818,-887.326)">
        <path d="M276.348,691.725L285.492,691.725" style="fill:none;fill-rule:nonzero;stroke:black;stroke-width:0.72px;"/>
    </g>
    <g transform="matrix(0.468165,1.24844,1.24844,-0.468165,-666.465,59.0478)">
        <path d="M288.738,689.88L296.172,689.88" style="fill:none;fill-rule:nonzero;stroke:black;stroke-width:0.72px;"/>
    </g>
    <g transform="matrix(1.33333,0,0,1.33333,-58.2146,-930.977)">
        <path d="M295.68,720L298.56,720.96L300.96,722.4L302.16,723.36L303.12,724.56L304.08,725.52L304.8,726.96L305.52,728.16L306,729.6L306.48,732.48L306.72,733.2L306.72,733.92L306.48,736.32L306,738.48L304.08,742.32L303.36,743.28L302.64,744" style="fill:none;fill-rule:nonzero;stroke:black;stroke-width:0.48px;"/>
    </g>
    <g transform="matrix(-1.31915,-0.193992,-0.193992,1.31915,880.757,-887.905)">
        <path d="M295.898,739.819L304.146,739.819L296.799,743.59L297.86,741.321L295.898,739.819Z" style="stroke:black;stroke-width:0.48px;"/>
    </g>
    <g transform="matrix(1.33333,0,0,1.33333,-58.2146,-918.817)">
        <path d="M408,727.44L442.08,727.44" style="fill:none;fill-rule:nonzero;stroke:black;stroke-width:0.72px;"/>
    </g>
    <g transform="matrix(1.33333,0,0,1.33333,-58.2146,-926.497)">
        <path d="M408,730.32L442.08,730.32" style="fill:none;fill-rule:nonzero;stroke:black;stroke-width:0.72px;"/>
    </g>
    <g transform="matrix(1.33333,0,0,1.33333,-58.2146,-922.657)">
        <path d="M437.52,725.28L445.44,728.88L437.52,732.48" style="fill:none;fill-rule:nonzero;stroke:black;stroke-width:0.72px;"/>
    </g>
    <g transform="matrix(0,1.33333,1.33333,0,-351.055,-603.577)">
        <path d="M494.61,719.04L504.21,719.04" style="fill:none;fill-rule:nonzero;stroke:black;stroke-width:0.72px;"/>
    </g>
    <g transform="matrix(-1.15451,-0.666991,-0.666991,1.15451,1647.32,-482.67)">
        <path d="M481.194,735.355L495.606,735.355" style="fill:none;fill-rule:nonzero;stroke:black;stroke-width:0.72px;"/>
    </g>
    <g transform="matrix(-1.15485,0.666401,0.666401,1.15485,635.666,-1125.59)">
        <path d="M468.457,735.29L483.143,735.29" style="fill:none;fill-rule:nonzero;stroke:black;stroke-width:0.72px;"/>
    </g>
    <g transform="matrix(0,-1.33333,-1.33333,0,1582.11,670.943)">
        <path d="M476.4,746.4L491.28,746.4" style="fill:none;fill-rule:nonzero;stroke:black;stroke-width:0.72px;"/>
    </g>
    <g transform="matrix(0,-1.33333,-1.33333,0,1577.63,666.463)">
        <path d="M473.04,746.4L487.92,746.4" style="fill:none;fill-rule:nonzero;stroke:black;stroke-width:0.72px;"/>
    </g>
    <g transform="matrix(-1.15496,0.66621,0.66621,1.15496,693.172,-1063.31)">
        <path d="M486.607,706.185L495.473,706.185" style="fill:none;fill-rule:nonzero;stroke:black;stroke-width:0.72px;"/>
    </g>
    <g transform="matrix(-1.15496,0.66621,0.66621,1.15496,695.757,-1053.66)">
        <path d="M486.607,702.305L495.473,702.305" style="fill:none;fill-rule:nonzero;stroke:black;stroke-width:0.72px;"/>
    </g>
    <g transform="matrix(1.15469,0.666693,0.666693,-1.15469,-437.053,556.71)">
        <path d="M502.87,704.285L512.57,704.285" style="fill:none;fill-rule:nonzero;stroke:black;stroke-width:0.72px;"/>
    </g>
    <g transform="matrix(-1.15462,-0.666805,-0.666805,1.15462,1938.5,-394.858)">
        <path d="M599.276,731.635L613.654,731.635" style="fill:none;fill-rule:nonzero;stroke:black;stroke-width:0.72px;"/>
    </g>
    <g transform="matrix(-1.15468,0.666706,0.666706,1.15468,907.779,-1188.67)">
        <path d="M577.245,731.565L591.345,731.565" style="fill:none;fill-rule:nonzero;stroke:black;stroke-width:0.72px;"/>
    </g>
    <g transform="matrix(0,1.33333,1.33333,0,-250.415,-708.537)">
        <path d="M569.13,720.66L583.89,720.66" style="fill:none;fill-rule:nonzero;stroke:black;stroke-width:0.72px;"/>
    </g>
    <g transform="matrix(0,1.33333,1.33333,0,-245.935,-713.017)">
        <path d="M572.49,720.66L587.25,720.66" style="fill:none;fill-rule:nonzero;stroke:black;stroke-width:0.72px;"/>
    </g>
    <g transform="matrix(-1.15475,-0.666584,-0.666584,1.15475,1852.26,-418.394)">
        <path d="M564.454,731.72L579.176,731.72" style="fill:none;fill-rule:nonzero;stroke:black;stroke-width:0.72px;"/>
    </g>
    <g transform="matrix(1.15481,-0.666483,-0.666483,-1.15481,539.916,1302.92)">
        <path d="M611.723,731.65L626.167,731.65" style="fill:none;fill-rule:nonzero;stroke:black;stroke-width:0.72px;"/>
    </g>
    <g transform="matrix(0,1.33333,1.33333,0,-145.415,-658.497)">
        <path d="M580.92,662.52L613.32,662.52" style="fill:none;fill-rule:nonzero;stroke:black;stroke-width:0.72px;"/>
    </g>
    <g transform="matrix(0,1.33333,1.33333,0,-141.575,-662.337)">
        <path d="M583.8,662.52L616.2,662.52" style="fill:none;fill-rule:nonzero;stroke:black;stroke-width:0.72px;"/>
    </g>
    <g transform="matrix(1.33333,0,0,1.33333,-58.2146,-704.097)">
        <path d="M602.16,642.96L598.56,650.88L594.96,642.96" style="fill:none;fill-rule:nonzero;stroke:black;stroke-width:0.72px;"/>
    </g>
    <g transform="matrix(0,1.33333,1.33333,0,-70.6546,-558.697)">
        <path d="M580.35,597.06L595.11,597.06" style="fill:none;fill-rule:nonzero;stroke:black;stroke-width:0.72px;"/>
    </g>
    <g transform="matrix(0,1.33333,1.33333,0,-66.1746,-563.177)">
        <path d="M583.71,597.06L598.47,597.06" style="fill:none;fill-rule:nonzero;stroke:black;stroke-width:0.72px;"/>
    </g>
    <g transform="matrix(-1.15468,-0.666702,-0.666702,1.15468,1793.09,-108.012)">
        <path d="M570.826,609.42L590.744,609.42" style="fill:none;fill-rule:nonzero;stroke:black;stroke-width:0.72px;"/>
    </g>
    <g transform="matrix(-1.15478,0.666524,0.666524,1.15478,940.477,-873.643)">
        <path d="M556.388,610.175L573.292,610.175" style="fill:none;fill-rule:nonzero;stroke:black;stroke-width:0.72px;"/>
    </g>
    <g transform="matrix(1.15487,-0.666378,-0.666378,-1.15487,453.215,1309.38)">
        <path d="M588.462,607.98L602.628,607.98" style="fill:none;fill-rule:nonzero;stroke:black;stroke-width:0.72px;"/>
    </g>
    <g transform="matrix(1.15443,0.66713,0.66713,-1.15443,-353.333,500.151)">
        <path d="M610.56,608.02L624.87,608.02" style="fill:none;fill-rule:nonzero;stroke:black;stroke-width:0.72px;"/>
    </g>
    <g transform="matrix(1.15459,-0.666853,-0.666853,-1.15459,459.92,1332.58)">
        <path d="M622.937,608.07L637.453,608.07" style="fill:none;fill-rule:nonzero;stroke:black;stroke-width:0.72px;"/>
    </g>
    <g transform="matrix(0,1.33333,1.33333,0,-307.015,-494.977)">
        <path d="M459.48,661.8L490.92,661.8" style="fill:none;fill-rule:nonzero;stroke:black;stroke-width:0.72px;"/>
    </g>
    <g transform="matrix(0,1.33333,1.33333,0,-303.175,-498.817)">
        <path d="M462.36,661.8L493.8,661.8" style="fill:none;fill-rule:nonzero;stroke:black;stroke-width:0.72px;"/>
    </g>
    <g transform="matrix(1.33333,0,0,1.33333,-58.2146,-703.457)">
        <path d="M480.24,642.72L476.64,650.64L473.04,642.72" style="fill:none;fill-rule:nonzero;stroke:black;stroke-width:0.72px;"/>
    </g>
    <g transform="matrix(0,1.33333,1.33333,0,-179.455,-415.977)">
        <path d="M486.03,584.34L500.79,584.34" style="fill:none;fill-rule:nonzero;stroke:black;stroke-width:0.72px;"/>
    </g>
    <g transform="matrix(-1.15468,-0.666702,-0.666702,1.15468,1545.76,-140.368)">
        <path d="M474.826,596.7L494.744,596.7" style="fill:none;fill-rule:nonzero;stroke:black;stroke-width:0.72px;"/>
    </g>
    <g transform="matrix(-1.15487,0.666381,0.666381,1.15487,769.302,-717.493)">
        <path d="M480.348,568.835L489.492,568.835" style="fill:none;fill-rule:nonzero;stroke:black;stroke-width:0.72px;"/>
    </g>
    <g transform="matrix(-1.15487,0.666381,0.666381,1.15487,771.888,-707.839)">
        <path d="M480.348,564.955L489.492,564.955" style="fill:none;fill-rule:nonzero;stroke:black;stroke-width:0.72px;"/>
    </g>
    <g transform="matrix(-1.15485,0.666401,0.666401,1.15485,712.221,-780.013)">
        <path d="M462.457,598.01L477.143,598.01" style="fill:none;fill-rule:nonzero;stroke:black;stroke-width:0.72px;"/>
    </g>
    <g transform="matrix(0,-1.33333,-1.33333,0,1391.07,845.983)">
        <path d="M470.4,609.12L485.28,609.12" style="fill:none;fill-rule:nonzero;stroke:black;stroke-width:0.72px;"/>
    </g>
    <g transform="matrix(0,-1.33333,-1.33333,0,1386.59,841.503)">
        <path d="M467.04,609.12L481.92,609.12" style="fill:none;fill-rule:nonzero;stroke:black;stroke-width:0.72px;"/>
    </g>
    <g transform="matrix(1.15469,0.666693,0.666693,-1.15469,-346.602,585.235)">
        <path d="M496.87,567.005L506.57,567.005" style="fill:none;fill-rule:nonzero;stroke:black;stroke-width:0.72px;"/>
    </g>
    <g transform="matrix(1.33333,0,0,1.33333,-58.2146,-610.017)">
        <path d="M481.92,601.68L484.32,602.16L485.52,602.64L488.4,604.8L489.12,605.76L489.84,606.96L490.32,607.92L490.8,610.32L491.04,611.04L491.04,611.76L490.8,612.72L490.8,613.92L490.32,615.12L488.88,618L487.92,618.72L487.2,619.44L486.24,620.16L484.32,621.12L483.36,621.36L482.16,621.6L480,621.6" style="fill:none;fill-rule:nonzero;stroke:black;stroke-width:0.48px;"/>
    </g>
    <g transform="matrix(-1.31915,-0.193992,-0.193992,1.31915,1342.68,-483.241)">
        <path d="M479.747,603.945L487.994,603.945L480.815,599.978L481.688,602.29L479.747,603.945Z" style="stroke:black;stroke-width:0.48px;"/>
    </g>
    <g transform="matrix(1.33333,0,0,1.33333,-58.2146,-537.057)">
        <path d="M480,597.36L478.08,597.6L476.88,597.36L475.68,597.36L474.48,597.12L473.52,596.64L472.32,596.4L471.36,595.68L470.4,595.2L469.2,594.24L468,593.04L467.04,591.6L466.32,590.64L465.36,588.72L465.12,587.52L464.88,586.56L464.64,585.36L464.64,582.96L464.88,581.52L465.12,580.32L465.6,579.36L466.08,578.16L466.56,577.2L468,575.28L468.96,574.32L470.88,572.88L471.84,572.4L473.04,571.68L474,571.44L475.2,570.96L475.92,570.96" style="fill:none;fill-rule:nonzero;stroke:black;stroke-width:0.48px;"/>
    </g>
    <g transform="matrix(1.2958,-0.314133,-0.314133,-1.2958,139.086,1149.12)">
        <path d="M471.739,570.267L479.889,570.267L472.644,573.999L473.591,571.794L471.739,570.267Z" style="stroke:black;stroke-width:0.48px;"/>
    </g>
    <g transform="matrix(-1.33333,0,0,1.33333,1047.71,-557.857)">
        <path d="M391.92,592.08L437.52,592.08" style="fill:none;fill-rule:nonzero;stroke:black;stroke-width:0.72px;"/>
    </g>
    <g transform="matrix(-1.33333,0,0,1.33333,1047.71,-550.177)">
        <path d="M391.92,589.2L437.52,589.2" style="fill:none;fill-rule:nonzero;stroke:black;stroke-width:0.72px;"/>
    </g>
    <g transform="matrix(1.33333,0,0,1.33333,-58.2146,-554.017)">
        <path d="M396.48,594.24L388.56,590.64L396.48,587.04" style="fill:none;fill-rule:nonzero;stroke:black;stroke-width:0.72px;"/>
    </g>
    <g transform="matrix(0,-1.33333,-1.33333,0,1204.67,682.623)">
        <path d="M341.88,600.48L351.48,600.48" style="fill:none;fill-rule:nonzero;stroke:black;stroke-width:0.72px;"/>
    </g>
    <g transform="matrix(0,-1.33333,-1.33333,0,1200.19,678.143)">
        <path d="M338.52,600.48L348.12,600.48" style="fill:none;fill-rule:nonzero;stroke:black;stroke-width:0.72px;"/>
    </g>
    <g transform="matrix(1.33333,0,0,1.33333,-58.2146,-554.017)">
        <path d="M349.2,590.64L360.24,590.64" style="fill:none;fill-rule:nonzero;stroke:black;stroke-width:0.72px;"/>
    </g>
    <g transform="matrix(1.33333,0,0,1.33333,-58.2146,-554.017)">
        <path d="M329.52,590.64L340.56,590.64" style="fill:none;fill-rule:nonzero;stroke:black;stroke-width:0.72px;"/>
    </g>
    <g transform="matrix(0,1.33333,1.33333,0,-351.815,-187.777)">
        <path d="M327,563.4L359.4,563.4" style="fill:none;fill-rule:nonzero;stroke:black;stroke-width:0.72px;"/>
    </g>
    <g transform="matrix(0,1.33333,1.33333,0,-347.975,-191.617)">
        <path d="M329.88,563.4L362.28,563.4" style="fill:none;fill-rule:nonzero;stroke:black;stroke-width:0.72px;"/>
    </g>
    <g transform="matrix(1.33333,0,0,1.33333,-58.2146,-439.777)">
        <path d="M348.24,543.84L344.64,551.76L341.04,543.84" style="fill:none;fill-rule:nonzero;stroke:black;stroke-width:0.72px;"/>
    </g>
    <g transform="matrix(1.15539,0.665479,0.665479,-1.15539,-328.714,695.925)">
        <path d="M349.772,501.26L359.188,501.26" style="fill:none;fill-rule:nonzero;stroke:black;stroke-width:0.72px;"/>
    </g>
    <g transform="matrix(-1.15409,0.667723,0.667723,1.15409,446.797,-450.996)">
        <path d="M332.708,501.17L342.412,501.17" style="fill:none;fill-rule:nonzero;stroke:black;stroke-width:0.72px;"/>
    </g>
    <g transform="matrix(-0.00138889,-1.33333,-1.33333,0.00138889,1093.94,795.979)">
        <path d="M342.955,516L352.555,516" style="fill:none;fill-rule:nonzero;stroke:black;stroke-width:0.72px;"/>
    </g>
    <g transform="matrix(-0.00138889,-1.33333,-1.33333,0.00138889,1089.46,791.499)">
        <path d="M339.595,516L349.195,516" style="fill:none;fill-rule:nonzero;stroke:black;stroke-width:0.72px;"/>
    </g>
    <g transform="matrix(1.33333,0,0,1.33333,-58.2146,-552.097)">
        <path d="M253.56,589.92L268.56,589.92" style="fill:none;fill-rule:nonzero;stroke:black;stroke-width:0.72px;"/>
    </g>
    <g transform="matrix(1.33333,0,0,1.33333,-58.2146,-561.057)">
        <path d="M253.56,593.28L268.44,593.28" style="fill:none;fill-rule:nonzero;stroke:black;stroke-width:0.72px;"/>
    </g>
    <g transform="matrix(1.33333,0,0,1.33333,-58.2146,-543.137)">
        <path d="M253.56,586.56L268.44,586.56" style="fill:none;fill-rule:nonzero;stroke:black;stroke-width:0.72px;"/>
    </g>
    <g transform="matrix(1.33333,0,0,1.33333,-58.2146,-552.097)">
        <path d="M238.08,589.92L253.56,589.92" style="fill:none;fill-rule:nonzero;stroke:black;stroke-width:0.72px;"/>
    </g>
    <g transform="matrix(-1.33333,0,0,1.33333,468.505,-557.857)">
        <path d="M179.52,592.08L215.52,592.08" style="fill:none;fill-rule:nonzero;stroke:black;stroke-width:0.72px;"/>
    </g>
    <g transform="matrix(-1.33333,0,0,1.33333,468.505,-550.177)">
        <path d="M179.52,589.2L215.52,589.2" style="fill:none;fill-rule:nonzero;stroke:black;stroke-width:0.72px;"/>
    </g>
    <g transform="matrix(1.33333,0,0,1.33333,-58.2146,-554.017)">
        <path d="M184.08,594.24L176.16,590.64L184.08,587.04" style="fill:none;fill-rule:nonzero;stroke:black;stroke-width:0.72px;"/>
    </g>
    <g transform="matrix(1.1552,-0.665801,-0.665801,-1.1552,353.809,995.478)">
        <path d="M111.335,587.08L126.075,587.08" style="fill:none;fill-rule:nonzero;stroke:black;stroke-width:0.72px;"/>
    </g>
    <g transform="matrix(1.15411,0.667689,0.667689,-1.15411,-426.657,828.05)">
        <path d="M124.106,587.095L138.744,587.095" style="fill:none;fill-rule:nonzero;stroke:black;stroke-width:0.72px;"/>
    </g>
    <g transform="matrix(0.000903342,-1.33333,-1.33333,-0.000903342,908.224,393.076)">
        <path d="M119.395,598.14L134.155,598.14" style="fill:none;fill-rule:nonzero;stroke:black;stroke-width:0.72px;"/>
    </g>
    <g transform="matrix(0.000903342,-1.33333,-1.33333,-0.000903342,903.747,388.596)">
        <path d="M116.035,598.14L130.795,598.14" style="fill:none;fill-rule:nonzero;stroke:black;stroke-width:0.72px;"/>
    </g>
    <g transform="matrix(1.1489,-0.676614,-0.676614,-1.1489,292.197,1012.16)">
        <path d="M111.771,485.395L126.649,485.395" style="fill:none;fill-rule:nonzero;stroke:black;stroke-width:0.72px;"/>
    </g>
    <g transform="matrix(1.16024,0.656972,0.656972,-1.16024,-354.468,850.364)">
        <path d="M124.697,485.665L138.923,485.665" style="fill:none;fill-rule:nonzero;stroke:black;stroke-width:0.72px;"/>
    </g>
    <g transform="matrix(-0.0117034,-1.33328,-1.33328,0.0117034,775.022,522.724)">
        <path d="M119.83,496.595L134.64,496.595" style="fill:none;fill-rule:nonzero;stroke:black;stroke-width:0.72px;"/>
    </g>
    <g transform="matrix(-0.0116797,-1.33328,-1.33328,0.0116797,770.48,518.276)">
        <path d="M116.455,496.58L131.295,496.58" style="fill:none;fill-rule:nonzero;stroke:black;stroke-width:0.72px;"/>
    </g>
    <g transform="matrix(1.14909,-0.676288,-0.676288,-1.14909,297.393,1034.34)">
        <path d="M147.224,484.5L156.136,484.5" style="fill:none;fill-rule:nonzero;stroke:black;stroke-width:0.72px;"/>
    </g>
    <g transform="matrix(0,1.33333,1.33333,0,-625.735,118.783)">
        <path d="M109.08,551.16L141.96,551.16" style="fill:none;fill-rule:nonzero;stroke:black;stroke-width:0.72px;"/>
    </g>
    <g transform="matrix(-0.314133,1.2958,1.2958,0.314133,-549.446,-29.0836)">
        <path d="M121.219,539.613L129.369,539.613L122.124,535.881L123.071,538.086L121.219,539.613Z" style="stroke:black;stroke-width:0.72px;"/>
    </g>
    <g transform="matrix(-0.314133,-1.2958,-1.2958,0.314133,878.94,255.093)">
        <path d="M121.219,562.707L129.369,562.707L122.124,566.439L123.071,564.234L121.219,562.707Z" style="stroke:black;stroke-width:0.72px;"/>
    </g>
</svg>
