<?xml version="1.0" encoding="UTF-8" standalone="no"?>
<!DOCTYPE svg PUBLIC "-//W3C//DTD SVG 1.1//EN" "http://www.w3.org/Graphics/SVG/1.1/DTD/svg11.dtd">
<svg width="100%" height="100%" viewBox="0 0 625 285" version="1.1" xmlns="http://www.w3.org/2000/svg" xmlns:xlink="http://www.w3.org/1999/xlink" xml:space="preserve" xmlns:serif="http://www.serif.com/" style="fill-rule:evenodd;clip-rule:evenodd;stroke-linecap:round;stroke-linejoin:round;stroke-miterlimit:10;">
    <g transform="matrix(1.33333,0,0,1.33333,-72.6546,-85.1774)">
        <text x="104.88px" y="96.48px" style="font-family:'ArialMT', 'Arial', sans-serif;font-size:8px;">1</text>
    </g>
    <g transform="matrix(1.33333,0,0,1.33333,-72.6546,-85.1774)">
        <text x="111.12px" y="120px" style="font-family:'ArialMT', 'Arial', sans-serif;font-size:8px;">2</text>
    </g>
    <g transform="matrix(1.33333,0,0,1.33333,-72.6546,-85.1774)">
        <text x="85.92px" y="134.64px" style="font-family:'ArialMT', 'Arial', sans-serif;font-size:10px;">O</text>
    </g>
    <g transform="matrix(1.33333,0,0,1.33333,-72.6546,-85.1774)">
        <text x="69.12px" y="104.64px" style="font-family:'ArialMT', 'Arial', sans-serif;font-size:10px;">C</text>
    </g>
    <g transform="matrix(1.33333,0,0,1.33333,-72.6546,-85.1774)">
        <text x="57.6px" y="104.64px" style="font-family:'ArialMT', 'Arial', sans-serif;font-size:10px;">H</text>
        <text x="64.8px" y="107.28px" style="font-family:'ArialMT', 'Arial', sans-serif;font-size:8px;">3</text>
        <text x="69.12px" y="124.56px" style="font-family:'ArialMT', 'Arial', sans-serif;font-size:10px;">H</text>
    </g>
    <g transform="matrix(1.33333,0,0,1.33333,-72.6546,-85.1774)">
        <text x="145.68px" y="100.08px" style="font-family:'ArialMT', 'Arial', sans-serif;font-size:8px;">2</text>
        <text x="138px" y="124.56px" style="font-family:'ArialMT', 'Arial', sans-serif;font-size:10px;">CH</text>
        <text x="152.4px" y="127.2px" style="font-family:'ArialMT', 'Arial', sans-serif;font-size:8px;">2</text>
        <text x="139.44px" y="132px" style="font-family:'ArialMT', 'Arial', sans-serif;font-size:8px;">3</text>
    </g>
    <g transform="matrix(1.33333,0,0,1.33333,-72.6546,-85.1774)">
        <text x="122.16px" y="86.64px" style="font-family:'ArialMT', 'Arial', sans-serif;font-size:8px;">1</text>
    </g>
    <g transform="matrix(1.33333,0,0,1.33333,-72.6546,-85.1774)">
        <text x="85.92px" y="74.88px" style="font-family:'ArialMT', 'Arial', sans-serif;font-size:10px;">O</text>
    </g>
    <g transform="matrix(1.33333,0,0,1.33333,-72.6546,-85.1774)">
        <text x="120.48px" y="134.64px" style="font-family:'ArialMT', 'Arial', sans-serif;font-size:10px;">O</text>
        <text x="122.16px" y="142.08px" style="font-family:'ArialMT', 'Arial', sans-serif;font-size:8px;">3</text>
    </g>
    <g transform="matrix(1.33333,0,0,1.33333,-72.6546,-85.1774)">
        <text x="242.16px" y="134.4px" style="font-family:'ArialMT', 'Arial', sans-serif;font-size:10px;">O</text>
    </g>
    <g transform="matrix(1.33333,0,0,1.33333,-72.6546,-85.1774)">
        <text x="234.96px" y="134.4px" style="font-family:'ArialMT', 'Arial', sans-serif;font-size:10px;">H</text>
    </g>
    <g transform="matrix(1.33333,0,0,1.33333,-72.6546,-85.1774)">
        <text x="225.36px" y="104.4px" style="font-family:'ArialMT', 'Arial', sans-serif;font-size:10px;">C</text>
    </g>
    <g transform="matrix(1.33333,0,0,1.33333,-72.6546,-85.1774)">
        <text x="213.84px" y="104.4px" style="font-family:'ArialMT', 'Arial', sans-serif;font-size:10px;">H</text>
        <text x="221.04px" y="107.04px" style="font-family:'ArialMT', 'Arial', sans-serif;font-size:8px;">3</text>
    </g>
    <g transform="matrix(1.33333,0,0,1.33333,-72.6546,-85.1774)">
        <text x="276.96px" y="94.56px" style="font-family:'ArialMT', 'Arial', sans-serif;font-size:10px;">C</text>
    </g>
    <g transform="matrix(1.33333,0,0,1.33333,-72.6546,-85.1774)">
        <text x="265.44px" y="94.56px" style="font-family:'ArialMT', 'Arial', sans-serif;font-size:10px;">H</text>
        <text x="272.64px" y="97.2px" style="font-family:'ArialMT', 'Arial', sans-serif;font-size:8px;">2</text>
    </g>
    <g transform="matrix(1.33333,0,0,1.33333,-72.6546,-85.1774)">
        <text x="276.72px" y="134.4px" style="font-family:'ArialMT', 'Arial', sans-serif;font-size:10px;">O</text>
    </g>
    <g transform="matrix(1.33333,0,0,1.33333,-72.6546,-85.1774)">
        <text x="242.16px" y="74.4px" style="font-family:'ArialMT', 'Arial', sans-serif;font-size:10px;">O</text>
    </g>
    <g transform="matrix(1.33333,0,0,1.33333,-72.6546,-85.1774)">
        <text x="398.88px" y="134.88px" style="font-family:'ArialMT', 'Arial', sans-serif;font-size:10px;">O</text>
    </g>
    <g transform="matrix(1.33333,0,0,1.33333,-72.6546,-85.1774)">
        <text x="382.08px" y="104.88px" style="font-family:'ArialMT', 'Arial', sans-serif;font-size:10px;">C</text>
    </g>
    <g transform="matrix(1.33333,0,0,1.33333,-72.6546,-85.1774)">
        <text x="370.56px" y="104.88px" style="font-family:'ArialMT', 'Arial', sans-serif;font-size:10px;">H</text>
        <text x="377.76px" y="107.52px" style="font-family:'ArialMT', 'Arial', sans-serif;font-size:8px;">3</text>
    </g>
    <g transform="matrix(1.33333,0,0,1.33333,-72.6546,-85.1774)">
        <text x="433.68px" y="95.04px" style="font-family:'ArialMT', 'Arial', sans-serif;font-size:10px;">C</text>
    </g>
    <g transform="matrix(1.33333,0,0,1.33333,-72.6546,-85.1774)">
        <text x="422.16px" y="95.04px" style="font-family:'ArialMT', 'Arial', sans-serif;font-size:10px;">H</text>
        <text x="429.36px" y="97.68px" style="font-family:'ArialMT', 'Arial', sans-serif;font-size:8px;">2</text>
    </g>
    <g transform="matrix(1.33333,0,0,1.33333,-72.6546,-85.1774)">
        <text x="433.44px" y="134.88px" style="font-family:'ArialMT', 'Arial', sans-serif;font-size:10px;">O</text>
    </g>
    <g transform="matrix(1.33333,0,0,1.33333,-72.6546,-85.1774)">
        <text x="398.88px" y="74.88px" style="font-family:'ArialMT', 'Arial', sans-serif;font-size:10px;">O</text>
    </g>
    <g transform="matrix(1.33333,0,0,1.33333,-72.6546,-85.1774)">
        <text x="421.44px" y="270.48px" style="font-family:'ArialMT', 'Arial', sans-serif;font-size:10px;">O</text>
    </g>
    <g transform="matrix(1.33333,0,0,1.33333,-72.6546,-85.1774)">
        <text x="404.64px" y="240.48px" style="font-family:'ArialMT', 'Arial', sans-serif;font-size:10px;">C</text>
    </g>
    <g transform="matrix(1.33333,0,0,1.33333,-72.6546,-85.1774)">
        <text x="393.12px" y="240.48px" style="font-family:'ArialMT', 'Arial', sans-serif;font-size:10px;">H</text>
        <text x="400.32px" y="243.12px" style="font-family:'ArialMT', 'Arial', sans-serif;font-size:8px;">3</text>
    </g>
    <g transform="matrix(1.33333,0,0,1.33333,-72.6546,-85.1774)">
        <text x="421.44px" y="210.48px" style="font-family:'ArialMT', 'Arial', sans-serif;font-size:10px;">O</text>
    </g>
    <g transform="matrix(1.33333,0,0,1.33333,-72.6546,-85.1774)">
        <text x="456px" y="270.48px" style="font-family:'ArialMT', 'Arial', sans-serif;font-size:10px;">O</text>
    </g>
    <g transform="matrix(1.33333,0,0,1.33333,-72.6546,-85.1774)">
        <text x="490.8px" y="270.48px" style="font-family:'ArialMT', 'Arial', sans-serif;font-size:10px;">CH</text>
        <text x="505.2px" y="273.12px" style="font-family:'ArialMT', 'Arial', sans-serif;font-size:8px;">3</text>
    </g>
    <g transform="matrix(1.33333,0,0,1.33333,-72.6546,-85.1774)">
        <text x="369.12px" y="256.32px" style="font-family:'ArialMT', 'Arial', sans-serif;font-size:18px;">+</text>
    </g>
    <g transform="matrix(1.33333,0,0,1.33333,-72.6546,-85.1774)">
        <text x="330.72px" y="232.32px" style="font-family:'ArialMT', 'Arial', sans-serif;font-size:10px;">C</text>
    </g>
    <g transform="matrix(1.33333,0,0,1.33333,-72.6546,-85.1774)">
        <text x="319.2px" y="232.32px" style="font-family:'ArialMT', 'Arial', sans-serif;font-size:10px;">H</text>
        <text x="326.4px" y="234.96px" style="font-family:'ArialMT', 'Arial', sans-serif;font-size:8px;">2</text>
    </g>
    <g transform="matrix(1.33333,0,0,1.33333,-72.6546,-85.1774)">
        <text x="330.48px" y="272.16px" style="font-family:'ArialMT', 'Arial', sans-serif;font-size:10px;">O</text>
    </g>
    <g transform="matrix(1.33333,0,0,1.33333,-72.6546,-85.1774)">
        <text x="323.28px" y="272.16px" style="font-family:'ArialMT', 'Arial', sans-serif;font-size:10px;">H</text>
    </g>
    <g transform="matrix(-1.15468,-0.666702,-0.666702,1.15468,670.232,-753.469)">
        <path d="M88.666,746.22L108.584,746.22" style="fill:none;fill-rule:nonzero;stroke:black;stroke-width:0.24px;"/>
    </g>
    <g transform="matrix(-1.15462,0.666805,0.666805,1.15462,-299.892,-815.648)">
        <path d="M93.836,717.725L108.214,717.725" style="fill:none;fill-rule:nonzero;stroke:black;stroke-width:0.24px;"/>
    </g>
    <g transform="matrix(-1.15485,0.666401,0.666401,1.15485,-362.698,-878.35)">
        <path d="M76.297,747.53L90.983,747.53" style="fill:none;fill-rule:nonzero;stroke:black;stroke-width:0.24px;"/>
    </g>
    <g transform="matrix(-1.15496,-0.66621,-0.66621,1.15496,606.525,-691.402)">
        <path d="M76.687,716.485L85.553,716.485" style="fill:none;fill-rule:nonzero;stroke:black;stroke-width:0.24px;"/>
    </g>
    <g transform="matrix(0,1.33333,1.33333,0,-864.361,-127.871)">
        <path d="M132.7,733.86L147.46,733.86" style="fill:none;fill-rule:nonzero;stroke:black;stroke-width:0.24px;"/>
    </g>
    <g transform="matrix(0,1.33333,1.33333,0,-859.881,-132.351)">
        <path d="M136.06,733.86L150.82,733.86" style="fill:none;fill-rule:nonzero;stroke:black;stroke-width:0.24px;"/>
    </g>
    <g transform="matrix(-1.15485,-0.666412,-0.666412,1.15485,755.887,-730.628)">
        <path d="M123.166,746.22L143.094,746.22" style="fill:none;fill-rule:nonzero;stroke:black;stroke-width:0.24px;"/>
    </g>
    <g transform="matrix(-1.15468,0.666702,0.666702,1.15468,-281.863,-896.477)">
        <path d="M105.916,746.22L125.834,746.22" style="fill:none;fill-rule:nonzero;stroke:black;stroke-width:0.24px;"/>
    </g>
    <g transform="matrix(0,1.33333,1.33333,0,-904.695,-80.6574)">
        <path d="M97.29,731.28L117.21,731.28" style="fill:none;fill-rule:nonzero;stroke:black;stroke-width:0.24px;"/>
    </g>
    <g transform="matrix(0,-1.33333,-1.33333,0,1060.95,148.263)">
        <path d="M84.36,758.52L99,758.52" style="fill:none;fill-rule:nonzero;stroke:black;stroke-width:0.24px;"/>
    </g>
    <g transform="matrix(0,-1.33333,-1.33333,0,1056.47,143.783)">
        <path d="M81,758.52L95.64,758.52" style="fill:none;fill-rule:nonzero;stroke:black;stroke-width:0.24px;"/>
    </g>
    <g transform="matrix(1.15466,0.666729,0.666729,-1.15466,-529.906,834.124)">
        <path d="M105.396,716.085L120.534,716.085" style="fill:none;fill-rule:nonzero;stroke:black;stroke-width:0.24px;"/>
    </g>
    <g transform="matrix(1.15473,0.666619,0.666619,-1.15473,-531.059,832.128)">
        <path d="M110.6,718.57L120.16,718.57" style="fill:none;fill-rule:nonzero;stroke:black;stroke-width:0.24px;"/>
    </g>
    <g transform="matrix(1.33333,0,0,1.33333,-72.6546,-889.337)">
        <path d="M124.56,727.68L123.84,726L123.6,724.32L124.08,721.92L125.04,720L125.76,719.04L126.72,718.32L127.68,717.84L130.08,717.36L132.24,717.36L135.12,718.8L136.08,720L136.56,720.72" style="fill:none;fill-rule:nonzero;stroke:black;stroke-width:0.48px;"/>
    </g>
    <g transform="matrix(0.818587,1.05247,1.05247,-0.818587,-770.011,523.064)">
        <path d="M129.472,728.507L137.681,728.507L130.461,724.697L131.556,726.886L129.472,728.507Z" style="stroke:black;stroke-width:0.48px;"/>
    </g>
    <g transform="matrix(1.33333,0,0,1.33333,-72.6546,-933.817)">
        <path d="M136.08,744.48L132.96,745.44L130.56,744.96L129.6,744.48L127.68,743.04L126.72,741.12L126.24,739.92L126.24,737.76L126.48,737.04L126.72,736.08L128.16,733.92L129.6,732.96" style="fill:none;fill-rule:nonzero;stroke:black;stroke-width:0.48px;"/>
    </g>
    <g transform="matrix(1.11528,-0.730702,-0.730702,-1.11528,496.91,967.779)">
        <path d="M122.683,742.944L131.004,742.944L123.846,739.026L124.76,741.297L122.683,742.944Z" style="stroke:black;stroke-width:0.48px;"/>
    </g>
    <g transform="matrix(1.33333,0,0,1.33333,-72.6546,-941.497)">
        <path d="M101.28,755.28L99.36,753.6L97.68,751.44L96.24,749.04L95.52,746.4L95.28,744.96L95.28,741.84L96.24,738.48L96.72,737.04L98.64,734.16L99.84,732.96L102.24,731.04L103.68,730.32L105.36,729.6L108.72,729.12L109.2,729.12L109.92,728.88L112.8,729.36L115.68,730.32L117.12,731.04L118.32,731.76" style="fill:none;fill-rule:nonzero;stroke:black;stroke-width:0.48px;"/>
    </g>
    <g transform="matrix(1.11528,0.730702,0.730702,-1.11528,-586.553,806.201)">
        <path d="M94.363,731.376L102.684,731.376L95.325,735.162L96.571,732.823L94.363,731.376Z" style="stroke:black;stroke-width:0.48px;"/>
    </g>
    <g transform="matrix(1.33333,0,0,1.33333,-72.6546,-915.897)">
        <path d="M162.96,732.48L197.04,732.48" style="fill:none;fill-rule:nonzero;stroke:black;stroke-width:0.72px;"/>
    </g>
    <g transform="matrix(1.33333,0,0,1.33333,-72.6546,-923.577)">
        <path d="M162.96,735.36L197.04,735.36" style="fill:none;fill-rule:nonzero;stroke:black;stroke-width:0.72px;"/>
    </g>
    <g transform="matrix(1.33333,0,0,1.33333,-72.6546,-919.737)">
        <path d="M192.48,730.32L200.4,733.92L192.48,737.52" style="fill:none;fill-rule:nonzero;stroke:black;stroke-width:0.72px;"/>
    </g>
    <g transform="matrix(-1.15468,-0.666702,-0.666702,1.15468,1059.12,-649.901)">
        <path d="M244.906,746.46L264.824,746.46" style="fill:none;fill-rule:nonzero;stroke:black;stroke-width:0.24px;"/>
    </g>
    <g transform="matrix(-1.15462,0.666805,0.666805,1.15462,88.6662,-920.427)">
        <path d="M250.076,717.965L264.454,717.965" style="fill:none;fill-rule:nonzero;stroke:black;stroke-width:0.24px;"/>
    </g>
    <g transform="matrix(-1.15485,0.666401,0.666401,1.15485,25.8967,-983.065)">
        <path d="M232.537,747.77L247.223,747.77" style="fill:none;fill-rule:nonzero;stroke:black;stroke-width:0.24px;"/>
    </g>
    <g transform="matrix(0,1.33333,1.33333,0,-650.681,-335.311)">
        <path d="M288.04,731.52L307.96,731.52" style="fill:none;fill-rule:nonzero;stroke:black;stroke-width:0.24px;"/>
    </g>
    <g transform="matrix(-1.15494,-0.666245,-0.666245,1.15494,1149.31,-622.619)">
        <path d="M284.125,745.195L298.995,745.195" style="fill:none;fill-rule:nonzero;stroke:black;stroke-width:0.24px;"/>
    </g>
    <g transform="matrix(-1.15473,-0.66661,-0.66661,1.15473,1141.6,-618.037)">
        <path d="M282.264,742.78L295.786,742.78" style="fill:none;fill-rule:nonzero;stroke:black;stroke-width:0.24px;"/>
    </g>
    <g transform="matrix(-1.15467,0.666726,0.666726,1.15467,174.647,-943.502)">
        <path d="M284.641,717.98L298.959,717.98" style="fill:none;fill-rule:nonzero;stroke:black;stroke-width:0.24px;"/>
    </g>
    <g transform="matrix(-1.15487,-0.666378,-0.666378,1.15487,1076.7,-569.523)">
        <path d="M262.542,718.02L276.708,718.02" style="fill:none;fill-rule:nonzero;stroke:black;stroke-width:0.24px;"/>
    </g>
    <g transform="matrix(0,1.33333,1.33333,0,-696.695,-289.297)">
        <path d="M253.53,731.52L273.45,731.52" style="fill:none;fill-rule:nonzero;stroke:black;stroke-width:0.24px;"/>
    </g>
    <g transform="matrix(0,1.33333,1.33333,0,-701.175,-284.817)">
        <path d="M251.83,731.52L268.43,731.52" style="fill:none;fill-rule:nonzero;stroke:black;stroke-width:0.24px;"/>
    </g>
    <g transform="matrix(0,-1.33333,-1.33333,0,1269.75,356.103)">
        <path d="M240.48,758.88L255.36,758.88" style="fill:none;fill-rule:nonzero;stroke:black;stroke-width:0.24px;"/>
    </g>
    <g transform="matrix(0,-1.33333,-1.33333,0,1265.27,351.623)">
        <path d="M237.12,758.88L252,758.88" style="fill:none;fill-rule:nonzero;stroke:black;stroke-width:0.24px;"/>
    </g>
    <g transform="matrix(1.33333,0,0,1.33333,-72.6546,-917.177)">
        <path d="M318.72,732.96L352.8,732.96" style="fill:none;fill-rule:nonzero;stroke:black;stroke-width:0.72px;"/>
    </g>
    <g transform="matrix(1.33333,0,0,1.33333,-72.6546,-924.857)">
        <path d="M318.72,735.84L352.8,735.84" style="fill:none;fill-rule:nonzero;stroke:black;stroke-width:0.72px;"/>
    </g>
    <g transform="matrix(1.2958,0.314133,0.314133,-1.2958,-290.713,900.182)">
        <path d="M344.539,736.773L352.689,736.773L345.444,733.041L346.391,735.246L344.539,736.773Z" style="stroke:black;stroke-width:0.72px;"/>
    </g>
    <g transform="matrix(-1.2958,0.314133,0.314133,1.2958,545.467,-991.032)">
        <path d="M318.379,732.027L326.529,732.027L319.284,735.759L320.231,733.554L318.379,732.027Z" style="stroke:black;stroke-width:0.72px;"/>
    </g>
    <g transform="matrix(-1.15468,-0.666702,-0.666702,1.15468,1448.72,-544.221)">
        <path d="M401.626,745.98L421.544,745.98" style="fill:none;fill-rule:nonzero;stroke:black;stroke-width:0.24px;"/>
    </g>
    <g transform="matrix(-1.15483,0.66644,0.66644,1.15483,477.073,-1027.67)">
        <path d="M406.863,719.18L420.267,719.18" style="fill:none;fill-rule:nonzero;stroke:black;stroke-width:0.24px;"/>
    </g>
    <g transform="matrix(-1.15444,0.667124,0.667124,1.15444,480.769,-1019.8)">
        <path d="M406.73,715.79L422.08,715.79" style="fill:none;fill-rule:nonzero;stroke:black;stroke-width:0.24px;"/>
    </g>
    <g transform="matrix(-1.15485,0.666401,0.666401,1.15485,416.165,-1086.31)">
        <path d="M389.257,747.29L403.943,747.29" style="fill:none;fill-rule:nonzero;stroke:black;stroke-width:0.24px;"/>
    </g>
    <g transform="matrix(0,1.33333,1.33333,0,-441.081,-543.631)">
        <path d="M444.76,731.04L464.68,731.04" style="fill:none;fill-rule:nonzero;stroke:black;stroke-width:0.24px;"/>
    </g>
    <g transform="matrix(-1.15494,-0.666245,-0.666245,1.15494,1538.95,-517.011)">
        <path d="M440.845,744.715L455.715,744.715" style="fill:none;fill-rule:nonzero;stroke:black;stroke-width:0.24px;"/>
    </g>
    <g transform="matrix(-1.15473,-0.66661,-0.66661,1.15473,1531.21,-512.371)">
        <path d="M438.984,742.3L452.506,742.3" style="fill:none;fill-rule:nonzero;stroke:black;stroke-width:0.24px;"/>
    </g>
    <g transform="matrix(-1.15467,0.666726,0.666726,1.15467,564.887,-1046.8)">
        <path d="M441.361,717.5L455.679,717.5" style="fill:none;fill-rule:nonzero;stroke:black;stroke-width:0.24px;"/>
    </g>
    <g transform="matrix(-1.15487,-0.666378,-0.666378,1.15487,1466.33,-463.894)">
        <path d="M419.262,717.54L433.428,717.54" style="fill:none;fill-rule:nonzero;stroke:black;stroke-width:0.24px;"/>
    </g>
    <g transform="matrix(0,1.33333,1.33333,0,-487.095,-497.617)">
        <path d="M410.25,731.04L430.17,731.04" style="fill:none;fill-rule:nonzero;stroke:black;stroke-width:0.24px;"/>
    </g>
    <g transform="matrix(0,-1.33333,-1.33333,0,1478.07,565.703)">
        <path d="M397.2,758.4L412.08,758.4" style="fill:none;fill-rule:nonzero;stroke:black;stroke-width:0.24px;"/>
    </g>
    <g transform="matrix(0,-1.33333,-1.33333,0,1473.59,561.223)">
        <path d="M393.84,758.4L408.72,758.4" style="fill:none;fill-rule:nonzero;stroke:black;stroke-width:0.24px;"/>
    </g>
    <g transform="matrix(0,1.33333,1.33333,0,-411.375,-431.577)">
        <path d="M407.88,677.88L439.8,677.88" style="fill:none;fill-rule:nonzero;stroke:black;stroke-width:0.72px;"/>
    </g>
    <g transform="matrix(0,1.33333,1.33333,0,-407.535,-435.417)">
        <path d="M410.76,677.88L442.68,677.88" style="fill:none;fill-rule:nonzero;stroke:black;stroke-width:0.72px;"/>
    </g>
    <g transform="matrix(1.33333,0,0,1.33333,-72.6546,-729.337)">
        <path d="M428.88,658.56L425.28,666.48L421.68,658.56" style="fill:none;fill-rule:nonzero;stroke:black;stroke-width:0.72px;"/>
    </g>
    <g transform="matrix(0,1.33333,1.33333,0,-276.215,-346.897)">
        <path d="M432.81,595.44L452.73,595.44" style="fill:none;fill-rule:nonzero;stroke:black;stroke-width:0.24px;"/>
    </g>
    <g transform="matrix(-1.15468,-0.666702,-0.666702,1.15468,1414.45,-191.806)">
        <path d="M424.186,610.38L444.104,610.38" style="fill:none;fill-rule:nonzero;stroke:black;stroke-width:0.24px;"/>
    </g>
    <g transform="matrix(-1.15483,0.66644,0.66644,1.15483,623.575,-705.312)">
        <path d="M429.423,583.58L442.827,583.58" style="fill:none;fill-rule:nonzero;stroke:black;stroke-width:0.24px;"/>
    </g>
    <g transform="matrix(-1.15444,0.667124,0.667124,1.15444,627.355,-697.506)">
        <path d="M429.29,580.19L444.64,580.19" style="fill:none;fill-rule:nonzero;stroke:black;stroke-width:0.24px;"/>
    </g>
    <g transform="matrix(-1.15485,0.666401,0.666401,1.15485,562.663,-763.945)">
        <path d="M411.817,611.69L426.503,611.69" style="fill:none;fill-rule:nonzero;stroke:black;stroke-width:0.24px;"/>
    </g>
    <g transform="matrix(0,-1.33333,-1.33333,0,1327.35,776.583)">
        <path d="M419.76,622.8L434.64,622.8" style="fill:none;fill-rule:nonzero;stroke:black;stroke-width:0.24px;"/>
    </g>
    <g transform="matrix(0,-1.33333,-1.33333,0,1322.87,772.103)">
        <path d="M416.4,622.8L431.28,622.8" style="fill:none;fill-rule:nonzero;stroke:black;stroke-width:0.24px;"/>
    </g>
    <g transform="matrix(1.15487,0.666378,0.666378,-1.15487,-380.332,634.386)">
        <path d="M441.822,581.94L455.988,581.94" style="fill:none;fill-rule:nonzero;stroke:black;stroke-width:0.24px;"/>
    </g>
    <g transform="matrix(1.15443,-0.66713,-0.66713,-1.15443,399.824,1247.55)">
        <path d="M463.92,581.9L478.23,581.9" style="fill:none;fill-rule:nonzero;stroke:black;stroke-width:0.24px;"/>
    </g>
    <g transform="matrix(1.15459,0.666853,0.666853,-1.15459,-374.232,610.922)">
        <path d="M476.297,581.85L490.813,581.85" style="fill:none;fill-rule:nonzero;stroke:black;stroke-width:0.24px;"/>
    </g>
    <g transform="matrix(0,1.33333,1.33333,0,-395.255,-223.377)">
        <path d="M341.85,593.76L361.77,593.76" style="fill:none;fill-rule:nonzero;stroke:black;stroke-width:0.24px;"/>
    </g>
    <g transform="matrix(-1.15451,-0.666992,-0.666992,1.15451,1191.68,-243.529)">
        <path d="M337.879,607.455L352.811,607.455" style="fill:none;fill-rule:nonzero;stroke:black;stroke-width:0.24px;"/>
    </g>
    <g transform="matrix(-1.15473,-0.66661,-0.66661,1.15473,1183.65,-239.41)">
        <path d="M336.074,605.02L349.596,605.02" style="fill:none;fill-rule:nonzero;stroke:black;stroke-width:0.24px;"/>
    </g>
    <g transform="matrix(-1.15462,0.666805,0.666805,1.15462,400.261,-636.579)">
        <path d="M338.396,580.205L352.774,580.205" style="fill:none;fill-rule:nonzero;stroke:black;stroke-width:0.24px;"/>
    </g>
</svg>
