<?xml version="1.0" encoding="UTF-8" standalone="no"?>
<!DOCTYPE svg PUBLIC "-//W3C//DTD SVG 1.1//EN" "http://www.w3.org/Graphics/SVG/1.1/DTD/svg11.dtd">
<svg width="100%" height="100%" viewBox="0 0 700 250" version="1.1" xmlns="http://www.w3.org/2000/svg" xmlns:xlink="http://www.w3.org/1999/xlink" xml:space="preserve" xmlns:serif="http://www.serif.com/" style="fill-rule:evenodd;clip-rule:evenodd;stroke-linecap:round;stroke-linejoin:round;stroke-miterlimit:10;">
    <g transform="matrix(1.33333,0,0,1.33333,-59.3146,-102.677)">
        <text x="75.6px" y="150.96px" style="font-family:'ArialMT', 'Arial', sans-serif;font-size:10px;">O</text>
    </g>
    <g transform="matrix(1.33333,0,0,1.33333,-59.3146,-102.677)">
        <text x="58.8px" y="120.96px" style="font-family:'ArialMT', 'Arial', sans-serif;font-size:10px;">C</text>
    </g>
    <g transform="matrix(1.33333,0,0,1.33333,-59.3146,-102.677)">
        <text x="47.28px" y="120.96px" style="font-family:'ArialMT', 'Arial', sans-serif;font-size:10px;">H</text>
        <text x="54.48px" y="123.6px" style="font-family:'ArialMT', 'Arial', sans-serif;font-size:8px;">3</text>
    </g>
    <g transform="matrix(1.33333,0,0,1.33333,-59.3146,-102.677)">
        <text x="75.6px" y="91.2px" style="font-family:'ArialMT', 'Arial', sans-serif;font-size:10px;">O</text>
    </g>
    <g transform="matrix(1.33333,0,0,1.33333,-59.3146,-102.677)">
        <text x="110.16px" y="150.96px" style="font-family:'ArialMT', 'Arial', sans-serif;font-size:10px;">O</text>
    </g>
    <g transform="matrix(1.33333,0,0,1.33333,-59.3146,-102.677)">
        <text x="144.96px" y="150.96px" style="font-family:'ArialMT', 'Arial', sans-serif;font-size:10px;">CH</text>
        <text x="159.36px" y="153.6px" style="font-family:'ArialMT', 'Arial', sans-serif;font-size:8px;">3</text>
    </g>
    <g transform="matrix(1.33333,0,0,1.33333,-59.3146,-102.677)">
        <text x="167.04px" y="126px" style="font-family:'ArialMT', 'Arial', sans-serif;font-size:18px;">+</text>
    </g>
    <g transform="matrix(1.33333,0,0,1.33333,-59.3146,-102.677)">
        <text x="213.12px" y="101.28px" style="font-family:'ArialMT', 'Arial', sans-serif;font-size:10px;">CH</text>
        <text x="227.52px" y="103.92px" style="font-family:'ArialMT', 'Arial', sans-serif;font-size:8px;">2</text>
    </g>
    <g transform="matrix(1.33333,0,0,1.33333,-59.3146,-102.677)">
        <text x="195.6px" y="150.96px" style="font-family:'ArialMT', 'Arial', sans-serif;font-size:10px;">O<tspan x="203.52px " y="150.96px ">H</tspan></text>
    </g>
    <g transform="matrix(1.33333,0,0,1.33333,-59.3146,-102.677)">
        <text x="259.44px" y="117.6px" style="font-family:'ArialMT', 'Arial', sans-serif;font-size:10px;">t<tspan x="262.32px " y="117.6px ">°</tspan></text>
    </g>
    <g transform="matrix(1.33333,0,0,1.33333,-59.3146,-102.677)">
        <text x="320.88px" y="153.6px" style="font-family:'ArialMT', 'Arial', sans-serif;font-size:10px;">O</text>
    </g>
    <g transform="matrix(1.33333,0,0,1.33333,-59.3146,-102.677)">
        <text x="304.08px" y="123.6px" style="font-family:'ArialMT', 'Arial', sans-serif;font-size:10px;">C</text>
    </g>
    <g transform="matrix(1.33333,0,0,1.33333,-59.3146,-102.677)">
        <text x="292.56px" y="123.6px" style="font-family:'ArialMT', 'Arial', sans-serif;font-size:10px;">H</text>
        <text x="299.76px" y="126.24px" style="font-family:'ArialMT', 'Arial', sans-serif;font-size:8px;">3</text>
    </g>
    <g transform="matrix(1.33333,0,0,1.33333,-59.3146,-102.677)">
        <text x="355.68px" y="113.76px" style="font-family:'ArialMT', 'Arial', sans-serif;font-size:10px;">C</text>
    </g>
    <g transform="matrix(1.33333,0,0,1.33333,-59.3146,-102.677)">
        <text x="344.16px" y="113.76px" style="font-family:'ArialMT', 'Arial', sans-serif;font-size:10px;">H</text>
        <text x="351.36px" y="116.4px" style="font-family:'ArialMT', 'Arial', sans-serif;font-size:8px;">2</text>
    </g>
    <g transform="matrix(1.33333,0,0,1.33333,-59.3146,-102.677)">
        <text x="355.44px" y="153.6px" style="font-family:'ArialMT', 'Arial', sans-serif;font-size:10px;">O</text>
    </g>
    <g transform="matrix(1.33333,0,0,1.33333,-59.3146,-102.677)">
        <text x="320.88px" y="93.6px" style="font-family:'ArialMT', 'Arial', sans-serif;font-size:10px;">O</text>
    </g>
    <g transform="matrix(1.33333,0,0,1.33333,-59.3146,-102.677)">
        <text x="405.12px" y="117.12px" style="font-family:'ArialMT', 'Arial', sans-serif;font-size:10px;">t<tspan x="408px " y="117.12px ">°</tspan></text>
    </g>
    <g transform="matrix(1.33333,0,0,1.33333,-59.3146,-102.677)">
        <text x="468px" y="146.4px" style="font-family:'ArialMT', 'Arial', sans-serif;font-size:10px;">O</text>
    </g>
    <g transform="matrix(1.33333,0,0,1.33333,-59.3146,-102.677)">
        <text x="451.2px" y="116.4px" style="font-family:'ArialMT', 'Arial', sans-serif;font-size:10px;">C</text>
    </g>
    <g transform="matrix(1.33333,0,0,1.33333,-59.3146,-102.677)">
        <text x="439.68px" y="116.4px" style="font-family:'ArialMT', 'Arial', sans-serif;font-size:10px;">H</text>
        <text x="446.88px" y="119.04px" style="font-family:'ArialMT', 'Arial', sans-serif;font-size:8px;">3</text>
    </g>
    <g transform="matrix(1.33333,0,0,1.33333,-59.3146,-102.677)">
        <text x="502.56px" y="146.4px" style="font-family:'ArialMT', 'Arial', sans-serif;font-size:10px;">O<tspan x="510.48px " y="146.4px ">H</tspan></text>
    </g>
    <g transform="matrix(1.33333,0,0,1.33333,-59.3146,-102.677)">
        <text x="537.36px" y="106.32px" style="font-family:'ArialMT', 'Arial', sans-serif;font-size:10px;">CH</text>
        <text x="551.76px" y="108.96px" style="font-family:'ArialMT', 'Arial', sans-serif;font-size:8px;">2</text>
    </g>
    <g transform="matrix(1.33333,0,0,1.33333,-59.3146,-102.677)">
        <text x="468px" y="86.4px" style="font-family:'ArialMT', 'Arial', sans-serif;font-size:10px;">O</text>
    </g>
    <g transform="matrix(-0.0627994,1.33185,-1.33185,-0.0627994,-59.3146,-102.677)">
        <text x="123.66px" y="-511.842px" style="font-family:'ArialMT', 'Arial', sans-serif;font-size:10px;">:</text>
    </g>
    <g transform="matrix(-0.0278662,-1.33304,1.33304,-0.0278662,-59.3146,-102.677)">
        <text x="-147.889px" y="504.139px" style="font-family:'ArialMT', 'Arial', sans-serif;font-size:10px;">:</text>
    </g>
    <g transform="matrix(1.33333,0,0,1.33333,-59.3146,-102.677)">
        <text x="468px" y="210.48px" style="font-family:'ArialMT', 'Arial', sans-serif;font-size:10px;">O</text>
    </g>
    <g transform="matrix(1.33333,0,0,1.33333,-59.3146,-102.677)">
        <text x="450.96px" y="240.24px" style="font-family:'ArialMT', 'Arial', sans-serif;font-size:10px;">C</text>
    </g>
    <g transform="matrix(1.33333,0,0,1.33333,-59.3146,-102.677)">
        <text x="439.44px" y="240.24px" style="font-family:'ArialMT', 'Arial', sans-serif;font-size:10px;">H</text>
        <text x="446.64px" y="242.88px" style="font-family:'ArialMT', 'Arial', sans-serif;font-size:8px;">3</text>
    </g>
    <g transform="matrix(1.33333,0,0,1.33333,-59.3146,-102.677)">
        <text x="519.84px" y="260.16px" style="font-family:'ArialMT', 'Arial', sans-serif;font-size:10px;">CH</text>
        <text x="534.24px" y="262.8px" style="font-family:'ArialMT', 'Arial', sans-serif;font-size:8px;">2</text>
    </g>
    <g transform="matrix(0,1.33333,1.33333,0,-883.355,-62.6374)">
        <path d="M86.97,714.96L106.89,714.96" style="fill:none;fill-rule:nonzero;stroke:black;stroke-width:0.24px;"/>
    </g>
    <g transform="matrix(-1.15468,-0.666702,-0.666702,1.15468,647.015,-737.245)">
        <path d="M78.346,729.9L98.264,729.9" style="fill:none;fill-rule:nonzero;stroke:black;stroke-width:0.24px;"/>
    </g>
    <g transform="matrix(-1.15483,0.66644,0.66644,1.15483,-303.245,-789.715)">
        <path d="M83.583,703.1L96.987,703.1" style="fill:none;fill-rule:nonzero;stroke:black;stroke-width:0.24px;"/>
    </g>
    <g transform="matrix(-1.15444,0.667124,0.667124,1.15444,-299.41,-781.627)">
        <path d="M83.45,699.71L98.8,699.71" style="fill:none;fill-rule:nonzero;stroke:black;stroke-width:0.24px;"/>
    </g>
    <g transform="matrix(-1.15485,0.666401,0.666401,1.15485,-364.16,-848.365)">
        <path d="M65.977,731.21L80.663,731.21" style="fill:none;fill-rule:nonzero;stroke:black;stroke-width:0.24px;"/>
    </g>
    <g transform="matrix(0,-1.33333,-1.33333,0,1038.77,138.763)">
        <path d="M74.04,742.2L88.68,742.2" style="fill:none;fill-rule:nonzero;stroke:black;stroke-width:0.24px;"/>
    </g>
    <g transform="matrix(0,-1.33333,-1.33333,0,1034.29,134.283)">
        <path d="M70.68,742.2L85.32,742.2" style="fill:none;fill-rule:nonzero;stroke:black;stroke-width:0.24px;"/>
    </g>
    <g transform="matrix(1.15487,0.666378,0.666378,-1.15487,-508.359,826.015)">
        <path d="M95.982,701.46L110.148,701.46" style="fill:none;fill-rule:nonzero;stroke:black;stroke-width:0.24px;"/>
    </g>
    <g transform="matrix(1.15443,-0.66713,-0.66713,-1.15443,431.028,977.946)">
        <path d="M118.08,701.42L132.39,701.42" style="fill:none;fill-rule:nonzero;stroke:black;stroke-width:0.24px;"/>
    </g>
    <g transform="matrix(1.15459,0.666853,0.666853,-1.15459,-502.41,802.684)">
        <path d="M130.457,701.37L144.973,701.37" style="fill:none;fill-rule:nonzero;stroke:black;stroke-width:0.24px;"/>
    </g>
    <g transform="matrix(0,-1.33333,-1.33333,0,1205.97,332.843)">
        <path d="M209.52,732.12L224.16,732.12" style="fill:none;fill-rule:nonzero;stroke:black;stroke-width:0.24px;"/>
    </g>
    <g transform="matrix(0,-1.33333,-1.33333,0,1202.59,327.256)">
        <path d="M206.99,732.95L219.97,732.95" style="fill:none;fill-rule:nonzero;stroke:black;stroke-width:0.24px;"/>
    </g>
    <g transform="matrix(-1.15468,0.666702,0.666702,1.15468,-21.1785,-909.857)">
        <path d="M198.256,719.82L218.174,719.82" style="fill:none;fill-rule:nonzero;stroke:black;stroke-width:0.24px;"/>
    </g>
    <g transform="matrix(0,1.33333,1.33333,0,-736.475,-189.517)">
        <path d="M192.21,707.46L206.97,707.46" style="fill:none;fill-rule:nonzero;stroke:black;stroke-width:0.24px;"/>
    </g>
    <g transform="matrix(1.33333,0,0,1.33333,-59.3146,-902.677)">
        <path d="M245.76,720.96L279.84,720.96" style="fill:none;fill-rule:nonzero;stroke:black;stroke-width:0.72px;"/>
    </g>
    <g transform="matrix(1.2958,0.314133,0.314133,-1.2958,-275.438,906.16)">
        <path d="M271.579,721.893L279.729,721.893L272.484,718.161L273.431,720.366L271.579,721.893Z" style="stroke:black;stroke-width:0.72px;"/>
    </g>
    <g transform="matrix(-1.15468,-0.666702,-0.666702,1.15468,1255.52,-567.148)">
        <path d="M323.626,727.26L343.544,727.26" style="fill:none;fill-rule:nonzero;stroke:black;stroke-width:0.24px;"/>
    </g>
    <g transform="matrix(-1.15483,0.66644,0.66644,1.15483,308.812,-946.611)">
        <path d="M328.863,700.46L342.267,700.46" style="fill:none;fill-rule:nonzero;stroke:black;stroke-width:0.24px;"/>
    </g>
    <g transform="matrix(-1.15444,0.667124,0.667124,1.15444,312.552,-938.691)">
        <path d="M328.73,697.07L344.08,697.07" style="fill:none;fill-rule:nonzero;stroke:black;stroke-width:0.24px;"/>
    </g>
    <g transform="matrix(-1.15485,0.666401,0.666401,1.15485,247.902,-1005.25)">
        <path d="M311.257,728.57L325.943,728.57" style="fill:none;fill-rule:nonzero;stroke:black;stroke-width:0.24px;"/>
    </g>
    <g transform="matrix(0,1.33333,1.33333,0,-506.781,-432.171)">
        <path d="M366.76,712.32L386.68,712.32" style="fill:none;fill-rule:nonzero;stroke:black;stroke-width:0.24px;"/>
    </g>
    <g transform="matrix(-1.15494,-0.666245,-0.666245,1.15494,1345.74,-539.897)">
        <path d="M362.845,725.995L377.715,725.995" style="fill:none;fill-rule:nonzero;stroke:black;stroke-width:0.24px;"/>
    </g>
    <g transform="matrix(-1.15473,-0.66661,-0.66661,1.15473,1338,-535.29)">
        <path d="M360.984,723.58L374.506,723.58" style="fill:none;fill-rule:nonzero;stroke:black;stroke-width:0.24px;"/>
    </g>
    <g transform="matrix(-1.15467,0.666726,0.666726,1.15467,396.644,-965.717)">
        <path d="M363.361,698.78L377.679,698.78" style="fill:none;fill-rule:nonzero;stroke:black;stroke-width:0.24px;"/>
    </g>
    <g transform="matrix(-1.15487,-0.666378,-0.666378,1.15487,1273.12,-486.792)">
        <path d="M341.262,698.82L355.428,698.82" style="fill:none;fill-rule:nonzero;stroke:black;stroke-width:0.24px;"/>
    </g>
    <g transform="matrix(0,1.33333,1.33333,0,-552.795,-386.157)">
        <path d="M332.25,712.32L352.17,712.32" style="fill:none;fill-rule:nonzero;stroke:black;stroke-width:0.24px;"/>
    </g>
    <g transform="matrix(0,-1.33333,-1.33333,0,1362.45,469.163)">
        <path d="M319.2,739.68L334.08,739.68" style="fill:none;fill-rule:nonzero;stroke:black;stroke-width:0.24px;"/>
    </g>
    <g transform="matrix(0,-1.33333,-1.33333,0,1357.97,464.683)">
        <path d="M315.84,739.68L330.72,739.68" style="fill:none;fill-rule:nonzero;stroke:black;stroke-width:0.24px;"/>
    </g>
    <g transform="matrix(1.33333,0,0,1.33333,-59.3146,-903.957)">
        <path d="M391.44,721.44L425.52,721.44" style="fill:none;fill-rule:nonzero;stroke:black;stroke-width:0.72px;"/>
    </g>
    <g transform="matrix(1.2958,0.314133,0.314133,-1.2958,-270.12,860.379)">
        <path d="M417.259,722.373L425.409,722.373L418.164,718.641L419.111,720.846L417.259,722.373Z" style="stroke:black;stroke-width:0.72px;"/>
    </g>
    <g transform="matrix(-1.15468,-0.666702,-0.666702,1.15468,1626.35,-486.977)">
        <path d="M470.746,734.46L490.664,734.46" style="fill:none;fill-rule:nonzero;stroke:black;stroke-width:0.24px;"/>
    </g>
    <g transform="matrix(-1.15483,0.66644,0.66644,1.15483,670.072,-1062.57)">
        <path d="M475.983,707.66L489.387,707.66" style="fill:none;fill-rule:nonzero;stroke:black;stroke-width:0.24px;"/>
    </g>
    <g transform="matrix(-1.15444,0.667124,0.667124,1.15444,673.749,-1054.75)">
        <path d="M475.85,704.27L491.2,704.27" style="fill:none;fill-rule:nonzero;stroke:black;stroke-width:0.24px;"/>
    </g>
    <g transform="matrix(-1.15485,0.666401,0.666401,1.15485,609.166,-1121.21)">
        <path d="M458.377,735.77L473.063,735.77" style="fill:none;fill-rule:nonzero;stroke:black;stroke-width:0.24px;"/>
    </g>
    <g transform="matrix(-1.15468,-0.666702,-0.666702,1.15468,1712.19,-463.975)">
        <path d="M505.246,734.46L525.164,734.46" style="fill:none;fill-rule:nonzero;stroke:black;stroke-width:0.24px;"/>
    </g>
    <g transform="matrix(-1.15468,0.666702,0.666702,1.15468,689.938,-1139.45)">
        <path d="M487.996,734.46L507.914,734.46" style="fill:none;fill-rule:nonzero;stroke:black;stroke-width:0.24px;"/>
    </g>
    <g transform="matrix(-1.15487,-0.666378,-0.666378,1.15487,1643.98,-406.67)">
        <path d="M488.382,706.02L502.548,706.02" style="fill:none;fill-rule:nonzero;stroke:black;stroke-width:0.24px;"/>
    </g>
    <g transform="matrix(0,1.33333,1.33333,0,-366.235,-591.917)">
        <path d="M479.37,719.52L499.29,719.52" style="fill:none;fill-rule:nonzero;stroke:black;stroke-width:0.24px;"/>
    </g>
    <g transform="matrix(1.15499,-0.666164,-0.666164,-1.15499,523.596,1242.28)">
        <path d="M522.86,733.105L537.37,733.105" style="fill:none;fill-rule:nonzero;stroke:black;stroke-width:0.24px;"/>
    </g>
    <g transform="matrix(1.15479,-0.666507,-0.666507,-1.15479,526.44,1241.53)">
        <path d="M522.608,736.885L537.272,736.885" style="fill:none;fill-rule:nonzero;stroke:black;stroke-width:0.24px;"/>
    </g>
    <g transform="matrix(0,-1.33333,-1.33333,0,1568.21,655.723)">
        <path d="M466.32,746.88L481.2,746.88" style="fill:none;fill-rule:nonzero;stroke:black;stroke-width:0.24px;"/>
    </g>
    <g transform="matrix(0,-1.33333,-1.33333,0,1563.73,651.243)">
        <path d="M462.96,746.88L477.84,746.88" style="fill:none;fill-rule:nonzero;stroke:black;stroke-width:0.24px;"/>
    </g>
    <g transform="matrix(1.33333,0,0,1.33333,-59.3146,-880.917)">
        <path d="M492,714.24L492.48,712.8L492.96,711.6L494.88,709.68L496.08,709.2L497.52,708.72L498.24,708.72L498.96,708.48L500.16,708.72L501.12,708.96L502.32,709.44L503.04,709.92L504,710.64L504.72,711.6L505.2,712.32L505.68,713.52L505.92,714.48L506.16,715.2L506.16,715.68L505.92,717.12" style="fill:none;fill-rule:nonzero;stroke:black;stroke-width:0.48px;"/>
    </g>
    <g transform="matrix(-0.314133,1.2958,1.2958,0.314133,-171.126,-799.693)">
        <path d="M491.109,713.571L499.259,713.571L492.127,717.522L492.926,715.246L491.109,713.571Z" style="stroke:black;stroke-width:0.48px;"/>
    </g>
    <g transform="matrix(1.33333,0,0,1.33333,-59.3146,-919.957)">
        <path d="M507.84,719.52L509.04,721.2L509.52,723.36L509.76,725.52L509.76,726.72L509.52,727.68L509.28,728.88L508.32,730.8L507.6,731.76L506.16,733.2L505.2,733.92L503.28,734.88L502.08,735.12L501.12,735.36L498,735.36L494.64,733.92L493.2,732.96L492.48,732.24L492,731.52" style="fill:none;fill-rule:nonzero;stroke:black;stroke-width:0.48px;"/>
    </g>
    <g transform="matrix(-0.818587,-1.05247,-1.05247,0.818587,1808.59,-16.6356)">
        <path d="M506.918,730.764L515.128,730.764L507.802,734.637L508.96,732.217L506.918,730.764Z" style="stroke:black;stroke-width:0.48px;"/>
    </g>
    <g transform="matrix(0,1.33333,1.33333,0,-293.555,-518.037)">
        <path d="M471.84,664.56L505.92,664.56" style="fill:none;fill-rule:nonzero;stroke:black;stroke-width:0.72px;"/>
    </g>
    <g transform="matrix(0,1.33333,1.33333,0,-289.715,-521.877)">
        <path d="M474.72,664.56L508.8,664.56" style="fill:none;fill-rule:nonzero;stroke:black;stroke-width:0.72px;"/>
    </g>
    <g transform="matrix(1.33333,0,0,1.33333,-59.3146,-708.437)">
        <path d="M493.92,644.16L490.32,652.08L486.72,644.16" style="fill:none;fill-rule:nonzero;stroke:black;stroke-width:0.72px;"/>
    </g>
    <g transform="matrix(1.15468,0.666702,0.666702,-1.15468,-380.529,590.437)">
        <path d="M470.566,610.56L490.484,610.56" style="fill:none;fill-rule:nonzero;stroke:black;stroke-width:0.24px;"/>
    </g>
    <g transform="matrix(1.15468,-0.666702,-0.666702,-1.15468,436.676,1242.67)">
        <path d="M487.816,610.56L507.734,610.56" style="fill:none;fill-rule:nonzero;stroke:black;stroke-width:0.24px;"/>
    </g>
    <g transform="matrix(1.15468,0.666702,0.666702,-1.15468,-374.365,567.436)">
        <path d="M505.066,610.56L524.984,610.56" style="fill:none;fill-rule:nonzero;stroke:black;stroke-width:0.24px;"/>
    </g>
    <g transform="matrix(0,-1.33333,-1.33333,0,1402.65,820.803)">
        <path d="M466.23,622.89L480.93,622.89" style="fill:none;fill-rule:nonzero;stroke:black;stroke-width:0.24px;"/>
    </g>
    <g transform="matrix(0,-1.33333,-1.33333,0,1398.17,816.323)">
        <path d="M462.87,622.89L477.57,622.89" style="fill:none;fill-rule:nonzero;stroke:black;stroke-width:0.24px;"/>
    </g>
    <g transform="matrix(-1.15464,0.666766,0.666766,1.15464,690.903,-812.772)">
        <path d="M458.131,611.85L472.889,611.85" style="fill:none;fill-rule:nonzero;stroke:black;stroke-width:0.24px;"/>
    </g>
    <g transform="matrix(0,1.33333,1.33333,0,-158.755,-475.957)">
        <path d="M516.3,598.23L531,598.23" style="fill:none;fill-rule:nonzero;stroke:black;stroke-width:0.24px;"/>
    </g>
    <g transform="matrix(0,1.33333,1.33333,0,-162.128,-470.371)">
        <path d="M513.77,597.4L526.81,597.4" style="fill:none;fill-rule:nonzero;stroke:black;stroke-width:0.24px;"/>
    </g>
</svg>
