<?xml version="1.0" encoding="UTF-8" standalone="no"?>
<!DOCTYPE svg PUBLIC "-//W3C//DTD SVG 1.1//EN" "http://www.w3.org/Graphics/SVG/1.1/DTD/svg11.dtd">
<svg width="100%" height="100%" viewBox="0 0 760 125" version="1.1" xmlns="http://www.w3.org/2000/svg" xmlns:xlink="http://www.w3.org/1999/xlink" xml:space="preserve" xmlns:serif="http://www.serif.com/" style="fill-rule:evenodd;clip-rule:evenodd;stroke-linecap:round;stroke-linejoin:round;stroke-miterlimit:10;">
    <g transform="matrix(1.33333,0,0,1.33333,-15.2346,-62.9855)">
        <text x="100.8px" y="77.28px" style="font-family:'ArialMT', 'Arial', sans-serif;font-size:8px;">2</text>
        <text x="100.8px" y="104.4px" style="font-family:'ArialMT', 'Arial', sans-serif;font-size:8px;">1</text>
    </g>
    <g transform="matrix(1.33333,0,0,1.33333,-15.2346,-62.9855)">
        <text x="75.84px" y="72px" style="font-family:'ArialMT', 'Arial', sans-serif;font-size:10px;">C</text>
    </g>
    <g transform="matrix(1.33333,0,0,1.33333,-15.2346,-62.9855)">
        <text x="64.32px" y="72px" style="font-family:'ArialMT', 'Arial', sans-serif;font-size:10px;">H</text>
        <text x="71.52px" y="74.64px" style="font-family:'ArialMT', 'Arial', sans-serif;font-size:8px;">2</text>
        <text x="77.28px" y="79.44px" style="font-family:'ArialMT', 'Arial', sans-serif;font-size:8px;">3</text>
        <text x="48.96px" y="85.44px" style="font-family:'ArialMT', 'Arial', sans-serif;font-size:10px;">O</text>
    </g>
    <g transform="matrix(1.33333,0,0,1.33333,-15.2346,-62.9855)">
        <text x="50.64px" y="92.88px" style="font-family:'ArialMT', 'Arial', sans-serif;font-size:8px;">3</text>
        <text x="65.28px" y="95.76px" style="font-family:'ArialMT', 'Arial', sans-serif;font-size:8px;">2</text>
        <text x="44.64px" y="115.92px" style="font-family:'ArialMT', 'Arial', sans-serif;font-size:10px;">N</text>
    </g>
    <g transform="matrix(1.33333,0,0,1.33333,-15.2346,-62.9855)">
        <text x="25.44px" y="110.88px" style="font-family:'ArialMT', 'Arial', sans-serif;font-size:10px;">C</text>
    </g>
    <g transform="matrix(1.33333,0,0,1.33333,-15.2346,-62.9855)">
        <text x="13.92px" y="110.88px" style="font-family:'ArialMT', 'Arial', sans-serif;font-size:10px;">H</text>
        <text x="21.12px" y="113.52px" style="font-family:'ArialMT', 'Arial', sans-serif;font-size:8px;">3</text>
    </g>
    <g transform="matrix(1.33333,0,0,1.33333,-15.2346,-62.9855)">
        <text x="49.92px" y="135.12px" style="font-family:'ArialMT', 'Arial', sans-serif;font-size:10px;">CH</text>
        <text x="64.32px" y="137.76px" style="font-family:'ArialMT', 'Arial', sans-serif;font-size:8px;">3</text>
    </g>
    <g transform="matrix(1.33333,0,0,1.33333,-15.2346,-62.9855)">
        <text x="252px" y="101.76px" style="font-family:'ArialMT', 'Arial', sans-serif;font-size:10px;">CH</text>
        <text x="266.4px" y="104.4px" style="font-family:'ArialMT', 'Arial', sans-serif;font-size:8px;">2</text>
        <text x="234.72px" y="111.84px" style="font-family:'ArialMT', 'Arial', sans-serif;font-size:10px;">CH</text>
        <text x="249.12px" y="114.48px" style="font-family:'ArialMT', 'Arial', sans-serif;font-size:8px;">2</text>
    </g>
    <g transform="matrix(1.33333,0,0,1.33333,-15.2346,-62.9855)">
        <text x="217.44px" y="81.84px" style="font-family:'ArialMT', 'Arial', sans-serif;font-size:10px;">O</text>
    </g>
    <g transform="matrix(1.33333,0,0,1.33333,-15.2346,-62.9855)">
        <text x="200.4px" y="111.6px" style="font-family:'ArialMT', 'Arial', sans-serif;font-size:10px;">N</text>
    </g>
    <g transform="matrix(1.33333,0,0,1.33333,-15.2346,-62.9855)">
        <text x="183.12px" y="101.76px" style="font-family:'ArialMT', 'Arial', sans-serif;font-size:10px;">C</text>
    </g>
    <g transform="matrix(1.33333,0,0,1.33333,-15.2346,-62.9855)">
        <text x="171.6px" y="101.76px" style="font-family:'ArialMT', 'Arial', sans-serif;font-size:10px;">H</text>
        <text x="178.8px" y="104.4px" style="font-family:'ArialMT', 'Arial', sans-serif;font-size:8px;">3</text>
    </g>
    <g transform="matrix(1.33333,0,0,1.33333,-15.2346,-62.9855)">
        <text x="200.4px" y="131.52px" style="font-family:'ArialMT', 'Arial', sans-serif;font-size:10px;">CH</text>
        <text x="214.8px" y="134.16px" style="font-family:'ArialMT', 'Arial', sans-serif;font-size:8px;">3</text>
    </g>
    <g transform="matrix(1.33333,0,0,1.33333,-15.2346,-62.9855)">
        <text x="411.6px" y="101.28px" style="font-family:'ArialMT', 'Arial', sans-serif;font-size:10px;">CH</text>
        <text x="426px" y="103.92px" style="font-family:'ArialMT', 'Arial', sans-serif;font-size:8px;">2</text>
        <text x="394.32px" y="111.36px" style="font-family:'ArialMT', 'Arial', sans-serif;font-size:10px;">CH</text>
        <text x="408.72px" y="114px" style="font-family:'ArialMT', 'Arial', sans-serif;font-size:8px;">3</text>
    </g>
    <g transform="matrix(1.33333,0,0,1.33333,-15.2346,-62.9855)">
        <text x="377.04px" y="81.36px" style="font-family:'ArialMT', 'Arial', sans-serif;font-size:10px;">O</text>
    </g>
    <g transform="matrix(1.33333,0,0,1.33333,-15.2346,-62.9855)">
        <text x="360px" y="108.72px" style="font-family:'ArialMT', 'Arial', sans-serif;font-size:10px;">N</text>
        <text x="377.04px" y="121.2px" style="font-family:'ArialMT', 'Arial', sans-serif;font-size:10px;">O</text>
        <text x="384.96px" y="121.2px" style="font-family:'ArialMT', 'Arial', sans-serif;font-size:10px;">Et</text>
    </g>
    <g transform="matrix(1.33333,0,0,1.33333,-15.2346,-62.9855)">
        <text x="342.72px" y="98.88px" style="font-family:'ArialMT', 'Arial', sans-serif;font-size:10px;">C</text>
    </g>
    <g transform="matrix(1.33333,0,0,1.33333,-15.2346,-62.9855)">
        <text x="331.2px" y="98.88px" style="font-family:'ArialMT', 'Arial', sans-serif;font-size:10px;">H</text>
        <text x="338.4px" y="101.52px" style="font-family:'ArialMT', 'Arial', sans-serif;font-size:8px;">3</text>
    </g>
    <g transform="matrix(1.33333,0,0,1.33333,-15.2346,-62.9855)">
        <text x="354px" y="128.64px" style="font-family:'ArialMT', 'Arial', sans-serif;font-size:10px;">C</text>
    </g>
    <g transform="matrix(1.33333,0,0,1.33333,-15.2346,-62.9855)">
        <text x="342.48px" y="128.64px" style="font-family:'ArialMT', 'Arial', sans-serif;font-size:10px;">H</text>
        <text x="349.68px" y="131.28px" style="font-family:'ArialMT', 'Arial', sans-serif;font-size:8px;">3</text>
    </g>
    <g transform="matrix(1.33333,0,0,1.33333,-15.2346,-62.9855)">
        <text x="529.44px" y="114.96px" style="font-family:'ArialMT', 'Arial', sans-serif;font-size:10px;">O</text>
        <text x="537.36px" y="114.96px" style="font-family:'ArialMT', 'Arial', sans-serif;font-size:10px;">Et</text>
    </g>
    <g transform="matrix(1.33333,0,0,1.33333,-15.2346,-62.9855)">
        <text x="529.44px" y="75.12px" style="font-family:'ArialMT', 'Arial', sans-serif;font-size:10px;">O</text>
        <text x="537.36px" y="75.12px" style="font-family:'ArialMT', 'Arial', sans-serif;font-size:10px;">Et</text>
        <text x="549.6px" y="95.04px" style="font-family:'ArialMT', 'Arial', sans-serif;font-size:10px;">CH</text>
        <text x="564px" y="97.68px" style="font-family:'ArialMT', 'Arial', sans-serif;font-size:8px;">3</text>
    </g>
    <g transform="matrix(1.33333,0,0,1.33333,-15.2346,-62.9855)">
        <text x="509.76px" y="94.8px" style="font-family:'ArialMT', 'Arial', sans-serif;font-size:10px;">N</text>
    </g>
    <g transform="matrix(1.33333,0,0,1.33333,-15.2346,-62.9855)">
        <text x="499.92px" y="77.76px" style="font-family:'ArialMT', 'Arial', sans-serif;font-size:10px;">C</text>
    </g>
    <g transform="matrix(1.33333,0,0,1.33333,-15.2346,-62.9855)">
        <text x="488.4px" y="77.76px" style="font-family:'ArialMT', 'Arial', sans-serif;font-size:10px;">H</text>
        <text x="495.6px" y="80.4px" style="font-family:'ArialMT', 'Arial', sans-serif;font-size:8px;">3</text>
    </g>
    <g transform="matrix(1.33333,0,0,1.33333,-15.2346,-62.9855)">
        <text x="499.68px" y="112.08px" style="font-family:'ArialMT', 'Arial', sans-serif;font-size:10px;">C</text>
    </g>
    <g transform="matrix(1.33333,0,0,1.33333,-15.2346,-62.9855)">
        <text x="488.16px" y="112.08px" style="font-family:'ArialMT', 'Arial', sans-serif;font-size:10px;">H</text>
        <text x="495.36px" y="114.72px" style="font-family:'ArialMT', 'Arial', sans-serif;font-size:8px;">3</text>
    </g>
    <g transform="matrix(0,1.33333,1.33333,0,-891.435,-75.1055)">
        <path d="M86.97,754.08L106.89,754.08" style="fill:none;fill-rule:nonzero;stroke:black;stroke-width:0.24px;"/>
    </g>
    <g transform="matrix(-1.15434,-0.667288,-0.667288,1.15434,724.316,-793.97)">
        <path d="M82.932,769.47L98.838,769.47" style="fill:none;fill-rule:nonzero;stroke:black;stroke-width:0.24px;"/>
    </g>
    <g transform="matrix(-1.15471,-0.666655,-0.666655,1.15471,719.512,-786.435)">
        <path d="M83.065,766.08L97.025,766.08" style="fill:none;fill-rule:nonzero;stroke:black;stroke-width:0.24px;"/>
    </g>
    <g transform="matrix(-1.15468,0.666702,0.666702,1.15468,-288.317,-838.289)">
        <path d="M78.346,739.14L98.264,739.14" style="fill:none;fill-rule:nonzero;stroke:black;stroke-width:0.24px;"/>
    </g>
    <g transform="matrix(-1.15468,-0.666702,-0.666702,1.15468,654.337,-732.043)">
        <path d="M61.096,739.14L81.014,739.14" style="fill:none;fill-rule:nonzero;stroke:black;stroke-width:0.24px;"/>
    </g>
    <g transform="matrix(0.676144,1.14918,1.14918,-0.676144,-835.912,501.11)">
        <path d="M53.461,747.57L63.439,747.57" style="fill:none;fill-rule:nonzero;stroke:black;stroke-width:0.24px;"/>
    </g>
    <g transform="matrix(0.676465,1.14899,1.14899,-0.676465,-837.152,496.931)">
        <path d="M54.863,750.125L66.827,750.125" style="fill:none;fill-rule:nonzero;stroke:black;stroke-width:0.24px;"/>
    </g>
    <g transform="matrix(-0.938901,0.946701,0.946701,0.938901,-584.183,-674.753)">
        <path d="M50.777,739.265L64.453,739.265" style="fill:none;fill-rule:nonzero;stroke:black;stroke-width:0.24px;"/>
    </g>
    <g transform="matrix(-1.2892,-0.340206,-0.340206,1.2892,335.318,-848.417)">
        <path d="M33.427,732.55L43.853,732.55" style="fill:none;fill-rule:nonzero;stroke:black;stroke-width:0.24px;"/>
    </g>
    <g transform="matrix(0.350578,1.28642,1.28642,-0.350578,-891.779,286.004)">
        <path d="M46.418,720.36L55.622,720.36" style="fill:none;fill-rule:nonzero;stroke:black;stroke-width:0.24px;"/>
    </g>
    <g transform="matrix(1.33333,0,0,1.33333,-15.2346,-905.866)">
        <path d="M76.56,742.56L74.88,744.48L72.72,745.92L70.56,747.12L67.92,748.08L66.72,748.08L65.28,748.32L64.08,748.08L62.88,748.08L61.92,747.84L60.24,747.36L58.56,746.64L57.36,745.68L55.92,744.72L54.72,743.52L53.76,742.08L52.8,740.88L52.08,739.2L51.6,737.52L51.36,736.56L51.36,735.36L51.12,734.64L51.12,734.16L51.36,732.72L51.6,731.04L51.84,729.6L52.56,728.16L54,725.76" style="fill:none;fill-rule:nonzero;stroke:black;stroke-width:0.48px;"/>
    </g>
    <g transform="matrix(0.774984,-1.08498,-1.08498,-0.774984,815.473,732.037)">
        <path d="M69.478,727.086L77.736,727.086L70.287,730.908L71.431,728.481L69.478,727.086Z" style="stroke:black;stroke-width:0.48px;"/>
    </g>
    <g transform="matrix(1.33333,0,0,1.33333,-15.2346,-926.026)">
        <path d="M99.6,731.76L101.28,732.48L102.72,733.68L103.92,734.88L105.12,736.32L106.08,737.76L106.8,739.44L107.28,741.12L107.52,743.04L107.76,744L107.52,745.2L107.52,746.4L107.28,747.36L106.8,748.56L105.36,751.44L104.4,752.88L103.2,754.08L101.76,755.04L98.88,756.48L97.68,756.96L96.72,757.2L94.8,757.2L94.32,757.44L91.68,756.96L89.04,756.24" style="fill:none;fill-rule:nonzero;stroke:black;stroke-width:0.48px;"/>
    </g>
    <g transform="matrix(-1.23529,-0.501836,-0.501836,1.23529,629.009,-826.079)">
        <path d="M99.882,752.875L108.172,752.875L100.932,756.669L101.835,754.445L99.882,752.875Z" style="stroke:black;stroke-width:0.48px;"/>
    </g>
    <g transform="matrix(1.33333,0,0,1.33333,-15.2346,-1020.75)">
        <path d="M52.08,791.28L52.08,788.16L52.32,786.24L52.56,784.56L53.28,783.12L53.76,781.44L54.48,780L56.4,777.12L57.36,775.92L58.56,774.72L59.76,773.76L61.2,772.56L62.4,771.84L64.08,771.12L65.52,770.4L68.88,769.44L72.24,768.96L72.96,768.96L74.64,769.2L76.56,769.44L78.24,769.68L79.92,770.16L81.6,770.88L83.04,771.84L84.48,772.56L87.36,774.96L88.56,776.16L89.52,777.36L90.48,778.8L91.44,780.48L92.16,781.92L92.64,783.6L93.12,785.52L93.6,787.2L93.6,788.4" style="fill:none;fill-rule:nonzero;stroke:black;stroke-width:0.48px;"/>
    </g>
    <g transform="matrix(0.268871,1.30594,1.30594,-0.268871,-968.96,168.219)">
        <path d="M48.032,771.865L56.364,771.865L49.09,775.812L50.065,773.406L48.032,771.865Z" style="stroke:black;stroke-width:0.48px;"/>
    </g>
    <g transform="matrix(1.33333,0,0,1.33333,-15.2346,-941.066)">
        <path d="M122.4,750.24L156.48,750.24" style="fill:none;fill-rule:nonzero;stroke:black;stroke-width:0.72px;"/>
    </g>
    <g transform="matrix(1.33333,0,0,1.33333,-15.2346,-948.746)">
        <path d="M122.4,753.12L156.48,753.12" style="fill:none;fill-rule:nonzero;stroke:black;stroke-width:0.72px;"/>
    </g>
    <g transform="matrix(1.33333,0,0,1.33333,-15.2346,-944.906)">
        <path d="M151.92,748.08L159.84,751.68L151.92,755.28" style="fill:none;fill-rule:nonzero;stroke:black;stroke-width:0.72px;"/>
    </g>
    <g transform="matrix(0,1.33333,1.33333,0,-683.035,-290.386)">
        <path d="M248.43,756.66L263.19,756.66" style="fill:none;fill-rule:nonzero;stroke:black;stroke-width:0.24px;"/>
    </g>
    <g transform="matrix(0,1.33333,1.33333,0,-686.408,-284.799)">
        <path d="M245.9,755.83L259,755.83" style="fill:none;fill-rule:nonzero;stroke:black;stroke-width:0.24px;"/>
    </g>
    <g transform="matrix(-1.15468,-0.666702,-0.666702,1.15468,1112.47,-688.959)">
        <path d="M237.226,769.02L257.144,769.02" style="fill:none;fill-rule:nonzero;stroke:black;stroke-width:0.24px;"/>
    </g>
    <g transform="matrix(-1.15457,0.666895,0.666895,1.15457,49.2338,-1012.28)">
        <path d="M225.372,770.465L239.508,770.465" style="fill:none;fill-rule:nonzero;stroke:black;stroke-width:0.24px;"/>
    </g>
    <g transform="matrix(-1.15483,-0.66644,-0.66644,1.15483,1046.6,-635.273)">
        <path d="M221.253,742.22L234.657,742.22" style="fill:none;fill-rule:nonzero;stroke:black;stroke-width:0.24px;"/>
    </g>
    <g transform="matrix(-1.15444,-0.667124,-0.667124,1.15444,1042.67,-626.951)">
        <path d="M219.44,738.83L234.79,738.83" style="fill:none;fill-rule:nonzero;stroke:black;stroke-width:0.24px;"/>
    </g>
    <g transform="matrix(0,1.33333,1.33333,0,-722.155,-237.506)">
        <path d="M213.93,751.5L228.69,751.5" style="fill:none;fill-rule:nonzero;stroke:black;stroke-width:0.24px;"/>
    </g>
    <g transform="matrix(-1.15475,0.666584,0.666584,1.15475,25.9757,-925.973)">
        <path d="M207.574,740.44L222.296,740.44" style="fill:none;fill-rule:nonzero;stroke:black;stroke-width:0.24px;"/>
    </g>
    <g transform="matrix(-1.15477,-0.666542,-0.666542,1.15477,963.539,-649.381)">
        <path d="M190.649,739.185L200.071,739.185" style="fill:none;fill-rule:nonzero;stroke:black;stroke-width:0.24px;"/>
    </g>
    <g transform="matrix(0,1.33333,1.33333,0,-708.915,-178.266)">
        <path d="M199.26,724.32L208.86,724.32" style="fill:none;fill-rule:nonzero;stroke:black;stroke-width:0.24px;"/>
    </g>
    <g transform="matrix(1.33333,0,0,1.33333,-15.2346,-941.066)">
        <path d="M282.24,750.24L316.32,750.24" style="fill:none;fill-rule:nonzero;stroke:black;stroke-width:0.72px;"/>
    </g>
    <g transform="matrix(1.33333,0,0,1.33333,-15.2346,-948.746)">
        <path d="M282.24,753.12L316.32,753.12" style="fill:none;fill-rule:nonzero;stroke:black;stroke-width:0.72px;"/>
    </g>
    <g transform="matrix(1.33333,0,0,1.33333,-15.2346,-944.906)">
        <path d="M311.76,748.08L319.68,751.68L311.76,755.28" style="fill:none;fill-rule:nonzero;stroke:black;stroke-width:0.72px;"/>
    </g>
    <g transform="matrix(0,1.33333,1.33333,0,-470.875,-503.826)">
        <path d="M408.03,757.14L422.79,757.14" style="fill:none;fill-rule:nonzero;stroke:black;stroke-width:0.24px;"/>
    </g>
    <g transform="matrix(0,1.33333,1.33333,0,-474.248,-498.239)">
        <path d="M405.5,756.31L418.6,756.31" style="fill:none;fill-rule:nonzero;stroke:black;stroke-width:0.24px;"/>
    </g>
    <g transform="matrix(-1.15468,-0.666702,-0.666702,1.15468,1509.88,-583.747)">
        <path d="M396.826,769.5L416.744,769.5" style="fill:none;fill-rule:nonzero;stroke:black;stroke-width:0.24px;"/>
    </g>
    <g transform="matrix(-1.15457,0.666895,0.666895,1.15457,445.983,-1119.91)">
        <path d="M384.972,770.945L399.108,770.945" style="fill:none;fill-rule:nonzero;stroke:black;stroke-width:0.24px;"/>
    </g>
    <g transform="matrix(-1.15462,-0.666805,-0.666805,1.15462,1442.05,-525.868)">
        <path d="M379.946,741.005L394.324,741.005" style="fill:none;fill-rule:nonzero;stroke:black;stroke-width:0.24px;"/>
    </g>
    <g transform="matrix(0,1.33333,1.33333,0,-509.995,-450.946)">
        <path d="M373.53,751.98L388.29,751.98" style="fill:none;fill-rule:nonzero;stroke:black;stroke-width:0.24px;"/>
    </g>
    <g transform="matrix(-1.22113,0.53538,0.53538,1.22113,544.352,-1035.85)">
        <path d="M367.574,741.805L381.496,741.805" style="fill:none;fill-rule:nonzero;stroke:black;stroke-width:0.24px;"/>
    </g>
    <g transform="matrix(0,-1.33333,-1.33333,0,1475.61,584.494)">
        <path d="M373.53,737.22L388.29,737.22" style="fill:none;fill-rule:nonzero;stroke:black;stroke-width:0.24px;"/>
    </g>
    <g transform="matrix(-1.15477,-0.666542,-0.666542,1.15477,1362.56,-550.166)">
        <path d="M350.249,742.065L359.671,742.065" style="fill:none;fill-rule:nonzero;stroke:black;stroke-width:0.24px;"/>
    </g>
    <g transform="matrix(-0.38435,1.27674,1.27674,0.38435,-324.116,-650.037)">
        <path d="M355.682,727.2L365.708,727.2" style="fill:none;fill-rule:nonzero;stroke:black;stroke-width:0.24px;"/>
    </g>
    <g transform="matrix(1.33333,0,0,1.33333,-15.2346,-939.146)">
        <path d="M442.56,749.52L476.64,749.52" style="fill:none;fill-rule:nonzero;stroke:black;stroke-width:0.72px;"/>
    </g>
    <g transform="matrix(1.33333,0,0,1.33333,-15.2346,-946.826)">
        <path d="M442.56,752.4L476.64,752.4" style="fill:none;fill-rule:nonzero;stroke:black;stroke-width:0.72px;"/>
    </g>
    <g transform="matrix(1.33333,0,0,1.33333,-15.2346,-942.986)">
        <path d="M472.08,747.36L480,750.96L472.08,754.56" style="fill:none;fill-rule:nonzero;stroke:black;stroke-width:0.72px;"/>
    </g>
    <g transform="matrix(0,1.33333,1.33333,0,-295.395,-642.986)">
        <path d="M525.96,743.52L540.84,743.52" style="fill:none;fill-rule:nonzero;stroke:black;stroke-width:0.24px;"/>
    </g>
    <g transform="matrix(0,-1.33333,-1.33333,0,1707.01,759.734)">
        <path d="M526.08,758.28L540.72,758.28" style="fill:none;fill-rule:nonzero;stroke:black;stroke-width:0.24px;"/>
    </g>
    <g transform="matrix(1.33333,0,0,1.33333,-15.2346,-942.986)">
        <path d="M533.4,750.96L548.64,750.96" style="fill:none;fill-rule:nonzero;stroke:black;stroke-width:0.24px;"/>
    </g>
    <g transform="matrix(-1.33333,0,0,1.33333,1386.53,-942.986)">
        <path d="M517.92,750.96L533.4,750.96" style="fill:none;fill-rule:nonzero;stroke:black;stroke-width:0.24px;"/>
    </g>
    <g transform="matrix(-0.666693,-1.15469,-1.15469,0.666693,1878.86,127.5)">
        <path d="M504.61,759.6L512.37,759.6" style="fill:none;fill-rule:nonzero;stroke:black;stroke-width:0.24px;"/>
    </g>
    <g transform="matrix(-0.666871,1.15458,1.15458,0.666871,144.781,-1012.63)">
        <path d="M504.541,742.44L512.579,742.44" style="fill:none;fill-rule:nonzero;stroke:black;stroke-width:0.24px;"/>
    </g>
</svg>
