<?xml version="1.0" encoding="UTF-8" standalone="no"?>
<!DOCTYPE svg PUBLIC "-//W3C//DTD SVG 1.1//EN" "http://www.w3.org/Graphics/SVG/1.1/DTD/svg11.dtd">
<svg width="100%" height="100%" viewBox="0 0 680 245" version="1.1" xmlns="http://www.w3.org/2000/svg" xmlns:xlink="http://www.w3.org/1999/xlink" xml:space="preserve" xmlns:serif="http://www.serif.com/" style="fill-rule:evenodd;clip-rule:evenodd;stroke-linecap:round;stroke-linejoin:round;stroke-miterlimit:10;">
    <g transform="matrix(1.33333,0,0,1.33333,-59.8145,-98.1855)">
        <text x="123.6px" y="99.36px" style="font-family:'ArialMT', 'Arial', sans-serif;font-size:8px;">2</text>
        <text x="123.6px" y="126.48px" style="font-family:'ArialMT', 'Arial', sans-serif;font-size:8px;">1</text>
    </g>
    <g transform="matrix(1.33333,0,0,1.33333,-59.8145,-98.1855)">
        <text x="98.64px" y="94.08px" style="font-family:'ArialMT', 'Arial', sans-serif;font-size:10px;">C</text>
    </g>
    <g transform="matrix(1.33333,0,0,1.33333,-59.8145,-98.1855)">
        <text x="87.12px" y="94.08px" style="font-family:'ArialMT', 'Arial', sans-serif;font-size:10px;">H</text>
        <text x="94.32px" y="96.72px" style="font-family:'ArialMT', 'Arial', sans-serif;font-size:8px;">2</text>
    </g>
    <g transform="matrix(1.33333,0,0,1.33333,-59.8145,-98.1855)">
        <text x="100.08px" y="140.16px" style="font-family:'ArialMT', 'Arial', sans-serif;font-size:8px;">1</text>
    </g>
    <g transform="matrix(1.33333,0,0,1.33333,-59.8145,-98.1855)">
        <text x="72.96px" y="108.72px" style="font-family:'ArialMT', 'Arial', sans-serif;font-size:10px;">O</text>
        <text x="74.64px" y="116.16px" style="font-family:'ArialMT', 'Arial', sans-serif;font-size:8px;">3</text>
        <text x="88.08px" y="117.84px" style="font-family:'ArialMT', 'Arial', sans-serif;font-size:8px;">2</text>
        <text x="64.08px" y="133.68px" style="font-family:'ArialMT', 'Arial', sans-serif;font-size:10px;">O</text>
    </g>
    <g transform="matrix(1.33333,0,0,1.33333,-59.8145,-98.1855)">
        <text x="47.04px" y="123.84px" style="font-family:'ArialMT', 'Arial', sans-serif;font-size:10px;">H</text>
    </g>
    <g transform="matrix(1.33333,0,0,1.33333,-59.8145,-98.1855)">
        <text x="254.4px" y="124.8px" style="font-family:'ArialMT', 'Arial', sans-serif;font-size:10px;">CH</text>
        <text x="268.8px" y="127.44px" style="font-family:'ArialMT', 'Arial', sans-serif;font-size:8px;">2</text>
        <text x="255.84px" y="132.24px" style="font-family:'ArialMT', 'Arial', sans-serif;font-size:8px;">3</text>
    </g>
    <g transform="matrix(1.33333,0,0,1.33333,-59.8145,-98.1855)">
        <text x="238.56px" y="86.88px" style="font-family:'ArialMT', 'Arial', sans-serif;font-size:8px;">1</text>
    </g>
    <g transform="matrix(1.33333,0,0,1.33333,-59.8145,-98.1855)">
        <text x="219.84px" y="104.88px" style="font-family:'ArialMT', 'Arial', sans-serif;font-size:10px;">O</text>
        <text x="221.52px" y="112.32px" style="font-family:'ArialMT', 'Arial', sans-serif;font-size:8px;">1</text>
        <text x="227.76px" y="120.24px" style="font-family:'ArialMT', 'Arial', sans-serif;font-size:8px;">2</text>
        <text x="202.56px" y="134.64px" style="font-family:'ArialMT', 'Arial', sans-serif;font-size:10px;">O</text>
    </g>
    <g transform="matrix(1.33333,0,0,1.33333,-59.8145,-98.1855)">
        <text x="185.52px" y="124.8px" style="font-family:'ArialMT', 'Arial', sans-serif;font-size:10px;">H</text>
    </g>
    <g transform="matrix(1.33333,0,0,1.33333,-59.8145,-98.1855)">
        <text x="237.12px" y="134.88px" style="font-family:'ArialMT', 'Arial', sans-serif;font-size:10px;">CH</text>
        <text x="251.52px" y="137.52px" style="font-family:'ArialMT', 'Arial', sans-serif;font-size:8px;">2</text>
        <text x="238.56px" y="142.32px" style="font-family:'ArialMT', 'Arial', sans-serif;font-size:8px;">2</text>
    </g>
    <g transform="matrix(1.33333,0,0,1.33333,-59.8145,-98.1855)">
        <text x="383.04px" y="124.8px" style="font-family:'ArialMT', 'Arial', sans-serif;font-size:10px;">CH</text>
        <text x="397.44px" y="127.44px" style="font-family:'ArialMT', 'Arial', sans-serif;font-size:8px;">2</text>
    </g>
    <g transform="matrix(1.33333,0,0,1.33333,-59.8145,-98.1855)">
        <text x="348.48px" y="104.88px" style="font-family:'ArialMT', 'Arial', sans-serif;font-size:10px;">O</text>
    </g>
    <g transform="matrix(1.33333,0,0,1.33333,-59.8145,-98.1855)">
        <text x="331.2px" y="134.64px" style="font-family:'ArialMT', 'Arial', sans-serif;font-size:10px;">O</text>
        <text x="331.68px" y="154.56px" style="font-family:'ArialMT', 'Arial', sans-serif;font-size:10px;">S</text>
        <text x="338.4px" y="154.56px" style="font-family:'ArialMT', 'Arial', sans-serif;font-size:10px;">i</text>
        <text x="340.8px" y="154.56px" style="font-family:'ArialMT', 'Arial', sans-serif;font-size:10px;">M</text>
        <text x="349.2px" y="154.56px" style="font-family:'ArialMT', 'Arial', sans-serif;font-size:10px;">e</text>
        <text x="354.96px" y="157.2px" style="font-family:'ArialMT', 'Arial', sans-serif;font-size:8px;">3</text>
    </g>
    <g transform="matrix(1.33333,0,0,1.33333,-59.8145,-98.1855)">
        <text x="365.76px" y="134.88px" style="font-family:'ArialMT', 'Arial', sans-serif;font-size:10px;">CH</text>
        <text x="380.16px" y="137.52px" style="font-family:'ArialMT', 'Arial', sans-serif;font-size:8px;">2</text>
    </g>
    <g transform="matrix(1.33333,0,0,1.33333,-59.8145,-98.1855)">
        <text x="517.2px" y="124.32px" style="font-family:'ArialMT', 'Arial', sans-serif;font-size:10px;">CH</text>
        <text x="531.6px" y="126.96px" style="font-family:'ArialMT', 'Arial', sans-serif;font-size:8px;">2</text>
        <text x="499.68px" y="134.4px" style="font-family:'ArialMT', 'Arial', sans-serif;font-size:10px;">O</text>
    </g>
    <g transform="matrix(1.33333,0,0,1.33333,-59.8145,-98.1855)">
        <text x="482.64px" y="104.4px" style="font-family:'ArialMT', 'Arial', sans-serif;font-size:10px;">O</text>
    </g>
    <g transform="matrix(1.33333,0,0,1.33333,-59.8145,-98.1855)">
        <text x="465.6px" y="134.16px" style="font-family:'ArialMT', 'Arial', sans-serif;font-size:10px;">C</text>
    </g>
    <g transform="matrix(1.33333,0,0,1.33333,-59.8145,-98.1855)">
        <text x="454.08px" y="134.16px" style="font-family:'ArialMT', 'Arial', sans-serif;font-size:10px;">H</text>
        <text x="461.28px" y="136.8px" style="font-family:'ArialMT', 'Arial', sans-serif;font-size:8px;">3</text>
    </g>
    <g transform="matrix(1.33333,0,0,1.33333,-59.8145,-98.1855)">
        <text x="483.12px" y="240.72px" style="font-family:'ArialMT', 'Arial', sans-serif;font-size:10px;">C</text>
    </g>
    <g transform="matrix(1.33333,0,0,1.33333,-59.8145,-98.1855)">
        <text x="471.6px" y="240.72px" style="font-family:'ArialMT', 'Arial', sans-serif;font-size:10px;">H</text>
        <text x="478.8px" y="243.36px" style="font-family:'ArialMT', 'Arial', sans-serif;font-size:8px;">3</text>
    </g>
    <g transform="matrix(1.33333,0,0,1.33333,-59.8145,-98.1855)">
        <text x="517.44px" y="240.24px" style="font-family:'ArialMT', 'Arial', sans-serif;font-size:10px;">O</text>
    </g>
    <g transform="matrix(1.33333,0,0,1.33333,-59.8145,-98.1855)">
        <text x="499.92px" y="210.72px" style="font-family:'ArialMT', 'Arial', sans-serif;font-size:10px;">O</text>
    </g>
    <g transform="matrix(1.33333,0,0,1.33333,-59.8145,-98.1855)">
        <text x="534.96px" y="230.16px" style="font-family:'ArialMT', 'Arial', sans-serif;font-size:10px;">H</text>
    </g>
    <g transform="matrix(1.33333,0,0,1.33333,-59.8145,-98.1855)">
        <text x="452.64px" y="234.96px" style="font-family:'ArialMT', 'Arial', sans-serif;font-size:18px;">+</text>
    </g>
    <g transform="matrix(1.33333,0,0,1.33333,-59.8145,-98.1855)">
        <text x="414.72px" y="251.52px" style="font-family:'ArialMT', 'Arial', sans-serif;font-size:10px;">C</text>
    </g>
    <g transform="matrix(1.33333,0,0,1.33333,-59.8145,-98.1855)">
        <text x="403.2px" y="251.52px" style="font-family:'ArialMT', 'Arial', sans-serif;font-size:10px;">H</text>
        <text x="410.4px" y="254.16px" style="font-family:'ArialMT', 'Arial', sans-serif;font-size:8px;">2</text>
    </g>
    <g transform="matrix(1.33333,0,0,1.33333,-59.8145,-98.1855)">
        <text x="414.24px" y="211.68px" style="font-family:'ArialMT', 'Arial', sans-serif;font-size:10px;">O</text>
    </g>
    <g transform="matrix(1.33333,0,0,1.33333,-59.8145,-98.1855)">
        <text x="407.04px" y="211.68px" style="font-family:'ArialMT', 'Arial', sans-serif;font-size:10px;">H</text>
    </g>
    <g transform="matrix(0,1.33333,1.33333,0,-876.174,-111.266)">
        <path d="M109.77,732L129.69,732" style="fill:none;fill-rule:nonzero;stroke:black;stroke-width:0.24px;"/>
    </g>
    <g transform="matrix(-1.15434,-0.667288,-0.667288,1.15434,721.721,-759.028)">
        <path d="M105.732,747.39L121.638,747.39" style="fill:none;fill-rule:nonzero;stroke:black;stroke-width:0.24px;"/>
    </g>
    <g transform="matrix(-1.15471,-0.666655,-0.666655,1.15471,716.94,-751.499)">
        <path d="M105.865,744L119.825,744" style="fill:none;fill-rule:nonzero;stroke:black;stroke-width:0.24px;"/>
    </g>
    <g transform="matrix(-1.15468,0.666702,0.666702,1.15468,-261.449,-833.754)">
        <path d="M101.146,717.06L121.064,717.06" style="fill:none;fill-rule:nonzero;stroke:black;stroke-width:0.24px;"/>
    </g>
    <g transform="matrix(-1.15468,-0.666702,-0.666702,1.15468,651.764,-697.107)">
        <path d="M83.896,717.06L103.814,717.06" style="fill:none;fill-rule:nonzero;stroke:black;stroke-width:0.24px;"/>
    </g>
    <g transform="matrix(0.646952,1.16586,1.16586,-0.646952,-848.517,431.553)">
        <path d="M77.883,724.68L85.797,724.68" style="fill:none;fill-rule:nonzero;stroke:black;stroke-width:0.24px;"/>
    </g>
    <g transform="matrix(0.64774,1.16542,1.16542,-0.64774,-849.878,427.572)">
        <path d="M78.932,727.43L89.388,727.43" style="fill:none;fill-rule:nonzero;stroke:black;stroke-width:0.24px;"/>
    </g>
    <g transform="matrix(-1.15487,0.666378,0.666378,1.15487,-341.803,-816.105)">
        <path d="M72.012,718.5L86.178,718.5" style="fill:none;fill-rule:nonzero;stroke:black;stroke-width:0.24px;"/>
    </g>
    <g transform="matrix(-1.15423,-0.667474,-0.667474,1.15423,566.042,-720.147)">
        <path d="M54.586,717.17L63.734,717.17" style="fill:none;fill-rule:nonzero;stroke:black;stroke-width:0.24px;"/>
    </g>
    <g transform="matrix(1.33333,0,0,1.33333,-59.8145,-915.466)">
        <path d="M136.56,727.44L170.64,727.44" style="fill:none;fill-rule:nonzero;stroke:black;stroke-width:0.72px;"/>
    </g>
    <g transform="matrix(1.33333,0,0,1.33333,-59.8145,-923.146)">
        <path d="M136.56,730.32L170.64,730.32" style="fill:none;fill-rule:nonzero;stroke:black;stroke-width:0.72px;"/>
    </g>
    <g transform="matrix(1.33333,0,0,1.33333,-59.8145,-919.306)">
        <path d="M166.08,725.28L174,728.88L166.08,732.48" style="fill:none;fill-rule:nonzero;stroke:black;stroke-width:0.72px;"/>
    </g>
    <g transform="matrix(0,1.33333,1.33333,0,-693.694,-298.066)">
        <path d="M250.83,733.62L265.59,733.62" style="fill:none;fill-rule:nonzero;stroke:black;stroke-width:0.24px;"/>
    </g>
    <g transform="matrix(0,1.33333,1.33333,0,-697.068,-292.479)">
        <path d="M248.3,732.79L261.4,732.79" style="fill:none;fill-rule:nonzero;stroke:black;stroke-width:0.24px;"/>
    </g>
    <g transform="matrix(-1.15468,-0.666702,-0.666702,1.15468,1058.5,-665.235)">
        <path d="M239.626,745.98L259.544,745.98" style="fill:none;fill-rule:nonzero;stroke:black;stroke-width:0.24px;"/>
    </g>
    <g transform="matrix(-1.15457,0.666895,0.666895,1.15457,25.9901,-991.759)">
        <path d="M227.772,747.425L241.908,747.425" style="fill:none;fill-rule:nonzero;stroke:black;stroke-width:0.24px;"/>
    </g>
    <g transform="matrix(0,1.33333,1.33333,0,-728.014,-240.386)">
        <path d="M219.93,724.86L227.49,724.86" style="fill:none;fill-rule:nonzero;stroke:black;stroke-width:0.24px;"/>
    </g>
    <g transform="matrix(-1.15487,0.666378,0.666378,1.15487,3.40283,-905.996)">
        <path d="M210.492,717.54L224.658,717.54" style="fill:none;fill-rule:nonzero;stroke:black;stroke-width:0.24px;"/>
    </g>
    <g transform="matrix(-1.15423,-0.667474,-0.667474,1.15423,909.88,-625.327)">
        <path d="M193.066,716.21L202.214,716.21" style="fill:none;fill-rule:nonzero;stroke:black;stroke-width:0.24px;"/>
    </g>
    <g transform="matrix(1.15444,0.667124,0.667124,-1.15444,-496.275,743.207)">
        <path d="M221.84,715.79L237.19,715.79" style="fill:none;fill-rule:nonzero;stroke:black;stroke-width:0.24px;"/>
    </g>
    <g transform="matrix(1.15471,0.666651,0.666651,-1.15471,-497.226,741.461)">
        <path d="M227.035,718.275L236.815,718.275" style="fill:none;fill-rule:nonzero;stroke:black;stroke-width:0.24px;"/>
    </g>
    <g transform="matrix(1.33333,0,0,1.33333,-59.8145,-979.786)">
        <path d="M70.8,765.6L69.6,763.68L68.16,759.84L67.68,757.68L67.68,753.6L67.92,751.92L68.88,748.56L69.6,747.12L70.56,745.68L71.52,744.48L72.48,743.04L73.68,741.84L74.88,740.88L76.32,739.92L77.76,739.2L79.44,738.48L80.88,738L82.56,737.76L84.48,737.52L87.36,737.52L89.28,737.76L91.2,738.24L92.88,738.96L94.32,739.68L96,740.64L97.44,741.84L98.64,743.04L99.84,744.48L100.32,745.2" style="fill:none;fill-rule:nonzero;stroke:black;stroke-width:0.48px;"/>
    </g>
    <g transform="matrix(0.580748,1.20021,1.20021,-0.580748,-900.973,334.803)">
        <path d="M93.507,763.044L101.772,763.044L94.524,759.086L95.674,761.462L93.507,763.044Z" style="stroke:black;stroke-width:0.48px;"/>
    </g>
    <g transform="matrix(1.33333,0,0,1.33333,-59.8145,-927.626)">
        <path d="M112.8,741.12L110.88,741.36L109.68,741.36L108.48,741.12L107.28,740.64L105.36,739.68L104.4,738.96L103.68,738.24L102.96,737.28L102,735.36L101.52,734.16L101.28,732.96L101.28,730.56L101.76,729.36L102,728.16L102.72,726.96L104.16,725.04L105.36,724.08L106.32,723.6L107.52,723.12L108,722.88L108.72,722.64" style="fill:none;fill-rule:nonzero;stroke:black;stroke-width:0.48px;"/>
    </g>
    <g transform="matrix(1.2958,-0.314133,-0.314133,-1.2958,171.351,1031.43)">
        <path d="M104.539,721.947L112.689,721.947L105.444,725.679L106.391,723.474L104.539,721.947Z" style="stroke:black;stroke-width:0.48px;"/>
    </g>
    <g transform="matrix(1.33333,0,0,1.33333,-59.8145,-845.066)">
        <path d="M113.28,690.24L114,692.4L114.48,694.8L114.72,697.44L114.72,699.12L114.48,700.8L113.52,704.16L112.8,705.6L110.88,708.48L109.92,709.68L108.72,710.88L107.28,711.84L106.08,712.8L104.64,713.52L102.96,714.24L99.6,715.2L97.92,715.44L96.72,715.44L91.68,714.72L90,714L87.12,712.56L85.68,711.6L83.28,709.2L82.32,708L81.36,706.56L79.92,703.68L78.96,700.32L78.72,698.64L78.72,696L78.96,694.32L79.2,693.12L80.16,690.24L82.32,686.64" style="fill:none;fill-rule:nonzero;stroke:black;stroke-width:0.48px;"/>
    </g>
    <g transform="matrix(0.942809,-0.942809,-0.942809,-0.942809,641.999,821.421)">
        <path d="M76.131,712.244L84.277,712.244L76.979,708.34L77.998,710.716L76.131,712.244Z" style="stroke:black;stroke-width:0.48px;"/>
    </g>
    <g transform="matrix(1.33333,0,0,1.33333,-59.8145,-914.186)">
        <path d="M285.12,726.96L319.2,726.96" style="fill:none;fill-rule:nonzero;stroke:black;stroke-width:0.72px;"/>
    </g>
    <g transform="matrix(1.33333,0,0,1.33333,-59.8145,-921.866)">
        <path d="M285.12,729.84L319.2,729.84" style="fill:none;fill-rule:nonzero;stroke:black;stroke-width:0.72px;"/>
    </g>
    <g transform="matrix(1.33333,0,0,1.33333,-59.8145,-918.026)">
        <path d="M314.64,724.8L322.56,728.4L314.64,732" style="fill:none;fill-rule:nonzero;stroke:black;stroke-width:0.72px;"/>
    </g>
    <g transform="matrix(0,1.33333,1.33333,0,-522.174,-469.586)">
        <path d="M379.47,733.62L394.23,733.62" style="fill:none;fill-rule:nonzero;stroke:black;stroke-width:0.24px;"/>
    </g>
    <g transform="matrix(0,1.33333,1.33333,0,-525.548,-463.999)">
        <path d="M376.94,732.79L390.04,732.79" style="fill:none;fill-rule:nonzero;stroke:black;stroke-width:0.24px;"/>
    </g>
    <g transform="matrix(-1.15468,-0.666702,-0.666702,1.15468,1378.56,-579.47)">
        <path d="M368.266,745.98L388.184,745.98" style="fill:none;fill-rule:nonzero;stroke:black;stroke-width:0.24px;"/>
    </g>
    <g transform="matrix(-1.15457,0.666895,0.666895,1.15457,346.034,-1077.55)">
        <path d="M356.412,747.425L370.548,747.425" style="fill:none;fill-rule:nonzero;stroke:black;stroke-width:0.24px;"/>
    </g>
    <g transform="matrix(0,1.33333,1.33333,0,-561.294,-416.706)">
        <path d="M344.97,728.46L359.73,728.46" style="fill:none;fill-rule:nonzero;stroke:black;stroke-width:0.24px;"/>
    </g>
    <g transform="matrix(-1.15487,0.666378,0.666378,1.15487,323.485,-991.719)">
        <path d="M339.132,717.54L353.298,717.54" style="fill:none;fill-rule:nonzero;stroke:black;stroke-width:0.24px;"/>
    </g>
    <g transform="matrix(0,1.33333,1.33333,0,-548.054,-357.466)">
        <path d="M330.3,701.28L339.9,701.28" style="fill:none;fill-rule:nonzero;stroke:black;stroke-width:0.24px;"/>
    </g>
    <g transform="matrix(1.15444,0.667124,0.667124,-1.15444,-473.262,657.388)">
        <path d="M350.48,715.79L365.83,715.79" style="fill:none;fill-rule:nonzero;stroke:black;stroke-width:0.24px;"/>
    </g>
    <g transform="matrix(1.15483,0.66644,0.66644,-1.15483,-475.024,656.751)">
        <path d="M352.293,719.18L365.697,719.18" style="fill:none;fill-rule:nonzero;stroke:black;stroke-width:0.24px;"/>
    </g>
    <g transform="matrix(1.33333,0,0,1.33333,-59.8145,-912.906)">
        <path d="M412.56,726.48L446.64,726.48" style="fill:none;fill-rule:nonzero;stroke:black;stroke-width:0.72px;"/>
    </g>
    <g transform="matrix(1.33333,0,0,1.33333,-59.8145,-920.586)">
        <path d="M412.56,729.36L446.64,729.36" style="fill:none;fill-rule:nonzero;stroke:black;stroke-width:0.72px;"/>
    </g>
    <g transform="matrix(1.33333,0,0,1.33333,-59.8145,-916.746)">
        <path d="M442.08,724.32L450,727.92L442.08,731.52" style="fill:none;fill-rule:nonzero;stroke:black;stroke-width:0.72px;"/>
    </g>
    <g transform="matrix(0,1.33333,1.33333,0,-343.934,-649.106)">
        <path d="M513.63,734.1L528.39,734.1" style="fill:none;fill-rule:nonzero;stroke:black;stroke-width:0.24px;"/>
    </g>
    <g transform="matrix(0,1.33333,1.33333,0,-347.308,-643.519)">
        <path d="M511.1,733.27L524.2,733.27" style="fill:none;fill-rule:nonzero;stroke:black;stroke-width:0.24px;"/>
    </g>
    <g transform="matrix(-1.15468,-0.666702,-0.666702,1.15468,1712.67,-491.22)">
        <path d="M502.426,746.46L522.344,746.46" style="fill:none;fill-rule:nonzero;stroke:black;stroke-width:0.24px;"/>
    </g>
    <g transform="matrix(-1.15457,0.666895,0.666895,1.15457,679.491,-1168.21)">
        <path d="M490.572,747.905L504.708,747.905" style="fill:none;fill-rule:nonzero;stroke:black;stroke-width:0.24px;"/>
    </g>
    <g transform="matrix(-1.1549,-0.666326,-0.666326,1.1549,1646.55,-437.958)">
        <path d="M486.472,719.73L499.598,719.73" style="fill:none;fill-rule:nonzero;stroke:black;stroke-width:0.24px;"/>
    </g>
    <g transform="matrix(-1.15449,-0.667037,-0.667037,1.15449,1642.5,-429.438)">
        <path d="M484.659,716.34L499.731,716.34" style="fill:none;fill-rule:nonzero;stroke:black;stroke-width:0.24px;"/>
    </g>
    <g transform="matrix(0,1.33333,1.33333,0,-383.054,-596.226)">
        <path d="M479.13,728.94L493.89,728.94" style="fill:none;fill-rule:nonzero;stroke:black;stroke-width:0.24px;"/>
    </g>
    <g transform="matrix(-1.15475,0.666584,0.666584,1.15475,656.273,-1081.82)">
        <path d="M472.774,717.88L487.496,717.88" style="fill:none;fill-rule:nonzero;stroke:black;stroke-width:0.24px;"/>
    </g>
    <g transform="matrix(0,1.33333,1.33333,0,-291.494,-547.466)">
        <path d="M485.04,676.32L520.08,676.32" style="fill:none;fill-rule:nonzero;stroke:black;stroke-width:0.72px;"/>
    </g>
    <g transform="matrix(0,1.33333,1.33333,0,-287.654,-551.306)">
        <path d="M487.92,676.32L522.96,676.32" style="fill:none;fill-rule:nonzero;stroke:black;stroke-width:0.72px;"/>
    </g>
    <g transform="matrix(1.33333,0,0,1.33333,-59.8145,-734.026)">
        <path d="M507.6,655.44L504,663.36L500.4,655.44" style="fill:none;fill-rule:nonzero;stroke:black;stroke-width:0.72px;"/>
    </g>
    <g transform="matrix(-1.14844,0.677399,0.677399,1.14844,761.053,-830.468)">
        <path d="M490.25,611.545L505.11,611.545" style="fill:none;fill-rule:nonzero;stroke:black;stroke-width:0.24px;"/>
    </g>
    <g transform="matrix(1.1607,0.656169,0.656169,-1.1607,-373.176,583.924)">
        <path d="M503.158,611.815L517.402,611.815" style="fill:none;fill-rule:nonzero;stroke:black;stroke-width:0.24px;"/>
    </g>
    <g transform="matrix(-0.0127325,-1.33327,-1.33327,0.0127325,1451.07,860.442)">
        <path d="M498.36,622.67L513.02,622.67" style="fill:none;fill-rule:nonzero;stroke:black;stroke-width:0.24px;"/>
    </g>
    <g transform="matrix(-0.0126978,-1.33327,-1.33327,0.0126978,1446.5,856.011)">
        <path d="M494.98,622.65L509.68,622.65" style="fill:none;fill-rule:nonzero;stroke:black;stroke-width:0.24px;"/>
    </g>
    <g transform="matrix(1.14844,-0.677399,-0.677399,-1.14844,451.88,1270.59)">
        <path d="M525.702,610.675L534.618,610.675" style="fill:none;fill-rule:nonzero;stroke:black;stroke-width:0.24px;"/>
    </g>
    <g transform="matrix(-1.15259,0.670303,0.670303,1.15259,604.577,-756.558)">
        <path d="M421.885,600.67L436.565,600.67" style="fill:none;fill-rule:nonzero;stroke:black;stroke-width:0.24px;"/>
    </g>
    <g transform="matrix(-1.15255,0.67038,0.67038,1.15255,596.217,-760.474)">
        <path d="M419.638,602.975L433.382,602.975" style="fill:none;fill-rule:nonzero;stroke:black;stroke-width:0.24px;"/>
    </g>
    <g transform="matrix(-0.00468303,-1.33333,-1.33333,0.00468303,1342.03,783.107)">
        <path d="M425.57,614.325L445.5,614.325" style="fill:none;fill-rule:nonzero;stroke:black;stroke-width:0.24px;"/>
    </g>
    <g transform="matrix(-1.15702,-0.662625,-0.662625,1.15702,1425.34,-254.688)">
        <path d="M422.177,627.835L436.443,627.835" style="fill:none;fill-rule:nonzero;stroke:black;stroke-width:0.24px;"/>
    </g>
</svg>
