<?xml version="1.0" encoding="UTF-8" standalone="no"?>
<!DOCTYPE svg PUBLIC "-//W3C//DTD SVG 1.1//EN" "http://www.w3.org/Graphics/SVG/1.1/DTD/svg11.dtd">
<svg width="100%" height="100%" viewBox="0 0 625 720" version="1.1" xmlns="http://www.w3.org/2000/svg" xmlns:xlink="http://www.w3.org/1999/xlink" xml:space="preserve" xmlns:serif="http://www.serif.com/" style="fill-rule:evenodd;clip-rule:evenodd;stroke-linecap:round;stroke-linejoin:round;stroke-miterlimit:10;">
    <g transform="matrix(1.33333,0,0,1.33333,225.23,113.442)">
        <text x="0px" y="0px" style="font-family:'ArialMT', 'Arial', sans-serif;font-size:10px;">O</text>
    </g>
    <g transform="matrix(1.33333,0,0,1.33333,272.27,106.082)">
        <text x="0px" y="0px" style="font-family:'ArialMT', 'Arial', sans-serif;font-size:10px;">O</text>
    </g>
    <g transform="matrix(1.33333,0,0,1.33333,-109.489,-115.997)">
        <g transform="matrix(1,0,0,1,336.24,97.44)">
            <text x="0px" y="0px" style="font-family:'ArialMT', 'Arial', sans-serif;font-size:10px;">CH</text>
        </g>
        <g transform="matrix(1,0,0,1,350.64,100.08)">
            <text x="0px" y="0px" style="font-family:'ArialMT', 'Arial', sans-serif;font-size:8px;">3</text>
        </g>
    </g>
    <g transform="matrix(1.33333,0,0,1.33333,543.949,113.442)">
        <text x="0px" y="0px" style="font-family:'ArialMT', 'Arial', sans-serif;font-size:10px;">O</text>
    </g>
    <g transform="matrix(1.33333,0,0,1.33333,407.31,87.5225)">
        <text x="0px" y="0px" style="font-family:'ArialMT', 'Arial', sans-serif;font-size:10px;">C</text>
    </g>
    <g transform="matrix(1.33333,0,0,1.33333,-109.489,-115.997)">
        <g transform="matrix(1,0,0,1,376.08,152.64)">
            <text x="0px" y="0px" style="font-family:'ArialMT', 'Arial', sans-serif;font-size:10px;">H</text>
        </g>
        <g transform="matrix(1,0,0,1,383.28,155.28)">
            <text x="0px" y="0px" style="font-family:'ArialMT', 'Arial', sans-serif;font-size:8px;">3</text>
        </g>
    </g>
    <g transform="matrix(1.33333,0,0,1.33333,590.669,106.082)">
        <text x="0px" y="0px" style="font-family:'ArialMT', 'Arial', sans-serif;font-size:10px;">O</text>
    </g>
    <g transform="matrix(1.33333,0,0,1.33333,68.1106,153.122)">
        <text x="0px" y="0px" style="font-family:'ArialMT', 'Arial', sans-serif;font-size:10px;">1</text>
    </g>
    <g transform="matrix(1.33333,0,0,1.33333,279.95,153.442)">
        <text x="0px" y="0px" style="font-family:'ArialMT', 'Arial', sans-serif;font-size:10px;">2</text>
    </g>
    <g transform="matrix(1.33333,0,0,1.33333,491.789,153.122)">
        <text x="0px" y="0px" style="font-family:'ArialMT', 'Arial', sans-serif;font-size:10px;">3</text>
    </g>
    <g transform="matrix(1.33333,0,0,1.33333,74.8305,235.362)">
        <text x="0px" y="0px" style="font-family:'ArialMT', 'Arial', sans-serif;font-size:10px;">O</text>
    </g>
    <g transform="matrix(1.33333,0,0,1.33333,121.55,242.722)">
        <text x="0px" y="0px" style="font-family:'ArialMT', 'Arial', sans-serif;font-size:10px;">O</text>
    </g>
    <g transform="matrix(1.33333,0,0,1.33333,321.87,193.442)">
        <text x="0px" y="0px" style="font-family:'ArialMT', 'Arial', sans-serif;font-size:10px;">O</text>
    </g>
    <g transform="matrix(1.33333,0,0,1.33333,217.87,287.522)">
        <text x="0px" y="0px" style="font-family:'ArialMT', 'Arial', sans-serif;font-size:10px;">C</text>
    </g>
    <g transform="matrix(1.33333,0,0,1.33333,-109.489,-115.997)">
        <g transform="matrix(1,0,0,1,234,302.64)">
            <text x="0px" y="0px" style="font-family:'ArialMT', 'Arial', sans-serif;font-size:10px;">H</text>
        </g>
        <g transform="matrix(1,0,0,1,241.2,305.28)">
            <text x="0px" y="0px" style="font-family:'ArialMT', 'Arial', sans-serif;font-size:8px;">3</text>
        </g>
    </g>
    <g transform="matrix(1.33333,0,0,1.33333,430.03,274.082)">
        <text x="0px" y="0px" style="font-family:'ArialMT', 'Arial', sans-serif;font-size:10px;">S</text>
    </g>
    <g transform="matrix(1.33333,0,0,1.33333,571.789,274.722)">
        <text x="0px" y="0px" style="font-family:'ArialMT', 'Arial', sans-serif;font-size:10px;">O</text>
    </g>
    <g transform="matrix(1.33333,0,0,1.33333,-109.489,-115.997)">
        <g>
            <g transform="matrix(1,0,0,1,521.76,260.4)">
                <text x="0px" y="0px" style="font-family:'ArialMT', 'Arial', sans-serif;font-size:10px;">O</text>
            </g>
            <g transform="matrix(1,0,0,1,529.68,260.4)">
                <text x="0px" y="0px" style="font-family:'ArialMT', 'Arial', sans-serif;font-size:10px;">H</text>
            </g>
        </g>
    </g>
    <g transform="matrix(1.33333,0,0,1.33333,49.2306,314.402)">
        <text x="0px" y="0px" style="font-family:'ArialMT', 'Arial', sans-serif;font-size:10px;">4</text>
    </g>
    <g transform="matrix(1.33333,0,0,1.33333,270.99,313.122)">
        <text x="0px" y="0px" style="font-family:'ArialMT', 'Arial', sans-serif;font-size:10px;">5</text>
    </g>
    <g transform="matrix(1.33333,0,0,1.33333,504.589,313.762)">
        <text x="0px" y="0px" style="font-family:'ArialMT', 'Arial', sans-serif;font-size:10px;">6</text>
    </g>
    <g transform="matrix(1.33333,0,0,1.33333,19.7907,475.042)">
        <text x="0px" y="0px" style="font-family:'ArialMT', 'Arial', sans-serif;font-size:10px;">C</text>
    </g>
    <g transform="matrix(1.33333,0,0,1.33333,-109.489,-115.997)">
        <g transform="matrix(1,0,0,1,85.44,443.28)">
            <text x="0px" y="0px" style="font-family:'ArialMT', 'Arial', sans-serif;font-size:10px;">H</text>
        </g>
        <g transform="matrix(1,0,0,1,92.64,445.92)">
            <text x="0px" y="0px" style="font-family:'ArialMT', 'Arial', sans-serif;font-size:8px;">3</text>
        </g>
    </g>
    <g transform="matrix(1.33333,0,0,1.33333,154.19,373.922)">
        <text x="0px" y="0px" style="font-family:'ArialMT', 'Arial', sans-serif;font-size:10px;">O</text>
    </g>
    <g transform="matrix(1.33333,0,0,1.33333,-109.489,-115.997)">
        <g>
            <g transform="matrix(1,0,0,1,266.64,387.36)">
                <text x="0px" y="0px" style="font-family:'ArialMT', 'Arial', sans-serif;font-size:10px;">O</text>
            </g>
            <g transform="matrix(1,0,0,1,274.56,387.36)">
                <text x="0px" y="0px" style="font-family:'ArialMT', 'Arial', sans-serif;font-size:10px;">H</text>
            </g>
        </g>
    </g>
    <g transform="matrix(1.33333,0,0,1.33333,222.99,440.482)">
        <text x="0px" y="0px" style="font-family:'ArialMT', 'Arial', sans-serif;font-size:10px;">O</text>
    </g>
    <g transform="matrix(1.33333,0,0,1.33333,-109.489,-115.997)">
        <g transform="matrix(1,0,0,1,385.92,449.52)">
            <text x="0px" y="0px" style="font-family:'ArialMT', 'Arial', sans-serif;font-size:10px;">CH</text>
        </g>
        <g transform="matrix(1,0,0,1,400.32,452.16)">
            <text x="0px" y="0px" style="font-family:'ArialMT', 'Arial', sans-serif;font-size:8px;">3</text>
        </g>
    </g>
    <g transform="matrix(1.33333,0,0,1.33333,496.589,483.362)">
        <text x="0px" y="0px" style="font-family:'ArialMT', 'Arial', sans-serif;font-size:10px;">O</text>
    </g>
    <g transform="matrix(1.33333,0,0,1.33333,382.03,443.682)">
        <text x="0px" y="0px" style="font-family:'ArialMT', 'Arial', sans-serif;font-size:10px;">C</text>
    </g>
    <g transform="matrix(1.33333,0,0,1.33333,-109.489,-115.997)">
        <g transform="matrix(1,0,0,1,357.12,419.76)">
            <text x="0px" y="0px" style="font-family:'ArialMT', 'Arial', sans-serif;font-size:10px;">H</text>
        </g>
        <g transform="matrix(1,0,0,1,364.32,422.4)">
            <text x="0px" y="0px" style="font-family:'ArialMT', 'Arial', sans-serif;font-size:8px;">3</text>
        </g>
    </g>
    <g transform="matrix(1.33333,0,0,1.33333,427.47,416.802)">
        <text x="0px" y="0px" style="font-family:'ArialMT', 'Arial', sans-serif;font-size:10px;">O</text>
    </g>
    <g transform="matrix(1.33333,0,0,1.33333,-109.489,-115.997)">
        <g transform="matrix(1,0,0,1,489.36,429.6)">
            <text x="0px" y="0px" style="font-family:'ArialMT', 'Arial', sans-serif;font-size:10px;">CH</text>
        </g>
        <g transform="matrix(1,0,0,1,503.76,432.24)">
            <text x="0px" y="0px" style="font-family:'ArialMT', 'Arial', sans-serif;font-size:8px;">3</text>
        </g>
    </g>
    <g transform="matrix(1.33333,0,0,1.33333,-109.489,-115.997)">
        <g transform="matrix(1,0,0,1,472.08,399.6)">
            <text x="0px" y="0px" style="font-family:'ArialMT', 'Arial', sans-serif;font-size:10px;">CH</text>
        </g>
        <g transform="matrix(1,0,0,1,486.48,402.24)">
            <text x="0px" y="0px" style="font-family:'ArialMT', 'Arial', sans-serif;font-size:8px;">3</text>
        </g>
    </g>
    <g transform="matrix(1.33333,0,0,1.33333,173.71,515.681)">
        <text x="0px" y="0px" style="font-family:'ArialMT', 'Arial', sans-serif;font-size:10px;">7</text>
    </g>
    <g transform="matrix(1.33333,0,0,1.33333,456.27,515.361)">
        <text x="0px" y="0px" style="font-family:'ArialMT', 'Arial', sans-serif;font-size:10px;">8</text>
    </g>
    <g transform="matrix(1.33333,0,0,1.33333,-109.489,-115.997)">
        <g>
            <g transform="matrix(1,0,0,1,268.32,536.64)">
                <text x="0px" y="0px" style="font-family:'ArialMT', 'Arial', sans-serif;font-size:10px;">O</text>
            </g>
            <g transform="matrix(1,0,0,1,276.24,536.64)">
                <text x="0px" y="0px" style="font-family:'ArialMT', 'Arial', sans-serif;font-size:10px;">H</text>
            </g>
        </g>
    </g>
    <g transform="matrix(1.33333,0,0,1.33333,-109.489,-115.997)">
        <g transform="matrix(1,0,0,1,320.16,526.56)">
            <text x="0px" y="0px" style="font-family:'ArialMT', 'Arial', sans-serif;font-size:10px;">O</text>
        </g>
        <g transform="matrix(1,0,0,1,300.48,535.68)">
            <text x="0px" y="0px" style="font-family:'ArialMT', 'Arial', sans-serif;font-size:10px;">C</text>
        </g>
    </g>
    <g transform="matrix(1.33333,0,0,1.33333,-109.489,-115.997)">
        <g transform="matrix(1,0,0,1,288.96,535.68)">
            <text x="0px" y="0px" style="font-family:'ArialMT', 'Arial', sans-serif;font-size:10px;">H</text>
        </g>
        <g transform="matrix(1,0,0,1,296.16,538.32)">
            <text x="0px" y="0px" style="font-family:'ArialMT', 'Arial', sans-serif;font-size:8px;">3</text>
        </g>
    </g>
    <g transform="matrix(1.33333,0,0,1.33333,-109.489,-115.997)">
        <g transform="matrix(1,0,0,1,313.2,573.6)">
            <text x="0px" y="0px" style="font-family:'ArialMT', 'Arial', sans-serif;font-size:10px;">CH</text>
        </g>
        <g transform="matrix(1,0,0,1,327.6,576.24)">
            <text x="0px" y="0px" style="font-family:'ArialMT', 'Arial', sans-serif;font-size:8px;">3</text>
        </g>
    </g>
    <g transform="matrix(1.33333,0,0,1.33333,340.43,625.761)">
        <text x="0px" y="0px" style="font-family:'ArialMT', 'Arial', sans-serif;font-size:10px;">O</text>
    </g>
    <g transform="matrix(1.33333,0,0,1.33333,363.79,612.641)">
        <text x="0px" y="0px" style="font-family:'ArialMT', 'Arial', sans-serif;font-size:10px;">H</text>
    </g>
    <g transform="matrix(1.33333,0,0,1.33333,293.39,712.801)">
        <text x="0px" y="0px" style="font-family:'ArialMT', 'Arial', sans-serif;font-size:10px;">9</text>
    </g>
    <g transform="matrix(1.33333,0,0,1.33333,-109.489,-115.997)">
        <g transform="matrix(1,0,0,1,100.56,118.08)">
            <text x="0px" y="0px" style="font-family:'ArialMT', 'Arial', sans-serif;font-size:10px;">CH</text>
        </g>
        <g transform="matrix(1,0,0,1,114.96,120.72)">
            <text x="0px" y="0px" style="font-family:'ArialMT', 'Arial', sans-serif;font-size:8px;">2</text>
        </g>
    </g>
    <g transform="matrix(1.33333,0,0,1.33333,-109.489,-115.997)">
        <g transform="matrix(1,0,0,1,152.4,168)">
            <text x="0px" y="0px" style="font-family:'ArialMT', 'Arial', sans-serif;font-size:10px;">CH</text>
        </g>
        <g transform="matrix(1,0,0,1,166.8,170.64)">
            <text x="0px" y="0px" style="font-family:'ArialMT', 'Arial', sans-serif;font-size:8px;">2</text>
        </g>
    </g>
    <g transform="matrix(1.0798,-0.782186,-0.782186,-1.0798,490.748,1041.56)">
        <path d="M258.591,681.3L272.569,681.3" style="fill:none;fill-rule:nonzero;stroke:black;stroke-width:0.72px;"/>
    </g>
    <g transform="matrix(0.410979,1.26841,1.26841,-0.410979,-743.53,25.4915)">
        <path d="M258.21,694.875L278.13,694.875" style="fill:none;fill-rule:nonzero;stroke:black;stroke-width:0.72px;"/>
    </g>
    <g transform="matrix(1.07823,0.784345,0.784345,-1.07823,-581.559,640.932)">
        <path d="M237.689,681.4L251.391,681.4" style="fill:none;fill-rule:nonzero;stroke:black;stroke-width:0.72px;"/>
    </g>
    <g transform="matrix(1.33333,0.00133802,0.00133802,-1.33333,-110.431,1006.22)">
        <path d="M245.17,704.36L265.1,704.36" style="fill:none;fill-rule:nonzero;stroke:black;stroke-width:0.72px;"/>
    </g>
    <g transform="matrix(-0.412993,1.26776,1.26776,0.412993,-567.696,-513.865)">
        <path d="M232.125,694.9L252.045,694.9" style="fill:none;fill-rule:nonzero;stroke:black;stroke-width:0.72px;"/>
    </g>
    <g transform="matrix(1.26757,0.413582,0.413582,-1.26757,-373.027,846.758)">
        <path d="M270.33,681.42L285.74,681.42" style="fill:none;fill-rule:nonzero;stroke:black;stroke-width:0.72px;"/>
    </g>
    <g transform="matrix(1.26777,0.412958,0.412958,-1.26777,-374.013,846.633)">
        <path d="M271.408,684.785L285.712,684.785" style="fill:none;fill-rule:nonzero;stroke:black;stroke-width:0.72px;"/>
    </g>
    <g transform="matrix(0.784388,-1.0782,-1.0782,-0.784388,807.368,907.64)">
        <path d="M260.999,712.405L280.921,712.405" style="fill:none;fill-rule:nonzero;stroke:black;stroke-width:0.72px;"/>
    </g>
    <g transform="matrix(1.3259,0.140555,0.140555,-1.3259,-208.476,960.917)">
        <path d="M276.765,719.41L296.685,719.41" style="fill:none;fill-rule:nonzero;stroke:black;stroke-width:0.72px;"/>
    </g>
    <g transform="matrix(0.784388,-1.0782,-1.0782,-0.784388,839.781,933.945)">
        <path d="M292.529,726.415L312.451,726.415" style="fill:none;fill-rule:nonzero;stroke:black;stroke-width:0.72px;"/>
    </g>
    <g transform="matrix(1.3259,0.140555,0.140555,-1.3259,-210.211,956.382)">
        <path d="M308.295,733.42L328.215,733.42" style="fill:none;fill-rule:nonzero;stroke:black;stroke-width:0.72px;"/>
    </g>
    <g transform="matrix(0.784581,-1.07806,-1.07806,-0.784581,868.186,959.735)">
        <path d="M325.383,737.825L338.877,737.825" style="fill:none;fill-rule:nonzero;stroke:black;stroke-width:0.72px;"/>
    </g>
    <g transform="matrix(1.07521,-0.788485,-0.788485,-1.07521,558.028,1228.47)">
        <path d="M497.628,681.42L511.392,681.42" style="fill:none;fill-rule:nonzero;stroke:black;stroke-width:0.72px;"/>
    </g>
    <g transform="matrix(0.418223,1.26604,1.26604,-0.418223,-525.425,-271.195)">
        <path d="M496.972,694.95L516.898,694.95" style="fill:none;fill-rule:nonzero;stroke:black;stroke-width:0.72px;"/>
    </g>
    <g transform="matrix(1.08232,0.778694,0.778694,-1.08232,-518.643,459.074)">
        <path d="M476.51,681.285L490.43,681.285" style="fill:none;fill-rule:nonzero;stroke:black;stroke-width:0.72px;"/>
    </g>
    <g transform="matrix(1.33332,-0.00602403,-0.00602403,-1.33332,-105.239,1009.53)">
        <path d="M483.89,704.365L503.81,704.365" style="fill:none;fill-rule:nonzero;stroke:black;stroke-width:0.72px;"/>
    </g>
    <g transform="matrix(-0.406343,1.26991,1.26991,0.406343,-155.332,-812.867)">
        <path d="M470.896,694.835L490.814,694.835" style="fill:none;fill-rule:nonzero;stroke:black;stroke-width:0.72px;"/>
    </g>
    <g transform="matrix(-1.26598,0.418422,0.418422,1.26598,822.48,-962.727)">
        <path d="M458.407,682.225L478.323,682.225" style="fill:none;fill-rule:nonzero;stroke:black;stroke-width:0.72px;"/>
    </g>
    <g transform="matrix(-0.994809,-0.887768,-0.887768,0.994809,1550.38,-189.121)">
        <path d="M441.51,685.735L461.44,685.735" style="fill:none;fill-rule:nonzero;stroke:black;stroke-width:0.72px;"/>
    </g>
    <g transform="matrix(-1.26598,0.418422,0.418422,1.26598,731.737,-966.84)">
        <path d="M424.627,689.245L444.543,689.245" style="fill:none;fill-rule:nonzero;stroke:black;stroke-width:0.72px;"/>
    </g>
    <g transform="matrix(-0.994809,-0.887768,-0.887768,0.994809,1477.97,-235.453)">
        <path d="M407.73,692.755L427.66,692.755" style="fill:none;fill-rule:nonzero;stroke:black;stroke-width:0.72px;"/>
    </g>
    <g transform="matrix(-1.26604,0.41823,0.41823,1.26604,646.581,-973.74)">
        <path d="M395.375,696.995L410.645,696.995" style="fill:none;fill-rule:nonzero;stroke:black;stroke-width:0.72px;"/>
    </g>
    <g transform="matrix(1.26986,0.406494,0.406494,-1.26986,-353.728,753.205)">
        <path d="M509.175,681.55L524.525,681.55" style="fill:none;fill-rule:nonzero;stroke:black;stroke-width:0.72px;"/>
    </g>
    <g transform="matrix(1.26987,0.406469,0.406469,-1.26987,-355.05,752.8)">
        <path d="M510.23,684.915L524.5,684.915" style="fill:none;fill-rule:nonzero;stroke:black;stroke-width:0.72px;"/>
    </g>
    <g transform="matrix(-1.0798,0.782186,0.782186,1.0798,-241.52,-483.601)">
        <path d="M124.631,574.86L138.609,574.86" style="fill:none;fill-rule:nonzero;stroke:black;stroke-width:0.72px;"/>
    </g>
    <g transform="matrix(-0.410979,-1.26841,-1.26841,0.410979,827.521,191.169)">
        <path d="M119.07,561.285L138.99,561.285" style="fill:none;fill-rule:nonzero;stroke:black;stroke-width:0.72px;"/>
    </g>
    <g transform="matrix(-1.07823,-0.784345,-0.784345,1.07823,709.47,-259.77)">
        <path d="M145.809,574.76L159.511,574.76" style="fill:none;fill-rule:nonzero;stroke:black;stroke-width:0.72px;"/>
    </g>
    <g transform="matrix(-1.33333,-0.00133802,-0.00133802,1.33333,270.089,-464.714)">
        <path d="M132.1,551.8L152.03,551.8" style="fill:none;fill-rule:nonzero;stroke:black;stroke-width:0.72px;"/>
    </g>
    <g transform="matrix(0.412993,-1.26776,-1.26776,-0.412993,744.813,686.661)">
        <path d="M145.155,561.26L165.075,561.26" style="fill:none;fill-rule:nonzero;stroke:black;stroke-width:0.72px;"/>
    </g>
    <g transform="matrix(-1.07962,0.782437,0.782437,1.07962,-315.043,-464.476)">
        <path d="M91.835,576.635L111.755,576.635" style="fill:none;fill-rule:nonzero;stroke:black;stroke-width:0.72px;"/>
    </g>
    <g transform="matrix(-0.410783,-1.26848,-1.26848,0.410783,771.351,150.361)">
        <path d="M86.835,561.31L106.765,561.31" style="fill:none;fill-rule:nonzero;stroke:black;stroke-width:0.72px;"/>
    </g>
    <g transform="matrix(-1.07797,-0.784707,-0.784707,1.07797,627.305,-291.317)">
        <path d="M107.953,576.62L127.867,576.62" style="fill:none;fill-rule:nonzero;stroke:black;stroke-width:0.72px;"/>
    </g>
    <g transform="matrix(-1.33333,-0.000669344,-0.000669344,1.33333,183.76,-464.897)">
        <path d="M99.87,551.825L119.79,551.825" style="fill:none;fill-rule:nonzero;stroke:black;stroke-width:0.72px;"/>
    </g>
    <g transform="matrix(0.412993,-1.26776,-1.26776,-0.412993,715.179,645.761)">
        <path d="M112.915,561.29L132.835,561.29" style="fill:none;fill-rule:nonzero;stroke:black;stroke-width:0.72px;"/>
    </g>
    <g transform="matrix(1.26841,-0.410998,-0.410998,-1.26841,136.075,1037.49)">
        <path d="M158.362,571.335L172.668,571.335" style="fill:none;fill-rule:nonzero;stroke:black;stroke-width:0.72px;"/>
    </g>
    <g transform="matrix(1.2685,-0.410704,-0.410704,-1.2685,137.24,1037.07)">
        <path d="M157.306,574.7L172.694,574.7" style="fill:none;fill-rule:nonzero;stroke:black;stroke-width:0.72px;"/>
    </g>
    <g transform="matrix(0,-1.33333,-1.33333,0,1042.63,656.923)">
        <path d="M290.97,563.16L310.89,563.16" style="fill:none;fill-rule:nonzero;stroke:black;stroke-width:0.72px;"/>
    </g>
    <g transform="matrix(1.15485,0.666412,0.666412,-1.15485,-442.57,708.587)">
        <path d="M282.336,578.1L302.264,578.1" style="fill:none;fill-rule:nonzero;stroke:black;stroke-width:0.72px;"/>
    </g>
    <g transform="matrix(1.15485,-0.666412,-0.666412,-1.15485,308.023,1103.51)">
        <path d="M282.336,548.22L302.264,548.22" style="fill:none;fill-rule:nonzero;stroke:black;stroke-width:0.72px;"/>
    </g>
    <g transform="matrix(1.15468,-0.666702,-0.666702,-1.15468,325.069,1086.66)">
        <path d="M265.086,578.1L285.004,578.1" style="fill:none;fill-rule:nonzero;stroke:black;stroke-width:0.72px;"/>
    </g>
    <g transform="matrix(1.15468,0.666702,0.666702,-1.15468,-425.851,725.248)">
        <path d="M265.086,548.22L285.004,548.22" style="fill:none;fill-rule:nonzero;stroke:black;stroke-width:0.72px;"/>
    </g>
    <g transform="matrix(0,-1.33333,-1.33333,0,996.618,610.909)">
        <path d="M256.46,563.16L276.38,563.16" style="fill:none;fill-rule:nonzero;stroke:black;stroke-width:0.72px;"/>
    </g>
    <g transform="matrix(1.3042,-0.277177,-0.277177,-1.3042,64.0135,1075.19)">
        <path d="M299.992,593.39L319.908,593.39" style="fill:none;fill-rule:nonzero;stroke:black;stroke-width:0.72px;"/>
    </g>
    <g transform="matrix(0.514147,-1.23022,-1.23022,-0.514147,896.286,912.387)">
        <path d="M316.635,601.725L331.625,601.725" style="fill:none;fill-rule:nonzero;stroke:black;stroke-width:0.72px;"/>
    </g>
    <g transform="matrix(0.514423,-1.2301,-1.2301,-0.514423,894.166,907.839)">
        <path d="M313.969,602.375L327.551,602.375" style="fill:none;fill-rule:nonzero;stroke:black;stroke-width:0.72px;"/>
    </g>
    <g transform="matrix(0.666702,1.15468,1.15468,-0.666702,-570.66,240.47)">
        <path d="M314.711,586.835L334.629,586.835" style="fill:none;fill-rule:nonzero;stroke:black;stroke-width:0.72px;"/>
    </g>
    <g transform="matrix(-1.15491,0.666297,0.666297,1.15491,171.433,-534.062)">
        <path d="M252.696,549.525L267.404,549.525" style="fill:none;fill-rule:nonzero;stroke:black;stroke-width:0.72px;"/>
    </g>
    <g transform="matrix(0.052706,1.33229,1.33229,-0.052706,-500.257,-139.491)">
        <path d="M291.463,582.22L309.677,582.22" style="fill:none;fill-rule:nonzero;stroke:black;stroke-width:0.72px;"/>
    </g>
    <g transform="matrix(1.12732,0.711991,0.711991,-1.12732,-450.503,669.755)">
        <path d="M299.524,568.26L317.726,568.26" style="fill:none;fill-rule:nonzero;stroke:black;stroke-width:0.72px;"/>
    </g>
    <g transform="matrix(-0.89199,0.991026,0.991026,0.89199,43.5748,-583.749)">
        <path d="M313.022,570.805L332.948,570.805" style="fill:none;fill-rule:nonzero;stroke:black;stroke-width:0.72px;"/>
    </g>
    <g transform="matrix(-0.891902,0.991105,0.991105,0.891902,35.909,-586.85)">
        <path d="M313.469,573.245L327.851,573.245" style="fill:none;fill-rule:nonzero;stroke:black;stroke-width:0.72px;"/>
    </g>
    <g transform="matrix(1.07223,0.792521,0.792521,-1.07223,-450.107,544.747)">
        <path d="M390.78,560.89L405.08,560.89" style="fill:none;fill-rule:nonzero;stroke:black;stroke-width:0.72px;"/>
    </g>
    <g transform="matrix(-1.0848,0.775239,0.775239,1.0848,467.604,-673.277)">
        <path d="M410.935,560.56L425.795,560.56" style="fill:none;fill-rule:nonzero;stroke:black;stroke-width:0.72px;"/>
    </g>
    <g transform="matrix(-0.42244,1.26464,1.26464,0.42244,-142.015,-502.236)">
        <path d="M385.377,574.585L405.293,574.585" style="fill:none;fill-rule:nonzero;stroke:black;stroke-width:0.72px;"/>
    </g>
    <g transform="matrix(-0.422174,1.26473,1.26473,0.422174,-135.233,-504.277)">
        <path d="M391.067,573.52L405.973,573.52" style="fill:none;fill-rule:nonzero;stroke:black;stroke-width:0.72px;"/>
    </g>
    <g transform="matrix(0.401701,1.27138,1.27138,-0.401701,-447.14,-64.3173)">
        <path d="M411.452,574.375L431.368,574.375" style="fill:none;fill-rule:nonzero;stroke:black;stroke-width:0.72px;"/>
    </g>
    <g transform="matrix(0.401723,1.27138,1.27138,-0.401723,-448.847,-59.2861)">
        <path d="M410.754,573.365L425.656,573.365" style="fill:none;fill-rule:nonzero;stroke:black;stroke-width:0.72px;"/>
    </g>
    <g transform="matrix(-1.33329,-0.0107092,-0.0107092,1.33329,985.947,-546.238)">
        <path d="M398.49,583.95L418.41,583.95" style="fill:none;fill-rule:nonzero;stroke:black;stroke-width:0.72px;"/>
    </g>
    <g transform="matrix(1.26471,0.422239,0.422239,-1.26471,-316.898,784.823)">
        <path d="M423.897,561.725L443.823,561.725" style="fill:none;fill-rule:nonzero;stroke:black;stroke-width:0.72px;"/>
    </g>
    <g transform="matrix(0.997985,-0.884197,-0.884197,-0.997985,541.401,1215.6)">
        <path d="M440.805,565.175L460.725,565.175" style="fill:none;fill-rule:nonzero;stroke:black;stroke-width:0.72px;"/>
    </g>
    <g transform="matrix(0.998035,-0.884141,-0.884141,-0.998035,543.521,1213.15)">
        <path d="M440.024,568.245L458.286,568.245" style="fill:none;fill-rule:nonzero;stroke:black;stroke-width:0.72px;"/>
    </g>
    <g transform="matrix(1.26484,0.421838,0.421838,-1.26484,-317.329,770.339)">
        <path d="M457.709,568.63L477.621,568.63" style="fill:none;fill-rule:nonzero;stroke:black;stroke-width:0.72px;"/>
    </g>
    <g transform="matrix(0.997985,-0.884197,-0.884197,-0.997985,558.845,1243.17)">
        <path d="M474.605,572.085L494.525,572.085" style="fill:none;fill-rule:nonzero;stroke:black;stroke-width:0.72px;"/>
    </g>
    <g transform="matrix(1.26471,0.422239,0.422239,-1.26471,-318.09,755.327)">
        <path d="M491.507,575.535L511.433,575.535" style="fill:none;fill-rule:nonzero;stroke:black;stroke-width:0.72px;"/>
    </g>
    <g transform="matrix(0.267033,1.30632,1.30632,-0.267033,-303.021,-263.063)">
        <path d="M503.54,565.02L517.87,565.02" style="fill:none;fill-rule:nonzero;stroke:black;stroke-width:0.72px;"/>
    </g>
    <g transform="matrix(0.267118,1.3063,1.3063,-0.267118,-299.916,-267.757)">
        <path d="M506.553,565.36L521.577,565.36" style="fill:none;fill-rule:nonzero;stroke:black;stroke-width:0.72px;"/>
    </g>
    <g transform="matrix(0.997659,-0.884564,-0.884564,-0.997659,573.853,1269.27)">
        <path d="M509.258,576.76L522.462,576.76" style="fill:none;fill-rule:nonzero;stroke:black;stroke-width:0.72px;"/>
    </g>
    <g transform="matrix(-1.07962,0.782437,0.782437,1.07962,-14.9574,-151.464)">
        <path d="M166.305,422.765L186.225,422.765" style="fill:none;fill-rule:nonzero;stroke:black;stroke-width:0.72px;"/>
    </g>
    <g transform="matrix(-0.410979,-1.26841,-1.26841,0.410979,706.068,513.092)">
        <path d="M161.31,407.445L181.23,407.445" style="fill:none;fill-rule:nonzero;stroke:black;stroke-width:0.72px;"/>
    </g>
    <g transform="matrix(-1.0782,-0.784388,-0.784388,1.0782,686.054,137.992)">
        <path d="M182.424,422.75L202.346,422.75" style="fill:none;fill-rule:nonzero;stroke:black;stroke-width:0.72px;"/>
    </g>
    <g transform="matrix(-1.33333,-0.00133802,-0.00133802,1.33333,382.523,-54.4172)">
        <path d="M174.34,397.96L194.27,397.96" style="fill:none;fill-rule:nonzero;stroke:black;stroke-width:0.72px;"/>
    </g>
    <g transform="matrix(0.412993,-1.26776,-1.26776,-0.412993,588.656,881.796)">
        <path d="M187.395,407.42L207.315,407.42" style="fill:none;fill-rule:nonzero;stroke:black;stroke-width:0.72px;"/>
    </g>
    <g transform="matrix(-1.26776,-0.412993,-0.412993,1.26776,476.842,-20.3552)">
        <path d="M148.77,420.005L168.69,420.005" style="fill:none;fill-rule:nonzero;stroke:black;stroke-width:0.72px;"/>
    </g>
    <g transform="matrix(-0.991358,0.89162,0.89162,0.991358,-151.017,-87.9895)">
        <path d="M131.896,416.43L151.814,416.43" style="fill:none;fill-rule:nonzero;stroke:black;stroke-width:0.72px;"/>
    </g>
    <g transform="matrix(-0.991494,0.891469,0.891469,0.991494,-157.436,-93.6784)">
        <path d="M131.099,419.485L149.361,419.485" style="fill:none;fill-rule:nonzero;stroke:black;stroke-width:0.72px;"/>
    </g>
    <g transform="matrix(-1.26756,-0.413598,-0.413598,1.26756,386.329,-15.5518)">
        <path d="M115.019,412.86L134.941,412.86" style="fill:none;fill-rule:nonzero;stroke:black;stroke-width:0.72px;"/>
    </g>
    <g transform="matrix(-0.991581,0.891373,0.891373,0.991581,-219.62,-47.9598)">
        <path d="M103.33,411.28L117.3,411.28" style="fill:none;fill-rule:nonzero;stroke:black;stroke-width:0.72px;"/>
    </g>
    <g transform="matrix(-1.33333,0,0,1.33333,382.111,-185.997)">
        <path d="M182.67,447.21L186.03,447.21" style="fill:none;fill-rule:nonzero;stroke:black;stroke-width:0.72px;"/>
    </g>
    <g transform="matrix(-1.33333,0,0,1.33333,382.098,-178.957)">
        <path d="M182.9,444.57L185.79,444.57" style="fill:none;fill-rule:nonzero;stroke:black;stroke-width:0.72px;"/>
    </g>
    <g transform="matrix(-1.33333,0,0,1.33333,382.098,-171.917)">
        <path d="M183.14,441.93L185.55,441.93" style="fill:none;fill-rule:nonzero;stroke:black;stroke-width:0.72px;"/>
    </g>
    <g transform="matrix(-1.33333,0,0,1.33333,382.071,-164.877)">
        <path d="M183.37,439.29L185.3,439.29" style="fill:none;fill-rule:nonzero;stroke:black;stroke-width:0.72px;"/>
    </g>
    <g transform="matrix(-1.33333,0,0,1.33333,382.071,-157.837)">
        <path d="M183.61,436.65L185.06,436.65" style="fill:none;fill-rule:nonzero;stroke:black;stroke-width:0.72px;"/>
    </g>
    <g transform="matrix(-1.33333,0,0,1.33333,382.071,-150.797)">
        <path d="M183.85,434.01L184.82,434.01" style="fill:none;fill-rule:nonzero;stroke:black;stroke-width:0.72px;"/>
    </g>
    <g transform="matrix(-1.33333,0,0,1.33333,382.058,-143.757)">
        <path d="M184.08,431.37L184.58,431.37" style="fill:none;fill-rule:nonzero;stroke:black;stroke-width:0.72px;"/>
    </g>
    <g transform="matrix(-1.33333,0,0,1.33333,382.058,-136.717)">
        <path d="M184.32,428.73L184.34,428.73" style="fill:none;fill-rule:nonzero;stroke:black;stroke-width:0.72px;"/>
    </g>
    <g transform="matrix(1.15514,-0.66591,-0.66591,-1.15514,226.893,1054.26)">
        <path d="M183.019,453.505L202.941,453.505" style="fill:none;fill-rule:nonzero;stroke:black;stroke-width:0.72px;"/>
    </g>
    <g transform="matrix(1.15393,0.667996,0.667996,-1.15393,-374.703,784.773)">
        <path d="M200.27,453.49L220.19,453.49" style="fill:none;fill-rule:nonzero;stroke:black;stroke-width:0.72px;"/>
    </g>
    <g transform="matrix(0.000900292,-1.33333,-1.33333,-0.000900292,782.555,656.875)">
        <path d="M195.89,465.875L210.7,465.875" style="fill:none;fill-rule:nonzero;stroke:black;stroke-width:0.72px;"/>
    </g>
    <g transform="matrix(0.000900901,-1.33333,-1.33333,-0.000900901,778.084,652.389)">
        <path d="M192.535,465.88L207.335,465.88" style="fill:none;fill-rule:nonzero;stroke:black;stroke-width:0.72px;"/>
    </g>
    <g transform="matrix(1.15514,-0.66591,-0.66591,-1.15514,233.021,1077.24)">
        <path d="M217.519,453.475L237.441,453.475" style="fill:none;fill-rule:nonzero;stroke:black;stroke-width:0.72px;"/>
    </g>
    <g transform="matrix(1.15545,-0.665369,-0.665369,-1.15545,230.66,1078.49)">
        <path d="M219.312,450.145L237.568,450.145" style="fill:none;fill-rule:nonzero;stroke:black;stroke-width:0.72px;"/>
    </g>
    <g transform="matrix(1.15393,0.667996,0.667996,-1.15393,-368.493,761.733)">
        <path d="M234.77,453.46L254.69,453.46" style="fill:none;fill-rule:nonzero;stroke:black;stroke-width:0.72px;"/>
    </g>
    <g transform="matrix(1.15546,-0.66535,-0.66535,-1.15546,237.423,1098.83)">
        <path d="M252.401,452.02L266.629,452.02" style="fill:none;fill-rule:nonzero;stroke:black;stroke-width:0.72px;"/>
    </g>
    <g transform="matrix(-0.00090151,1.33333,1.33333,0.00090151,-361.809,82.5117)">
        <path d="M244.27,441.075L259.06,441.075" style="fill:none;fill-rule:nonzero;stroke:black;stroke-width:0.72px;"/>
    </g>
    <g transform="matrix(-0.00090151,1.33333,1.33333,0.00090151,-357.326,78.0317)">
        <path d="M247.63,441.075L262.42,441.075" style="fill:none;fill-rule:nonzero;stroke:black;stroke-width:0.72px;"/>
    </g>
    <g transform="matrix(1.15468,0.666702,0.666702,-1.15468,-316.127,654.338)">
        <path d="M405.466,421.26L425.384,421.26" style="fill:none;fill-rule:nonzero;stroke:black;stroke-width:0.72px;"/>
    </g>
    <g transform="matrix(1.15468,-0.666702,-0.666702,-1.15468,242.501,1196.77)">
        <path d="M388.216,421.26L408.134,421.26" style="fill:none;fill-rule:nonzero;stroke:black;stroke-width:0.72px;"/>
    </g>
    <g transform="matrix(0,-1.33333,-1.33333,0,955.111,980.763)">
        <path d="M382.17,408.9L396.93,408.9" style="fill:none;fill-rule:nonzero;stroke:black;stroke-width:0.72px;"/>
    </g>
    <g transform="matrix(0,-1.33333,-1.33333,0,1049.36,1075.02)">
        <path d="M452.86,408.9L467.62,408.9" style="fill:none;fill-rule:nonzero;stroke:black;stroke-width:0.72px;"/>
    </g>
    <g transform="matrix(0,-1.33333,-1.33333,0,1044.88,1070.54)">
        <path d="M449.5,408.9L464.26,408.9" style="fill:none;fill-rule:nonzero;stroke:black;stroke-width:0.72px;"/>
    </g>
    <g transform="matrix(1.15485,0.666412,0.666412,-1.15485,-309.916,631.535)">
        <path d="M439.966,421.26L459.894,421.26" style="fill:none;fill-rule:nonzero;stroke:black;stroke-width:0.72px;"/>
    </g>
    <g transform="matrix(1.15468,-0.666702,-0.666702,-1.15468,248.665,1219.77)">
        <path d="M422.716,421.26L442.634,421.26" style="fill:none;fill-rule:nonzero;stroke:black;stroke-width:0.72px;"/>
    </g>
    <g transform="matrix(-1.15475,-0.666584,-0.666584,1.15475,1123.82,217.086)">
        <path d="M375.814,419.96L390.536,419.96" style="fill:none;fill-rule:nonzero;stroke:black;stroke-width:0.72px;"/>
    </g>
    <g transform="matrix(0,-1.33333,-1.33333,0,1013.39,972.963)">
        <path d="M401.04,433.68L415.92,433.68" style="fill:none;fill-rule:nonzero;stroke:black;stroke-width:0.72px;"/>
    </g>
    <g transform="matrix(0,-1.33333,-1.33333,0,1008.91,968.483)">
        <path d="M397.68,433.68L412.56,433.68" style="fill:none;fill-rule:nonzero;stroke:black;stroke-width:0.72px;"/>
    </g>
    <g transform="matrix(1.15468,-0.666702,-0.666702,-1.15468,254.83,1242.78)">
        <path d="M457.226,421.26L477.144,421.26" style="fill:none;fill-rule:nonzero;stroke:black;stroke-width:0.72px;"/>
    </g>
    <g transform="matrix(1.15465,0.666746,0.666746,-1.15465,-305.117,609.61)">
        <path d="M474.836,422.605L489.374,422.605" style="fill:none;fill-rule:nonzero;stroke:black;stroke-width:0.72px;"/>
    </g>
    <g transform="matrix(0,-1.33333,-1.33333,0,1103.16,1062.74)">
        <path d="M468.37,433.68L483.25,433.68" style="fill:none;fill-rule:nonzero;stroke:black;stroke-width:0.72px;"/>
    </g>
    <g transform="matrix(0,-1.33333,-1.33333,0,636.071,1033.4)">
        <path d="M279.69,269.52L299.61,269.52" style="fill:none;fill-rule:nonzero;stroke:black;stroke-width:0.72px;"/>
    </g>
    <g transform="matrix(1.15468,0.666702,0.666702,-1.15468,-248.933,768.383)">
        <path d="M271.066,284.46L290.984,284.46" style="fill:none;fill-rule:nonzero;stroke:black;stroke-width:0.72px;"/>
    </g>
    <g transform="matrix(1.15468,-0.666702,-0.666702,-1.15468,110.446,1148.44)">
        <path d="M271.066,254.58L290.984,254.58" style="fill:none;fill-rule:nonzero;stroke:black;stroke-width:0.72px;"/>
    </g>
    <g transform="matrix(1.15468,-0.666702,-0.666702,-1.15468,127.285,1131.6)">
        <path d="M253.816,284.46L273.734,284.46" style="fill:none;fill-rule:nonzero;stroke:black;stroke-width:0.72px;"/>
    </g>
    <g transform="matrix(1.15468,0.666702,0.666702,-1.15468,-232.094,785.222)">
        <path d="M253.816,254.58L273.734,254.58" style="fill:none;fill-rule:nonzero;stroke:black;stroke-width:0.72px;"/>
    </g>
    <g transform="matrix(0,-1.33333,-1.33333,0,590.071,987.403)">
        <path d="M245.19,269.52L265.11,269.52" style="fill:none;fill-rule:nonzero;stroke:black;stroke-width:0.72px;"/>
    </g>
    <g transform="matrix(0,-1.33333,-1.33333,0,649.391,974.083)">
        <path d="M265.08,296.76L279.72,296.76" style="fill:none;fill-rule:nonzero;stroke:black;stroke-width:0.72px;"/>
    </g>
    <g transform="matrix(1.15468,-0.666702,-0.666702,-1.15468,133.449,1154.6)">
        <path d="M288.316,284.46L308.234,284.46" style="fill:none;fill-rule:nonzero;stroke:black;stroke-width:0.72px;"/>
    </g>
    <g transform="matrix(1.15468,-0.666702,-0.666702,-1.15468,143.171,1164.32)">
        <path d="M305.566,294.42L325.484,294.42" style="fill:none;fill-rule:nonzero;stroke:black;stroke-width:0.72px;"/>
    </g>
    <g transform="matrix(0,-1.33333,-1.33333,0,733.991,1031.96)">
        <path d="M318.45,306.78L333.21,306.78" style="fill:none;fill-rule:nonzero;stroke:black;stroke-width:0.72px;"/>
    </g>
    <g transform="matrix(0,-1.33333,-1.33333,0,729.511,1027.48)">
        <path d="M315.09,306.78L329.85,306.78" style="fill:none;fill-rule:nonzero;stroke:black;stroke-width:0.72px;"/>
    </g>
    <g transform="matrix(-0.174553,-1.32186,-1.32186,0.174553,744.637,962.675)">
        <path d="M298.002,297.24L313.738,297.24" style="fill:none;fill-rule:nonzero;stroke:black;stroke-width:0.72px;"/>
    </g>
    <g transform="matrix(0.666796,1.15463,1.15463,-0.666796,-229.886,459.284)">
        <path d="M303.436,283.44L317.294,283.44" style="fill:none;fill-rule:nonzero;stroke:black;stroke-width:0.72px;"/>
    </g>
    <g transform="matrix(-1.15496,0.66621,0.66621,1.15496,565.618,40.4914)">
        <path d="M345.727,294.495L354.593,294.495" style="fill:none;fill-rule:nonzero;stroke:black;stroke-width:0.72px;"/>
    </g>
    <g transform="matrix(1.15465,0.666756,0.666756,-1.15465,-247.72,733.461)">
        <path d="M323.196,295.84L337.434,295.84" style="fill:none;fill-rule:nonzero;stroke:black;stroke-width:0.72px;"/>
    </g>
    <g transform="matrix(0,-1.33333,-1.33333,0,969.631,251.443)">
        <path d="M111.54,687.84L131.46,687.84" style="fill:none;fill-rule:nonzero;stroke:black;stroke-width:0.72px;"/>
    </g>
    <g transform="matrix(1.15468,0.666702,0.666702,-1.15468,-557.868,805.755)">
        <path d="M102.916,702.78L122.834,702.78" style="fill:none;fill-rule:nonzero;stroke:black;stroke-width:0.72px;"/>
    </g>
    <g transform="matrix(1.15468,-0.666702,-0.666702,-1.15468,359.3,961.601)">
        <path d="M102.916,672.9L122.834,672.9" style="fill:none;fill-rule:nonzero;stroke:black;stroke-width:0.72px;"/>
    </g>
    <g transform="matrix(1.15468,-0.666702,-0.666702,-1.15468,376.14,944.762)">
        <path d="M85.666,702.78L105.584,702.78" style="fill:none;fill-rule:nonzero;stroke:black;stroke-width:0.72px;"/>
    </g>
    <g transform="matrix(1.15468,0.666702,0.666702,-1.15468,-541.029,822.593)">
        <path d="M85.666,672.9L105.584,672.9" style="fill:none;fill-rule:nonzero;stroke:black;stroke-width:0.72px;"/>
    </g>
    <g transform="matrix(0,-1.33333,-1.33333,0,923.631,205.443)">
        <path d="M77.04,687.84L96.96,687.84" style="fill:none;fill-rule:nonzero;stroke:black;stroke-width:0.72px;"/>
    </g>
    <g transform="matrix(0,-1.33333,-1.33333,0,985.351,194.203)">
        <path d="M98.49,715.2L113.37,715.2" style="fill:none;fill-rule:nonzero;stroke:black;stroke-width:0.72px;"/>
    </g>
    <g transform="matrix(0,-1.33333,-1.33333,0,980.871,189.723)">
        <path d="M95.13,715.2L110.01,715.2" style="fill:none;fill-rule:nonzero;stroke:black;stroke-width:0.72px;"/>
    </g>
    <g transform="matrix(0,1.33333,1.33333,0,-835.436,-181.411)">
        <path d="M163.3,717.72L183.22,717.72" style="fill:none;fill-rule:nonzero;stroke:black;stroke-width:0.72px;"/>
    </g>
    <g transform="matrix(1.15468,-0.666702,-0.666702,-1.15468,388.469,990.771)">
        <path d="M154.676,702.78L174.594,702.78" style="fill:none;fill-rule:nonzero;stroke:black;stroke-width:0.72px;"/>
    </g>
    <g transform="matrix(1.15468,0.666702,0.666702,-1.15468,-568.542,765.908)">
        <path d="M154.676,732.66L174.594,732.66" style="fill:none;fill-rule:nonzero;stroke:black;stroke-width:0.72px;"/>
    </g>
    <g transform="matrix(1.15485,0.666412,0.666412,-1.15485,-551.525,782.91)">
        <path d="M137.416,702.78L157.344,702.78" style="fill:none;fill-rule:nonzero;stroke:black;stroke-width:0.72px;"/>
    </g>
    <g transform="matrix(1.15485,-0.666412,-0.666412,-1.15485,405.07,974.009)">
        <path d="M137.416,732.66L157.344,732.66" style="fill:none;fill-rule:nonzero;stroke:black;stroke-width:0.72px;"/>
    </g>
    <g transform="matrix(0,1.33333,1.33333,0,-881.449,-135.397)">
        <path d="M128.79,717.72L148.71,717.72" style="fill:none;fill-rule:nonzero;stroke:black;stroke-width:0.72px;"/>
    </g>
    <g transform="matrix(0,1.33333,1.33333,0,-824.276,-119.771)">
        <path d="M146.95,690.42L161.71,690.42" style="fill:none;fill-rule:nonzero;stroke:black;stroke-width:0.72px;"/>
    </g>
    <g transform="matrix(0,1.33333,1.33333,0,-819.796,-124.251)">
        <path d="M150.31,690.42L165.07,690.42" style="fill:none;fill-rule:nonzero;stroke:black;stroke-width:0.72px;"/>
    </g>
    <g transform="matrix(1.15468,-0.666702,-0.666702,-1.15468,382.303,967.763)">
        <path d="M120.166,702.78L140.084,702.78" style="fill:none;fill-rule:nonzero;stroke:black;stroke-width:0.72px;"/>
    </g>
</svg>
