<?xml version="1.0" encoding="UTF-8" standalone="no"?>
<!DOCTYPE svg PUBLIC "-//W3C//DTD SVG 1.1//EN" "http://www.w3.org/Graphics/SVG/1.1/DTD/svg11.dtd">
<svg width="100%" height="100%" viewBox="0 0 600 310" version="1.1" xmlns="http://www.w3.org/2000/svg" xmlns:xlink="http://www.w3.org/1999/xlink" xml:space="preserve" xmlns:serif="http://www.serif.com/" style="fill-rule:evenodd;clip-rule:evenodd;stroke-linecap:round;stroke-linejoin:round;stroke-miterlimit:10;">
    <g transform="matrix(1.33333,0,0,1.33333,-85.76,-90.4646)">
        <text x="132.96px" y="80.88px" style="font-family:'ArialMT', 'Arial', sans-serif;font-size:10px;">CH</text>
        <text x="147.36px" y="83.52px" style="font-family:'ArialMT', 'Arial', sans-serif;font-size:8px;">2</text>
    </g>
    <g transform="matrix(1.33333,0,0,1.33333,-85.76,-90.4646)">
        <text x="81.12px" y="110.88px" style="font-family:'ArialMT', 'Arial', sans-serif;font-size:10px;">CH</text>
        <text x="95.52px" y="113.52px" style="font-family:'ArialMT', 'Arial', sans-serif;font-size:8px;">2</text>
    </g>
    <g transform="matrix(1.33333,0,0,1.33333,-85.76,-90.4646)">
        <text x="286.08px" y="80.16px" style="font-family:'ArialMT', 'Arial', sans-serif;font-size:10px;">O</text>
    </g>
    <g transform="matrix(1.33333,0,0,1.33333,-85.76,-90.4646)">
        <text x="234.24px" y="110.16px" style="font-family:'ArialMT', 'Arial', sans-serif;font-size:10px;">O</text>
    </g>
    <g transform="matrix(1.33333,0,0,1.33333,-85.76,-90.4646)">
        <text x="404.64px" y="84px" style="font-family:'ArialMT', 'Arial', sans-serif;font-size:10px;">O</text>
        <text x="412.56px" y="77.04px" style="font-family:'ArialMT', 'Arial', sans-serif;font-size:8px;">–</text>
    </g>
    <g transform="matrix(1.33333,0,0,1.33333,-85.76,-90.4646)">
        <text x="443.76px" y="125.52px" style="font-family:'ArialMT', 'Arial', sans-serif;font-size:18px;">+</text>
        <text x="465.6px" y="114px" style="font-family:'ArialMT', 'Arial', sans-serif;font-size:10px;">HC</text>
    </g>
    <g transform="matrix(1.33333,0,0,1.33333,-85.76,-90.4646)">
        <text x="480px" y="107.04px" style="font-family:'ArialMT', 'Arial', sans-serif;font-size:8px;">+</text>
    </g>
    <g transform="matrix(1.33333,0,0,1.33333,-85.76,-90.4646)">
        <text x="489.6px" y="84px" style="font-family:'ArialMT', 'Arial', sans-serif;font-size:10px;">O</text>
    </g>
    <g transform="matrix(1.33333,0,0,1.33333,-85.76,-90.4646)">
        <text x="488.64px" y="239.28px" style="font-family:'ArialMT', 'Arial', sans-serif;font-size:10px;">O</text>
    </g>
    <g transform="matrix(1.33333,0,0,1.33333,-85.76,-90.4646)">
        <text x="449.76px" y="259.44px" style="font-family:'ArialMT', 'Arial', sans-serif;font-size:10px;">Cl</text>
    </g>
    <g transform="matrix(1.33333,0,0,1.33333,-85.76,-90.4646)">
        <text x="270.48px" y="237.84px" style="font-family:'ArialMT', 'Arial', sans-serif;font-size:10px;">O</text>
    </g>
    <g transform="matrix(1.33333,0,0,1.33333,-85.76,-90.4646)">
        <text x="322.32px" y="267.84px" style="font-family:'ArialMT', 'Arial', sans-serif;font-size:10px;">O</text>
    </g>
    <g transform="matrix(1.33333,0,0,1.33333,-85.76,-90.4646)">
        <text x="339.84px" y="257.76px" style="font-family:'ArialMT', 'Arial', sans-serif;font-size:10px;">CH</text>
        <text x="354.24px" y="260.4px" style="font-family:'ArialMT', 'Arial', sans-serif;font-size:8px;">3</text>
    </g>
    <g transform="matrix(1.33333,0,0,1.33333,-85.76,-90.4646)">
        <text x="305.04px" y="237.84px" style="font-family:'ArialMT', 'Arial', sans-serif;font-size:10px;">O</text>
    </g>
    <g transform="matrix(0,-1.33333,-1.33333,0,977.56,241.335)">
        <path d="M92.25,695.28L112.17,695.28" style="fill:none;fill-rule:nonzero;stroke:black;stroke-width:0.72px;"/>
    </g>
    <g transform="matrix(1.15468,0.666702,0.666702,-1.15468,-542.546,842.819)">
        <path d="M83.626,710.22L103.544,710.22" style="fill:none;fill-rule:nonzero;stroke:black;stroke-width:0.72px;"/>
    </g>
    <g transform="matrix(1.15468,-0.666702,-0.666702,-1.15468,384.543,972.944)">
        <path d="M83.626,680.34L103.544,680.34" style="fill:none;fill-rule:nonzero;stroke:black;stroke-width:0.72px;"/>
    </g>
    <g transform="matrix(1.15468,-0.666702,-0.666702,-1.15468,401.383,956.105)">
        <path d="M66.376,710.22L86.294,710.22" style="fill:none;fill-rule:nonzero;stroke:black;stroke-width:0.72px;"/>
    </g>
    <g transform="matrix(1.15468,0.666702,0.666702,-1.15468,-525.707,859.658)">
        <path d="M66.376,680.34L86.294,680.34" style="fill:none;fill-rule:nonzero;stroke:black;stroke-width:0.72px;"/>
    </g>
    <g transform="matrix(0,-1.33333,-1.33333,0,931.56,195.335)">
        <path d="M57.75,695.28L77.67,695.28" style="fill:none;fill-rule:nonzero;stroke:black;stroke-width:0.72px;"/>
    </g>
    <g transform="matrix(1.15468,-0.666702,-0.666702,-1.15468,407.546,979.106)">
        <path d="M100.876,710.22L120.794,710.22" style="fill:none;fill-rule:nonzero;stroke:black;stroke-width:0.72px;"/>
    </g>
    <g transform="matrix(0,-1.33333,-1.33333,0,1086.41,270.509)">
        <path d="M144.01,725.16L163.93,725.16" style="fill:none;fill-rule:nonzero;stroke:black;stroke-width:0.72px;"/>
    </g>
    <g transform="matrix(1.15485,0.666412,0.666412,-1.15485,-553.031,803.141)">
        <path d="M135.376,740.1L155.304,740.1" style="fill:none;fill-rule:nonzero;stroke:black;stroke-width:0.72px;"/>
    </g>
    <g transform="matrix(1.15485,-0.666412,-0.666412,-1.15485,413.481,1002.19)">
        <path d="M135.376,710.22L155.304,710.22" style="fill:none;fill-rule:nonzero;stroke:black;stroke-width:0.72px;"/>
    </g>
    <g transform="matrix(1.15468,-0.666702,-0.666702,-1.15468,430.549,985.269)">
        <path d="M118.126,740.1L138.044,740.1" style="fill:none;fill-rule:nonzero;stroke:black;stroke-width:0.72px;"/>
    </g>
    <g transform="matrix(1.15468,0.666702,0.666702,-1.15468,-536.382,819.818)">
        <path d="M118.126,710.22L138.044,710.22" style="fill:none;fill-rule:nonzero;stroke:black;stroke-width:0.72px;"/>
    </g>
    <g transform="matrix(0,-1.33333,-1.33333,0,1040.4,224.495)">
        <path d="M109.5,725.16L129.42,725.16" style="fill:none;fill-rule:nonzero;stroke:black;stroke-width:0.72px;"/>
    </g>
    <g transform="matrix(0,-1.33333,-1.33333,0,1102.04,213.335)">
        <path d="M131.01,752.46L145.77,752.46" style="fill:none;fill-rule:nonzero;stroke:black;stroke-width:0.72px;"/>
    </g>
    <g transform="matrix(0,-1.33333,-1.33333,0,1097.56,208.855)">
        <path d="M127.65,752.46L142.41,752.46" style="fill:none;fill-rule:nonzero;stroke:black;stroke-width:0.72px;"/>
    </g>
    <g transform="matrix(0,-1.33333,-1.33333,0,993.12,184.255)">
        <path d="M79.32,722.52L93.96,722.52" style="fill:none;fill-rule:nonzero;stroke:black;stroke-width:0.72px;"/>
    </g>
    <g transform="matrix(0,-1.33333,-1.33333,0,988.64,179.775)">
        <path d="M75.96,722.52L90.6,722.52" style="fill:none;fill-rule:nonzero;stroke:black;stroke-width:0.72px;"/>
    </g>
    <g transform="matrix(1.33333,0,0,1.33333,-85.76,-890.465)">
        <path d="M171.36,720.96L205.44,720.96" style="fill:none;fill-rule:nonzero;stroke:black;stroke-width:0.72px;"/>
    </g>
    <g transform="matrix(1.33333,0,0,1.33333,-85.76,-898.145)">
        <path d="M171.36,723.84L205.44,723.84" style="fill:none;fill-rule:nonzero;stroke:black;stroke-width:0.72px;"/>
    </g>
    <g transform="matrix(1.33333,0,0,1.33333,-85.76,-894.305)">
        <path d="M200.88,718.8L208.8,722.4L200.88,726" style="fill:none;fill-rule:nonzero;stroke:black;stroke-width:0.72px;"/>
    </g>
    <g transform="matrix(0,-1.33333,-1.33333,0,1183,444.855)">
        <path d="M245.61,696L265.53,696" style="fill:none;fill-rule:nonzero;stroke:black;stroke-width:0.72px;"/>
    </g>
    <g transform="matrix(1.15468,0.666702,0.666702,-1.15468,-515.628,740.445)">
        <path d="M236.986,710.94L256.904,710.94" style="fill:none;fill-rule:nonzero;stroke:black;stroke-width:0.72px;"/>
    </g>
    <g transform="matrix(1.15468,-0.666702,-0.666702,-1.15468,412.422,1075.06)">
        <path d="M236.986,681.06L256.904,681.06" style="fill:none;fill-rule:nonzero;stroke:black;stroke-width:0.72px;"/>
    </g>
    <g transform="matrix(1.15468,-0.666702,-0.666702,-1.15468,429.261,1058.22)">
        <path d="M219.736,710.94L239.654,710.94" style="fill:none;fill-rule:nonzero;stroke:black;stroke-width:0.72px;"/>
    </g>
    <g transform="matrix(1.15468,0.666702,0.666702,-1.15468,-498.788,757.284)">
        <path d="M219.736,681.06L239.654,681.06" style="fill:none;fill-rule:nonzero;stroke:black;stroke-width:0.72px;"/>
    </g>
    <g transform="matrix(0,-1.33333,-1.33333,0,1137,398.855)">
        <path d="M211.11,696L231.03,696" style="fill:none;fill-rule:nonzero;stroke:black;stroke-width:0.72px;"/>
    </g>
    <g transform="matrix(1.15468,-0.666702,-0.666702,-1.15468,435.425,1081.22)">
        <path d="M254.236,710.94L274.154,710.94" style="fill:none;fill-rule:nonzero;stroke:black;stroke-width:0.72px;"/>
    </g>
    <g transform="matrix(0,-1.33333,-1.33333,0,1291.85,474.029)">
        <path d="M297.37,725.88L317.29,725.88" style="fill:none;fill-rule:nonzero;stroke:black;stroke-width:0.72px;"/>
    </g>
    <g transform="matrix(1.15485,0.666412,0.666412,-1.15485,-526.138,700.812)">
        <path d="M288.736,740.82L308.664,740.82" style="fill:none;fill-rule:nonzero;stroke:black;stroke-width:0.72px;"/>
    </g>
    <g transform="matrix(1.15485,-0.666412,-0.666412,-1.15485,441.333,1104.26)">
        <path d="M288.736,710.94L308.664,710.94" style="fill:none;fill-rule:nonzero;stroke:black;stroke-width:0.72px;"/>
    </g>
    <g transform="matrix(1.15468,-0.666702,-0.666702,-1.15468,458.427,1087.39)">
        <path d="M271.486,740.82L291.404,740.82" style="fill:none;fill-rule:nonzero;stroke:black;stroke-width:0.72px;"/>
    </g>
    <g transform="matrix(1.15468,0.666702,0.666702,-1.15468,-509.464,717.444)">
        <path d="M271.486,710.94L291.404,710.94" style="fill:none;fill-rule:nonzero;stroke:black;stroke-width:0.72px;"/>
    </g>
    <g transform="matrix(0,-1.33333,-1.33333,0,1245.84,428.015)">
        <path d="M262.86,725.88L282.78,725.88" style="fill:none;fill-rule:nonzero;stroke:black;stroke-width:0.72px;"/>
    </g>
    <g transform="matrix(0,-1.33333,-1.33333,0,1307.48,416.855)">
        <path d="M284.37,753.18L299.13,753.18" style="fill:none;fill-rule:nonzero;stroke:black;stroke-width:0.72px;"/>
    </g>
    <g transform="matrix(0,-1.33333,-1.33333,0,1303,412.375)">
        <path d="M281.01,753.18L295.77,753.18" style="fill:none;fill-rule:nonzero;stroke:black;stroke-width:0.72px;"/>
    </g>
    <g transform="matrix(0,-1.33333,-1.33333,0,1198.56,387.775)">
        <path d="M232.68,723.24L247.32,723.24" style="fill:none;fill-rule:nonzero;stroke:black;stroke-width:0.72px;"/>
    </g>
    <g transform="matrix(0,-1.33333,-1.33333,0,1194.08,383.295)">
        <path d="M229.32,723.24L243.96,723.24" style="fill:none;fill-rule:nonzero;stroke:black;stroke-width:0.72px;"/>
    </g>
    <g transform="matrix(1.33333,0,0,1.33333,-85.76,-884.065)">
        <path d="M244.08,723.36L244.8,719.76L245.28,718.8L247.44,715.92L249.36,714.48L250.32,714L251.52,713.52L252.48,713.28L253.68,713.04L254.4,713.04L255.12,712.8L256.08,713.04L257.28,713.04L258.24,713.52L259.44,713.76L260.4,714.24L261.36,714.96L262.08,715.44L262.8,716.4L263.52,717.12L264.24,718.08L265.68,720.96L265.68,722.16L265.92,723.36L265.92,724.32" style="fill:none;fill-rule:nonzero;stroke:black;stroke-width:0.48px;"/>
    </g>
    <g transform="matrix(0,1.33333,1.33333,0,-714.72,-253.185)">
        <path d="M242.04,715.8L250.2,715.8L243,719.88L243.96,717.48L242.04,715.8Z" style="stroke:black;stroke-width:0.48px;"/>
    </g>
    <g transform="matrix(1.33333,0,0,1.33333,-85.76,-906.785)">
        <path d="M235.44,734.16L232.8,734.64L231.6,734.64L230.64,734.4L229.44,733.92L228.48,733.44L227.04,732L226.32,731.04L225.36,729.12L225.12,727.92L225.12,725.28L225.6,723.84L227.04,721.44L228.24,720.48L229.44,719.76L230.16,719.52" style="fill:none;fill-rule:nonzero;stroke:black;stroke-width:0.48px;"/>
    </g>
    <g transform="matrix(1.20021,-0.580748,-0.580748,-1.20021,369.143,1066.24)">
        <path d="M222.935,732.696L231.2,732.696L223.841,729.058L224.886,731.219L222.935,732.696Z" style="stroke:black;stroke-width:0.48px;"/>
    </g>
    <g transform="matrix(1.33333,0,0,1.33333,-85.76,-892.385)">
        <path d="M324.72,721.68L358.8,721.68" style="fill:none;fill-rule:nonzero;stroke:black;stroke-width:0.72px;"/>
    </g>
    <g transform="matrix(1.33333,0,0,1.33333,-85.76,-900.065)">
        <path d="M324.72,724.56L358.8,724.56" style="fill:none;fill-rule:nonzero;stroke:black;stroke-width:0.72px;"/>
    </g>
    <g transform="matrix(1.33333,0,0,1.33333,-85.76,-896.225)">
        <path d="M354.24,719.52L362.16,723.12L354.24,726.72" style="fill:none;fill-rule:nonzero;stroke:black;stroke-width:0.72px;"/>
    </g>
    <g transform="matrix(0,-1.33333,-1.33333,0,1444.76,637.495)">
        <path d="M416.01,721.92L435.93,721.92" style="fill:none;fill-rule:nonzero;stroke:black;stroke-width:0.72px;"/>
    </g>
    <g transform="matrix(1.15468,0.666702,0.666702,-1.15468,-502.466,622.208)">
        <path d="M407.386,736.86L427.304,736.86" style="fill:none;fill-rule:nonzero;stroke:black;stroke-width:0.72px;"/>
    </g>
    <g transform="matrix(1.15458,0.666876,0.666876,-1.15458,-500.912,623.702)">
        <path d="M407.368,733.95L423.962,733.95" style="fill:none;fill-rule:nonzero;stroke:black;stroke-width:0.72px;"/>
    </g>
    <g transform="matrix(1.15468,-0.666702,-0.666702,-1.15468,460.145,1184.04)">
        <path d="M407.386,706.98L427.304,706.98" style="fill:none;fill-rule:nonzero;stroke:black;stroke-width:0.72px;"/>
    </g>
    <g transform="matrix(1.15468,-0.666702,-0.666702,-1.15468,476.984,1167.2)">
        <path d="M390.136,736.86L410.054,736.86" style="fill:none;fill-rule:nonzero;stroke:black;stroke-width:0.72px;"/>
    </g>
    <g transform="matrix(1.15468,0.666702,0.666702,-1.15468,-485.627,639.047)">
        <path d="M390.136,706.98L410.054,706.98" style="fill:none;fill-rule:nonzero;stroke:black;stroke-width:0.72px;"/>
    </g>
    <g transform="matrix(0,-1.33333,-1.33333,0,1398.76,591.495)">
        <path d="M381.51,721.92L401.43,721.92" style="fill:none;fill-rule:nonzero;stroke:black;stroke-width:0.72px;"/>
    </g>
    <g transform="matrix(0,-1.33333,-1.33333,0,1458.24,578.015)">
        <path d="M401.28,749.28L416.16,749.28" style="fill:none;fill-rule:nonzero;stroke:black;stroke-width:0.72px;"/>
    </g>
    <g transform="matrix(0,-1.33333,-1.33333,0,1558.04,750.775)">
        <path d="M500.97,721.92L520.89,721.92" style="fill:none;fill-rule:nonzero;stroke:black;stroke-width:0.72px;"/>
    </g>
    <g transform="matrix(1.15468,0.666702,0.666702,-1.15468,-487.288,565.565)">
        <path d="M492.346,736.86L512.264,736.86" style="fill:none;fill-rule:nonzero;stroke:black;stroke-width:0.72px;"/>
    </g>
    <g transform="matrix(1.15468,-0.666702,-0.666702,-1.15468,475.324,1240.68)">
        <path d="M492.346,706.98L512.264,706.98" style="fill:none;fill-rule:nonzero;stroke:black;stroke-width:0.72px;"/>
    </g>
    <g transform="matrix(1.15477,-0.666542,-0.666542,-1.15477,494.561,1226.39)">
        <path d="M484.889,739.485L494.311,739.485" style="fill:none;fill-rule:nonzero;stroke:black;stroke-width:0.72px;"/>
    </g>
    <g transform="matrix(1.15468,0.666702,0.666702,-1.15468,-470.448,582.404)">
        <path d="M475.096,706.98L495.014,706.98" style="fill:none;fill-rule:nonzero;stroke:black;stroke-width:0.72px;"/>
    </g>
    <g transform="matrix(0,-1.33333,-1.33333,0,1508.6,708.215)">
        <path d="M469.05,719.34L483.81,719.34" style="fill:none;fill-rule:nonzero;stroke:black;stroke-width:0.72px;"/>
    </g>
    <g transform="matrix(0,-1.33333,-1.33333,0,1573.76,693.535)">
        <path d="M487.92,749.28L502.8,749.28" style="fill:none;fill-rule:nonzero;stroke:black;stroke-width:0.72px;"/>
    </g>
    <g transform="matrix(0,-1.33333,-1.33333,0,1569.28,689.055)">
        <path d="M484.56,749.28L499.44,749.28" style="fill:none;fill-rule:nonzero;stroke:black;stroke-width:0.72px;"/>
    </g>
    <g transform="matrix(-0.944994,0.940619,0.940619,0.944994,83.7885,-806.544)">
        <path d="M311.668,663.24L384.812,663.24" style="fill:none;fill-rule:nonzero;stroke:black;stroke-width:0.72px;"/>
    </g>
    <g transform="matrix(-0.944994,0.940619,0.940619,0.944994,89.9689,-803.975)">
        <path d="M313.588,661.32L386.732,661.32" style="fill:none;fill-rule:nonzero;stroke:black;stroke-width:0.72px;"/>
    </g>
    <g transform="matrix(1.33333,0,0,1.33333,-85.76,-669.665)">
        <path d="M329.04,639.12L320.88,642.24L324,634.08" style="fill:none;fill-rule:nonzero;stroke:black;stroke-width:0.72px;"/>
    </g>
    <g transform="matrix(0,1.33333,1.33333,0,-311.04,-509.665)">
        <path d="M468.96,662.64L518.4,662.64" style="fill:none;fill-rule:nonzero;stroke:black;stroke-width:0.72px;"/>
    </g>
    <g transform="matrix(0,1.33333,1.33333,0,-307.2,-513.505)">
        <path d="M471.84,662.64L521.28,662.64" style="fill:none;fill-rule:nonzero;stroke:black;stroke-width:0.72px;"/>
    </g>
    <g transform="matrix(1.33333,0,0,1.33333,-85.76,-670.625)">
        <path d="M498.72,634.56L495.12,642.48L491.52,634.56" style="fill:none;fill-rule:nonzero;stroke:black;stroke-width:0.72px;"/>
    </g>
    <g transform="matrix(0,-1.33333,-1.33333,0,1349.72,956.535)">
        <path d="M500.01,566.64L519.93,566.64" style="fill:none;fill-rule:nonzero;stroke:black;stroke-width:0.72px;"/>
    </g>
    <g transform="matrix(1.15468,0.666702,0.666702,-1.15468,-383.934,593.946)">
        <path d="M491.386,581.58L511.304,581.58" style="fill:none;fill-rule:nonzero;stroke:black;stroke-width:0.72px;"/>
    </g>
    <g transform="matrix(1.15468,-0.666702,-0.666702,-1.15468,371.627,1267.78)">
        <path d="M491.386,551.7L511.304,551.7" style="fill:none;fill-rule:nonzero;stroke:black;stroke-width:0.72px;"/>
    </g>
    <g transform="matrix(1.15468,-0.666702,-0.666702,-1.15468,388.466,1250.94)">
        <path d="M474.136,581.58L494.054,581.58" style="fill:none;fill-rule:nonzero;stroke:black;stroke-width:0.72px;"/>
    </g>
    <g transform="matrix(1.15468,0.666702,0.666702,-1.15468,-367.094,610.785)">
        <path d="M474.136,551.7L494.054,551.7" style="fill:none;fill-rule:nonzero;stroke:black;stroke-width:0.72px;"/>
    </g>
    <g transform="matrix(0,-1.33333,-1.33333,0,1303.72,910.535)">
        <path d="M465.51,566.64L485.43,566.64" style="fill:none;fill-rule:nonzero;stroke:black;stroke-width:0.72px;"/>
    </g>
    <g transform="matrix(0,-1.33333,-1.33333,0,1365.44,899.295)">
        <path d="M486.96,594L501.84,594" style="fill:none;fill-rule:nonzero;stroke:black;stroke-width:0.72px;"/>
    </g>
    <g transform="matrix(0,-1.33333,-1.33333,0,1360.96,894.815)">
        <path d="M483.6,594L498.48,594" style="fill:none;fill-rule:nonzero;stroke:black;stroke-width:0.72px;"/>
    </g>
    <g transform="matrix(-1.1546,-0.666846,-0.666846,1.1546,1465.75,-101.316)">
        <path d="M459.147,580.975L476.643,580.975" style="fill:none;fill-rule:nonzero;stroke:black;stroke-width:0.72px;"/>
    </g>
    <g transform="matrix(0,-1.33333,-1.33333,0,1060.76,663.735)">
        <path d="M281.85,568.08L301.77,568.08" style="fill:none;fill-rule:nonzero;stroke:black;stroke-width:0.72px;"/>
    </g>
    <g transform="matrix(1.15468,0.666702,0.666702,-1.15468,-423.869,739.137)">
        <path d="M273.226,583.02L293.144,583.02" style="fill:none;fill-rule:nonzero;stroke:black;stroke-width:0.72px;"/>
    </g>
    <g transform="matrix(1.15468,-0.666702,-0.666702,-1.15468,333.612,1122.08)">
        <path d="M273.226,553.14L293.144,553.14" style="fill:none;fill-rule:nonzero;stroke:black;stroke-width:0.72px;"/>
    </g>
    <g transform="matrix(1.15468,-0.666702,-0.666702,-1.15468,350.451,1105.24)">
        <path d="M255.976,583.02L275.894,583.02" style="fill:none;fill-rule:nonzero;stroke:black;stroke-width:0.72px;"/>
    </g>
    <g transform="matrix(1.15468,0.666702,0.666702,-1.15468,-407.029,755.976)">
        <path d="M255.976,553.14L275.894,553.14" style="fill:none;fill-rule:nonzero;stroke:black;stroke-width:0.72px;"/>
    </g>
    <g transform="matrix(0,-1.33333,-1.33333,0,1014.76,617.735)">
        <path d="M247.35,568.08L267.27,568.08" style="fill:none;fill-rule:nonzero;stroke:black;stroke-width:0.72px;"/>
    </g>
    <g transform="matrix(0,-1.33333,-1.33333,0,1076.48,606.495)">
        <path d="M268.8,595.44L283.68,595.44" style="fill:none;fill-rule:nonzero;stroke:black;stroke-width:0.72px;"/>
    </g>
    <g transform="matrix(0,-1.33333,-1.33333,0,1072,602.015)">
        <path d="M265.44,595.44L280.32,595.44" style="fill:none;fill-rule:nonzero;stroke:black;stroke-width:0.72px;"/>
    </g>
    <g transform="matrix(1.15468,-0.666702,-0.666702,-1.15468,356.614,1128.24)">
        <path d="M290.476,583.02L310.394,583.02" style="fill:none;fill-rule:nonzero;stroke:black;stroke-width:0.72px;"/>
    </g>
    <g transform="matrix(1.15476,0.666568,0.666568,-1.15476,-419.047,717.618)">
        <path d="M308.109,584.45L322.311,584.45" style="fill:none;fill-rule:nonzero;stroke:black;stroke-width:0.72px;"/>
    </g>
    <g transform="matrix(1.15431,-0.667337,-0.667337,-1.15431,363.33,1151.3)">
        <path d="M330.604,583.08L339.476,583.08" style="fill:none;fill-rule:nonzero;stroke:black;stroke-width:0.72px;"/>
    </g>
    <g transform="matrix(0,-1.33333,-1.33333,0,1122.48,652.495)">
        <path d="M303.3,595.44L318.18,595.44" style="fill:none;fill-rule:nonzero;stroke:black;stroke-width:0.72px;"/>
    </g>
    <g transform="matrix(0,-1.33333,-1.33333,0,1118,648.015)">
        <path d="M299.94,595.44L314.82,595.44" style="fill:none;fill-rule:nonzero;stroke:black;stroke-width:0.72px;"/>
    </g>
</svg>
