<?xml version="1.0" encoding="UTF-8" standalone="no"?>
<!DOCTYPE svg PUBLIC "-//W3C//DTD SVG 1.1//EN" "http://www.w3.org/Graphics/SVG/1.1/DTD/svg11.dtd">
<svg width="100%" height="100%" viewBox="0 0 660 310" version="1.1" xmlns="http://www.w3.org/2000/svg" xmlns:xlink="http://www.w3.org/1999/xlink" xml:space="preserve" xmlns:serif="http://www.serif.com/" style="fill-rule:evenodd;clip-rule:evenodd;stroke-linecap:round;stroke-linejoin:round;stroke-miterlimit:10;">
    <g transform="matrix(0,-1.33333,-1.33333,0,1002.23,197.509)">
        <path d="M92.73,714.24L112.65,714.24" style="fill:none;fill-rule:nonzero;stroke:black;stroke-width:0.72px;"/>
    </g>
    <g transform="matrix(1.15468,0.666702,0.666702,-1.15468,-556.355,819.925)">
        <path d="M84.106,729.18L104.024,729.18" style="fill:none;fill-rule:nonzero;stroke:black;stroke-width:0.72px;"/>
    </g>
    <g transform="matrix(1.15468,-0.666702,-0.666702,-1.15468,396.015,950.69)">
        <path d="M84.106,699.3L104.024,699.3" style="fill:none;fill-rule:nonzero;stroke:black;stroke-width:0.72px;"/>
    </g>
    <g transform="matrix(1.15468,-0.666702,-0.666702,-1.15468,412.855,933.851)">
        <path d="M66.856,729.18L86.774,729.18" style="fill:none;fill-rule:nonzero;stroke:black;stroke-width:0.72px;"/>
    </g>
    <g transform="matrix(1.15468,0.666702,0.666702,-1.15468,-539.516,836.764)">
        <path d="M66.856,699.3L86.774,699.3" style="fill:none;fill-rule:nonzero;stroke:black;stroke-width:0.72px;"/>
    </g>
    <g transform="matrix(0,-1.33333,-1.33333,0,956.225,151.509)">
        <path d="M58.23,714.24L78.15,714.24" style="fill:none;fill-rule:nonzero;stroke:black;stroke-width:0.72px;"/>
    </g>
    <g transform="matrix(0,-1.33333,-1.33333,0,1017.79,140.429)">
        <path d="M79.8,741.48L94.44,741.48" style="fill:none;fill-rule:nonzero;stroke:black;stroke-width:0.72px;"/>
    </g>
    <g transform="matrix(0,-1.33333,-1.33333,0,1013.31,135.949)">
        <path d="M76.44,741.48L91.08,741.48" style="fill:none;fill-rule:nonzero;stroke:black;stroke-width:0.72px;"/>
    </g>
    <g transform="matrix(-1.15487,-0.666381,-0.666381,1.15487,833.86,-644.026)">
        <path d="M174.348,713.835L183.492,713.835" style="fill:none;fill-rule:nonzero;stroke:black;stroke-width:0.72px;"/>
    </g>
    <g transform="matrix(-1.15468,0.666706,0.666706,1.15468,-69.1738,-899.112)">
        <path d="M191.775,715.215L205.875,715.215" style="fill:none;fill-rule:nonzero;stroke:black;stroke-width:0.72px;"/>
    </g>
    <g transform="matrix(1.15487,0.666378,0.666378,-1.15487,-525.94,744.621)">
        <path d="M203.982,715.2L218.148,715.2" style="fill:none;fill-rule:nonzero;stroke:black;stroke-width:0.72px;"/>
    </g>
    <g transform="matrix(1.15431,-0.667337,-0.667337,-1.15431,430.663,1039.2)">
        <path d="M226.444,713.8L235.316,713.8" style="fill:none;fill-rule:nonzero;stroke:black;stroke-width:0.72px;"/>
    </g>
    <g transform="matrix(0,-1.33333,-1.33333,0,1156.59,320.269)">
        <path d="M199.26,726.09L213.96,726.09" style="fill:none;fill-rule:nonzero;stroke:black;stroke-width:0.72px;"/>
    </g>
    <g transform="matrix(0,-1.33333,-1.33333,0,1152.11,315.789)">
        <path d="M195.9,726.09L210.6,726.09" style="fill:none;fill-rule:nonzero;stroke:black;stroke-width:0.72px;"/>
    </g>
    <g transform="matrix(1.33333,0,0,1.33333,-87.0146,-913.491)">
        <path d="M275.52,722.4L319.68,722.4" style="fill:none;fill-rule:nonzero;stroke:black;stroke-width:0.72px;"/>
    </g>
    <g transform="matrix(1.2958,0.314133,0.314133,-1.2958,-302.095,886.617)">
        <path d="M311.419,723.333L319.569,723.333L312.324,719.601L313.271,721.806L311.419,723.333Z" style="stroke:black;stroke-width:0.72px;"/>
    </g>
    <g transform="matrix(0,-1.33333,-1.33333,0,1365.43,560.709)">
        <path d="M365.13,714.24L385.05,714.24" style="fill:none;fill-rule:nonzero;stroke:black;stroke-width:0.72px;"/>
    </g>
    <g transform="matrix(1.15468,0.666702,0.666702,-1.15468,-507.69,638.315)">
        <path d="M356.506,729.18L376.424,729.18" style="fill:none;fill-rule:nonzero;stroke:black;stroke-width:0.72px;"/>
    </g>
    <g transform="matrix(1.15468,-0.666702,-0.666702,-1.15468,444.68,1132.3)">
        <path d="M356.506,699.3L376.424,699.3" style="fill:none;fill-rule:nonzero;stroke:black;stroke-width:0.72px;"/>
    </g>
    <g transform="matrix(1.15468,-0.666702,-0.666702,-1.15468,461.52,1115.46)">
        <path d="M339.256,729.18L359.174,729.18" style="fill:none;fill-rule:nonzero;stroke:black;stroke-width:0.72px;"/>
    </g>
    <g transform="matrix(1.15468,0.666702,0.666702,-1.15468,-490.851,655.154)">
        <path d="M339.256,699.3L359.174,699.3" style="fill:none;fill-rule:nonzero;stroke:black;stroke-width:0.72px;"/>
    </g>
    <g transform="matrix(0,-1.33333,-1.33333,0,1319.43,514.709)">
        <path d="M330.63,714.24L350.55,714.24" style="fill:none;fill-rule:nonzero;stroke:black;stroke-width:0.72px;"/>
    </g>
    <g transform="matrix(0,-1.33333,-1.33333,0,1381.15,503.469)">
        <path d="M352.08,741.6L366.96,741.6" style="fill:none;fill-rule:nonzero;stroke:black;stroke-width:0.72px;"/>
    </g>
    <g transform="matrix(0,-1.33333,-1.33333,0,1376.67,498.989)">
        <path d="M348.72,741.6L363.6,741.6" style="fill:none;fill-rule:nonzero;stroke:black;stroke-width:0.72px;"/>
    </g>
    <g transform="matrix(1.15468,-0.666702,-0.666702,-1.15468,467.683,1138.46)">
        <path d="M373.756,729.18L393.674,729.18" style="fill:none;fill-rule:nonzero;stroke:black;stroke-width:0.72px;"/>
    </g>
    <g transform="matrix(1.15476,0.666568,0.666568,-1.15476,-502.855,616.819)">
        <path d="M391.389,730.61L405.591,730.61" style="fill:none;fill-rule:nonzero;stroke:black;stroke-width:0.72px;"/>
    </g>
    <g transform="matrix(1.15431,-0.667337,-0.667337,-1.15431,474.522,1161.52)">
        <path d="M413.884,729.24L422.756,729.24" style="fill:none;fill-rule:nonzero;stroke:black;stroke-width:0.72px;"/>
    </g>
    <g transform="matrix(0,-1.33333,-1.33333,0,1427.15,549.469)">
        <path d="M386.58,741.6L401.46,741.6" style="fill:none;fill-rule:nonzero;stroke:black;stroke-width:0.72px;"/>
    </g>
    <g transform="matrix(0,-1.33333,-1.33333,0,1422.67,544.989)">
        <path d="M383.22,741.6L398.1,741.6" style="fill:none;fill-rule:nonzero;stroke:black;stroke-width:0.72px;"/>
    </g>
    <g transform="matrix(0,-1.33333,-1.33333,0,1316.79,889.029)">
        <path d="M470.01,572.88L489.93,572.88" style="fill:none;fill-rule:nonzero;stroke:black;stroke-width:0.72px;"/>
    </g>
    <g transform="matrix(1.15468,0.666702,0.666702,-1.15468,-394.708,593.646)">
        <path d="M461.386,587.82L481.304,587.82" style="fill:none;fill-rule:nonzero;stroke:black;stroke-width:0.72px;"/>
    </g>
    <g transform="matrix(1.15468,-0.666702,-0.666702,-1.15468,369.173,1227.48)">
        <path d="M461.386,557.94L481.304,557.94" style="fill:none;fill-rule:nonzero;stroke:black;stroke-width:0.72px;"/>
    </g>
    <g transform="matrix(1.15468,-0.666702,-0.666702,-1.15468,386.012,1210.64)">
        <path d="M444.136,587.82L464.054,587.82" style="fill:none;fill-rule:nonzero;stroke:black;stroke-width:0.72px;"/>
    </g>
    <g transform="matrix(1.15468,0.666702,0.666702,-1.15468,-377.869,610.485)">
        <path d="M444.136,557.94L464.054,557.94" style="fill:none;fill-rule:nonzero;stroke:black;stroke-width:0.72px;"/>
    </g>
    <g transform="matrix(0,-1.33333,-1.33333,0,1270.79,843.029)">
        <path d="M435.51,572.88L455.43,572.88" style="fill:none;fill-rule:nonzero;stroke:black;stroke-width:0.72px;"/>
    </g>
    <g transform="matrix(0,-1.33333,-1.33333,0,1332.51,831.789)">
        <path d="M456.96,600.24L471.84,600.24" style="fill:none;fill-rule:nonzero;stroke:black;stroke-width:0.72px;"/>
    </g>
    <g transform="matrix(0,-1.33333,-1.33333,0,1328.03,827.309)">
        <path d="M453.6,600.24L468.48,600.24" style="fill:none;fill-rule:nonzero;stroke:black;stroke-width:0.72px;"/>
    </g>
    <g transform="matrix(1.15468,-0.666702,-0.666702,-1.15468,392.175,1233.64)">
        <path d="M478.636,587.82L498.554,587.82" style="fill:none;fill-rule:nonzero;stroke:black;stroke-width:0.72px;"/>
    </g>
    <g transform="matrix(1.15476,0.666568,0.666568,-1.15476,-389.9,572.153)">
        <path d="M496.269,589.25L510.471,589.25" style="fill:none;fill-rule:nonzero;stroke:black;stroke-width:0.72px;"/>
    </g>
    <g transform="matrix(0,-1.33333,-1.33333,0,1378.51,877.789)">
        <path d="M491.46,600.24L506.34,600.24" style="fill:none;fill-rule:nonzero;stroke:black;stroke-width:0.72px;"/>
    </g>
    <g transform="matrix(0,-1.33333,-1.33333,0,1374.03,873.309)">
        <path d="M488.1,600.24L502.98,600.24" style="fill:none;fill-rule:nonzero;stroke:black;stroke-width:0.72px;"/>
    </g>
    <g transform="matrix(1.15431,-0.667337,-0.667337,-1.15431,398.963,1256.82)">
        <path d="M518.764,587.88L527.636,587.88" style="fill:none;fill-rule:nonzero;stroke:black;stroke-width:0.72px;"/>
    </g>
    <g transform="matrix(0.881909,1.00001,1.00001,-0.881909,-439.515,265.617)">
        <path d="M475.555,573.06L501.635,573.06" style="fill:none;fill-rule:nonzero;stroke:black;stroke-width:0.72px;"/>
    </g>
    <g transform="matrix(-0.425049,1.26377,1.26377,0.425049,81.78,-585.312)">
        <path d="M484.085,553.84L504.005,553.84" style="fill:none;fill-rule:nonzero;stroke:black;stroke-width:0.72px;"/>
    </g>
    <g transform="matrix(0.882074,0.999862,0.999862,-0.882074,-399.387,273.223)">
        <path d="M487.499,536.93L507.421,536.93" style="fill:none;fill-rule:nonzero;stroke:black;stroke-width:0.72px;"/>
    </g>
    <g transform="matrix(1.307,-0.263676,-0.263676,-1.307,66.6403,1134.4)">
        <path d="M503.853,531.43L523.777,531.43" style="fill:none;fill-rule:nonzero;stroke:black;stroke-width:0.72px;"/>
    </g>
    <g transform="matrix(0.425049,-1.26377,-1.26377,-0.425049,1077.45,1185.55)">
        <path d="M516.795,542.84L536.715,542.84" style="fill:none;fill-rule:nonzero;stroke:black;stroke-width:0.72px;"/>
    </g>
    <g transform="matrix(-0.882074,-0.999862,-0.999862,0.882074,1632.07,296.102)">
        <path d="M513.379,559.75L533.301,559.75" style="fill:none;fill-rule:nonzero;stroke:black;stroke-width:0.72px;"/>
    </g>
    <g transform="matrix(-1.307,0.263676,0.263676,1.307,1102.55,-613.22)">
        <path d="M497.023,565.25L516.947,565.25" style="fill:none;fill-rule:nonzero;stroke:black;stroke-width:0.72px;"/>
    </g>
    <g transform="matrix(-1.30684,0.264459,0.264459,1.30684,1045.09,-552.744)">
        <path d="M476.014,544.595L490.686,544.595" style="fill:none;fill-rule:nonzero;stroke:black;stroke-width:0.72px;"/>
    </g>
    <g transform="matrix(-1.30711,0.263158,0.263158,1.30711,1047.7,-543.475)">
        <path d="M476.009,541.235L491.361,541.235" style="fill:none;fill-rule:nonzero;stroke:black;stroke-width:0.72px;"/>
    </g>
    <g transform="matrix(0.942809,0.942809,0.942809,-0.942809,-544.381,345.89)">
        <path d="M387.388,664.2L477.332,664.2" style="fill:none;fill-rule:nonzero;stroke:black;stroke-width:0.72px;"/>
    </g>
    <g transform="matrix(0.70315,1.13285,1.13285,-0.70315,-517.061,90.3051)">
        <path d="M457.28,637.002L465.472,637.002L458.131,633.366L459.193,635.532L457.28,637.002Z" style="stroke:black;stroke-width:0.72px;"/>
    </g>
    <g transform="matrix(1.33333,0,0,1.33333,-87.0146,-109.651)">
        <text x="81.36px" y="91.92px" style="font-family:'ArialMT', 'Arial', sans-serif;font-size:10px;">O</text>
    </g>
    <g transform="matrix(1.33333,0,0,1.33333,-87.0146,-109.651)">
        <text x="123.84px" y="127.92px" style="font-family:'ArialMT', 'Arial', sans-serif;font-size:18px;">+</text>
    </g>
    <g transform="matrix(1.33333,0,0,1.33333,-87.0146,-109.651)">
        <text x="166.8px" y="127.2px" style="font-family:'ArialMT', 'Arial', sans-serif;font-size:10px;">C</text>
    </g>
    <g transform="matrix(1.33333,0,0,1.33333,-87.0146,-109.651)">
        <text x="155.28px" y="127.2px" style="font-family:'ArialMT', 'Arial', sans-serif;font-size:10px;">H</text>
        <text x="162.48px" y="129.84px" style="font-family:'ArialMT', 'Arial', sans-serif;font-size:8px;">3</text>
        <text x="183.84px" y="137.04px" style="font-family:'ArialMT', 'Arial', sans-serif;font-size:10px;">O</text>
    </g>
    <g transform="matrix(1.33333,0,0,1.33333,-87.0146,-109.651)">
        <text x="218.16px" y="137.04px" style="font-family:'ArialMT', 'Arial', sans-serif;font-size:10px;">O</text>
    </g>
    <g transform="matrix(1.33333,0,0,1.33333,-87.0146,-109.651)">
        <text x="235.68px" y="127.2px" style="font-family:'ArialMT', 'Arial', sans-serif;font-size:10px;">CH</text>
        <text x="250.08px" y="129.84px" style="font-family:'ArialMT', 'Arial', sans-serif;font-size:8px;">3</text>
    </g>
    <g transform="matrix(1.33333,0,0,1.33333,-87.0146,-109.651)">
        <text x="200.88px" y="107.28px" style="font-family:'ArialMT', 'Arial', sans-serif;font-size:10px;">O</text>
    </g>
    <g transform="matrix(1.33333,0,0,1.33333,-87.0146,-109.651)">
        <text x="282.72px" y="114.24px" style="font-family:'ArialMT', 'Arial', sans-serif;font-size:10px;">NaH</text>
    </g>
    <g transform="matrix(1.33333,0,0,1.33333,-87.0146,-109.651)">
        <text x="353.76px" y="91.68px" style="font-family:'ArialMT', 'Arial', sans-serif;font-size:10px;">O</text>
    </g>
    <g transform="matrix(1.33333,0,0,1.33333,-87.0146,-109.651)">
        <text x="405.6px" y="121.68px" style="font-family:'ArialMT', 'Arial', sans-serif;font-size:10px;">O</text>
    </g>
    <g transform="matrix(1.33333,0,0,1.33333,-87.0146,-109.651)">
        <text x="423.12px" y="111.6px" style="font-family:'ArialMT', 'Arial', sans-serif;font-size:10px;">CH</text>
        <text x="437.52px" y="114.24px" style="font-family:'ArialMT', 'Arial', sans-serif;font-size:8px;">3</text>
    </g>
    <g transform="matrix(1.33333,0,0,1.33333,-87.0146,-109.651)">
        <text x="388.32px" y="91.68px" style="font-family:'ArialMT', 'Arial', sans-serif;font-size:10px;">O</text>
    </g>
    <g transform="matrix(1.33333,0,0,1.33333,-87.0146,-109.651)">
        <text x="458.64px" y="233.04px" style="font-family:'ArialMT', 'Arial', sans-serif;font-size:10px;">O</text>
    </g>
    <g transform="matrix(1.33333,0,0,1.33333,-87.0146,-109.651)">
        <text x="510.48px" y="263.04px" style="font-family:'ArialMT', 'Arial', sans-serif;font-size:10px;">O</text>
    </g>
    <g transform="matrix(1.33333,0,0,1.33333,-87.0146,-109.651)">
        <text x="493.2px" y="233.04px" style="font-family:'ArialMT', 'Arial', sans-serif;font-size:10px;">O</text>
    </g>
    <g transform="matrix(1.33333,0,0,1.33333,-87.0146,-109.651)">
        <text x="528px" y="252.96px" style="font-family:'ArialMT', 'Arial', sans-serif;font-size:10px;">CH</text>
        <text x="542.4px" y="255.6px" style="font-family:'ArialMT', 'Arial', sans-serif;font-size:8px;">3</text>
    </g>
    <g transform="matrix(1.33333,0,0,1.33333,-87.0146,-109.651)">
        <text x="467.28px" y="305.52px" style="font-family:'ArialMT', 'Arial', sans-serif;font-size:10px;">O</text>
    </g>
    <g transform="matrix(1.33333,0,0,1.33333,-87.0146,-109.651)">
        <text x="379.68px" y="183.84px" style="font-family:'ArialMT', 'Arial', sans-serif;font-size:10px;">E</text>
        <text x="386.4px" y="183.84px" style="font-family:'ArialMT', 'Arial', sans-serif;font-size:10px;">t<tspan x="389.3px " y="183.84px ">O</tspan></text>
        <text x="397.2px" y="183.84px" style="font-family:'ArialMT', 'Arial', sans-serif;font-size:10px;">Na</text>
    </g>
    <g transform="matrix(1.33333,0,0,1.33333,-87.0146,-109.651)">
        <text x="494.4px" y="146.4px" style="font-family:'ArialMT', 'Arial', sans-serif;font-size:10px;">O</text>
        <text x="494.64px" y="186.48px" style="font-family:'ArialMT', 'Arial', sans-serif;font-size:10px;">Cl</text>
    </g>
    <g transform="matrix(1.33333,0,0,1.33333,-87.0146,-109.651)">
        <text x="389.28px" y="265.92px" style="font-family:'ArialMT', 'Arial', sans-serif;font-size:10px;">H</text>
        <text x="396.48px" y="268.56px" style="font-family:'ArialMT', 'Arial', sans-serif;font-size:6px;">2</text>
        <text x="400.08px" y="265.92px" style="font-family:'ArialMT', 'Arial', sans-serif;font-size:10px;">O</text>
        <text x="393.12px" y="290.88px" style="font-family:'ArialMT', 'Arial', sans-serif;font-size:10px;">H</text>
        <text x="400.32px" y="285.84px" style="font-family:'ArialMT', 'Arial', sans-serif;font-size:6px;">+</text>
    </g>
    <g transform="matrix(1.33333,0,0,1.33333,-87.0146,-109.651)">
        <text x="341.76px" y="278.88px" style="font-family:'ArialMT', 'Arial', sans-serif;font-size:10px;">T<tspan x="348px " y="278.88px ">M</tspan></text>
    </g>
    <g transform="matrix(0,-1.33333,-1.33333,0,1460.47,748.549)">
        <path d="M471.21,679.44L491.13,679.44" style="fill:none;fill-rule:nonzero;stroke:black;stroke-width:0.72px;"/>
    </g>
    <g transform="matrix(1.15468,0.666702,0.666702,-1.15468,-465.538,573.809)">
        <path d="M462.586,694.38L482.504,694.38" style="fill:none;fill-rule:nonzero;stroke:black;stroke-width:0.72px;"/>
    </g>
    <g transform="matrix(1.15468,-0.666702,-0.666702,-1.15468,440.431,1209.24)">
        <path d="M462.586,664.5L482.504,664.5" style="fill:none;fill-rule:nonzero;stroke:black;stroke-width:0.72px;"/>
    </g>
    <g transform="matrix(1.15468,-0.666702,-0.666702,-1.15468,457.27,1192.4)">
        <path d="M445.336,694.38L465.254,694.38" style="fill:none;fill-rule:nonzero;stroke:black;stroke-width:0.72px;"/>
    </g>
    <g transform="matrix(1.15468,0.666702,0.666702,-1.15468,-448.698,590.647)">
        <path d="M445.336,664.5L465.254,664.5" style="fill:none;fill-rule:nonzero;stroke:black;stroke-width:0.72px;"/>
    </g>
    <g transform="matrix(0,-1.33333,-1.33333,0,1414.47,702.549)">
        <path d="M436.71,679.44L456.63,679.44" style="fill:none;fill-rule:nonzero;stroke:black;stroke-width:0.72px;"/>
    </g>
    <g transform="matrix(1.1551,-0.665976,-0.665976,-1.1551,460.267,1214.52)">
        <path d="M481.128,691.245L494.322,691.245" style="fill:none;fill-rule:nonzero;stroke:black;stroke-width:0.72px;"/>
    </g>
    <g transform="matrix(1.15466,-0.666729,-0.666729,-1.15466,463.11,1213.42)">
        <path d="M479.316,694.635L494.454,694.635" style="fill:none;fill-rule:nonzero;stroke:black;stroke-width:0.72px;"/>
    </g>
    <g transform="matrix(1.15481,0.666483,0.666483,-1.15481,-443.787,569.173)">
        <path d="M480.203,665.87L494.647,665.87" style="fill:none;fill-rule:nonzero;stroke:black;stroke-width:0.72px;"/>
    </g>
    <g transform="matrix(-1.33333,0,0,1.33333,975.705,-499.411)">
        <path d="M373.44,567.12L423.6,567.12" style="fill:none;fill-rule:nonzero;stroke:black;stroke-width:0.72px;"/>
    </g>
    <g transform="matrix(-1.2958,-0.314133,-0.314133,1.2958,1083.37,-359.572)">
        <path d="M373.099,568.053L381.249,568.053L374.004,564.321L374.951,566.526L373.099,568.053Z" style="stroke:black;stroke-width:0.72px;"/>
    </g>
</svg>
