<?xml version="1.0" encoding="UTF-8" standalone="no"?>
<!DOCTYPE svg PUBLIC "-//W3C//DTD SVG 1.1//EN" "http://www.w3.org/Graphics/SVG/1.1/DTD/svg11.dtd">
<svg width="100%" height="100%" viewBox="0 0 600 750" version="1.1" xmlns="http://www.w3.org/2000/svg" xmlns:xlink="http://www.w3.org/1999/xlink" xml:space="preserve" xmlns:serif="http://www.serif.com/" style="fill-rule:evenodd;clip-rule:evenodd;stroke-linecap:round;stroke-linejoin:round;stroke-miterlimit:10;">
    <g transform="matrix(1.33333,0,0,1.33333,-63.6417,-135.526)">
        <text x="165.6px" y="140.88px" style="font-family:'ArialMT', 'Arial', sans-serif;font-size:10px;">O</text>
    </g>
    <g transform="matrix(1.33333,0,0,1.33333,-63.6417,-135.526)">
        <text x="63.12px" y="121.44px" style="font-family:'ArialMT', 'Arial', sans-serif;font-size:10px;">C</text>
    </g>
    <g transform="matrix(1.33333,0,0,1.33333,-63.6417,-135.526)">
        <text x="51.6px" y="121.44px" style="font-family:'ArialMT', 'Arial', sans-serif;font-size:10px;">H</text>
        <text x="58.8px" y="124.08px" style="font-family:'ArialMT', 'Arial', sans-serif;font-size:8px;">3</text>
    </g>
    <g transform="matrix(1.33333,0,0,1.33333,-63.6417,-135.526)">
        <text x="200.64px" y="135.36px" style="font-family:'ArialMT', 'Arial', sans-serif;font-size:10px;">O</text>
    </g>
    <g transform="matrix(1.33333,0,0,1.33333,-63.6417,-135.526)">
        <text x="283.92px" y="120.72px" style="font-family:'ArialMT', 'Arial', sans-serif;font-size:10px;">C</text>
    </g>
    <g transform="matrix(1.33333,0,0,1.33333,-63.6417,-135.526)">
        <text x="272.4px" y="120.72px" style="font-family:'ArialMT', 'Arial', sans-serif;font-size:10px;">H</text>
        <text x="279.6px" y="123.36px" style="font-family:'ArialMT', 'Arial', sans-serif;font-size:8px;">3</text>
    </g>
    <g transform="matrix(1.33333,0,0,1.33333,-63.6417,-135.526)">
        <text x="421.44px" y="128.64px" style="font-family:'ArialMT', 'Arial', sans-serif;font-size:10px;">O</text>
    </g>
    <g transform="matrix(1.33333,0,0,1.33333,-63.6417,-135.526)">
        <text x="384.24px" y="142.56px" style="font-family:'ArialMT', 'Arial', sans-serif;font-size:10px;">O<tspan x="392.16px " y="142.56px ">H</tspan></text>
    </g>
    <g transform="matrix(1.33333,0,0,1.33333,-63.6417,-135.526)">
        <text x="411.36px" y="146.16px" style="font-family:'ArialMT', 'Arial', sans-serif;font-size:10px;">O</text>
        <text x="409.92px" y="180.72px" style="font-family:'ArialMT', 'Arial', sans-serif;font-size:10px;">CH</text>
        <text x="424.32px" y="183.36px" style="font-family:'ArialMT', 'Arial', sans-serif;font-size:8px;">3</text>
    </g>
    <g transform="matrix(0.00693324,1.33332,-1.33332,0.00693324,-63.6417,-135.526)">
        <text x="146.3px" y="-386.124px" style="font-family:'ArialMT', 'Arial', sans-serif;font-size:10px;">:</text>
    </g>
    <g transform="matrix(-0.0233344,1.33313,-1.33313,-0.0233344,-63.6417,-135.526)">
        <text x="124.336px" y="-388.155px" style="font-family:'ArialMT', 'Arial', sans-serif;font-size:10px;">:</text>
    </g>
    <g transform="matrix(1.33333,0,0,1.33333,-63.6417,-135.526)">
        <text x="284.64px" y="302.4px" style="font-family:'ArialMT', 'Arial', sans-serif;font-size:10px;">C</text>
    </g>
    <g transform="matrix(1.33333,0,0,1.33333,-63.6417,-135.526)">
        <text x="273.12px" y="302.4px" style="font-family:'ArialMT', 'Arial', sans-serif;font-size:10px;">H</text>
        <text x="280.32px" y="305.04px" style="font-family:'ArialMT', 'Arial', sans-serif;font-size:8px;">3</text>
    </g>
    <g transform="matrix(1.33333,0,0,1.33333,-63.6417,-135.526)">
        <text x="387.84px" y="302.4px" style="font-family:'ArialMT', 'Arial', sans-serif;font-size:10px;">O</text>
        <text x="395.76px" y="295.44px" style="font-family:'ArialMT', 'Arial', sans-serif;font-size:8px;">+</text>
        <text x="388.08px" y="322.32px" style="font-family:'ArialMT', 'Arial', sans-serif;font-size:10px;">H</text>
    </g>
    <g transform="matrix(1.33333,0,0,1.33333,-63.6417,-135.526)">
        <text x="470.88px" y="314.16px" style="font-family:'ArialMT', 'Arial', sans-serif;font-size:10px;">O</text>
        <text x="478.8px" y="307.2px" style="font-family:'ArialMT', 'Arial', sans-serif;font-size:8px;">–</text>
        <text x="444.48px" y="315.84px" style="font-family:'ArialMT', 'Arial', sans-serif;font-size:10px;">O</text>
    </g>
    <g transform="matrix(1.33333,0,0,1.33333,-63.6417,-135.526)">
        <text x="440.4px" y="350.16px" style="font-family:'ArialMT', 'Arial', sans-serif;font-size:10px;">C</text>
    </g>
    <g transform="matrix(1.33333,0,0,1.33333,-63.6417,-135.526)">
        <text x="428.88px" y="350.16px" style="font-family:'ArialMT', 'Arial', sans-serif;font-size:10px;">H</text>
        <text x="436.08px" y="352.8px" style="font-family:'ArialMT', 'Arial', sans-serif;font-size:8px;">3</text>
    </g>
    <g transform="matrix(1.33333,0,0,1.33333,-63.6417,-135.526)">
        <text x="413.76px" y="306.48px" style="font-family:'ArialMT', 'Arial', sans-serif;font-size:18px;">+</text>
    </g>
    <g transform="matrix(1.33333,0,0,1.33333,-63.6417,-135.526)">
        <text x="436.8px" y="467.76px" style="font-family:'ArialMT', 'Arial', sans-serif;font-size:10px;">O</text>
        <text x="444.72px" y="467.76px" style="font-family:'ArialMT', 'Arial', sans-serif;font-size:10px;">S</text>
        <text x="451.44px" y="467.76px" style="font-family:'ArialMT', 'Arial', sans-serif;font-size:10px;">i</text>
        <text x="453.84px" y="467.76px" style="font-family:'ArialMT', 'Arial', sans-serif;font-size:10px;">M</text>
        <text x="462.24px" y="467.76px" style="font-family:'ArialMT', 'Arial', sans-serif;font-size:10px;">e</text>
        <text x="468px" y="470.4px" style="font-family:'ArialMT', 'Arial', sans-serif;font-size:8px;">3</text>
    </g>
    <g transform="matrix(1.33333,0,0,1.33333,-63.6417,-135.526)">
        <text x="408.72px" y="495.6px" style="font-family:'ArialMT', 'Arial', sans-serif;font-size:10px;">O</text>
    </g>
    <g transform="matrix(1.33333,0,0,1.33333,-63.6417,-135.526)">
        <text x="404.64px" y="529.92px" style="font-family:'ArialMT', 'Arial', sans-serif;font-size:10px;">C</text>
    </g>
    <g transform="matrix(1.33333,0,0,1.33333,-63.6417,-135.526)">
        <text x="393.12px" y="529.92px" style="font-family:'ArialMT', 'Arial', sans-serif;font-size:10px;">H</text>
        <text x="400.32px" y="532.56px" style="font-family:'ArialMT', 'Arial', sans-serif;font-size:8px;">3</text>
    </g>
    <g transform="matrix(1.33333,0,0,1.33333,-63.6417,-135.526)">
        <text x="247.68px" y="479.52px" style="font-family:'ArialMT', 'Arial', sans-serif;font-size:10px;">C</text>
    </g>
    <g transform="matrix(1.33333,0,0,1.33333,-63.6417,-135.526)">
        <text x="236.16px" y="479.52px" style="font-family:'ArialMT', 'Arial', sans-serif;font-size:10px;">H</text>
        <text x="243.36px" y="482.16px" style="font-family:'ArialMT', 'Arial', sans-serif;font-size:8px;">2</text>
    </g>
    <g transform="matrix(1.33333,0,0,1.33333,-63.6417,-135.526)">
        <text x="277.2px" y="496.56px" style="font-family:'ArialMT', 'Arial', sans-serif;font-size:10px;">O</text>
    </g>
    <g transform="matrix(1.33333,0,0,1.33333,-63.6417,-135.526)">
        <text x="277.2px" y="462.24px" style="font-family:'ArialMT', 'Arial', sans-serif;font-size:10px;">O</text>
        <text x="285.12px" y="462.24px" style="font-family:'ArialMT', 'Arial', sans-serif;font-size:10px;">S</text>
        <text x="291.84px" y="462.24px" style="font-family:'ArialMT', 'Arial', sans-serif;font-size:10px;">i</text>
        <text x="294.24px" y="462.24px" style="font-family:'ArialMT', 'Arial', sans-serif;font-size:10px;">M</text>
        <text x="302.64px" y="462.24px" style="font-family:'ArialMT', 'Arial', sans-serif;font-size:10px;">e</text>
        <text x="308.4px" y="464.88px" style="font-family:'ArialMT', 'Arial', sans-serif;font-size:8px;">3</text>
    </g>
    <g transform="matrix(1.33333,0,0,1.33333,-63.6417,-135.526)">
        <text x="277.44px" y="531.12px" style="font-family:'ArialMT', 'Arial', sans-serif;font-size:10px;">CH</text>
        <text x="291.84px" y="533.76px" style="font-family:'ArialMT', 'Arial', sans-serif;font-size:8px;">3</text>
    </g>
    <g transform="matrix(1.33333,0,0,1.33333,-63.6417,-135.526)">
        <text x="209.28px" y="484.32px" style="font-family:'ArialMT', 'Arial', sans-serif;font-size:18px;">+</text>
    </g>
    <g transform="matrix(1.33333,0,0,1.33333,-63.6417,-135.526)">
        <text x="178.8px" y="480.72px" style="font-family:'ArialMT', 'Arial', sans-serif;font-size:10px;">C</text>
        <text x="186px" y="480.72px" style="font-family:'ArialMT', 'Arial', sans-serif;font-size:10px;">H</text>
        <text x="193.44px" y="483.36px" style="font-family:'ArialMT', 'Arial', sans-serif;font-size:8px;">2</text>
    </g>
    <g transform="matrix(1.33333,0,0,1.33333,-63.6417,-135.526)">
        <text x="175.2px" y="479.04px" style="font-family:'ArialMT', 'Arial', sans-serif;font-size:10px;">:</text>
    </g>
    <g transform="matrix(1.33333,0,0,1.33333,-63.6417,-135.526)">
        <text x="223.44px" y="658.08px" style="font-family:'ArialMT', 'Arial', sans-serif;font-size:10px;">C</text>
    </g>
    <g transform="matrix(1.33333,0,0,1.33333,-63.6417,-135.526)">
        <text x="211.92px" y="658.08px" style="font-family:'ArialMT', 'Arial', sans-serif;font-size:10px;">H</text>
        <text x="219.12px" y="660.72px" style="font-family:'ArialMT', 'Arial', sans-serif;font-size:8px;">3</text>
    </g>
    <g transform="matrix(1.33333,0,0,1.33333,-63.6417,-135.526)">
        <text x="257.52px" y="658.08px" style="font-family:'ArialMT', 'Arial', sans-serif;font-size:10px;">O</text>
    </g>
    <g transform="matrix(1.33333,0,0,1.33333,-63.6417,-135.526)">
        <text x="240.24px" y="628.32px" style="font-family:'ArialMT', 'Arial', sans-serif;font-size:10px;">O</text>
    </g>
    <g transform="matrix(1.33333,0,0,1.33333,-63.6417,-135.526)">
        <text x="292.32px" y="658.08px" style="font-family:'ArialMT', 'Arial', sans-serif;font-size:10px;">CH</text>
        <text x="306.72px" y="660.72px" style="font-family:'ArialMT', 'Arial', sans-serif;font-size:8px;">3</text>
    </g>
    <g transform="matrix(1.07521,-0.788485,-0.788485,-1.07521,544.719,945.039)">
        <path d="M173.148,712.62L186.912,712.62" style="fill:none;fill-rule:nonzero;stroke:black;stroke-width:0.72px;"/>
    </g>
    <g transform="matrix(0.418223,1.26604,1.26604,-0.418223,-816.013,91.5303)">
        <path d="M172.492,726.15L192.418,726.15" style="fill:none;fill-rule:nonzero;stroke:black;stroke-width:0.72px;"/>
    </g>
    <g transform="matrix(1.08232,0.778694,0.778694,-1.08232,-578.541,684.385)">
        <path d="M152.03,712.485L165.95,712.485" style="fill:none;fill-rule:nonzero;stroke:black;stroke-width:0.72px;"/>
    </g>
    <g transform="matrix(1.33332,-0.00602403,-0.00602403,-1.33332,-59.2083,988.044)">
        <path d="M159.41,735.565L179.33,735.565" style="fill:none;fill-rule:nonzero;stroke:black;stroke-width:0.72px;"/>
    </g>
    <g transform="matrix(-0.406343,1.26991,1.26991,0.406343,-713.596,-474.614)">
        <path d="M146.416,726.035L166.334,726.035" style="fill:none;fill-rule:nonzero;stroke:black;stroke-width:0.72px;"/>
    </g>
    <g transform="matrix(-1.26598,0.418422,0.418422,1.26598,11.8474,-927.585)">
        <path d="M133.927,713.425L153.843,713.425" style="fill:none;fill-rule:nonzero;stroke:black;stroke-width:0.72px;"/>
    </g>
    <g transform="matrix(-0.994809,-0.887768,-0.887768,0.994809,868.493,-569.351)">
        <path d="M117.03,716.935L136.96,716.935" style="fill:none;fill-rule:nonzero;stroke:black;stroke-width:0.72px;"/>
    </g>
    <g transform="matrix(-1.26598,0.418422,0.418422,1.26598,-78.8947,-931.697)">
        <path d="M100.147,720.445L120.063,720.445" style="fill:none;fill-rule:nonzero;stroke:black;stroke-width:0.72px;"/>
    </g>
    <g transform="matrix(-0.994809,-0.887768,-0.887768,0.994809,796.08,-615.683)">
        <path d="M83.25,723.955L103.18,723.955" style="fill:none;fill-rule:nonzero;stroke:black;stroke-width:0.72px;"/>
    </g>
    <g transform="matrix(-1.26604,0.41823,0.41823,1.26604,-164.066,-938.662)">
        <path d="M70.895,728.195L86.165,728.195" style="fill:none;fill-rule:nonzero;stroke:black;stroke-width:0.72px;"/>
    </g>
    <g transform="matrix(1.26986,0.406494,0.406494,-1.26986,-341.159,863.595)">
        <path d="M184.695,712.75L200.045,712.75" style="fill:none;fill-rule:nonzero;stroke:black;stroke-width:0.72px;"/>
    </g>
    <g transform="matrix(1.26987,0.406469,0.406469,-1.26987,-342.479,863.182)">
        <path d="M185.75,716.115L200.02,716.115" style="fill:none;fill-rule:nonzero;stroke:black;stroke-width:0.72px;"/>
    </g>
    <g transform="matrix(1.33333,0,0,1.33333,-63.6417,-935.526)">
        <path d="M220.8,720.96L254.88,720.96" style="fill:none;fill-rule:nonzero;stroke:black;stroke-width:0.72px;"/>
    </g>
    <g transform="matrix(1.33333,0,0,1.33333,-63.6417,-943.206)">
        <path d="M220.8,723.84L254.88,723.84" style="fill:none;fill-rule:nonzero;stroke:black;stroke-width:0.72px;"/>
    </g>
    <g transform="matrix(1.33333,0,0,1.33333,-63.6417,-939.366)">
        <path d="M250.32,718.8L258.24,722.4L250.32,726" style="fill:none;fill-rule:nonzero;stroke:black;stroke-width:0.72px;"/>
    </g>
    <g transform="matrix(0.418223,1.26604,1.26604,-0.418223,-614.868,-188.671)">
        <path d="M393.292,726.87L413.218,726.87" style="fill:none;fill-rule:nonzero;stroke:black;stroke-width:0.72px;"/>
    </g>
    <g transform="matrix(1.33332,-0.00602403,-0.00602403,-1.33332,-59.201,989.374)">
        <path d="M380.21,736.285L400.13,736.285" style="fill:none;fill-rule:nonzero;stroke:black;stroke-width:0.72px;"/>
    </g>
    <g transform="matrix(-0.406343,1.26991,1.26991,0.406343,-330.39,-756.262)">
        <path d="M367.216,726.755L387.134,726.755" style="fill:none;fill-rule:nonzero;stroke:black;stroke-width:0.72px;"/>
    </g>
    <g transform="matrix(-1.26598,0.418422,0.418422,1.26598,585.474,-1021.84)">
        <path d="M354.727,714.145L374.643,714.145" style="fill:none;fill-rule:nonzero;stroke:black;stroke-width:0.72px;"/>
    </g>
    <g transform="matrix(-0.994809,-0.887768,-0.887768,0.994809,1383.19,-375.008)">
        <path d="M337.83,717.655L357.76,717.655" style="fill:none;fill-rule:nonzero;stroke:black;stroke-width:0.72px;"/>
    </g>
    <g transform="matrix(-1.26598,0.418422,0.418422,1.26598,494.732,-1025.96)">
        <path d="M320.947,721.165L340.863,721.165" style="fill:none;fill-rule:nonzero;stroke:black;stroke-width:0.72px;"/>
    </g>
    <g transform="matrix(-0.994809,-0.887768,-0.887768,0.994809,1310.77,-421.34)">
        <path d="M304.05,724.675L323.98,724.675" style="fill:none;fill-rule:nonzero;stroke:black;stroke-width:0.72px;"/>
    </g>
    <g transform="matrix(-1.26604,0.41823,0.41823,1.26604,409.575,-1032.88)">
        <path d="M291.695,728.915L306.965,728.915" style="fill:none;fill-rule:nonzero;stroke:black;stroke-width:0.72px;"/>
    </g>
    <g transform="matrix(1.33332,0.00472475,0.00472475,-1.33332,-67.0198,985.075)">
        <path d="M406.37,715.705L420.48,715.705" style="fill:none;fill-rule:nonzero;stroke:black;stroke-width:0.72px;"/>
    </g>
    <g transform="matrix(1.33332,0.0047281,0.0047281,-1.33332,-67.0381,985.073)">
        <path d="M406.38,719.065L420.48,719.065" style="fill:none;fill-rule:nonzero;stroke:black;stroke-width:0.72px;"/>
    </g>
    <g transform="matrix(0.946944,0.938656,0.938656,-0.946944,-586.33,356.161)">
        <path d="M372.275,712.74L385.145,712.74" style="fill:none;fill-rule:nonzero;stroke:black;stroke-width:0.72px;"/>
    </g>
    <g transform="matrix(0.60273,1.18932,1.18932,-0.60273,-610.202,-19.6246)">
        <path d="M402.531,711.145L416.579,711.145" style="fill:none;fill-rule:nonzero;stroke:black;stroke-width:0.72px;"/>
    </g>
    <g transform="matrix(-0.728005,1.11704,1.11704,0.728005,8.60672,-888.811)">
        <path d="M401.367,688.76L415.213,688.76" style="fill:none;fill-rule:nonzero;stroke:black;stroke-width:0.72px;"/>
    </g>
    <g transform="matrix(0.603049,1.18916,1.18916,-0.603049,-570.529,8.05445)">
        <path d="M400.629,676.64L414.801,676.64" style="fill:none;fill-rule:nonzero;stroke:black;stroke-width:0.72px;"/>
    </g>
    <g transform="matrix(1.33333,0,0,1.33333,-63.6417,-884.646)">
        <path d="M388.56,708.96L387.12,710.16L385.44,711.12L383.76,711.84L381.84,712.32L379.92,712.56L378.72,712.32L377.52,712.32L376.56,712.08L375.6,711.6L374.4,711.12L373.44,710.64L372.72,710.16L371.76,709.44L371.04,708.72L370.32,707.76L369.6,707.04L368.64,705.12L368.16,703.92L367.92,702.96L367.44,700.56L367.44,700.08L367.68,697.92L368.4,695.76L369.36,693.84L370.56,691.92L371.28,691.2" style="fill:none;fill-rule:nonzero;stroke:black;stroke-width:0.48px;"/>
    </g>
    <g transform="matrix(0.96185,-0.923376,-0.923376,-0.96185,727.472,1063.86)">
        <path d="M364.869,709.379L373.187,709.379L365.797,705.494L366.94,707.724L364.869,709.379Z" style="stroke:black;stroke-width:0.48px;"/>
    </g>
    <g transform="matrix(1.33333,0,0,1.33333,-63.6417,-946.726)">
        <path d="M408.48,729.84L408.24,728.4L408.72,726L409.68,724.08L410.4,723.12L411.12,722.4L412.08,721.68L414,720.72L415.2,720.48L417.6,720.48L420,721.44L421.2,722.16L422.16,722.88L422.88,724.08L423.6,725.04L423.84,726.24L424.08,726.96" style="fill:none;fill-rule:nonzero;stroke:black;stroke-width:0.48px;"/>
    </g>
    <g transform="matrix(0.268871,1.30594,1.30594,-0.268871,-565.029,-337.675)">
        <path d="M417.637,729.203L425.969,729.203L418.557,725.338L419.795,727.779L417.637,729.203Z" style="stroke:black;stroke-width:0.48px;"/>
    </g>
    <g transform="matrix(1.33333,0,0,1.33333,-63.6417,-943.206)">
        <path d="M402.72,730.8L399.36,731.76L396,732.48L392.64,732.72L390.24,732.72L388.08,732.48L385.68,732L383.76,731.28L381.6,730.56L377.76,728.64L376.08,727.44L372.72,724.56L369.84,721.2L368.64,719.52L366.72,715.68L366.48,714.96" style="fill:none;fill-rule:nonzero;stroke:black;stroke-width:0.48px;"/>
    </g>
    <g transform="matrix(1.17647,-0.627451,-0.627451,-1.17647,447.492,1125.01)">
        <path d="M394.984,714.734L403.144,714.734L395.944,718.574L396.96,716.4L394.984,714.734Z" style="stroke:black;stroke-width:0.48px;"/>
    </g>
    <g transform="matrix(-1.15468,-0.666702,-0.666702,1.15468,1083.72,-167.911)">
        <path d="M304.246,548.4L324.164,548.4" style="fill:none;fill-rule:nonzero;stroke:black;stroke-width:0.72px;"/>
    </g>
    <g transform="matrix(-1.15468,0.666702,0.666702,1.15468,395.403,-598.374)">
        <path d="M321.496,548.4L341.414,548.4" style="fill:none;fill-rule:nonzero;stroke:black;stroke-width:0.72px;"/>
    </g>
    <g transform="matrix(-1.15468,-0.666702,-0.666702,1.15468,1169.56,-144.91)">
        <path d="M338.746,548.4L358.664,548.4" style="fill:none;fill-rule:nonzero;stroke:black;stroke-width:0.72px;"/>
    </g>
    <g transform="matrix(-1.15468,0.666702,0.666702,1.15468,481.24,-621.376)">
        <path d="M355.996,548.4L375.914,548.4" style="fill:none;fill-rule:nonzero;stroke:black;stroke-width:0.72px;"/>
    </g>
    <g transform="matrix(-1.15464,0.666766,0.666766,1.15464,314.222,-580.072)">
        <path d="M291.811,549.69L306.569,549.69" style="fill:none;fill-rule:nonzero;stroke:black;stroke-width:0.72px;"/>
    </g>
    <g transform="matrix(1.15476,0.666568,0.666568,-1.15476,-362.151,635.065)">
        <path d="M373.629,549.83L387.831,549.83" style="fill:none;fill-rule:nonzero;stroke:black;stroke-width:0.72px;"/>
    </g>
    <g transform="matrix(1.1547,0.666669,0.666669,-1.1547,-359.666,635.756)">
        <path d="M373.37,546.02L387.85,546.02" style="fill:none;fill-rule:nonzero;stroke:black;stroke-width:0.72px;"/>
    </g>
    <g transform="matrix(0,1.33333,1.33333,0,-252.562,-246.766)">
        <path d="M387.03,533.52L396.63,533.52" style="fill:none;fill-rule:nonzero;stroke:black;stroke-width:0.72px;"/>
    </g>
    <g transform="matrix(0.942474,-0.943144,-0.943144,-0.942474,637.911,1191.92)">
        <path d="M438.52,557.985L458.44,557.985" style="fill:none;fill-rule:nonzero;stroke:black;stroke-width:0.72px;"/>
    </g>
    <g transform="matrix(0.345383,1.28782,1.28782,-0.345383,-326.331,-151.635)">
        <path d="M448.14,555.41L468.06,555.41" style="fill:none;fill-rule:nonzero;stroke:black;stroke-width:0.72px;"/>
    </g>
    <g transform="matrix(1.28799,0.344758,0.344758,-1.28799,-232.243,806.663)">
        <path d="M441.101,548.365L461.019,548.365" style="fill:none;fill-rule:nonzero;stroke:black;stroke-width:0.72px;"/>
    </g>
    <g transform="matrix(0.942809,0.942809,0.942809,-0.942809,-392.151,337.005)">
        <path d="M458.766,541.17L471.834,541.17" style="fill:none;fill-rule:nonzero;stroke:black;stroke-width:0.72px;"/>
    </g>
    <g transform="matrix(-0.811305,1.05809,1.05809,0.811305,343.749,-655.279)">
        <path d="M449.948,540.495L463.292,540.495" style="fill:none;fill-rule:nonzero;stroke:black;stroke-width:0.72px;"/>
    </g>
    <g transform="matrix(0.51032,1.23181,1.23181,-0.51032,-328.827,1.99141)">
        <path d="M446.227,518.23L460.623,518.23" style="fill:none;fill-rule:nonzero;stroke:black;stroke-width:0.72px;"/>
    </g>
    <g transform="matrix(-0.811657,1.05782,1.05782,0.811657,370.553,-577.04)">
        <path d="M445.332,506.23L458.818,506.23" style="fill:none;fill-rule:nonzero;stroke:black;stroke-width:0.72px;"/>
    </g>
    <g transform="matrix(0,1.33333,1.33333,0,-83.3217,-163.526)">
        <path d="M403.8,438.84L444.36,438.84" style="fill:none;fill-rule:nonzero;stroke:black;stroke-width:0.72px;"/>
    </g>
    <g transform="matrix(0,1.33333,1.33333,0,-79.4817,-167.366)">
        <path d="M406.68,438.84L447.24,438.84" style="fill:none;fill-rule:nonzero;stroke:black;stroke-width:0.72px;"/>
    </g>
    <g transform="matrix(1.33333,0,0,1.33333,-63.6417,-130.726)">
        <path d="M429.12,415.2L425.52,423.12L421.92,415.2" style="fill:none;fill-rule:nonzero;stroke:black;stroke-width:0.72px;"/>
    </g>
    <g transform="matrix(1.05777,-0.81173,-0.81173,-1.05777,355.475,1234.37)">
        <path d="M423.498,370.22L437.262,370.22" style="fill:none;fill-rule:nonzero;stroke:black;stroke-width:0.72px;"/>
    </g>
    <g transform="matrix(-0.51032,-1.23181,-1.23181,0.51032,1123.32,877.495)">
        <path d="M410.467,338.47L424.863,338.47" style="fill:none;fill-rule:nonzero;stroke:black;stroke-width:0.72px;"/>
    </g>
    <g transform="matrix(-0.811305,1.05809,1.05809,0.811305,457.259,-231.921)">
        <path d="M414.188,360.735L427.532,360.735" style="fill:none;fill-rule:nonzero;stroke:black;stroke-width:0.72px;"/>
    </g>
    <g transform="matrix(-0.811657,1.05782,1.05782,0.811657,484.002,-153.629)">
        <path d="M409.572,326.47L423.058,326.47" style="fill:none;fill-rule:nonzero;stroke:black;stroke-width:0.72px;"/>
    </g>
    <g transform="matrix(-1.28799,-0.344758,-0.344758,1.28799,1152.07,163.979)">
        <path d="M405.341,368.605L425.259,368.605" style="fill:none;fill-rule:nonzero;stroke:black;stroke-width:0.72px;"/>
    </g>
    <g transform="matrix(-0.345383,-1.28782,-1.28782,0.345383,1129.12,900.323)">
        <path d="M412.38,375.65L432.3,375.65" style="fill:none;fill-rule:nonzero;stroke:black;stroke-width:0.72px;"/>
    </g>
    <g transform="matrix(0.942474,-0.943144,-0.943144,-0.942474,454.394,1228.46)">
        <path d="M402.76,378.225L422.68,378.225" style="fill:none;fill-rule:nonzero;stroke:black;stroke-width:0.72px;"/>
    </g>
    <g transform="matrix(0,1.33333,1.33333,0,-312.282,-392.486)">
        <path d="M398.64,610.56L449.52,610.56" style="fill:none;fill-rule:nonzero;stroke:black;stroke-width:0.72px;"/>
    </g>
    <g transform="matrix(0,1.33333,1.33333,0,-308.442,-396.326)">
        <path d="M401.52,610.56L452.4,610.56" style="fill:none;fill-rule:nonzero;stroke:black;stroke-width:0.72px;"/>
    </g>
    <g transform="matrix(1.33333,0,0,1.33333,-63.6417,-574.886)">
        <path d="M429.12,581.76L425.52,589.68L421.92,581.76" style="fill:none;fill-rule:nonzero;stroke:black;stroke-width:0.72px;"/>
    </g>
    <g transform="matrix(-1.33333,0,0,1.33333,864.678,12.3139)">
        <path d="M321.12,365.52L375.12,365.52" style="fill:none;fill-rule:nonzero;stroke:black;stroke-width:0.72px;"/>
    </g>
    <g transform="matrix(-1.33333,0,0,1.33333,864.678,19.9939)">
        <path d="M321.12,362.64L375.12,362.64" style="fill:none;fill-rule:nonzero;stroke:black;stroke-width:0.72px;"/>
    </g>
    <g transform="matrix(1.33333,0,0,1.33333,-63.6417,16.1539)">
        <path d="M325.68,367.68L317.76,364.08L325.68,360.48" style="fill:none;fill-rule:nonzero;stroke:black;stroke-width:0.72px;"/>
    </g>
    <g transform="matrix(1.33333,0,0,1.33333,-63.6417,14.2339)">
        <path d="M255.84,364.8L271.2,364.8" style="fill:none;fill-rule:nonzero;stroke:black;stroke-width:0.72px;"/>
    </g>
    <g transform="matrix(1.33333,0,0,1.33333,-63.6417,5.27391)">
        <path d="M255.84,368.16L271.2,368.16" style="fill:none;fill-rule:nonzero;stroke:black;stroke-width:0.72px;"/>
    </g>
    <g transform="matrix(0.666796,1.15463,1.15463,-0.666796,-296.787,429.625)">
        <path d="M267.736,360.48L281.594,360.48" style="fill:none;fill-rule:nonzero;stroke:black;stroke-width:0.72px;"/>
    </g>
    <g transform="matrix(0.666796,-1.15463,-1.15463,-0.666796,549.508,1055.9)">
        <path d="M267.736,372.48L281.594,372.48" style="fill:none;fill-rule:nonzero;stroke:black;stroke-width:0.72px;"/>
    </g>
    <g transform="matrix(-0.666515,1.15479,1.15479,0.666515,95.3476,-6.29251)">
        <path d="M267.683,338.07L281.747,338.07" style="fill:none;fill-rule:nonzero;stroke:black;stroke-width:0.72px;"/>
    </g>
    <g transform="matrix(0.666462,1.15482,1.15482,-0.666462,-256.879,452.462)">
        <path d="M267.718,325.95L281.642,325.95" style="fill:none;fill-rule:nonzero;stroke:black;stroke-width:0.72px;"/>
    </g>
    <g transform="matrix(1.33333,0,0,1.33333,-63.6417,-10.7261)">
        <path d="M181.44,372.24L187.2,372.24L187.2,372.72L182.88,372.72L182.88,375.6L187.2,375.6L187.2,376.08L181.44,376.08L181.44,372.24Z" style="stroke:black;stroke-width:0.02px;"/>
    </g>
    <g transform="matrix(1.33333,0,0,1.33333,-63.6417,-10.7261)">
        <path d="M190.56,372.24L184.8,372.24L184.8,372.72L189.12,372.72L189.12,375.6L184.8,375.6L184.8,376.08L190.56,376.08L190.56,372.24Z" style="stroke:black;stroke-width:0.02px;"/>
    </g>
    <g transform="matrix(0,1.33333,1.33333,0,-62.8417,285.754)">
        <path d="M238.92,262.68L287.64,262.68" style="fill:none;fill-rule:nonzero;stroke:black;stroke-width:0.72px;"/>
    </g>
    <g transform="matrix(0,1.33333,1.33333,0,-59.0017,281.914)">
        <path d="M241.8,262.68L290.52,262.68" style="fill:none;fill-rule:nonzero;stroke:black;stroke-width:0.72px;"/>
    </g>
    <g transform="matrix(1.33333,0,0,1.33333,-63.6417,349.914)">
        <path d="M268.32,234.96L264.72,242.88L261.12,234.96" style="fill:none;fill-rule:nonzero;stroke:black;stroke-width:0.72px;"/>
    </g>
    <g transform="matrix(-1.15457,0.6669,0.6669,1.15457,398.939,345.609)">
        <path d="M230.618,194.035L245.272,194.035" style="fill:none;fill-rule:nonzero;stroke:black;stroke-width:0.72px;"/>
    </g>
    <g transform="matrix(1.15487,0.666378,0.666378,-1.15487,-148.333,785.505)">
        <path d="M243.342,194.16L257.508,194.16" style="fill:none;fill-rule:nonzero;stroke:black;stroke-width:0.72px;"/>
    </g>
    <g transform="matrix(0,-1.33333,-1.33333,0,537.718,1041.59)">
        <path d="M238.62,205.05L253.32,205.05" style="fill:none;fill-rule:nonzero;stroke:black;stroke-width:0.72px;"/>
    </g>
    <g transform="matrix(0,-1.33333,-1.33333,0,533.238,1037.11)">
        <path d="M235.26,205.05L249.96,205.05" style="fill:none;fill-rule:nonzero;stroke:black;stroke-width:0.72px;"/>
    </g>
    <g transform="matrix(1.15443,-0.66713,-0.66713,-1.15443,114.629,1134.16)">
        <path d="M265.44,194.12L279.75,194.12" style="fill:none;fill-rule:nonzero;stroke:black;stroke-width:0.72px;"/>
    </g>
    <g transform="matrix(1.15499,0.666164,0.666164,-1.15499,-142.086,762.515)">
        <path d="M277.82,194.075L292.33,194.075" style="fill:none;fill-rule:nonzero;stroke:black;stroke-width:0.72px;"/>
    </g>
    <g transform="matrix(1.33333,0,0,1.33333,-63.6417,-44.3261)">
        <path d="M420.48,384.24L420.96,383.52L422.4,382.08L423.36,381.6L424.32,381.36L426.48,381.36L428.4,382.32L429.36,383.04L430.08,384L430.32,384.96L430.56,386.16L430.8,386.64L430.56,387.84L430.08,389.04L429.6,390L428.88,390.96L427.92,391.44L426.72,391.92L426.24,392.16L425.52,392.16" style="fill:none;fill-rule:nonzero;stroke:black;stroke-width:0.48px;"/>
    </g>
    <g transform="matrix(-0.842231,1.03365,1.03365,0.842231,453.767,-305.515)">
        <path d="M420.899,391.59L429.257,391.59L421.987,395.573L423.097,393.071L420.899,391.59Z" style="stroke:black;stroke-width:0.48px;"/>
    </g>
    <g transform="matrix(1.33333,0,0,1.33333,-63.6417,-1.44609)">
        <path d="M413.04,378.48L411.6,379.68L409.68,380.64L407.76,381.12L405.84,381.36L404.64,381.36L403.44,381.12L402.48,380.88L401.52,380.4L400.32,379.92L399.6,379.2L398.64,378.48L397.2,377.04L396.72,376.08L396,375.12L395.76,373.92L395.28,372.96L395.28,371.28L395.04,370.56L395.28,369.6L395.28,368.4L395.76,367.2L396,366.24L396.72,365.28L397.2,364.32L397.92,363.6L398.64,362.64L399.6,362.16L400.32,361.44L401.52,360.96L402.48,360.48L403.44,360.24L404.64,360L405.84,360L408.96,360.48" style="fill:none;fill-rule:nonzero;stroke:black;stroke-width:0.48px;"/>
    </g>
    <g transform="matrix(1.01785,-0.861256,-0.861256,-1.01785,375.638,1225.6)">
        <path d="M405.606,359.62L413.78,359.62L406.465,363.608L407.522,361.142L405.606,359.62Z" style="stroke:black;stroke-width:0.48px;"/>
    </g>
</svg>
