<?xml version="1.0" encoding="UTF-8" standalone="no"?>
<!DOCTYPE svg PUBLIC "-//W3C//DTD SVG 1.1//EN" "http://www.w3.org/Graphics/SVG/1.1/DTD/svg11.dtd">
<svg width="100%" height="100%" viewBox="0 0 670 270" version="1.1" xmlns="http://www.w3.org/2000/svg" xmlns:xlink="http://www.w3.org/1999/xlink" xml:space="preserve" xmlns:serif="http://www.serif.com/" style="fill-rule:evenodd;clip-rule:evenodd;stroke-linecap:round;stroke-linejoin:round;stroke-miterlimit:10;">
    <g transform="matrix(1.33333,0,0,1.33333,-69.6655,-97.7974)">
        <text x="67.92px" y="124.08px" style="font-family:'ArialMT', 'Arial', sans-serif;font-size:10px;">C</text>
    </g>
    <g transform="matrix(1.33333,0,0,1.33333,-69.6655,-97.7974)">
        <text x="56.4px" y="124.08px" style="font-family:'ArialMT', 'Arial', sans-serif;font-size:10px;">H</text>
        <text x="63.6px" y="126.72px" style="font-family:'ArialMT', 'Arial', sans-serif;font-size:8px;">3</text>
    </g>
    <g transform="matrix(1.33333,0,0,1.33333,-69.6655,-97.7974)">
        <text x="171.12px" y="124.08px" style="font-family:'ArialMT', 'Arial', sans-serif;font-size:10px;">O</text>
        <text x="198.48px" y="126.72px" style="font-family:'ArialMT', 'Arial', sans-serif;font-size:18px;">+</text>
    </g>
    <g transform="matrix(1.33333,0,0,1.33333,-69.6655,-97.7974)">
        <text x="259.92px" y="104.16px" style="font-family:'ArialMT', 'Arial', sans-serif;font-size:10px;">O</text>
        <text x="267.84px" y="104.16px" style="font-family:'ArialMT', 'Arial', sans-serif;font-size:10px;">S</text>
        <text x="274.56px" y="104.16px" style="font-family:'ArialMT', 'Arial', sans-serif;font-size:10px;">i</text>
        <text x="276.96px" y="104.16px" style="font-family:'ArialMT', 'Arial', sans-serif;font-size:10px;">M</text>
        <text x="285.36px" y="104.16px" style="font-family:'ArialMT', 'Arial', sans-serif;font-size:10px;">e</text>
        <text x="291.12px" y="106.8px" style="font-family:'ArialMT', 'Arial', sans-serif;font-size:8px;">3</text>
        <text x="257.04px" y="128.16px" style="font-family:'ArialMT', 'Arial', sans-serif;font-size:10px;">O</text>
    </g>
    <g transform="matrix(1.33333,0,0,1.33333,-69.6655,-97.7974)">
        <text x="266.4px" y="161.52px" style="font-family:'ArialMT', 'Arial', sans-serif;font-size:10px;">CH</text>
        <text x="280.8px" y="164.16px" style="font-family:'ArialMT', 'Arial', sans-serif;font-size:8px;">3</text>
    </g>
    <g transform="matrix(1.33333,0,0,1.33333,-69.6655,-97.7974)">
        <text x="322.08px" y="112.32px" style="font-family:'ArialMT', 'Arial', sans-serif;font-size:10px;">T<tspan x="328.027px 330.458px 337.889px " y="112.32px 112.32px 112.32px ">iCl</tspan></text>
        <text x="340.32px" y="114.96px" style="font-family:'ArialMT', 'Arial', sans-serif;font-size:6px;">4</text>
    </g>
    <g transform="matrix(1.33333,0,0,1.33333,-69.6655,-97.7974)">
        <text x="489.84px" y="128.16px" style="font-family:'ArialMT', 'Arial', sans-serif;font-size:10px;">O<tspan x="497.76px " y="128.16px ">H</tspan></text>
    </g>
    <g transform="matrix(1.33333,0,0,1.33333,-69.6655,-97.7974)">
        <text x="532.32px" y="113.28px" style="font-family:'ArialMT', 'Arial', sans-serif;font-size:10px;">O</text>
        <text x="522.24px" y="132.24px" style="font-family:'ArialMT', 'Arial', sans-serif;font-size:10px;">O</text>
    </g>
    <g transform="matrix(1.33333,0,0,1.33333,-69.6655,-97.7974)">
        <text x="519.6px" y="166.56px" style="font-family:'ArialMT', 'Arial', sans-serif;font-size:10px;">CH</text>
        <text x="534px" y="169.2px" style="font-family:'ArialMT', 'Arial', sans-serif;font-size:8px;">3</text>
    </g>
    <g transform="matrix(1.33333,0,0,1.33333,-69.6655,-97.7974)">
        <text x="381.6px" y="85.44px" style="font-family:'ArialMT', 'Arial', sans-serif;font-size:10px;">C</text>
    </g>
    <g transform="matrix(1.33333,0,0,1.33333,-69.6655,-97.7974)">
        <text x="370.08px" y="85.44px" style="font-family:'ArialMT', 'Arial', sans-serif;font-size:10px;">H</text>
        <text x="377.28px" y="88.08px" style="font-family:'ArialMT', 'Arial', sans-serif;font-size:8px;">3</text>
    </g>
    <g transform="matrix(1.33333,0,0,1.33333,-69.6655,-97.7974)">
        <text x="448.8px" y="268.8px" style="font-family:'ArialMT', 'Arial', sans-serif;font-size:10px;">T<tspan x="455.04px " y="268.8px ">M</tspan></text>
    </g>
    <g transform="matrix(1.33333,0,0,1.33333,-69.6655,-97.7974)">
        <text x="460.8px" y="224.16px" style="font-family:'ArialMT', 'Arial', sans-serif;font-size:10px;">t</text>
        <text x="463.68px" y="219.12px" style="font-family:'ArialMT', 'Arial', sans-serif;font-size:6px;">o</text>
    </g>
    <g transform="matrix(-1.15468,-0.666702,-0.666702,1.15468,657.384,-718.333)">
        <path d="M87.526,726.72L107.444,726.72" style="fill:none;fill-rule:nonzero;stroke:black;stroke-width:0.72px;"/>
    </g>
    <g transform="matrix(-1.15468,0.666702,0.666702,1.15468,-268.709,-859.821)">
        <path d="M104.776,726.72L124.694,726.72" style="fill:none;fill-rule:nonzero;stroke:black;stroke-width:0.72px;"/>
    </g>
    <g transform="matrix(-1.15468,-0.666702,-0.666702,1.15468,743.221,-695.332)">
        <path d="M122.026,726.72L141.944,726.72" style="fill:none;fill-rule:nonzero;stroke:black;stroke-width:0.72px;"/>
    </g>
    <g transform="matrix(-1.15468,0.666702,0.666702,1.15468,-182.873,-882.822)">
        <path d="M139.276,726.72L159.194,726.72" style="fill:none;fill-rule:nonzero;stroke:black;stroke-width:0.72px;"/>
    </g>
    <g transform="matrix(-1.15464,0.666766,0.666766,1.15464,-349.894,-841.497)">
        <path d="M75.091,728.01L89.849,728.01" style="fill:none;fill-rule:nonzero;stroke:black;stroke-width:0.72px;"/>
    </g>
    <g transform="matrix(1.15476,0.666568,0.666568,-1.15476,-525.738,785.409)">
        <path d="M156.909,728.15L171.111,728.15" style="fill:none;fill-rule:nonzero;stroke:black;stroke-width:0.72px;"/>
    </g>
    <g transform="matrix(1.1547,0.666669,0.666669,-1.1547,-523.284,786.111)">
        <path d="M156.65,724.34L171.13,724.34" style="fill:none;fill-rule:nonzero;stroke:black;stroke-width:0.72px;"/>
    </g>
    <g transform="matrix(0.656826,-1.16033,-1.16033,-0.656826,932.723,816.285)">
        <path d="M231.848,722.905L251.762,722.905" style="fill:none;fill-rule:nonzero;stroke:black;stroke-width:0.72px;"/>
    </g>
    <g transform="matrix(1.33329,-0.0107145,-0.0107145,-1.33329,-61.8178,1027.27)">
        <path d="M226.8,731.49L246.71,731.49" style="fill:none;fill-rule:nonzero;stroke:black;stroke-width:0.72px;"/>
    </g>
    <g transform="matrix(0.676027,1.14925,1.14925,-0.676027,-747.973,283.192)">
        <path d="M221.89,722.825L241.81,722.825" style="fill:none;fill-rule:nonzero;stroke:black;stroke-width:0.72px;"/>
    </g>
    <g transform="matrix(1.14908,-0.676314,-0.676314,-1.14908,474.13,1060.3)">
        <path d="M245.728,735.175L259.942,735.175" style="fill:none;fill-rule:nonzero;stroke:black;stroke-width:0.72px;"/>
    </g>
    <g transform="matrix(0.334459,-1.2907,-1.2907,-0.334459,1098.32,652.815)">
        <path d="M250.41,705.44L265.12,705.44" style="fill:none;fill-rule:nonzero;stroke:black;stroke-width:0.72px;"/>
    </g>
    <g transform="matrix(0.950893,0.934655,0.934655,-0.950893,-652.984,511.774)">
        <path d="M244.826,726.965L257.964,726.965" style="fill:none;fill-rule:nonzero;stroke:black;stroke-width:0.72px;"/>
    </g>
    <g transform="matrix(0.950266,0.935293,0.935293,-0.950266,-618.559,515.241)">
        <path d="M254.001,693.635L267.359,693.635" style="fill:none;fill-rule:nonzero;stroke:black;stroke-width:0.72px;"/>
    </g>
    <g transform="matrix(1.33333,0,0,1.33333,-69.6655,-900.357)">
        <path d="M307.44,721.92L359.52,721.92" style="fill:none;fill-rule:nonzero;stroke:black;stroke-width:0.72px;"/>
    </g>
    <g transform="matrix(1.2958,0.314133,0.314133,-1.2958,-283.099,885.973)">
        <path d="M351.259,722.853L359.409,722.853L352.164,719.121L353.111,721.326L351.259,722.853Z" style="stroke:black;stroke-width:0.72px;"/>
    </g>
    <g transform="matrix(-0.455227,-1.25321,-1.25321,0.455227,1779.45,340.643)">
        <path d="M503.702,742.41L523.618,742.41" style="fill:none;fill-rule:nonzero;stroke:black;stroke-width:0.72px;"/>
    </g>
    <g transform="matrix(1.33256,-0.0455117,-0.0455117,-1.33256,-35.078,1046.95)">
        <path d="M490.344,751.43L510.266,751.43" style="fill:none;fill-rule:nonzero;stroke:black;stroke-width:0.72px;"/>
    </g>
    <g transform="matrix(0.36868,-1.28135,-1.28135,-0.36868,1350.83,934.237)">
        <path d="M477.632,741.515L497.558,741.515" style="fill:none;fill-rule:nonzero;stroke:black;stroke-width:0.72px;"/>
    </g>
    <g transform="matrix(-1.29403,0.321333,0.321333,1.29403,944.368,-1044.7)">
        <path d="M465.216,729.54L485.134,729.54" style="fill:none;fill-rule:nonzero;stroke:black;stroke-width:0.72px;"/>
    </g>
    <g transform="matrix(-0.925588,-0.959721,-0.959721,0.925588,1671,-193.863)">
        <path d="M448.634,734.31L468.556,734.31" style="fill:none;fill-rule:nonzero;stroke:black;stroke-width:0.72px;"/>
    </g>
    <g transform="matrix(0.710913,1.128,1.128,-0.710913,-586.632,21.8886)">
        <path d="M482.34,727.41L493.05,727.41" style="fill:none;fill-rule:nonzero;stroke:black;stroke-width:0.72px;"/>
    </g>
    <g transform="matrix(1.3331,0.0251002,0.0251002,-1.3331,-87.8958,1011.43)">
        <path d="M517.019,731.235L531.361,731.235" style="fill:none;fill-rule:nonzero;stroke:black;stroke-width:0.72px;"/>
    </g>
    <g transform="matrix(1.33309,0.0252232,0.0252232,-1.33309,-88.0693,1011.36)">
        <path d="M517.089,734.595L531.361,734.595" style="fill:none;fill-rule:nonzero;stroke:black;stroke-width:0.72px;"/>
    </g>
    <g transform="matrix(0.565239,1.20759,1.20759,-0.565239,-546.576,-161.242)">
        <path d="M512.528,725.925L528.262,725.925" style="fill:none;fill-rule:nonzero;stroke:black;stroke-width:0.72px;"/>
    </g>
    <g transform="matrix(-0.76239,1.09386,1.09386,0.76239,248.521,-1015.64)">
        <path d="M511.852,702.87L525.528,702.87" style="fill:none;fill-rule:nonzero;stroke:black;stroke-width:0.72px;"/>
    </g>
    <g transform="matrix(0.565863,1.2073,1.2073,-0.565863,-506.377,-130.57)">
        <path d="M510.718,690.87L524.832,690.87" style="fill:none;fill-rule:nonzero;stroke:black;stroke-width:0.72px;"/>
    </g>
    <g transform="matrix(-1.29388,0.321963,0.321963,1.29388,853.646,-1059.26)">
        <path d="M432.055,739.075L451.975,739.075" style="fill:none;fill-rule:nonzero;stroke:black;stroke-width:0.72px;"/>
    </g>
    <g transform="matrix(-0.925588,-0.959721,-0.959721,0.925588,1605.24,-247.215)">
        <path d="M415.474,743.84L435.396,743.84" style="fill:none;fill-rule:nonzero;stroke:black;stroke-width:0.72px;"/>
    </g>
    <g transform="matrix(-1.29388,0.321963,0.321963,1.29388,763.459,-1073.62)">
        <path d="M398.895,748.605L418.815,748.605" style="fill:none;fill-rule:nonzero;stroke:black;stroke-width:0.72px;"/>
    </g>
    <g transform="matrix(-0.924988,-0.9603,-0.9603,0.924988,1542.46,-292.637)">
        <path d="M387.679,751.095L401.271,751.095" style="fill:none;fill-rule:nonzero;stroke:black;stroke-width:0.72px;"/>
    </g>
    <g transform="matrix(0,1.33333,1.33333,0,-290.786,-409.797)">
        <path d="M431.04,620.88L479.04,620.88" style="fill:none;fill-rule:nonzero;stroke:black;stroke-width:0.72px;"/>
    </g>
    <g transform="matrix(-0.314133,1.2958,1.2958,0.314133,-98.5709,-554.742)">
        <path d="M450.739,601.773L458.889,601.773L451.644,598.041L452.591,600.246L450.739,601.773Z" style="stroke:black;stroke-width:0.72px;"/>
    </g>
</svg>
