<?xml version="1.0" encoding="UTF-8" standalone="no"?>
<!DOCTYPE svg PUBLIC "-//W3C//DTD SVG 1.1//EN" "http://www.w3.org/Graphics/SVG/1.1/DTD/svg11.dtd">
<svg width="100%" height="100%" viewBox="0 0 740 335" version="1.1" xmlns="http://www.w3.org/2000/svg" xmlns:xlink="http://www.w3.org/1999/xlink" xml:space="preserve" xmlns:serif="http://www.serif.com/" style="fill-rule:evenodd;clip-rule:evenodd;stroke-linecap:round;stroke-linejoin:round;stroke-miterlimit:10;">
    <g transform="matrix(1.33333,0,0,1.33333,-56.2746,-150.586)">
        <text x="131.76px" y="143.52px" style="font-family:'ArialMT', 'Arial', sans-serif;font-size:10px;">R</text>
        <text x="139.2px" y="136.56px" style="font-family:'ArialMT', 'Arial', sans-serif;font-size:8px;">1</text>
    </g>
    <g transform="matrix(1.33333,0,0,1.33333,-56.2746,-150.586)">
        <text x="62.64px" y="123.6px" style="font-family:'ArialMT', 'Arial', sans-serif;font-size:10px;">O</text>
    </g>
    <g transform="matrix(1.33333,0,0,1.33333,-56.2746,-150.586)">
        <text x="45.6px" y="153.36px" style="font-family:'ArialMT', 'Arial', sans-serif;font-size:10px;">R</text>
    </g>
    <g transform="matrix(1.33333,0,0,1.33333,-56.2746,-150.586)">
        <text x="114.24px" y="173.28px" style="font-family:'ArialMT', 'Arial', sans-serif;font-size:10px;">O</text>
    </g>
    <g transform="matrix(1.33333,0,0,1.33333,-56.2746,-150.586)">
        <text x="71.52px" y="123.12px" style="font-family:'ArialMT', 'Arial', sans-serif;font-size:10px;">:</text>
    </g>
    <g transform="matrix(1.33333,0,0,1.33333,-56.2746,-150.586)">
        <text x="58.8px" y="122.64px" style="font-family:'ArialMT', 'Arial', sans-serif;font-size:10px;">:</text>
    </g>
    <g transform="matrix(1.33333,0,0,1.33333,-56.2746,-150.586)">
        <text x="217.92px" y="149.04px" style="font-family:'ArialMT', 'Arial', sans-serif;font-size:10px;">R</text>
    </g>
    <g transform="matrix(1.33333,0,0,1.33333,-56.2746,-150.586)">
        <text x="257.52px" y="148.8px" style="font-family:'ArialMT', 'Arial', sans-serif;font-size:10px;">O</text>
        <text x="265.44px" y="141.84px" style="font-family:'ArialMT', 'Arial', sans-serif;font-size:8px;">+</text>
    </g>
    <g transform="matrix(1.26665,0.416393,-0.416393,1.26665,-56.2746,-150.586)">
        <text x="298.823px" y="58.653px" style="font-family:'ArialMT', 'Arial', sans-serif;font-size:10px;">:</text>
    </g>
    <g transform="matrix(1.33333,0,0,1.33333,-56.2746,-150.586)">
        <text x="285.6px" y="152.16px" style="font-family:'ArialMT', 'Arial', sans-serif;font-size:18px;">+</text>
    </g>
    <g transform="matrix(1.33333,0,0,1.33333,-56.2746,-150.586)">
        <text x="319.44px" y="136.32px" style="font-family:'ArialMT', 'Arial', sans-serif;font-size:10px;">C</text>
    </g>
    <g transform="matrix(1.33333,0,0,1.33333,-56.2746,-150.586)">
        <text x="307.92px" y="136.32px" style="font-family:'ArialMT', 'Arial', sans-serif;font-size:10px;">H</text>
        <text x="315.129px" y="138.96px" style="font-family:'ArialMT', 'Arial', sans-serif;font-size:8px;">2</text>
        <text x="326.64px" y="129.36px" style="font-family:'ArialMT', 'Arial', sans-serif;font-size:8px;">–</text>
    </g>
    <g transform="matrix(1.33333,0,0,1.33333,-56.2746,-150.586)">
        <text x="353.52px" y="156.24px" style="font-family:'ArialMT', 'Arial', sans-serif;font-size:10px;">O</text>
    </g>
    <g transform="matrix(1.33333,0,0,1.33333,-56.2746,-150.586)">
        <text x="371.04px" y="126.24px" style="font-family:'ArialMT', 'Arial', sans-serif;font-size:10px;">R</text>
        <text x="378.48px" y="119.28px" style="font-family:'ArialMT', 'Arial', sans-serif;font-size:8px;">1</text>
    </g>
    <g transform="matrix(1.32131,0.178663,-0.178663,1.32131,-56.2746,-150.586)">
        <text x="342.521px" y="88.975px" style="font-family:'ArialMT', 'Arial', sans-serif;font-size:10px;">:</text>
    </g>
    <g transform="matrix(1.33333,0,0,1.33333,-56.2746,-150.586)">
        <text x="240.96px" y="181.2px" style="font-family:'ArialMT', 'Arial', sans-serif;font-size:10px;">E</text>
        <text x="247.92px" y="174.24px" style="font-family:'ArialMT', 'Arial', sans-serif;font-size:8px;">1</text>
    </g>
    <g transform="matrix(1.33333,0,0,1.33333,-56.2746,-150.586)">
        <text x="339.6px" y="181.44px" style="font-family:'ArialMT', 'Arial', sans-serif;font-size:10px;">N</text>
        <text x="346.8px" y="181.44px" style="font-family:'ArialMT', 'Arial', sans-serif;font-size:10px;">u</text>
        <text x="352.56px" y="174.48px" style="font-family:'ArialMT', 'Arial', sans-serif;font-size:8px;">3</text>
    </g>
    <g transform="matrix(1.33333,0,0,1.33333,-56.2746,-150.586)">
        <text x="45.84px" y="238.56px" style="font-family:'ArialMT', 'Arial', sans-serif;font-size:10px;">N</text>
        <text x="53.04px" y="238.56px" style="font-family:'ArialMT', 'Arial', sans-serif;font-size:10px;">u</text>
        <text x="58.8px" y="231.6px" style="font-family:'ArialMT', 'Arial', sans-serif;font-size:8px;">3</text>
        <text x="66.238px" y="238.56px" style="font-family:'ArialMT', 'Arial', sans-serif;font-size:10px;"><tspan x="66.238px " y="238.56px ">=</tspan></text>
    </g>
    <g transform="matrix(1.33333,0,0,1.33333,-56.2746,-150.586)">
        <text x="92.4px" y="238.8px" style="font-family:'ArialMT', 'Arial', sans-serif;font-size:10px;">C</text>
        <text x="99.6px" y="231.84px" style="font-family:'ArialMT', 'Arial', sans-serif;font-size:8px;">–</text>
    </g>
    <g transform="matrix(1.33333,0,0,1.33333,-56.2746,-150.586)">
        <text x="152.16px" y="238.56px" style="font-family:'ArialMT', 'Arial', sans-serif;font-size:10px;">R</text>
        <text x="159.6px" y="231.6px" style="font-family:'ArialMT', 'Arial', sans-serif;font-size:8px;">1</text>
    </g>
    <g transform="matrix(1.33333,0,0,1.33333,-56.2746,-150.586)">
        <text x="131.76px" y="218.64px" style="font-family:'ArialMT', 'Arial', sans-serif;font-size:10px;">O</text>
    </g>
    <g transform="matrix(0.621852,1.17944,-1.17944,0.621852,-56.2746,-150.586)">
        <text x="244.878px" y="24.756px" style="font-family:'ArialMT', 'Arial', sans-serif;font-size:10px;">:</text>
    </g>
    <g transform="matrix(1.33333,0,0,1.33333,-56.2746,-150.586)">
        <text x="253.2px" y="236.64px" style="font-family:'ArialMT', 'Arial', sans-serif;font-size:10px;">C</text>
    </g>
    <g transform="matrix(1.33333,0,0,1.33333,-56.2746,-150.586)">
        <text x="246px" y="236.64px" style="font-family:'ArialMT', 'Arial', sans-serif;font-size:10px;">H</text>
    </g>
    <g transform="matrix(1.33333,0,0,1.33333,-56.2746,-150.586)">
        <text x="312.96px" y="236.4px" style="font-family:'ArialMT', 'Arial', sans-serif;font-size:10px;">R</text>
        <text x="320.4px" y="229.44px" style="font-family:'ArialMT', 'Arial', sans-serif;font-size:8px;">1</text>
        <text x="292.8px" y="256.32px" style="font-family:'ArialMT', 'Arial', sans-serif;font-size:10px;">O<tspan x="300.72px " y="256.32px ">H</tspan></text>
    </g>
    <g transform="matrix(1.33333,0,0,1.33333,-56.2746,-150.586)">
        <text x="398.4px" y="237.6px" style="font-family:'ArialMT', 'Arial', sans-serif;font-size:10px;">C</text>
    </g>
    <g transform="matrix(1.33333,0,0,1.33333,-56.2746,-150.586)">
        <text x="391.2px" y="237.6px" style="font-family:'ArialMT', 'Arial', sans-serif;font-size:10px;">H</text>
    </g>
    <g transform="matrix(1.33333,0,0,1.33333,-56.2746,-150.586)">
        <text x="418.32px" y="237.6px" style="font-family:'ArialMT', 'Arial', sans-serif;font-size:10px;">CH</text>
        <text x="444.24px" y="240.24px" style="font-family:'ArialMT', 'Arial', sans-serif;font-size:18px;"><tspan x="444.24px " y="240.24px ">+</tspan></text>
    </g>
    <g transform="matrix(1.33333,0,0,1.33333,-56.2746,-150.586)">
        <text x="489.36px" y="237.36px" style="font-family:'ArialMT', 'Arial', sans-serif;font-size:10px;">R</text>
        <text x="496.8px" y="230.4px" style="font-family:'ArialMT', 'Arial', sans-serif;font-size:8px;">1</text>
    </g>
    <g transform="matrix(1.33333,0,0,1.33333,-56.2746,-150.586)">
        <text x="459.12px" y="254.4px" style="font-family:'ArialMT', 'Arial', sans-serif;font-size:10px;">O</text>
    </g>
    <g transform="matrix(1.33333,0,0,1.33333,-56.2746,-150.586)">
        <text x="44.64px" y="323.52px" style="font-family:'ArialMT', 'Arial', sans-serif;font-size:10px;">Е</text>
        <text x="51.36px" y="323.52px" style="font-family:'ArialMT', 'Arial', sans-serif;font-size:10px;">с</text>
        <text x="56.4px" y="323.52px" style="font-family:'ArialMT', 'Arial', sans-serif;font-size:10px;">л<tspan x="62.4px " y="323.52px ">и</tspan></text>
    </g>
    <g transform="matrix(1.33333,0,0,1.33333,-56.2746,-150.586)">
        <text x="177.84px" y="323.76px" style="font-family:'ArialMT', 'Arial', sans-serif;font-size:10px;">, <tspan x="183.705px " y="323.76px ">т</tspan>о</text>
        <text x="79.44px" y="324px" style="font-family:'ArialMT', 'Arial', sans-serif;font-size:10px;">R</text>
        <text x="86.798px" y="317.04px" style="font-family:'ArialMT', 'Arial', sans-serif;font-size:8px;">1</text>
        <text x="94.385px" y="324px" style="font-family:'ArialMT', 'Arial', sans-serif;font-size:10px;"><tspan x="94.385px 100.362px 116.4px " y="324px 324px 324px ">=	O</tspan></text>
        <text x="124.315px" y="317.04px" style="font-family:'ArialMT', 'Arial', sans-serif;font-size:8px;">–</text>
    </g>
    <g transform="matrix(1.33333,0,0,1.33333,-56.2746,-150.586)">
        <text x="150.96px" y="324px" style="font-family:'ArialMT', 'Arial', sans-serif;font-size:10px;">CH</text>
        <text x="165.36px" y="326.64px" style="font-family:'ArialMT', 'Arial', sans-serif;font-size:8px;">3</text>
    </g>
    <g transform="matrix(-0.0233344,-1.33313,1.33313,-0.0233344,-56.2746,-150.586)">
        <text x="-317.469px" y="113.741px" style="font-family:'ArialMT', 'Arial', sans-serif;font-size:10px;">:</text>
    </g>
    <g transform="matrix(1.33333,0,0,1.33333,-56.2746,-150.586)">
        <text x="112.56px" y="322.32px" style="font-family:'ArialMT', 'Arial', sans-serif;font-size:10px;">:</text>
        <text x="125.04px" y="322.8px" style="font-family:'ArialMT', 'Arial', sans-serif;font-size:10px;">:</text>
    </g>
    <g transform="matrix(1.33333,0,0,1.33333,-56.2746,-150.586)">
        <text x="252px" y="318.48px" style="font-family:'ArialMT', 'Arial', sans-serif;font-size:10px;">O</text>
    </g>
    <g transform="matrix(1.33333,0,0,1.33333,-56.2746,-150.586)">
        <text x="338.16px" y="328.32px" style="font-family:'ArialMT', 'Arial', sans-serif;font-size:10px;">O</text>
    </g>
    <g transform="matrix(1.33333,0,0,1.33333,-56.2746,-150.586)">
        <text x="320.88px" y="298.56px" style="font-family:'ArialMT', 'Arial', sans-serif;font-size:10px;">O</text>
    </g>
    <g transform="matrix(1.33333,0,0,1.33333,-56.2746,-150.586)">
        <text x="355.68px" y="358.32px" style="font-family:'ArialMT', 'Arial', sans-serif;font-size:10px;">CH</text>
        <text x="370.08px" y="360.96px" style="font-family:'ArialMT', 'Arial', sans-serif;font-size:8px;">3</text>
    </g>
    <g transform="matrix(1.33333,0,0,1.33333,-56.2746,-150.586)">
        <text x="269.28px" y="348.24px" style="font-family:'ArialMT', 'Arial', sans-serif;font-size:10px;">O</text>
    </g>
    <g transform="matrix(1.33333,0,0,1.33333,-56.2746,-150.586)">
        <text x="217.68px" y="318.48px" style="font-family:'ArialMT', 'Arial', sans-serif;font-size:10px;">C</text>
    </g>
    <g transform="matrix(1.33333,0,0,1.33333,-56.2746,-150.586)">
        <text x="206.16px" y="318.48px" style="font-family:'ArialMT', 'Arial', sans-serif;font-size:10px;">H</text>
        <text x="213.36px" y="321.12px" style="font-family:'ArialMT', 'Arial', sans-serif;font-size:8px;">3</text>
    </g>
    <g transform="matrix(-0.0140006,-1.33326,1.33326,-0.0140006,-56.2746,-150.586)">
        <text x="-317.102px" y="288.046px" style="font-family:'ArialMT', 'Arial', sans-serif;font-size:10px;">:</text>
    </g>
    <g transform="matrix(1.33333,0,0,1.33333,-56.2746,-150.586)">
        <text x="461.76px" y="317.52px" style="font-family:'ArialMT', 'Arial', sans-serif;font-size:10px;">O</text>
    </g>
    <g transform="matrix(1.33333,0,0,1.33333,-56.2746,-150.586)">
        <text x="547.92px" y="327.36px" style="font-family:'ArialMT', 'Arial', sans-serif;font-size:10px;">O</text>
    </g>
    <g transform="matrix(1.33333,0,0,1.33333,-56.2746,-150.586)">
        <text x="530.64px" y="297.6px" style="font-family:'ArialMT', 'Arial', sans-serif;font-size:10px;">O</text>
    </g>
    <g transform="matrix(1.33333,0,0,1.33333,-56.2746,-150.586)">
        <text x="565.44px" y="357.36px" style="font-family:'ArialMT', 'Arial', sans-serif;font-size:10px;">CH</text>
        <text x="579.84px" y="360px" style="font-family:'ArialMT', 'Arial', sans-serif;font-size:8px;">3</text>
    </g>
    <g transform="matrix(1.33333,0,0,1.33333,-56.2746,-150.586)">
        <text x="479.04px" y="347.28px" style="font-family:'ArialMT', 'Arial', sans-serif;font-size:10px;">O</text>
        <text x="486.96px" y="340.32px" style="font-family:'ArialMT', 'Arial', sans-serif;font-size:8px;">–</text>
    </g>
    <g transform="matrix(1.33333,0,0,1.33333,-56.2746,-150.586)">
        <text x="427.44px" y="317.52px" style="font-family:'ArialMT', 'Arial', sans-serif;font-size:10px;">C</text>
    </g>
    <g transform="matrix(1.33333,0,0,1.33333,-56.2746,-150.586)">
        <text x="415.92px" y="317.52px" style="font-family:'ArialMT', 'Arial', sans-serif;font-size:10px;">H</text>
        <text x="423.12px" y="320.16px" style="font-family:'ArialMT', 'Arial', sans-serif;font-size:8px;">3</text>
    </g>
    <g transform="matrix(1.33333,0,0,1.33333,-56.2746,-150.586)">
        <text x="474.96px" y="346.32px" style="font-family:'ArialMT', 'Arial', sans-serif;font-size:10px;">:</text>
    </g>
    <g transform="matrix(-0.0162671,-1.33323,1.33323,-0.0162671,-56.2746,-150.586)">
        <text x="-357.363px" y="479.996px" style="font-family:'ArialMT', 'Arial', sans-serif;font-size:10px;">:</text>
    </g>
    <g transform="matrix(1.33333,0,0,1.33333,-56.2746,-150.586)">
        <text x="488.16px" y="346.08px" style="font-family:'ArialMT', 'Arial', sans-serif;font-size:10px;">:</text>
    </g>
    <g transform="matrix(1.15468,0.666702,0.666702,-1.15468,-507.831,797.262)">
        <path d="M65.206,697.44L85.124,697.44" style="fill:none;fill-rule:nonzero;stroke:black;stroke-width:0.72px;"/>
    </g>
    <g transform="matrix(1.15468,-0.666702,-0.666702,-1.15468,425.22,908.988)">
        <path d="M82.456,697.44L102.374,697.44" style="fill:none;fill-rule:nonzero;stroke:black;stroke-width:0.72px;"/>
    </g>
    <g transform="matrix(1.15468,0.666702,0.666702,-1.15468,-501.667,774.261)">
        <path d="M99.706,697.44L119.624,697.44" style="fill:none;fill-rule:nonzero;stroke:black;stroke-width:0.72px;"/>
    </g>
    <g transform="matrix(1.15481,-0.666483,-0.666483,-1.15481,429.879,930.714)">
        <path d="M117.323,696.07L131.767,696.07" style="fill:none;fill-rule:nonzero;stroke:black;stroke-width:0.72px;"/>
    </g>
    <g transform="matrix(0,-1.33333,-1.33333,0,981.045,116.574)">
        <path d="M60.87,709.77L75.57,709.77" style="fill:none;fill-rule:nonzero;stroke:black;stroke-width:0.72px;"/>
    </g>
    <g transform="matrix(0,-1.33333,-1.33333,0,976.565,112.094)">
        <path d="M57.51,709.77L72.21,709.77" style="fill:none;fill-rule:nonzero;stroke:black;stroke-width:0.72px;"/>
    </g>
    <g transform="matrix(-1.15464,0.666766,0.666766,1.15464,-372.512,-806.555)">
        <path d="M52.771,698.73L67.529,698.73" style="fill:none;fill-rule:nonzero;stroke:black;stroke-width:0.72px;"/>
    </g>
    <g transform="matrix(0,1.33333,1.33333,0,-814.275,-96.9855)">
        <path d="M109.26,685.11L123.96,685.11" style="fill:none;fill-rule:nonzero;stroke:black;stroke-width:0.72px;"/>
    </g>
    <g transform="matrix(0,1.33333,1.33333,0,-809.795,-101.466)">
        <path d="M112.62,685.11L127.32,685.11" style="fill:none;fill-rule:nonzero;stroke:black;stroke-width:0.72px;"/>
    </g>
    <g transform="matrix(1.33333,0,0,1.33333,-56.2746,-876.986)">
        <path d="M157.44,693.36L191.52,693.36" style="fill:none;fill-rule:nonzero;stroke:black;stroke-width:0.72px;"/>
    </g>
    <g transform="matrix(1.33333,0,0,1.33333,-56.2746,-884.666)">
        <path d="M157.44,696.24L191.52,696.24" style="fill:none;fill-rule:nonzero;stroke:black;stroke-width:0.72px;"/>
    </g>
    <g transform="matrix(1.33333,0,0,1.33333,-56.2746,-880.826)">
        <path d="M186.96,691.2L194.88,694.8L186.96,698.4" style="fill:none;fill-rule:nonzero;stroke:black;stroke-width:0.72px;"/>
    </g>
    <g transform="matrix(1.33333,0,0,1.33333,-56.2746,-931.066)">
        <path d="M72.48,704.88L73.92,705.12L75.12,705.6L76.08,706.32L77.28,707.04L78.24,708L78.96,709.2L79.92,711.6L80.16,713.04L80.16,714.72L79.92,715.92L78.48,718.8L77.76,719.76L77.04,720.48L76.08,721.2L75.12,721.68L74.16,721.92L72.96,722.4L70.08,722.4" style="fill:none;fill-rule:nonzero;stroke:black;stroke-width:0.48px;"/>
    </g>
    <g transform="matrix(-1.3242,-0.155788,-0.155788,1.3242,250.77,-892.266)">
        <path d="M69.884,707.27L78.1,707.27L70.809,703.513L71.987,705.826L69.884,707.27Z" style="stroke:black;stroke-width:0.48px;"/>
    </g>
    <g transform="matrix(1.33333,0,0,1.33333,-56.2746,-883.706)">
        <path d="M81.6,702.24L78.72,702.96L76.32,702.48L75.36,702.24L74.4,701.52L72.96,700.08L72.24,699.12L71.76,698.16L71.52,697.2L71.28,696L71.28,695.52L71.52,693.84L72,692.4L72.72,691.2L73.68,690L74.88,689.04L75.6,688.8" style="fill:none;fill-rule:nonzero;stroke:black;stroke-width:0.48px;"/>
    </g>
    <g transform="matrix(1.24844,-0.468165,-0.468165,-1.24844,272.666,949.812)">
        <path d="M73.475,688.026L81.677,688.026L74.374,691.79L75.582,689.543L73.475,688.026Z" style="stroke:black;stroke-width:0.48px;"/>
    </g>
    <g transform="matrix(1.33333,0,0,1.33333,-56.2746,-886.586)">
        <path d="M226.08,696.96L241.44,696.96" style="fill:none;fill-rule:nonzero;stroke:black;stroke-width:0.72px;"/>
    </g>
    <g transform="matrix(1.33333,0,0,1.33333,-56.2746,-886.586)">
        <path d="M241.44,696.96L256.56,696.96" style="fill:none;fill-rule:nonzero;stroke:black;stroke-width:0.72px;"/>
    </g>
    <g transform="matrix(1.33333,0,0,1.33333,-56.2746,-895.546)">
        <path d="M241.44,700.32L256.56,700.32" style="fill:none;fill-rule:nonzero;stroke:black;stroke-width:0.72px;"/>
    </g>
    <g transform="matrix(1.33333,0,0,1.33333,-56.2746,-877.626)">
        <path d="M241.44,693.6L256.56,693.6" style="fill:none;fill-rule:nonzero;stroke:black;stroke-width:0.72px;"/>
    </g>
    <g transform="matrix(-1.15468,-0.666702,-0.666702,1.15468,1288.29,-573.168)">
        <path d="M338.986,714.54L358.904,714.54" style="fill:none;fill-rule:nonzero;stroke:black;stroke-width:0.72px;"/>
    </g>
    <g transform="matrix(-1.15469,0.666693,0.666693,1.15469,301.916,-1036.26)">
        <path d="M331.27,717.095L340.97,717.095" style="fill:none;fill-rule:nonzero;stroke:black;stroke-width:0.72px;"/>
    </g>
    <g transform="matrix(0,1.33333,1.33333,0,-517.995,-438.786)">
        <path d="M348.51,702.18L363.27,702.18" style="fill:none;fill-rule:nonzero;stroke:black;stroke-width:0.72px;"/>
    </g>
    <g transform="matrix(0,1.33333,1.33333,0,-513.515,-443.266)">
        <path d="M351.87,702.18L366.63,702.18" style="fill:none;fill-rule:nonzero;stroke:black;stroke-width:0.72px;"/>
    </g>
    <g transform="matrix(1.15481,-0.666483,-0.666483,-1.15481,483.994,1087.14)">
        <path d="M356.603,713.17L371.047,713.17" style="fill:none;fill-rule:nonzero;stroke:black;stroke-width:0.72px;"/>
    </g>
    <g transform="matrix(1.33333,0,0,1.33333,-56.2746,-647.226)">
        <path d="M100.56,607.2L115.92,607.2" style="fill:none;fill-rule:nonzero;stroke:black;stroke-width:0.72px;"/>
    </g>
    <g transform="matrix(1.33333,0,0,1.33333,-56.2746,-656.186)">
        <path d="M104.88,610.56L115.92,610.56" style="fill:none;fill-rule:nonzero;stroke:black;stroke-width:0.72px;"/>
    </g>
    <g transform="matrix(1.33333,0,0,1.33333,-56.2746,-638.266)">
        <path d="M100.56,603.84L115.92,603.84" style="fill:none;fill-rule:nonzero;stroke:black;stroke-width:0.72px;"/>
    </g>
    <g transform="matrix(1.33333,0,0,1.33333,-56.2746,-647.226)">
        <path d="M115.92,607.2L135.84,607.2" style="fill:none;fill-rule:nonzero;stroke:black;stroke-width:0.72px;"/>
    </g>
    <g transform="matrix(1.33333,0,0,1.33333,-56.2746,-647.226)">
        <path d="M135.84,607.2L151.2,607.2" style="fill:none;fill-rule:nonzero;stroke:black;stroke-width:0.72px;"/>
    </g>
    <g transform="matrix(0,-1.33333,-1.33333,0,946.605,335.814)">
        <path d="M130.08,614.64L144.96,614.64" style="fill:none;fill-rule:nonzero;stroke:black;stroke-width:0.72px;"/>
    </g>
    <g transform="matrix(0,-1.33333,-1.33333,0,942.125,331.334)">
        <path d="M126.72,614.64L141.6,614.64" style="fill:none;fill-rule:nonzero;stroke:black;stroke-width:0.72px;"/>
    </g>
    <g transform="matrix(1.33333,0,0,1.33333,-56.2746,-652.986)">
        <path d="M261.36,609.36L276.72,609.36" style="fill:none;fill-rule:nonzero;stroke:black;stroke-width:0.72px;"/>
    </g>
    <g transform="matrix(1.33333,0,0,1.33333,-56.2746,-661.946)">
        <path d="M261.36,612.72L276.72,612.72" style="fill:none;fill-rule:nonzero;stroke:black;stroke-width:0.72px;"/>
    </g>
    <g transform="matrix(1.33333,0,0,1.33333,-56.2746,-644.026)">
        <path d="M261.36,606L276.72,606" style="fill:none;fill-rule:nonzero;stroke:black;stroke-width:0.72px;"/>
    </g>
    <g transform="matrix(1.33333,0,0,1.33333,-56.2746,-652.986)">
        <path d="M276.72,609.36L296.64,609.36" style="fill:none;fill-rule:nonzero;stroke:black;stroke-width:0.72px;"/>
    </g>
    <g transform="matrix(1.33333,0,0,1.33333,-56.2746,-652.986)">
        <path d="M296.64,609.36L312,609.36" style="fill:none;fill-rule:nonzero;stroke:black;stroke-width:0.72px;"/>
    </g>
    <g transform="matrix(0,1.33333,1.33333,0,-463.475,-226.266)">
        <path d="M289.32,602.04L303.96,602.04" style="fill:none;fill-rule:nonzero;stroke:black;stroke-width:0.72px;"/>
    </g>
    <g transform="matrix(1.33333,0,0,1.33333,-56.2746,-645.306)">
        <path d="M340.8,606.48L374.88,606.48" style="fill:none;fill-rule:nonzero;stroke:black;stroke-width:0.72px;"/>
    </g>
    <g transform="matrix(1.33333,0,0,1.33333,-56.2746,-652.986)">
        <path d="M340.8,609.36L374.88,609.36" style="fill:none;fill-rule:nonzero;stroke:black;stroke-width:0.72px;"/>
    </g>
    <g transform="matrix(1.33333,0,0,1.33333,-56.2746,-649.146)">
        <path d="M370.32,604.32L378.24,607.92L370.32,611.52" style="fill:none;fill-rule:nonzero;stroke:black;stroke-width:0.72px;"/>
    </g>
    <g transform="matrix(1.33333,0,0,1.33333,-56.2746,-650.426)">
        <path d="M406.56,608.4L417.36,608.4" style="fill:none;fill-rule:nonzero;stroke:black;stroke-width:0.72px;"/>
    </g>
    <g transform="matrix(1.33333,0,0,1.33333,-56.2746,-659.386)">
        <path d="M406.56,611.76L417.36,611.76" style="fill:none;fill-rule:nonzero;stroke:black;stroke-width:0.72px;"/>
    </g>
    <g transform="matrix(1.33333,0,0,1.33333,-56.2746,-641.466)">
        <path d="M406.56,605.04L417.36,605.04" style="fill:none;fill-rule:nonzero;stroke:black;stroke-width:0.72px;"/>
    </g>
    <g transform="matrix(1.33333,0,0,1.33333,-56.2746,-651.066)">
        <path d="M473.04,608.64L488.4,608.64" style="fill:none;fill-rule:nonzero;stroke:black;stroke-width:0.72px;"/>
    </g>
    <g transform="matrix(-0.666796,1.15463,1.15463,0.666796,187.113,-775.567)">
        <path d="M462.646,602.64L476.504,602.64" style="fill:none;fill-rule:nonzero;stroke:black;stroke-width:0.72px;"/>
    </g>
    <g transform="matrix(-0.666756,1.15465,1.15465,0.666756,194.843,-771.275)">
        <path d="M464.441,599.355L478.679,599.355" style="fill:none;fill-rule:nonzero;stroke:black;stroke-width:0.72px;"/>
    </g>
    <g transform="matrix(1.15487,-0.666381,-0.666381,-1.15487,320.407,966.478)">
        <path d="M128.988,529.495L138.132,529.495" style="fill:none;fill-rule:nonzero;stroke:black;stroke-width:0.72px;"/>
    </g>
    <g transform="matrix(1.15451,0.666991,0.666991,-1.15451,-382.855,781.64)">
        <path d="M136.554,528.175L150.966,528.175" style="fill:none;fill-rule:nonzero;stroke:black;stroke-width:0.72px;"/>
    </g>
    <g transform="matrix(1.15487,0.666378,0.666378,-1.15487,-355.831,701.053)">
        <path d="M259.932,521.04L274.098,521.04" style="fill:none;fill-rule:nonzero;stroke:black;stroke-width:0.72px;"/>
    </g>
    <g transform="matrix(1.15468,-0.666702,-0.666702,-1.15468,342.404,1066.49)">
        <path d="M271.816,522.48L291.734,522.48" style="fill:none;fill-rule:nonzero;stroke:black;stroke-width:0.72px;"/>
    </g>
    <g transform="matrix(1.15468,0.666702,0.666702,-1.15468,-351.191,679.271)">
        <path d="M289.066,522.48L308.984,522.48" style="fill:none;fill-rule:nonzero;stroke:black;stroke-width:0.72px;"/>
    </g>
    <g transform="matrix(1.15468,-0.666702,-0.666702,-1.15468,348.568,1089.49)">
        <path d="M306.316,522.48L326.234,522.48" style="fill:none;fill-rule:nonzero;stroke:black;stroke-width:0.72px;"/>
    </g>
    <g transform="matrix(1.15476,0.666568,0.666568,-1.15476,-346.379,657.75)">
        <path d="M323.949,523.91L338.151,523.91" style="fill:none;fill-rule:nonzero;stroke:black;stroke-width:0.72px;"/>
    </g>
    <g transform="matrix(0,-1.33333,-1.33333,0,1092.25,694.334)">
        <path d="M319.23,534.81L333.93,534.81" style="fill:none;fill-rule:nonzero;stroke:black;stroke-width:0.72px;"/>
    </g>
    <g transform="matrix(0,-1.33333,-1.33333,0,1087.77,689.854)">
        <path d="M315.87,534.81L330.57,534.81" style="fill:none;fill-rule:nonzero;stroke:black;stroke-width:0.72px;"/>
    </g>
    <g transform="matrix(0,1.33333,1.33333,0,-273.395,-157.546)">
        <path d="M334.74,504.99L349.56,504.99" style="fill:none;fill-rule:nonzero;stroke:black;stroke-width:0.72px;"/>
    </g>
    <g transform="matrix(1.15459,0.666853,0.666853,-1.15459,-323.387,651.331)">
        <path d="M341.177,493.95L355.693,493.95" style="fill:none;fill-rule:nonzero;stroke:black;stroke-width:0.72px;"/>
    </g>
    <g transform="matrix(0,1.33333,1.33333,0,-374.515,-70.1855)">
        <path d="M264.12,510.15L278.82,510.15" style="fill:none;fill-rule:nonzero;stroke:black;stroke-width:0.72px;"/>
    </g>
    <g transform="matrix(0,1.33333,1.33333,0,-370.035,-74.6655)">
        <path d="M267.48,510.15L282.18,510.15" style="fill:none;fill-rule:nonzero;stroke:black;stroke-width:0.72px;"/>
    </g>
    <g transform="matrix(-1.15484,0.666431,0.666431,1.15484,205.681,-487.721)">
        <path d="M237.692,521.075L251.998,521.075" style="fill:none;fill-rule:nonzero;stroke:black;stroke-width:0.72px;"/>
    </g>
    <g transform="matrix(-1.15493,-0.666271,-0.666271,1.15493,868.869,-170.157)">
        <path d="M224.851,521.195L239.639,521.195" style="fill:none;fill-rule:nonzero;stroke:black;stroke-width:0.72px;"/>
    </g>
    <g transform="matrix(1.33333,0,0,1.33333,-56.2746,-436.986)">
        <path d="M273.36,536.16L272.4,534.48L271.92,532.56L271.68,530.64L271.68,529.44L271.92,528.24L272.4,527.28L272.64,526.32L273.36,525.36L273.84,524.4L274.56,523.44L275.52,522.72L276.48,522.24L277.44,521.52L278.4,521.28L279.36,520.8L280.56,520.56L281.76,520.56L283.68,520.8L285.36,521.28L287.04,522L288.48,523.2L289.68,524.4L290.16,525.12" style="fill:none;fill-rule:nonzero;stroke:black;stroke-width:0.48px;"/>
    </g>
    <g transform="matrix(0.70315,1.13285,1.13285,-0.70315,-479.709,334.125)">
        <path d="M267.614,524.324L275.806,524.324L268.619,528.219L269.491,525.983L267.614,524.324Z" style="stroke:black;stroke-width:0.48px;"/>
    </g>
    <g transform="matrix(1.33333,0,0,1.33333,-56.2746,-377.466)">
        <path d="M276.72,498L278.88,498L280.08,498.24L282.96,499.68L283.68,500.4L284.4,501.36L285.84,504.24L285.84,507.36L285.6,508.56L285.12,509.76L283.68,511.68L281.76,513.12L280.8,513.6L279.6,514.08L278.88,514.08" style="fill:none;fill-rule:nonzero;stroke:black;stroke-width:0.48px;"/>
    </g>
    <g transform="matrix(-1.31304,0.231714,0.231714,1.31304,576.567,-418.156)">
        <path d="M279.13,502.293L287.416,502.293L280.159,498.455L281.285,500.694L279.13,502.293Z" style="stroke:black;stroke-width:0.48px;"/>
    </g>
    <g transform="matrix(1.33333,0,0,1.33333,-56.2746,-418.746)">
        <path d="M368.88,521.52L402.96,521.52" style="fill:none;fill-rule:nonzero;stroke:black;stroke-width:0.72px;"/>
    </g>
    <g transform="matrix(1.2958,0.314133,0.314133,-1.2958,-205.126,827.061)">
        <path d="M394.699,522.453L402.849,522.453L395.604,518.721L396.551,520.926L394.699,522.453Z" style="stroke:black;stroke-width:0.72px;"/>
    </g>
    <g transform="matrix(-1.2958,0.314133,0.314133,1.2958,760.145,-516.293)">
        <path d="M368.539,520.587L376.689,520.587L369.444,524.319L370.391,522.114L368.539,520.587Z" style="stroke:black;stroke-width:0.72px;"/>
    </g>
    <g transform="matrix(1.15487,0.666378,0.666378,-1.15487,-319.036,561.103)">
        <path d="M469.692,522L483.858,522" style="fill:none;fill-rule:nonzero;stroke:black;stroke-width:0.72px;"/>
    </g>
    <g transform="matrix(1.15468,-0.666702,-0.666702,-1.15468,380.518,1206.17)">
        <path d="M481.576,523.44L501.494,523.44" style="fill:none;fill-rule:nonzero;stroke:black;stroke-width:0.72px;"/>
    </g>
    <g transform="matrix(1.15458,-0.666876,-0.666876,-1.15458,379.019,1207.84)">
        <path d="M484.918,520.53L501.512,520.53" style="fill:none;fill-rule:nonzero;stroke:black;stroke-width:0.72px;"/>
    </g>
    <g transform="matrix(1.15468,0.666702,0.666702,-1.15468,-314.357,539.252)">
        <path d="M498.826,523.44L518.744,523.44" style="fill:none;fill-rule:nonzero;stroke:black;stroke-width:0.72px;"/>
    </g>
    <g transform="matrix(1.15468,-0.666702,-0.666702,-1.15468,386.682,1229.17)">
        <path d="M516.076,523.44L535.994,523.44" style="fill:none;fill-rule:nonzero;stroke:black;stroke-width:0.72px;"/>
    </g>
    <g transform="matrix(1.15476,0.666568,0.666568,-1.15476,-309.56,517.759)">
        <path d="M533.709,524.87L547.911,524.87" style="fill:none;fill-rule:nonzero;stroke:black;stroke-width:0.72px;"/>
    </g>
    <g transform="matrix(0,-1.33333,-1.33333,0,1373.21,972.734)">
        <path d="M528.99,535.77L543.69,535.77" style="fill:none;fill-rule:nonzero;stroke:black;stroke-width:0.72px;"/>
    </g>
    <g transform="matrix(0,-1.33333,-1.33333,0,1368.73,968.254)">
        <path d="M525.63,535.77L540.33,535.77" style="fill:none;fill-rule:nonzero;stroke:black;stroke-width:0.72px;"/>
    </g>
    <g transform="matrix(0,1.33333,1.33333,0,5.00542,-438.506)">
        <path d="M544.5,505.95L559.32,505.95" style="fill:none;fill-rule:nonzero;stroke:black;stroke-width:0.72px;"/>
    </g>
    <g transform="matrix(1.15459,0.666853,0.666853,-1.15459,-286.535,511.28)">
        <path d="M550.937,494.91L565.453,494.91" style="fill:none;fill-rule:nonzero;stroke:black;stroke-width:0.72px;"/>
    </g>
    <g transform="matrix(0,1.33333,1.33333,0,-93.8746,-353.386)">
        <path d="M475.56,511.11L490.26,511.11" style="fill:none;fill-rule:nonzero;stroke:black;stroke-width:0.72px;"/>
    </g>
    <g transform="matrix(-1.15484,0.666431,0.666431,1.15484,726.96,-629.9)">
        <path d="M447.452,522.035L461.758,522.035" style="fill:none;fill-rule:nonzero;stroke:black;stroke-width:0.72px;"/>
    </g>
    <g transform="matrix(-1.15493,-0.666271,-0.666271,1.15493,1391.45,-32.7893)">
        <path d="M434.611,522.155L449.399,522.155" style="fill:none;fill-rule:nonzero;stroke:black;stroke-width:0.72px;"/>
    </g>
    <g transform="matrix(1.33333,0,0,1.33333,-56.2746,-647.866)">
        <path d="M183.84,607.44L217.92,607.44" style="fill:none;fill-rule:nonzero;stroke:black;stroke-width:0.72px;"/>
    </g>
    <g transform="matrix(1.33333,0,0,1.33333,-56.2746,-655.546)">
        <path d="M183.84,610.32L217.92,610.32" style="fill:none;fill-rule:nonzero;stroke:black;stroke-width:0.72px;"/>
    </g>
    <g transform="matrix(1.33333,0,0,1.33333,-56.2746,-651.706)">
        <path d="M213.36,605.28L221.28,608.88L213.36,612.48" style="fill:none;fill-rule:nonzero;stroke:black;stroke-width:0.72px;"/>
    </g>
</svg>
