<?xml version="1.0" encoding="UTF-8" standalone="no"?>
<!DOCTYPE svg PUBLIC "-//W3C//DTD SVG 1.1//EN" "http://www.w3.org/Graphics/SVG/1.1/DTD/svg11.dtd">
<svg width="100%" height="100%" viewBox="0 0 645 430" version="1.1" xmlns="http://www.w3.org/2000/svg" xmlns:xlink="http://www.w3.org/1999/xlink" xml:space="preserve" xmlns:serif="http://www.serif.com/" style="fill-rule:evenodd;clip-rule:evenodd;stroke-linecap:round;stroke-linejoin:round;stroke-miterlimit:10;">
    <g transform="matrix(1.33333,0,0,1.33333,-87.6279,-108.517)">
        <text x="81.36px" y="122.64px" style="font-family:'ArialMT', 'Arial', sans-serif;font-size:10px;">S</text>
    </g>
    <g transform="matrix(1.33333,0,0,1.33333,-87.6279,-108.517)">
        <text x="119.28px" y="123.36px" style="font-family:'ArialMT', 'Arial', sans-serif;font-size:8px;">3</text>
    </g>
    <g transform="matrix(1.33333,0,0,1.33333,-87.6279,-108.517)">
        <text x="131.28px" y="96.24px" style="font-family:'ArialMT', 'Arial', sans-serif;font-size:8px;">2</text>
    </g>
    <g transform="matrix(1.33333,0,0,1.33333,-87.6279,-108.517)">
        <text x="152.88px" y="116.4px" style="font-family:'ArialMT', 'Arial', sans-serif;font-size:8px;">1</text>
    </g>
    <g transform="matrix(1.33333,0,0,1.33333,-87.6279,-108.517)">
        <text x="165.12px" y="89.28px" style="font-family:'ArialMT', 'Arial', sans-serif;font-size:8px;">1</text>
        <text x="183.84px" y="95.76px" style="font-family:'ArialMT', 'Arial', sans-serif;font-size:8px;">2</text>
    </g>
    <g transform="matrix(1.33333,0,0,1.33333,-87.6279,-108.517)">
        <text x="187.68px" y="123.12px" style="font-family:'ArialMT', 'Arial', sans-serif;font-size:10px;">O</text>
        <text x="189.36px" y="130.56px" style="font-family:'ArialMT', 'Arial', sans-serif;font-size:8px;">3</text>
    </g>
    <g transform="matrix(1.33333,0,0,1.33333,-87.6279,-108.517)">
        <text x="198.48px" y="90.48px" style="font-family:'ArialMT', 'Arial', sans-serif;font-size:10px;">O<tspan x="206.4px " y="90.48px ">H</tspan></text>
    </g>
    <g transform="matrix(1.33333,0,0,1.33333,-87.6279,-108.517)">
        <text x="284.16px" y="123.84px" style="font-family:'ArialMT', 'Arial', sans-serif;font-size:10px;">S</text>
    </g>
    <g transform="matrix(1.33333,0,0,1.33333,-87.6279,-108.517)">
        <text x="319.2px" y="110.64px" style="font-family:'ArialMT', 'Arial', sans-serif;font-size:8px;">3</text>
    </g>
    <g transform="matrix(1.33333,0,0,1.33333,-87.6279,-108.517)">
        <text x="352.8px" y="111.6px" style="font-family:'ArialMT', 'Arial', sans-serif;font-size:10px;">CH</text>
        <text x="367.2px" y="114.24px" style="font-family:'ArialMT', 'Arial', sans-serif;font-size:8px;">3</text>
    </g>
    <g transform="matrix(1.33333,0,0,1.33333,-87.6279,-108.517)">
        <text x="322.8px" y="138px" style="font-family:'ArialMT', 'Arial', sans-serif;font-size:10px;">O</text>
        <text x="324.48px" y="145.44px" style="font-family:'ArialMT', 'Arial', sans-serif;font-size:8px;">3</text>
    </g>
    <g transform="matrix(1.33333,0,0,1.33333,-87.6279,-108.517)">
        <text x="342px" y="136.56px" style="font-family:'ArialMT', 'Arial', sans-serif;font-size:8px;">2</text>
    </g>
    <g transform="matrix(1.33333,0,0,1.33333,-87.6279,-108.517)">
        <text x="345.84px" y="163.92px" style="font-family:'ArialMT', 'Arial', sans-serif;font-size:10px;">O</text>
    </g>
    <g transform="matrix(1.33333,0,0,1.33333,-87.6279,-108.517)">
        <text x="356.88px" y="131.28px" style="font-family:'ArialMT', 'Arial', sans-serif;font-size:10px;">CH</text>
        <text x="371.28px" y="133.92px" style="font-family:'ArialMT', 'Arial', sans-serif;font-size:8px;">2</text>
        <text x="358.32px" y="138.72px" style="font-family:'ArialMT', 'Arial', sans-serif;font-size:8px;">1</text>
    </g>
    <g transform="matrix(1.33333,0,0,1.33333,-87.6279,-108.517)">
        <text x="314.4px" y="177.12px" style="font-family:'ArialMT', 'Arial', sans-serif;font-size:10px;">S</text>
        <text x="321.12px" y="177.12px" style="font-family:'ArialMT', 'Arial', sans-serif;font-size:10px;">i</text>
        <text x="323.52px" y="177.12px" style="font-family:'ArialMT', 'Arial', sans-serif;font-size:10px;">M</text>
        <text x="331.92px" y="177.12px" style="font-family:'ArialMT', 'Arial', sans-serif;font-size:10px;">e</text>
        <text x="337.68px" y="179.76px" style="font-family:'ArialMT', 'Arial', sans-serif;font-size:8px;">3</text>
    </g>
    <g transform="matrix(1.33333,0,0,1.33333,-87.6279,-108.517)">
        <text x="444px" y="123.12px" style="font-family:'ArialMT', 'Arial', sans-serif;font-size:10px;">S</text>
    </g>
    <g transform="matrix(1.33333,0,0,1.33333,-87.6279,-108.517)">
        <text x="482.88px" y="136.56px" style="font-family:'ArialMT', 'Arial', sans-serif;font-size:10px;">O</text>
    </g>
    <g transform="matrix(1.33333,0,0,1.33333,-87.6279,-108.517)">
        <text x="512.4px" y="109.68px" style="font-family:'ArialMT', 'Arial', sans-serif;font-size:10px;">CH</text>
        <text x="526.8px" y="112.32px" style="font-family:'ArialMT', 'Arial', sans-serif;font-size:8px;">2</text>
    </g>
    <g transform="matrix(1.33333,0,0,1.33333,-87.6279,-108.517)">
        <text x="506.4px" y="162px" style="font-family:'ArialMT', 'Arial', sans-serif;font-size:10px;">O</text>
    </g>
    <g transform="matrix(1.33333,0,0,1.33333,-87.6279,-108.517)">
        <text x="516.96px" y="129.12px" style="font-family:'ArialMT', 'Arial', sans-serif;font-size:10px;">CH</text>
        <text x="531.36px" y="131.76px" style="font-family:'ArialMT', 'Arial', sans-serif;font-size:8px;">3</text>
    </g>
    <g transform="matrix(1.33333,0,0,1.33333,-87.6279,-108.517)">
        <text x="503.04px" y="161.76px" style="font-family:'ArialMT', 'Arial', sans-serif;font-size:10px;">:</text>
        <text x="514.56px" y="161.04px" style="font-family:'ArialMT', 'Arial', sans-serif;font-size:10px;">:</text>
    </g>
    <g transform="matrix(1.33333,0,0,1.33333,-87.6279,-108.517)">
        <text x="442.8px" y="258.96px" style="font-family:'ArialMT', 'Arial', sans-serif;font-size:10px;">S</text>
    </g>
    <g transform="matrix(1.33333,0,0,1.33333,-87.6279,-108.517)">
        <text x="481.2px" y="273.6px" style="font-family:'ArialMT', 'Arial', sans-serif;font-size:10px;">O</text>
        <text x="489.12px" y="266.64px" style="font-family:'ArialMT', 'Arial', sans-serif;font-size:8px;">–</text>
    </g>
    <g transform="matrix(1.33333,0,0,1.33333,-87.6279,-108.517)">
        <text x="511.44px" y="247.2px" style="font-family:'ArialMT', 'Arial', sans-serif;font-size:10px;">CH</text>
        <text x="525.84px" y="249.84px" style="font-family:'ArialMT', 'Arial', sans-serif;font-size:8px;">2</text>
    </g>
    <g transform="matrix(1.33333,0,0,1.33333,-87.6279,-108.517)">
        <text x="477.36px" y="273.12px" style="font-family:'ArialMT', 'Arial', sans-serif;font-size:10px;">:</text>
    </g>
    <g transform="matrix(-0.0093331,1.3333,-1.3333,-0.0093331,-87.6279,-108.517)">
        <text x="272.298px" y="-485.518px" style="font-family:'ArialMT', 'Arial', sans-serif;font-size:10px;">:</text>
    </g>
    <g transform="matrix(1.33333,0,0,1.33333,-87.6279,-108.517)">
        <text x="489.12px" y="273.6px" style="font-family:'ArialMT', 'Arial', sans-serif;font-size:10px;">:</text>
    </g>
    <g transform="matrix(1.33333,0,0,1.33333,-87.6279,-108.517)">
        <text x="411.36px" y="251.28px" style="font-family:'ArialMT', 'Arial', sans-serif;font-size:18px;">+</text>
    </g>
    <g transform="matrix(1.33333,0,0,1.33333,-87.6279,-108.517)">
        <text x="389.04px" y="227.76px" style="font-family:'ArialMT', 'Arial', sans-serif;font-size:10px;">CH</text>
        <text x="403.44px" y="230.4px" style="font-family:'ArialMT', 'Arial', sans-serif;font-size:8px;">3</text>
        <text x="388.8px" y="267.6px" style="font-family:'ArialMT', 'Arial', sans-serif;font-size:10px;">O</text>
        <text x="396.72px" y="260.64px" style="font-family:'ArialMT', 'Arial', sans-serif;font-size:8px;">+</text>
    </g>
    <g transform="matrix(1.33333,0,0,1.33333,-87.6279,-108.517)">
        <text x="234px" y="238.32px" style="font-family:'ArialMT', 'Arial', sans-serif;font-size:10px;">C</text>
    </g>
    <g transform="matrix(1.33333,0,0,1.33333,-87.6279,-108.517)">
        <text x="222.48px" y="238.32px" style="font-family:'ArialMT', 'Arial', sans-serif;font-size:10px;">H</text>
        <text x="229.68px" y="240.96px" style="font-family:'ArialMT', 'Arial', sans-serif;font-size:8px;">3</text>
    </g>
    <g transform="matrix(1.33333,0,0,1.33333,-87.6279,-108.517)">
        <text x="268.08px" y="238.32px" style="font-family:'ArialMT', 'Arial', sans-serif;font-size:10px;">O</text>
    </g>
    <g transform="matrix(1.33333,0,0,1.33333,-87.6279,-108.517)">
        <text x="302.88px" y="238.32px" style="font-family:'ArialMT', 'Arial', sans-serif;font-size:10px;">CH</text>
        <text x="317.28px" y="240.96px" style="font-family:'ArialMT', 'Arial', sans-serif;font-size:8px;">3</text>
    </g>
    <g transform="matrix(1.33333,0,0,1.33333,-87.6279,-108.517)">
        <text x="251.04px" y="268.08px" style="font-family:'ArialMT', 'Arial', sans-serif;font-size:10px;">O</text>
    </g>
    <g transform="matrix(1.33333,0,0,1.33333,-87.6279,-108.517)">
        <text x="285.36px" y="268.08px" style="font-family:'ArialMT', 'Arial', sans-serif;font-size:10px;">O</text>
    </g>
    <g transform="matrix(1.33333,0,0,1.33333,-87.6279,-108.517)">
        <text x="443.28px" y="378.96px" style="font-family:'ArialMT', 'Arial', sans-serif;font-size:10px;">S</text>
    </g>
    <g transform="matrix(1.33333,0,0,1.33333,-87.6279,-108.517)">
        <text x="481.68px" y="393.6px" style="font-family:'ArialMT', 'Arial', sans-serif;font-size:10px;">O<tspan x="489.6px " y="393.6px ">H</tspan></text>
    </g>
    <g transform="matrix(1.33333,0,0,1.33333,-87.6279,-108.517)">
        <text x="511.92px" y="367.2px" style="font-family:'ArialMT', 'Arial', sans-serif;font-size:10px;">CH</text>
        <text x="526.32px" y="369.84px" style="font-family:'ArialMT', 'Arial', sans-serif;font-size:8px;">2</text>
    </g>
    <g transform="matrix(1.33333,0,0,1.33333,-87.6279,-108.517)">
        <text x="477.6px" y="394.08px" style="font-family:'ArialMT', 'Arial', sans-serif;font-size:10px;">:</text>
    </g>
    <g transform="matrix(0.0233344,-1.33313,1.33313,0.0233344,-87.6279,-108.517)">
        <text x="-388.791px" y="493.6px" style="font-family:'ArialMT', 'Arial', sans-serif;font-size:10px;">:</text>
    </g>
    <g transform="matrix(1.33333,0,0,1.33333,-87.6279,-108.517)">
        <text x="317.04px" y="378.96px" style="font-family:'ArialMT', 'Arial', sans-serif;font-size:10px;">S</text>
    </g>
    <g transform="matrix(1.33333,0,0,1.33333,-87.6279,-108.517)">
        <text x="355.44px" y="393.6px" style="font-family:'ArialMT', 'Arial', sans-serif;font-size:10px;">O</text>
        <text x="363.36px" y="386.64px" style="font-family:'ArialMT', 'Arial', sans-serif;font-size:8px;">+</text>
        <text x="374.64px" y="399.84px" style="font-family:'ArialMT', 'Arial', sans-serif;font-size:10px;">H</text>
    </g>
    <g transform="matrix(1.33333,0,0,1.33333,-87.6279,-108.517)">
        <text x="281.76px" y="370.08px" style="font-family:'ArialMT', 'Arial', sans-serif;font-size:18px;">+</text>
    </g>
    <g transform="matrix(1.33333,0,0,1.33333,-87.6279,-108.517)">
        <text x="245.52px" y="360px" style="font-family:'ArialMT', 'Arial', sans-serif;font-size:10px;">C</text>
    </g>
    <g transform="matrix(1.33333,0,0,1.33333,-87.6279,-108.517)">
        <text x="238.32px" y="360px" style="font-family:'ArialMT', 'Arial', sans-serif;font-size:10px;">H</text>
        <text x="252.72px" y="353.04px" style="font-family:'ArialMT', 'Arial', sans-serif;font-size:8px;">–</text>
        <text x="255.36px" y="377.28px" style="font-family:'ArialMT', 'Arial', sans-serif;font-size:10px;">CH</text>
        <text x="269.76px" y="379.92px" style="font-family:'ArialMT', 'Arial', sans-serif;font-size:8px;">2</text>
    </g>
    <g transform="matrix(-0.076803,-1.33112,1.33112,-0.076803,-87.6279,-108.517)">
        <text x="-365.548px" y="228.663px" style="font-family:'ArialMT', 'Arial', sans-serif;font-size:10px;">:</text>
    </g>
    <g transform="matrix(1.33333,0,0,1.33333,-87.6279,-108.517)">
        <text x="159.84px" y="384.24px" style="font-family:'ArialMT', 'Arial', sans-serif;font-size:10px;">CH</text>
        <text x="174.24px" y="386.88px" style="font-family:'ArialMT', 'Arial', sans-serif;font-size:8px;">2</text>
    </g>
    <g transform="matrix(1.33333,0,0,1.33333,-87.6279,-108.517)">
        <text x="159.36px" y="349.68px" style="font-family:'ArialMT', 'Arial', sans-serif;font-size:10px;">MgBr</text>
    </g>
    <g transform="matrix(1.07223,0.792521,0.792521,-1.07223,-647.319,764.068)">
        <path d="M67.5,730.81L81.8,730.81" style="fill:none;fill-rule:nonzero;stroke:black;stroke-width:0.72px;"/>
    </g>
    <g transform="matrix(-1.0848,0.775239,0.775239,1.0848,-423.997,-826.066)">
        <path d="M87.655,730.48L102.515,730.48" style="fill:none;fill-rule:nonzero;stroke:black;stroke-width:0.72px;"/>
    </g>
    <g transform="matrix(-0.42244,1.26464,1.26464,0.42244,-902.649,-384.263)">
        <path d="M62.097,744.505L82.013,744.505" style="fill:none;fill-rule:nonzero;stroke:black;stroke-width:0.72px;"/>
    </g>
    <g transform="matrix(-0.422174,1.26473,1.26473,0.422174,-895.796,-386.23)">
        <path d="M67.787,743.44L82.693,743.44" style="fill:none;fill-rule:nonzero;stroke:black;stroke-width:0.72px;"/>
    </g>
    <g transform="matrix(0.401701,1.27138,1.27138,-0.401701,-942.491,195.872)">
        <path d="M88.172,744.295L108.088,744.295" style="fill:none;fill-rule:nonzero;stroke:black;stroke-width:0.72px;"/>
    </g>
    <g transform="matrix(0.401723,1.27138,1.27138,-0.401723,-944.189,200.905)">
        <path d="M87.474,743.285L102.376,743.285" style="fill:none;fill-rule:nonzero;stroke:black;stroke-width:0.72px;"/>
    </g>
    <g transform="matrix(-1.33329,-0.0107092,-0.0107092,1.33329,147.562,-995.333)">
        <path d="M75.21,753.87L95.13,753.87" style="fill:none;fill-rule:nonzero;stroke:black;stroke-width:0.72px;"/>
    </g>
    <g transform="matrix(1.26471,0.422239,0.422239,-1.26471,-388.969,917.144)">
        <path d="M100.617,731.645L120.543,731.645" style="fill:none;fill-rule:nonzero;stroke:black;stroke-width:0.72px;"/>
    </g>
    <g transform="matrix(0.997652,-0.884572,-0.884572,-0.997652,604.673,881.458)">
        <path d="M118.632,733.84L138.558,733.84" style="fill:none;fill-rule:nonzero;stroke:black;stroke-width:0.72px;"/>
    </g>
    <g transform="matrix(0.997985,-0.884197,-0.884197,-0.997985,605.831,878.839)">
        <path d="M116.405,736.355L136.325,736.355" style="fill:none;fill-rule:nonzero;stroke:black;stroke-width:0.72px;"/>
    </g>
    <g transform="matrix(1.26484,0.421838,0.421838,-1.26484,-389.287,902.553)">
        <path d="M134.429,738.55L154.341,738.55" style="fill:none;fill-rule:nonzero;stroke:black;stroke-width:0.72px;"/>
    </g>
    <g transform="matrix(0.997985,-0.884197,-0.884197,-0.997985,622.537,907.82)">
        <path d="M151.325,742.005L171.245,742.005" style="fill:none;fill-rule:nonzero;stroke:black;stroke-width:0.72px;"/>
    </g>
    <g transform="matrix(1.26471,0.422239,0.422239,-1.26471,-390.16,887.648)">
        <path d="M168.227,745.455L188.153,745.455" style="fill:none;fill-rule:nonzero;stroke:black;stroke-width:0.72px;"/>
    </g>
    <g transform="matrix(0.267033,1.30632,1.30632,-0.267033,-847.843,-14.4614)">
        <path d="M180.26,734.94L194.59,734.94" style="fill:none;fill-rule:nonzero;stroke:black;stroke-width:0.72px;"/>
    </g>
    <g transform="matrix(0.267118,1.3063,1.3063,-0.267118,-844.708,-19.1474)">
        <path d="M183.273,735.28L198.297,735.28" style="fill:none;fill-rule:nonzero;stroke:black;stroke-width:0.72px;"/>
    </g>
    <g transform="matrix(0.997659,-0.884564,-0.884564,-0.997659,637.503,933.751)">
        <path d="M185.978,746.68L199.182,746.68" style="fill:none;fill-rule:nonzero;stroke:black;stroke-width:0.72px;"/>
    </g>
    <g transform="matrix(1.33333,0,0,1.33333,-87.6279,-947.877)">
        <path d="M188.16,741.36L186.96,742.56L185.52,743.52L183.84,744.24L180.48,744.72L179.28,744.72L176.88,744.24L174.96,743.28L174,742.56L173.28,742.08L172.32,741.12L171.84,740.4L171.12,739.44L170.16,737.52L169.68,735.12L169.68,732.96L170.16,730.56L170.64,729.6L171.12,728.4L171.84,727.68L172.56,726.72" style="fill:none;fill-rule:nonzero;stroke:black;stroke-width:0.48px;"/>
    </g>
    <g transform="matrix(0.96185,-0.923376,-0.923376,-0.96185,659.361,895.43)">
        <path d="M166.149,741.539L174.467,741.539L167.077,737.654L168.22,739.884L166.149,741.539Z" style="stroke:black;stroke-width:0.48px;"/>
    </g>
    <g transform="matrix(1.33333,0,0,1.33333,-87.6279,-977.957)">
        <path d="M139.92,752.4L139.92,750.96L140.4,748.56L141.36,746.64L142.08,745.68L142.8,744.96L143.52,744L144.48,743.52L145.44,742.8L146.4,742.32L147.6,742.08L148.56,741.84L149.76,741.6L151.44,741.6L153.84,742.08L155.76,743.04L157.68,744.48L158.4,745.44L159.12,746.16L159.6,747.12L160.08,748.32L160.56,749.28L160.8,750.48L160.8,751.68" style="fill:none;fill-rule:nonzero;stroke:black;stroke-width:0.48px;"/>
    </g>
    <g transform="matrix(0.078296,1.33103,1.33103,-0.078296,-902.59,-110.128)">
        <path d="M137.287,743.883L145.461,743.883L138.246,747.914L139.303,745.447L137.287,743.883Z" style="stroke:black;stroke-width:0.48px;"/>
    </g>
    <g transform="matrix(1.33333,0,0,1.33333,-87.6279,-874.917)">
        <path d="M188.16,709.92L187.2,712.32L185.76,714.72L184.32,716.88L182.88,718.8L179.04,722.64L177.12,724.08L174.96,725.52L170.16,727.92L167.52,728.64L165.12,729.36L162.24,729.84L159.6,730.08L158.64,730.08L156.24,729.84L154.08,729.6L151.68,729.36L147.36,727.92L145.44,727.2L143.52,726.24L139.68,723.84L136.32,720.96L133.44,717.6L132.24,715.92L131.04,714L130.08,712.08L129.12,709.92L128.4,708L127.68,705.6L127.44,703.44L126.96,701.28L126.96,695.76L127.2,693.36L127.68,691.2L128.4,688.8L129.12,686.64" style="fill:none;fill-rule:nonzero;stroke:black;stroke-width:0.48px;"/>
    </g>
    <g transform="matrix(0.268871,-1.30594,-1.30594,-0.268871,1027.56,508.302)">
        <path d="M181.717,700.957L190.049,700.957L182.872,704.87L183.826,702.616L181.717,700.957Z" style="stroke:black;stroke-width:0.48px;"/>
    </g>
    <g transform="matrix(1.33333,0,0,1.33333,-87.6279,-950.117)">
        <path d="M218.64,736.56L252.72,736.56" style="fill:none;fill-rule:nonzero;stroke:black;stroke-width:0.72px;"/>
    </g>
    <g transform="matrix(1.33333,0,0,1.33333,-87.6279,-957.797)">
        <path d="M218.64,739.44L252.72,739.44" style="fill:none;fill-rule:nonzero;stroke:black;stroke-width:0.72px;"/>
    </g>
    <g transform="matrix(1.33333,0,0,1.33333,-87.6279,-953.957)">
        <path d="M248.16,734.4L256.08,738L248.16,741.6" style="fill:none;fill-rule:nonzero;stroke:black;stroke-width:0.72px;"/>
    </g>
    <g transform="matrix(1.07223,0.792521,0.792521,-1.07223,-593.418,603.658)">
        <path d="M270.3,729.61L284.6,729.61" style="fill:none;fill-rule:nonzero;stroke:black;stroke-width:0.72px;"/>
    </g>
    <g transform="matrix(-1.0848,0.775239,0.775239,1.0848,67.3304,-980.383)">
        <path d="M290.455,729.28L305.315,729.28" style="fill:none;fill-rule:nonzero;stroke:black;stroke-width:0.72px;"/>
    </g>
    <g transform="matrix(-0.42244,1.26464,1.26464,0.42244,-545.06,-638.626)">
        <path d="M264.897,743.305L284.813,743.305" style="fill:none;fill-rule:nonzero;stroke:black;stroke-width:0.72px;"/>
    </g>
    <g transform="matrix(-0.422174,1.26473,1.26473,0.422174,-538.261,-640.611)">
        <path d="M270.587,742.24L285.493,742.24" style="fill:none;fill-rule:nonzero;stroke:black;stroke-width:0.72px;"/>
    </g>
    <g transform="matrix(0.401701,1.27138,1.27138,-0.401701,-752.03,-60.8461)">
        <path d="M290.972,743.095L310.888,743.095" style="fill:none;fill-rule:nonzero;stroke:black;stroke-width:0.72px;"/>
    </g>
    <g transform="matrix(0.401723,1.27138,1.27138,-0.401723,-753.733,-55.8121)">
        <path d="M290.274,742.085L305.176,742.085" style="fill:none;fill-rule:nonzero;stroke:black;stroke-width:0.72px;"/>
    </g>
    <g transform="matrix(-1.33329,-0.0107092,-0.0107092,1.33329,688.34,-989.961)">
        <path d="M278.01,752.67L297.93,752.67" style="fill:none;fill-rule:nonzero;stroke:black;stroke-width:0.72px;"/>
    </g>
    <g transform="matrix(1.26471,0.422239,0.422239,-1.26471,-374.545,831.596)">
        <path d="M303.417,730.445L323.343,730.445" style="fill:none;fill-rule:nonzero;stroke:black;stroke-width:0.72px;"/>
    </g>
    <g transform="matrix(0.997985,-0.884197,-0.884197,-0.997985,672.04,1059.97)">
        <path d="M320.325,733.895L340.245,733.895" style="fill:none;fill-rule:nonzero;stroke:black;stroke-width:0.72px;"/>
    </g>
    <g transform="matrix(1.26491,0.421637,0.421637,-1.26491,-375.268,818.161)">
        <path d="M337.359,738.15L352.221,738.15" style="fill:none;fill-rule:nonzero;stroke:black;stroke-width:0.72px;"/>
    </g>
    <g transform="matrix(0.266775,1.30637,1.30637,-0.266775,-682.563,-177.692)">
        <path d="M317.013,720.165L331.557,720.165" style="fill:none;fill-rule:nonzero;stroke:black;stroke-width:0.72px;"/>
    </g>
    <g transform="matrix(1.26482,0.421907,0.421907,-1.26482,-361.366,822.925)">
        <path d="M331.3,703.81L346.09,703.81" style="fill:none;fill-rule:nonzero;stroke:black;stroke-width:0.72px;"/>
    </g>
    <g transform="matrix(0.266738,1.30638,1.30638,-0.266738,-624.346,-180.031)">
        <path d="M339.852,694.295L354.498,694.295" style="fill:none;fill-rule:nonzero;stroke:black;stroke-width:0.72px;"/>
    </g>
    <g transform="matrix(0.998077,-0.884093,-0.884093,-0.998077,653.523,1088.97)">
        <path d="M345.07,704.825L358.99,704.825" style="fill:none;fill-rule:nonzero;stroke:black;stroke-width:0.72px;"/>
    </g>
    <g transform="matrix(0.997692,-0.884528,-0.884528,-0.997692,657.452,1087.1)">
        <path d="M345.827,708.93L357.373,708.93" style="fill:none;fill-rule:nonzero;stroke:black;stroke-width:0.72px;"/>
    </g>
    <g transform="matrix(-0.998074,0.884096,0.884096,0.998074,112.277,-861.257)">
        <path d="M337.312,674.81L345.968,674.81" style="fill:none;fill-rule:nonzero;stroke:black;stroke-width:0.72px;"/>
    </g>
    <g transform="matrix(1.33333,0,0,1.33333,-87.6279,-950.757)">
        <path d="M379.92,736.8L414,736.8" style="fill:none;fill-rule:nonzero;stroke:black;stroke-width:0.72px;"/>
    </g>
    <g transform="matrix(1.33333,0,0,1.33333,-87.6279,-958.437)">
        <path d="M379.92,739.68L414,739.68" style="fill:none;fill-rule:nonzero;stroke:black;stroke-width:0.72px;"/>
    </g>
    <g transform="matrix(1.33333,0,0,1.33333,-87.6279,-954.597)">
        <path d="M409.44,734.64L417.36,738.24L409.44,741.84" style="fill:none;fill-rule:nonzero;stroke:black;stroke-width:0.72px;"/>
    </g>
    <g transform="matrix(1.06926,-0.796528,-0.796528,-1.06926,614.804,1185.72)">
        <path d="M450.218,730.16L464.982,730.16" style="fill:none;fill-rule:nonzero;stroke:black;stroke-width:0.72px;"/>
    </g>
    <g transform="matrix(0.427055,1.26309,1.26309,-0.427055,-610.188,-241.672)">
        <path d="M450.37,744.005L470.29,744.005" style="fill:none;fill-rule:nonzero;stroke:black;stroke-width:0.72px;"/>
    </g>
    <g transform="matrix(0.426733,1.2632,1.2632,-0.426733,-611.65,-236.964)">
        <path d="M449.693,742.93L464.597,742.93" style="fill:none;fill-rule:nonzero;stroke:black;stroke-width:0.72px;"/>
    </g>
    <g transform="matrix(1.08816,0.77051,0.77051,-1.08816,-542.934,498.221)">
        <path d="M429.966,730.02L444.364,730.02" style="fill:none;fill-rule:nonzero;stroke:black;stroke-width:0.72px;"/>
    </g>
    <g transform="matrix(1.33324,-0.0160631,-0.0160631,-1.33324,-75.484,1021.15)">
        <path d="M437.219,753.32L457.141,753.32" style="fill:none;fill-rule:nonzero;stroke:black;stroke-width:0.72px;"/>
    </g>
    <g transform="matrix(-0.396862,1.2729,1.2729,0.396862,-282.926,-825.45)">
        <path d="M424.294,743.69L444.216,743.69" style="fill:none;fill-rule:nonzero;stroke:black;stroke-width:0.72px;"/>
    </g>
    <g transform="matrix(-0.396324,1.27307,1.27307,0.396324,-276.465,-827.489)">
        <path d="M430.013,742.695L444.917,742.695" style="fill:none;fill-rule:nonzero;stroke:black;stroke-width:0.72px;"/>
    </g>
    <g transform="matrix(1.27309,0.396251,0.396251,-1.27309,-349.033,782.53)">
        <path d="M463.07,731.61L482.99,731.61" style="fill:none;fill-rule:nonzero;stroke:black;stroke-width:0.72px;"/>
    </g>
    <g transform="matrix(0.292836,1.30078,1.30078,-0.292836,-522.483,-366.496)">
        <path d="M476.873,721.565L491.397,721.565" style="fill:none;fill-rule:nonzero;stroke:black;stroke-width:0.72px;"/>
    </g>
    <g transform="matrix(0.9802,-0.903873,-0.903873,-0.9802,750.066,1197.12)">
        <path d="M479.903,735.4L499.817,735.4" style="fill:none;fill-rule:nonzero;stroke:black;stroke-width:0.72px;"/>
    </g>
    <g transform="matrix(1.27305,0.396378,0.396378,-1.27305,-350.52,769.541)">
        <path d="M496.842,739.93L511.778,739.93" style="fill:none;fill-rule:nonzero;stroke:black;stroke-width:0.72px;"/>
    </g>
    <g transform="matrix(1.27295,0.396692,0.396692,-1.27295,-349.253,769.411)">
        <path d="M497.446,736.32L511.764,736.32" style="fill:none;fill-rule:nonzero;stroke:black;stroke-width:0.72px;"/>
    </g>
    <g transform="matrix(1.27318,0.395961,0.395961,-1.27318,-336.97,774.081)">
        <path d="M491.425,705.495L506.275,705.495" style="fill:none;fill-rule:nonzero;stroke:black;stroke-width:0.72px;"/>
    </g>
    <g transform="matrix(0.292415,1.30087,1.30087,-0.292415,-466.451,-368.475)">
        <path d="M498.747,695.98L512.973,695.98" style="fill:none;fill-rule:nonzero;stroke:black;stroke-width:0.72px;"/>
    </g>
    <g transform="matrix(0.293572,1.30061,1.30061,-0.293572,-463.842,-372.293)">
        <path d="M501.726,696.35L516.714,696.35" style="fill:none;fill-rule:nonzero;stroke:black;stroke-width:0.72px;"/>
    </g>
    <g transform="matrix(0.980037,-0.90405,-0.90405,-0.980037,732.9,1225.88)">
        <path d="M504.127,707.93L517.813,707.93" style="fill:none;fill-rule:nonzero;stroke:black;stroke-width:0.72px;"/>
    </g>
    <g transform="matrix(1.33333,0,0,1.33333,-87.6279,-827.877)">
        <path d="M504,699.36L502.32,699.36L501.12,699.12L499.92,698.64L498,697.68L497.28,696.96L495.84,695.04L495.36,694.08L495.12,693.12L494.88,691.92L494.64,691.2L494.64,690.72L495.12,688.32L495.6,687.12L496.08,686.16L496.8,685.2L497.52,684.48L499.44,683.04L500.4,682.56L501.6,682.32L502.08,682.08L502.8,682.08" style="fill:none;fill-rule:nonzero;stroke:black;stroke-width:0.48px;"/>
    </g>
    <g transform="matrix(1.3242,-0.155788,-0.155788,-1.3242,25.5049,1085.37)">
        <path d="M494.836,698.867L503.052,698.867L495.818,694.885L496.813,697.184L494.836,698.867Z" style="stroke:black;stroke-width:0.48px;"/>
    </g>
    <g transform="matrix(1.33333,0,0,1.33333,-87.6279,-869.477)">
        <path d="M494.64,696.72L495.6,698.88L496.32,701.04L496.56,703.44L496.56,704.64L496.08,707.04L495.6,708L495.12,709.2L494.64,710.16L493.92,711.12L493.2,711.84L492.48,712.8L491.52,713.52L490.56,714L489.6,714.72L488.64,715.2L486.24,715.68L485.28,715.92L484.56,715.92" style="fill:none;fill-rule:nonzero;stroke:black;stroke-width:0.48px;"/>
    </g>
    <g transform="matrix(-1.33103,-0.078296,-0.078296,1.33103,1268.95,-807.852)">
        <path d="M484.454,699.837L492.628,699.837L485.399,696.046L486.47,698.273L484.454,699.837Z" style="stroke:black;stroke-width:0.48px;"/>
    </g>
    <g transform="matrix(0,1.33333,1.33333,0,-334.508,-484.037)">
        <path d="M452.76,654.36L485.64,654.36" style="fill:none;fill-rule:nonzero;stroke:black;stroke-width:0.72px;"/>
    </g>
    <g transform="matrix(0,1.33333,1.33333,0,-330.668,-487.877)">
        <path d="M455.64,654.36L488.52,654.36" style="fill:none;fill-rule:nonzero;stroke:black;stroke-width:0.72px;"/>
    </g>
    <g transform="matrix(1.33333,0,0,1.33333,-87.6279,-688.677)">
        <path d="M474.24,634.56L470.64,642.48L467.04,634.56" style="fill:none;fill-rule:nonzero;stroke:black;stroke-width:0.72px;"/>
    </g>
    <g transform="matrix(1.06744,0.798963,0.798963,-1.06744,-446.675,507.56)">
        <path d="M428.874,594.515L443.276,594.515" style="fill:none;fill-rule:nonzero;stroke:black;stroke-width:0.72px;"/>
    </g>
    <g transform="matrix(-1.09027,0.767526,0.767526,1.09027,562.771,-776.238)">
        <path d="M449.136,594.115L463.884,594.115" style="fill:none;fill-rule:nonzero;stroke:black;stroke-width:0.72px;"/>
    </g>
    <g transform="matrix(-0.430259,1.262,1.262,0.430259,-90.6932,-605.791)">
        <path d="M423.562,608.26L443.488,608.26" style="fill:none;fill-rule:nonzero;stroke:black;stroke-width:0.72px;"/>
    </g>
    <g transform="matrix(-0.430214,1.26202,1.26202,0.430214,-83.745,-607.869)">
        <path d="M429.251,607.175L444.159,607.175" style="fill:none;fill-rule:nonzero;stroke:black;stroke-width:0.72px;"/>
    </g>
    <g transform="matrix(0.393431,1.27397,1.27397,-0.393431,-430.067,-142.82)">
        <path d="M449.636,607.88L469.564,607.88" style="fill:none;fill-rule:nonzero;stroke:black;stroke-width:0.72px;"/>
    </g>
    <g transform="matrix(0.393623,1.27391,1.27391,-0.393623,-431.875,-137.657)">
        <path d="M448.938,606.89L463.842,606.89" style="fill:none;fill-rule:nonzero;stroke:black;stroke-width:0.72px;"/>
    </g>
    <g transform="matrix(-1.33319,-0.0194089,-0.0194089,1.33319,1115.49,-623.987)">
        <path d="M436.739,617.545L456.661,617.545" style="fill:none;fill-rule:nonzero;stroke:black;stroke-width:0.72px;"/>
    </g>
    <g transform="matrix(1.26193,0.430464,0.430464,-1.26193,-310.118,768.386)">
        <path d="M462.007,595.145L481.923,595.145" style="fill:none;fill-rule:nonzero;stroke:black;stroke-width:0.72px;"/>
    </g>
    <g transform="matrix(0.258189,1.3081,1.3081,-0.258189,-333.351,-246.153)">
        <path d="M475.435,584.685L490.205,584.685" style="fill:none;fill-rule:nonzero;stroke:black;stroke-width:0.72px;"/>
    </g>
    <g transform="matrix(1.00393,-0.877437,-0.877437,-1.00393,598.546,1245.87)">
        <path d="M478.929,598.485L498.851,598.485" style="fill:none;fill-rule:nonzero;stroke:black;stroke-width:0.72px;"/>
    </g>
    <g transform="matrix(1.26211,0.429958,0.429958,-1.26211,-310.88,754.663)">
        <path d="M495.992,602.64L510.878,602.64" style="fill:none;fill-rule:nonzero;stroke:black;stroke-width:0.72px;"/>
    </g>
    <g transform="matrix(1.26191,0.430534,0.430534,-1.26191,-309.548,754.408)">
        <path d="M496.495,599.01L510.865,599.01" style="fill:none;fill-rule:nonzero;stroke:black;stroke-width:0.72px;"/>
    </g>
    <g transform="matrix(0,-1.33333,-1.33333,0,1243.41,730.043)">
        <path d="M385.32,605.64L399.96,605.64" style="fill:none;fill-rule:nonzero;stroke:black;stroke-width:0.72px;"/>
    </g>
    <g transform="matrix(0,-1.33333,-1.33333,0,1223.73,749.723)">
        <path d="M385.2,590.88L400.08,590.88" style="fill:none;fill-rule:nonzero;stroke:black;stroke-width:0.72px;"/>
    </g>
    <g transform="matrix(0,-1.33333,-1.33333,0,1219.25,745.243)">
        <path d="M381.84,590.88L396.72,590.88" style="fill:none;fill-rule:nonzero;stroke:black;stroke-width:0.72px;"/>
    </g>
    <g transform="matrix(0,-1.33333,-1.33333,0,1231.57,750.843)">
        <path d="M391.08,593.4L400.92,593.4" style="fill:none;fill-rule:nonzero;stroke:black;stroke-width:0.72px;"/>
    </g>
    <g transform="matrix(-1.33333,0,0,1.33333,849.652,-582.757)">
        <path d="M334.8,598.8L368.16,598.8" style="fill:none;fill-rule:nonzero;stroke:black;stroke-width:0.72px;"/>
    </g>
    <g transform="matrix(-1.33333,0,0,1.33333,849.652,-575.077)">
        <path d="M334.8,595.92L368.16,595.92" style="fill:none;fill-rule:nonzero;stroke:black;stroke-width:0.72px;"/>
    </g>
    <g transform="matrix(1.33333,0,0,1.33333,-87.6279,-578.917)">
        <path d="M339.36,600.96L331.44,597.36L339.36,593.76" style="fill:none;fill-rule:nonzero;stroke:black;stroke-width:0.72px;"/>
    </g>
    <g transform="matrix(-1.15475,-0.666584,-0.666584,1.15475,931.591,-316.471)">
        <path d="M241.174,601.34L255.896,601.34" style="fill:none;fill-rule:nonzero;stroke:black;stroke-width:0.72px;"/>
    </g>
    <g transform="matrix(-1.15468,0.666706,0.666706,1.15468,160.967,-655.733)">
        <path d="M253.965,601.185L268.065,601.185" style="fill:none;fill-rule:nonzero;stroke:black;stroke-width:0.72px;"/>
    </g>
    <g transform="matrix(-1.15462,-0.666805,-0.666805,1.15462,1017.84,-293.023)">
        <path d="M275.996,601.255L290.374,601.255" style="fill:none;fill-rule:nonzero;stroke:black;stroke-width:0.72px;"/>
    </g>
    <g transform="matrix(-1.15481,0.666483,0.666483,1.15481,247.292,-679.057)">
        <path d="M288.443,601.27L302.887,601.27" style="fill:none;fill-rule:nonzero;stroke:black;stroke-width:0.72px;"/>
    </g>
    <g transform="matrix(0,1.33333,1.33333,0,-537.068,-110.677)">
        <path d="M245.88,590.31L260.58,590.31" style="fill:none;fill-rule:nonzero;stroke:black;stroke-width:0.72px;"/>
    </g>
    <g transform="matrix(0,1.33333,1.33333,0,-532.588,-115.157)">
        <path d="M249.24,590.31L263.94,590.31" style="fill:none;fill-rule:nonzero;stroke:black;stroke-width:0.72px;"/>
    </g>
    <g transform="matrix(0,1.33333,1.33333,0,-491.068,-156.677)">
        <path d="M280.38,590.31L295.08,590.31" style="fill:none;fill-rule:nonzero;stroke:black;stroke-width:0.72px;"/>
    </g>
    <g transform="matrix(0,1.33333,1.33333,0,-486.588,-161.157)">
        <path d="M283.74,590.31L298.44,590.31" style="fill:none;fill-rule:nonzero;stroke:black;stroke-width:0.72px;"/>
    </g>
    <g transform="matrix(0,1.33333,1.33333,0,-171.628,-322.437)">
        <path d="M450.36,532.68L489,532.68" style="fill:none;fill-rule:nonzero;stroke:black;stroke-width:0.72px;"/>
    </g>
    <g transform="matrix(0,1.33333,1.33333,0,-167.788,-326.277)">
        <path d="M453.24,532.68L491.88,532.68" style="fill:none;fill-rule:nonzero;stroke:black;stroke-width:0.72px;"/>
    </g>
    <g transform="matrix(1.33333,0,0,1.33333,-87.6279,-356.517)">
        <path d="M474.72,510L471.12,517.92L467.52,510" style="fill:none;fill-rule:nonzero;stroke:black;stroke-width:0.72px;"/>
    </g>
    <g transform="matrix(1.06744,0.798963,0.798963,-1.06744,-350.672,539.083)">
        <path d="M429.354,474.515L443.756,474.515" style="fill:none;fill-rule:nonzero;stroke:black;stroke-width:0.72px;"/>
    </g>
    <g transform="matrix(-1.09027,0.767526,0.767526,1.09027,656.037,-485.774)">
        <path d="M449.616,474.115L464.364,474.115" style="fill:none;fill-rule:nonzero;stroke:black;stroke-width:0.72px;"/>
    </g>
    <g transform="matrix(-0.430259,1.262,1.262,0.430259,61.5938,-394.765)">
        <path d="M424.042,488.26L443.968,488.26" style="fill:none;fill-rule:nonzero;stroke:black;stroke-width:0.72px;"/>
    </g>
    <g transform="matrix(-0.430214,1.26202,1.26202,0.430214,68.5439,-396.85)">
        <path d="M429.731,487.175L444.639,487.175" style="fill:none;fill-rule:nonzero;stroke:black;stroke-width:0.72px;"/>
    </g>
    <g transform="matrix(0.393431,1.27397,1.27397,-0.393431,-276.74,-30.6434)">
        <path d="M450.116,487.88L470.044,487.88" style="fill:none;fill-rule:nonzero;stroke:black;stroke-width:0.72px;"/>
    </g>
    <g transform="matrix(0.393623,1.27391,1.27391,-0.393623,-278.555,-25.5028)">
        <path d="M449.418,486.89L464.322,486.89" style="fill:none;fill-rule:nonzero;stroke:black;stroke-width:0.72px;"/>
    </g>
    <g transform="matrix(-1.33319,-0.0194089,-0.0194089,1.33319,1114.45,-303.994)">
        <path d="M437.219,497.545L457.141,497.545" style="fill:none;fill-rule:nonzero;stroke:black;stroke-width:0.72px;"/>
    </g>
    <g transform="matrix(1.26193,0.430464,0.430464,-1.26193,-258.429,776.747)">
        <path d="M462.487,475.145L482.403,475.145" style="fill:none;fill-rule:nonzero;stroke:black;stroke-width:0.72px;"/>
    </g>
    <g transform="matrix(0.258189,1.3081,1.3081,-0.258189,-175.863,-117.764)">
        <path d="M475.915,464.685L490.685,464.685" style="fill:none;fill-rule:nonzero;stroke:black;stroke-width:0.72px;"/>
    </g>
    <g transform="matrix(1.00393,-0.877437,-0.877437,-1.00393,493.411,1285.82)">
        <path d="M479.409,478.485L499.331,478.485" style="fill:none;fill-rule:nonzero;stroke:black;stroke-width:0.72px;"/>
    </g>
    <g transform="matrix(1.26211,0.429958,0.429958,-1.26211,-259.251,763.003)">
        <path d="M496.472,482.64L511.358,482.64" style="fill:none;fill-rule:nonzero;stroke:black;stroke-width:0.72px;"/>
    </g>
    <g transform="matrix(1.26191,0.430534,0.430534,-1.26191,-257.85,762.772)">
        <path d="M496.975,479.01L511.345,479.01" style="fill:none;fill-rule:nonzero;stroke:black;stroke-width:0.72px;"/>
    </g>
    <g transform="matrix(1.33333,0,0,1.33333,-87.6279,-211.877)">
        <path d="M478.56,468L476.16,467.52L474.24,466.56L473.28,465.84L472.56,465.12L471.84,464.16L471.36,463.2L470.88,462L470.64,460.8L470.64,458.64L470.88,457.44L471.36,456.48L471.84,455.28L472.56,454.56L473.28,453.6L474,452.88L474.96,452.4L476.16,451.92L477.12,451.68L478.32,451.44L479.28,451.44" style="fill:none;fill-rule:nonzero;stroke:black;stroke-width:0.48px;"/>
    </g>
    <g transform="matrix(1.33276,0.0391987,0.0391987,-1.33276,-105.633,995.147)">
        <path d="M471.065,468.119L479.229,468.119L471.898,464.302L473.034,466.496L471.065,468.119Z" style="stroke:black;stroke-width:0.48px;"/>
    </g>
    <g transform="matrix(1.33333,0,0,1.33333,-87.6279,-263.397)">
        <path d="M501.36,488.88L498.48,489.12L496.8,489.12L495.12,488.88L493.44,488.4L490.56,486.96L489.12,486L486.72,483.6L485.76,482.4L484.32,479.52L483.36,476.16L483.36,471.36L484.08,468.96" style="fill:none;fill-rule:nonzero;stroke:black;stroke-width:0.48px;"/>
    </g>
    <g transform="matrix(1.27603,-0.386677,-0.386677,-1.27603,122.156,1179.46)">
        <path d="M493.013,468.001L501.289,468.001L493.967,471.976L495.018,469.651L493.013,468.001Z" style="stroke:black;stroke-width:0.48px;"/>
    </g>
    <g transform="matrix(-1.33333,0,0,1.33333,969.972,-264.677)">
        <path d="M379.2,479.52L414,479.52" style="fill:none;fill-rule:nonzero;stroke:black;stroke-width:0.72px;"/>
    </g>
    <g transform="matrix(-1.33333,0,0,1.33333,969.972,-256.997)">
        <path d="M379.2,476.64L414,476.64" style="fill:none;fill-rule:nonzero;stroke:black;stroke-width:0.72px;"/>
    </g>
    <g transform="matrix(1.33333,0,0,1.33333,-87.6279,-260.837)">
        <path d="M383.76,481.68L375.84,478.08L383.76,474.48" style="fill:none;fill-rule:nonzero;stroke:black;stroke-width:0.72px;"/>
    </g>
    <g transform="matrix(1.06744,0.798963,0.798963,-1.06744,-384.238,639.944)">
        <path d="M303.114,474.515L317.516,474.515" style="fill:none;fill-rule:nonzero;stroke:black;stroke-width:0.72px;"/>
    </g>
    <g transform="matrix(-1.09027,0.767526,0.767526,1.09027,350.082,-388.882)">
        <path d="M323.376,474.115L338.124,474.115" style="fill:none;fill-rule:nonzero;stroke:black;stroke-width:0.72px;"/>
    </g>
    <g transform="matrix(-0.430259,1.262,1.262,0.430259,-161.042,-235.45)">
        <path d="M297.802,488.26L317.728,488.26" style="fill:none;fill-rule:nonzero;stroke:black;stroke-width:0.72px;"/>
    </g>
    <g transform="matrix(-0.430214,1.26202,1.26202,0.430214,-154.086,-237.532)">
        <path d="M303.491,487.175L318.399,487.175" style="fill:none;fill-rule:nonzero;stroke:black;stroke-width:0.72px;"/>
    </g>
    <g transform="matrix(0.393431,1.27397,1.27397,-0.393431,-395.393,130.182)">
        <path d="M323.876,487.88L343.804,487.88" style="fill:none;fill-rule:nonzero;stroke:black;stroke-width:0.72px;"/>
    </g>
    <g transform="matrix(0.393623,1.27391,1.27391,-0.393623,-397.184,135.315)">
        <path d="M323.178,486.89L338.082,486.89" style="fill:none;fill-rule:nonzero;stroke:black;stroke-width:0.72px;"/>
    </g>
    <g transform="matrix(-1.33319,-0.0194089,-0.0194089,1.33319,777.824,-306.445)">
        <path d="M310.979,497.545L330.901,497.545" style="fill:none;fill-rule:nonzero;stroke:black;stroke-width:0.72px;"/>
    </g>
    <g transform="matrix(1.26193,0.430464,0.430464,-1.26193,-267.442,831.089)">
        <path d="M336.247,475.145L356.163,475.145" style="fill:none;fill-rule:nonzero;stroke:black;stroke-width:0.72px;"/>
    </g>
    <g transform="matrix(0.258189,1.3081,1.3081,-0.258189,-311.59,47.3702)">
        <path d="M349.675,464.685L364.445,464.685" style="fill:none;fill-rule:nonzero;stroke:black;stroke-width:0.72px;"/>
    </g>
    <g transform="matrix(0.258191,1.3081,1.3081,-0.258191,-313.534,52.7764)">
        <path d="M347.642,463.545L360.088,463.545" style="fill:none;fill-rule:nonzero;stroke:black;stroke-width:0.72px;"/>
    </g>
    <g transform="matrix(1.26205,0.430122,0.430122,-1.26205,-254.512,823.311)">
        <path d="M364.056,449.145L373.944,449.145" style="fill:none;fill-rule:nonzero;stroke:black;stroke-width:0.72px;"/>
    </g>
    <g transform="matrix(-0.666468,-1.15482,-1.15482,0.666468,975.769,354.384)">
        <path d="M251.434,477.65L260.416,477.65" style="fill:none;fill-rule:nonzero;stroke:black;stroke-width:0.72px;"/>
    </g>
    <g transform="matrix(-0.666902,-1.15456,-1.15456,0.666902,967.996,350.977)">
        <path d="M248.206,477.145L256.464,477.145" style="fill:none;fill-rule:nonzero;stroke:black;stroke-width:0.72px;"/>
    </g>
    <g transform="matrix(-1.33333,0,0,1.33333,471.412,-265.957)">
        <path d="M192,480L227.28,480" style="fill:none;fill-rule:nonzero;stroke:black;stroke-width:0.72px;"/>
    </g>
    <g transform="matrix(-1.33333,0,0,1.33333,471.412,-258.277)">
        <path d="M192,477.12L227.28,477.12" style="fill:none;fill-rule:nonzero;stroke:black;stroke-width:0.72px;"/>
    </g>
    <g transform="matrix(1.33333,0,0,1.33333,-87.6279,-262.117)">
        <path d="M196.56,482.16L188.64,478.56L196.56,474.96" style="fill:none;fill-rule:nonzero;stroke:black;stroke-width:0.72px;"/>
    </g>
    <g transform="matrix(-0.666706,-1.15468,-1.15468,0.666706,772.801,249.712)">
        <path d="M150.135,472.905L164.235,472.905" style="fill:none;fill-rule:nonzero;stroke:black;stroke-width:0.72px;"/>
    </g>
    <g transform="matrix(-0.666805,-1.15462,-1.15462,0.666805,780.549,253.815)">
        <path d="M153.806,473.025L168.184,473.025" style="fill:none;fill-rule:nonzero;stroke:black;stroke-width:0.72px;"/>
    </g>
    <g transform="matrix(0.666989,-1.15451,-1.15451,-0.666989,577.047,872.264)">
        <path d="M150.188,485.025L164.082,485.025" style="fill:none;fill-rule:nonzero;stroke:black;stroke-width:0.72px;"/>
    </g>
</svg>
