<?xml version="1.0" encoding="UTF-8" standalone="no"?>
<!DOCTYPE svg PUBLIC "-//W3C//DTD SVG 1.1//EN" "http://www.w3.org/Graphics/SVG/1.1/DTD/svg11.dtd">
<svg width="100%" height="100%" viewBox="0 0 510 615" version="1.1" xmlns="http://www.w3.org/2000/svg" xmlns:xlink="http://www.w3.org/1999/xlink" xml:space="preserve" xmlns:serif="http://www.serif.com/" style="fill-rule:evenodd;clip-rule:evenodd;stroke-linecap:round;stroke-linejoin:round;stroke-miterlimit:10;">
    <g transform="matrix(1.33333,0,0,1.33333,-94.4426,-125.847)">
        <text x="162px" y="129.6px" style="font-family:'ArialMT', 'Arial', sans-serif;font-size:10px;">R</text>
        <text x="169.44px" y="122.64px" style="font-family:'ArialMT', 'Arial', sans-serif;font-size:8px;">1</text>
    </g>
    <g transform="matrix(1.33333,0,0,1.33333,-94.4426,-125.847)">
        <text x="92.88px" y="109.68px" style="font-family:'ArialMT', 'Arial', sans-serif;font-size:10px;">O</text>
    </g>
    <g transform="matrix(1.33333,0,0,1.33333,-94.4426,-125.847)">
        <text x="75.84px" y="139.44px" style="font-family:'ArialMT', 'Arial', sans-serif;font-size:10px;">R</text>
    </g>
    <g transform="matrix(1.33333,0,0,1.33333,-94.4426,-125.847)">
        <text x="144.48px" y="159.36px" style="font-family:'ArialMT', 'Arial', sans-serif;font-size:10px;">O</text>
    </g>
    <g transform="matrix(-0.0115996,1.33328,-1.33328,-0.0115996,-94.4426,-125.847)">
        <text x="96.761px" y="-96.845px" style="font-family:'ArialMT', 'Arial', sans-serif;font-size:10px;">:</text>
    </g>
    <g transform="matrix(1.33333,0,0,1.33333,-94.4426,-125.847)">
        <text x="101.52px" y="107.76px" style="font-family:'ArialMT', 'Arial', sans-serif;font-size:10px;">:</text>
    </g>
    <g transform="matrix(1.33333,0,0,1.33333,-94.4426,-125.847)">
        <text x="240.96px" y="129.12px" style="font-family:'ArialMT', 'Arial', sans-serif;font-size:10px;">R</text>
    </g>
    <g transform="matrix(1.33333,0,0,1.33333,-94.4426,-125.847)">
        <text x="248.4px" y="117.6px" style="font-family:'ArialMT', 'Arial', sans-serif;font-size:10px;">_</text>
        <text x="249.36px" y="128.16px" style="font-family:'ArialMT', 'Arial', sans-serif;font-size:10px;">:</text>
        <text x="271.44px" y="131.76px" style="font-family:'ArialMT', 'Arial', sans-serif;font-size:18px;">+</text>
    </g>
    <g transform="matrix(1.33333,0,0,1.33333,-94.4426,-125.847)">
        <text x="385.68px" y="128.64px" style="font-family:'ArialMT', 'Arial', sans-serif;font-size:10px;">R</text>
        <text x="393.12px" y="121.68px" style="font-family:'ArialMT', 'Arial', sans-serif;font-size:8px;">1</text>
    </g>
    <g transform="matrix(1.33333,0,0,1.33333,-94.4426,-125.847)">
        <text x="368.16px" y="158.4px" style="font-family:'ArialMT', 'Arial', sans-serif;font-size:10px;">O</text>
    </g>
    <g transform="matrix(1.33333,0,0,1.33333,-94.4426,-125.847)">
        <text x="299.28px" y="118.56px" style="font-family:'ArialMT', 'Arial', sans-serif;font-size:10px;">O</text>
        <text x="307.2px" y="111.6px" style="font-family:'ArialMT', 'Arial', sans-serif;font-size:8px;">+</text>
    </g>
    <g transform="matrix(1.33333,0,0,1.33333,-94.4426,-125.847)">
        <text x="218.16px" y="191.04px" style="font-family:'ArialMT', 'Arial', sans-serif;font-size:10px;">R</text>
        <text x="237.6px" y="191.04px" style="font-family:'ArialMT', 'Arial', sans-serif;font-size:10px;">M</text>
        <text x="246.001px" y="191.04px" style="font-family:'ArialMT', 'Arial', sans-serif;font-size:10px;">g</text>
        <text x="251.523px" y="191.04px" style="font-family:'ArialMT', 'Arial', sans-serif;font-size:10px;">B</text>
        <text x="258.244px" y="191.04px" style="font-family:'ArialMT', 'Arial', sans-serif;font-size:10px;">r</text>
        <text x="266.618px" y="193.92px" style="font-family:'ArialMT', 'Arial', sans-serif;font-size:18px;">+</text>
        <text x="282.72px" y="190.56px" style="font-family:'ArialMT', 'Arial', sans-serif;font-size:10px;">CuI</text>
    </g>
    <g transform="matrix(1.33333,0,0,1.33333,-94.4426,-125.847)">
        <text x="393.36px" y="256.32px" style="font-family:'ArialMT', 'Arial', sans-serif;font-size:10px;">R</text>
        <text x="400.8px" y="249.36px" style="font-family:'ArialMT', 'Arial', sans-serif;font-size:8px;">1</text>
    </g>
    <g transform="matrix(1.33333,0,0,1.33333,-94.4426,-125.847)">
        <text x="324px" y="236.4px" style="font-family:'ArialMT', 'Arial', sans-serif;font-size:10px;">O</text>
    </g>
    <g transform="matrix(1.33333,0,0,1.33333,-94.4426,-125.847)">
        <text x="302.4px" y="266.16px" style="font-family:'ArialMT', 'Arial', sans-serif;font-size:10px;">Cl</text>
    </g>
    <g transform="matrix(1.33333,0,0,1.33333,-94.4426,-125.847)">
        <text x="375.84px" y="286.08px" style="font-family:'ArialMT', 'Arial', sans-serif;font-size:10px;">O</text>
    </g>
    <g transform="matrix(1.33333,0,0,1.33333,-94.4426,-125.847)">
        <text x="395.28px" y="359.04px" style="font-family:'ArialMT', 'Arial', sans-serif;font-size:10px;">R</text>
        <text x="402.72px" y="352.08px" style="font-family:'ArialMT', 'Arial', sans-serif;font-size:8px;">1</text>
    </g>
    <g transform="matrix(1.33333,0,0,1.33333,-94.4426,-125.847)">
        <text x="325.92px" y="339.12px" style="font-family:'ArialMT', 'Arial', sans-serif;font-size:10px;">O</text>
    </g>
    <g transform="matrix(1.33333,0,0,1.33333,-94.4426,-125.847)">
        <text x="308.88px" y="368.88px" style="font-family:'ArialMT', 'Arial', sans-serif;font-size:10px;">O</text>
    </g>
    <g transform="matrix(1.33333,0,0,1.33333,-94.4426,-125.847)">
        <text x="301.68px" y="368.88px" style="font-family:'ArialMT', 'Arial', sans-serif;font-size:10px;">H</text>
    </g>
    <g transform="matrix(1.33333,0,0,1.33333,-94.4426,-125.847)">
        <text x="377.76px" y="388.8px" style="font-family:'ArialMT', 'Arial', sans-serif;font-size:10px;">O</text>
    </g>
    <g transform="matrix(1.33333,0,0,1.33333,-94.4426,-125.847)">
        <text x="360.72px" y="339.12px" style="font-family:'ArialMT', 'Arial', sans-serif;font-size:10px;">H</text>
    </g>
    <g transform="matrix(1.33333,0,0,1.33333,-94.4426,-125.847)">
        <text x="314.16px" y="483.12px" style="font-family:'ArialMT', 'Arial', sans-serif;font-size:10px;">CH</text>
        <text x="328.56px" y="485.76px" style="font-family:'ArialMT', 'Arial', sans-serif;font-size:8px;">2</text>
    </g>
    <g transform="matrix(1.33333,0,0,1.33333,-94.4426,-125.847)">
        <text x="328.56px" y="476.16px" style="font-family:'ArialMT', 'Arial', sans-serif;font-size:8px;">–</text>
        <text x="279.6px" y="481.68px" style="font-family:'ArialMT', 'Arial', sans-serif;font-size:10px;">O</text>
    </g>
    <g transform="matrix(1.33333,0,0,1.33333,-94.4426,-125.847)">
        <text x="272.4px" y="481.68px" style="font-family:'ArialMT', 'Arial', sans-serif;font-size:10px;">H</text>
    </g>
    <g transform="matrix(1.33333,0,0,1.33333,-94.4426,-125.847)">
        <text x="297.84px" y="452.64px" style="font-family:'ArialMT', 'Arial', sans-serif;font-size:10px;">O</text>
    </g>
    <g transform="matrix(0.187871,1.32003,-1.32003,0.187871,-94.4426,-125.847)">
        <text x="512.002px" y="-246.012px" style="font-family:'ArialMT', 'Arial', sans-serif;font-size:10px;">:</text>
    </g>
    <g transform="matrix(1.33333,0,0,1.33333,-94.4426,-125.847)">
        <text x="340.8px" y="475.2px" style="font-family:'ArialMT', 'Arial', sans-serif;font-size:18px;">+</text>
        <text x="363.6px" y="469.44px" style="font-family:'ArialMT', 'Arial', sans-serif;font-size:10px;">H</text>
        <text x="370.813px" y="472.08px" style="font-family:'ArialMT', 'Arial', sans-serif;font-size:8px;">2</text>
        <text x="375.135px" y="469.44px" style="font-family:'ArialMT', 'Arial', sans-serif;font-size:10px;">C</text>
    </g>
    <g transform="matrix(1.33333,0,0,1.33333,-94.4426,-125.847)">
        <text x="408.48px" y="490.8px" style="font-family:'ArialMT', 'Arial', sans-serif;font-size:10px;">O</text>
    </g>
    <g transform="matrix(1.33333,0,0,1.33333,-94.4426,-125.847)">
        <text x="427.2px" y="461.52px" style="font-family:'ArialMT', 'Arial', sans-serif;font-size:10px;">R</text>
        <text x="434.64px" y="454.56px" style="font-family:'ArialMT', 'Arial', sans-serif;font-size:8px;">1</text>
    </g>
    <g transform="matrix(1.33333,0,0,1.33333,-94.4426,-125.847)">
        <text x="287.04px" y="550.32px" style="font-family:'ArialMT', 'Arial', sans-serif;font-size:10px;">C</text>
        <text x="294.249px" y="543.36px" style="font-family:'ArialMT', 'Arial', sans-serif;font-size:8px;">–</text>
        <text x="306.96px" y="550.32px" style="font-family:'ArialMT', 'Arial', sans-serif;font-size:10px;"><tspan x="306.96px " y="550.32px ">N</tspan></text>
    </g>
    <g transform="matrix(1.33333,0,0,1.33333,-94.4426,-125.847)">
        <text x="283.92px" y="549.12px" style="font-family:'ArialMT', 'Arial', sans-serif;font-size:10px;">:</text>
    </g>
    <g transform="matrix(1.15468,0.666702,0.666702,-1.15468,-549.877,799.352)">
        <path d="M95.446,711.36L115.364,711.36" style="fill:none;fill-rule:nonzero;stroke:black;stroke-width:0.72px;"/>
    </g>
    <g transform="matrix(1.15468,-0.666702,-0.666702,-1.15468,401.735,951.4)">
        <path d="M112.696,711.36L132.614,711.36" style="fill:none;fill-rule:nonzero;stroke:black;stroke-width:0.72px;"/>
    </g>
    <g transform="matrix(1.15468,0.666702,0.666702,-1.15468,-543.713,776.351)">
        <path d="M129.946,711.36L149.864,711.36" style="fill:none;fill-rule:nonzero;stroke:black;stroke-width:0.72px;"/>
    </g>
    <g transform="matrix(1.15481,-0.666483,-0.666483,-1.15481,406.387,973.122)">
        <path d="M147.563,709.99L162.007,709.99" style="fill:none;fill-rule:nonzero;stroke:black;stroke-width:0.72px;"/>
    </g>
    <g transform="matrix(0,-1.33333,-1.33333,0,1001.76,163.073)">
        <path d="M91.11,723.69L105.81,723.69" style="fill:none;fill-rule:nonzero;stroke:black;stroke-width:0.72px;"/>
    </g>
    <g transform="matrix(0,-1.33333,-1.33333,0,997.277,158.593)">
        <path d="M87.75,723.69L102.45,723.69" style="fill:none;fill-rule:nonzero;stroke:black;stroke-width:0.72px;"/>
    </g>
    <g transform="matrix(-1.15464,0.666766,0.666766,1.15464,-344.725,-836.613)">
        <path d="M83.011,712.65L97.769,712.65" style="fill:none;fill-rule:nonzero;stroke:black;stroke-width:0.72px;"/>
    </g>
    <g transform="matrix(0,1.33333,1.33333,0,-830.683,-131.127)">
        <path d="M139.5,699.03L154.2,699.03" style="fill:none;fill-rule:nonzero;stroke:black;stroke-width:0.72px;"/>
    </g>
    <g transform="matrix(0,1.33333,1.33333,0,-826.203,-135.607)">
        <path d="M142.86,699.03L157.56,699.03" style="fill:none;fill-rule:nonzero;stroke:black;stroke-width:0.72px;"/>
    </g>
    <g transform="matrix(1.33333,0,0,1.33333,-94.4426,-941.527)">
        <path d="M91.44,735.84L90.24,735.84L89.04,735.6L86.16,734.16L85.2,733.44L84.48,732.48L83.76,731.76L83.28,730.8L82.8,729.6L82.56,728.64L82.56,725.76L83.04,723.36L83.52,722.4L84.24,721.44L85.68,720L86.64,719.28L88.56,718.32L90.96,717.84L91.44,717.84" style="fill:none;fill-rule:nonzero;stroke:black;stroke-width:0.48px;"/>
    </g>
    <g transform="matrix(1.33276,0.0391987,0.0391987,-1.33276,-122.611,992.874)">
        <path d="M83.335,717.961L91.498,717.961L84.181,721.827L85.212,719.457L83.335,717.961Z" style="stroke:black;stroke-width:0.48px;"/>
    </g>
    <g transform="matrix(1.33333,0,0,1.33333,-94.4426,-889.047)">
        <path d="M74.4,695.52L76.32,695.52L78,696L79.44,696.24L81.12,696.96L82.56,697.68L84,698.64L85.2,699.6L86.4,700.8L87.36,702.24L88.08,703.44L88.8,705.12L89.52,706.56L90,709.92L90,712.8L89.76,714.48L88.8,717.36L88.08,718.8" style="fill:none;fill-rule:nonzero;stroke:black;stroke-width:0.48px;"/>
    </g>
    <g transform="matrix(-0.774984,1.08498,1.08498,0.774984,-662.733,-576.435)">
        <path d="M86.937,700.018L95.195,700.018L87.997,696.057L88.918,698.484L86.937,700.018Z" style="stroke:black;stroke-width:0.48px;"/>
    </g>
    <g transform="matrix(1.33333,0,0,1.33333,-94.4426,-911.127)">
        <path d="M188.88,715.44L222.96,715.44" style="fill:none;fill-rule:nonzero;stroke:black;stroke-width:0.72px;"/>
    </g>
    <g transform="matrix(1.33333,0,0,1.33333,-94.4426,-918.807)">
        <path d="M188.88,718.32L222.96,718.32" style="fill:none;fill-rule:nonzero;stroke:black;stroke-width:0.72px;"/>
    </g>
    <g transform="matrix(1.33333,0,0,1.33333,-94.4426,-914.967)">
        <path d="M218.4,713.28L226.32,716.88L218.4,720.48" style="fill:none;fill-rule:nonzero;stroke:black;stroke-width:0.72px;"/>
    </g>
    <g transform="matrix(1.15468,0.666702,0.666702,-1.15468,-510.556,650.053)">
        <path d="M319.126,712.32L339.044,712.32" style="fill:none;fill-rule:nonzero;stroke:black;stroke-width:0.72px;"/>
    </g>
    <g transform="matrix(1.15468,-0.666702,-0.666702,-1.15468,442.337,1100.36)">
        <path d="M336.376,712.32L356.294,712.32" style="fill:none;fill-rule:nonzero;stroke:black;stroke-width:0.72px;"/>
    </g>
    <g transform="matrix(1.15468,0.666702,0.666702,-1.15468,-504.392,627.052)">
        <path d="M353.626,712.32L373.544,712.32" style="fill:none;fill-rule:nonzero;stroke:black;stroke-width:0.72px;"/>
    </g>
    <g transform="matrix(1.15481,-0.666483,-0.666483,-1.15481,446.96,1122.03)">
        <path d="M371.243,710.95L385.687,710.95" style="fill:none;fill-rule:nonzero;stroke:black;stroke-width:0.72px;"/>
    </g>
    <g transform="matrix(0,1.33333,1.33333,0,-533.723,-430.647)">
        <path d="M363.18,699.99L377.88,699.99" style="fill:none;fill-rule:nonzero;stroke:black;stroke-width:0.72px;"/>
    </g>
    <g transform="matrix(0,1.33333,1.33333,0,-529.243,-435.127)">
        <path d="M366.54,699.99L381.24,699.99" style="fill:none;fill-rule:nonzero;stroke:black;stroke-width:0.72px;"/>
    </g>
    <g transform="matrix(-1.15476,-0.666568,-0.666568,1.15476,1168.08,-587.319)">
        <path d="M307.209,720.85L321.411,720.85" style="fill:none;fill-rule:nonzero;stroke:black;stroke-width:0.72px;"/>
    </g>
    <g transform="matrix(-1.1547,-0.666667,-0.666667,1.1547,1160.75,-582.4)">
        <path d="M304.225,718.29L319.825,718.29" style="fill:none;fill-rule:nonzero;stroke:black;stroke-width:0.72px;"/>
    </g>
    <g transform="matrix(-1.15479,-0.666512,-0.666512,1.15479,1172.46,-595.193)">
        <path d="M307.133,724.23L323.217,724.23" style="fill:none;fill-rule:nonzero;stroke:black;stroke-width:0.72px;"/>
    </g>
    <g transform="matrix(0,1.33333,1.33333,0,-687.883,-246.327)">
        <path d="M227.88,688.68L259.32,688.68" style="fill:none;fill-rule:nonzero;stroke:black;stroke-width:0.72px;"/>
    </g>
    <g transform="matrix(0,1.33333,1.33333,0,-684.043,-250.167)">
        <path d="M230.76,688.68L262.2,688.68" style="fill:none;fill-rule:nonzero;stroke:black;stroke-width:0.72px;"/>
    </g>
    <g transform="matrix(1.33333,0,0,1.33333,-94.4426,-799.447)">
        <path d="M248.64,669.6L245.04,677.52L241.44,669.6" style="fill:none;fill-rule:nonzero;stroke:black;stroke-width:0.72px;"/>
    </g>
    <g transform="matrix(1.33333,0,0,1.33333,-94.4426,-749.847)">
        <path d="M226.32,654.96L236.64,654.96" style="fill:none;fill-rule:nonzero;stroke:black;stroke-width:0.72px;"/>
    </g>
    <g transform="matrix(1.15468,0.666702,0.666702,-1.15468,-424.112,667.779)">
        <path d="M326.736,584.7L346.654,584.7" style="fill:none;fill-rule:nonzero;stroke:black;stroke-width:0.72px;"/>
    </g>
    <g transform="matrix(1.15468,-0.666702,-0.666702,-1.15468,358.612,1128.23)">
        <path d="M343.986,584.7L363.904,584.7" style="fill:none;fill-rule:nonzero;stroke:black;stroke-width:0.72px;"/>
    </g>
    <g transform="matrix(1.15468,0.666702,0.666702,-1.15468,-417.948,644.778)">
        <path d="M361.236,584.7L381.154,584.7" style="fill:none;fill-rule:nonzero;stroke:black;stroke-width:0.72px;"/>
    </g>
    <g transform="matrix(1.15482,-0.666456,-0.666456,-1.15482,363.259,1149.9)">
        <path d="M378.848,583.35L393.372,583.35" style="fill:none;fill-rule:nonzero;stroke:black;stroke-width:0.72px;"/>
    </g>
    <g transform="matrix(0,-1.33333,-1.33333,0,1141.22,640.38)">
        <path d="M322.43,597L337.07,597" style="fill:none;fill-rule:nonzero;stroke:black;stroke-width:0.72px;"/>
    </g>
    <g transform="matrix(0,-1.33333,-1.33333,0,1136.74,635.9)">
        <path d="M319.07,597L333.71,597" style="fill:none;fill-rule:nonzero;stroke:black;stroke-width:0.72px;"/>
    </g>
    <g transform="matrix(-1.15449,0.667024,0.667024,1.15449,312.524,-673.241)">
        <path d="M311.79,585.315L329.24,585.315" style="fill:none;fill-rule:nonzero;stroke:black;stroke-width:0.72px;"/>
    </g>
    <g transform="matrix(0,1.33333,1.33333,0,-353.376,-270.594)">
        <path d="M370.76,572.34L385.52,572.34" style="fill:none;fill-rule:nonzero;stroke:black;stroke-width:0.72px;"/>
    </g>
    <g transform="matrix(0,1.33333,1.33333,0,-348.896,-275.074)">
        <path d="M374.12,572.34L388.88,572.34" style="fill:none;fill-rule:nonzero;stroke:black;stroke-width:0.72px;"/>
    </g>
    <g transform="matrix(0,1.33333,1.33333,0,-353.163,-182.967)">
        <path d="M329.88,539.4L360.84,539.4" style="fill:none;fill-rule:nonzero;stroke:black;stroke-width:0.72px;"/>
    </g>
    <g transform="matrix(0,1.33333,1.33333,0,-349.323,-186.807)">
        <path d="M332.76,539.4L363.72,539.4" style="fill:none;fill-rule:nonzero;stroke:black;stroke-width:0.72px;"/>
    </g>
    <g transform="matrix(1.33333,0,0,1.33333,-94.4426,-402.007)">
        <path d="M350.4,520.56L346.8,528.48L343.2,520.56" style="fill:none;fill-rule:nonzero;stroke:black;stroke-width:0.72px;"/>
    </g>
    <g transform="matrix(1.15468,0.666702,0.666702,-1.15468,-355.285,684.85)">
        <path d="M328.656,481.98L348.574,481.98" style="fill:none;fill-rule:nonzero;stroke:black;stroke-width:0.72px;"/>
    </g>
    <g transform="matrix(1.15468,-0.666702,-0.666702,-1.15468,290.471,1147.86)">
        <path d="M345.906,481.98L365.824,481.98" style="fill:none;fill-rule:nonzero;stroke:black;stroke-width:0.72px;"/>
    </g>
    <g transform="matrix(1.15468,0.666702,0.666702,-1.15468,-349.121,661.849)">
        <path d="M363.156,481.98L383.074,481.98" style="fill:none;fill-rule:nonzero;stroke:black;stroke-width:0.72px;"/>
    </g>
    <g transform="matrix(1.15482,-0.666456,-0.666456,-1.15482,295.144,1169.52)">
        <path d="M380.768,480.63L395.292,480.63" style="fill:none;fill-rule:nonzero;stroke:black;stroke-width:0.72px;"/>
    </g>
    <g transform="matrix(0,-1.33333,-1.33333,0,1006.82,779.9)">
        <path d="M324.35,494.28L338.99,494.28" style="fill:none;fill-rule:nonzero;stroke:black;stroke-width:0.72px;"/>
    </g>
    <g transform="matrix(0,-1.33333,-1.33333,0,1002.34,775.42)">
        <path d="M320.99,494.28L335.63,494.28" style="fill:none;fill-rule:nonzero;stroke:black;stroke-width:0.72px;"/>
    </g>
    <g transform="matrix(-1.15474,0.666596,0.666596,1.15474,389.13,-421.991)">
        <path d="M316.814,483.43L330.936,483.43" style="fill:none;fill-rule:nonzero;stroke:black;stroke-width:0.72px;"/>
    </g>
    <g transform="matrix(0,1.33333,1.33333,0,-213.856,-136.194)">
        <path d="M372.68,469.62L387.44,469.62" style="fill:none;fill-rule:nonzero;stroke:black;stroke-width:0.72px;"/>
    </g>
    <g transform="matrix(0,1.33333,1.33333,0,-209.376,-140.674)">
        <path d="M376.04,469.62L390.8,469.62" style="fill:none;fill-rule:nonzero;stroke:black;stroke-width:0.72px;"/>
    </g>
    <g transform="matrix(0,-1.33333,-1.33333,0,1050.58,823.66)">
        <path d="M357.17,494.28L371.81,494.28" style="fill:none;fill-rule:nonzero;stroke:black;stroke-width:0.72px;"/>
    </g>
    <g transform="matrix(1.33333,0,0,1.33333,-94.4426,-327.767)">
        <path d="M352.32,508.08L350.64,507.36L349.2,506.4L348,505.44L346.8,504.24L346.08,502.8L345.36,501.12L344.88,499.68L344.4,497.76L344.4,497.04L344.64,495.84L344.64,494.64L344.88,493.68L345.36,492.48L346.32,490.56L347.04,489.6L348.48,488.16L349.44,487.44L350.4,486.96L351.36,486.24L352.32,486L353.28,485.52L354.48,485.28L356.16,485.28L358.32,485.52L360.24,486" style="fill:none;fill-rule:nonzero;stroke:black;stroke-width:0.48px;"/>
    </g>
    <g transform="matrix(1.27603,0.386677,0.386677,-1.27603,-263.241,834.038)">
        <path d="M344.709,486.552L352.985,486.552L345.802,490.394L346.728,488.167L344.709,486.552Z" style="stroke:black;stroke-width:0.48px;"/>
    </g>
    <g transform="matrix(1.33333,0,0,1.33333,-94.4426,-276.247)">
        <path d="M342.24,466.8L344.16,468.48L345.6,470.4L346.8,472.8L347.28,475.44L347.28,478.32L347.04,480L346.56,481.44L345.84,482.88L343.92,485.28L342.96,486.24L341.52,487.2L341.04,487.44L340.32,487.92" style="fill:none;fill-rule:nonzero;stroke:black;stroke-width:0.48px;"/>
    </g>
    <g transform="matrix(-1.23529,0.501836,0.501836,1.23529,553.752,-383.046)">
        <path d="M340.602,471.365L348.892,471.365L341.652,467.571L342.555,469.795L340.602,471.365Z" style="stroke:black;stroke-width:0.48px;"/>
    </g>
    <g transform="matrix(0,1.33333,1.33333,0,-215.083,-44.8871)">
        <path d="M327.84,435.84L362.88,435.84" style="fill:none;fill-rule:nonzero;stroke:black;stroke-width:0.72px;"/>
    </g>
    <g transform="matrix(0,1.33333,1.33333,0,-211.243,-48.7271)">
        <path d="M330.72,435.84L365.76,435.84" style="fill:none;fill-rule:nonzero;stroke:black;stroke-width:0.72px;"/>
    </g>
    <g transform="matrix(1.33333,0,0,1.33333,-94.4426,-120.407)">
        <path d="M350.4,414.96L346.8,422.88L343.2,414.96" style="fill:none;fill-rule:nonzero;stroke:black;stroke-width:0.72px;"/>
    </g>
    <g transform="matrix(1.12803,0.710864,0.710864,-1.12803,-294.143,702.468)">
        <path d="M300.043,369.64L314.297,369.64" style="fill:none;fill-rule:nonzero;stroke:black;stroke-width:0.72px;"/>
    </g>
    <g transform="matrix(-1.17963,0.621494,0.621494,1.17963,416.385,-116.569)">
        <path d="M287.655,370.105L301.965,370.105" style="fill:none;fill-rule:nonzero;stroke:black;stroke-width:0.72px;"/>
    </g>
    <g transform="matrix(0.0516268,-1.33233,-1.33233,-0.0516268,801.302,912.572)">
        <path d="M295.744,380.725L310.466,380.725" style="fill:none;fill-rule:nonzero;stroke:black;stroke-width:0.72px;"/>
    </g>
    <g transform="matrix(0.051174,-1.33235,-1.33235,-0.051174,797.218,907.838)">
        <path d="M292.445,380.79L307.035,380.79" style="fill:none;fill-rule:nonzero;stroke:black;stroke-width:0.72px;"/>
    </g>
    <g transform="matrix(1.12799,0.710933,0.710933,-1.12799,-281.726,630.787)">
        <path d="M394.886,380.37L414.804,380.37" style="fill:none;fill-rule:nonzero;stroke:black;stroke-width:0.72px;"/>
    </g>
    <g transform="matrix(-1.17974,0.621291,0.621291,1.17974,647.807,-206.043)">
        <path d="M382.425,382.22L397.275,382.22" style="fill:none;fill-rule:nonzero;stroke:black;stroke-width:0.72px;"/>
    </g>
    <g transform="matrix(-1.17975,0.621258,0.621258,1.17975,650.594,-196.84)">
        <path d="M382.706,378.515L397.364,378.515" style="fill:none;fill-rule:nonzero;stroke:black;stroke-width:0.72px;"/>
    </g>
    <g transform="matrix(-0.0510036,1.33236,1.33236,0.0510036,-14.9457,-60.2924)">
        <path d="M403.855,367.685L418.755,367.685" style="fill:none;fill-rule:nonzero;stroke:black;stroke-width:0.72px;"/>
    </g>
    <g transform="matrix(-0.0514522,1.33234,1.33234,0.0514522,-10.0154,-64.8368)">
        <path d="M407.279,367.62L422.051,367.62" style="fill:none;fill-rule:nonzero;stroke:black;stroke-width:0.72px;"/>
    </g>
    <g transform="matrix(1.17975,-0.621258,-0.621258,-1.17975,205.154,1199.36)">
        <path d="M412.426,378.475L427.084,378.475" style="fill:none;fill-rule:nonzero;stroke:black;stroke-width:0.72px;"/>
    </g>
    <g transform="matrix(0,1.33333,1.33333,0,-139.883,152.553)">
        <path d="M282.72,333.6L316.32,333.6" style="fill:none;fill-rule:nonzero;stroke:black;stroke-width:0.72px;"/>
    </g>
    <g transform="matrix(0,1.33333,1.33333,0,-136.043,148.713)">
        <path d="M285.6,333.6L319.2,333.6" style="fill:none;fill-rule:nonzero;stroke:black;stroke-width:0.72px;"/>
    </g>
    <g transform="matrix(1.33333,0,0,1.33333,-94.4426,150.313)">
        <path d="M304.56,313.44L300.96,321.36L297.36,313.44" style="fill:none;fill-rule:nonzero;stroke:black;stroke-width:0.72px;"/>
    </g>
    <g transform="matrix(1.33333,0,0,1.33333,-94.4426,208.713)">
        <path d="M295.2,295.5L306,295.5" style="fill:none;fill-rule:nonzero;stroke:black;stroke-width:0.72px;"/>
    </g>
    <g transform="matrix(1.33333,0,0,1.33333,-94.4426,199.753)">
        <path d="M299.45,298.86L305.93,298.86" style="fill:none;fill-rule:nonzero;stroke:black;stroke-width:0.72px;"/>
    </g>
    <g transform="matrix(1.33333,0,0,1.33333,-94.4426,217.673)">
        <path d="M295.13,292.14L305.93,292.14" style="fill:none;fill-rule:nonzero;stroke:black;stroke-width:0.72px;"/>
    </g>
    <g transform="matrix(0,1.33333,1.33333,0,-497.803,-329.527)">
        <path d="M330.36,648.6L361.8,648.6" style="fill:none;fill-rule:nonzero;stroke:black;stroke-width:0.72px;"/>
    </g>
    <g transform="matrix(0,1.33333,1.33333,0,-493.963,-333.367)">
        <path d="M333.24,648.6L364.68,648.6" style="fill:none;fill-rule:nonzero;stroke:black;stroke-width:0.72px;"/>
    </g>
    <g transform="matrix(1.33333,0,0,1.33333,-94.4426,-692.567)">
        <path d="M351.12,629.52L347.52,637.44L343.92,629.52" style="fill:none;fill-rule:nonzero;stroke:black;stroke-width:0.72px;"/>
    </g>
</svg>
