<?xml version="1.0" encoding="UTF-8" standalone="no"?>
<!DOCTYPE svg PUBLIC "-//W3C//DTD SVG 1.1//EN" "http://www.w3.org/Graphics/SVG/1.1/DTD/svg11.dtd">
<svg width="100%" height="100%" viewBox="0 0 430 350" version="1.1" xmlns="http://www.w3.org/2000/svg" xmlns:xlink="http://www.w3.org/1999/xlink" xml:space="preserve" xmlns:serif="http://www.serif.com/" style="fill-rule:evenodd;clip-rule:evenodd;stroke-linecap:round;stroke-linejoin:round;stroke-miterlimit:10;">
    <g transform="matrix(1.33333,0,0,1.33333,-73.8026,-105.637)">
        <text x="159.84px" y="108.48px" style="font-family:'ArialMT', 'Arial', sans-serif;font-size:10px;">R</text>
        <text x="167.28px" y="101.52px" style="font-family:'ArialMT', 'Arial', sans-serif;font-size:8px;">1</text>
    </g>
    <g transform="matrix(1.33333,0,0,1.33333,-73.8026,-105.637)">
        <text x="90.72px" y="88.56px" style="font-family:'ArialMT', 'Arial', sans-serif;font-size:10px;">O</text>
    </g>
    <g transform="matrix(1.33333,0,0,1.33333,-73.8026,-105.637)">
        <text x="73.68px" y="118.32px" style="font-family:'ArialMT', 'Arial', sans-serif;font-size:10px;">R</text>
    </g>
    <g transform="matrix(1.33333,0,0,1.33333,-73.8026,-105.637)">
        <text x="142.32px" y="138.24px" style="font-family:'ArialMT', 'Arial', sans-serif;font-size:10px;">O</text>
    </g>
    <g transform="matrix(1.33333,0,0,1.33333,-73.8026,-105.637)">
        <text x="240.48px" y="118.08px" style="font-family:'ArialMT', 'Arial', sans-serif;font-size:10px;">R</text>
    </g>
    <g transform="matrix(1.33333,0,0,1.33333,-73.8026,-105.637)">
        <text x="248.16px" y="112.08px" style="font-family:'ArialMT', 'Arial', sans-serif;font-size:10px;">+</text>
    </g>
    <g transform="matrix(1.33333,0,0,1.33333,-73.8026,-105.637)">
        <text x="238.32px" y="181.92px" style="font-family:'ArialMT', 'Arial', sans-serif;font-size:10px;">E</text>
        <text x="245.28px" y="174.96px" style="font-family:'ArialMT', 'Arial', sans-serif;font-size:8px;">0</text>
    </g>
    <g transform="matrix(1.33333,0,0,1.33333,-73.8026,-105.637)">
        <text x="262.8px" y="120px" style="font-family:'ArialMT', 'Arial', sans-serif;font-size:18px;">+</text>
        <text x="281.28px" y="106.8px" style="font-family:'ArialMT', 'Arial', sans-serif;font-size:10px;">:</text>
        <text x="284.88px" y="108px" style="font-family:'ArialMT', 'Arial', sans-serif;font-size:10px;">C</text>
    </g>
    <g transform="matrix(1.33333,0,0,1.33333,-73.8026,-105.637)">
        <text x="292.08px" y="101.04px" style="font-family:'ArialMT', 'Arial', sans-serif;font-size:8px;">–</text>
    </g>
    <g transform="matrix(1.33333,0,0,1.33333,-73.8026,-105.637)">
        <text x="353.76px" y="108px" style="font-family:'ArialMT', 'Arial', sans-serif;font-size:10px;">R</text>
        <text x="361.2px" y="101.04px" style="font-family:'ArialMT', 'Arial', sans-serif;font-size:8px;">1</text>
    </g>
    <g transform="matrix(1.33333,0,0,1.33333,-73.8026,-105.637)">
        <text x="284.64px" y="88.08px" style="font-family:'ArialMT', 'Arial', sans-serif;font-size:10px;">O</text>
    </g>
    <g transform="matrix(1.33333,0,0,1.33333,-73.8026,-105.637)">
        <text x="336.24px" y="137.76px" style="font-family:'ArialMT', 'Arial', sans-serif;font-size:10px;">O</text>
    </g>
    <g transform="matrix(1.33333,0,0,1.33333,-73.8026,-105.637)">
        <text x="311.52px" y="181.44px" style="font-family:'ArialMT', 'Arial', sans-serif;font-size:10px;">Nu</text>
        <text x="324.48px" y="174.48px" style="font-family:'ArialMT', 'Arial', sans-serif;font-size:8px;">4</text>
    </g>
    <g transform="matrix(1.33333,0,0,1.33333,-73.8026,-105.637)">
        <text x="57.12px" y="237.6px" style="font-family:'ArialMT', 'Arial', sans-serif;font-size:10px;">E</text>
        <text x="64.133px" y="230.64px" style="font-family:'ArialMT', 'Arial', sans-serif;font-size:8px;">0</text>
        <text x="71.52px" y="237.6px" style="font-family:'ArialMT', 'Arial', sans-serif;font-size:10px;">=</text>
        <text x="87.6px" y="237.84px" style="font-family:'ArialMT', 'Arial', sans-serif;font-size:10px;">R</text>
        <text x="107.7px" y="237.84px" style="font-family:'ArialMT', 'Arial', sans-serif;font-size:10px;">B</text>
        <text x="114.473px" y="237.84px" style="font-family:'ArialMT', 'Arial', sans-serif;font-size:10px;">r</text>
        <text x="123.12px" y="238.8px" style="font-family:'ArialMT', 'Arial', sans-serif;font-size:10px;">;</text>
        <text x="134.4px" y="238.08px" style="font-family:'ArialMT', 'Arial', sans-serif;font-size:10px;">R</text>
        <text x="156.48px" y="238.08px" style="font-family:'ArialMT', 'Arial', sans-serif;font-size:10px;">I</text>
        <text x="164.16px" y="237.84px" style="font-family:'ArialMT', 'Arial', sans-serif;font-size:10px;">;</text>
        <text x="178.8px" y="238.08px" style="font-family:'ArialMT', 'Arial', sans-serif;font-size:10px;">R <tspan x="198.908px 206.739px 211.792px " y="238.08px 238.08px 238.08px ">OTs</tspan></text>
        <text x="225.36px" y="238.32px" style="font-family:'ArialMT', 'Arial', sans-serif;font-size:10px;">;</text>
        <text x="239.52px" y="237.6px" style="font-family:'ArialMT', 'Arial', sans-serif;font-size:10px;">R <tspan x="259.628px " y="237.6px ">O</tspan></text>
        <text x="278.88px" y="237.36px" style="font-family:'ArialMT', 'Arial', sans-serif;font-size:10px;">M</text>
        <text x="287.333px" y="237.36px" style="font-family:'ArialMT', 'Arial', sans-serif;font-size:10px;">s</text>
        <text x="296.4px" y="237.6px" style="font-family:'ArialMT', 'Arial', sans-serif;font-size:10px;">;</text>
        <text x="312.067px" y="238.32px" style="font-family:'ArialMT', 'Arial', sans-serif;font-size:10px;">R</text>
        <text x="319.56px" y="231.36px" style="font-family:'ArialMT', 'Arial', sans-serif;font-size:8px;">3</text>
        <text x="324.162px" y="238.32px" style="font-family:'ArialMT', 'Arial', sans-serif;font-size:10px;">O</text>
        <text x="332.375px" y="231.36px" style="font-family:'ArialMT', 'Arial', sans-serif;font-size:8px;">+</text>
        <text x="337.217px" y="238.32px" style="font-family:'ArialMT', 'Arial', sans-serif;font-size:10px;">B</text>
        <text x="343.99px" y="238.32px" style="font-family:'ArialMT', 'Arial', sans-serif;font-size:10px;">F</text>
        <text x="350.522px" y="240.96px" style="font-family:'ArialMT', 'Arial', sans-serif;font-size:8px;">4</text>
        <text x="355.124px" y="231.36px" style="font-family:'ArialMT', 'Arial', sans-serif;font-size:8px;">-</text>
    </g>
    <g transform="matrix(1.33333,0,0,1.33333,-73.8026,-105.637)">
        <text x="56.88px" y="293.04px" style="font-family:'ArialMT', 'Arial', sans-serif;font-size:10px;">N</text>
        <text x="64.08px" y="293.04px" style="font-family:'ArialMT', 'Arial', sans-serif;font-size:10px;">u</text>
        <text x="69.84px" y="286.08px" style="font-family:'ArialMT', 'Arial', sans-serif;font-size:8px;">4</text>
        <text x="77.278px" y="293.04px" style="font-family:'ArialMT', 'Arial', sans-serif;font-size:10px;"><tspan x="77.278px " y="293.04px ">=</tspan></text>
    </g>
    <g transform="matrix(1.33333,0,0,1.33333,-73.8026,-105.637)">
        <text x="132.96px" y="298.08px" style="font-family:'ArialMT', 'Arial', sans-serif;font-size:10px;">S</text>
        <text x="115.44px" y="308.16px" style="font-family:'ArialMT', 'Arial', sans-serif;font-size:10px;">C</text>
        <text x="122.64px" y="301.2px" style="font-family:'ArialMT', 'Arial', sans-serif;font-size:8px;">–</text>
    </g>
    <g transform="matrix(1.33333,0,0,1.33333,-73.8026,-105.637)">
        <text x="98.64px" y="298.08px" style="font-family:'ArialMT', 'Arial', sans-serif;font-size:10px;">S</text>
    </g>
    <g transform="matrix(1.33333,0,0,1.33333,-73.8026,-105.637)">
        <text x="167.28px" y="337.92px" style="font-family:'ArialMT', 'Arial', sans-serif;font-size:10px;">R</text>
        <text x="174.72px" y="330.96px" style="font-family:'ArialMT', 'Arial', sans-serif;font-size:8px;">1</text>
    </g>
    <g transform="matrix(1.33333,0,0,1.33333,-73.8026,-105.637)">
        <text x="149.76px" y="308.16px" style="font-family:'ArialMT', 'Arial', sans-serif;font-size:10px;">O</text>
    </g>
    <g transform="matrix(0.358522,1.28423,-1.28423,0.358522,-73.8026,-105.637)">
        <text x="317.152px" y="-32.175px" style="font-family:'ArialMT', 'Arial', sans-serif;font-size:10px;">:</text>
    </g>
    <g transform="matrix(1.33333,0,0,1.33333,-73.8026,-105.637)">
        <text x="99.36px" y="317.04px" style="font-family:'ArialMT', 'Arial', sans-serif;font-size:10px;">L</text>
        <text x="104.88px" y="317.04px" style="font-family:'ArialMT', 'Arial', sans-serif;font-size:10px;">i</text>
        <text x="107.28px" y="310.08px" style="font-family:'ArialMT', 'Arial', sans-serif;font-size:8px;">+</text>
    </g>
    <g transform="matrix(1.15468,0.666702,0.666702,-1.15468,-543.704,817.229)">
        <path d="M93.286,732.48L113.204,732.48" style="fill:none;fill-rule:nonzero;stroke:black;stroke-width:0.72px;"/>
    </g>
    <g transform="matrix(1.15468,-0.666702,-0.666702,-1.15468,436.07,966.397)">
        <path d="M110.536,732.48L130.454,732.48" style="fill:none;fill-rule:nonzero;stroke:black;stroke-width:0.72px;"/>
    </g>
    <g transform="matrix(1.15468,0.666702,0.666702,-1.15468,-537.54,794.228)">
        <path d="M127.786,732.48L147.704,732.48" style="fill:none;fill-rule:nonzero;stroke:black;stroke-width:0.72px;"/>
    </g>
    <g transform="matrix(1.15481,-0.666483,-0.666483,-1.15481,440.718,988.122)">
        <path d="M145.403,731.11L159.847,731.11" style="fill:none;fill-rule:nonzero;stroke:black;stroke-width:0.72px;"/>
    </g>
    <g transform="matrix(0,-1.33333,-1.33333,0,1047.68,152.243)">
        <path d="M88.95,744.81L103.65,744.81" style="fill:none;fill-rule:nonzero;stroke:black;stroke-width:0.72px;"/>
    </g>
    <g transform="matrix(0,-1.33333,-1.33333,0,1043.2,147.763)">
        <path d="M85.59,744.81L100.29,744.81" style="fill:none;fill-rule:nonzero;stroke:black;stroke-width:0.72px;"/>
    </g>
    <g transform="matrix(-1.15464,0.666766,0.666766,1.15464,-343.541,-867.509)">
        <path d="M80.851,733.77L95.609,733.77" style="fill:none;fill-rule:nonzero;stroke:black;stroke-width:0.72px;"/>
    </g>
    <g transform="matrix(0,1.33333,1.33333,0,-841.083,-136.197)">
        <path d="M137.34,720.15L152.04,720.15" style="fill:none;fill-rule:nonzero;stroke:black;stroke-width:0.72px;"/>
    </g>
    <g transform="matrix(0,1.33333,1.33333,0,-836.603,-140.677)">
        <path d="M140.7,720.15L155.4,720.15" style="fill:none;fill-rule:nonzero;stroke:black;stroke-width:0.72px;"/>
    </g>
    <g transform="matrix(1.33333,0,0,1.33333,-73.8026,-928.037)">
        <path d="M75.6,720.72L77.76,720.48L78.96,720.48L79.92,720.72L81.12,720.96L82.08,721.44L83.28,721.68L84.24,722.16L85.68,723.12L86.88,724.08L87.84,725.28L88.8,726.72L90,729.12L90.48,730.32L90.72,731.28L90.72,736.08L90,738.24" style="fill:none;fill-rule:nonzero;stroke:black;stroke-width:0.48px;"/>
    </g>
    <g transform="matrix(-0.501836,1.23529,1.23529,0.501836,-801.476,-425.426)">
        <path d="M87.142,724.984L95.432,724.984L88.143,721.246L89.289,723.525L87.142,724.984Z" style="stroke:black;stroke-width:0.48px;"/>
    </g>
    <g transform="matrix(1.33333,0,0,1.33333,-73.8026,-921.637)">
        <path d="M189.12,726.96L223.2,726.96" style="fill:none;fill-rule:nonzero;stroke:black;stroke-width:0.72px;"/>
    </g>
    <g transform="matrix(1.33333,0,0,1.33333,-73.8026,-929.317)">
        <path d="M189.12,729.84L223.2,729.84" style="fill:none;fill-rule:nonzero;stroke:black;stroke-width:0.72px;"/>
    </g>
    <g transform="matrix(1.33333,0,0,1.33333,-73.8026,-925.477)">
        <path d="M218.64,724.8L226.56,728.4L218.64,732" style="fill:none;fill-rule:nonzero;stroke:black;stroke-width:0.72px;"/>
    </g>
    <g transform="matrix(0,1.33333,1.33333,0,-684.043,-239.077)">
        <path d="M225.12,699.84L259.2,699.84" style="fill:none;fill-rule:nonzero;stroke:black;stroke-width:0.72px;"/>
    </g>
    <g transform="matrix(0,1.33333,1.33333,0,-680.203,-242.917)">
        <path d="M228,699.84L262.08,699.84" style="fill:none;fill-rule:nonzero;stroke:black;stroke-width:0.72px;"/>
    </g>
    <g transform="matrix(1.33333,0,0,1.33333,-73.8026,-805.477)">
        <path d="M247.2,679.44L243.6,687.36L240,679.44" style="fill:none;fill-rule:nonzero;stroke:black;stroke-width:0.72px;"/>
    </g>
    <g transform="matrix(1.15475,0.666584,0.666584,-1.15475,-508.044,686.674)">
        <path d="M292.054,731.66L306.776,731.66" style="fill:none;fill-rule:nonzero;stroke:black;stroke-width:0.72px;"/>
    </g>
    <g transform="matrix(1.15468,-0.666702,-0.666702,-1.15468,471.035,1095.6)">
        <path d="M304.456,732.96L324.374,732.96" style="fill:none;fill-rule:nonzero;stroke:black;stroke-width:0.72px;"/>
    </g>
    <g transform="matrix(1.15468,0.666702,0.666702,-1.15468,-503.216,664.855)">
        <path d="M321.706,732.96L341.624,732.96" style="fill:none;fill-rule:nonzero;stroke:black;stroke-width:0.72px;"/>
    </g>
    <g transform="matrix(1.15481,-0.666483,-0.666483,-1.15481,475.657,1117.28)">
        <path d="M339.323,731.59L353.767,731.59" style="fill:none;fill-rule:nonzero;stroke:black;stroke-width:0.72px;"/>
    </g>
    <g transform="matrix(0,-1.33333,-1.33333,0,1310.28,406.763)">
        <path d="M285.42,747.84L295.02,747.84" style="fill:none;fill-rule:nonzero;stroke:black;stroke-width:0.72px;"/>
    </g>
    <g transform="matrix(0,-1.33333,-1.33333,0,1305.8,402.283)">
        <path d="M282.06,747.84L291.66,747.84" style="fill:none;fill-rule:nonzero;stroke:black;stroke-width:0.72px;"/>
    </g>
    <g transform="matrix(0,1.33333,1.33333,0,-583.163,-395.397)">
        <path d="M331.26,720.63L345.96,720.63" style="fill:none;fill-rule:nonzero;stroke:black;stroke-width:0.72px;"/>
    </g>
    <g transform="matrix(0,1.33333,1.33333,0,-578.683,-399.877)">
        <path d="M334.62,720.63L349.32,720.63" style="fill:none;fill-rule:nonzero;stroke:black;stroke-width:0.72px;"/>
    </g>
    <g transform="matrix(0,1.33333,1.33333,0,-585.323,-338.757)">
        <path d="M300.36,700.2L332.76,700.2" style="fill:none;fill-rule:nonzero;stroke:black;stroke-width:0.72px;"/>
    </g>
    <g transform="matrix(0,1.33333,1.33333,0,-581.483,-342.597)">
        <path d="M303.24,700.2L335.64,700.2" style="fill:none;fill-rule:nonzero;stroke:black;stroke-width:0.72px;"/>
    </g>
    <g transform="matrix(1.33333,0,0,1.33333,-73.8026,-808.677)">
        <path d="M321.6,680.64L318,688.56L314.4,680.64" style="fill:none;fill-rule:nonzero;stroke:black;stroke-width:0.72px;"/>
    </g>
    <g transform="matrix(1.33333,0,0,1.33333,-73.8026,-604.837)">
        <path d="M95.76,608.16L106.8,608.16" style="fill:none;fill-rule:nonzero;stroke:black;stroke-width:0.72px;"/>
    </g>
    <g transform="matrix(1.33333,0,0,1.33333,-73.8026,-604.197)">
        <path d="M142.56,607.92L155.52,607.92" style="fill:none;fill-rule:nonzero;stroke:black;stroke-width:0.72px;"/>
    </g>
    <g transform="matrix(1.33333,0,0,1.33333,-73.8026,-604.197)">
        <path d="M186.96,607.92L197.52,607.92" style="fill:none;fill-rule:nonzero;stroke:black;stroke-width:0.72px;"/>
    </g>
    <g transform="matrix(1.33333,0,0,1.33333,-73.8026,-605.477)">
        <path d="M247.68,608.4L258.24,608.4" style="fill:none;fill-rule:nonzero;stroke:black;stroke-width:0.72px;"/>
    </g>
    <g transform="matrix(1.33333,0,0,1.33333,-73.8026,-605.477)">
        <path d="M268.08,608.4L277.92,608.4" style="fill:none;fill-rule:nonzero;stroke:black;stroke-width:0.72px;"/>
    </g>
    <g transform="matrix(0,1.33333,1.33333,0,-638.883,87.7626)">
        <path d="M129.15,560.34L143.91,560.34" style="fill:none;fill-rule:nonzero;stroke:black;stroke-width:0.72px;"/>
    </g>
    <g transform="matrix(-1.15468,-0.666702,-0.666702,1.15468,626.247,-322.688)">
        <path d="M117.946,572.7L137.864,572.7" style="fill:none;fill-rule:nonzero;stroke:black;stroke-width:0.72px;"/>
    </g>
    <g transform="matrix(-1.15539,0.665479,0.665479,1.15539,-112.393,-423.438)">
        <path d="M127.606,544.005L132.314,544.005" style="fill:none;fill-rule:nonzero;stroke:black;stroke-width:0.72px;"/>
    </g>
    <g transform="matrix(-1.15468,0.666702,0.666702,1.15468,-180.312,-481.737)">
        <path d="M100.696,572.7L120.614,572.7" style="fill:none;fill-rule:nonzero;stroke:black;stroke-width:0.72px;"/>
    </g>
    <g transform="matrix(-1.15477,-0.666542,-0.666542,1.15477,562.793,-260.446)">
        <path d="M105.689,542.965L115.111,542.965" style="fill:none;fill-rule:nonzero;stroke:black;stroke-width:0.72px;"/>
    </g>
    <g transform="matrix(0,1.33333,1.33333,0,-684.883,133.763)">
        <path d="M94.65,560.34L109.41,560.34" style="fill:none;fill-rule:nonzero;stroke:black;stroke-width:0.72px;"/>
    </g>
    <g transform="matrix(0,1.33333,1.33333,0,-615.083,157.563)">
        <path d="M111.96,525.24L126.6,525.24" style="fill:none;fill-rule:nonzero;stroke:black;stroke-width:0.72px;"/>
    </g>
    <g transform="matrix(1.15468,0.666702,0.666702,-1.15468,-392.93,840.01)">
        <path d="M117.946,512.94L137.864,512.94" style="fill:none;fill-rule:nonzero;stroke:black;stroke-width:0.72px;"/>
    </g>
    <g transform="matrix(1.1547,0.666669,0.666669,-1.1547,-388.08,818.351)">
        <path d="M152.81,514.3L167.29,514.3" style="fill:none;fill-rule:nonzero;stroke:black;stroke-width:0.72px;"/>
    </g>
    <g transform="matrix(1.15468,-0.666702,-0.666702,-1.15468,294.108,1022.06)">
        <path d="M135.196,512.94L155.114,512.94" style="fill:none;fill-rule:nonzero;stroke:black;stroke-width:0.72px;"/>
    </g>
    <g transform="matrix(0,-1.33333,-1.33333,0,833.797,523.883)">
        <path d="M148.14,525.24L162.78,525.24" style="fill:none;fill-rule:nonzero;stroke:black;stroke-width:0.72px;"/>
    </g>
    <g transform="matrix(0,-1.33333,-1.33333,0,829.317,519.403)">
        <path d="M144.78,525.24L159.42,525.24" style="fill:none;fill-rule:nonzero;stroke:black;stroke-width:0.72px;"/>
    </g>
</svg>
