<?xml version="1.0" encoding="UTF-8" standalone="no"?>
<!DOCTYPE svg PUBLIC "-//W3C//DTD SVG 1.1//EN" "http://www.w3.org/Graphics/SVG/1.1/DTD/svg11.dtd">
<svg width="100%" height="100%" viewBox="0 0 470 370" version="1.1" xmlns="http://www.w3.org/2000/svg" xmlns:xlink="http://www.w3.org/1999/xlink" xml:space="preserve" xmlns:serif="http://www.serif.com/" style="fill-rule:evenodd;clip-rule:evenodd;stroke-linecap:round;stroke-linejoin:round;stroke-miterlimit:10;">
    <g transform="matrix(1.33333,0,0,1.33333,-63.9702,-110.2)">
        <text x="138.48px" y="129.84px" style="font-family:'ArialMT', 'Arial', sans-serif;font-size:10px;">R</text>
    </g>
    <g transform="matrix(1.33333,0,0,1.33333,-63.9702,-110.2)">
        <text x="69.36px" y="109.92px" style="font-family:'ArialMT', 'Arial', sans-serif;font-size:10px;">O</text>
    </g>
    <g transform="matrix(1.33333,0,0,1.33333,-63.9702,-110.2)">
        <text x="52.32px" y="139.68px" style="font-family:'ArialMT', 'Arial', sans-serif;font-size:10px;">R</text>
    </g>
    <g transform="matrix(1.33333,0,0,1.33333,-63.9702,-110.2)">
        <text x="120.96px" y="159.6px" style="font-family:'ArialMT', 'Arial', sans-serif;font-size:10px;">O</text>
    </g>
    <g transform="matrix(1.33333,0,0,1.33333,-63.9702,-110.2)">
        <text x="217.2px" y="138.24px" style="font-family:'ArialMT', 'Arial', sans-serif;font-size:10px;">R</text>
    </g>
    <g transform="matrix(1.33333,0,0,1.33333,-63.9702,-110.2)">
        <text x="251.52px" y="138.24px" style="font-family:'ArialMT', 'Arial', sans-serif;font-size:10px;">CH</text>
        <text x="265.92px" y="140.88px" style="font-family:'ArialMT', 'Arial', sans-serif;font-size:8px;">3</text>
    </g>
    <g transform="matrix(1.33333,0,0,1.33333,-63.9702,-110.2)">
        <text x="234px" y="108.48px" style="font-family:'ArialMT', 'Arial', sans-serif;font-size:10px;">O</text>
    </g>
    <g transform="matrix(1.33333,0,0,1.33333,-63.9702,-110.2)">
        <text x="243.12px" y="106.56px" style="font-family:'ArialMT', 'Arial', sans-serif;font-size:10px;">:</text>
    </g>
    <g transform="matrix(-0.0140006,-1.33326,1.33326,-0.0140006,-63.9702,-110.2)">
        <text x="-102.245px" y="237.98px" style="font-family:'ArialMT', 'Arial', sans-serif;font-size:10px;">:</text>
    </g>
    <g transform="matrix(1.33333,0,0,1.33333,-63.9702,-110.2)">
        <text x="318.96px" y="140.16px" style="font-family:'ArialMT', 'Arial', sans-serif;font-size:10px;">R</text>
    </g>
    <g transform="matrix(1.33333,0,0,1.33333,-63.9702,-110.2)">
        <text x="353.28px" y="140.16px" style="font-family:'ArialMT', 'Arial', sans-serif;font-size:10px;">CH</text>
        <text x="367.68px" y="142.8px" style="font-family:'ArialMT', 'Arial', sans-serif;font-size:8px;">2</text>
    </g>
    <g transform="matrix(1.33333,0,0,1.33333,-63.9702,-110.2)">
        <text x="335.76px" y="110.4px" style="font-family:'ArialMT', 'Arial', sans-serif;font-size:10px;">O</text>
    </g>
    <g transform="matrix(-0.0209328,-1.33317,1.33317,-0.0209328,-63.9702,-110.2)">
        <text x="-106.453px" y="338.21px" style="font-family:'ArialMT', 'Arial', sans-serif;font-size:10px;">:</text>
    </g>
    <g transform="matrix(1.33333,0,0,1.33333,-63.9702,-110.2)">
        <text x="331.92px" y="108.48px" style="font-family:'ArialMT', 'Arial', sans-serif;font-size:10px;">:</text>
    </g>
    <g transform="matrix(1.33333,0,0,1.33333,-63.9702,-110.2)">
        <text x="273.36px" y="241.2px" style="font-family:'ArialMT', 'Arial', sans-serif;font-size:10px;">R</text>
    </g>
    <g transform="matrix(1.33333,0,0,1.33333,-63.9702,-110.2)">
        <text x="307.68px" y="241.2px" style="font-family:'ArialMT', 'Arial', sans-serif;font-size:10px;">CH</text>
        <text x="322.08px" y="243.84px" style="font-family:'ArialMT', 'Arial', sans-serif;font-size:8px;">2</text>
    </g>
    <g transform="matrix(1.33333,0,0,1.33333,-63.9702,-110.2)">
        <text x="290.16px" y="211.44px" style="font-family:'ArialMT', 'Arial', sans-serif;font-size:10px;">O</text>
    </g>
    <g transform="matrix(1.33333,0,0,1.33333,-63.9702,-110.2)">
        <text x="307.92px" y="201.36px" style="font-family:'ArialMT', 'Arial', sans-serif;font-size:10px;">Ag</text>
    </g>
    <g transform="matrix(1.33333,0,0,1.33333,-63.9702,-110.2)">
        <text x="273.12px" y="354.24px" style="font-family:'ArialMT', 'Arial', sans-serif;font-size:10px;">R</text>
    </g>
    <g transform="matrix(1.33333,0,0,1.33333,-63.9702,-110.2)">
        <text x="307.44px" y="354.24px" style="font-family:'ArialMT', 'Arial', sans-serif;font-size:10px;">CH</text>
        <text x="321.84px" y="356.88px" style="font-family:'ArialMT', 'Arial', sans-serif;font-size:8px;">2</text>
    </g>
    <g transform="matrix(1.33333,0,0,1.33333,-63.9702,-110.2)">
        <text x="289.92px" y="324.48px" style="font-family:'ArialMT', 'Arial', sans-serif;font-size:10px;">O</text>
    </g>
    <g transform="matrix(1.33333,0,0,1.33333,-63.9702,-110.2)">
        <text x="307.68px" y="314.4px" style="font-family:'ArialMT', 'Arial', sans-serif;font-size:10px;">S<tspan x="314.474px 316.82px 325.274px " y="314.4px 314.4px 314.4px ">iMe</tspan></text>
        <text x="330.96px" y="317.04px" style="font-family:'ArialMT', 'Arial', sans-serif;font-size:8px;">3</text>
        <text x="339.12px" y="342px" style="font-family:'ArialMT', 'Arial', sans-serif;font-size:18px;">+</text>
        <text x="360.72px" y="339.12px" style="font-family:'ArialMT', 'Arial', sans-serif;font-size:10px;">A</text>
        <text x="367.411px" y="339.12px" style="font-family:'ArialMT', 'Arial', sans-serif;font-size:10px;">g</text>
        <text x="373.166px" y="341.76px" style="font-family:'ArialMT', 'Arial', sans-serif;font-size:8px;">2</text>
        <text x="377.723px" y="339.12px" style="font-family:'ArialMT', 'Arial', sans-serif;font-size:10px;">O</text>
    </g>
    <g transform="matrix(1.15468,0.666702,0.666702,-1.15468,-523.446,830.724)">
        <path d="M71.926,711.12L91.844,711.12" style="fill:none;fill-rule:nonzero;stroke:black;stroke-width:0.72px;"/>
    </g>
    <g transform="matrix(1.15468,-0.666702,-0.666702,-1.15468,427.846,951.41)">
        <path d="M89.176,711.12L109.094,711.12" style="fill:none;fill-rule:nonzero;stroke:black;stroke-width:0.72px;"/>
    </g>
    <g transform="matrix(1.15468,0.666702,0.666702,-1.15468,-517.283,807.722)">
        <path d="M106.426,711.12L126.344,711.12" style="fill:none;fill-rule:nonzero;stroke:black;stroke-width:0.72px;"/>
    </g>
    <g transform="matrix(1.15481,-0.666483,-0.666483,-1.15481,432.5,973.137)">
        <path d="M124.043,709.75L138.487,709.75" style="fill:none;fill-rule:nonzero;stroke:black;stroke-width:0.72px;"/>
    </g>
    <g transform="matrix(0,-1.33333,-1.33333,0,1000.55,147.68)">
        <path d="M67.59,723.45L82.29,723.45" style="fill:none;fill-rule:nonzero;stroke:black;stroke-width:0.72px;"/>
    </g>
    <g transform="matrix(0,-1.33333,-1.33333,0,996.07,143.2)">
        <path d="M64.23,723.45L78.93,723.45" style="fill:none;fill-rule:nonzero;stroke:black;stroke-width:0.72px;"/>
    </g>
    <g transform="matrix(-1.15464,0.666766,0.666766,1.15464,-372.61,-804.686)">
        <path d="M59.491,712.41L74.249,712.41" style="fill:none;fill-rule:nonzero;stroke:black;stroke-width:0.72px;"/>
    </g>
    <g transform="matrix(0,1.33333,1.33333,0,-831.25,-83.7996)">
        <path d="M115.98,698.79L130.68,698.79" style="fill:none;fill-rule:nonzero;stroke:black;stroke-width:0.72px;"/>
    </g>
    <g transform="matrix(0,1.33333,1.33333,0,-826.77,-88.2796)">
        <path d="M119.34,698.79L134.04,698.79" style="fill:none;fill-rule:nonzero;stroke:black;stroke-width:0.72px;"/>
    </g>
    <g transform="matrix(1.33333,0,0,1.33333,-63.9702,-874.04)">
        <path d="M88.08,693.36L89.52,693.84L90.96,694.56L92.16,695.28L93.6,696L94.8,696.96L97.68,700.56L98.4,701.76L98.88,703.2L99.6,704.64L99.84,706.32L100.08,707.76L100.08,711.84L99.6,714L98.88,716.16L97.68,718.08L96.48,719.76L95.76,720.72L95.04,721.44" style="fill:none;fill-rule:nonzero;stroke:black;stroke-width:0.48px;"/>
    </g>
    <g transform="matrix(1.33333,0,0,1.33333,-63.9702,-843.32)">
        <path d="M95.04,698.4L101.52,693.36L98.88,693.36L95.04,698.4Z" style="stroke:black;stroke-width:0.48px;"/>
    </g>
    <g transform="matrix(1.33333,0,0,1.33333,-63.9702,-896.12)">
        <path d="M159.12,715.68L193.2,715.68" style="fill:none;fill-rule:nonzero;stroke:black;stroke-width:0.72px;"/>
    </g>
    <g transform="matrix(1.33333,0,0,1.33333,-63.9702,-903.8)">
        <path d="M159.12,718.56L193.2,718.56" style="fill:none;fill-rule:nonzero;stroke:black;stroke-width:0.72px;"/>
    </g>
    <g transform="matrix(1.33333,0,0,1.33333,-63.9702,-899.96)">
        <path d="M188.64,713.52L196.56,717.12L188.64,720.72" style="fill:none;fill-rule:nonzero;stroke:black;stroke-width:0.72px;"/>
    </g>
    <g transform="matrix(1.15485,-0.666401,-0.666401,-1.15485,453.111,1039.37)">
        <path d="M224.377,713.87L239.063,713.87" style="fill:none;fill-rule:nonzero;stroke:black;stroke-width:0.72px;"/>
    </g>
    <g transform="matrix(1.15451,0.666991,0.666991,-1.15451,-496.469,721.735)">
        <path d="M237.114,713.935L251.526,713.935" style="fill:none;fill-rule:nonzero;stroke:black;stroke-width:0.72px;"/>
    </g>
    <g transform="matrix(0,-1.33333,-1.33333,0,1222.23,365.52)">
        <path d="M232.41,724.89L247.11,724.89" style="fill:none;fill-rule:nonzero;stroke:black;stroke-width:0.72px;"/>
    </g>
    <g transform="matrix(0,-1.33333,-1.33333,0,1217.75,361.04)">
        <path d="M229.05,724.89L243.75,724.89" style="fill:none;fill-rule:nonzero;stroke:black;stroke-width:0.72px;"/>
    </g>
    <g transform="matrix(1.33333,0,0,1.33333,-63.9702,-906.04)">
        <path d="M241.44,719.76L242.88,716.88L245.28,714.96L246.72,714.24L248.4,713.76L249.12,713.52L251.04,713.52L252.24,713.76L253.2,714.24L254.4,714.72L255.36,715.2L256.08,715.92L256.8,716.88L257.52,717.6L258,718.56L258.48,719.76L258.72,720.72L258.96,721.92L258.96,722.64L258.48,725.28" style="fill:none;fill-rule:nonzero;stroke:black;stroke-width:0.48px;"/>
    </g>
    <g transform="matrix(1.33333,0,0,1.33333,-63.9702,-915.32)">
        <path d="M241.44,726.72L244.32,719.04L245.04,721.44L241.44,726.72Z" style="stroke:black;stroke-width:0.48px;"/>
    </g>
    <g transform="matrix(1.33333,0,0,1.33333,-63.9702,-929.72)">
        <path d="M233.52,737.04L231.6,737.04L230.64,736.8L229.44,736.32L227.52,735.36L226.08,733.92L225.36,732.96L224.4,731.04L224.16,730.08L223.92,728.88L223.92,728.4L224.16,726.96L224.4,725.76L224.64,724.8L225.36,723.6L226.08,722.64L226.8,721.92L228.72,720.48L229.68,720L230.88,719.76L231.36,719.52L232.08,719.52" style="fill:none;fill-rule:nonzero;stroke:black;stroke-width:0.48px;"/>
    </g>
    <g transform="matrix(1.33333,0,0,1.33333,-63.9702,-949.88)">
        <path d="M232.08,734.64L223.92,735.6L226.08,737.04L232.08,734.64Z" style="stroke:black;stroke-width:0.48px;"/>
    </g>
    <g transform="matrix(1.33333,0,0,1.33333,-63.9702,-898.04)">
        <path d="M280.56,716.4L314.64,716.4" style="fill:none;fill-rule:nonzero;stroke:black;stroke-width:0.72px;"/>
    </g>
    <g transform="matrix(1.2958,0.314133,0.314133,-1.2958,-277.355,887.877)">
        <path d="M306.379,717.333L314.529,717.333L307.284,713.601L308.231,715.806L306.379,717.333Z" style="stroke:black;stroke-width:0.72px;"/>
    </g>
    <g transform="matrix(-1.2958,0.314133,0.314133,1.2958,459.026,-960.528)">
        <path d="M280.219,715.467L288.369,715.467L281.124,719.199L282.071,716.994L280.219,715.467Z" style="stroke:black;stroke-width:0.72px;"/>
    </g>
    <g transform="matrix(1.33333,0,0,1.33333,-63.9702,-964.92)">
        <path d="M345.24,740.4L345.39,740.41L345.55,740.44L345.7,740.5L345.85,740.59L346,740.72L346.13,740.87L346.22,741.02L346.28,741.17L346.31,741.33L346.31,741.63L346.28,741.79L346.22,741.94L346.13,742.09L346,742.24L345.85,742.37L345.7,742.46L345.55,742.52L345.39,742.55L345.24,742.56L345.09,742.55L344.93,742.52L344.78,742.46L344.63,742.37L344.48,742.24L344.35,742.09L344.26,741.94L344.2,741.79L344.17,741.63L344.17,741.33L344.2,741.17L344.26,741.02L344.35,740.87L344.48,740.72L344.63,740.59L344.78,740.5L344.93,740.44L345.09,740.41L345.24,740.4"/>
    </g>
    <g transform="matrix(1.15485,-0.666401,-0.666401,-1.15485,469.994,1107.52)">
        <path d="M326.137,711.95L340.823,711.95" style="fill:none;fill-rule:nonzero;stroke:black;stroke-width:0.72px;"/>
    </g>
    <g transform="matrix(1.15471,0.666647,0.666647,-1.15471,-475.757,655.05)">
        <path d="M337.97,710.315L353.35,710.315" style="fill:none;fill-rule:nonzero;stroke:black;stroke-width:0.72px;"/>
    </g>
    <g transform="matrix(1.15472,0.66664,0.66664,-1.15472,-477.867,653.889)">
        <path d="M339.78,713.71L353.22,713.71" style="fill:none;fill-rule:nonzero;stroke:black;stroke-width:0.72px;"/>
    </g>
    <g transform="matrix(0,-1.33333,-1.33333,0,1353.11,501.52)">
        <path d="M332.49,722.97L347.19,722.97" style="fill:none;fill-rule:nonzero;stroke:black;stroke-width:0.72px;"/>
    </g>
    <g transform="matrix(0,1.33333,1.33333,0,-577.73,-285.4)">
        <path d="M279.48,679.32L308.52,679.32" style="fill:none;fill-rule:nonzero;stroke:black;stroke-width:0.72px;"/>
    </g>
    <g transform="matrix(0,1.33333,1.33333,0,-573.89,-289.24)">
        <path d="M282.36,679.32L311.4,679.32" style="fill:none;fill-rule:nonzero;stroke:black;stroke-width:0.72px;"/>
    </g>
    <g transform="matrix(1.33333,0,0,1.33333,-63.9702,-762.04)">
        <path d="M299.04,661.44L295.44,669.36L291.84,661.44" style="fill:none;fill-rule:nonzero;stroke:black;stroke-width:0.72px;"/>
    </g>
    <g transform="matrix(1.15485,-0.666401,-0.666401,-1.15485,394.522,1095.17)">
        <path d="M280.537,610.91L295.223,610.91" style="fill:none;fill-rule:nonzero;stroke:black;stroke-width:0.72px;"/>
    </g>
    <g transform="matrix(1.15471,0.666647,0.666647,-1.15471,-416.544,703.497)">
        <path d="M292.37,609.275L307.75,609.275" style="fill:none;fill-rule:nonzero;stroke:black;stroke-width:0.72px;"/>
    </g>
    <g transform="matrix(1.15472,0.66664,0.66664,-1.15472,-418.655,702.335)">
        <path d="M294.18,612.67L307.62,612.67" style="fill:none;fill-rule:nonzero;stroke:black;stroke-width:0.72px;"/>
    </g>
    <g transform="matrix(0,-1.33333,-1.33333,0,1157.59,575.44)">
        <path d="M286.89,621.93L301.59,621.93" style="fill:none;fill-rule:nonzero;stroke:black;stroke-width:0.72px;"/>
    </g>
    <g transform="matrix(1.15487,-0.666381,-0.666381,-1.15487,416.293,1100.13)">
        <path d="M298.428,639.555L307.572,639.555" style="fill:none;fill-rule:nonzero;stroke:black;stroke-width:0.72px;"/>
    </g>
    <g transform="matrix(0,1.33333,1.33333,0,-438.85,-146.52)">
        <path d="M277.8,575.16L310.2,575.16" style="fill:none;fill-rule:nonzero;stroke:black;stroke-width:0.72px;"/>
    </g>
    <g transform="matrix(0,1.33333,1.33333,0,-435.01,-150.36)">
        <path d="M280.68,575.16L313.08,575.16" style="fill:none;fill-rule:nonzero;stroke:black;stroke-width:0.72px;"/>
    </g>
    <g transform="matrix(1.33333,0,0,1.33333,-63.9702,-479.8)">
        <path d="M299.04,555.6L295.44,563.52L291.84,555.6" style="fill:none;fill-rule:nonzero;stroke:black;stroke-width:0.72px;"/>
    </g>
    <g transform="matrix(1.15485,-0.666401,-0.666401,-1.15485,319.149,1115.18)">
        <path d="M280.297,497.87L294.983,497.87" style="fill:none;fill-rule:nonzero;stroke:black;stroke-width:0.72px;"/>
    </g>
    <g transform="matrix(1.15471,0.666647,0.666647,-1.15471,-341.229,723.848)">
        <path d="M292.13,496.235L307.51,496.235" style="fill:none;fill-rule:nonzero;stroke:black;stroke-width:0.72px;"/>
    </g>
    <g transform="matrix(1.15472,0.66664,0.66664,-1.15472,-343.34,722.686)">
        <path d="M293.94,499.63L307.38,499.63" style="fill:none;fill-rule:nonzero;stroke:black;stroke-width:0.72px;"/>
    </g>
    <g transform="matrix(0,-1.33333,-1.33333,0,1006.55,725.84)">
        <path d="M286.65,508.89L301.35,508.89" style="fill:none;fill-rule:nonzero;stroke:black;stroke-width:0.72px;"/>
    </g>
    <g transform="matrix(1.15487,-0.666381,-0.666381,-1.15487,340.922,1120.15)">
        <path d="M298.188,526.515L307.332,526.515" style="fill:none;fill-rule:nonzero;stroke:black;stroke-width:0.72px;"/>
    </g>
</svg>
