<?xml version="1.0" encoding="UTF-8" standalone="no"?>
<!DOCTYPE svg PUBLIC "-//W3C//DTD SVG 1.1//EN" "http://www.w3.org/Graphics/SVG/1.1/DTD/svg11.dtd">
<svg width="100%" height="100%" viewBox="0 0 675 285" version="1.1" xmlns="http://www.w3.org/2000/svg" xmlns:xlink="http://www.w3.org/1999/xlink" xml:space="preserve" xmlns:serif="http://www.serif.com/" style="fill-rule:evenodd;clip-rule:evenodd;stroke-linecap:round;stroke-linejoin:round;stroke-miterlimit:10;">
    <g transform="matrix(1.33333,0,0,1.33333,-59.9472,-68.3292)">
        <text x="271.92px" y="135.12px" style="font-family:'ArialMT', 'Arial', sans-serif;font-size:10px;">C</text>
    </g>
    <g transform="matrix(1.33333,0,0,1.33333,-59.9472,-68.3292)">
        <text x="264.72px" y="135.12px" style="font-family:'ArialMT', 'Arial', sans-serif;font-size:10px;">H</text>
    </g>
    <g transform="matrix(1.33333,0,0,1.33333,-59.9472,-68.3292)">
        <text x="261.84px" y="117.84px" style="font-family:'ArialMT', 'Arial', sans-serif;font-size:10px;">C</text>
    </g>
    <g transform="matrix(1.33333,0,0,1.33333,-59.9472,-68.3292)">
        <text x="250.32px" y="117.84px" style="font-family:'ArialMT', 'Arial', sans-serif;font-size:10px;">H</text>
        <text x="257.52px" y="120.48px" style="font-family:'ArialMT', 'Arial', sans-serif;font-size:8px;">3</text>
    </g>
    <g transform="matrix(1.33333,0,0,1.33333,-59.9472,-68.3292)">
        <text x="301.68px" y="152.16px" style="font-family:'ArialMT', 'Arial', sans-serif;font-size:10px;">R</text>
        <text x="309.12px" y="145.2px" style="font-family:'ArialMT', 'Arial', sans-serif;font-size:8px;">1</text>
    </g>
    <g transform="matrix(1.33333,0,0,1.33333,-59.9472,-68.3292)">
        <text x="301.44px" y="117.84px" style="font-family:'ArialMT', 'Arial', sans-serif;font-size:10px;">O	<tspan x="321.84px " y="117.84px ">B</tspan></text>
    </g>
    <g transform="matrix(1.33333,0,0,1.33333,-59.9472,-68.3292)">
        <text x="262.8px" y="78.72px" style="font-family:'ArialMT', 'Arial', sans-serif;font-size:10px;">H	<tspan x="282.72px " y="78.72px ">C</tspan></text>
    </g>
    <g transform="matrix(1.33333,0,0,1.33333,-59.9472,-68.3292)">
        <text x="292.32px" y="96px" style="font-family:'ArialMT', 'Arial', sans-serif;font-size:10px;">O</text>
    </g>
    <g transform="matrix(1.33333,0,0,1.33333,-59.9472,-68.3292)">
        <text x="292.8px" y="61.44px" style="font-family:'ArialMT', 'Arial', sans-serif;font-size:10px;">R</text>
    </g>
    <g transform="matrix(1.33333,0,0,1.33333,-59.9472,-68.3292)">
        <text x="92.4px" y="124.56px" style="font-family:'ArialMT', 'Arial', sans-serif;font-size:10px;">O</text>
    </g>
    <g transform="matrix(1.33333,0,0,1.33333,-59.9472,-68.3292)">
        <text x="58.32px" y="104.64px" style="font-family:'ArialMT', 'Arial', sans-serif;font-size:10px;">C</text>
    </g>
    <g transform="matrix(1.33333,0,0,1.33333,-59.9472,-68.3292)">
        <text x="46.8px" y="104.64px" style="font-family:'ArialMT', 'Arial', sans-serif;font-size:10px;">H</text>
        <text x="54px" y="107.28px" style="font-family:'ArialMT', 'Arial', sans-serif;font-size:8px;">3</text>
    </g>
    <g transform="matrix(1.33333,0,0,1.33333,-59.9472,-68.3292)">
        <text x="109.92px" y="94.56px" style="font-family:'ArialMT', 'Arial', sans-serif;font-size:10px;">R</text>
        <text x="117.36px" y="87.6px" style="font-family:'ArialMT', 'Arial', sans-serif;font-size:8px;">1</text>
    </g>
    <g transform="matrix(1.33333,0,0,1.33333,-59.9472,-68.3292)">
        <text x="110.16px" y="134.64px" style="font-family:'ArialMT', 'Arial', sans-serif;font-size:10px;">B</text>
    </g>
    <g transform="matrix(1.33333,0,0,1.33333,-59.9472,-68.3292)">
        <text x="177.84px" y="83.52px" style="font-family:'ArialMT', 'Arial', sans-serif;font-size:10px;">R</text>
    </g>
    <g transform="matrix(1.33333,0,0,1.33333,-59.9472,-68.3292)">
        <text x="207.6px" y="100.56px" style="font-family:'ArialMT', 'Arial', sans-serif;font-size:10px;">H</text>
    </g>
    <g transform="matrix(1.33333,0,0,1.33333,-59.9472,-68.3292)">
        <text x="207.36px" y="66.24px" style="font-family:'ArialMT', 'Arial', sans-serif;font-size:10px;">O</text>
    </g>
    <g transform="matrix(1.33333,0,0,1.33333,-59.9472,-68.3292)">
        <text x="495.36px" y="261.84px" style="font-family:'ArialMT', 'Arial', sans-serif;font-size:10px;">O</text>
    </g>
    <g transform="matrix(1.33333,0,0,1.33333,-59.9472,-68.3292)">
        <text x="461.04px" y="261.84px" style="font-family:'ArialMT', 'Arial', sans-serif;font-size:10px;">O<tspan x="468.96px " y="261.84px ">H</tspan></text>
    </g>
    <g transform="matrix(1.33333,0,0,1.33333,-59.9472,-68.3292)">
        <text x="444px" y="232.08px" style="font-family:'ArialMT', 'Arial', sans-serif;font-size:10px;">R</text>
    </g>
    <g transform="matrix(1.33333,0,0,1.33333,-59.9472,-68.3292)">
        <text x="478.32px" y="211.92px" style="font-family:'ArialMT', 'Arial', sans-serif;font-size:10px;">CH</text>
        <text x="492.72px" y="214.56px" style="font-family:'ArialMT', 'Arial', sans-serif;font-size:8px;">3</text>
    </g>
    <g transform="matrix(1.33333,0,0,1.33333,-59.9472,-68.3292)">
        <text x="512.88px" y="231.84px" style="font-family:'ArialMT', 'Arial', sans-serif;font-size:10px;">R</text>
        <text x="520.32px" y="224.88px" style="font-family:'ArialMT', 'Arial', sans-serif;font-size:8px;">1</text>
    </g>
    <g transform="matrix(1.33333,0,0,1.33333,-59.9472,-68.3292)">
        <text x="77.52px" y="146.16px" style="font-family:'ArialMT', 'Arial', sans-serif;font-size:10px;">Z</text>
    </g>
    <g transform="matrix(1.33333,0,0,1.33333,-59.9472,-68.3292)">
        <text x="500.64px" y="122.88px" style="font-family:'ArialMT', 'Arial', sans-serif;font-size:10px;">B</text>
    </g>
    <g transform="matrix(1.33333,0,0,1.33333,-59.9472,-68.3292)">
        <text x="468px" y="101.52px" style="font-family:'ArialMT', 'Arial', sans-serif;font-size:10px;">O</text>
    </g>
    <g transform="matrix(1.33333,0,0,1.33333,-59.9472,-68.3292)">
        <text x="446.4px" y="68.64px" style="font-family:'ArialMT', 'Arial', sans-serif;font-size:10px;">C</text>
    </g>
    <g transform="matrix(1.33333,0,0,1.33333,-59.9472,-68.3292)">
        <text x="434.88px" y="68.64px" style="font-family:'ArialMT', 'Arial', sans-serif;font-size:10px;">H</text>
        <text x="442.08px" y="71.28px" style="font-family:'ArialMT', 'Arial', sans-serif;font-size:8px;">3</text>
    </g>
    <g transform="matrix(1.33333,0,0,1.33333,-59.9472,-68.3292)">
        <text x="505.44px" y="88.8px" style="font-family:'ArialMT', 'Arial', sans-serif;font-size:10px;">O</text>
    </g>
    <g transform="matrix(1.33333,0,0,1.33333,-59.9472,-68.3292)">
        <text x="433.92px" y="118.56px" style="font-family:'ArialMT', 'Arial', sans-serif;font-size:10px;">R</text>
    </g>
    <g transform="matrix(1.33333,0,0,1.33333,-59.9472,-68.3292)">
        <text x="432.24px" y="94.32px" style="font-family:'ArialMT', 'Arial', sans-serif;font-size:10px;">H</text>
    </g>
    <g transform="matrix(1.33333,0,0,1.33333,-59.9472,-68.3292)">
        <text x="486px" y="138.96px" style="font-family:'ArialMT', 'Arial', sans-serif;font-size:10px;">R</text>
        <text x="493.44px" y="132px" style="font-family:'ArialMT', 'Arial', sans-serif;font-size:8px;">1</text>
    </g>
    <g transform="matrix(1.33333,0,0,1.33333,-59.9472,-841.449)">
        <path d="M280.08,710.88L295.44,710.88" style="fill:none;fill-rule:nonzero;stroke:black;stroke-width:0.72px;"/>
    </g>
    <g transform="matrix(1.33333,0,0,1.33333,-59.9472,-850.409)">
        <path d="M280.08,714.24L293.78,714.24" style="fill:none;fill-rule:nonzero;stroke:black;stroke-width:0.72px;"/>
    </g>
    <g transform="matrix(-0.666871,-1.15458,-1.15458,0.666871,1311.91,-72.2862)">
        <path d="M266.581,719.4L274.619,719.4" style="fill:none;fill-rule:nonzero;stroke:black;stroke-width:0.72px;"/>
    </g>
    <g transform="matrix(0.666796,1.15463,1.15463,-0.666796,-674.588,239.279)">
        <path d="M291.976,704.88L305.834,704.88" style="fill:none;fill-rule:nonzero;stroke:black;stroke-width:0.72px;"/>
    </g>
    <g transform="matrix(0.666796,-1.15463,-1.15463,-0.666796,967.012,921.527)">
        <path d="M291.976,716.88L305.834,716.88" style="fill:none;fill-rule:nonzero;stroke:black;stroke-width:0.72px;"/>
    </g>
    <g transform="matrix(-1.04259,-0.83113,-0.83113,1.04259,1416.78,-413.992)">
        <path d="M351.208,744.3L371.132,744.3" style="fill:none;fill-rule:nonzero;stroke:black;stroke-width:0.72px;"/>
    </g>
    <g transform="matrix(-1.04233,0.831456,0.831456,1.04233,206.12,-937.45)">
        <path d="M351.217,711.96L371.133,711.96" style="fill:none;fill-rule:nonzero;stroke:black;stroke-width:0.72px;"/>
    </g>
    <g transform="matrix(0,1.33333,1.33333,0,-538.841,-408.556)">
        <path d="M359,728.13L378.92,728.13" style="fill:none;fill-rule:nonzero;stroke:black;stroke-width:0.72px;"/>
    </g>
    <g transform="matrix(1.33333,0,0,1.33333,-59.9472,-887.449)">
        <path d="M310.32,728.13L320.88,728.13" style="fill:none;fill-rule:nonzero;stroke:black;stroke-width:0.72px;"/>
    </g>
    <g transform="matrix(-1.04256,-0.831168,-0.831168,1.04256,1345.82,-361.358)">
        <path d="M326.191,715.265L356.719,715.265" style="fill:none;fill-rule:nonzero;stroke:black;stroke-width:0.72px;"/>
    </g>
    <g transform="matrix(-1.04239,0.831381,0.831381,1.04239,135.196,-990.046)">
        <path d="M326.19,740.995L356.71,740.995" style="fill:none;fill-rule:nonzero;stroke:black;stroke-width:0.72px;"/>
    </g>
    <g transform="matrix(-0.000297885,-1.33333,-1.33333,0.000297885,1382.18,554.354)">
        <path d="M331.005,728.13L375.765,728.13" style="fill:none;fill-rule:nonzero;stroke:black;stroke-width:0.72px;"/>
    </g>
    <g transform="matrix(1.33331,0.00740729,0.00740729,-1.33331,-65.6244,1052.17)">
        <path d="M270.96,767.2L281.76,767.2" style="fill:none;fill-rule:nonzero;stroke:black;stroke-width:0.72px;"/>
    </g>
    <g transform="matrix(0.660622,1.15817,1.15817,-0.660622,-742.478,206.586)">
        <path d="M287.299,758.52L295.311,758.52" style="fill:none;fill-rule:nonzero;stroke:black;stroke-width:0.72px;"/>
    </g>
    <g transform="matrix(0.660676,1.15814,1.15814,-0.660676,-742.452,211.137)">
        <path d="M282.441,756.82L294.369,756.82" style="fill:none;fill-rule:nonzero;stroke:black;stroke-width:0.72px;"/>
    </g>
    <g transform="matrix(0.671828,-1.15171,-1.15171,-0.671828,1026.32,876.665)">
        <path d="M287.391,775.8L295.449,775.8" style="fill:none;fill-rule:nonzero;stroke:black;stroke-width:0.72px;"/>
    </g>
    <g transform="matrix(-1.06797,-0.798262,-0.798262,1.06797,1276.71,-471.571)">
        <path d="M298.755,738.805L323.325,738.805" style="fill:none;fill-rule:nonzero;stroke:black;stroke-width:0.72px;stroke-dasharray:2.16,1.44;"/>
    </g>
    <g transform="matrix(-0.252576,1.30919,1.30919,0.252576,-581.85,-485.491)">
        <path d="M257.47,738.96L304.4,738.96" style="fill:none;fill-rule:nonzero;stroke:black;stroke-width:0.72px;stroke-dasharray:2.16,1.44;"/>
    </g>
    <g transform="matrix(1.33333,0,0,1.33333,-59.9472,-886.889)">
        <path d="M285.12,739.92L284.16,736.8L283.68,733.2L284.16,729.84L285.12,726.48L285.84,725.04L287.76,722.16L288.72,720.96L289.92,720L292.8,718.08L294.24,717.36L297.6,716.4L299.28,716.16L300.48,715.92L300.96,715.92L302.64,716.16L304.08,716.16L308.4,717.6L310.8,719.04L313.2,720.96L315.12,723.36L316.56,725.76L316.8,726.48" style="fill:none;fill-rule:nonzero;stroke:black;stroke-width:0.48px;"/>
    </g>
    <g transform="matrix(0.580748,1.20021,1.20021,-0.580748,-710.787,172.181)">
        <path d="M279.579,719.735L287.844,719.735L280.604,723.505L281.6,721.157L279.579,719.735Z" style="stroke:black;stroke-width:0.48px;"/>
    </g>
    <g transform="matrix(1.33333,0,0,1.33333,-59.9472,-895.529)">
        <path d="M286.8,756.48L282.96,758.4L280.8,759.12L278.88,759.6L276.72,760.08L274.56,760.32L269.76,760.32L267.6,760.08L265.44,759.6L263.04,758.88L261.12,758.16L258.96,757.2L257.04,756.24L255.36,755.04L253.44,753.6L252,752.16L250.32,750.72L248.88,749.04L246.48,745.2L245.52,743.28L244.8,741.36L244.08,739.2L243.6,736.8L243.12,734.64L242.88,732.24L242.88,731.28L243.36,726.48L244.32,722.16L245.04,720L246,718.08L248.4,714.24L249.6,712.56L251.04,710.88L254.4,708L256.08,706.8L258,705.6L259.92,704.64L262.08,703.68L264.24,702.96L266.4,702.48L268.8,702.24L270.96,702L272.16,702L275.76,702.24L279.12,702.72L282.24,703.68L285.36,705.12L286.8,705.84" style="fill:none;fill-rule:nonzero;stroke:black;stroke-width:0.48px;"/>
    </g>
    <g transform="matrix(1.03365,0.842231,0.842231,-1.03365,-614.574,588.617)">
        <path d="M279.192,759.651L287.551,759.651L280.163,755.799L281.418,758.059L279.192,759.651Z" style="stroke:black;stroke-width:0.48px;"/>
    </g>
    <g transform="matrix(1.33333,0,0,1.33333,-59.9472,-950.889)">
        <path d="M294,744.48L296.16,742.32L298.8,740.64L301.44,739.44L304.56,738.96L306.24,738.72L309.6,739.2L312.96,740.16L314.4,740.88L315.6,741.84L317.04,742.8L318.24,744L319.2,745.44L320.16,746.64L320.88,748.08L321.84,751.44L322.08,753.12L322.32,754.32L322.32,754.8L322.08,757.44L321.36,759.84L320.4,762L319.2,764.16L318.48,765.12" style="fill:none;fill-rule:nonzero;stroke:black;stroke-width:0.48px;"/>
    </g>
    <g transform="matrix(-0.870586,1.00988,1.00988,0.870586,-101.934,-908.29)">
        <path d="M317.613,743.787L326.802,743.787L318.352,739.988L319.882,742.257L317.613,743.787Z" style="stroke:black;stroke-width:0.48px;"/>
    </g>
    <g transform="matrix(0,-1.33333,-1.33333,0,1047.13,204.351)">
        <path d="M89.07,733.86L103.83,733.86" style="fill:none;fill-rule:nonzero;stroke:black;stroke-width:0.72px;"/>
    </g>
    <g transform="matrix(1.15468,0.666702,0.666702,-1.15468,-541.763,862.363)">
        <path d="M77.866,746.22L97.784,746.22" style="fill:none;fill-rule:nonzero;stroke:black;stroke-width:0.72px;"/>
    </g>
    <g transform="matrix(1.15458,0.666876,0.666876,-1.15458,-540.244,863.913)">
        <path d="M77.848,743.31L94.442,743.31" style="fill:none;fill-rule:nonzero;stroke:black;stroke-width:0.72px;"/>
    </g>
    <g transform="matrix(1.15485,-0.666401,-0.666401,-1.15485,451.208,969.353)">
        <path d="M65.497,747.53L80.183,747.53" style="fill:none;fill-rule:nonzero;stroke:black;stroke-width:0.72px;"/>
    </g>
    <g transform="matrix(1.15481,-0.666483,-0.666483,-1.15481,454.818,989.706)">
        <path d="M95.483,744.85L109.927,744.85" style="fill:none;fill-rule:nonzero;stroke:black;stroke-width:0.72px;"/>
    </g>
    <g transform="matrix(-0.487329,-1.24108,-1.24108,0.487329,1096.31,-44.0917)">
        <path d="M142.881,707.44L162.799,707.44" style="fill:none;fill-rule:nonzero;stroke:black;stroke-width:0.72px;"/>
    </g>
    <g transform="matrix(-1.31843,0.198769,0.198769,1.31843,167.419,-774.639)">
        <path d="M126.709,679.435L146.631,679.435" style="fill:none;fill-rule:nonzero;stroke:black;stroke-width:0.72px;"/>
    </g>
    <g transform="matrix(-0.666702,1.15468,1.15468,0.666702,-553.146,-499.818)">
        <path d="M141.541,689.545L161.459,689.545" style="fill:none;fill-rule:nonzero;stroke:black;stroke-width:0.72px;"/>
    </g>
    <g transform="matrix(1.15487,0.666381,0.666381,-1.15487,-518.457,856.274)">
        <path d="M100.668,716.245L109.812,716.245" style="fill:none;fill-rule:nonzero;stroke:black;stroke-width:0.72px;"/>
    </g>
    <g transform="matrix(-0.487113,-1.24117,-1.24117,0.487113,1019.78,-54.9919)">
        <path d="M106.191,692.015L136.409,692.015" style="fill:none;fill-rule:nonzero;stroke:black;stroke-width:0.72px;"/>
    </g>
    <g transform="matrix(-1.31842,0.198856,0.198856,1.31842,152.063,-866.588)">
        <path d="M117.663,714.345L149.377,714.345" style="fill:none;fill-rule:nonzero;stroke:black;stroke-width:0.72px;"/>
    </g>
    <g transform="matrix(0.666709,-1.15468,-1.15468,-0.666709,837.244,748.731)">
        <path d="M115.631,697.33L160.389,697.33" style="fill:none;fill-rule:nonzero;stroke:black;stroke-width:0.72px;"/>
    </g>
    <g transform="matrix(1.33333,0,0,1.33333,-59.9472,-906.729)">
        <path d="M163.44,735.36L229.68,735.36" style="fill:none;fill-rule:nonzero;stroke:black;stroke-width:0.72px;"/>
    </g>
    <g transform="matrix(1.2958,0.314133,0.314133,-1.2958,-282.476,955.724)">
        <path d="M221.419,736.293L229.569,736.293L222.324,732.561L223.271,734.766L221.419,736.293Z" style="stroke:black;stroke-width:0.72px;"/>
    </g>
    <g transform="matrix(1.33333,0,0,1.33333,-59.9472,-979.049)">
        <path d="M186,762.48L201.36,762.48" style="fill:none;fill-rule:nonzero;stroke:black;stroke-width:0.72px;"/>
    </g>
    <g transform="matrix(0.666796,1.15463,1.15463,-0.666796,-796.875,313.513)">
        <path d="M197.896,756.48L211.754,756.48" style="fill:none;fill-rule:nonzero;stroke:black;stroke-width:0.72px;"/>
    </g>
    <g transform="matrix(0.667127,-1.15443,-1.15443,-0.667127,964.313,780.958)">
        <path d="M199.105,768.06L213.935,768.06" style="fill:none;fill-rule:nonzero;stroke:black;stroke-width:0.72px;"/>
    </g>
    <g transform="matrix(0.666267,-1.15493,-1.15493,-0.666267,963.649,775.923)">
        <path d="M196.661,768.945L209.649,768.945" style="fill:none;fill-rule:nonzero;stroke:black;stroke-width:0.72px;"/>
    </g>
    <g transform="matrix(1.33333,0,0,1.33333,-59.9472,-904.169)">
        <path d="M382.8,734.4L416.88,734.4" style="fill:none;fill-rule:nonzero;stroke:black;stroke-width:0.72px;"/>
    </g>
    <g transform="matrix(1.2958,0.314133,0.314133,-1.2958,-275.149,896.954)">
        <path d="M408.619,735.333L416.769,735.333L409.524,731.601L410.471,733.806L408.619,735.333Z" style="stroke:black;stroke-width:0.72px;"/>
    </g>
    <g transform="matrix(0,1.33333,1.33333,0,-311.947,-485.449)">
        <path d="M467.16,671.88L498.6,671.88" style="fill:none;fill-rule:nonzero;stroke:black;stroke-width:0.72px;"/>
    </g>
    <g transform="matrix(-0.314133,1.2958,1.2958,0.314133,-119.802,-659.011)">
        <path d="M478.579,661.053L486.729,661.053L479.484,657.321L480.431,659.526L478.579,661.053Z" style="stroke:black;stroke-width:0.72px;"/>
    </g>
    <g transform="matrix(0,-1.33333,-1.33333,0,1403.61,926.911)">
        <path d="M493.71,596.58L508.47,596.58" style="fill:none;fill-rule:nonzero;stroke:black;stroke-width:0.72px;"/>
    </g>
    <g transform="matrix(0,-1.33333,-1.33333,0,1399.13,922.431)">
        <path d="M490.35,596.58L505.11,596.58" style="fill:none;fill-rule:nonzero;stroke:black;stroke-width:0.72px;"/>
    </g>
    <g transform="matrix(1.15468,0.666702,0.666702,-1.15468,-378.248,618.234)">
        <path d="M480.826,608.94L500.744,608.94" style="fill:none;fill-rule:nonzero;stroke:black;stroke-width:0.72px;"/>
    </g>
    <g transform="matrix(1.15468,-0.666702,-0.666702,-1.15468,430.633,1261.15)">
        <path d="M463.576,608.94L483.494,608.94" style="fill:none;fill-rule:nonzero;stroke:black;stroke-width:0.72px;"/>
    </g>
    <g transform="matrix(-0.150788,1.32478,1.32478,0.150788,-160.301,-447.07)">
        <path d="M457.577,595.745L472.433,595.745L472.053,599.084L457.577,595.745Z" style="stroke:black;stroke-width:0.24px;"/>
    </g>
    <g transform="matrix(-1.15475,-0.666584,-0.666584,1.15475,1485.97,-151.975)">
        <path d="M451.174,607.64L465.896,607.64" style="fill:none;fill-rule:nonzero;stroke:black;stroke-width:0.72px;"/>
    </g>
    <g transform="matrix(0.149587,-1.32492,-1.32492,-0.149587,1334.06,957.52)">
        <path d="M474.767,620.525L489.742,620.525L489.365,623.864L474.767,620.525Z" style="stroke:black;stroke-width:0.24px;"/>
    </g>
    <g transform="matrix(1.15481,-0.666483,-0.666483,-1.15481,435.263,1282.78)">
        <path d="M498.443,607.57L512.887,607.57" style="fill:none;fill-rule:nonzero;stroke:black;stroke-width:0.72px;"/>
    </g>
    <g transform="matrix(-0.721281,-1.1214,-1.1214,0.721281,1871.27,169.77)">
        <path d="M533.216,726.94L553.144,726.94" style="fill:none;fill-rule:nonzero;stroke:black;stroke-width:0.72px;"/>
    </g>
    <g transform="matrix(-1.25401,0.453024,0.453024,1.25401,1003.2,-988.731)">
        <path d="M522.857,696.305L542.783,696.305" style="fill:none;fill-rule:nonzero;stroke:black;stroke-width:0.72px;"/>
    </g>
    <g transform="matrix(-0.427055,1.26309,1.26309,0.427055,4.44318,-882.97)">
        <path d="M535.42,709.125L555.34,709.125" style="fill:none;fill-rule:nonzero;stroke:black;stroke-width:0.72px;"/>
    </g>
    <g transform="matrix(-0.72101,-1.12157,-1.12157,0.72101,1790.08,183.241)">
        <path d="M500.627,705.38L530.253,705.38" style="fill:none;fill-rule:nonzero;stroke:black;stroke-width:0.72px;"/>
    </g>
    <g transform="matrix(-1.25383,0.453539,0.453539,1.25383,962.201,-1071.6)">
        <path d="M507.386,729.99L538.724,729.99" style="fill:none;fill-rule:nonzero;stroke:black;stroke-width:0.72px;"/>
    </g>
    <g transform="matrix(0.427174,-1.26305,-1.26305,-0.427174,1322.85,1077.32)">
        <path d="M508.24,714.12L553,714.12" style="fill:none;fill-rule:nonzero;stroke:black;stroke-width:0.72px;"/>
    </g>
    <g transform="matrix(0.427656,-1.26289,-1.26289,-0.427656,1299.9,950.453)">
        <path d="M445.714,749.985L465.636,749.985" style="fill:none;fill-rule:nonzero;stroke:black;stroke-width:0.72px;"/>
    </g>
    <g transform="matrix(1.30748,-0.261315,-0.261315,-1.30748,145.839,1155.19)">
        <path d="M452.336,742.005L467.184,742.005" style="fill:none;fill-rule:nonzero;stroke:black;stroke-width:0.72px;"/>
    </g>
    <g transform="matrix(1.25535,0.449301,0.449301,-1.25535,-361.695,782.352)">
        <path d="M457.914,753.91L490.616,753.91" style="fill:none;fill-rule:nonzero;stroke:black;stroke-width:0.72px;"/>
    </g>
    <g transform="matrix(-0.590992,-1.1952,-1.1952,0.590992,1732.27,125.38)">
        <path d="M448.678,765.75L462.802,765.75" style="fill:none;fill-rule:nonzero;stroke:black;stroke-width:0.72px;"/>
    </g>
    <g transform="matrix(1.2181,-0.542238,-0.542238,-1.2181,404.06,1237.52)">
        <path d="M489.682,750.015L505.148,750.015" style="fill:none;fill-rule:nonzero;stroke:black;stroke-width:0.72px;"/>
    </g>
    <g transform="matrix(1.21809,-0.542247,-0.542247,-1.21809,405.821,1236.76)">
        <path d="M488.247,753.39L505.213,753.39" style="fill:none;fill-rule:nonzero;stroke:black;stroke-width:0.72px;"/>
    </g>
    <g transform="matrix(-1.00152,0.880186,0.880186,1.00152,336.589,-1057.87)">
        <path d="M440.357,735.98L454.203,735.98" style="fill:none;fill-rule:nonzero;stroke:black;stroke-width:0.72px;"/>
    </g>
    <g transform="matrix(-1.10912,-0.740024,-0.740024,1.10912,1581.47,-433.993)">
        <path d="M439.179,744.58L453.701,744.58" style="fill:none;fill-rule:nonzero;stroke:black;stroke-width:0.72px;"/>
    </g>
    <g transform="matrix(-1.1094,-0.7396,-0.7396,1.1094,1675.37,-376.651)">
        <path d="M474.579,733.61L501.981,733.61" style="fill:none;fill-rule:nonzero;stroke:black;stroke-width:0.72px;"/>
    </g>
    <g transform="matrix(1.33333,0,0,1.33333,-59.9472,-899.689)">
        <path d="M487.92,733.68L487.92,729.6L491.28,731.76L491.28,735.84" style="fill:white;"/>
    </g>
    <g transform="matrix(0.00403816,1.33333,1.33333,-0.00403816,-382.62,-569.424)">
        <path d="M471.555,730.24L507.875,730.24" style="fill:none;fill-rule:nonzero;stroke:black;stroke-width:0.72px;"/>
    </g>
</svg>
