<?xml version="1.0" encoding="UTF-8" standalone="no"?>
<!DOCTYPE svg PUBLIC "-//W3C//DTD SVG 1.1//EN" "http://www.w3.org/Graphics/SVG/1.1/DTD/svg11.dtd">
<svg width="100%" height="100%" viewBox="0 0 670 435" version="1.1" xmlns="http://www.w3.org/2000/svg" xmlns:xlink="http://www.w3.org/1999/xlink" xml:space="preserve" xmlns:serif="http://www.serif.com/" style="fill-rule:evenodd;clip-rule:evenodd;stroke-linecap:round;stroke-linejoin:round;stroke-miterlimit:10;">
    <g transform="matrix(1.33333,0,0,1.33333,-57.9605,-99.1933)">
        <text x="91.44px" y="205.92px" style="font-family:'ArialMT', 'Arial', sans-serif;font-size:10px;">O</text>
    </g>
    <g transform="matrix(1.33333,0,0,1.33333,-57.9605,-99.1933)">
        <text x="57.36px" y="186px" style="font-family:'ArialMT', 'Arial', sans-serif;font-size:10px;">C</text>
    </g>
    <g transform="matrix(1.33333,0,0,1.33333,-57.9605,-99.1933)">
        <text x="45.84px" y="186px" style="font-family:'ArialMT', 'Arial', sans-serif;font-size:10px;">H</text>
        <text x="53.04px" y="188.64px" style="font-family:'ArialMT', 'Arial', sans-serif;font-size:8px;">3</text>
    </g>
    <g transform="matrix(1.33333,0,0,1.33333,-57.9605,-99.1933)">
        <text x="108.96px" y="175.92px" style="font-family:'ArialMT', 'Arial', sans-serif;font-size:10px;">R</text>
        <text x="116.4px" y="168.96px" style="font-family:'ArialMT', 'Arial', sans-serif;font-size:8px;">1</text>
    </g>
    <g transform="matrix(1.33333,0,0,1.33333,-57.9605,-99.1933)">
        <text x="194.16px" y="217.68px" style="font-family:'ArialMT', 'Arial', sans-serif;font-size:10px;">N</text>
    </g>
    <g transform="matrix(1.33333,0,0,1.33333,-57.9605,-99.1933)">
        <text x="223.92px" y="200.4px" style="font-family:'ArialMT', 'Arial', sans-serif;font-size:10px;">CH</text>
        <text x="238.32px" y="203.04px" style="font-family:'ArialMT', 'Arial', sans-serif;font-size:8px;">3</text>
    </g>
    <g transform="matrix(1.33333,0,0,1.33333,-57.9605,-99.1933)">
        <text x="223.92px" y="234.72px" style="font-family:'ArialMT', 'Arial', sans-serif;font-size:10px;">CH</text>
        <text x="238.32px" y="237.36px" style="font-family:'ArialMT', 'Arial', sans-serif;font-size:8px;">3</text>
    </g>
    <g transform="matrix(1.33333,0,0,1.33333,-57.9605,-99.1933)">
        <text x="164.16px" y="200.4px" style="font-family:'ArialMT', 'Arial', sans-serif;font-size:10px;">C</text>
    </g>
    <g transform="matrix(1.33333,0,0,1.33333,-57.9605,-99.1933)">
        <text x="152.64px" y="200.4px" style="font-family:'ArialMT', 'Arial', sans-serif;font-size:10px;">H</text>
        <text x="159.84px" y="203.04px" style="font-family:'ArialMT', 'Arial', sans-serif;font-size:8px;">3</text>
    </g>
    <g transform="matrix(1.33333,0,0,1.33333,-57.9605,-99.1933)">
        <text x="164.16px" y="234.72px" style="font-family:'ArialMT', 'Arial', sans-serif;font-size:10px;">C</text>
    </g>
    <g transform="matrix(1.33333,0,0,1.33333,-57.9605,-99.1933)">
        <text x="152.64px" y="234.72px" style="font-family:'ArialMT', 'Arial', sans-serif;font-size:10px;">H</text>
        <text x="159.84px" y="237.36px" style="font-family:'ArialMT', 'Arial', sans-serif;font-size:8px;">3</text>
    </g>
    <g transform="matrix(1.33333,0,0,1.33333,-57.9605,-99.1933)">
        <text x="211.2px" y="247.44px" style="font-family:'ArialMT', 'Arial', sans-serif;font-size:10px;">CH</text>
        <text x="225.6px" y="250.08px" style="font-family:'ArialMT', 'Arial', sans-serif;font-size:8px;">3</text>
    </g>
    <g transform="matrix(1.33333,0,0,1.33333,-57.9605,-99.1933)">
        <text x="209.04px" y="130.08px" style="font-family:'ArialMT', 'Arial', sans-serif;font-size:10px;">B<tspan x="215.837px 228.48px " y="130.08px 130.08px ">	O</tspan></text>
        <text x="236.386px" y="130.08px" style="font-family:'ArialMT', 'Arial', sans-serif;font-size:10px;">T<tspan x="242.753px " y="130.08px ">f</tspan></text>
    </g>
    <g transform="matrix(1.33333,0,0,1.33333,-57.9605,-99.1933)">
        <text x="317.52px" y="156px" style="font-family:'ArialMT', 'Arial', sans-serif;font-size:10px;">R</text>
        <text x="324.96px" y="149.04px" style="font-family:'ArialMT', 'Arial', sans-serif;font-size:8px;">1</text>
    </g>
    <g transform="matrix(1.33333,0,0,1.33333,-57.9605,-99.1933)">
        <text x="283.2px" y="136.08px" style="font-family:'ArialMT', 'Arial', sans-serif;font-size:10px;">CH</text>
        <text x="297.6px" y="138.72px" style="font-family:'ArialMT', 'Arial', sans-serif;font-size:8px;">3</text>
    </g>
    <g transform="matrix(1.33333,0,0,1.33333,-57.9605,-99.1933)">
        <text x="300px" y="186px" style="font-family:'ArialMT', 'Arial', sans-serif;font-size:10px;">O</text>
    </g>
    <g transform="matrix(1.33333,0,0,1.33333,-57.9605,-99.1933)">
        <text x="317.76px" y="195.84px" style="font-family:'ArialMT', 'Arial', sans-serif;font-size:10px;">B</text>
    </g>
    <g transform="matrix(1.33333,0,0,1.33333,-57.9605,-99.1933)">
        <text x="447.12px" y="203.52px" style="font-family:'ArialMT', 'Arial', sans-serif;font-size:10px;">C</text>
    </g>
    <g transform="matrix(1.33333,0,0,1.33333,-57.9605,-99.1933)">
        <text x="437.04px" y="186.24px" style="font-family:'ArialMT', 'Arial', sans-serif;font-size:10px;">H</text>
    </g>
    <g transform="matrix(1.33333,0,0,1.33333,-57.9605,-99.1933)">
        <text x="437.04px" y="220.56px" style="font-family:'ArialMT', 'Arial', sans-serif;font-size:10px;">C</text>
    </g>
    <g transform="matrix(1.33333,0,0,1.33333,-57.9605,-99.1933)">
        <text x="425.52px" y="220.56px" style="font-family:'ArialMT', 'Arial', sans-serif;font-size:10px;">H</text>
        <text x="432.72px" y="223.2px" style="font-family:'ArialMT', 'Arial', sans-serif;font-size:8px;">3</text>
    </g>
    <g transform="matrix(1.33333,0,0,1.33333,-57.9605,-99.1933)">
        <text x="476.88px" y="220.56px" style="font-family:'ArialMT', 'Arial', sans-serif;font-size:10px;">R</text>
        <text x="484.32px" y="213.6px" style="font-family:'ArialMT', 'Arial', sans-serif;font-size:8px;">1</text>
    </g>
    <g transform="matrix(1.33333,0,0,1.33333,-57.9605,-99.1933)">
        <text x="476.64px" y="186.24px" style="font-family:'ArialMT', 'Arial', sans-serif;font-size:10px;">O	<tspan x="497.04px " y="186.24px ">B</tspan></text>
    </g>
    <g transform="matrix(1.33333,0,0,1.33333,-57.9605,-99.1933)">
        <text x="470.16px" y="130.8px" style="font-family:'ArialMT', 'Arial', sans-serif;font-size:10px;">R</text>
    </g>
    <g transform="matrix(1.33333,0,0,1.33333,-57.9605,-99.1933)">
        <text x="460.56px" y="148.32px" style="font-family:'ArialMT', 'Arial', sans-serif;font-size:10px;">C</text>
    </g>
    <g transform="matrix(1.33333,0,0,1.33333,-57.9605,-99.1933)">
        <text x="440.64px" y="148.56px" style="font-family:'ArialMT', 'Arial', sans-serif;font-size:10px;">H</text>
    </g>
    <g transform="matrix(1.33333,0,0,1.33333,-57.9605,-99.1933)">
        <text x="470.4px" y="165.36px" style="font-family:'ArialMT', 'Arial', sans-serif;font-size:10px;">O</text>
    </g>
    <g transform="matrix(1.33333,0,0,1.33333,-57.9605,-99.1933)">
        <text x="453.84px" y="315.84px" style="font-family:'ArialMT', 'Arial', sans-serif;font-size:10px;">H</text>
    </g>
    <g transform="matrix(1.33333,0,0,1.33333,-57.9605,-99.1933)">
        <text x="433.92px" y="350.16px" style="font-family:'ArialMT', 'Arial', sans-serif;font-size:10px;">R</text>
    </g>
    <g transform="matrix(1.33333,0,0,1.33333,-57.9605,-99.1933)">
        <text x="493.92px" y="350.16px" style="font-family:'ArialMT', 'Arial', sans-serif;font-size:10px;">B</text>
    </g>
    <g transform="matrix(1.33333,0,0,1.33333,-57.9605,-99.1933)">
        <text x="488.64px" y="315.84px" style="font-family:'ArialMT', 'Arial', sans-serif;font-size:10px;">O</text>
    </g>
    <g transform="matrix(1.33333,0,0,1.33333,-57.9605,-99.1933)">
        <text x="470.64px" y="341.76px" style="font-family:'ArialMT', 'Arial', sans-serif;font-size:10px;">O</text>
    </g>
    <g transform="matrix(1.33333,0,0,1.33333,-57.9605,-99.1933)">
        <text x="458.4px" y="369.6px" style="font-family:'ArialMT', 'Arial', sans-serif;font-size:10px;">H</text>
    </g>
    <g transform="matrix(1.33333,0,0,1.33333,-57.9605,-99.1933)">
        <text x="519.12px" y="359.04px" style="font-family:'ArialMT', 'Arial', sans-serif;font-size:10px;">R</text>
        <text x="526.56px" y="352.08px" style="font-family:'ArialMT', 'Arial', sans-serif;font-size:8px;">1</text>
    </g>
    <g transform="matrix(1.33333,0,0,1.33333,-57.9605,-99.1933)">
        <text x="444px" y="333.12px" style="font-family:'ArialMT', 'Arial', sans-serif;font-size:10px;">C</text>
    </g>
    <g transform="matrix(1.33333,0,0,1.33333,-57.9605,-99.1933)">
        <text x="432.48px" y="333.12px" style="font-family:'ArialMT', 'Arial', sans-serif;font-size:10px;">H</text>
        <text x="439.68px" y="335.76px" style="font-family:'ArialMT', 'Arial', sans-serif;font-size:8px;">3</text>
    </g>
    <g transform="matrix(1.33333,0,0,1.33333,-57.9605,-99.1933)">
        <text x="333.84px" y="369.36px" style="font-family:'ArialMT', 'Arial', sans-serif;font-size:10px;">O</text>
    </g>
    <g transform="matrix(1.33333,0,0,1.33333,-57.9605,-99.1933)">
        <text x="299.52px" y="369.36px" style="font-family:'ArialMT', 'Arial', sans-serif;font-size:10px;">O<tspan x="307.44px " y="369.36px ">H</tspan></text>
    </g>
    <g transform="matrix(1.33333,0,0,1.33333,-57.9605,-99.1933)">
        <text x="282.48px" y="339.6px" style="font-family:'ArialMT', 'Arial', sans-serif;font-size:10px;">R</text>
    </g>
    <g transform="matrix(1.33333,0,0,1.33333,-57.9605,-99.1933)">
        <text x="316.8px" y="319.44px" style="font-family:'ArialMT', 'Arial', sans-serif;font-size:10px;">CH</text>
        <text x="331.2px" y="322.08px" style="font-family:'ArialMT', 'Arial', sans-serif;font-size:8px;">3</text>
    </g>
    <g transform="matrix(1.33333,0,0,1.33333,-57.9605,-99.1933)">
        <text x="351.36px" y="339.36px" style="font-family:'ArialMT', 'Arial', sans-serif;font-size:10px;">R</text>
        <text x="358.8px" y="332.4px" style="font-family:'ArialMT', 'Arial', sans-serif;font-size:8px;">1</text>
    </g>
    <g transform="matrix(1.33333,0,0,1.33333,-57.9605,-99.1933)">
        <text x="317.04px" y="268.56px" style="font-family:'ArialMT', 'Arial', sans-serif;font-size:10px;">E</text>
    </g>
    <g transform="matrix(0,-1.33333,-1.33333,0,941.599,282.927)">
        <path d="M89.79,652.5L104.55,652.5" style="fill:none;fill-rule:nonzero;stroke:black;stroke-width:0.72px;"/>
    </g>
    <g transform="matrix(0,-1.33333,-1.33333,0,937.119,278.447)">
        <path d="M86.43,652.5L101.19,652.5" style="fill:none;fill-rule:nonzero;stroke:black;stroke-width:0.72px;"/>
    </g>
    <g transform="matrix(1.15468,0.666702,0.666702,-1.15468,-485.705,846.674)">
        <path d="M76.906,664.86L96.824,664.86" style="fill:none;fill-rule:nonzero;stroke:black;stroke-width:0.72px;"/>
    </g>
    <g transform="matrix(1.15485,-0.666401,-0.666401,-1.15485,398.805,952.37)">
        <path d="M64.537,666.17L79.223,666.17" style="fill:none;fill-rule:nonzero;stroke:black;stroke-width:0.72px;"/>
    </g>
    <g transform="matrix(1.15481,-0.666483,-0.666483,-1.15481,402.409,972.727)">
        <path d="M94.523,663.49L108.967,663.49" style="fill:none;fill-rule:nonzero;stroke:black;stroke-width:0.72px;"/>
    </g>
    <g transform="matrix(1.33333,0,0,1.33333,-57.9605,-736.633)">
        <path d="M132,660L270.72,660" style="fill:none;fill-rule:nonzero;stroke:black;stroke-width:0.72px;"/>
    </g>
    <g transform="matrix(1.2958,0.314133,0.314133,-1.2958,-255.276,914.797)">
        <path d="M262.459,660.933L270.609,660.933L263.364,657.201L264.311,659.406L262.459,660.933Z" style="stroke:black;stroke-width:0.72px;"/>
    </g>
    <g transform="matrix(1.33333,0,0,1.33333,-57.9605,-652.153)">
        <path d="M177.84,628.32L193.2,628.32" style="fill:none;fill-rule:nonzero;stroke:black;stroke-width:0.72px;"/>
    </g>
    <g transform="matrix(-0.666796,1.15463,1.15463,0.666796,-348.044,-500.695)">
        <path d="M214.216,634.32L228.074,634.32" style="fill:none;fill-rule:nonzero;stroke:black;stroke-width:0.72px;"/>
    </g>
    <g transform="matrix(-0.666796,-1.15463,-1.15463,0.666796,1102.9,33.9857)">
        <path d="M214.216,622.32L228.074,622.32" style="fill:none;fill-rule:nonzero;stroke:black;stroke-width:0.72px;"/>
    </g>
    <g transform="matrix(1.33333,0,0,1.33333,-57.9605,-652.153)">
        <path d="M202.32,628.32L217.68,628.32" style="fill:none;fill-rule:nonzero;stroke:black;stroke-width:0.72px;"/>
    </g>
    <g transform="matrix(-0.666796,-1.15463,-1.15463,0.666796,1023.21,-44.0177)">
        <path d="M167.446,634.32L181.304,634.32" style="fill:none;fill-rule:nonzero;stroke:black;stroke-width:0.72px;"/>
    </g>
    <g transform="matrix(-0.666796,1.15463,1.15463,0.666796,-427.735,-422.692)">
        <path d="M167.446,622.32L181.304,622.32" style="fill:none;fill-rule:nonzero;stroke:black;stroke-width:0.72px;"/>
    </g>
    <g transform="matrix(0,1.33333,1.33333,0,-615.241,-61.2733)">
        <path d="M190.44,615.72L205.08,615.72" style="fill:none;fill-rule:nonzero;stroke:black;stroke-width:0.72px;"/>
    </g>
    <g transform="matrix(1.15451,0.666991,0.666991,-1.15451,-424.874,779.151)">
        <path d="M196.794,604.795L211.206,604.795" style="fill:none;fill-rule:nonzero;stroke:black;stroke-width:0.72px;"/>
    </g>
    <g transform="matrix(1.33333,0,0,1.33333,-57.9605,-885.753)">
        <path d="M216.72,715.92L227.52,715.92" style="fill:none;fill-rule:nonzero;stroke:black;stroke-width:0.72px;"/>
    </g>
    <g transform="matrix(1.32604,0.139231,0.139231,-1.32604,-158.782,991.208)">
        <path d="M182.576,734.21L202.494,734.21" style="fill:none;fill-rule:nonzero;stroke:black;stroke-width:0.72px;"/>
    </g>
    <g transform="matrix(-0.542139,1.21814,1.21814,0.542139,-574.882,-620.274)">
        <path d="M196.529,742.27L216.451,742.27" style="fill:none;fill-rule:nonzero;stroke:black;stroke-width:0.72px;"/>
    </g>
    <g transform="matrix(0.277041,1.30423,1.30423,-0.277041,-838.884,0.941658)">
        <path d="M170.598,744.995L190.522,744.995" style="fill:none;fill-rule:nonzero;stroke:black;stroke-width:0.72px;"/>
    </g>
    <g transform="matrix(0.990726,0.892323,0.892323,-0.990726,-664.775,582.392)">
        <path d="M193.181,758.035L213.099,758.035" style="fill:none;fill-rule:nonzero;stroke:black;stroke-width:0.72px;"/>
    </g>
    <g transform="matrix(-1.15468,0.666702,0.666702,1.15468,-98.9229,-991.577)">
        <path d="M177.156,759.72L197.074,759.72" style="fill:none;fill-rule:nonzero;stroke:black;stroke-width:0.72px;"/>
    </g>
    <g transform="matrix(-0.666706,-1.15468,-1.15468,0.666706,1193.5,-192.969)">
        <path d="M198.915,727.065L213.015,727.065" style="fill:none;fill-rule:nonzero;stroke:black;stroke-width:0.72px;"/>
    </g>
    <g transform="matrix(-0.542139,-1.21814,-1.21814,0.542139,1169.3,-18.3691)">
        <path d="M196.529,689.57L216.451,689.57" style="fill:none;fill-rule:nonzero;stroke:black;stroke-width:0.72px;"/>
    </g>
    <g transform="matrix(1.32604,-0.139231,-0.139231,-1.32604,40.5749,1045.09)">
        <path d="M182.576,697.63L202.494,697.63" style="fill:none;fill-rule:nonzero;stroke:black;stroke-width:0.72px;"/>
    </g>
    <g transform="matrix(0.990726,-0.892323,-0.892323,-0.990726,612.888,973.783)">
        <path d="M193.181,673.805L213.099,673.805" style="fill:none;fill-rule:nonzero;stroke:black;stroke-width:0.72px;"/>
    </g>
    <g transform="matrix(0.277041,-1.30423,-1.30423,-0.277041,1028.57,533.35)">
        <path d="M170.598,686.845L190.522,686.845" style="fill:none;fill-rule:nonzero;stroke:black;stroke-width:0.72px;"/>
    </g>
    <g transform="matrix(1.15468,0.666702,0.666702,-1.15468,-472.636,778.54)">
        <path d="M177.156,672.12L197.074,672.12" style="fill:none;fill-rule:nonzero;stroke:black;stroke-width:0.72px;"/>
    </g>
    <g transform="matrix(-0.666603,1.15474,1.15474,0.666603,-459.875,-623.653)">
        <path d="M198.984,704.655L212.806,704.655" style="fill:none;fill-rule:nonzero;stroke:black;stroke-width:0.72px;"/>
    </g>
    <g transform="matrix(1.15451,-0.666991,-0.666991,-1.15451,453.436,1108.12)">
        <path d="M303.114,683.525L317.526,683.525" style="fill:none;fill-rule:nonzero;stroke:black;stroke-width:0.72px;"/>
    </g>
    <g transform="matrix(1.15468,0.666702,0.666702,-1.15468,-461.801,704.027)">
        <path d="M285.496,684.9L305.414,684.9" style="fill:none;fill-rule:nonzero;stroke:black;stroke-width:0.72px;"/>
    </g>
    <g transform="matrix(1.15458,0.666876,0.666876,-1.15458,-463.531,702.266)">
        <path d="M288.838,687.81L305.432,687.81" style="fill:none;fill-rule:nonzero;stroke:black;stroke-width:0.72px;"/>
    </g>
    <g transform="matrix(0,-1.33333,-1.33333,0,1254.16,476.127)">
        <path d="M279.45,697.26L294.21,697.26" style="fill:none;fill-rule:nonzero;stroke:black;stroke-width:0.72px;"/>
    </g>
    <g transform="matrix(0,1.33333,1.33333,0,-549.161,-278.713)">
        <path d="M296.64,672.48L311.52,672.48" style="fill:none;fill-rule:nonzero;stroke:black;stroke-width:0.72px;"/>
    </g>
    <g transform="matrix(1.15423,0.667474,0.667474,-1.15423,-439.086,697.255)">
        <path d="M308.266,654.94L317.414,654.94" style="fill:none;fill-rule:nonzero;stroke:black;stroke-width:0.72px;"/>
    </g>
    <g transform="matrix(-1.07852,-0.78395,-0.78395,1.07852,1225.86,-224.046)">
        <path d="M319.427,624.265L339.343,624.265" style="fill:none;fill-rule:nonzero;stroke:black;stroke-width:0.72px;"/>
    </g>
    <g transform="matrix(1.07875,-0.783632,-0.783632,-1.07875,510.987,1109.93)">
        <path d="M303.308,624.265L323.232,624.265" style="fill:none;fill-rule:nonzero;stroke:black;stroke-width:0.72px;"/>
    </g>
    <g transform="matrix(0.411782,-1.26815,-1.26815,-0.411782,1022.4,886.223)">
        <path d="M324.408,608.94L344.322,608.94" style="fill:none;fill-rule:nonzero;stroke:black;stroke-width:0.72px;"/>
    </g>
    <g transform="matrix(-0.41219,-1.26802,-1.26802,0.41219,1252.31,351.374)">
        <path d="M298.327,608.935L318.253,608.935" style="fill:none;fill-rule:nonzero;stroke:black;stroke-width:0.72px;"/>
    </g>
    <g transform="matrix(1.33333,-0.000669344,-0.000669344,-1.33333,-57.5592,1023.58)">
        <path d="M311.37,599.465L331.29,599.465" style="fill:none;fill-rule:nonzero;stroke:black;stroke-width:0.72px;"/>
    </g>
    <g transform="matrix(0,1.33333,1.33333,0,-479.521,-255.073)">
        <path d="M313.95,637.5L328.71,637.5" style="fill:none;fill-rule:nonzero;stroke:black;stroke-width:0.72px;"/>
    </g>
    <g transform="matrix(-0.139231,1.32604,1.32604,0.139231,-446.172,-413.463)">
        <path d="M329.661,669.905L349.579,669.905" style="fill:none;fill-rule:nonzero;stroke:black;stroke-width:0.72px;"/>
    </g>
    <g transform="matrix(-1.21814,-0.542139,-0.542139,1.21814,1184.75,-461.781)">
        <path d="M337.719,655.95L357.641,655.95" style="fill:none;fill-rule:nonzero;stroke:black;stroke-width:0.72px;"/>
    </g>
    <g transform="matrix(-1.30423,0.277041,0.277041,1.30423,677.348,-872.214)">
        <path d="M340.443,681.88L360.367,681.88" style="fill:none;fill-rule:nonzero;stroke:black;stroke-width:0.72px;"/>
    </g>
    <g transform="matrix(-0.892323,0.990726,0.990726,0.892323,97.7574,-804.083)">
        <path d="M353.486,659.3L373.404,659.3" style="fill:none;fill-rule:nonzero;stroke:black;stroke-width:0.72px;"/>
    </g>
    <g transform="matrix(-0.666702,-1.15468,-1.15468,0.666702,1452.1,94.301)">
        <path d="M355.171,675.325L375.089,675.325" style="fill:none;fill-rule:nonzero;stroke:black;stroke-width:0.72px;"/>
    </g>
    <g transform="matrix(1.15456,-0.666905,-0.666905,-1.15456,439.019,1127.48)">
        <path d="M324.423,656.205L339.597,656.205" style="fill:none;fill-rule:nonzero;stroke:black;stroke-width:0.72px;"/>
    </g>
    <g transform="matrix(1.33333,0,0,1.33333,-57.9605,-739.193)">
        <path d="M385.44,660.96L419.52,660.96" style="fill:none;fill-rule:nonzero;stroke:black;stroke-width:0.72px;"/>
    </g>
    <g transform="matrix(1.2958,0.314133,0.314133,-1.2958,-249.993,868.017)">
        <path d="M411.259,661.893L419.409,661.893L412.164,658.161L413.111,660.366L411.259,661.893Z" style="stroke:black;stroke-width:0.72px;"/>
    </g>
    <g transform="matrix(1.33333,0,0,1.33333,-57.9605,-689.913)">
        <path d="M455.28,642.48L470.64,642.48" style="fill:none;fill-rule:nonzero;stroke:black;stroke-width:0.72px;"/>
    </g>
    <g transform="matrix(1.33333,0,0,1.33333,-57.9605,-698.873)">
        <path d="M455.28,645.84L468.98,645.84" style="fill:none;fill-rule:nonzero;stroke:black;stroke-width:0.72px;"/>
    </g>
    <g transform="matrix(-0.666871,-1.15458,-1.15458,0.666871,1585.36,235.947)">
        <path d="M441.781,651L449.819,651" style="fill:none;fill-rule:nonzero;stroke:black;stroke-width:0.72px;"/>
    </g>
    <g transform="matrix(-0.666693,1.15469,1.15469,0.666693,101.626,-759.008)">
        <path d="M441.85,633.84L449.61,633.84" style="fill:none;fill-rule:nonzero;stroke:black;stroke-width:0.72px;"/>
    </g>
    <g transform="matrix(0.666796,1.15463,1.15463,-0.666796,-476.848,51.7154)">
        <path d="M467.176,636.48L481.034,636.48" style="fill:none;fill-rule:nonzero;stroke:black;stroke-width:0.72px;"/>
    </g>
    <g transform="matrix(0.666796,-1.15463,-1.15463,-0.666796,1006.8,1138.54)">
        <path d="M467.176,648.48L481.034,648.48" style="fill:none;fill-rule:nonzero;stroke:black;stroke-width:0.72px;"/>
    </g>
    <g transform="matrix(1.33333,0,0,1.33333,-57.9605,-735.913)">
        <path d="M485.52,659.73L496.08,659.73" style="fill:none;fill-rule:nonzero;stroke:black;stroke-width:0.72px;"/>
    </g>
    <g transform="matrix(-1.32604,-0.139231,-0.139231,1.32604,1415.25,-610.01)">
        <path d="M510.426,641.44L530.344,641.44" style="fill:none;fill-rule:nonzero;stroke:black;stroke-width:0.72px;"/>
    </g>
    <g transform="matrix(0.542139,-1.21814,-1.21814,-0.542139,1114.27,1139.14)">
        <path d="M496.469,633.38L516.391,633.38" style="fill:none;fill-rule:nonzero;stroke:black;stroke-width:0.72px;"/>
    </g>
    <g transform="matrix(-0.277041,-1.30423,-1.30423,0.277041,1621.86,702.098)">
        <path d="M522.398,630.655L542.322,630.655" style="fill:none;fill-rule:nonzero;stroke:black;stroke-width:0.72px;"/>
    </g>
    <g transform="matrix(-0.990726,-0.892323,-0.892323,0.990726,1677.91,42.8811)">
        <path d="M499.821,617.615L519.739,617.615" style="fill:none;fill-rule:nonzero;stroke:black;stroke-width:0.72px;"/>
    </g>
    <g transform="matrix(1.15468,-0.666702,-0.666702,-1.15468,446.618,1263.88)">
        <path d="M515.846,615.93L535.764,615.93" style="fill:none;fill-rule:nonzero;stroke:black;stroke-width:0.72px;"/>
    </g>
    <g transform="matrix(0.666796,1.15463,1.15463,-0.666796,-468.768,5.71821)">
        <path d="M500.086,648.48L513.944,648.48" style="fill:none;fill-rule:nonzero;stroke:black;stroke-width:0.72px;"/>
    </g>
    <g transform="matrix(0.542139,1.21814,1.21814,-0.542139,-493.017,-136.358)">
        <path d="M496.469,686.08L516.391,686.08" style="fill:none;fill-rule:nonzero;stroke:black;stroke-width:0.72px;"/>
    </g>
    <g transform="matrix(-1.32597,0.139893,0.139893,1.32597,1231.05,-852.509)">
        <path d="M510.425,678.025L530.345,678.025" style="fill:none;fill-rule:nonzero;stroke:black;stroke-width:0.72px;"/>
    </g>
    <g transform="matrix(-0.990726,0.892323,0.892323,0.990726,500.526,-1062.65)">
        <path d="M499.821,701.845L519.739,701.845" style="fill:none;fill-rule:nonzero;stroke:black;stroke-width:0.72px;"/>
    </g>
    <g transform="matrix(-0.277177,1.3042,1.3042,0.277177,-98.9387,-780.276)">
        <path d="M522.402,688.81L542.318,688.81" style="fill:none;fill-rule:nonzero;stroke:black;stroke-width:0.72px;"/>
    </g>
    <g transform="matrix(-1.15468,-0.666702,-0.666702,1.15468,1719.29,-376.47)">
        <path d="M515.846,703.53L535.764,703.53" style="fill:none;fill-rule:nonzero;stroke:black;stroke-width:0.72px;"/>
    </g>
    <g transform="matrix(0.666515,-1.15479,-1.15479,-0.666515,1054.83,1161.44)">
        <path d="M499.933,670.89L513.997,670.89" style="fill:none;fill-rule:nonzero;stroke:black;stroke-width:0.72px;"/>
    </g>
    <g transform="matrix(-0.656129,1.16072,1.16072,0.656129,55.4664,-926.33)">
        <path d="M464.97,706.32L473.24,706.32" style="fill:none;fill-rule:nonzero;stroke:black;stroke-width:0.72px;"/>
    </g>
    <g transform="matrix(-1.33328,0.0123451,0.0123451,1.33328,1144.6,-842.281)">
        <path d="M448.8,697.53L459.6,697.53" style="fill:none;fill-rule:nonzero;stroke:black;stroke-width:0.72px;"/>
    </g>
    <g transform="matrix(0.676923,1.14872,1.14872,-0.676923,-541.439,32.0149)">
        <path d="M465.37,689.04L473.17,689.04" style="fill:none;fill-rule:nonzero;stroke:black;stroke-width:0.72px;"/>
    </g>
    <g transform="matrix(0.67808,1.14804,1.14804,-0.67808,-541.354,37.5751)">
        <path d="M460.452,687.27L472.368,687.27" style="fill:none;fill-rule:nonzero;stroke:black;stroke-width:0.72px;"/>
    </g>
    <g transform="matrix(-1.04539,-0.827604,-0.827604,1.04539,1656.51,-166.537)">
        <path d="M476.966,669.9L498.394,669.9" style="fill:none;fill-rule:nonzero;stroke:black;stroke-width:0.72px;stroke-dasharray:2.16,1.44;"/>
    </g>
    <g transform="matrix(-0.316586,1.2952,1.2952,0.316586,-170.964,-674.485)">
        <path d="M434.334,669.96L480.536,669.96" style="fill:none;fill-rule:nonzero;stroke:black;stroke-width:0.72px;stroke-dasharray:2.16,1.44;"/>
    </g>
    <g transform="matrix(0,1.33333,1.33333,0,-176.041,-393.913)">
        <path d="M470.4,575.76L504,575.76" style="fill:none;fill-rule:nonzero;stroke:black;stroke-width:0.72px;"/>
    </g>
    <g transform="matrix(-0.314133,1.2958,1.2958,0.314133,15.2534,-535.339)">
        <path d="M482.899,563.853L491.049,563.853L483.804,560.121L484.751,562.326L482.899,563.853Z" style="stroke:black;stroke-width:0.72px;"/>
    </g>
    <g transform="matrix(1.33333,0,0,1.33333,-57.9605,-344.313)">
        <path d="M467.52,512.88L487.44,512.88" style="fill:none;fill-rule:nonzero;stroke:black;stroke-width:0.72px;"/>
    </g>
    <g transform="matrix(-0.666796,-1.15463,-1.15463,0.666796,1469.32,521.349)">
        <path d="M457.126,518.88L470.984,518.88" style="fill:none;fill-rule:nonzero;stroke:black;stroke-width:0.72px;"/>
    </g>
    <g transform="matrix(-0.666702,1.15468,1.15468,0.666702,284.883,-519.247)">
        <path d="M452.581,504.255L472.499,504.255" style="fill:none;fill-rule:nonzero;stroke:black;stroke-width:0.72px;"/>
    </g>
    <g transform="matrix(-1.33333,0,0,1.33333,1141.56,-298.313)">
        <path d="M442.08,495.63L457.56,495.63" style="fill:none;fill-rule:nonzero;stroke:black;stroke-width:0.72px;"/>
    </g>
    <g transform="matrix(0.381816,-1.2775,-1.2775,-0.381816,1071.71,1157.01)">
        <path d="M484.402,518.64L497.428,518.64" style="fill:none;fill-rule:nonzero;stroke:black;stroke-width:0.72px;"/>
    </g>
    <g transform="matrix(0.38252,-1.27728,-1.27728,-0.38252,1068.68,1152.53)">
        <path d="M481.542,519.12L493.568,519.12" style="fill:none;fill-rule:nonzero;stroke:black;stroke-width:0.72px;"/>
    </g>
    <g transform="matrix(-1.24813,-0.468979,-0.468979,1.24813,1431.66,-38.8787)">
        <path d="M479.061,499.825L493.419,499.825" style="fill:none;fill-rule:nonzero;stroke:black;stroke-width:0.72px;"/>
    </g>
    <g transform="matrix(1.18822,-0.604897,-0.604897,-1.18822,310.986,1231.44)">
        <path d="M456.82,498.715L470.42,498.715" style="fill:none;fill-rule:nonzero;stroke:black;stroke-width:0.72px;"/>
    </g>
    <g transform="matrix(0.31068,1.29663,1.29663,-0.31068,-221.747,-71.7267)">
        <path d="M451.964,488.535L466.556,488.535" style="fill:none;fill-rule:nonzero;stroke:black;stroke-width:0.72px;"/>
    </g>
    <g transform="matrix(-1.19217,-0.597088,-0.597088,1.19217,1510.49,136.798)">
        <path d="M499.606,471.52L519.524,471.52" style="fill:none;fill-rule:nonzero;stroke:black;stroke-width:0.72px;"/>
    </g>
    <g transform="matrix(0.936094,-0.949476,-0.949476,-0.936094,583.338,1305.83)">
        <path d="M483.702,468.885L503.628,468.885" style="fill:none;fill-rule:nonzero;stroke:black;stroke-width:0.72px;"/>
    </g>
    <g transform="matrix(0.199423,-1.31834,-1.31834,-0.199423,1131,1186.48)">
        <path d="M507.018,457.21L526.942,457.21" style="fill:none;fill-rule:nonzero;stroke:black;stroke-width:0.72px;"/>
    </g>
    <g transform="matrix(-0.613619,-1.18374,-1.18374,0.613619,1434.66,723.024)">
        <path d="M481.292,452.945L501.218,452.945" style="fill:none;fill-rule:nonzero;stroke:black;stroke-width:0.72px;"/>
    </g>
    <g transform="matrix(1.31535,-0.218222,-0.218222,-1.31535,48.3987,1125.7)">
        <path d="M495.706,445.73L515.624,445.73" style="fill:none;fill-rule:nonzero;stroke:black;stroke-width:0.72px;"/>
    </g>
    <g transform="matrix(0.218321,1.31534,1.31534,-0.218321,-136.731,-172.431)">
        <path d="M492.06,483.27L506.84,483.27" style="fill:none;fill-rule:nonzero;stroke:black;stroke-width:0.72px;"/>
    </g>
    <g transform="matrix(1.07451,0.78944,0.78944,-1.07451,-323.801,496.61)">
        <path d="M483.74,501.595L521.86,501.595" style="fill:none;fill-rule:nonzero;stroke:black;stroke-width:0.72px;"/>
    </g>
    <g transform="matrix(0.0789629,1.33099,1.33099,-0.0789629,-105.213,-308.402)">
        <path d="M502.238,518.215L522.162,518.215" style="fill:none;fill-rule:nonzero;stroke:black;stroke-width:0.72px;"/>
    </g>
    <g transform="matrix(-1.29048,-0.335336,-0.335336,1.29048,1482.4,-128.474)">
        <path d="M512.47,505.765L532.39,505.765" style="fill:none;fill-rule:nonzero;stroke:black;stroke-width:0.72px;"/>
    </g>
    <g transform="matrix(-1.24131,0.486749,0.486749,1.24131,1024.27,-599.354)">
        <path d="M510.923,531.795L530.837,531.795" style="fill:none;fill-rule:nonzero;stroke:black;stroke-width:0.72px;"/>
    </g>
    <g transform="matrix(-0.718301,1.12331,1.12331,0.718301,469.919,-630.057)">
        <path d="M527.476,511.65L547.394,511.65" style="fill:none;fill-rule:nonzero;stroke:black;stroke-width:0.72px;"/>
    </g>
    <g transform="matrix(-0.846647,-1.03003,-1.03003,0.846647,1655.13,425.501)">
        <path d="M526.514,527.735L546.436,527.735" style="fill:none;fill-rule:nonzero;stroke:black;stroke-width:0.72px;"/>
    </g>
    <g transform="matrix(1.33333,0,0,1.33333,-57.9605,-312.313)">
        <path d="M506.4,500.88L503.76,503.04L501.12,500.88L503.76,498.72" style="fill:white;"/>
    </g>
    <g transform="matrix(1.03038,-0.846221,-0.846221,-1.03038,521.915,1299.98)">
        <path d="M499.955,503.675L514.435,503.675" style="fill:none;fill-rule:nonzero;stroke:black;stroke-width:0.72px;"/>
    </g>
    <g transform="matrix(-1.33333,0,0,1.33333,1168.28,-344.313)">
        <path d="M452.16,512.88L467.52,512.88" style="fill:none;fill-rule:nonzero;stroke:black;stroke-width:0.72px;"/>
    </g>
    <g transform="matrix(-1.33333,0,0,1.33333,1015.32,-314.873)">
        <path d="M384.72,501.84L420.24,501.84" style="fill:none;fill-rule:nonzero;stroke:black;stroke-width:0.72px;"/>
    </g>
    <g transform="matrix(-1.2958,-0.314133,-0.314133,1.2958,1121.58,-173.94)">
        <path d="M384.379,502.773L392.529,502.773L385.284,499.041L386.231,501.246L384.379,502.773Z" style="stroke:black;stroke-width:0.72px;"/>
    </g>
    <g transform="matrix(0,-1.33333,-1.33333,0,1046.88,824.047)">
        <path d="M332.19,489.06L346.95,489.06" style="fill:none;fill-rule:nonzero;stroke:black;stroke-width:0.72px;"/>
    </g>
    <g transform="matrix(0,-1.33333,-1.33333,0,1042.4,819.567)">
        <path d="M328.83,489.06L343.59,489.06" style="fill:none;fill-rule:nonzero;stroke:black;stroke-width:0.72px;"/>
    </g>
    <g transform="matrix(1.15468,0.666702,0.666702,-1.15468,-333.434,714.265)">
        <path d="M319.306,501.42L339.224,501.42" style="fill:none;fill-rule:nonzero;stroke:black;stroke-width:0.72px;"/>
    </g>
    <g transform="matrix(1.15468,-0.666702,-0.666702,-1.15468,332.08,1141.81)">
        <path d="M302.056,501.42L321.974,501.42" style="fill:none;fill-rule:nonzero;stroke:black;stroke-width:0.72px;"/>
    </g>
    <g transform="matrix(-0.150788,1.32478,1.32478,0.150788,-255.59,-104.383)">
        <path d="M296.057,488.225L310.913,488.225L310.533,491.564L296.057,488.225Z" style="stroke:black;stroke-width:0.24px;"/>
    </g>
    <g transform="matrix(-1.15475,-0.666584,-0.666584,1.15475,1014.41,-22.9872)">
        <path d="M289.654,500.12L304.376,500.12" style="fill:none;fill-rule:nonzero;stroke:black;stroke-width:0.72px;"/>
    </g>
    <g transform="matrix(-1.33333,0,0,1.33333,797.079,-363.193)">
        <path d="M319,519.96L322.28,519.96" style="fill:none;fill-rule:nonzero;stroke:black;stroke-width:0.72px;"/>
    </g>
    <g transform="matrix(-1.33333,0,0,1.33333,797.079,-356.153)">
        <path d="M319.32,517.32L321.96,517.32" style="fill:none;fill-rule:nonzero;stroke:black;stroke-width:0.72px;"/>
    </g>
    <g transform="matrix(-1.33333,0,0,1.33333,797.079,-349.113)">
        <path d="M319.64,514.68L321.64,514.68" style="fill:none;fill-rule:nonzero;stroke:black;stroke-width:0.72px;"/>
    </g>
    <g transform="matrix(-1.33333,0,0,1.33333,797.079,-342.073)">
        <path d="M319.96,512.04L321.32,512.04" style="fill:none;fill-rule:nonzero;stroke:black;stroke-width:0.72px;"/>
    </g>
    <g transform="matrix(-1.33333,0,0,1.33333,797.079,-335.033)">
        <path d="M320.28,509.4L321,509.4" style="fill:none;fill-rule:nonzero;stroke:black;stroke-width:0.72px;"/>
    </g>
    <g transform="matrix(-1.33333,0,0,1.33333,797.079,-327.993)">
        <path d="M320.6,506.76L320.68,506.76" style="fill:none;fill-rule:nonzero;stroke:black;stroke-width:0.72px;"/>
    </g>
    <g transform="matrix(1.15481,-0.666483,-0.666483,-1.15481,336.753,1163.46)">
        <path d="M336.923,500.05L351.367,500.05" style="fill:none;fill-rule:nonzero;stroke:black;stroke-width:0.72px;"/>
    </g>
</svg>
