<?xml version="1.0" encoding="UTF-8" standalone="no"?>
<!DOCTYPE svg PUBLIC "-//W3C//DTD SVG 1.1//EN" "http://www.w3.org/Graphics/SVG/1.1/DTD/svg11.dtd">
<svg width="100%" height="100%" viewBox="0 0 680 200" version="1.1" xmlns="http://www.w3.org/2000/svg" xmlns:xlink="http://www.w3.org/1999/xlink" xml:space="preserve" xmlns:serif="http://www.serif.com/" style="fill-rule:evenodd;clip-rule:evenodd;stroke-linecap:round;stroke-linejoin:round;stroke-miterlimit:10;">
    <g transform="matrix(1.33333,0,0,1.33333,-58.128,-106)">
        <text x="97.44px" y="126.24px" style="font-family:'ArialMT', 'Arial', sans-serif;font-size:10px;">O</text>
    </g>
    <g transform="matrix(1.33333,0,0,1.33333,-58.128,-106)">
        <text x="63.12px" y="126.24px" style="font-family:'ArialMT', 'Arial', sans-serif;font-size:10px;">O<tspan x="71.04px " y="126.24px ">H</tspan></text>
    </g>
    <g transform="matrix(1.33333,0,0,1.33333,-58.128,-106)">
        <text x="46.08px" y="96.48px" style="font-family:'ArialMT', 'Arial', sans-serif;font-size:10px;">R</text>
    </g>
    <g transform="matrix(1.33333,0,0,1.33333,-58.128,-106)">
        <text x="114.72px" y="96.24px" style="font-family:'ArialMT', 'Arial', sans-serif;font-size:10px;">O</text>
    </g>
    <g transform="matrix(1.33333,0,0,1.33333,-58.128,-106)">
        <text x="149.52px" y="96.24px" style="font-family:'ArialMT', 'Arial', sans-serif;font-size:10px;">CH</text>
        <text x="163.92px" y="98.88px" style="font-family:'ArialMT', 'Arial', sans-serif;font-size:8px;">3</text>
    </g>
    <g transform="matrix(1.33333,0,0,1.33333,-58.128,-106)">
        <text x="59.04px" y="126px" style="font-family:'ArialMT', 'Arial', sans-serif;font-size:10px;">:</text>
    </g>
    <g transform="matrix(-0.0140006,-1.33326,1.33326,-0.0140006,-58.128,-106)">
        <text x="-131.161px" y="66.066px" style="font-family:'ArialMT', 'Arial', sans-serif;font-size:10px;">:</text>
    </g>
    <g transform="matrix(1.33333,0,0,1.33333,-58.128,-106)">
        <text x="277.68px" y="107.04px" style="font-family:'ArialMT', 'Arial', sans-serif;font-size:10px;">O</text>
        <text x="285.6px" y="100.08px" style="font-family:'ArialMT', 'Arial', sans-serif;font-size:8px;">+</text>
        <text x="297.84px" y="107.04px" style="font-family:'ArialMT', 'Arial', sans-serif;font-size:10px;"><tspan x="297.84px " y="107.04px ">H</tspan></text>
    </g>
    <g transform="matrix(1.33333,0,0,1.33333,-58.128,-106)">
        <text x="247.92px" y="89.76px" style="font-family:'ArialMT', 'Arial', sans-serif;font-size:10px;">R</text>
    </g>
    <g transform="matrix(1.33333,0,0,1.33333,-58.128,-106)">
        <text x="323.04px" y="102px" style="font-family:'ArialMT', 'Arial', sans-serif;font-size:18px;">+</text>
        <text x="348.72px" y="96.24px" style="font-family:'ArialMT', 'Arial', sans-serif;font-size:10px;">H</text>
        <text x="355.932px" y="98.88px" style="font-family:'ArialMT', 'Arial', sans-serif;font-size:8px;">2</text>
        <text x="360.253px" y="96.24px" style="font-family:'ArialMT', 'Arial', sans-serif;font-size:10px;">C</text>
        <text x="367.464px" y="89.28px" style="font-family:'ArialMT', 'Arial', sans-serif;font-size:8px;">–</text>
        <text x="394.32px" y="96.24px" style="font-family:'ArialMT', 'Arial', sans-serif;font-size:10px;"><tspan x="394.32px " y="96.24px ">O</tspan></text>
    </g>
    <g transform="matrix(1.33333,0,0,1.33333,-58.128,-106)">
        <text x="377.28px" y="126px" style="font-family:'ArialMT', 'Arial', sans-serif;font-size:10px;">O</text>
    </g>
    <g transform="matrix(1.33333,0,0,1.33333,-58.128,-106)">
        <text x="429.12px" y="96.24px" style="font-family:'ArialMT', 'Arial', sans-serif;font-size:10px;">CH</text>
        <text x="443.52px" y="98.88px" style="font-family:'ArialMT', 'Arial', sans-serif;font-size:8px;">3</text>
    </g>
    <g transform="matrix(1.33333,0,0,1.33333,-58.128,-106)">
        <text x="436.08px" y="206.88px" style="font-family:'ArialMT', 'Arial', sans-serif;font-size:10px;">Br</text>
        <text x="446.16px" y="206.88px" style="font-family:'ArialMT', 'Arial', sans-serif;font-size:10px;">Z<tspan x="452.4px " y="206.88px ">n</tspan></text>
    </g>
    <g transform="matrix(1.33333,0,0,1.33333,-58.128,-106)">
        <text x="497.04px" y="197.04px" style="font-family:'ArialMT', 'Arial', sans-serif;font-size:10px;">O</text>
    </g>
    <g transform="matrix(1.33333,0,0,1.33333,-58.128,-106)">
        <text x="479.76px" y="226.8px" style="font-family:'ArialMT', 'Arial', sans-serif;font-size:10px;">O</text>
    </g>
    <g transform="matrix(1.33333,0,0,1.33333,-58.128,-106)">
        <text x="531.84px" y="197.04px" style="font-family:'ArialMT', 'Arial', sans-serif;font-size:10px;">CH</text>
        <text x="546.24px" y="199.68px" style="font-family:'ArialMT', 'Arial', sans-serif;font-size:8px;">3</text>
    </g>
    <g transform="matrix(1.33333,0,0,1.33333,-58.128,-106)">
        <text x="290.4px" y="224.64px" style="font-family:'ArialMT', 'Arial', sans-serif;font-size:10px;">O</text>
    </g>
    <g transform="matrix(1.33333,0,0,1.33333,-58.128,-106)">
        <text x="260.64px" y="207.36px" style="font-family:'ArialMT', 'Arial', sans-serif;font-size:10px;">R</text>
    </g>
    <g transform="matrix(1.33333,0,0,1.33333,-58.128,-106)">
        <text x="303.36px" y="211.44px" style="font-family:'ArialMT', 'Arial', sans-serif;font-size:18px;">+</text>
        <text x="328.08px" y="208.08px" style="font-family:'ArialMT', 'Arial', sans-serif;font-size:10px;">H</text>
        <text x="335.294px" y="201.12px" style="font-family:'ArialMT', 'Arial', sans-serif;font-size:8px;">+</text>
    </g>
    <g transform="matrix(1.05211,-0.819049,0.819049,1.05211,-58.128,-106)">
        <text x="149.994px" y="256.854px" style="font-family:'ArialMT', 'Arial', sans-serif;font-size:10px;">:</text>
    </g>
    <g transform="matrix(0,-1.33333,-1.33333,0,1055.67,177.88)">
        <path d="M95.79,732.18L110.55,732.18" style="fill:none;fill-rule:nonzero;stroke:black;stroke-width:0.72px;"/>
    </g>
    <g transform="matrix(0,-1.33333,-1.33333,0,1051.19,173.4)">
        <path d="M92.43,732.18L107.19,732.18" style="fill:none;fill-rule:nonzero;stroke:black;stroke-width:0.72px;"/>
    </g>
    <g transform="matrix(1.15468,0.666702,0.666702,-1.15468,-537.924,821.632)">
        <path d="M82.906,744.54L102.824,744.54" style="fill:none;fill-rule:nonzero;stroke:black;stroke-width:0.72px;"/>
    </g>
    <g transform="matrix(1.15468,-0.666702,-0.666702,-1.15468,451.767,933.958)">
        <path d="M65.656,744.54L85.574,744.54" style="fill:none;fill-rule:nonzero;stroke:black;stroke-width:0.72px;"/>
    </g>
    <g transform="matrix(0,-1.33333,-1.33333,0,1007.43,129.64)">
        <path d="M59.61,732.18L74.37,732.18" style="fill:none;fill-rule:nonzero;stroke:black;stroke-width:0.72px;"/>
    </g>
    <g transform="matrix(-1.15475,-0.666584,-0.666584,1.15475,588.119,-792.277)">
        <path d="M53.254,743.24L67.976,743.24" style="fill:none;fill-rule:nonzero;stroke:black;stroke-width:0.72px;"/>
    </g>
    <g transform="matrix(1.15487,-0.666378,-0.666378,-1.15487,456.265,955.661)">
        <path d="M100.542,743.1L114.708,743.1" style="fill:none;fill-rule:nonzero;stroke:black;stroke-width:0.72px;"/>
    </g>
    <g transform="matrix(1.15443,0.66713,0.66713,-1.15443,-530.679,797.022)">
        <path d="M122.64,743.14L136.95,743.14" style="fill:none;fill-rule:nonzero;stroke:black;stroke-width:0.72px;"/>
    </g>
    <g transform="matrix(1.15459,-0.666853,-0.666853,-1.15459,462.901,978.598)">
        <path d="M135.017,743.19L149.533,743.19" style="fill:none;fill-rule:nonzero;stroke:black;stroke-width:0.72px;"/>
    </g>
    <g transform="matrix(1.33333,0,0,1.33333,-58.128,-924.56)">
        <path d="M60.96,737.76L59.76,737.76L58.56,737.52L57.6,737.28L56.4,736.8L55.68,736.32L54.72,735.6L53.28,734.16L52.56,733.2L51.6,731.28L51.36,730.08L51.12,729.12L51.12,728.4L50.88,727.92L51.36,725.52L51.6,724.56L52.08,723.36L52.56,722.4L53.28,721.68L54,720.72L54.96,720L57.84,718.56L60.24,718.08L60.72,718.08" style="fill:none;fill-rule:nonzero;stroke:black;stroke-width:0.48px;"/>
    </g>
    <g transform="matrix(1.33103,-0.078296,-0.078296,-1.33103,-0.403168,1019.3)">
        <path d="M52.666,737.517L60.84,737.517L53.399,733.627L54.498,735.966L52.666,737.517Z" style="stroke:black;stroke-width:0.48px;"/>
    </g>
    <g transform="matrix(1.33333,0,0,1.33333,-58.128,-970.96)">
        <path d="M78.96,754.32L77.52,754.08L76.32,753.6L75.12,752.88L74.16,752.16L72.96,751.2L72.24,750.24L71.28,749.28L70.32,746.88L69.84,745.44L69.84,744L69.6,743.28L70.32,739.68L70.8,738.48L71.52,737.28L72.24,736.32" style="fill:none;fill-rule:nonzero;stroke:black;stroke-width:0.48px;"/>
    </g>
    <g transform="matrix(0.842231,-1.03365,-1.03365,-0.842231,751.536,720.057)">
        <path d="M66.072,750.771L74.431,750.771L67.043,746.919L68.298,749.179L66.072,750.771Z" style="stroke:black;stroke-width:0.48px;"/>
    </g>
    <g transform="matrix(1.33333,0,0,1.33333,-58.128,-970.64)">
        <path d="M187.92,745.2L222,745.2" style="fill:none;fill-rule:nonzero;stroke:black;stroke-width:0.72px;"/>
    </g>
    <g transform="matrix(1.33333,0,0,1.33333,-58.128,-978.32)">
        <path d="M187.92,748.08L222,748.08" style="fill:none;fill-rule:nonzero;stroke:black;stroke-width:0.72px;"/>
    </g>
    <g transform="matrix(1.33333,0,0,1.33333,-58.128,-974.48)">
        <path d="M217.44,743.04L225.36,746.64L217.44,750.24" style="fill:none;fill-rule:nonzero;stroke:black;stroke-width:0.72px;"/>
    </g>
    <g transform="matrix(1.33333,0,0,1.33333,-58.128,-954)">
        <path d="M286.56,738.96L296.88,738.96" style="fill:none;fill-rule:nonzero;stroke:black;stroke-width:0.72px;"/>
    </g>
    <g transform="matrix(-0.666706,-1.15468,-1.15468,0.666706,1358.18,-166.045)">
        <path d="M268.035,750.105L282.135,750.105" style="fill:none;fill-rule:nonzero;stroke:black;stroke-width:0.72px;"/>
    </g>
    <g transform="matrix(-0.666704,-1.15468,-1.15468,0.666704,1365.94,-163.803)">
        <path d="M270.46,750.945L286.5,750.945" style="fill:none;fill-rule:nonzero;stroke:black;stroke-width:0.72px;"/>
    </g>
    <g transform="matrix(-1.33333,0,0,1.33333,645.392,-1000)">
        <path d="M256.08,756.21L271.56,756.21" style="fill:none;fill-rule:nonzero;stroke:black;stroke-width:0.72px;"/>
    </g>
    <g transform="matrix(-1.15485,-0.666401,-0.666401,1.15485,1369.75,-583.442)">
        <path d="M367.417,743.41L382.103,743.41" style="fill:none;fill-rule:nonzero;stroke:black;stroke-width:0.72px;"/>
    </g>
    <g transform="matrix(-1.15457,0.666895,0.666895,1.15457,409.6,-1090.88)">
        <path d="M380.172,743.275L394.308,743.275" style="fill:none;fill-rule:nonzero;stroke:black;stroke-width:0.72px;"/>
    </g>
    <g transform="matrix(0,1.33333,1.33333,0,-528.728,-465.88)">
        <path d="M372.09,732.39L386.79,732.39" style="fill:none;fill-rule:nonzero;stroke:black;stroke-width:0.72px;"/>
    </g>
    <g transform="matrix(0,1.33333,1.33333,0,-524.248,-470.36)">
        <path d="M375.45,732.39L390.15,732.39" style="fill:none;fill-rule:nonzero;stroke:black;stroke-width:0.72px;"/>
    </g>
    <g transform="matrix(1.15473,0.666619,0.666619,-1.15473,-480.52,610.878)">
        <path d="M402.239,743.325L416.581,743.325" style="fill:none;fill-rule:nonzero;stroke:black;stroke-width:0.72px;"/>
    </g>
    <g transform="matrix(1.1547,-0.666669,-0.666669,-1.1547,512.811,1165.03)">
        <path d="M414.65,743.36L429.13,743.36" style="fill:none;fill-rule:nonzero;stroke:black;stroke-width:0.72px;"/>
    </g>
    <g transform="matrix(-1.1547,0.666662,0.666662,1.1547,661.46,-900.331)">
        <path d="M457.715,646.53L467.195,646.53" style="fill:none;fill-rule:nonzero;stroke:black;stroke-width:0.72px;"/>
    </g>
    <g transform="matrix(-1.15468,-0.666702,-0.666702,1.15468,1553.44,-268.715)">
        <path d="M465.226,643.92L485.144,643.92" style="fill:none;fill-rule:nonzero;stroke:black;stroke-width:0.72px;"/>
    </g>
    <g transform="matrix(-1.15487,0.666378,0.666378,1.15487,732.819,-908.548)">
        <path d="M482.862,642.48L497.028,642.48" style="fill:none;fill-rule:nonzero;stroke:black;stroke-width:0.72px;"/>
    </g>
    <g transform="matrix(0,1.33333,1.33333,0,-257.408,-468.4)">
        <path d="M474.78,631.59L489.48,631.59" style="fill:none;fill-rule:nonzero;stroke:black;stroke-width:0.72px;"/>
    </g>
    <g transform="matrix(0,1.33333,1.33333,0,-252.928,-472.88)">
        <path d="M478.14,631.59L492.84,631.59" style="fill:none;fill-rule:nonzero;stroke:black;stroke-width:0.72px;"/>
    </g>
    <g transform="matrix(1.15484,0.666431,0.666431,-1.15484,-394.909,560.584)">
        <path d="M504.962,642.515L519.268,642.515" style="fill:none;fill-rule:nonzero;stroke:black;stroke-width:0.72px;"/>
    </g>
    <g transform="matrix(1.15499,-0.666164,-0.666164,-1.15499,463.483,1251.43)">
        <path d="M517.34,642.565L531.85,642.565" style="fill:none;fill-rule:nonzero;stroke:black;stroke-width:0.72px;"/>
    </g>
    <g transform="matrix(0.942809,0.942809,0.942809,-0.942809,-537.689,317.682)">
        <path d="M427.424,696.24L478.336,696.24" style="fill:none;fill-rule:nonzero;stroke:black;stroke-width:0.72px;"/>
    </g>
    <g transform="matrix(0.942809,0.942809,0.942809,-0.942809,-538.749,315.122)">
        <path d="M429.344,698.16L480.256,698.16" style="fill:none;fill-rule:nonzero;stroke:black;stroke-width:0.72px;"/>
    </g>
    <g transform="matrix(1.33333,0,0,1.33333,-58.128,-799.12)">
        <path d="M471.12,676.8L474.24,684.96L466.08,681.84" style="fill:none;fill-rule:nonzero;stroke:black;stroke-width:0.72px;"/>
    </g>
    <g transform="matrix(0,1.33333,1.33333,0,-614.448,-286)">
        <path d="M256.44,697.08L303.24,697.08" style="fill:none;fill-rule:nonzero;stroke:black;stroke-width:0.72px;"/>
    </g>
    <g transform="matrix(0,1.33333,1.33333,0,-610.608,-289.84)">
        <path d="M259.32,697.08L306.12,697.08" style="fill:none;fill-rule:nonzero;stroke:black;stroke-width:0.72px;"/>
    </g>
    <g transform="matrix(1.33333,0,0,1.33333,-58.128,-781.52)">
        <path d="M284.88,670.32L281.28,678.24L277.68,670.32" style="fill:none;fill-rule:nonzero;stroke:black;stroke-width:0.72px;"/>
    </g>
    <g transform="matrix(-0.666706,-1.15468,-1.15468,0.666706,1247.83,83.8473)">
        <path d="M280.755,632.505L294.855,632.505" style="fill:none;fill-rule:nonzero;stroke:black;stroke-width:0.72px;"/>
    </g>
    <g transform="matrix(-0.666669,-1.1547,-1.1547,0.666669,1240.07,88.155)">
        <path d="M278.58,629.22L293.06,629.22" style="fill:none;fill-rule:nonzero;stroke:black;stroke-width:0.72px;"/>
    </g>
    <g transform="matrix(-1.33333,0,0,1.33333,679.312,-686.4)">
        <path d="M268.8,638.61L284.28,638.61" style="fill:none;fill-rule:nonzero;stroke:black;stroke-width:0.72px;"/>
    </g>
</svg>
