<?xml version="1.0" encoding="UTF-8" standalone="no"?>
<!DOCTYPE svg PUBLIC "-//W3C//DTD SVG 1.1//EN" "http://www.w3.org/Graphics/SVG/1.1/DTD/svg11.dtd">
<svg width="100%" height="100%" viewBox="0 0 595 215" version="1.1" xmlns="http://www.w3.org/2000/svg" xmlns:xlink="http://www.w3.org/1999/xlink" xml:space="preserve" xmlns:serif="http://www.serif.com/" style="fill-rule:evenodd;clip-rule:evenodd;stroke-linecap:round;stroke-linejoin:round;stroke-miterlimit:10;">
    <g transform="matrix(1.33333,0,0,1.33333,-55.1841,-66.3414)">
        <text x="113.28px" y="102.72px" style="font-family:'ArialMT', 'Arial', sans-serif;font-size:10px;">R</text>
        <text x="120.72px" y="95.76px" style="font-family:'ArialMT', 'Arial', sans-serif;font-size:8px;">2</text>
    </g>
    <g transform="matrix(1.33333,0,0,1.33333,-55.1841,-66.3414)">
        <text x="44.4px" y="102.72px" style="font-family:'ArialMT', 'Arial', sans-serif;font-size:10px;">R</text>
        <text x="51.84px" y="95.76px" style="font-family:'ArialMT', 'Arial', sans-serif;font-size:8px;">1</text>
    </g>
    <g transform="matrix(1.33333,0,0,1.33333,-55.1841,-66.3414)">
        <text x="61.44px" y="72.96px" style="font-family:'ArialMT', 'Arial', sans-serif;font-size:10px;">O</text>
    </g>
    <g transform="matrix(1.33333,0,0,1.33333,-55.1841,-66.3414)">
        <text x="95.76px" y="72.96px" style="font-family:'ArialMT', 'Arial', sans-serif;font-size:10px;">O</text>
    </g>
    <g transform="matrix(1.33333,0,0,1.33333,-55.1841,-66.3414)">
        <text x="57.12px" y="67.92px" style="font-family:'ArialMT', 'Arial', sans-serif;font-size:10px;">:</text>
    </g>
    <g transform="matrix(0.0140006,-1.33326,1.33326,0.0140006,-55.1841,-66.3414)">
        <text x="-60.134px" y="65.675px" style="font-family:'ArialMT', 'Arial', sans-serif;font-size:10px;">:</text>
    </g>
    <g transform="matrix(1.33333,0,0,1.33333,-55.1841,-66.3414)">
        <text x="204.96px" y="89.28px" style="font-family:'ArialMT', 'Arial', sans-serif;font-size:10px;">R</text>
        <text x="212.4px" y="82.32px" style="font-family:'ArialMT', 'Arial', sans-serif;font-size:8px;">1</text>
    </g>
    <g transform="matrix(1.33333,0,0,1.33333,-55.1841,-66.3414)">
        <text x="244.56px" y="89.04px" style="font-family:'ArialMT', 'Arial', sans-serif;font-size:10px;">O</text>
        <text x="252.48px" y="82.08px" style="font-family:'ArialMT', 'Arial', sans-serif;font-size:8px;">+</text>
    </g>
    <g transform="matrix(1.33333,0,0,1.33333,-55.1841,-66.3414)">
        <text x="210.24px" y="177.36px" style="font-family:'ArialMT', 'Arial', sans-serif;font-size:10px;">R</text>
        <text x="217.68px" y="170.4px" style="font-family:'ArialMT', 'Arial', sans-serif;font-size:8px;">1</text>
    </g>
    <g transform="matrix(1.33333,0,0,1.33333,-55.1841,-66.3414)">
        <text x="244.8px" y="177.36px" style="font-family:'ArialMT', 'Arial', sans-serif;font-size:10px;">Cl</text>
    </g>
    <g transform="matrix(1.33333,0,0,1.33333,-55.1841,-66.3414)">
        <text x="227.28px" y="207.12px" style="font-family:'ArialMT', 'Arial', sans-serif;font-size:10px;">O</text>
    </g>
    <g transform="matrix(1.33333,0,0,1.33333,-55.1841,-66.3414)">
        <text x="273.36px" y="92.88px" style="font-family:'ArialMT', 'Arial', sans-serif;font-size:18px;">+</text>
    </g>
    <g transform="matrix(1.33333,0,0,1.33333,-55.1841,-66.3414)">
        <text x="320.16px" y="98.88px" style="font-family:'ArialMT', 'Arial', sans-serif;font-size:10px;">C</text>
    </g>
    <g transform="matrix(1.33333,0,0,1.33333,-55.1841,-66.3414)">
        <text x="308.64px" y="98.88px" style="font-family:'ArialMT', 'Arial', sans-serif;font-size:10px;">H</text>
        <text x="315.84px" y="101.52px" style="font-family:'ArialMT', 'Arial', sans-serif;font-size:8px;">2</text>
    </g>
    <g transform="matrix(1.33333,0,0,1.33333,-55.1841,-66.3414)">
        <text x="354.48px" y="98.88px" style="font-family:'ArialMT', 'Arial', sans-serif;font-size:10px;">R</text>
        <text x="361.92px" y="91.92px" style="font-family:'ArialMT', 'Arial', sans-serif;font-size:8px;">2</text>
    </g>
    <g transform="matrix(1.33333,0,0,1.33333,-55.1841,-66.3414)">
        <text x="336.96px" y="69.12px" style="font-family:'ArialMT', 'Arial', sans-serif;font-size:10px;">O</text>
        <text x="344.88px" y="62.16px" style="font-family:'ArialMT', 'Arial', sans-serif;font-size:8px;">–</text>
    </g>
    <g transform="matrix(1.33333,0,0,1.33333,-55.1841,-66.3414)">
        <text x="433.2px" y="97.68px" style="font-family:'ArialMT', 'Arial', sans-serif;font-size:10px;">C</text>
    </g>
    <g transform="matrix(1.33333,0,0,1.33333,-55.1841,-66.3414)">
        <text x="421.68px" y="97.68px" style="font-family:'ArialMT', 'Arial', sans-serif;font-size:10px;">H</text>
        <text x="428.889px" y="100.32px" style="font-family:'ArialMT', 'Arial', sans-serif;font-size:8px;">2</text>
        <text x="440.4px" y="90.72px" style="font-family:'ArialMT', 'Arial', sans-serif;font-size:8px;">–</text>
    </g>
    <g transform="matrix(1.33333,0,0,1.33333,-55.1841,-66.3414)">
        <text x="467.52px" y="97.68px" style="font-family:'ArialMT', 'Arial', sans-serif;font-size:10px;">R</text>
        <text x="474.96px" y="90.72px" style="font-family:'ArialMT', 'Arial', sans-serif;font-size:8px;">2</text>
    </g>
    <g transform="matrix(1.33333,0,0,1.33333,-55.1841,-66.3414)">
        <text x="450px" y="67.92px" style="font-family:'ArialMT', 'Arial', sans-serif;font-size:10px;">O</text>
    </g>
    <g transform="matrix(1.33333,0,0,1.33333,-55.1841,-66.3414)">
        <text x="378.24px" y="200.64px" style="font-family:'ArialMT', 'Arial', sans-serif;font-size:10px;">C</text>
    </g>
    <g transform="matrix(1.33333,0,0,1.33333,-55.1841,-66.3414)">
        <text x="366.72px" y="200.64px" style="font-family:'ArialMT', 'Arial', sans-serif;font-size:10px;">H</text>
        <text x="373.92px" y="203.28px" style="font-family:'ArialMT', 'Arial', sans-serif;font-size:8px;">3</text>
    </g>
    <g transform="matrix(1.33333,0,0,1.33333,-55.1841,-66.3414)">
        <text x="412.56px" y="200.64px" style="font-family:'ArialMT', 'Arial', sans-serif;font-size:10px;">R</text>
        <text x="420px" y="193.68px" style="font-family:'ArialMT', 'Arial', sans-serif;font-size:8px;">2</text>
    </g>
    <g transform="matrix(1.33333,0,0,1.33333,-55.1841,-66.3414)">
        <text x="395.04px" y="170.88px" style="font-family:'ArialMT', 'Arial', sans-serif;font-size:10px;">O</text>
    </g>
    <g transform="matrix(1.33333,0,0,1.33333,-55.1841,-66.3414)">
        <text x="42.72px" y="189.84px" style="font-family:'ArialMT', 'Arial', sans-serif;font-size:10px;">R</text>
        <text x="49.93px" y="184.8px" style="font-family:'ArialMT', 'Arial', sans-serif;font-size:6px;">1</text>
        <text x="56.173px" y="189.84px" style="font-family:'ArialMT', 'Arial', sans-serif;font-size:10px;"><tspan x="56.173px " y="189.84px ">-</tspan></text>
        <text x="62.446px" y="189.84px" style="font-family:'ArialMT', 'Arial', sans-serif;font-size:10px;">а</text>
        <text x="67.966px" y="189.84px" style="font-family:'ArialMT', 'Arial', sans-serif;font-size:10px;">л</text>
        <text x="73.966px" y="189.84px" style="font-family:'ArialMT', 'Arial', sans-serif;font-size:10px;">ки</text>
        <text x="83.805px" y="189.84px" style="font-family:'ArialMT', 'Arial', sans-serif;font-size:10px;">л</text>
        <text x="89.805px" y="189.84px" style="font-family:'ArialMT', 'Arial', sans-serif;font-size:10px;">,</text>
        <text x="95.672px" y="189.84px" style="font-family:'ArialMT', 'Arial', sans-serif;font-size:10px;">ари</text>
        <text x="112.231px" y="189.84px" style="font-family:'ArialMT', 'Arial', sans-serif;font-size:10px;">л<tspan x="118.231px " y="189.84px ">.</tspan></text>
    </g>
    <g transform="matrix(1.33333,0,0,1.33333,-55.1841,-66.3414)">
        <text x="42.72px" y="205.2px" style="font-family:'ArialMT', 'Arial', sans-serif;font-size:10px;">R</text>
        <text x="49.93px" y="200.16px" style="font-family:'ArialMT', 'Arial', sans-serif;font-size:6px;">2</text>
        <text x="56.167px" y="205.2px" style="font-family:'ArialMT', 'Arial', sans-serif;font-size:10px;"><tspan x="56.167px " y="205.2px ">-</tspan></text>
        <text x="62.434px" y="205.2px" style="font-family:'ArialMT', 'Arial', sans-serif;font-size:10px;">а</text>
        <text x="67.954px" y="205.2px" style="font-family:'ArialMT', 'Arial', sans-serif;font-size:10px;">л</text>
        <text x="73.953px" y="205.2px" style="font-family:'ArialMT', 'Arial', sans-serif;font-size:10px;">ки</text>
        <text x="83.793px" y="205.2px" style="font-family:'ArialMT', 'Arial', sans-serif;font-size:10px;">л</text>
        <text x="89.793px" y="205.2px" style="font-family:'ArialMT', 'Arial', sans-serif;font-size:10px;">,</text>
        <text x="95.654px" y="205.2px" style="font-family:'ArialMT', 'Arial', sans-serif;font-size:10px;">ари</text>
        <text x="112.214px" y="205.2px" style="font-family:'ArialMT', 'Arial', sans-serif;font-size:10px;">л</text>
        <text x="118.213px" y="205.2px" style="font-family:'ArialMT', 'Arial', sans-serif;font-size:10px;">,<tspan x="121.113px 124.115px " y="205.2px 205.2px "> О</tspan></text>
        <text x="132.015px" y="205.2px" style="font-family:'ArialMT', 'Arial', sans-serif;font-size:10px;">-</text>
        <text x="135.375px" y="205.2px" style="font-family:'ArialMT', 'Arial', sans-serif;font-size:10px;">а</text>
        <text x="140.895px" y="205.2px" style="font-family:'ArialMT', 'Arial', sans-serif;font-size:10px;">л</text>
        <text x="146.895px" y="205.2px" style="font-family:'ArialMT', 'Arial', sans-serif;font-size:10px;">ки<tspan x="156.734px " y="205.2px ">л</tspan></text>
    </g>
    <g transform="matrix(-1.15468,-0.666702,-0.666702,1.15468,627.588,-755.702)">
        <path d="M64.006,748.08L83.924,748.08" style="fill:none;fill-rule:nonzero;stroke:black;stroke-width:0.72px;"/>
    </g>
    <g transform="matrix(-1.15468,0.666702,0.666702,1.15468,-326.987,-865.828)">
        <path d="M81.256,748.08L101.174,748.08" style="fill:none;fill-rule:nonzero;stroke:black;stroke-width:0.72px;"/>
    </g>
    <g transform="matrix(-1.15451,-0.666991,-0.666991,1.15451,708.606,-737.556)">
        <path d="M98.874,749.455L113.286,749.455" style="fill:none;fill-rule:nonzero;stroke:black;stroke-width:0.72px;"/>
    </g>
    <g transform="matrix(-1.15445,0.667107,0.667107,1.15445,-403.645,-852.167)">
        <path d="M56.483,750.685L65.977,750.685" style="fill:none;fill-rule:nonzero;stroke:black;stroke-width:0.72px;"/>
    </g>
    <g transform="matrix(0,-1.33333,-1.33333,0,1048.06,131.699)">
        <path d="M59.67,760.41L74.37,760.41" style="fill:none;fill-rule:nonzero;stroke:black;stroke-width:0.72px;"/>
    </g>
    <g transform="matrix(0,-1.33333,-1.33333,0,1043.58,127.219)">
        <path d="M56.31,760.41L71.01,760.41" style="fill:none;fill-rule:nonzero;stroke:black;stroke-width:0.72px;"/>
    </g>
    <g transform="matrix(0,-1.33333,-1.33333,0,1094.06,177.699)">
        <path d="M94.17,760.41L108.87,760.41" style="fill:none;fill-rule:nonzero;stroke:black;stroke-width:0.72px;"/>
    </g>
    <g transform="matrix(0,-1.33333,-1.33333,0,1089.58,173.219)">
        <path d="M90.81,760.41L105.51,760.41" style="fill:none;fill-rule:nonzero;stroke:black;stroke-width:0.72px;"/>
    </g>
    <g transform="matrix(1.33333,0,0,1.33333,-55.1841,-981.541)">
        <path d="M69.6,753.84L70.8,753.84L72,754.08L72.96,754.32L74.88,755.28L76.8,756.72L77.52,757.44L78,758.4L78.72,759.36L79.2,760.32L79.44,761.28L79.92,763.68L79.92,765.36L79.68,766.56L79.44,767.52L78.48,769.44L77.04,771.36L76.32,772.08L75.36,772.56L74.4,773.28L73.44,773.76L72.48,774L70.08,774.48L69.6,774.48" style="fill:none;fill-rule:nonzero;stroke:black;stroke-width:0.48px;"/>
    </g>
    <g transform="matrix(-1.33333,0,0,1.33333,141.296,-959.141)">
        <path d="M69.6,757.68L77.76,757.68L70.56,753.84L71.52,756.24L69.6,757.68Z" style="stroke:black;stroke-width:0.48px;"/>
    </g>
    <g transform="matrix(1.33333,0,0,1.33333,-55.1841,-920.101)">
        <path d="M94.8,735.84L94.8,737.04L94.56,738.24L94.08,739.44L93.84,740.4L93.12,741.36L92.64,742.32L91.92,743.28L89.04,745.44L87.12,746.4L84.72,746.88L82.32,746.88L81.36,746.64L80.16,746.4L77.28,744.96L76.32,744.24L74.88,742.8L74.16,741.84L72.72,738.96L72.48,737.76L72.24,736.8L72.24,735.36" style="fill:none;fill-rule:nonzero;stroke:black;stroke-width:0.48px;"/>
    </g>
    <g transform="matrix(-0.0391987,-1.33276,-1.33276,0.0391987,1061.96,161.467)">
        <path d="M88.985,740.521L97.149,740.521L89.818,744.338L90.947,741.904L88.985,740.521Z" style="stroke:black;stroke-width:0.48px;"/>
    </g>
    <g transform="matrix(1.33333,0,0,1.33333,-55.1841,-972.901)">
        <path d="M97.44,768.96L95.52,769.2L94.32,769.2L93.12,768.96L91.2,768L89.28,766.56L88.8,765.6L88.08,764.64L87.6,763.68L87.12,761.28L87.12,760.8L87.36,759.36L87.6,758.16L88.08,756.96L88.8,755.76L89.52,754.8L90.72,754.08L91.68,753.36L92.88,752.88L93.6,752.64" style="fill:none;fill-rule:nonzero;stroke:black;stroke-width:0.48px;"/>
    </g>
    <g transform="matrix(1.2958,-0.314133,-0.314133,-1.2958,188.945,1055.61)">
        <path d="M85.989,768.189L94.139,768.189L86.774,764.295L87.862,766.747L85.989,768.189Z" style="stroke:black;stroke-width:0.48px;"/>
    </g>
    <g transform="matrix(1.33333,0,0,1.33333,-55.1841,-961.061)">
        <path d="M145.44,756.48L179.52,756.48" style="fill:none;fill-rule:nonzero;stroke:black;stroke-width:0.72px;"/>
    </g>
    <g transform="matrix(1.33333,0,0,1.33333,-55.1841,-968.741)">
        <path d="M145.44,759.36L179.52,759.36" style="fill:none;fill-rule:nonzero;stroke:black;stroke-width:0.72px;"/>
    </g>
    <g transform="matrix(1.33333,0,0,1.33333,-55.1841,-964.901)">
        <path d="M174.96,754.32L182.88,757.92L174.96,761.52" style="fill:none;fill-rule:nonzero;stroke:black;stroke-width:0.72px;"/>
    </g>
    <g transform="matrix(1.33333,0,0,1.33333,-55.1841,-961.701)">
        <path d="M213.12,756.72L228.48,756.72" style="fill:none;fill-rule:nonzero;stroke:black;stroke-width:0.72px;"/>
    </g>
    <g transform="matrix(1.33333,0,0,1.33333,-55.1841,-961.701)">
        <path d="M228.48,756.72L243.6,756.72" style="fill:none;fill-rule:nonzero;stroke:black;stroke-width:0.72px;"/>
    </g>
    <g transform="matrix(1.33333,0,0,1.33333,-55.1841,-970.661)">
        <path d="M228.48,760.08L243.6,760.08" style="fill:none;fill-rule:nonzero;stroke:black;stroke-width:0.72px;"/>
    </g>
    <g transform="matrix(1.33333,0,0,1.33333,-55.1841,-952.741)">
        <path d="M228.48,753.36L243.6,753.36" style="fill:none;fill-rule:nonzero;stroke:black;stroke-width:0.72px;"/>
    </g>
    <g transform="matrix(0,1.33333,1.33333,0,-702.864,-207.781)">
        <path d="M213.12,716.88L249.12,716.88" style="fill:none;fill-rule:nonzero;stroke:black;stroke-width:0.72px;"/>
    </g>
    <g transform="matrix(0,1.33333,1.33333,0,-699.024,-211.621)">
        <path d="M216,716.88L252,716.88" style="fill:none;fill-rule:nonzero;stroke:black;stroke-width:0.72px;"/>
    </g>
    <g transform="matrix(1.33333,0,0,1.33333,-55.1841,-809.061)">
        <path d="M236.16,695.52L232.56,703.44L228.96,695.52" style="fill:none;fill-rule:nonzero;stroke:black;stroke-width:0.72px;"/>
    </g>
    <g transform="matrix(1.15475,0.666584,0.666584,-1.15475,-456.481,788.121)">
        <path d="M217.414,662.24L232.136,662.24" style="fill:none;fill-rule:nonzero;stroke:black;stroke-width:0.72px;"/>
    </g>
    <g transform="matrix(1.15457,-0.6669,-0.6669,-1.15457,428.91,1096.22)">
        <path d="M230.168,662.225L244.822,662.225" style="fill:none;fill-rule:nonzero;stroke:black;stroke-width:0.72px;"/>
    </g>
    <g transform="matrix(0,1.33333,1.33333,0,-617.544,-118.061)">
        <path d="M222.15,651.24L236.79,651.24" style="fill:none;fill-rule:nonzero;stroke:black;stroke-width:0.72px;"/>
    </g>
    <g transform="matrix(0,1.33333,1.33333,0,-613.064,-122.541)">
        <path d="M225.51,651.24L240.15,651.24" style="fill:none;fill-rule:nonzero;stroke:black;stroke-width:0.72px;"/>
    </g>
    <g transform="matrix(-1.15435,0.66728,0.66728,1.15435,272.557,-1044.85)">
        <path d="M327.401,754.935L341.089,754.935" style="fill:none;fill-rule:nonzero;stroke:black;stroke-width:0.72px;"/>
    </g>
    <g transform="matrix(-1.15439,0.667207,0.667207,1.15439,276.981,-1036.97)">
        <path d="M327.271,751.54L342.899,751.54" style="fill:none;fill-rule:nonzero;stroke:black;stroke-width:0.72px;"/>
    </g>
    <g transform="matrix(1.15481,0.666483,0.666483,-1.15481,-495.243,690.29)">
        <path d="M340.043,753.29L354.487,753.29" style="fill:none;fill-rule:nonzero;stroke:black;stroke-width:0.72px;"/>
    </g>
    <g transform="matrix(0,-1.33333,-1.33333,0,1418.5,491.899)">
        <path d="M333.66,764.25L348.36,764.25" style="fill:none;fill-rule:nonzero;stroke:black;stroke-width:0.72px;"/>
    </g>
    <g transform="matrix(1.33333,0,0,1.33333,-55.1841,-962.981)">
        <path d="M379.2,757.2L413.28,757.2" style="fill:none;fill-rule:nonzero;stroke:black;stroke-width:0.72px;"/>
    </g>
    <g transform="matrix(1.2958,0.314133,0.314133,-1.2958,-277.683,899.217)">
        <path d="M405.019,758.133L413.169,758.133L405.924,754.401L406.871,756.606L405.019,758.133Z" style="stroke:black;stroke-width:0.72px;"/>
    </g>
    <g transform="matrix(-1.2958,0.314133,0.314133,1.2958,714.333,-1054.92)">
        <path d="M378.859,756.267L387.009,756.267L379.764,759.999L380.711,757.794L378.859,756.267Z" style="stroke:black;stroke-width:0.72px;"/>
    </g>
    <g transform="matrix(-1.15485,0.666416,0.666416,1.15485,560.56,-1123.86)">
        <path d="M445.033,755.685L454.697,755.685" style="fill:none;fill-rule:nonzero;stroke:black;stroke-width:0.72px;"/>
    </g>
    <g transform="matrix(1.15481,0.666483,0.666483,-1.15481,-475.862,614.736)">
        <path d="M453.083,754.49L467.527,754.49" style="fill:none;fill-rule:nonzero;stroke:black;stroke-width:0.72px;"/>
    </g>
    <g transform="matrix(0,-1.33333,-1.33333,0,1573.06,643.259)">
        <path d="M448.38,765.45L463.08,765.45" style="fill:none;fill-rule:nonzero;stroke:black;stroke-width:0.72px;"/>
    </g>
    <g transform="matrix(0,-1.33333,-1.33333,0,1568.58,638.779)">
        <path d="M445.02,765.45L459.72,765.45" style="fill:none;fill-rule:nonzero;stroke:black;stroke-width:0.72px;"/>
    </g>
    <g transform="matrix(0,1.33333,1.33333,0,-481.424,-424.741)">
        <path d="M377.52,715.2L413.52,715.2" style="fill:none;fill-rule:nonzero;stroke:black;stroke-width:0.72px;"/>
    </g>
    <g transform="matrix(0,1.33333,1.33333,0,-477.584,-428.581)">
        <path d="M380.4,715.2L416.4,715.2" style="fill:none;fill-rule:nonzero;stroke:black;stroke-width:0.72px;"/>
    </g>
    <g transform="matrix(1.33333,0,0,1.33333,-55.1841,-804.581)">
        <path d="M400.56,693.84L396.96,701.76L393.36,693.84" style="fill:none;fill-rule:nonzero;stroke:black;stroke-width:0.72px;"/>
    </g>
    <g transform="matrix(-1.15457,0.6669,0.6669,1.15457,487.457,-826.507)">
        <path d="M385.418,651.475L400.072,651.475" style="fill:none;fill-rule:nonzero;stroke:black;stroke-width:0.72px;"/>
    </g>
    <g transform="matrix(1.15481,0.666483,0.666483,-1.15481,-417.053,669.747)">
        <path d="M398.123,651.53L412.567,651.53" style="fill:none;fill-rule:nonzero;stroke:black;stroke-width:0.72px;"/>
    </g>
    <g transform="matrix(0,-1.33333,-1.33333,0,1362.5,707.259)">
        <path d="M393.42,662.49L408.12,662.49" style="fill:none;fill-rule:nonzero;stroke:black;stroke-width:0.72px;"/>
    </g>
    <g transform="matrix(0,-1.33333,-1.33333,0,1358.02,702.779)">
        <path d="M390.06,662.49L404.76,662.49" style="fill:none;fill-rule:nonzero;stroke:black;stroke-width:0.72px;"/>
    </g>
    <g transform="matrix(1.33333,0,0,1.33333,-55.1841,-970.981)">
        <path d="M298.8,788.4L306.24,788.4L306.24,787.92L300.24,787.92L300.24,732.48L306.24,732.48L306.24,732L298.8,732L298.8,788.4Z" style="stroke:black;stroke-width:0.02px;"/>
    </g>
    <g transform="matrix(1.33333,0,0,1.33333,-55.1841,-970.981)">
        <path d="M485.52,788.4L478.08,788.4L478.08,787.92L484.08,787.92L484.08,732.48L478.08,732.48L478.08,732L485.52,732L485.52,788.4Z" style="stroke:black;stroke-width:0.02px;"/>
    </g>
</svg>
