<?xml version="1.0" encoding="UTF-8" standalone="no"?>
<!DOCTYPE svg PUBLIC "-//W3C//DTD SVG 1.1//EN" "http://www.w3.org/Graphics/SVG/1.1/DTD/svg11.dtd">
<svg width="100%" height="100%" viewBox="0 0 595 190" version="1.1" xmlns="http://www.w3.org/2000/svg" xmlns:xlink="http://www.w3.org/1999/xlink" xml:space="preserve" xmlns:serif="http://www.serif.com/" style="fill-rule:evenodd;clip-rule:evenodd;stroke-linecap:round;stroke-linejoin:round;stroke-miterlimit:10;">
    <g transform="matrix(1.33333,0,0,1.33333,-87.9939,-106.903)">
        <text x="81.12px" y="124.8px" style="font-family:'ArialMT', 'Arial', sans-serif;font-size:10px;">C</text>
    </g>
    <g transform="matrix(1.33333,0,0,1.33333,-87.9939,-106.903)">
        <text x="69.6px" y="124.8px" style="font-family:'ArialMT', 'Arial', sans-serif;font-size:10px;">H</text>
        <text x="76.8px" y="127.44px" style="font-family:'ArialMT', 'Arial', sans-serif;font-size:8px;">3</text>
    </g>
    <g transform="matrix(1.33333,0,0,1.33333,-87.9939,-106.903)">
        <text x="150.24px" y="124.8px" style="font-family:'ArialMT', 'Arial', sans-serif;font-size:10px;">CH</text>
        <text x="164.64px" y="127.44px" style="font-family:'ArialMT', 'Arial', sans-serif;font-size:8px;">3</text>
    </g>
    <g transform="matrix(1.33333,0,0,1.33333,-87.9939,-106.903)">
        <text x="132.72px" y="94.8px" style="font-family:'ArialMT', 'Arial', sans-serif;font-size:10px;">O</text>
    </g>
    <g transform="matrix(1.33333,0,0,1.33333,-87.9939,-106.903)">
        <text x="98.16px" y="94.8px" style="font-family:'ArialMT', 'Arial', sans-serif;font-size:10px;">O<tspan x="106.08px " y="94.8px ">H</tspan></text>
    </g>
    <g transform="matrix(1.33333,0,0,1.33333,-87.9939,-106.903)">
        <text x="94.56px" y="93.84px" style="font-family:'ArialMT', 'Arial', sans-serif;font-size:10px;">:</text>
    </g>
    <g transform="matrix(-0.0093331,1.3333,-1.3333,-0.0093331,-87.9939,-106.903)">
        <text x="82.024px" y="-101.137px" style="font-family:'ArialMT', 'Arial', sans-serif;font-size:10px;">:</text>
    </g>
    <g transform="matrix(1.33333,0,0,1.33333,-87.9939,-106.903)">
        <text x="259.68px" y="97.2px" style="font-family:'ArialMT', 'Arial', sans-serif;font-size:10px;">O</text>
        <text x="267.6px" y="97.2px" style="font-family:'ArialMT', 'Arial', sans-serif;font-size:10px;">H</text>
        <text x="274.8px" y="90.24px" style="font-family:'ArialMT', 'Arial', sans-serif;font-size:8px;">+</text>
    </g>
    <g transform="matrix(1.33333,0,0,1.33333,-87.9939,-106.903)">
        <text x="242.64px" y="126.96px" style="font-family:'ArialMT', 'Arial', sans-serif;font-size:10px;">C</text>
    </g>
    <g transform="matrix(1.33333,0,0,1.33333,-87.9939,-106.903)">
        <text x="231.12px" y="126.96px" style="font-family:'ArialMT', 'Arial', sans-serif;font-size:10px;">H</text>
        <text x="238.32px" y="129.6px" style="font-family:'ArialMT', 'Arial', sans-serif;font-size:8px;">3</text>
    </g>
    <g transform="matrix(1.33333,0,0,1.33333,-87.9939,-106.903)">
        <text x="258.96px" y="186.72px" style="font-family:'ArialMT', 'Arial', sans-serif;font-size:10px;">O</text>
    </g>
    <g transform="matrix(1.33333,0,0,1.33333,-87.9939,-106.903)">
        <text x="241.92px" y="216.48px" style="font-family:'ArialMT', 'Arial', sans-serif;font-size:10px;">C</text>
    </g>
    <g transform="matrix(1.33333,0,0,1.33333,-87.9939,-106.903)">
        <text x="230.4px" y="216.48px" style="font-family:'ArialMT', 'Arial', sans-serif;font-size:10px;">H</text>
        <text x="237.6px" y="219.12px" style="font-family:'ArialMT', 'Arial', sans-serif;font-size:8px;">3</text>
    </g>
    <g transform="matrix(1.33333,0,0,1.33333,-87.9939,-106.903)">
        <text x="289.44px" y="115.44px" style="font-family:'ArialMT', 'Arial', sans-serif;font-size:18px;">+</text>
    </g>
    <g transform="matrix(1.33333,0,0,1.33333,-87.9939,-106.903)">
        <text x="344.88px" y="98.64px" style="font-family:'ArialMT', 'Arial', sans-serif;font-size:10px;">O</text>
        <text x="352.8px" y="91.68px" style="font-family:'ArialMT', 'Arial', sans-serif;font-size:8px;">–</text>
    </g>
    <g transform="matrix(1.33333,0,0,1.33333,-87.9939,-106.903)">
        <text x="327.84px" y="128.4px" style="font-family:'ArialMT', 'Arial', sans-serif;font-size:10px;">C</text>
    </g>
    <g transform="matrix(1.33333,0,0,1.33333,-87.9939,-106.903)">
        <text x="316.32px" y="128.4px" style="font-family:'ArialMT', 'Arial', sans-serif;font-size:10px;">H</text>
        <text x="323.52px" y="131.04px" style="font-family:'ArialMT', 'Arial', sans-serif;font-size:8px;">2</text>
    </g>
    <g transform="matrix(1.33333,0,0,1.33333,-87.9939,-106.903)">
        <text x="362.16px" y="128.4px" style="font-family:'ArialMT', 'Arial', sans-serif;font-size:10px;">CH</text>
        <text x="376.56px" y="131.04px" style="font-family:'ArialMT', 'Arial', sans-serif;font-size:8px;">3</text>
    </g>
    <g transform="matrix(1.33333,0,0,1.33333,-87.9939,-106.903)">
        <text x="466.08px" y="97.68px" style="font-family:'ArialMT', 'Arial', sans-serif;font-size:10px;">O</text>
    </g>
    <g transform="matrix(1.33333,0,0,1.33333,-87.9939,-106.903)">
        <text x="449.04px" y="127.44px" style="font-family:'ArialMT', 'Arial', sans-serif;font-size:10px;">C</text>
    </g>
    <g transform="matrix(1.33333,0,0,1.33333,-87.9939,-106.903)">
        <text x="437.52px" y="127.44px" style="font-family:'ArialMT', 'Arial', sans-serif;font-size:10px;">H</text>
        <text x="444.729px" y="130.08px" style="font-family:'ArialMT', 'Arial', sans-serif;font-size:8px;">2</text>
        <text x="456.24px" y="120.48px" style="font-family:'ArialMT', 'Arial', sans-serif;font-size:8px;">–</text>
    </g>
    <g transform="matrix(1.33333,0,0,1.33333,-87.9939,-106.903)">
        <text x="483.36px" y="127.44px" style="font-family:'ArialMT', 'Arial', sans-serif;font-size:10px;">CH</text>
        <text x="497.76px" y="130.08px" style="font-family:'ArialMT', 'Arial', sans-serif;font-size:8px;">3</text>
    </g>
    <g transform="matrix(1.33333,0,0,1.33333,-87.9939,-106.903)">
        <text x="404.16px" y="186.48px" style="font-family:'ArialMT', 'Arial', sans-serif;font-size:10px;">O</text>
    </g>
    <g transform="matrix(1.33333,0,0,1.33333,-87.9939,-106.903)">
        <text x="387.12px" y="216.24px" style="font-family:'ArialMT', 'Arial', sans-serif;font-size:10px;">C</text>
    </g>
    <g transform="matrix(1.33333,0,0,1.33333,-87.9939,-106.903)">
        <text x="375.6px" y="216.24px" style="font-family:'ArialMT', 'Arial', sans-serif;font-size:10px;">H</text>
        <text x="382.8px" y="218.88px" style="font-family:'ArialMT', 'Arial', sans-serif;font-size:8px;">3</text>
    </g>
    <g transform="matrix(1.33333,0,0,1.33333,-87.9939,-106.903)">
        <text x="421.44px" y="216.24px" style="font-family:'ArialMT', 'Arial', sans-serif;font-size:10px;">CH</text>
        <text x="435.84px" y="218.88px" style="font-family:'ArialMT', 'Arial', sans-serif;font-size:8px;">3</text>
    </g>
    <g transform="matrix(-1.15462,0.666813,0.666813,1.15462,-334.846,-857.849)">
        <path d="M88.282,727.375L103.178,727.375" style="fill:none;fill-rule:nonzero;stroke:black;stroke-width:0.48px;"/>
    </g>
    <g transform="matrix(-1.15468,-0.666702,-0.666702,1.15468,671.796,-717.066)">
        <path d="M100.846,726.12L120.764,726.12" style="fill:none;fill-rule:nonzero;stroke:black;stroke-width:0.48px;"/>
    </g>
    <g transform="matrix(-1.15485,0.666412,0.666412,1.15485,-253.253,-876.402)">
        <path d="M118.096,726.12L138.024,726.12" style="fill:none;fill-rule:nonzero;stroke:black;stroke-width:0.48px;"/>
    </g>
    <g transform="matrix(-1.15465,-0.666746,-0.666746,1.15465,752.786,-698.933)">
        <path d="M135.716,727.465L150.254,727.465" style="fill:none;fill-rule:nonzero;stroke:black;stroke-width:0.48px;"/>
    </g>
    <g transform="matrix(0,-1.33333,-1.33333,0,1080.54,214.83)">
        <path d="M130.48,738.51L145.3,738.51" style="fill:none;fill-rule:nonzero;stroke:black;stroke-width:0.48px;"/>
    </g>
    <g transform="matrix(0,-1.33333,-1.33333,0,1077.34,211.63)">
        <path d="M128.08,738.51L142.9,738.51" style="fill:none;fill-rule:nonzero;stroke:black;stroke-width:0.48px;"/>
    </g>
    <g transform="matrix(0,-1.33333,-1.33333,0,1032.93,167.217)">
        <path d="M94.77,738.51L109.59,738.51" style="fill:none;fill-rule:nonzero;stroke:black;stroke-width:0.48px;"/>
    </g>
    <g transform="matrix(1.33333,0,0,1.33333,-87.9939,-969.623)">
        <path d="M97.2,751.2L95.04,751.44L93.84,751.44L92.88,751.2L91.68,750.72L90.72,750.24L90,749.52L88.56,747.6L88.32,746.64L88.08,745.44L87.84,744.96L87.84,744.48L88.08,742.8L88.32,741.6L89.04,740.4L90,739.2L90.96,738.48L92.16,737.76L92.88,737.52" style="fill:none;fill-rule:nonzero;stroke:black;stroke-width:0.48px;"/>
    </g>
    <g transform="matrix(1.2958,-0.314133,-0.314133,-1.2958,147.261,1017.26)">
        <path d="M88.939,736.827L97.089,736.827L89.844,740.559L90.791,738.354L88.939,736.827Z" style="stroke:black;stroke-width:0.48px;"/>
    </g>
    <g transform="matrix(1.33333,0,0,1.33333,-87.9939,-941.783)">
        <path d="M110.88,738.96L110.88,737.04L111.12,736.08L111.36,734.88L111.84,733.92L112.56,732.96L114.72,730.8L115.68,730.08L116.64,729.6L117.84,729.36L118.8,729.12L121.2,729.12L122.4,729.36L123.6,729.84L124.56,730.32L126.48,731.76L127.92,733.68L128.4,734.64L128.88,735.84L129.12,736.8L129.12,737.52" style="fill:none;fill-rule:nonzero;stroke:black;stroke-width:0.48px;"/>
    </g>
    <g transform="matrix(0.078296,1.33103,1.33103,-0.078296,-906.484,-75.3317)">
        <path d="M122.986,736.557L131.16,736.557L123.958,732.653L125.057,734.992L122.986,736.557Z" style="stroke:black;stroke-width:0.48px;"/>
    </g>
    <g transform="matrix(1.33333,0,0,1.33333,-87.9939,-970.903)">
        <path d="M142.8,737.52L144.24,737.52L145.44,737.76L147.36,738.72L148.32,739.44L149.04,740.4L149.52,741.12L150,742.08L150.48,743.28L150.48,744.48L150.72,744.96L150.24,747.36L149.28,749.28L148.56,750L147.84,750.96L146.88,751.44L145.68,751.92L144.72,752.16L144,752.4L143.52,752.4" style="fill:none;fill-rule:nonzero;stroke:black;stroke-width:0.48px;"/>
    </g>
    <g transform="matrix(-1.33333,0,0,1.33333,303.686,-985.303)">
        <path d="M142.8,748.32L150.96,748.32L143.76,752.4L144.72,750L142.8,748.32Z" style="stroke:black;stroke-width:0.48px;"/>
    </g>
    <g transform="matrix(1.33333,0,0,1.33333,-87.9939,-938.903)">
        <path d="M180.72,732.96L214.8,732.96" style="fill:none;fill-rule:nonzero;stroke:black;stroke-width:0.72px;"/>
    </g>
    <g transform="matrix(1.33333,0,0,1.33333,-87.9939,-946.583)">
        <path d="M180.72,735.84L214.8,735.84" style="fill:none;fill-rule:nonzero;stroke:black;stroke-width:0.72px;"/>
    </g>
    <g transform="matrix(1.33333,0,0,1.33333,-87.9939,-942.743)">
        <path d="M210.24,730.8L218.16,734.4L210.24,738" style="fill:none;fill-rule:nonzero;stroke:black;stroke-width:0.72px;"/>
    </g>
    <g transform="matrix(0,-1.33333,-1.33333,0,1244.97,385.417)">
        <path d="M256.2,736.2L270.84,736.2" style="fill:none;fill-rule:nonzero;stroke:black;stroke-width:0.48px;"/>
    </g>
    <g transform="matrix(0,-1.33333,-1.33333,0,1242.6,381.383)">
        <path d="M254.425,736.825L267.815,736.825" style="fill:none;fill-rule:nonzero;stroke:black;stroke-width:0.48px;"/>
    </g>
    <g transform="matrix(-1.15485,0.666401,0.666401,1.15485,68.5874,-960.173)">
        <path d="M249.817,725.21L264.503,725.21" style="fill:none;fill-rule:nonzero;stroke:black;stroke-width:0.48px;"/>
    </g>
    <g transform="matrix(0,1.33333,1.33333,0,-669.274,-246.583)">
        <path d="M245.64,691.32L265.08,691.32" style="fill:none;fill-rule:nonzero;stroke:black;stroke-width:0.72px;"/>
    </g>
    <g transform="matrix(0,1.33333,1.33333,0,-665.434,-250.423)">
        <path d="M248.52,691.32L267.96,691.32" style="fill:none;fill-rule:nonzero;stroke:black;stroke-width:0.72px;"/>
    </g>
    <g transform="matrix(1.33333,0,0,1.33333,-87.9939,-803.543)">
        <path d="M260.4,678.24L256.8,686.16L253.2,678.24" style="fill:none;fill-rule:nonzero;stroke:black;stroke-width:0.72px;"/>
    </g>
    <g transform="matrix(0,-1.33333,-1.33333,0,1124.65,503.817)">
        <path d="M255.48,646.68L270.12,646.68" style="fill:none;fill-rule:nonzero;stroke:black;stroke-width:0.48px;"/>
    </g>
    <g transform="matrix(0,-1.33333,-1.33333,0,1122.28,499.783)">
        <path d="M253.705,647.305L267.095,647.305" style="fill:none;fill-rule:nonzero;stroke:black;stroke-width:0.48px;"/>
    </g>
    <g transform="matrix(-1.15485,0.666401,0.666401,1.15485,126.452,-736.951)">
        <path d="M249.097,635.69L263.783,635.69" style="fill:none;fill-rule:nonzero;stroke:black;stroke-width:0.48px;"/>
    </g>
    <g transform="matrix(0,-1.33333,-1.33333,0,1356.65,500.937)">
        <path d="M341.4,734.76L356.04,734.76" style="fill:none;fill-rule:nonzero;stroke:black;stroke-width:0.48px;"/>
    </g>
    <g transform="matrix(-1.1546,0.666846,0.666846,1.1546,279.577,-1016.14)">
        <path d="M335.062,724.98L349.058,724.98" style="fill:none;fill-rule:nonzero;stroke:black;stroke-width:0.48px;"/>
    </g>
    <g transform="matrix(-1.15471,0.666647,0.666647,1.15471,282.871,-1010.53)">
        <path d="M334.97,722.555L350.35,722.555" style="fill:none;fill-rule:nonzero;stroke:black;stroke-width:0.48px;"/>
    </g>
    <g transform="matrix(1.15451,0.666991,0.666991,-1.15451,-507.311,649.466)">
        <path d="M347.754,723.835L362.166,723.835" style="fill:none;fill-rule:nonzero;stroke:black;stroke-width:0.48px;"/>
    </g>
    <g transform="matrix(1.33333,0,0,1.33333,-87.9939,-938.263)">
        <path d="M389.76,732.72L423.84,732.72" style="fill:none;fill-rule:nonzero;stroke:black;stroke-width:0.72px;"/>
    </g>
    <g transform="matrix(1.2958,0.314133,0.314133,-1.2958,-302.406,856.257)">
        <path d="M415.579,733.653L423.729,733.653L416.484,729.921L417.431,732.126L415.579,733.653Z" style="stroke:black;stroke-width:0.72px;"/>
    </g>
    <g transform="matrix(-1.2958,0.314133,0.314133,1.2958,716.977,-1034.44)">
        <path d="M389.419,731.787L397.569,731.787L390.324,735.519L391.271,733.314L389.419,731.787Z" style="stroke:black;stroke-width:0.72px;"/>
    </g>
    <g transform="matrix(0,-1.33333,-1.33333,0,1521.13,662.857)">
        <path d="M463.8,735.72L478.44,735.72" style="fill:none;fill-rule:nonzero;stroke:black;stroke-width:0.48px;"/>
    </g>
    <g transform="matrix(0,-1.33333,-1.33333,0,1517.93,659.657)">
        <path d="M461.4,735.72L476.04,735.72" style="fill:none;fill-rule:nonzero;stroke:black;stroke-width:0.48px;"/>
    </g>
    <g transform="matrix(-1.15469,0.666693,0.666693,1.15469,586.724,-1101.07)">
        <path d="M460.87,725.975L470.57,725.975" style="fill:none;fill-rule:nonzero;stroke:black;stroke-width:0.48px;"/>
    </g>
    <g transform="matrix(1.15451,0.666991,0.666991,-1.15451,-486.278,568.455)">
        <path d="M468.954,724.795L483.366,724.795" style="fill:none;fill-rule:nonzero;stroke:black;stroke-width:0.48px;"/>
    </g>
    <g transform="matrix(1.33333,0,0,1.33333,-87.9939,-935.383)">
        <path d="M310.8,757.44L318,757.44L318,756.96L312.24,756.96L312.24,706.32L318,706.32L318,705.84L310.8,705.84L310.8,757.44Z" style="stroke:black;stroke-width:0.02px;"/>
    </g>
    <g transform="matrix(1.33333,0,0,1.33333,-87.9939,-935.383)">
        <path d="M507.84,757.44L500.64,757.44L500.64,756.96L506.4,756.96L506.4,706.32L500.64,706.32L500.64,705.84L507.84,705.84L507.84,757.44Z" style="stroke:black;stroke-width:0.02px;"/>
    </g>
    <g transform="matrix(0,1.33333,1.33333,0,-467.994,-448.503)">
        <path d="M396.84,691.56L416.28,691.56" style="fill:none;fill-rule:nonzero;stroke:black;stroke-width:0.72px;"/>
    </g>
    <g transform="matrix(0,1.33333,1.33333,0,-464.154,-452.343)">
        <path d="M399.72,691.56L419.16,691.56" style="fill:none;fill-rule:nonzero;stroke:black;stroke-width:0.72px;"/>
    </g>
    <g transform="matrix(1.33333,0,0,1.33333,-87.9939,-804.183)">
        <path d="M411.6,678.48L408,686.4L404.4,678.48" style="fill:none;fill-rule:nonzero;stroke:black;stroke-width:0.72px;"/>
    </g>
    <g transform="matrix(0,-1.33333,-1.33333,0,1320.17,698.697)">
        <path d="M401.88,646.92L416.52,646.92" style="fill:none;fill-rule:nonzero;stroke:black;stroke-width:0.48px;"/>
    </g>
    <g transform="matrix(0,-1.33333,-1.33333,0,1316.97,695.497)">
        <path d="M399.48,646.92L414.12,646.92" style="fill:none;fill-rule:nonzero;stroke:black;stroke-width:0.48px;"/>
    </g>
    <g transform="matrix(-1.15485,0.666401,0.666401,1.15485,487.577,-834.309)">
        <path d="M394.297,635.93L408.983,635.93" style="fill:none;fill-rule:nonzero;stroke:black;stroke-width:0.48px;"/>
    </g>
    <g transform="matrix(1.15451,0.666991,0.666991,-1.15451,-438.122,625.634)">
        <path d="M407.034,635.995L421.446,635.995" style="fill:none;fill-rule:nonzero;stroke:black;stroke-width:0.48px;"/>
    </g>
</svg>
