<?xml version="1.0" encoding="UTF-8" standalone="no"?>
<!DOCTYPE svg PUBLIC "-//W3C//DTD SVG 1.1//EN" "http://www.w3.org/Graphics/SVG/1.1/DTD/svg11.dtd">
<svg width="100%" height="100%" viewBox="0 0 595 345" version="1.1" xmlns="http://www.w3.org/2000/svg" xmlns:xlink="http://www.w3.org/1999/xlink" xml:space="preserve" xmlns:serif="http://www.serif.com/" style="fill-rule:evenodd;clip-rule:evenodd;stroke-linecap:round;stroke-linejoin:round;stroke-miterlimit:10;">
    <g transform="matrix(-1.15457,0.6669,0.6669,1.15457,-345.106,-867.438)">
        <path d="M92.138,747.235L106.792,747.235" style="fill:none;fill-rule:nonzero;stroke:black;stroke-width:0.72px;"/>
    </g>
    <g transform="matrix(1.15468,0.666702,0.666702,-1.15468,-571.096,848.385)">
        <path d="M104.476,745.92L124.394,745.92" style="fill:none;fill-rule:nonzero;stroke:black;stroke-width:0.72px;"/>
    </g>
    <g transform="matrix(0,1.33333,1.33333,0,-908.274,-84.26)">
        <path d="M115.71,733.59L130.41,733.59" style="fill:none;fill-rule:nonzero;stroke:black;stroke-width:0.72px;"/>
    </g>
    <g transform="matrix(0,1.33333,1.33333,0,-911.647,-78.6733)">
        <path d="M113.18,732.76L126.22,732.76" style="fill:none;fill-rule:nonzero;stroke:black;stroke-width:0.72px;"/>
    </g>
    <g transform="matrix(0,-1.33333,-1.33333,0,1060.09,190.26)">
        <path d="M100.14,758.25L114.84,758.25" style="fill:none;fill-rule:nonzero;stroke:black;stroke-width:0.72px;"/>
    </g>
    <g transform="matrix(0,-1.33333,-1.33333,0,1055.61,185.78)">
        <path d="M96.78,758.25L111.48,758.25" style="fill:none;fill-rule:nonzero;stroke:black;stroke-width:0.72px;"/>
    </g>
    <g transform="matrix(1.33333,0,0,1.33333,-94.2339,-916.46)">
        <path d="M150,740.4L286.56,740.4" style="fill:none;fill-rule:nonzero;stroke:black;stroke-width:0.72px;"/>
    </g>
    <g transform="matrix(1.2958,0.314133,0.314133,-1.2958,-316.211,941.376)">
        <path d="M278.299,741.333L286.449,741.333L279.204,737.601L280.151,739.806L278.299,741.333Z" style="stroke:black;stroke-width:0.72px;"/>
    </g>
    <g transform="matrix(-1.15457,0.6669,0.6669,1.15457,247.939,-1018.73)">
        <path d="M329.738,744.355L344.392,744.355" style="fill:none;fill-rule:nonzero;stroke:black;stroke-width:0.72px;"/>
    </g>
    <g transform="matrix(1.15468,0.666702,0.666702,-1.15468,-526.728,690.491)">
        <path d="M342.076,743.04L361.994,743.04" style="fill:none;fill-rule:nonzero;stroke:black;stroke-width:0.72px;"/>
    </g>
    <g transform="matrix(0,1.33333,1.33333,0,-584.154,-393.74)">
        <path d="M350.7,728.1L370.62,728.1" style="fill:none;fill-rule:nonzero;stroke:black;stroke-width:0.72px;"/>
    </g>
    <g transform="matrix(1.1547,0.666669,0.666669,-1.1547,-505.036,685.682)">
        <path d="M359.69,714.52L374.17,714.52" style="fill:none;fill-rule:nonzero;stroke:black;stroke-width:0.72px;"/>
    </g>
    <g transform="matrix(0,-1.33333,-1.33333,0,1373.05,510.9)">
        <path d="M337.74,755.37L352.44,755.37" style="fill:none;fill-rule:nonzero;stroke:black;stroke-width:0.72px;"/>
    </g>
    <g transform="matrix(0,-1.33333,-1.33333,0,1368.57,506.42)">
        <path d="M334.38,755.37L349.08,755.37" style="fill:none;fill-rule:nonzero;stroke:black;stroke-width:0.72px;"/>
    </g>
    <g transform="matrix(1.33333,0,0,1.33333,-94.2339,-64.62)">
        <text x="84.96px" y="104.88px" style="font-family:'ArialMT', 'Arial', sans-serif;font-size:10px;">C</text>
    </g>
    <g transform="matrix(1.33333,0,0,1.33333,-94.2339,-64.62)">
        <text x="73.44px" y="104.88px" style="font-family:'ArialMT', 'Arial', sans-serif;font-size:10px;">H</text>
        <text x="80.64px" y="107.52px" style="font-family:'ArialMT', 'Arial', sans-serif;font-size:8px;">3</text>
    </g>
    <g transform="matrix(1.33333,0,0,1.33333,-94.2339,-64.62)">
        <text x="119.28px" y="124.8px" style="font-family:'ArialMT', 'Arial', sans-serif;font-size:10px;">CH</text>
        <text x="133.68px" y="127.44px" style="font-family:'ArialMT', 'Arial', sans-serif;font-size:8px;">2</text>
    </g>
    <g transform="matrix(1.33333,0,0,1.33333,-94.2339,-64.62)">
        <text x="101.76px" y="75.12px" style="font-family:'ArialMT', 'Arial', sans-serif;font-size:10px;">O</text>
    </g>
    <g transform="matrix(1.33333,0,0,1.33333,-94.2339,-64.62)">
        <text x="164.88px" y="92.64px" style="font-family:'ArialMT', 'Arial', sans-serif;font-size:10px;">R</text>
        <text x="172.08px" y="87.6px" style="font-family:'ArialMT', 'Arial', sans-serif;font-size:6px;">1</text>
        <text x="175.68px" y="92.64px" style="font-family:'ArialMT', 'Arial', sans-serif;font-size:10px;">L</text>
        <text x="181.2px" y="92.64px" style="font-family:'ArialMT', 'Arial', sans-serif;font-size:10px;">i<tspan x="183.591px 186.649px " y="92.64px 92.64px "> +</tspan></text>
        <text x="195.715px" y="92.64px" style="font-family:'ArialMT', 'Arial', sans-serif;font-size:10px;">Cu</text>
        <text x="208.435px" y="92.64px" style="font-family:'ArialMT', 'Arial', sans-serif;font-size:10px;">I</text>
        <text x="214.303px" y="92.64px" style="font-family:'ArialMT', 'Arial', sans-serif;font-size:10px;">+</text>
        <text x="222.72px" y="92.64px" style="font-family:'ArialMT', 'Arial', sans-serif;font-size:10px;">2</text>
        <text x="228.24px" y="92.64px" style="font-family:'ArialMT', 'Arial', sans-serif;font-size:10px;">P(</text>
        <text x="238.32px" y="92.64px" style="font-family:'ArialMT', 'Arial', sans-serif;font-size:10px;">n</text>
        <text x="246.679px" y="92.64px" style="font-family:'ArialMT', 'Arial', sans-serif;font-size:10px;">- <tspan x="252.973px " y="92.64px ">B</tspan></text>
        <text x="259.683px" y="92.64px" style="font-family:'ArialMT', 'Arial', sans-serif;font-size:10px;">u</text>
        <text x="265.203px" y="92.64px" style="font-family:'ArialMT', 'Arial', sans-serif;font-size:10px;">)</text>
        <text x="268.563px" y="95.28px" style="font-family:'ArialMT', 'Arial', sans-serif;font-size:6px;">3</text>
    </g>
    <g transform="matrix(1.33333,0,0,1.33333,-94.2339,-64.62)">
        <text x="322.56px" y="107.76px" style="font-family:'ArialMT', 'Arial', sans-serif;font-size:10px;">C</text>
    </g>
    <g transform="matrix(1.33333,0,0,1.33333,-94.2339,-64.62)">
        <text x="311.04px" y="107.76px" style="font-family:'ArialMT', 'Arial', sans-serif;font-size:10px;">H</text>
        <text x="318.24px" y="110.4px" style="font-family:'ArialMT', 'Arial', sans-serif;font-size:8px;">3</text>
    </g>
    <g transform="matrix(1.33333,0,0,1.33333,-94.2339,-64.62)">
        <text x="374.16px" y="137.76px" style="font-family:'ArialMT', 'Arial', sans-serif;font-size:10px;">R</text>
        <text x="381.6px" y="130.8px" style="font-family:'ArialMT', 'Arial', sans-serif;font-size:8px;">1</text>
    </g>
    <g transform="matrix(1.33333,0,0,1.33333,-94.2339,-64.62)">
        <text x="339.36px" y="78px" style="font-family:'ArialMT', 'Arial', sans-serif;font-size:10px;">O</text>
    </g>
    <g transform="matrix(1.28607,-0.35185,0.35185,1.28607,-94.2339,-64.62)">
        <text x="322.619px" y="196.397px" style="font-family:'ArialMT', 'Arial', sans-serif;font-size:10px;">:</text>
    </g>
    <g transform="matrix(1.33333,0,0,1.33333,-94.2339,-64.62)">
        <text x="438px" y="107.76px" style="font-family:'ArialMT', 'Arial', sans-serif;font-size:10px;">C</text>
    </g>
    <g transform="matrix(1.33333,0,0,1.33333,-94.2339,-64.62)">
        <text x="426.48px" y="107.76px" style="font-family:'ArialMT', 'Arial', sans-serif;font-size:10px;">H</text>
        <text x="433.68px" y="110.4px" style="font-family:'ArialMT', 'Arial', sans-serif;font-size:8px;">3</text>
    </g>
    <g transform="matrix(1.33333,0,0,1.33333,-94.2339,-64.62)">
        <text x="489.6px" y="137.76px" style="font-family:'ArialMT', 'Arial', sans-serif;font-size:10px;">R</text>
        <text x="497.04px" y="130.8px" style="font-family:'ArialMT', 'Arial', sans-serif;font-size:8px;">1</text>
    </g>
    <g transform="matrix(1.33333,0,0,1.33333,-94.2339,-64.62)">
        <text x="454.8px" y="78px" style="font-family:'ArialMT', 'Arial', sans-serif;font-size:10px;">O</text>
        <text x="462.72px" y="71.04px" style="font-family:'ArialMT', 'Arial', sans-serif;font-size:8px;">–</text>
    </g>
    <g transform="matrix(1.33333,0,0,1.33333,-94.2339,-64.62)">
        <text x="452.16px" y="77.04px" style="font-family:'ArialMT', 'Arial', sans-serif;font-size:10px;">:</text>
    </g>
    <g transform="matrix(1.33333,0,0,1.33333,-94.2339,-929.58)">
        <path d="M352.08,744L353.28,742.32L354.72,740.88L356.4,739.92L358.56,739.44L360.72,739.44L361.92,739.68L362.88,739.92L363.84,740.64L364.8,741.12L365.52,741.84L366.24,742.8L367.2,744.72L367.68,745.92L367.68,749.52L366.96,751.2" style="fill:none;fill-rule:nonzero;stroke:black;stroke-width:0.48px;"/>
    </g>
    <g transform="matrix(-0.580748,1.20021,1.20021,0.580748,-314.484,-804.913)">
        <path d="M351.987,748.956L360.252,748.956L353.004,752.914L354.154,750.538L351.987,748.956Z" style="stroke:black;stroke-width:0.48px;"/>
    </g>
    <g transform="matrix(1.33333,0,0,1.33333,-94.2339,-964.14)">
        <path d="M340.56,764.64L338.88,764.88L337.68,764.88L336.48,764.4L335.52,764.16L334.56,763.44L333.84,762.72L333.12,761.76L332.16,759.84L332.16,758.64L331.92,758.16L332.16,756.72L333.12,754.32L335.04,752.4L336.24,751.92L336.96,751.68" style="fill:none;fill-rule:nonzero;stroke:black;stroke-width:0.48px;"/>
    </g>
    <g transform="matrix(1.24844,-0.468165,-0.468165,-1.24844,290.675,1149.23)">
        <path d="M329.609,763.333L337.811,763.333L330.451,759.429L331.603,761.816L329.609,763.333Z" style="stroke:black;stroke-width:0.48px;"/>
    </g>
    <g transform="matrix(1.33333,0,0,1.33333,-94.2339,-913.9)">
        <path d="M378.96,739.44L413.04,739.44" style="fill:none;fill-rule:nonzero;stroke:black;stroke-width:0.72px;"/>
    </g>
    <g transform="matrix(1.2958,0.314133,0.314133,-1.2958,-311.163,901.681)">
        <path d="M404.779,740.373L412.929,740.373L405.684,736.641L406.631,738.846L404.779,740.373Z" style="stroke:black;stroke-width:0.72px;"/>
    </g>
    <g transform="matrix(-1.2958,0.314133,0.314133,1.2958,680.231,-1006.43)">
        <path d="M378.619,738.507L386.769,738.507L379.524,742.239L380.471,740.034L378.619,738.507Z" style="stroke:black;stroke-width:0.72px;"/>
    </g>
    <g transform="matrix(-1.15457,0.6669,0.6669,1.15457,535.142,-1095.72)">
        <path d="M445.178,744.355L459.832,744.355" style="fill:none;fill-rule:nonzero;stroke:black;stroke-width:0.72px;"/>
    </g>
    <g transform="matrix(1.15468,0.666702,0.666702,-1.15468,-506.104,613.527)">
        <path d="M457.516,743.04L477.434,743.04" style="fill:none;fill-rule:nonzero;stroke:black;stroke-width:0.72px;"/>
    </g>
    <g transform="matrix(1.15478,0.666528,0.666528,-1.15478,-504.382,615.319)">
        <path d="M457.498,740.13L474.102,740.13" style="fill:none;fill-rule:nonzero;stroke:black;stroke-width:0.72px;"/>
    </g>
    <g transform="matrix(0,1.33333,1.33333,0,-430.234,-547.66)">
        <path d="M466.14,728.1L486.06,728.1" style="fill:none;fill-rule:nonzero;stroke:black;stroke-width:0.72px;"/>
    </g>
    <g transform="matrix(1.1547,0.666669,0.666669,-1.1547,-484.414,608.722)">
        <path d="M475.13,714.52L489.61,714.52" style="fill:none;fill-rule:nonzero;stroke:black;stroke-width:0.72px;"/>
    </g>
    <g transform="matrix(0,-1.33333,-1.33333,0,1524.73,662.58)">
        <path d="M451.5,755.37L466.2,755.37" style="fill:none;fill-rule:nonzero;stroke:black;stroke-width:0.72px;"/>
    </g>
    <g transform="matrix(-0.0162671,-1.33323,1.33323,-0.0162671,-94.2339,-64.62)">
        <text x="-87.09px" y="459.292px" style="font-family:'ArialMT', 'Arial', sans-serif;font-size:10px;">:</text>
    </g>
    <g transform="matrix(1.33333,0,0,1.33333,-94.2339,-64.62)">
        <text x="462.48px" y="77.76px" style="font-family:'ArialMT', 'Arial', sans-serif;font-size:10px;">:</text>
    </g>
    <g transform="matrix(1.33333,0,0,1.33333,-94.2339,-64.62)">
        <text x="411.6px" y="195.6px" style="font-family:'ArialMT', 'Arial', sans-serif;font-size:10px;">R</text>
        <text x="419.04px" y="188.64px" style="font-family:'ArialMT', 'Arial', sans-serif;font-size:8px;">2</text>
    </g>
    <g transform="matrix(1.33333,0,0,1.33333,-94.2339,-64.62)">
        <text x="441.36px" y="212.64px" style="font-family:'ArialMT', 'Arial', sans-serif;font-size:10px;">H</text>
    </g>
    <g transform="matrix(1.33333,0,0,1.33333,-94.2339,-64.62)">
        <text x="441.12px" y="178.32px" style="font-family:'ArialMT', 'Arial', sans-serif;font-size:10px;">O</text>
    </g>
    <g transform="matrix(1.33333,0,0,1.33333,-94.2339,-64.62)">
        <text x="363.36px" y="274.32px" style="font-family:'ArialMT', 'Arial', sans-serif;font-size:10px;">C</text>
    </g>
    <g transform="matrix(1.33333,0,0,1.33333,-94.2339,-64.62)">
        <text x="351.84px" y="274.32px" style="font-family:'ArialMT', 'Arial', sans-serif;font-size:10px;">H</text>
        <text x="359.04px" y="276.96px" style="font-family:'ArialMT', 'Arial', sans-serif;font-size:8px;">3</text>
    </g>
    <g transform="matrix(1.33333,0,0,1.33333,-94.2339,-64.62)">
        <text x="432.24px" y="274.32px" style="font-family:'ArialMT', 'Arial', sans-serif;font-size:10px;">R</text>
        <text x="439.68px" y="267.36px" style="font-family:'ArialMT', 'Arial', sans-serif;font-size:8px;">2</text>
    </g>
    <g transform="matrix(1.33333,0,0,1.33333,-94.2339,-64.62)">
        <text x="380.16px" y="244.56px" style="font-family:'ArialMT', 'Arial', sans-serif;font-size:10px;">O</text>
    </g>
    <g transform="matrix(1.33333,0,0,1.33333,-94.2339,-64.62)">
        <text x="414.96px" y="304.32px" style="font-family:'ArialMT', 'Arial', sans-serif;font-size:10px;">R</text>
        <text x="422.4px" y="297.36px" style="font-family:'ArialMT', 'Arial', sans-serif;font-size:8px;">1</text>
    </g>
    <g transform="matrix(1.33333,0,0,1.33333,-94.2339,-64.62)">
        <text x="414.72px" y="244.56px" style="font-family:'ArialMT', 'Arial', sans-serif;font-size:10px;">O<tspan x="422.64px " y="244.56px ">H</tspan></text>
    </g>
    <g transform="matrix(1.33333,0,0,1.33333,-94.2339,-916.78)">
        <path d="M513.36,790.56L506.88,790.56L506.88,790.32L512.64,790.32L512.64,690.72L506.88,690.72L506.88,690.48L513.36,690.48L513.36,790.56Z" style="stroke:black;stroke-width:0.02px;"/>
    </g>
    <g transform="matrix(1.33333,0,0,1.33333,-94.2339,-916.78)">
        <path d="M299.04,690.48L305.52,690.48L305.52,690.72L299.76,690.72L299.76,790.32L305.52,790.32L305.52,790.56L299.04,790.56L299.04,690.48Z" style="stroke:black;stroke-width:0.02px;"/>
    </g>
    <g transform="matrix(0,1.33333,1.33333,0,-422.714,-341.26)">
        <path d="M370.2,647.88L432.84,647.88" style="fill:none;fill-rule:nonzero;stroke:black;stroke-width:0.72px;"/>
    </g>
    <g transform="matrix(-0.314133,1.2958,1.2958,0.314133,-236.813,-484.636)">
        <path d="M397.219,621.453L405.369,621.453L398.124,617.721L399.071,619.926L397.219,621.453Z" style="stroke:black;stroke-width:0.72px;"/>
    </g>
    <g transform="matrix(1.33333,0,0,1.33333,-94.2339,-676.46)">
        <path d="M419.76,650.4L435.12,650.4" style="fill:none;fill-rule:nonzero;stroke:black;stroke-width:0.72px;"/>
    </g>
    <g transform="matrix(0.666796,1.15463,1.15463,-0.666796,-545.942,122.022)">
        <path d="M431.656,644.4L445.514,644.4" style="fill:none;fill-rule:nonzero;stroke:black;stroke-width:0.72px;"/>
    </g>
    <g transform="matrix(0.667127,-1.15443,-1.15443,-0.667127,956.37,1129.2)">
        <path d="M432.865,655.98L447.695,655.98" style="fill:none;fill-rule:nonzero;stroke:black;stroke-width:0.72px;"/>
    </g>
    <g transform="matrix(0.666267,-1.15493,-1.15493,-0.666267,955.851,1124.37)">
        <path d="M430.421,656.865L443.409,656.865" style="fill:none;fill-rule:nonzero;stroke:black;stroke-width:0.72px;"/>
    </g>
    <g transform="matrix(-1.15457,0.6669,0.6669,1.15457,460.524,-631.554)">
        <path d="M370.538,577.795L385.192,577.795" style="fill:none;fill-rule:nonzero;stroke:black;stroke-width:0.72px;"/>
    </g>
    <g transform="matrix(1.15468,0.666702,0.666702,-1.15468,-408.393,693.046)">
        <path d="M382.876,576.48L402.794,576.48" style="fill:none;fill-rule:nonzero;stroke:black;stroke-width:0.72px;"/>
    </g>
    <g transform="matrix(0,1.33333,1.33333,0,-307.674,-226.06)">
        <path d="M391.5,561.54L411.42,561.54" style="fill:none;fill-rule:nonzero;stroke:black;stroke-width:0.72px;"/>
    </g>
    <g transform="matrix(1.15468,-0.666702,-0.666702,-1.15468,363.37,1228.35)">
        <path d="M400.126,576.48L420.044,576.48" style="fill:none;fill-rule:nonzero;stroke:black;stroke-width:0.72px;"/>
    </g>
    <g transform="matrix(1.15499,0.666164,0.666164,-1.15499,-403.372,671.771)">
        <path d="M417.74,577.835L432.25,577.835" style="fill:none;fill-rule:nonzero;stroke:black;stroke-width:0.72px;"/>
    </g>
    <g transform="matrix(0,-1.33333,-1.33333,0,1205.37,787.38)">
        <path d="M378.54,588.81L393.24,588.81" style="fill:none;fill-rule:nonzero;stroke:black;stroke-width:0.72px;"/>
    </g>
    <g transform="matrix(0,-1.33333,-1.33333,0,1200.89,782.9)">
        <path d="M375.18,588.81L389.88,588.81" style="fill:none;fill-rule:nonzero;stroke:black;stroke-width:0.72px;"/>
    </g>
    <g transform="matrix(1.1547,0.666669,0.666669,-1.1547,-386.707,688.235)">
        <path d="M400.49,547.96L414.97,547.96" style="fill:none;fill-rule:nonzero;stroke:black;stroke-width:0.72px;"/>
    </g>
    <g transform="matrix(0,-1.33333,-1.33333,0,1249.13,831.14)">
        <path d="M411.36,588.81L426.06,588.81" style="fill:none;fill-rule:nonzero;stroke:black;stroke-width:0.72px;"/>
    </g>
</svg>
