<?xml version="1.0" encoding="UTF-8" standalone="no"?>
<!DOCTYPE svg PUBLIC "-//W3C//DTD SVG 1.1//EN" "http://www.w3.org/Graphics/SVG/1.1/DTD/svg11.dtd">
<svg width="100%" height="100%" viewBox="0 0 655 355" version="1.1" xmlns="http://www.w3.org/2000/svg" xmlns:xlink="http://www.w3.org/1999/xlink" xml:space="preserve" xmlns:serif="http://www.serif.com/" style="fill-rule:evenodd;clip-rule:evenodd;stroke-linecap:round;stroke-linejoin:round;stroke-miterlimit:10;">
    <g transform="matrix(-1.15494,0.666245,0.666245,1.15494,-133.851,-354.122)">
        <path d="M100.525,532.675L115.395,532.675" style="fill:none;fill-rule:nonzero;stroke:black;stroke-width:0.48px;"/>
    </g>
    <g transform="matrix(-1.15468,-0.666702,-0.666702,1.15468,612.786,-196.885)">
        <path d="M113.066,531.41L132.984,531.41" style="fill:none;fill-rule:nonzero;stroke:black;stroke-width:0.48px;"/>
    </g>
    <g transform="matrix(-1.15468,0.666702,0.666702,1.15468,-52.88,-372.428)">
        <path d="M130.316,531.41L150.234,531.41" style="fill:none;fill-rule:nonzero;stroke:black;stroke-width:0.48px;"/>
    </g>
    <g transform="matrix(-1.15494,-0.666244,-0.666244,1.15494,693.553,-178.973)">
        <path d="M147.925,532.75L162.495,532.75" style="fill:none;fill-rule:nonzero;stroke:black;stroke-width:0.48px;"/>
    </g>
    <g transform="matrix(0,-1.33333,-1.33333,0,877.493,518.429)">
        <path d="M142.775,543.715L157.425,543.715" style="fill:none;fill-rule:nonzero;stroke:black;stroke-width:0.48px;"/>
    </g>
    <g transform="matrix(0,-1.33333,-1.33333,0,874.293,515.229)">
        <path d="M140.375,543.715L155.025,543.715" style="fill:none;fill-rule:nonzero;stroke:black;stroke-width:0.48px;"/>
    </g>
    <g transform="matrix(0,-1.33333,-1.33333,0,829.893,470.829)">
        <path d="M107.075,543.715L121.725,543.715" style="fill:none;fill-rule:nonzero;stroke:black;stroke-width:0.48px;"/>
    </g>
    <g transform="matrix(0,-1.33333,-1.33333,0,1179.77,238.289)">
        <path d="M151.08,762.12L165.72,762.12" style="fill:none;fill-rule:nonzero;stroke:black;stroke-width:0.48px;"/>
    </g>
    <g transform="matrix(0,-1.33333,-1.33333,0,1176.57,235.089)">
        <path d="M148.68,762.12L163.32,762.12" style="fill:none;fill-rule:nonzero;stroke:black;stroke-width:0.48px;"/>
    </g>
    <g transform="matrix(-1.15485,0.666401,0.666401,1.15485,-172.83,-926.223)">
        <path d="M143.497,751.13L158.183,751.13" style="fill:none;fill-rule:nonzero;stroke:black;stroke-width:0.48px;"/>
    </g>
    <g transform="matrix(1.15451,0.666991,0.666991,-1.15451,-519.408,799.908)">
        <path d="M156.234,751.195L170.646,751.195" style="fill:none;fill-rule:nonzero;stroke:black;stroke-width:0.48px;"/>
    </g>
    <g transform="matrix(0,-1.33333,-1.33333,0,1062.65,118.609)">
        <path d="M62.28,763.08L76.92,763.08" style="fill:none;fill-rule:nonzero;stroke:black;stroke-width:0.48px;"/>
    </g>
    <g transform="matrix(0,-1.33333,-1.33333,0,1060.28,114.576)">
        <path d="M60.505,763.705L73.895,763.705" style="fill:none;fill-rule:nonzero;stroke:black;stroke-width:0.48px;"/>
    </g>
    <g transform="matrix(-1.15485,0.666401,0.666401,1.15485,-391.435,-870.235)">
        <path d="M55.897,752.09L70.583,752.09" style="fill:none;fill-rule:nonzero;stroke:black;stroke-width:0.48px;"/>
    </g>
    <g transform="matrix(1.33333,0,0,1.33333,-47.5939,-977.871)">
        <path d="M201.84,757.92L235.92,757.92" style="fill:none;fill-rule:nonzero;stroke:black;stroke-width:0.72px;"/>
    </g>
    <g transform="matrix(1.2958,0.314133,0.314133,-1.2958,-276.976,941.936)">
        <path d="M227.659,758.853L235.809,758.853L228.564,755.121L229.511,757.326L227.659,758.853Z" style="stroke:black;stroke-width:0.72px;"/>
    </g>
    <g transform="matrix(1.33333,0,0,1.33333,-47.5939,-79.3109)">
        <text x="93.36px" y="319.44px" style="font-family:'ArialMT', 'Arial', sans-serif;font-size:10px;">C</text>
    </g>
    <g transform="matrix(1.33333,0,0,1.33333,-47.5939,-79.3109)">
        <text x="81.84px" y="319.44px" style="font-family:'ArialMT', 'Arial', sans-serif;font-size:10px;">H</text>
        <text x="89.04px" y="322.08px" style="font-family:'ArialMT', 'Arial', sans-serif;font-size:8px;">3</text>
    </g>
    <g transform="matrix(1.33333,0,0,1.33333,-47.5939,-79.3109)">
        <text x="162.48px" y="319.44px" style="font-family:'ArialMT', 'Arial', sans-serif;font-size:10px;">CH</text>
        <text x="176.88px" y="322.08px" style="font-family:'ArialMT', 'Arial', sans-serif;font-size:8px;">3</text>
    </g>
    <g transform="matrix(1.33333,0,0,1.33333,-47.5939,-79.3109)">
        <text x="144.96px" y="289.68px" style="font-family:'ArialMT', 'Arial', sans-serif;font-size:10px;">O</text>
    </g>
    <g transform="matrix(1.33333,0,0,1.33333,-47.5939,-79.3109)">
        <text x="110.4px" y="289.68px" style="font-family:'ArialMT', 'Arial', sans-serif;font-size:10px;">O<tspan x="118.32px " y="289.68px ">H</tspan></text>
    </g>
    <g transform="matrix(1.33333,0,0,1.33333,-47.5939,-79.3109)">
        <text x="153.36px" y="71.28px" style="font-family:'ArialMT', 'Arial', sans-serif;font-size:10px;">O</text>
    </g>
    <g transform="matrix(1.33333,0,0,1.33333,-47.5939,-79.3109)">
        <text x="136.32px" y="101.04px" style="font-family:'ArialMT', 'Arial', sans-serif;font-size:10px;">C</text>
    </g>
    <g transform="matrix(1.33333,0,0,1.33333,-47.5939,-79.3109)">
        <text x="124.8px" y="101.04px" style="font-family:'ArialMT', 'Arial', sans-serif;font-size:10px;">H</text>
        <text x="132px" y="103.68px" style="font-family:'ArialMT', 'Arial', sans-serif;font-size:8px;">3</text>
    </g>
    <g transform="matrix(1.33333,0,0,1.33333,-47.5939,-79.3109)">
        <text x="170.64px" y="101.04px" style="font-family:'ArialMT', 'Arial', sans-serif;font-size:10px;">CH</text>
        <text x="185.04px" y="103.68px" style="font-family:'ArialMT', 'Arial', sans-serif;font-size:8px;">3</text>
    </g>
    <g transform="matrix(1.33333,0,0,1.33333,-47.5939,-79.3109)">
        <text x="65.76px" y="70.32px" style="font-family:'ArialMT', 'Arial', sans-serif;font-size:10px;">O</text>
    </g>
    <g transform="matrix(1.33333,0,0,1.33333,-47.5939,-79.3109)">
        <text x="48.72px" y="100.08px" style="font-family:'ArialMT', 'Arial', sans-serif;font-size:10px;">C</text>
    </g>
    <g transform="matrix(1.33333,0,0,1.33333,-47.5939,-79.3109)">
        <text x="37.2px" y="100.08px" style="font-family:'ArialMT', 'Arial', sans-serif;font-size:10px;">H</text>
        <text x="44.4px" y="102.72px" style="font-family:'ArialMT', 'Arial', sans-serif;font-size:8px;">3</text>
    </g>
    <g transform="matrix(1.33333,0,0,1.33333,-47.5939,-79.3109)">
        <text x="101.76px" y="91.44px" style="font-family:'ArialMT', 'Arial', sans-serif;font-size:18px;">+</text>
    </g>
    <g transform="matrix(1.33333,0,0,1.33333,-47.5939,-79.3109)">
        <text x="72px" y="96.24px" style="font-family:'ArialMT', 'Arial', sans-serif;font-size:10px;">δ</text>
        <text x="77.52px" y="96.24px" style="font-family:'ArialMT', 'Arial', sans-serif;font-size:10px;">+</text>
        <text x="83.52px" y="98.88px" style="font-family:'ArialMT', 'Arial', sans-serif;font-size:6px;">1</text>
    </g>
    <g transform="matrix(1.33333,0,0,1.33333,-47.5939,-79.3109)">
        <text x="163.68px" y="87.12px" style="font-family:'ArialMT', 'Arial', sans-serif;font-size:10px;">δ</text>
        <text x="169.2px" y="87.12px" style="font-family:'ArialMT', 'Arial', sans-serif;font-size:10px;">+</text>
        <text x="175.2px" y="89.76px" style="font-family:'ArialMT', 'Arial', sans-serif;font-size:6px;">2</text>
    </g>
    <g transform="matrix(1.33333,0,0,1.33333,-47.5939,-79.3109)">
        <text x="38.64px" y="130.08px" style="font-family:'ArialMT', 'Arial', sans-serif;font-size:10px;">δ</text>
        <text x="44.16px" y="130.08px" style="font-family:'ArialMT', 'Arial', sans-serif;font-size:10px;">+</text>
        <text x="50.16px" y="132.72px" style="font-family:'ArialMT', 'Arial', sans-serif;font-size:6px;">1</text>
        <text x="56.038px" y="130.08px" style="font-family:'ArialMT', 'Arial', sans-serif;font-size:10px;">&gt;</text>
        <text x="63.6px" y="130.08px" style="font-family:'ArialMT', 'Arial', sans-serif;font-size:10px;">δ</text>
        <text x="69.143px" y="130.08px" style="font-family:'ArialMT', 'Arial', sans-serif;font-size:10px;">+</text>
        <text x="75.143px" y="132.72px" style="font-family:'ArialMT', 'Arial', sans-serif;font-size:6px;">2</text>
    </g>
    <g transform="matrix(1.33333,0,0,1.33333,-47.5939,-79.3109)">
        <text x="205.2px" y="79.44px" style="font-family:'ArialMT', 'Arial', sans-serif;font-size:10px;">NaOH</text>
    </g>
    <g transform="matrix(1.33333,0,0,1.33333,-47.5939,-79.3109)">
        <text x="122.88px" y="178.08px" style="font-family:'ArialMT', 'Arial', sans-serif;font-size:10px;">O</text>
        <text x="130.8px" y="171.12px" style="font-family:'ArialMT', 'Arial', sans-serif;font-size:8px;">–</text>
    </g>
    <g transform="matrix(1.33333,0,0,1.33333,-47.5939,-79.3109)">
        <text x="105.84px" y="207.84px" style="font-family:'ArialMT', 'Arial', sans-serif;font-size:10px;">C</text>
    </g>
    <g transform="matrix(1.33333,0,0,1.33333,-47.5939,-79.3109)">
        <text x="94.32px" y="207.84px" style="font-family:'ArialMT', 'Arial', sans-serif;font-size:10px;">H</text>
        <text x="101.52px" y="210.48px" style="font-family:'ArialMT', 'Arial', sans-serif;font-size:8px;">2</text>
    </g>
    <g transform="matrix(1.33333,0,0,1.33333,-47.5939,-79.3109)">
        <text x="140.16px" y="207.84px" style="font-family:'ArialMT', 'Arial', sans-serif;font-size:10px;">CH</text>
        <text x="154.56px" y="210.48px" style="font-family:'ArialMT', 'Arial', sans-serif;font-size:8px;">3</text>
    </g>
    <g transform="matrix(1.33333,0,0,1.33333,-47.5939,-79.3109)">
        <text x="244.08px" y="177.12px" style="font-family:'ArialMT', 'Arial', sans-serif;font-size:10px;">O</text>
    </g>
    <g transform="matrix(1.33333,0,0,1.33333,-47.5939,-79.3109)">
        <text x="227.04px" y="206.88px" style="font-family:'ArialMT', 'Arial', sans-serif;font-size:10px;">C</text>
    </g>
    <g transform="matrix(1.33333,0,0,1.33333,-47.5939,-79.3109)">
        <text x="215.52px" y="206.88px" style="font-family:'ArialMT', 'Arial', sans-serif;font-size:10px;">H</text>
        <text x="222.729px" y="209.52px" style="font-family:'ArialMT', 'Arial', sans-serif;font-size:8px;">2</text>
        <text x="234.24px" y="199.92px" style="font-family:'ArialMT', 'Arial', sans-serif;font-size:8px;">–</text>
    </g>
    <g transform="matrix(1.33333,0,0,1.33333,-47.5939,-79.3109)">
        <text x="261.36px" y="206.88px" style="font-family:'ArialMT', 'Arial', sans-serif;font-size:10px;">CH</text>
        <text x="275.76px" y="209.52px" style="font-family:'ArialMT', 'Arial', sans-serif;font-size:8px;">3</text>
    </g>
    <g transform="matrix(1.33333,0,0,1.33333,-47.5939,-79.3109)">
        <text x="299.28px" y="197.52px" style="font-family:'ArialMT', 'Arial', sans-serif;font-size:18px;">+</text>
    </g>
    <g transform="matrix(1.33333,0,0,1.33333,-47.5939,-79.3109)">
        <text x="462.48px" y="176.4px" style="font-family:'ArialMT', 'Arial', sans-serif;font-size:10px;">O</text>
    </g>
    <g transform="matrix(1.33333,0,0,1.33333,-47.5939,-79.3109)">
        <text x="445.44px" y="206.16px" style="font-family:'ArialMT', 'Arial', sans-serif;font-size:10px;">C</text>
    </g>
    <g transform="matrix(1.33333,0,0,1.33333,-47.5939,-79.3109)">
        <text x="433.92px" y="206.16px" style="font-family:'ArialMT', 'Arial', sans-serif;font-size:10px;">H</text>
        <text x="441.12px" y="208.8px" style="font-family:'ArialMT', 'Arial', sans-serif;font-size:8px;">3</text>
    </g>
    <g transform="matrix(1.33333,0,0,1.33333,-47.5939,-79.3109)">
        <text x="357.84px" y="200.4px" style="font-family:'ArialMT', 'Arial', sans-serif;font-size:10px;">CH</text>
        <text x="372.24px" y="193.44px" style="font-family:'ArialMT', 'Arial', sans-serif;font-size:8px;">+</text>
    </g>
    <g transform="matrix(1.33333,0,0,1.33333,-47.5939,-79.3109)">
        <text x="357.6px" y="180.48px" style="font-family:'ArialMT', 'Arial', sans-serif;font-size:10px;">O</text>
        <text x="365.52px" y="173.52px" style="font-family:'ArialMT', 'Arial', sans-serif;font-size:8px;">–</text>
    </g>
    <g transform="matrix(1.33333,0,0,1.33333,-47.5939,-79.3109)">
        <text x="340.56px" y="210.24px" style="font-family:'ArialMT', 'Arial', sans-serif;font-size:10px;">C</text>
    </g>
    <g transform="matrix(1.33333,0,0,1.33333,-47.5939,-79.3109)">
        <text x="329.04px" y="210.24px" style="font-family:'ArialMT', 'Arial', sans-serif;font-size:10px;">H</text>
        <text x="336.24px" y="212.88px" style="font-family:'ArialMT', 'Arial', sans-serif;font-size:8px;">3</text>
    </g>
    <g transform="matrix(0,-1.33333,-1.33333,0,995.126,338.449)">
        <path d="M119.4,655.32L134.04,655.32" style="fill:none;fill-rule:nonzero;stroke:black;stroke-width:0.48px;"/>
    </g>
    <g transform="matrix(-1.1546,0.666846,0.666846,1.1546,-179.369,-642.871)">
        <path d="M113.062,645.54L127.058,645.54" style="fill:none;fill-rule:nonzero;stroke:black;stroke-width:0.48px;"/>
    </g>
    <g transform="matrix(-1.15471,0.666647,0.666647,1.15471,-176.117,-637.288)">
        <path d="M112.97,643.115L128.35,643.115" style="fill:none;fill-rule:nonzero;stroke:black;stroke-width:0.48px;"/>
    </g>
    <g transform="matrix(1.15451,0.666991,0.666991,-1.15451,-453.623,839.335)">
        <path d="M125.754,644.395L140.166,644.395" style="fill:none;fill-rule:nonzero;stroke:black;stroke-width:0.48px;"/>
    </g>
    <g transform="matrix(1.33333,0,0,1.33333,-47.5939,-698.831)">
        <path d="M167.76,653.28L201.84,653.28" style="fill:none;fill-rule:nonzero;stroke:black;stroke-width:0.72px;"/>
    </g>
    <g transform="matrix(1.2958,0.314133,0.314133,-1.2958,-245.384,956.569)">
        <path d="M193.579,654.213L201.729,654.213L194.484,650.481L195.431,652.686L193.579,654.213Z" style="stroke:black;stroke-width:0.72px;"/>
    </g>
    <g transform="matrix(-1.2958,0.314133,0.314133,1.2958,198.664,-728.254)">
        <path d="M167.419,652.347L175.569,652.347L168.324,656.079L169.271,653.874L167.419,652.347Z" style="stroke:black;stroke-width:0.72px;"/>
    </g>
    <g transform="matrix(0,-1.33333,-1.33333,0,1159.61,500.369)">
        <path d="M241.8,656.28L256.44,656.28" style="fill:none;fill-rule:nonzero;stroke:black;stroke-width:0.48px;"/>
    </g>
    <g transform="matrix(0,-1.33333,-1.33333,0,1156.41,497.169)">
        <path d="M239.4,656.28L254.04,656.28" style="fill:none;fill-rule:nonzero;stroke:black;stroke-width:0.48px;"/>
    </g>
    <g transform="matrix(-1.15469,0.666693,0.666693,1.15469,127.746,-727.828)">
        <path d="M238.87,646.535L248.57,646.535" style="fill:none;fill-rule:nonzero;stroke:black;stroke-width:0.48px;"/>
    </g>
    <g transform="matrix(1.15451,0.666991,0.666991,-1.15451,-432.591,758.324)">
        <path d="M246.954,645.355L261.366,645.355" style="fill:none;fill-rule:nonzero;stroke:black;stroke-width:0.48px;"/>
    </g>
    <g transform="matrix(1.33333,0,0,1.33333,-47.5939,-695.951)">
        <path d="M88.8,678L96,678L96,677.52L90.24,677.52L90.24,626.88L96,626.88L96,626.4L88.8,626.4L88.8,678Z" style="stroke:black;stroke-width:0.02px;"/>
    </g>
    <g transform="matrix(1.33333,0,0,1.33333,-47.5939,-695.951)">
        <path d="M285.84,678L278.64,678L278.64,677.52L284.4,677.52L284.4,626.88L278.64,626.88L278.64,626.4L285.84,626.4L285.84,678Z" style="stroke:black;stroke-width:0.02px;"/>
    </g>
    <g transform="matrix(1.33333,0,0,1.33333,-47.5939,-696.271)">
        <path d="M40.56,652.32L74.64,652.32" style="fill:none;fill-rule:nonzero;stroke:black;stroke-width:0.72px;"/>
    </g>
    <g transform="matrix(1.2958,0.314133,0.314133,-1.2958,-249.856,996.562)">
        <path d="M66.379,653.253L74.529,653.253L67.284,649.521L68.231,651.726L66.379,653.253Z" style="stroke:black;stroke-width:0.72px;"/>
    </g>
    <g transform="matrix(0,-1.33333,-1.33333,0,1450.17,789.009)">
        <path d="M459,657L473.64,657" style="fill:none;fill-rule:nonzero;stroke:black;stroke-width:0.48px;"/>
    </g>
    <g transform="matrix(0,-1.33333,-1.33333,0,1447.8,784.976)">
        <path d="M457.225,657.625L470.615,657.625" style="fill:none;fill-rule:nonzero;stroke:black;stroke-width:0.48px;"/>
    </g>
    <g transform="matrix(-1.15485,0.666401,0.666401,1.15485,666.371,-870.663)">
        <path d="M452.617,646.01L467.303,646.01" style="fill:none;fill-rule:nonzero;stroke:black;stroke-width:0.48px;"/>
    </g>
    <g transform="matrix(1.33333,0,0,1.33333,-47.5939,-699.471)">
        <path d="M392.16,653.52L426.24,653.52" style="fill:none;fill-rule:nonzero;stroke:black;stroke-width:0.72px;"/>
    </g>
    <g transform="matrix(1.2958,0.314133,0.314133,-1.2958,-237.037,886.068)">
        <path d="M417.979,654.453L426.129,654.453L418.884,650.721L419.831,652.926L417.979,654.453Z" style="stroke:black;stroke-width:0.72px;"/>
    </g>
    <g transform="matrix(-1.2958,0.314133,0.314133,1.2958,788.566,-799.377)">
        <path d="M391.819,652.587L399.969,652.587L392.724,656.319L393.671,654.114L391.819,652.587Z" style="stroke:black;stroke-width:0.72px;"/>
    </g>
    <g transform="matrix(0,-1.33333,-1.33333,0,1308.25,651.249)">
        <path d="M356.64,655.44L366.24,655.44" style="fill:none;fill-rule:nonzero;stroke:black;stroke-width:0.48px;"/>
    </g>
    <g transform="matrix(-1.15477,0.666542,0.666542,1.15477,403.213,-785.825)">
        <path d="M348.089,640.615L357.511,640.615" style="fill:none;fill-rule:nonzero;stroke:black;stroke-width:0.48px;"/>
    </g>
    <g transform="matrix(1.33333,0,0,1.33333,-47.5939,-696.591)">
        <path d="M322.8,678.24L330,678.24L330,677.76L324.24,677.76L324.24,627.12L330,627.12L330,626.64L322.8,626.64L322.8,678.24Z" style="stroke:black;stroke-width:0.02px;"/>
    </g>
    <g transform="matrix(1.33333,0,0,1.33333,-47.5939,-696.591)">
        <path d="M479.52,678.24L472.08,678.24L472.08,677.76L478.08,677.76L478.08,627.12L472.08,627.12L472.08,626.64L479.52,626.64L479.52,678.24Z" style="stroke:black;stroke-width:0.02px;"/>
    </g>
    <g transform="matrix(1.33333,0,0,1.33333,-47.5939,-594.831)">
        <path d="M361.2,592.8L359.28,596.4L357.36,599.76L355.2,603.12L353.04,606.24L350.4,609.36L345.12,615.12L342.24,617.76L336,622.56L332.64,624.72L329.28,626.64L322.08,630L318.48,631.44L310.8,633.84L302.64,635.28L294.48,635.76L289.68,635.76L286.08,635.52L282.48,635.04L275.28,633.6L271.92,632.64L265.2,630.24L261.84,628.8L258.72,627.36L255.84,625.44L252.72,623.76L249.84,621.84L246.96,619.68L244.32,617.52L241.92,615.12L239.28,612.72L236.88,610.08L234.72,607.44L232.56,604.56L231.12,602.4" style="fill:none;fill-rule:nonzero;stroke:black;stroke-width:0.48px;"/>
    </g>
    <g transform="matrix(0.314133,-1.2958,-1.2958,-0.314133,1136.41,863.785)">
        <path d="M354.789,630.051L362.939,630.051L355.807,634.002L356.606,631.726L354.789,630.051Z" style="stroke:black;stroke-width:0.48px;"/>
    </g>
    <g transform="matrix(1.33333,0,0,1.33333,-47.5939,-694.351)">
        <path d="M490.56,651.6L524.64,651.6" style="fill:none;fill-rule:nonzero;stroke:black;stroke-width:0.72px;"/>
    </g>
    <g transform="matrix(1.2958,0.314133,0.314133,-1.2958,-232.74,855.229)">
        <path d="M516.379,652.533L524.529,652.533L517.284,648.801L518.231,651.006L516.379,652.533Z" style="stroke:black;stroke-width:0.72px;"/>
    </g>
    <g transform="matrix(1.33333,0,0,1.33333,-47.5939,-398.031)">
        <path d="M39.84,540.48L73.92,540.48" style="fill:none;fill-rule:nonzero;stroke:black;stroke-width:0.72px;"/>
    </g>
    <g transform="matrix(1.2958,0.314133,0.314133,-1.2958,-214.751,1000.99)">
        <path d="M65.659,541.413L73.809,541.413L66.564,537.681L67.511,539.886L65.659,541.413Z" style="stroke:black;stroke-width:0.72px;"/>
    </g>
</svg>
