<?xml version="1.0" encoding="UTF-8" standalone="no"?>
<!DOCTYPE svg PUBLIC "-//W3C//DTD SVG 1.1//EN" "http://www.w3.org/Graphics/SVG/1.1/DTD/svg11.dtd">
<svg width="100%" height="100%" viewBox="0 0 665 220" version="1.1" xmlns="http://www.w3.org/2000/svg" xmlns:xlink="http://www.w3.org/1999/xlink" xml:space="preserve" xmlns:serif="http://www.serif.com/" style="fill-rule:evenodd;clip-rule:evenodd;stroke-linecap:round;stroke-linejoin:round;stroke-miterlimit:10;">
    <g transform="matrix(1.33333,0,0,1.33333,-50.8578,-88.7497)">
        <text x="119.76px" y="78.96px" style="font-family:'ArialMT', 'Arial', sans-serif;font-size:10px;">O</text>
    </g>
    <g transform="matrix(1.33333,0,0,1.33333,-50.8578,-88.7497)">
        <text x="51.12px" y="111.36px" style="font-family:'ArialMT', 'Arial', sans-serif;font-size:10px;">C</text>
    </g>
    <g transform="matrix(1.33333,0,0,1.33333,-50.8578,-88.7497)">
        <text x="39.6px" y="111.36px" style="font-family:'ArialMT', 'Arial', sans-serif;font-size:10px;">H</text>
        <text x="46.8px" y="114px" style="font-family:'ArialMT', 'Arial', sans-serif;font-size:8px;">3</text>
    </g>
    <g transform="matrix(1.33333,0,0,1.33333,-50.8578,-88.7497)">
        <text x="80.4px" y="84.72px" style="font-family:'ArialMT', 'Arial', sans-serif;font-size:10px;">O</text>
    </g>
    <g transform="matrix(0.327082,1.29259,-1.29259,0.327082,-50.8578,-88.7497)">
        <text x="91.348px" y="-59.871px" style="font-family:'ArialMT', 'Arial', sans-serif;font-size:10px;">:</text>
    </g>
    <g transform="matrix(1.33333,0,0,1.33333,-50.8578,-88.7497)">
        <text x="228.48px" y="118.08px" style="font-family:'ArialMT', 'Arial', sans-serif;font-size:10px;">C</text>
    </g>
    <g transform="matrix(1.33333,0,0,1.33333,-50.8578,-88.7497)">
        <text x="216.96px" y="118.08px" style="font-family:'ArialMT', 'Arial', sans-serif;font-size:10px;">H</text>
        <text x="224.16px" y="120.72px" style="font-family:'ArialMT', 'Arial', sans-serif;font-size:8px;">3</text>
    </g>
    <g transform="matrix(1.33333,0,0,1.33333,-50.8578,-88.7497)">
        <text x="279.84px" y="108px" style="font-family:'ArialMT', 'Arial', sans-serif;font-size:10px;">O</text>
        <text x="287.76px" y="101.04px" style="font-family:'ArialMT', 'Arial', sans-serif;font-size:8px;">+</text>
        <text x="304.08px" y="114px" style="font-family:'ArialMT', 'Arial', sans-serif;font-size:18px;"><tspan x="304.08px " y="114px ">+</tspan></text>
    </g>
    <g transform="matrix(1.33333,0,0,1.33333,-50.8578,-88.7497)">
        <text x="341.28px" y="78.24px" style="font-family:'ArialMT', 'Arial', sans-serif;font-size:10px;">O</text>
        <text x="349.2px" y="71.28px" style="font-family:'ArialMT', 'Arial', sans-serif;font-size:8px;">–</text>
    </g>
    <g transform="matrix(1.33333,0,0,1.33333,-50.8578,-88.7497)">
        <text x="449.04px" y="77.76px" style="font-family:'ArialMT', 'Arial', sans-serif;font-size:10px;">O</text>
    </g>
    <g transform="matrix(1.33333,0,0,1.33333,-50.8578,-88.7497)">
        <text x="228.48px" y="209.28px" style="font-family:'ArialMT', 'Arial', sans-serif;font-size:10px;">C</text>
    </g>
    <g transform="matrix(1.33333,0,0,1.33333,-50.8578,-88.7497)">
        <text x="216.96px" y="209.28px" style="font-family:'ArialMT', 'Arial', sans-serif;font-size:10px;">H</text>
        <text x="224.16px" y="211.92px" style="font-family:'ArialMT', 'Arial', sans-serif;font-size:8px;">3</text>
    </g>
    <g transform="matrix(1.33333,0,0,1.33333,-50.8578,-88.7497)">
        <text x="280.08px" y="219.12px" style="font-family:'ArialMT', 'Arial', sans-serif;font-size:10px;">Cl</text>
    </g>
    <g transform="matrix(1.33333,0,0,1.33333,-50.8578,-88.7497)">
        <text x="262.56px" y="189.36px" style="font-family:'ArialMT', 'Arial', sans-serif;font-size:10px;">O</text>
    </g>
    <g transform="matrix(1.33333,0,0,1.33333,-50.8578,-88.7497)">
        <text x="297.84px" y="206.88px" style="font-family:'ArialMT', 'Arial', sans-serif;font-size:10px;">;</text>
    </g>
    <g transform="matrix(1.33333,0,0,1.33333,-50.8578,-88.7497)">
        <text x="325.92px" y="209.28px" style="font-family:'ArialMT', 'Arial', sans-serif;font-size:10px;">C</text>
    </g>
    <g transform="matrix(1.33333,0,0,1.33333,-50.8578,-88.7497)">
        <text x="314.4px" y="209.28px" style="font-family:'ArialMT', 'Arial', sans-serif;font-size:10px;">H</text>
        <text x="321.6px" y="211.92px" style="font-family:'ArialMT', 'Arial', sans-serif;font-size:8px;">3</text>
    </g>
    <g transform="matrix(1.33333,0,0,1.33333,-50.8578,-88.7497)">
        <text x="360px" y="189.36px" style="font-family:'ArialMT', 'Arial', sans-serif;font-size:10px;">O</text>
    </g>
    <g transform="matrix(1.33333,0,0,1.33333,-50.8578,-88.7497)">
        <text x="394.8px" y="229.2px" style="font-family:'ArialMT', 'Arial', sans-serif;font-size:10px;">N</text>
    </g>
    <g transform="matrix(1.33333,0,0,1.33333,-50.8578,-88.7497)">
        <text x="412.56px" y="208.08px" style="font-family:'ArialMT', 'Arial', sans-serif;font-size:10px;">;</text>
    </g>
    <g transform="matrix(1.33333,0,0,1.33333,-50.8578,-88.7497)">
        <text x="443.52px" y="209.76px" style="font-family:'ArialMT', 'Arial', sans-serif;font-size:10px;">C</text>
    </g>
    <g transform="matrix(1.33333,0,0,1.33333,-50.8578,-88.7497)">
        <text x="432px" y="209.76px" style="font-family:'ArialMT', 'Arial', sans-serif;font-size:10px;">H</text>
        <text x="439.2px" y="212.4px" style="font-family:'ArialMT', 'Arial', sans-serif;font-size:8px;">3</text>
    </g>
    <g transform="matrix(1.33333,0,0,1.33333,-50.8578,-88.7497)">
        <text x="494.88px" y="219.6px" style="font-family:'ArialMT', 'Arial', sans-serif;font-size:10px;">O</text>
    </g>
    <g transform="matrix(1.33333,0,0,1.33333,-50.8578,-88.7497)">
        <text x="512.4px" y="209.76px" style="font-family:'ArialMT', 'Arial', sans-serif;font-size:10px;">CH</text>
        <text x="526.8px" y="212.4px" style="font-family:'ArialMT', 'Arial', sans-serif;font-size:8px;">3</text>
    </g>
    <g transform="matrix(1.33333,0,0,1.33333,-50.8578,-88.7497)">
        <text x="477.6px" y="189.84px" style="font-family:'ArialMT', 'Arial', sans-serif;font-size:10px;">O</text>
    </g>
    <g transform="matrix(-1.07962,0.782437,0.782437,1.07962,-352.031,-845.183)">
        <path d="M105.585,741.245L125.505,741.245" style="fill:none;fill-rule:nonzero;stroke:black;stroke-width:0.72px;"/>
    </g>
    <g transform="matrix(-0.410979,-1.26841,-1.26841,0.410979,1062.75,-92.2068)">
        <path d="M100.59,725.925L120.51,725.925" style="fill:none;fill-rule:nonzero;stroke:black;stroke-width:0.72px;"/>
    </g>
    <g transform="matrix(-1.0782,-0.784388,-0.784388,1.0782,848.069,-650.413)">
        <path d="M121.704,741.23L141.626,741.23" style="fill:none;fill-rule:nonzero;stroke:black;stroke-width:0.72px;"/>
    </g>
    <g transform="matrix(-1.33333,-0.00133802,-0.00133802,1.33333,279.661,-876.531)">
        <path d="M113.62,716.44L133.55,716.44" style="fill:none;fill-rule:nonzero;stroke:black;stroke-width:0.72px;"/>
    </g>
    <g transform="matrix(0.412993,-1.26776,-1.26776,-0.412993,995.16,538.955)">
        <path d="M126.675,725.9L146.595,725.9" style="fill:none;fill-rule:nonzero;stroke:black;stroke-width:0.72px;"/>
    </g>
    <g transform="matrix(0.000908884,-1.33333,-1.33333,-0.000908884,1121.99,195.656)">
        <path d="M117.96,754.425L132.63,754.425" style="fill:none;fill-rule:nonzero;stroke:black;stroke-width:0.72px;"/>
    </g>
    <g transform="matrix(0.000908884,-1.33333,-1.33333,-0.000908884,1117.51,191.176)">
        <path d="M114.6,754.425L129.27,754.425" style="fill:none;fill-rule:nonzero;stroke:black;stroke-width:0.72px;"/>
    </g>
    <g transform="matrix(-1.26776,-0.412993,-0.412993,1.26776,509.064,-846.581)">
        <path d="M88.05,738.485L107.97,738.485" style="fill:none;fill-rule:nonzero;stroke:black;stroke-width:0.72px;"/>
    </g>
    <g transform="matrix(-0.991358,0.89162,0.89162,0.991358,-517.504,-746.97)">
        <path d="M71.176,734.91L91.094,734.91" style="fill:none;fill-rule:nonzero;stroke:black;stroke-width:0.72px;"/>
    </g>
    <g transform="matrix(-1.26769,-0.413206,-0.413206,1.26769,424.013,-839.03)">
        <path d="M58.906,730.605L74.104,730.605" style="fill:none;fill-rule:nonzero;stroke:black;stroke-width:0.72px;"/>
    </g>
    <g transform="matrix(-0.276081,-1.30444,-1.30444,0.276081,1068.87,-55.8732)">
        <path d="M81.504,748.96L95.896,748.96" style="fill:none;fill-rule:nonzero;stroke:black;stroke-width:0.72px;"/>
    </g>
    <g transform="matrix(-0.276237,-1.3044,-1.3044,0.276237,1062.99,-59.8189)">
        <path d="M77.781,748.61L92.889,748.61" style="fill:none;fill-rule:nonzero;stroke:black;stroke-width:0.72px;"/>
    </g>
    <g transform="matrix(1.33333,0,0,1.33333,-50.8578,-936.11)">
        <path d="M98.16,749.04L97.2,747.36L96.48,745.44L96,743.52L95.76,741.6L96,740.4L96,739.2L96.24,738L97.2,735.6L97.68,734.64L99.12,732.72L100.08,732L100.8,731.28L102.72,729.84L105.12,728.88L106.08,728.64L107.28,728.4L108,728.4" style="fill:none;fill-rule:nonzero;stroke:black;stroke-width:0.48px;"/>
    </g>
    <g transform="matrix(1.33333,0,0,1.33333,-50.8578,-958.51)">
        <path d="M99.84,745.2L108,745.2L100.56,749.04L101.76,746.64L99.84,745.2Z" style="stroke:black;stroke-width:0.48px;"/>
    </g>
    <g transform="matrix(1.33333,0,0,1.33333,-50.8578,-966.19)">
        <path d="M83.04,756.96L81.6,757.2L79.2,756.72L77.28,755.76L76.56,755.04L75.12,753.12L74.64,752.16L74.4,750.96L74.4,748.56L75.36,746.16L76.08,745.2L76.8,744.48L77.76,743.76L78.96,743.04L79.44,743.04L80.16,742.8" style="fill:none;fill-rule:nonzero;stroke:black;stroke-width:0.48px;"/>
    </g>
    <g transform="matrix(1.32817,-0.117192,-0.117192,-1.32817,36.7684,1039.22)">
        <path d="M74.727,742.686L82.919,742.686L75.543,746.469L76.787,744.191L74.727,742.686Z" style="stroke:black;stroke-width:0.48px;"/>
    </g>
    <g transform="matrix(1.33333,0,0,1.33333,-50.8578,-988.27)">
        <path d="M129.12,749.52L130.56,749.76L131.76,750.24L132.72,750.96L133.92,751.68L134.88,752.64L135.6,753.84L136.56,756.24L136.8,757.68L136.8,759.36L136.56,760.56L135.12,763.44L134.4,764.4L133.68,765.12L132.72,765.84L131.76,766.32L130.8,766.56L129.6,767.04L126.72,767.04" style="fill:none;fill-rule:nonzero;stroke:black;stroke-width:0.48px;"/>
    </g>
    <g transform="matrix(-1.31304,-0.231714,-0.231714,1.31304,478.79,-958.534)">
        <path d="M129.37,762.747L137.656,762.747L130.399,766.585L131.525,764.346L129.37,762.747Z" style="stroke:black;stroke-width:0.48px;"/>
    </g>
    <g transform="matrix(1.33333,0,0,1.33333,-50.8578,-922.03)">
        <path d="M163.92,733.44L198,733.44" style="fill:none;fill-rule:nonzero;stroke:black;stroke-width:0.72px;"/>
    </g>
    <g transform="matrix(1.33333,0,0,1.33333,-50.8578,-929.71)">
        <path d="M163.92,736.32L198,736.32" style="fill:none;fill-rule:nonzero;stroke:black;stroke-width:0.72px;"/>
    </g>
    <g transform="matrix(1.33333,0,0,1.33333,-50.8578,-925.87)">
        <path d="M193.44,731.28L201.36,734.88L193.44,738.48" style="fill:none;fill-rule:nonzero;stroke:black;stroke-width:0.72px;"/>
    </g>
    <g transform="matrix(-1.15475,-0.666584,-0.666584,1.15475,1034.78,-599.55)">
        <path d="M235.654,721.58L250.376,721.58" style="fill:none;fill-rule:nonzero;stroke:black;stroke-width:0.72px;"/>
    </g>
    <g transform="matrix(-1.15468,0.666702,0.666702,1.15468,109.141,-936.744)">
        <path d="M248.056,722.88L267.974,722.88" style="fill:none;fill-rule:nonzero;stroke:black;stroke-width:0.72px;"/>
    </g>
    <g transform="matrix(1.15457,-0.666895,-0.666895,-1.15457,485.666,1084.96)">
        <path d="M265.692,731.395L279.828,731.395" style="fill:none;fill-rule:nonzero;stroke:black;stroke-width:0.72px;"/>
    </g>
    <g transform="matrix(1.15458,-0.666871,-0.666871,-1.15458,487.758,1083.8)">
        <path d="M263.882,734.79L279.958,734.79" style="fill:none;fill-rule:nonzero;stroke:black;stroke-width:0.72px;"/>
    </g>
    <g transform="matrix(1.1547,-0.666667,-0.666667,-1.1547,484.179,1087)">
        <path d="M267.275,728.85L282.875,728.85" style="fill:none;fill-rule:nonzero;stroke:black;stroke-width:0.72px;"/>
    </g>
    <g transform="matrix(-1.07962,0.782437,0.782437,1.07962,181.922,-1020.25)">
        <path d="M327.105,741.965L347.025,741.965" style="fill:none;fill-rule:nonzero;stroke:black;stroke-width:0.72px;"/>
    </g>
    <g transform="matrix(-1.0792,0.783005,0.783005,1.0792,188.257,-1015.12)">
        <path d="M331.59,739.245L346.49,739.245" style="fill:none;fill-rule:nonzero;stroke:black;stroke-width:0.72px;"/>
    </g>
    <g transform="matrix(-0.410979,-1.26841,-1.26841,0.410979,1450.06,187.516)">
        <path d="M322.11,726.645L342.03,726.645" style="fill:none;fill-rule:nonzero;stroke:black;stroke-width:0.72px;"/>
    </g>
    <g transform="matrix(-1.0782,-0.784388,-0.784388,1.0782,1382.84,-478.392)">
        <path d="M343.224,741.95L363.146,741.95" style="fill:none;fill-rule:nonzero;stroke:black;stroke-width:0.72px;"/>
    </g>
    <g transform="matrix(-1.33333,-0.00133802,-0.00133802,1.33333,870.382,-878.154)">
        <path d="M335.14,717.16L355.07,717.16" style="fill:none;fill-rule:nonzero;stroke:black;stroke-width:0.72px;"/>
    </g>
    <g transform="matrix(0.412993,-1.26776,-1.26776,-0.412993,1199.95,819.127)">
        <path d="M348.195,726.62L368.115,726.62" style="fill:none;fill-rule:nonzero;stroke:black;stroke-width:0.72px;"/>
    </g>
    <g transform="matrix(0.000908884,-1.33333,-1.33333,-0.000908884,1415.87,487.817)">
        <path d="M337.8,755.145L352.47,755.145" style="fill:none;fill-rule:nonzero;stroke:black;stroke-width:0.72px;"/>
    </g>
    <g transform="matrix(1.33333,0,0,1.33333,-50.8578,-920.75)">
        <path d="M381.6,732.96L415.68,732.96" style="fill:none;fill-rule:nonzero;stroke:black;stroke-width:0.72px;"/>
    </g>
    <g transform="matrix(1.33333,0,0,1.33333,-50.8578,-928.43)">
        <path d="M381.6,735.84L415.68,735.84" style="fill:none;fill-rule:nonzero;stroke:black;stroke-width:0.72px;"/>
    </g>
    <g transform="matrix(1.33333,0,0,1.33333,-50.8578,-924.59)">
        <path d="M411.12,730.8L419.04,734.4L411.12,738" style="fill:none;fill-rule:nonzero;stroke:black;stroke-width:0.72px;"/>
    </g>
    <g transform="matrix(-1.07962,0.782437,0.782437,1.07962,441.566,-1105.72)">
        <path d="M434.865,742.445L454.785,742.445" style="fill:none;fill-rule:nonzero;stroke:black;stroke-width:0.72px;"/>
    </g>
    <g transform="matrix(-0.410979,-1.26841,-1.26841,0.410979,1638.64,323.363)">
        <path d="M429.87,727.125L449.79,727.125" style="fill:none;fill-rule:nonzero;stroke:black;stroke-width:0.72px;"/>
    </g>
    <g transform="matrix(-1.0782,-0.784388,-0.784388,1.0782,1643.08,-395.024)">
        <path d="M450.984,742.43L470.906,742.43" style="fill:none;fill-rule:nonzero;stroke:black;stroke-width:0.72px;"/>
    </g>
    <g transform="matrix(-1.33333,-0.00133802,-0.00133802,1.33333,1157.74,-879.29)">
        <path d="M442.9,717.64L462.83,717.64" style="fill:none;fill-rule:nonzero;stroke:black;stroke-width:0.72px;"/>
    </g>
    <g transform="matrix(0.412993,-1.26776,-1.26776,-0.412993,1299.73,955.299)">
        <path d="M455.955,727.1L475.875,727.1" style="fill:none;fill-rule:nonzero;stroke:black;stroke-width:0.72px;"/>
    </g>
    <g transform="matrix(0.000908884,-1.33333,-1.33333,-0.000908884,1562.33,633.097)">
        <path d="M447.24,755.625L461.91,755.625" style="fill:none;fill-rule:nonzero;stroke:black;stroke-width:0.72px;"/>
    </g>
    <g transform="matrix(0.000908884,-1.33333,-1.33333,-0.000908884,1557.85,628.617)">
        <path d="M443.88,755.625L458.55,755.625" style="fill:none;fill-rule:nonzero;stroke:black;stroke-width:0.72px;"/>
    </g>
    <g transform="matrix(0,1.33333,1.33333,0,-636.298,-219.15)">
        <path d="M233.88,689.4L266.76,689.4" style="fill:none;fill-rule:nonzero;stroke:black;stroke-width:0.72px;"/>
    </g>
    <g transform="matrix(0,1.33333,1.33333,0,-632.458,-222.99)">
        <path d="M236.76,689.4L269.64,689.4" style="fill:none;fill-rule:nonzero;stroke:black;stroke-width:0.72px;"/>
    </g>
    <g transform="matrix(1.33333,0,0,1.33333,-50.8578,-762.35)">
        <path d="M255.36,669.6L251.76,677.52L248.16,669.6" style="fill:none;fill-rule:nonzero;stroke:black;stroke-width:0.72px;"/>
    </g>
    <g transform="matrix(-1.15485,-0.666401,-0.666401,1.15485,973.851,-372.733)">
        <path d="M235.657,630.37L250.343,630.37" style="fill:none;fill-rule:nonzero;stroke:black;stroke-width:0.72px;"/>
    </g>
    <g transform="matrix(-1.15468,0.666702,0.666702,1.15468,169.87,-709.817)">
        <path d="M248.026,631.68L267.944,631.68" style="fill:none;fill-rule:nonzero;stroke:black;stroke-width:0.72px;"/>
    </g>
    <g transform="matrix(1.15481,0.666483,0.666483,-1.15481,-424.061,738.934)">
        <path d="M265.643,633.05L280.087,633.05" style="fill:none;fill-rule:nonzero;stroke:black;stroke-width:0.72px;"/>
    </g>
    <g transform="matrix(0,-1.33333,-1.33333,0,1165.54,532.85)">
        <path d="M260.94,644.01L275.64,644.01" style="fill:none;fill-rule:nonzero;stroke:black;stroke-width:0.72px;"/>
    </g>
    <g transform="matrix(0,-1.33333,-1.33333,0,1161.06,528.37)">
        <path d="M257.58,644.01L272.28,644.01" style="fill:none;fill-rule:nonzero;stroke:black;stroke-width:0.72px;"/>
    </g>
    <g transform="matrix(-1.15485,-0.666401,-0.666401,1.15485,1216.3,-307.798)">
        <path d="M333.097,630.37L347.783,630.37" style="fill:none;fill-rule:nonzero;stroke:black;stroke-width:0.72px;"/>
    </g>
    <g transform="matrix(-1.15468,0.666702,0.666702,1.15468,412.302,-774.781)">
        <path d="M345.466,631.68L365.384,631.68" style="fill:none;fill-rule:nonzero;stroke:black;stroke-width:0.72px;"/>
    </g>
    <g transform="matrix(1.15468,0.666702,0.666702,-1.15468,-405.421,672.495)">
        <path d="M362.716,631.68L382.634,631.68" style="fill:none;fill-rule:nonzero;stroke:black;stroke-width:0.72px;"/>
    </g>
    <g transform="matrix(0,-1.33333,-1.33333,0,1295.46,662.77)">
        <path d="M358.38,644.01L373.08,644.01" style="fill:none;fill-rule:nonzero;stroke:black;stroke-width:0.72px;"/>
    </g>
    <g transform="matrix(0,-1.33333,-1.33333,0,1290.98,658.29)">
        <path d="M355.02,644.01L369.72,644.01" style="fill:none;fill-rule:nonzero;stroke:black;stroke-width:0.72px;"/>
    </g>
    <g transform="matrix(1.1547,0.666669,0.666669,-1.1547,-397.013,664.126)">
        <path d="M380.33,623.08L394.81,623.08" style="fill:none;fill-rule:nonzero;stroke:black;stroke-width:0.72px;"/>
    </g>
    <g transform="matrix(1.1547,0.666667,0.666667,-1.1547,-398.378,662.215)">
        <path d="M381.935,625.71L397.535,625.71" style="fill:none;fill-rule:nonzero;stroke:black;stroke-width:0.72px;"/>
    </g>
    <g transform="matrix(1.15483,0.666438,0.666438,-1.15483,-394.832,665.487)">
        <path d="M378.527,619.71L394.853,619.71" style="fill:none;fill-rule:nonzero;stroke:black;stroke-width:0.72px;"/>
    </g>
    <g transform="matrix(-1.15485,-0.666401,-0.666401,1.15485,1508.59,-228.235)">
        <path d="M450.697,629.89L465.383,629.89" style="fill:none;fill-rule:nonzero;stroke:black;stroke-width:0.72px;"/>
    </g>
    <g transform="matrix(-1.15468,0.666702,0.666702,1.15468,705.212,-851.991)">
        <path d="M463.066,631.2L482.984,631.2" style="fill:none;fill-rule:nonzero;stroke:black;stroke-width:0.72px;"/>
    </g>
    <g transform="matrix(1.15487,0.666378,0.666378,-1.15487,-385.382,595.856)">
        <path d="M480.702,632.64L494.868,632.64" style="fill:none;fill-rule:nonzero;stroke:black;stroke-width:0.72px;"/>
    </g>
    <g transform="matrix(1.15431,-0.667337,-0.667337,-1.15431,461.263,1259.55)">
        <path d="M503.164,631.24L512.036,631.24" style="fill:none;fill-rule:nonzero;stroke:black;stroke-width:0.72px;"/>
    </g>
    <g transform="matrix(0,-1.33333,-1.33333,0,1451.62,820.21)">
        <path d="M475.98,643.53L490.68,643.53" style="fill:none;fill-rule:nonzero;stroke:black;stroke-width:0.72px;"/>
    </g>
    <g transform="matrix(0,-1.33333,-1.33333,0,1447.14,815.73)">
        <path d="M472.62,643.53L487.32,643.53" style="fill:none;fill-rule:nonzero;stroke:black;stroke-width:0.72px;"/>
    </g>
</svg>
