<?xml version="1.0" encoding="UTF-8" standalone="no"?>
<!DOCTYPE svg PUBLIC "-//W3C//DTD SVG 1.1//EN" "http://www.w3.org/Graphics/SVG/1.1/DTD/svg11.dtd">
<svg width="100%" height="100%" viewBox="0 0 420 120" version="1.1" xmlns="http://www.w3.org/2000/svg" xmlns:xlink="http://www.w3.org/1999/xlink" xml:space="preserve" xmlns:serif="http://www.serif.com/" style="fill-rule:evenodd;clip-rule:evenodd;stroke-linecap:round;stroke-linejoin:round;stroke-miterlimit:10;">
    <g transform="matrix(1.33333,0,0,1.33333,-95.5022,-91.56)">
        <text x="86.4px" y="85.2px" style="font-family:'ArialMT', 'Arial', sans-serif;font-size:10px;">O</text>
    </g>
    <g transform="matrix(1.33333,0,0,1.33333,-95.5022,-91.56)">
        <text x="198.72px" y="109.92px" style="font-family:'ArialMT', 'Arial', sans-serif;font-size:10px;">N</text>
    </g>
    <g transform="matrix(1.33333,0,0,1.33333,-95.5022,-91.56)">
        <text x="279.84px" y="97.44px" style="font-family:'ArialMT', 'Arial', sans-serif;font-size:10px;">C</text>
    </g>
    <g transform="matrix(1.33333,0,0,1.33333,-95.5022,-91.56)">
        <text x="268.32px" y="97.44px" style="font-family:'ArialMT', 'Arial', sans-serif;font-size:10px;">H</text>
        <text x="275.52px" y="100.08px" style="font-family:'ArialMT', 'Arial', sans-serif;font-size:8px;">3</text>
    </g>
    <g transform="matrix(1.33333,0,0,1.33333,-95.5022,-91.56)">
        <text x="331.44px" y="107.28px" style="font-family:'ArialMT', 'Arial', sans-serif;font-size:10px;">Cl</text>
    </g>
    <g transform="matrix(1.33333,0,0,1.33333,-95.5022,-91.56)">
        <text x="313.92px" y="77.52px" style="font-family:'ArialMT', 'Arial', sans-serif;font-size:10px;">O</text>
    </g>
    <g transform="matrix(1.33333,0,0,1.33333,-95.5022,-91.56)">
        <text x="370.32px" y="117.84px" style="font-family:'ArialMT', 'Arial', sans-serif;font-size:10px;">T<tspan x="376.56px " y="117.84px ">M</tspan></text>
    </g>
    <g transform="matrix(1.33333,0,0,1.33333,-95.5022,-91.56)">
        <text x="251.04px" y="102.72px" style="font-family:'ArialMT', 'Arial', sans-serif;font-size:10px;">1)</text>
    </g>
    <g transform="matrix(1.33333,0,0,1.33333,-95.5022,-91.56)">
        <text x="284.4px" y="130.56px" style="font-family:'ArialMT', 'Arial', sans-serif;font-size:10px;">2</text>
        <text x="289.92px" y="130.56px" style="font-family:'ArialMT', 'Arial', sans-serif;font-size:10px;">)</text>
        <text x="296.192px" y="130.56px" style="font-family:'ArialMT', 'Arial', sans-serif;font-size:10px;">H</text>
        <text x="303.392px" y="133.2px" style="font-family:'ArialMT', 'Arial', sans-serif;font-size:6px;">2</text>
        <text x="306.992px" y="130.56px" style="font-family:'ArialMT', 'Arial', sans-serif;font-size:10px;">O</text>
    </g>
    <g transform="matrix(-1.07962,0.782437,0.782437,1.07962,-472.289,-806.834)">
        <path d="M72.225,735.005L92.145,735.005" style="fill:none;fill-rule:nonzero;stroke:black;stroke-width:0.72px;"/>
    </g>
    <g transform="matrix(-0.410979,-1.26841,-1.26841,0.410979,952,-126.447)">
        <path d="M67.23,719.685L87.15,719.685" style="fill:none;fill-rule:nonzero;stroke:black;stroke-width:0.72px;"/>
    </g>
    <g transform="matrix(-1.0782,-0.784388,-0.784388,1.0782,718.081,-664.343)">
        <path d="M88.344,734.99L108.266,734.99" style="fill:none;fill-rule:nonzero;stroke:black;stroke-width:0.72px;"/>
    </g>
    <g transform="matrix(-1.33333,-0.00133802,-0.00133802,1.33333,146.048,-862.745)">
        <path d="M80.26,710.2L100.19,710.2" style="fill:none;fill-rule:nonzero;stroke:black;stroke-width:0.72px;"/>
    </g>
    <g transform="matrix(0.412993,-1.26776,-1.26776,-0.412993,911.902,499.595)">
        <path d="M93.315,719.66L113.235,719.66" style="fill:none;fill-rule:nonzero;stroke:black;stroke-width:0.72px;"/>
    </g>
    <g transform="matrix(0.000908884,-1.33333,-1.33333,-0.000908884,1024.57,156.68)">
        <path d="M84.6,748.185L99.27,748.185" style="fill:none;fill-rule:nonzero;stroke:black;stroke-width:0.72px;"/>
    </g>
    <g transform="matrix(0.000908884,-1.33333,-1.33333,-0.000908884,1020.1,152.2)">
        <path d="M81.24,748.185L95.91,748.185" style="fill:none;fill-rule:nonzero;stroke:black;stroke-width:0.72px;"/>
    </g>
    <g transform="matrix(1.33333,0,0,1.33333,-95.5022,-906.28)">
        <path d="M127.68,726.48L161.76,726.48" style="fill:none;fill-rule:nonzero;stroke:black;stroke-width:0.72px;"/>
    </g>
    <g transform="matrix(1.2958,0.314133,0.314133,-1.2958,-317.791,954.163)">
        <path d="M153.499,727.413L161.649,727.413L154.404,723.681L155.351,725.886L153.499,727.413Z" style="stroke:black;stroke-width:0.72px;"/>
    </g>
    <g transform="matrix(-1.07962,0.782437,0.782437,1.07962,-182.504,-834.882)">
        <path d="M184.305,710.285L204.225,710.285" style="fill:none;fill-rule:nonzero;stroke:black;stroke-width:0.72px;"/>
    </g>
    <g transform="matrix(-0.410979,-1.26841,-1.26841,0.410979,1116.15,58.8363)">
        <path d="M179.31,694.965L199.23,694.965" style="fill:none;fill-rule:nonzero;stroke:black;stroke-width:0.72px;"/>
    </g>
    <g transform="matrix(-1.0782,-0.784388,-0.784388,1.0782,968.975,-516.816)">
        <path d="M200.424,710.27L220.346,710.27" style="fill:none;fill-rule:nonzero;stroke:black;stroke-width:0.72px;"/>
    </g>
    <g transform="matrix(-1.07804,-0.784601,-0.784601,1.07804,962.189,-511.667)">
        <path d="M200.953,707.555L215.857,707.555" style="fill:none;fill-rule:nonzero;stroke:black;stroke-width:0.72px;"/>
    </g>
    <g transform="matrix(-1.33333,-0.00133802,-0.00133802,1.33333,444.895,-796.676)">
        <path d="M192.34,685.48L212.27,685.48" style="fill:none;fill-rule:nonzero;stroke:black;stroke-width:0.72px;"/>
    </g>
    <g transform="matrix(0.412993,-1.26776,-1.26776,-0.412993,983.715,664.437)">
        <path d="M205.395,694.94L225.315,694.94" style="fill:none;fill-rule:nonzero;stroke:black;stroke-width:0.72px;"/>
    </g>
    <g transform="matrix(1.07823,0.78434,0.78434,-1.07823,-629.743,690.72)">
        <path d="M184.877,743.58L199.123,743.58" style="fill:none;fill-rule:nonzero;stroke:black;stroke-width:0.72px;"/>
    </g>
    <g transform="matrix(-1.07916,0.783066,0.783066,1.07916,-164.67,-929.336)">
        <path d="M205.515,743.545L219.835,743.545" style="fill:none;fill-rule:nonzero;stroke:black;stroke-width:0.72px;"/>
    </g>
    <g transform="matrix(-0.413598,1.26756,1.26756,0.413598,-724.605,-531.834)">
        <path d="M179.369,757.24L199.291,757.24" style="fill:none;fill-rule:nonzero;stroke:black;stroke-width:0.72px;"/>
    </g>
    <g transform="matrix(0.410979,1.26841,1.26841,-0.410979,-857.302,59.3543)">
        <path d="M205.44,757.225L225.36,757.225" style="fill:none;fill-rule:nonzero;stroke:black;stroke-width:0.72px;"/>
    </g>
    <g transform="matrix(-1.33333,-0.00066968,-0.00066968,1.33333,444.678,-1013.41)">
        <path d="M192.42,766.705L212.33,766.705" style="fill:none;fill-rule:nonzero;stroke:black;stroke-width:0.72px;"/>
    </g>
    <g transform="matrix(0.000908884,-1.33333,-1.33333,-0.000908884,1138.71,336.817)">
        <path d="M195,723.465L209.67,723.465" style="fill:none;fill-rule:nonzero;stroke:black;stroke-width:0.72px;"/>
    </g>
    <g transform="matrix(1.33333,0,0,1.33333,-95.5022,-908.84)">
        <path d="M243.6,727.44L355.2,727.44" style="fill:none;fill-rule:nonzero;stroke:black;stroke-width:0.72px;"/>
    </g>
    <g transform="matrix(1.2958,0.314133,0.314133,-1.2958,-310.832,893.361)">
        <path d="M346.939,728.373L355.089,728.373L347.844,724.641L348.791,726.846L346.939,728.373Z" style="stroke:black;stroke-width:0.72px;"/>
    </g>
    <g transform="matrix(-1.15485,-0.666401,-0.666401,1.15485,1131.53,-619.595)">
        <path d="M287.017,742.21L301.703,742.21" style="fill:none;fill-rule:nonzero;stroke:black;stroke-width:0.72px;"/>
    </g>
    <g transform="matrix(-1.15468,0.666702,0.666702,1.15468,178.446,-1025.13)">
        <path d="M299.386,743.52L319.304,743.52" style="fill:none;fill-rule:nonzero;stroke:black;stroke-width:0.72px;"/>
    </g>
    <g transform="matrix(1.15481,0.666483,0.666483,-1.15481,-534.076,681.927)">
        <path d="M317.003,744.89L331.447,744.89" style="fill:none;fill-rule:nonzero;stroke:black;stroke-width:0.72px;"/>
    </g>
    <g transform="matrix(0,-1.33333,-1.33333,0,1338.5,449.4)">
        <path d="M312.3,755.85L327,755.85" style="fill:none;fill-rule:nonzero;stroke:black;stroke-width:0.72px;"/>
    </g>
    <g transform="matrix(0,-1.33333,-1.33333,0,1334.02,444.92)">
        <path d="M308.94,755.85L323.64,755.85" style="fill:none;fill-rule:nonzero;stroke:black;stroke-width:0.72px;"/>
    </g>
</svg>
