<?xml version="1.0" encoding="UTF-8" standalone="no"?>
<!DOCTYPE svg PUBLIC "-//W3C//DTD SVG 1.1//EN" "http://www.w3.org/Graphics/SVG/1.1/DTD/svg11.dtd">
<svg width="100%" height="100%" viewBox="0 0 235 90" version="1.1" xmlns="http://www.w3.org/2000/svg" xmlns:xlink="http://www.w3.org/1999/xlink" xml:space="preserve" xmlns:serif="http://www.serif.com/" style="fill-rule:evenodd;clip-rule:evenodd;stroke-linecap:round;stroke-linejoin:round;stroke-miterlimit:10;">
    <g transform="matrix(1.33333,0,0,1.33333,-93.5822,-56.4065)">
        <text x="86.4px" y="60.72px" style="font-family:'ArialMT', 'Arial', sans-serif;font-size:10px;">O</text>
    </g>
    <g transform="matrix(1.33333,0,0,1.33333,-93.5822,-56.4065)">
        <text x="136.56px" y="71.76px" style="font-family:'ArialMT', 'Arial', sans-serif;font-size:10px;">C</text>
    </g>
    <g transform="matrix(1.33333,0,0,1.33333,-93.5822,-56.4065)">
        <text x="125.04px" y="71.76px" style="font-family:'ArialMT', 'Arial', sans-serif;font-size:10px;">H</text>
        <text x="132.24px" y="74.4px" style="font-family:'ArialMT', 'Arial', sans-serif;font-size:8px;">3</text>
    </g>
    <g transform="matrix(1.33333,0,0,1.33333,-93.5822,-56.4065)">
        <text x="188.16px" y="81.6px" style="font-family:'ArialMT', 'Arial', sans-serif;font-size:10px;">Cl</text>
    </g>
    <g transform="matrix(1.33333,0,0,1.33333,-93.5822,-56.4065)">
        <text x="170.64px" y="51.84px" style="font-family:'ArialMT', 'Arial', sans-serif;font-size:10px;">O</text>
    </g>
    <g transform="matrix(1.33333,0,0,1.33333,-93.5822,-56.4065)">
        <text x="142.56px" y="103.2px" style="font-family:'ArialMT', 'Arial', sans-serif;font-size:10px;">B</text>
        <text x="149.223px" y="103.2px" style="font-family:'ArialMT', 'Arial', sans-serif;font-size:10px;">i</text>
        <text x="151.565px" y="103.2px" style="font-family:'ArialMT', 'Arial', sans-serif;font-size:10px;">C</text>
        <text x="158.708px" y="103.2px" style="font-family:'ArialMT', 'Arial', sans-serif;font-size:10px;">l</text>
        <text x="161.05px" y="105.84px" style="font-family:'ArialMT', 'Arial', sans-serif;font-size:6px;">3</text>
        <text x="164.616px" y="103.2px" style="font-family:'ArialMT', 'Arial', sans-serif;font-size:10px;">;</text>
        <text x="170.934px" y="103.2px" style="font-family:'ArialMT', 'Arial', sans-serif;font-size:10px;">Na<tspan x="183.539px " y="103.2px ">I</tspan></text>
    </g>
    <g transform="matrix(1.33333,0,0,1.33333,-93.5822,-56.4065)">
        <text x="229.44px" y="90.48px" style="font-family:'ArialMT', 'Arial', sans-serif;font-size:10px;">T<tspan x="235.68px " y="90.48px ">M</tspan></text>
    </g>
    <g transform="matrix(-1.07962,0.782437,0.782437,1.07962,-489.523,-830.75)">
        <path d="M72.225,759.485L92.145,759.485" style="fill:none;fill-rule:nonzero;stroke:black;stroke-width:0.72px;"/>
    </g>
    <g transform="matrix(-0.410979,-1.26841,-1.26841,0.410979,984.971,-133.994)">
        <path d="M67.23,744.165L87.15,744.165" style="fill:none;fill-rule:nonzero;stroke:black;stroke-width:0.72px;"/>
    </g>
    <g transform="matrix(-1.0782,-0.784388,-0.784388,1.0782,739.203,-688.224)">
        <path d="M88.344,759.47L108.266,759.47" style="fill:none;fill-rule:nonzero;stroke:black;stroke-width:0.72px;"/>
    </g>
    <g transform="matrix(-1.33333,-0.00133802,-0.00133802,1.33333,148.001,-892.872)">
        <path d="M80.26,734.68L100.19,734.68" style="fill:none;fill-rule:nonzero;stroke:black;stroke-width:0.72px;"/>
    </g>
    <g transform="matrix(0.412993,-1.26776,-1.26776,-0.412993,944.857,512.219)">
        <path d="M93.315,744.14L113.235,744.14" style="fill:none;fill-rule:nonzero;stroke:black;stroke-width:0.72px;"/>
    </g>
    <g transform="matrix(0.000908884,-1.33333,-1.33333,-0.000908884,1059.13,159.216)">
        <path d="M84.6,772.665L99.27,772.665" style="fill:none;fill-rule:nonzero;stroke:black;stroke-width:0.72px;"/>
    </g>
    <g transform="matrix(0.000908884,-1.33333,-1.33333,-0.000908884,1054.66,154.736)">
        <path d="M81.24,772.665L95.91,772.665" style="fill:none;fill-rule:nonzero;stroke:black;stroke-width:0.72px;"/>
    </g>
    <g transform="matrix(1.33333,0,0,1.33333,-93.5822,-946.646)">
        <path d="M124.8,754.8L214.32,754.8" style="fill:none;fill-rule:nonzero;stroke:black;stroke-width:0.72px;"/>
    </g>
    <g transform="matrix(1.2958,0.314133,0.314133,-1.2958,-322.795,971.742)">
        <path d="M206.059,755.733L214.209,755.733L206.964,752.001L207.911,754.206L206.059,755.733Z" style="stroke:black;stroke-width:0.72px;"/>
    </g>
    <g transform="matrix(-1.15485,-0.666401,-0.666401,1.15485,794.056,-743.82)">
        <path d="M143.737,767.89L158.423,767.89" style="fill:none;fill-rule:nonzero;stroke:black;stroke-width:0.72px;"/>
    </g>
    <g transform="matrix(-1.15468,0.666702,0.666702,1.15468,-193.238,-958.342)">
        <path d="M156.106,769.2L176.024,769.2" style="fill:none;fill-rule:nonzero;stroke:black;stroke-width:0.72px;"/>
    </g>
    <g transform="matrix(1.15481,0.666483,0.666483,-1.15481,-574.85,807.989)">
        <path d="M173.723,770.57L188.167,770.57" style="fill:none;fill-rule:nonzero;stroke:black;stroke-width:0.72px;"/>
    </g>
    <g transform="matrix(0,-1.33333,-1.33333,0,1183.62,259.274)">
        <path d="M169.02,781.53L183.72,781.53" style="fill:none;fill-rule:nonzero;stroke:black;stroke-width:0.72px;"/>
    </g>
    <g transform="matrix(0,-1.33333,-1.33333,0,1179.14,254.794)">
        <path d="M165.66,781.53L180.36,781.53" style="fill:none;fill-rule:nonzero;stroke:black;stroke-width:0.72px;"/>
    </g>
</svg>
