<?xml version="1.0" encoding="UTF-8" standalone="no"?>
<!DOCTYPE svg PUBLIC "-//W3C//DTD SVG 1.1//EN" "http://www.w3.org/Graphics/SVG/1.1/DTD/svg11.dtd">
<svg width="100%" height="100%" viewBox="0 0 685 300" version="1.1" xmlns="http://www.w3.org/2000/svg" xmlns:xlink="http://www.w3.org/1999/xlink" xml:space="preserve" xmlns:serif="http://www.serif.com/" style="fill-rule:evenodd;clip-rule:evenodd;stroke-linecap:round;stroke-linejoin:round;stroke-miterlimit:10;">
    <g transform="matrix(1.33333,0,0,1.33333,-64.1424,-81.84)">
        <text x="62.88px" y="158.4px" style="font-family:'ArialMT', 'Arial', sans-serif;font-size:10px;">NH</text>
    </g>
    <g transform="matrix(1.33333,0,0,1.33333,-64.1424,-81.84)">
        <text x="98.16px" y="153.12px" style="font-family:'ArialMT', 'Arial', sans-serif;font-size:10px;">S</text>
    </g>
    <g transform="matrix(1.33333,0,0,1.33333,-64.1424,-81.84)">
        <text x="173.28px" y="158.4px" style="font-family:'ArialMT', 'Arial', sans-serif;font-size:10px;">N</text>
    </g>
    <g transform="matrix(1.33333,0,0,1.33333,-64.1424,-81.84)">
        <text x="208.56px" y="153.12px" style="font-family:'ArialMT', 'Arial', sans-serif;font-size:10px;">SH</text>
    </g>
    <g transform="matrix(1.33333,0,0,1.33333,-49.1424,-81.84)">
        <text x="347.76px" y="91.2px" style="font-family:'ArialMT', 'Arial', sans-serif;font-size:10px;">Br</text>
    </g>
    <g transform="matrix(1.33333,0,0,1.33333,-49.1424,-81.84)">
        <text x="312.72px" y="71.28px" style="font-family:'ArialMT', 'Arial', sans-serif;font-size:10px;">O</text>
    </g>
    <g transform="matrix(1.33333,0,0,1.33333,-49.1424,-81.84)">
        <text x="239.28px" y="131.04px" style="font-family:'ArialMT', 'Arial', sans-serif;font-size:10px;">Br</text>
    </g>
    <g transform="matrix(1.33333,0,0,1.33333,-64.1424,-81.84)">
        <text x="419.28px" y="158.88px" style="font-family:'ArialMT', 'Arial', sans-serif;font-size:10px;">N</text>
    </g>
    <g transform="matrix(1.33333,0,0,1.33333,-64.1424,-81.84)">
        <text x="454.56px" y="153.6px" style="font-family:'ArialMT', 'Arial', sans-serif;font-size:10px;">S</text>
    </g>
    <g transform="matrix(1.33333,0,0,1.33333,-64.1424,-81.84)">
        <text x="492px" y="166.08px" style="font-family:'ArialMT', 'Arial', sans-serif;font-size:10px;">O</text>
    </g>
    <g transform="matrix(1.33333,0,0,1.33333,-64.1424,-81.84)">
        <text x="547.92px" y="93.36px" style="font-family:'ArialMT', 'Arial', sans-serif;font-size:10px;">Br</text>
    </g>
    <g transform="matrix(1.33333,0,0,1.33333,-64.1424,-81.84)">
        <text x="476.16px" y="199.44px" style="font-family:'ArialMT', 'Arial', sans-serif;font-size:10px;">:<tspan x="479.04px " y="199.44px ">B</tspan></text>
    </g>
    <g transform="matrix(1.33333,0,0,1.33333,-64.1424,-81.84)">
        <text x="494.4px" y="283.68px" style="font-family:'ArialMT', 'Arial', sans-serif;font-size:10px;">O</text>
    </g>
    <g transform="matrix(1.33333,0,0,1.33333,-64.1424,-81.84)">
        <text x="460.56px" y="281.76px" style="font-family:'ArialMT', 'Arial', sans-serif;font-size:10px;">S</text>
    </g>
    <g transform="matrix(1.33333,0,0,1.33333,-64.1424,-81.84)">
        <text x="421.68px" y="276.48px" style="font-family:'ArialMT', 'Arial', sans-serif;font-size:10px;">NH</text>
    </g>
    <g transform="matrix(1.33333,0,0,1.33333,-64.1424,-81.84)">
        <text x="369.12px" y="247.2px" style="font-family:'ArialMT', 'Arial', sans-serif;font-size:10px;">PP</text>
        <text x="382.56px" y="247.2px" style="font-family:'ArialMT', 'Arial', sans-serif;font-size:10px;">h</text>
        <text x="388.08px" y="249.84px" style="font-family:'ArialMT', 'Arial', sans-serif;font-size:6px;">3</text>
    </g>
    <g transform="matrix(1.33333,0,0,1.33333,-64.1424,-81.84)">
        <text x="331.44px" y="260.64px" style="font-family:'ArialMT', 'Arial', sans-serif;font-size:10px;">T<tspan x="337.68px " y="260.64px ">M</tspan></text>
    </g>
    <g transform="matrix(1.08299,-0.777754,-0.777754,-1.08299,496.661,927.492)">
        <path d="M72.925,695.825L83.845,695.825" style="fill:none;fill-rule:nonzero;stroke:black;stroke-width:0.72px;"/>
    </g>
    <g transform="matrix(0.405542,1.27016,1.27016,-0.405542,-890.024,282.034)">
        <path d="M69.828,708.5L89.752,708.5" style="fill:none;fill-rule:nonzero;stroke:black;stroke-width:0.72px;"/>
    </g>
    <g transform="matrix(1.07469,0.789184,0.789184,-1.07469,-598.091,816.565)">
        <path d="M49.227,695.02L63.283,695.02" style="fill:none;fill-rule:nonzero;stroke:black;stroke-width:0.72px;"/>
    </g>
    <g transform="matrix(1.33332,0.00669336,0.00669336,-1.33332,-68.9474,1040.26)">
        <path d="M56.84,718.04L76.76,718.04" style="fill:none;fill-rule:nonzero;stroke:black;stroke-width:0.72px;"/>
    </g>
    <g transform="matrix(-0.418422,1.26598,1.26598,0.418422,-867.163,-268.637)">
        <path d="M43.757,708.635L63.673,708.635" style="fill:none;fill-rule:nonzero;stroke:black;stroke-width:0.72px;"/>
    </g>
    <g transform="matrix(1.26593,0.418579,0.418579,-1.26593,-348.987,956.31)">
        <path d="M81.893,694.955L97.597,694.955" style="fill:none;fill-rule:nonzero;stroke:black;stroke-width:0.72px;"/>
    </g>
    <g transform="matrix(1.26591,0.41862,0.41862,-1.26591,-350.386,955.848)">
        <path d="M82.981,698.32L97.569,698.32" style="fill:none;fill-rule:nonzero;stroke:black;stroke-width:0.72px;"/>
    </g>
    <g transform="matrix(1.33333,0,0,1.33333,-64.1424,-837.68)">
        <path d="M113.52,704.4L148.56,704.4" style="fill:none;fill-rule:nonzero;stroke:black;stroke-width:0.72px;"/>
    </g>
    <g transform="matrix(1.33333,0,0,1.33333,-64.1424,-845.36)">
        <path d="M113.52,707.28L148.56,707.28" style="fill:none;fill-rule:nonzero;stroke:black;stroke-width:0.72px;"/>
    </g>
    <g transform="matrix(1.2958,0.314133,0.314133,-1.2958,-280.895,968.75)">
        <path d="M140.299,708.213L148.449,708.213L141.204,704.481L142.151,706.686L140.299,708.213Z" style="stroke:black;stroke-width:0.72px;"/>
    </g>
    <g transform="matrix(-1.2958,0.314133,0.314133,1.2958,23.4527,-848.146)">
        <path d="M113.179,703.467L121.329,703.467L114.084,707.199L115.031,704.994L113.179,703.467Z" style="stroke:black;stroke-width:0.72px;"/>
    </g>
    <g transform="matrix(1.08299,-0.777765,-0.777765,-1.08299,523.13,1012.48)">
        <path d="M180.078,694.78L194.582,694.78" style="fill:none;fill-rule:nonzero;stroke:black;stroke-width:0.72px;"/>
    </g>
    <g transform="matrix(1.0827,-0.77816,-0.77816,-1.0827,523.908,1009.27)">
        <path d="M177.36,696.46L190.45,696.46" style="fill:none;fill-rule:nonzero;stroke:black;stroke-width:0.72px;"/>
    </g>
    <g transform="matrix(0.405542,1.27016,1.27016,-0.405542,-787.596,141.808)">
        <path d="M180.228,708.5L200.152,708.5" style="fill:none;fill-rule:nonzero;stroke:black;stroke-width:0.72px;"/>
    </g>
    <g transform="matrix(1.07469,0.789184,0.789184,-1.07469,-569.537,729.439)">
        <path d="M159.627,695.02L173.683,695.02" style="fill:none;fill-rule:nonzero;stroke:black;stroke-width:0.72px;"/>
    </g>
    <g transform="matrix(1.33332,0.00669336,0.00669336,-1.33332,-68.9455,1039.52)">
        <path d="M167.24,718.04L187.16,718.04" style="fill:none;fill-rule:nonzero;stroke:black;stroke-width:0.72px;"/>
    </g>
    <g transform="matrix(-0.418422,1.26598,1.26598,0.418422,-673.769,-408.401)">
        <path d="M154.157,708.635L174.073,708.635" style="fill:none;fill-rule:nonzero;stroke:black;stroke-width:0.72px;"/>
    </g>
    <g transform="matrix(1.26605,0.418202,0.418202,-1.26605,-341.992,910.037)">
        <path d="M192.838,696.635L207.982,696.635" style="fill:none;fill-rule:nonzero;stroke:black;stroke-width:0.72px;"/>
    </g>
    <g transform="matrix(1.33333,0,0,1.33333,-64.1424,-844.72)">
        <path d="M237.84,707.04L387.84,707.04" style="fill:none;fill-rule:nonzero;stroke:black;stroke-width:0.72px;"/>
    </g>
    <g transform="matrix(1.2958,0.314133,0.314133,-1.2958,-271.839,893.593)">
        <path d="M379.579,707.973L387.729,707.973L380.484,704.241L381.431,706.446L379.579,707.973Z" style="stroke:black;stroke-width:0.72px;"/>
    </g>
    <g transform="matrix(0,-1.33333,-1.33333,0,1329.7,460.52)">
        <path d="M289.53,734.64L309.45,734.64" style="fill:none;fill-rule:nonzero;stroke:black;stroke-width:0.72px;"/>
    </g>
    <g transform="matrix(1.15468,0.666702,0.666702,-1.15468,-496.925,712.885)">
        <path d="M280.906,749.58L300.824,749.58" style="fill:none;fill-rule:nonzero;stroke:black;stroke-width:0.72px;"/>
    </g>
    <g transform="matrix(1.15458,0.666876,0.666876,-1.15458,-495.386,714.399)">
        <path d="M280.888,746.67L297.482,746.67" style="fill:none;fill-rule:nonzero;stroke:black;stroke-width:0.72px;"/>
    </g>
    <g transform="matrix(1.15468,-0.666702,-0.666702,-1.15468,482.647,1106.06)">
        <path d="M280.906,719.7L300.824,719.7" style="fill:none;fill-rule:nonzero;stroke:black;stroke-width:0.72px;"/>
    </g>
    <g transform="matrix(1.15458,-0.666876,-0.666876,-1.15458,484.442,1104.4)">
        <path d="M280.888,722.61L297.482,722.61" style="fill:none;fill-rule:nonzero;stroke:black;stroke-width:0.72px;"/>
    </g>
    <g transform="matrix(1.15468,-0.666702,-0.666702,-1.15468,499.486,1089.22)">
        <path d="M263.656,749.58L283.574,749.58" style="fill:none;fill-rule:nonzero;stroke:black;stroke-width:0.72px;"/>
    </g>
    <g transform="matrix(1.15468,0.666702,0.666702,-1.15468,-480.086,729.723)">
        <path d="M263.656,719.7L283.574,719.7" style="fill:none;fill-rule:nonzero;stroke:black;stroke-width:0.72px;"/>
    </g>
    <g transform="matrix(0,-1.33333,-1.33333,0,1283.7,414.52)">
        <path d="M255.03,734.64L274.95,734.64" style="fill:none;fill-rule:nonzero;stroke:black;stroke-width:0.72px;"/>
    </g>
    <g transform="matrix(0,-1.33333,-1.33333,0,1288.18,419)">
        <path d="M260.05,734.64L276.65,734.64" style="fill:none;fill-rule:nonzero;stroke:black;stroke-width:0.72px;"/>
    </g>
    <g transform="matrix(1.15468,-0.666702,-0.666702,-1.15468,505.65,1112.23)">
        <path d="M298.156,749.58L318.074,749.58" style="fill:none;fill-rule:nonzero;stroke:black;stroke-width:0.72px;"/>
    </g>
    <g transform="matrix(1.15468,0.666702,0.666702,-1.15468,-490.761,689.883)">
        <path d="M315.406,749.58L335.324,749.58" style="fill:none;fill-rule:nonzero;stroke:black;stroke-width:0.72px;"/>
    </g>
    <g transform="matrix(1.15493,-0.666271,-0.666271,-1.15493,510.152,1134.02)">
        <path d="M333.001,748.295L347.789,748.295" style="fill:none;fill-rule:nonzero;stroke:black;stroke-width:0.72px;"/>
    </g>
    <g transform="matrix(0,-1.33333,-1.33333,0,1391.42,449.28)">
        <path d="M310.98,762L325.86,762" style="fill:none;fill-rule:nonzero;stroke:black;stroke-width:0.72px;"/>
    </g>
    <g transform="matrix(0,-1.33333,-1.33333,0,1386.94,444.8)">
        <path d="M307.62,762L322.5,762" style="fill:none;fill-rule:nonzero;stroke:black;stroke-width:0.72px;"/>
    </g>
    <g transform="matrix(-1.15469,0.666683,0.666683,1.15469,111.601,-923.539)">
        <path d="M249.185,720.445L266.125,720.445" style="fill:none;fill-rule:nonzero;stroke:black;stroke-width:0.72px;"/>
    </g>
    <g transform="matrix(1.08168,-0.779581,-0.779581,-1.08168,586.173,1203.81)">
        <path d="M426.07,694.305L440.59,694.305" style="fill:none;fill-rule:nonzero;stroke:black;stroke-width:0.72px;"/>
    </g>
    <g transform="matrix(1.08187,-0.779314,-0.779314,-1.08187,586.355,1200.74)">
        <path d="M423.366,695.985L436.454,695.985" style="fill:none;fill-rule:nonzero;stroke:black;stroke-width:0.72px;"/>
    </g>
    <g transform="matrix(0.40695,1.26971,1.26971,-0.40695,-559.073,-169.015)">
        <path d="M426.22,708.035L446.14,708.035" style="fill:none;fill-rule:nonzero;stroke:black;stroke-width:0.72px;"/>
    </g>
    <g transform="matrix(1.0756,0.78795,0.78795,-1.0756,-505.042,536.564)">
        <path d="M405.633,694.53L419.677,694.53" style="fill:none;fill-rule:nonzero;stroke:black;stroke-width:0.72px;"/>
    </g>
    <g transform="matrix(1.33332,0.00535471,0.00535471,-1.33332,-67.9802,1038.45)">
        <path d="M413.22,717.56L433.14,717.56" style="fill:none;fill-rule:nonzero;stroke:black;stroke-width:0.72px;"/>
    </g>
    <g transform="matrix(-0.417016,1.26644,1.26644,0.417016,-243.134,-718.146)">
        <path d="M400.145,708.14L420.065,708.14" style="fill:none;fill-rule:nonzero;stroke:black;stroke-width:0.72px;"/>
    </g>
    <g transform="matrix(1.26657,0.416613,0.416613,-1.26657,-324.38,808.263)">
        <path d="M438.841,696.185L453.979,696.185" style="fill:none;fill-rule:nonzero;stroke:black;stroke-width:0.72px;"/>
    </g>
    <g transform="matrix(0.994452,-0.888168,-0.888168,-0.994452,716.74,1218.56)">
        <path d="M460.407,700.785L474.833,700.785" style="fill:none;fill-rule:nonzero;stroke:black;stroke-width:0.72px;"/>
    </g>
    <g transform="matrix(1.26644,0.417016,0.417016,-1.26644,-324.813,792.537)">
        <path d="M472.5,702.475L492.42,702.475" style="fill:none;fill-rule:nonzero;stroke:black;stroke-width:0.72px;"/>
    </g>
    <g transform="matrix(0.272013,1.30529,1.30529,-0.272013,-445.492,-335.574)">
        <path d="M484.564,691.99L498.926,691.99" style="fill:none;fill-rule:nonzero;stroke:black;stroke-width:0.72px;"/>
    </g>
    <g transform="matrix(0.271868,1.30532,1.30532,-0.271868,-442.319,-340.436)">
        <path d="M487.577,692.33L502.633,692.33" style="fill:none;fill-rule:nonzero;stroke:black;stroke-width:0.72px;"/>
    </g>
    <g transform="matrix(0.27242,1.30521,1.30521,-0.27242,-471.507,-384.459)">
        <path d="M494.785,722.38L514.705,722.38" style="fill:none;fill-rule:nonzero;stroke:black;stroke-width:0.72px;"/>
    </g>
    <g transform="matrix(-1.26644,-0.417016,-0.417016,1.26644,1573.84,-588.58)">
        <path d="M506.28,709.515L526.2,709.515" style="fill:none;fill-rule:nonzero;stroke:black;stroke-width:0.72px;"/>
    </g>
    <g transform="matrix(-1.26643,-0.417054,-0.417054,1.26643,1577.93,-596.406)">
        <path d="M508.994,712.705L525.586,712.705" style="fill:none;fill-rule:nonzero;stroke:black;stroke-width:0.72px;"/>
    </g>
    <g transform="matrix(-0.994512,0.888101,0.888101,0.994512,467.287,-1132.07)">
        <path d="M500.179,738.765L520.101,738.765" style="fill:none;fill-rule:nonzero;stroke:black;stroke-width:0.72px;"/>
    </g>
    <g transform="matrix(-0.994327,0.888308,0.888308,0.994327,474.478,-1128.19)">
        <path d="M504.08,736.26L520.68,736.26" style="fill:none;fill-rule:nonzero;stroke:black;stroke-width:0.72px;"/>
    </g>
    <g transform="matrix(-0.994512,0.888101,0.888101,0.994512,543.655,-1092.59)">
        <path d="M523.169,713.035L543.091,713.035" style="fill:none;fill-rule:nonzero;stroke:black;stroke-width:0.72px;"/>
    </g>
    <g transform="matrix(-1.26644,-0.417016,-0.417016,1.26644,1615.56,-669.275)">
        <path d="M517.07,742.285L536.99,742.285" style="fill:none;fill-rule:nonzero;stroke:black;stroke-width:0.72px;"/>
    </g>
    <g transform="matrix(0.27242,1.30521,1.30521,-0.27242,-444.858,-436.018)">
        <path d="M528.565,729.42L548.485,729.42" style="fill:none;fill-rule:nonzero;stroke:black;stroke-width:0.72px;"/>
    </g>
    <g transform="matrix(0.272292,1.30523,1.30523,-0.272292,-447.405,-431.105)">
        <path d="M526.935,728.735L543.535,728.735" style="fill:none;fill-rule:nonzero;stroke:black;stroke-width:0.72px;"/>
    </g>
    <g transform="matrix(0.994512,-0.888101,-0.888101,-0.994512,732.043,1244.99)">
        <path d="M489.389,705.995L509.311,705.995" style="fill:none;fill-rule:nonzero;stroke:black;stroke-width:0.72px;"/>
    </g>
    <g transform="matrix(0.994499,-0.888115,-0.888115,-0.994499,780.033,1269.79)">
        <path d="M534.706,743.845L548.744,743.845" style="fill:none;fill-rule:nonzero;stroke:black;stroke-width:0.72px;"/>
    </g>
    <g transform="matrix(0,1.33333,1.33333,0,-271.182,-467.44)">
        <path d="M470.88,643.2L504.96,643.2" style="fill:none;fill-rule:nonzero;stroke:black;stroke-width:0.72px;"/>
    </g>
    <g transform="matrix(-0.314133,1.2958,1.2958,0.314133,-76.82,-629.629)">
        <path d="M483.619,631.053L491.769,631.053L484.524,627.321L485.471,629.526L483.619,631.053Z" style="stroke:black;stroke-width:0.72px;"/>
    </g>
    <g transform="matrix(1.26644,0.417016,0.417016,-1.26644,-275.612,799.403)">
        <path d="M474.9,584.875L494.82,584.875" style="fill:none;fill-rule:nonzero;stroke:black;stroke-width:0.72px;"/>
    </g>
    <g transform="matrix(0.272013,1.30529,1.30529,-0.272013,-289.443,-213.895)">
        <path d="M486.964,574.39L501.326,574.39" style="fill:none;fill-rule:nonzero;stroke:black;stroke-width:0.72px;"/>
    </g>
    <g transform="matrix(0.271868,1.30532,1.30532,-0.271868,-286.266,-218.74)">
        <path d="M489.977,574.73L505.033,574.73" style="fill:none;fill-rule:nonzero;stroke:black;stroke-width:0.72px;"/>
    </g>
    <g transform="matrix(0.27242,1.30521,1.30521,-0.27242,-315.469,-262.828)">
        <path d="M497.185,604.78L517.105,604.78" style="fill:none;fill-rule:nonzero;stroke:black;stroke-width:0.72px;"/>
    </g>
    <g transform="matrix(-1.26644,-0.417016,-0.417016,1.26644,1531.04,-281.845)">
        <path d="M508.68,591.915L528.6,591.915" style="fill:none;fill-rule:nonzero;stroke:black;stroke-width:0.72px;"/>
    </g>
    <g transform="matrix(-1.26643,-0.417054,-0.417054,1.26643,1535.12,-289.673)">
        <path d="M511.394,595.105L527.986,595.105" style="fill:none;fill-rule:nonzero;stroke:black;stroke-width:0.72px;"/>
    </g>
    <g transform="matrix(-0.994512,0.888101,0.888101,0.994512,577.314,-860.443)">
        <path d="M502.579,621.165L522.501,621.165" style="fill:none;fill-rule:nonzero;stroke:black;stroke-width:0.72px;"/>
    </g>
    <g transform="matrix(-0.994327,0.888308,0.888308,0.994327,584.53,-856.594)">
        <path d="M506.48,618.66L523.08,618.66" style="fill:none;fill-rule:nonzero;stroke:black;stroke-width:0.72px;"/>
    </g>
    <g transform="matrix(-0.994512,0.888101,0.888101,0.994512,653.682,-820.965)">
        <path d="M525.569,595.435L545.491,595.435" style="fill:none;fill-rule:nonzero;stroke:black;stroke-width:0.72px;"/>
    </g>
    <g transform="matrix(-1.26644,-0.417016,-0.417016,1.26644,1572.76,-362.54)">
        <path d="M519.47,624.685L539.39,624.685" style="fill:none;fill-rule:nonzero;stroke:black;stroke-width:0.72px;"/>
    </g>
    <g transform="matrix(0.27242,1.30521,1.30521,-0.27242,-288.82,-314.387)">
        <path d="M530.965,611.82L550.885,611.82" style="fill:none;fill-rule:nonzero;stroke:black;stroke-width:0.72px;"/>
    </g>
    <g transform="matrix(0.272292,1.30523,1.30523,-0.272292,-291.363,-309.459)">
        <path d="M529.335,611.135L545.935,611.135" style="fill:none;fill-rule:nonzero;stroke:black;stroke-width:0.72px;"/>
    </g>
    <g transform="matrix(0.994512,-0.888101,-0.888101,-0.994512,628.415,1286.96)">
        <path d="M491.789,588.395L511.711,588.395" style="fill:none;fill-rule:nonzero;stroke:black;stroke-width:0.72px;"/>
    </g>
    <g transform="matrix(-0.568536,1.20604,1.20604,0.568536,133.759,-627.803)">
        <path d="M460.648,578.635L481.332,578.635" style="fill:none;fill-rule:nonzero;stroke:black;stroke-width:0.72px;"/>
    </g>
    <g transform="matrix(1.08184,-0.779362,-0.779362,-1.08184,496.088,1236.14)">
        <path d="M431.719,577.755L442.651,577.755" style="fill:none;fill-rule:nonzero;stroke:black;stroke-width:0.72px;"/>
    </g>
    <g transform="matrix(0.40695,1.26971,1.26971,-0.40695,-407.532,-63.1193)">
        <path d="M428.62,590.435L448.54,590.435" style="fill:none;fill-rule:nonzero;stroke:black;stroke-width:0.72px;"/>
    </g>
    <g transform="matrix(1.0756,0.78795,0.78795,-1.0756,-411.76,564.983)">
        <path d="M408.033,576.93L422.077,576.93" style="fill:none;fill-rule:nonzero;stroke:black;stroke-width:0.72px;"/>
    </g>
    <g transform="matrix(1.33332,0.00535471,0.00535471,-1.33332,-67.3504,1038.43)">
        <path d="M415.62,599.96L435.54,599.96" style="fill:none;fill-rule:nonzero;stroke:black;stroke-width:0.72px;"/>
    </g>
    <g transform="matrix(-0.417016,1.26644,1.26644,0.417016,-89.9995,-515.345)">
        <path d="M402.545,590.54L422.465,590.54" style="fill:none;fill-rule:nonzero;stroke:black;stroke-width:0.72px;"/>
    </g>
    <g transform="matrix(-1.06709,-0.79943,-0.79943,1.06709,1476.56,22.5899)">
        <path d="M439.377,574.215L461.843,574.215" style="fill:none;fill-rule:nonzero;stroke:black;stroke-width:0.72px;"/>
    </g>
    <g transform="matrix(-1.30529,0.272032,0.272032,1.30529,986.698,-626.204)">
        <path d="M441.257,584.47L475.763,584.47" style="fill:none;fill-rule:nonzero;stroke:black;stroke-width:0.72px;"/>
    </g>
    <g transform="matrix(-1.33333,0,0,1.33333,949.618,-521.52)">
        <path d="M362.88,585.84L397.44,585.84" style="fill:none;fill-rule:nonzero;stroke:black;stroke-width:0.72px;"/>
    </g>
    <g transform="matrix(-1.2958,-0.314133,-0.314133,1.2958,1084.36,-384.295)">
        <path d="M362.539,586.773L370.689,586.773L363.444,583.041L364.391,585.246L362.539,586.773Z" style="stroke:black;stroke-width:0.72px;"/>
    </g>
</svg>
