<?xml version="1.0" encoding="UTF-8" standalone="no"?>
<!DOCTYPE svg PUBLIC "-//W3C//DTD SVG 1.1//EN" "http://www.w3.org/Graphics/SVG/1.1/DTD/svg11.dtd">
<svg width="100%" height="100%" viewBox="0 0 720 585" version="1.1" xmlns="http://www.w3.org/2000/svg" xmlns:xlink="http://www.w3.org/1999/xlink" xml:space="preserve" xmlns:serif="http://www.serif.com/" style="fill-rule:evenodd;clip-rule:evenodd;stroke-linecap:round;stroke-linejoin:round;stroke-miterlimit:10;">
    <g transform="matrix(1.33333,0,0,1.33333,-58.424,-58.1632)">
        <text x="69.84px" y="73.2px" style="font-family:'ArialMT', 'Arial', sans-serif;font-size:10px;">CH</text>
        <text x="84.24px" y="75.84px" style="font-family:'ArialMT', 'Arial', sans-serif;font-size:8px;">2</text>
    </g>
    <g transform="matrix(1.33333,0,0,1.33333,-58.424,-58.1632)">
        <text x="69.84px" y="113.04px" style="font-family:'ArialMT', 'Arial', sans-serif;font-size:10px;">CH</text>
        <text x="84.24px" y="115.68px" style="font-family:'ArialMT', 'Arial', sans-serif;font-size:8px;">2</text>
    </g>
    <g transform="matrix(1.33333,0,0,1.33333,-58.424,-58.1632)">
        <text x="97.2px" y="97.68px" style="font-family:'ArialMT', 'Arial', sans-serif;font-size:18px;">+</text>
    </g>
    <g transform="matrix(1.33333,0,0,1.33333,-58.424,-58.1632)">
        <text x="200.16px" y="111.6px" style="font-family:'ArialMT', 'Arial', sans-serif;font-size:10px;">CH</text>
        <text x="214.56px" y="114.24px" style="font-family:'ArialMT', 'Arial', sans-serif;font-size:8px;">2</text>
    </g>
    <g transform="matrix(1.33333,0,0,1.33333,-58.424,-58.1632)">
        <text x="234.48px" y="91.68px" style="font-family:'ArialMT', 'Arial', sans-serif;font-size:10px;">O</text>
    </g>
    <g transform="matrix(1.33333,0,0,1.33333,-58.424,-58.1632)">
        <text x="217.2px" y="61.68px" style="font-family:'ArialMT', 'Arial', sans-serif;font-size:10px;">O</text>
    </g>
    <g transform="matrix(1.33333,0,0,1.33333,-58.424,-58.1632)">
        <text x="269.28px" y="91.68px" style="font-family:'ArialMT', 'Arial', sans-serif;font-size:10px;">CH</text>
        <text x="283.68px" y="94.32px" style="font-family:'ArialMT', 'Arial', sans-serif;font-size:8px;">3</text>
    </g>
    <g transform="matrix(1.33333,0,0,1.33333,-58.424,-58.1632)">
        <text x="182.64px" y="61.68px" style="font-family:'ArialMT', 'Arial', sans-serif;font-size:10px;">O</text>
    </g>
    <g transform="matrix(1.33333,0,0,1.33333,-58.424,-58.1632)">
        <text x="165.36px" y="91.68px" style="font-family:'ArialMT', 'Arial', sans-serif;font-size:10px;">O</text>
    </g>
    <g transform="matrix(1.33333,0,0,1.33333,-58.424,-58.1632)">
        <text x="131.04px" y="91.68px" style="font-family:'ArialMT', 'Arial', sans-serif;font-size:10px;">C</text>
    </g>
    <g transform="matrix(1.33333,0,0,1.33333,-58.424,-58.1632)">
        <text x="119.52px" y="91.68px" style="font-family:'ArialMT', 'Arial', sans-serif;font-size:10px;">H</text>
        <text x="126.72px" y="94.32px" style="font-family:'ArialMT', 'Arial', sans-serif;font-size:8px;">3</text>
    </g>
    <g transform="matrix(1.33333,0,0,1.33333,-58.424,-58.1632)">
        <text x="416.88px" y="83.52px" style="font-family:'ArialMT', 'Arial', sans-serif;font-size:10px;">O</text>
    </g>
    <g transform="matrix(1.33333,0,0,1.33333,-58.424,-58.1632)">
        <text x="416.88px" y="103.44px" style="font-family:'ArialMT', 'Arial', sans-serif;font-size:10px;">O</text>
    </g>
    <g transform="matrix(1.33333,0,0,1.33333,-58.424,-58.1632)">
        <text x="451.68px" y="83.52px" style="font-family:'ArialMT', 'Arial', sans-serif;font-size:10px;">CH</text>
        <text x="466.08px" y="86.16px" style="font-family:'ArialMT', 'Arial', sans-serif;font-size:8px;">3</text>
    </g>
    <g transform="matrix(1.33333,0,0,1.33333,-58.424,-58.1632)">
        <text x="451.68px" y="103.44px" style="font-family:'ArialMT', 'Arial', sans-serif;font-size:10px;">CH</text>
        <text x="466.08px" y="106.08px" style="font-family:'ArialMT', 'Arial', sans-serif;font-size:8px;">3</text>
    </g>
    <g transform="matrix(1.33333,0,0,1.33333,-58.424,-58.1632)">
        <text x="399.6px" y="53.52px" style="font-family:'ArialMT', 'Arial', sans-serif;font-size:10px;">O</text>
    </g>
    <g transform="matrix(1.33333,0,0,1.33333,-58.424,-58.1632)">
        <text x="399.6px" y="133.44px" style="font-family:'ArialMT', 'Arial', sans-serif;font-size:10px;">O</text>
    </g>
    <g transform="matrix(1.33333,0,0,1.33333,-58.424,-58.1632)">
        <text x="383.04px" y="160.8px" style="font-family:'ArialMT', 'Arial', sans-serif;font-size:10px;">1</text>
        <text x="388.56px" y="160.8px" style="font-family:'ArialMT', 'Arial', sans-serif;font-size:10px;">)</text>
        <text x="394.847px" y="160.8px" style="font-family:'ArialMT', 'Arial', sans-serif;font-size:10px;">H</text>
        <text x="402.047px" y="163.44px" style="font-family:'ArialMT', 'Arial', sans-serif;font-size:6px;">2</text>
        <text x="405.647px" y="160.8px" style="font-family:'ArialMT', 'Arial', sans-serif;font-size:10px;">;</text>
        <text x="411.529px" y="160.8px" style="font-family:'ArialMT', 'Arial', sans-serif;font-size:10px;">P</text>
        <text x="418.249px" y="160.8px" style="font-family:'ArialMT', 'Arial', sans-serif;font-size:10px;">d</text>
        <text x="438.24px" y="161.28px" style="font-family:'ArialMT', 'Arial', sans-serif;font-size:10px;">2) L</text>
        <text x="455.534px" y="161.28px" style="font-family:'ArialMT', 'Arial', sans-serif;font-size:10px;">i</text>
        <text x="457.934px" y="161.28px" style="font-family:'ArialMT', 'Arial', sans-serif;font-size:10px;">A</text>
        <text x="464.654px" y="161.28px" style="font-family:'ArialMT', 'Arial', sans-serif;font-size:10px;">l</text>
        <text x="467.054px" y="161.28px" style="font-family:'ArialMT', 'Arial', sans-serif;font-size:10px;">H</text>
        <text x="474.254px" y="163.92px" style="font-family:'ArialMT', 'Arial', sans-serif;font-size:6px;">4</text>
    </g>
    <g transform="matrix(1.33333,0,0,1.33333,-58.424,-58.1632)">
        <text x="461.28px" y="239.76px" style="font-family:'ArialMT', 'Arial', sans-serif;font-size:10px;">C</text>
        <text x="468.48px" y="239.76px" style="font-family:'ArialMT', 'Arial', sans-serif;font-size:10px;">H</text>
        <text x="475.92px" y="242.4px" style="font-family:'ArialMT', 'Arial', sans-serif;font-size:8px;">2</text>
        <text x="480.482px" y="239.76px" style="font-family:'ArialMT', 'Arial', sans-serif;font-size:10px;">O<tspan x="488.4px " y="239.76px ">H</tspan></text>
    </g>
    <g transform="matrix(1.33333,0,0,1.33333,-58.424,-58.1632)">
        <text x="454.08px" y="212.64px" style="font-family:'ArialMT', 'Arial', sans-serif;font-size:10px;">C</text>
        <text x="461.28px" y="212.64px" style="font-family:'ArialMT', 'Arial', sans-serif;font-size:10px;">H</text>
        <text x="468.72px" y="215.28px" style="font-family:'ArialMT', 'Arial', sans-serif;font-size:8px;">2</text>
        <text x="473.282px" y="212.64px" style="font-family:'ArialMT', 'Arial', sans-serif;font-size:10px;">O<tspan x="481.2px " y="212.64px ">H</tspan></text>
    </g>
    <g transform="matrix(1.33333,0,0,1.33333,-58.424,-58.1632)">
        <text x="356.16px" y="230.88px" style="font-family:'ArialMT', 'Arial', sans-serif;font-size:10px;">1</text>
        <text x="361.68px" y="230.88px" style="font-family:'ArialMT', 'Arial', sans-serif;font-size:10px;">)</text>
        <text x="367.952px" y="230.88px" style="font-family:'ArialMT', 'Arial', sans-serif;font-size:10px;">H</text>
        <text x="375.152px" y="230.88px" style="font-family:'ArialMT', 'Arial', sans-serif;font-size:10px;">Br</text>
    </g>
    <g transform="matrix(1.33333,0,0,1.33333,-58.424,-58.1632)">
        <text x="355.2px" y="254.64px" style="font-family:'ArialMT', 'Arial', sans-serif;font-size:10px;">2</text>
        <text x="360.72px" y="254.64px" style="font-family:'ArialMT', 'Arial', sans-serif;font-size:10px;">) <tspan x="367.003px " y="254.64px ">K</tspan></text>
        <text x="373.713px" y="254.64px" style="font-family:'ArialMT', 'Arial', sans-serif;font-size:10px;">CN</text>
    </g>
    <g transform="matrix(1.33333,0,0,1.33333,-58.424,-58.1632)">
        <text x="345.12px" y="267.6px" style="font-family:'ArialMT', 'Arial', sans-serif;font-size:10px;">3</text>
        <text x="350.635px" y="267.6px" style="font-family:'ArialMT', 'Arial', sans-serif;font-size:10px;">)</text>
        <text x="356.882px" y="267.6px" style="font-family:'ArialMT', 'Arial', sans-serif;font-size:10px;">H</text>
        <text x="364.077px" y="270.24px" style="font-family:'ArialMT', 'Arial', sans-serif;font-size:6px;">2</text>
        <text x="367.674px" y="267.6px" style="font-family:'ArialMT', 'Arial', sans-serif;font-size:10px;">O<tspan x="375.589px " y="267.6px ">;</tspan></text>
        <text x="381.512px" y="267.6px" style="font-family:'ArialMT', 'Arial', sans-serif;font-size:10px;">HCl</text>
    </g>
    <g transform="matrix(1.33333,0,0,1.33333,-58.424,-58.1632)">
        <text x="297.84px" y="241.44px" style="font-family:'ArialMT', 'Arial', sans-serif;font-size:10px;">O<tspan x="305.76px " y="241.44px ">H</tspan></text>
    </g>
    <g transform="matrix(1.33333,0,0,1.33333,-58.424,-58.1632)">
        <text x="280.56px" y="251.52px" style="font-family:'ArialMT', 'Arial', sans-serif;font-size:10px;">O</text>
    </g>
    <g transform="matrix(1.33333,0,0,1.33333,-58.424,-58.1632)">
        <text x="280.56px" y="191.76px" style="font-family:'ArialMT', 'Arial', sans-serif;font-size:10px;">O<tspan x="288.48px " y="191.76px ">H</tspan></text>
    </g>
    <g transform="matrix(1.33333,0,0,1.33333,-58.424,-58.1632)">
        <text x="246px" y="191.76px" style="font-family:'ArialMT', 'Arial', sans-serif;font-size:10px;">O</text>
    </g>
    <g transform="matrix(1.33333,0,0,1.33333,-58.424,-58.1632)">
        <text x="174px" y="229.2px" style="font-family:'ArialMT', 'Arial', sans-serif;font-size:10px;">P</text>
        <text x="180.72px" y="231.84px" style="font-family:'ArialMT', 'Arial', sans-serif;font-size:6px;">2</text>
        <text x="184.32px" y="229.2px" style="font-family:'ArialMT', 'Arial', sans-serif;font-size:10px;">O</text>
        <text x="192.24px" y="231.84px" style="font-family:'ArialMT', 'Arial', sans-serif;font-size:6px;">5</text>
    </g>
    <g transform="matrix(1.33333,0,0,1.33333,-58.424,-58.1632)">
        <text x="121.68px" y="211.68px" style="font-family:'ArialMT', 'Arial', sans-serif;font-size:10px;">O</text>
    </g>
    <g transform="matrix(1.33333,0,0,1.33333,-58.424,-58.1632)">
        <text x="104.4px" y="181.92px" style="font-family:'ArialMT', 'Arial', sans-serif;font-size:10px;">O</text>
    </g>
    <g transform="matrix(1.33333,0,0,1.33333,-58.424,-58.1632)">
        <text x="138.96px" y="241.68px" style="font-family:'ArialMT', 'Arial', sans-serif;font-size:10px;">O</text>
    </g>
    <g transform="matrix(1.33333,0,0,1.33333,-58.424,-58.1632)">
        <text x="67.92px" y="294.24px" style="font-family:'ArialMT', 'Arial', sans-serif;font-size:10px;">M</text>
        <text x="76.32px" y="294.24px" style="font-family:'ArialMT', 'Arial', sans-serif;font-size:10px;">e</text>
        <text x="81.84px" y="294.24px" style="font-family:'ArialMT', 'Arial', sans-serif;font-size:10px;">O<tspan x="89.76px " y="294.24px ">H</tspan></text>
    </g>
    <g transform="matrix(1.33333,0,0,1.33333,-58.424,-58.1632)">
        <text x="110.88px" y="368.88px" style="font-family:'ArialMT', 'Arial', sans-serif;font-size:10px;">O</text>
    </g>
    <g transform="matrix(1.33333,0,0,1.33333,-58.424,-58.1632)">
        <text x="93.6px" y="339.12px" style="font-family:'ArialMT', 'Arial', sans-serif;font-size:10px;">O</text>
    </g>
    <g transform="matrix(1.33333,0,0,1.33333,-58.424,-58.1632)">
        <text x="128.4px" y="358.8px" style="font-family:'ArialMT', 'Arial', sans-serif;font-size:10px;">H</text>
    </g>
    <g transform="matrix(1.33333,0,0,1.33333,-58.424,-58.1632)">
        <text x="128.16px" y="398.88px" style="font-family:'ArialMT', 'Arial', sans-serif;font-size:10px;">O</text>
    </g>
    <g transform="matrix(1.33333,0,0,1.33333,-58.424,-58.1632)">
        <text x="110.88px" y="408.72px" style="font-family:'ArialMT', 'Arial', sans-serif;font-size:10px;">O</text>
    </g>
    <g transform="matrix(1.33333,0,0,1.33333,-58.424,-58.1632)">
        <text x="145.68px" y="388.8px" style="font-family:'ArialMT', 'Arial', sans-serif;font-size:10px;">CH</text>
        <text x="160.08px" y="391.44px" style="font-family:'ArialMT', 'Arial', sans-serif;font-size:8px;">3</text>
    </g>
    <g transform="matrix(1.33333,0,0,1.33333,-58.424,-58.1632)">
        <text x="175.68px" y="366.24px" style="font-family:'ArialMT', 'Arial', sans-serif;font-size:10px;">1</text>
        <text x="181.2px" y="366.24px" style="font-family:'ArialMT', 'Arial', sans-serif;font-size:10px;">) <tspan x="187.483px " y="366.24px ">S</tspan></text>
        <text x="194.193px" y="366.24px" style="font-family:'ArialMT', 'Arial', sans-serif;font-size:10px;">O</text>
        <text x="202.113px" y="366.24px" style="font-family:'ArialMT', 'Arial', sans-serif;font-size:10px;">C</text>
        <text x="209.313px" y="366.24px" style="font-family:'ArialMT', 'Arial', sans-serif;font-size:10px;">l</text>
        <text x="211.713px" y="368.88px" style="font-family:'ArialMT', 'Arial', sans-serif;font-size:6px;">2</text>
    </g>
    <g transform="matrix(1.33333,0,0,1.33333,-58.424,-58.1632)">
        <text x="314.88px" y="399.84px" style="font-family:'ArialMT', 'Arial', sans-serif;font-size:10px;">O</text>
    </g>
    <g transform="matrix(1.33333,0,0,1.33333,-58.424,-58.1632)">
        <text x="297.6px" y="409.68px" style="font-family:'ArialMT', 'Arial', sans-serif;font-size:10px;">O</text>
    </g>
    <g transform="matrix(1.33333,0,0,1.33333,-58.424,-58.1632)">
        <text x="297.84px" y="369.84px" style="font-family:'ArialMT', 'Arial', sans-serif;font-size:10px;">Cl</text>
    </g>
    <g transform="matrix(1.33333,0,0,1.33333,-58.424,-58.1632)">
        <text x="280.32px" y="340.08px" style="font-family:'ArialMT', 'Arial', sans-serif;font-size:10px;">O</text>
    </g>
    <g transform="matrix(1.33333,0,0,1.33333,-58.424,-58.1632)">
        <text x="332.4px" y="389.76px" style="font-family:'ArialMT', 'Arial', sans-serif;font-size:10px;">CH</text>
        <text x="346.8px" y="392.4px" style="font-family:'ArialMT', 'Arial', sans-serif;font-size:8px;">3</text>
    </g>
    <g transform="matrix(1.33333,0,0,1.33333,-58.424,-58.1632)">
        <text x="426.24px" y="366.72px" style="font-family:'ArialMT', 'Arial', sans-serif;font-size:10px;">+</text>
        <text x="435.293px" y="366.72px" style="font-family:'ArialMT', 'Arial', sans-serif;font-size:10px;">CuI</text>
    </g>
    <g transform="matrix(1.33333,0,0,1.33333,-58.424,-58.1632)">
        <text x="365.04px" y="366.24px" style="font-family:'ArialMT', 'Arial', sans-serif;font-size:10px;">C</text>
    </g>
    <g transform="matrix(1.33333,0,0,1.33333,-58.424,-58.1632)">
        <text x="353.52px" y="366.24px" style="font-family:'ArialMT', 'Arial', sans-serif;font-size:10px;">H</text>
        <text x="360.72px" y="368.88px" style="font-family:'ArialMT', 'Arial', sans-serif;font-size:8px;">3</text>
    </g>
    <g transform="matrix(1.33333,0,0,1.33333,-58.424,-58.1632)">
        <text x="398.88px" y="366.24px" style="font-family:'ArialMT', 'Arial', sans-serif;font-size:10px;">M</text>
        <text x="407.28px" y="366.24px" style="font-family:'ArialMT', 'Arial', sans-serif;font-size:10px;">g</text>
        <text x="412.8px" y="366.24px" style="font-family:'ArialMT', 'Arial', sans-serif;font-size:10px;">Br</text>
    </g>
    <g transform="matrix(1.33333,0,0,1.33333,-58.424,-58.1632)">
        <text x="498.24px" y="447.36px" style="font-family:'ArialMT', 'Arial', sans-serif;font-size:10px;">NaH</text>
    </g>
    <g transform="matrix(1.33333,0,0,1.33333,-58.424,-58.1632)">
        <text x="516px" y="479.76px" style="font-family:'ArialMT', 'Arial', sans-serif;font-size:10px;">T<tspan x="522.24px " y="479.76px ">M</tspan></text>
    </g>
    <g transform="matrix(1.33333,0,0,1.33333,-58.424,-58.1632)">
        <text x="545.76px" y="399.6px" style="font-family:'ArialMT', 'Arial', sans-serif;font-size:10px;">O</text>
    </g>
    <g transform="matrix(1.33333,0,0,1.33333,-58.424,-58.1632)">
        <text x="528.48px" y="409.68px" style="font-family:'ArialMT', 'Arial', sans-serif;font-size:10px;">O</text>
    </g>
    <g transform="matrix(1.33333,0,0,1.33333,-58.424,-58.1632)">
        <text x="563.28px" y="389.76px" style="font-family:'ArialMT', 'Arial', sans-serif;font-size:10px;">CH</text>
        <text x="577.68px" y="392.4px" style="font-family:'ArialMT', 'Arial', sans-serif;font-size:8px;">3</text>
    </g>
    <g transform="matrix(1.33333,0,0,1.33333,-58.424,-58.1632)">
        <text x="563.28px" y="369.84px" style="font-family:'ArialMT', 'Arial', sans-serif;font-size:10px;">CH</text>
        <text x="577.68px" y="372.48px" style="font-family:'ArialMT', 'Arial', sans-serif;font-size:8px;">3</text>
    </g>
    <g transform="matrix(1.33333,0,0,1.33333,-58.424,-58.1632)">
        <text x="528.48px" y="349.92px" style="font-family:'ArialMT', 'Arial', sans-serif;font-size:10px;">O</text>
    </g>
    <g transform="matrix(1.15462,-0.666805,-0.666805,-1.15462,463.836,969.204)">
        <path d="M55.466,766.435L69.844,766.435" style="fill:none;fill-rule:nonzero;stroke:black;stroke-width:0.72px;"/>
    </g>
    <g transform="matrix(1.15449,-0.667037,-0.667037,-1.15449,462.982,971.357)">
        <path d="M58.644,764.14L72.156,764.14" style="fill:none;fill-rule:nonzero;stroke:black;stroke-width:0.72px;"/>
    </g>
    <g transform="matrix(1.15462,0.666805,0.666805,-1.15462,-540.212,890.491)">
        <path d="M55.466,739.325L69.844,739.325" style="fill:none;fill-rule:nonzero;stroke:black;stroke-width:0.72px;"/>
    </g>
    <g transform="matrix(1.1546,0.666846,0.666846,-1.1546,-541.164,888.112)">
        <path d="M58.612,741.5L72.608,741.5" style="fill:none;fill-rule:nonzero;stroke:black;stroke-width:0.72px;"/>
    </g>
    <g transform="matrix(0,-1.33333,-1.33333,0,1020.66,135.797)">
        <path d="M46.47,752.88L66.39,752.88" style="fill:none;fill-rule:nonzero;stroke:black;stroke-width:0.72px;"/>
    </g>
    <g transform="matrix(0,1.33333,1.33333,0,-784.584,-200.963)">
        <path d="M194.82,746.82L209.58,746.82" style="fill:none;fill-rule:nonzero;stroke:black;stroke-width:0.72px;"/>
    </g>
    <g transform="matrix(0,1.33333,1.33333,0,-780.104,-205.443)">
        <path d="M198.18,746.82L212.94,746.82" style="fill:none;fill-rule:nonzero;stroke:black;stroke-width:0.72px;"/>
    </g>
    <g transform="matrix(1.15468,-0.666702,-0.666702,-1.15468,485.688,1070.44)">
        <path d="M202.546,759.18L222.464,759.18" style="fill:none;fill-rule:nonzero;stroke:black;stroke-width:0.72px;"/>
    </g>
    <g transform="matrix(-1.15468,-0.666702,-0.666702,1.15468,933.52,-694.276)">
        <path d="M185.296,759.18L205.214,759.18" style="fill:none;fill-rule:nonzero;stroke:black;stroke-width:0.72px;"/>
    </g>
    <g transform="matrix(1.15484,0.666431,0.666431,-1.15484,-524.725,777.138)">
        <path d="M220.172,760.585L234.478,760.585" style="fill:none;fill-rule:nonzero;stroke:black;stroke-width:0.72px;"/>
    </g>
    <g transform="matrix(0,-1.33333,-1.33333,0,1267.46,332.677)">
        <path d="M215.37,771.6L230.25,771.6" style="fill:none;fill-rule:nonzero;stroke:black;stroke-width:0.72px;"/>
    </g>
    <g transform="matrix(0,-1.33333,-1.33333,0,1262.98,328.197)">
        <path d="M212.01,771.6L226.89,771.6" style="fill:none;fill-rule:nonzero;stroke:black;stroke-width:0.72px;"/>
    </g>
    <g transform="matrix(1.15446,-0.667084,-0.667084,-1.15446,493.598,1094.78)">
        <path d="M242.409,760.615L256.581,760.615" style="fill:none;fill-rule:nonzero;stroke:black;stroke-width:0.72px;"/>
    </g>
    <g transform="matrix(1.15496,0.666218,0.666218,-1.15496,-518.353,754.211)">
        <path d="M254.65,760.5L269.3,760.5" style="fill:none;fill-rule:nonzero;stroke:black;stroke-width:0.72px;"/>
    </g>
    <g transform="matrix(0,-1.33333,-1.33333,0,1221.46,286.677)">
        <path d="M180.87,771.6L195.75,771.6" style="fill:none;fill-rule:nonzero;stroke:black;stroke-width:0.72px;"/>
    </g>
    <g transform="matrix(0,-1.33333,-1.33333,0,1216.98,282.197)">
        <path d="M177.51,771.6L192.39,771.6" style="fill:none;fill-rule:nonzero;stroke:black;stroke-width:0.72px;"/>
    </g>
    <g transform="matrix(-1.15484,0.666431,0.666431,1.15484,-116.349,-948.315)">
        <path d="M173.282,760.585L187.588,760.585" style="fill:none;fill-rule:nonzero;stroke:black;stroke-width:0.72px;"/>
    </g>
    <g transform="matrix(-1.15446,-0.667084,-0.667084,1.15446,842.701,-722.28)">
        <path d="M151.179,760.615L165.351,760.615" style="fill:none;fill-rule:nonzero;stroke:black;stroke-width:0.72px;"/>
    </g>
    <g transform="matrix(-1.1549,0.666322,0.666322,1.1549,-202.667,-924.79)">
        <path d="M138.201,760.43L153.129,760.43" style="fill:none;fill-rule:nonzero;stroke:black;stroke-width:0.72px;"/>
    </g>
    <g transform="matrix(1.15468,0.666702,0.666702,-1.15468,-502.526,675.466)">
        <path d="M367.786,767.34L387.704,767.34" style="fill:none;fill-rule:nonzero;stroke:black;stroke-width:0.72px;"/>
    </g>
    <g transform="matrix(1.15468,-0.666702,-0.666702,-1.15468,500.728,1184.49)">
        <path d="M367.786,737.46L387.704,737.46" style="fill:none;fill-rule:nonzero;stroke:black;stroke-width:0.72px;"/>
    </g>
    <g transform="matrix(1.15468,-0.666702,-0.666702,-1.15468,517.567,1167.65)">
        <path d="M350.536,767.34L370.454,767.34" style="fill:none;fill-rule:nonzero;stroke:black;stroke-width:0.72px;"/>
    </g>
    <g transform="matrix(1.15468,0.666702,0.666702,-1.15468,-485.687,692.304)">
        <path d="M350.536,737.46L370.454,737.46" style="fill:none;fill-rule:nonzero;stroke:black;stroke-width:0.72px;"/>
    </g>
    <g transform="matrix(0,-1.33333,-1.33333,0,1413.94,530.357)">
        <path d="M341.91,752.4L361.83,752.4" style="fill:none;fill-rule:nonzero;stroke:black;stroke-width:0.72px;"/>
    </g>
    <g transform="matrix(0,-1.33333,-1.33333,0,1418.42,534.837)">
        <path d="M346.93,752.4L363.53,752.4" style="fill:none;fill-rule:nonzero;stroke:black;stroke-width:0.72px;"/>
    </g>
    <g transform="matrix(1.15476,0.666568,0.666568,-1.15476,-497.686,653.974)">
        <path d="M402.669,768.77L416.871,768.77" style="fill:none;fill-rule:nonzero;stroke:black;stroke-width:0.72px;"/>
    </g>
    <g transform="matrix(1.15476,-0.666568,-0.666568,-1.15476,505.365,1206.1)">
        <path d="M402.669,736.03L416.871,736.03" style="fill:none;fill-rule:nonzero;stroke:black;stroke-width:0.72px;"/>
    </g>
    <g transform="matrix(1.15468,-0.666702,-0.666702,-1.15468,523.73,1190.65)">
        <path d="M385.036,767.34L404.954,767.34" style="fill:none;fill-rule:nonzero;stroke:black;stroke-width:0.72px;"/>
    </g>
    <g transform="matrix(1.15468,0.666702,0.666702,-1.15468,-479.523,669.303)">
        <path d="M385.036,737.46L404.954,737.46" style="fill:none;fill-rule:nonzero;stroke:black;stroke-width:0.72px;"/>
    </g>
    <g transform="matrix(0,-1.33333,-1.33333,0,1459.94,576.357)">
        <path d="M376.41,752.4L396.33,752.4" style="fill:none;fill-rule:nonzero;stroke:black;stroke-width:0.72px;"/>
    </g>
    <g transform="matrix(1.15477,-0.666539,-0.666539,-1.15477,531.106,1215.04)">
        <path d="M424.804,768.75L439.086,768.75" style="fill:none;fill-rule:nonzero;stroke:black;stroke-width:0.72px;"/>
    </g>
    <g transform="matrix(1.15465,0.666746,0.666746,-1.15465,-491.533,630.73)">
        <path d="M437.156,768.685L451.694,768.685" style="fill:none;fill-rule:nonzero;stroke:black;stroke-width:0.72px;"/>
    </g>
    <g transform="matrix(1.15477,0.666539,0.666539,-1.15477,-471.902,645.06)">
        <path d="M424.804,736.05L439.086,736.05" style="fill:none;fill-rule:nonzero;stroke:black;stroke-width:0.72px;"/>
    </g>
    <g transform="matrix(1.15465,-0.666746,-0.666746,-1.15465,511.787,1229.19)">
        <path d="M437.156,736.115L451.694,736.115" style="fill:none;fill-rule:nonzero;stroke:black;stroke-width:0.72px;"/>
    </g>
    <g transform="matrix(0,-1.33333,-1.33333,0,1521.66,565.117)">
        <path d="M397.86,779.76L412.74,779.76" style="fill:none;fill-rule:nonzero;stroke:black;stroke-width:0.72px;"/>
    </g>
    <g transform="matrix(0,-1.33333,-1.33333,0,1517.18,560.637)">
        <path d="M394.5,779.76L409.38,779.76" style="fill:none;fill-rule:nonzero;stroke:black;stroke-width:0.72px;"/>
    </g>
    <g transform="matrix(0,1.33333,1.33333,0,-489.224,-438.243)">
        <path d="M394.5,725.04L409.38,725.04" style="fill:none;fill-rule:nonzero;stroke:black;stroke-width:0.72px;"/>
    </g>
    <g transform="matrix(0,1.33333,1.33333,0,-484.744,-442.723)">
        <path d="M397.86,725.04L412.74,725.04" style="fill:none;fill-rule:nonzero;stroke:black;stroke-width:0.72px;"/>
    </g>
    <g transform="matrix(0,1.33333,1.33333,0,-396.024,-421.363)">
        <path d="M408.48,683.76L452.64,683.76" style="fill:none;fill-rule:nonzero;stroke:black;stroke-width:0.72px;"/>
    </g>
    <g transform="matrix(-0.314133,1.2958,1.2958,0.314133,-211.627,-590.143)">
        <path d="M426.259,666.573L434.409,666.573L427.164,662.841L428.111,665.046L426.259,666.573Z" style="stroke:black;stroke-width:0.72px;"/>
    </g>
    <g transform="matrix(0,-1.33333,-1.33333,0,1346.66,853.477)">
        <path d="M437.85,606L457.77,606" style="fill:none;fill-rule:nonzero;stroke:black;stroke-width:0.72px;"/>
    </g>
    <g transform="matrix(1.15468,0.666702,0.666702,-1.15468,-393.944,660.658)">
        <path d="M429.226,620.94L449.144,620.94" style="fill:none;fill-rule:nonzero;stroke:black;stroke-width:0.72px;"/>
    </g>
    <g transform="matrix(1.15468,-0.666702,-0.666702,-1.15468,414.099,1251.61)">
        <path d="M429.226,591.06L449.144,591.06" style="fill:none;fill-rule:nonzero;stroke:black;stroke-width:0.72px;"/>
    </g>
    <g transform="matrix(1.15468,-0.666702,-0.666702,-1.15468,430.938,1234.77)">
        <path d="M411.976,620.94L431.894,620.94" style="fill:none;fill-rule:nonzero;stroke:black;stroke-width:0.72px;"/>
    </g>
    <g transform="matrix(1.15468,0.666702,0.666702,-1.15468,-377.105,677.497)">
        <path d="M411.976,591.06L431.894,591.06" style="fill:none;fill-rule:nonzero;stroke:black;stroke-width:0.72px;"/>
    </g>
    <g transform="matrix(0,-1.33333,-1.33333,0,1300.66,807.477)">
        <path d="M403.35,606L423.27,606" style="fill:none;fill-rule:nonzero;stroke:black;stroke-width:0.72px;"/>
    </g>
    <g transform="matrix(1.15481,0.666483,0.666483,-1.15481,-385.482,652.449)">
        <path d="M446.843,612.35L461.287,612.35" style="fill:none;fill-rule:nonzero;stroke:black;stroke-width:0.72px;"/>
    </g>
    <g transform="matrix(0.666846,-1.1546,-1.1546,-0.666846,960.551,1170.91)">
        <path d="M444.312,622.02L458.308,622.02" style="fill:none;fill-rule:nonzero;stroke:black;stroke-width:0.72px;"/>
    </g>
    <g transform="matrix(-1.33333,0,0,1.33333,922.376,-543.283)">
        <path d="M337.92,602.88L397.68,602.88" style="fill:none;fill-rule:nonzero;stroke:black;stroke-width:0.72px;"/>
    </g>
    <g transform="matrix(-1.2958,-0.314133,-0.314133,1.2958,1029.81,-413.259)">
        <path d="M337.579,603.813L345.729,603.813L338.484,600.081L339.431,602.286L337.579,603.813Z" style="stroke:black;stroke-width:0.72px;"/>
    </g>
    <g transform="matrix(0,-1.33333,-1.33333,0,1080.74,592.037)">
        <path d="M240.09,604.32L260.01,604.32" style="fill:none;fill-rule:nonzero;stroke:black;stroke-width:0.72px;"/>
    </g>
    <g transform="matrix(1.15468,0.666702,0.666702,-1.15468,-428.155,792.805)">
        <path d="M231.466,619.26L251.384,619.26" style="fill:none;fill-rule:nonzero;stroke:black;stroke-width:0.72px;"/>
    </g>
    <g transform="matrix(1.15468,-0.666702,-0.666702,-1.15468,377.648,1120.06)">
        <path d="M231.466,589.38L251.384,589.38" style="fill:none;fill-rule:nonzero;stroke:black;stroke-width:0.72px;"/>
    </g>
    <g transform="matrix(1.15468,-0.666702,-0.666702,-1.15468,394.488,1103.22)">
        <path d="M214.216,619.26L234.134,619.26" style="fill:none;fill-rule:nonzero;stroke:black;stroke-width:0.72px;"/>
    </g>
    <g transform="matrix(1.15468,0.666702,0.666702,-1.15468,-411.315,809.644)">
        <path d="M214.216,589.38L234.134,589.38" style="fill:none;fill-rule:nonzero;stroke:black;stroke-width:0.72px;"/>
    </g>
    <g transform="matrix(0,-1.33333,-1.33333,0,1034.74,546.037)">
        <path d="M205.59,604.32L225.51,604.32" style="fill:none;fill-rule:nonzero;stroke:black;stroke-width:0.72px;"/>
    </g>
    <g transform="matrix(1.15468,-0.666702,-0.666702,-1.15468,400.651,1126.22)">
        <path d="M248.716,619.26L268.634,619.26" style="fill:none;fill-rule:nonzero;stroke:black;stroke-width:0.72px;"/>
    </g>
    <g transform="matrix(1.15468,0.666702,0.666702,-1.15468,-418.432,783.084)">
        <path d="M248.716,609.3L268.634,609.3" style="fill:none;fill-rule:nonzero;stroke:black;stroke-width:0.72px;"/>
    </g>
    <g transform="matrix(1.15468,-0.666702,-0.666702,-1.15468,397.093,1139.5)">
        <path d="M265.966,609.3L285.884,609.3" style="fill:none;fill-rule:nonzero;stroke:black;stroke-width:0.72px;"/>
    </g>
    <g transform="matrix(1.15465,0.666756,0.666756,-1.15465,-413.679,761.435)">
        <path d="M283.596,610.72L297.834,610.72" style="fill:none;fill-rule:nonzero;stroke:black;stroke-width:0.72px;"/>
    </g>
    <g transform="matrix(0,1.33333,1.33333,0,-490.464,-121.963)">
        <path d="M275.49,606.9L290.25,606.9" style="fill:none;fill-rule:nonzero;stroke:black;stroke-width:0.72px;"/>
    </g>
    <g transform="matrix(0,1.33333,1.33333,0,-485.984,-126.443)">
        <path d="M278.85,606.9L293.61,606.9" style="fill:none;fill-rule:nonzero;stroke:black;stroke-width:0.72px;"/>
    </g>
    <g transform="matrix(0,-1.33333,-1.33333,0,1143.58,575.197)">
        <path d="M257.34,634.2L277.26,634.2" style="fill:none;fill-rule:nonzero;stroke:black;stroke-width:0.72px;"/>
    </g>
    <g transform="matrix(1.15476,-0.666568,-0.666568,-1.15476,422.15,1131)">
        <path d="M266.349,647.71L280.551,647.71" style="fill:none;fill-rule:nonzero;stroke:black;stroke-width:0.72px;"/>
    </g>
    <g transform="matrix(-1.15491,-0.666297,-0.666297,1.15491,1025,-377.34)">
        <path d="M253.856,649.445L269.164,649.445" style="fill:none;fill-rule:nonzero;stroke:black;stroke-width:0.72px;"/>
    </g>
    <g transform="matrix(-1.15495,-0.666239,-0.666239,1.15495,1020.62,-369.488)">
        <path d="M253.986,646.05L267.354,646.05" style="fill:none;fill-rule:nonzero;stroke:black;stroke-width:0.72px;"/>
    </g>
    <g transform="matrix(-1.33333,0,0,1.33333,424.776,-545.843)">
        <path d="M163.92,603.84L198.48,603.84" style="fill:none;fill-rule:nonzero;stroke:black;stroke-width:0.72px;"/>
    </g>
    <g transform="matrix(-1.2958,-0.314133,-0.314133,1.2958,572.641,-470.442)">
        <path d="M163.579,604.773L171.729,604.773L164.484,601.041L165.431,603.246L163.579,604.773Z" style="stroke:black;stroke-width:0.72px;"/>
    </g>
    <g transform="matrix(0,-1.33333,-1.33333,0,868.896,380.197)">
        <path d="M81.21,604.32L101.13,604.32" style="fill:none;fill-rule:nonzero;stroke:black;stroke-width:0.72px;"/>
    </g>
    <g transform="matrix(1.15468,0.666702,0.666702,-1.15468,-456.539,898.731)">
        <path d="M72.586,619.26L92.504,619.26" style="fill:none;fill-rule:nonzero;stroke:black;stroke-width:0.72px;"/>
    </g>
    <g transform="matrix(1.15468,-0.666702,-0.666702,-1.15468,349.264,1014.14)">
        <path d="M72.586,589.38L92.504,589.38" style="fill:none;fill-rule:nonzero;stroke:black;stroke-width:0.72px;"/>
    </g>
    <g transform="matrix(1.15468,-0.666702,-0.666702,-1.15468,366.103,997.296)">
        <path d="M55.336,619.26L75.254,619.26" style="fill:none;fill-rule:nonzero;stroke:black;stroke-width:0.72px;"/>
    </g>
    <g transform="matrix(1.15468,0.666702,0.666702,-1.15468,-439.7,915.57)">
        <path d="M55.336,589.38L75.254,589.38" style="fill:none;fill-rule:nonzero;stroke:black;stroke-width:0.72px;"/>
    </g>
    <g transform="matrix(0,-1.33333,-1.33333,0,822.896,334.197)">
        <path d="M46.71,604.32L66.63,604.32" style="fill:none;fill-rule:nonzero;stroke:black;stroke-width:0.72px;"/>
    </g>
    <g transform="matrix(0,-1.33333,-1.33333,0,938.029,403.09)">
        <path d="M118.3,621.66L133.06,621.66" style="fill:none;fill-rule:nonzero;stroke:black;stroke-width:0.72px;"/>
    </g>
    <g transform="matrix(1.15476,0.666568,0.666568,-1.15476,-464.974,873.631)">
        <path d="M107.469,640.61L121.671,640.61" style="fill:none;fill-rule:nonzero;stroke:black;stroke-width:0.72px;"/>
    </g>
    <g transform="matrix(1.15485,-0.666412,-0.666412,-1.15485,368.513,1033.65)">
        <path d="M107.086,609.3L127.014,609.3" style="fill:none;fill-rule:nonzero;stroke:black;stroke-width:0.72px;"/>
    </g>
    <g transform="matrix(1.15468,-0.666702,-0.666702,-1.15468,385.547,1016.74)">
        <path d="M89.836,639.18L109.754,639.18" style="fill:none;fill-rule:nonzero;stroke:black;stroke-width:0.72px;"/>
    </g>
    <g transform="matrix(1.15468,0.666702,0.666702,-1.15468,-446.817,889.01)">
        <path d="M89.836,609.3L109.754,609.3" style="fill:none;fill-rule:nonzero;stroke:black;stroke-width:0.72px;"/>
    </g>
    <g transform="matrix(0,-1.33333,-1.33333,0,895.456,353.637)">
        <path d="M81.21,624.24L101.13,624.24" style="fill:none;fill-rule:nonzero;stroke:black;stroke-width:0.72px;"/>
    </g>
    <g transform="matrix(0,-1.33333,-1.33333,0,957.016,342.557)">
        <path d="M102.78,651.48L117.42,651.48" style="fill:none;fill-rule:nonzero;stroke:black;stroke-width:0.72px;"/>
    </g>
    <g transform="matrix(0,-1.33333,-1.33333,0,952.536,338.077)">
        <path d="M99.42,651.48L114.06,651.48" style="fill:none;fill-rule:nonzero;stroke:black;stroke-width:0.72px;"/>
    </g>
    <g transform="matrix(1.15446,0.667081,0.667081,-1.15446,-441.186,867.795)">
        <path d="M123.81,609.025L139.02,609.025" style="fill:none;fill-rule:nonzero;stroke:black;stroke-width:0.72px;"/>
    </g>
    <g transform="matrix(1.15461,0.666819,0.666819,-1.15461,-443.156,866.752)">
        <path d="M125.632,612.415L138.888,612.415" style="fill:none;fill-rule:nonzero;stroke:black;stroke-width:0.72px;"/>
    </g>
    <g transform="matrix(0,1.33333,1.33333,0,-655.224,196.877)">
        <path d="M84.48,549.12L118.56,549.12" style="fill:none;fill-rule:nonzero;stroke:black;stroke-width:0.72px;"/>
    </g>
    <g transform="matrix(-0.314133,1.2958,1.2958,0.314133,-585.774,49.7391)">
        <path d="M97.219,536.973L105.369,536.973L98.124,533.241L99.071,535.446L97.219,536.973Z" style="stroke:black;stroke-width:0.72px;"/>
    </g>
    <g transform="matrix(0,-1.33333,-1.33333,0,644.896,575.397)">
        <path d="M70.41,447.12L90.33,447.12" style="fill:none;fill-rule:nonzero;stroke:black;stroke-width:0.72px;"/>
    </g>
    <g transform="matrix(1.15468,0.666702,0.666702,-1.15468,-353.663,934.016)">
        <path d="M61.786,462.06L81.704,462.06" style="fill:none;fill-rule:nonzero;stroke:black;stroke-width:0.72px;"/>
    </g>
    <g transform="matrix(1.15468,-0.666702,-0.666702,-1.15468,242.529,1035.02)">
        <path d="M61.786,432.18L81.704,432.18" style="fill:none;fill-rule:nonzero;stroke:black;stroke-width:0.72px;"/>
    </g>
    <g transform="matrix(1.15468,-0.666702,-0.666702,-1.15468,259.368,1018.18)">
        <path d="M44.536,462.06L64.454,462.06" style="fill:none;fill-rule:nonzero;stroke:black;stroke-width:0.72px;"/>
    </g>
    <g transform="matrix(1.15468,0.666702,0.666702,-1.15468,-336.824,950.854)">
        <path d="M44.536,432.18L64.454,432.18" style="fill:none;fill-rule:nonzero;stroke:black;stroke-width:0.72px;"/>
    </g>
    <g transform="matrix(0,-1.33333,-1.33333,0,598.896,529.397)">
        <path d="M35.91,447.12L55.83,447.12" style="fill:none;fill-rule:nonzero;stroke:black;stroke-width:0.72px;"/>
    </g>
    <g transform="matrix(1.15468,-0.666702,-0.666702,-1.15468,278.812,1037.62)">
        <path d="M79.036,481.98L98.954,481.98" style="fill:none;fill-rule:nonzero;stroke:black;stroke-width:0.72px;"/>
    </g>
    <g transform="matrix(1.15468,0.666702,0.666702,-1.15468,-343.941,924.294)">
        <path d="M79.036,452.1L98.954,452.1" style="fill:none;fill-rule:nonzero;stroke:black;stroke-width:0.72px;"/>
    </g>
    <g transform="matrix(0,-1.33333,-1.33333,0,671.456,548.837)">
        <path d="M70.41,467.04L90.33,467.04" style="fill:none;fill-rule:nonzero;stroke:black;stroke-width:0.72px;"/>
    </g>
    <g transform="matrix(1.15476,0.666568,0.666568,-1.15476,-362.119,908.902)">
        <path d="M96.669,483.41L110.871,483.41" style="fill:none;fill-rule:nonzero;stroke:black;stroke-width:0.72px;"/>
    </g>
    <g transform="matrix(0,-1.33333,-1.33333,0,733.016,537.757)">
        <path d="M91.98,494.28L106.62,494.28" style="fill:none;fill-rule:nonzero;stroke:black;stroke-width:0.72px;"/>
    </g>
    <g transform="matrix(0,-1.33333,-1.33333,0,728.536,533.277)">
        <path d="M88.62,494.28L103.26,494.28" style="fill:none;fill-rule:nonzero;stroke:black;stroke-width:0.72px;"/>
    </g>
    <g transform="matrix(1.15431,-0.667337,-0.667337,-1.15431,285.386,1060.58)">
        <path d="M119.164,482.04L128.036,482.04" style="fill:none;fill-rule:nonzero;stroke:black;stroke-width:0.72px;"/>
    </g>
    <g transform="matrix(1.15468,-0.666702,-0.666702,-1.15468,261.973,1054.46)">
        <path d="M96.286,452.1L116.204,452.1" style="fill:none;fill-rule:nonzero;stroke:black;stroke-width:0.72px;"/>
    </g>
    <g transform="matrix(1.15465,0.666756,0.666756,-1.15465,-339.184,902.659)">
        <path d="M113.916,453.52L128.154,453.52" style="fill:none;fill-rule:nonzero;stroke:black;stroke-width:0.72px;"/>
    </g>
    <g transform="matrix(0,1.33333,1.33333,0,-507.104,313.877)">
        <path d="M105.81,449.7L120.57,449.7" style="fill:none;fill-rule:nonzero;stroke:black;stroke-width:0.72px;"/>
    </g>
    <g transform="matrix(0,1.33333,1.33333,0,-502.624,309.397)">
        <path d="M109.17,449.7L123.93,449.7" style="fill:none;fill-rule:nonzero;stroke:black;stroke-width:0.72px;"/>
    </g>
    <g transform="matrix(1.15496,-0.66621,-0.66621,-1.15496,267.948,1077.6)">
        <path d="M136.447,452.175L145.313,452.175" style="fill:none;fill-rule:nonzero;stroke:black;stroke-width:0.72px;"/>
    </g>
    <g transform="matrix(1.33333,0,0,1.33333,-58.424,-180.403)">
        <path d="M169.92,466.8L226.8,466.8" style="fill:none;fill-rule:nonzero;stroke:black;stroke-width:0.72px;"/>
    </g>
    <g transform="matrix(1.2958,0.314133,0.314133,-1.2958,-196.698,976.875)">
        <path d="M218.539,467.733L226.689,467.733L219.444,464.001L220.391,466.206L218.539,467.733Z" style="stroke:black;stroke-width:0.72px;"/>
    </g>
    <g transform="matrix(0,-1.33333,-1.33333,0,892.576,825.637)">
        <path d="M257.13,446.16L277.05,446.16" style="fill:none;fill-rule:nonzero;stroke:black;stroke-width:0.72px;"/>
    </g>
    <g transform="matrix(1.15468,0.666702,0.666702,-1.15468,-319.665,809.701)">
        <path d="M248.506,461.1L268.424,461.1" style="fill:none;fill-rule:nonzero;stroke:black;stroke-width:0.72px;"/>
    </g>
    <g transform="matrix(1.15468,-0.666702,-0.666702,-1.15468,275.247,1159.68)">
        <path d="M248.506,431.22L268.424,431.22" style="fill:none;fill-rule:nonzero;stroke:black;stroke-width:0.72px;"/>
    </g>
    <g transform="matrix(1.15468,-0.666702,-0.666702,-1.15468,292.086,1142.84)">
        <path d="M231.256,461.1L251.174,461.1" style="fill:none;fill-rule:nonzero;stroke:black;stroke-width:0.72px;"/>
    </g>
    <g transform="matrix(1.15468,0.666702,0.666702,-1.15468,-302.825,826.539)">
        <path d="M231.256,431.22L251.174,431.22" style="fill:none;fill-rule:nonzero;stroke:black;stroke-width:0.72px;"/>
    </g>
    <g transform="matrix(0,-1.33333,-1.33333,0,846.576,779.637)">
        <path d="M222.63,446.16L242.55,446.16" style="fill:none;fill-rule:nonzero;stroke:black;stroke-width:0.72px;"/>
    </g>
    <g transform="matrix(1.15468,-0.666702,-0.666702,-1.15468,311.531,1162.28)">
        <path d="M265.756,481.02L285.674,481.02" style="fill:none;fill-rule:nonzero;stroke:black;stroke-width:0.72px;"/>
    </g>
    <g transform="matrix(1.15468,0.666702,0.666702,-1.15468,-309.943,799.979)">
        <path d="M265.756,451.14L285.674,451.14" style="fill:none;fill-rule:nonzero;stroke:black;stroke-width:0.72px;"/>
    </g>
    <g transform="matrix(0,-1.33333,-1.33333,0,919.136,799.077)">
        <path d="M257.13,466.08L277.05,466.08" style="fill:none;fill-rule:nonzero;stroke:black;stroke-width:0.72px;"/>
    </g>
    <g transform="matrix(1.15468,-0.666702,-0.666702,-1.15468,294.691,1179.12)">
        <path d="M283.006,451.14L302.924,451.14" style="fill:none;fill-rule:nonzero;stroke:black;stroke-width:0.72px;"/>
    </g>
    <g transform="matrix(1.15465,0.666756,0.666756,-1.15465,-305.18,778.334)">
        <path d="M300.636,452.56L314.874,452.56" style="fill:none;fill-rule:nonzero;stroke:black;stroke-width:0.72px;"/>
    </g>
    <g transform="matrix(0,1.33333,1.33333,0,-256.864,66.1968)">
        <path d="M292.53,448.74L307.29,448.74" style="fill:none;fill-rule:nonzero;stroke:black;stroke-width:0.72px;"/>
    </g>
    <g transform="matrix(0,1.33333,1.33333,0,-252.384,61.7168)">
        <path d="M295.89,448.74L310.65,448.74" style="fill:none;fill-rule:nonzero;stroke:black;stroke-width:0.72px;"/>
    </g>
    <g transform="matrix(1.1547,0.666669,0.666669,-1.1547,-328.099,784.487)">
        <path d="M283.37,482.38L297.85,482.38" style="fill:none;fill-rule:nonzero;stroke:black;stroke-width:0.72px;"/>
    </g>
    <g transform="matrix(0,-1.33333,-1.33333,0,980.696,787.997)">
        <path d="M278.7,493.32L293.34,493.32" style="fill:none;fill-rule:nonzero;stroke:black;stroke-width:0.72px;"/>
    </g>
    <g transform="matrix(0,-1.33333,-1.33333,0,976.216,783.517)">
        <path d="M275.34,493.32L289.98,493.32" style="fill:none;fill-rule:nonzero;stroke:black;stroke-width:0.72px;"/>
    </g>
    <g transform="matrix(1.15496,-0.66621,-0.66621,-1.15496,300.614,1202.16)">
        <path d="M323.167,451.215L332.033,451.215" style="fill:none;fill-rule:nonzero;stroke:black;stroke-width:0.72px;"/>
    </g>
    <g transform="matrix(1.33333,0,0,1.33333,-58.424,-182.963)">
        <path d="M352.32,467.76L463.44,467.76" style="fill:none;fill-rule:nonzero;stroke:black;stroke-width:0.72px;"/>
    </g>
    <g transform="matrix(1.2958,0.314133,0.314133,-1.2958,-188.117,902.502)">
        <path d="M455.179,468.693L463.329,468.693L456.084,464.961L457.031,467.166L455.179,468.693Z" style="stroke:black;stroke-width:0.72px;"/>
    </g>
    <g transform="matrix(-1.15457,0.6669,0.6669,1.15457,561.815,-397.53)">
        <path d="M372.218,485.875L386.872,485.875" style="fill:none;fill-rule:nonzero;stroke:black;stroke-width:0.72px;"/>
    </g>
    <g transform="matrix(1.15493,0.666269,0.666269,-1.15493,-312.36,716.566)">
        <path d="M384.961,486.07L398.849,486.07" style="fill:none;fill-rule:nonzero;stroke:black;stroke-width:0.72px;"/>
    </g>
    <g transform="matrix(0,1.33333,1.33333,0,109.736,-162.003)">
        <path d="M508.68,396.84L537.24,396.84" style="fill:none;fill-rule:nonzero;stroke:black;stroke-width:0.72px;"/>
    </g>
    <g transform="matrix(-0.314133,1.2958,1.2958,0.314133,302.283,-250.034)">
        <path d="M518.659,387.453L526.809,387.453L519.564,383.721L520.511,385.926L518.659,387.453Z" style="stroke:black;stroke-width:0.72px;"/>
    </g>
    <g transform="matrix(1.33333,0,0,1.33333,-58.424,-946.483)">
        <path d="M299.76,754.08L333.84,754.08" style="fill:none;fill-rule:nonzero;stroke:black;stroke-width:0.72px;"/>
    </g>
    <g transform="matrix(1.33333,0,0,1.33333,-58.424,-954.163)">
        <path d="M299.76,756.96L333.84,756.96" style="fill:none;fill-rule:nonzero;stroke:black;stroke-width:0.72px;"/>
    </g>
    <g transform="matrix(1.33333,0,0,1.33333,-58.424,-950.323)">
        <path d="M329.28,751.92L337.2,755.52L329.28,759.12" style="fill:none;fill-rule:nonzero;stroke:black;stroke-width:0.72px;"/>
    </g>
    <g transform="matrix(-1.15505,-0.666053,-0.666053,1.15505,1583.34,296.999)">
        <path d="M531.518,452.565L545.752,452.565" style="fill:none;fill-rule:nonzero;stroke:black;stroke-width:0.72px;"/>
    </g>
    <g transform="matrix(1.15468,-0.666702,-0.666702,-1.15468,335.939,1333.05)">
        <path d="M513.886,451.14L533.804,451.14" style="fill:none;fill-rule:nonzero;stroke:black;stroke-width:0.72px;"/>
    </g>
    <g transform="matrix(0.000903342,1.33333,1.33333,-0.000903342,50.5034,-241.244)">
        <path d="M523.415,448.74L538.175,448.74" style="fill:none;fill-rule:nonzero;stroke:black;stroke-width:0.72px;"/>
    </g>
    <g transform="matrix(0.000903342,1.33333,1.33333,-0.000903342,54.9803,-245.724)">
        <path d="M526.775,448.74L541.535,448.74" style="fill:none;fill-rule:nonzero;stroke:black;stroke-width:0.72px;"/>
    </g>
    <g transform="matrix(1.15496,-0.66621,-0.66621,-1.15496,341.796,1355.98)">
        <path d="M554.047,451.215L562.913,451.215" style="fill:none;fill-rule:nonzero;stroke:black;stroke-width:0.72px;"/>
    </g>
    <g transform="matrix(0,-1.33333,-1.33333,0,1200.42,1133.48)">
        <path d="M488.01,446.16L507.93,446.16" style="fill:none;fill-rule:nonzero;stroke:black;stroke-width:0.72px;"/>
    </g>
    <g transform="matrix(1.15468,0.666702,0.666702,-1.15468,-278.417,655.772)">
        <path d="M479.386,461.1L499.304,461.1" style="fill:none;fill-rule:nonzero;stroke:black;stroke-width:0.72px;"/>
    </g>
    <g transform="matrix(1.15468,-0.666702,-0.666702,-1.15468,316.494,1313.61)">
        <path d="M479.386,431.22L499.304,431.22" style="fill:none;fill-rule:nonzero;stroke:black;stroke-width:0.72px;"/>
    </g>
    <g transform="matrix(1.15468,-0.666702,-0.666702,-1.15468,333.334,1296.77)">
        <path d="M462.136,461.1L482.054,461.1" style="fill:none;fill-rule:nonzero;stroke:black;stroke-width:0.72px;"/>
    </g>
    <g transform="matrix(1.15468,0.666702,0.666702,-1.15468,-261.578,672.611)">
        <path d="M462.136,431.22L482.054,431.22" style="fill:none;fill-rule:nonzero;stroke:black;stroke-width:0.72px;"/>
    </g>
    <g transform="matrix(0,-1.33333,-1.33333,0,1154.42,1087.48)">
        <path d="M453.51,446.16L473.43,446.16" style="fill:none;fill-rule:nonzero;stroke:black;stroke-width:0.72px;"/>
    </g>
    <g transform="matrix(1.15468,0.666702,0.666702,-1.15468,-285.534,629.212)">
        <path d="M513.886,481.02L533.804,481.02" style="fill:none;fill-rule:nonzero;stroke:black;stroke-width:0.72px;"/>
    </g>
    <g transform="matrix(1.15468,-0.666702,-0.666702,-1.15468,352.778,1316.21)">
        <path d="M496.636,481.02L516.554,481.02" style="fill:none;fill-rule:nonzero;stroke:black;stroke-width:0.72px;"/>
    </g>
    <g transform="matrix(0,-1.33333,-1.33333,0,1226.98,1106.92)">
        <path d="M488.01,466.08L507.93,466.08" style="fill:none;fill-rule:nonzero;stroke:black;stroke-width:0.72px;"/>
    </g>
    <g transform="matrix(-1.15465,0.666746,0.666746,1.15465,1011.78,-474.976)">
        <path d="M548.756,469.715L563.294,469.715" style="fill:none;fill-rule:nonzero;stroke:black;stroke-width:0.72px;"/>
    </g>
    <g transform="matrix(1.15485,0.666412,0.666412,-1.15485,-275.765,619.723)">
        <path d="M531.136,471.06L551.064,471.06" style="fill:none;fill-rule:nonzero;stroke:black;stroke-width:0.72px;"/>
    </g>
    <g transform="matrix(0,-1.33333,-1.33333,0,1298.34,1132.04)">
        <path d="M526.77,483.42L541.53,483.42" style="fill:none;fill-rule:nonzero;stroke:black;stroke-width:0.72px;"/>
    </g>
    <g transform="matrix(0,-1.33333,-1.33333,0,1293.86,1127.56)">
        <path d="M523.41,483.42L538.17,483.42" style="fill:none;fill-rule:nonzero;stroke:black;stroke-width:0.72px;"/>
    </g>
    <g transform="matrix(-1.15468,-0.666702,-0.666702,1.15468,1502.77,279.702)">
        <path d="M496.636,451.14L516.554,451.14" style="fill:none;fill-rule:nonzero;stroke:black;stroke-width:0.72px;"/>
    </g>
</svg>
