<?xml version="1.0" encoding="UTF-8" standalone="no"?>
<!DOCTYPE svg PUBLIC "-//W3C//DTD SVG 1.1//EN" "http://www.w3.org/Graphics/SVG/1.1/DTD/svg11.dtd">
<svg width="100%" height="100%" viewBox="0 0 620 515" version="1.1" xmlns="http://www.w3.org/2000/svg" xmlns:xlink="http://www.w3.org/1999/xlink" xml:space="preserve" xmlns:serif="http://www.serif.com/" style="fill-rule:evenodd;clip-rule:evenodd;stroke-linecap:round;stroke-linejoin:round;stroke-miterlimit:10;">
    <g transform="matrix(1.33333,0,0,1.33333,-66.5378,-85.6554)">
        <text x="63.36px" y="106.32px" style="font-family:'ArialMT', 'Arial', sans-serif;font-size:10px;">C</text>
    </g>
    <g transform="matrix(1.33333,0,0,1.33333,-66.5378,-85.6554)">
        <text x="51.84px" y="106.32px" style="font-family:'ArialMT', 'Arial', sans-serif;font-size:10px;">H</text>
        <text x="59.04px" y="108.96px" style="font-family:'ArialMT', 'Arial', sans-serif;font-size:8px;">3</text>
    </g>
    <g transform="matrix(1.33333,0,0,1.33333,-66.5378,-85.6554)">
        <text x="201.36px" y="106.32px" style="font-family:'ArialMT', 'Arial', sans-serif;font-size:10px;">CH</text>
        <text x="215.76px" y="108.96px" style="font-family:'ArialMT', 'Arial', sans-serif;font-size:8px;">3</text>
    </g>
    <g transform="matrix(1.33333,0,0,1.33333,-66.5378,-85.6554)">
        <text x="80.4px" y="76.56px" style="font-family:'ArialMT', 'Arial', sans-serif;font-size:10px;">CH</text>
        <text x="94.807px" y="79.2px" style="font-family:'ArialMT', 'Arial', sans-serif;font-size:8px;">3</text>
        <text x="114.96px" y="76.56px" style="font-family:'ArialMT', 'Arial', sans-serif;font-size:10px;"><tspan x="114.96px " y="76.56px ">C</tspan>H</text>
        <text x="129.367px" y="79.2px" style="font-family:'ArialMT', 'Arial', sans-serif;font-size:8px;">3</text>
    </g>
    <g transform="matrix(1.33333,0,0,1.33333,-66.5378,-85.6554)">
        <text x="114.72px" y="116.4px" style="font-family:'ArialMT', 'Arial', sans-serif;font-size:10px;">O<tspan x="122.64px " y="116.4px ">H</tspan></text>
    </g>
    <g transform="matrix(1.33333,0,0,1.33333,-66.5378,-85.6554)">
        <text x="149.28px" y="76.56px" style="font-family:'ArialMT', 'Arial', sans-serif;font-size:10px;">O</text>
    </g>
    <g transform="matrix(1.33333,0,0,1.33333,-66.5378,-85.6554)">
        <text x="184.08px" y="76.56px" style="font-family:'ArialMT', 'Arial', sans-serif;font-size:10px;">CH</text>
        <text x="198.48px" y="79.2px" style="font-family:'ArialMT', 'Arial', sans-serif;font-size:8px;">3</text>
    </g>
    <g transform="matrix(1.33333,0,0,1.33333,-66.5378,-85.6554)">
        <text x="111.12px" y="116.16px" style="font-family:'ArialMT', 'Arial', sans-serif;font-size:10px;">:</text>
    </g>
    <g transform="matrix(0.0115996,1.33328,-1.33328,0.0115996,-66.5378,-85.6554)">
        <text x="118.45px" y="-115.614px" style="font-family:'ArialMT', 'Arial', sans-serif;font-size:10px;">:</text>
    </g>
    <g transform="matrix(1.33333,0,0,1.33333,-66.5378,-85.6554)">
        <text x="282.24px" y="106.32px" style="font-family:'ArialMT', 'Arial', sans-serif;font-size:10px;">C</text>
    </g>
    <g transform="matrix(1.33333,0,0,1.33333,-66.5378,-85.6554)">
        <text x="270.72px" y="106.32px" style="font-family:'ArialMT', 'Arial', sans-serif;font-size:10px;">H</text>
        <text x="277.92px" y="108.96px" style="font-family:'ArialMT', 'Arial', sans-serif;font-size:8px;">3</text>
    </g>
    <g transform="matrix(1.33333,0,0,1.33333,-66.5378,-85.6554)">
        <text x="350.88px" y="106.32px" style="font-family:'ArialMT', 'Arial', sans-serif;font-size:10px;">O</text>
        <text x="358.8px" y="99.36px" style="font-family:'ArialMT', 'Arial', sans-serif;font-size:8px;">+</text>
    </g>
    <g transform="matrix(1.33333,0,0,1.33333,-66.5378,-85.6554)">
        <text x="299.28px" y="76.56px" style="font-family:'ArialMT', 'Arial', sans-serif;font-size:10px;">CH</text>
        <text x="313.687px" y="79.2px" style="font-family:'ArialMT', 'Arial', sans-serif;font-size:8px;">3</text>
        <text x="333.84px" y="76.56px" style="font-family:'ArialMT', 'Arial', sans-serif;font-size:10px;"><tspan x="333.84px " y="76.56px ">C</tspan>H</text>
        <text x="348.247px" y="79.2px" style="font-family:'ArialMT', 'Arial', sans-serif;font-size:8px;">3</text>
    </g>
    <g transform="matrix(1.33333,0,0,1.33333,-66.5378,-85.6554)">
        <text x="368.4px" y="96.48px" style="font-family:'ArialMT', 'Arial', sans-serif;font-size:10px;">H</text>
    </g>
    <g transform="matrix(1.33333,0,0,1.33333,-66.5378,-85.6554)">
        <text x="422.4px" y="105.6px" style="font-family:'ArialMT', 'Arial', sans-serif;font-size:10px;">C</text>
    </g>
    <g transform="matrix(1.33333,0,0,1.33333,-66.5378,-85.6554)">
        <text x="410.88px" y="105.6px" style="font-family:'ArialMT', 'Arial', sans-serif;font-size:10px;">H</text>
        <text x="418.08px" y="108.24px" style="font-family:'ArialMT', 'Arial', sans-serif;font-size:8px;">2</text>
    </g>
    <g transform="matrix(1.33333,0,0,1.33333,-66.5378,-85.6554)">
        <text x="491.28px" y="105.6px" style="font-family:'ArialMT', 'Arial', sans-serif;font-size:10px;">CH</text>
        <text x="505.68px" y="108.24px" style="font-family:'ArialMT', 'Arial', sans-serif;font-size:8px;">3</text>
    </g>
    <g transform="matrix(1.33333,0,0,1.33333,-66.5378,-85.6554)">
        <text x="439.2px" y="75.84px" style="font-family:'ArialMT', 'Arial', sans-serif;font-size:10px;">O</text>
        <text x="447.12px" y="68.88px" style="font-family:'ArialMT', 'Arial', sans-serif;font-size:8px;">–</text>
    </g>
    <g transform="matrix(1.33333,0,0,1.33333,-66.5378,-85.6554)">
        <text x="474px" y="75.84px" style="font-family:'ArialMT', 'Arial', sans-serif;font-size:10px;">CH</text>
        <text x="488.4px" y="78.48px" style="font-family:'ArialMT', 'Arial', sans-serif;font-size:8px;">3</text>
    </g>
    <g transform="matrix(1.33333,0,0,1.33333,-66.5378,-85.6554)">
        <text x="391.2px" y="97.68px" style="font-family:'ArialMT', 'Arial', sans-serif;font-size:18px;">+</text>
    </g>
    <g transform="matrix(1.33333,0,0,1.33333,-66.5378,-85.6554)">
        <text x="424.8px" y="203.52px" style="font-family:'ArialMT', 'Arial', sans-serif;font-size:10px;">C</text>
    </g>
    <g transform="matrix(1.33333,0,0,1.33333,-66.5378,-85.6554)">
        <text x="413.28px" y="203.52px" style="font-family:'ArialMT', 'Arial', sans-serif;font-size:10px;">H</text>
        <text x="420.48px" y="206.16px" style="font-family:'ArialMT', 'Arial', sans-serif;font-size:8px;">3</text>
    </g>
    <g transform="matrix(1.33333,0,0,1.33333,-66.5378,-85.6554)">
        <text x="493.68px" y="203.52px" style="font-family:'ArialMT', 'Arial', sans-serif;font-size:10px;">CH</text>
        <text x="508.08px" y="206.16px" style="font-family:'ArialMT', 'Arial', sans-serif;font-size:8px;">3</text>
    </g>
    <g transform="matrix(1.33333,0,0,1.33333,-66.5378,-85.6554)">
        <text x="441.6px" y="173.76px" style="font-family:'ArialMT', 'Arial', sans-serif;font-size:10px;">O</text>
    </g>
    <g transform="matrix(1.33333,0,0,1.33333,-66.5378,-85.6554)">
        <text x="476.4px" y="173.76px" style="font-family:'ArialMT', 'Arial', sans-serif;font-size:10px;">CH</text>
        <text x="490.8px" y="176.4px" style="font-family:'ArialMT', 'Arial', sans-serif;font-size:8px;">3</text>
    </g>
    <g transform="matrix(1.33333,0,0,1.33333,-66.5378,-85.6554)">
        <text x="282.48px" y="205.68px" style="font-family:'ArialMT', 'Arial', sans-serif;font-size:10px;">C</text>
    </g>
    <g transform="matrix(1.33333,0,0,1.33333,-66.5378,-85.6554)">
        <text x="270.96px" y="205.68px" style="font-family:'ArialMT', 'Arial', sans-serif;font-size:10px;">H</text>
        <text x="278.16px" y="208.32px" style="font-family:'ArialMT', 'Arial', sans-serif;font-size:8px;">3</text>
    </g>
    <g transform="matrix(1.33333,0,0,1.33333,-66.5378,-85.6554)">
        <text x="351.12px" y="205.68px" style="font-family:'ArialMT', 'Arial', sans-serif;font-size:10px;">O</text>
    </g>
    <g transform="matrix(1.33333,0,0,1.33333,-66.5378,-85.6554)">
        <text x="299.52px" y="175.92px" style="font-family:'ArialMT', 'Arial', sans-serif;font-size:10px;">CH</text>
        <text x="313.927px" y="178.56px" style="font-family:'ArialMT', 'Arial', sans-serif;font-size:8px;">3</text>
        <text x="334.08px" y="175.92px" style="font-family:'ArialMT', 'Arial', sans-serif;font-size:10px;"><tspan x="334.08px " y="175.92px ">C</tspan>H</text>
        <text x="348.487px" y="178.56px" style="font-family:'ArialMT', 'Arial', sans-serif;font-size:8px;">3</text>
    </g>
    <g transform="matrix(1.33333,0,0,1.33333,-66.5378,-85.6554)">
        <text x="138.72px" y="205.44px" style="font-family:'ArialMT', 'Arial', sans-serif;font-size:10px;">C</text>
    </g>
    <g transform="matrix(1.33333,0,0,1.33333,-66.5378,-85.6554)">
        <text x="127.2px" y="205.44px" style="font-family:'ArialMT', 'Arial', sans-serif;font-size:10px;">H</text>
        <text x="134.4px" y="208.08px" style="font-family:'ArialMT', 'Arial', sans-serif;font-size:8px;">3</text>
    </g>
    <g transform="matrix(1.33333,0,0,1.33333,-66.5378,-85.6554)">
        <text x="207.36px" y="205.44px" style="font-family:'ArialMT', 'Arial', sans-serif;font-size:10px;">O</text>
    </g>
    <g transform="matrix(1.33333,0,0,1.33333,-66.5378,-85.6554)">
        <text x="155.76px" y="175.68px" style="font-family:'ArialMT', 'Arial', sans-serif;font-size:10px;">CH</text>
        <text x="170.167px" y="178.32px" style="font-family:'ArialMT', 'Arial', sans-serif;font-size:8px;">3</text>
        <text x="190.32px" y="175.68px" style="font-family:'ArialMT', 'Arial', sans-serif;font-size:10px;"><tspan x="190.32px " y="175.68px ">C</tspan>H</text>
        <text x="204.727px" y="178.32px" style="font-family:'ArialMT', 'Arial', sans-serif;font-size:8px;">3</text>
    </g>
    <g transform="matrix(1.33333,0,0,1.33333,-66.5378,-85.6554)">
        <text x="155.52px" y="215.52px" style="font-family:'ArialMT', 'Arial', sans-serif;font-size:10px;">O<tspan x="163.44px " y="215.52px ">H</tspan></text>
    </g>
    <g transform="matrix(0.0278662,-1.33304,1.33304,0.0278662,-66.5378,-85.6554)">
        <text x="-216.636px" y="165.124px" style="font-family:'ArialMT', 'Arial', sans-serif;font-size:10px;">:</text>
    </g>
    <g transform="matrix(1.33333,0,0,1.33333,-66.5378,-85.6554)">
        <text x="152.16px" y="215.28px" style="font-family:'ArialMT', 'Arial', sans-serif;font-size:10px;">:</text>
    </g>
    <g transform="matrix(1.33333,0,0,1.33333,-66.5378,-85.6554)">
        <text x="138px" y="331.2px" style="font-family:'ArialMT', 'Arial', sans-serif;font-size:10px;">C</text>
    </g>
    <g transform="matrix(1.33333,0,0,1.33333,-66.5378,-85.6554)">
        <text x="126.48px" y="331.2px" style="font-family:'ArialMT', 'Arial', sans-serif;font-size:10px;">H</text>
        <text x="133.68px" y="333.84px" style="font-family:'ArialMT', 'Arial', sans-serif;font-size:8px;">3</text>
    </g>
    <g transform="matrix(1.33333,0,0,1.33333,-66.5378,-85.6554)">
        <text x="172.32px" y="331.2px" style="font-family:'ArialMT', 'Arial', sans-serif;font-size:10px;">CH</text>
        <text x="186.72px" y="333.84px" style="font-family:'ArialMT', 'Arial', sans-serif;font-size:8px;">3</text>
    </g>
    <g transform="matrix(1.33333,0,0,1.33333,-66.5378,-85.6554)">
        <text x="154.8px" y="301.44px" style="font-family:'ArialMT', 'Arial', sans-serif;font-size:10px;">O</text>
        <text x="162.72px" y="294.48px" style="font-family:'ArialMT', 'Arial', sans-serif;font-size:8px;">+</text>
    </g>
    <g transform="matrix(1.33333,0,0,1.33333,-66.5378,-85.6554)">
        <text x="172.32px" y="291.36px" style="font-family:'ArialMT', 'Arial', sans-serif;font-size:10px;">H</text>
    </g>
    <g transform="matrix(1.33333,0,0,1.33333,-66.5378,-85.6554)">
        <text x="228.96px" y="331.92px" style="font-family:'ArialMT', 'Arial', sans-serif;font-size:10px;">C</text>
    </g>
    <g transform="matrix(1.33333,0,0,1.33333,-66.5378,-85.6554)">
        <text x="217.44px" y="331.92px" style="font-family:'ArialMT', 'Arial', sans-serif;font-size:10px;">H</text>
        <text x="224.64px" y="334.56px" style="font-family:'ArialMT', 'Arial', sans-serif;font-size:8px;">2</text>
    </g>
    <g transform="matrix(1.33333,0,0,1.33333,-66.5378,-85.6554)">
        <text x="263.28px" y="331.92px" style="font-family:'ArialMT', 'Arial', sans-serif;font-size:10px;">CH</text>
        <text x="277.68px" y="334.56px" style="font-family:'ArialMT', 'Arial', sans-serif;font-size:8px;">3</text>
    </g>
    <g transform="matrix(1.33333,0,0,1.33333,-66.5378,-85.6554)">
        <text x="245.76px" y="302.16px" style="font-family:'ArialMT', 'Arial', sans-serif;font-size:10px;">O</text>
        <text x="253.68px" y="295.2px" style="font-family:'ArialMT', 'Arial', sans-serif;font-size:8px;">–</text>
    </g>
    <g transform="matrix(1.33333,0,0,1.33333,-66.5378,-85.6554)">
        <text x="200.16px" y="318.72px" style="font-family:'ArialMT', 'Arial', sans-serif;font-size:18px;">+</text>
    </g>
    <g transform="matrix(1.33333,0,0,1.33333,-66.5378,-85.6554)">
        <text x="228.72px" y="443.76px" style="font-family:'ArialMT', 'Arial', sans-serif;font-size:10px;">C</text>
    </g>
    <g transform="matrix(1.33333,0,0,1.33333,-66.5378,-85.6554)">
        <text x="217.2px" y="443.76px" style="font-family:'ArialMT', 'Arial', sans-serif;font-size:10px;">H</text>
        <text x="224.4px" y="446.4px" style="font-family:'ArialMT', 'Arial', sans-serif;font-size:8px;">3</text>
    </g>
    <g transform="matrix(1.33333,0,0,1.33333,-66.5378,-85.6554)">
        <text x="263.04px" y="443.76px" style="font-family:'ArialMT', 'Arial', sans-serif;font-size:10px;">CH</text>
        <text x="277.44px" y="446.4px" style="font-family:'ArialMT', 'Arial', sans-serif;font-size:8px;">3</text>
    </g>
    <g transform="matrix(1.33333,0,0,1.33333,-66.5378,-85.6554)">
        <text x="245.52px" y="414px" style="font-family:'ArialMT', 'Arial', sans-serif;font-size:10px;">O</text>
    </g>
    <g transform="matrix(1.33333,0,0,1.33333,-66.5378,-85.6554)">
        <text x="137.76px" y="444px" style="font-family:'ArialMT', 'Arial', sans-serif;font-size:10px;">C</text>
    </g>
    <g transform="matrix(1.33333,0,0,1.33333,-66.5378,-85.6554)">
        <text x="126.24px" y="444px" style="font-family:'ArialMT', 'Arial', sans-serif;font-size:10px;">H</text>
        <text x="133.44px" y="446.64px" style="font-family:'ArialMT', 'Arial', sans-serif;font-size:8px;">3</text>
    </g>
    <g transform="matrix(1.33333,0,0,1.33333,-66.5378,-85.6554)">
        <text x="172.08px" y="444px" style="font-family:'ArialMT', 'Arial', sans-serif;font-size:10px;">CH</text>
        <text x="186.48px" y="446.64px" style="font-family:'ArialMT', 'Arial', sans-serif;font-size:8px;">3</text>
    </g>
    <g transform="matrix(1.33333,0,0,1.33333,-66.5378,-85.6554)">
        <text x="154.56px" y="414.24px" style="font-family:'ArialMT', 'Arial', sans-serif;font-size:10px;">O</text>
    </g>
    <g transform="matrix(-1.15485,0.666401,0.666401,1.15485,-369.753,-870.66)">
        <path d="M70.537,745.79L85.223,745.79" style="fill:none;fill-rule:nonzero;stroke:black;stroke-width:0.72px;"/>
    </g>
    <g transform="matrix(-1.15468,-0.666702,-0.666702,1.15468,660.858,-753.458)">
        <path d="M82.906,744.48L102.824,744.48" style="fill:none;fill-rule:nonzero;stroke:black;stroke-width:0.72px;"/>
    </g>
    <g transform="matrix(-1.15458,-0.666876,-0.666876,1.15458,667.098,-759.487)">
        <path d="M86.248,747.39L102.842,747.39" style="fill:none;fill-rule:nonzero;stroke:black;stroke-width:0.72px;"/>
    </g>
    <g transform="matrix(-1.15468,0.666702,0.666702,1.15468,-288.917,-888.786)">
        <path d="M100.156,744.48L120.074,744.48" style="fill:none;fill-rule:nonzero;stroke:black;stroke-width:0.72px;"/>
    </g>
    <g transform="matrix(-1.15468,0.666702,0.666702,1.15468,-203.08,-911.787)">
        <path d="M134.656,744.48L154.574,744.48" style="fill:none;fill-rule:nonzero;stroke:black;stroke-width:0.72px;"/>
    </g>
    <g transform="matrix(1.15468,0.666702,0.666702,-1.15468,-540.13,818.986)">
        <path d="M117.406,744.48L137.324,744.48" style="fill:none;fill-rule:nonzero;stroke:black;stroke-width:0.72px;"/>
    </g>
    <g transform="matrix(-1.15468,0.666702,0.666702,1.15468,-117.219,-934.795)">
        <path d="M169.166,744.48L189.084,744.48" style="fill:none;fill-rule:nonzero;stroke:black;stroke-width:0.72px;"/>
    </g>
    <g transform="matrix(-1.15478,0.666528,0.666528,1.15478,-123.204,-940.956)">
        <path d="M169.138,747.39L185.742,747.39" style="fill:none;fill-rule:nonzero;stroke:black;stroke-width:0.72px;"/>
    </g>
    <g transform="matrix(1.15485,0.666412,0.666412,-1.15485,-533.777,796.153)">
        <path d="M151.906,744.48L171.834,744.48" style="fill:none;fill-rule:nonzero;stroke:black;stroke-width:0.72px;"/>
    </g>
    <g transform="matrix(1.15444,0.667113,0.667113,-1.15444,-529.356,774.017)">
        <path d="M186.77,745.805L201.38,745.805" style="fill:none;fill-rule:nonzero;stroke:black;stroke-width:0.72px;"/>
    </g>
    <g transform="matrix(0,-1.33333,-1.33333,0,1054.86,140.145)">
        <path d="M76.89,756.81L91.59,756.81" style="fill:none;fill-rule:nonzero;stroke:black;stroke-width:0.72px;"/>
    </g>
    <g transform="matrix(0,-1.33333,-1.33333,0,1100.86,186.145)">
        <path d="M111.39,756.81L126.09,756.81" style="fill:none;fill-rule:nonzero;stroke:black;stroke-width:0.72px;"/>
    </g>
    <g transform="matrix(0,1.33333,1.33333,0,-897.618,-110.815)">
        <path d="M111.33,742.05L126.15,742.05" style="fill:none;fill-rule:nonzero;stroke:black;stroke-width:0.72px;"/>
    </g>
    <g transform="matrix(0.000907029,-1.33333,-1.33333,-0.000907029,1148.97,235.078)">
        <path d="M147.575,756.81L162.275,756.81" style="fill:none;fill-rule:nonzero;stroke:black;stroke-width:0.72px;"/>
    </g>
    <g transform="matrix(0.000907029,-1.33333,-1.33333,-0.000907029,1144.49,230.598)">
        <path d="M144.215,756.81L158.915,756.81" style="fill:none;fill-rule:nonzero;stroke:black;stroke-width:0.72px;"/>
    </g>
    <g transform="matrix(0,-1.33333,-1.33333,0,1192.88,278.158)">
        <path d="M180.4,756.81L195.1,756.81" style="fill:none;fill-rule:nonzero;stroke:black;stroke-width:0.72px;"/>
    </g>
    <g transform="matrix(1.33333,0,0,1.33333,-66.5378,-915.095)">
        <path d="M112.08,738.96L110.64,738.24L109.2,737.04L108.24,735.6L107.52,733.92L107.52,733.2L107.28,732.24L107.52,731.04L107.76,730.08L108.24,728.88L108.72,727.92L110.16,726.48L111.12,726L112.32,725.52L113.28,725.28L114,725.04L114.48,725.04L116.88,725.52" style="fill:none;fill-rule:nonzero;stroke:black;stroke-width:0.48px;"/>
    </g>
    <g transform="matrix(1.2958,0.314133,0.314133,-1.2958,-294.281,973.715)">
        <path d="M108.619,739.413L116.769,739.413L109.524,735.681L110.471,737.886L108.619,739.413Z" style="stroke:black;stroke-width:0.48px;"/>
    </g>
    <g transform="matrix(1.33333,0,0,1.33333,-66.5378,-989.335)">
        <path d="M159.12,751.68L160.32,751.92L161.76,752.4L163.68,753.84L164.64,754.8L165.36,756L165.84,757.2L166.08,758.4L166.32,759.12L166.32,759.84L166.08,761.04L165.84,762L165.6,763.2L165.12,764.16L164.4,765.12L163.68,765.84L162.72,766.56L159.84,768L156.96,768" style="fill:none;fill-rule:nonzero;stroke:black;stroke-width:0.48px;"/>
    </g>
    <g transform="matrix(-1.30594,-0.268871,-0.268871,1.30594,569.975,-939.212)">
        <path d="M159.397,763.597L167.729,763.597L160.317,767.462L161.555,765.021L159.397,763.597Z" style="stroke:black;stroke-width:0.48px;"/>
    </g>
    <g transform="matrix(1.33333,0,0,1.33333,-66.5378,-952.855)">
        <path d="M131.28,755.76L129.36,753.36L128.64,752.16L128.16,750.48L127.68,749.04L127.68,745.92L127.92,744.48L128.88,742.08L129.6,740.88L132.48,738L133.68,737.28L134.88,736.8L135.6,736.56" style="fill:none;fill-rule:nonzero;stroke:black;stroke-width:0.48px;"/>
    </g>
    <g transform="matrix(1.27603,-0.386677,-0.386677,-1.27603,232.126,1044.67)">
        <path d="M127.989,754.488L136.265,754.488L128.852,750.715L130.008,752.873L127.989,754.488Z" style="stroke:black;stroke-width:0.48px;"/>
    </g>
    <g transform="matrix(1.33333,0,0,1.33333,-66.5378,-961.815)">
        <path d="M227.04,749.52L261.12,749.52" style="fill:none;fill-rule:nonzero;stroke:black;stroke-width:0.72px;"/>
    </g>
    <g transform="matrix(1.33333,0,0,1.33333,-66.5378,-969.495)">
        <path d="M227.04,752.4L261.12,752.4" style="fill:none;fill-rule:nonzero;stroke:black;stroke-width:0.72px;"/>
    </g>
    <g transform="matrix(1.33333,0,0,1.33333,-66.5378,-965.655)">
        <path d="M256.56,747.36L264.48,750.96L256.56,754.56" style="fill:none;fill-rule:nonzero;stroke:black;stroke-width:0.72px;"/>
    </g>
    <g transform="matrix(-1.15485,0.666401,0.666401,1.15485,174.861,-1016.52)">
        <path d="M289.417,745.79L304.103,745.79" style="fill:none;fill-rule:nonzero;stroke:black;stroke-width:0.72px;"/>
    </g>
    <g transform="matrix(-1.15468,-0.666702,-0.666702,1.15468,1205.43,-607.531)">
        <path d="M301.786,744.48L321.704,744.48" style="fill:none;fill-rule:nonzero;stroke:black;stroke-width:0.72px;"/>
    </g>
    <g transform="matrix(-1.15458,-0.666876,-0.666876,1.15458,1211.65,-613.521)">
        <path d="M305.128,747.39L321.722,747.39" style="fill:none;fill-rule:nonzero;stroke:black;stroke-width:0.72px;"/>
    </g>
    <g transform="matrix(-1.15468,0.666702,0.666702,1.15468,255.66,-1034.71)">
        <path d="M319.036,744.48L338.954,744.48" style="fill:none;fill-rule:nonzero;stroke:black;stroke-width:0.72px;"/>
    </g>
    <g transform="matrix(1.15476,0.666568,0.666568,-1.15476,-502.348,674.557)">
        <path d="M336.669,745.91L350.871,745.91" style="fill:none;fill-rule:nonzero;stroke:black;stroke-width:0.72px;"/>
    </g>
    <g transform="matrix(1.15464,0.666776,0.666776,-1.15464,-503.429,672.082)">
        <path d="M339.826,748.13L353.464,748.13" style="fill:none;fill-rule:nonzero;stroke:black;stroke-width:0.72px;"/>
    </g>
    <g transform="matrix(0,-1.33333,-1.33333,0,1346.7,431.985)">
        <path d="M295.77,756.81L310.47,756.81" style="fill:none;fill-rule:nonzero;stroke:black;stroke-width:0.72px;"/>
    </g>
    <g transform="matrix(0,-1.33333,-1.33333,0,1392.7,477.985)">
        <path d="M330.27,756.81L344.97,756.81" style="fill:none;fill-rule:nonzero;stroke:black;stroke-width:0.72px;"/>
    </g>
    <g transform="matrix(1.15491,-0.666297,-0.666297,-1.15491,495.7,1147.62)">
        <path d="M364.079,745.85L367.681,745.85" style="fill:none;fill-rule:nonzero;stroke:black;stroke-width:0.72px;"/>
    </g>
    <g transform="matrix(-1.15435,0.66728,0.66728,1.15435,520.028,-1115.67)">
        <path d="M429.641,748.215L443.329,748.215" style="fill:none;fill-rule:nonzero;stroke:black;stroke-width:0.72px;"/>
    </g>
    <g transform="matrix(-1.15439,0.667207,0.667207,1.15439,524.456,-1107.79)">
        <path d="M429.511,744.82L445.139,744.82" style="fill:none;fill-rule:nonzero;stroke:black;stroke-width:0.72px;"/>
    </g>
    <g transform="matrix(-1.15485,0.666412,0.666412,1.15485,604.132,-1129.92)">
        <path d="M459.166,745.2L479.094,745.2" style="fill:none;fill-rule:nonzero;stroke:black;stroke-width:0.72px;"/>
    </g>
    <g transform="matrix(-1.15478,0.666528,0.666528,1.15478,597.894,-1136.05)">
        <path d="M459.148,748.11L475.752,748.11" style="fill:none;fill-rule:nonzero;stroke:black;stroke-width:0.72px;"/>
    </g>
    <g transform="matrix(1.15468,0.666702,0.666702,-1.15468,-482.635,602.506)">
        <path d="M441.916,745.2L461.834,745.2" style="fill:none;fill-rule:nonzero;stroke:black;stroke-width:0.72px;"/>
    </g>
    <g transform="matrix(1.15476,0.666562,0.666562,-1.15476,-477.727,580.948)">
        <path d="M476.789,746.555L491.291,746.555" style="fill:none;fill-rule:nonzero;stroke:black;stroke-width:0.72px;"/>
    </g>
    <g transform="matrix(0,-1.33333,-1.33333,0,1534.5,617.865)">
        <path d="M435.9,757.53L450.6,757.53" style="fill:none;fill-rule:nonzero;stroke:black;stroke-width:0.72px;"/>
    </g>
    <g transform="matrix(0,-1.33333,-1.33333,0,1580.52,663.878)">
        <path d="M470.41,757.53L485.11,757.53" style="fill:none;fill-rule:nonzero;stroke:black;stroke-width:0.72px;"/>
    </g>
    <g transform="matrix(0,1.33333,1.33333,0,-587.658,-338.615)">
        <path d="M304.44,711.24L336.36,711.24" style="fill:none;fill-rule:nonzero;stroke:black;stroke-width:0.72px;"/>
    </g>
    <g transform="matrix(0,1.33333,1.33333,0,-583.818,-342.455)">
        <path d="M307.32,711.24L339.24,711.24" style="fill:none;fill-rule:nonzero;stroke:black;stroke-width:0.72px;"/>
    </g>
    <g transform="matrix(1.33333,0,0,1.33333,-66.5378,-818.775)">
        <path d="M325.44,691.92L321.84,699.84L318.24,691.92" style="fill:none;fill-rule:nonzero;stroke:black;stroke-width:0.72px;"/>
    </g>
    <g transform="matrix(0,1.33333,1.33333,0,-392.138,-535.415)">
        <path d="M451.08,711.72L483.96,711.72" style="fill:none;fill-rule:nonzero;stroke:black;stroke-width:0.72px;"/>
    </g>
    <g transform="matrix(0,1.33333,1.33333,0,-388.298,-539.255)">
        <path d="M453.96,711.72L486.84,711.72" style="fill:none;fill-rule:nonzero;stroke:black;stroke-width:0.72px;"/>
    </g>
    <g transform="matrix(1.33333,0,0,1.33333,-66.5378,-818.775)">
        <path d="M472.56,691.92L468.96,699.84L465.36,691.92" style="fill:none;fill-rule:nonzero;stroke:black;stroke-width:0.72px;"/>
    </g>
    <g transform="matrix(-1.15485,0.666401,0.666401,1.15485,594.351,-869.672)">
        <path d="M431.977,648.59L446.663,648.59" style="fill:none;fill-rule:nonzero;stroke:black;stroke-width:0.72px;"/>
    </g>
    <g transform="matrix(-1.15468,-0.666702,-0.666702,1.15468,1495.32,-270.651)">
        <path d="M444.346,647.28L464.264,647.28" style="fill:none;fill-rule:nonzero;stroke:black;stroke-width:0.72px;"/>
    </g>
    <g transform="matrix(-1.15468,0.666702,0.666702,1.15468,675.154,-887.923)">
        <path d="M461.596,647.28L481.514,647.28" style="fill:none;fill-rule:nonzero;stroke:black;stroke-width:0.72px;"/>
    </g>
    <g transform="matrix(-1.15458,0.666876,0.666876,1.15458,668.874,-894.06)">
        <path d="M461.578,650.19L478.172,650.19" style="fill:none;fill-rule:nonzero;stroke:black;stroke-width:0.72px;"/>
    </g>
    <g transform="matrix(1.1547,0.666669,0.666669,-1.1547,-412.069,596.735)">
        <path d="M479.21,648.64L493.69,648.64" style="fill:none;fill-rule:nonzero;stroke:black;stroke-width:0.72px;"/>
    </g>
    <g transform="matrix(0,-1.33333,-1.33333,0,1409.42,753.905)">
        <path d="M440.01,659.61L454.71,659.61" style="fill:none;fill-rule:nonzero;stroke:black;stroke-width:0.72px;"/>
    </g>
    <g transform="matrix(0,-1.33333,-1.33333,0,1404.94,749.425)">
        <path d="M436.65,659.61L451.35,659.61" style="fill:none;fill-rule:nonzero;stroke:black;stroke-width:0.72px;"/>
    </g>
    <g transform="matrix(0,-1.33333,-1.33333,0,1453.18,797.665)">
        <path d="M472.83,659.61L487.53,659.61" style="fill:none;fill-rule:nonzero;stroke:black;stroke-width:0.72px;"/>
    </g>
    <g transform="matrix(-1.15485,0.666401,0.666401,1.15485,241.672,-769.455)">
        <path d="M289.657,646.43L304.343,646.43" style="fill:none;fill-rule:nonzero;stroke:black;stroke-width:0.72px;"/>
    </g>
    <g transform="matrix(-1.15468,-0.666702,-0.666702,1.15468,1139.79,-360.162)">
        <path d="M302.026,645.12L321.944,645.12" style="fill:none;fill-rule:nonzero;stroke:black;stroke-width:0.72px;"/>
    </g>
    <g transform="matrix(-1.15458,-0.666876,-0.666876,1.15458,1145.99,-366.162)">
        <path d="M305.368,648.03L321.962,648.03" style="fill:none;fill-rule:nonzero;stroke:black;stroke-width:0.72px;"/>
    </g>
    <g transform="matrix(-1.15468,0.666702,0.666702,1.15468,322.5,-787.664)">
        <path d="M319.276,645.12L339.194,645.12" style="fill:none;fill-rule:nonzero;stroke:black;stroke-width:0.72px;"/>
    </g>
    <g transform="matrix(1.15494,0.666246,0.666246,-1.15494,-434.873,692.954)">
        <path d="M336.005,644.85L351.175,644.85" style="fill:none;fill-rule:nonzero;stroke:black;stroke-width:0.72px;"/>
    </g>
    <g transform="matrix(1.15498,0.66618,0.66618,-1.15498,-436.956,691.836)">
        <path d="M337.815,648.245L351.045,648.245" style="fill:none;fill-rule:nonzero;stroke:black;stroke-width:0.72px;"/>
    </g>
    <g transform="matrix(0,-1.33333,-1.33333,0,1214.54,564.785)">
        <path d="M296.01,657.45L310.71,657.45" style="fill:none;fill-rule:nonzero;stroke:black;stroke-width:0.72px;"/>
    </g>
    <g transform="matrix(0,-1.33333,-1.33333,0,1260.54,610.785)">
        <path d="M330.51,657.45L345.21,657.45" style="fill:none;fill-rule:nonzero;stroke:black;stroke-width:0.72px;"/>
    </g>
    <g transform="matrix(1.33333,0,0,1.33333,-66.5378,-710.295)">
        <path d="M375.36,655.2L395.28,655.2" style="fill:none;fill-rule:nonzero;stroke:black;stroke-width:0.72px;"/>
    </g>
    <g transform="matrix(1.33333,0,0,1.33333,-66.5378,-719.255)">
        <path d="M375.36,658.56L395.28,658.56" style="fill:none;fill-rule:nonzero;stroke:black;stroke-width:0.72px;"/>
    </g>
    <g transform="matrix(1.33333,0,0,1.33333,-66.5378,-701.335)">
        <path d="M375.36,651.84L395.28,651.84" style="fill:none;fill-rule:nonzero;stroke:black;stroke-width:0.72px;"/>
    </g>
    <g transform="matrix(-1.33333,0,0,1.33333,612.502,-727.575)">
        <path d="M237.6,661.68L271.68,661.68" style="fill:none;fill-rule:nonzero;stroke:black;stroke-width:0.72px;"/>
    </g>
    <g transform="matrix(-1.33333,0,0,1.33333,612.502,-719.895)">
        <path d="M237.6,658.8L271.68,658.8" style="fill:none;fill-rule:nonzero;stroke:black;stroke-width:0.72px;"/>
    </g>
    <g transform="matrix(1.33333,0,0,1.33333,-66.5378,-723.735)">
        <path d="M242.16,663.84L234.24,660.24L242.16,656.64" style="fill:none;fill-rule:nonzero;stroke:black;stroke-width:0.72px;"/>
    </g>
    <g transform="matrix(-1.15485,0.666401,0.666401,1.15485,-116.19,-674.251)">
        <path d="M145.897,646.67L160.583,646.67" style="fill:none;fill-rule:nonzero;stroke:black;stroke-width:0.72px;"/>
    </g>
    <g transform="matrix(-1.15468,-0.666702,-0.666702,1.15468,782.271,-456.604)">
        <path d="M158.266,645.36L178.184,645.36" style="fill:none;fill-rule:nonzero;stroke:black;stroke-width:0.72px;"/>
    </g>
    <g transform="matrix(-1.15468,0.666702,0.666702,1.15468,-35.3365,-692.416)">
        <path d="M175.516,645.36L195.434,645.36" style="fill:none;fill-rule:nonzero;stroke:black;stroke-width:0.72px;"/>
    </g>
    <g transform="matrix(1.15494,0.666246,0.666246,-1.15494,-460.679,788.691)">
        <path d="M192.245,645.09L207.415,645.09" style="fill:none;fill-rule:nonzero;stroke:black;stroke-width:0.72px;"/>
    </g>
    <g transform="matrix(1.15498,0.66618,0.66618,-1.15498,-462.756,787.564)">
        <path d="M194.055,648.485L207.285,648.485" style="fill:none;fill-rule:nonzero;stroke:black;stroke-width:0.72px;"/>
    </g>
    <g transform="matrix(0,-1.33333,-1.33333,0,1023.18,372.785)">
        <path d="M152.25,657.69L166.95,657.69" style="fill:none;fill-rule:nonzero;stroke:black;stroke-width:0.72px;"/>
    </g>
    <g transform="matrix(0,-1.33333,-1.33333,0,1069.18,418.785)">
        <path d="M186.75,657.69L201.45,657.69" style="fill:none;fill-rule:nonzero;stroke:black;stroke-width:0.72px;"/>
    </g>
    <g transform="matrix(0,1.33333,1.33333,0,-710.978,-33.1354)">
        <path d="M152.19,642.93L167.01,642.93" style="fill:none;fill-rule:nonzero;stroke:black;stroke-width:0.72px;"/>
    </g>
    <g transform="matrix(1.33333,0,0,1.33333,-66.5378,-686.615)">
        <path d="M168.48,654.24L167.52,652.56L167.04,650.64L166.8,648.72L166.8,647.52L167.04,646.32L167.52,645.12L168.48,643.2L169.92,641.28L170.64,640.56L171.6,639.84L172.56,639.36L173.76,638.88L174.96,638.64L175.92,638.4L176.64,638.4" style="fill:none;fill-rule:nonzero;stroke:black;stroke-width:0.48px;"/>
    </g>
    <g transform="matrix(1.33333,0,0,1.33333,-66.5378,-702.615)">
        <path d="M168.48,650.4L176.64,650.4L169.2,654.24L170.4,651.84L168.48,650.4Z" style="stroke:black;stroke-width:0.48px;"/>
    </g>
    <g transform="matrix(1.33333,0,0,1.33333,-66.5378,-657.495)">
        <path d="M152.16,644.16L150.96,642.72L150,640.8L149.28,638.88L149.04,636.72L149.28,635.52L149.52,634.08L150.48,631.68L151.2,630.48L151.92,629.52L152.88,628.8L154.08,627.84L155.04,627.36L156.24,626.88L156.96,626.64" style="fill:none;fill-rule:nonzero;stroke:black;stroke-width:0.48px;"/>
    </g>
    <g transform="matrix(1.2958,-0.314133,-0.314133,-1.2958,140.69,1060.89)">
        <path d="M149.349,643.149L157.499,643.149L150.134,639.255L151.222,641.707L149.349,643.149Z" style="stroke:black;stroke-width:0.48px;"/>
    </g>
    <g transform="matrix(0,1.33333,1.33333,0,-624.618,-1.81542)">
        <path d="M162.48,598.8L198,598.8" style="fill:none;fill-rule:nonzero;stroke:black;stroke-width:0.72px;"/>
    </g>
    <g transform="matrix(0,1.33333,1.33333,0,-620.778,-5.65542)">
        <path d="M165.36,598.8L200.88,598.8" style="fill:none;fill-rule:nonzero;stroke:black;stroke-width:0.72px;"/>
    </g>
    <g transform="matrix(1.33333,0,0,1.33333,-66.5378,-514.135)">
        <path d="M185.28,577.68L181.68,585.6L178.08,577.68" style="fill:none;fill-rule:nonzero;stroke:black;stroke-width:0.72px;"/>
    </g>
    <g transform="matrix(-1.15457,0.6669,0.6669,1.15457,-34.5192,-360.785)">
        <path d="M145.178,520.915L159.832,520.915" style="fill:none;fill-rule:nonzero;stroke:black;stroke-width:0.72px;"/>
    </g>
    <g transform="matrix(1.15481,0.666483,0.666483,-1.15481,-384.28,833.858)">
        <path d="M157.883,520.97L172.327,520.97" style="fill:none;fill-rule:nonzero;stroke:black;stroke-width:0.72px;"/>
    </g>
    <g transform="matrix(0,-1.33333,-1.33333,0,854.502,539.465)">
        <path d="M151.5,531.93L166.2,531.93" style="fill:none;fill-rule:nonzero;stroke:black;stroke-width:0.72px;"/>
    </g>
    <g transform="matrix(0,-1.33333,-1.33333,0,860.089,542.838)">
        <path d="M155.69,532.76L168.73,532.76" style="fill:none;fill-rule:nonzero;stroke:black;stroke-width:0.72px;"/>
    </g>
    <g transform="matrix(1.15491,-0.666297,-0.666297,-1.15491,330.767,1051.76)">
        <path d="M167.999,550.82L171.601,550.82" style="fill:none;fill-rule:nonzero;stroke:black;stroke-width:0.72px;"/>
    </g>
    <g transform="matrix(-1.15435,0.66728,0.66728,1.15435,189.83,-423.582)">
        <path d="M236.201,521.895L249.889,521.895" style="fill:none;fill-rule:nonzero;stroke:black;stroke-width:0.72px;"/>
    </g>
    <g transform="matrix(-1.15439,0.667207,0.667207,1.15439,194.233,-415.701)">
        <path d="M236.071,518.5L251.699,518.5" style="fill:none;fill-rule:nonzero;stroke:black;stroke-width:0.72px;"/>
    </g>
    <g transform="matrix(1.15481,0.666483,0.666483,-1.15481,-367.561,773.363)">
        <path d="M248.843,520.25L263.287,520.25" style="fill:none;fill-rule:nonzero;stroke:black;stroke-width:0.72px;"/>
    </g>
    <g transform="matrix(0,-1.33333,-1.33333,0,974.822,661.705)">
        <path d="M242.46,531.21L257.16,531.21" style="fill:none;fill-rule:nonzero;stroke:black;stroke-width:0.72px;"/>
    </g>
    <g transform="matrix(0,1.33333,1.33333,0,-488.778,196.105)">
        <path d="M140.52,473.64L173.4,473.64" style="fill:none;fill-rule:nonzero;stroke:black;stroke-width:0.72px;"/>
    </g>
    <g transform="matrix(0,1.33333,1.33333,0,-484.938,192.265)">
        <path d="M143.4,473.64L176.28,473.64" style="fill:none;fill-rule:nonzero;stroke:black;stroke-width:0.72px;"/>
    </g>
    <g transform="matrix(1.33333,0,0,1.33333,-66.5378,-183.895)">
        <path d="M162,453.84L158.4,461.76L154.8,453.84" style="fill:none;fill-rule:nonzero;stroke:black;stroke-width:0.72px;"/>
    </g>
    <g transform="matrix(0,1.33333,1.33333,0,-367.658,73.3846)">
        <path d="M232.56,474.24L264.24,474.24" style="fill:none;fill-rule:nonzero;stroke:black;stroke-width:0.72px;"/>
    </g>
    <g transform="matrix(0,1.33333,1.33333,0,-363.818,69.5446)">
        <path d="M235.44,474.24L267.12,474.24" style="fill:none;fill-rule:nonzero;stroke:black;stroke-width:0.72px;"/>
    </g>
    <g transform="matrix(1.33333,0,0,1.33333,-66.5378,-187.095)">
        <path d="M253.44,455.04L249.84,462.96L246.24,455.04" style="fill:none;fill-rule:nonzero;stroke:black;stroke-width:0.72px;"/>
    </g>
    <g transform="matrix(-1.15457,0.6669,0.6669,1.15457,266.249,-141.248)">
        <path d="M235.898,408.355L250.552,408.355" style="fill:none;fill-rule:nonzero;stroke:black;stroke-width:0.72px;"/>
    </g>
    <g transform="matrix(1.15481,0.666483,0.666483,-1.15481,-293.065,793.489)">
        <path d="M248.603,408.41L263.047,408.41" style="fill:none;fill-rule:nonzero;stroke:black;stroke-width:0.72px;"/>
    </g>
    <g transform="matrix(0,-1.33333,-1.33333,0,827.622,812.745)">
        <path d="M243.9,419.37L258.6,419.37" style="fill:none;fill-rule:nonzero;stroke:black;stroke-width:0.72px;"/>
    </g>
    <g transform="matrix(0,-1.33333,-1.33333,0,823.142,808.265)">
        <path d="M240.54,419.37L255.24,419.37" style="fill:none;fill-rule:nonzero;stroke:black;stroke-width:0.72px;"/>
    </g>
    <g transform="matrix(-1.1544,0.667188,0.667188,1.1544,39.983,-79.9567)">
        <path d="M144.936,408.11L159.604,408.11" style="fill:none;fill-rule:nonzero;stroke:black;stroke-width:0.72px;"/>
    </g>
    <g transform="matrix(-1.15498,-0.66619,-0.66619,1.15498,615.632,131.074)">
        <path d="M157.655,408.175L172.085,408.175" style="fill:none;fill-rule:nonzero;stroke:black;stroke-width:0.72px;"/>
    </g>
    <g transform="matrix(0,-1.33333,-1.33333,0,706.036,691.798)">
        <path d="M152.95,419.13L167.65,419.13" style="fill:none;fill-rule:nonzero;stroke:black;stroke-width:0.72px;"/>
    </g>
    <g transform="matrix(0,-1.33333,-1.33333,0,701.556,687.318)">
        <path d="M149.59,419.13L164.29,419.13" style="fill:none;fill-rule:nonzero;stroke:black;stroke-width:0.72px;"/>
    </g>
</svg>
