<?xml version="1.0" encoding="UTF-8" standalone="no"?>
<!DOCTYPE svg PUBLIC "-//W3C//DTD SVG 1.1//EN" "http://www.w3.org/Graphics/SVG/1.1/DTD/svg11.dtd">
<svg width="100%" height="100%" viewBox="0 0 690 260" version="1.1" xmlns="http://www.w3.org/2000/svg" xmlns:xlink="http://www.w3.org/1999/xlink" xml:space="preserve" xmlns:serif="http://www.serif.com/" style="fill-rule:evenodd;clip-rule:evenodd;stroke-linecap:round;stroke-linejoin:round;stroke-miterlimit:10;">
    <g transform="matrix(1.33333,0,0,1.33333,-50.1205,-101.691)">
        <text x="69.6px" y="86.4px" style="font-family:'ArialMT', 'Arial', sans-serif;font-size:10px;">O</text>
    </g>
    <g transform="matrix(1.33333,0,0,1.33333,-50.1205,-101.691)">
        <text x="51.84px" y="115.68px" style="font-family:'ArialMT', 'Arial', sans-serif;font-size:10px;">C</text>
    </g>
    <g transform="matrix(1.33333,0,0,1.33333,-50.1205,-101.691)">
        <text x="40.32px" y="115.68px" style="font-family:'ArialMT', 'Arial', sans-serif;font-size:10px;">H</text>
        <text x="47.52px" y="118.32px" style="font-family:'ArialMT', 'Arial', sans-serif;font-size:8px;">3</text>
    </g>
    <g transform="matrix(1.33333,0,0,1.33333,-50.1205,-101.691)">
        <text x="90.24px" y="105.12px" style="font-family:'ArialMT', 'Arial', sans-serif;font-size:18px;">+</text>
    </g>
    <g transform="matrix(1.33333,0,0,1.33333,-50.1205,-101.691)">
        <text x="121.68px" y="87.36px" style="font-family:'ArialMT', 'Arial', sans-serif;font-size:10px;">N</text>
    </g>
    <g transform="matrix(1.33333,0,0,1.33333,-50.1205,-101.691)">
        <text x="110.16px" y="87.36px" style="font-family:'ArialMT', 'Arial', sans-serif;font-size:10px;">H</text>
        <text x="117.36px" y="90px" style="font-family:'ArialMT', 'Arial', sans-serif;font-size:8px;">2</text>
    </g>
    <g transform="matrix(1.33333,0,0,1.33333,-50.1205,-101.691)">
        <text x="289.2px" y="88.32px" style="font-family:'ArialMT', 'Arial', sans-serif;font-size:10px;">N</text>
    </g>
    <g transform="matrix(1.33333,0,0,1.33333,-50.1205,-101.691)">
        <text x="258px" y="109.2px" style="font-family:'ArialMT', 'Arial', sans-serif;font-size:10px;">C</text>
    </g>
    <g transform="matrix(1.33333,0,0,1.33333,-50.1205,-101.691)">
        <text x="246.48px" y="109.2px" style="font-family:'ArialMT', 'Arial', sans-serif;font-size:10px;">H</text>
        <text x="253.68px" y="111.84px" style="font-family:'ArialMT', 'Arial', sans-serif;font-size:8px;">3</text>
    </g>
    <g transform="matrix(1.33333,0,0,1.33333,-50.1205,-101.691)">
        <text x="440.4px" y="101.28px" style="font-family:'ArialMT', 'Arial', sans-serif;font-size:10px;">I</text>
    </g>
    <g transform="matrix(1.33333,0,0,1.33333,-50.1205,-101.691)">
        <text x="486.96px" y="229.2px" style="font-family:'ArialMT', 'Arial', sans-serif;font-size:10px;">N</text>
    </g>
    <g transform="matrix(1.33333,0,0,1.33333,-50.1205,-101.691)">
        <text x="427.44px" y="223.44px" style="font-family:'ArialMT', 'Arial', sans-serif;font-size:10px;">C</text>
    </g>
    <g transform="matrix(1.33333,0,0,1.33333,-50.1205,-101.691)">
        <text x="415.92px" y="223.44px" style="font-family:'ArialMT', 'Arial', sans-serif;font-size:10px;">H</text>
        <text x="423.12px" y="226.08px" style="font-family:'ArialMT', 'Arial', sans-serif;font-size:8px;">3</text>
    </g>
    <g transform="matrix(1.33333,0,0,1.33333,-50.1205,-101.691)">
        <text x="424.08px" y="258px" style="font-family:'ArialMT', 'Arial', sans-serif;font-size:10px;">C</text>
    </g>
    <g transform="matrix(1.33333,0,0,1.33333,-50.1205,-101.691)">
        <text x="412.56px" y="258px" style="font-family:'ArialMT', 'Arial', sans-serif;font-size:10px;">H</text>
        <text x="419.76px" y="260.64px" style="font-family:'ArialMT', 'Arial', sans-serif;font-size:8px;">3</text>
    </g>
    <g transform="matrix(1.33333,0,0,1.33333,-50.1205,-101.691)">
        <text x="447.12px" y="225.36px" style="font-family:'ArialMT', 'Arial', sans-serif;font-size:10px;">O</text>
    </g>
    <g transform="matrix(1.33333,0,0,1.33333,-50.1205,-101.691)">
        <text x="458.88px" y="209.28px" style="font-family:'ArialMT', 'Arial', sans-serif;font-size:10px;">H</text>
    </g>
    <g transform="matrix(1.33333,0,0,1.33333,-50.1205,-101.691)">
        <text x="401.76px" y="146.4px" style="font-family:'ArialMT', 'Arial', sans-serif;font-size:10px;">1)</text>
    </g>
    <g transform="matrix(1.33333,0,0,1.33333,-50.1205,-101.691)">
        <text x="491.28px" y="145.2px" style="font-family:'ArialMT', 'Arial', sans-serif;font-size:10px;">2</text>
        <text x="496.8px" y="145.2px" style="font-family:'ArialMT', 'Arial', sans-serif;font-size:10px;">)</text>
        <text x="503.072px" y="145.2px" style="font-family:'ArialMT', 'Arial', sans-serif;font-size:10px;">H</text>
        <text x="510.272px" y="147.84px" style="font-family:'ArialMT', 'Arial', sans-serif;font-size:6px;">2</text>
        <text x="513.872px" y="145.2px" style="font-family:'ArialMT', 'Arial', sans-serif;font-size:10px;">O</text>
    </g>
    <g transform="matrix(1.33333,0,0,1.33333,-50.1205,-101.691)">
        <text x="430.32px" y="134.88px" style="font-family:'ArialMT', 'Arial', sans-serif;font-size:10px;">O</text>
    </g>
    <g transform="matrix(1.33333,0,0,1.33333,-50.1205,-101.691)">
        <text x="447.84px" y="164.88px" style="font-family:'ArialMT', 'Arial', sans-serif;font-size:10px;">CH</text>
        <text x="462.24px" y="167.52px" style="font-family:'ArialMT', 'Arial', sans-serif;font-size:8px;">3</text>
    </g>
    <g transform="matrix(1.33333,0,0,1.33333,-50.1205,-101.691)">
        <text x="413.28px" y="164.88px" style="font-family:'ArialMT', 'Arial', sans-serif;font-size:10px;">C</text>
    </g>
    <g transform="matrix(1.33333,0,0,1.33333,-50.1205,-101.691)">
        <text x="401.76px" y="164.88px" style="font-family:'ArialMT', 'Arial', sans-serif;font-size:10px;">H</text>
        <text x="408.96px" y="167.52px" style="font-family:'ArialMT', 'Arial', sans-serif;font-size:8px;">3</text>
    </g>
    <g transform="matrix(1.33333,0,0,1.33333,-50.1205,-101.691)">
        <text x="363.12px" y="226.08px" style="font-family:'ArialMT', 'Arial', sans-serif;font-size:10px;">O<tspan x="371.04px " y="226.08px ">H</tspan></text>
    </g>
    <g transform="matrix(1.33333,0,0,1.33333,-50.1205,-101.691)">
        <text x="323.28px" y="191.76px" style="font-family:'ArialMT', 'Arial', sans-serif;font-size:10px;">O</text>
    </g>
    <g transform="matrix(1.33333,0,0,1.33333,-50.1205,-101.691)">
        <text x="323.28px" y="226.08px" style="font-family:'ArialMT', 'Arial', sans-serif;font-size:10px;">O</text>
    </g>
    <g transform="matrix(1.33333,0,0,1.33333,-50.1205,-101.691)">
        <text x="316.08px" y="226.08px" style="font-family:'ArialMT', 'Arial', sans-serif;font-size:10px;">H</text>
    </g>
    <g transform="matrix(1.33333,0,0,1.33333,-50.1205,-101.691)">
        <text x="363.12px" y="191.76px" style="font-family:'ArialMT', 'Arial', sans-serif;font-size:10px;">O</text>
    </g>
    <g transform="matrix(1.33333,0,0,1.33333,-50.1205,-101.691)">
        <text x="239.52px" y="231.12px" style="font-family:'ArialMT', 'Arial', sans-serif;font-size:10px;">C</text>
    </g>
    <g transform="matrix(1.33333,0,0,1.33333,-50.1205,-101.691)">
        <text x="228px" y="231.12px" style="font-family:'ArialMT', 'Arial', sans-serif;font-size:10px;">H</text>
        <text x="235.2px" y="233.76px" style="font-family:'ArialMT', 'Arial', sans-serif;font-size:8px;">3</text>
    </g>
    <g transform="matrix(1.33333,0,0,1.33333,-50.1205,-101.691)">
        <text x="240.24px" y="265.68px" style="font-family:'ArialMT', 'Arial', sans-serif;font-size:10px;">C</text>
    </g>
    <g transform="matrix(1.33333,0,0,1.33333,-50.1205,-101.691)">
        <text x="228.72px" y="265.68px" style="font-family:'ArialMT', 'Arial', sans-serif;font-size:10px;">H</text>
        <text x="235.92px" y="268.32px" style="font-family:'ArialMT', 'Arial', sans-serif;font-size:8px;">3</text>
    </g>
    <g transform="matrix(1.33333,0,0,1.33333,-50.1205,-101.691)">
        <text x="268.8px" y="213.36px" style="font-family:'ArialMT', 'Arial', sans-serif;font-size:10px;">O</text>
    </g>
    <g transform="matrix(1.33333,0,0,1.33333,-50.1205,-101.691)">
        <text x="389.28px" y="91.68px" style="font-family:'ArialMT', 'Arial', sans-serif;font-size:10px;">LDA</text>
    </g>
    <g transform="matrix(1.33333,0,0,1.33333,-50.1205,-101.691)">
        <text x="389.04px" y="111.6px" style="font-family:'ArialMT', 'Arial', sans-serif;font-size:10px;">0 °<tspan x="401.479px " y="111.6px ">C</tspan></text>
    </g>
    <g transform="matrix(1.33333,0,0,1.33333,-50.1205,-101.691)">
        <text x="338.16px" y="249.84px" style="font-family:'ArialMT', 'Arial', sans-serif;font-size:10px;">H</text>
        <text x="345.36px" y="252.48px" style="font-family:'ArialMT', 'Arial', sans-serif;font-size:6px;">2</text>
        <text x="348.96px" y="249.84px" style="font-family:'ArialMT', 'Arial', sans-serif;font-size:10px;">O</text>
    </g>
    <g transform="matrix(0.0344088,-1.33289,-1.33289,-0.0344088,1040.73,148.352)">
        <path d="M65.958,746.96L80.682,746.96" style="fill:none;fill-rule:nonzero;stroke:black;stroke-width:0.72px;"/>
    </g>
    <g transform="matrix(0.0349405,-1.33288,-1.33288,-0.0349405,1037.51,143.16)">
        <path d="M63.493,747.835L76.467,747.835" style="fill:none;fill-rule:nonzero;stroke:black;stroke-width:0.72px;"/>
    </g>
    <g transform="matrix(1.17172,-0.63628,-0.63628,-1.17172,428.962,944.269)">
        <path d="M59.094,736.035L74.036,736.035" style="fill:none;fill-rule:nonzero;stroke:black;stroke-width:0.72px;"/>
    </g>
    <g transform="matrix(-0.694346,1.13827,1.13827,0.694346,-617.986,-655.87)">
        <path d="M130.068,748.32L149.982,748.32" style="fill:none;fill-rule:nonzero;stroke:black;stroke-width:0.72px;"/>
    </g>
    <g transform="matrix(-1.29138,-0.331854,-0.331854,1.29138,614.925,-904.393)">
        <path d="M144.791,753.505L171.429,753.505" style="fill:none;fill-rule:nonzero;stroke:black;stroke-width:0.72px;"/>
    </g>
    <g transform="matrix(-1.21861,0.541074,0.541074,1.21861,-1.97039,-998.887)">
        <path d="M170.291,753.58L186.999,753.58" style="fill:none;fill-rule:nonzero;stroke:black;stroke-width:0.72px;"/>
    </g>
    <g transform="matrix(0.671248,-1.15204,-1.15204,-0.671248,931.973,734.214)">
        <path d="M171.229,748.32L191.251,748.32" style="fill:none;fill-rule:nonzero;stroke:black;stroke-width:0.72px;"/>
    </g>
    <g transform="matrix(1.28556,0.353705,0.353705,-1.28556,-305.19,927.581)">
        <path d="M150.063,743.2L176.677,743.2" style="fill:none;fill-rule:nonzero;stroke:black;stroke-width:0.72px;"/>
    </g>
    <g transform="matrix(-1.22036,0.537115,0.537115,1.22036,-84.9578,-953.87)">
        <path d="M134.113,743.275L151.267,743.275" style="fill:none;fill-rule:nonzero;stroke:black;stroke-width:0.72px;"/>
    </g>
    <g transform="matrix(-1.32895,-0.10808,-0.10808,1.32895,397.874,-980.797)">
        <path d="M129.815,757.445L145.235,757.445" style="fill:none;fill-rule:nonzero;stroke:black;stroke-width:0.72px;"/>
    </g>
    <g transform="matrix(1.33333,0,0,1.33333,-50.1205,-966.971)">
        <path d="M197.28,745.44L231.36,745.44" style="fill:none;fill-rule:nonzero;stroke:black;stroke-width:0.72px;"/>
    </g>
    <g transform="matrix(1.2958,0.314133,0.314133,-1.2958,-275.753,921.456)">
        <path d="M223.099,746.373L231.249,746.373L224.004,742.641L224.951,744.846L223.099,746.373Z" style="stroke:black;stroke-width:0.72px;"/>
    </g>
    <g transform="matrix(-0.694346,1.13827,1.13827,0.694346,-277.217,-844.607)">
        <path d="M297.588,747.36L317.502,747.36" style="fill:none;fill-rule:nonzero;stroke:black;stroke-width:0.72px;"/>
    </g>
    <g transform="matrix(-1.29138,-0.331854,-0.331854,1.29138,1054.3,-846.281)">
        <path d="M312.311,752.545L338.949,752.545" style="fill:none;fill-rule:nonzero;stroke:black;stroke-width:0.72px;"/>
    </g>
    <g transform="matrix(-1.21861,0.541074,0.541074,1.21861,426.051,-1087.08)">
        <path d="M337.811,752.62L354.519,752.62" style="fill:none;fill-rule:nonzero;stroke:black;stroke-width:0.72px;"/>
    </g>
    <g transform="matrix(0.671248,-1.15204,-1.15204,-0.671248,1041.78,927.84)">
        <path d="M338.749,747.36L358.771,747.36" style="fill:none;fill-rule:nonzero;stroke:black;stroke-width:0.72px;"/>
    </g>
    <g transform="matrix(1.28556,0.353705,0.353705,-1.28556,-296.848,868.374)">
        <path d="M317.583,742.24L344.197,742.24" style="fill:none;fill-rule:nonzero;stroke:black;stroke-width:0.72px;"/>
    </g>
    <g transform="matrix(-1.22036,0.537115,0.537115,1.22036,343.353,-1041.4)">
        <path d="M301.633,742.315L318.787,742.315" style="fill:none;fill-rule:nonzero;stroke:black;stroke-width:0.72px;"/>
    </g>
    <g transform="matrix(-1.32895,-0.10808,-0.10808,1.32895,843.755,-960.136)">
        <path d="M297.335,756.485L312.755,756.485" style="fill:none;fill-rule:nonzero;stroke:black;stroke-width:0.72px;"/>
    </g>
    <g transform="matrix(-0.758291,1.09671,1.09671,0.758291,-272.008,-854.108)">
        <path d="M278.585,746.745L292.335,746.745" style="fill:none;fill-rule:nonzero;stroke:black;stroke-width:0.72px;"/>
    </g>
    <g transform="matrix(-0.757695,1.09712,1.09712,0.757695,-264.276,-855.541)">
        <path d="M280.852,745.79L296.918,745.79" style="fill:none;fill-rule:nonzero;stroke:black;stroke-width:0.72px;"/>
    </g>
    <g transform="matrix(-1.30194,0.287628,0.287628,1.30194,458.893,-1006.39)">
        <path d="M265.974,739.39L281.736,739.39" style="fill:none;fill-rule:nonzero;stroke:black;stroke-width:0.72px;"/>
    </g>
    <g transform="matrix(1.33333,0,0,1.33333,-50.1205,-963.771)">
        <path d="M366.72,744.24L431.04,744.24" style="fill:none;fill-rule:nonzero;stroke:black;stroke-width:0.72px;"/>
    </g>
    <g transform="matrix(1.2958,0.314133,0.314133,-1.2958,-267.881,858.775)">
        <path d="M422.779,745.173L430.929,745.173L423.684,741.441L424.631,743.646L422.779,745.173Z" style="stroke:black;stroke-width:0.72px;"/>
    </g>
    <g transform="matrix(-0.694346,1.13827,1.13827,0.694346,285.503,-781.619)">
        <path d="M495.348,605.28L515.262,605.28" style="fill:none;fill-rule:nonzero;stroke:black;stroke-width:0.72px;"/>
    </g>
    <g transform="matrix(-1.29138,-0.331854,-0.331854,1.29138,1526.21,-407.735)">
        <path d="M510.071,610.465L536.709,610.465" style="fill:none;fill-rule:nonzero;stroke:black;stroke-width:0.72px;"/>
    </g>
    <g transform="matrix(-1.21861,0.541074,0.541074,1.21861,1007.6,-831.5)">
        <path d="M535.571,610.54L552.279,610.54" style="fill:none;fill-rule:nonzero;stroke:black;stroke-width:0.72px;"/>
    </g>
    <g transform="matrix(0.671248,-1.15204,-1.15204,-0.671248,1009.03,1249.74)">
        <path d="M536.509,605.28L556.531,605.28" style="fill:none;fill-rule:nonzero;stroke:black;stroke-width:0.72px;"/>
    </g>
    <g transform="matrix(1.28556,0.353705,0.353705,-1.28556,-237.146,805.213)">
        <path d="M515.343,600.16L541.957,600.16" style="fill:none;fill-rule:nonzero;stroke:black;stroke-width:0.72px;"/>
    </g>
    <g transform="matrix(-1.22036,0.537115,0.537115,1.22036,924.685,-784.787)">
        <path d="M499.393,600.235L516.547,600.235" style="fill:none;fill-rule:nonzero;stroke:black;stroke-width:0.72px;"/>
    </g>
    <g transform="matrix(-1.32012,-0.187239,-0.187239,1.32012,1399.18,-516.516)">
        <path d="M495.043,614.87L510.567,614.87" style="fill:none;fill-rule:nonzero;stroke:black;stroke-width:0.72px;"/>
    </g>
    <g transform="matrix(-1.32722,-0.127567,-0.127567,1.32722,1301.51,-561.711)">
        <path d="M470.775,617.77L486.035,617.77" style="fill:none;fill-rule:nonzero;stroke:black;stroke-width:0.72px;"/>
    </g>
    <g transform="matrix(-1.32724,-0.127361,-0.127361,1.32724,1302.72,-552.597)">
        <path d="M472.108,614.335L486.032,614.335" style="fill:none;fill-rule:nonzero;stroke:black;stroke-width:0.72px;"/>
    </g>
    <g transform="matrix(-0.774604,1.08525,1.08525,0.774604,267.692,-770.474)">
        <path d="M455.067,610.395L474.983,610.395" style="fill:none;fill-rule:nonzero;stroke:black;stroke-width:0.72px;"/>
    </g>
    <g transform="matrix(-1.32719,-0.127833,-0.127833,1.32719,1222.43,-526.64)">
        <path d="M439.364,603.245L459.286,603.245" style="fill:none;fill-rule:nonzero;stroke:black;stroke-width:0.72px;"/>
    </g>
    <g transform="matrix(-0.552855,-1.21331,-1.21331,0.552855,1514.09,398.425)">
        <path d="M429.243,610.74L443.617,610.74" style="fill:none;fill-rule:nonzero;stroke:black;stroke-width:0.72px;"/>
    </g>
    <g transform="matrix(-0.773603,1.08596,1.08596,0.773603,217.234,-713.252)">
        <path d="M428.584,598.62L442.286,598.62" style="fill:none;fill-rule:nonzero;stroke:black;stroke-width:0.72px;"/>
    </g>
    <g transform="matrix(0.774892,-1.08504,-1.08504,-0.774892,859.127,1161.45)">
        <path d="M436.538,609.78L450.252,609.78" style="fill:none;fill-rule:nonzero;stroke:black;stroke-width:0.72px;"/>
    </g>
    <g transform="matrix(0.774449,-1.08536,-1.08536,-0.774449,887.389,1165.36)">
        <path d="M453.257,628.56L460.333,628.56" style="fill:none;fill-rule:nonzero;stroke:black;stroke-width:0.72px;"/>
    </g>
    <g transform="matrix(-1.08533,-0.774497,-0.774497,1.08533,1587.77,-125.757)">
        <path d="M464.874,626.665L488.166,626.665" style="fill:none;fill-rule:nonzero;stroke:black;stroke-width:0.72px;stroke-dasharray:2.16,1.44;"/>
    </g>
    <g transform="matrix(-0.00538716,-1.33332,-1.33332,0.00538716,1464.67,667.109)">
        <path d="M428.495,698.415L443.345,698.415" style="fill:none;fill-rule:nonzero;stroke:black;stroke-width:0.72px;"/>
    </g>
    <g transform="matrix(-0.00537992,-1.33332,-1.33332,0.00537992,1460.15,662.647)">
        <path d="M425.125,698.405L439.995,698.405" style="fill:none;fill-rule:nonzero;stroke:black;stroke-width:0.72px;"/>
    </g>
    <g transform="matrix(-1.15788,-0.661123,-0.661123,1.15788,1501.89,-400.269)">
        <path d="M433.315,687.38L447.835,687.38" style="fill:none;fill-rule:nonzero;stroke:black;stroke-width:0.72px;"/>
    </g>
    <g transform="matrix(1.15187,-0.671549,-0.671549,-1.15187,489.036,1183.48)">
        <path d="M420.429,687.24L435.281,687.24" style="fill:none;fill-rule:nonzero;stroke:black;stroke-width:0.72px;"/>
    </g>
    <g transform="matrix(0.685571,1.14358,1.14358,-0.685571,-522.481,27.9079)">
        <path d="M424.695,685.08L535.785,685.08" style="fill:none;fill-rule:nonzero;stroke:black;stroke-width:0.72px;"/>
    </g>
    <g transform="matrix(0.386677,1.27603,1.27603,-0.386677,-389.635,-231.887)">
        <path d="M502.269,643.008L510.545,643.008L503.362,639.166L504.288,641.393L502.269,643.008Z" style="stroke:black;stroke-width:0.72px;"/>
    </g>
    <g transform="matrix(-1.33333,0,0,1.33333,876.279,-598.331)">
        <path d="M301.68,607.2L393.12,607.2" style="fill:none;fill-rule:nonzero;stroke:black;stroke-width:0.72px;"/>
    </g>
    <g transform="matrix(-1.2958,-0.314133,-0.314133,1.2958,944.19,-479.529)">
        <path d="M301.339,608.133L309.489,608.133L302.244,604.401L303.191,606.606L301.339,608.133Z" style="stroke:black;stroke-width:0.72px;"/>
    </g>
    <g transform="matrix(1.33333,0,0,1.33333,-50.1205,-677.691)">
        <path d="M337.2,636.96L357.12,636.96" style="fill:none;fill-rule:nonzero;stroke:black;stroke-width:0.72px;"/>
    </g>
    <g transform="matrix(0.666796,1.15463,1.15463,-0.666796,-538.3,183.97)">
        <path d="M353.656,630.96L367.514,630.96" style="fill:none;fill-rule:nonzero;stroke:black;stroke-width:0.72px;"/>
    </g>
    <g transform="matrix(-0.666267,-1.15493,-1.15493,0.666267,1363.67,121.646)">
        <path d="M328.911,643.425L341.899,643.425" style="fill:none;fill-rule:nonzero;stroke:black;stroke-width:0.72px;"/>
    </g>
    <g transform="matrix(-0.667127,-1.15443,-1.15443,0.667127,1355.88,118.812)">
        <path d="M324.625,642.54L339.455,642.54" style="fill:none;fill-rule:nonzero;stroke:black;stroke-width:0.72px;"/>
    </g>
    <g transform="matrix(-0.666796,1.15463,1.15463,0.666796,-111.13,-626.472)">
        <path d="M326.806,630.96L340.664,630.96" style="fill:none;fill-rule:nonzero;stroke:black;stroke-width:0.72px;"/>
    </g>
    <g transform="matrix(0.667127,-1.15443,-1.15443,-0.667127,933.003,1011.03)">
        <path d="M354.865,642.54L369.695,642.54" style="fill:none;fill-rule:nonzero;stroke:black;stroke-width:0.72px;"/>
    </g>
    <g transform="matrix(0.666267,-1.15493,-1.15493,-0.666267,932.411,1006.18)">
        <path d="M352.421,643.425L365.409,643.425" style="fill:none;fill-rule:nonzero;stroke:black;stroke-width:0.72px;"/>
    </g>
    <g transform="matrix(-0.689811,-1.14103,-1.14103,0.689811,1144.54,84.8541)">
        <path d="M243.106,603.67L256.964,603.67" style="fill:none;fill-rule:nonzero;stroke:black;stroke-width:0.72px;"/>
    </g>
    <g transform="matrix(-1.33306,0.0267684,0.0267684,1.33306,636.683,-580.533)">
        <path d="M253.618,597.94L273.542,597.94" style="fill:none;fill-rule:nonzero;stroke:black;stroke-width:0.72px;"/>
    </g>
    <g transform="matrix(-1.33305,0.0273035,0.0273035,1.33305,636.082,-589.624)">
        <path d="M255.208,601.3L271.812,601.3" style="fill:none;fill-rule:nonzero;stroke:black;stroke-width:0.72px;"/>
    </g>
    <g transform="matrix(0.643355,-1.16785,-1.16785,-0.643355,813.36,904.92)">
        <path d="M243.143,591.55L257.277,591.55" style="fill:none;fill-rule:nonzero;stroke:black;stroke-width:0.72px;"/>
    </g>
    <g transform="matrix(0.643201,-1.16793,-1.16793,-0.643201,850.753,927.14)">
        <path d="M268.384,606.865L288.306,606.865" style="fill:none;fill-rule:nonzero;stroke:black;stroke-width:0.72px;"/>
    </g>
    <g transform="matrix(-0.690124,-1.14084,-1.14084,0.690124,1224.62,82.3076)">
        <path d="M272.712,621.475L286.468,621.475" style="fill:none;fill-rule:nonzero;stroke:black;stroke-width:0.72px;"/>
    </g>
    <g transform="matrix(-0.689876,-1.14099,-1.14099,0.689876,1216.72,78.4624)">
        <path d="M268.701,621.315L282.829,621.315" style="fill:none;fill-rule:nonzero;stroke:black;stroke-width:0.72px;"/>
    </g>
</svg>
