<?xml version="1.0" encoding="UTF-8" standalone="no"?>
<!DOCTYPE svg PUBLIC "-//W3C//DTD SVG 1.1//EN" "http://www.w3.org/Graphics/SVG/1.1/DTD/svg11.dtd">
<svg width="100%" height="100%" viewBox="0 0 635 415" version="1.1" xmlns="http://www.w3.org/2000/svg" xmlns:xlink="http://www.w3.org/1999/xlink" xml:space="preserve" xmlns:serif="http://www.serif.com/" style="fill-rule:evenodd;clip-rule:evenodd;stroke-linecap:round;stroke-linejoin:round;stroke-miterlimit:10;">
    <g transform="matrix(1.33333,0,0,1.33333,-84.9578,-100.365)">
        <text x="107.04px" y="105.6px" style="font-family:'ArialMT', 'Arial', sans-serif;font-size:10px;">NH</text>
        <text x="121.44px" y="108.24px" style="font-family:'ArialMT', 'Arial', sans-serif;font-size:8px;">2</text>
    </g>
    <g transform="matrix(1.33333,0,0,1.33333,-84.9578,-100.365)">
        <text x="77.04px" y="88.32px" style="font-family:'ArialMT', 'Arial', sans-serif;font-size:10px;">C</text>
    </g>
    <g transform="matrix(1.33333,0,0,1.33333,-84.9578,-100.365)">
        <text x="65.52px" y="88.32px" style="font-family:'ArialMT', 'Arial', sans-serif;font-size:10px;">H</text>
        <text x="72.72px" y="90.96px" style="font-family:'ArialMT', 'Arial', sans-serif;font-size:8px;">3</text>
    </g>
    <g transform="matrix(1.33333,0,0,1.33333,-84.9578,-100.365)">
        <text x="77.04px" y="122.64px" style="font-family:'ArialMT', 'Arial', sans-serif;font-size:10px;">C</text>
    </g>
    <g transform="matrix(1.33333,0,0,1.33333,-84.9578,-100.365)">
        <text x="65.52px" y="122.64px" style="font-family:'ArialMT', 'Arial', sans-serif;font-size:10px;">H</text>
        <text x="72.72px" y="125.28px" style="font-family:'ArialMT', 'Arial', sans-serif;font-size:8px;">3</text>
    </g>
    <g transform="matrix(1.33333,0,0,1.33333,-84.9578,-100.365)">
        <text x="96.96px" y="122.64px" style="font-family:'ArialMT', 'Arial', sans-serif;font-size:10px;">CH</text>
        <text x="111.36px" y="125.28px" style="font-family:'ArialMT', 'Arial', sans-serif;font-size:8px;">3</text>
    </g>
    <g transform="matrix(1.33333,0,0,1.33333,-84.9578,-100.365)">
        <text x="147.6px" y="111.36px" style="font-family:'ArialMT', 'Arial', sans-serif;font-size:18px;">+</text>
    </g>
    <g transform="matrix(1.33333,0,0,1.33333,-84.9578,-100.365)">
        <text x="220.56px" y="89.52px" style="font-family:'ArialMT', 'Arial', sans-serif;font-size:10px;">O</text>
    </g>
    <g transform="matrix(1.33333,0,0,1.33333,-84.9578,-100.365)">
        <text x="237.6px" y="119.52px" style="font-family:'ArialMT', 'Arial', sans-serif;font-size:10px;">O</text>
        <text x="245.52px" y="119.52px" style="font-family:'ArialMT', 'Arial', sans-serif;font-size:10px;">Et</text>
    </g>
    <g transform="matrix(1.33333,0,0,1.33333,-84.9578,-100.365)">
        <text x="186.24px" y="108.96px" style="font-family:'ArialMT', 'Arial', sans-serif;font-size:10px;">C</text>
    </g>
    <g transform="matrix(1.33333,0,0,1.33333,-84.9578,-100.365)">
        <text x="174.72px" y="108.96px" style="font-family:'ArialMT', 'Arial', sans-serif;font-size:10px;">H</text>
        <text x="181.92px" y="111.6px" style="font-family:'ArialMT', 'Arial', sans-serif;font-size:8px;">2</text>
    </g>
    <g transform="matrix(1.33333,0,0,1.33333,-84.9578,-100.365)">
        <text x="434.64px" y="115.2px" style="font-family:'ArialMT', 'Arial', sans-serif;font-size:10px;">O</text>
        <text x="442.56px" y="115.2px" style="font-family:'ArialMT', 'Arial', sans-serif;font-size:10px;">Et</text>
    </g>
    <g transform="matrix(1.33333,0,0,1.33333,-84.9578,-100.365)">
        <text x="366px" y="115.2px" style="font-family:'ArialMT', 'Arial', sans-serif;font-size:10px;">NH</text>
    </g>
    <g transform="matrix(1.33333,0,0,1.33333,-84.9578,-100.365)">
        <text x="348.72px" y="85.44px" style="font-family:'ArialMT', 'Arial', sans-serif;font-size:10px;">CH</text>
        <text x="363.12px" y="88.08px" style="font-family:'ArialMT', 'Arial', sans-serif;font-size:8px;">3</text>
    </g>
    <g transform="matrix(1.33333,0,0,1.33333,-84.9578,-100.365)">
        <text x="331.44px" y="115.2px" style="font-family:'ArialMT', 'Arial', sans-serif;font-size:10px;">C</text>
    </g>
    <g transform="matrix(1.33333,0,0,1.33333,-84.9578,-100.365)">
        <text x="319.92px" y="115.2px" style="font-family:'ArialMT', 'Arial', sans-serif;font-size:10px;">H</text>
        <text x="327.12px" y="117.84px" style="font-family:'ArialMT', 'Arial', sans-serif;font-size:8px;">3</text>
    </g>
    <g transform="matrix(1.33333,0,0,1.33333,-84.9578,-100.365)">
        <text x="348.72px" y="125.28px" style="font-family:'ArialMT', 'Arial', sans-serif;font-size:10px;">CH</text>
        <text x="363.12px" y="127.92px" style="font-family:'ArialMT', 'Arial', sans-serif;font-size:8px;">3</text>
    </g>
    <g transform="matrix(1.33333,0,0,1.33333,-84.9578,-100.365)">
        <text x="417.36px" y="85.44px" style="font-family:'ArialMT', 'Arial', sans-serif;font-size:10px;">O</text>
    </g>
    <g transform="matrix(1.33333,0,0,1.33333,-84.9578,-100.365)">
        <text x="429.36px" y="349.2px" style="font-family:'ArialMT', 'Arial', sans-serif;font-size:10px;">N</text>
    </g>
    <g transform="matrix(1.33333,0,0,1.33333,-84.9578,-100.365)">
        <text x="468.96px" y="348.96px" style="font-family:'ArialMT', 'Arial', sans-serif;font-size:10px;">O</text>
    </g>
    <g transform="matrix(1.33333,0,0,1.33333,-84.9578,-100.365)">
        <text x="429.12px" y="383.52px" style="font-family:'ArialMT', 'Arial', sans-serif;font-size:10px;">O</text>
    </g>
    <g transform="matrix(1.33333,0,0,1.33333,-84.9578,-100.365)">
        <text x="468.96px" y="383.52px" style="font-family:'ArialMT', 'Arial', sans-serif;font-size:10px;">O</text>
    </g>
    <g transform="matrix(1.33333,0,0,1.33333,-84.9578,-100.365)">
        <text x="488.64px" y="314.4px" style="font-family:'ArialMT', 'Arial', sans-serif;font-size:10px;">O</text>
    </g>
    <g transform="matrix(1.33333,0,0,1.33333,-84.9578,-100.365)">
        <text x="518.88px" y="297.12px" style="font-family:'ArialMT', 'Arial', sans-serif;font-size:10px;">CH</text>
        <text x="533.28px" y="299.76px" style="font-family:'ArialMT', 'Arial', sans-serif;font-size:8px;">3</text>
    </g>
    <g transform="matrix(1.33333,0,0,1.33333,-84.9578,-100.365)">
        <text x="458.88px" y="297.36px" style="font-family:'ArialMT', 'Arial', sans-serif;font-size:10px;">O</text>
    </g>
    <g transform="matrix(1.33333,0,0,1.33333,-84.9578,-100.365)">
        <text x="498.96px" y="331.68px" style="font-family:'ArialMT', 'Arial', sans-serif;font-size:10px;">CH</text>
        <text x="513.36px" y="334.32px" style="font-family:'ArialMT', 'Arial', sans-serif;font-size:8px;">3</text>
    </g>
    <g transform="matrix(1.33333,0,0,1.33333,-84.9578,-100.365)">
        <text x="399.36px" y="331.92px" style="font-family:'ArialMT', 'Arial', sans-serif;font-size:10px;">C</text>
    </g>
    <g transform="matrix(1.33333,0,0,1.33333,-84.9578,-100.365)">
        <text x="387.84px" y="331.92px" style="font-family:'ArialMT', 'Arial', sans-serif;font-size:10px;">H</text>
        <text x="395.04px" y="334.56px" style="font-family:'ArialMT', 'Arial', sans-serif;font-size:8px;">3</text>
    </g>
    <g transform="matrix(1.33333,0,0,1.33333,-84.9578,-100.365)">
        <text x="399.36px" y="366.48px" style="font-family:'ArialMT', 'Arial', sans-serif;font-size:10px;">C</text>
    </g>
    <g transform="matrix(1.33333,0,0,1.33333,-84.9578,-100.365)">
        <text x="387.84px" y="366.48px" style="font-family:'ArialMT', 'Arial', sans-serif;font-size:10px;">H</text>
        <text x="395.044px" y="369.12px" style="font-family:'ArialMT', 'Arial', sans-serif;font-size:8px;">3</text>
        <text x="414.48px" y="366.24px" style="font-family:'ArialMT', 'Arial', sans-serif;font-size:10px;"><tspan x="414.48px " y="366.24px ">C</tspan>H</text>
        <text x="428.888px" y="368.88px" style="font-family:'ArialMT', 'Arial', sans-serif;font-size:8px;">3</text>
    </g>
    <g transform="matrix(1.33333,0,0,1.33333,-84.9578,-100.365)">
        <text x="341.76px" y="213.12px" style="font-family:'ArialMT', 'Arial', sans-serif;font-size:10px;">O</text>
    </g>
    <g transform="matrix(1.33333,0,0,1.33333,-84.9578,-100.365)">
        <text x="381.6px" y="213.36px" style="font-family:'ArialMT', 'Arial', sans-serif;font-size:10px;">O</text>
    </g>
    <g transform="matrix(1.33333,0,0,1.33333,-84.9578,-100.365)">
        <text x="312.24px" y="230.16px" style="font-family:'ArialMT', 'Arial', sans-serif;font-size:10px;">C</text>
    </g>
    <g transform="matrix(1.33333,0,0,1.33333,-84.9578,-100.365)">
        <text x="300.72px" y="230.16px" style="font-family:'ArialMT', 'Arial', sans-serif;font-size:10px;">H</text>
        <text x="307.92px" y="232.8px" style="font-family:'ArialMT', 'Arial', sans-serif;font-size:8px;">3</text>
    </g>
    <g transform="matrix(1.33333,0,0,1.33333,-84.9578,-100.365)">
        <text x="342px" y="178.56px" style="font-family:'ArialMT', 'Arial', sans-serif;font-size:10px;">O</text>
    </g>
    <g transform="matrix(1.33333,0,0,1.33333,-84.9578,-100.365)">
        <text x="381.84px" y="178.8px" style="font-family:'ArialMT', 'Arial', sans-serif;font-size:10px;">O</text>
    </g>
    <g transform="matrix(1.33333,0,0,1.33333,-84.9578,-100.365)">
        <text x="411.84px" y="230.64px" style="font-family:'ArialMT', 'Arial', sans-serif;font-size:10px;">CH</text>
        <text x="426.24px" y="233.28px" style="font-family:'ArialMT', 'Arial', sans-serif;font-size:8px;">3</text>
    </g>
    <g transform="matrix(1.33333,0,0,1.33333,-84.9578,-100.365)">
        <text x="334.32px" y="340.32px" style="font-family:'ArialMT', 'Arial', sans-serif;font-size:10px;">Na</text>
        <text x="347.04px" y="340.32px" style="font-family:'ArialMT', 'Arial', sans-serif;font-size:10px;">O<tspan x="354.96px " y="340.32px ">H</tspan></text>
    </g>
    <g transform="matrix(1.33333,0,0,1.33333,-84.9578,-100.365)">
        <text x="237.6px" y="351.84px" style="font-family:'ArialMT', 'Arial', sans-serif;font-size:10px;">N</text>
    </g>
    <g transform="matrix(1.33333,0,0,1.33333,-84.9578,-100.365)">
        <text x="288.72px" y="357.84px" style="font-family:'ArialMT', 'Arial', sans-serif;font-size:10px;">O</text>
    </g>
    <g transform="matrix(1.33333,0,0,1.33333,-84.9578,-100.365)">
        <text x="204px" y="344.64px" style="font-family:'ArialMT', 'Arial', sans-serif;font-size:10px;">C</text>
    </g>
    <g transform="matrix(1.33333,0,0,1.33333,-84.9578,-100.365)">
        <text x="192.48px" y="344.64px" style="font-family:'ArialMT', 'Arial', sans-serif;font-size:10px;">H</text>
        <text x="199.68px" y="347.28px" style="font-family:'ArialMT', 'Arial', sans-serif;font-size:8px;">3</text>
    </g>
    <g transform="matrix(1.33333,0,0,1.33333,-84.9578,-100.365)">
        <text x="214.56px" y="377.52px" style="font-family:'ArialMT', 'Arial', sans-serif;font-size:10px;">C</text>
    </g>
    <g transform="matrix(1.33333,0,0,1.33333,-84.9578,-100.365)">
        <text x="203.04px" y="377.52px" style="font-family:'ArialMT', 'Arial', sans-serif;font-size:10px;">H</text>
        <text x="210.24px" y="380.16px" style="font-family:'ArialMT', 'Arial', sans-serif;font-size:8px;">3</text>
    </g>
    <g transform="matrix(1.33333,0,0,1.33333,-84.9578,-100.365)">
        <text x="227.52px" y="371.28px" style="font-family:'ArialMT', 'Arial', sans-serif;font-size:10px;">CH</text>
        <text x="241.92px" y="373.92px" style="font-family:'ArialMT', 'Arial', sans-serif;font-size:8px;">3</text>
    </g>
    <g transform="matrix(1.33333,0,0,1.33333,-84.9578,-100.365)">
        <text x="253.68px" y="383.28px" style="font-family:'ArialMT', 'Arial', sans-serif;font-size:10px;">O</text>
    </g>
    <g transform="matrix(1.33333,0,0,1.33333,-84.9578,-100.365)">
        <text x="143.76px" y="342px" style="font-family:'ArialMT', 'Arial', sans-serif;font-size:10px;">N</text>
    </g>
    <g transform="matrix(1.33333,0,0,1.33333,-84.9578,-100.365)">
        <text x="71.04px" y="354.24px" style="font-family:'ArialMT', 'Arial', sans-serif;font-size:10px;">T<tspan x="77.28px " y="354.24px ">M</tspan></text>
    </g>
    <g transform="matrix(1.33333,0,0,1.33333,-84.9578,-952.205)">
        <path d="M90.72,740.4L106.08,740.4" style="fill:none;fill-rule:nonzero;stroke:black;stroke-width:0.72px;"/>
    </g>
    <g transform="matrix(-0.666796,-1.15463,-1.15463,0.666796,951.376,-369.955)">
        <path d="M80.326,746.4L94.184,746.4" style="fill:none;fill-rule:nonzero;stroke:black;stroke-width:0.72px;"/>
    </g>
    <g transform="matrix(-0.666796,1.15463,1.15463,0.666796,-758.394,-547.447)">
        <path d="M80.326,734.4L94.184,734.4" style="fill:none;fill-rule:nonzero;stroke:black;stroke-width:0.72px;"/>
    </g>
    <g transform="matrix(0.666796,1.15463,1.15463,-0.666796,-870.137,423.942)">
        <path d="M87.256,734.4L101.114,734.4" style="fill:none;fill-rule:nonzero;stroke:black;stroke-width:0.72px;"/>
    </g>
    <g transform="matrix(0.016215,-1.33323,-1.33323,-0.016215,1204.54,344.007)">
        <path d="M218.729,743.8L233.531,743.8" style="fill:none;fill-rule:nonzero;stroke:black;stroke-width:0.72px;"/>
    </g>
    <g transform="matrix(0.016259,-1.33323,-1.33323,-0.016259,1200.13,339.534)">
        <path d="M215.389,743.82L230.151,743.82" style="fill:none;fill-rule:nonzero;stroke:black;stroke-width:0.72px;"/>
    </g>
    <g transform="matrix(-1.14693,-0.679941,-0.679941,1.14693,984.991,-638.568)">
        <path d="M223.362,732.78L237.638,732.78" style="fill:none;fill-rule:nonzero;stroke:black;stroke-width:0.72px;"/>
    </g>
    <g transform="matrix(1.16224,-0.653427,-0.653427,-1.16224,429.951,1037.97)">
        <path d="M205.722,731.54L225.638,731.54" style="fill:none;fill-rule:nonzero;stroke:black;stroke-width:0.72px;"/>
    </g>
    <g transform="matrix(-1.14692,-0.679961,-0.679961,1.14692,909.47,-652.903)">
        <path d="M193.376,730.395L208.024,730.395" style="fill:none;fill-rule:nonzero;stroke:black;stroke-width:0.72px;"/>
    </g>
    <g transform="matrix(-1.14676,-0.680235,-0.680235,1.14676,912.867,-661.83)">
        <path d="M193.644,734.14L208.306,734.14" style="fill:none;fill-rule:nonzero;stroke:black;stroke-width:0.72px;"/>
    </g>
    <g transform="matrix(1.33333,0,0,1.33333,-84.9578,-949.645)">
        <path d="M272.16,739.44L306.24,739.44" style="fill:none;fill-rule:nonzero;stroke:black;stroke-width:0.72px;"/>
    </g>
    <g transform="matrix(1.2958,0.314133,0.314133,-1.2958,-305.895,899.486)">
        <path d="M297.979,740.373L306.129,740.373L298.884,736.641L299.831,738.846L297.979,740.373Z" style="stroke:black;stroke-width:0.72px;"/>
    </g>
    <g transform="matrix(-1.15468,-0.666702,-0.666702,1.15468,1389.49,-544.303)">
        <path d="M385.546,735.6L405.464,735.6" style="fill:none;fill-rule:nonzero;stroke:black;stroke-width:0.72px;"/>
    </g>
    <g transform="matrix(-1.15468,0.666702,0.666702,1.15468,451.556,-1083.17)">
        <path d="M402.796,735.6L422.714,735.6" style="fill:none;fill-rule:nonzero;stroke:black;stroke-width:0.72px;"/>
    </g>
    <g transform="matrix(1.15476,0.666568,0.666568,-1.15476,-499.892,605.602)">
        <path d="M420.429,737.03L434.631,737.03" style="fill:none;fill-rule:nonzero;stroke:black;stroke-width:0.72px;"/>
    </g>
    <g transform="matrix(-1.1547,0.666662,0.666662,1.1547,375.264,-1069.68)">
        <path d="M378.035,738.21L387.515,738.21" style="fill:none;fill-rule:nonzero;stroke:black;stroke-width:0.72px;"/>
    </g>
    <g transform="matrix(-1.15467,-0.666718,-0.666718,1.15467,1298.84,-572.119)">
        <path d="M351.401,736.925L366.019,736.925" style="fill:none;fill-rule:nonzero;stroke:black;stroke-width:0.72px;"/>
    </g>
    <g transform="matrix(0,-1.33333,-1.33333,0,1382.12,494.795)">
        <path d="M345.03,747.93L359.73,747.93" style="fill:none;fill-rule:nonzero;stroke:black;stroke-width:0.72px;"/>
    </g>
    <g transform="matrix(-1.15464,0.666766,0.666766,1.15464,284.524,-1041.86)">
        <path d="M338.611,736.89L353.369,736.89" style="fill:none;fill-rule:nonzero;stroke:black;stroke-width:0.72px;"/>
    </g>
    <g transform="matrix(0,1.33333,1.33333,0,-592.678,-425.205)">
        <path d="M344.97,733.17L359.79,733.17" style="fill:none;fill-rule:nonzero;stroke:black;stroke-width:0.72px;"/>
    </g>
    <g transform="matrix(0,-1.33333,-1.33333,0,1476.36,589.035)">
        <path d="M415.71,747.93L430.41,747.93" style="fill:none;fill-rule:nonzero;stroke:black;stroke-width:0.72px;"/>
    </g>
    <g transform="matrix(0,-1.33333,-1.33333,0,1471.88,584.555)">
        <path d="M412.35,747.93L427.05,747.93" style="fill:none;fill-rule:nonzero;stroke:black;stroke-width:0.72px;"/>
    </g>
    <g transform="matrix(-0.663758,1.15638,1.15638,0.663758,205.237,-500.383)">
        <path d="M432.379,507.955L446.481,507.955" style="fill:none;fill-rule:nonzero;stroke:black;stroke-width:0.72px;"/>
    </g>
    <g transform="matrix(-1.33333,0.00267737,0.00267737,1.33333,1121.4,-349.922)">
        <path d="M442.94,514.09L462.86,514.09" style="fill:none;fill-rule:nonzero;stroke:black;stroke-width:0.72px;"/>
    </g>
    <g transform="matrix(-1.33333,0.00261437,0.00261437,1.33333,1035.74,-303.61)">
        <path d="M413.1,496.765L428.4,496.765" style="fill:none;fill-rule:nonzero;stroke:black;stroke-width:0.72px;"/>
    </g>
    <g transform="matrix(0.669607,1.153,1.153,-0.669607,-353.049,193.126)">
        <path d="M432.64,485.545L446.46,485.545" style="fill:none;fill-rule:nonzero;stroke:black;stroke-width:0.72px;"/>
    </g>
    <g transform="matrix(1.33333,-0.00267737,-0.00267737,-1.33333,-83.6726,1023.41)">
        <path d="M443.02,479.59L462.94,479.59" style="fill:none;fill-rule:nonzero;stroke:black;stroke-width:0.72px;"/>
    </g>
    <g transform="matrix(0.664181,-1.15613,-1.15613,-0.664181,788.671,1236.45)">
        <path d="M459.424,485.685L473.436,485.685" style="fill:none;fill-rule:nonzero;stroke:black;stroke-width:0.72px;"/>
    </g>
    <g transform="matrix(1.33333,-0.00356982,-0.00356982,-1.33333,-83.1816,1023.93)">
        <path d="M477.84,496.91L492.78,496.91" style="fill:none;fill-rule:nonzero;stroke:black;stroke-width:0.72px;"/>
    </g>
    <g transform="matrix(-0.664223,1.15611,1.15611,0.664223,241.744,-430.78)">
        <path d="M430.433,473.96L445.287,473.96" style="fill:none;fill-rule:nonzero;stroke:black;stroke-width:0.72px;"/>
    </g>
    <g transform="matrix(-0.663838,1.15633,1.15633,0.663838,249.21,-432.869)">
        <path d="M434.737,473.095L447.733,473.095" style="fill:none;fill-rule:nonzero;stroke:black;stroke-width:0.72px;"/>
    </g>
    <g transform="matrix(0.668574,1.1536,1.1536,-0.668574,-321.83,171.533)">
        <path d="M458.249,473.145L471.251,473.145" style="fill:none;fill-rule:nonzero;stroke:black;stroke-width:0.72px;"/>
    </g>
    <g transform="matrix(0.669665,1.15296,1.15296,-0.669665,-320.752,167.872)">
        <path d="M460.669,473.985L475.621,473.985" style="fill:none;fill-rule:nonzero;stroke:black;stroke-width:0.72px;"/>
    </g>
    <g transform="matrix(0.663823,-1.15634,-1.15634,-0.663823,832.728,1213.17)">
        <path d="M457.858,522.75L477.782,522.75" style="fill:none;fill-rule:nonzero;stroke:black;stroke-width:0.72px;"/>
    </g>
    <g transform="matrix(1.33333,-0.00268456,-0.00268456,-1.33333,-83.5299,1023.48)">
        <path d="M472.78,531.405L487.68,531.405" style="fill:none;fill-rule:nonzero;stroke:black;stroke-width:0.72px;"/>
    </g>
    <g transform="matrix(0.66389,-1.1563,-1.1563,-0.66389,876.693,1236.08)">
        <path d="M492.196,542.675L506.114,542.675" style="fill:none;fill-rule:nonzero;stroke:black;stroke-width:0.72px;"/>
    </g>
    <g transform="matrix(1.33333,-0.00261437,-0.00261437,-1.33333,-83.5219,1023.53)">
        <path d="M502.62,548.725L517.92,548.725" style="fill:none;fill-rule:nonzero;stroke:black;stroke-width:0.72px;"/>
    </g>
    <g transform="matrix(-0.66919,-1.15324,-1.15324,0.66919,1478.44,488.399)">
        <path d="M464.549,537.805L477.441,537.805" style="fill:none;fill-rule:nonzero;stroke:black;stroke-width:0.72px;"/>
    </g>
    <g transform="matrix(-0.669254,-1.1532,-1.1532,0.669254,1470.68,486.156)">
        <path d="M460.199,536.95L475.021,536.95" style="fill:none;fill-rule:nonzero;stroke:black;stroke-width:0.72px;"/>
    </g>
    <g transform="matrix(0.664395,-1.15601,-1.15601,-0.664395,828.465,1259.41)">
        <path d="M489.276,502.985L503.244,502.985" style="fill:none;fill-rule:nonzero;stroke:black;stroke-width:0.72px;"/>
    </g>
    <g transform="matrix(-0.669029,-1.15333,-1.15333,0.669029,1315.09,487.869)">
        <path d="M402.64,502.775L416.57,502.775" style="fill:none;fill-rule:nonzero;stroke:black;stroke-width:0.72px;"/>
    </g>
    <g transform="matrix(-0.663969,1.15625,1.15625,0.663969,165.815,-431.392)">
        <path d="M402.572,490.655L416.628,490.655" style="fill:none;fill-rule:nonzero;stroke:black;stroke-width:0.72px;"/>
    </g>
    <g transform="matrix(0.38558,1.27636,1.27636,-0.38558,-318.138,27.4915)">
        <path d="M408.663,490.775L421.147,490.775" style="fill:none;fill-rule:nonzero;stroke:black;stroke-width:0.72px;"/>
    </g>
    <g transform="matrix(0,1.33333,1.33333,0,-342.718,-415.725)">
        <path d="M373.56,635.88L511.56,635.88" style="fill:none;fill-rule:nonzero;stroke:black;stroke-width:0.72px;"/>
    </g>
    <g transform="matrix(-0.314133,1.2958,1.2958,0.314133,-95.5495,-491.714)">
        <path d="M438.259,571.773L446.409,571.773L439.164,568.041L440.111,570.246L438.259,571.773Z" style="stroke:black;stroke-width:0.72px;"/>
    </g>
    <g transform="matrix(-1.33332,-0.00602403,-0.00602403,1.33332,894.499,-708.672)">
        <path d="M355.87,649.905L375.79,649.905" style="fill:none;fill-rule:nonzero;stroke:black;stroke-width:0.72px;"/>
    </g>
    <g transform="matrix(0.671292,-1.15202,-1.15202,-0.671292,890.147,1001.81)">
        <path d="M345.403,643.935L359.327,643.935" style="fill:none;fill-rule:nonzero;stroke:black;stroke-width:0.72px;"/>
    </g>
    <g transform="matrix(-0.661519,-1.15766,-1.15766,0.661519,1416.89,177.034)">
        <path d="M372.256,643.77L386.284,643.77" style="fill:none;fill-rule:nonzero;stroke:black;stroke-width:0.72px;"/>
    </g>
    <g transform="matrix(-1.33332,-0.0053763,-0.0053763,1.33332,807.401,-663.446)">
        <path d="M325.92,632.79L340.8,632.79" style="fill:none;fill-rule:nonzero;stroke:black;stroke-width:0.72px;"/>
    </g>
    <g transform="matrix(-0.672188,1.1515,1.1515,0.672188,-160.122,-606.248)">
        <path d="M315.522,626.85L329.348,626.85" style="fill:none;fill-rule:nonzero;stroke:black;stroke-width:0.72px;"/>
    </g>
    <g transform="matrix(-0.661299,-1.15778,-1.15778,0.661299,1381.35,122.727)">
        <path d="M347.527,656.47L360.633,656.47" style="fill:none;fill-rule:nonzero;stroke:black;stroke-width:0.72px;"/>
    </g>
    <g transform="matrix(-0.661041,-1.15793,-1.15793,0.661041,1373.62,120.683)">
        <path d="M343.172,655.635L358.198,655.635" style="fill:none;fill-rule:nonzero;stroke:black;stroke-width:0.72px;"/>
    </g>
    <g transform="matrix(0.671773,-1.15174,-1.15174,-0.671773,922.024,1027.38)">
        <path d="M373.532,655.465L388.478,655.465" style="fill:none;fill-rule:nonzero;stroke:black;stroke-width:0.72px;"/>
    </g>
    <g transform="matrix(0.671445,-1.15193,-1.15193,-0.671445,921,1022.77)">
        <path d="M371.117,656.31L384.103,656.31" style="fill:none;fill-rule:nonzero;stroke:black;stroke-width:0.72px;"/>
    </g>
    <g transform="matrix(1.33332,0.00617686,0.00617686,-1.33332,-88.859,1019.73)">
        <path d="M390.48,632.505L405.59,632.505" style="fill:none;fill-rule:nonzero;stroke:black;stroke-width:0.72px;"/>
    </g>
    <g transform="matrix(0.661725,1.15754,1.15754,-0.661725,-535.366,127.997)">
        <path d="M402.088,626.435L415.992,626.435" style="fill:none;fill-rule:nonzero;stroke:black;stroke-width:0.72px;"/>
    </g>
    <g transform="matrix(-1.33333,0,0,1.33333,833.762,-298.125)">
        <path d="M313.92,495.12L375.12,495.12" style="fill:none;fill-rule:nonzero;stroke:black;stroke-width:0.72px;"/>
    </g>
    <g transform="matrix(-1.2958,-0.314133,-0.314133,1.2958,906.325,-179.684)">
        <path d="M313.579,496.053L321.729,496.053L314.484,492.321L315.431,494.526L313.579,496.053Z" style="stroke:black;stroke-width:0.72px;"/>
    </g>
    <g transform="matrix(1.07678,-0.786336,-0.786336,-1.07678,367.156,1105.77)">
        <path d="M255.643,488.305L275.567,488.305" style="fill:none;fill-rule:nonzero;stroke:black;stroke-width:0.72px;"/>
    </g>
    <g transform="matrix(0.415005,1.2671,1.2671,-0.415005,-474.674,216.869)">
        <path d="M260.59,503.645L280.51,503.645" style="fill:none;fill-rule:nonzero;stroke:black;stroke-width:0.72px;"/>
    </g>
    <g transform="matrix(1.08057,0.781122,0.781122,-1.08057,-401.515,702.598)">
        <path d="M244.38,486.695L258.94,486.695" style="fill:none;fill-rule:nonzero;stroke:black;stroke-width:0.72px;"/>
    </g>
    <g transform="matrix(1.33333,-0.00334503,-0.00334503,-1.33333,-83.2404,1023.05)">
        <path d="M247.52,513.085L267.45,513.085" style="fill:none;fill-rule:nonzero;stroke:black;stroke-width:0.72px;"/>
    </g>
    <g transform="matrix(-0.408427,1.26924,1.26924,0.408427,-300.121,-170.693)">
        <path d="M238.01,506.13L252.57,506.13" style="fill:none;fill-rule:nonzero;stroke:black;stroke-width:0.72px;"/>
    </g>
    <g transform="matrix(1.26893,0.409388,0.409388,-1.26893,-267.586,875.812)">
        <path d="M272.759,490.22L288.131,490.22" style="fill:none;fill-rule:nonzero;stroke:black;stroke-width:0.72px;"/>
    </g>
    <g transform="matrix(1.26914,0.408737,0.408737,-1.26914,-268.666,875.671)">
        <path d="M273.816,493.58L288.104,493.58" style="fill:none;fill-rule:nonzero;stroke:black;stroke-width:0.72px;"/>
    </g>
    <g transform="matrix(-1.26722,0.414645,0.414645,1.26722,308.773,-347.823)">
        <path d="M222.121,490.215L237.009,490.215" style="fill:none;fill-rule:nonzero;stroke:black;stroke-width:0.72px;"/>
    </g>
    <g transform="matrix(-0.993303,-0.889453,-0.889453,0.993303,858.756,69.5693)">
        <path d="M210.392,492.525L224.258,492.525" style="fill:none;fill-rule:nonzero;stroke:black;stroke-width:0.72px;"/>
    </g>
    <g transform="matrix(-0.27404,1.30487,1.30487,0.27404,-357.023,-38.8349)">
        <path d="M213.633,480.71L228.327,480.71" style="fill:none;fill-rule:nonzero;stroke:black;stroke-width:0.72px;"/>
    </g>
    <g transform="matrix(0.738025,1.11045,1.11045,-0.738025,-488.166,484.1)">
        <path d="M220.308,483.83L230.082,483.83" style="fill:none;fill-rule:nonzero;stroke:black;stroke-width:0.72px;"/>
    </g>
    <g transform="matrix(0.00272851,1.33333,1.33333,-0.00272851,-377.915,48.8457)">
        <path d="M248.565,475.09L263.225,475.09" style="fill:none;fill-rule:nonzero;stroke:black;stroke-width:0.72px;"/>
    </g>
    <g transform="matrix(0.00272665,1.33333,1.33333,-0.00272665,-373.45,44.3582)">
        <path d="M251.92,475.095L266.59,475.095" style="fill:none;fill-rule:nonzero;stroke:black;stroke-width:0.72px;"/>
    </g>
    <g transform="matrix(-1.33333,0,0,1.33333,288.162,-294.925)">
        <path d="M98.16,493.92L181.68,493.92" style="fill:none;fill-rule:nonzero;stroke:black;stroke-width:0.72px;"/>
    </g>
    <g transform="matrix(-1.2958,-0.314133,-0.314133,1.2958,338.686,-244.307)">
        <path d="M97.819,494.853L105.969,494.853L98.724,491.121L99.671,493.326L97.819,494.853Z" style="stroke:black;stroke-width:0.72px;"/>
    </g>
    <g transform="matrix(0,-1.33333,-1.33333,0,833.402,543.435)">
        <path d="M154.89,523.92L174.81,523.92" style="fill:none;fill-rule:nonzero;stroke:black;stroke-width:0.72px;"/>
    </g>
    <g transform="matrix(1.15468,0.666702,0.666702,-1.15468,-416.307,821.771)">
        <path d="M146.266,538.86L166.184,538.86" style="fill:none;fill-rule:nonzero;stroke:black;stroke-width:0.72px;"/>
    </g>
    <g transform="matrix(1.15458,0.666876,0.666876,-1.15458,-414.745,823.33)">
        <path d="M146.248,535.95L162.842,535.95" style="fill:none;fill-rule:nonzero;stroke:black;stroke-width:0.72px;"/>
    </g>
    <g transform="matrix(1.15451,-0.666992,-0.666992,-1.15451,283.681,1036.6)">
        <path d="M150.919,510.225L165.851,510.225" style="fill:none;fill-rule:nonzero;stroke:black;stroke-width:0.72px;"/>
    </g>
    <g transform="matrix(1.1546,-0.666846,-0.666846,-1.1546,284.652,1034.39)">
        <path d="M148.672,512.54L162.668,512.54" style="fill:none;fill-rule:nonzero;stroke:black;stroke-width:0.72px;"/>
    </g>
    <g transform="matrix(1.15468,-0.666702,-0.666702,-1.15468,299.13,1018.58)">
        <path d="M129.016,538.86L148.934,538.86" style="fill:none;fill-rule:nonzero;stroke:black;stroke-width:0.72px;"/>
    </g>
    <g transform="matrix(1.15462,0.666805,0.666805,-1.15462,-400.864,839.918)">
        <path d="M129.386,510.365L143.764,510.365" style="fill:none;fill-rule:nonzero;stroke:black;stroke-width:0.72px;"/>
    </g>
    <g transform="matrix(0,-1.33333,-1.33333,0,787.402,497.435)">
        <path d="M120.39,523.92L140.31,523.92" style="fill:none;fill-rule:nonzero;stroke:black;stroke-width:0.72px;"/>
    </g>
    <g transform="matrix(0,-1.33333,-1.33333,0,791.882,501.915)">
        <path d="M125.41,523.92L142.01,523.92" style="fill:none;fill-rule:nonzero;stroke:black;stroke-width:0.72px;"/>
    </g>
</svg>
