<?xml version="1.0" encoding="UTF-8" standalone="no"?>
<!DOCTYPE svg PUBLIC "-//W3C//DTD SVG 1.1//EN" "http://www.w3.org/Graphics/SVG/1.1/DTD/svg11.dtd">
<svg width="100%" height="100%" viewBox="0 0 660 425" version="1.1" xmlns="http://www.w3.org/2000/svg" xmlns:xlink="http://www.w3.org/1999/xlink" xml:space="preserve" xmlns:serif="http://www.serif.com/" style="fill-rule:evenodd;clip-rule:evenodd;stroke-linecap:round;stroke-linejoin:round;stroke-miterlimit:10;">
    <g transform="matrix(1.33333,0,0,1.33333,-54.403,-83.9232)">
        <text x="124.08px" y="112.32px" style="font-family:'ArialMT', 'Arial', sans-serif;font-size:10px;">O</text>
    </g>
    <g transform="matrix(1.33333,0,0,1.33333,-54.403,-83.9232)">
        <text x="124.08px" y="78px" style="font-family:'ArialMT', 'Arial', sans-serif;font-size:10px;">O</text>
    </g>
    <g transform="matrix(1.33333,0,0,1.33333,-54.403,-83.9232)">
        <text x="146.4px" y="112.32px" style="font-family:'ArialMT', 'Arial', sans-serif;font-size:10px;">t</text>
        <text x="149.28px" y="112.32px" style="font-family:'ArialMT', 'Arial', sans-serif;font-size:10px;">-Bu</text>
    </g>
    <g transform="matrix(1.33333,0,0,1.33333,-54.403,-83.9232)">
        <text x="54.72px" y="95.28px" style="font-family:'ArialMT', 'Arial', sans-serif;font-size:10px;">C</text>
    </g>
    <g transform="matrix(1.33333,0,0,1.33333,-54.403,-83.9232)">
        <text x="43.2px" y="95.28px" style="font-family:'ArialMT', 'Arial', sans-serif;font-size:10px;">H</text>
        <text x="50.4px" y="97.92px" style="font-family:'ArialMT', 'Arial', sans-serif;font-size:8px;">3</text>
    </g>
    <g transform="matrix(1.33333,0,0,1.33333,-54.403,-83.9232)">
        <text x="175.92px" y="84px" style="font-family:'ArialMT', 'Arial', sans-serif;font-size:10px;">KM</text>
        <text x="191.04px" y="84px" style="font-family:'ArialMT', 'Arial', sans-serif;font-size:10px;">n</text>
        <text x="196.56px" y="84px" style="font-family:'ArialMT', 'Arial', sans-serif;font-size:10px;">O</text>
        <text x="204.48px" y="86.64px" style="font-family:'ArialMT', 'Arial', sans-serif;font-size:6px;">4</text>
    </g>
    <g transform="matrix(1.33333,0,0,1.33333,-54.403,-83.9232)">
        <text x="263.04px" y="124.56px" style="font-family:'ArialMT', 'Arial', sans-serif;font-size:10px;">O</text>
    </g>
    <g transform="matrix(1.33333,0,0,1.33333,-54.403,-83.9232)">
        <text x="228.96px" y="104.64px" style="font-family:'ArialMT', 'Arial', sans-serif;font-size:10px;">C</text>
    </g>
    <g transform="matrix(1.33333,0,0,1.33333,-54.403,-83.9232)">
        <text x="217.44px" y="104.64px" style="font-family:'ArialMT', 'Arial', sans-serif;font-size:10px;">H</text>
        <text x="224.64px" y="107.28px" style="font-family:'ArialMT', 'Arial', sans-serif;font-size:8px;">3</text>
    </g>
    <g transform="matrix(1.33333,0,0,1.33333,-54.403,-83.9232)">
        <text x="297.6px" y="104.64px" style="font-family:'ArialMT', 'Arial', sans-serif;font-size:10px;">O</text>
    </g>
    <g transform="matrix(1.33333,0,0,1.33333,-54.403,-83.9232)">
        <text x="245.76px" y="74.64px" style="font-family:'ArialMT', 'Arial', sans-serif;font-size:10px;">O</text>
    </g>
    <g transform="matrix(1.33333,0,0,1.33333,-54.403,-83.9232)">
        <text x="280.32px" y="74.64px" style="font-family:'ArialMT', 'Arial', sans-serif;font-size:10px;">O</text>
    </g>
    <g transform="matrix(1.33333,0,0,1.33333,-54.403,-83.9232)">
        <text x="317.28px" y="94.56px" style="font-family:'ArialMT', 'Arial', sans-serif;font-size:10px;">t</text>
        <text x="320.16px" y="94.56px" style="font-family:'ArialMT', 'Arial', sans-serif;font-size:10px;">-Bu</text>
    </g>
    <g transform="matrix(1.33333,0,0,1.33333,-54.403,-83.9232)">
        <text x="371.52px" y="124.56px" style="font-family:'ArialMT', 'Arial', sans-serif;font-size:10px;">CH</text>
        <text x="385.92px" y="127.2px" style="font-family:'ArialMT', 'Arial', sans-serif;font-size:6px;">2</text>
        <text x="389.52px" y="124.56px" style="font-family:'ArialMT', 'Arial', sans-serif;font-size:10px;">O<tspan x="397.44px " y="124.56px ">H</tspan></text>
    </g>
    <g transform="matrix(1.33333,0,0,1.33333,-54.403,-83.9232)">
        <text x="358.32px" y="150.24px" style="font-family:'ArialMT', 'Arial', sans-serif;font-size:10px;">NH</text>
    </g>
    <g transform="matrix(1.33333,0,0,1.33333,-54.403,-83.9232)">
        <text x="348.24px" y="132.96px" style="font-family:'ArialMT', 'Arial', sans-serif;font-size:10px;">N</text>
    </g>
    <g transform="matrix(1.33333,0,0,1.33333,-54.403,-83.9232)">
        <text x="336.72px" y="132.96px" style="font-family:'ArialMT', 'Arial', sans-serif;font-size:10px;">H</text>
        <text x="343.92px" y="135.6px" style="font-family:'ArialMT', 'Arial', sans-serif;font-size:8px;">2</text>
    </g>
    <g transform="matrix(1.33333,0,0,1.33333,-54.403,-83.9232)">
        <text x="348.24px" y="167.28px" style="font-family:'ArialMT', 'Arial', sans-serif;font-size:10px;">N</text>
    </g>
    <g transform="matrix(1.33333,0,0,1.33333,-54.403,-83.9232)">
        <text x="336.72px" y="167.28px" style="font-family:'ArialMT', 'Arial', sans-serif;font-size:10px;">H</text>
        <text x="343.92px" y="169.92px" style="font-family:'ArialMT', 'Arial', sans-serif;font-size:8px;">2</text>
    </g>
    <g transform="matrix(1.33333,0,0,1.33333,-54.403,-83.9232)">
        <text x="455.76px" y="205.44px" style="font-family:'ArialMT', 'Arial', sans-serif;font-size:10px;">O</text>
    </g>
    <g transform="matrix(1.33333,0,0,1.33333,-54.403,-83.9232)">
        <text x="490.32px" y="185.52px" style="font-family:'ArialMT', 'Arial', sans-serif;font-size:10px;">O</text>
    </g>
    <g transform="matrix(1.33333,0,0,1.33333,-54.403,-83.9232)">
        <text x="438.48px" y="155.76px" style="font-family:'ArialMT', 'Arial', sans-serif;font-size:10px;">O</text>
    </g>
    <g transform="matrix(1.33333,0,0,1.33333,-54.403,-83.9232)">
        <text x="473.04px" y="155.52px" style="font-family:'ArialMT', 'Arial', sans-serif;font-size:10px;">O</text>
    </g>
    <g transform="matrix(1.33333,0,0,1.33333,-54.403,-83.9232)">
        <text x="510px" y="175.44px" style="font-family:'ArialMT', 'Arial', sans-serif;font-size:10px;">t</text>
        <text x="512.88px" y="175.44px" style="font-family:'ArialMT', 'Arial', sans-serif;font-size:10px;">-Bu</text>
    </g>
    <g transform="matrix(1.33333,0,0,1.33333,-54.403,-83.9232)">
        <text x="404.4px" y="215.52px" style="font-family:'ArialMT', 'Arial', sans-serif;font-size:10px;">N</text>
    </g>
    <g transform="matrix(1.33333,0,0,1.33333,-54.403,-83.9232)">
        <text x="387.12px" y="205.44px" style="font-family:'ArialMT', 'Arial', sans-serif;font-size:10px;">C</text>
    </g>
    <g transform="matrix(1.33333,0,0,1.33333,-54.403,-83.9232)">
        <text x="375.6px" y="205.44px" style="font-family:'ArialMT', 'Arial', sans-serif;font-size:10px;">H</text>
        <text x="382.8px" y="208.08px" style="font-family:'ArialMT', 'Arial', sans-serif;font-size:8px;">3</text>
    </g>
    <g transform="matrix(1.33333,0,0,1.33333,-54.403,-83.9232)">
        <text x="404.4px" y="235.44px" style="font-family:'ArialMT', 'Arial', sans-serif;font-size:10px;">CH</text>
        <text x="418.8px" y="238.08px" style="font-family:'ArialMT', 'Arial', sans-serif;font-size:8px;">3</text>
    </g>
    <g transform="matrix(1.33333,0,0,1.33333,-54.403,-83.9232)">
        <text x="460.56px" y="364.56px" style="font-family:'ArialMT', 'Arial', sans-serif;font-size:10px;">O</text>
    </g>
    <g transform="matrix(1.33333,0,0,1.33333,-54.403,-83.9232)">
        <text x="495.12px" y="344.64px" style="font-family:'ArialMT', 'Arial', sans-serif;font-size:10px;">O</text>
    </g>
    <g transform="matrix(1.33333,0,0,1.33333,-54.403,-83.9232)">
        <text x="443.28px" y="314.88px" style="font-family:'ArialMT', 'Arial', sans-serif;font-size:10px;">O</text>
    </g>
    <g transform="matrix(1.33333,0,0,1.33333,-54.403,-83.9232)">
        <text x="477.84px" y="314.88px" style="font-family:'ArialMT', 'Arial', sans-serif;font-size:10px;">O</text>
    </g>
    <g transform="matrix(1.33333,0,0,1.33333,-54.403,-83.9232)">
        <text x="514.8px" y="334.56px" style="font-family:'ArialMT', 'Arial', sans-serif;font-size:10px;">t</text>
        <text x="517.68px" y="334.56px" style="font-family:'ArialMT', 'Arial', sans-serif;font-size:10px;">-Bu</text>
    </g>
    <g transform="matrix(1.33333,0,0,1.33333,-54.403,-83.9232)">
        <text x="426.48px" y="364.56px" style="font-family:'ArialMT', 'Arial', sans-serif;font-size:10px;">CH</text>
        <text x="440.88px" y="367.2px" style="font-family:'ArialMT', 'Arial', sans-serif;font-size:8px;">2</text>
    </g>
    <g transform="matrix(1.33333,0,0,1.33333,-54.403,-83.9232)">
        <text x="478.32px" y="377.28px" style="font-family:'ArialMT', 'Arial', sans-serif;font-size:10px;">I<tspan x="481.2px " y="377.28px ">I</tspan></text>
    </g>
    <g transform="matrix(1.33333,0,0,1.33333,-54.403,-83.9232)">
        <text x="427.44px" y="278.16px" style="font-family:'ArialMT', 'Arial', sans-serif;font-size:10px;">1</text>
        <text x="432.96px" y="278.16px" style="font-family:'ArialMT', 'Arial', sans-serif;font-size:10px;">)</text>
        <text x="439.248px" y="278.16px" style="font-family:'ArialMT', 'Arial', sans-serif;font-size:10px;">CH</text>
        <text x="453.648px" y="280.8px" style="font-family:'ArialMT', 'Arial', sans-serif;font-size:6px;">3</text>
        <text x="457.248px" y="278.16px" style="font-family:'ArialMT', 'Arial', sans-serif;font-size:10px;">I</text>
        <text x="470.16px" y="278.64px" style="font-family:'ArialMT', 'Arial', sans-serif;font-size:10px;">2)</text>
        <text x="481.939px" y="278.64px" style="font-family:'ArialMT', 'Arial', sans-serif;font-size:10px;">t<tspan x="484.819px " y="278.64px ">°</tspan></text>
    </g>
    <g transform="matrix(1.33333,0,0,1.33333,-54.403,-963.283)">
        <path d="M98.16,750.72L118.08,750.72" style="fill:none;fill-rule:nonzero;stroke:black;stroke-width:0.72px;"/>
    </g>
    <g transform="matrix(0.666796,1.15463,1.15463,-0.666796,-833.262,401.914)">
        <path d="M114.616,744.72L128.474,744.72" style="fill:none;fill-rule:nonzero;stroke:black;stroke-width:0.72px;"/>
    </g>
    <g transform="matrix(0.667127,-1.15443,-1.15443,-0.667127,900.799,677.057)">
        <path d="M115.825,756.3L130.655,756.3" style="fill:none;fill-rule:nonzero;stroke:black;stroke-width:0.72px;"/>
    </g>
    <g transform="matrix(0.666267,-1.15493,-1.15493,-0.666267,900.058,671.992)">
        <path d="M113.381,757.185L126.369,757.185" style="fill:none;fill-rule:nonzero;stroke:black;stroke-width:0.72px;"/>
    </g>
    <g transform="matrix(1.33333,0,0,1.33333,-54.403,-917.283)">
        <path d="M132.96,733.47L145.44,733.47" style="fill:none;fill-rule:nonzero;stroke:black;stroke-width:0.72px;"/>
    </g>
    <g transform="matrix(-1.33333,0,0,1.33333,180.797,-963.283)">
        <path d="M78.24,750.72L98.16,750.72" style="fill:none;fill-rule:nonzero;stroke:black;stroke-width:0.72px;"/>
    </g>
    <g transform="matrix(-1.33333,0,0,1.33333,180.797,-954.323)">
        <path d="M78.24,747.36L98.16,747.36" style="fill:none;fill-rule:nonzero;stroke:black;stroke-width:0.72px;"/>
    </g>
    <g transform="matrix(-1.33333,0,0,1.33333,180.797,-972.243)">
        <path d="M78.24,754.08L98.16,754.08" style="fill:none;fill-rule:nonzero;stroke:black;stroke-width:0.72px;"/>
    </g>
    <g transform="matrix(-1.33333,0,0,1.33333,133.757,-963.283)">
        <path d="M62.88,750.72L78.24,750.72" style="fill:none;fill-rule:nonzero;stroke:black;stroke-width:0.72px;"/>
    </g>
    <g transform="matrix(1.33333,0,0,1.33333,-54.403,-965.203)">
        <path d="M169.92,751.44L216.72,751.44" style="fill:none;fill-rule:nonzero;stroke:black;stroke-width:0.72px;"/>
    </g>
    <g transform="matrix(1.2958,0.314133,0.314133,-1.2958,-282.47,943.598)">
        <path d="M208.459,752.373L216.609,752.373L209.364,748.641L210.311,750.846L208.459,752.373Z" style="stroke:black;stroke-width:0.72px;"/>
    </g>
    <g transform="matrix(1.15468,0.666702,0.666702,-1.15468,-505.734,733.003)">
        <path d="M248.506,746.22L268.424,746.22" style="fill:none;fill-rule:nonzero;stroke:black;stroke-width:0.72px;"/>
    </g>
    <g transform="matrix(1.15485,-0.666401,-0.666401,-1.15485,487.208,1067.47)">
        <path d="M236.137,747.53L250.823,747.53" style="fill:none;fill-rule:nonzero;stroke:black;stroke-width:0.72px;"/>
    </g>
    <g transform="matrix(1.15476,0.666568,0.666568,-1.15476,-500.888,711.494)">
        <path d="M283.389,747.65L297.591,747.65" style="fill:none;fill-rule:nonzero;stroke:black;stroke-width:0.72px;"/>
    </g>
    <g transform="matrix(1.15468,-0.666702,-0.666702,-1.15468,492.361,1089.14)">
        <path d="M265.756,746.22L285.674,746.22" style="fill:none;fill-rule:nonzero;stroke:black;stroke-width:0.72px;"/>
    </g>
    <g transform="matrix(0,-1.33333,-1.33333,0,1282.44,418.517)">
        <path d="M261.39,733.86L276.15,733.86" style="fill:none;fill-rule:nonzero;stroke:black;stroke-width:0.72px;"/>
    </g>
    <g transform="matrix(0,-1.33333,-1.33333,0,1277.96,414.037)">
        <path d="M258.03,733.86L272.79,733.86" style="fill:none;fill-rule:nonzero;stroke:black;stroke-width:0.72px;"/>
    </g>
    <g transform="matrix(0,-1.33333,-1.33333,0,1292.48,362.477)">
        <path d="M244.08,758.64L258.96,758.64" style="fill:none;fill-rule:nonzero;stroke:black;stroke-width:0.72px;"/>
    </g>
    <g transform="matrix(0,-1.33333,-1.33333,0,1288,357.997)">
        <path d="M240.72,758.64L255.6,758.64" style="fill:none;fill-rule:nonzero;stroke:black;stroke-width:0.72px;"/>
    </g>
    <g transform="matrix(0,-1.33333,-1.33333,0,1338.48,408.477)">
        <path d="M278.58,758.64L293.46,758.64" style="fill:none;fill-rule:nonzero;stroke:black;stroke-width:0.72px;"/>
    </g>
    <g transform="matrix(0,-1.33333,-1.33333,0,1334,403.997)">
        <path d="M275.22,758.64L290.1,758.64" style="fill:none;fill-rule:nonzero;stroke:black;stroke-width:0.72px;"/>
    </g>
    <g transform="matrix(1.15476,-0.666568,-0.666568,-1.15476,499.065,1112.83)">
        <path d="M305.719,746.9L317.081,746.9" style="fill:none;fill-rule:nonzero;stroke:black;stroke-width:0.72px;"/>
    </g>
    <g transform="matrix(-0.666871,-1.15458,-1.15458,0.666871,1472.82,42.1189)">
        <path d="M352.981,704.28L361.019,704.28" style="fill:none;fill-rule:nonzero;stroke:black;stroke-width:0.72px;"/>
    </g>
    <g transform="matrix(-0.666693,1.15469,1.15469,0.666693,-133.941,-747.763)">
        <path d="M353.05,687.12L360.81,687.12" style="fill:none;fill-rule:nonzero;stroke:black;stroke-width:0.72px;"/>
    </g>
    <g transform="matrix(1.15468,0.666702,0.666702,-1.15468,-417.381,618.966)">
        <path d="M441.226,665.34L461.144,665.34" style="fill:none;fill-rule:nonzero;stroke:black;stroke-width:0.72px;"/>
    </g>
    <g transform="matrix(1.15468,-0.666702,-0.666702,-1.15468,466.705,1209.08)">
        <path d="M423.976,665.34L443.894,665.34" style="fill:none;fill-rule:nonzero;stroke:black;stroke-width:0.72px;"/>
    </g>
    <g transform="matrix(1.15476,0.666568,0.666568,-1.15476,-412.561,597.476)">
        <path d="M476.109,666.77L490.311,666.77" style="fill:none;fill-rule:nonzero;stroke:black;stroke-width:0.72px;"/>
    </g>
    <g transform="matrix(1.15468,-0.666702,-0.666702,-1.15468,472.868,1232.08)">
        <path d="M458.476,665.34L478.394,665.34" style="fill:none;fill-rule:nonzero;stroke:black;stroke-width:0.72px;"/>
    </g>
    <g transform="matrix(0,-1.33333,-1.33333,0,1431.56,783.317)">
        <path d="M454.11,652.98L468.87,652.98" style="fill:none;fill-rule:nonzero;stroke:black;stroke-width:0.72px;"/>
    </g>
    <g transform="matrix(0,-1.33333,-1.33333,0,1427.08,778.837)">
        <path d="M450.75,652.98L465.51,652.98" style="fill:none;fill-rule:nonzero;stroke:black;stroke-width:0.72px;"/>
    </g>
    <g transform="matrix(0,-1.33333,-1.33333,0,1441.44,727.437)">
        <path d="M436.92,677.64L451.56,677.64" style="fill:none;fill-rule:nonzero;stroke:black;stroke-width:0.72px;"/>
    </g>
    <g transform="matrix(0,-1.33333,-1.33333,0,1436.96,722.957)">
        <path d="M433.56,677.64L448.2,677.64" style="fill:none;fill-rule:nonzero;stroke:black;stroke-width:0.72px;"/>
    </g>
    <g transform="matrix(0,-1.33333,-1.33333,0,1487.6,773.277)">
        <path d="M471.3,677.76L486.18,677.76" style="fill:none;fill-rule:nonzero;stroke:black;stroke-width:0.72px;"/>
    </g>
    <g transform="matrix(0,-1.33333,-1.33333,0,1483.12,768.797)">
        <path d="M467.94,677.76L482.82,677.76" style="fill:none;fill-rule:nonzero;stroke:black;stroke-width:0.72px;"/>
    </g>
    <g transform="matrix(1.15476,-0.666568,-0.666568,-1.15476,479.568,1255.73)">
        <path d="M498.439,666.02L509.801,666.02" style="fill:none;fill-rule:nonzero;stroke:black;stroke-width:0.72px;"/>
    </g>
    <g transform="matrix(0,1.33333,1.33333,0,-354.523,-395.643)">
        <path d="M415.35,650.4L435.27,650.4" style="fill:none;fill-rule:nonzero;stroke:black;stroke-width:0.72px;"/>
    </g>
    <g transform="matrix(-1.15475,0.666584,0.666584,1.15475,563.487,-824.929)">
        <path d="M411.574,636.76L426.296,636.76" style="fill:none;fill-rule:nonzero;stroke:black;stroke-width:0.72px;"/>
    </g>
    <g transform="matrix(-1.15477,-0.666542,-0.666542,1.15477,1362.84,-276.377)">
        <path d="M394.649,635.505L404.071,635.505" style="fill:none;fill-rule:nonzero;stroke:black;stroke-width:0.72px;"/>
    </g>
    <g transform="matrix(0,1.33333,1.33333,0,-337.523,-332.643)">
        <path d="M403.26,620.4L412.86,620.4" style="fill:none;fill-rule:nonzero;stroke:black;stroke-width:0.72px;"/>
    </g>
    <g transform="matrix(0.942809,0.942809,0.942809,-0.942809,-571.903,409.272)">
        <path d="M326.675,704.52L424.765,704.52" style="fill:none;fill-rule:nonzero;stroke:black;stroke-width:0.72px;"/>
    </g>
    <g transform="matrix(0.70315,1.13285,1.13285,-0.70315,-560.742,153.341)">
        <path d="M403.52,674.442L411.712,674.442L404.371,670.806L405.433,672.972L403.52,674.442Z" style="stroke:black;stroke-width:0.72px;"/>
    </g>
    <g transform="matrix(0,1.33333,1.33333,0,-191.683,-337.043)">
        <path d="M439.2,567.36L489.6,567.36" style="fill:none;fill-rule:nonzero;stroke:black;stroke-width:0.72px;"/>
    </g>
    <g transform="matrix(-0.314133,1.2958,1.2958,0.314133,3.01814,-462.847)">
        <path d="M460.099,547.053L468.249,547.053L461.004,543.321L461.951,545.526L460.099,547.053Z" style="stroke:black;stroke-width:0.72px;"/>
    </g>
    <g transform="matrix(1.15468,0.666702,0.666702,-1.15468,-310.438,644.193)">
        <path d="M446.026,506.22L465.944,506.22" style="fill:none;fill-rule:nonzero;stroke:black;stroke-width:0.72px;"/>
    </g>
    <g transform="matrix(1.15468,-0.666702,-0.666702,-1.15468,361.476,1240.7)">
        <path d="M428.776,506.22L448.694,506.22" style="fill:none;fill-rule:nonzero;stroke:black;stroke-width:0.72px;"/>
    </g>
    <g transform="matrix(1.15476,0.666568,0.666568,-1.15476,-305.639,622.691)">
        <path d="M480.909,507.65L495.111,507.65" style="fill:none;fill-rule:nonzero;stroke:black;stroke-width:0.72px;"/>
    </g>
    <g transform="matrix(1.15468,-0.666702,-0.666702,-1.15468,367.64,1263.71)">
        <path d="M463.276,506.22L483.194,506.22" style="fill:none;fill-rule:nonzero;stroke:black;stroke-width:0.72px;"/>
    </g>
    <g transform="matrix(0,-1.33333,-1.33333,0,1225.8,1001.88)">
        <path d="M458.91,493.86L473.67,493.86" style="fill:none;fill-rule:nonzero;stroke:black;stroke-width:0.72px;"/>
    </g>
    <g transform="matrix(0,-1.33333,-1.33333,0,1221.32,997.397)">
        <path d="M455.55,493.86L470.31,493.86" style="fill:none;fill-rule:nonzero;stroke:black;stroke-width:0.72px;"/>
    </g>
    <g transform="matrix(0,-1.33333,-1.33333,0,1235.68,945.997)">
        <path d="M441.72,518.52L456.36,518.52" style="fill:none;fill-rule:nonzero;stroke:black;stroke-width:0.72px;"/>
    </g>
    <g transform="matrix(0,-1.33333,-1.33333,0,1231.2,941.517)">
        <path d="M438.36,518.52L453,518.52" style="fill:none;fill-rule:nonzero;stroke:black;stroke-width:0.72px;"/>
    </g>
    <g transform="matrix(0,-1.33333,-1.33333,0,1281.68,991.997)">
        <path d="M476.22,518.52L490.86,518.52" style="fill:none;fill-rule:nonzero;stroke:black;stroke-width:0.72px;"/>
    </g>
    <g transform="matrix(0,-1.33333,-1.33333,0,1277.2,987.517)">
        <path d="M472.86,518.52L487.5,518.52" style="fill:none;fill-rule:nonzero;stroke:black;stroke-width:0.72px;"/>
    </g>
    <g transform="matrix(1.15476,-0.666568,-0.666568,-1.15476,374.361,1287.35)">
        <path d="M503.239,506.9L514.601,506.9" style="fill:none;fill-rule:nonzero;stroke:black;stroke-width:0.72px;"/>
    </g>
    <g transform="matrix(0,1.33333,1.33333,0,-139.403,-193.323)">
        <path d="M422.73,493.86L437.49,493.86" style="fill:none;fill-rule:nonzero;stroke:black;stroke-width:0.72px;"/>
    </g>
    <g transform="matrix(0,1.33333,1.33333,0,-133.816,-196.697)">
        <path d="M426.92,493.03L440.02,493.03" style="fill:none;fill-rule:nonzero;stroke:black;stroke-width:0.72px;"/>
    </g>
</svg>
