<?xml version="1.0" encoding="UTF-8" standalone="no"?>
<!DOCTYPE svg PUBLIC "-//W3C//DTD SVG 1.1//EN" "http://www.w3.org/Graphics/SVG/1.1/DTD/svg11.dtd">
<svg width="100%" height="100%" viewBox="0 0 665 405" version="1.1" xmlns="http://www.w3.org/2000/svg" xmlns:xlink="http://www.w3.org/1999/xlink" xml:space="preserve" xmlns:serif="http://www.serif.com/" style="fill-rule:evenodd;clip-rule:evenodd;stroke-linecap:round;stroke-linejoin:round;stroke-miterlimit:10;">
    <g transform="matrix(1.33333,0,0,1.33333,-69.0857,-98.4028)">
        <text x="77.28px" y="85.2px" style="font-family:'ArialMT', 'Arial', sans-serif;font-size:10px;">Li</text>
    </g>
    <g transform="matrix(1.33333,0,0,1.33333,-69.0857,-98.4028)">
        <text x="131.76px" y="114.96px" style="font-family:'ArialMT', 'Arial', sans-serif;font-size:10px;">O<tspan x="139.68px " y="114.96px ">H</tspan></text>
    </g>
    <g transform="matrix(1.33333,0,0,1.33333,-69.0857,-98.4028)">
        <text x="218.4px" y="85.2px" style="font-family:'ArialMT', 'Arial', sans-serif;font-size:10px;">CH</text>
        <text x="232.8px" y="87.84px" style="font-family:'ArialMT', 'Arial', sans-serif;font-size:8px;">3</text>
    </g>
    <g transform="matrix(1.33333,0,0,1.33333,-69.0857,-98.4028)">
        <text x="54px" y="89.76px" style="font-family:'ArialMT', 'Arial', sans-serif;font-size:10px;">I<tspan x="56.88px 59.76px 62.64px " y="89.76px 89.76px 89.76px ">II)</tspan></text>
    </g>
    <g transform="matrix(1.33333,0,0,1.33333,-69.0857,-98.4028)">
        <text x="303.36px" y="84.96px" style="font-family:'ArialMT', 'Arial', sans-serif;font-size:10px;">Br</text>
    </g>
    <g transform="matrix(1.33333,0,0,1.33333,-69.0857,-98.4028)">
        <text x="359.52px" y="114.72px" style="font-family:'ArialMT', 'Arial', sans-serif;font-size:10px;">O<tspan x="367.44px " y="114.72px ">H</tspan></text>
    </g>
    <g transform="matrix(1.33333,0,0,1.33333,-69.0857,-98.4028)">
        <text x="446.16px" y="84.96px" style="font-family:'ArialMT', 'Arial', sans-serif;font-size:10px;">CH</text>
        <text x="460.56px" y="87.6px" style="font-family:'ArialMT', 'Arial', sans-serif;font-size:8px;">3</text>
    </g>
    <g transform="matrix(1.33333,0,0,1.33333,-69.0857,-98.4028)">
        <text x="386.16px" y="246.48px" style="font-family:'ArialMT', 'Arial', sans-serif;font-size:10px;">Br</text>
    </g>
    <g transform="matrix(1.33333,0,0,1.33333,-69.0857,-98.4028)">
        <text x="442.32px" y="276.24px" style="font-family:'ArialMT', 'Arial', sans-serif;font-size:10px;">O</text>
    </g>
    <g transform="matrix(1.33333,0,0,1.33333,-69.0857,-98.4028)">
        <text x="528.96px" y="246.48px" style="font-family:'ArialMT', 'Arial', sans-serif;font-size:10px;">CH</text>
        <text x="543.36px" y="249.12px" style="font-family:'ArialMT', 'Arial', sans-serif;font-size:8px;">3</text>
    </g>
    <g transform="matrix(1.33333,0,0,1.33333,-69.0857,-98.4028)">
        <text x="439.44px" y="275.04px" style="font-family:'ArialMT', 'Arial', sans-serif;font-size:10px;">:</text>
        <text x="450px" y="275.52px" style="font-family:'ArialMT', 'Arial', sans-serif;font-size:10px;">:</text>
    </g>
    <g transform="matrix(1.33333,0,0,1.33333,-69.0857,-98.4028)">
        <text x="300.48px" y="252.96px" style="font-family:'ArialMT', 'Arial', sans-serif;font-size:10px;">CH</text>
        <text x="314.88px" y="255.6px" style="font-family:'ArialMT', 'Arial', sans-serif;font-size:8px;">3</text>
    </g>
    <g transform="matrix(1.33333,0,0,1.33333,-69.0857,-98.4028)">
        <text x="196.8px" y="272.88px" style="font-family:'ArialMT', 'Arial', sans-serif;font-size:10px;">O</text>
        <text x="204.72px" y="265.92px" style="font-family:'ArialMT', 'Arial', sans-serif;font-size:8px;">+</text>
    </g>
    <g transform="matrix(1.33333,0,0,1.33333,-69.0857,-98.4028)">
        <text x="179.76px" y="260.4px" style="font-family:'ArialMT', 'Arial', sans-serif;font-size:18px;">+</text>
    </g>
    <g transform="matrix(1.33333,0,0,1.33333,-69.0857,-98.4028)">
        <text x="150.24px" y="256.8px" style="font-family:'ArialMT', 'Arial', sans-serif;font-size:10px;">Br</text>
        <text x="160.32px" y="249.84px" style="font-family:'ArialMT', 'Arial', sans-serif;font-size:8px;">–</text>
    </g>
    <g transform="matrix(1.33333,0,0,1.33333,-69.0857,-98.4028)">
        <text x="241.92px" y="204.48px" style="font-family:'ArialMT', 'Arial', sans-serif;font-size:10px;">C</text>
    </g>
    <g transform="matrix(1.33333,0,0,1.33333,-69.0857,-98.4028)">
        <text x="234.72px" y="204.48px" style="font-family:'ArialMT', 'Arial', sans-serif;font-size:10px;">H</text>
    </g>
    <g transform="matrix(1.33333,0,0,1.33333,-69.0857,-98.4028)">
        <text x="261.84px" y="204.48px" style="font-family:'ArialMT', 'Arial', sans-serif;font-size:10px;">CH</text>
    </g>
    <g transform="matrix(1.33333,0,0,1.33333,-69.0857,-98.4028)">
        <text x="207.6px" y="343.92px" style="font-family:'ArialMT', 'Arial', sans-serif;font-size:10px;">Br</text>
    </g>
    <g transform="matrix(1.33333,0,0,1.33333,-69.0857,-98.4028)">
        <text x="229.44px" y="373.68px" style="font-family:'ArialMT', 'Arial', sans-serif;font-size:10px;">O</text>
    </g>
    <g transform="matrix(1.33333,0,0,1.33333,-69.0857,-98.4028)">
        <text x="315.84px" y="343.92px" style="font-family:'ArialMT', 'Arial', sans-serif;font-size:10px;">CH</text>
        <text x="330.24px" y="346.56px" style="font-family:'ArialMT', 'Arial', sans-serif;font-size:8px;">3</text>
    </g>
    <g transform="matrix(1.33333,0,0,1.33333,-69.0857,-98.4028)">
        <text x="250.56px" y="229.44px" style="font-family:'ArialMT', 'Arial', sans-serif;font-size:18px;">+</text>
    </g>
    <g transform="matrix(-1.1546,-0.666846,-0.666846,1.1546,667.693,-792.109)">
        <path d="M84.987,755.155L102.483,755.155" style="fill:none;fill-rule:nonzero;stroke:black;stroke-width:0.72px;"/>
    </g>
    <g transform="matrix(-1.15468,0.666702,0.666702,1.15468,-299.433,-929.478)">
        <path d="M99.976,755.76L119.894,755.76" style="fill:none;fill-rule:nonzero;stroke:black;stroke-width:0.72px;"/>
    </g>
    <g transform="matrix(-1.15468,-0.666702,-0.666702,1.15468,751.219,-771.389)">
        <path d="M117.226,755.76L137.144,755.76" style="fill:none;fill-rule:nonzero;stroke:black;stroke-width:0.72px;"/>
    </g>
    <g transform="matrix(-1.15468,0.666702,0.666702,1.15468,-213.596,-952.479)">
        <path d="M134.476,755.76L154.394,755.76" style="fill:none;fill-rule:nonzero;stroke:black;stroke-width:0.72px;"/>
    </g>
    <g transform="matrix(1.33333,0,0,1.33333,-69.0857,-942.243)">
        <path d="M134.17,737.4L137.45,737.4" style="fill:none;fill-rule:nonzero;stroke:black;stroke-width:0.72px;"/>
    </g>
    <g transform="matrix(1.33333,0,0,1.33333,-69.0857,-949.283)">
        <path d="M134.5,740.04L137.13,740.04" style="fill:none;fill-rule:nonzero;stroke:black;stroke-width:0.72px;"/>
    </g>
    <g transform="matrix(1.33333,0,0,1.33333,-69.0857,-956.323)">
        <path d="M134.82,742.68L136.8,742.68" style="fill:none;fill-rule:nonzero;stroke:black;stroke-width:0.72px;"/>
    </g>
    <g transform="matrix(1.33333,0,0,1.33333,-69.0857,-963.363)">
        <path d="M135.14,745.32L136.48,745.32" style="fill:none;fill-rule:nonzero;stroke:black;stroke-width:0.72px;"/>
    </g>
    <g transform="matrix(1.33333,0,0,1.33333,-69.0857,-970.403)">
        <path d="M135.47,747.96L136.16,747.96" style="fill:none;fill-rule:nonzero;stroke:black;stroke-width:0.72px;"/>
    </g>
    <g transform="matrix(1.33333,0,0,1.33333,-69.0857,-977.443)">
        <path d="M135.79,750.6L135.83,750.6" style="fill:none;fill-rule:nonzero;stroke:black;stroke-width:0.72px;"/>
    </g>
    <g transform="matrix(1.15468,0.666702,0.666702,-1.15468,-544.067,781.342)">
        <path d="M151.726,755.76L171.644,755.76" style="fill:none;fill-rule:nonzero;stroke:black;stroke-width:0.72px;"/>
    </g>
    <g transform="matrix(1.15468,-0.666702,-0.666702,-1.15468,466.748,1008.43)">
        <path d="M168.976,755.76L188.894,755.76" style="fill:none;fill-rule:nonzero;stroke:black;stroke-width:0.72px;"/>
    </g>
    <g transform="matrix(1.15485,0.666412,0.666412,-1.15485,-537.716,758.521)">
        <path d="M186.226,755.76L206.154,755.76" style="fill:none;fill-rule:nonzero;stroke:black;stroke-width:0.72px;"/>
    </g>
    <g transform="matrix(1.15455,-0.66693,-0.66693,-1.15455,471.81,1030.09)">
        <path d="M203.843,754.425L218.417,754.425" style="fill:none;fill-rule:nonzero;stroke:black;stroke-width:0.72px;"/>
    </g>
    <g transform="matrix(1.33333,0,0,1.33333,-69.0857,-986.723)">
        <path d="M250.8,754.08L284.88,754.08" style="fill:none;fill-rule:nonzero;stroke:black;stroke-width:0.72px;"/>
    </g>
    <g transform="matrix(1.33333,0,0,1.33333,-69.0857,-994.403)">
        <path d="M250.8,756.96L284.88,756.96" style="fill:none;fill-rule:nonzero;stroke:black;stroke-width:0.72px;"/>
    </g>
    <g transform="matrix(1.33333,0,0,1.33333,-69.0857,-990.563)">
        <path d="M280.32,751.92L288.24,755.52L280.32,759.12" style="fill:none;fill-rule:nonzero;stroke:black;stroke-width:0.72px;"/>
    </g>
    <g transform="matrix(-1.15469,-0.666683,-0.666683,1.15469,1234.91,-640.441)">
        <path d="M313.265,755.255L330.205,755.255" style="fill:none;fill-rule:nonzero;stroke:black;stroke-width:0.72px;"/>
    </g>
    <g transform="matrix(-1.15468,0.666702,0.666702,1.15468,267.077,-1081.92)">
        <path d="M327.736,756L347.654,756" style="fill:none;fill-rule:nonzero;stroke:black;stroke-width:0.72px;"/>
    </g>
    <g transform="matrix(-1.15468,-0.666702,-0.666702,1.15468,1318.05,-620.138)">
        <path d="M344.986,756L364.904,756" style="fill:none;fill-rule:nonzero;stroke:black;stroke-width:0.72px;"/>
    </g>
    <g transform="matrix(-1.15468,0.666702,0.666702,1.15468,352.914,-1104.92)">
        <path d="M362.236,756L382.154,756" style="fill:none;fill-rule:nonzero;stroke:black;stroke-width:0.72px;"/>
    </g>
    <g transform="matrix(1.33333,0,0,1.33333,-69.0857,-942.883)">
        <path d="M361.93,737.64L365.25,737.64" style="fill:none;fill-rule:nonzero;stroke:black;stroke-width:0.72px;"/>
    </g>
    <g transform="matrix(1.33333,0,0,1.33333,-69.0857,-949.923)">
        <path d="M362.26,740.28L365.25,740.28" style="fill:none;fill-rule:nonzero;stroke:black;stroke-width:0.72px;"/>
    </g>
    <g transform="matrix(1.33333,0,0,1.33333,-69.0857,-956.963)">
        <path d="M362.58,742.92L364.56,742.92" style="fill:none;fill-rule:nonzero;stroke:black;stroke-width:0.72px;"/>
    </g>
    <g transform="matrix(1.33333,0,0,1.33333,-69.0857,-964.003)">
        <path d="M362.9,745.56L364.24,745.56" style="fill:none;fill-rule:nonzero;stroke:black;stroke-width:0.72px;"/>
    </g>
    <g transform="matrix(1.33333,0,0,1.33333,-69.0857,-971.043)">
        <path d="M363.23,748.2L363.92,748.2" style="fill:none;fill-rule:nonzero;stroke:black;stroke-width:0.72px;"/>
    </g>
    <g transform="matrix(1.33333,0,0,1.33333,-69.0857,-978.083)">
        <path d="M363.55,750.84L363.59,750.84" style="fill:none;fill-rule:nonzero;stroke:black;stroke-width:0.72px;"/>
    </g>
    <g transform="matrix(1.15468,0.666702,0.666702,-1.15468,-503.537,629.451)">
        <path d="M379.486,756L399.404,756" style="fill:none;fill-rule:nonzero;stroke:black;stroke-width:0.72px;"/>
    </g>
    <g transform="matrix(1.15468,-0.666702,-0.666702,-1.15468,507.599,1160.24)">
        <path d="M396.736,756L416.654,756" style="fill:none;fill-rule:nonzero;stroke:black;stroke-width:0.72px;"/>
    </g>
    <g transform="matrix(1.15485,0.666412,0.666412,-1.15485,-497.224,606.696)">
        <path d="M413.986,756L433.914,756" style="fill:none;fill-rule:nonzero;stroke:black;stroke-width:0.72px;"/>
    </g>
    <g transform="matrix(1.15455,-0.66693,-0.66693,-1.15455,512.69,1181.94)">
        <path d="M431.603,754.665L446.177,754.665" style="fill:none;fill-rule:nonzero;stroke:black;stroke-width:0.72px;"/>
    </g>
    <g transform="matrix(-1.15469,-0.666683,-0.666683,1.15469,1333.24,-183.374)">
        <path d="M396.065,593.735L413.005,593.735" style="fill:none;fill-rule:nonzero;stroke:black;stroke-width:0.72px;"/>
    </g>
    <g transform="matrix(-1.15468,0.666702,0.666702,1.15468,580.77,-735.262)">
        <path d="M410.536,594.48L430.454,594.48" style="fill:none;fill-rule:nonzero;stroke:black;stroke-width:0.72px;"/>
    </g>
    <g transform="matrix(-1.15463,0.666781,0.666781,1.15463,576.099,-742.9)">
        <path d="M410.407,597.805L428.663,597.805" style="fill:none;fill-rule:nonzero;stroke:black;stroke-width:0.72px;"/>
    </g>
    <g transform="matrix(-1.15468,-0.666702,-0.666702,1.15468,1416.37,-163.071)">
        <path d="M427.786,594.48L447.704,594.48" style="fill:none;fill-rule:nonzero;stroke:black;stroke-width:0.72px;"/>
    </g>
    <g transform="matrix(-1.15468,0.666702,0.666702,1.15468,666.607,-758.263)">
        <path d="M445.036,594.48L464.954,594.48" style="fill:none;fill-rule:nonzero;stroke:black;stroke-width:0.72px;"/>
    </g>
    <g transform="matrix(0,1.33333,1.33333,0,-252.366,-344.963)">
        <path d="M437.34,582.15L452.04,582.15" style="fill:none;fill-rule:nonzero;stroke:black;stroke-width:0.72px;"/>
    </g>
    <g transform="matrix(0,1.33333,1.33333,0,-247.886,-349.443)">
        <path d="M440.7,582.15L455.4,582.15" style="fill:none;fill-rule:nonzero;stroke:black;stroke-width:0.72px;"/>
    </g>
    <g transform="matrix(1.15468,0.666702,0.666702,-1.15468,-381.059,603.105)">
        <path d="M462.286,594.48L482.204,594.48" style="fill:none;fill-rule:nonzero;stroke:black;stroke-width:0.72px;"/>
    </g>
    <g transform="matrix(1.15468,-0.666702,-0.666702,-1.15468,414.705,1244.3)">
        <path d="M479.536,594.48L499.454,594.48" style="fill:none;fill-rule:nonzero;stroke:black;stroke-width:0.72px;"/>
    </g>
    <g transform="matrix(1.15485,0.666412,0.666412,-1.15485,-374.807,580.346)">
        <path d="M496.786,594.48L516.714,594.48" style="fill:none;fill-rule:nonzero;stroke:black;stroke-width:0.72px;"/>
    </g>
    <g transform="matrix(1.15455,-0.66693,-0.66693,-1.15455,419.771,1266.04)">
        <path d="M514.403,593.145L528.977,593.145" style="fill:none;fill-rule:nonzero;stroke:black;stroke-width:0.72px;"/>
    </g>
    <g transform="matrix(1.33333,0,0,1.33333,-69.0857,-556.963)">
        <path d="M409.92,584.4L410.88,586.8L411.12,589.68L411.12,590.88L410.88,591.84L410.64,593.04L410.16,594L409.68,595.2L409.2,596.16L408.48,596.88L407.76,597.84L407.04,598.56L406.08,599.28L405.12,599.76L404.16,600.48L403.2,600.72L402.24,601.2L401.04,601.44L398.4,601.44" style="fill:none;fill-rule:nonzero;stroke:black;stroke-width:0.48px;"/>
    </g>
    <g transform="matrix(-1.32817,-0.117192,-0.117192,1.32817,1070.74,-487.254)">
        <path d="M398.247,587.154L406.439,587.154L399.063,583.371L400.307,585.649L398.247,587.154Z" style="stroke:black;stroke-width:0.48px;"/>
    </g>
    <g transform="matrix(1.33333,0,0,1.33333,-69.0857,-579.043)">
        <path d="M416.88,606.96L416.88,605.76L417.12,604.56L417.36,603.6L417.84,602.4L418.32,601.44L419.04,600.48L419.52,599.52L420.24,598.56L422.16,597.12L425.04,595.68L426.24,595.2L427.44,595.2L428.4,594.96L430.32,594.96L431.52,595.2L432.48,595.44L433.68,595.92L434.64,596.16L435.6,596.88L436.56,597.36L438.96,599.76L439.44,600.72L440.16,601.68L440.4,602.64L440.88,603.84L441.12,604.8L441.36,606L441.36,607.44" style="fill:none;fill-rule:nonzero;stroke:black;stroke-width:0.48px;"/>
    </g>
    <g transform="matrix(0.0391987,1.33276,1.33276,-0.0391987,-326.427,-309.541)">
        <path d="M414.425,597.721L422.589,597.721L415.258,601.538L416.387,599.104L414.425,597.721Z" style="stroke:black;stroke-width:0.48px;"/>
    </g>
    <g transform="matrix(1.33333,0,0,1.33333,-69.0857,-516.003)">
        <path d="M450.72,569.52L452.64,569.28L453.84,569.28L455.04,569.52L456.96,570.48L458.88,571.92L459.36,572.88L460.08,573.84L460.56,574.8L461.04,577.2L461.04,577.68L460.8,579.12L460.56,580.32L460.08,581.52L459.36,582.72L458.64,583.68L457.44,584.4L456.48,585.12L455.28,585.6L454.56,585.84" style="fill:none;fill-rule:nonzero;stroke:black;stroke-width:0.48px;"/>
    </g>
    <g transform="matrix(-1.2958,0.314133,0.314133,1.2958,942.372,-658.293)">
        <path d="M450.379,584.667L458.529,584.667L451.284,588.399L452.231,586.194L450.379,584.667Z" style="stroke:black;stroke-width:0.48px;"/>
    </g>
    <g transform="matrix(0,1.33333,1.33333,0,-452.286,-37.4428)">
        <path d="M237.96,541.8L270.84,541.8" style="fill:none;fill-rule:nonzero;stroke:black;stroke-width:0.72px;"/>
    </g>
    <g transform="matrix(0,1.33333,1.33333,0,-448.446,-41.2828)">
        <path d="M240.84,541.8L273.72,541.8" style="fill:none;fill-rule:nonzero;stroke:black;stroke-width:0.72px;"/>
    </g>
    <g transform="matrix(1.33333,0,0,1.33333,-69.0857,-378.403)">
        <path d="M259.44,522L255.84,529.92L252.24,522" style="fill:none;fill-rule:nonzero;stroke:black;stroke-width:0.72px;"/>
    </g>
    <g transform="matrix(-1.33333,0,0,1.33333,863.074,-555.363)">
        <path d="M329.04,592.32L370.08,592.32" style="fill:none;fill-rule:nonzero;stroke:black;stroke-width:0.72px;"/>
    </g>
    <g transform="matrix(-1.33333,0,0,1.33333,863.074,-547.683)">
        <path d="M329.04,589.44L370.08,589.44" style="fill:none;fill-rule:nonzero;stroke:black;stroke-width:0.72px;"/>
    </g>
    <g transform="matrix(1.33333,0,0,1.33333,-69.0857,-551.523)">
        <path d="M333.6,594.48L325.68,590.88L333.6,587.28" style="fill:none;fill-rule:nonzero;stroke:black;stroke-width:0.72px;"/>
    </g>
    <g transform="matrix(-1.15468,-0.666702,-0.666702,1.15468,929.724,-276.196)">
        <path d="M233.926,588L253.844,588" style="fill:none;fill-rule:nonzero;stroke:black;stroke-width:0.72px;"/>
    </g>
    <g transform="matrix(-1.15468,0.666702,0.666702,1.15468,188.601,-612.894)">
        <path d="M251.176,588L271.094,588" style="fill:none;fill-rule:nonzero;stroke:black;stroke-width:0.72px;"/>
    </g>
    <g transform="matrix(-1.15468,-0.666702,-0.666702,1.15468,1015.56,-253.195)">
        <path d="M268.426,588L288.344,588" style="fill:none;fill-rule:nonzero;stroke:black;stroke-width:0.72px;"/>
    </g>
    <g transform="matrix(-1.15481,0.666483,0.666483,1.15481,269.62,-630.916)">
        <path d="M286.043,586.63L300.487,586.63" style="fill:none;fill-rule:nonzero;stroke:black;stroke-width:0.72px;"/>
    </g>
    <g transform="matrix(-1.15468,0.666702,0.666702,1.15468,102.764,-589.893)">
        <path d="M216.676,588L236.594,588" style="fill:none;fill-rule:nonzero;stroke:black;stroke-width:0.72px;"/>
    </g>
    <g transform="matrix(-1.15444,0.667111,0.667111,1.15444,76.1682,-563.527)">
        <path d="M209.638,580.775L218.612,580.775" style="fill:none;fill-rule:nonzero;stroke:black;stroke-width:0.72px;"/>
    </g>
    <g transform="matrix(-1.15479,0.666512,0.666512,1.15479,76.2295,-551.009)">
        <path d="M204.683,576.09L220.767,576.09" style="fill:none;fill-rule:nonzero;stroke:black;stroke-width:0.72px;"/>
    </g>
    <g transform="matrix(-1.15482,0.666462,0.666462,1.15482,72.3337,-571.563)">
        <path d="M209.834,584.19L216.796,584.19" style="fill:none;fill-rule:nonzero;stroke:black;stroke-width:0.72px;"/>
    </g>
    <g transform="matrix(0,1.33333,1.33333,0,-419.006,-438.723)">
        <path d="M365.88,679.8L468.84,679.8" style="fill:none;fill-rule:nonzero;stroke:black;stroke-width:0.72px;"/>
    </g>
    <g transform="matrix(0,1.33333,1.33333,0,-415.166,-442.563)">
        <path d="M368.76,679.8L471.72,679.8" style="fill:none;fill-rule:nonzero;stroke:black;stroke-width:0.72px;"/>
    </g>
    <g transform="matrix(1.33333,0,0,1.33333,-69.0857,-652.963)">
        <path d="M422.4,624.96L418.8,632.88L415.2,624.96" style="fill:none;fill-rule:nonzero;stroke:black;stroke-width:0.72px;"/>
    </g>
    <g transform="matrix(1.33333,0,0,1.33333,-69.0857,-686.563)">
        <path d="M250.08,641.52L260.88,641.52" style="fill:none;fill-rule:nonzero;stroke:black;stroke-width:0.72px;"/>
    </g>
    <g transform="matrix(1.33333,0,0,1.33333,-69.0857,-695.523)">
        <path d="M250.08,644.88L260.88,644.88" style="fill:none;fill-rule:nonzero;stroke:black;stroke-width:0.72px;"/>
    </g>
    <g transform="matrix(1.33333,0,0,1.33333,-69.0857,-677.603)">
        <path d="M250.08,638.16L260.88,638.16" style="fill:none;fill-rule:nonzero;stroke:black;stroke-width:0.72px;"/>
    </g>
    <g transform="matrix(-1.15469,-0.666683,-0.666683,1.15469,824.017,-59.9833)">
        <path d="M217.505,496.295L234.445,496.295" style="fill:none;fill-rule:nonzero;stroke:black;stroke-width:0.72px;"/>
    </g>
    <g transform="matrix(-1.15468,0.666702,0.666702,1.15468,201.474,-373.784)">
        <path d="M231.976,497.04L251.894,497.04" style="fill:none;fill-rule:nonzero;stroke:black;stroke-width:0.72px;"/>
    </g>
    <g transform="matrix(-1.15468,-0.666702,-0.666702,1.15468,907.148,-39.6857)">
        <path d="M249.226,497.04L269.144,497.04" style="fill:none;fill-rule:nonzero;stroke:black;stroke-width:0.72px;"/>
    </g>
    <g transform="matrix(-1.15468,0.666702,0.666702,1.15468,287.311,-396.785)">
        <path d="M266.476,497.04L286.394,497.04" style="fill:none;fill-rule:nonzero;stroke:black;stroke-width:0.72px;"/>
    </g>
    <g transform="matrix(0,1.33333,1.33333,0,-406.526,69.0372)">
        <path d="M224.28,484.71L238.98,484.71" style="fill:none;fill-rule:nonzero;stroke:black;stroke-width:0.72px;"/>
    </g>
    <g transform="matrix(0,1.33333,1.33333,0,-402.046,64.5572)">
        <path d="M227.64,484.71L242.34,484.71" style="fill:none;fill-rule:nonzero;stroke:black;stroke-width:0.72px;"/>
    </g>
    <g transform="matrix(1.15468,0.666702,0.666702,-1.15468,-347.996,739.559)">
        <path d="M283.726,497.04L303.644,497.04" style="fill:none;fill-rule:nonzero;stroke:black;stroke-width:0.72px;"/>
    </g>
    <g transform="matrix(1.15499,-0.666164,-0.666164,-1.15499,316.157,1141.33)">
        <path d="M301.34,495.685L315.85,495.685" style="fill:none;fill-rule:nonzero;stroke:black;stroke-width:0.72px;"/>
    </g>
</svg>
