<?xml version="1.0" encoding="UTF-8" standalone="no"?>
<!DOCTYPE svg PUBLIC "-//W3C//DTD SVG 1.1//EN" "http://www.w3.org/Graphics/SVG/1.1/DTD/svg11.dtd">
<svg width="100%" height="100%" viewBox="0 0 675 255" version="1.1" xmlns="http://www.w3.org/2000/svg" xmlns:xlink="http://www.w3.org/1999/xlink" xml:space="preserve" xmlns:serif="http://www.serif.com/" style="fill-rule:evenodd;clip-rule:evenodd;stroke-linecap:round;stroke-linejoin:round;stroke-miterlimit:10;">
    <g transform="matrix(1.33333,0,0,1.33333,-78.2146,-74.24)">
        <text x="80.4px" y="70.8px" style="font-family:'ArialMT', 'Arial', sans-serif;font-size:10px;">O</text>
    </g>
    <g transform="matrix(1.33333,0,0,1.33333,-78.2146,-74.24)">
        <text x="60.72px" y="140.88px" style="font-family:'ArialMT', 'Arial', sans-serif;font-size:10px;">ТГ<tspan x="72.409px " y="140.88px ">П</tspan>O</text>
    </g>
    <g transform="matrix(1.33333,0,0,1.33333,-78.2146,-74.24)">
        <text x="272.16px" y="147.6px" style="font-family:'ArialMT', 'Arial', sans-serif;font-size:10px;">O</text>
    </g>
    <g transform="matrix(1.33333,0,0,1.33333,-78.2146,-74.24)">
        <text x="289.68px" y="137.76px" style="font-family:'ArialMT', 'Arial', sans-serif;font-size:10px;">CH</text>
        <text x="304.08px" y="140.4px" style="font-family:'ArialMT', 'Arial', sans-serif;font-size:8px;">3</text>
    </g>
    <g transform="matrix(1.33333,0,0,1.33333,-78.2146,-74.24)">
        <text x="254.88px" y="117.84px" style="font-family:'ArialMT', 'Arial', sans-serif;font-size:10px;">O</text>
    </g>
    <g transform="matrix(1.33333,0,0,1.33333,-78.2146,-74.24)">
        <text x="151.44px" y="117.84px" style="font-family:'ArialMT', 'Arial', sans-serif;font-size:10px;">O</text>
    </g>
    <g transform="matrix(1.33333,0,0,1.33333,-78.2146,-74.24)">
        <text x="139.68px" y="93.6px" style="font-family:'ArialMT', 'Arial', sans-serif;font-size:10px;">1</text>
        <text x="145.2px" y="93.6px" style="font-family:'ArialMT', 'Arial', sans-serif;font-size:10px;">) <tspan x="151.486px " y="93.6px ">B</tspan>r</text>
        <text x="161.56px" y="93.6px" style="font-family:'ArialMT', 'Arial', sans-serif;font-size:10px;">L</text>
        <text x="167.08px" y="93.6px" style="font-family:'ArialMT', 'Arial', sans-serif;font-size:10px;">i</text>
        <text x="172.546px" y="93.6px" style="font-family:'ArialMT', 'Arial', sans-serif;font-size:10px;">-</text>
        <text x="178.819px" y="93.6px" style="font-family:'ArialMT', 'Arial', sans-serif;font-size:10px;">Cu</text>
        <text x="191.539px" y="93.6px" style="font-family:'ArialMT', 'Arial', sans-serif;font-size:10px;">I</text>
        <text x="197.406px" y="93.6px" style="font-family:'ArialMT', 'Arial', sans-serif;font-size:10px;">- <tspan x="203.692px " y="93.6px ">P</tspan>(</text>
        <text x="213.765px" y="93.6px" style="font-family:'ArialMT', 'Arial', sans-serif;font-size:10px;">I</text>
        <text x="219.12px" y="93.6px" style="font-family:'ArialMT', 'Arial', sans-serif;font-size:10px;">+</text>
        <text x="228.168px" y="93.6px" style="font-family:'ArialMT', 'Arial', sans-serif;font-size:10px;">B</text>
        <text x="234.888px" y="93.6px" style="font-family:'ArialMT', 'Arial', sans-serif;font-size:10px;">u</text>
        <text x="240.408px" y="93.6px" style="font-family:'ArialMT', 'Arial', sans-serif;font-size:10px;">)</text>
        <text x="243.768px" y="96.24px" style="font-family:'ArialMT', 'Arial', sans-serif;font-size:6px;">3</text>
    </g>
    <g transform="matrix(1.33333,0,0,1.33333,-78.2146,-74.24)">
        <text x="140.88px" y="131.28px" style="font-family:'ArialMT', 'Arial', sans-serif;font-size:10px;">2)</text>
    </g>
    <g transform="matrix(1.33333,0,0,1.33333,-78.2146,-74.24)">
        <text x="516.24px" y="95.76px" style="font-family:'ArialMT', 'Arial', sans-serif;font-size:10px;">O</text>
        <text x="516.48px" y="115.68px" style="font-family:'ArialMT', 'Arial', sans-serif;font-size:10px;">CH</text>
        <text x="530.88px" y="118.32px" style="font-family:'ArialMT', 'Arial', sans-serif;font-size:8px;">3</text>
    </g>
    <g transform="matrix(1.33333,0,0,1.33333,-78.2146,-74.24)">
        <text x="533.52px" y="85.92px" style="font-family:'ArialMT', 'Arial', sans-serif;font-size:10px;">CH</text>
        <text x="547.92px" y="88.56px" style="font-family:'ArialMT', 'Arial', sans-serif;font-size:8px;">3</text>
    </g>
    <g transform="matrix(1.33333,0,0,1.33333,-78.2146,-74.24)">
        <text x="353.04px" y="70.56px" style="font-family:'ArialMT', 'Arial', sans-serif;font-size:10px;">O</text>
    </g>
    <g transform="matrix(1.33333,0,0,1.33333,-78.2146,-74.24)">
        <text x="333.84px" y="140.64px" style="font-family:'ArialMT', 'Arial', sans-serif;font-size:10px;">Т<tspan x="340.067px " y="140.64px ">Г</tspan></text>
        <text x="345.6px" y="140.64px" style="font-family:'ArialMT', 'Arial', sans-serif;font-size:10px;">ПO</text>
    </g>
    <g transform="matrix(1.33333,0,0,1.33333,-78.2146,-74.24)">
        <text x="395.28px" y="66px" style="font-family:'ArialMT', 'Arial', sans-serif;font-size:10px;">O<tspan x="403.2px " y="66px ">H</tspan></text>
    </g>
    <g transform="matrix(1.33333,0,0,1.33333,-78.2146,-74.24)">
        <text x="498.96px" y="66px" style="font-family:'ArialMT', 'Arial', sans-serif;font-size:10px;">O</text>
    </g>
    <g transform="matrix(1.33333,0,0,1.33333,-78.2146,-74.24)">
        <text x="429.84px" y="145.68px" style="font-family:'ArialMT', 'Arial', sans-serif;font-size:10px;">О<tspan x="437.744px 443.979px 449.52px " y="145.68px 145.68px 145.68px ">ТГП</tspan></text>
    </g>
    <g transform="matrix(1.33333,0,0,1.33333,-78.2146,-74.24)">
        <text x="461.76px" y="204.24px" style="font-family:'ArialMT', 'Arial', sans-serif;font-size:10px;">H</text>
        <text x="468.964px" y="199.2px" style="font-family:'ArialMT', 'Arial', sans-serif;font-size:6px;">+</text>
        <text x="481.68px" y="203.76px" style="font-family:'ArialMT', 'Arial', sans-serif;font-size:10px;"><tspan x="481.68px " y="203.76px ">H</tspan></text>
        <text x="488.884px" y="206.4px" style="font-family:'ArialMT', 'Arial', sans-serif;font-size:6px;">2</text>
        <text x="492.487px" y="203.76px" style="font-family:'ArialMT', 'Arial', sans-serif;font-size:10px;">O</text>
    </g>
    <g transform="matrix(1.33333,0,0,1.33333,-78.2146,-74.24)">
        <text x="471.84px" y="242.16px" style="font-family:'ArialMT', 'Arial', sans-serif;font-size:10px;">T<tspan x="478.08px " y="242.16px ">M</tspan></text>
    </g>
    <g transform="matrix(-1.26289,-0.427656,-0.427656,1.26289,502.738,-863.624)">
        <path d="M89.794,752.865L109.716,752.865" style="fill:none;fill-rule:nonzero;stroke:black;stroke-width:0.72px;"/>
    </g>
    <g transform="matrix(0.796676,-1.06915,-1.06915,-0.796676,766.869,737.064)">
        <path d="M74.412,748.075L94.328,748.075" style="fill:none;fill-rule:nonzero;stroke:black;stroke-width:0.72px;"/>
    </g>
    <g transform="matrix(0.0160712,-1.33324,-1.33324,-0.0160712,1051.67,219.338)">
        <path d="M99.114,739.715L119.026,739.715" style="fill:none;fill-rule:nonzero;stroke:black;stroke-width:0.72px;"/>
    </g>
    <g transform="matrix(0.0160954,-1.33324,-1.33324,-0.0160954,1047.3,214.823)">
        <path d="M98.254,739.755L113.166,739.755" style="fill:none;fill-rule:nonzero;stroke:black;stroke-width:0.72px;"/>
    </g>
    <g transform="matrix(-0.770355,-1.08827,-1.08827,0.770355,895.433,-399.891)">
        <path d="M74.214,731.96L94.136,731.96" style="fill:none;fill-rule:nonzero;stroke:black;stroke-width:0.72px;"/>
    </g>
    <g transform="matrix(1.2729,-0.396862,-0.396862,-1.2729,216.232,1043.86)">
        <path d="M89.479,726.795L109.401,726.795" style="fill:none;fill-rule:nonzero;stroke:black;stroke-width:0.72px;"/>
    </g>
    <g transform="matrix(-0.396398,-1.27305,-1.27305,0.396398,1048.84,-157.497)">
        <path d="M82.854,763.24L96.846,763.24" style="fill:none;fill-rule:nonzero;stroke:black;stroke-width:0.72px;"/>
    </g>
    <g transform="matrix(-0.396286,-1.27308,-1.27308,0.396286,1042.4,-160.828)">
        <path d="M78.965,762.74L94.005,762.74" style="fill:none;fill-rule:nonzero;stroke:black;stroke-width:0.72px;"/>
    </g>
    <g transform="matrix(-0.4269,1.26314,1.26314,0.4269,-829.651,-324.435)">
        <path d="M80.405,716.995L94.835,716.995" style="fill:none;fill-rule:nonzero;stroke:black;stroke-width:0.72px;"/>
    </g>
    <g transform="matrix(1.33333,0,0,1.33333,-78.2146,-923.52)">
        <path d="M124.8,739.44L331.2,739.44" style="fill:none;fill-rule:nonzero;stroke:black;stroke-width:0.72px;"/>
    </g>
    <g transform="matrix(1.2958,0.314133,0.314133,-1.2958,-298.215,917.769)">
        <path d="M322.939,740.373L331.089,740.373L323.844,736.641L324.791,738.846L322.939,740.373Z" style="stroke:black;stroke-width:0.72px;"/>
    </g>
    <g transform="matrix(-1.15468,-0.666702,-0.666702,1.15468,884.543,-568.894)">
        <path d="M188.566,703.2L208.484,703.2" style="fill:none;fill-rule:nonzero;stroke:black;stroke-width:0.72px;"/>
    </g>
    <g transform="matrix(-1.15468,0.666702,0.666702,1.15468,-10.1885,-845.109)">
        <path d="M205.816,703.2L225.734,703.2" style="fill:none;fill-rule:nonzero;stroke:black;stroke-width:0.72px;"/>
    </g>
    <g transform="matrix(-1.15468,-0.666702,-0.666702,1.15468,970.38,-545.893)">
        <path d="M223.066,703.2L242.984,703.2" style="fill:none;fill-rule:nonzero;stroke:black;stroke-width:0.72px;"/>
    </g>
    <g transform="matrix(-1.15468,0.666702,0.666702,1.15468,75.648,-868.11)">
        <path d="M240.316,703.2L260.234,703.2" style="fill:none;fill-rule:nonzero;stroke:black;stroke-width:0.72px;"/>
    </g>
    <g transform="matrix(1.15476,0.666568,0.666568,-1.15476,-500.567,745.817)">
        <path d="M257.949,704.63L272.151,704.63" style="fill:none;fill-rule:nonzero;stroke:black;stroke-width:0.72px;"/>
    </g>
    <g transform="matrix(1.15496,-0.66621,-0.66621,-1.15496,441.115,1112.67)">
        <path d="M280.447,703.255L289.313,703.255" style="fill:none;fill-rule:nonzero;stroke:black;stroke-width:0.72px;"/>
    </g>
    <g transform="matrix(0,-1.33333,-1.33333,0,1223.27,441.72)">
        <path d="M253.23,715.53L267.93,715.53" style="fill:none;fill-rule:nonzero;stroke:black;stroke-width:0.72px;"/>
    </g>
    <g transform="matrix(0,-1.33333,-1.33333,0,1218.79,437.24)">
        <path d="M249.87,715.53L264.57,715.53" style="fill:none;fill-rule:nonzero;stroke:black;stroke-width:0.72px;"/>
    </g>
    <g transform="matrix(-1.15468,0.666702,0.666702,1.15468,-96.025,-822.107)">
        <path d="M171.316,703.2L191.234,703.2" style="fill:none;fill-rule:nonzero;stroke:black;stroke-width:0.72px;"/>
    </g>
    <g transform="matrix(-1.15468,-0.666702,-0.666702,1.15468,798.707,-591.895)">
        <path d="M154.066,703.2L173.984,703.2" style="fill:none;fill-rule:nonzero;stroke:black;stroke-width:0.72px;"/>
    </g>
    <g transform="matrix(-0.000907029,-1.33333,-1.33333,0.000907029,1083.16,300.824)">
        <path d="M148.045,715.53L162.745,715.53" style="fill:none;fill-rule:nonzero;stroke:black;stroke-width:0.72px;"/>
    </g>
    <g transform="matrix(-0.00102249,-1.33333,-1.33333,0.00102249,1088.77,304.114)">
        <path d="M152.235,716.36L165.275,716.36" style="fill:none;fill-rule:nonzero;stroke:black;stroke-width:0.72px;"/>
    </g>
    <g transform="matrix(0.779285,1.08189,1.08189,-0.779285,-672.4,256.216)">
        <path d="M347.252,732.14L367.168,732.14" style="fill:none;fill-rule:nonzero;stroke:black;stroke-width:0.72px;"/>
    </g>
    <g transform="matrix(-1.26971,0.40695,0.40695,1.26971,595.565,-995.95)">
        <path d="M362.555,727.1L382.475,727.1" style="fill:none;fill-rule:nonzero;stroke:black;stroke-width:0.72px;"/>
    </g>
    <g transform="matrix(-0.787846,1.07567,1.07567,0.787846,-125.249,-923.175)">
        <path d="M347.315,748.255L367.235,748.255" style="fill:none;fill-rule:nonzero;stroke:black;stroke-width:0.72px;"/>
    </g>
    <g transform="matrix(-1.26644,-0.417016,-0.417016,1.26644,1204.6,-754.378)">
        <path d="M362.66,753.175L382.58,753.175" style="fill:none;fill-rule:nonzero;stroke:black;stroke-width:0.72px;"/>
    </g>
    <g transform="matrix(1.15468,0.666702,0.666702,-1.15468,-508.719,641.445)">
        <path d="M397.996,755.04L417.914,755.04" style="fill:none;fill-rule:nonzero;stroke:black;stroke-width:0.72px;"/>
    </g>
    <g transform="matrix(1.15468,-0.666702,-0.666702,-1.15468,478.134,1190.75)">
        <path d="M397.996,725.16L417.914,725.16" style="fill:none;fill-rule:nonzero;stroke:black;stroke-width:0.72px;"/>
    </g>
    <g transform="matrix(1.1545,-0.667012,-0.667012,-1.1545,480.474,1189.51)">
        <path d="M397.855,728.48L416.125,728.48" style="fill:none;fill-rule:nonzero;stroke:black;stroke-width:0.72px;"/>
    </g>
    <g transform="matrix(1.15468,-0.666702,-0.666702,-1.15468,494.973,1173.91)">
        <path d="M380.746,755.04L400.664,755.04" style="fill:none;fill-rule:nonzero;stroke:black;stroke-width:0.72px;"/>
    </g>
    <g transform="matrix(1.09635,0.758808,0.758808,-1.09635,-535.238,579.885)">
        <path d="M380.365,723.955L400.432,723.955L400.283,725.628L400.143,727.306L380.365,723.955Z" style="stroke:black;stroke-width:0.24px;"/>
    </g>
    <g transform="matrix(0.00535471,-1.33332,-1.33332,-0.00535471,1415.92,574.866)">
        <path d="M372.08,740.1L392,740.1" style="fill:none;fill-rule:nonzero;stroke:black;stroke-width:0.72px;"/>
    </g>
    <g transform="matrix(0.00536908,-1.33332,-1.33332,-0.00536908,1411.46,570.383)">
        <path d="M371.23,740.11L386.13,740.11" style="fill:none;fill-rule:nonzero;stroke:black;stroke-width:0.72px;"/>
    </g>
    <g transform="matrix(1.15468,0.666702,0.666702,-1.15468,-502.554,618.437)">
        <path d="M432.506,755.04L452.424,755.04" style="fill:none;fill-rule:nonzero;stroke:black;stroke-width:0.72px;"/>
    </g>
    <g transform="matrix(1.15468,-0.666702,-0.666702,-1.15468,484.299,1213.76)">
        <path d="M432.506,725.16L452.424,725.16" style="fill:none;fill-rule:nonzero;stroke:black;stroke-width:0.72px;"/>
    </g>
    <g transform="matrix(1.15485,-0.666412,-0.666412,-1.15485,500.848,1196.92)">
        <path d="M415.246,755.04L435.174,755.04" style="fill:none;fill-rule:nonzero;stroke:black;stroke-width:0.72px;"/>
    </g>
    <g transform="matrix(1.15485,0.666412,0.666412,-1.15485,-485.576,635.524)">
        <path d="M415.246,725.16L435.174,725.16" style="fill:none;fill-rule:nonzero;stroke:black;stroke-width:0.72px;"/>
    </g>
    <g transform="matrix(1.15468,0.666702,0.666702,-1.15468,-496.39,595.436)">
        <path d="M467.006,755.04L486.924,755.04" style="fill:none;fill-rule:nonzero;stroke:black;stroke-width:0.72px;"/>
    </g>
    <g transform="matrix(1.15468,-0.666702,-0.666702,-1.15468,490.463,1236.76)">
        <path d="M467.006,725.16L486.924,725.16" style="fill:none;fill-rule:nonzero;stroke:black;stroke-width:0.72px;"/>
    </g>
    <g transform="matrix(1.15468,-0.666702,-0.666702,-1.15468,507.302,1219.92)">
        <path d="M449.756,755.04L469.674,755.04" style="fill:none;fill-rule:nonzero;stroke:black;stroke-width:0.72px;"/>
    </g>
    <g transform="matrix(1.15468,0.666702,0.666702,-1.15468,-479.551,612.275)">
        <path d="M449.756,725.16L469.674,725.16" style="fill:none;fill-rule:nonzero;stroke:black;stroke-width:0.72px;"/>
    </g>
    <g transform="matrix(1.15479,0.666511,0.666511,-1.15479,-491.494,573.971)">
        <path d="M501.878,756.43L516.242,756.43" style="fill:none;fill-rule:nonzero;stroke:black;stroke-width:0.72px;"/>
    </g>
    <g transform="matrix(1.15473,-0.666612,-0.666612,-1.15473,495.246,1258.47)">
        <path d="M501.859,723.84L516.501,723.84" style="fill:none;fill-rule:nonzero;stroke:black;stroke-width:0.72px;"/>
    </g>
    <g transform="matrix(1.15468,-0.666702,-0.666702,-1.15468,513.465,1242.92)">
        <path d="M484.256,755.04L504.174,755.04" style="fill:none;fill-rule:nonzero;stroke:black;stroke-width:0.72px;"/>
    </g>
    <g transform="matrix(1.15468,0.666702,0.666702,-1.15468,-473.387,589.274)">
        <path d="M484.256,725.16L504.174,725.16" style="fill:none;fill-rule:nonzero;stroke:black;stroke-width:0.72px;"/>
    </g>
    <g transform="matrix(1.1544,-0.667192,-0.667192,-1.1544,520.217,1266.04)">
        <path d="M524.543,755.11L533.137,755.11" style="fill:none;fill-rule:nonzero;stroke:black;stroke-width:0.72px;"/>
    </g>
    <g transform="matrix(-0.406781,-1.26977,-1.26977,0.406781,1522.23,180.22)">
        <path d="M355.606,763.48L369.634,763.48" style="fill:none;fill-rule:nonzero;stroke:black;stroke-width:0.72px;"/>
    </g>
    <g transform="matrix(-0.406784,-1.26977,-1.26977,0.406784,1515.72,176.841)">
        <path d="M351.7,762.965L366.81,762.965" style="fill:none;fill-rule:nonzero;stroke:black;stroke-width:0.72px;"/>
    </g>
    <g transform="matrix(-0.416348,1.26666,1.26666,0.416348,-355.444,-663.596)">
        <path d="M353.595,717.23L367.975,717.23" style="fill:none;fill-rule:nonzero;stroke:black;stroke-width:0.72px;"/>
    </g>
    <g transform="matrix(0,-1.33333,-1.33333,0,1477.39,557.6)">
        <path d="M391.98,767.37L406.68,767.37" style="fill:none;fill-rule:nonzero;stroke:black;stroke-width:0.72px;"/>
    </g>
    <g transform="matrix(0,-1.33333,-1.33333,0,1617.64,697.853)">
        <path d="M497.17,767.37L511.87,767.37" style="fill:none;fill-rule:nonzero;stroke:black;stroke-width:0.72px;"/>
    </g>
    <g transform="matrix(0,-1.33333,-1.33333,0,1613.16,693.373)">
        <path d="M493.81,767.37L508.51,767.37" style="fill:none;fill-rule:nonzero;stroke:black;stroke-width:0.72px;"/>
    </g>
    <g transform="matrix(1.33333,0,0,1.33333,-78.2146,-836.16)">
        <path d="M432.2,706.68L435.47,706.68" style="fill:none;fill-rule:nonzero;stroke:black;stroke-width:0.72px;"/>
    </g>
    <g transform="matrix(1.33333,0,0,1.33333,-78.2146,-843.2)">
        <path d="M432.52,709.32L435.15,709.32" style="fill:none;fill-rule:nonzero;stroke:black;stroke-width:0.72px;"/>
    </g>
    <g transform="matrix(1.33333,0,0,1.33333,-78.2146,-850.24)">
        <path d="M432.84,711.96L434.83,711.96" style="fill:none;fill-rule:nonzero;stroke:black;stroke-width:0.72px;"/>
    </g>
    <g transform="matrix(1.33333,0,0,1.33333,-78.2146,-857.28)">
        <path d="M433.16,714.6L434.51,714.6" style="fill:none;fill-rule:nonzero;stroke:black;stroke-width:0.72px;"/>
    </g>
    <g transform="matrix(1.33333,0,0,1.33333,-78.2146,-864.32)">
        <path d="M433.48,717.24L434.19,717.24" style="fill:none;fill-rule:nonzero;stroke:black;stroke-width:0.72px;"/>
    </g>
    <g transform="matrix(1.33333,0,0,1.33333,-78.2146,-871.36)">
        <path d="M433.8,719.88L433.87,719.88" style="fill:none;fill-rule:nonzero;stroke:black;stroke-width:0.72px;"/>
    </g>
    <g transform="matrix(0,1.33333,1.33333,0,-300.775,-445.92)">
        <path d="M448.92,643.8L504.84,643.8" style="fill:none;fill-rule:nonzero;stroke:black;stroke-width:0.72px;"/>
    </g>
    <g transform="matrix(-0.314133,1.2958,1.2958,0.314133,-95.7076,-590.721)">
        <path d="M472.579,620.733L480.729,620.733L473.484,617.001L474.431,619.206L472.579,620.733Z" style="stroke:black;stroke-width:0.72px;"/>
    </g>
</svg>
