<?xml version="1.0" encoding="UTF-8" standalone="no"?>
<!DOCTYPE svg PUBLIC "-//W3C//DTD SVG 1.1//EN" "http://www.w3.org/Graphics/SVG/1.1/DTD/svg11.dtd">
<svg width="100%" height="100%" viewBox="0 0 590 270" version="1.1" xmlns="http://www.w3.org/2000/svg" xmlns:xlink="http://www.w3.org/1999/xlink" xml:space="preserve" xmlns:serif="http://www.serif.com/" style="fill-rule:evenodd;clip-rule:evenodd;stroke-linecap:round;stroke-linejoin:round;stroke-miterlimit:10;">
    <g transform="matrix(1.33333,0,0,1.33333,-85.9857,-60.6065)">
        <text x="80.4px" y="74.88px" style="font-family:'ArialMT', 'Arial', sans-serif;font-size:10px;">O</text>
    </g>
    <g transform="matrix(1.33333,0,0,1.33333,-85.9857,-60.6065)">
        <text x="194.16px" y="74.4px" style="font-family:'ArialMT', 'Arial', sans-serif;font-size:10px;">O</text>
    </g>
    <g transform="matrix(1.33333,0,0,1.33333,-85.9857,-60.6065)">
        <text x="211.92px" y="64.32px" style="font-family:'ArialMT', 'Arial', sans-serif;font-size:10px;">S</text>
        <text x="218.64px" y="64.32px" style="font-family:'ArialMT', 'Arial', sans-serif;font-size:10px;">i</text>
        <text x="221.04px" y="64.32px" style="font-family:'ArialMT', 'Arial', sans-serif;font-size:10px;">M</text>
        <text x="229.44px" y="64.32px" style="font-family:'ArialMT', 'Arial', sans-serif;font-size:10px;">e</text>
        <text x="235.2px" y="66.96px" style="font-family:'ArialMT', 'Arial', sans-serif;font-size:8px;">3</text>
    </g>
    <g transform="matrix(1.33333,0,0,1.33333,-85.9857,-60.6065)">
        <text x="290.64px" y="67.2px" style="font-family:'ArialMT', 'Arial', sans-serif;font-size:10px;">O</text>
    </g>
    <g transform="matrix(1.33333,0,0,1.33333,-85.9857,-60.6065)">
        <text x="250.8px" y="87.12px" style="font-family:'ArialMT', 'Arial', sans-serif;font-size:10px;">Ph</text>
    </g>
    <g transform="matrix(1.33333,0,0,1.33333,-85.9857,-60.6065)">
        <text x="352.32px" y="74.4px" style="font-family:'ArialMT', 'Arial', sans-serif;font-size:10px;">O</text>
    </g>
    <g transform="matrix(1.33333,0,0,1.33333,-85.9857,-60.6065)">
        <text x="421.44px" y="107.04px" style="font-family:'ArialMT', 'Arial', sans-serif;font-size:10px;">Ph</text>
    </g>
    <g transform="matrix(1.33333,0,0,1.33333,-85.9857,-60.6065)">
        <text x="391.44px" y="80.4px" style="font-family:'ArialMT', 'Arial', sans-serif;font-size:10px;">O</text>
    </g>
    <g transform="matrix(1.33333,0,0,1.33333,-85.9857,-60.6065)">
        <text x="411.12px" y="74.16px" style="font-family:'ArialMT', 'Arial', sans-serif;font-size:10px;">T<tspan x="417.36px " y="74.16px ">i</tspan></text>
    </g>
    <g transform="matrix(1.33333,0,0,1.33333,-85.9857,-60.6065)">
        <text x="425.52px" y="87.6px" style="font-family:'ArialMT', 'Arial', sans-serif;font-size:10px;">Cl</text>
    </g>
    <g transform="matrix(1.33333,0,0,1.33333,-85.9857,-60.6065)">
        <text x="414.72px" y="54.72px" style="font-family:'ArialMT', 'Arial', sans-serif;font-size:10px;">Cl</text>
    </g>
    <g transform="matrix(1.33333,0,0,1.33333,-85.9857,-60.6065)">
        <text x="390.96px" y="60.96px" style="font-family:'ArialMT', 'Arial', sans-serif;font-size:10px;">Cl</text>
    </g>
    <g transform="matrix(1.33333,0,0,1.33333,-85.9857,-60.6065)">
        <text x="445.92px" y="103.92px" style="font-family:'ArialMT', 'Arial', sans-serif;font-size:18px;">+</text>
        <text x="466.8px" y="99.84px" style="font-family:'ArialMT', 'Arial', sans-serif;font-size:10px;">M</text>
        <text x="475.2px" y="99.84px" style="font-family:'ArialMT', 'Arial', sans-serif;font-size:10px;">e</text>
        <text x="480.96px" y="102.48px" style="font-family:'ArialMT', 'Arial', sans-serif;font-size:8px;">3</text>
        <text x="485.52px" y="99.84px" style="font-family:'ArialMT', 'Arial', sans-serif;font-size:10px;">S</text>
        <text x="492.24px" y="99.84px" style="font-family:'ArialMT', 'Arial', sans-serif;font-size:10px;">i</text>
        <text x="494.64px" y="99.84px" style="font-family:'ArialMT', 'Arial', sans-serif;font-size:10px;">Cl</text>
    </g>
    <g transform="matrix(1.33333,0,0,1.33333,-85.9857,-60.6065)">
        <text x="361.68px" y="158.16px" style="font-family:'ArialMT', 'Arial', sans-serif;font-size:10px;">H</text>
        <text x="368.88px" y="160.8px" style="font-family:'ArialMT', 'Arial', sans-serif;font-size:6px;">2</text>
        <text x="372.48px" y="158.16px" style="font-family:'ArialMT', 'Arial', sans-serif;font-size:10px;">O</text>
    </g>
    <g transform="matrix(1.33333,0,0,1.33333,-85.9857,-60.6065)">
        <text x="381.84px" y="199.44px" style="font-family:'ArialMT', 'Arial', sans-serif;font-size:10px;">O</text>
    </g>
    <g transform="matrix(1.33333,0,0,1.33333,-85.9857,-60.6065)">
        <text x="450.96px" y="232.08px" style="font-family:'ArialMT', 'Arial', sans-serif;font-size:10px;">Ph</text>
    </g>
    <g transform="matrix(1.33333,0,0,1.33333,-85.9857,-60.6065)">
        <text x="420.96px" y="205.44px" style="font-family:'ArialMT', 'Arial', sans-serif;font-size:10px;">O<tspan x="428.88px " y="205.44px ">H</tspan></text>
    </g>
    <g transform="matrix(1.33333,0,0,1.33333,-85.9857,-60.6065)">
        <text x="128.16px" y="93.12px" style="font-family:'ArialMT', 'Arial', sans-serif;font-size:10px;">E</text>
        <text x="134.88px" y="93.12px" style="font-family:'ArialMT', 'Arial', sans-serif;font-size:10px;">t</text>
        <text x="137.76px" y="95.76px" style="font-family:'ArialMT', 'Arial', sans-serif;font-size:6px;">3</text>
        <text x="141.36px" y="93.12px" style="font-family:'ArialMT', 'Arial', sans-serif;font-size:10px;">N</text>
    </g>
    <g transform="matrix(1.33333,0,0,1.33333,-85.9857,-60.6065)">
        <text x="120.24px" y="118.08px" style="font-family:'ArialMT', 'Arial', sans-serif;font-size:10px;">M</text>
        <text x="128.64px" y="118.08px" style="font-family:'ArialMT', 'Arial', sans-serif;font-size:10px;">e</text>
        <text x="134.16px" y="120.72px" style="font-family:'ArialMT', 'Arial', sans-serif;font-size:6px;">3</text>
        <text x="137.76px" y="118.08px" style="font-family:'ArialMT', 'Arial', sans-serif;font-size:10px;">S</text>
        <text x="144.48px" y="118.08px" style="font-family:'ArialMT', 'Arial', sans-serif;font-size:10px;">i</text>
        <text x="146.88px" y="118.08px" style="font-family:'ArialMT', 'Arial', sans-serif;font-size:10px;">Cl</text>
    </g>
    <g transform="matrix(1.33333,0,0,1.33333,-85.9857,-60.6065)">
        <text x="262.32px" y="117.12px" style="font-family:'ArialMT', 'Arial', sans-serif;font-size:10px;">T</text>
        <text x="268.56px" y="117.12px" style="font-family:'ArialMT', 'Arial', sans-serif;font-size:10px;">i</text>
        <text x="270.96px" y="117.12px" style="font-family:'ArialMT', 'Arial', sans-serif;font-size:10px;">C</text>
        <text x="278.16px" y="117.12px" style="font-family:'ArialMT', 'Arial', sans-serif;font-size:10px;">l</text>
        <text x="280.56px" y="119.76px" style="font-family:'ArialMT', 'Arial', sans-serif;font-size:6px;">4</text>
    </g>
    <g transform="matrix(1.33333,0,0,1.33333,-85.9857,-60.6065)">
        <text x="259.2px" y="132.48px" style="font-family:'ArialMT', 'Arial', sans-serif;font-size:10px;">-</text>
        <text x="262.56px" y="132.48px" style="font-family:'ArialMT', 'Arial', sans-serif;font-size:10px;">78</text>
        <text x="276.435px" y="127.44px" style="font-family:'ArialMT', 'Arial', sans-serif;font-size:6px;">o</text>
        <text x="280.035px" y="132.48px" style="font-family:'ArialMT', 'Arial', sans-serif;font-size:10px;">C</text>
    </g>
    <g transform="matrix(1.33333,0,0,1.33333,-85.9857,-60.6065)">
        <text x="392.16px" y="158.16px" style="font-family:'ArialMT', 'Arial', sans-serif;font-size:10px;">-</text>
        <text x="395.52px" y="158.16px" style="font-family:'ArialMT', 'Arial', sans-serif;font-size:10px;">78</text>
        <text x="409.395px" y="153.12px" style="font-family:'ArialMT', 'Arial', sans-serif;font-size:6px;">o</text>
        <text x="412.995px" y="158.16px" style="font-family:'ArialMT', 'Arial', sans-serif;font-size:10px;">C</text>
    </g>
    <g transform="matrix(-1.07962,0.782437,0.782437,1.07962,-485.325,-796.088)">
        <path d="M66.225,745.325L86.145,745.325" style="fill:none;fill-rule:nonzero;stroke:black;stroke-width:0.72px;"/>
    </g>
    <g transform="matrix(-0.410979,-1.26841,-1.26841,0.410979,964.14,-121.105)">
        <path d="M61.23,730.005L81.15,730.005" style="fill:none;fill-rule:nonzero;stroke:black;stroke-width:0.72px;"/>
    </g>
    <g transform="matrix(-1.0782,-0.784388,-0.784388,1.0782,721.223,-662.983)">
        <path d="M82.344,745.31L102.266,745.31" style="fill:none;fill-rule:nonzero;stroke:black;stroke-width:0.72px;"/>
    </g>
    <g transform="matrix(-1.33333,-0.00133802,-0.00133802,1.33333,139.578,-859.32)">
        <path d="M74.26,720.52L94.19,720.52" style="fill:none;fill-rule:nonzero;stroke:black;stroke-width:0.72px;"/>
    </g>
    <g transform="matrix(0.412993,-1.26776,-1.26776,-0.412993,928.98,513.444)">
        <path d="M87.315,729.98L107.235,729.98" style="fill:none;fill-rule:nonzero;stroke:black;stroke-width:0.72px;"/>
    </g>
    <g transform="matrix(0.000908884,-1.33333,-1.33333,-0.000908884,1039.86,165.883)">
        <path d="M78.6,758.505L93.27,758.505" style="fill:none;fill-rule:nonzero;stroke:black;stroke-width:0.72px;"/>
    </g>
    <g transform="matrix(0.000908884,-1.33333,-1.33333,-0.000908884,1035.38,161.403)">
        <path d="M75.24,758.505L89.91,758.505" style="fill:none;fill-rule:nonzero;stroke:black;stroke-width:0.72px;"/>
    </g>
    <g transform="matrix(1.33333,0,0,1.33333,-85.9857,-911.166)">
        <path d="M113.04,739.92L163.44,739.92" style="fill:none;fill-rule:nonzero;stroke:black;stroke-width:0.72px;"/>
    </g>
    <g transform="matrix(1.2958,0.314133,0.314133,-1.2958,-312.433,984.084)">
        <path d="M155.179,740.853L163.329,740.853L156.084,737.121L157.031,739.326L155.179,740.853Z" style="stroke:black;stroke-width:0.72px;"/>
    </g>
    <g transform="matrix(-1.07962,0.782437,0.782437,1.07962,-211.203,-886.256)">
        <path d="M179.985,745.805L199.905,745.805" style="fill:none;fill-rule:nonzero;stroke:black;stroke-width:0.72px;"/>
    </g>
    <g transform="matrix(-0.410979,-1.26841,-1.26841,0.410979,1163.18,22.3523)">
        <path d="M174.99,730.485L194.91,730.485" style="fill:none;fill-rule:nonzero;stroke:black;stroke-width:0.72px;"/>
    </g>
    <g transform="matrix(-1.0782,-0.784388,-0.784388,1.0782,995.936,-574.908)">
        <path d="M196.104,745.79L216.026,745.79" style="fill:none;fill-rule:nonzero;stroke:black;stroke-width:0.72px;"/>
    </g>
    <g transform="matrix(-1.07804,-0.784601,-0.784601,1.07804,989.158,-569.755)">
        <path d="M196.633,743.075L211.537,743.075" style="fill:none;fill-rule:nonzero;stroke:black;stroke-width:0.72px;"/>
    </g>
    <g transform="matrix(-1.33333,-0.00133802,-0.00133802,1.33333,442.939,-860.448)">
        <path d="M188.02,721L207.95,721" style="fill:none;fill-rule:nonzero;stroke:black;stroke-width:0.72px;"/>
    </g>
    <g transform="matrix(0.412993,-1.26776,-1.26776,-0.412993,1034.29,657.223)">
        <path d="M201.075,730.46L220.995,730.46" style="fill:none;fill-rule:nonzero;stroke:black;stroke-width:0.72px;"/>
    </g>
    <g transform="matrix(0.000908884,-1.33333,-1.33333,-0.000908884,1189.83,314.683)">
        <path d="M190.68,758.985L205.35,758.985" style="fill:none;fill-rule:nonzero;stroke:black;stroke-width:0.72px;"/>
    </g>
    <g transform="matrix(1.1555,-0.665286,-0.665286,-1.1555,467.581,1061.53)">
        <path d="M202.431,776.74L211.569,776.74" style="fill:none;fill-rule:nonzero;stroke:black;stroke-width:0.72px;"/>
    </g>
    <g transform="matrix(1.33333,0,0,1.33333,-85.9857,-913.726)">
        <path d="M227.04,740.88L319.2,740.88" style="fill:none;fill-rule:nonzero;stroke:black;stroke-width:0.72px;"/>
    </g>
    <g transform="matrix(1.2958,0.314133,0.314133,-1.2958,-306.889,935.119)">
        <path d="M310.939,741.813L319.089,741.813L311.844,738.081L312.791,740.286L310.939,741.813Z" style="stroke:black;stroke-width:0.72px;"/>
    </g>
    <g transform="matrix(0,-1.33333,-1.33333,0,1328.45,433.354)">
        <path d="M287.31,766.14L302.07,766.14" style="fill:none;fill-rule:nonzero;stroke:black;stroke-width:0.72px;"/>
    </g>
    <g transform="matrix(0,-1.33333,-1.33333,0,1325.08,427.767)">
        <path d="M284.78,766.97L297.88,766.97" style="fill:none;fill-rule:nonzero;stroke:black;stroke-width:0.72px;"/>
    </g>
    <g transform="matrix(1.15468,-0.666702,-0.666702,-1.15468,467.668,1118.01)">
        <path d="M276.106,753.78L296.024,753.78" style="fill:none;fill-rule:nonzero;stroke:black;stroke-width:0.72px;"/>
    </g>
    <g transform="matrix(1.15469,0.666693,0.666693,-1.15469,-539.429,747.001)">
        <path d="M262.96,752.68L278.48,752.68" style="fill:none;fill-rule:nonzero;stroke:black;stroke-width:0.72px;"/>
    </g>
    <g transform="matrix(-1.07962,0.782437,0.782437,1.07962,170.429,-1010.01)">
        <path d="M338.145,745.805L358.065,745.805" style="fill:none;fill-rule:nonzero;stroke:black;stroke-width:0.72px;"/>
    </g>
    <g transform="matrix(-0.410979,-1.26841,-1.26841,0.410979,1439.06,222.965)">
        <path d="M333.15,730.485L353.07,730.485" style="fill:none;fill-rule:nonzero;stroke:black;stroke-width:0.72px;"/>
    </g>
    <g transform="matrix(-1.0782,-0.784388,-0.784388,1.0782,1377.34,-450.849)">
        <path d="M354.264,745.79L374.186,745.79" style="fill:none;fill-rule:nonzero;stroke:black;stroke-width:0.72px;"/>
    </g>
    <g transform="matrix(-1.33333,-0.00133802,-0.00133802,1.33333,864.699,-860.236)">
        <path d="M346.18,721L366.11,721" style="fill:none;fill-rule:nonzero;stroke:black;stroke-width:0.72px;"/>
    </g>
    <g transform="matrix(0.412993,-1.26776,-1.26776,-0.412993,1179.85,857.732)">
        <path d="M359.235,730.46L379.155,730.46" style="fill:none;fill-rule:nonzero;stroke:black;stroke-width:0.72px;"/>
    </g>
    <g transform="matrix(0.000908884,-1.33333,-1.33333,-0.000908884,1402.81,527.803)">
        <path d="M350.52,758.985L365.19,758.985" style="fill:none;fill-rule:nonzero;stroke:black;stroke-width:0.72px;"/>
    </g>
    <g transform="matrix(0.000908884,-1.33333,-1.33333,-0.000908884,1398.33,523.323)">
        <path d="M347.16,758.985L361.83,758.985" style="fill:none;fill-rule:nonzero;stroke:black;stroke-width:0.72px;"/>
    </g>
    <g transform="matrix(1.26841,-0.410979,-0.410979,-1.26841,244.155,1170.61)">
        <path d="M371.795,743L391.715,743" style="fill:none;fill-rule:nonzero;stroke:black;stroke-width:0.72px;"/>
    </g>
    <g transform="matrix(0.990093,0.893025,0.893025,-0.990093,-609.464,452.179)">
        <path d="M388.666,739.4L408.584,739.4" style="fill:none;fill-rule:nonzero;stroke:black;stroke-width:0.72px;"/>
    </g>
    <g transform="matrix(1.26855,-0.410567,-0.410567,-1.26855,242.583,1184)">
        <path d="M405.651,735.07L420.849,735.07" style="fill:none;fill-rule:nonzero;stroke:black;stroke-width:0.72px;"/>
    </g>
    <g transform="matrix(0.278185,-1.30399,-1.30399,-0.278185,1310.58,779.363)">
        <path d="M385.465,753.195L400.035,753.195" style="fill:none;fill-rule:nonzero;stroke:black;stroke-width:0.72px;"/>
    </g>
    <g transform="matrix(1.26835,-0.411182,-0.411182,-1.26835,256.443,1178.62)">
        <path d="M400.068,768.745L410.412,768.745" style="fill:none;fill-rule:nonzero;stroke:black;stroke-width:0.72px;"/>
    </g>
    <g transform="matrix(0.990625,0.892435,0.892435,-0.990625,-623.543,423.081)">
        <path d="M419.235,764.515L425.345,764.515" style="fill:none;fill-rule:nonzero;stroke:black;stroke-width:0.72px;"/>
    </g>
    <g transform="matrix(0.278786,-1.30386,-1.30386,-0.278786,1372.03,780.836)">
        <path d="M411.752,781.44L421.078,781.44" style="fill:none;fill-rule:nonzero;stroke:black;stroke-width:0.72px;"/>
    </g>
    <g transform="matrix(-0.989691,-0.893471,-0.893471,0.989691,1553.12,-385.889)">
        <path d="M400.02,779.35L411.66,779.35" style="fill:none;fill-rule:nonzero;stroke:black;stroke-width:0.72px;"/>
    </g>
    <g transform="matrix(0,1.33333,1.33333,0,-486.146,-366.046)">
        <path d="M365.16,685.56L405.72,685.56" style="fill:none;fill-rule:nonzero;stroke:black;stroke-width:0.72px;"/>
    </g>
    <g transform="matrix(-0.314133,1.2958,1.2958,0.314133,-318.187,-540.05)">
        <path d="M381.139,670.173L389.289,670.173L382.044,666.441L382.991,668.646L381.139,670.173Z" style="stroke:black;stroke-width:0.72px;"/>
    </g>
    <g transform="matrix(-1.07962,0.782437,0.782437,1.07962,339.495,-731.389)">
        <path d="M367.665,620.765L387.585,620.765" style="fill:none;fill-rule:nonzero;stroke:black;stroke-width:0.72px;"/>
    </g>
    <g transform="matrix(-0.410979,-1.26841,-1.26841,0.410979,1331.95,478.517)">
        <path d="M362.67,605.445L382.59,605.445" style="fill:none;fill-rule:nonzero;stroke:black;stroke-width:0.72px;"/>
    </g>
    <g transform="matrix(-1.0782,-0.784388,-0.784388,1.0782,1350.45,-126.156)">
        <path d="M383.784,620.75L403.706,620.75" style="fill:none;fill-rule:nonzero;stroke:black;stroke-width:0.72px;"/>
    </g>
    <g transform="matrix(-1.33333,-0.00133802,-0.00133802,1.33333,943.251,-526.757)">
        <path d="M375.7,595.96L395.63,595.96" style="fill:none;fill-rule:nonzero;stroke:black;stroke-width:0.72px;"/>
    </g>
    <g transform="matrix(0.412993,-1.26776,-1.26776,-0.412993,1048.5,1010.24)">
        <path d="M388.755,605.42L408.675,605.42" style="fill:none;fill-rule:nonzero;stroke:black;stroke-width:0.72px;"/>
    </g>
    <g transform="matrix(0.000908884,-1.33333,-1.33333,-0.000908884,1275.42,733.77)">
        <path d="M380.04,633.945L394.71,633.945" style="fill:none;fill-rule:nonzero;stroke:black;stroke-width:0.72px;"/>
    </g>
    <g transform="matrix(0.000908884,-1.33333,-1.33333,-0.000908884,1270.95,729.29)">
        <path d="M376.68,633.945L391.35,633.945" style="fill:none;fill-rule:nonzero;stroke:black;stroke-width:0.72px;"/>
    </g>
    <g transform="matrix(1.26841,-0.410979,-0.410979,-1.26841,194.683,1190.86)">
        <path d="M401.315,617.96L421.235,617.96" style="fill:none;fill-rule:nonzero;stroke:black;stroke-width:0.72px;"/>
    </g>
    <g transform="matrix(0.990093,0.893025,0.893025,-0.990093,-487.668,468.736)">
        <path d="M418.186,614.36L438.104,614.36" style="fill:none;fill-rule:nonzero;stroke:black;stroke-width:0.72px;"/>
    </g>
    <g transform="matrix(1.26855,-0.410567,-0.410567,-1.26855,193.158,1204.22)">
        <path d="M435.171,610.03L450.369,610.03" style="fill:none;fill-rule:nonzero;stroke:black;stroke-width:0.72px;"/>
    </g>
    <g transform="matrix(0.278185,-1.30399,-1.30399,-0.278185,1178.68,949.793)">
        <path d="M414.985,628.155L429.555,628.155" style="fill:none;fill-rule:nonzero;stroke:black;stroke-width:0.72px;"/>
    </g>
</svg>
