<?xml version="1.0" encoding="UTF-8" standalone="no"?>
<!DOCTYPE svg PUBLIC "-//W3C//DTD SVG 1.1//EN" "http://www.w3.org/Graphics/SVG/1.1/DTD/svg11.dtd">
<svg width="100%" height="100%" viewBox="0 0 750 145" version="1.1" xmlns="http://www.w3.org/2000/svg" xmlns:xlink="http://www.w3.org/1999/xlink" xml:space="preserve" xmlns:serif="http://www.serif.com/" style="fill-rule:evenodd;clip-rule:evenodd;stroke-linecap:round;stroke-linejoin:round;stroke-miterlimit:10;">
    <g transform="matrix(1.33333,0,0,1.33333,-30.5608,-112.16)">
        <text x="70.32px" y="156.24px" style="font-family:'ArialMT', 'Arial', sans-serif;font-size:10px;">O</text>
    </g>
    <g transform="matrix(1.33333,0,0,1.33333,-30.5608,-112.16)">
        <text x="36.24px" y="136.32px" style="font-family:'ArialMT', 'Arial', sans-serif;font-size:10px;">C</text>
    </g>
    <g transform="matrix(1.33333,0,0,1.33333,-30.5608,-112.16)">
        <text x="24.72px" y="136.32px" style="font-family:'ArialMT', 'Arial', sans-serif;font-size:10px;">H</text>
        <text x="31.92px" y="138.96px" style="font-family:'ArialMT', 'Arial', sans-serif;font-size:8px;">3</text>
    </g>
    <g transform="matrix(1.33333,0,0,1.33333,-30.5608,-112.16)">
        <text x="87.84px" y="126.24px" style="font-family:'ArialMT', 'Arial', sans-serif;font-size:10px;">R</text>
        <text x="95.28px" y="128.88px" style="font-family:'ArialMT', 'Arial', sans-serif;font-size:8px;">1</text>
    </g>
    <g transform="matrix(1.33333,0,0,1.33333,-30.5608,-112.16)">
        <text x="123.6px" y="130.08px" style="font-family:'ArialMT', 'Arial', sans-serif;font-size:10px;">:<tspan x="126.48px " y="130.08px ">B</tspan></text>
    </g>
    <g transform="matrix(1.33333,0,0,1.33333,-30.5608,-112.16)">
        <text x="206.88px" y="161.28px" style="font-family:'ArialMT', 'Arial', sans-serif;font-size:10px;">O</text>
        <text x="214.8px" y="154.32px" style="font-family:'ArialMT', 'Arial', sans-serif;font-size:8px;">–</text>
    </g>
    <g transform="matrix(1.33333,0,0,1.33333,-30.5608,-112.16)">
        <text x="172.8px" y="141.36px" style="font-family:'ArialMT', 'Arial', sans-serif;font-size:10px;">C</text>
    </g>
    <g transform="matrix(1.33333,0,0,1.33333,-30.5608,-112.16)">
        <text x="161.28px" y="141.36px" style="font-family:'ArialMT', 'Arial', sans-serif;font-size:10px;">H</text>
        <text x="168.48px" y="144px" style="font-family:'ArialMT', 'Arial', sans-serif;font-size:8px;">3</text>
    </g>
    <g transform="matrix(1.33333,0,0,1.33333,-30.5608,-112.16)">
        <text x="224.4px" y="131.28px" style="font-family:'ArialMT', 'Arial', sans-serif;font-size:10px;">R</text>
        <text x="231.84px" y="133.92px" style="font-family:'ArialMT', 'Arial', sans-serif;font-size:8px;">1</text>
    </g>
    <g transform="matrix(1.33333,0,0,1.33333,-30.5608,-112.16)">
        <text x="219.84px" y="162.48px" style="font-family:'ArialMT', 'Arial', sans-serif;font-size:10px;">M</text>
        <text x="228.48px" y="155.52px" style="font-family:'ArialMT', 'Arial', sans-serif;font-size:8px;">+</text>
    </g>
    <g transform="matrix(1.33333,0,0,1.33333,-30.5608,-111.2)">
        <text x="197.76px" y="188.4px" style="font-family:'ArialMT', 'Arial', sans-serif;font-size:10px;">Z</text>
    </g>
    <g transform="matrix(1.33333,0,0,1.33333,-30.5608,-112.16)">
        <text x="250.56px" y="143.28px" style="font-family:'ArialMT', 'Arial', sans-serif;font-size:18px;">+</text>
    </g>
    <g transform="matrix(1.33333,0,0,1.33333,-30.5608,-112.16)">
        <text x="309.36px" y="136.56px" style="font-family:'ArialMT', 'Arial', sans-serif;font-size:10px;">R</text>
        <text x="316.8px" y="139.2px" style="font-family:'ArialMT', 'Arial', sans-serif;font-size:8px;">1</text>
    </g>
    <g transform="matrix(1.33333,0,0,1.33333,-30.5608,-112.16)">
        <text x="275.04px" y="116.64px" style="font-family:'ArialMT', 'Arial', sans-serif;font-size:10px;">CH</text>
        <text x="289.44px" y="119.28px" style="font-family:'ArialMT', 'Arial', sans-serif;font-size:8px;">3</text>
    </g>
    <g transform="matrix(1.33333,0,0,1.33333,-30.5608,-112.16)">
        <text x="291.84px" y="166.56px" style="font-family:'ArialMT', 'Arial', sans-serif;font-size:10px;">O</text>
        <text x="299.76px" y="159.6px" style="font-family:'ArialMT', 'Arial', sans-serif;font-size:8px;">–</text>
        <text x="306.479px" y="167.52px" style="font-family:'ArialMT', 'Arial', sans-serif;font-size:10px;">M</text>
        <text x="315.119px" y="160.56px" style="font-family:'ArialMT', 'Arial', sans-serif;font-size:8px;">+</text>
    </g>
    <g transform="matrix(1.33333,0,0,1.33333,-30.5608,-113.12)">
        <text x="291.84px" y="189.84px" style="font-family:'ArialMT', 'Arial', sans-serif;font-size:10px;">E</text>
    </g>
    <g transform="matrix(1.33333,0,0,1.33333,-30.5608,-112.16)">
        <text x="442.08px" y="166.08px" style="font-family:'ArialMT', 'Arial', sans-serif;font-size:10px;">O</text>
    </g>
    <g transform="matrix(1.33333,0,0,1.33333,-30.5608,-112.16)">
        <text x="407.76px" y="166.08px" style="font-family:'ArialMT', 'Arial', sans-serif;font-size:10px;">O<tspan x="415.68px " y="166.08px ">H</tspan></text>
    </g>
    <g transform="matrix(1.33333,0,0,1.33333,-30.5608,-112.16)">
        <text x="425.04px" y="116.16px" style="font-family:'ArialMT', 'Arial', sans-serif;font-size:10px;">CH</text>
        <text x="439.44px" y="118.8px" style="font-family:'ArialMT', 'Arial', sans-serif;font-size:8px;">3</text>
    </g>
    <g transform="matrix(1.33333,0,0,1.33333,-30.5608,-112.16)">
        <text x="459.6px" y="136.08px" style="font-family:'ArialMT', 'Arial', sans-serif;font-size:10px;">R</text>
        <text x="467.04px" y="138.72px" style="font-family:'ArialMT', 'Arial', sans-serif;font-size:8px;">1</text>
    </g>
    <g transform="matrix(1.33333,0,0,1.33333,-30.5608,-112.16)">
        <text x="390.72px" y="136.32px" style="font-family:'ArialMT', 'Arial', sans-serif;font-size:10px;">R</text>
    </g>
    <g transform="matrix(1.33333,0,0,1.33333,-30.5608,-112.16)">
        <text x="339.12px" y="111.6px" style="font-family:'ArialMT', 'Arial', sans-serif;font-size:10px;">R</text>
    </g>
    <g transform="matrix(1.33333,0,0,1.33333,-30.5608,-112.16)">
        <text x="368.88px" y="128.64px" style="font-family:'ArialMT', 'Arial', sans-serif;font-size:10px;">H</text>
    </g>
    <g transform="matrix(1.33333,0,0,1.33333,-30.5608,-112.16)">
        <text x="368.64px" y="94.32px" style="font-family:'ArialMT', 'Arial', sans-serif;font-size:10px;">O</text>
    </g>
    <g transform="matrix(1.33333,0,0,1.33333,-30.5608,-112.16)">
        <text x="482.4px" y="145.44px" style="font-family:'ArialMT', 'Arial', sans-serif;font-size:18px;">+</text>
    </g>
    <g transform="matrix(1.33333,0,0,1.33333,-30.5608,-112.16)">
        <text x="503.52px" y="126.48px" style="font-family:'ArialMT', 'Arial', sans-serif;font-size:10px;">R</text>
    </g>
    <g transform="matrix(1.33333,0,0,1.33333,-30.5608,-112.16)">
        <text x="572.4px" y="126.48px" style="font-family:'ArialMT', 'Arial', sans-serif;font-size:10px;">R</text>
        <text x="579.84px" y="129.12px" style="font-family:'ArialMT', 'Arial', sans-serif;font-size:8px;">1</text>
    </g>
    <g transform="matrix(1.33333,0,0,1.33333,-30.5608,-112.16)">
        <text x="554.88px" y="156.24px" style="font-family:'ArialMT', 'Arial', sans-serif;font-size:10px;">O</text>
    </g>
    <g transform="matrix(0,-1.33333,-1.33333,0,1007.08,175.56)">
        <path d="M68.67,702.18L83.43,702.18" style="fill:none;fill-rule:nonzero;stroke:black;stroke-width:0.72px;"/>
    </g>
    <g transform="matrix(0,-1.33333,-1.33333,0,1002.6,171.08)">
        <path d="M65.31,702.18L80.07,702.18" style="fill:none;fill-rule:nonzero;stroke:black;stroke-width:0.72px;"/>
    </g>
    <g transform="matrix(1.15468,0.666702,0.666702,-1.15468,-495.201,838.913)">
        <path d="M55.786,714.54L75.704,714.54" style="fill:none;fill-rule:nonzero;stroke:black;stroke-width:0.72px;"/>
    </g>
    <g transform="matrix(1.15485,-0.666401,-0.666401,-1.15485,455.542,916.462)">
        <path d="M43.417,715.85L58.103,715.85" style="fill:none;fill-rule:nonzero;stroke:black;stroke-width:0.72px;"/>
    </g>
    <g transform="matrix(1.15481,-0.666483,-0.666483,-1.15481,459.149,936.815)">
        <path d="M73.403,713.17L87.847,713.17" style="fill:none;fill-rule:nonzero;stroke:black;stroke-width:0.72px;"/>
    </g>
    <g transform="matrix(1.33333,0,0,1.33333,-30.5608,-866.08)">
        <path d="M112.32,703.68L146.4,703.68" style="fill:none;fill-rule:nonzero;stroke:black;stroke-width:0.72px;"/>
    </g>
    <g transform="matrix(1.33333,0,0,1.33333,-30.5608,-873.76)">
        <path d="M112.32,706.56L146.4,706.56" style="fill:none;fill-rule:nonzero;stroke:black;stroke-width:0.72px;"/>
    </g>
    <g transform="matrix(1.2958,0.314133,0.314133,-1.2958,-247.169,939.135)">
        <path d="M138.139,707.493L146.289,707.493L139.044,703.761L139.991,705.966L138.139,707.493Z" style="stroke:black;stroke-width:0.72px;"/>
    </g>
    <g transform="matrix(-1.2958,0.314133,0.314133,1.2958,54.1054,-876.196)">
        <path d="M111.979,702.747L120.129,702.747L112.884,706.479L113.831,704.274L111.979,702.747Z" style="stroke:black;stroke-width:0.72px;"/>
    </g>
    <g transform="matrix(0,-1.33333,-1.33333,0,1180.2,362.12)">
        <path d="M203.55,697.14L218.31,697.14" style="fill:none;fill-rule:nonzero;stroke:black;stroke-width:0.72px;"/>
    </g>
    <g transform="matrix(1.15468,0.666702,0.666702,-1.15468,-467.444,748.768)">
        <path d="M192.346,709.5L212.264,709.5" style="fill:none;fill-rule:nonzero;stroke:black;stroke-width:0.72px;"/>
    </g>
    <g transform="matrix(1.15458,0.666876,0.666876,-1.15458,-465.906,750.302)">
        <path d="M192.328,706.59L208.922,706.59" style="fill:none;fill-rule:nonzero;stroke:black;stroke-width:0.72px;"/>
    </g>
    <g transform="matrix(1.15485,-0.666401,-0.666401,-1.15485,476.557,1008.37)">
        <path d="M179.977,710.81L194.663,710.81" style="fill:none;fill-rule:nonzero;stroke:black;stroke-width:0.72px;"/>
    </g>
    <g transform="matrix(1.15481,-0.666483,-0.666483,-1.15481,480.169,1028.73)">
        <path d="M209.963,708.13L224.407,708.13" style="fill:none;fill-rule:nonzero;stroke:black;stroke-width:0.72px;"/>
    </g>
    <g transform="matrix(1.15451,-0.666991,-0.666991,-1.15451,492.342,1086.23)">
        <path d="M294.954,702.965L309.366,702.965" style="fill:none;fill-rule:nonzero;stroke:black;stroke-width:0.72px;"/>
    </g>
    <g transform="matrix(1.15468,0.666702,0.666702,-1.15468,-448.82,693.027)">
        <path d="M277.336,704.34L297.254,704.34" style="fill:none;fill-rule:nonzero;stroke:black;stroke-width:0.72px;"/>
    </g>
    <g transform="matrix(1.15458,0.666876,0.666876,-1.15458,-450.554,691.266)">
        <path d="M280.678,707.25L297.272,707.25" style="fill:none;fill-rule:nonzero;stroke:black;stroke-width:0.72px;"/>
    </g>
    <g transform="matrix(0,-1.33333,-1.33333,0,1296.6,426.36)">
        <path d="M271.29,716.7L286.05,716.7" style="fill:none;fill-rule:nonzero;stroke:black;stroke-width:0.72px;"/>
    </g>
    <g transform="matrix(0,1.33333,1.33333,0,-558.561,-306.72)">
        <path d="M288.48,691.92L303.36,691.92" style="fill:none;fill-rule:nonzero;stroke:black;stroke-width:0.72px;"/>
    </g>
    <g transform="matrix(1.33333,0,0,1.33333,-30.5608,-866.08)">
        <path d="M335.28,703.68L378.48,703.68" style="fill:none;fill-rule:nonzero;stroke:black;stroke-width:0.72px;"/>
    </g>
    <g transform="matrix(1.33333,0,0,1.33333,-30.5608,-873.76)">
        <path d="M335.28,706.56L378.48,706.56" style="fill:none;fill-rule:nonzero;stroke:black;stroke-width:0.72px;"/>
    </g>
    <g transform="matrix(1.2958,0.314133,0.314133,-1.2958,-238.458,866.231)">
        <path d="M370.219,707.493L378.369,707.493L371.124,703.761L372.071,705.966L370.219,707.493Z" style="stroke:black;stroke-width:0.72px;"/>
    </g>
    <g transform="matrix(-1.2958,0.314133,0.314133,1.2958,640.297,-946.235)">
        <path d="M334.939,702.747L343.089,702.747L335.844,706.479L336.791,704.274L334.939,702.747Z" style="stroke:black;stroke-width:0.72px;"/>
    </g>
    <g transform="matrix(0,-1.33333,-1.33333,0,1489.64,684.36)">
        <path d="M440.43,692.34L455.19,692.34" style="fill:none;fill-rule:nonzero;stroke:black;stroke-width:0.72px;"/>
    </g>
    <g transform="matrix(0,-1.33333,-1.33333,0,1485.16,679.88)">
        <path d="M437.07,692.34L451.83,692.34" style="fill:none;fill-rule:nonzero;stroke:black;stroke-width:0.72px;"/>
    </g>
    <g transform="matrix(1.15468,0.666702,0.666702,-1.15468,-422.224,592.817)">
        <path d="M427.546,704.7L447.464,704.7" style="fill:none;fill-rule:nonzero;stroke:black;stroke-width:0.72px;"/>
    </g>
    <g transform="matrix(1.15468,-0.666702,-0.666702,-1.15468,514.344,1164.69)">
        <path d="M410.296,704.7L430.214,704.7" style="fill:none;fill-rule:nonzero;stroke:black;stroke-width:0.72px;"/>
    </g>
    <g transform="matrix(-0.150788,1.32478,1.32478,0.150788,-336.85,-562.435)">
        <path d="M404.297,691.505L419.153,691.505L418.773,694.844L404.297,691.505Z" style="stroke:black;stroke-width:0.24px;"/>
    </g>
    <g transform="matrix(0.149587,-1.32492,-1.32492,-0.149587,1427.25,729.742)">
        <path d="M421.487,716.285L436.462,716.285L436.085,719.624L421.487,716.285Z" style="stroke:black;stroke-width:0.24px;"/>
    </g>
    <g transform="matrix(1.15481,-0.666483,-0.666483,-1.15481,518.96,1186.34)">
        <path d="M445.163,703.33L459.607,703.33" style="fill:none;fill-rule:nonzero;stroke:black;stroke-width:0.72px;"/>
    </g>
    <g transform="matrix(-1.15475,-0.666584,-0.666584,1.15475,1446.62,-469.58)">
        <path d="M397.894,703.4L412.616,703.4" style="fill:none;fill-rule:nonzero;stroke:black;stroke-width:0.72px;"/>
    </g>
    <g transform="matrix(1.33333,0,0,1.33333,-30.5608,-948)">
        <path d="M347.28,734.4L362.64,734.4" style="fill:none;fill-rule:nonzero;stroke:black;stroke-width:0.72px;"/>
    </g>
    <g transform="matrix(0.666796,1.15463,1.15463,-0.666796,-627.568,102.18)">
        <path d="M359.176,728.4L373.034,728.4" style="fill:none;fill-rule:nonzero;stroke:black;stroke-width:0.72px;"/>
    </g>
    <g transform="matrix(0.667127,-1.15443,-1.15443,-0.667127,1068.73,942.022)">
        <path d="M360.385,739.98L375.215,739.98" style="fill:none;fill-rule:nonzero;stroke:black;stroke-width:0.72px;"/>
    </g>
    <g transform="matrix(0.666267,-1.15493,-1.15493,-0.666267,1068.19,937.091)">
        <path d="M357.941,740.865L370.929,740.865" style="fill:none;fill-rule:nonzero;stroke:black;stroke-width:0.72px;"/>
    </g>
    <g transform="matrix(-1.15475,-0.666584,-0.666584,1.15475,1733.8,-418.723)">
        <path d="M510.694,713.18L525.416,713.18" style="fill:none;fill-rule:nonzero;stroke:black;stroke-width:0.72px;"/>
    </g>
    <g transform="matrix(-1.15468,0.666702,0.666702,1.15468,819.342,-1122.62)">
        <path d="M523.096,714.48L543.014,714.48" style="fill:none;fill-rule:nonzero;stroke:black;stroke-width:0.72px;"/>
    </g>
    <g transform="matrix(-1.15468,-0.666702,-0.666702,1.15468,1814.95,-400.346)">
        <path d="M540.346,714.48L560.264,714.48" style="fill:none;fill-rule:nonzero;stroke:black;stroke-width:0.72px;"/>
    </g>
    <g transform="matrix(-1.15481,0.666483,0.666483,1.15481,900.423,-1140.6)">
        <path d="M557.963,713.11L572.407,713.11" style="fill:none;fill-rule:nonzero;stroke:black;stroke-width:0.72px;"/>
    </g>
    <g transform="matrix(0,1.33333,1.33333,0,-223.761,-668.8)">
        <path d="M549.9,702.15L564.6,702.15" style="fill:none;fill-rule:nonzero;stroke:black;stroke-width:0.72px;"/>
    </g>
    <g transform="matrix(0,1.33333,1.33333,0,-219.281,-673.28)">
        <path d="M553.26,702.15L567.96,702.15" style="fill:none;fill-rule:nonzero;stroke:black;stroke-width:0.72px;"/>
    </g>
</svg>
