<?xml version="1.0" encoding="UTF-8" standalone="no"?>
<!DOCTYPE svg PUBLIC "-//W3C//DTD SVG 1.1//EN" "http://www.w3.org/Graphics/SVG/1.1/DTD/svg11.dtd">
<svg width="100%" height="100%" viewBox="0 0 700 385" version="1.1" xmlns="http://www.w3.org/2000/svg" xmlns:xlink="http://www.w3.org/1999/xlink" xml:space="preserve" xmlns:serif="http://www.serif.com/" style="fill-rule:evenodd;clip-rule:evenodd;stroke-linecap:round;stroke-linejoin:round;stroke-miterlimit:10;">
    <g transform="matrix(1.33333,0,0,1.33333,-52.5672,-77.52)">
        <text x="86.4px" y="160.8px" style="font-family:'ArialMT', 'Arial', sans-serif;font-size:10px;">O</text>
    </g>
    <g transform="matrix(1.33333,0,0,1.33333,-52.5672,-77.52)">
        <text x="52.32px" y="140.88px" style="font-family:'ArialMT', 'Arial', sans-serif;font-size:10px;">C</text>
    </g>
    <g transform="matrix(1.33333,0,0,1.33333,-52.5672,-77.52)">
        <text x="40.8px" y="140.88px" style="font-family:'ArialMT', 'Arial', sans-serif;font-size:10px;">H</text>
        <text x="48px" y="143.52px" style="font-family:'ArialMT', 'Arial', sans-serif;font-size:8px;">3</text>
    </g>
    <g transform="matrix(1.33333,0,0,1.33333,-52.5672,-77.52)">
        <text x="103.92px" y="130.8px" style="font-family:'ArialMT', 'Arial', sans-serif;font-size:10px;">R</text>
        <text x="111.36px" y="123.84px" style="font-family:'ArialMT', 'Arial', sans-serif;font-size:8px;">1</text>
    </g>
    <g transform="matrix(1.33333,0,0,1.33333,-52.5672,-77.52)">
        <text x="187.2px" y="113.28px" style="font-family:'ArialMT', 'Arial', sans-serif;font-size:10px;">B</text>
    </g>
    <g transform="matrix(1.33333,0,0,1.33333,-52.5672,-77.52)">
        <text x="206.16px" y="117.6px" style="font-family:'ArialMT', 'Arial', sans-serif;font-size:10px;">O<tspan x="214.075px 220.32px " y="117.6px 117.6px ">Tf</tspan></text>
    </g>
    <g transform="matrix(1.33333,0,0,1.33333,-52.5672,-77.52)">
        <text x="176.16px" y="166.08px" style="font-family:'ArialMT', 'Arial', sans-serif;font-size:10px;">N</text>
    </g>
    <g transform="matrix(1.33333,0,0,1.33333,-52.5672,-77.52)">
        <text x="205.92px" y="183.12px" style="font-family:'ArialMT', 'Arial', sans-serif;font-size:10px;">CH</text>
        <text x="220.32px" y="185.76px" style="font-family:'ArialMT', 'Arial', sans-serif;font-size:8px;">3</text>
    </g>
    <g transform="matrix(1.33333,0,0,1.33333,-52.5672,-77.52)">
        <text x="205.92px" y="148.8px" style="font-family:'ArialMT', 'Arial', sans-serif;font-size:10px;">CH</text>
        <text x="220.32px" y="151.44px" style="font-family:'ArialMT', 'Arial', sans-serif;font-size:8px;">3</text>
    </g>
    <g transform="matrix(1.33333,0,0,1.33333,-52.5672,-77.52)">
        <text x="146.16px" y="148.8px" style="font-family:'ArialMT', 'Arial', sans-serif;font-size:10px;">C</text>
    </g>
    <g transform="matrix(1.33333,0,0,1.33333,-52.5672,-77.52)">
        <text x="134.64px" y="148.8px" style="font-family:'ArialMT', 'Arial', sans-serif;font-size:10px;">H</text>
        <text x="141.84px" y="151.44px" style="font-family:'ArialMT', 'Arial', sans-serif;font-size:8px;">3</text>
    </g>
    <g transform="matrix(1.33333,0,0,1.33333,-52.5672,-77.52)">
        <text x="146.16px" y="183.12px" style="font-family:'ArialMT', 'Arial', sans-serif;font-size:10px;">C</text>
    </g>
    <g transform="matrix(1.33333,0,0,1.33333,-52.5672,-77.52)">
        <text x="134.64px" y="183.12px" style="font-family:'ArialMT', 'Arial', sans-serif;font-size:10px;">H</text>
        <text x="141.84px" y="185.76px" style="font-family:'ArialMT', 'Arial', sans-serif;font-size:8px;">3</text>
    </g>
    <g transform="matrix(1.33333,0,0,1.33333,-52.5672,-77.52)">
        <text x="193.2px" y="195.84px" style="font-family:'ArialMT', 'Arial', sans-serif;font-size:10px;">CH</text>
        <text x="207.6px" y="198.48px" style="font-family:'ArialMT', 'Arial', sans-serif;font-size:8px;">3</text>
    </g>
    <g transform="matrix(1.33333,0,0,1.33333,-52.5672,-77.52)">
        <text x="302.4px" y="160.56px" style="font-family:'ArialMT', 'Arial', sans-serif;font-size:10px;">O</text>
    </g>
    <g transform="matrix(1.33333,0,0,1.33333,-52.5672,-77.52)">
        <text x="268.32px" y="140.64px" style="font-family:'ArialMT', 'Arial', sans-serif;font-size:10px;">C</text>
    </g>
    <g transform="matrix(1.33333,0,0,1.33333,-52.5672,-77.52)">
        <text x="256.8px" y="140.64px" style="font-family:'ArialMT', 'Arial', sans-serif;font-size:10px;">H</text>
        <text x="264px" y="143.28px" style="font-family:'ArialMT', 'Arial', sans-serif;font-size:8px;">3</text>
    </g>
    <g transform="matrix(1.33333,0,0,1.33333,-52.5672,-77.52)">
        <text x="319.92px" y="130.56px" style="font-family:'ArialMT', 'Arial', sans-serif;font-size:10px;">R</text>
        <text x="327.36px" y="123.6px" style="font-family:'ArialMT', 'Arial', sans-serif;font-size:8px;">1</text>
    </g>
    <g transform="matrix(1.33333,0,0,1.33333,-52.5672,-77.52)">
        <text x="320.16px" y="170.64px" style="font-family:'ArialMT', 'Arial', sans-serif;font-size:10px;">B</text>
    </g>
    <g transform="matrix(1.33333,0,0,1.33333,-52.5672,-77.52)">
        <text x="360px" y="125.28px" style="font-family:'ArialMT', 'Arial', sans-serif;font-size:10px;">R</text>
    </g>
    <g transform="matrix(1.33333,0,0,1.33333,-52.5672,-77.52)">
        <text x="394.56px" y="125.52px" style="font-family:'ArialMT', 'Arial', sans-serif;font-size:10px;">H</text>
    </g>
    <g transform="matrix(1.33333,0,0,1.33333,-52.5672,-77.52)">
        <text x="377.04px" y="95.52px" style="font-family:'ArialMT', 'Arial', sans-serif;font-size:10px;">O</text>
    </g>
    <g transform="matrix(1.33333,0,0,1.33333,-52.5672,-77.52)">
        <text x="452.4px" y="140.64px" style="font-family:'ArialMT', 'Arial', sans-serif;font-size:10px;">C</text>
    </g>
    <g transform="matrix(1.33333,0,0,1.33333,-52.5672,-77.52)">
        <text x="445.2px" y="140.64px" style="font-family:'ArialMT', 'Arial', sans-serif;font-size:10px;">H</text>
    </g>
    <g transform="matrix(1.33333,0,0,1.33333,-52.5672,-77.52)">
        <text x="442.32px" y="123.36px" style="font-family:'ArialMT', 'Arial', sans-serif;font-size:10px;">C</text>
    </g>
    <g transform="matrix(1.33333,0,0,1.33333,-52.5672,-77.52)">
        <text x="430.8px" y="123.36px" style="font-family:'ArialMT', 'Arial', sans-serif;font-size:10px;">H</text>
        <text x="438px" y="126px" style="font-family:'ArialMT', 'Arial', sans-serif;font-size:8px;">3</text>
    </g>
    <g transform="matrix(1.33333,0,0,1.33333,-52.5672,-77.52)">
        <text x="482.16px" y="157.68px" style="font-family:'ArialMT', 'Arial', sans-serif;font-size:10px;">R</text>
        <text x="489.6px" y="150.72px" style="font-family:'ArialMT', 'Arial', sans-serif;font-size:8px;">1</text>
    </g>
    <g transform="matrix(1.33333,0,0,1.33333,-52.5672,-77.52)">
        <text x="481.92px" y="123.36px" style="font-family:'ArialMT', 'Arial', sans-serif;font-size:10px;">O	<tspan x="502.32px " y="123.36px ">B</tspan></text>
    </g>
    <g transform="matrix(1.33333,0,0,1.33333,-52.5672,-77.52)">
        <text x="443.28px" y="84.24px" style="font-family:'ArialMT', 'Arial', sans-serif;font-size:10px;">H	<tspan x="463.2px " y="84.24px ">C</tspan></text>
    </g>
    <g transform="matrix(1.33333,0,0,1.33333,-52.5672,-77.52)">
        <text x="472.8px" y="101.52px" style="font-family:'ArialMT', 'Arial', sans-serif;font-size:10px;">O</text>
    </g>
    <g transform="matrix(1.33333,0,0,1.33333,-52.5672,-77.52)">
        <text x="473.28px" y="66.96px" style="font-family:'ArialMT', 'Arial', sans-serif;font-size:10px;">R</text>
    </g>
    <g transform="matrix(1.33333,0,0,1.33333,-52.5672,-77.52)">
        <text x="378.96px" y="269.52px" style="font-family:'ArialMT', 'Arial', sans-serif;font-size:10px;">Mo</text>
    </g>
    <g transform="matrix(1.33333,0,0,1.33333,-52.5672,-77.52)">
        <text x="396px" y="286.56px" style="font-family:'ArialMT', 'Arial', sans-serif;font-size:10px;">O</text>
    </g>
    <g transform="matrix(1.33333,0,0,1.33333,-52.5672,-77.52)">
        <text x="406.08px" y="269.52px" style="font-family:'ArialMT', 'Arial', sans-serif;font-size:10px;">O</text>
    </g>
    <g transform="matrix(1.33333,0,0,1.33333,-52.5672,-77.52)">
        <text x="366px" y="269.52px" style="font-family:'ArialMT', 'Arial', sans-serif;font-size:10px;">O</text>
    </g>
    <g transform="matrix(1.33333,0,0,1.33333,-52.5672,-77.52)">
        <text x="376.08px" y="252.24px" style="font-family:'ArialMT', 'Arial', sans-serif;font-size:10px;">O	<tspan x="396px " y="252.24px ">O</tspan></text>
    </g>
    <g transform="matrix(1.33333,0,0,1.33333,-52.5672,-77.52)">
        <text x="246.48px" y="289.92px" style="font-family:'ArialMT', 'Arial', sans-serif;font-size:10px;">R</text>
    </g>
    <g transform="matrix(1.33333,0,0,1.33333,-52.5672,-77.52)">
        <text x="315.36px" y="289.92px" style="font-family:'ArialMT', 'Arial', sans-serif;font-size:10px;">R</text>
        <text x="322.8px" y="282.96px" style="font-family:'ArialMT', 'Arial', sans-serif;font-size:8px;">1</text>
    </g>
    <g transform="matrix(1.33333,0,0,1.33333,-52.5672,-77.52)">
        <text x="263.52px" y="319.68px" style="font-family:'ArialMT', 'Arial', sans-serif;font-size:10px;">O<tspan x="271.44px " y="319.68px ">H</tspan></text>
    </g>
    <g transform="matrix(1.33333,0,0,1.33333,-52.5672,-77.52)">
        <text x="297.84px" y="319.68px" style="font-family:'ArialMT', 'Arial', sans-serif;font-size:10px;">O</text>
    </g>
    <g transform="matrix(1.33333,0,0,1.33333,-52.5672,-77.52)">
        <text x="280.8px" y="270px" style="font-family:'ArialMT', 'Arial', sans-serif;font-size:10px;">CH</text>
        <text x="295.2px" y="272.64px" style="font-family:'ArialMT', 'Arial', sans-serif;font-size:8px;">3</text>
    </g>
    <g transform="matrix(1.33333,0,0,1.33333,-52.5672,-77.52)">
        <text x="514.32px" y="316.8px" style="font-family:'ArialMT', 'Arial', sans-serif;font-size:10px;">B</text>
    </g>
    <g transform="matrix(1.33333,0,0,1.33333,-52.5672,-77.52)">
        <text x="481.68px" y="295.44px" style="font-family:'ArialMT', 'Arial', sans-serif;font-size:10px;">O</text>
    </g>
    <g transform="matrix(1.33333,0,0,1.33333,-52.5672,-77.52)">
        <text x="460.08px" y="262.56px" style="font-family:'ArialMT', 'Arial', sans-serif;font-size:10px;">C</text>
    </g>
    <g transform="matrix(1.33333,0,0,1.33333,-52.5672,-77.52)">
        <text x="448.56px" y="262.56px" style="font-family:'ArialMT', 'Arial', sans-serif;font-size:10px;">H</text>
        <text x="455.76px" y="265.2px" style="font-family:'ArialMT', 'Arial', sans-serif;font-size:8px;">3</text>
    </g>
    <g transform="matrix(1.33333,0,0,1.33333,-52.5672,-77.52)">
        <text x="519.12px" y="282.72px" style="font-family:'ArialMT', 'Arial', sans-serif;font-size:10px;">O</text>
    </g>
    <g transform="matrix(1.33333,0,0,1.33333,-52.5672,-77.52)">
        <text x="447.6px" y="312.48px" style="font-family:'ArialMT', 'Arial', sans-serif;font-size:10px;">H</text>
    </g>
    <g transform="matrix(1.33333,0,0,1.33333,-52.5672,-77.52)">
        <text x="445.92px" y="288.24px" style="font-family:'ArialMT', 'Arial', sans-serif;font-size:10px;">R</text>
    </g>
    <g transform="matrix(1.33333,0,0,1.33333,-52.5672,-77.52)">
        <text x="501.6px" y="334.08px" style="font-family:'ArialMT', 'Arial', sans-serif;font-size:10px;">R</text>
        <text x="509.04px" y="327.12px" style="font-family:'ArialMT', 'Arial', sans-serif;font-size:8px;">1</text>
    </g>
    <g transform="matrix(0,-1.33333,-1.33333,0,1000.43,237.72)">
        <path d="M84.75,697.62L99.51,697.62" style="fill:none;fill-rule:nonzero;stroke:black;stroke-width:0.72px;"/>
    </g>
    <g transform="matrix(0,-1.33333,-1.33333,0,995.953,233.24)">
        <path d="M81.39,697.62L96.15,697.62" style="fill:none;fill-rule:nonzero;stroke:black;stroke-width:0.72px;"/>
    </g>
    <g transform="matrix(1.15468,0.666702,0.666702,-1.15468,-511.294,863.647)">
        <path d="M71.866,709.98L91.784,709.98" style="fill:none;fill-rule:nonzero;stroke:black;stroke-width:0.72px;"/>
    </g>
    <g transform="matrix(1.15485,-0.666401,-0.666401,-1.15485,433.367,962.631)">
        <path d="M59.497,711.29L74.183,711.29" style="fill:none;fill-rule:nonzero;stroke:black;stroke-width:0.72px;"/>
    </g>
    <g transform="matrix(1.15481,-0.666483,-0.666483,-1.15481,436.974,982.986)">
        <path d="M89.483,708.61L103.927,708.61" style="fill:none;fill-rule:nonzero;stroke:black;stroke-width:0.72px;"/>
    </g>
    <g transform="matrix(1.33333,0,0,1.33333,-52.5672,-848.08)">
        <path d="M125.04,709.92L241.2,709.92" style="fill:none;fill-rule:nonzero;stroke:black;stroke-width:0.72px;"/>
    </g>
    <g transform="matrix(1.2958,0.314133,0.314133,-1.2958,-266.672,943.869)">
        <path d="M232.939,710.853L241.089,710.853L233.844,707.121L234.791,709.326L232.939,710.853Z" style="stroke:black;stroke-width:0.72px;"/>
    </g>
    <g transform="matrix(-0.297808,1.29965,1.29965,0.297808,-775.944,-358.46)">
        <path d="M138.123,742.45L158.047,742.45" style="fill:none;fill-rule:nonzero;stroke:black;stroke-width:0.72px;"/>
    </g>
    <g transform="matrix(-0.829985,-1.04351,-1.04351,0.829985,1032.87,-364.571)">
        <path d="M142.1,724.945L162.02,724.945" style="fill:none;fill-rule:nonzero;stroke:black;stroke-width:0.72px;"/>
    </g>
    <g transform="matrix(-1.20205,0.576931,0.576931,1.20205,-85.1369,-964.802)">
        <path d="M149.329,756.47L169.251,756.47" style="fill:none;fill-rule:nonzero;stroke:black;stroke-width:0.72px;"/>
    </g>
    <g transform="matrix(1.20187,-0.57731,-0.57731,-1.20187,387.975,1049.32)">
        <path d="M156.73,723.87L187.77,723.87" style="fill:none;fill-rule:nonzero;stroke:black;stroke-width:0.72px;"/>
    </g>
    <g transform="matrix(0.830271,1.04328,1.04328,-0.830271,-745.005,483.002)">
        <path d="M162.72,749.27L192.14,749.27" style="fill:none;fill-rule:nonzero;stroke:black;stroke-width:0.72px;"/>
    </g>
    <g transform="matrix(1.29978,0.297237,0.297237,-1.29978,-262.998,961.069)">
        <path d="M194.747,730.54L205.333,730.54" style="fill:none;fill-rule:nonzero;stroke:black;stroke-width:0.72px;"/>
    </g>
    <g transform="matrix(0.298159,-1.29957,-1.29957,-0.298159,1076.78,492.257)">
        <path d="M140.883,738.965L185.647,738.965" style="fill:none;fill-rule:nonzero;stroke:black;stroke-width:0.72px;"/>
    </g>
    <g transform="matrix(1.33333,0,0,1.33333,-52.5672,-768.08)">
        <path d="M184.32,679.92L199.68,679.92" style="fill:none;fill-rule:nonzero;stroke:black;stroke-width:0.72px;"/>
    </g>
    <g transform="matrix(-1.33333,0,0,1.33333,394.153,-768.08)">
        <path d="M159.84,679.92L175.2,679.92" style="fill:none;fill-rule:nonzero;stroke:black;stroke-width:0.72px;"/>
    </g>
    <g transform="matrix(0.666796,1.15463,1.15463,-0.666796,-695.289,361.291)">
        <path d="M196.216,673.92L210.074,673.92" style="fill:none;fill-rule:nonzero;stroke:black;stroke-width:0.72px;"/>
    </g>
    <g transform="matrix(0.666796,-1.15463,-1.15463,-0.666796,874.817,822.405)">
        <path d="M196.216,685.92L210.074,685.92" style="fill:none;fill-rule:nonzero;stroke:black;stroke-width:0.72px;"/>
    </g>
    <g transform="matrix(-0.666796,-1.15463,-1.15463,0.666796,1052.18,-146.334)">
        <path d="M149.446,685.92L163.304,685.92" style="fill:none;fill-rule:nonzero;stroke:black;stroke-width:0.72px;"/>
    </g>
    <g transform="matrix(-0.666796,1.15463,1.15463,0.666796,-517.922,-483.442)">
        <path d="M149.446,673.92L163.304,673.92" style="fill:none;fill-rule:nonzero;stroke:black;stroke-width:0.72px;"/>
    </g>
    <g transform="matrix(0,1.33333,1.33333,0,-702.647,-84.4)">
        <path d="M172.44,667.32L187.08,667.32" style="fill:none;fill-rule:nonzero;stroke:black;stroke-width:0.72px;"/>
    </g>
    <g transform="matrix(1.15451,0.666991,0.666991,-1.15451,-457.116,803.603)">
        <path d="M178.794,656.395L193.206,656.395" style="fill:none;fill-rule:nonzero;stroke:black;stroke-width:0.72px;"/>
    </g>
    <g transform="matrix(0,-1.33333,-1.33333,0,1286.51,523.16)">
        <path d="M299.07,697.86L313.83,697.86" style="fill:none;fill-rule:nonzero;stroke:black;stroke-width:0.72px;"/>
    </g>
    <g transform="matrix(1.15468,0.666702,0.666702,-1.15468,-472.865,719.596)">
        <path d="M287.866,710.22L307.784,710.22" style="fill:none;fill-rule:nonzero;stroke:black;stroke-width:0.72px;"/>
    </g>
    <g transform="matrix(1.15458,0.666876,0.666876,-1.15458,-471.318,721.114)">
        <path d="M287.848,707.31L304.442,707.31" style="fill:none;fill-rule:nonzero;stroke:black;stroke-width:0.72px;"/>
    </g>
    <g transform="matrix(1.15485,-0.666401,-0.666401,-1.15485,472.079,1106.53)">
        <path d="M275.497,711.53L290.183,711.53" style="fill:none;fill-rule:nonzero;stroke:black;stroke-width:0.72px;"/>
    </g>
    <g transform="matrix(1.15481,-0.666483,-0.666483,-1.15481,475.696,1126.9)">
        <path d="M305.483,708.85L319.927,708.85" style="fill:none;fill-rule:nonzero;stroke:black;stroke-width:0.72px;"/>
    </g>
    <g transform="matrix(-0.487329,-1.24108,-1.24108,0.487329,1441.36,272.889)">
        <path d="M352.881,671.44L372.799,671.44" style="fill:none;fill-rule:nonzero;stroke:black;stroke-width:0.72px;"/>
    </g>
    <g transform="matrix(-1.31843,0.198769,0.198769,1.31843,738.826,-730.107)">
        <path d="M336.709,643.435L356.631,643.435" style="fill:none;fill-rule:nonzero;stroke:black;stroke-width:0.72px;"/>
    </g>
    <g transform="matrix(-0.666702,1.15468,1.15468,0.666702,-84.1897,-679.49)">
        <path d="M351.541,653.545L371.459,653.545" style="fill:none;fill-rule:nonzero;stroke:black;stroke-width:0.72px;"/>
    </g>
    <g transform="matrix(1.15487,0.666381,0.666381,-1.15487,-449.609,713.568)">
        <path d="M310.668,680.245L319.812,680.245" style="fill:none;fill-rule:nonzero;stroke:black;stroke-width:0.72px;"/>
    </g>
    <g transform="matrix(-1.31842,0.198856,0.198856,1.31842,723.47,-822.075)">
        <path d="M327.663,678.345L359.377,678.345" style="fill:none;fill-rule:nonzero;stroke:black;stroke-width:0.72px;"/>
    </g>
    <g transform="matrix(-0.487113,-1.24117,-1.24117,0.487113,1364.77,261.999)">
        <path d="M316.191,656.015L346.409,656.015" style="fill:none;fill-rule:nonzero;stroke:black;stroke-width:0.72px;"/>
    </g>
    <g transform="matrix(0.666709,-1.15468,-1.15468,-0.666709,943.047,1006.02)">
        <path d="M325.631,661.33L370.389,661.33" style="fill:none;fill-rule:nonzero;stroke:black;stroke-width:0.72px;"/>
    </g>
    <g transform="matrix(1.33333,0,0,1.33333,-52.5672,-850.64)">
        <path d="M348.96,710.88L418.08,710.88" style="fill:none;fill-rule:nonzero;stroke:black;stroke-width:0.72px;"/>
    </g>
    <g transform="matrix(1.2958,0.314133,0.314133,-1.2958,-260.335,888.269)">
        <path d="M409.819,711.813L417.969,711.813L410.724,708.081L411.671,710.286L409.819,711.813Z" style="stroke:black;stroke-width:0.72px;"/>
    </g>
    <g transform="matrix(1.15598,-0.664441,-0.664441,-1.15598,496.748,1165.01)">
        <path d="M367.18,726.76L381.91,726.76" style="fill:none;fill-rule:nonzero;stroke:black;stroke-width:0.72px;"/>
    </g>
    <g transform="matrix(1.15332,0.669053,0.669053,-1.15332,-469.092,655.113)">
        <path d="M379.941,726.755L394.589,726.755" style="fill:none;fill-rule:nonzero;stroke:black;stroke-width:0.72px;"/>
    </g>
    <g transform="matrix(0.00270819,-1.33333,-1.33333,-0.00270819,1440.31,573.45)">
        <path d="M375.24,737.815L390.01,737.815" style="fill:none;fill-rule:nonzero;stroke:black;stroke-width:0.72px;"/>
    </g>
    <g transform="matrix(0.00270819,-1.33333,-1.33333,-0.00270819,1435.84,568.97)">
        <path d="M371.88,737.815L386.65,737.815" style="fill:none;fill-rule:nonzero;stroke:black;stroke-width:0.72px;"/>
    </g>
    <g transform="matrix(1.33333,0,0,1.33333,-52.5672,-835.92)">
        <path d="M460.56,705.36L475.92,705.36" style="fill:none;fill-rule:nonzero;stroke:black;stroke-width:0.72px;"/>
    </g>
    <g transform="matrix(1.33333,0,0,1.33333,-52.5672,-844.88)">
        <path d="M460.56,708.72L474.26,708.72" style="fill:none;fill-rule:nonzero;stroke:black;stroke-width:0.72px;"/>
    </g>
    <g transform="matrix(-0.666871,-1.15458,-1.15458,0.666871,1673.92,137.943)">
        <path d="M447.061,713.88L455.099,713.88" style="fill:none;fill-rule:nonzero;stroke:black;stroke-width:0.72px;"/>
    </g>
    <g transform="matrix(0.666796,1.15463,1.15463,-0.666796,-540.538,25.3805)">
        <path d="M472.456,699.36L486.314,699.36" style="fill:none;fill-rule:nonzero;stroke:black;stroke-width:0.72px;"/>
    </g>
    <g transform="matrix(0.666796,-1.15463,-1.15463,-0.666796,1088.32,1124.4)">
        <path d="M472.456,711.36L486.314,711.36" style="fill:none;fill-rule:nonzero;stroke:black;stroke-width:0.72px;"/>
    </g>
    <g transform="matrix(-1.04259,-0.83113,-0.83113,1.04259,1848.38,-260.065)">
        <path d="M531.688,738.78L551.612,738.78" style="fill:none;fill-rule:nonzero;stroke:black;stroke-width:0.72px;"/>
    </g>
    <g transform="matrix(-1.04233,0.831456,0.831456,1.04233,646.85,-1083.59)">
        <path d="M531.697,706.44L551.613,706.44" style="fill:none;fill-rule:nonzero;stroke:black;stroke-width:0.72px;"/>
    </g>
    <g transform="matrix(0,1.33333,1.33333,0,-283.461,-651.027)">
        <path d="M539.48,722.61L559.4,722.61" style="fill:none;fill-rule:nonzero;stroke:black;stroke-width:0.72px;"/>
    </g>
    <g transform="matrix(1.33333,0,0,1.33333,-52.5672,-881.92)">
        <path d="M490.8,722.61L501.36,722.61" style="fill:none;fill-rule:nonzero;stroke:black;stroke-width:0.72px;"/>
    </g>
    <g transform="matrix(-1.04256,-0.831168,-0.831168,1.04256,1777.41,-207.425)">
        <path d="M506.671,709.745L537.199,709.745" style="fill:none;fill-rule:nonzero;stroke:black;stroke-width:0.72px;"/>
    </g>
    <g transform="matrix(-1.04239,0.831381,0.831381,1.04239,575.936,-1136.17)">
        <path d="M506.67,735.475L537.19,735.475" style="fill:none;fill-rule:nonzero;stroke:black;stroke-width:0.72px;"/>
    </g>
    <g transform="matrix(-0.000297885,-1.33333,-1.33333,0.000297885,1622.89,793.165)">
        <path d="M511.485,722.61L556.245,722.61" style="fill:none;fill-rule:nonzero;stroke:black;stroke-width:0.72px;"/>
    </g>
    <g transform="matrix(1.33331,0.00740729,0.00740729,-1.33331,-58.1998,1041.64)">
        <path d="M451.44,761.68L462.24,761.68" style="fill:none;fill-rule:nonzero;stroke:black;stroke-width:0.72px;"/>
    </g>
    <g transform="matrix(0.660622,1.15817,1.15817,-0.660622,-607.294,-7.91821)">
        <path d="M467.779,753L475.791,753" style="fill:none;fill-rule:nonzero;stroke:black;stroke-width:0.72px;"/>
    </g>
    <g transform="matrix(0.660676,1.15814,1.15814,-0.660676,-607.278,-3.36159)">
        <path d="M462.921,751.3L474.849,751.3" style="fill:none;fill-rule:nonzero;stroke:black;stroke-width:0.72px;"/>
    </g>
    <g transform="matrix(0.671828,-1.15171,-1.15171,-0.671828,1146.73,1078.99)">
        <path d="M467.871,770.28L475.929,770.28" style="fill:none;fill-rule:nonzero;stroke:black;stroke-width:0.72px;"/>
    </g>
    <g transform="matrix(-1.06797,-0.798262,-0.798262,1.06797,1713.07,-323.436)">
        <path d="M479.235,733.285L503.805,733.285" style="fill:none;fill-rule:nonzero;stroke:black;stroke-width:0.72px;stroke-dasharray:2.16,1.44;"/>
    </g>
    <g transform="matrix(-0.252576,1.30919,1.30919,0.252576,-281.018,-722.21)">
        <path d="M437.95,733.44L484.88,733.44" style="fill:none;fill-rule:nonzero;stroke:black;stroke-width:0.72px;stroke-dasharray:2.16,1.44;"/>
    </g>
    <g transform="matrix(1.33333,0,0,1.33333,-52.5672,-881.36)">
        <path d="M465.6,734.4L464.64,731.28L464.16,727.68L464.64,724.32L465.6,720.96L466.32,719.52L468.24,716.64L469.2,715.44L470.4,714.48L473.28,712.56L474.72,711.84L478.08,710.88L479.76,710.64L480.96,710.4L481.44,710.4L483.12,710.64L484.56,710.64L488.88,712.08L491.28,713.52L493.68,715.44L495.6,717.84L497.04,720.24L497.28,720.96" style="fill:none;fill-rule:nonzero;stroke:black;stroke-width:0.48px;"/>
    </g>
    <g transform="matrix(0.580748,1.20021,1.20021,-0.580748,-560.955,-49.4697)">
        <path d="M460.059,714.215L468.324,714.215L461.084,717.985L462.08,715.637L460.059,714.215Z" style="stroke:black;stroke-width:0.48px;"/>
    </g>
    <g transform="matrix(1.33333,0,0,1.33333,-52.5672,-890)">
        <path d="M467.28,750.96L463.44,752.88L461.28,753.6L459.36,754.08L457.2,754.56L455.04,754.8L450.24,754.8L448.08,754.56L445.92,754.08L443.52,753.36L441.6,752.64L439.44,751.68L437.52,750.72L435.84,749.52L433.92,748.08L432.48,746.64L430.8,745.2L429.36,743.52L426.96,739.68L426,737.76L425.28,735.84L424.56,733.68L424.08,731.28L423.6,729.12L423.36,726.72L423.36,725.76L423.84,720.96L424.8,716.64L425.52,714.48L426.48,712.56L428.88,708.72L430.08,707.04L431.52,705.36L434.88,702.48L436.56,701.28L438.48,700.08L440.4,699.12L442.56,698.16L444.72,697.44L446.88,696.96L449.28,696.72L451.44,696.48L452.64,696.48L456.24,696.72L459.6,697.2L462.72,698.16L465.84,699.6L467.28,700.32" style="fill:none;fill-rule:nonzero;stroke:black;stroke-width:0.48px;"/>
    </g>
    <g transform="matrix(1.03365,0.842231,0.842231,-1.03365,-548.457,429.075)">
        <path d="M459.672,754.131L468.031,754.131L460.643,750.279L461.898,752.539L459.672,754.131Z" style="stroke:black;stroke-width:0.48px;"/>
    </g>
    <g transform="matrix(1.33333,0,0,1.33333,-52.5672,-945.36)">
        <path d="M474.48,738.96L476.64,736.8L479.28,735.12L481.92,733.92L485.04,733.44L486.72,733.2L490.08,733.68L493.44,734.64L494.88,735.36L496.08,736.32L497.52,737.28L498.72,738.48L499.68,739.92L500.64,741.12L501.36,742.56L502.32,745.92L502.56,747.6L502.8,748.8L502.8,749.28L502.56,751.92L501.84,754.32L500.88,756.48L499.68,758.64L498.96,759.6" style="fill:none;fill-rule:nonzero;stroke:black;stroke-width:0.48px;"/>
    </g>
    <g transform="matrix(-0.870586,1.00988,1.00988,0.870586,308.784,-1087.58)">
        <path d="M498.093,738.267L507.282,738.267L498.832,734.468L500.362,736.737L498.093,738.267Z" style="stroke:black;stroke-width:0.48px;"/>
    </g>
    <g transform="matrix(0,1.33333,1.33333,0,-241.367,-461.52)">
        <path d="M459.12,635.76L529.2,635.76" style="fill:none;fill-rule:nonzero;stroke:black;stroke-width:0.72px;"/>
    </g>
    <g transform="matrix(-0.314133,1.2958,1.2958,0.314133,-21.9995,-591.483)">
        <path d="M489.859,605.613L498.009,605.613L490.764,601.881L491.711,604.086L489.859,605.613Z" style="stroke:black;stroke-width:0.72px;"/>
    </g>
    <g transform="matrix(0.666693,-1.15469,-1.15469,-0.666693,873.058,1134.07)">
        <path d="M401.06,567.84L408.82,567.84" style="fill:none;fill-rule:nonzero;stroke:black;stroke-width:0.72px;"/>
    </g>
    <g transform="matrix(1.33333,0,0,1.33333,-52.5672,-492.213)">
        <path d="M393.84,576.47L405.12,576.47" style="fill:none;fill-rule:nonzero;stroke:black;stroke-width:0.72px;"/>
    </g>
    <g transform="matrix(-0.666693,-1.15469,-1.15469,0.666693,1393.08,365.422)">
        <path d="M391.1,567.84L398.86,567.84" style="fill:none;fill-rule:nonzero;stroke:black;stroke-width:0.72px;"/>
    </g>
    <g transform="matrix(0.666871,1.15458,1.15458,-0.666871,-471.363,210.564)">
        <path d="M381.051,585L389.089,585" style="fill:none;fill-rule:nonzero;stroke:black;stroke-width:0.72px;"/>
    </g>
    <g transform="matrix(1.33333,0,0,1.33333,-52.5672,-492.213)">
        <path d="M374.88,576.47L378,576.47" style="fill:none;fill-rule:nonzero;stroke:black;stroke-width:0.72px;"/>
    </g>
    <g transform="matrix(0.666871,-1.15458,-1.15458,-0.666871,872.794,1088.14)">
        <path d="M370.991,585L379.029,585" style="fill:none;fill-rule:nonzero;stroke:black;stroke-width:0.72px;"/>
    </g>
    <g transform="matrix(0.667213,-1.15438,-1.15438,-0.667213,885.755,1113.5)">
        <path d="M391.324,584.12L401.396,584.12" style="fill:none;fill-rule:nonzero;stroke:black;stroke-width:0.72px;"/>
    </g>
    <g transform="matrix(0.666818,-1.15461,-1.15461,-0.666818,884.869,1108.88)">
        <path d="M388.951,585.035L397.069,585.035" style="fill:none;fill-rule:nonzero;stroke:black;stroke-width:0.72px;"/>
    </g>
    <g transform="matrix(-1.33333,0,0,1.33333,970.793,-425.68)">
        <path d="M339.84,551.52L427.68,551.52" style="fill:none;fill-rule:nonzero;stroke:black;stroke-width:0.72px;"/>
    </g>
    <g transform="matrix(-1.2958,-0.314133,-0.314133,1.2958,1024.58,-296.981)">
        <path d="M339.499,552.453L347.649,552.453L340.404,548.721L341.351,550.926L339.499,552.453Z" style="stroke:black;stroke-width:0.72px;"/>
    </g>
    <g transform="matrix(-1.15475,-0.666584,-0.666584,1.15475,963.307,-148.77)">
        <path d="M253.654,549.74L268.376,549.74" style="fill:none;fill-rule:nonzero;stroke:black;stroke-width:0.72px;"/>
    </g>
    <g transform="matrix(-1.15468,0.666702,0.666702,1.15468,266.782,-509.975)">
        <path d="M266.056,551.04L285.974,551.04" style="fill:none;fill-rule:nonzero;stroke:black;stroke-width:0.72px;"/>
    </g>
    <g transform="matrix(-1.15468,-0.666702,-0.666702,1.15468,1044.46,-130.434)">
        <path d="M283.306,551.04L303.224,551.04" style="fill:none;fill-rule:nonzero;stroke:black;stroke-width:0.72px;"/>
    </g>
    <g transform="matrix(-1.15481,0.666483,0.666483,1.15481,347.795,-527.989)">
        <path d="M300.923,549.67L315.367,549.67" style="fill:none;fill-rule:nonzero;stroke:black;stroke-width:0.72px;"/>
    </g>
    <g transform="matrix(-0.151395,1.32471,1.32471,0.151395,-369.2,-109.013)">
        <path d="M260.088,537.875L274.883,537.875L274.502,541.214L260.088,537.875Z" style="stroke:black;stroke-width:0.24px;"/>
    </g>
    <g transform="matrix(0,1.33333,1.33333,0,-370.567,-73.52)">
        <path d="M292.86,538.71L307.56,538.71" style="fill:none;fill-rule:nonzero;stroke:black;stroke-width:0.72px;"/>
    </g>
    <g transform="matrix(0,1.33333,1.33333,0,-366.087,-78)">
        <path d="M296.22,538.71L310.92,538.71" style="fill:none;fill-rule:nonzero;stroke:black;stroke-width:0.72px;"/>
    </g>
    <g transform="matrix(0.151395,-1.32471,-1.32471,-0.151395,1030.16,756.237)">
        <path d="M277.338,562.535L292.133,562.535L291.752,565.874L277.338,562.535Z" style="stroke:black;stroke-width:0.24px;"/>
    </g>
    <g transform="matrix(-0.721281,-1.1214,-1.1214,0.721281,1689.29,574.351)">
        <path d="M546.896,533.02L566.824,533.02" style="fill:none;fill-rule:nonzero;stroke:black;stroke-width:0.72px;"/>
    </g>
    <g transform="matrix(-1.25401,0.453024,0.453024,1.25401,1133.82,-502.381)">
        <path d="M536.537,502.385L556.463,502.385" style="fill:none;fill-rule:nonzero;stroke:black;stroke-width:0.72px;"/>
    </g>
    <g transform="matrix(-0.427055,1.26309,1.26309,0.427055,280.844,-568.065)">
        <path d="M549.1,515.205L569.02,515.205" style="fill:none;fill-rule:nonzero;stroke:black;stroke-width:0.72px;"/>
    </g>
    <g transform="matrix(-0.72101,-1.12157,-1.12157,0.72101,1608.07,587.771)">
        <path d="M514.307,511.46L543.933,511.46" style="fill:none;fill-rule:nonzero;stroke:black;stroke-width:0.72px;"/>
    </g>
    <g transform="matrix(-1.25383,0.453539,0.453539,1.25383,1092.92,-585.289)">
        <path d="M521.066,536.07L552.404,536.07" style="fill:none;fill-rule:nonzero;stroke:black;stroke-width:0.72px;"/>
    </g>
    <g transform="matrix(0.427174,-1.26305,-1.26305,-0.427174,1097.7,1261.13)">
        <path d="M521.92,520.2L566.68,520.2" style="fill:none;fill-rule:nonzero;stroke:black;stroke-width:0.72px;"/>
    </g>
    <g transform="matrix(0.427656,-1.26289,-1.26289,-0.427656,1074.77,1134.17)">
        <path d="M459.394,556.065L479.316,556.065" style="fill:none;fill-rule:nonzero;stroke:black;stroke-width:0.72px;"/>
    </g>
    <g transform="matrix(1.30748,-0.261315,-0.261315,-1.30748,102.898,1154.58)">
        <path d="M466.016,548.085L480.864,548.085" style="fill:none;fill-rule:nonzero;stroke:black;stroke-width:0.72px;"/>
    </g>
    <g transform="matrix(1.26297,0.42743,0.42743,-1.26297,-257.513,796.67)">
        <path d="M471.64,559.97L506.14,559.97" style="fill:none;fill-rule:nonzero;stroke:black;stroke-width:0.72px;"/>
    </g>
    <g transform="matrix(-0.590992,-1.1952,-1.1952,0.590992,1534.2,505.704)">
        <path d="M462.358,571.83L476.482,571.83" style="fill:none;fill-rule:nonzero;stroke:black;stroke-width:0.72px;"/>
    </g>
    <g transform="matrix(1.1953,-0.590783,-0.590783,-1.1953,346.559,1270.83)">
        <path d="M505.277,555.95L518.863,555.95" style="fill:none;fill-rule:nonzero;stroke:black;stroke-width:0.72px;"/>
    </g>
    <g transform="matrix(1.19518,-0.591033,-0.591033,-1.19518,348.656,1269.98)">
        <path d="M503.7,559.33L518.95,559.33" style="fill:none;fill-rule:nonzero;stroke:black;stroke-width:0.72px;"/>
    </g>
    <g transform="matrix(-1.00152,0.880186,0.880186,1.00152,546.595,-626.323)">
        <path d="M454.037,542.06L467.883,542.06" style="fill:none;fill-rule:nonzero;stroke:black;stroke-width:0.72px;"/>
    </g>
    <g transform="matrix(-1.10912,-0.740024,-0.740024,1.10912,1478.76,40.5797)">
        <path d="M452.859,550.66L467.381,550.66" style="fill:none;fill-rule:nonzero;stroke:black;stroke-width:0.72px;"/>
    </g>
    <g transform="matrix(-1.1094,-0.7396,-0.7396,1.1094,1572.74,97.9708)">
        <path d="M488.259,539.69L515.661,539.69" style="fill:none;fill-rule:nonzero;stroke:black;stroke-width:0.72px;"/>
    </g>
    <g transform="matrix(1.33333,0,0,1.33333,-52.5672,-388.24)">
        <path d="M503.52,538.32L503.52,534.24L506.88,536.64L506.88,540.72" style="fill:white;"/>
    </g>
    <g transform="matrix(0.00391318,1.33333,1.33333,-0.00391318,-95.0947,-340.841)">
        <path d="M486.545,535.7L524.025,535.7" style="fill:none;fill-rule:nonzero;stroke:black;stroke-width:0.72px;"/>
    </g>
</svg>
