<?xml version="1.0" encoding="UTF-8" standalone="no"?>
<!DOCTYPE svg PUBLIC "-//W3C//DTD SVG 1.1//EN" "http://www.w3.org/Graphics/SVG/1.1/DTD/svg11.dtd">
<svg width="100%" height="100%" viewBox="0 0 615 290" version="1.1" xmlns="http://www.w3.org/2000/svg" xmlns:xlink="http://www.w3.org/1999/xlink" xml:space="preserve" xmlns:serif="http://www.serif.com/" style="fill-rule:evenodd;clip-rule:evenodd;stroke-linecap:round;stroke-linejoin:round;stroke-miterlimit:10;">
    <g transform="matrix(1.33333,0,0,1.33333,-47.9773,-101.748)">
        <text x="51.84px" y="115.92px" style="font-family:'ArialMT', 'Arial', sans-serif;font-size:10px;">R</text>
    </g>
    <g transform="matrix(1.33333,0,0,1.33333,-47.9773,-101.748)">
        <text x="117.12px" y="103.44px" style="font-family:'ArialMT', 'Arial', sans-serif;font-size:10px;">O<tspan x="125.04px " y="103.44px ">H</tspan></text>
    </g>
    <g transform="matrix(1.33333,0,0,1.33333,-47.9773,-101.748)">
        <text x="223.2px" y="86.16px" style="font-family:'ArialMT', 'Arial', sans-serif;font-size:10px;">R</text>
    </g>
    <g transform="matrix(1.33333,0,0,1.33333,-47.9773,-101.748)">
        <text x="259.68px" y="122.4px" style="font-family:'ArialMT', 'Arial', sans-serif;font-size:10px;">B</text>
    </g>
    <g transform="matrix(1.33333,0,0,1.33333,-47.9773,-101.748)">
        <text x="192px" y="117.6px" style="font-family:'ArialMT', 'Arial', sans-serif;font-size:10px;">H</text>
    </g>
    <g transform="matrix(1.33333,0,0,1.33333,-47.9773,-101.748)">
        <text x="415.68px" y="113.76px" style="font-family:'ArialMT', 'Arial', sans-serif;font-size:18px;">+</text>
        <text x="439.68px" y="113.52px" style="font-family:'ArialMT', 'Arial', sans-serif;font-size:10px;">HB</text>
    </g>
    <g transform="matrix(1.33333,0,0,1.33333,-47.9773,-101.748)">
        <text x="361.2px" y="103.2px" style="font-family:'ArialMT', 'Arial', sans-serif;font-size:10px;">R</text>
    </g>
    <g transform="matrix(1.33333,0,0,1.33333,-47.9773,-101.748)">
        <text x="391.2px" y="120.48px" style="font-family:'ArialMT', 'Arial', sans-serif;font-size:10px;">CH</text>
        <text x="405.6px" y="123.12px" style="font-family:'ArialMT', 'Arial', sans-serif;font-size:8px;">2</text>
    </g>
    <g transform="matrix(1.33333,0,0,1.33333,-47.9773,-101.748)">
        <text x="45.6px" y="178.32px" style="font-family:'ArialMT', 'Arial', sans-serif;font-size:10px;">R</text>
    </g>
    <g transform="matrix(1.33333,0,0,1.33333,-47.9773,-101.748)">
        <text x="79.92px" y="178.32px" style="font-family:'ArialMT', 'Arial', sans-serif;font-size:10px;">CH</text>
        <text x="94.34px" y="180.96px" style="font-family:'ArialMT', 'Arial', sans-serif;font-size:8px;">2</text>
        <text x="108.48px" y="184.08px" style="font-family:'ArialMT', 'Arial', sans-serif;font-size:18px;"><tspan x="108.48px " y="184.08px ">+</tspan></text>
        <text x="129.36px" y="186.24px" style="font-family:'ArialMT', 'Arial', sans-serif;font-size:10px;">HB</text>
    </g>
    <g transform="matrix(1.33333,0,0,1.33333,-47.9773,-101.748)">
        <text x="235.44px" y="179.04px" style="font-family:'ArialMT', 'Arial', sans-serif;font-size:10px;">R</text>
    </g>
    <g transform="matrix(1.33333,0,0,1.33333,-47.9773,-101.748)">
        <text x="303.36px" y="184.08px" style="font-family:'ArialMT', 'Arial', sans-serif;font-size:10px;">B</text>
    </g>
    <g transform="matrix(1.33333,0,0,1.33333,-47.9773,-101.748)">
        <text x="359.28px" y="172.32px" style="font-family:'ArialMT', 'Arial', sans-serif;font-size:10px;">H</text>
        <text x="366.48px" y="172.32px" style="font-family:'ArialMT', 'Arial', sans-serif;font-size:10px;">O<tspan x="374.4px 382.32px " y="172.32px 172.32px ">OH</tspan></text>
    </g>
    <g transform="matrix(1.33333,0,0,1.33333,-47.9773,-101.748)">
        <text x="360px" y="194.64px" style="font-family:'ArialMT', 'Arial', sans-serif;font-size:10px;">Na</text>
        <text x="372.72px" y="194.64px" style="font-family:'ArialMT', 'Arial', sans-serif;font-size:10px;">O<tspan x="380.64px " y="194.64px ">H</tspan></text>
    </g>
    <g transform="matrix(1.33333,0,0,1.33333,-47.9773,-101.748)">
        <text x="86.16px" y="253.92px" style="font-family:'ArialMT', 'Arial', sans-serif;font-size:10px;">R</text>
    </g>
    <g transform="matrix(1.33333,0,0,1.33333,-47.9773,-101.748)">
        <text x="153.84px" y="258.72px" style="font-family:'ArialMT', 'Arial', sans-serif;font-size:10px;">B</text>
        <text x="160.56px" y="251.76px" style="font-family:'ArialMT', 'Arial', sans-serif;font-size:8px;">–</text>
    </g>
    <g transform="matrix(1.33333,0,0,1.33333,-47.9773,-101.748)">
        <text x="153.36px" y="280.8px" style="font-family:'ArialMT', 'Arial', sans-serif;font-size:10px;">O</text>
        <text x="178.32px" y="280.8px" style="font-family:'ArialMT', 'Arial', sans-serif;font-size:10px;">O<tspan x="186.24px " y="280.8px ">H</tspan></text>
    </g>
    <g transform="matrix(1.33333,0,0,1.33333,-47.9773,-101.748)">
        <text x="303.6px" y="269.76px" style="font-family:'ArialMT', 'Arial', sans-serif;font-size:10px;">O</text>
    </g>
    <g transform="matrix(1.33333,0,0,1.33333,-47.9773,-101.748)">
        <text x="328.8px" y="263.04px" style="font-family:'ArialMT', 'Arial', sans-serif;font-size:10px;">B</text>
    </g>
    <g transform="matrix(1.33333,0,0,1.33333,-47.9773,-101.748)">
        <text x="251.04px" y="251.52px" style="font-family:'ArialMT', 'Arial', sans-serif;font-size:10px;">R</text>
    </g>
    <g transform="matrix(1.33333,0,0,1.33333,-47.9773,-101.748)">
        <text x="427.44px" y="256.8px" style="font-family:'ArialMT', 'Arial', sans-serif;font-size:10px;">R</text>
    </g>
    <g transform="matrix(1.33333,0,0,1.33333,-47.9773,-101.748)">
        <text x="478.8px" y="266.88px" style="font-family:'ArialMT', 'Arial', sans-serif;font-size:10px;">O<tspan x="486.72px " y="266.88px ">H</tspan></text>
    </g>
    <g transform="matrix(1.15475,-0.666584,-0.666584,-1.15475,455.881,934.908)">
        <path d="M58.654,737.475L78.756,737.475" style="fill:none;fill-rule:nonzero;stroke:black;stroke-width:0.72px;"/>
    </g>
    <g transform="matrix(1.15465,0.666755,0.666755,-1.15465,-523.061,830.377)">
        <path d="M75.722,736.2L100.918,736.2" style="fill:none;fill-rule:nonzero;stroke:black;stroke-width:0.72px;"/>
    </g>
    <g transform="matrix(1.15483,-0.666434,-0.666434,-1.15483,460.932,961.426)">
        <path d="M97.922,734.785L117.468,734.785" style="fill:none;fill-rule:nonzero;stroke:black;stroke-width:0.72px;"/>
    </g>
    <g transform="matrix(1.33333,0,0,1.33333,-47.9773,-935.668)">
        <path d="M141.84,733.68L175.92,733.68" style="fill:none;fill-rule:nonzero;stroke:black;stroke-width:0.72px;"/>
    </g>
    <g transform="matrix(1.33333,0,0,1.33333,-47.9773,-943.348)">
        <path d="M141.84,736.56L175.92,736.56" style="fill:none;fill-rule:nonzero;stroke:black;stroke-width:0.72px;"/>
    </g>
    <g transform="matrix(1.33333,0,0,1.33333,-47.9773,-939.508)">
        <path d="M171.36,731.52L179.28,735.12L171.36,738.72" style="fill:none;fill-rule:nonzero;stroke:black;stroke-width:0.72px;"/>
    </g>
    <g transform="matrix(-0.344575,1.28804,1.28804,0.344575,-633.091,-516.121)">
        <path d="M212.896,744.785L233.134,744.785" style="fill:none;fill-rule:nonzero;stroke:black;stroke-width:0.72px;"/>
    </g>
    <g transform="matrix(0.942809,0.942809,0.942809,-0.942809,-642.8,520.974)">
        <path d="M216.647,725.95L242.273,725.95" style="fill:none;fill-rule:nonzero;stroke:black;stroke-width:0.72px;"/>
    </g>
    <g transform="matrix(1.28778,-0.345534,-0.345534,-1.28778,211.994,1073.94)">
        <path d="M238.163,719.6L259.077,719.6" style="fill:none;fill-rule:nonzero;stroke:black;stroke-width:0.72px;"/>
    </g>
    <g transform="matrix(-1.28795,0.344897,0.344897,1.28795,250.659,-971.281)">
        <path d="M199.803,732.3L220.757,732.3" style="fill:none;fill-rule:nonzero;stroke:black;stroke-width:0.72px;"/>
    </g>
    <g transform="matrix(0.666609,-1.15473,-1.15473,-0.666609,984.052,842.422)">
        <path d="M261.289,737.18L281.011,737.18" style="fill:none;fill-rule:nonzero;stroke:black;stroke-width:0.72px;"/>
    </g>
    <g transform="matrix(1.1547,0.666665,0.666665,-1.1547,-475.89,708.651)">
        <path d="M265.96,715.935L286.86,715.935" style="fill:none;fill-rule:nonzero;stroke:black;stroke-width:0.72px;"/>
    </g>
    <g transform="matrix(0.345374,-1.28783,-1.28783,-0.345374,1165.01,679.789)">
        <path d="M277.708,720.815L298.632,720.815" style="fill:none;fill-rule:nonzero;stroke:black;stroke-width:0.72px;"/>
    </g>
    <g transform="matrix(-0.942809,-0.942809,-0.942809,0.942809,1293.36,-392.442)">
        <path d="M273.015,738.32L293.945,738.32" style="fill:none;fill-rule:nonzero;stroke:black;stroke-width:0.72px;"/>
    </g>
    <g transform="matrix(0.666777,-1.15464,-1.15464,-0.666777,979.999,876.689)">
        <path d="M279.052,721.81L304.688,721.81" style="fill:none;fill-rule:nonzero;stroke:black;stroke-width:0.72px;"/>
    </g>
    <g transform="matrix(-1.15486,-0.666387,-0.666387,1.15486,1159.25,-627.375)">
        <path d="M274.365,739.315L299.995,739.315" style="fill:none;fill-rule:nonzero;stroke:black;stroke-width:0.72px;"/>
    </g>
    <g transform="matrix(1.33333,0,0,1.33333,-47.9773,-926.708)">
        <path d="M226.56,743.04L222.72,742.08L220.8,741.36L219.12,740.64L217.44,739.68L215.76,738.48L214.32,737.28L212.88,735.84L211.68,734.4L210.72,732.72L209.52,731.04L208.8,729.36L208.08,727.44L207.6,725.52L207.36,723.36L207.12,721.44L207.12,720.72L207.36,717.6" style="fill:none;fill-rule:nonzero;stroke:black;stroke-width:0.48px;"/>
    </g>
    <g transform="matrix(1.32111,-0.180151,-0.180151,-1.32111,84.2529,1052.36)">
        <path d="M221.045,717.254L226.374,717.254L222.515,720.929L222.699,718.724L221.045,717.254Z" style="stroke:black;stroke-width:0.48px;"/>
    </g>
    <g transform="matrix(1.33333,0,0,1.33333,-47.9773,-898.548)">
        <path d="M258,732.72L255.12,732.96L253.92,732.96L252.72,732.72L251.76,732.48L250.56,732.24L247.68,730.8L246.24,729.6L245.04,728.4L244.08,727.2L243.36,726.24L242.88,725.28L242.64,724.08L242.16,723.12L241.68,720.72L241.68,718.32L241.92,716.88L242.4,715.68L242.64,714.48L243.36,713.28L244.08,712.32L244.8,711.12L245.52,710.16L247.44,708.72L249.84,707.28L251.04,706.8L251.52,706.8L252.24,706.56" style="fill:none;fill-rule:nonzero;stroke:black;stroke-width:0.48px;"/>
    </g>
    <g transform="matrix(1.19257,-0.596285,-0.596285,-1.19257,409.224,1073.71)">
        <path d="M252.528,705.635L257.895,705.635L254.138,709.392L254.138,707.245L252.528,705.635Z" style="stroke:black;stroke-width:0.48px;"/>
    </g>
    <g transform="matrix(1.33333,0,0,1.33333,-47.9773,-936.948)">
        <path d="M312.24,734.16L346.32,734.16" style="fill:none;fill-rule:nonzero;stroke:black;stroke-width:0.72px;"/>
    </g>
    <g transform="matrix(1.2958,0.314133,0.314133,-1.2958,-265.752,885.71)">
        <path d="M338.059,735.093L346.209,735.093L338.964,731.361L339.911,733.566L338.059,735.093Z" style="stroke:black;stroke-width:0.72px;"/>
    </g>
    <g transform="matrix(0.66612,-1.15502,-1.15502,-0.66612,1119.52,1052.47)">
        <path d="M448.547,746.025L468.183,746.025" style="fill:none;fill-rule:nonzero;stroke:black;stroke-width:0.72px;"/>
    </g>
    <g transform="matrix(1.15454,0.666941,0.666941,-1.15454,-448.451,582.037)">
        <path d="M453.159,724.745L474.051,724.745" style="fill:none;fill-rule:nonzero;stroke:black;stroke-width:0.72px;"/>
    </g>
    <g transform="matrix(0.345374,-1.28783,-1.28783,-0.345374,1361.29,912.153)">
        <path d="M464.898,729.625L485.822,729.625" style="fill:none;fill-rule:nonzero;stroke:black;stroke-width:0.72px;"/>
    </g>
    <g transform="matrix(-0.942809,-0.942809,-0.942809,0.942809,1727.74,-236.01)">
        <path d="M460.205,747.13L481.135,747.13" style="fill:none;fill-rule:nonzero;stroke:black;stroke-width:0.72px;"/>
    </g>
    <g transform="matrix(0.667002,-1.15451,-1.15451,-0.667002,1114.74,1087.06)">
        <path d="M466.246,730.615L491.874,730.615" style="fill:none;fill-rule:nonzero;stroke:black;stroke-width:0.72px;"/>
    </g>
    <g transform="matrix(-1.15464,-0.666777,-0.666777,1.15464,1631.07,-524.189)">
        <path d="M461.552,748.12L487.188,748.12" style="fill:none;fill-rule:nonzero;stroke:black;stroke-width:0.72px;"/>
    </g>
    <g transform="matrix(-1.33333,0,0,1.33333,957.623,-959.908)">
        <path d="M369.36,742.77L384.84,742.77" style="fill:none;fill-rule:nonzero;stroke:black;stroke-width:0.72px;"/>
    </g>
    <g transform="matrix(-0.666706,-1.15468,-1.15468,0.666706,1579.38,-4.11029)">
        <path d="M381.315,736.665L395.415,736.665" style="fill:none;fill-rule:nonzero;stroke:black;stroke-width:0.72px;"/>
    </g>
    <g transform="matrix(-0.6669,-1.15457,-1.15457,0.6669,1571.61,0.183764)">
        <path d="M379.098,733.305L393.752,733.305" style="fill:none;fill-rule:nonzero;stroke:black;stroke-width:0.72px;"/>
    </g>
    <g transform="matrix(-1.15642,-0.663671,-0.663671,1.15642,540.613,-585.84)">
        <path d="M52.787,661.33L67.453,661.33" style="fill:none;fill-rule:nonzero;stroke:black;stroke-width:0.72px;"/>
    </g>
    <g transform="matrix(-1.15652,0.663514,0.663514,1.15652,-305.671,-673.876)">
        <path d="M65.526,661.26L79.914,661.26" style="fill:none;fill-rule:nonzero;stroke:black;stroke-width:0.72px;"/>
    </g>
    <g transform="matrix(-1.15626,0.663963,0.663963,1.15626,-308.824,-683.128)">
        <path d="M65.255,665.065L79.935,665.065" style="fill:none;fill-rule:nonzero;stroke:black;stroke-width:0.72px;"/>
    </g>
    <g transform="matrix(0.666609,-1.15473,-1.15473,-0.666609,828.246,742.815)">
        <path d="M138.169,673.34L157.891,673.34" style="fill:none;fill-rule:nonzero;stroke:black;stroke-width:0.72px;"/>
    </g>
    <g transform="matrix(1.1547,0.666665,0.666665,-1.1547,-455.324,802.134)">
        <path d="M142.84,652.095L163.74,652.095" style="fill:none;fill-rule:nonzero;stroke:black;stroke-width:0.72px;"/>
    </g>
    <g transform="matrix(0.345374,-1.28783,-1.28783,-0.345374,961.154,584.303)">
        <path d="M154.588,656.975L175.512,656.975" style="fill:none;fill-rule:nonzero;stroke:black;stroke-width:0.72px;"/>
    </g>
    <g transform="matrix(-0.942809,-0.942809,-0.942809,0.942809,952.931,-363.212)">
        <path d="M149.895,674.48L170.825,674.48" style="fill:none;fill-rule:nonzero;stroke:black;stroke-width:0.72px;"/>
    </g>
    <g transform="matrix(0.666777,-1.15464,-1.15464,-0.666777,824.221,777.083)">
        <path d="M155.932,657.97L181.568,657.97" style="fill:none;fill-rule:nonzero;stroke:black;stroke-width:0.72px;"/>
    </g>
    <g transform="matrix(-1.15486,-0.666387,-0.666387,1.15486,810.364,-550.574)">
        <path d="M151.245,675.475L176.875,675.475" style="fill:none;fill-rule:nonzero;stroke:black;stroke-width:0.72px;"/>
    </g>
    <g transform="matrix(1.33333,0,0,1.33333,-47.9773,-748.148)">
        <path d="M187.92,663.36L222,663.36" style="fill:none;fill-rule:nonzero;stroke:black;stroke-width:0.72px;"/>
    </g>
    <g transform="matrix(1.2958,0.314133,0.314133,-1.2958,-248.177,927.42)">
        <path d="M213.739,664.293L221.889,664.293L214.644,660.561L215.591,662.766L213.739,664.293Z" style="stroke:black;stroke-width:0.72px;"/>
    </g>
    <g transform="matrix(1.28787,-0.345203,-0.345203,-1.28787,195.077,1077.93)">
        <path d="M243.24,670.67L264.33,670.67" style="fill:none;fill-rule:nonzero;stroke:black;stroke-width:0.72px;"/>
    </g>
    <g transform="matrix(0.942809,0.942809,0.942809,-0.942809,-567.698,503.956)">
        <path d="M260.217,664.34L285.843,664.34" style="fill:none;fill-rule:nonzero;stroke:black;stroke-width:0.72px;"/>
    </g>
    <g transform="matrix(1.28793,-0.344971,-0.344971,-1.28793,192.281,1091.76)">
        <path d="M281.732,658L302.758,658" style="fill:none;fill-rule:nonzero;stroke:black;stroke-width:0.72px;"/>
    </g>
    <g transform="matrix(0.66688,-1.15458,-1.15458,-0.66688,941.714,933.96)">
        <path d="M304.813,675.53L324.607,675.53" style="fill:none;fill-rule:nonzero;stroke:black;stroke-width:0.72px;"/>
    </g>
    <g transform="matrix(1.15476,0.666556,0.666556,-1.15476,-426.952,690.651)">
        <path d="M309.648,654.295L330.432,654.295" style="fill:none;fill-rule:nonzero;stroke:black;stroke-width:0.72px;"/>
    </g>
    <g transform="matrix(0.345374,-1.28783,-1.28783,-0.345374,1128.72,796.781)">
        <path d="M321.288,659.205L342.212,659.205" style="fill:none;fill-rule:nonzero;stroke:black;stroke-width:0.72px;"/>
    </g>
    <g transform="matrix(-0.943128,-0.94249,-0.94249,0.943128,1334.35,-211.429)">
        <path d="M316.598,676.705L337.522,676.705" style="fill:none;fill-rule:nonzero;stroke:black;stroke-width:0.72px;"/>
    </g>
    <g transform="matrix(0.666612,-1.15473,-1.15473,-0.666612,938.019,967.995)">
        <path d="M322.634,660.195L348.256,660.195" style="fill:none;fill-rule:nonzero;stroke:black;stroke-width:0.72px;"/>
    </g>
    <g transform="matrix(-1.15473,-0.666612,-0.666612,1.15473,1226.72,-444.852)">
        <path d="M317.944,677.695L343.566,677.695" style="fill:none;fill-rule:nonzero;stroke:black;stroke-width:0.72px;"/>
    </g>
    <g transform="matrix(1.33333,0,0,1.33333,-47.9773,-743.668)">
        <path d="M356.4,661.68L390.48,661.68" style="fill:none;fill-rule:nonzero;stroke:black;stroke-width:0.72px;"/>
    </g>
    <g transform="matrix(1.2958,0.314133,0.314133,-1.2958,-241.326,874.558)">
        <path d="M382.219,662.613L390.369,662.613L383.124,658.881L384.071,661.086L382.219,662.613Z" style="stroke:black;stroke-width:0.72px;"/>
    </g>
    <g transform="matrix(1.28794,-0.344939,-0.344939,-1.28794,162.327,1029.78)">
        <path d="M93.964,595.945L114.876,595.945" style="fill:none;fill-rule:nonzero;stroke:black;stroke-width:0.72px;"/>
    </g>
    <g transform="matrix(0.942809,0.942809,0.942809,-0.942809,-555.587,674.051)">
        <path d="M110.767,589.59L136.393,589.59" style="fill:none;fill-rule:nonzero;stroke:black;stroke-width:0.72px;"/>
    </g>
    <g transform="matrix(1.28779,-0.34549,-0.34549,-1.28779,160.029,1043.57)">
        <path d="M132.282,583.245L153.238,583.245" style="fill:none;fill-rule:nonzero;stroke:black;stroke-width:0.72px;"/>
    </g>
    <g transform="matrix(0.666796,-1.15463,-1.15463,-0.666796,759.813,811.167)">
        <path d="M159.806,603.36L173.664,603.36" style="fill:none;fill-rule:nonzero;stroke:black;stroke-width:0.72px;"/>
    </g>
    <g transform="matrix(1.15462,0.666813,0.666813,-1.15462,-403.959,803.509)">
        <path d="M160.122,579.565L180.978,579.565" style="fill:none;fill-rule:nonzero;stroke:black;stroke-width:0.72px;"/>
    </g>
    <g transform="matrix(0.345374,-1.28783,-1.28783,-0.345374,884.794,678.152)">
        <path d="M171.828,584.455L192.752,584.455" style="fill:none;fill-rule:nonzero;stroke:black;stroke-width:0.72px;"/>
    </g>
    <g transform="matrix(-0.942809,-0.942809,-0.942809,0.942809,923.799,-181.892)">
        <path d="M167.135,601.96L188.065,601.96" style="fill:none;fill-rule:nonzero;stroke:black;stroke-width:0.72px;"/>
    </g>
    <g transform="matrix(0.666387,-1.15486,-1.15486,-0.666387,752.179,845.135)">
        <path d="M173.17,585.45L198.8,585.45" style="fill:none;fill-rule:nonzero;stroke:black;stroke-width:0.72px;"/>
    </g>
    <g transform="matrix(-1.15473,-0.666612,-0.666612,1.15473,805.033,-358.526)">
        <path d="M168.484,602.955L194.106,602.955" style="fill:none;fill-rule:nonzero;stroke:black;stroke-width:0.72px;"/>
    </g>
    <g transform="matrix(-0.00793637,1.33331,1.33331,0.00793637,-605.108,38.3169)">
        <path d="M151.445,576.12L163.205,576.12" style="fill:none;fill-rule:nonzero;stroke:black;stroke-width:0.72px;"/>
    </g>
    <g transform="matrix(1.33333,0,0,1.33333,-47.9773,-486.121)">
        <path d="M162.24,565.1L177.36,565.1" style="fill:none;fill-rule:nonzero;stroke:black;stroke-width:0.72px;"/>
    </g>
    <g transform="matrix(1.33333,0,0,1.33333,-47.9773,-480.948)">
        <path d="M178.32,572.64L174.48,573.36L173.28,573.36L172.32,573.12L171.12,572.88L170.16,572.64L169.2,571.92L168.24,571.44L166.8,570L166.08,569.04L165.36,568.32L164.88,567.36L164.4,566.16L164.16,565.2L164.16,564L163.92,563.52L163.92,562.8L164.4,559.92L164.88,558.48L165.6,557.28L167.52,554.88L169.92,553.44L170.64,552.96" style="fill:none;fill-rule:nonzero;stroke:black;stroke-width:0.48px;"/>
    </g>
    <g transform="matrix(1.12732,-0.711991,-0.711991,-1.12732,381.747,1032.03)">
        <path d="M173.031,552.122L178.425,552.122L174.473,555.753L174.794,553.564L173.031,552.122Z" style="stroke:black;stroke-width:0.48px;"/>
    </g>
    <g transform="matrix(1.33333,0,0,1.33333,-47.9773,-535.668)">
        <path d="M40.08,583.68L74.16,583.68" style="fill:none;fill-rule:nonzero;stroke:black;stroke-width:0.72px;"/>
    </g>
    <g transform="matrix(1.2958,0.314133,0.314133,-1.2958,-228.696,976.853)">
        <path d="M65.899,584.613L74.049,584.613L66.804,580.881L67.751,583.086L65.899,584.613Z" style="stroke:black;stroke-width:0.72px;"/>
    </g>
    <g transform="matrix(1.33333,0,0,1.33333,-47.9773,-538.868)">
        <path d="M203.52,584.88L237.6,584.88" style="fill:none;fill-rule:nonzero;stroke:black;stroke-width:0.72px;"/>
    </g>
    <g transform="matrix(1.2958,0.314133,0.314133,-1.2958,-222.938,925.466)">
        <path d="M229.339,585.813L237.489,585.813L230.244,582.081L231.191,584.286L229.339,585.813Z" style="stroke:black;stroke-width:0.72px;"/>
    </g>
    <g transform="matrix(0.943163,0.942455,0.942455,-0.943163,-486.336,512.572)">
        <path d="M286.577,587.66L305.393,587.66" style="fill:none;fill-rule:nonzero;stroke:black;stroke-width:0.72px;"/>
    </g>
    <g transform="matrix(1.28802,-0.344646,-0.344646,-1.28802,166.285,1104.89)">
        <path d="M312.21,579.595L328.11,579.595" style="fill:none;fill-rule:nonzero;stroke:black;stroke-width:0.72px;"/>
    </g>
    <g transform="matrix(0.666336,-1.15489,-1.15489,-0.666336,867.78,1015.73)">
        <path d="M330.285,596.51L349.935,596.51" style="fill:none;fill-rule:nonzero;stroke:black;stroke-width:0.72px;"/>
    </g>
    <g transform="matrix(1.15459,0.666854,0.666854,-1.15459,-369.798,687.645)">
        <path d="M335.093,575.185L355.787,575.185" style="fill:none;fill-rule:nonzero;stroke:black;stroke-width:0.72px;"/>
    </g>
    <g transform="matrix(0.345374,-1.28783,-1.28783,-0.345374,1051.92,907.578)">
        <path d="M346.648,580.115L367.572,580.115" style="fill:none;fill-rule:nonzero;stroke:black;stroke-width:0.72px;"/>
    </g>
    <g transform="matrix(-0.942809,-0.942809,-0.942809,0.942809,1317.62,-7.19131)">
        <path d="M341.955,597.62L362.885,597.62" style="fill:none;fill-rule:nonzero;stroke:black;stroke-width:0.72px;"/>
    </g>
    <g transform="matrix(0.666612,-1.15473,-1.15473,-0.666612,863.6,1050.01)">
        <path d="M347.994,581.105L373.616,581.105" style="fill:none;fill-rule:nonzero;stroke:black;stroke-width:0.72px;"/>
    </g>
    <g transform="matrix(-1.15451,-0.667002,-0.667002,1.15451,1237.25,-230.904)">
        <path d="M343.301,598.61L368.929,598.61" style="fill:none;fill-rule:nonzero;stroke:black;stroke-width:0.72px;"/>
    </g>
    <g transform="matrix(-1.15456,-0.666917,-0.666917,1.15456,1005.1,-265.081)">
        <path d="M258.203,588.07L273.077,588.07" style="fill:none;fill-rule:nonzero;stroke:black;stroke-width:0.72px;"/>
    </g>
    <g transform="matrix(-1.15468,0.666702,0.666702,1.15468,257.513,-632.595)">
        <path d="M270.746,589.33L290.664,589.33" style="fill:none;fill-rule:nonzero;stroke:black;stroke-width:0.72px;"/>
    </g>
    <g transform="matrix(1.33333,0,0,1.33333,-47.9773,-535.668)">
        <path d="M379.68,583.68L413.76,583.68" style="fill:none;fill-rule:nonzero;stroke:black;stroke-width:0.72px;"/>
    </g>
    <g transform="matrix(1.2958,0.314133,0.314133,-1.2958,-215.95,870.173)">
        <path d="M405.499,584.613L413.649,584.613L406.404,580.881L407.351,583.086L405.499,584.613Z" style="stroke:black;stroke-width:0.72px;"/>
    </g>
    <g transform="matrix(-1.15485,-0.666401,-0.666401,1.15485,1440.02,-134.557)">
        <path d="M434.617,582.71L449.303,582.71" style="fill:none;fill-rule:nonzero;stroke:black;stroke-width:0.72px;"/>
    </g>
    <g transform="matrix(-1.15468,0.666702,0.666702,1.15468,699.54,-736.884)">
        <path d="M446.986,584.02L466.904,584.02" style="fill:none;fill-rule:nonzero;stroke:black;stroke-width:0.72px;"/>
    </g>
    <g transform="matrix(-1.15446,-0.667084,-0.667084,1.15446,1516.07,-121.012)">
        <path d="M464.619,585.455L478.791,585.455" style="fill:none;fill-rule:nonzero;stroke:black;stroke-width:0.72px;"/>
    </g>
    <g transform="matrix(1.33333,0,0,1.33333,-47.9773,-508.148)">
        <path d="M152.4,580.32L150.96,579.84L149.76,579.12L148.56,578.16L147.6,577.2L146.88,575.76L146.4,574.56L146.16,573.12L146.16,571.2L146.4,570L147.84,567.12L148.56,566.4" style="fill:none;fill-rule:nonzero;stroke:black;stroke-width:0.48px;"/>
    </g>
    <g transform="matrix(1.28635,0.350823,0.350823,-1.28635,-240.72,941.99)">
        <path d="M144.809,567.543L153.018,567.543L145.714,571.522L146.872,569.101L144.809,567.543Z" style="stroke:black;stroke-width:0.48px;"/>
    </g>
</svg>
