<?xml version="1.0" encoding="UTF-8" standalone="no"?>
<!DOCTYPE svg PUBLIC "-//W3C//DTD SVG 1.1//EN" "http://www.w3.org/Graphics/SVG/1.1/DTD/svg11.dtd">
<svg width="100%" height="100%" viewBox="0 0 505 250" version="1.1" xmlns="http://www.w3.org/2000/svg" xmlns:xlink="http://www.w3.org/1999/xlink" xml:space="preserve" xmlns:serif="http://www.serif.com/" style="fill-rule:evenodd;clip-rule:evenodd;stroke-linecap:round;stroke-linejoin:round;stroke-miterlimit:10;">
    <g transform="matrix(1.33333,0,0,1.33333,-144.184,-84.1492)">
        <text x="112.32px" y="73.44px" style="font-family:'ArialMT', 'Arial', sans-serif;font-size:10px;">R</text>
    </g>
    <g transform="matrix(1.33333,0,0,1.33333,-144.184,-84.1492)">
        <text x="129.36px" y="99.6px" style="font-family:'ArialMT', 'Arial', sans-serif;font-size:10px;">O<tspan x="137.28px " y="99.6px ">H</tspan></text>
    </g>
    <g transform="matrix(1.33333,0,0,1.33333,-144.184,-84.1492)">
        <text x="163.2px" y="83.76px" style="font-family:'ArialMT', 'Arial', sans-serif;font-size:10px;">H</text>
    </g>
    <g transform="matrix(1.33333,0,0,1.33333,-144.184,-84.1492)">
        <text x="225.12px" y="84px" style="font-family:'ArialMT', 'Arial', sans-serif;font-size:10px;">R</text>
    </g>
    <g transform="matrix(1.33333,0,0,1.33333,-144.184,-84.1492)">
        <text x="259.44px" y="84px" style="font-family:'ArialMT', 'Arial', sans-serif;font-size:10px;">CH</text>
        <text x="273.859px" y="86.64px" style="font-family:'ArialMT', 'Arial', sans-serif;font-size:8px;">2</text>
        <text x="284.626px" y="90.72px" style="font-family:'ArialMT', 'Arial', sans-serif;font-size:18px;"><tspan x="284.626px " y="90.72px ">+</tspan></text>
        <text x="303.6px" y="86.4px" style="font-family:'ArialMT', 'Arial', sans-serif;font-size:10px;">H</text>
        <text x="310.81px" y="89.04px" style="font-family:'ArialMT', 'Arial', sans-serif;font-size:8px;">2</text>
        <text x="315.131px" y="86.4px" style="font-family:'ArialMT', 'Arial', sans-serif;font-size:10px;">O</text>
    </g>
    <g transform="matrix(1.33333,0,0,1.33333,-144.184,-84.1492)">
        <text x="113.28px" y="154.56px" style="font-family:'ArialMT', 'Arial', sans-serif;font-size:10px;">R</text>
    </g>
    <g transform="matrix(1.33333,0,0,1.33333,-144.184,-84.1492)">
        <text x="147.6px" y="154.56px" style="font-family:'ArialMT', 'Arial', sans-serif;font-size:10px;">CH</text>
        <text x="162.012px" y="157.2px" style="font-family:'ArialMT', 'Arial', sans-serif;font-size:8px;">2</text>
        <text x="173.479px" y="158.64px" style="font-family:'ArialMT', 'Arial', sans-serif;font-size:18px;"><tspan x="173.479px " y="158.64px ">+</tspan></text>
    </g>
    <g transform="matrix(1.33333,0,0,1.33333,-144.184,-84.1492)">
        <text x="230.4px" y="156.72px" style="font-family:'ArialMT', 'Arial', sans-serif;font-size:10px;">C	<tspan x="250.32px " y="156.72px ">C</tspan>H</text>
        <text x="264.733px" y="159.36px" style="font-family:'ArialMT', 'Arial', sans-serif;font-size:8px;">3</text>
    </g>
    <g transform="matrix(1.33333,0,0,1.33333,-144.184,-84.1492)">
        <text x="230.16px" y="139.68px" style="font-family:'ArialMT', 'Arial', sans-serif;font-size:10px;">O</text>
    </g>
    <g transform="matrix(1.33333,0,0,1.33333,-144.184,-84.1492)">
        <text x="214.32px" y="156.72px" style="font-family:'ArialMT', 'Arial', sans-serif;font-size:10px;">O</text>
        <text x="222.24px" y="149.76px" style="font-family:'ArialMT', 'Arial', sans-serif;font-size:8px;">–</text>
    </g>
    <g transform="matrix(1.33333,0,0,1.33333,-144.184,-84.1492)">
        <text x="273.84px" y="184.56px" style="font-family:'ArialMT', 'Arial', sans-serif;font-size:10px;">2</text>
    </g>
    <g transform="matrix(1.33333,0,0,1.33333,-144.184,-84.1492)">
        <text x="188.64px" y="155.28px" style="font-family:'ArialMT', 'Arial', sans-serif;font-size:10px;">Hg</text>
        <text x="201.36px" y="148.32px" style="font-family:'ArialMT', 'Arial', sans-serif;font-size:8px;">2<tspan x="205.68px " y="148.32px ">+</tspan></text>
    </g>
    <g transform="matrix(1.33333,0,0,1.33333,-144.184,-84.1492)">
        <text x="334.08px" y="154.8px" style="font-family:'ArialMT', 'Arial', sans-serif;font-size:10px;">R</text>
    </g>
    <g transform="matrix(1.33333,0,0,1.33333,-144.184,-84.1492)">
        <text x="357.6px" y="137.52px" style="font-family:'ArialMT', 'Arial', sans-serif;font-size:10px;">Hg</text>
        <text x="370.338px" y="130.56px" style="font-family:'ArialMT', 'Arial', sans-serif;font-size:8px;">+</text>
        <text x="384.48px" y="137.52px" style="font-family:'ArialMT', 'Arial', sans-serif;font-size:10px;"><tspan x="384.48px " y="137.52px ">O</tspan></text>
    </g>
    <g transform="matrix(1.33333,0,0,1.33333,-144.184,-84.1492)">
        <text x="402.96px" y="122.4px" style="font-family:'ArialMT', 'Arial', sans-serif;font-size:10px;">O</text>
    </g>
    <g transform="matrix(1.33333,0,0,1.33333,-144.184,-84.1492)">
        <text x="416.16px" y="150.72px" style="font-family:'ArialMT', 'Arial', sans-serif;font-size:10px;">CH</text>
        <text x="430.56px" y="153.36px" style="font-family:'ArialMT', 'Arial', sans-serif;font-size:8px;">3</text>
    </g>
    <g transform="matrix(1.33333,0,0,1.33333,-144.184,-80.1492)">
        <text x="110.64px" y="216.72px" style="font-family:'ArialMT', 'Arial', sans-serif;font-size:10px;">R</text>
    </g>
    <g transform="matrix(1.33333,0,0,1.33333,-144.184,-80.1492)">
        <text x="127.68px" y="242.4px" style="font-family:'ArialMT', 'Arial', sans-serif;font-size:10px;">O<tspan x="135.6px " y="242.4px ">H</tspan></text>
    </g>
    <g transform="matrix(1.33333,0,0,1.33333,-144.184,-80.1492)">
        <text x="148.8px" y="233.28px" style="font-family:'ArialMT', 'Arial', sans-serif;font-size:10px;">Hg</text>
    </g>
    <g transform="matrix(1.33333,0,0,1.33333,-144.184,-80.1492)">
        <text x="171.84px" y="241.68px" style="font-family:'ArialMT', 'Arial', sans-serif;font-size:10px;">O</text>
    </g>
    <g transform="matrix(1.33333,0,0,1.33333,-144.184,-80.1492)">
        <text x="205.92px" y="235.44px" style="font-family:'ArialMT', 'Arial', sans-serif;font-size:10px;">CH</text>
        <text x="220.32px" y="238.08px" style="font-family:'ArialMT', 'Arial', sans-serif;font-size:8px;">3</text>
    </g>
    <g transform="matrix(1.33333,0,0,1.33333,-144.184,-80.1492)">
        <text x="183.36px" y="209.28px" style="font-family:'ArialMT', 'Arial', sans-serif;font-size:10px;">O</text>
    </g>
    <g transform="matrix(1.33333,0,0,1.33333,-144.184,-80.1492)">
        <text x="230.64px" y="215.52px" style="font-family:'ArialMT', 'Arial', sans-serif;font-size:10px;">Na</text>
        <text x="243.36px" y="215.52px" style="font-family:'ArialMT', 'Arial', sans-serif;font-size:10px;">B</text>
        <text x="250.08px" y="215.52px" style="font-family:'ArialMT', 'Arial', sans-serif;font-size:10px;">H</text>
        <text x="257.28px" y="218.16px" style="font-family:'ArialMT', 'Arial', sans-serif;font-size:6px;">4</text>
    </g>
    <g transform="matrix(1.33333,0,0,1.33333,-144.184,-80.1492)">
        <text x="277.2px" y="216.72px" style="font-family:'ArialMT', 'Arial', sans-serif;font-size:10px;">R</text>
    </g>
    <g transform="matrix(1.33333,0,0,1.33333,-144.184,-80.1492)">
        <text x="311.76px" y="216.72px" style="font-family:'ArialMT', 'Arial', sans-serif;font-size:10px;">CH</text>
        <text x="326.16px" y="219.36px" style="font-family:'ArialMT', 'Arial', sans-serif;font-size:8px;">3</text>
    </g>
    <g transform="matrix(1.33333,0,0,1.33333,-144.184,-80.1492)">
        <text x="294.24px" y="244.32px" style="font-family:'ArialMT', 'Arial', sans-serif;font-size:10px;">O<tspan x="302.16px " y="244.32px ">H</tspan></text>
    </g>
    <g transform="matrix(1.33333,0,0,1.33333,-144.184,-84.1492)">
        <text x="455.52px" y="147.36px" style="font-family:'ArialMT', 'Arial', sans-serif;font-size:10px;">H</text>
        <text x="462.72px" y="147.36px" style="font-family:'ArialMT', 'Arial', sans-serif;font-size:10px;">O<tspan x="470.64px " y="147.36px ">H</tspan></text>
    </g>
    <g transform="matrix(-1.15485,-0.666401,-0.666401,1.15485,682.021,-783.537)">
        <path d="M119.497,766.21L134.183,766.21" style="fill:none;fill-rule:nonzero;stroke:black;stroke-width:0.72px;"/>
    </g>
    <g transform="matrix(-1.15468,0.666702,0.666702,1.15468,-303.029,-965.744)">
        <path d="M131.866,767.52L151.784,767.52" style="fill:none;fill-rule:nonzero;stroke:black;stroke-width:0.72px;"/>
    </g>
    <g transform="matrix(0,1.33333,1.33333,0,-975.904,-148.509)">
        <path d="M127.65,756.99L138.75,756.99" style="fill:none;fill-rule:nonzero;stroke:black;stroke-width:0.72px;"/>
    </g>
    <g transform="matrix(1.12932,0.708816,0.708816,-1.12932,-657.225,770.743)">
        <path d="M149.385,768.8L163.305,768.8" style="fill:none;fill-rule:nonzero;stroke:black;stroke-width:0.72px;"/>
    </g>
    <g transform="matrix(1.33333,0,0,1.33333,-144.184,-994.229)">
        <path d="M155.52,760.08L154.56,761.52L152.16,763.44L150.48,763.92L149.04,764.4L147.36,764.16L146.4,764.16L145.68,763.92L143.28,762.48L142.32,761.52L141.36,760.32" style="fill:none;fill-rule:nonzero;stroke:black;stroke-width:0.48px;"/>
    </g>
    <g transform="matrix(-0.47466,-1.24598,-1.24598,0.47466,1064.72,-159.507)">
        <path d="M141.576,762.986L146.969,762.986L143.018,759.355L143.338,761.544L141.576,762.986Z" style="stroke:black;stroke-width:0.48px;"/>
    </g>
    <g transform="matrix(1.33333,0,0,1.33333,-144.184,-969.269)">
        <path d="M124.08,757.44L123.84,755.52L123.84,754.32L124.08,753.36L124.56,752.16L125.28,751.44L126,750.48L126.72,749.76L128.64,748.8L129.84,748.56L130.32,748.32L131.04,748.32L132.24,748.56L134.64,749.52L135.84,750.24L136.56,751.2L137.28,752.4L137.52,752.88L137.76,753.6" style="fill:none;fill-rule:nonzero;stroke:black;stroke-width:0.48px;"/>
    </g>
    <g transform="matrix(0.596285,1.19257,1.19257,-0.596285,-948.425,337.461)">
        <path d="M120.768,750.035L126.135,750.035L122.378,753.792L122.378,751.645L120.768,750.035Z" style="stroke:black;stroke-width:0.48px;"/>
    </g>
    <g transform="matrix(1.33333,0,0,1.33333,-144.184,-980.789)">
        <path d="M179.28,757.2L213.36,757.2" style="fill:none;fill-rule:nonzero;stroke:black;stroke-width:0.72px;"/>
    </g>
    <g transform="matrix(1.33333,0,0,1.33333,-144.184,-988.469)">
        <path d="M179.28,760.08L213.36,760.08" style="fill:none;fill-rule:nonzero;stroke:black;stroke-width:0.72px;"/>
    </g>
    <g transform="matrix(1.33333,0,0,1.33333,-144.184,-984.629)">
        <path d="M208.8,755.04L216.72,758.64L208.8,762.24" style="fill:none;fill-rule:nonzero;stroke:black;stroke-width:0.72px;"/>
    </g>
    <g transform="matrix(-1.15485,-0.666401,-0.666401,1.15485,955.651,-682.091)">
        <path d="M232.297,755.65L246.983,755.65" style="fill:none;fill-rule:nonzero;stroke:black;stroke-width:0.72px;"/>
    </g>
    <g transform="matrix(-1.15491,0.666297,0.666297,1.15491,-19.9889,-1009.73)">
        <path d="M245.036,755.58L259.444,755.58" style="fill:none;fill-rule:nonzero;stroke:black;stroke-width:0.72px;"/>
    </g>
    <g transform="matrix(-1.15457,0.6669,0.6669,1.15457,-23.4065,-1018.99)">
        <path d="M244.778,759.385L259.432,759.385" style="fill:none;fill-rule:nonzero;stroke:black;stroke-width:0.72px;"/>
    </g>
    <g transform="matrix(-1.15485,-0.666401,-0.666401,1.15485,630.351,-581.055)">
        <path d="M120.457,685.09L135.143,685.09" style="fill:none;fill-rule:nonzero;stroke:black;stroke-width:0.72px;"/>
    </g>
    <g transform="matrix(-1.15491,0.666297,0.666297,1.15491,-251.261,-759.637)">
        <path d="M133.196,685.02L147.604,685.02" style="fill:none;fill-rule:nonzero;stroke:black;stroke-width:0.72px;"/>
    </g>
    <g transform="matrix(-1.15457,0.6669,0.6669,1.15457,-254.597,-768.859)">
        <path d="M132.938,688.825L147.592,688.825" style="fill:none;fill-rule:nonzero;stroke:black;stroke-width:0.72px;"/>
    </g>
    <g transform="matrix(1.33333,0,0,1.33333,-144.184,-799.669)">
        <path d="M238.56,689.28L249.36,689.28" style="fill:none;fill-rule:nonzero;stroke:black;stroke-width:0.72px;"/>
    </g>
    <g transform="matrix(0,-1.33333,-1.33333,0,1100.3,422.411)">
        <path d="M232.32,697.68L239.04,697.68" style="fill:none;fill-rule:nonzero;stroke:black;stroke-width:0.72px;"/>
    </g>
    <g transform="matrix(0,-1.33333,-1.33333,0,1095.82,417.931)">
        <path d="M228.96,697.68L235.68,697.68" style="fill:none;fill-rule:nonzero;stroke:black;stroke-width:0.72px;"/>
    </g>
    <g transform="matrix(-1.33333,0,0,1.33333,459.336,-799.669)">
        <path d="M223.2,689.28L229.44,689.28" style="fill:none;fill-rule:nonzero;stroke:black;stroke-width:0.72px;"/>
    </g>
    <g transform="matrix(1.33333,0,0,1.33333,-144.184,-804.789)">
        <path d="M265.92,718.56L268.08,715.68L268.8,714.24L269.52,712.56L270,710.4L271.44,704.64L271.92,701.28L272.16,697.44L272.4,693.36L272.4,689.04L272.16,684.96L271.92,681.12L271.44,677.76L270,672L269.52,669.84L268.8,668.16L268.08,666.72L266.64,664.8L266.16,664.08L265.92,663.84L266.64,664.56L267.36,665.52L267.84,666.72L268.56,668.16L269.28,670.08L269.76,672.24L270.48,675.12L270.96,678.24L271.2,682.08L271.68,686.16L271.68,694.8L271.44,698.88L270.96,702.96L270.48,706.8L270,709.68L269.28,712.32L268.56,714.24L267.84,715.68L267.36,716.88L266.64,717.84L265.92,718.56Z" style="stroke:black;stroke-width:0.02px;"/>
    </g>
    <g transform="matrix(1.33333,0,0,1.33333,-144.184,-810.549)">
        <path d="M217.92,666L215.76,668.88L215.04,670.32L214.32,672L213.84,674.16L212.4,679.92L211.92,683.28L211.68,687.12L211.44,691.2L211.44,695.52L211.68,699.6L211.92,703.44L212.4,706.8L213.84,712.56L214.32,714.72L215.04,716.4L215.76,717.84L217.2,719.76L217.68,720.48L217.92,720.72L217.2,720L216.48,719.04L216,717.84L215.28,716.4L214.56,714.48L214.08,712.32L213.36,709.44L212.88,706.32L212.64,702.48L212.16,698.4L212.16,689.76L212.4,685.68L212.88,681.6L213.36,677.76L213.84,674.88L214.56,672.24L215.28,670.32L216,668.88L216.48,667.68L217.2,666.72L217.92,666Z" style="stroke:black;stroke-width:0.02px;"/>
    </g>
    <g transform="matrix(1.33333,0,0,1.33333,-144.184,-797.749)">
        <path d="M283.44,688.56L317.52,688.56" style="fill:none;fill-rule:nonzero;stroke:black;stroke-width:0.72px;"/>
    </g>
    <g transform="matrix(1.2958,0.314133,0.314133,-1.2958,-348.715,914.067)">
        <path d="M309.259,689.493L317.409,689.493L310.164,685.761L311.111,687.966L309.259,689.493Z" style="stroke:black;stroke-width:0.72px;"/>
    </g>
    <g transform="matrix(1.33333,0,0,1.33333,-144.184,-804.789)">
        <path d="M342.24,691.2L357.6,691.2" style="fill:none;fill-rule:nonzero;stroke:black;stroke-width:0.72px;"/>
    </g>
    <g transform="matrix(-0.666796,-1.15463,-1.15463,0.666796,1408.98,75.8139)">
        <path d="M367.126,697.2L380.984,697.2" style="fill:none;fill-rule:nonzero;stroke:black;stroke-width:0.72px;"/>
    </g>
    <g transform="matrix(0.666796,-1.15463,-1.15463,-0.666796,901.484,990.596)">
        <path d="M354.136,697.2L367.994,697.2" style="fill:none;fill-rule:nonzero;stroke:black;stroke-width:0.72px;"/>
    </g>
    <g transform="matrix(1.33333,0,0,1.33333,-144.184,-804.789)">
        <path d="M357.6,691.2L377.52,691.2" style="fill:none;fill-rule:nonzero;stroke:black;stroke-width:0.72px;"/>
    </g>
    <g transform="matrix(1.33333,-0.00108932,-0.00108932,-1.33333,-143.412,1038.82)">
        <path d="M371.28,708.465L383.52,708.465" style="fill:none;fill-rule:nonzero;stroke:black;stroke-width:0.72px;"/>
    </g>
    <g transform="matrix(1.33333,0,0,1.33333,-144.184,-850.869)">
        <path d="M393.36,708.48L406.8,708.48" style="fill:none;fill-rule:nonzero;stroke:black;stroke-width:0.72px;"/>
    </g>
    <g transform="matrix(0,-1.33333,-1.33333,0,1351.66,631.851)">
        <path d="M403.56,713.4L413.4,713.4" style="fill:none;fill-rule:nonzero;stroke:black;stroke-width:0.72px;"/>
    </g>
    <g transform="matrix(0,-1.33333,-1.33333,0,1347.18,627.371)">
        <path d="M400.2,713.4L410.04,713.4" style="fill:none;fill-rule:nonzero;stroke:black;stroke-width:0.72px;"/>
    </g>
    <g transform="matrix(0.933873,0.951661,0.951661,-0.933873,-650.166,365.978)">
        <path d="M405.003,704.2L416.997,704.2" style="fill:none;fill-rule:nonzero;stroke:black;stroke-width:0.72px;"/>
    </g>
    <g transform="matrix(1.33333,0,0,1.33333,-144.184,-798.389)">
        <path d="M449.52,688.8L483.6,688.8" style="fill:none;fill-rule:nonzero;stroke:black;stroke-width:0.72px;"/>
    </g>
    <g transform="matrix(1.2958,0.314133,0.314133,-1.2958,-342.557,861.887)">
        <path d="M475.339,689.733L483.489,689.733L476.244,686.001L477.191,688.206L475.339,689.733Z" style="stroke:black;stroke-width:0.72px;"/>
    </g>
    <g transform="matrix(-1.15475,-0.666584,-0.666584,1.15475,582.463,-423.926)">
        <path d="M117.814,622.88L132.536,622.88" style="fill:none;fill-rule:nonzero;stroke:black;stroke-width:0.72px;"/>
    </g>
    <g transform="matrix(-1.15468,0.666702,0.666702,1.15468,-211.569,-604.012)">
        <path d="M130.216,624.18L150.134,624.18" style="fill:none;fill-rule:nonzero;stroke:black;stroke-width:0.72px;"/>
    </g>
    <g transform="matrix(0,1.33333,1.33333,0,-787.344,48.4508)">
        <path d="M126.27,613.92L136.83,613.92" style="fill:none;fill-rule:nonzero;stroke:black;stroke-width:0.72px;"/>
    </g>
    <g transform="matrix(0.2867,1.30214,1.30214,-0.2867,-798.967,194.484)">
        <path d="M144.218,623.46L155.892,623.46" style="fill:none;fill-rule:nonzero;stroke:black;stroke-width:0.72px;"/>
    </g>
    <g transform="matrix(1.25423,0.452419,0.452419,-1.25423,-405.851,918.946)">
        <path d="M162.215,607.515L171.145,607.515" style="fill:none;fill-rule:nonzero;stroke:black;stroke-width:0.72px;"/>
    </g>
    <g transform="matrix(1.01879,-0.860138,-0.860138,-1.01879,441.357,1009.5)">
        <path d="M179.144,612.8L192.506,612.8" style="fill:none;fill-rule:nonzero;stroke:black;stroke-width:0.72px;"/>
    </g>
    <g transform="matrix(1.25425,0.452354,0.452354,-1.25425,-406.538,904.269)">
        <path d="M190.488,614.58L205.402,614.58" style="fill:none;fill-rule:nonzero;stroke:black;stroke-width:0.72px;"/>
    </g>
    <g transform="matrix(-0.235552,-1.31236,-1.31236,0.235552,975.456,313.861)">
        <path d="M184.198,624.42L198.462,624.42" style="fill:none;fill-rule:nonzero;stroke:black;stroke-width:0.72px;"/>
    </g>
    <g transform="matrix(-0.23504,-1.31245,-1.31245,0.23504,969.758,310.252)">
        <path d="M180.539,624.125L195.401,624.125" style="fill:none;fill-rule:nonzero;stroke:black;stroke-width:0.72px;"/>
    </g>
    <g transform="matrix(1.33333,0,0,1.33333,-144.184,-602.389)">
        <path d="M229.68,616.8L263.76,616.8" style="fill:none;fill-rule:nonzero;stroke:black;stroke-width:0.72px;"/>
    </g>
    <g transform="matrix(1.2958,0.314133,0.314133,-1.2958,-328.19,937.648)">
        <path d="M255.499,617.733L263.649,617.733L256.404,614.001L257.351,616.206L255.499,617.733Z" style="stroke:black;stroke-width:0.72px;"/>
    </g>
    <g transform="matrix(-1.1547,-0.666661,-0.666661,1.1547,996.905,-312.572)">
        <path d="M284.37,622.775L299.15,622.775" style="fill:none;fill-rule:nonzero;stroke:black;stroke-width:0.72px;"/>
    </g>
    <g transform="matrix(-1.15461,0.666824,0.666824,1.15461,198.094,-709.941)">
        <path d="M297.182,622.73L311.778,622.73" style="fill:none;fill-rule:nonzero;stroke:black;stroke-width:0.72px;"/>
    </g>
    <g transform="matrix(0,1.33333,1.33333,0,-563.837,-172.336)">
        <path d="M291.98,612.9L304.34,612.9" style="fill:none;fill-rule:nonzero;stroke:black;stroke-width:0.72px;"/>
    </g>
    <g transform="matrix(1.33333,0,0,1.33333,-144.184,-763.189)">
        <path d="M466.8,658.56L463.92,663.84L462.24,666.24L458.4,671.04L456.48,673.2L452.16,677.52L449.76,679.44L444.96,682.8L442.32,684.48L439.68,685.92L437.04,687.12L431.28,689.52L428.4,690.24L425.28,691.2L422.4,691.68L419.28,692.16L416.16,692.4L412.8,692.64L411.84,692.64L408,692.4L404.4,692.16L400.8,691.68L397.2,690.96L393.6,690L390.24,688.8L386.88,687.36L383.76,685.92L380.64,684.24L374.88,680.4L372,678L369.6,675.84L366.96,673.2L364.56,670.56L362.4,667.92L360.48,665.04" style="fill:none;fill-rule:nonzero;stroke:black;stroke-width:0.48px;"/>
    </g>
    <g transform="matrix(-0.295495,-1.30018,-1.30018,0.295495,1335.19,396.57)">
        <path d="M360.278,685.041L365.693,685.041L361.693,681.52L361.938,683.68L360.278,685.041Z" style="stroke:black;stroke-width:0.48px;"/>
    </g>
</svg>
