<?xml version="1.0" encoding="UTF-8" standalone="no"?>
<!DOCTYPE svg PUBLIC "-//W3C//DTD SVG 1.1//EN" "http://www.w3.org/Graphics/SVG/1.1/DTD/svg11.dtd">
<svg width="100%" height="100%" viewBox="0 0 655 445" version="1.1" xmlns="http://www.w3.org/2000/svg" xmlns:xlink="http://www.w3.org/1999/xlink" xml:space="preserve" xmlns:serif="http://www.serif.com/" style="fill-rule:evenodd;clip-rule:evenodd;stroke-linecap:round;stroke-linejoin:round;stroke-miterlimit:10;">
    <g transform="matrix(1.33333,0,0,1.33333,-43.2304,-102.243)">
        <text x="125.04px" y="93.6px" style="font-family:'ArialMT', 'Arial', sans-serif;font-size:10px;">O<tspan x="132.96px " y="93.6px ">H</tspan></text>
    </g>
    <g transform="matrix(1.33333,0,0,1.33333,-43.2304,-102.243)">
        <text x="198.48px" y="105.36px" style="font-family:'ArialMT', 'Arial', sans-serif;font-size:10px;">Ph</text>
    </g>
    <g transform="matrix(1.33333,0,0,1.33333,-43.2304,-102.243)">
        <text x="198px" y="145.2px" style="font-family:'ArialMT', 'Arial', sans-serif;font-size:10px;">O<tspan x="205.92px " y="145.2px ">H</tspan></text>
    </g>
    <g transform="matrix(1.33333,0,0,1.33333,-43.2304,-102.243)">
        <text x="304.32px" y="122.64px" style="font-family:'ArialMT', 'Arial', sans-serif;font-size:10px;">Ph</text>
    </g>
    <g transform="matrix(1.33333,0,0,1.33333,-43.2304,-102.243)">
        <text x="278.4px" y="88.32px" style="font-family:'ArialMT', 'Arial', sans-serif;font-size:10px;">Ph</text>
    </g>
    <g transform="matrix(1.33333,0,0,1.33333,-43.2304,-102.243)">
        <text x="311.04px" y="95.52px" style="font-family:'ArialMT', 'Arial', sans-serif;font-size:10px;">O<tspan x="318.96px " y="95.52px ">H</tspan></text>
    </g>
    <g transform="matrix(1.33333,0,0,1.33333,-43.2304,-102.243)">
        <text x="357.12px" y="108.96px" style="font-family:'ArialMT', 'Arial', sans-serif;font-size:10px;">O</text>
    </g>
    <g transform="matrix(1.33333,0,0,1.33333,-43.2304,-102.243)">
        <text x="392.88px" y="108.96px" style="font-family:'ArialMT', 'Arial', sans-serif;font-size:10px;">O</text>
    </g>
    <g transform="matrix(1.33333,0,0,1.33333,-43.2304,-102.243)">
        <text x="389.76px" y="87.6px" style="font-family:'ArialMT', 'Arial', sans-serif;font-size:10px;">CH</text>
        <text x="404.16px" y="90.24px" style="font-family:'ArialMT', 'Arial', sans-serif;font-size:8px;">3</text>
    </g>
    <g transform="matrix(1.33333,0,0,1.33333,-43.2304,-102.243)">
        <text x="361.2px" y="88.08px" style="font-family:'ArialMT', 'Arial', sans-serif;font-size:10px;">C</text>
    </g>
    <g transform="matrix(1.33333,0,0,1.33333,-43.2304,-102.243)">
        <text x="349.68px" y="88.08px" style="font-family:'ArialMT', 'Arial', sans-serif;font-size:10px;">H</text>
        <text x="356.88px" y="90.72px" style="font-family:'ArialMT', 'Arial', sans-serif;font-size:8px;">3</text>
    </g>
    <g transform="matrix(1.33333,0,0,1.33333,-43.2304,-102.243)">
        <text x="472.08px" y="124.08px" style="font-family:'ArialMT', 'Arial', sans-serif;font-size:10px;">O</text>
    </g>
    <g transform="matrix(1.33333,0,0,1.33333,-43.2304,-102.243)">
        <text x="501.6px" y="99.36px" style="font-family:'ArialMT', 'Arial', sans-serif;font-size:10px;">Ph</text>
    </g>
    <g transform="matrix(1.33333,0,0,1.33333,-43.2304,-102.243)">
        <text x="495.36px" y="126.24px" style="font-family:'ArialMT', 'Arial', sans-serif;font-size:10px;">Ph</text>
    </g>
    <g transform="matrix(1.33333,0,0,1.33333,-43.2304,-102.243)">
        <text x="436.32px" y="103.68px" style="font-family:'ArialMT', 'Arial', sans-serif;font-size:10px;">Ph</text>
    </g>
    <g transform="matrix(1.33333,0,0,1.33333,-43.2304,-102.243)">
        <text x="445.44px" y="128.4px" style="font-family:'ArialMT', 'Arial', sans-serif;font-size:10px;">Ph</text>
    </g>
    <g transform="matrix(1.33333,0,0,1.33333,-43.2304,-102.243)">
        <text x="171.6px" y="275.28px" style="font-family:'ArialMT', 'Arial', sans-serif;font-size:10px;">O</text>
    </g>
    <g transform="matrix(1.33333,0,0,1.33333,-43.2304,-102.243)">
        <text x="114px" y="212.88px" style="font-family:'ArialMT', 'Arial', sans-serif;font-size:10px;">O<tspan x="121.92px " y="212.88px ">H</tspan></text>
    </g>
    <g transform="matrix(1.33333,0,0,1.33333,-43.2304,-102.243)">
        <text x="134.4px" y="230.4px" style="font-family:'ArialMT', 'Arial', sans-serif;font-size:10px;">CH</text>
        <text x="148.8px" y="233.04px" style="font-family:'ArialMT', 'Arial', sans-serif;font-size:8px;">3</text>
    </g>
    <g transform="matrix(1.33333,0,0,1.33333,-43.2304,-102.243)">
        <text x="45.12px" y="270.48px" style="font-family:'ArialMT', 'Arial', sans-serif;font-size:10px;">C</text>
    </g>
    <g transform="matrix(1.33333,0,0,1.33333,-43.2304,-102.243)">
        <text x="33.6px" y="270.48px" style="font-family:'ArialMT', 'Arial', sans-serif;font-size:10px;">H</text>
        <text x="40.8px" y="273.12px" style="font-family:'ArialMT', 'Arial', sans-serif;font-size:8px;">3</text>
    </g>
    <g transform="matrix(1.33333,0,0,1.33333,-43.2304,-102.243)">
        <text x="265.92px" y="257.76px" style="font-family:'ArialMT', 'Arial', sans-serif;font-size:10px;">O</text>
    </g>
    <g transform="matrix(1.33333,0,0,1.33333,-43.2304,-102.243)">
        <text x="225.84px" y="257.76px" style="font-family:'ArialMT', 'Arial', sans-serif;font-size:10px;">Ph</text>
    </g>
    <g transform="matrix(1.33333,0,0,1.33333,-43.2304,-102.243)">
        <text x="249.12px" y="227.76px" style="font-family:'ArialMT', 'Arial', sans-serif;font-size:10px;">Ph</text>
    </g>
    <g transform="matrix(1.33333,0,0,1.33333,-43.2304,-102.243)">
        <text x="318px" y="247.68px" style="font-family:'ArialMT', 'Arial', sans-serif;font-size:10px;">N</text>
    </g>
    <g transform="matrix(1.33333,0,0,1.33333,-43.2304,-102.243)">
        <text x="335.28px" y="257.76px" style="font-family:'ArialMT', 'Arial', sans-serif;font-size:10px;">CH</text>
        <text x="349.68px" y="260.4px" style="font-family:'ArialMT', 'Arial', sans-serif;font-size:8px;">3</text>
    </g>
    <g transform="matrix(1.33333,0,0,1.33333,-43.2304,-102.243)">
        <text x="318px" y="227.76px" style="font-family:'ArialMT', 'Arial', sans-serif;font-size:10px;">CH</text>
        <text x="332.4px" y="230.4px" style="font-family:'ArialMT', 'Arial', sans-serif;font-size:8px;">3</text>
    </g>
    <g transform="matrix(1.33333,0,0,1.33333,-43.2304,-102.243)">
        <text x="414.96px" y="245.28px" style="font-family:'ArialMT', 'Arial', sans-serif;font-size:10px;">O</text>
    </g>
    <g transform="matrix(1.33333,0,0,1.33333,-43.2304,-102.243)">
        <text x="407.76px" y="245.28px" style="font-family:'ArialMT', 'Arial', sans-serif;font-size:10px;">H</text>
    </g>
    <g transform="matrix(1.33333,0,0,1.33333,-43.2304,-102.243)">
        <text x="478.08px" y="227.76px" style="font-family:'ArialMT', 'Arial', sans-serif;font-size:10px;">O</text>
    </g>
    <g transform="matrix(1.33333,0,0,1.33333,-43.2304,-102.243)">
        <text x="470.88px" y="227.76px" style="font-family:'ArialMT', 'Arial', sans-serif;font-size:10px;">H</text>
    </g>
    <g transform="matrix(1.33333,0,0,1.33333,-43.2304,-102.243)">
        <text x="508.32px" y="245.04px" style="font-family:'ArialMT', 'Arial', sans-serif;font-size:10px;">Ph</text>
    </g>
    <g transform="matrix(1.33333,0,0,1.33333,-43.2304,-102.243)">
        <text x="480.96px" y="264.48px" style="font-family:'ArialMT', 'Arial', sans-serif;font-size:10px;">Ph</text>
    </g>
    <g transform="matrix(1.33333,0,0,1.33333,-43.2304,-102.243)">
        <text x="182.88px" y="387.84px" style="font-family:'ArialMT', 'Arial', sans-serif;font-size:10px;">O<tspan x="190.8px " y="387.84px ">H</tspan></text>
    </g>
    <g transform="matrix(1.33333,0,0,1.33333,-43.2304,-102.243)">
        <text x="166.08px" y="357.84px" style="font-family:'ArialMT', 'Arial', sans-serif;font-size:10px;">C</text>
    </g>
    <g transform="matrix(1.33333,0,0,1.33333,-43.2304,-102.243)">
        <text x="154.56px" y="357.84px" style="font-family:'ArialMT', 'Arial', sans-serif;font-size:10px;">H</text>
        <text x="161.76px" y="360.48px" style="font-family:'ArialMT', 'Arial', sans-serif;font-size:8px;">3</text>
    </g>
    <g transform="matrix(1.33333,0,0,1.33333,-43.2304,-102.243)">
        <text x="217.44px" y="387.84px" style="font-family:'ArialMT', 'Arial', sans-serif;font-size:10px;">O<tspan x="225.36px " y="387.84px ">H</tspan></text>
    </g>
    <g transform="matrix(1.33333,0,0,1.33333,-43.2304,-102.243)">
        <text x="234.96px" y="377.76px" style="font-family:'ArialMT', 'Arial', sans-serif;font-size:10px;">CH</text>
        <text x="249.36px" y="380.4px" style="font-family:'ArialMT', 'Arial', sans-serif;font-size:8px;">2</text>
    </g>
    <g transform="matrix(1.33333,0,0,1.33333,-43.2304,-102.243)">
        <text x="258px" y="347.04px" style="font-family:'ArialMT', 'Arial', sans-serif;font-size:10px;">CH</text>
        <text x="272.4px" y="349.68px" style="font-family:'ArialMT', 'Arial', sans-serif;font-size:8px;">3</text>
    </g>
    <g transform="matrix(1.33333,0,0,1.33333,-43.2304,-102.243)">
        <text x="430.08px" y="344.64px" style="font-family:'ArialMT', 'Arial', sans-serif;font-size:10px;">O<tspan x="438px " y="344.64px ">H</tspan></text>
    </g>
    <g transform="matrix(1.33333,0,0,1.33333,-43.2304,-102.243)">
        <text x="62.16px" y="168.24px" style="font-family:'ArialMT', 'Arial', sans-serif;font-size:10px;">1</text>
    </g>
    <g transform="matrix(1.33333,0,0,1.33333,-43.2304,-102.243)">
        <text x="163.68px" y="167.52px" style="font-family:'ArialMT', 'Arial', sans-serif;font-size:10px;">2</text>
    </g>
    <g transform="matrix(1.33333,0,0,1.33333,-43.2304,-102.243)">
        <text x="260.4px" y="167.04px" style="font-family:'ArialMT', 'Arial', sans-serif;font-size:10px;">3</text>
    </g>
    <g transform="matrix(1.33333,0,0,1.33333,-43.2304,-102.243)">
        <text x="378.96px" y="168.24px" style="font-family:'ArialMT', 'Arial', sans-serif;font-size:10px;">4</text>
    </g>
    <g transform="matrix(1.33333,0,0,1.33333,-43.2304,-102.243)">
        <text x="474.24px" y="166.08px" style="font-family:'ArialMT', 'Arial', sans-serif;font-size:10px;">5</text>
    </g>
    <g transform="matrix(1.33333,0,0,1.33333,-43.2304,-102.243)">
        <text x="112.56px" y="289.68px" style="font-family:'ArialMT', 'Arial', sans-serif;font-size:10px;">6</text>
    </g>
    <g transform="matrix(1.33333,0,0,1.33333,-43.2304,-102.243)">
        <text x="286.56px" y="287.28px" style="font-family:'ArialMT', 'Arial', sans-serif;font-size:10px;">7</text>
    </g>
    <g transform="matrix(1.33333,0,0,1.33333,-43.2304,-102.243)">
        <text x="476.64px" y="285.6px" style="font-family:'ArialMT', 'Arial', sans-serif;font-size:10px;">8</text>
    </g>
    <g transform="matrix(1.33333,0,0,1.33333,-43.2304,-102.243)">
        <text x="203.76px" y="406.56px" style="font-family:'ArialMT', 'Arial', sans-serif;font-size:10px;">9</text>
    </g>
    <g transform="matrix(1.33333,0,0,1.33333,-43.2304,-102.243)">
        <text x="361.92px" y="402.96px" style="font-family:'ArialMT', 'Arial', sans-serif;font-size:10px;">10</text>
    </g>
    <g transform="matrix(0,-1.33333,-1.33333,0,1023.61,169.077)">
        <path d="M70.89,719.28L90.81,719.28" style="fill:none;fill-rule:nonzero;stroke:black;stroke-width:0.72px;"/>
    </g>
    <g transform="matrix(1.15468,0.666702,0.666702,-1.15468,-519.833,840.994)">
        <path d="M62.266,734.22L82.184,734.22" style="fill:none;fill-rule:nonzero;stroke:black;stroke-width:0.72px;"/>
    </g>
    <g transform="matrix(1.15458,0.666876,0.666876,-1.15458,-518.313,842.548)">
        <path d="M62.248,731.31L78.842,731.31" style="fill:none;fill-rule:nonzero;stroke:black;stroke-width:0.72px;"/>
    </g>
    <g transform="matrix(1.15468,-0.666702,-0.666702,-1.15468,439.258,942.637)">
        <path d="M62.266,704.34L82.184,704.34" style="fill:none;fill-rule:nonzero;stroke:black;stroke-width:0.72px;"/>
    </g>
    <g transform="matrix(1.15458,-0.666876,-0.666876,-1.15458,441.028,940.938)">
        <path d="M62.248,707.25L78.842,707.25" style="fill:none;fill-rule:nonzero;stroke:black;stroke-width:0.72px;"/>
    </g>
    <g transform="matrix(1.15468,-0.666702,-0.666702,-1.15468,456.097,925.798)">
        <path d="M45.016,734.22L64.934,734.22" style="fill:none;fill-rule:nonzero;stroke:black;stroke-width:0.72px;"/>
    </g>
    <g transform="matrix(1.15468,0.666702,0.666702,-1.15468,-502.994,857.833)">
        <path d="M45.016,704.34L64.934,704.34" style="fill:none;fill-rule:nonzero;stroke:black;stroke-width:0.72px;"/>
    </g>
    <g transform="matrix(0,-1.33333,-1.33333,0,977.61,123.077)">
        <path d="M36.39,719.28L56.31,719.28" style="fill:none;fill-rule:nonzero;stroke:black;stroke-width:0.72px;"/>
    </g>
    <g transform="matrix(0,-1.33333,-1.33333,0,982.09,127.557)">
        <path d="M41.41,719.28L58.01,719.28" style="fill:none;fill-rule:nonzero;stroke:black;stroke-width:0.72px;"/>
    </g>
    <g transform="matrix(0.948589,-0.936993,-0.936993,-0.948589,679.207,818.919)">
        <path d="M78.362,735.3L95.608,735.3" style="fill:none;fill-rule:nonzero;stroke:black;stroke-width:0.72px;"/>
    </g>
    <g transform="matrix(1.28583,0.352748,0.352748,-1.28583,-298.934,948.986)">
        <path d="M92.765,738.725L112.685,738.725" style="fill:none;fill-rule:nonzero;stroke:black;stroke-width:0.72px;"/>
    </g>
    <g transform="matrix(0.949654,-0.935914,-0.935914,-0.949654,696.458,846.303)">
        <path d="M109.956,741.88L126.454,741.88" style="fill:none;fill-rule:nonzero;stroke:black;stroke-width:0.72px;"/>
    </g>
    <g transform="matrix(0,-1.33333,-1.33333,0,1163.77,306.037)">
        <path d="M174.81,720.48L194.73,720.48" style="fill:none;fill-rule:nonzero;stroke:black;stroke-width:0.72px;"/>
    </g>
    <g transform="matrix(1.15468,0.666702,0.666702,-1.15468,-502.068,771.496)">
        <path d="M166.186,735.42L186.104,735.42" style="fill:none;fill-rule:nonzero;stroke:black;stroke-width:0.72px;"/>
    </g>
    <g transform="matrix(1.15468,-0.666702,-0.666702,-1.15468,458.624,1011.71)">
        <path d="M166.186,705.54L186.104,705.54" style="fill:none;fill-rule:nonzero;stroke:black;stroke-width:0.72px;"/>
    </g>
    <g transform="matrix(1.15468,-0.666702,-0.666702,-1.15468,475.463,994.868)">
        <path d="M148.936,735.42L168.854,735.42" style="fill:none;fill-rule:nonzero;stroke:black;stroke-width:0.72px;"/>
    </g>
    <g transform="matrix(1.15468,0.666702,0.666702,-1.15468,-485.228,788.335)">
        <path d="M148.936,705.54L168.854,705.54" style="fill:none;fill-rule:nonzero;stroke:black;stroke-width:0.72px;"/>
    </g>
    <g transform="matrix(0,-1.33333,-1.33333,0,1117.77,260.037)">
        <path d="M140.31,720.48L160.23,720.48" style="fill:none;fill-rule:nonzero;stroke:black;stroke-width:0.72px;"/>
    </g>
    <g transform="matrix(1.22272,-0.531734,-0.531734,-1.22272,368.704,1040.89)">
        <path d="M183.575,733.516L198.394,733.516L198.202,735.18L198.014,736.854L183.575,733.516Z" style="stroke:black;stroke-width:0.24px;"/>
    </g>
    <g transform="matrix(0.665472,-1.15539,-1.15539,-0.665472,901.104,776.414)">
        <path d="M194.262,704.095L197.528,704.095" style="fill:none;fill-rule:nonzero;stroke:black;stroke-width:0.72px;"/>
    </g>
    <g transform="matrix(0.667037,-1.15449,-1.15449,-0.667037,900.164,773.822)">
        <path d="M192.311,705.415L194.909,705.415" style="fill:none;fill-rule:nonzero;stroke:black;stroke-width:0.72px;"/>
    </g>
    <g transform="matrix(0.6675,-1.15422,-1.15422,-0.6675,899.889,770.571)">
        <path d="M190.361,706.74L192.279,706.74" style="fill:none;fill-rule:nonzero;stroke:black;stroke-width:0.72px;"/>
    </g>
    <g transform="matrix(0.671828,-1.15171,-1.15171,-0.671828,897.294,769.644)">
        <path d="M188.41,708.06L189.66,708.06" style="fill:none;fill-rule:nonzero;stroke:black;stroke-width:0.72px;"/>
    </g>
    <g transform="matrix(0.668957,-1.15337,-1.15337,-0.668957,899.026,764.421)">
        <path d="M186.466,709.38L187.044,709.38" style="fill:none;fill-rule:nonzero;stroke:black;stroke-width:0.72px;"/>
    </g>
    <g transform="matrix(0,-1.33333,-1.33333,0,1291.45,433.717)">
        <path d="M270.57,720.48L290.49,720.48" style="fill:none;fill-rule:nonzero;stroke:black;stroke-width:0.72px;"/>
    </g>
    <g transform="matrix(1.15468,0.666702,0.666702,-1.15468,-484.96,707.652)">
        <path d="M261.946,735.42L281.864,735.42" style="fill:none;fill-rule:nonzero;stroke:black;stroke-width:0.72px;"/>
    </g>
    <g transform="matrix(1.15468,-0.666702,-0.666702,-1.15468,475.731,1075.55)">
        <path d="M261.946,705.54L281.864,705.54" style="fill:none;fill-rule:nonzero;stroke:black;stroke-width:0.72px;"/>
    </g>
    <g transform="matrix(1.15468,-0.666702,-0.666702,-1.15468,492.571,1058.71)">
        <path d="M244.696,735.42L264.614,735.42" style="fill:none;fill-rule:nonzero;stroke:black;stroke-width:0.72px;"/>
    </g>
    <g transform="matrix(1.15468,0.666702,0.666702,-1.15468,-468.121,724.491)">
        <path d="M244.696,705.54L264.614,705.54" style="fill:none;fill-rule:nonzero;stroke:black;stroke-width:0.72px;"/>
    </g>
    <g transform="matrix(0,-1.33333,-1.33333,0,1245.45,387.717)">
        <path d="M236.07,720.48L255.99,720.48" style="fill:none;fill-rule:nonzero;stroke:black;stroke-width:0.72px;"/>
    </g>
    <g transform="matrix(0,-1.33333,-1.33333,0,1249.93,392.197)">
        <path d="M241.09,720.48L257.69,720.48" style="fill:none;fill-rule:nonzero;stroke:black;stroke-width:0.72px;"/>
    </g>
    <g transform="matrix(-0.666796,-1.15463,-1.15463,0.666796,1407.26,-100.753)">
        <path d="M294.316,734.4L308.174,734.4" style="fill:none;fill-rule:nonzero;stroke:black;stroke-width:0.72px;"/>
    </g>
    <g transform="matrix(0.666796,1.15463,1.15463,-0.666796,-708.871,182.99)">
        <path d="M287.386,746.4L301.244,746.4" style="fill:none;fill-rule:nonzero;stroke:black;stroke-width:0.72px;"/>
    </g>
    <g transform="matrix(-1.15476,0.666568,0.666568,1.15476,217.082,-1033.29)">
        <path d="M296.829,743.95L311.031,743.95" style="fill:none;fill-rule:nonzero;stroke:black;stroke-width:0.72px;"/>
    </g>
    <g transform="matrix(1.15468,-0.666702,-0.666702,-1.15468,498.734,1081.71)">
        <path d="M279.196,735.42L299.114,735.42" style="fill:none;fill-rule:nonzero;stroke:black;stroke-width:0.72px;"/>
    </g>
    <g transform="matrix(-0.297798,1.29965,1.29965,0.297798,-400.803,-627.283)">
        <path d="M350.947,724.69L365.453,724.69" style="fill:none;fill-rule:nonzero;stroke:black;stroke-width:0.72px;"/>
    </g>
    <g transform="matrix(-0.829985,-1.04351,-1.04351,0.829985,1482.28,-136.697)">
        <path d="M352.82,709.825L372.74,709.825" style="fill:none;fill-rule:nonzero;stroke:black;stroke-width:0.72px;"/>
    </g>
    <g transform="matrix(-1.20186,0.577336,0.577336,1.20186,472.421,-1077.22)">
        <path d="M365.289,742.54L379.701,742.54" style="fill:none;fill-rule:nonzero;stroke:black;stroke-width:0.72px;"/>
    </g>
    <g transform="matrix(-1.33333,-0.000669008,-0.000669008,1.33333,967.759,-851.496)">
        <path d="M368.98,702.025L388.91,702.025" style="fill:none;fill-rule:nonzero;stroke:black;stroke-width:0.72px;"/>
    </g>
    <g transform="matrix(-1.33333,-0.000737463,-0.000737463,1.33333,967.823,-860.43)">
        <path d="M369.91,705.385L387.99,705.385" style="fill:none;fill-rule:nonzero;stroke:black;stroke-width:0.72px;"/>
    </g>
    <g transform="matrix(-1.20081,-0.57951,-0.57951,1.20081,1363.88,-638.011)">
        <path d="M378.277,742.54L392.633,742.54" style="fill:none;fill-rule:nonzero;stroke:black;stroke-width:0.72px;"/>
    </g>
    <g transform="matrix(-0.832192,1.04175,1.04175,0.832192,72.9913,-928.392)">
        <path d="M385.167,709.8L405.083,709.8" style="fill:none;fill-rule:nonzero;stroke:black;stroke-width:0.72px;"/>
    </g>
    <g transform="matrix(0.295257,1.30023,1.30023,-0.295257,-570.519,-251.687)">
        <path d="M392.459,724.67L407.001,724.67" style="fill:none;fill-rule:nonzero;stroke:black;stroke-width:0.72px;"/>
    </g>
    <g transform="matrix(0.997555,-0.884682,-0.884682,-0.997555,749.193,1108.11)">
        <path d="M377.339,750.01L390.451,750.01" style="fill:none;fill-rule:nonzero;stroke:black;stroke-width:0.72px;"/>
    </g>
    <g transform="matrix(-1.00893,-0.871684,-0.871684,1.00893,1486.79,-409.798)">
        <path d="M367.812,749.82L380.538,749.82" style="fill:none;fill-rule:nonzero;stroke:black;stroke-width:0.72px;"/>
    </g>
    <g transform="matrix(1.07382,-0.790371,-0.790371,-1.07382,659.549,1215.54)">
        <path d="M479.619,729.435L493.401,729.435" style="fill:none;fill-rule:nonzero;stroke:black;stroke-width:0.72px;"/>
    </g>
    <g transform="matrix(0.420232,1.26538,1.26538,-0.420232,-536.941,-276.764)">
        <path d="M478.957,742.975L498.883,742.975" style="fill:none;fill-rule:nonzero;stroke:black;stroke-width:0.72px;"/>
    </g>
    <g transform="matrix(1.08381,0.776618,0.776618,-1.08381,-493.443,476.852)">
        <path d="M458.53,729.265L472.42,729.265" style="fill:none;fill-rule:nonzero;stroke:black;stroke-width:0.72px;"/>
    </g>
    <g transform="matrix(1.3333,-0.00870129,-0.00870129,-1.3333,-36.6704,1024.44)">
        <path d="M465.86,752.365L485.78,752.365" style="fill:none;fill-rule:nonzero;stroke:black;stroke-width:0.72px;"/>
    </g>
    <g transform="matrix(-0.403526,1.2708,1.2708,0.403526,-183.294,-858.016)">
        <path d="M452.883,742.805L472.807,742.805" style="fill:none;fill-rule:nonzero;stroke:black;stroke-width:0.72px;"/>
    </g>
    <g transform="matrix(0.934604,-0.950943,-0.950943,-0.934604,856.366,1198.1)">
        <path d="M490.23,737.885L502.47,737.885" style="fill:none;fill-rule:nonzero;stroke:black;stroke-width:0.72px;"/>
    </g>
    <g transform="matrix(0.58082,1.20018,1.20018,-0.58082,-546.482,-121.477)">
        <path d="M489.326,729.16L499.014,729.16" style="fill:none;fill-rule:nonzero;stroke:black;stroke-width:0.72px;"/>
    </g>
    <g transform="matrix(-1.12443,-0.71654,-0.71654,1.12443,1602.05,-464.268)">
        <path d="M448.562,736.595L460.788,736.595" style="fill:none;fill-rule:nonzero;stroke:black;stroke-width:0.72px;"/>
    </g>
    <g transform="matrix(-0.406972,1.26971,1.26971,0.406972,-170.275,-828.259)">
        <path d="M452.518,727.975L463.722,727.975" style="fill:none;fill-rule:nonzero;stroke:black;stroke-width:0.72px;"/>
    </g>
    <g transform="matrix(1.15468,0.666702,0.666702,-1.15468,-433.753,849.998)">
        <path d="M81.946,610.38L101.864,610.38" style="fill:none;fill-rule:nonzero;stroke:black;stroke-width:0.72px;"/>
    </g>
    <g transform="matrix(1.15458,0.666876,0.666876,-1.15458,-432.21,851.561)">
        <path d="M81.928,607.47L98.522,607.47" style="fill:none;fill-rule:nonzero;stroke:black;stroke-width:0.72px;"/>
    </g>
    <g transform="matrix(1.15468,-0.666702,-0.666702,-1.15468,360.209,977.882)">
        <path d="M81.946,580.5L101.864,580.5" style="fill:none;fill-rule:nonzero;stroke:black;stroke-width:0.72px;"/>
    </g>
    <g transform="matrix(1.15458,-0.666876,-0.666876,-1.15458,361.96,976.199)">
        <path d="M81.928,583.41L98.522,583.41" style="fill:none;fill-rule:nonzero;stroke:black;stroke-width:0.72px;"/>
    </g>
    <g transform="matrix(1.15468,-0.666702,-0.666702,-1.15468,377.049,961.043)">
        <path d="M64.696,610.38L84.614,610.38" style="fill:none;fill-rule:nonzero;stroke:black;stroke-width:0.72px;"/>
    </g>
    <g transform="matrix(1.15468,0.666702,0.666702,-1.15468,-416.914,866.836)">
        <path d="M64.696,580.5L84.614,580.5" style="fill:none;fill-rule:nonzero;stroke:black;stroke-width:0.72px;"/>
    </g>
    <g transform="matrix(0,-1.33333,-1.33333,0,838.73,314.437)">
        <path d="M56.07,595.44L75.99,595.44" style="fill:none;fill-rule:nonzero;stroke:black;stroke-width:0.72px;"/>
    </g>
    <g transform="matrix(0,-1.33333,-1.33333,0,843.21,318.917)">
        <path d="M61.09,595.44L77.69,595.44" style="fill:none;fill-rule:nonzero;stroke:black;stroke-width:0.72px;"/>
    </g>
    <g transform="matrix(0,-1.33333,-1.33333,0,930.743,406.451)">
        <path d="M125.08,595.44L145,595.44" style="fill:none;fill-rule:nonzero;stroke:black;stroke-width:0.72px;"/>
    </g>
    <g transform="matrix(1.15485,0.666412,0.666412,-1.15485,-427.433,827.132)">
        <path d="M116.446,610.38L136.374,610.38" style="fill:none;fill-rule:nonzero;stroke:black;stroke-width:0.72px;"/>
    </g>
    <g transform="matrix(1.15468,-0.666702,-0.666702,-1.15468,383.212,984.045)">
        <path d="M99.196,610.38L119.114,610.38" style="fill:none;fill-rule:nonzero;stroke:black;stroke-width:0.72px;"/>
    </g>
    <g transform="matrix(0,-1.33333,-1.33333,0,884.73,360.437)">
        <path d="M90.57,595.44L110.49,595.44" style="fill:none;fill-rule:nonzero;stroke:black;stroke-width:0.72px;"/>
    </g>
    <g transform="matrix(0.925755,0.95956,0.95956,-0.925755,-540.011,648.285)">
        <path d="M131.905,578.1L152.415,578.1" style="fill:none;fill-rule:nonzero;stroke:black;stroke-width:0.72px;"/>
    </g>
    <g transform="matrix(1.33333,0,0,1.33333,-43.2304,-501.603)">
        <path d="M149.28,570.72L170.64,570.72" style="fill:none;fill-rule:nonzero;stroke:black;stroke-width:0.72px;"/>
    </g>
    <g transform="matrix(1.33333,0,0,1.33333,-43.2304,-510.563)">
        <path d="M149.64,574.08L170.64,574.08" style="fill:none;fill-rule:nonzero;stroke:black;stroke-width:0.72px;"/>
    </g>
    <g transform="matrix(0.00427348,-1.33333,-1.33333,-0.00427348,942.129,351.239)">
        <path d="M111.56,621.6L124.04,621.6" style="fill:none;fill-rule:nonzero;stroke:black;stroke-width:0.72px;"/>
    </g>
    <g transform="matrix(1.33324,-0.0161759,-0.0161759,-1.33324,-33.2625,1022.29)">
        <path d="M117.779,615.455L133.441,615.455" style="fill:none;fill-rule:nonzero;stroke:black;stroke-width:0.72px;"/>
    </g>
    <g transform="matrix(-1.15475,0.666584,0.666584,1.15475,-282.623,-467.014)">
        <path d="M52.294,581.8L67.016,581.8" style="fill:none;fill-rule:nonzero;stroke:black;stroke-width:0.72px;"/>
    </g>
    <g transform="matrix(1.15459,0.666865,0.666865,-1.15459,-393.511,741.44)">
        <path d="M251.697,594.635L265.913,594.635" style="fill:none;fill-rule:nonzero;stroke:black;stroke-width:0.72px;"/>
    </g>
    <g transform="matrix(1.15462,-0.666811,-0.666811,-1.15462,396.965,1078.05)">
        <path d="M237.987,594.26L253.703,594.26" style="fill:none;fill-rule:nonzero;stroke:black;stroke-width:0.72px;"/>
    </g>
    <g transform="matrix(0,1.33333,1.33333,0,-513.797,-123.983)">
        <path d="M245.265,605.575L260.035,605.575" style="fill:none;fill-rule:nonzero;stroke:black;stroke-width:0.72px;"/>
    </g>
    <g transform="matrix(-1.15468,-0.666702,-0.666702,1.15468,1088.18,-258.397)">
        <path d="M285.826,593.21L305.744,593.21" style="fill:none;fill-rule:nonzero;stroke:black;stroke-width:0.72px;"/>
    </g>
    <g transform="matrix(-1.15478,0.666534,0.666534,1.15478,335.383,-659.442)">
        <path d="M303.434,591.875L318.016,591.875" style="fill:none;fill-rule:nonzero;stroke:black;stroke-width:0.72px;"/>
    </g>
    <g transform="matrix(1.15454,-0.666943,-0.666943,-1.15454,403.585,1101.4)">
        <path d="M273.843,594.62L288.117,594.62" style="fill:none;fill-rule:nonzero;stroke:black;stroke-width:0.72px;"/>
    </g>
    <g transform="matrix(1.15477,0.666542,0.666542,-1.15477,-379.678,694.27)">
        <path d="M325.529,593.235L334.951,593.235" style="fill:none;fill-rule:nonzero;stroke:black;stroke-width:0.72px;"/>
    </g>
    <g transform="matrix(0,-1.33333,-1.33333,0,1196.53,638.317)">
        <path d="M316.86,608.16L326.46,608.16" style="fill:none;fill-rule:nonzero;stroke:black;stroke-width:0.72px;"/>
    </g>
    <g transform="matrix(-1.15487,-0.666378,-0.666378,1.15487,1422.62,-171.745)">
        <path d="M422.892,594.24L437.058,594.24" style="fill:none;fill-rule:nonzero;stroke:black;stroke-width:0.72px;"/>
    </g>
    <g transform="matrix(-1.15468,0.666702,0.666702,1.15468,666.135,-758.248)">
        <path d="M434.776,595.68L454.694,595.68" style="fill:none;fill-rule:nonzero;stroke:black;stroke-width:0.72px;"/>
    </g>
    <g transform="matrix(-1.15468,-0.666702,-0.666702,1.15468,1503.34,-153.736)">
        <path d="M452.026,595.68L471.944,595.68" style="fill:none;fill-rule:nonzero;stroke:black;stroke-width:0.72px;"/>
    </g>
    <g transform="matrix(-0.666796,-1.15463,-1.15463,0.666796,1634.59,370.324)">
        <path d="M481.546,606.96L495.404,606.96" style="fill:none;fill-rule:nonzero;stroke:black;stroke-width:0.72px;"/>
    </g>
    <g transform="matrix(-1.33333,0,0,1.33333,1289.17,-582.243)">
        <path d="M491.94,600.96L507.36,600.96" style="fill:none;fill-rule:nonzero;stroke:black;stroke-width:0.72px;"/>
    </g>
    <g transform="matrix(0.105226,-1.32917,-1.32917,-0.105226,1349.44,944.233)">
        <path d="M484.147,593.76L498.593,593.76" style="fill:none;fill-rule:nonzero;stroke:black;stroke-width:0.72px;"/>
    </g>
    <g transform="matrix(1.20156,-0.577963,-0.577963,-1.20156,364.559,1219.96)">
        <path d="M469.44,595.83L493.11,595.83" style="fill:none;fill-rule:nonzero;stroke:black;stroke-width:0.72px;"/>
    </g>
    <g transform="matrix(1.15468,0.666702,0.666702,-1.15468,-336.986,801.841)">
        <path d="M185.626,493.02L205.544,493.02" style="fill:none;fill-rule:nonzero;stroke:black;stroke-width:0.72px;"/>
    </g>
    <g transform="matrix(1.15485,-0.666401,-0.666401,-1.15485,318.425,1052.44)">
        <path d="M173.257,494.33L187.943,494.33" style="fill:none;fill-rule:nonzero;stroke:black;stroke-width:0.72px;"/>
    </g>
    <g transform="matrix(0,-1.33333,-1.33333,0,879.57,688.077)">
        <path d="M214.02,470.64L228.9,470.64" style="fill:none;fill-rule:nonzero;stroke:black;stroke-width:0.72px;"/>
    </g>
    <g transform="matrix(1.15468,0.666702,0.666702,-1.15468,-327.264,792.119)">
        <path d="M202.876,483.06L222.794,483.06" style="fill:none;fill-rule:nonzero;stroke:black;stroke-width:0.72px;"/>
    </g>
    <g transform="matrix(1.15468,-0.666702,-0.666702,-1.15468,313.769,1064.41)">
        <path d="M185.626,483.06L205.544,483.06" style="fill:none;fill-rule:nonzero;stroke:black;stroke-width:0.72px;"/>
    </g>
    <g transform="matrix(0,-1.33333,-1.33333,0,833.57,642.077)">
        <path d="M179.52,470.64L194.4,470.64" style="fill:none;fill-rule:nonzero;stroke:black;stroke-width:0.72px;"/>
    </g>
    <g transform="matrix(0,-1.33333,-1.33333,0,918.183,699.971)">
        <path d="M233.02,480.66L247.78,480.66" style="fill:none;fill-rule:nonzero;stroke:black;stroke-width:0.72px;"/>
    </g>
    <g transform="matrix(0,-1.33333,-1.33333,0,913.703,695.491)">
        <path d="M229.66,480.66L244.42,480.66" style="fill:none;fill-rule:nonzero;stroke:black;stroke-width:0.72px;"/>
    </g>
    <g transform="matrix(1.15485,0.666412,0.666412,-1.15485,-330.717,778.985)">
        <path d="M220.126,493.02L240.054,493.02" style="fill:none;fill-rule:nonzero;stroke:black;stroke-width:0.72px;"/>
    </g>
    <g transform="matrix(1.15468,-0.666702,-0.666702,-1.15468,323.491,1074.14)">
        <path d="M202.876,493.02L222.794,493.02" style="fill:none;fill-rule:nonzero;stroke:black;stroke-width:0.72px;"/>
    </g>
    <g transform="matrix(1.2034,-0.574112,-0.574112,-1.2034,271.676,1098.65)">
        <path d="M237.731,492.41L258.029,492.41" style="fill:none;fill-rule:nonzero;stroke:black;stroke-width:0.72px;"/>
    </g>
    <g transform="matrix(0,-1.33333,-1.33333,0,1106.81,889.077)">
        <path d="M372.09,480.48L392.01,480.48" style="fill:none;fill-rule:nonzero;stroke:black;stroke-width:0.72px;"/>
    </g>
    <g transform="matrix(1.15468,0.666702,0.666702,-1.15468,-306.814,682.846)">
        <path d="M363.466,495.42L383.384,495.42" style="fill:none;fill-rule:nonzero;stroke:black;stroke-width:0.72px;"/>
    </g>
    <g transform="matrix(1.15468,-0.666702,-0.666702,-1.15468,333.86,1186.11)">
        <path d="M363.466,465.54L383.384,465.54" style="fill:none;fill-rule:nonzero;stroke:black;stroke-width:0.72px;"/>
    </g>
    <g transform="matrix(1.15468,-0.666702,-0.666702,-1.15468,350.699,1169.27)">
        <path d="M346.216,495.42L366.134,495.42" style="fill:none;fill-rule:nonzero;stroke:black;stroke-width:0.72px;"/>
    </g>
    <g transform="matrix(1.15468,0.666702,0.666702,-1.15468,-289.975,699.684)">
        <path d="M346.216,465.54L366.134,465.54" style="fill:none;fill-rule:nonzero;stroke:black;stroke-width:0.72px;"/>
    </g>
    <g transform="matrix(0,-1.33333,-1.33333,0,1060.81,843.077)">
        <path d="M337.59,480.48L357.51,480.48" style="fill:none;fill-rule:nonzero;stroke:black;stroke-width:0.72px;"/>
    </g>
    <g transform="matrix(0,-1.33333,-1.33333,0,1065.29,847.557)">
        <path d="M342.61,480.48L359.21,480.48" style="fill:none;fill-rule:nonzero;stroke:black;stroke-width:0.72px;"/>
    </g>
    <g transform="matrix(1.15468,-0.666702,-0.666702,-1.15468,356.863,1192.27)">
        <path d="M380.716,495.42L400.634,495.42" style="fill:none;fill-rule:nonzero;stroke:black;stroke-width:0.72px;"/>
    </g>
    <g transform="matrix(1.15468,0.666702,0.666702,-1.15468,-300.651,659.844)">
        <path d="M397.966,495.42L417.884,495.42" style="fill:none;fill-rule:nonzero;stroke:black;stroke-width:0.72px;"/>
    </g>
    <g transform="matrix(1.12889,-0.709488,-0.709488,-1.12889,393.977,1219.24)">
        <path d="M415.412,494.39L430.258,494.39" style="fill:none;fill-rule:nonzero;stroke:black;stroke-width:0.72px;"/>
    </g>
</svg>
