<?xml version="1.0" encoding="UTF-8" standalone="no"?>
<!DOCTYPE svg PUBLIC "-//W3C//DTD SVG 1.1//EN" "http://www.w3.org/Graphics/SVG/1.1/DTD/svg11.dtd">
<svg width="100%" height="100%" viewBox="0 0 345 125" version="1.1" xmlns="http://www.w3.org/2000/svg" xmlns:xlink="http://www.w3.org/1999/xlink" xml:space="preserve" xmlns:serif="http://www.serif.com/" style="fill-rule:evenodd;clip-rule:evenodd;stroke-linecap:round;stroke-linejoin:round;stroke-miterlimit:10;">
    <g transform="matrix(1.33333,0,0,1.33333,-230.288,-156.125)">
        <text x="175.68px" y="145.68px" style="font-family:'ArialMT', 'Arial', sans-serif;font-size:10px;">R	<tspan x="195.6px " y="145.68px ">C</tspan>H</text>
        <text x="210.025px" y="148.32px" style="font-family:'ArialMT', 'Arial', sans-serif;font-size:8px;">3</text>
        <text x="226.8px" y="145.68px" style="font-family:'ArialMT', 'Arial', sans-serif;font-size:10px;"><tspan x="226.8px 234.569px 244.56px " y="145.68px 145.68px 145.68px ">O	H</tspan></text>
    </g>
    <g transform="matrix(1.33333,0,0,1.33333,-230.288,-156.125)">
        <text x="309.36px" y="145.2px" style="font-family:'ArialMT', 'Arial', sans-serif;font-size:10px;">R</text>
        <text x="324.24px" y="147.84px" style="font-family:'ArialMT', 'Arial', sans-serif;font-size:18px;"><tspan x="324.24px " y="147.84px ">+</tspan></text>
        <text x="342.96px" y="144.72px" style="font-family:'ArialMT', 'Arial', sans-serif;font-size:10px;">H</text>
        <text x="350.175px" y="147.36px" style="font-family:'ArialMT', 'Arial', sans-serif;font-size:8px;">2</text>
        <text x="354.495px" y="144.72px" style="font-family:'ArialMT', 'Arial', sans-serif;font-size:10px;">C</text>
        <text x="374.88px" y="144.72px" style="font-family:'ArialMT', 'Arial', sans-serif;font-size:10px;">O</text>
        <text x="382.801px" y="137.76px" style="font-family:'ArialMT', 'Arial', sans-serif;font-size:8px;">+</text>
        <text x="393.36px" y="144.72px" style="font-family:'ArialMT', 'Arial', sans-serif;font-size:10px;"><tspan x="393.36px " y="144.72px ">H</tspan></text>
    </g>
    <g transform="matrix(1.33333,0,0,1.33333,-230.288,-156.125)">
        <text x="370.32px" y="189.12px" style="font-family:'ArialMT', 'Arial', sans-serif;font-size:10px;">C</text>
    </g>
    <g transform="matrix(1.33333,0,0,1.33333,-230.288,-156.125)">
        <text x="358.8px" y="189.12px" style="font-family:'ArialMT', 'Arial', sans-serif;font-size:10px;">H</text>
        <text x="366px" y="191.76px" style="font-family:'ArialMT', 'Arial', sans-serif;font-size:8px;">2</text>
    </g>
    <g transform="matrix(1.33333,0,0,1.33333,-230.288,-156.125)">
        <text x="390px" y="189.12px" style="font-family:'ArialMT', 'Arial', sans-serif;font-size:10px;">O</text>
        <text x="401.523px" y="192px" style="font-family:'ArialMT', 'Arial', sans-serif;font-size:18px;">+</text>
    </g>
    <g transform="matrix(1.33333,0,0,1.33333,-230.288,-156.125)">
        <text x="292.08px" y="205.2px" style="font-family:'ArialMT', 'Arial', sans-serif;font-size:9px;">(</text>
        <text x="298.067px" y="205.68px" style="font-family:'ArialMT', 'Arial', sans-serif;font-size:10px;"><tspan x="298.067px 305.277px 321.84px " y="205.68px 205.68px 205.68px ">R	L</tspan>i</text>
        <text x="331.44px" y="204.96px" style="font-family:'ArialMT', 'Arial', sans-serif;font-size:9px;">)</text>
    </g>
    <g transform="matrix(1.33333,0,0,1.33333,-230.288,-156.125)">
        <text x="415.2px" y="189.12px" style="font-family:'ArialMT', 'Arial', sans-serif;font-size:10px;">HX</text>
    </g>
    <g transform="matrix(1.33333,0,0,1.33333,-230.288,-156.125)">
        <text x="293.28px" y="191.04px" style="font-family:'ArialMT', 'Arial', sans-serif;font-size:10px;">R</text>
        <text x="312.72px" y="191.04px" style="font-family:'ArialMT', 'Arial', sans-serif;font-size:10px;">M</text>
        <text x="321.12px" y="191.04px" style="font-family:'ArialMT', 'Arial', sans-serif;font-size:10px;">gX</text>
    </g>
    <g transform="matrix(1.33333,0,0,1.33333,-230.288,-156.125)">
        <text x="194.64px" y="158.88px" style="font-family:'ArialMT', 'Arial', sans-serif;font-size:10px;">δ+</text>
    </g>
    <g transform="matrix(1.33333,0,0,1.33333,-230.288,-901.085)">
        <path d="M183.84,700.32L194.64,700.32" style="fill:none;fill-rule:nonzero;stroke:black;stroke-width:0.72px;"/>
    </g>
    <g transform="matrix(1.33333,0,0,1.33333,-230.288,-901.085)">
        <path d="M235.68,700.32L243.6,700.32" style="fill:none;fill-rule:nonzero;stroke:black;stroke-width:0.72px;"/>
    </g>
    <g transform="matrix(1.33333,0,0,1.33333,-230.288,-901.085)">
        <path d="M215.28,700.32L221.76,700.32" style="fill:none;fill-rule:nonzero;stroke:black;stroke-width:0.72px;"/>
    </g>
    <g transform="matrix(1.33333,0,0,1.33333,-230.288,-901.085)">
        <path d="M225.84,700.32L221.76,699.12L221.76,701.52L225.84,700.32Z" style="stroke:black;stroke-width:0.24px;"/>
    </g>
    <g transform="matrix(1.33333,0,0,1.33333,-230.288,-897.245)">
        <path d="M264.96,698.88L299.04,698.88" style="fill:none;fill-rule:nonzero;stroke:black;stroke-width:0.72px;"/>
    </g>
    <g transform="matrix(1.33333,0,0,1.33333,-230.288,-904.925)">
        <path d="M264.96,701.76L299.04,701.76" style="fill:none;fill-rule:nonzero;stroke:black;stroke-width:0.72px;"/>
    </g>
    <g transform="matrix(1.33333,0,0,1.33333,-230.288,-901.085)">
        <path d="M294.48,696.72L302.4,700.32L294.48,703.92" style="fill:none;fill-rule:nonzero;stroke:black;stroke-width:0.72px;"/>
    </g>
    <g transform="matrix(1.33333,0,0,1.33333,-230.288,-922.845)">
        <path d="M313.68,708.48L316.56,708.48" style="fill:none;fill-rule:nonzero;stroke:black;stroke-width:0.48px;"/>
    </g>
    <g transform="matrix(1.33333,0,0,1.33333,-230.288,-899.165)">
        <path d="M362.64,699.6L373.92,699.6" style="fill:none;fill-rule:nonzero;stroke:black;stroke-width:0.72px;"/>
    </g>
    <g transform="matrix(1.33333,0,0,1.33333,-230.288,-908.125)">
        <path d="M362.64,702.96L373.92,702.96" style="fill:none;fill-rule:nonzero;stroke:black;stroke-width:0.72px;"/>
    </g>
    <g transform="matrix(1.33333,0,0,1.33333,-230.288,-903.645)">
        <path d="M383.76,701.28L392.4,701.28" style="fill:none;fill-rule:nonzero;stroke:black;stroke-width:0.72px;"/>
    </g>
    <g transform="matrix(0,1.33333,1.33333,0,-639.888,-435.165)">
        <path d="M363.84,679.2L380.16,679.2" style="fill:none;fill-rule:nonzero;stroke:black;stroke-width:0.72px;"/>
    </g>
    <g transform="matrix(0,1.33333,1.33333,0,-636.048,-439.005)">
        <path d="M366.72,679.2L383.04,679.2" style="fill:none;fill-rule:nonzero;stroke:black;stroke-width:0.72px;"/>
    </g>
    <g transform="matrix(1.33333,0,0,1.33333,-230.288,-824.605)">
        <path d="M377.04,667.68L373.44,675.6L369.84,667.68" style="fill:none;fill-rule:nonzero;stroke:black;stroke-width:0.72px;"/>
    </g>
    <g transform="matrix(1.33333,0,0,1.33333,-230.288,-780.765)">
        <path d="M378.48,655.2L389.04,655.2" style="fill:none;fill-rule:nonzero;stroke:black;stroke-width:0.72px;"/>
    </g>
    <g transform="matrix(1.33333,0,0,1.33333,-230.288,-789.725)">
        <path d="M378.48,658.56L389.04,658.56" style="fill:none;fill-rule:nonzero;stroke:black;stroke-width:0.72px;"/>
    </g>
    <g transform="matrix(1.33333,0,0,1.33333,-230.288,-741.085)">
        <path d="M306.24,640.32L320.88,640.32" style="fill:none;fill-rule:nonzero;stroke:black;stroke-width:0.72px;"/>
    </g>
    <g transform="matrix(1.33333,0,0,1.33333,-230.288,-902.045)">
        <path d="M187.92,689.52L189.12,690.72L190.08,691.92L190.8,693.12L191.52,694.56L192,696.24L192.24,697.68L192.48,699.36L192.48,700.8L192,702.24L191.76,703.68L191.28,705.12L189.84,707.52L187.92,709.44L184.32,711.6L183.6,711.84" style="fill:none;fill-rule:nonzero;stroke:black;stroke-width:0.48px;"/>
    </g>
    <g transform="matrix(-1.32111,0.180151,0.180151,1.32111,139.49,-902.821)">
        <path d="M183.803,693.225L189.131,693.225L185.251,689.636L185.305,691.809L183.803,693.225Z" style="stroke:black;stroke-width:0.48px;"/>
    </g>
    <g transform="matrix(1.33333,0,0,1.33333,-230.288,-780.125)">
        <path d="M301.44,654.96L311.76,654.96" style="fill:none;fill-rule:nonzero;stroke:black;stroke-width:0.72px;"/>
    </g>
    <g transform="matrix(1.33333,0,0,1.33333,-230.288,-939.165)">
        <path d="M198.48,722.88L198.48,720.72L198.96,719.04L199.2,717.36L199.92,715.68L200.64,714.24L201.6,712.8L202.56,711.6L203.76,710.4L204.96,709.44L206.4,708.48L207.84,707.76L209.52,707.04L211.2,706.8L212.88,706.32L216.48,706.32L219.84,707.28L221.28,707.76L222.96,708.72L224.16,709.68L225.6,710.64L226.8,711.84L228.72,714.72L229.44,716.16L230.4,719.52L230.64,721.2L230.64,721.92" style="fill:none;fill-rule:nonzero;stroke:black;stroke-width:0.48px;"/>
    </g>
    <g transform="matrix(0.155788,1.3242,1.3242,-0.155788,-936.01,-134.351)">
        <path d="M195.27,708.851L203.486,708.851L196.223,712.847L197.373,710.295L195.27,708.851Z" style="stroke:black;stroke-width:0.48px;"/>
    </g>
    <g transform="matrix(0,1.33333,1.33333,0,-718.928,-354.205)">
        <path d="M303.84,678.48L320.16,678.48" style="fill:none;fill-rule:nonzero;stroke:black;stroke-width:0.72px;"/>
    </g>
    <g transform="matrix(0,1.33333,1.33333,0,-715.088,-358.045)">
        <path d="M306.72,678.48L323.04,678.48" style="fill:none;fill-rule:nonzero;stroke:black;stroke-width:0.72px;"/>
    </g>
    <g transform="matrix(1.33333,0,0,1.33333,-230.288,-822.685)">
        <path d="M317.04,666.96L313.44,674.88L309.84,666.96" style="fill:none;fill-rule:nonzero;stroke:black;stroke-width:0.72px;"/>
    </g>
</svg>
