<?xml version="1.0" encoding="UTF-8" standalone="no"?>
<!DOCTYPE svg PUBLIC "-//W3C//DTD SVG 1.1//EN" "http://www.w3.org/Graphics/SVG/1.1/DTD/svg11.dtd">
<svg width="100%" height="100%" viewBox="0 0 290 90" version="1.1" xmlns="http://www.w3.org/2000/svg" xmlns:xlink="http://www.w3.org/1999/xlink" xml:space="preserve" xmlns:serif="http://www.serif.com/" style="fill-rule:evenodd;clip-rule:evenodd;stroke-linecap:round;stroke-linejoin:round;stroke-miterlimit:10;">
    <g transform="matrix(1.33333,0,0,1.33333,-224.38,-114.2)">
        <text x="249.36px" y="100.08px" style="font-family:'ArialMT', 'Arial', sans-serif;font-size:10px;">O<tspan x="257.28px " y="100.08px ">H</tspan></text>
    </g>
    <g transform="matrix(1.33333,0,0,1.33333,-224.38,-114.2)">
        <text x="325.44px" y="124.32px" style="font-family:'ArialMT', 'Arial', sans-serif;font-size:10px;">C</text>
        <text x="332.64px" y="117.36px" style="font-family:'ArialMT', 'Arial', sans-serif;font-size:8px;">–</text>
    </g>
    <g transform="matrix(1.33333,0,0,1.33333,-224.38,-114.2)">
        <text x="342.48px" y="136.8px" style="font-family:'ArialMT', 'Arial', sans-serif;font-size:18px;">+</text>
        <text x="369.6px" y="135.84px" style="font-family:'ArialMT', 'Arial', sans-serif;font-size:10px;">O</text>
        <text x="377.52px" y="128.88px" style="font-family:'ArialMT', 'Arial', sans-serif;font-size:8px;">+</text>
    </g>
    <g transform="matrix(1.33333,0,0,1.33333,-224.38,-114.2)">
        <text x="369.84px" y="115.92px" style="font-family:'ArialMT', 'Arial', sans-serif;font-size:10px;">H</text>
    </g>
    <g transform="matrix(0,-1.33333,-1.33333,0,999.58,331.52)">
        <path d="M195.21,712.8L215.13,712.8" style="fill:none;fill-rule:nonzero;stroke:black;stroke-width:0.72px;"/>
    </g>
    <g transform="matrix(1.15468,0.666702,0.666702,-1.15468,-674.452,747.31)">
        <path d="M186.586,727.74L206.504,727.74" style="fill:none;fill-rule:nonzero;stroke:black;stroke-width:0.72px;"/>
    </g>
    <g transform="matrix(1.15458,0.666876,0.666876,-1.15458,-672.919,748.843)">
        <path d="M186.568,724.83L203.162,724.83" style="fill:none;fill-rule:nonzero;stroke:black;stroke-width:0.72px;"/>
    </g>
    <g transform="matrix(1.15468,-0.666702,-0.666702,-1.15468,275.998,1014.72)">
        <path d="M186.586,697.86L206.504,697.86" style="fill:none;fill-rule:nonzero;stroke:black;stroke-width:0.72px;"/>
    </g>
    <g transform="matrix(1.15458,-0.666876,-0.666876,-1.15458,277.78,1013.05)">
        <path d="M186.568,700.77L203.162,700.77" style="fill:none;fill-rule:nonzero;stroke:black;stroke-width:0.72px;"/>
    </g>
    <g transform="matrix(1.15468,-0.666702,-0.666702,-1.15468,292.838,997.883)">
        <path d="M169.336,727.74L189.254,727.74" style="fill:none;fill-rule:nonzero;stroke:black;stroke-width:0.72px;"/>
    </g>
    <g transform="matrix(1.15468,0.666702,0.666702,-1.15468,-657.613,764.149)">
        <path d="M169.336,697.86L189.254,697.86" style="fill:none;fill-rule:nonzero;stroke:black;stroke-width:0.72px;"/>
    </g>
    <g transform="matrix(0,-1.33333,-1.33333,0,953.58,285.52)">
        <path d="M160.71,712.8L180.63,712.8" style="fill:none;fill-rule:nonzero;stroke:black;stroke-width:0.72px;"/>
    </g>
    <g transform="matrix(0,-1.33333,-1.33333,0,958.06,290)">
        <path d="M165.73,712.8L182.33,712.8" style="fill:none;fill-rule:nonzero;stroke:black;stroke-width:0.72px;"/>
    </g>
    <g transform="matrix(0.948589,-0.936993,-0.936993,-0.948589,539.818,925.942)">
        <path d="M202.682,728.82L219.928,728.82" style="fill:none;fill-rule:nonzero;stroke:black;stroke-width:0.72px;"/>
    </g>
    <g transform="matrix(1.28583,0.352748,0.352748,-1.28583,-471.892,893.483)">
        <path d="M217.085,732.245L237.005,732.245" style="fill:none;fill-rule:nonzero;stroke:black;stroke-width:0.72px;"/>
    </g>
    <g transform="matrix(0.949654,-0.935914,-0.935914,-0.949654,556.943,953.185)">
        <path d="M234.276,735.4L250.774,735.4" style="fill:none;fill-rule:nonzero;stroke:black;stroke-width:0.72px;"/>
    </g>
    <g transform="matrix(1.33333,0,0,1.33333,-224.38,-934.04)">
        <path d="M204.72,718.32L205.92,718.32L207.12,718.56L208.08,718.8L209.28,719.04L211.2,720L212.16,720.72L213.6,721.68L214.8,722.88L215.76,724.08L216.24,725.04L216.96,726.24L217.2,727.2L217.68,728.16L217.92,729.36L217.92,730.56L218.16,731.04L218.16,731.76L217.92,733.44L217.68,735.36L216.96,737.04L216.24,738.48" style="fill:none;fill-rule:nonzero;stroke:black;stroke-width:0.48px;"/>
    </g>
    <g transform="matrix(-0.972716,0.911922,0.911922,0.972716,-378.751,-853.154)">
        <path d="M216.103,721.573L221.366,721.573L217.58,717.885L217.679,720.095L216.103,721.573Z" style="stroke:black;stroke-width:0.48px;"/>
    </g>
    <g transform="matrix(1.33333,0,0,1.33333,-224.38,-981.08)">
        <path d="M217.68,753.36L218.64,750.48L219.12,749.28L219.84,748.08L220.56,746.64L221.28,745.68L222.24,744.48L223.44,743.52L224.4,742.56L228,740.4L232.32,738.96L233.76,738.72L238.32,738.72L240.72,739.2L242.88,739.92L245.04,740.88L246.96,742.08L247.68,742.8L248.64,743.52" style="fill:none;fill-rule:nonzero;stroke:black;stroke-width:0.48px;"/>
    </g>
    <g transform="matrix(0.0605435,1.33196,1.33196,-0.0605435,-932.794,-227.254)">
        <path d="M216.521,739.682L221.806,739.682L217.883,743.224L218.025,741.055L216.521,739.682Z" style="stroke:black;stroke-width:0.48px;"/>
    </g>
    <g transform="matrix(1.33333,0,0,1.33333,-224.38,-886.04)">
        <path d="M241.68,710.4L275.76,710.4" style="fill:none;fill-rule:nonzero;stroke:black;stroke-width:0.72px;"/>
    </g>
    <g transform="matrix(1.33333,0,0,1.33333,-224.38,-893.72)">
        <path d="M241.68,713.28L275.76,713.28" style="fill:none;fill-rule:nonzero;stroke:black;stroke-width:0.72px;"/>
    </g>
    <g transform="matrix(1.33333,0,0,1.33333,-224.38,-889.88)">
        <path d="M271.2,708.24L279.12,711.84L271.2,715.44" style="fill:none;fill-rule:nonzero;stroke:black;stroke-width:0.72px;"/>
    </g>
    <g transform="matrix(0,-1.33333,-1.33333,0,1159.98,502)">
        <path d="M321.87,709.02L336.63,709.02" style="fill:none;fill-rule:nonzero;stroke:black;stroke-width:0.72px;"/>
    </g>
    <g transform="matrix(1.15451,0.666991,0.666991,-1.15451,-652.985,665.931)">
        <path d="M311.034,727.915L325.446,727.915" style="fill:none;fill-rule:nonzero;stroke:black;stroke-width:0.72px;"/>
    </g>
    <g transform="matrix(1.15457,0.6669,0.6669,-1.15457,-650.426,666.767)">
        <path d="M310.778,724.115L325.432,724.115" style="fill:none;fill-rule:nonzero;stroke:black;stroke-width:0.72px;"/>
    </g>
    <g transform="matrix(1.15468,-0.666702,-0.666702,-1.15468,297.365,1097.66)">
        <path d="M310.666,696.66L330.584,696.66" style="fill:none;fill-rule:nonzero;stroke:black;stroke-width:0.72px;"/>
    </g>
    <g transform="matrix(1.15458,-0.666876,-0.666876,-1.15458,299.159,1096.01)">
        <path d="M310.648,699.57L327.242,699.57" style="fill:none;fill-rule:nonzero;stroke:black;stroke-width:0.72px;"/>
    </g>
    <g transform="matrix(1.15468,-0.666702,-0.666702,-1.15468,314.205,1080.82)">
        <path d="M293.416,726.54L313.334,726.54" style="fill:none;fill-rule:nonzero;stroke:black;stroke-width:0.72px;"/>
    </g>
    <g transform="matrix(1.15468,0.666702,0.666702,-1.15468,-634.646,681.639)">
        <path d="M293.416,696.66L313.334,696.66" style="fill:none;fill-rule:nonzero;stroke:black;stroke-width:0.72px;"/>
    </g>
    <g transform="matrix(0,-1.33333,-1.33333,0,1117.42,452.56)">
        <path d="M284.79,711.6L304.71,711.6" style="fill:none;fill-rule:nonzero;stroke:black;stroke-width:0.72px;"/>
    </g>
    <g transform="matrix(0,-1.33333,-1.33333,0,1121.9,457.04)">
        <path d="M289.81,711.6L306.41,711.6" style="fill:none;fill-rule:nonzero;stroke:black;stroke-width:0.72px;"/>
    </g>
    <g transform="matrix(-0.666491,-1.1548,-1.1548,0.666491,1342.51,49.4681)">
        <path d="M373.018,698.885L386.862,698.885" style="fill:none;fill-rule:nonzero;stroke:black;stroke-width:0.72px;"/>
    </g>
    <g transform="matrix(0.666491,-1.1548,-1.1548,-0.666491,827.385,966.057)">
        <path d="M360.018,698.885L373.862,698.885" style="fill:none;fill-rule:nonzero;stroke:black;stroke-width:0.72px;"/>
    </g>
    <g transform="matrix(1.33333,0,0,1.33333,-224.38,-839.347)">
        <path d="M363.48,692.89L383.4,692.89" style="fill:none;fill-rule:nonzero;stroke:black;stroke-width:0.72px;"/>
    </g>
    <g transform="matrix(0,-1.33333,-1.33333,0,1233.54,546.28)">
        <path d="M368.64,720L378.24,720" style="fill:none;fill-rule:nonzero;stroke:black;stroke-width:0.72px;"/>
    </g>
</svg>
