<?xml version="1.0" encoding="UTF-8" standalone="no"?>
<!DOCTYPE svg PUBLIC "-//W3C//DTD SVG 1.1//EN" "http://www.w3.org/Graphics/SVG/1.1/DTD/svg11.dtd">
<svg width="100%" height="100%" viewBox="0 0 325 180" version="1.1" xmlns="http://www.w3.org/2000/svg" xmlns:xlink="http://www.w3.org/1999/xlink" xml:space="preserve" xmlns:serif="http://www.serif.com/" style="fill-rule:evenodd;clip-rule:evenodd;stroke-linecap:round;stroke-linejoin:round;stroke-miterlimit:10;">
    <g transform="matrix(1.33333,0,0,1.33333,-194.963,-86.48)">
        <text x="197.52px" y="78.96px" style="font-family:'ArialMT', 'Arial', sans-serif;font-size:10px;">Ph</text>
    </g>
    <g transform="matrix(1.33333,0,0,1.33333,-194.963,-86.48)">
        <text x="197.04px" y="118.8px" style="font-family:'ArialMT', 'Arial', sans-serif;font-size:10px;">O<tspan x="204.96px " y="118.8px ">H</tspan></text>
    </g>
    <g transform="matrix(1.33333,0,0,1.33333,-194.963,-86.48)">
        <text x="316.56px" y="99.6px" style="font-family:'ArialMT', 'Arial', sans-serif;font-size:10px;">O</text>
        <text x="324.479px" y="92.64px" style="font-family:'ArialMT', 'Arial', sans-serif;font-size:8px;">+</text>
        <text x="336.72px" y="99.6px" style="font-family:'ArialMT', 'Arial', sans-serif;font-size:10px;"><tspan x="336.72px " y="99.6px ">H</tspan></text>
        <text x="352.08px" y="102.48px" style="font-family:'ArialMT', 'Arial', sans-serif;font-size:18px;"><tspan x="352.08px " y="102.48px ">+</tspan></text>
        <text x="372px" y="100.8px" style="font-family:'ArialMT', 'Arial', sans-serif;font-size:10px;">P</text>
        <text x="378.681px" y="100.8px" style="font-family:'ArialMT', 'Arial', sans-serif;font-size:10px;">h</text>
        <text x="384.44px" y="93.84px" style="font-family:'ArialMT', 'Arial', sans-serif;font-size:8px;">-</text>
    </g>
    <g transform="matrix(0,-1.33333,-1.33333,0,1046.16,285.2)">
        <path d="M173.88,747L193.8,747" style="fill:none;fill-rule:nonzero;stroke:black;stroke-width:0.72px;"/>
    </g>
    <g transform="matrix(1.15468,0.666702,0.666702,-1.15468,-671.647,783.141)">
        <path d="M165.256,761.94L185.174,761.94" style="fill:none;fill-rule:nonzero;stroke:black;stroke-width:0.72px;"/>
    </g>
    <g transform="matrix(1.15468,-0.666702,-0.666702,-1.15468,324.406,1022.11)">
        <path d="M165.256,732.06L185.174,732.06" style="fill:none;fill-rule:nonzero;stroke:black;stroke-width:0.72px;"/>
    </g>
    <g transform="matrix(1.15468,-0.666702,-0.666702,-1.15468,341.245,1005.27)">
        <path d="M148.006,761.94L167.924,761.94" style="fill:none;fill-rule:nonzero;stroke:black;stroke-width:0.72px;"/>
    </g>
    <g transform="matrix(1.15468,0.666702,0.666702,-1.15468,-654.808,799.979)">
        <path d="M148.006,732.06L167.924,732.06" style="fill:none;fill-rule:nonzero;stroke:black;stroke-width:0.72px;"/>
    </g>
    <g transform="matrix(0,-1.33333,-1.33333,0,1000.16,239.2)">
        <path d="M139.38,747L159.3,747" style="fill:none;fill-rule:nonzero;stroke:black;stroke-width:0.72px;"/>
    </g>
    <g transform="matrix(-0.66853,-1.15362,-1.15362,0.66853,1077.2,-267.192)">
        <path d="M193.785,763.645L197.055,763.645" style="fill:none;fill-rule:nonzero;stroke:black;stroke-width:0.72px;"/>
    </g>
    <g transform="matrix(-0.670249,-1.15262,-1.15262,0.670249,1070.66,-268.694)">
        <path d="M191.817,762.325L194.443,762.325" style="fill:none;fill-rule:nonzero;stroke:black;stroke-width:0.72px;"/>
    </g>
    <g transform="matrix(-0.668048,-1.1539,-1.1539,0.668048,1065.12,-266.765)">
        <path d="M189.857,761.005L191.833,761.005" style="fill:none;fill-rule:nonzero;stroke:black;stroke-width:0.72px;"/>
    </g>
    <g transform="matrix(-0.671205,-1.15207,-1.15207,0.671205,1058.21,-269.509)">
        <path d="M187.89,759.685L189.22,759.685" style="fill:none;fill-rule:nonzero;stroke:black;stroke-width:0.72px;"/>
    </g>
    <g transform="matrix(-0.665731,-1.15524,-1.15524,0.665731,1053.5,-264.754)">
        <path d="M185.93,758.365L186.61,758.365" style="fill:none;fill-rule:nonzero;stroke:black;stroke-width:0.72px;"/>
    </g>
    <g transform="matrix(-0.7396,-1.1094,-1.1094,0.7396,1026.3,-329.105)">
        <path d="M183.972,757.045L184.008,757.045" style="fill:none;fill-rule:nonzero;stroke:black;stroke-width:0.72px;"/>
    </g>
    <g transform="matrix(1.06801,0.7982,0.7982,-1.06801,-729.356,689.698)">
        <path d="M182.591,732.277L196.823,732.277L196.628,733.941L196.427,735.614L182.591,732.277Z" style="stroke:black;stroke-width:0.24px;"/>
    </g>
    <g transform="matrix(1.33333,0,0,1.33333,-194.963,-945.36)">
        <path d="M221.76,743.04L255.84,743.04" style="fill:none;fill-rule:nonzero;stroke:black;stroke-width:0.72px;"/>
    </g>
    <g transform="matrix(1.33333,0,0,1.33333,-194.963,-953.04)">
        <path d="M221.76,745.92L255.84,745.92" style="fill:none;fill-rule:nonzero;stroke:black;stroke-width:0.72px;"/>
    </g>
    <g transform="matrix(1.33333,0,0,1.33333,-194.963,-949.2)">
        <path d="M251.28,740.88L259.2,744.48L251.28,748.08" style="fill:none;fill-rule:nonzero;stroke:black;stroke-width:0.72px;"/>
    </g>
    <g transform="matrix(1.33333,0,0,1.33333,-194.963,-1008.08)">
        <path d="M197.04,774.48L194.64,774L193.44,773.52L192.24,772.8L191.28,772.08L189.6,770.4L189.12,769.2L188.4,768.24L188.16,767.04L187.92,765.6L187.92,765.12L187.68,764.4L187.92,762.72L188.16,761.28L188.88,759.84L189.6,758.64" style="fill:none;fill-rule:nonzero;stroke:black;stroke-width:0.48px;"/>
    </g>
    <g transform="matrix(1.02924,-0.84761,-0.84761,-1.02924,516.292,960.347)">
        <path d="M185.528,772.581L190.813,772.581L186.901,768.963L187.042,771.023L185.528,772.581Z" style="stroke:black;stroke-width:0.48px;"/>
    </g>
    <g transform="matrix(1.33333,0,0,1.33333,-194.963,-945.36)">
        <path d="M189.36,731.28L191.52,731.04L193.44,731.28L195.12,731.52L196.8,732L198.24,732.48L199.92,733.2L201.36,734.16L203.76,736.08L204.96,737.52L205.92,738.72L206.88,740.16L207.6,741.6L208.56,744.96L208.8,746.64L208.8,750.72L208.32,752.88L207.6,755.04" style="fill:none;fill-rule:nonzero;stroke:black;stroke-width:0.48px;"/>
    </g>
    <g transform="matrix(-1.24598,0.47466,0.47466,1.24598,-58.317,-1001.87)">
        <path d="M188.842,753.903L194.235,753.903L190.209,757.491L190.422,755.355L188.842,753.903Z" style="stroke:black;stroke-width:0.48px;"/>
    </g>
    <g transform="matrix(1.15468,0.666702,0.666702,-1.15468,-649.916,703.644)">
        <path d="M284.656,761.34L304.574,761.34" style="fill:none;fill-rule:nonzero;stroke:black;stroke-width:0.72px;"/>
    </g>
    <g transform="matrix(1.15468,-0.666702,-0.666702,-1.15468,345.337,1101.82)">
        <path d="M284.656,731.46L304.574,731.46" style="fill:none;fill-rule:nonzero;stroke:black;stroke-width:0.72px;"/>
    </g>
    <g transform="matrix(1.15468,-0.666702,-0.666702,-1.15468,362.177,1084.98)">
        <path d="M267.406,761.34L287.324,761.34" style="fill:none;fill-rule:nonzero;stroke:black;stroke-width:0.72px;"/>
    </g>
    <g transform="matrix(1.15468,0.666702,0.666702,-1.15468,-633.076,720.482)">
        <path d="M267.406,731.46L287.324,731.46" style="fill:none;fill-rule:nonzero;stroke:black;stroke-width:0.72px;"/>
    </g>
    <g transform="matrix(0,-1.33333,-1.33333,0,1158.56,399.2)">
        <path d="M258.78,746.4L278.7,746.4" style="fill:none;fill-rule:nonzero;stroke:black;stroke-width:0.72px;"/>
    </g>
    <g transform="matrix(-1.15454,-0.666943,-0.666943,1.15454,1076.9,-630.401)">
        <path d="M302.283,752.79L316.557,752.79" style="fill:none;fill-rule:nonzero;stroke:black;stroke-width:0.72px;"/>
    </g>
    <g transform="matrix(0,-1.33333,-1.33333,0,1204.56,445.2)">
        <path d="M293.28,746.4L313.2,746.4" style="fill:none;fill-rule:nonzero;stroke:black;stroke-width:0.72px;"/>
    </g>
    <g transform="matrix(1.15454,-0.666943,-0.666943,-1.15454,353.904,1110.14)">
        <path d="M302.283,740.01L316.557,740.01" style="fill:none;fill-rule:nonzero;stroke:black;stroke-width:0.72px;"/>
    </g>
    <g transform="matrix(1.33333,0,0,1.33333,-194.963,-954.32)">
        <path d="M325.44,746.4L335.76,746.4" style="fill:none;fill-rule:nonzero;stroke:black;stroke-width:0.72px;"/>
    </g>
    <g transform="matrix(0,1.33333,1.33333,0,-757.523,-288.08)">
        <path d="M274.8,707.52L296.4,707.52" style="fill:none;fill-rule:nonzero;stroke:black;stroke-width:0.72px;"/>
    </g>
    <g transform="matrix(0,1.33333,1.33333,0,-753.683,-291.92)">
        <path d="M277.68,707.52L299.28,707.52" style="fill:none;fill-rule:nonzero;stroke:black;stroke-width:0.72px;"/>
    </g>
    <g transform="matrix(1.33333,0,0,1.33333,-194.963,-823.44)">
        <path d="M290.64,693.36L287.04,701.28L283.44,693.36" style="fill:none;fill-rule:nonzero;stroke:black;stroke-width:0.72px;"/>
    </g>
    <g transform="matrix(0,-1.33333,-1.33333,0,1095.88,554.76)">
        <path d="M293.61,664.56L313.53,664.56" style="fill:none;fill-rule:nonzero;stroke:black;stroke-width:0.72px;"/>
    </g>
    <g transform="matrix(0,-1.33333,-1.33333,0,1091.4,550.28)">
        <path d="M291.91,664.56L308.51,664.56" style="fill:none;fill-rule:nonzero;stroke:black;stroke-width:0.72px;"/>
    </g>
    <g transform="matrix(1.15468,0.666702,0.666702,-1.15468,-595.294,718.045)">
        <path d="M284.986,679.5L304.904,679.5" style="fill:none;fill-rule:nonzero;stroke:black;stroke-width:0.72px;"/>
    </g>
    <g transform="matrix(1.15468,-0.666702,-0.666702,-1.15468,290.833,1116.66)">
        <path d="M284.986,649.62L304.904,649.62" style="fill:none;fill-rule:nonzero;stroke:black;stroke-width:0.72px;"/>
    </g>
    <g transform="matrix(1.15468,-0.666702,-0.666702,-1.15468,307.673,1099.82)">
        <path d="M267.736,679.5L287.654,679.5" style="fill:none;fill-rule:nonzero;stroke:black;stroke-width:0.72px;"/>
    </g>
    <g transform="matrix(1.15468,0.666702,0.666702,-1.15468,-578.455,734.883)">
        <path d="M267.736,649.62L287.654,649.62" style="fill:none;fill-rule:nonzero;stroke:black;stroke-width:0.72px;"/>
    </g>
    <g transform="matrix(0,-1.33333,-1.33333,0,1049.88,508.76)">
        <path d="M259.11,664.56L279.03,664.56" style="fill:none;fill-rule:nonzero;stroke:black;stroke-width:0.72px;"/>
    </g>
</svg>
