<?xml version="1.0" encoding="UTF-8" standalone="no"?>
<!DOCTYPE svg PUBLIC "-//W3C//DTD SVG 1.1//EN" "http://www.w3.org/Graphics/SVG/1.1/DTD/svg11.dtd">
<svg width="100%" height="100%" viewBox="0 0 580 90" version="1.1" xmlns="http://www.w3.org/2000/svg" xmlns:xlink="http://www.w3.org/1999/xlink" xml:space="preserve" xmlns:serif="http://www.serif.com/" style="fill-rule:evenodd;clip-rule:evenodd;stroke-linecap:round;stroke-linejoin:round;stroke-miterlimit:10;">
    <g transform="matrix(1.33333,0,0,1.33333,-71.3155,-109.343)">
        <text x="71.04px" y="100.08px" style="font-family:'ArialMT', 'Arial', sans-serif;font-size:10px;">CH</text>
        <text x="85.44px" y="102.72px" style="font-family:'ArialMT', 'Arial', sans-serif;font-size:8px;">2</text>
    </g>
    <g transform="matrix(1.33333,0,0,1.33333,-71.3155,-109.343)">
        <text x="72.72px" y="137.04px" style="font-family:'ArialMT', 'Arial', sans-serif;font-size:10px;">CH</text>
        <text x="87.12px" y="139.68px" style="font-family:'ArialMT', 'Arial', sans-serif;font-size:8px;">2</text>
    </g>
    <g transform="matrix(1.33333,0,0,1.33333,-71.3155,-109.343)">
        <text x="145.44px" y="93.36px" style="font-family:'ArialMT', 'Arial', sans-serif;font-size:10px;">O</text>
    </g>
    <g transform="matrix(1.33333,0,0,1.33333,-71.3155,-109.343)">
        <text x="162.96px" y="123.12px" style="font-family:'ArialMT', 'Arial', sans-serif;font-size:10px;">O</text>
    </g>
    <g transform="matrix(1.33333,0,0,1.33333,-71.3155,-109.343)">
        <text x="128.88px" y="142.56px" style="font-family:'ArialMT', 'Arial', sans-serif;font-size:10px;">CH</text>
        <text x="143.28px" y="145.2px" style="font-family:'ArialMT', 'Arial', sans-serif;font-size:8px;">2</text>
    </g>
    <g transform="matrix(1.33333,0,0,1.33333,-71.3155,-109.343)">
        <text x="198px" y="122.88px" style="font-family:'ArialMT', 'Arial', sans-serif;font-size:10px;">CH</text>
        <text x="212.4px" y="125.52px" style="font-family:'ArialMT', 'Arial', sans-serif;font-size:8px;">3</text>
    </g>
    <g transform="matrix(1.33333,0,0,1.33333,-71.3155,-109.343)">
        <text x="104.4px" y="122.16px" style="font-family:'ArialMT', 'Arial', sans-serif;font-size:18px;">+</text>
    </g>
    <g transform="matrix(1.33333,0,0,1.33333,-71.3155,-109.343)">
        <text x="327.84px" y="91.44px" style="font-family:'ArialMT', 'Arial', sans-serif;font-size:10px;">O</text>
    </g>
    <g transform="matrix(1.33333,0,0,1.33333,-71.3155,-109.343)">
        <text x="345.12px" y="121.44px" style="font-family:'ArialMT', 'Arial', sans-serif;font-size:10px;">O</text>
    </g>
    <g transform="matrix(1.33333,0,0,1.33333,-71.3155,-109.343)">
        <text x="382.08px" y="121.44px" style="font-family:'ArialMT', 'Arial', sans-serif;font-size:10px;">CH</text>
        <text x="396.48px" y="124.08px" style="font-family:'ArialMT', 'Arial', sans-serif;font-size:8px;">3</text>
    </g>
    <g transform="matrix(1.33333,0,0,1.33333,-71.3155,-109.343)">
        <text x="470.88px" y="119.28px" style="font-family:'ArialMT', 'Arial', sans-serif;font-size:10px;">T<tspan x="477.12px " y="119.28px ">M</tspan></text>
    </g>
    <g transform="matrix(1.33333,0,0,1.33333,-71.3155,-109.343)">
        <text x="410.64px" y="109.2px" style="font-family:'ArialMT', 'Arial', sans-serif;font-size:10px;">1) <tspan x="422.464px " y="109.2px ">P</tspan>hMgBr</text>
    </g>
    <g transform="matrix(1.33333,0,0,1.33333,-71.3155,-109.343)">
        <text x="414.96px" y="130.8px" style="font-family:'ArialMT', 'Arial', sans-serif;font-size:10px;">2) NH</text>
        <text x="441.139px" y="133.44px" style="font-family:'ArialMT', 'Arial', sans-serif;font-size:6px;">4</text>
        <text x="444.743px" y="130.8px" style="font-family:'ArialMT', 'Arial', sans-serif;font-size:10px;">Cl</text>
    </g>
    <g transform="matrix(0.00610494,-1.33332,-1.33332,-0.00610494,971.351,127.495)">
        <path d="M46.41,724.94L68.25,724.94" style="fill:none;fill-rule:nonzero;stroke:black;stroke-width:0.72px;"/>
    </g>
    <g transform="matrix(1.15755,-0.661715,-0.661715,-1.15755,429.219,925.394)">
        <path d="M56.416,739.49L71.044,739.49" style="fill:none;fill-rule:nonzero;stroke:black;stroke-width:0.72px;"/>
    </g>
    <g transform="matrix(1.15766,-0.661519,-0.661519,-1.15766,428.038,927.7)">
        <path d="M59.566,737.2L73.434,737.2" style="fill:none;fill-rule:nonzero;stroke:black;stroke-width:0.72px;"/>
    </g>
    <g transform="matrix(1.28678,0.349244,0.349244,-1.28678,-316.993,957.536)">
        <path d="M57.018,712.055L72.022,712.055" style="fill:none;fill-rule:nonzero;stroke:black;stroke-width:0.72px;"/>
    </g>
    <g transform="matrix(1.28686,0.34894,0.34894,-1.28686,-317.749,956.866)">
        <path d="M60.572,715.06L71.958,715.06" style="fill:none;fill-rule:nonzero;stroke:black;stroke-width:0.72px;"/>
    </g>
    <g transform="matrix(-0.0127238,-1.33327,-1.33327,0.0127238,1118.8,218.625)">
        <path d="M143.815,740.025L158.485,740.025" style="fill:none;fill-rule:nonzero;stroke:black;stroke-width:0.72px;"/>
    </g>
    <g transform="matrix(-0.0126892,-1.33327,-1.33327,0.0126892,1114.24,214.198)">
        <path d="M140.435,740.005L155.145,740.005" style="fill:none;fill-rule:nonzero;stroke:black;stroke-width:0.72px;"/>
    </g>
    <g transform="matrix(-1.16085,-0.655892,-0.655892,1.16085,795.448,-703.252)">
        <path d="M148.614,729.15L162.926,729.15" style="fill:none;fill-rule:nonzero;stroke:black;stroke-width:0.72px;"/>
    </g>
    <g transform="matrix(1.14849,-0.677313,-0.677313,-1.14849,447.56,974.195)">
        <path d="M130.999,727.61L150.921,727.61" style="fill:none;fill-rule:nonzero;stroke:black;stroke-width:0.72px;"/>
    </g>
    <g transform="matrix(0.00663342,1.33332,1.33332,-0.00663342,-849.649,-112.608)">
        <path d="M125.38,715.515L139.45,715.515" style="fill:none;fill-rule:nonzero;stroke:black;stroke-width:0.72px;"/>
    </g>
    <g transform="matrix(0.00643079,1.33332,1.33332,-0.00643079,-844.071,-116.158)">
        <path d="M129.56,714.7L142,714.7" style="fill:none;fill-rule:nonzero;stroke:black;stroke-width:0.72px;"/>
    </g>
    <g transform="matrix(1.15839,-0.660243,-0.660243,-1.15839,441.399,1003.28)">
        <path d="M170.879,729.335L185.521,729.335" style="fill:none;fill-rule:nonzero;stroke:black;stroke-width:0.72px;"/>
    </g>
    <g transform="matrix(1.1513,0.672516,0.672516,-1.1513,-527.06,752.144)">
        <path d="M183.573,729.315L198.027,729.315" style="fill:none;fill-rule:nonzero;stroke:black;stroke-width:0.72px;"/>
    </g>
    <g transform="matrix(1.33333,0,0,1.33333,-71.3155,-924.703)">
        <path d="M229.92,726.72L264,726.72" style="fill:none;fill-rule:nonzero;stroke:black;stroke-width:0.72px;"/>
    </g>
    <g transform="matrix(1.2958,0.314133,0.314133,-1.2958,-289.842,904.253)">
        <path d="M255.739,727.653L263.889,727.653L256.644,723.921L257.591,726.126L255.739,727.653Z" style="stroke:black;stroke-width:0.72px;"/>
    </g>
    <g transform="matrix(0,-1.33333,-1.33333,0,1300.8,480.057)">
        <path d="M304.65,714.48L324.57,714.48" style="fill:none;fill-rule:nonzero;stroke:black;stroke-width:0.72px;"/>
    </g>
    <g transform="matrix(1.15468,0.666702,0.666702,-1.15468,-502.956,678.903)">
        <path d="M296.026,729.42L315.944,729.42" style="fill:none;fill-rule:nonzero;stroke:black;stroke-width:0.72px;"/>
    </g>
    <g transform="matrix(1.15468,-0.666702,-0.666702,-1.15468,449.735,1092.24)">
        <path d="M296.026,699.54L315.944,699.54" style="fill:none;fill-rule:nonzero;stroke:black;stroke-width:0.72px;"/>
    </g>
    <g transform="matrix(1.15468,-0.666702,-0.666702,-1.15468,466.574,1075.4)">
        <path d="M278.776,729.42L298.694,729.42" style="fill:none;fill-rule:nonzero;stroke:black;stroke-width:0.72px;"/>
    </g>
    <g transform="matrix(1.15468,0.666702,0.666702,-1.15468,-486.117,695.741)">
        <path d="M278.776,699.54L298.694,699.54" style="fill:none;fill-rule:nonzero;stroke:black;stroke-width:0.72px;"/>
    </g>
    <g transform="matrix(0,-1.33333,-1.33333,0,1254.8,434.057)">
        <path d="M270.15,714.48L290.07,714.48" style="fill:none;fill-rule:nonzero;stroke:black;stroke-width:0.72px;"/>
    </g>
    <g transform="matrix(0,-1.33333,-1.33333,0,1259.28,438.537)">
        <path d="M275.17,714.48L291.77,714.48" style="fill:none;fill-rule:nonzero;stroke:black;stroke-width:0.72px;"/>
    </g>
    <g transform="matrix(0,1.33333,1.33333,0,-620.195,-416.143)">
        <path d="M322.74,741.84L337.62,741.84" style="fill:none;fill-rule:nonzero;stroke:black;stroke-width:0.72px;"/>
    </g>
    <g transform="matrix(0,1.33333,1.33333,0,-615.715,-420.623)">
        <path d="M326.1,741.84L340.98,741.84" style="fill:none;fill-rule:nonzero;stroke:black;stroke-width:0.72px;"/>
    </g>
    <g transform="matrix(1.15468,-0.666702,-0.666702,-1.15468,472.737,1098.4)">
        <path d="M313.276,729.42L333.194,729.42" style="fill:none;fill-rule:nonzero;stroke:black;stroke-width:0.72px;"/>
    </g>
    <g transform="matrix(1.15476,0.666568,0.666568,-1.15476,-498.116,657.398)">
        <path d="M330.909,730.85L345.111,730.85" style="fill:none;fill-rule:nonzero;stroke:black;stroke-width:0.72px;"/>
    </g>
    <g transform="matrix(1.1755,-0.62926,-0.62926,-1.1755,445.568,1125.08)">
        <path d="M353.049,730.85L369.111,730.85" style="fill:none;fill-rule:nonzero;stroke:black;stroke-width:0.72px;"/>
    </g>
    <g transform="matrix(1.15557,0.665164,0.665164,-1.15557,-490.892,634.088)">
        <path d="M367.163,730.91L382.117,730.91" style="fill:none;fill-rule:nonzero;stroke:black;stroke-width:0.72px;"/>
    </g>
    <g transform="matrix(1.33333,0,0,1.33333,-71.3155,-923.423)">
        <path d="M411.12,726.24L458.64,726.24" style="fill:none;fill-rule:nonzero;stroke:black;stroke-width:0.72px;"/>
    </g>
    <g transform="matrix(1.2958,0.314133,0.314133,-1.2958,-282.386,843.129)">
        <path d="M450.379,727.173L458.529,727.173L451.284,723.441L452.231,725.646L450.379,727.173Z" style="stroke:black;stroke-width:0.72px;"/>
    </g>
</svg>
