<?xml version="1.0" encoding="UTF-8" standalone="no"?>
<!DOCTYPE svg PUBLIC "-//W3C//DTD SVG 1.1//EN" "http://www.w3.org/Graphics/SVG/1.1/DTD/svg11.dtd">
<svg width="100%" height="100%" viewBox="0 0 435 85" version="1.1" xmlns="http://www.w3.org/2000/svg" xmlns:xlink="http://www.w3.org/1999/xlink" xml:space="preserve" xmlns:serif="http://www.serif.com/" style="fill-rule:evenodd;clip-rule:evenodd;stroke-linecap:round;stroke-linejoin:round;stroke-miterlimit:10;">
    <g transform="matrix(1.33333,0,0,1.33333,-184.871,-190.78)">
        <text x="140.64px" y="187.2px" style="font-family:'ArialMT', 'Arial', sans-serif;font-size:10px;">R	<tspan x="160.56px " y="187.2px ">C</tspan>H</text>
        <text x="174.98px" y="189.84px" style="font-family:'ArialMT', 'Arial', sans-serif;font-size:8px;">2</text>
        <text x="185.76px" y="187.2px" style="font-family:'ArialMT', 'Arial', sans-serif;font-size:10px;"><tspan x="185.76px " y="187.2px ">C</tspan>H</text>
        <text x="200.18px" y="189.84px" style="font-family:'ArialMT', 'Arial', sans-serif;font-size:8px;">3</text>
        <text x="220.56px" y="187.68px" style="font-family:'ArialMT', 'Arial', sans-serif;font-size:10px;"><tspan x="220.56px 228.327px 236.64px " y="187.68px 187.68px 187.68px ">O	H</tspan></text>
    </g>
    <g transform="matrix(1.33333,0,0,1.33333,-184.871,-190.78)">
        <text x="302.64px" y="188.16px" style="font-family:'ArialMT', 'Arial', sans-serif;font-size:10px;">R</text>
        <text x="310.08px" y="181.2px" style="font-family:'ArialMT', 'Arial', sans-serif;font-size:8px;">-</text>
        <text x="321.36px" y="191.76px" style="font-family:'ArialMT', 'Arial', sans-serif;font-size:18px;"><tspan x="321.36px " y="191.76px ">+</tspan></text>
        <text x="341.52px" y="187.92px" style="font-family:'ArialMT', 'Arial', sans-serif;font-size:10px;">O</text>
        <text x="349.44px" y="180.96px" style="font-family:'ArialMT', 'Arial', sans-serif;font-size:8px;">+</text>
    </g>
    <g transform="matrix(1.33333,0,0,1.33333,-184.871,-190.78)">
        <text x="341.76px" y="204px" style="font-family:'ArialMT', 'Arial', sans-serif;font-size:10px;">H</text>
    </g>
    <g transform="matrix(1.33333,0,0,1.33333,-184.871,-190.78)">
        <text x="412.56px" y="195.36px" style="font-family:'ArialMT', 'Arial', sans-serif;font-size:10px;">O</text>
        <text x="432px" y="189.84px" style="font-family:'ArialMT', 'Arial', sans-serif;font-size:18px;"><tspan x="432px " y="189.84px ">+</tspan></text>
        <text x="448.308px" y="186.24px" style="font-family:'ArialMT', 'Arial', sans-serif;font-size:10px;">HX</text>
    </g>
    <g transform="matrix(1.33333,0,0,1.33333,-184.871,-190.78)">
        <text x="188.64px" y="199.68px" style="font-family:'ArialMT', 'Arial', sans-serif;font-size:10px;">δ+</text>
    </g>
    <g transform="matrix(1.33333,0,0,1.33333,-184.871,-190.78)">
        <text x="162.96px" y="198.48px" style="font-family:'ArialMT', 'Arial', sans-serif;font-size:10px;">δ+</text>
    </g>
    <g transform="matrix(1.33333,0,0,1.33333,-184.871,-825.02)">
        <path d="M148.8,658.8L159.6,658.8" style="fill:none;fill-rule:nonzero;stroke:black;stroke-width:0.72px;"/>
    </g>
    <g transform="matrix(1.33333,0,0,1.33333,-184.871,-825.02)">
        <path d="M180.24,658.8L184.8,658.8" style="fill:none;fill-rule:nonzero;stroke:black;stroke-width:0.72px;"/>
    </g>
    <g transform="matrix(1.33333,0,0,1.33333,-184.871,-823.74)">
        <path d="M229.44,658.32L235.68,658.32" style="fill:none;fill-rule:nonzero;stroke:black;stroke-width:0.72px;"/>
    </g>
    <g transform="matrix(1.3332,0.0185167,0.0185167,-1.3332,-197.038,927.798)">
        <path d="M205.44,658.51L215.52,658.51" style="fill:none;fill-rule:nonzero;stroke:black;stroke-width:0.72px;"/>
    </g>
    <g transform="matrix(1.33333,0,0,1.33333,-184.871,-824.06)">
        <path d="M219.6,658.49L215.54,657.24L215.5,659.64L219.6,658.49Z" style="stroke:black;stroke-width:0.24px;"/>
    </g>
    <g transform="matrix(1.33333,0,0,1.33333,-184.871,-822.78)">
        <path d="M153.6,646.08L155.52,648L157.2,650.16L158.16,652.8L158.88,655.44L158.88,658.56L158.64,660L157.68,662.88L156.96,664.32L156,665.52L154.08,667.44L152.88,668.4L151.68,669.12L150.96,669.6L150.24,669.84" style="fill:none;fill-rule:nonzero;stroke:black;stroke-width:0.48px;"/>
    </g>
    <g transform="matrix(-1.32111,0.180151,0.180151,1.32111,104.18,-816.157)">
        <path d="M150.443,649.785L155.771,649.785L151.891,646.196L151.945,648.369L150.443,649.785Z" style="stroke:black;stroke-width:0.48px;"/>
    </g>
    <g transform="matrix(1.33333,0,0,1.33333,-184.871,-819.26)">
        <path d="M256.08,656.64L290.16,656.64" style="fill:none;fill-rule:nonzero;stroke:black;stroke-width:0.72px;"/>
    </g>
    <g transform="matrix(1.33333,0,0,1.33333,-184.871,-826.94)">
        <path d="M256.08,659.52L290.16,659.52" style="fill:none;fill-rule:nonzero;stroke:black;stroke-width:0.72px;"/>
    </g>
    <g transform="matrix(1.33333,0,0,1.33333,-184.871,-823.1)">
        <path d="M285.6,654.48L293.52,658.08L285.6,661.68" style="fill:none;fill-rule:nonzero;stroke:black;stroke-width:0.72px;"/>
    </g>
    <g transform="matrix(1.33333,0,0,1.33333,-184.871,-873.66)">
        <path d="M335.28,677.04L355.2,677.04" style="fill:none;fill-rule:nonzero;stroke:black;stroke-width:0.72px;"/>
    </g>
    <g transform="matrix(0.62587,1.17731,1.17731,-0.62587,-733.949,58.6377)">
        <path d="M331.098,670.08L346.862,670.08" style="fill:none;fill-rule:nonzero;stroke:black;stroke-width:0.72px;"/>
    </g>
    <g transform="matrix(0.61434,-1.18337,-1.18337,-0.61434,864.793,865.79)">
        <path d="M347.892,672.6L357.898,672.6" style="fill:none;fill-rule:nonzero;stroke:black;stroke-width:0.72px;"/>
    </g>
    <g transform="matrix(0,1.33333,1.33333,0,-590.951,-395.26)">
        <path d="M342.48,649.92L348.24,649.92" style="fill:none;fill-rule:nonzero;stroke:black;stroke-width:0.72px;"/>
    </g>
    <g transform="matrix(1.33333,0,0,1.33333,-184.871,-819.26)">
        <path d="M361.68,656.64L395.76,656.64" style="fill:none;fill-rule:nonzero;stroke:black;stroke-width:0.72px;"/>
    </g>
    <g transform="matrix(1.33333,0,0,1.33333,-184.871,-826.94)">
        <path d="M361.68,659.52L395.76,659.52" style="fill:none;fill-rule:nonzero;stroke:black;stroke-width:0.72px;"/>
    </g>
    <g transform="matrix(1.33333,0,0,1.33333,-184.871,-823.1)">
        <path d="M391.2,654.48L399.12,658.08L391.2,661.68" style="fill:none;fill-rule:nonzero;stroke:black;stroke-width:0.72px;"/>
    </g>
    <g transform="matrix(0.674887,1.14992,1.14992,-0.674887,-675.815,24.8075)">
        <path d="M402.97,661.635L416.78,661.635" style="fill:none;fill-rule:nonzero;stroke:black;stroke-width:0.72px;"/>
    </g>
    <g transform="matrix(-0.658514,1.15937,1.15937,0.658514,-109.735,-876.514)">
        <path d="M415.94,661.71L429.81,661.71" style="fill:none;fill-rule:nonzero;stroke:black;stroke-width:0.72px;"/>
    </g>
    <g transform="matrix(-1.3333,0.0100399,0.0100399,1.3333,918.65,-852.815)">
        <path d="M406.38,667.665L426.3,667.665" style="fill:none;fill-rule:nonzero;stroke:black;stroke-width:0.72px;"/>
    </g>
    <g transform="matrix(1.33333,0,0,1.33333,-184.871,-884.86)">
        <path d="M165.12,696L165.12,693.6L165.36,691.44L165.84,689.04L166.56,686.88L167.28,684.96L168.24,682.8L169.2,680.88L170.4,679.2L171.84,677.28L173.28,675.6L174.72,674.16L176.4,672.72L178.08,671.52L180,670.32L181.92,669.36L184.08,668.4L186.24,667.68L190.56,666.72L192.96,666.48L197.04,666.48L199.2,666.72L201.6,667.2L203.76,667.92L205.68,668.64L207.84,669.6L209.76,670.56L211.44,671.76L213.36,673.2L215.04,674.64L216.48,676.08L217.92,677.76L219.12,679.44L220.32,681.36L221.28,683.28L222.24,685.44L222.96,687.6L223.92,691.92L224.16,694.32L224.16,696" style="fill:none;fill-rule:nonzero;stroke:black;stroke-width:0.48px;"/>
    </g>
    <g transform="matrix(0.268871,1.30594,1.30594,-0.268871,-884.437,1.88644)">
        <path d="M161.072,669.385L169.404,669.385L162.13,673.332L163.105,670.926L161.072,669.385Z" style="stroke:black;stroke-width:0.48px;"/>
    </g>
</svg>
