<?xml version="1.0" encoding="UTF-8" standalone="no"?>
<!DOCTYPE svg PUBLIC "-//W3C//DTD SVG 1.1//EN" "http://www.w3.org/Graphics/SVG/1.1/DTD/svg11.dtd">
<svg width="100%" height="100%" viewBox="0 0 540 200" version="1.1" xmlns="http://www.w3.org/2000/svg" xmlns:xlink="http://www.w3.org/1999/xlink" xml:space="preserve" xmlns:serif="http://www.serif.com/" style="fill-rule:evenodd;clip-rule:evenodd;stroke-linecap:round;stroke-linejoin:round;stroke-miterlimit:10;">
    <g transform="matrix(1.33333,0,0,1.33333,-86.1943,-104.048)">
        <text x="103.44px" y="117.12px" style="font-family:'ArialMT', 'Arial', sans-serif;font-size:10px;">O</text>
    </g>
    <g transform="matrix(1.33333,0,0,1.33333,-86.1943,-104.048)">
        <text x="132.96px" y="92.4px" style="font-family:'ArialMT', 'Arial', sans-serif;font-size:10px;">Ph</text>
    </g>
    <g transform="matrix(1.33333,0,0,1.33333,-86.1943,-104.048)">
        <text x="126.72px" y="119.28px" style="font-family:'ArialMT', 'Arial', sans-serif;font-size:10px;">Ph</text>
    </g>
    <g transform="matrix(1.33333,0,0,1.33333,-86.1943,-104.048)">
        <text x="67.68px" y="96.72px" style="font-family:'ArialMT', 'Arial', sans-serif;font-size:10px;">Ph</text>
    </g>
    <g transform="matrix(1.33333,0,0,1.33333,-86.1943,-104.048)">
        <text x="76.8px" y="121.44px" style="font-family:'ArialMT', 'Arial', sans-serif;font-size:10px;">Ph</text>
    </g>
    <g transform="matrix(1.33333,0,0,1.33333,-86.1943,-104.048)">
        <text x="272.4px" y="91.44px" style="font-family:'ArialMT', 'Arial', sans-serif;font-size:10px;">Ph</text>
    </g>
    <g transform="matrix(1.33333,0,0,1.33333,-86.1943,-104.048)">
        <text x="266.16px" y="118.32px" style="font-family:'ArialMT', 'Arial', sans-serif;font-size:10px;">Ph</text>
    </g>
    <g transform="matrix(1.33333,0,0,1.33333,-86.1943,-104.048)">
        <text x="207.12px" y="95.76px" style="font-family:'ArialMT', 'Arial', sans-serif;font-size:10px;">Ph</text>
    </g>
    <g transform="matrix(1.33333,0,0,1.33333,-86.1943,-104.048)">
        <text x="216.24px" y="120.48px" style="font-family:'ArialMT', 'Arial', sans-serif;font-size:10px;">Ph</text>
    </g>
    <g transform="matrix(1.33333,0,0,1.33333,-86.1943,-104.048)">
        <text x="245.76px" y="98.64px" style="font-family:'ArialMT', 'Arial', sans-serif;font-size:10px;">O</text>
    </g>
    <g transform="matrix(1.33333,0,0,1.33333,-86.1943,-104.048)">
        <text x="238.56px" y="98.64px" style="font-family:'ArialMT', 'Arial', sans-serif;font-size:10px;">H</text>
    </g>
    <g transform="matrix(1.33333,0,0,1.33333,-86.1943,-104.048)">
        <text x="237.36px" y="115.44px" style="font-family:'ArialMT', 'Arial', sans-serif;font-size:10px;">O<tspan x="245.28px " y="115.44px ">H</tspan></text>
    </g>
    <g transform="matrix(1.33333,0,0,1.33333,-86.1943,-104.048)">
        <text x="411.84px" y="91.92px" style="font-family:'ArialMT', 'Arial', sans-serif;font-size:10px;">Ph</text>
    </g>
    <g transform="matrix(1.33333,0,0,1.33333,-86.1943,-104.048)">
        <text x="346.56px" y="96.24px" style="font-family:'ArialMT', 'Arial', sans-serif;font-size:10px;">Ph</text>
    </g>
    <g transform="matrix(1.33333,0,0,1.33333,-86.1943,-104.048)">
        <text x="393.84px" y="124.32px" style="font-family:'ArialMT', 'Arial', sans-serif;font-size:10px;">O</text>
    </g>
    <g transform="matrix(1.33333,0,0,1.33333,-86.1943,-104.048)">
        <text x="372.96px" y="123.84px" style="font-family:'ArialMT', 'Arial', sans-serif;font-size:10px;">O</text>
    </g>
    <g transform="matrix(1.33333,0,0,1.33333,-86.1943,-104.048)">
        <text x="165.84px" y="208.56px" style="font-family:'ArialMT', 'Arial', sans-serif;font-size:10px;">O</text>
        <text x="173.76px" y="201.6px" style="font-family:'ArialMT', 'Arial', sans-serif;font-size:8px;">+</text>
    </g>
    <g transform="matrix(1.33333,0,0,1.33333,-86.1943,-104.048)">
        <text x="121.92px" y="210.72px" style="font-family:'ArialMT', 'Arial', sans-serif;font-size:10px;">O</text>
        <text x="129.84px" y="203.76px" style="font-family:'ArialMT', 'Arial', sans-serif;font-size:8px;">+</text>
    </g>
    <g transform="matrix(1.33333,0,0,1.33333,-86.1943,-104.048)">
        <text x="308.4px" y="187.2px" style="font-family:'ArialMT', 'Arial', sans-serif;font-size:10px;">O</text>
    </g>
    <g transform="matrix(1.33333,0,0,1.33333,-86.1943,-104.048)">
        <text x="245.28px" y="186.96px" style="font-family:'ArialMT', 'Arial', sans-serif;font-size:10px;">O</text>
    </g>
    <g transform="matrix(1.33333,0,0,1.33333,-86.1943,-104.048)">
        <text x="282.72px" y="192.24px" style="font-family:'ArialMT', 'Arial', sans-serif;font-size:10px;">O</text>
    </g>
    <g transform="matrix(1.33333,0,0,1.33333,-86.1943,-104.048)">
        <text x="295.44px" y="221.76px" style="font-family:'ArialMT', 'Arial', sans-serif;font-size:10px;">CH</text>
        <text x="309.84px" y="224.4px" style="font-family:'ArialMT', 'Arial', sans-serif;font-size:8px;">3</text>
    </g>
    <g transform="matrix(1.33333,0,0,1.33333,-86.1943,-104.048)">
        <text x="271.68px" y="192.72px" style="font-family:'ArialMT', 'Arial', sans-serif;font-size:10px;">O</text>
    </g>
    <g transform="matrix(1.33333,0,0,1.33333,-86.1943,-104.048)">
        <text x="260.64px" y="221.28px" style="font-family:'ArialMT', 'Arial', sans-serif;font-size:10px;">C</text>
    </g>
    <g transform="matrix(1.33333,0,0,1.33333,-86.1943,-104.048)">
        <text x="249.12px" y="221.28px" style="font-family:'ArialMT', 'Arial', sans-serif;font-size:10px;">H</text>
        <text x="256.32px" y="223.92px" style="font-family:'ArialMT', 'Arial', sans-serif;font-size:8px;">3</text>
    </g>
    <g transform="matrix(1.07382,-0.790371,-0.790371,-1.07382,526.42,920.57)">
        <path d="M110.979,736.395L124.761,736.395" style="fill:none;fill-rule:nonzero;stroke:black;stroke-width:0.72px;"/>
    </g>
    <g transform="matrix(0.420232,1.26538,1.26538,-0.420232,-925.318,181.546)">
        <path d="M110.317,749.935L130.243,749.935" style="fill:none;fill-rule:nonzero;stroke:black;stroke-width:0.72px;"/>
    </g>
    <g transform="matrix(1.08381,0.776618,0.776618,-1.08381,-633.797,759.603)">
        <path d="M89.89,736.225L103.78,736.225" style="fill:none;fill-rule:nonzero;stroke:black;stroke-width:0.72px;"/>
    </g>
    <g transform="matrix(1.3333,-0.00870129,-0.00870129,-1.3333,-79.5842,1019.42)">
        <path d="M97.22,759.325L117.14,759.325" style="fill:none;fill-rule:nonzero;stroke:black;stroke-width:0.72px;"/>
    </g>
    <g transform="matrix(-0.403526,1.2708,1.2708,0.403526,-875.378,-403.44)">
        <path d="M84.243,749.765L104.167,749.765" style="fill:none;fill-rule:nonzero;stroke:black;stroke-width:0.72px;"/>
    </g>
    <g transform="matrix(0.934604,-0.950943,-0.950943,-0.934604,673.033,842.966)">
        <path d="M121.59,744.845L133.83,744.845" style="fill:none;fill-rule:nonzero;stroke:black;stroke-width:0.72px;"/>
    </g>
    <g transform="matrix(0.58082,1.20018,1.20018,-0.58082,-875.206,313.914)">
        <path d="M120.686,736.12L130.374,736.12" style="fill:none;fill-rule:nonzero;stroke:black;stroke-width:0.72px;"/>
    </g>
    <g transform="matrix(-1.12443,-0.71654,-0.71654,1.12443,658.046,-747.324)">
        <path d="M79.922,743.555L92.148,743.555" style="fill:none;fill-rule:nonzero;stroke:black;stroke-width:0.72px;"/>
    </g>
    <g transform="matrix(-0.406972,1.26971,1.26971,0.406972,-863.623,-374.112)">
        <path d="M83.878,734.935L95.082,734.935" style="fill:none;fill-rule:nonzero;stroke:black;stroke-width:0.72px;"/>
    </g>
    <g transform="matrix(1.33333,0,0,1.33333,-86.1943,-950.128)">
        <path d="M157.68,738.24L191.76,738.24" style="fill:none;fill-rule:nonzero;stroke:black;stroke-width:0.72px;"/>
    </g>
    <g transform="matrix(1.33333,0,0,1.33333,-86.1943,-957.808)">
        <path d="M157.68,741.12L191.76,741.12" style="fill:none;fill-rule:nonzero;stroke:black;stroke-width:0.72px;"/>
    </g>
    <g transform="matrix(1.33333,0,0,1.33333,-86.1943,-953.968)">
        <path d="M187.2,736.08L195.12,739.68L187.2,743.28" style="fill:none;fill-rule:nonzero;stroke:black;stroke-width:0.72px;"/>
    </g>
    <g transform="matrix(0.420232,1.26538,1.26538,-0.420232,-799.21,4.22456)">
        <path d="M249.757,750.895L269.683,750.895" style="fill:none;fill-rule:nonzero;stroke:black;stroke-width:0.72px;"/>
    </g>
    <g transform="matrix(1.3333,-0.00870129,-0.00870129,-1.3333,-79.5719,1020.64)">
        <path d="M236.66,760.285L256.58,760.285" style="fill:none;fill-rule:nonzero;stroke:black;stroke-width:0.72px;"/>
    </g>
    <g transform="matrix(-0.403526,1.2708,1.2708,0.403526,-634.411,-582.308)">
        <path d="M223.683,750.725L243.607,750.725" style="fill:none;fill-rule:nonzero;stroke:black;stroke-width:0.72px;"/>
    </g>
    <g transform="matrix(0.934604,-0.950943,-0.950943,-0.934604,729.544,975.182)">
        <path d="M261.03,745.805L273.27,745.805" style="fill:none;fill-rule:nonzero;stroke:black;stroke-width:0.72px;"/>
    </g>
    <g transform="matrix(0.58082,1.20018,1.20018,-0.58082,-771.428,145.839)">
        <path d="M260.126,737.08L269.814,737.08" style="fill:none;fill-rule:nonzero;stroke:black;stroke-width:0.72px;"/>
    </g>
    <g transform="matrix(-1.12443,-0.71654,-0.71654,1.12443,1001.44,-649.77)">
        <path d="M219.362,744.515L231.588,744.515" style="fill:none;fill-rule:nonzero;stroke:black;stroke-width:0.72px;"/>
    </g>
    <g transform="matrix(-0.406972,1.26971,1.26971,0.406972,-622.173,-552.831)">
        <path d="M223.318,735.895L234.522,735.895" style="fill:none;fill-rule:nonzero;stroke:black;stroke-width:0.72px;"/>
    </g>
    <g transform="matrix(-1.2175,-0.543579,-0.543579,1.2175,977.862,-736.806)">
        <path d="M254.249,743.275L263.251,743.275" style="fill:none;fill-rule:nonzero;stroke:black;stroke-width:0.72px;"/>
    </g>
    <g transform="matrix(0.938733,0.946868,0.946868,-0.938733,-693.14,506.063)">
        <path d="M229.417,738.32L237.613,738.32" style="fill:none;fill-rule:nonzero;stroke:black;stroke-width:0.72px;"/>
    </g>
    <g transform="matrix(1.33333,0,0,1.33333,-86.1943,-974.768)">
        <path d="M276.96,754.56L274.32,754.8L273.12,754.8L272.16,754.56L270.96,754.32L270,753.84L269.04,753.6L267.12,752.16L265.68,750.72L264.96,749.76L263.52,746.88L263.28,745.68L263.04,744.72L263.04,743.52L263.52,740.16" style="fill:none;fill-rule:nonzero;stroke:black;stroke-width:0.48px;"/>
    </g>
    <g transform="matrix(1.19257,-0.596285,-0.596285,-1.19257,393.623,1077.93)">
        <path d="M271.529,739.169L276.896,739.169L272.817,742.818L273.032,740.564L271.529,739.169Z" style="stroke:black;stroke-width:0.48px;"/>
    </g>
    <g transform="matrix(1.33333,0,0,1.33333,-86.1943,-926.768)">
        <path d="M218.88,720L221.28,719.76L222.48,719.76L224.16,720L225.84,720.48L228.72,721.92L230.16,722.88L232.56,725.28L233.52,726.72L234.96,729.6L235.44,731.28L235.68,732.96L235.68,734.16L235.44,736.8L234.72,739.2" style="fill:none;fill-rule:nonzero;stroke:black;stroke-width:0.48px;"/>
    </g>
    <g transform="matrix(-0.818587,1.05247,1.05247,0.818587,-338.301,-784.587)">
        <path d="M233.655,722.884L239.128,722.884L235.255,719.264L235.36,721.474L233.655,722.884Z" style="stroke:black;stroke-width:0.48px;"/>
    </g>
    <g transform="matrix(1.33333,0,0,1.33333,-86.1943,-950.128)">
        <path d="M234.72,734.4L236.88,734.4L238.8,735.36L239.76,736.08L240.48,736.8L240.96,737.76L241.2,738.96L241.2,739.44L241.44,740.16L240.96,742.08" style="fill:none;fill-rule:nonzero;stroke:black;stroke-width:0.48px;"/>
    </g>
    <g transform="matrix(-1.30018,0.295495,0.295495,1.30018,319.828,-1004.01)">
        <path d="M234.36,740.073L239.775,740.073L235.913,743.658L236.19,741.626L234.36,740.073Z" style="stroke:black;stroke-width:0.48px;"/>
    </g>
    <g transform="matrix(1.33333,0,0,1.33333,-86.1943,-981.808)">
        <path d="M250.32,747.12L252.48,746.64L253.44,746.88L254.64,747.12L255.6,747.6L257.04,749.04L257.76,750L258,750.96L258.24,752.16L258.24,753.6" style="fill:none;fill-rule:nonzero;stroke:black;stroke-width:0.48px;"/>
    </g>
    <g transform="matrix(-0.350823,1.28635,1.28635,0.350823,-615.924,-574.963)">
        <path d="M254.708,750.438L260.181,750.438L256.181,746.859L256.371,748.901L254.708,750.438Z" style="stroke:black;stroke-width:0.48px;"/>
    </g>
    <g transform="matrix(1.33333,0,0,1.33333,-86.1943,-948.848)">
        <path d="M297.6,737.76L331.68,737.76" style="fill:none;fill-rule:nonzero;stroke:black;stroke-width:0.72px;"/>
    </g>
    <g transform="matrix(1.33333,0,0,1.33333,-86.1943,-956.528)">
        <path d="M297.6,740.64L331.68,740.64" style="fill:none;fill-rule:nonzero;stroke:black;stroke-width:0.72px;"/>
    </g>
    <g transform="matrix(1.33333,0,0,1.33333,-86.1943,-952.688)">
        <path d="M327.12,735.6L335.04,739.2L327.12,742.8" style="fill:none;fill-rule:nonzero;stroke:black;stroke-width:0.72px;"/>
    </g>
    <g transform="matrix(0.420232,1.26538,1.26538,-0.420232,-671.28,-171.782)">
        <path d="M389.197,750.415L409.123,750.415" style="fill:none;fill-rule:nonzero;stroke:black;stroke-width:0.72px;"/>
    </g>
    <g transform="matrix(1.3333,-0.00870129,-0.00870129,-1.3333,-79.5721,1021.85)">
        <path d="M376.1,759.805L396.02,759.805" style="fill:none;fill-rule:nonzero;stroke:black;stroke-width:0.72px;"/>
    </g>
    <g transform="matrix(-0.403526,1.2708,1.2708,0.403526,-391.613,-758.676)">
        <path d="M363.123,750.245L383.047,750.245" style="fill:none;fill-rule:nonzero;stroke:black;stroke-width:0.72px;"/>
    </g>
    <g transform="matrix(0.934604,-0.950943,-0.950943,-0.934604,784.687,1107.97)">
        <path d="M400.47,745.325L412.71,745.325" style="fill:none;fill-rule:nonzero;stroke:black;stroke-width:0.72px;"/>
    </g>
    <g transform="matrix(-1.12443,-0.71654,-0.71654,1.12443,1343.81,-548.676)">
        <path d="M358.802,744.035L371.028,744.035" style="fill:none;fill-rule:nonzero;stroke:black;stroke-width:0.72px;"/>
    </g>
    <g transform="matrix(-0.302018,1.29868,1.29868,0.302018,-387.006,-700.018)">
        <path d="M391.465,734.03L406.475,734.03" style="fill:none;fill-rule:nonzero;stroke:black;stroke-width:0.72px;"/>
    </g>
    <g transform="matrix(-0.301729,1.29874,1.29874,0.301729,-381.184,-703.575)">
        <path d="M395.215,733.65L409.445,733.65" style="fill:none;fill-rule:nonzero;stroke:black;stroke-width:0.72px;"/>
    </g>
    <g transform="matrix(0.454804,1.25337,1.25337,-0.454804,-679.98,-90.8607)">
        <path d="M363.941,733.69L377.749,733.69" style="fill:none;fill-rule:nonzero;stroke:black;stroke-width:0.72px;"/>
    </g>
    <g transform="matrix(0.455016,1.25329,1.25329,-0.455016,-677.763,-95.4053)">
        <path d="M366.699,734.265L381.731,734.265" style="fill:none;fill-rule:nonzero;stroke:black;stroke-width:0.72px;"/>
    </g>
    <g transform="matrix(1.33333,0,0,1.33333,-86.1943,-978.608)">
        <path d="M415.92,755.28L414.24,755.52L411.84,755.04L410.88,754.8L408.96,753.84L408,753.12L407.28,752.4L405.84,750.48L404.88,748.56L404.64,747.36L404.64,745.68L405.12,742.32" style="fill:none;fill-rule:nonzero;stroke:black;stroke-width:0.48px;"/>
    </g>
    <g transform="matrix(0.668048,-1.1539,-1.1539,-0.668048,1051.6,984.27)">
        <path d="M401.776,753.58L407.045,753.58L403.077,749.896L403.482,752.071L401.776,753.58Z" style="stroke:black;stroke-width:0.48px;"/>
    </g>
    <g transform="matrix(1.33333,0,0,1.33333,-86.1943,-975.088)">
        <path d="M366.72,738.48L367.92,740.4L368.64,742.8L368.88,745.2L368.64,746.4L368.64,747.6L368.16,748.8L367.68,749.76L367.2,750.96L366.72,751.92L365.04,753.6L363.12,755.04L362.16,755.52L360.96,756L360,756.48L358.8,756.72L358.08,756.72" style="fill:none;fill-rule:nonzero;stroke:black;stroke-width:0.48px;"/>
    </g>
    <g transform="matrix(-0.942809,-0.942809,-0.942809,0.942809,1463.84,-350.324)">
        <path d="M366.434,753.571L371.864,753.571L367.961,757.135L368.131,754.929L366.434,753.571Z" style="stroke:black;stroke-width:0.48px;"/>
    </g>
    <g transform="matrix(1.33333,0,0,1.33333,-86.1943,-936.368)">
        <path d="M392.88,742.08L391.68,740.88L390.96,739.44L390.24,737.76L389.76,736.08L389.52,734.4L389.76,732.96L390,731.76L390.48,730.32L390.96,729.12L392.4,727.2L393.36,726.24L394.56,725.52L395.52,724.8L396.72,724.32L397.44,724.08" style="fill:none;fill-rule:nonzero;stroke:black;stroke-width:0.48px;"/>
    </g>
    <g transform="matrix(1.32786,-0.120714,-0.120714,-1.32786,5.30092,1062.12)">
        <path d="M392.312,741.833L397.614,741.833L393.659,738.095L393.877,740.485L392.312,741.833Z" style="stroke:black;stroke-width:0.48px;"/>
    </g>
    <g transform="matrix(1.33333,0,0,1.33333,-86.1943,-935.408)">
        <path d="M375.36,724.08L376.8,724.56L378,725.04L379.2,725.76L380.4,726.72L381.36,727.68L382.8,730.08L383.76,732.96L383.76,735.6L383.52,737.04L382.56,739.44L381.12,741.36" style="fill:none;fill-rule:nonzero;stroke:black;stroke-width:0.48px;"/>
    </g>
    <g transform="matrix(-1.33196,0.0605435,0.0605435,1.33196,876.503,-975.836)">
        <path d="M375.276,737.882L380.561,737.882L376.649,741.663L376.79,739.495L375.276,737.882Z" style="stroke:black;stroke-width:0.48px;"/>
    </g>
    <g transform="matrix(1.33333,0,0,1.33333,-86.1943,-950.128)">
        <path d="M428.4,738.24L462.48,738.24" style="fill:none;fill-rule:nonzero;stroke:black;stroke-width:0.72px;"/>
    </g>
    <g transform="matrix(1.33333,0,0,1.33333,-86.1943,-957.808)">
        <path d="M428.4,741.12L462.48,741.12" style="fill:none;fill-rule:nonzero;stroke:black;stroke-width:0.72px;"/>
    </g>
    <g transform="matrix(1.33333,0,0,1.33333,-86.1943,-953.968)">
        <path d="M457.92,736.08L465.84,739.68L457.92,743.28" style="fill:none;fill-rule:nonzero;stroke:black;stroke-width:0.72px;"/>
    </g>
    <g transform="matrix(0.420232,1.26538,1.26538,-0.420232,-776.186,212.958)">
        <path d="M149.917,660.655L169.843,660.655" style="fill:none;fill-rule:nonzero;stroke:black;stroke-width:0.72px;"/>
    </g>
    <g transform="matrix(1.3333,-0.00870129,-0.00870129,-1.3333,-80.3599,1019.77)">
        <path d="M136.82,670.045L156.74,670.045" style="fill:none;fill-rule:nonzero;stroke:black;stroke-width:0.72px;"/>
    </g>
    <g transform="matrix(-0.403526,1.2708,1.2708,0.403526,-693.141,-298.697)">
        <path d="M123.843,660.485L143.767,660.485" style="fill:none;fill-rule:nonzero;stroke:black;stroke-width:0.72px;"/>
    </g>
    <g transform="matrix(0.58082,1.20018,1.20018,-0.58082,-738.255,333.571)">
        <path d="M160.286,646.84L169.974,646.84" style="fill:none;fill-rule:nonzero;stroke:black;stroke-width:0.72px;"/>
    </g>
    <g transform="matrix(0.580997,1.20009,1.20009,-0.580997,-736.637,329.081)">
        <path d="M162.89,647.62L174.09,647.62" style="fill:none;fill-rule:nonzero;stroke:black;stroke-width:0.72px;"/>
    </g>
    <g transform="matrix(0.58053,1.20032,1.20032,-0.58053,-737.748,338.204)">
        <path d="M156.836,644.695L168.044,644.695" style="fill:none;fill-rule:nonzero;stroke:black;stroke-width:0.72px;"/>
    </g>
    <g transform="matrix(-0.40604,1.27,1.27,0.40604,-683.452,-273.867)">
        <path d="M126.935,648.175L132.845,648.175" style="fill:none;fill-rule:nonzero;stroke:black;stroke-width:0.72px;"/>
    </g>
    <g transform="matrix(-0.40555,1.27016,1.27016,0.40555,-677.155,-277.063)">
        <path d="M130.903,647.715L135.637,647.715" style="fill:none;fill-rule:nonzero;stroke:black;stroke-width:0.72px;"/>
    </g>
    <g transform="matrix(-0.406169,1.26996,1.26996,0.406169,-688.153,-265.268)">
        <path d="M119.646,646.22L131.824,646.22" style="fill:none;fill-rule:nonzero;stroke:black;stroke-width:0.72px;"/>
    </g>
    <g transform="matrix(1.33333,0,0,1.33333,-86.1943,-707.568)">
        <path d="M194.16,647.28L228.24,647.28" style="fill:none;fill-rule:nonzero;stroke:black;stroke-width:0.72px;"/>
    </g>
    <g transform="matrix(1.33333,0,0,1.33333,-86.1943,-715.248)">
        <path d="M194.16,650.16L228.24,650.16" style="fill:none;fill-rule:nonzero;stroke:black;stroke-width:0.72px;"/>
    </g>
    <g transform="matrix(1.33333,0,0,1.33333,-86.1943,-711.408)">
        <path d="M223.68,645.12L231.6,648.72L223.68,652.32" style="fill:none;fill-rule:nonzero;stroke:black;stroke-width:0.72px;"/>
    </g>
    <g transform="matrix(0.420232,1.26538,1.26538,-0.420232,-670.084,31.3613)">
        <path d="M284.077,673.615L304.003,673.615" style="fill:none;fill-rule:nonzero;stroke:black;stroke-width:0.72px;"/>
    </g>
    <g transform="matrix(1.3333,-0.00870129,-0.00870129,-1.3333,-80.2433,1020.94)">
        <path d="M270.98,683.005L290.9,683.005" style="fill:none;fill-rule:nonzero;stroke:black;stroke-width:0.72px;"/>
    </g>
    <g transform="matrix(-0.403526,1.2708,1.2708,0.403526,-476.594,-491.698)">
        <path d="M258.003,673.445L277.927,673.445" style="fill:none;fill-rule:nonzero;stroke:black;stroke-width:0.72px;"/>
    </g>
    <g transform="matrix(1.25618,0.446977,0.446977,-1.25618,-358.19,832.54)">
        <path d="M296.288,660.655L307.772,660.655" style="fill:none;fill-rule:nonzero;stroke:black;stroke-width:0.72px;"/>
    </g>
    <g transform="matrix(1.2561,0.447217,0.447217,-1.2561,-359.781,831.9)">
        <path d="M297.452,664.015L307.738,664.015" style="fill:none;fill-rule:nonzero;stroke:black;stroke-width:0.72px;"/>
    </g>
    <g transform="matrix(-1.27319,0.395938,0.395938,1.27319,326.803,-814.783)">
        <path d="M253.917,663.96L264.693,663.96" style="fill:none;fill-rule:nonzero;stroke:black;stroke-width:0.72px;"/>
    </g>
    <g transform="matrix(-1.27354,0.394809,0.394809,1.27354,330.274,-806.161)">
        <path d="M253.895,660.6L265.715,660.6" style="fill:none;fill-rule:nonzero;stroke:black;stroke-width:0.72px;"/>
    </g>
    <g transform="matrix(-0.953001,0.932506,0.932506,0.953001,-29.9079,-768.258)">
        <path d="M290.487,661.43L298.293,661.43" style="fill:none;fill-rule:nonzero;stroke:black;stroke-width:0.72px;"/>
    </g>
    <g transform="matrix(0.0389904,1.33276,1.33276,-0.0389904,-571.633,-195.88)">
        <path d="M281.233,642.84L292.517,642.84" style="fill:none;fill-rule:nonzero;stroke:black;stroke-width:0.72px;"/>
    </g>
    <g transform="matrix(0.905586,0.978617,0.978617,-0.905586,-581.463,463.129)">
        <path d="M285.283,633.18L296.237,633.18" style="fill:none;fill-rule:nonzero;stroke:black;stroke-width:0.72px;"/>
    </g>
    <g transform="matrix(0.938733,0.946868,0.946868,-0.938733,-606.424,504.061)">
        <path d="M263.737,661.04L271.933,661.04" style="fill:none;fill-rule:nonzero;stroke:black;stroke-width:0.72px;"/>
    </g>
    <g transform="matrix(0,1.33333,1.33333,0,-574.834,-204.848)">
        <path d="M269.52,642L281.52,642" style="fill:none;fill-rule:nonzero;stroke:black;stroke-width:0.72px;"/>
    </g>
    <g transform="matrix(-0.942809,0.942809,0.942809,0.942809,-63.1781,-678.061)">
        <path d="M267.408,632.64L276.912,632.64" style="fill:none;fill-rule:nonzero;stroke:black;stroke-width:0.72px;"/>
    </g>
    <g transform="matrix(1.33333,0,0,1.33333,-86.1943,-706.928)">
        <path d="M69.12,647.04L103.2,647.04" style="fill:none;fill-rule:nonzero;stroke:black;stroke-width:0.72px;"/>
    </g>
    <g transform="matrix(1.33333,0,0,1.33333,-86.1943,-714.608)">
        <path d="M69.12,649.92L103.2,649.92" style="fill:none;fill-rule:nonzero;stroke:black;stroke-width:0.72px;"/>
    </g>
    <g transform="matrix(1.33333,0,0,1.33333,-86.1943,-710.768)">
        <path d="M98.64,644.88L106.56,648.48L98.64,652.08" style="fill:none;fill-rule:nonzero;stroke:black;stroke-width:0.72px;"/>
    </g>
</svg>
