<?xml version="1.0" encoding="UTF-8" standalone="no"?>
<!DOCTYPE svg PUBLIC "-//W3C//DTD SVG 1.1//EN" "http://www.w3.org/Graphics/SVG/1.1/DTD/svg11.dtd">
<svg width="100%" height="100%" viewBox="0 0 580 465" version="1.1" xmlns="http://www.w3.org/2000/svg" xmlns:xlink="http://www.w3.org/1999/xlink" xml:space="preserve" xmlns:serif="http://www.serif.com/" style="fill-rule:evenodd;clip-rule:evenodd;stroke-linecap:round;stroke-linejoin:round;stroke-miterlimit:10;">
    <g transform="matrix(1.33333,0,0,1.33333,-71.8999,-89.3414)">
        <text x="62.4px" y="99.6px" style="font-family:'ArialMT', 'Arial', sans-serif;font-size:10px;">O</text>
    </g>
    <g transform="matrix(1.33333,0,0,1.33333,-71.8999,-89.3414)">
        <text x="55.2px" y="99.6px" style="font-family:'ArialMT', 'Arial', sans-serif;font-size:10px;">H</text>
    </g>
    <g transform="matrix(1.33333,0,0,1.33333,-71.8999,-89.3414)">
        <text x="141.36px" y="82.32px" style="font-family:'ArialMT', 'Arial', sans-serif;font-size:10px;">O<tspan x="149.28px " y="82.32px ">H</tspan></text>
    </g>
    <g transform="matrix(1.33333,0,0,1.33333,-71.8999,-89.3414)">
        <text x="115.92px" y="116.64px" style="font-family:'ArialMT', 'Arial', sans-serif;font-size:10px;">Ph</text>
    </g>
    <g transform="matrix(1.33333,0,0,1.33333,-71.8999,-89.3414)">
        <text x="143.04px" y="109.44px" style="font-family:'ArialMT', 'Arial', sans-serif;font-size:10px;">Ph</text>
    </g>
    <g transform="matrix(1.33333,0,0,1.33333,-71.8999,-89.3414)">
        <text x="231.6px" y="102.24px" style="font-family:'ArialMT', 'Arial', sans-serif;font-size:10px;">O</text>
    </g>
    <g transform="matrix(1.33333,0,0,1.33333,-71.8999,-89.3414)">
        <text x="224.4px" y="102.24px" style="font-family:'ArialMT', 'Arial', sans-serif;font-size:10px;">H</text>
    </g>
    <g transform="matrix(1.33333,0,0,1.33333,-71.8999,-89.3414)">
        <text x="317.76px" y="92.16px" style="font-family:'ArialMT', 'Arial', sans-serif;font-size:10px;">O</text>
    </g>
    <g transform="matrix(1.33333,0,0,1.33333,-71.8999,-89.3414)">
        <text x="294.96px" y="122.16px" style="font-family:'ArialMT', 'Arial', sans-serif;font-size:10px;">Ph</text>
    </g>
    <g transform="matrix(1.33333,0,0,1.33333,-71.8999,-89.3414)">
        <text x="339.12px" y="106.08px" style="font-family:'ArialMT', 'Arial', sans-serif;font-size:18px;">+</text>
        <text x="364.56px" y="102.24px" style="font-family:'ArialMT', 'Arial', sans-serif;font-size:10px;">P</text>
        <text x="371.25px" y="102.24px" style="font-family:'ArialMT', 'Arial', sans-serif;font-size:10px;">h</text>
        <text x="377.005px" y="95.28px" style="font-family:'ArialMT', 'Arial', sans-serif;font-size:8px;">-</text>
    </g>
    <g transform="matrix(1.33333,0,0,1.33333,-71.8999,-89.3414)">
        <text x="227.28px" y="185.52px" style="font-family:'ArialMT', 'Arial', sans-serif;font-size:10px;">O</text>
    </g>
    <g transform="matrix(1.33333,0,0,1.33333,-71.8999,-89.3414)">
        <text x="220.08px" y="185.52px" style="font-family:'ArialMT', 'Arial', sans-serif;font-size:10px;">H</text>
    </g>
    <g transform="matrix(1.33333,0,0,1.33333,-71.8999,-89.3414)">
        <text x="313.44px" y="195.36px" style="font-family:'ArialMT', 'Arial', sans-serif;font-size:10px;">O</text>
        <text x="321.36px" y="188.4px" style="font-family:'ArialMT', 'Arial', sans-serif;font-size:8px;">+</text>
    </g>
    <g transform="matrix(1.33333,0,0,1.33333,-71.8999,-89.3414)">
        <text x="393.36px" y="193.68px" style="font-family:'ArialMT', 'Arial', sans-serif;font-size:10px;">O</text>
    </g>
    <g transform="matrix(1.33333,0,0,1.33333,-71.8999,-89.3414)">
        <text x="386.16px" y="193.68px" style="font-family:'ArialMT', 'Arial', sans-serif;font-size:10px;">H</text>
    </g>
    <g transform="matrix(1.33333,0,0,1.33333,-71.8999,-89.3414)">
        <text x="462.48px" y="193.68px" style="font-family:'ArialMT', 'Arial', sans-serif;font-size:10px;">C</text>
        <text x="469.68px" y="186.72px" style="font-family:'ArialMT', 'Arial', sans-serif;font-size:8px;">+</text>
    </g>
    <g transform="matrix(1.33333,0,0,1.33333,-71.8999,-89.3414)">
        <text x="479.52px" y="183.6px" style="font-family:'ArialMT', 'Arial', sans-serif;font-size:10px;">O</text>
    </g>
    <g transform="matrix(1.33333,0,0,1.33333,-71.8999,-89.3414)">
        <text x="431.76px" y="289.92px" style="font-family:'ArialMT', 'Arial', sans-serif;font-size:10px;">O</text>
        <text x="439.68px" y="282.96px" style="font-family:'ArialMT', 'Arial', sans-serif;font-size:8px;">+</text>
    </g>
    <g transform="matrix(1.33333,0,0,1.33333,-71.8999,-89.3414)">
        <text x="467.04px" y="291.84px" style="font-family:'ArialMT', 'Arial', sans-serif;font-size:10px;">O</text>
    </g>
    <g transform="matrix(1.33333,0,0,1.33333,-71.8999,-89.3414)">
        <text x="427.92px" y="309.36px" style="font-family:'ArialMT', 'Arial', sans-serif;font-size:10px;">H</text>
    </g>
    <g transform="matrix(1.33333,0,0,1.33333,-71.8999,-89.3414)">
        <text x="429.6px" y="409.2px" style="font-family:'ArialMT', 'Arial', sans-serif;font-size:10px;">O</text>
    </g>
    <g transform="matrix(1.33333,0,0,1.33333,-71.8999,-89.3414)">
        <text x="465.12px" y="410.88px" style="font-family:'ArialMT', 'Arial', sans-serif;font-size:10px;">O</text>
    </g>
    <g transform="matrix(-1.15469,0.666676,0.666676,1.15469,-381.161,-891.42)">
        <path d="M70.33,752.815L84.51,752.815" style="fill:none;fill-rule:nonzero;stroke:black;stroke-width:0.72px;"/>
    </g>
    <g transform="matrix(-1.15468,-0.666702,-0.666702,1.15468,658.404,-774.765)">
        <path d="M82.226,751.38L102.144,751.38" style="fill:none;fill-rule:nonzero;stroke:black;stroke-width:0.72px;"/>
    </g>
    <g transform="matrix(-1.15468,0.666702,0.666702,1.15468,-300.571,-909.185)">
        <path d="M99.476,751.38L119.394,751.38" style="fill:none;fill-rule:nonzero;stroke:black;stroke-width:0.72px;"/>
    </g>
    <g transform="matrix(0.666074,-1.15504,-1.15504,-0.666074,889.756,691.47)">
        <path d="M131.854,752.4L145.706,752.4" style="fill:none;fill-rule:nonzero;stroke:black;stroke-width:0.72px;"/>
    </g>
    <g transform="matrix(0.666796,-1.15463,-1.15463,-0.666796,870.871,691.958)">
        <path d="M124.926,740.4L138.784,740.4" style="fill:none;fill-rule:nonzero;stroke:black;stroke-width:0.72px;"/>
    </g>
    <g transform="matrix(-1.15457,-0.666898,-0.666898,1.15457,771.272,-724.764)">
        <path d="M134.677,744L144.273,744" style="fill:none;fill-rule:nonzero;stroke:black;stroke-width:0.72px;"/>
    </g>
    <g transform="matrix(1.15485,0.666412,0.666412,-1.15485,-550.017,814.68)">
        <path d="M116.726,751.38L136.654,751.38" style="fill:none;fill-rule:nonzero;stroke:black;stroke-width:0.72px;"/>
    </g>
    <g transform="matrix(1.33333,0,0,1.33333,-71.8999,-953.981)">
        <path d="M172.32,745.2L206.4,745.2" style="fill:none;fill-rule:nonzero;stroke:black;stroke-width:0.72px;"/>
    </g>
    <g transform="matrix(1.33333,0,0,1.33333,-71.8999,-961.661)">
        <path d="M172.32,748.08L206.4,748.08" style="fill:none;fill-rule:nonzero;stroke:black;stroke-width:0.72px;"/>
    </g>
    <g transform="matrix(1.33333,0,0,1.33333,-71.8999,-957.821)">
        <path d="M201.84,743.04L209.76,746.64L201.84,750.24" style="fill:none;fill-rule:nonzero;stroke:black;stroke-width:0.72px;"/>
    </g>
    <g transform="matrix(1.33333,0,0,1.33333,-71.8999,-929.981)">
        <path d="M145.44,748.8L143.76,748.08L142.32,747.12L140.88,745.92L138.48,743.04L137.76,741.6L137.04,739.92L136.56,738L136.32,736.08L136.32,733.2L136.8,731.28L137.28,729.6L139.2,726.24L140.4,724.8L141.12,724.08L141.84,723.6" style="fill:none;fill-rule:nonzero;stroke:black;stroke-width:0.48px;"/>
    </g>
    <g transform="matrix(1.32111,0.180151,0.180151,-1.32111,-200.879,998.621)">
        <path d="M140.363,723.975L145.691,723.975L141.811,727.564L141.865,725.391L140.363,723.975Z" style="stroke:black;stroke-width:0.48px;"/>
    </g>
    <g transform="matrix(-1.15469,0.666676,0.666676,1.15469,41.6069,-997.529)">
        <path d="M239.53,750.125L253.71,750.125" style="fill:none;fill-rule:nonzero;stroke:black;stroke-width:0.72px;"/>
    </g>
    <g transform="matrix(-1.15468,-0.666702,-0.666702,1.15468,1077.58,-655.266)">
        <path d="M251.426,748.69L271.344,748.69" style="fill:none;fill-rule:nonzero;stroke:black;stroke-width:0.72px;"/>
    </g>
    <g transform="matrix(-1.15468,0.666702,0.666702,1.15468,122.194,-1015.3)">
        <path d="M268.676,748.69L288.594,748.69" style="fill:none;fill-rule:nonzero;stroke:black;stroke-width:0.72px;"/>
    </g>
    <g transform="matrix(-1.1545,0.667007,0.667007,1.1545,200.365,-1037)">
        <path d="M302.664,748.96L317.816,748.96" style="fill:none;fill-rule:nonzero;stroke:black;stroke-width:0.72px;"/>
    </g>
    <g transform="matrix(-1.15448,0.667054,0.667054,1.15448,204.676,-1029.11)">
        <path d="M304.474,745.565L317.686,745.565" style="fill:none;fill-rule:nonzero;stroke:black;stroke-width:0.72px;"/>
    </g>
    <g transform="matrix(0,-1.33333,-1.33333,0,1315.85,457.519)">
        <path d="M297.105,736.295L311.935,736.295" style="fill:none;fill-rule:nonzero;stroke:black;stroke-width:0.72px;"/>
    </g>
    <g transform="matrix(1.15485,0.666412,0.666412,-1.15485,-518.024,702.403)">
        <path d="M285.926,748.69L305.854,748.69" style="fill:none;fill-rule:nonzero;stroke:black;stroke-width:0.72px;"/>
    </g>
    <g transform="matrix(1.33333,0,0,1.33333,-71.8999,-925.821)">
        <path d="M294.24,731.76L295.68,730.8L299.04,729.36L300.72,729.12L302.64,728.88L303.84,728.88L306.24,729.36L308.64,730.32L309.6,731.04L310.56,731.52L311.52,732.48L312.48,733.2L313.92,735.12L314.64,736.32L315.12,737.28L315.36,738.48L315.84,739.68L315.84,740.4" style="fill:none;fill-rule:nonzero;stroke:black;stroke-width:0.48px;"/>
    </g>
    <g transform="matrix(-0.180151,1.32111,1.32111,0.180151,-562.113,-489.598)">
        <path d="M311.765,733.066L317.094,733.066L313.235,729.391L313.419,731.596L311.765,733.066Z" style="stroke:black;stroke-width:0.48px;"/>
    </g>
    <g transform="matrix(-1.15469,0.666676,0.666676,1.15469,86.4061,-787.347)">
        <path d="M235.21,666.805L249.39,666.805" style="fill:none;fill-rule:nonzero;stroke:black;stroke-width:0.72px;"/>
    </g>
    <g transform="matrix(-1.15468,-0.666702,-0.666702,1.15468,1011.28,-450.845)">
        <path d="M247.106,665.37L267.024,665.37" style="fill:none;fill-rule:nonzero;stroke:black;stroke-width:0.72px;"/>
    </g>
    <g transform="matrix(-1.15468,0.666702,0.666702,1.15468,166.996,-805.117)">
        <path d="M264.356,665.37L284.274,665.37" style="fill:none;fill-rule:nonzero;stroke:black;stroke-width:0.72px;"/>
    </g>
    <g transform="matrix(-1.15469,-0.666676,-0.666676,1.15469,1128.19,-396.801)">
        <path d="M299.25,656.845L313.43,656.845" style="fill:none;fill-rule:nonzero;stroke:black;stroke-width:0.72px;"/>
    </g>
    <g transform="matrix(-1.15458,-0.666871,-0.666871,1.15458,1123.88,-388.819)">
        <path d="M297.442,653.46L313.518,653.46" style="fill:none;fill-rule:nonzero;stroke:black;stroke-width:0.72px;"/>
    </g>
    <g transform="matrix(-1.15461,-0.666831,-0.666831,1.15461,1135.23,-401.96)">
        <path d="M300.867,659.52L315.983,659.52" style="fill:none;fill-rule:nonzero;stroke:black;stroke-width:0.72px;"/>
    </g>
    <g transform="matrix(1.15485,0.666412,0.666412,-1.15485,-463.27,720.153)">
        <path d="M281.606,665.37L301.534,665.37" style="fill:none;fill-rule:nonzero;stroke:black;stroke-width:0.72px;"/>
    </g>
    <g transform="matrix(1.33333,0,0,1.33333,-71.8999,-730.621)">
        <path d="M341.76,661.44L375.84,661.44" style="fill:none;fill-rule:nonzero;stroke:black;stroke-width:0.72px;"/>
    </g>
    <g transform="matrix(1.2958,0.314133,0.314133,-1.2958,-265.722,891.573)">
        <path d="M367.579,662.373L375.729,662.373L368.484,658.641L369.431,660.846L367.579,662.373Z" style="stroke:black;stroke-width:0.72px;"/>
    </g>
    <g transform="matrix(-1.2958,0.314133,0.314133,1.2958,629.264,-814.398)">
        <path d="M341.419,660.507L349.569,660.507L342.324,664.239L343.271,662.034L341.419,660.507Z" style="stroke:black;stroke-width:0.72px;"/>
    </g>
    <g transform="matrix(-1.15469,0.666676,0.666676,1.15469,505.018,-877.915)">
        <path d="M401.29,658.705L415.47,658.705" style="fill:none;fill-rule:nonzero;stroke:black;stroke-width:0.72px;"/>
    </g>
    <g transform="matrix(-1.15468,-0.666702,-0.666702,1.15468,1419.09,-319.966)">
        <path d="M413.186,657.27L433.104,657.27" style="fill:none;fill-rule:nonzero;stroke:black;stroke-width:0.72px;"/>
    </g>
    <g transform="matrix(-1.15468,0.666702,0.666702,1.15468,585.605,-895.69)">
        <path d="M430.436,657.27L450.354,657.27" style="fill:none;fill-rule:nonzero;stroke:black;stroke-width:0.72px;"/>
    </g>
    <g transform="matrix(-1.15469,0.666693,0.666693,1.15469,674.335,-927.677)">
        <path d="M474.94,660.35L478.82,660.35" style="fill:none;fill-rule:nonzero;stroke:black;stroke-width:0.72px;"/>
    </g>
    <g transform="matrix(-1.15469,0.666693,0.666693,1.15469,676.922,-918.024)">
        <path d="M474.94,656.47L478.82,656.47" style="fill:none;fill-rule:nonzero;stroke:black;stroke-width:0.72px;"/>
    </g>
    <g transform="matrix(1.15498,0.66619,0.66619,-1.15498,-429.482,612.448)">
        <path d="M448.055,658.645L462.485,658.645" style="fill:none;fill-rule:nonzero;stroke:black;stroke-width:0.72px;"/>
    </g>
    <g transform="matrix(1.33333,0,0,1.33333,-71.8999,-757.181)">
        <path d="M398.88,681.6L400.8,678.48L402.72,675.84L404.88,673.2L407.52,670.8L410.16,668.64L411.84,667.2L413.76,666L415.92,665.04L417.84,664.08L420,663.12L422.16,662.4L424.32,661.92L426.72,661.44L428.88,661.2L431.28,660.96L434.88,660.96L437.28,661.2L442.08,662.16L446.4,663.6L448.56,664.56L450.72,665.76L454.56,668.16L456.48,669.6L461.52,674.64L462.96,676.56L464.16,678.48L465.6,680.4L465.84,681.12L466.32,681.84" style="fill:none;fill-rule:nonzero;stroke:black;stroke-width:0.48px;"/>
    </g>
    <g transform="matrix(0.238514,1.31183,1.31183,-0.238514,-434.257,-302.201)">
        <path d="M461.777,665.253L467.144,665.253L463.301,661.561L463.452,663.729L461.777,665.253Z" style="stroke:black;stroke-width:0.48px;"/>
    </g>
    <g transform="matrix(1.21783,-0.542822,-0.542822,-1.21783,285.135,1212.31)">
        <path d="M444.789,562.09L454.271,562.09" style="fill:none;fill-rule:nonzero;stroke:black;stroke-width:0.72px;"/>
    </g>
    <g transform="matrix(0.139231,1.32604,1.32604,-0.139231,-292.236,-252.566)">
        <path d="M442.861,573.925L462.779,573.925" style="fill:none;fill-rule:nonzero;stroke:black;stroke-width:0.72px;"/>
    </g>
    <g transform="matrix(0.891953,0.991059,0.991059,-0.891953,-444.441,360.587)">
        <path d="M420.202,565.92L433.118,565.92" style="fill:none;fill-rule:nonzero;stroke:black;stroke-width:0.72px;"/>
    </g>
    <g transform="matrix(1.3042,0.277177,0.277177,-1.3042,-221.422,893.629)">
        <path d="M432.082,585.9L451.998,585.9" style="fill:none;fill-rule:nonzero;stroke:black;stroke-width:0.72px;"/>
    </g>
    <g transform="matrix(-0.666702,1.15468,1.15468,0.666702,113.797,-618.91)">
        <path d="M417.361,579.345L437.279,579.345" style="fill:none;fill-rule:nonzero;stroke:black;stroke-width:0.72px;"/>
    </g>
    <g transform="matrix(1.15471,0.666654,0.666654,-1.15471,-362.332,627.044)">
        <path d="M452.01,558.79L467.09,558.79" style="fill:none;fill-rule:nonzero;stroke:black;stroke-width:0.72px;"/>
    </g>
    <g transform="matrix(1.15471,0.666648,0.666648,-1.15471,-364.444,625.882)">
        <path d="M453.82,562.185L466.96,562.185" style="fill:none;fill-rule:nonzero;stroke:black;stroke-width:0.72px;"/>
    </g>
    <g transform="matrix(-0.277419,1.30415,1.30415,0.277419,-85.8426,-412.133)">
        <path d="M428.948,546.24L438.272,546.24" style="fill:none;fill-rule:nonzero;stroke:black;stroke-width:0.72px;"/>
    </g>
    <g transform="matrix(1.21823,-0.541942,-0.541942,-1.21823,218.821,1223.6)">
        <path d="M437.85,441.895L452.44,441.895" style="fill:none;fill-rule:nonzero;stroke:black;stroke-width:0.72px;"/>
    </g>
    <g transform="matrix(0.139231,1.32604,1.32604,-0.139231,-136.673,-107.558)">
        <path d="M440.811,454.765L460.729,454.765" style="fill:none;fill-rule:nonzero;stroke:black;stroke-width:0.72px;"/>
    </g>
    <g transform="matrix(0.892066,0.990957,0.990957,-0.892066,-327.17,415.279)">
        <path d="M418.126,446.7L431.204,446.7" style="fill:none;fill-rule:nonzero;stroke:black;stroke-width:0.72px;"/>
    </g>
    <g transform="matrix(1.3042,0.277177,0.277177,-1.3042,-188.453,897.668)">
        <path d="M430.032,466.74L449.948,466.74" style="fill:none;fill-rule:nonzero;stroke:black;stroke-width:0.72px;"/>
    </g>
    <g transform="matrix(-0.666702,1.15468,1.15468,0.666702,247.289,-378.219)">
        <path d="M415.311,460.185L435.229,460.185" style="fill:none;fill-rule:nonzero;stroke:black;stroke-width:0.72px;"/>
    </g>
    <g transform="matrix(1.15452,0.666978,0.666978,-1.15452,-283.285,649.426)">
        <path d="M449.949,439.6L465.181,439.6" style="fill:none;fill-rule:nonzero;stroke:black;stroke-width:0.72px;"/>
    </g>
    <g transform="matrix(1.1545,0.66702,0.66702,-1.1545,-285.407,648.229)">
        <path d="M451.759,442.995L465.051,442.995" style="fill:none;fill-rule:nonzero;stroke:black;stroke-width:0.72px;"/>
    </g>
    <g transform="matrix(1.33333,0,0,1.33333,-71.8999,-994.621)">
        <path d="M133.92,770.16L131.04,768.72L129.84,767.52L128.88,766.32L127.92,764.88L127.44,763.2L127.2,761.52L127.2,759.6L127.68,757.2L128.64,755.28L129.36,754.32L130.8,752.88L131.76,752.16L133.68,751.2L136.08,750.72L137.28,750.72L140.4,751.2" style="fill:none;fill-rule:nonzero;stroke:black;stroke-width:0.48px;"/>
    </g>
    <g transform="matrix(1.26491,0.421637,0.421637,-1.26491,-380.804,926.851)">
        <path d="M126.317,752.126L134.665,752.126L127.531,756.073L128.594,753.644L126.317,752.126Z" style="stroke:black;stroke-width:0.48px;"/>
    </g>
    <g transform="matrix(1.33333,0,0,1.33333,-71.8999,-989.821)">
        <path d="M306.96,764.64L305.76,762.48L305.52,760.08L305.52,758.88L305.76,757.92L306.24,756.72L306.72,755.76L307.44,755.04L308.16,754.08L310.08,753.12L311.28,752.64L313.92,752.64L315.84,753.12L316.8,753.6L317.52,754.08L318.96,755.52" style="fill:none;fill-rule:nonzero;stroke:black;stroke-width:0.48px;"/>
    </g>
    <g transform="matrix(0.70315,1.13285,1.13285,-0.70315,-737.073,211.053)">
        <path d="M301.214,756.404L309.406,756.404L302.219,760.299L303.295,757.936L301.214,756.404Z" style="stroke:black;stroke-width:0.48px;"/>
    </g>
    <g transform="matrix(0,1.33333,1.33333,0,-316.22,-379.101)">
        <path d="M423,621.24L453,621.24" style="fill:none;fill-rule:nonzero;stroke:black;stroke-width:0.72px;"/>
    </g>
    <g transform="matrix(0,1.33333,1.33333,0,-312.38,-382.941)">
        <path d="M425.88,621.24L455.88,621.24" style="fill:none;fill-rule:nonzero;stroke:black;stroke-width:0.72px;"/>
    </g>
    <g transform="matrix(1.33333,0,0,1.33333,-71.8999,-585.021)">
        <path d="M443.04,602.88L439.44,610.8L435.84,602.88" style="fill:none;fill-rule:nonzero;stroke:black;stroke-width:0.72px;"/>
    </g>
    <g transform="matrix(0,1.33333,1.33333,0,-151.74,-216.541)">
        <path d="M423.72,498.6L453.72,498.6" style="fill:none;fill-rule:nonzero;stroke:black;stroke-width:0.72px;"/>
    </g>
    <g transform="matrix(0,1.33333,1.33333,0,-147.9,-220.381)">
        <path d="M426.6,498.6L456.6,498.6" style="fill:none;fill-rule:nonzero;stroke:black;stroke-width:0.72px;"/>
    </g>
    <g transform="matrix(1.33333,0,0,1.33333,-71.8999,-257.981)">
        <path d="M443.76,480.24L440.16,488.16L436.56,480.24" style="fill:none;fill-rule:nonzero;stroke:black;stroke-width:0.72px;"/>
    </g>
    <g transform="matrix(0,1.33333,1.33333,0,-652.22,-273.501)">
        <path d="M257.4,707.64L287.4,707.64" style="fill:none;fill-rule:nonzero;stroke:black;stroke-width:0.72px;"/>
    </g>
    <g transform="matrix(0,1.33333,1.33333,0,-648.38,-277.341)">
        <path d="M260.28,707.64L290.28,707.64" style="fill:none;fill-rule:nonzero;stroke:black;stroke-width:0.72px;"/>
    </g>
    <g transform="matrix(1.33333,0,0,1.33333,-71.8999,-815.421)">
        <path d="M277.44,689.28L273.84,697.2L270.24,689.28" style="fill:none;fill-rule:nonzero;stroke:black;stroke-width:0.72px;"/>
    </g>
</svg>
