<?xml version="1.0" encoding="UTF-8" standalone="no"?>
<!DOCTYPE svg PUBLIC "-//W3C//DTD SVG 1.1//EN" "http://www.w3.org/Graphics/SVG/1.1/DTD/svg11.dtd">
<svg width="100%" height="100%" viewBox="0 0 455 235" version="1.1" xmlns="http://www.w3.org/2000/svg" xmlns:xlink="http://www.w3.org/1999/xlink" xml:space="preserve" xmlns:serif="http://www.serif.com/" style="fill-rule:evenodd;clip-rule:evenodd;stroke-linecap:round;stroke-linejoin:round;stroke-miterlimit:10;">
    <g transform="matrix(1.33333,0,0,1.33333,-60.72,-95.94)">
        <text x="67.2px" y="131.04px" style="font-family:'ArialMT', 'Arial', sans-serif;font-size:10px;">O</text>
    </g>
    <g transform="matrix(1.33333,0,0,1.33333,-60.72,-95.94)">
        <text x="60px" y="131.04px" style="font-family:'ArialMT', 'Arial', sans-serif;font-size:10px;">H</text>
    </g>
    <g transform="matrix(1.33333,0,0,1.33333,-60.72,-95.94)">
        <text x="58.32px" y="83.76px" style="font-family:'ArialMT', 'Arial', sans-serif;font-size:10px;">C</text>
    </g>
    <g transform="matrix(1.33333,0,0,1.33333,-60.72,-95.94)">
        <text x="46.8px" y="83.76px" style="font-family:'ArialMT', 'Arial', sans-serif;font-size:10px;">H</text>
        <text x="54px" y="86.4px" style="font-family:'ArialMT', 'Arial', sans-serif;font-size:8px;">3</text>
    </g>
    <g transform="matrix(1.33333,0,0,1.33333,-60.72,-95.94)">
        <text x="92.64px" y="136.32px" style="font-family:'ArialMT', 'Arial', sans-serif;font-size:10px;">O</text>
    </g>
    <g transform="matrix(1.33333,0,0,1.33333,-60.72,-95.94)">
        <text x="85.44px" y="136.32px" style="font-family:'ArialMT', 'Arial', sans-serif;font-size:10px;">H</text>
    </g>
    <g transform="matrix(1.33333,0,0,1.33333,-60.72,-95.94)">
        <text x="122.64px" y="120.96px" style="font-family:'ArialMT', 'Arial', sans-serif;font-size:10px;">CH</text>
        <text x="137.04px" y="123.6px" style="font-family:'ArialMT', 'Arial', sans-serif;font-size:8px;">2</text>
    </g>
    <g transform="matrix(1.33333,0,0,1.33333,-60.72,-95.94)">
        <text x="139.92px" y="91.2px" style="font-family:'ArialMT', 'Arial', sans-serif;font-size:10px;">CH</text>
        <text x="154.32px" y="93.84px" style="font-family:'ArialMT', 'Arial', sans-serif;font-size:8px;">3</text>
    </g>
    <g transform="matrix(1.33333,0,0,1.33333,-60.72,-95.94)">
        <text x="289.2px" y="126px" style="font-family:'ArialMT', 'Arial', sans-serif;font-size:10px;">O</text>
    </g>
    <g transform="matrix(1.33333,0,0,1.33333,-60.72,-95.94)">
        <text x="232.56px" y="82.8px" style="font-family:'ArialMT', 'Arial', sans-serif;font-size:10px;">C</text>
    </g>
    <g transform="matrix(1.33333,0,0,1.33333,-60.72,-95.94)">
        <text x="221.04px" y="82.8px" style="font-family:'ArialMT', 'Arial', sans-serif;font-size:10px;">H</text>
        <text x="228.24px" y="85.44px" style="font-family:'ArialMT', 'Arial', sans-serif;font-size:8px;">3</text>
    </g>
    <g transform="matrix(1.33333,0,0,1.33333,-60.72,-95.94)">
        <text x="238.08px" y="129.36px" style="font-family:'ArialMT', 'Arial', sans-serif;font-size:10px;">O</text>
    </g>
    <g transform="matrix(1.33333,0,0,1.33333,-60.72,-95.94)">
        <text x="303.36px" y="119.28px" style="font-family:'ArialMT', 'Arial', sans-serif;font-size:10px;">O</text>
    </g>
    <g transform="matrix(1.33333,0,0,1.33333,-60.72,-95.94)">
        <text x="314.16px" y="90px" style="font-family:'ArialMT', 'Arial', sans-serif;font-size:10px;">CH</text>
        <text x="328.56px" y="92.64px" style="font-family:'ArialMT', 'Arial', sans-serif;font-size:8px;">3</text>
    </g>
    <g transform="matrix(1.33333,0,0,1.33333,-60.72,-95.94)">
        <text x="314.16px" y="147.84px" style="font-family:'ArialMT', 'Arial', sans-serif;font-size:10px;">CH</text>
        <text x="328.56px" y="150.48px" style="font-family:'ArialMT', 'Arial', sans-serif;font-size:8px;">3</text>
    </g>
    <g transform="matrix(1.33333,0,0,1.33333,-60.72,-95.94)">
        <text x="246.24px" y="158.64px" style="font-family:'ArialMT', 'Arial', sans-serif;font-size:10px;">C</text>
    </g>
    <g transform="matrix(1.33333,0,0,1.33333,-60.72,-95.94)">
        <text x="234.72px" y="158.64px" style="font-family:'ArialMT', 'Arial', sans-serif;font-size:10px;">H</text>
        <text x="241.92px" y="161.28px" style="font-family:'ArialMT', 'Arial', sans-serif;font-size:8px;">3</text>
    </g>
    <g transform="matrix(1.33333,0,0,1.33333,-60.72,-95.94)">
        <text x="227.76px" y="100.08px" style="font-family:'ArialMT', 'Arial', sans-serif;font-size:10px;">O</text>
    </g>
    <g transform="matrix(1.33333,0,0,1.33333,-60.72,-95.94)">
        <text x="262.08px" y="134.64px" style="font-family:'ArialMT', 'Arial', sans-serif;font-size:10px;">O</text>
    </g>
    <g transform="matrix(1.33333,0,0,1.33333,-60.72,-95.94)">
        <text x="142.32px" y="204.96px" style="font-family:'ArialMT', 'Arial', sans-serif;font-size:8px;">2<tspan x="146.64px " y="204.96px ">–</tspan></text>
    </g>
    <g transform="matrix(1.33333,0,0,1.33333,-60.72,-95.94)">
        <text x="172.8px" y="211.92px" style="font-family:'ArialMT', 'Arial', sans-serif;font-size:10px;">O</text>
    </g>
    <g transform="matrix(1.33333,0,0,1.33333,-60.72,-95.94)">
        <text x="103.92px" y="211.92px" style="font-family:'ArialMT', 'Arial', sans-serif;font-size:10px;">O</text>
    </g>
    <g transform="matrix(1.33333,0,0,1.33333,-60.72,-95.94)">
        <text x="155.76px" y="241.68px" style="font-family:'ArialMT', 'Arial', sans-serif;font-size:10px;">O</text>
        <text x="163.68px" y="241.68px" style="font-family:'ArialMT', 'Arial', sans-serif;font-size:10px;">Et</text>
    </g>
    <g transform="matrix(1.33333,0,0,1.33333,-60.72,-95.94)">
        <text x="121.2px" y="241.68px" style="font-family:'ArialMT', 'Arial', sans-serif;font-size:10px;">O</text>
        <text x="129.12px" y="241.68px" style="font-family:'ArialMT', 'Arial', sans-serif;font-size:10px;">Et</text>
    </g>
    <g transform="matrix(1.33333,0,0,1.33333,-60.72,-95.94)">
        <text x="198.96px" y="230.88px" style="font-family:'ArialMT', 'Arial', sans-serif;font-size:18px;">+</text>
        <text x="226.56px" y="227.52px" style="font-family:'ArialMT', 'Arial', sans-serif;font-size:10px;">H</text>
        <text x="233.772px" y="230.16px" style="font-family:'ArialMT', 'Arial', sans-serif;font-size:8px;">3</text>
        <text x="238.093px" y="227.52px" style="font-family:'ArialMT', 'Arial', sans-serif;font-size:10px;">C	<tspan x="258px " y="227.52px ">C</tspan>H</text>
        <text x="272.416px" y="230.16px" style="font-family:'ArialMT', 'Arial', sans-serif;font-size:8px;">2</text>
    </g>
    <g transform="matrix(1.33333,0,0,1.33333,-60.72,-95.94)">
        <text x="272.4px" y="220.56px" style="font-family:'ArialMT', 'Arial', sans-serif;font-size:8px;">+</text>
    </g>
    <g transform="matrix(1.33333,0,0,1.33333,-60.72,-95.94)">
        <text x="291.36px" y="230.88px" style="font-family:'ArialMT', 'Arial', sans-serif;font-size:18px;">+</text>
    </g>
    <g transform="matrix(1.33333,0,0,1.33333,-60.72,-95.94)">
        <text x="338.16px" y="242.4px" style="font-family:'ArialMT', 'Arial', sans-serif;font-size:10px;">CH</text>
        <text x="352.56px" y="245.04px" style="font-family:'ArialMT', 'Arial', sans-serif;font-size:8px;">2</text>
    </g>
    <g transform="matrix(1.33333,0,0,1.33333,-60.72,-95.94)">
        <text x="320.88px" y="212.64px" style="font-family:'ArialMT', 'Arial', sans-serif;font-size:10px;">C</text>
    </g>
    <g transform="matrix(1.33333,0,0,1.33333,-60.72,-95.94)">
        <text x="309.36px" y="212.64px" style="font-family:'ArialMT', 'Arial', sans-serif;font-size:10px;">H</text>
        <text x="316.569px" y="215.28px" style="font-family:'ArialMT', 'Arial', sans-serif;font-size:8px;">2</text>
        <text x="328.08px" y="205.68px" style="font-family:'ArialMT', 'Arial', sans-serif;font-size:8px;">+</text>
    </g>
    <g transform="matrix(1.33333,0,0,1.33333,-60.72,-95.94)">
        <text x="355.44px" y="212.64px" style="font-family:'ArialMT', 'Arial', sans-serif;font-size:10px;">CH</text>
        <text x="369.84px" y="215.28px" style="font-family:'ArialMT', 'Arial', sans-serif;font-size:8px;">3</text>
    </g>
    <g transform="matrix(0.666412,1.15485,1.15485,-0.666412,-872.823,423.746)">
        <path d="M76.976,753.42L96.904,753.42" style="fill:none;fill-rule:nonzero;stroke:black;stroke-width:0.72px;"/>
    </g>
    <g transform="matrix(1.33333,0,0,1.33333,-60.72,-1005.51)">
        <path d="M66.48,762.05L81.96,762.05" style="fill:none;fill-rule:nonzero;stroke:black;stroke-width:0.72px;"/>
    </g>
    <g transform="matrix(0.375249,-1.27944,-1.27944,-0.375249,957.731,463.661)">
        <path d="M93.32,721.13L106.68,721.13" style="fill:none;fill-rule:nonzero;stroke:black;stroke-width:0.72px;"/>
    </g>
    <g transform="matrix(0.666702,1.15468,1.15468,-0.666702,-846.158,423.981)">
        <path d="M86.941,736.165L106.859,736.165" style="fill:none;fill-rule:nonzero;stroke:black;stroke-width:0.72px;"/>
    </g>
    <g transform="matrix(1.15468,-0.666702,-0.666702,-1.15468,447.394,949.983)">
        <path d="M73.336,739.81L93.254,739.81" style="fill:none;fill-rule:nonzero;stroke:black;stroke-width:0.72px;"/>
    </g>
    <g transform="matrix(0.237112,-1.31208,-1.31208,-0.237112,974.093,325.427)">
        <path d="M65.795,727.415L80.865,727.415" style="fill:none;fill-rule:nonzero;stroke:black;stroke-width:0.72px;"/>
    </g>
    <g transform="matrix(0,-1.33333,-1.33333,0,1093.33,214.173)">
        <path d="M120.745,737.435L135.455,737.435" style="fill:none;fill-rule:nonzero;stroke:black;stroke-width:0.72px;"/>
    </g>
    <g transform="matrix(0,-1.33333,-1.33333,0,1088.85,209.693)">
        <path d="M117.385,737.435L132.095,737.435" style="fill:none;fill-rule:nonzero;stroke:black;stroke-width:0.72px;"/>
    </g>
    <g transform="matrix(1.15468,0.666702,0.666702,-1.15468,-539.549,814.137)">
        <path d="M107.836,749.77L127.754,749.77" style="fill:none;fill-rule:nonzero;stroke:black;stroke-width:0.72px;"/>
    </g>
    <g transform="matrix(1.15468,-0.666702,-0.666702,-1.15468,457.116,959.705)">
        <path d="M90.586,749.77L110.504,749.77" style="fill:none;fill-rule:nonzero;stroke:black;stroke-width:0.72px;"/>
    </g>
    <g transform="matrix(1.1547,-0.666669,-0.666669,-1.1547,461.924,981.389)">
        <path d="M125.45,748.41L139.93,748.41" style="fill:none;fill-rule:nonzero;stroke:black;stroke-width:0.72px;"/>
    </g>
    <g transform="matrix(1.33333,0,0,1.33333,-60.72,-941.38)">
        <path d="M171.84,738L205.92,738" style="fill:none;fill-rule:nonzero;stroke:black;stroke-width:0.72px;"/>
    </g>
    <g transform="matrix(1.33333,0,0,1.33333,-60.72,-949.06)">
        <path d="M171.84,740.88L205.92,740.88" style="fill:none;fill-rule:nonzero;stroke:black;stroke-width:0.72px;"/>
    </g>
    <g transform="matrix(1.33333,0,0,1.33333,-60.72,-945.22)">
        <path d="M201.36,735.84L209.28,739.44L201.36,743.04" style="fill:none;fill-rule:nonzero;stroke:black;stroke-width:0.72px;"/>
    </g>
    <g transform="matrix(0.666702,1.15468,1.15468,-0.666702,-757.782,222.102)">
        <path d="M251.211,754.465L271.129,754.465" style="fill:none;fill-rule:nonzero;stroke:black;stroke-width:0.72px;"/>
    </g>
    <g transform="matrix(1.33333,0,0,1.33333,-60.72,-1008.29)">
        <path d="M240.72,763.09L256.19,763.09" style="fill:none;fill-rule:nonzero;stroke:black;stroke-width:0.72px;"/>
    </g>
    <g transform="matrix(0.449121,-1.25542,-1.25542,-0.449121,1072.03,691.495)">
        <path d="M238.809,728.78L253.891,728.78" style="fill:none;fill-rule:nonzero;stroke:black;stroke-width:0.72px;"/>
    </g>
    <g transform="matrix(-1.15485,0.666412,0.666412,1.15485,86.3179,-988.388)">
        <path d="M247.556,740.86L267.484,740.86" style="fill:none;fill-rule:nonzero;stroke:black;stroke-width:0.72px;"/>
    </g>
    <g transform="matrix(-0.666702,-1.15468,-1.15468,0.666702,1332.8,-134.768)">
        <path d="M261.171,737.215L281.089,737.215" style="fill:none;fill-rule:nonzero;stroke:black;stroke-width:0.72px;"/>
    </g>
    <g transform="matrix(-1.18605,-0.609157,-0.609157,1.18605,1092.11,-629.238)">
        <path d="M275.357,725.475L288.993,725.475" style="fill:none;fill-rule:nonzero;stroke:black;stroke-width:0.72px;"/>
    </g>
    <g transform="matrix(-0.434282,-1.26063,-1.26063,0.434282,1409.68,104.408)">
        <path d="M297.023,739.075L312.497,739.075" style="fill:none;fill-rule:nonzero;stroke:black;stroke-width:0.72px;"/>
    </g>
    <g transform="matrix(-0.435027,-1.26037,-1.26037,0.435027,1403.07,100.51)">
        <path d="M294.238,738.525L308.552,738.525" style="fill:none;fill-rule:nonzero;stroke:black;stroke-width:0.72px;"/>
    </g>
    <g transform="matrix(1.15468,0.666702,0.666702,-1.15468,-509.122,697.79)">
        <path d="M282.066,750.82L301.984,750.82" style="fill:none;fill-rule:nonzero;stroke:black;stroke-width:0.72px;"/>
    </g>
    <g transform="matrix(1.15468,-0.666702,-0.666702,-1.15468,488.943,1075.68)">
        <path d="M264.816,750.82L284.734,750.82" style="fill:none;fill-rule:nonzero;stroke:black;stroke-width:0.72px;"/>
    </g>
    <g transform="matrix(1.15453,-0.66696,-0.66696,-1.15453,494.022,1097.32)">
        <path d="M299.678,749.465L314.172,749.465" style="fill:none;fill-rule:nonzero;stroke:black;stroke-width:0.72px;"/>
    </g>
    <g transform="matrix(0.0533697,1.33226,1.33226,-0.0533697,-628.011,-270.855)">
        <path d="M286.955,707.98L300.445,707.98" style="fill:none;fill-rule:nonzero;stroke:black;stroke-width:0.72px;"/>
    </g>
    <g transform="matrix(-1.32221,-0.171894,-0.171894,1.32221,865.786,-780.047)">
        <path d="M293.889,699.99L313.281,699.99" style="fill:none;fill-rule:nonzero;stroke:black;stroke-width:0.72px;"/>
    </g>
    <g transform="matrix(0.971557,0.913157,0.913157,-0.971557,-614.635,540.458)">
        <path d="M244.916,706.61L259.984,706.61" style="fill:none;fill-rule:nonzero;stroke:black;stroke-width:0.72px;"/>
    </g>
    <g transform="matrix(0.645772,-1.16651,-1.16651,-0.645772,927.88,845.41)">
        <path d="M250.263,696.925L260.607,696.925" style="fill:none;fill-rule:nonzero;stroke:black;stroke-width:0.72px;"/>
    </g>
    <g transform="matrix(-1.15461,-0.666831,-0.666831,1.15461,1038.51,-655.078)">
        <path d="M235.627,741.12L250.743,741.12" style="fill:none;fill-rule:nonzero;stroke:black;stroke-width:0.72px;"/>
    </g>
    <g transform="matrix(-1.15459,-0.666851,-0.666851,1.15459,1034.17,-647.178)">
        <path d="M235.757,737.725L248.933,737.725" style="fill:none;fill-rule:nonzero;stroke:black;stroke-width:0.72px;"/>
    </g>
    <g transform="matrix(-0.666476,1.15481,1.15481,0.666476,-353.822,-731.899)">
        <path d="M263.368,722.915L278.412,722.915" style="fill:none;fill-rule:nonzero;stroke:black;stroke-width:0.72px;"/>
    </g>
    <g transform="matrix(-0.666734,1.15466,1.15466,0.666734,-345.888,-734.176)">
        <path d="M267.661,722.035L280.859,722.035" style="fill:none;fill-rule:nonzero;stroke:black;stroke-width:0.72px;"/>
    </g>
    <g transform="matrix(1.33333,0,0,1.33333,-60.72,-976.26)">
        <path d="M270,744.96L272.88,744.48L274.08,744.72L275.28,744.72L276.24,745.2L277.2,745.44L278.16,745.92L280.08,747.36L281.52,748.8L282.96,751.68L283.44,754.08L283.44,755.04L283.2,757.68" style="fill:none;fill-rule:nonzero;stroke:black;stroke-width:0.48px;"/>
    </g>
    <g transform="matrix(-0.596285,1.19257,1.19257,0.596285,-404.319,-753.344)">
        <path d="M280.889,747.871L286.256,747.871L282.177,744.222L282.392,746.476L280.889,747.871Z" style="stroke:black;stroke-width:0.48px;"/>
    </g>
    <g transform="matrix(1.33333,0,0,1.33333,-60.72,-994.18)">
        <path d="M263.76,748.8L264.48,751.44L264.96,754.08L264.72,755.28L264.72,756.48L264.48,757.44L264,758.64L263.76,759.6L263.04,760.56L262.56,761.52L261.84,762.24L261.12,763.2L260.4,763.92L259.44,764.64L256.56,766.08L255.6,766.32L253.2,766.8L250.8,766.8" style="fill:none;fill-rule:nonzero;stroke:black;stroke-width:0.48px;"/>
    </g>
    <g transform="matrix(-0.818587,-1.05247,-1.05247,0.818587,1313.97,-338.803)">
        <path d="M262.501,763.581L267.974,763.581L264.249,767.391L264.354,765.181L262.501,763.581Z" style="stroke:black;stroke-width:0.48px;"/>
    </g>
    <g transform="matrix(1.33333,0,0,1.33333,-60.72,-941.38)">
        <path d="M345.6,738L379.68,738" style="fill:none;fill-rule:nonzero;stroke:black;stroke-width:0.72px;"/>
    </g>
    <g transform="matrix(1.33333,0,0,1.33333,-60.72,-949.06)">
        <path d="M345.6,740.88L379.68,740.88" style="fill:none;fill-rule:nonzero;stroke:black;stroke-width:0.72px;"/>
    </g>
    <g transform="matrix(1.33333,0,0,1.33333,-60.72,-945.22)">
        <path d="M375.12,735.84L383.04,739.44L375.12,743.04" style="fill:none;fill-rule:nonzero;stroke:black;stroke-width:0.72px;"/>
    </g>
    <g transform="matrix(-1.15468,0.666702,0.666702,1.15468,-147.388,-627.676)">
        <path d="M123.776,629.07L143.694,629.07" style="fill:none;fill-rule:nonzero;stroke:black;stroke-width:0.72px;"/>
    </g>
    <g transform="matrix(-1.15468,-0.666702,-0.666702,1.15468,734.335,-437.853)">
        <path d="M141.026,629.07L160.944,629.07" style="fill:none;fill-rule:nonzero;stroke:black;stroke-width:0.72px;"/>
    </g>
    <g transform="matrix(1.15496,-0.666209,-0.666209,-1.15496,385.912,1025.66)">
        <path d="M159.57,625.925L172.72,625.925" style="fill:none;fill-rule:nonzero;stroke:black;stroke-width:0.72px;"/>
    </g>
    <g transform="matrix(1.15493,-0.666271,-0.666271,-1.15493,388.069,1024.48)">
        <path d="M157.761,629.32L172.849,629.32" style="fill:none;fill-rule:nonzero;stroke:black;stroke-width:0.72px;"/>
    </g>
    <g transform="matrix(-1.15478,-0.666525,-0.666525,1.15478,655.773,-459.697)">
        <path d="M111.783,629.345L126.967,629.345" style="fill:none;fill-rule:nonzero;stroke:black;stroke-width:0.72px;"/>
    </g>
    <g transform="matrix(-1.1548,-0.6665,-0.6665,1.1548,651.406,-451.821)">
        <path d="M111.913,625.95L125.157,625.95" style="fill:none;fill-rule:nonzero;stroke:black;stroke-width:0.72px;"/>
    </g>
    <g transform="matrix(0,1.33333,1.33333,0,-670.207,-8.49333)">
        <path d="M152.245,616.725L166.975,616.725" style="fill:none;fill-rule:nonzero;stroke:black;stroke-width:0.72px;"/>
    </g>
    <g transform="matrix(0,1.33333,1.33333,0,-716.207,37.5067)">
        <path d="M117.745,616.725L132.475,616.725" style="fill:none;fill-rule:nonzero;stroke:black;stroke-width:0.72px;"/>
    </g>
    <g transform="matrix(1.33333,0,0,1.33333,-60.72,-622.5)">
        <path d="M246.24,618.42L257.04,618.42" style="fill:none;fill-rule:nonzero;stroke:black;stroke-width:0.72px;"/>
    </g>
    <g transform="matrix(0,1.33333,1.33333,0,-428.347,-248.447)">
        <path d="M332.92,616.01L347.66,616.01" style="fill:none;fill-rule:nonzero;stroke:black;stroke-width:0.72px;"/>
    </g>
    <g transform="matrix(0,1.33333,1.33333,0,-423.867,-252.927)">
        <path d="M336.28,616.01L351.02,616.01" style="fill:none;fill-rule:nonzero;stroke:black;stroke-width:0.72px;"/>
    </g>
    <g transform="matrix(1.1549,0.666322,0.666322,-1.1549,-418.712,691.168)">
        <path d="M328.041,627.11L342.969,627.11" style="fill:none;fill-rule:nonzero;stroke:black;stroke-width:0.72px;"/>
    </g>
    <g transform="matrix(-1.15481,0.666483,0.666483,1.15481,387.834,-765.505)">
        <path d="M341.003,626.99L355.447,626.99" style="fill:none;fill-rule:nonzero;stroke:black;stroke-width:0.72px;"/>
    </g>
    <g transform="matrix(1.33333,0,0,1.33333,-60.72,-614.34)">
        <path d="M50.16,615.36L84.24,615.36" style="fill:none;fill-rule:nonzero;stroke:black;stroke-width:0.72px;"/>
    </g>
    <g transform="matrix(1.33333,0,0,1.33333,-60.72,-622.02)">
        <path d="M50.16,618.24L84.24,618.24" style="fill:none;fill-rule:nonzero;stroke:black;stroke-width:0.72px;"/>
    </g>
    <g transform="matrix(1.33333,0,0,1.33333,-60.72,-618.18)">
        <path d="M79.68,613.2L87.6,616.8L79.68,620.4" style="fill:none;fill-rule:nonzero;stroke:black;stroke-width:0.72px;"/>
    </g>
</svg>
