<?xml version="1.0" encoding="UTF-8" standalone="no"?>
<!DOCTYPE svg PUBLIC "-//W3C//DTD SVG 1.1//EN" "http://www.w3.org/Graphics/SVG/1.1/DTD/svg11.dtd">
<svg width="100%" height="100%" viewBox="0 0 485 330" version="1.1" xmlns="http://www.w3.org/2000/svg" xmlns:xlink="http://www.w3.org/1999/xlink" xml:space="preserve" xmlns:serif="http://www.serif.com/" style="fill-rule:evenodd;clip-rule:evenodd;stroke-linecap:round;stroke-linejoin:round;stroke-miterlimit:10;">
    <g transform="matrix(1.33333,0,0,1.33333,-61.6898,-96.6109)">
        <text x="80.64px" y="133.92px" style="font-family:'ArialMT', 'Arial', sans-serif;font-size:10px;">O</text>
    </g>
    <g transform="matrix(1.33333,0,0,1.33333,-61.6898,-96.6109)">
        <text x="80.64px" y="99.6px" style="font-family:'ArialMT', 'Arial', sans-serif;font-size:10px;">O</text>
    </g>
    <g transform="matrix(1.33333,0,0,1.33333,-61.6898,-96.6109)">
        <text x="50.88px" y="82.32px" style="font-family:'ArialMT', 'Arial', sans-serif;font-size:10px;">O</text>
    </g>
    <g transform="matrix(1.33333,0,0,1.33333,-61.6898,-96.6109)">
        <text x="50.88px" y="151.2px" style="font-family:'ArialMT', 'Arial', sans-serif;font-size:10px;">O</text>
    </g>
    <g transform="matrix(1.33333,0,0,1.33333,-61.6898,-96.6109)">
        <text x="110.88px" y="151.2px" style="font-family:'ArialMT', 'Arial', sans-serif;font-size:10px;">CH</text>
        <text x="125.28px" y="153.84px" style="font-family:'ArialMT', 'Arial', sans-serif;font-size:8px;">3</text>
    </g>
    <g transform="matrix(1.33333,0,0,1.33333,-61.6898,-96.6109)">
        <text x="110.88px" y="82.32px" style="font-family:'ArialMT', 'Arial', sans-serif;font-size:10px;">CH</text>
        <text x="125.28px" y="84.96px" style="font-family:'ArialMT', 'Arial', sans-serif;font-size:8px;">3</text>
    </g>
    <g transform="matrix(1.33333,0,0,1.33333,-61.6898,-96.6109)">
        <text x="266.64px" y="133.44px" style="font-family:'ArialMT', 'Arial', sans-serif;font-size:10px;">O</text>
    </g>
    <g transform="matrix(1.33333,0,0,1.33333,-61.6898,-96.6109)">
        <text x="266.64px" y="99.12px" style="font-family:'ArialMT', 'Arial', sans-serif;font-size:10px;">O</text>
    </g>
    <g transform="matrix(1.33333,0,0,1.33333,-61.6898,-96.6109)">
        <text x="236.64px" y="81.84px" style="font-family:'ArialMT', 'Arial', sans-serif;font-size:10px;">O</text>
    </g>
    <g transform="matrix(1.33333,0,0,1.33333,-61.6898,-96.6109)">
        <text x="236.64px" y="150.72px" style="font-family:'ArialMT', 'Arial', sans-serif;font-size:10px;">O</text>
    </g>
    <g transform="matrix(1.33333,0,0,1.33333,-61.6898,-96.6109)">
        <text x="296.64px" y="150.72px" style="font-family:'ArialMT', 'Arial', sans-serif;font-size:10px;">CH</text>
        <text x="311.04px" y="153.36px" style="font-family:'ArialMT', 'Arial', sans-serif;font-size:8px;">3</text>
    </g>
    <g transform="matrix(1.33333,0,0,1.33333,-61.6898,-96.6109)">
        <text x="296.64px" y="81.84px" style="font-family:'ArialMT', 'Arial', sans-serif;font-size:10px;">CH</text>
        <text x="311.04px" y="84.48px" style="font-family:'ArialMT', 'Arial', sans-serif;font-size:8px;">3</text>
    </g>
    <g transform="matrix(1.33333,0,0,1.33333,-61.6898,-96.6109)">
        <text x="207.12px" y="133.44px" style="font-family:'ArialMT', 'Arial', sans-serif;font-size:10px;">C</text>
    </g>
    <g transform="matrix(1.33333,0,0,1.33333,-61.6898,-96.6109)">
        <text x="195.6px" y="133.44px" style="font-family:'ArialMT', 'Arial', sans-serif;font-size:10px;">H</text>
        <text x="202.8px" y="136.08px" style="font-family:'ArialMT', 'Arial', sans-serif;font-size:8px;">3</text>
    </g>
    <g transform="matrix(1.33333,0,0,1.33333,-61.6898,-96.6109)">
        <text x="144.72px" y="280.8px" style="font-family:'ArialMT', 'Arial', sans-serif;font-size:10px;">O</text>
    </g>
    <g transform="matrix(1.33333,0,0,1.33333,-61.6898,-96.6109)">
        <text x="174.72px" y="228.96px" style="font-family:'ArialMT', 'Arial', sans-serif;font-size:10px;">O</text>
    </g>
    <g transform="matrix(1.33333,0,0,1.33333,-61.6898,-96.6109)">
        <text x="144.72px" y="211.68px" style="font-family:'ArialMT', 'Arial', sans-serif;font-size:10px;">O</text>
    </g>
    <g transform="matrix(1.33333,0,0,1.33333,-61.6898,-96.6109)">
        <text x="114.96px" y="263.52px" style="font-family:'ArialMT', 'Arial', sans-serif;font-size:10px;">O</text>
    </g>
    <g transform="matrix(1.33333,0,0,1.33333,-61.6898,-96.6109)">
        <text x="144.96px" y="315.12px" style="font-family:'ArialMT', 'Arial', sans-serif;font-size:10px;">CH</text>
        <text x="159.36px" y="317.76px" style="font-family:'ArialMT', 'Arial', sans-serif;font-size:8px;">3</text>
    </g>
    <g transform="matrix(1.33333,0,0,1.33333,-61.6898,-96.6109)">
        <text x="204.72px" y="211.68px" style="font-family:'ArialMT', 'Arial', sans-serif;font-size:10px;">CH</text>
        <text x="219.12px" y="214.32px" style="font-family:'ArialMT', 'Arial', sans-serif;font-size:8px;">3</text>
    </g>
    <g transform="matrix(1.33333,0,0,1.33333,-61.6898,-96.6109)">
        <text x="162.24px" y="276px" style="font-family:'ArialMT', 'Arial', sans-serif;font-size:10px;">CH</text>
        <text x="176.64px" y="278.64px" style="font-family:'ArialMT', 'Arial', sans-serif;font-size:8px;">3</text>
    </g>
    <g transform="matrix(1.33333,0,0,1.33333,-61.6898,-96.6109)">
        <text x="110.4px" y="246.24px" style="font-family:'ArialMT', 'Arial', sans-serif;font-size:10px;">C</text>
    </g>
    <g transform="matrix(1.33333,0,0,1.33333,-61.6898,-96.6109)">
        <text x="98.88px" y="246.24px" style="font-family:'ArialMT', 'Arial', sans-serif;font-size:10px;">H</text>
        <text x="106.08px" y="248.88px" style="font-family:'ArialMT', 'Arial', sans-serif;font-size:8px;">3</text>
    </g>
    <g transform="matrix(1.33333,0,0,1.33333,-61.6898,-96.6109)">
        <text x="179.52px" y="246.24px" style="font-family:'ArialMT', 'Arial', sans-serif;font-size:10px;">CH</text>
        <text x="193.92px" y="248.88px" style="font-family:'ArialMT', 'Arial', sans-serif;font-size:8px;">2</text>
    </g>
    <g transform="matrix(1.33333,0,0,1.33333,-61.6898,-96.6109)">
        <text x="279.12px" y="257.28px" style="font-family:'ArialMT', 'Arial', sans-serif;font-size:10px;">T<tspan x="285.36px " y="257.28px ">M</tspan></text>
    </g>
    <g transform="matrix(1.33333,0,0,1.33333,-61.6898,-96.6109)">
        <text x="136.32px" y="107.52px" style="font-family:'ArialMT', 'Arial', sans-serif;font-size:10px;">Et<tspan x="145.904px 153.75px 161.04px " y="107.52px 107.52px 107.52px ">ONa</tspan></text>
    </g>
    <g transform="matrix(1.33333,0,0,1.33333,-61.6898,-96.6109)">
        <text x="128.4px" y="129.6px" style="font-family:'ArialMT', 'Arial', sans-serif;font-size:10px;">CH</text>
        <text x="142.8px" y="132.24px" style="font-family:'ArialMT', 'Arial', sans-serif;font-size:6px;">3</text>
        <text x="146.4px" y="129.6px" style="font-family:'ArialMT', 'Arial', sans-serif;font-size:10px;">CH</text>
        <text x="160.8px" y="132.24px" style="font-family:'ArialMT', 'Arial', sans-serif;font-size:6px;">2</text>
        <text x="164.4px" y="129.6px" style="font-family:'ArialMT', 'Arial', sans-serif;font-size:10px;">Br</text>
    </g>
    <g transform="matrix(1.33333,0,0,1.33333,-61.6898,-96.6109)">
        <text x="387.84px" y="144.48px" style="font-family:'ArialMT', 'Arial', sans-serif;font-size:10px;">CH</text>
        <text x="402.24px" y="147.12px" style="font-family:'ArialMT', 'Arial', sans-serif;font-size:8px;">2</text>
    </g>
    <g transform="matrix(1.33333,0,0,1.33333,-61.6898,-96.6109)">
        <text x="357.84px" y="127.2px" style="font-family:'ArialMT', 'Arial', sans-serif;font-size:10px;">C</text>
    </g>
    <g transform="matrix(1.33333,0,0,1.33333,-61.6898,-96.6109)">
        <text x="346.32px" y="127.2px" style="font-family:'ArialMT', 'Arial', sans-serif;font-size:10px;">H</text>
        <text x="353.52px" y="129.84px" style="font-family:'ArialMT', 'Arial', sans-serif;font-size:8px;">3</text>
    </g>
    <g transform="matrix(1.33333,0,0,1.33333,-61.6898,-96.6109)">
        <text x="333.12px" y="161.52px" style="font-family:'ArialMT', 'Arial', sans-serif;font-size:10px;">Br</text>
    </g>
    <g transform="matrix(1.33333,0,0,1.33333,-61.6898,-96.6109)">
        <text x="323.76px" y="105.36px" style="font-family:'ArialMT', 'Arial', sans-serif;font-size:10px;">1) <tspan x="335.651px " y="105.36px ">E</tspan>tO<tspan x="353.008px " y="105.36px ">N</tspan>a</text>
    </g>
    <g transform="matrix(1.33333,0,0,1.33333,-61.6898,-96.6109)">
        <text x="323.52px" y="133.92px" style="font-family:'ArialMT', 'Arial', sans-serif;font-size:10px;">2)</text>
    </g>
    <g transform="matrix(1.33333,0,0,1.33333,-61.6898,-96.6109)">
        <text x="227.52px" y="244.56px" style="font-family:'ArialMT', 'Arial', sans-serif;font-size:10px;">Li<tspan x="235.441px 242.179px 244.47px " y="244.56px 244.56px 244.56px ">AlH</tspan></text>
        <text x="251.76px" y="247.2px" style="font-family:'ArialMT', 'Arial', sans-serif;font-size:6px;">4</text>
    </g>
    <g transform="matrix(0.666702,1.15468,1.15468,-0.666702,-853.798,476.73)">
        <path d="M49.741,720.465L69.659,720.465" style="fill:none;fill-rule:nonzero;stroke:black;stroke-width:0.72px;"/>
    </g>
    <g transform="matrix(-1.33333,0,0,1.33333,130.79,-872.291)">
        <path d="M64.68,711.84L79.68,711.84" style="fill:none;fill-rule:nonzero;stroke:black;stroke-width:0.72px;"/>
    </g>
    <g transform="matrix(-0.666702,1.15468,1.15468,0.666702,-794.112,-518.442)">
        <path d="M49.741,737.715L69.659,737.715" style="fill:none;fill-rule:nonzero;stroke:black;stroke-width:0.72px;"/>
    </g>
    <g transform="matrix(-1.33333,0,0,1.33333,130.79,-964.291)">
        <path d="M64.68,746.34L79.68,746.34" style="fill:none;fill-rule:nonzero;stroke:black;stroke-width:0.72px;"/>
    </g>
    <g transform="matrix(-0.666831,-1.15461,-1.15461,0.666831,933.296,-407.13)">
        <path d="M56.422,752.79L69.378,752.79" style="fill:none;fill-rule:nonzero;stroke:black;stroke-width:0.72px;"/>
    </g>
    <g transform="matrix(-0.666813,-1.15462,-1.15462,0.666813,925.542,-409.356)">
        <path d="M52.057,751.95L66.953,751.95" style="fill:none;fill-rule:nonzero;stroke:black;stroke-width:0.72px;"/>
    </g>
    <g transform="matrix(-0.667127,1.15443,1.15443,0.667127,-757.954,-455.608)">
        <path d="M52.105,706.26L66.935,706.26" style="fill:none;fill-rule:nonzero;stroke:black;stroke-width:0.72px;"/>
    </g>
    <g transform="matrix(-0.667192,1.1544,1.1544,0.667192,-750.162,-457.89)">
        <path d="M56.47,705.42L69.36,705.42" style="fill:none;fill-rule:nonzero;stroke:black;stroke-width:0.72px;"/>
    </g>
    <g transform="matrix(-1.33333,0,0,1.33333,210.95,-826.291)">
        <path d="M94.56,694.59L109.92,694.59" style="fill:none;fill-rule:nonzero;stroke:black;stroke-width:0.72px;"/>
    </g>
    <g transform="matrix(0.666706,1.15468,1.15468,-0.666706,-810.08,453.73)">
        <path d="M83.985,700.695L98.085,700.695" style="fill:none;fill-rule:nonzero;stroke:black;stroke-width:0.72px;"/>
    </g>
    <g transform="matrix(0.665913,-1.15514,-1.15514,-0.665913,874.12,625.546)">
        <path d="M84.037,757.52L98.073,757.52" style="fill:none;fill-rule:nonzero;stroke:black;stroke-width:0.72px;"/>
    </g>
    <g transform="matrix(1.33333,0,0,1.33333,-61.6898,-1010.32)">
        <path d="M94.56,763.6L109.92,763.6" style="fill:none;fill-rule:nonzero;stroke:black;stroke-width:0.72px;"/>
    </g>
    <g transform="matrix(1.33333,0,0,1.33333,-61.6898,-914.531)">
        <path d="M122.4,727.68L180.24,727.68" style="fill:none;fill-rule:nonzero;stroke:black;stroke-width:0.72px;"/>
    </g>
    <g transform="matrix(1.2958,0.314133,0.314133,-1.2958,-283.662,943.261)">
        <path d="M171.979,728.613L180.129,728.613L172.884,724.881L173.831,727.086L171.979,728.613Z" style="stroke:black;stroke-width:0.72px;"/>
    </g>
    <g transform="matrix(0.666702,1.15468,1.15468,-0.666702,-730.386,261.686)">
        <path d="M235.701,720.945L255.619,720.945" style="fill:none;fill-rule:nonzero;stroke:black;stroke-width:0.72px;"/>
    </g>
    <g transform="matrix(-1.33333,0,0,1.33333,626.737,-873.571)">
        <path d="M250.64,712.32L265.68,712.32" style="fill:none;fill-rule:nonzero;stroke:black;stroke-width:0.72px;"/>
    </g>
    <g transform="matrix(-0.666702,1.15468,1.15468,0.666702,-422.74,-734.126)">
        <path d="M235.701,738.195L255.619,738.195" style="fill:none;fill-rule:nonzero;stroke:black;stroke-width:0.72px;"/>
    </g>
    <g transform="matrix(-1.33333,0,0,1.33333,626.737,-965.571)">
        <path d="M250.64,746.82L265.68,746.82" style="fill:none;fill-rule:nonzero;stroke:black;stroke-width:0.72px;"/>
    </g>
    <g transform="matrix(-0.666209,-1.15496,-1.15496,0.666209,1305.9,-193.055)">
        <path d="M242.23,753.355L255.38,753.355" style="fill:none;fill-rule:nonzero;stroke:black;stroke-width:0.72px;"/>
    </g>
    <g transform="matrix(-0.666142,-1.155,-1.155,0.666142,1298.16,-195.009)">
        <path d="M238.014,752.43L252.906,752.43" style="fill:none;fill-rule:nonzero;stroke:black;stroke-width:0.72px;"/>
    </g>
    <g transform="matrix(-0.666452,1.15482,1.15482,0.666452,-386.953,-670.86)">
        <path d="M238.063,706.74L252.887,706.74" style="fill:none;fill-rule:nonzero;stroke:black;stroke-width:0.72px;"/>
    </g>
    <g transform="matrix(-0.666209,1.15496,1.15496,0.666209,-379.351,-672.659)">
        <path d="M242.23,705.785L255.38,705.785" style="fill:none;fill-rule:nonzero;stroke:black;stroke-width:0.72px;"/>
    </g>
    <g transform="matrix(-1.33333,0,0,1.33333,706.577,-827.571)">
        <path d="M280.52,695.07L295.68,695.07" style="fill:none;fill-rule:nonzero;stroke:black;stroke-width:0.72px;"/>
    </g>
    <g transform="matrix(0.666706,1.15468,1.15468,-0.666706,-686.669,238.687)">
        <path d="M269.945,701.175L284.045,701.175" style="fill:none;fill-rule:nonzero;stroke:black;stroke-width:0.72px;"/>
    </g>
    <g transform="matrix(0.666625,-1.15472,-1.15472,-0.666625,998.276,840.455)">
        <path d="M269.99,758L284.03,758" style="fill:none;fill-rule:nonzero;stroke:black;stroke-width:0.72px;"/>
    </g>
    <g transform="matrix(1.33333,0,0,1.33333,-61.6898,-1011.6)">
        <path d="M280.52,764.08L295.68,764.08" style="fill:none;fill-rule:nonzero;stroke:black;stroke-width:0.72px;"/>
    </g>
    <g transform="matrix(0.666603,-1.15474,-1.15474,-0.666603,918.745,794.443)">
        <path d="M210.394,723.585L224.216,723.585" style="fill:none;fill-rule:nonzero;stroke:black;stroke-width:0.72px;"/>
    </g>
    <g transform="matrix(-1.33333,0,0,1.33333,553.564,-919.571)">
        <path d="M220.76,729.57L240.68,729.57" style="fill:none;fill-rule:nonzero;stroke:black;stroke-width:0.72px;"/>
    </g>
    <g transform="matrix(1.33333,0,0,1.33333,-61.6898,-917.091)">
        <path d="M319.68,728.64L398.16,728.64" style="fill:none;fill-rule:nonzero;stroke:black;stroke-width:0.72px;"/>
    </g>
    <g transform="matrix(1.2958,0.314133,0.314133,-1.2958,-275.784,874.77)">
        <path d="M389.899,729.573L398.049,729.573L390.804,725.841L391.751,728.046L389.899,729.573Z" style="stroke:black;stroke-width:0.72px;"/>
    </g>
    <g transform="matrix(-0.666702,1.15468,1.15468,0.666702,-456.744,-322.121)">
        <path d="M133.751,591.055L153.669,591.055" style="fill:none;fill-rule:nonzero;stroke:black;stroke-width:0.72px;"/>
    </g>
    <g transform="matrix(-0.666105,-1.15502,-1.15502,0.666105,888.401,37.8991)">
        <path d="M135.209,576.335L149.281,576.335" style="fill:none;fill-rule:nonzero;stroke:black;stroke-width:0.72px;"/>
    </g>
    <g transform="matrix(-0.666702,1.15468,1.15468,0.666702,-456.742,-368.122)">
        <path d="M143.711,608.305L163.629,608.305" style="fill:none;fill-rule:nonzero;stroke:black;stroke-width:0.72px;"/>
    </g>
    <g transform="matrix(-1.33333,0,0,1.33333,381.524,-619.198)">
        <path d="M158.65,616.93L173.76,616.93" style="fill:none;fill-rule:nonzero;stroke:black;stroke-width:0.72px;"/>
    </g>
    <g transform="matrix(-0.666917,-1.15456,-1.15456,0.666917,971.795,-39.9309)">
        <path d="M150.337,623.405L163.353,623.405" style="fill:none;fill-rule:nonzero;stroke:black;stroke-width:0.72px;"/>
    </g>
    <g transform="matrix(-0.666888,-1.15457,-1.15457,0.666888,964.041,-42.1497)">
        <path d="M145.972,622.565L160.928,622.565" style="fill:none;fill-rule:nonzero;stroke:black;stroke-width:0.72px;"/>
    </g>
    <g transform="matrix(-1.33333,0,0,1.33333,288.404,-531.678)">
        <path d="M123.84,584.11L138.73,584.11" style="fill:none;fill-rule:nonzero;stroke:black;stroke-width:0.72px;"/>
    </g>
    <g transform="matrix(-1.33333,0,0,1.33333,288.404,-522.718)">
        <path d="M123.84,580.75L138.73,580.75" style="fill:none;fill-rule:nonzero;stroke:black;stroke-width:0.72px;"/>
    </g>
    <g transform="matrix(-0.666796,-1.15463,-1.15463,0.666796,848.433,106.221)">
        <path d="M135.266,541.92L149.124,541.92" style="fill:none;fill-rule:nonzero;stroke:black;stroke-width:0.72px;"/>
    </g>
    <g transform="matrix(-0.666074,1.15504,1.15504,0.666074,-417.195,-245.798)">
        <path d="M135.264,553.92L149.116,553.92" style="fill:none;fill-rule:nonzero;stroke:black;stroke-width:0.72px;"/>
    </g>
    <g transform="matrix(0.666957,-1.15453,-1.15453,-0.666957,786.81,821.007)">
        <path d="M178.048,628.13L192.022,628.13" style="fill:none;fill-rule:nonzero;stroke:black;stroke-width:0.72px;"/>
    </g>
    <g transform="matrix(1.33333,0,0,1.33333,-61.6898,-665.198)">
        <path d="M188.53,634.18L203.76,634.18" style="fill:none;fill-rule:nonzero;stroke:black;stroke-width:0.72px;"/>
    </g>
    <g transform="matrix(0,1.33333,1.33333,0,-616.943,28.1891)">
        <path d="M158.6,582.38L173.28,582.38" style="fill:none;fill-rule:nonzero;stroke:black;stroke-width:0.72px;"/>
    </g>
    <g transform="matrix(1.15468,0.666702,0.666702,-1.15468,-430.073,814.822)">
        <path d="M147.356,594.7L167.274,594.7" style="fill:none;fill-rule:nonzero;stroke:black;stroke-width:0.72px;"/>
    </g>
    <g transform="matrix(1.15433,-0.667306,-0.667306,-1.15433,365.018,1000.9)">
        <path d="M117.562,605.92L132.428,605.92" style="fill:none;fill-rule:nonzero;stroke:black;stroke-width:0.72px;"/>
    </g>
    <g transform="matrix(-1.15485,-0.666412,-0.666412,1.15485,689.758,-385.216)">
        <path d="M130.096,604.66L150.024,604.66" style="fill:none;fill-rule:nonzero;stroke:black;stroke-width:0.72px;"/>
    </g>
    <g transform="matrix(1.15433,-0.667314,-0.667314,-1.15433,364.046,1035.26)">
        <path d="M165.867,591.665L179.473,591.665" style="fill:none;fill-rule:nonzero;stroke:black;stroke-width:0.72px;"/>
    </g>
    <g transform="matrix(1.15437,-0.667237,-0.667237,-1.15437,366.107,1034.11)">
        <path d="M164.057,595.06L179.603,595.06" style="fill:none;fill-rule:nonzero;stroke:black;stroke-width:0.72px;"/>
    </g>
    <g transform="matrix(1.33333,0,0,1.33333,-61.6898,-541.411)">
        <path d="M50.64,587.76L84.72,587.76" style="fill:none;fill-rule:nonzero;stroke:black;stroke-width:0.72px;"/>
    </g>
    <g transform="matrix(1.2958,0.314133,0.314133,-1.2958,-243.294,978.519)">
        <path d="M76.459,588.693L84.609,588.693L77.364,584.961L78.311,587.166L76.459,588.693Z" style="stroke:black;stroke-width:0.72px;"/>
    </g>
    <g transform="matrix(1.33333,0,0,1.33333,-61.6898,-542.051)">
        <path d="M224.16,588L258.24,588" style="fill:none;fill-rule:nonzero;stroke:black;stroke-width:0.72px;"/>
    </g>
    <g transform="matrix(1.2958,0.314133,0.314133,-1.2958,-236.856,924.002)">
        <path d="M249.979,588.933L258.129,588.933L250.884,585.201L251.831,587.406L249.979,588.933Z" style="stroke:black;stroke-width:0.72px;"/>
    </g>
    <g transform="matrix(1.33333,0,0,1.33333,-61.6898,-840.291)">
        <path d="M371.52,699.84L386.88,699.84" style="fill:none;fill-rule:nonzero;stroke:black;stroke-width:0.72px;"/>
    </g>
    <g transform="matrix(1.33333,0,0,1.33333,-61.6898,-849.251)">
        <path d="M371.52,703.2L386.88,703.2" style="fill:none;fill-rule:nonzero;stroke:black;stroke-width:0.72px;"/>
    </g>
    <g transform="matrix(-0.666796,-1.15463,-1.15463,0.666796,1491.39,35.7831)">
        <path d="M361.126,707.52L374.984,707.52" style="fill:none;fill-rule:nonzero;stroke:black;stroke-width:0.72px;"/>
    </g>
    <g transform="matrix(-0.666702,1.15468,1.15468,0.666702,-128.669,-783.102)">
        <path d="M356.581,692.895L376.499,692.895" style="fill:none;fill-rule:nonzero;stroke:black;stroke-width:0.72px;"/>
    </g>
    <g transform="matrix(-1.33333,0,0,1.33333,879.27,-798.771)">
        <path d="M344.16,684.27L361.56,684.27" style="fill:none;fill-rule:nonzero;stroke:black;stroke-width:0.72px;"/>
    </g>
</svg>
