<?xml version="1.0" encoding="UTF-8" standalone="no"?>
<!DOCTYPE svg PUBLIC "-//W3C//DTD SVG 1.1//EN" "http://www.w3.org/Graphics/SVG/1.1/DTD/svg11.dtd">
<svg width="100%" height="100%" viewBox="0 0 600 230" version="1.1" xmlns="http://www.w3.org/2000/svg" xmlns:xlink="http://www.w3.org/1999/xlink" xml:space="preserve" xmlns:serif="http://www.serif.com/" style="fill-rule:evenodd;clip-rule:evenodd;stroke-linecap:round;stroke-linejoin:round;stroke-miterlimit:10;">
    <g transform="matrix(1.33333,0,0,1.33333,-59.0333,-70.1867)">
        <text x="129.6px" y="73.92px" style="font-family:'ArialMT', 'Arial', sans-serif;font-size:10px;">O<tspan x="137.52px " y="73.92px ">H</tspan></text>
    </g>
    <g transform="matrix(1.33333,0,0,1.33333,-59.0333,-70.1867)">
        <text x="275.28px" y="78.72px" style="font-family:'ArialMT', 'Arial', sans-serif;font-size:10px;">B</text>
    </g>
    <g transform="matrix(1.33333,0,0,1.33333,-59.0333,-70.1867)">
        <text x="407.04px" y="89.28px" style="font-family:'ArialMT', 'Arial', sans-serif;font-size:10px;">CH</text>
        <text x="421.44px" y="91.92px" style="font-family:'ArialMT', 'Arial', sans-serif;font-size:8px;">2</text>
    </g>
    <g transform="matrix(1.33333,0,0,1.33333,-59.0333,-70.1867)">
        <text x="435.12px" y="103.68px" style="font-family:'ArialMT', 'Arial', sans-serif;font-size:18px;">+</text>
        <text x="456px" y="104.4px" style="font-family:'ArialMT', 'Arial', sans-serif;font-size:10px;">HB</text>
    </g>
    <g transform="matrix(1.33333,0,0,1.33333,-59.0333,-70.1867)">
        <text x="323.04px" y="177.6px" style="font-family:'ArialMT', 'Arial', sans-serif;font-size:10px;">CH</text>
        <text x="337.44px" y="180.24px" style="font-family:'ArialMT', 'Arial', sans-serif;font-size:8px;">2</text>
    </g>
    <g transform="matrix(1.33333,0,0,1.33333,-59.0333,-70.1867)">
        <text x="323.28px" y="210px" style="font-family:'ArialMT', 'Arial', sans-serif;font-size:10px;">CH</text>
        <text x="337.692px" y="212.64px" style="font-family:'ArialMT', 'Arial', sans-serif;font-size:8px;">2</text>
        <text x="354.48px" y="197.52px" style="font-family:'ArialMT', 'Arial', sans-serif;font-size:18px;"><tspan x="354.48px " y="197.52px ">+</tspan></text>
    </g>
    <g transform="matrix(1.33333,0,0,1.33333,-59.0333,-70.1867)">
        <text x="377.28px" y="219.6px" style="font-family:'ArialMT', 'Arial', sans-serif;font-size:10px;">CH</text>
        <text x="391.68px" y="222.24px" style="font-family:'ArialMT', 'Arial', sans-serif;font-size:8px;">2</text>
    </g>
    <g transform="matrix(1.33333,0,0,1.33333,-59.0333,-70.1867)">
        <text x="394.8px" y="169.92px" style="font-family:'ArialMT', 'Arial', sans-serif;font-size:10px;">CH</text>
        <text x="409.2px" y="172.56px" style="font-family:'ArialMT', 'Arial', sans-serif;font-size:8px;">2</text>
    </g>
    <g transform="matrix(0,-1.33333,-1.33333,0,1053.01,158.653)">
        <path d="M71.91,752.16L91.83,752.16" style="fill:none;fill-rule:nonzero;stroke:black;stroke-width:0.72px;"/>
    </g>
    <g transform="matrix(1.15468,0.666702,0.666702,-1.15468,-557.375,866.496)">
        <path d="M63.286,767.1L83.204,767.1" style="fill:none;fill-rule:nonzero;stroke:black;stroke-width:0.72px;"/>
    </g>
    <g transform="matrix(1.15468,-0.666702,-0.666702,-1.15468,445.558,969.499)">
        <path d="M63.286,737.22L83.204,737.22" style="fill:none;fill-rule:nonzero;stroke:black;stroke-width:0.72px;"/>
    </g>
    <g transform="matrix(1.15468,-0.666702,-0.666702,-1.15468,462.398,952.66)">
        <path d="M46.036,767.1L65.954,767.1" style="fill:none;fill-rule:nonzero;stroke:black;stroke-width:0.72px;"/>
    </g>
    <g transform="matrix(1.15468,0.666702,0.666702,-1.15468,-540.536,883.335)">
        <path d="M46.036,737.22L65.954,737.22" style="fill:none;fill-rule:nonzero;stroke:black;stroke-width:0.72px;"/>
    </g>
    <g transform="matrix(0,-1.33333,-1.33333,0,1007.01,112.653)">
        <path d="M37.41,752.16L57.33,752.16" style="fill:none;fill-rule:nonzero;stroke:black;stroke-width:0.72px;"/>
    </g>
    <g transform="matrix(0,-1.33333,-1.33333,0,1011.49,117.133)">
        <path d="M42.43,752.16L59.03,752.16" style="fill:none;fill-rule:nonzero;stroke:black;stroke-width:0.72px;"/>
    </g>
    <g transform="matrix(1.15468,-0.666702,-0.666702,-1.15468,468.561,975.662)">
        <path d="M80.536,767.1L100.454,767.1" style="fill:none;fill-rule:nonzero;stroke:black;stroke-width:0.72px;"/>
    </g>
    <g transform="matrix(1.15468,0.666702,0.666702,-1.15468,-551.212,843.495)">
        <path d="M97.786,767.1L117.704,767.1" style="fill:none;fill-rule:nonzero;stroke:black;stroke-width:0.72px;"/>
    </g>
    <g transform="matrix(1.15487,-0.666378,-0.666378,-1.15487,473.049,997.364)">
        <path d="M115.422,765.66L129.588,765.66" style="fill:none;fill-rule:nonzero;stroke:black;stroke-width:0.72px;"/>
    </g>
    <g transform="matrix(1.33333,0,0,1.33333,-59.0333,-938.667)">
        <path d="M133.68,746.64L167.76,746.64" style="fill:none;fill-rule:nonzero;stroke:black;stroke-width:0.72px;"/>
    </g>
    <g transform="matrix(1.33333,0,0,1.33333,-59.0333,-946.347)">
        <path d="M133.68,749.52L167.76,749.52" style="fill:none;fill-rule:nonzero;stroke:black;stroke-width:0.72px;"/>
    </g>
    <g transform="matrix(1.33333,0,0,1.33333,-59.0333,-942.507)">
        <path d="M163.2,744.48L171.12,748.08L163.2,751.68" style="fill:none;fill-rule:nonzero;stroke:black;stroke-width:0.72px;"/>
    </g>
    <g transform="matrix(0,-1.33333,-1.33333,0,1240.07,358.893)">
        <path d="M217.15,747.22L237.07,747.22" style="fill:none;fill-rule:nonzero;stroke:black;stroke-width:0.72px;"/>
    </g>
    <g transform="matrix(1.15468,0.666702,0.666702,-1.15468,-528.134,770.546)">
        <path d="M208.526,762.16L228.444,762.16" style="fill:none;fill-rule:nonzero;stroke:black;stroke-width:0.72px;"/>
    </g>
    <g transform="matrix(1.15468,-0.666702,-0.666702,-1.15468,468.212,1067.21)">
        <path d="M208.526,732.28L228.444,732.28" style="fill:none;fill-rule:nonzero;stroke:black;stroke-width:0.72px;"/>
    </g>
    <g transform="matrix(1.15468,-0.666702,-0.666702,-1.15468,485.052,1050.37)">
        <path d="M191.276,762.16L211.194,762.16" style="fill:none;fill-rule:nonzero;stroke:black;stroke-width:0.72px;"/>
    </g>
    <g transform="matrix(1.15468,0.666702,0.666702,-1.15468,-511.295,787.385)">
        <path d="M191.276,732.28L211.194,732.28" style="fill:none;fill-rule:nonzero;stroke:black;stroke-width:0.72px;"/>
    </g>
    <g transform="matrix(0,-1.33333,-1.33333,0,1194.07,312.893)">
        <path d="M182.65,747.22L202.57,747.22" style="fill:none;fill-rule:nonzero;stroke:black;stroke-width:0.72px;"/>
    </g>
    <g transform="matrix(0,-1.33333,-1.33333,0,1198.55,317.373)">
        <path d="M187.67,747.22L204.27,747.22" style="fill:none;fill-rule:nonzero;stroke:black;stroke-width:0.72px;"/>
    </g>
    <g transform="matrix(1.15468,-0.666702,-0.666702,-1.15468,491.215,1073.38)">
        <path d="M225.776,762.16L245.694,762.16" style="fill:none;fill-rule:nonzero;stroke:black;stroke-width:0.72px;"/>
    </g>
    <g transform="matrix(1.15468,0.666702,0.666702,-1.15468,-521.97,747.545)">
        <path d="M243.026,762.16L262.944,762.16" style="fill:none;fill-rule:nonzero;stroke:black;stroke-width:0.72px;"/>
    </g>
    <g transform="matrix(1.15463,-0.666795,-0.666795,-1.15463,496.184,1095.08)">
        <path d="M260.626,760.85L275.304,760.85" style="fill:none;fill-rule:nonzero;stroke:black;stroke-width:0.72px;"/>
    </g>
    <g transform="matrix(0.345317,-1.28784,-1.28784,-0.345317,1223.4,645.708)">
        <path d="M274.857,779.35L289.413,779.35" style="fill:none;fill-rule:nonzero;stroke:black;stroke-width:0.72px;"/>
    </g>
    <g transform="matrix(0,1.33333,1.33333,0,-718.007,-363.987)">
        <path d="M275.89,778.25L292.15,778.25" style="fill:none;fill-rule:nonzero;stroke:black;stroke-width:0.72px;"/>
    </g>
    <g transform="matrix(1.28789,0.345137,0.345137,-1.28789,-309.518,917.379)">
        <path d="M282.693,764.01L298.377,764.01" style="fill:none;fill-rule:nonzero;stroke:black;stroke-width:0.72px;"/>
    </g>
    <g transform="matrix(1.15452,0.666982,0.666982,-1.15452,-517.928,721.257)">
        <path d="M282.929,766.05L299.201,766.05" style="fill:none;fill-rule:nonzero;stroke:black;stroke-width:0.72px;"/>
    </g>
    <g transform="matrix(1.28782,0.345383,0.345383,-1.28782,-316.381,915.284)">
        <path d="M283.68,783.8L303.6,783.8" style="fill:none;fill-rule:nonzero;stroke:black;stroke-width:0.72px;"/>
    </g>
    <g transform="matrix(-0.344758,1.28799,1.28799,0.344758,-548.27,-629.722)">
        <path d="M290.726,771.6L310.644,771.6" style="fill:none;fill-rule:nonzero;stroke:black;stroke-width:0.72px;"/>
    </g>
    <g transform="matrix(1.33333,0,0,1.33333,-59.0333,-935.467)">
        <path d="M285.36,745.44L319.44,745.44" style="fill:none;fill-rule:nonzero;stroke:black;stroke-width:0.72px;"/>
    </g>
    <g transform="matrix(1.33333,0,0,1.33333,-59.0333,-943.147)">
        <path d="M285.36,748.32L319.44,748.32" style="fill:none;fill-rule:nonzero;stroke:black;stroke-width:0.72px;"/>
    </g>
    <g transform="matrix(1.33333,0,0,1.33333,-59.0333,-939.307)">
        <path d="M314.88,743.28L322.8,746.88L314.88,750.48" style="fill:none;fill-rule:nonzero;stroke:black;stroke-width:0.72px;"/>
    </g>
    <g transform="matrix(0,-1.33333,-1.33333,0,1438.21,558.573)">
        <path d="M366.33,746.64L386.25,746.64" style="fill:none;fill-rule:nonzero;stroke:black;stroke-width:0.72px;"/>
    </g>
    <g transform="matrix(1.15468,0.666702,0.666702,-1.15468,-501.096,671.191)">
        <path d="M357.706,761.58L377.624,761.58" style="fill:none;fill-rule:nonzero;stroke:black;stroke-width:0.72px;"/>
    </g>
    <g transform="matrix(1.15468,-0.666702,-0.666702,-1.15468,494.477,1166.78)">
        <path d="M357.706,731.7L377.624,731.7" style="fill:none;fill-rule:nonzero;stroke:black;stroke-width:0.72px;"/>
    </g>
    <g transform="matrix(1.15468,-0.666702,-0.666702,-1.15468,511.317,1149.94)">
        <path d="M340.456,761.58L360.374,761.58" style="fill:none;fill-rule:nonzero;stroke:black;stroke-width:0.72px;"/>
    </g>
    <g transform="matrix(1.15468,0.666702,0.666702,-1.15468,-484.257,688.03)">
        <path d="M340.456,731.7L360.374,731.7" style="fill:none;fill-rule:nonzero;stroke:black;stroke-width:0.72px;"/>
    </g>
    <g transform="matrix(0,-1.33333,-1.33333,0,1392.21,512.573)">
        <path d="M331.83,746.64L351.75,746.64" style="fill:none;fill-rule:nonzero;stroke:black;stroke-width:0.72px;"/>
    </g>
    <g transform="matrix(0,-1.33333,-1.33333,0,1396.69,517.053)">
        <path d="M336.85,746.64L353.45,746.64" style="fill:none;fill-rule:nonzero;stroke:black;stroke-width:0.72px;"/>
    </g>
    <g transform="matrix(1.15468,-0.666702,-0.666702,-1.15468,517.48,1172.94)">
        <path d="M374.956,761.58L394.874,761.58" style="fill:none;fill-rule:nonzero;stroke:black;stroke-width:0.72px;"/>
    </g>
    <g transform="matrix(1.1547,0.666669,0.666669,-1.1547,-496.242,649.546)">
        <path d="M392.57,762.94L407.05,762.94" style="fill:none;fill-rule:nonzero;stroke:black;stroke-width:0.72px;"/>
    </g>
    <g transform="matrix(1.15479,0.666507,0.666507,-1.15479,-493.661,650.464)">
        <path d="M392.318,759.155L406.982,759.155" style="fill:none;fill-rule:nonzero;stroke:black;stroke-width:0.72px;"/>
    </g>
    <g transform="matrix(0.345317,-1.28784,-1.28784,-0.345317,1376,913.091)">
        <path d="M462.777,753.67L477.333,753.67" style="fill:none;fill-rule:nonzero;stroke:black;stroke-width:0.72px;"/>
    </g>
    <g transform="matrix(0,1.33333,1.33333,0,-433.207,-580.307)">
        <path d="M463.81,752.57L480.07,752.57" style="fill:none;fill-rule:nonzero;stroke:black;stroke-width:0.72px;"/>
    </g>
    <g transform="matrix(1.28789,0.345137,0.345137,-1.28789,-292.115,853.688)">
        <path d="M470.613,738.33L486.297,738.33" style="fill:none;fill-rule:nonzero;stroke:black;stroke-width:0.72px;"/>
    </g>
    <g transform="matrix(1.15452,0.666982,0.666982,-1.15452,-467.197,600.51)">
        <path d="M470.849,740.37L487.121,740.37" style="fill:none;fill-rule:nonzero;stroke:black;stroke-width:0.72px;"/>
    </g>
    <g transform="matrix(1.28782,0.345383,0.345383,-1.28782,-298.959,851.549)">
        <path d="M471.6,758.12L491.52,758.12" style="fill:none;fill-rule:nonzero;stroke:black;stroke-width:0.72px;"/>
    </g>
    <g transform="matrix(-0.344758,1.28799,1.28799,0.344758,-199.847,-828.667)">
        <path d="M478.646,745.92L498.564,745.92" style="fill:none;fill-rule:nonzero;stroke:black;stroke-width:0.72px;"/>
    </g>
    <g transform="matrix(0,1.33333,1.33333,0,-518.233,-363.627)">
        <path d="M348,703.2L369.6,703.2" style="fill:none;fill-rule:nonzero;stroke:black;stroke-width:0.72px;"/>
    </g>
    <g transform="matrix(0,1.33333,1.33333,0,-514.393,-367.467)">
        <path d="M350.88,703.2L372.48,703.2" style="fill:none;fill-rule:nonzero;stroke:black;stroke-width:0.72px;"/>
    </g>
    <g transform="matrix(1.33333,0,0,1.33333,-59.0333,-795.627)">
        <path d="M363.84,689.04L360.24,696.96L356.64,689.04" style="fill:none;fill-rule:nonzero;stroke:black;stroke-width:0.72px;"/>
    </g>
    <g transform="matrix(1.26473,-0.422171,-0.422171,-1.26473,243.019,1139.78)">
        <path d="M307.495,664.29L322.465,664.29" style="fill:none;fill-rule:nonzero;stroke:black;stroke-width:0.72px;"/>
    </g>
    <g transform="matrix(1.26479,-0.42199,-0.42199,-1.26479,241.746,1140.69)">
        <path d="M311.028,661.325L322.372,661.325" style="fill:none;fill-rule:nonzero;stroke:black;stroke-width:0.72px;"/>
    </g>
    <g transform="matrix(-0.0107092,-1.33329,-1.33329,0.0107092,1224.13,586.711)">
        <path d="M298,651.96L317.92,651.96" style="fill:none;fill-rule:nonzero;stroke:black;stroke-width:0.72px;"/>
    </g>
    <g transform="matrix(1.27143,0.401551,0.401551,-1.27143,-296.413,886.21)">
        <path d="M307.692,639.745L322.668,639.745" style="fill:none;fill-rule:nonzero;stroke:black;stroke-width:0.72px;"/>
    </g>
    <g transform="matrix(1.2713,0.401956,0.401956,-1.2713,-297.726,885.132)">
        <path d="M311.175,642.73L322.585,642.73" style="fill:none;fill-rule:nonzero;stroke:black;stroke-width:0.72px;"/>
    </g>
    <g transform="matrix(-0.00181282,1.33333,1.33333,0.00181282,-401.895,-308.684)">
        <path d="M373.775,638.795L388.485,638.795" style="fill:none;fill-rule:nonzero;stroke:black;stroke-width:0.72px;"/>
    </g>
    <g transform="matrix(-0.00204342,1.33333,1.33333,0.00204342,-396.213,-312.203)">
        <path d="M377.965,637.965L391.015,637.965" style="fill:none;fill-rule:nonzero;stroke:black;stroke-width:0.72px;"/>
    </g>
    <g transform="matrix(-1.15559,0.665118,0.665118,1.15559,478.016,-827.463)">
        <path d="M379.812,651.12L399.738,651.12" style="fill:none;fill-rule:nonzero;stroke:black;stroke-width:0.72px;"/>
    </g>
    <g transform="matrix(-0.00181282,1.33333,1.33333,0.00181282,-411.677,-364.649)">
        <path d="M391.065,663.445L405.775,663.445" style="fill:none;fill-rule:nonzero;stroke:black;stroke-width:0.72px;"/>
    </g>
    <g transform="matrix(-0.00204342,1.33333,1.33333,0.00204342,-417.178,-361.43)">
        <path d="M388.535,664.275L401.585,664.275" style="fill:none;fill-rule:nonzero;stroke:black;stroke-width:0.72px;"/>
    </g>
</svg>
