<?xml version="1.0" encoding="UTF-8" standalone="no"?>
<!DOCTYPE svg PUBLIC "-//W3C//DTD SVG 1.1//EN" "http://www.w3.org/Graphics/SVG/1.1/DTD/svg11.dtd">
<svg width="100%" height="100%" viewBox="0 0 690 285" version="1.1" xmlns="http://www.w3.org/2000/svg" xmlns:xlink="http://www.w3.org/1999/xlink" xml:space="preserve" xmlns:serif="http://www.serif.com/" style="fill-rule:evenodd;clip-rule:evenodd;stroke-linecap:round;stroke-linejoin:round;stroke-miterlimit:10;">
    <g transform="matrix(1.33333,0,0,1.33333,-55.472,-126.787)">
        <text x="129.6px" y="173.76px" style="font-family:'ArialMT', 'Arial', sans-serif;font-size:10px;">O</text>
    </g>
    <g transform="matrix(1.33333,0,0,1.33333,-55.472,-126.787)">
        <text x="112.56px" y="203.76px" style="font-family:'ArialMT', 'Arial', sans-serif;font-size:10px;">NH</text>
    </g>
    <g transform="matrix(1.33333,0,0,1.33333,-55.472,-126.787)">
        <text x="142.08px" y="206.16px" style="font-family:'ArialMT', 'Arial', sans-serif;font-size:10px;">O</text>
    </g>
    <g transform="matrix(1.33333,0,0,1.33333,-55.472,-126.787)">
        <text x="43.92px" y="162px" style="font-family:'ArialMT', 'Arial', sans-serif;font-size:10px;">Cl</text>
    </g>
    <g transform="matrix(1.33333,0,0,1.33333,-55.472,-126.787)">
        <text x="87.84px" y="150px" style="font-family:'ArialMT', 'Arial', sans-serif;font-size:10px;">F</text>
        <text x="94.32px" y="152.64px" style="font-family:'ArialMT', 'Arial', sans-serif;font-size:8px;">3</text>
        <text x="98.88px" y="150px" style="font-family:'ArialMT', 'Arial', sans-serif;font-size:10px;">C</text>
    </g>
    <g transform="matrix(1.33333,0,0,1.33333,-55.472,-126.787)">
        <text x="255.12px" y="203.52px" style="font-family:'ArialMT', 'Arial', sans-serif;font-size:10px;">NH</text>
        <text x="269.52px" y="206.16px" style="font-family:'ArialMT', 'Arial', sans-serif;font-size:8px;">2</text>
    </g>
    <g transform="matrix(1.33333,0,0,1.33333,-55.472,-126.787)">
        <text x="186.48px" y="161.76px" style="font-family:'ArialMT', 'Arial', sans-serif;font-size:10px;">Cl</text>
    </g>
    <g transform="matrix(1.33333,0,0,1.33333,-55.472,-126.787)">
        <text x="230.4px" y="149.76px" style="font-family:'ArialMT', 'Arial', sans-serif;font-size:10px;">F</text>
        <text x="236.88px" y="152.4px" style="font-family:'ArialMT', 'Arial', sans-serif;font-size:8px;">3</text>
        <text x="241.44px" y="149.76px" style="font-family:'ArialMT', 'Arial', sans-serif;font-size:10px;">C</text>
    </g>
    <g transform="matrix(1.33333,0,0,1.33333,-55.472,-126.787)">
        <text x="266.88px" y="175.2px" style="font-family:'ArialMT', 'Arial', sans-serif;font-size:10px;">O<tspan x="274.8px " y="175.2px ">H</tspan></text>
    </g>
    <g transform="matrix(1.33333,0,0,1.33333,-55.472,-126.787)">
        <text x="404.16px" y="203.52px" style="font-family:'ArialMT', 'Arial', sans-serif;font-size:10px;">NH</text>
        <text x="418.56px" y="206.16px" style="font-family:'ArialMT', 'Arial', sans-serif;font-size:8px;">2</text>
    </g>
    <g transform="matrix(1.33333,0,0,1.33333,-55.472,-126.787)">
        <text x="335.52px" y="161.76px" style="font-family:'ArialMT', 'Arial', sans-serif;font-size:10px;">Cl</text>
    </g>
    <g transform="matrix(1.33333,0,0,1.33333,-55.472,-126.787)">
        <text x="422.16px" y="173.28px" style="font-family:'ArialMT', 'Arial', sans-serif;font-size:10px;">C</text>
        <text x="429.36px" y="173.28px" style="font-family:'ArialMT', 'Arial', sans-serif;font-size:10px;">F</text>
        <text x="435.84px" y="175.92px" style="font-family:'ArialMT', 'Arial', sans-serif;font-size:8px;">3</text>
    </g>
    <g transform="matrix(1.33333,0,0,1.33333,-55.472,-126.787)">
        <text x="404.16px" y="147.12px" style="font-family:'ArialMT', 'Arial', sans-serif;font-size:10px;">O</text>
        <text x="412.08px" y="140.16px" style="font-family:'ArialMT', 'Arial', sans-serif;font-size:8px;">+</text>
        <text x="423.84px" y="147.12px" style="font-family:'ArialMT', 'Arial', sans-serif;font-size:10px;"><tspan x="423.84px " y="147.12px ">H</tspan></text>
    </g>
    <g transform="matrix(1.33333,0,0,1.33333,-55.472,-126.787)">
        <text x="452.88px" y="184.32px" style="font-family:'ArialMT', 'Arial', sans-serif;font-size:18px;">+</text>
        <text x="480.96px" y="180.96px" style="font-family:'ArialMT', 'Arial', sans-serif;font-size:10px;">C</text>
        <text x="488.174px" y="174px" style="font-family:'ArialMT', 'Arial', sans-serif;font-size:8px;">–</text>
    </g>
    <g transform="matrix(1.33333,0,0,1.33333,-55.472,-126.787)">
        <text x="405.36px" y="302.16px" style="font-family:'ArialMT', 'Arial', sans-serif;font-size:10px;">NH</text>
        <text x="419.76px" y="304.8px" style="font-family:'ArialMT', 'Arial', sans-serif;font-size:8px;">2</text>
    </g>
    <g transform="matrix(1.33333,0,0,1.33333,-55.472,-126.787)">
        <text x="336.72px" y="260.4px" style="font-family:'ArialMT', 'Arial', sans-serif;font-size:10px;">Cl</text>
    </g>
    <g transform="matrix(1.33333,0,0,1.33333,-55.472,-126.787)">
        <text x="424.56px" y="272.88px" style="font-family:'ArialMT', 'Arial', sans-serif;font-size:10px;">C</text>
        <text x="431.76px" y="272.88px" style="font-family:'ArialMT', 'Arial', sans-serif;font-size:10px;">F</text>
        <text x="438.24px" y="275.52px" style="font-family:'ArialMT', 'Arial', sans-serif;font-size:8px;">3</text>
    </g>
    <g transform="matrix(1.33333,0,0,1.33333,-55.472,-126.787)">
        <text x="405.36px" y="246px" style="font-family:'ArialMT', 'Arial', sans-serif;font-size:10px;">O</text>
    </g>
    <g transform="matrix(1.33333,0,0,1.33333,-55.472,-126.787)">
        <text x="466.32px" y="269.52px" style="font-family:'ArialMT', 'Arial', sans-serif;font-size:10px;">C</text>
        <text x="473.52px" y="269.52px" style="font-family:'ArialMT', 'Arial', sans-serif;font-size:10px;">l</text>
        <text x="475.92px" y="269.52px" style="font-family:'ArialMT', 'Arial', sans-serif;font-size:10px;">Mg</text>
    </g>
    <g transform="matrix(1.15468,0.666702,0.666702,-1.15468,-490.734,814.494)">
        <path d="M80.506,677.1L100.424,677.1" style="fill:none;fill-rule:nonzero;stroke:black;stroke-width:0.72px;"/>
    </g>
    <g transform="matrix(1.15458,0.666876,0.666876,-1.15458,-489.203,816.051)">
        <path d="M80.488,674.19L97.082,674.19" style="fill:none;fill-rule:nonzero;stroke:black;stroke-width:0.72px;"/>
    </g>
    <g transform="matrix(1.15468,-0.666702,-0.666702,-1.15468,392.193,940.459)">
        <path d="M80.506,647.22L100.424,647.22" style="fill:none;fill-rule:nonzero;stroke:black;stroke-width:0.72px;"/>
    </g>
    <g transform="matrix(1.15458,-0.666876,-0.666876,-1.15458,393.955,938.769)">
        <path d="M80.488,650.13L97.082,650.13" style="fill:none;fill-rule:nonzero;stroke:black;stroke-width:0.72px;"/>
    </g>
    <g transform="matrix(1.15468,-0.666702,-0.666702,-1.15468,409.032,923.62)">
        <path d="M63.256,677.1L83.174,677.1" style="fill:none;fill-rule:nonzero;stroke:black;stroke-width:0.72px;"/>
    </g>
    <g transform="matrix(1.15468,0.666702,0.666702,-1.15468,-473.895,831.333)">
        <path d="M63.256,647.22L83.174,647.22" style="fill:none;fill-rule:nonzero;stroke:black;stroke-width:0.72px;"/>
    </g>
    <g transform="matrix(0,-1.33333,-1.33333,0,913.528,199.013)">
        <path d="M54.63,662.16L74.55,662.16" style="fill:none;fill-rule:nonzero;stroke:black;stroke-width:0.72px;"/>
    </g>
    <g transform="matrix(0,-1.33333,-1.33333,0,918.008,203.493)">
        <path d="M59.65,662.16L76.25,662.16" style="fill:none;fill-rule:nonzero;stroke:black;stroke-width:0.72px;"/>
    </g>
    <g transform="matrix(0,-1.33333,-1.33333,0,1002.1,294.467)">
        <path d="M126.22,659.58L140.98,659.58" style="fill:none;fill-rule:nonzero;stroke:black;stroke-width:0.72px;"/>
    </g>
    <g transform="matrix(1.15476,0.666568,0.666568,-1.15476,-485.884,792.957)">
        <path d="M115.389,678.53L129.591,678.53" style="fill:none;fill-rule:nonzero;stroke:black;stroke-width:0.72px;"/>
    </g>
    <g transform="matrix(1.15498,-0.666179,-0.666179,-1.15498,400.438,966.051)">
        <path d="M124.411,649.74L134.259,649.74" style="fill:none;fill-rule:nonzero;stroke:black;stroke-width:0.72px;"/>
    </g>
    <g transform="matrix(1.15468,-0.666702,-0.666702,-1.15468,415.196,946.621)">
        <path d="M97.756,677.1L117.674,677.1" style="fill:none;fill-rule:nonzero;stroke:black;stroke-width:0.72px;"/>
    </g>
    <g transform="matrix(1.15481,0.666483,0.666483,-1.15481,-468.939,809.772)">
        <path d="M98.123,648.59L112.567,648.59" style="fill:none;fill-rule:nonzero;stroke:black;stroke-width:0.72px;"/>
    </g>
    <g transform="matrix(0,-1.33333,-1.33333,0,959.528,245.013)">
        <path d="M89.13,662.16L109.05,662.16" style="fill:none;fill-rule:nonzero;stroke:black;stroke-width:0.72px;"/>
    </g>
    <g transform="matrix(0.941187,0.944429,0.944429,-0.941187,-612.545,613.031)">
        <path d="M130.595,646.64L142.935,646.64" style="fill:none;fill-rule:nonzero;stroke:black;stroke-width:0.72px;"/>
    </g>
    <g transform="matrix(0.941699,0.943918,0.943918,-0.941699,-613.755,610.322)">
        <path d="M133.015,649.135L145.035,649.135" style="fill:none;fill-rule:nonzero;stroke:black;stroke-width:0.72px;"/>
    </g>
    <g transform="matrix(-0.957846,-0.927528,-0.927528,0.957846,708.884,-500.169)">
        <path d="M52.498,677.015L66.572,677.015" style="fill:none;fill-rule:nonzero;stroke:black;stroke-width:0.72px;"/>
    </g>
    <g transform="matrix(-0.940784,-0.94483,-0.94483,0.940784,847.386,-460.448)">
        <path d="M105.1,686.75L118.28,686.75" style="fill:none;fill-rule:nonzero;stroke:black;stroke-width:0.72px;"/>
    </g>
    <g transform="matrix(0.952639,-0.932875,-0.932875,-0.952639,634.471,848.69)">
        <path d="M113.451,689.16L133.689,689.16" style="fill:none;fill-rule:nonzero;stroke:black;stroke-width:0.72px;"/>
    </g>
    <g transform="matrix(0.952464,-0.933054,-0.933054,-0.952464,653.188,856.625)">
        <path d="M127.955,703.21L147.875,703.21" style="fill:none;fill-rule:nonzero;stroke:black;stroke-width:0.72px;"/>
    </g>
    <g transform="matrix(0.952464,-0.933054,-0.933054,-0.952464,654.532,853.518)">
        <path d="M125.605,705.61L145.525,705.61" style="fill:none;fill-rule:nonzero;stroke:black;stroke-width:0.72px;"/>
    </g>
    <g transform="matrix(0.952464,-0.933054,-0.933054,-0.952464,651.844,859.731)">
        <path d="M130.305,700.81L150.225,700.81" style="fill:none;fill-rule:nonzero;stroke:black;stroke-width:0.72px;"/>
    </g>
    <g transform="matrix(-0.358861,1.28413,1.28413,0.358861,-723.619,-453.759)">
        <path d="M151.983,733.71L171.897,733.71" style="fill:none;fill-rule:nonzero;stroke:black;stroke-width:0.72px;"/>
    </g>
    <g transform="matrix(-1.29153,0.331248,0.331248,1.29153,147.211,-967.391)">
        <path d="M158.948,726.595L178.872,726.595" style="fill:none;fill-rule:nonzero;stroke:black;stroke-width:0.72px;"/>
    </g>
    <g transform="matrix(-0.933054,-0.952464,-0.952464,0.933054,1034.61,-509.273)">
        <path d="M161.63,736.185L181.55,736.185" style="fill:none;fill-rule:nonzero;stroke:black;stroke-width:0.72px;"/>
    </g>
    <g transform="matrix(0.952464,-0.933054,-0.933054,-0.952464,671.615,864.593)">
        <path d="M142.185,717.15L162.105,717.15" style="fill:none;fill-rule:nonzero;stroke:black;stroke-width:0.72px;"/>
    </g>
    <g transform="matrix(1.33333,0,0,1.33333,-55.472,-771.267)">
        <path d="M152.88,662.64L186.96,662.64" style="fill:none;fill-rule:nonzero;stroke:black;stroke-width:0.72px;"/>
    </g>
    <g transform="matrix(1.33333,0,0,1.33333,-55.472,-778.947)">
        <path d="M152.88,665.52L186.96,665.52" style="fill:none;fill-rule:nonzero;stroke:black;stroke-width:0.72px;"/>
    </g>
    <g transform="matrix(1.33333,0,0,1.33333,-55.472,-775.107)">
        <path d="M182.4,660.48L190.32,664.08L182.4,667.68" style="fill:none;fill-rule:nonzero;stroke:black;stroke-width:0.72px;"/>
    </g>
    <g transform="matrix(1.15468,0.666702,0.666702,-1.15468,-465.425,719.406)">
        <path d="M223.066,677.34L242.984,677.34" style="fill:none;fill-rule:nonzero;stroke:black;stroke-width:0.72px;"/>
    </g>
    <g transform="matrix(1.15458,0.666876,0.666876,-1.15458,-463.88,720.938)">
        <path d="M223.048,674.43L239.642,674.43" style="fill:none;fill-rule:nonzero;stroke:black;stroke-width:0.72px;"/>
    </g>
    <g transform="matrix(1.15468,-0.666702,-0.666702,-1.15468,417.822,1035.46)">
        <path d="M223.066,647.46L242.984,647.46" style="fill:none;fill-rule:nonzero;stroke:black;stroke-width:0.72px;"/>
    </g>
    <g transform="matrix(1.15458,-0.666876,-0.666876,-1.15458,419.598,1033.8)">
        <path d="M223.048,650.37L239.642,650.37" style="fill:none;fill-rule:nonzero;stroke:black;stroke-width:0.72px;"/>
    </g>
    <g transform="matrix(1.15468,-0.666702,-0.666702,-1.15468,434.661,1018.62)">
        <path d="M205.816,677.34L225.734,677.34" style="fill:none;fill-rule:nonzero;stroke:black;stroke-width:0.72px;"/>
    </g>
    <g transform="matrix(1.15468,0.666702,0.666702,-1.15468,-448.586,736.245)">
        <path d="M205.816,647.46L225.734,647.46" style="fill:none;fill-rule:nonzero;stroke:black;stroke-width:0.72px;"/>
    </g>
    <g transform="matrix(0,-1.33333,-1.33333,0,1103.93,388.773)">
        <path d="M197.19,662.4L217.11,662.4" style="fill:none;fill-rule:nonzero;stroke:black;stroke-width:0.72px;"/>
    </g>
    <g transform="matrix(0,-1.33333,-1.33333,0,1108.41,393.253)">
        <path d="M202.21,662.4L218.81,662.4" style="fill:none;fill-rule:nonzero;stroke:black;stroke-width:0.72px;"/>
    </g>
    <g transform="matrix(1.15468,-0.666702,-0.666702,-1.15468,440.824,1041.62)">
        <path d="M240.316,677.34L260.234,677.34" style="fill:none;fill-rule:nonzero;stroke:black;stroke-width:0.72px;"/>
    </g>
    <g transform="matrix(1.15481,0.666483,0.666483,-1.15481,-443.649,714.715)">
        <path d="M240.683,648.83L255.127,648.83" style="fill:none;fill-rule:nonzero;stroke:black;stroke-width:0.72px;"/>
    </g>
    <g transform="matrix(0,-1.33333,-1.33333,0,1149.93,434.773)">
        <path d="M231.69,662.4L251.61,662.4" style="fill:none;fill-rule:nonzero;stroke:black;stroke-width:0.72px;"/>
    </g>
    <g transform="matrix(-0.957846,-0.927528,-0.927528,0.957846,1035.74,-368.49)">
        <path d="M195.058,677.255L209.132,677.255" style="fill:none;fill-rule:nonzero;stroke:black;stroke-width:0.72px;"/>
    </g>
    <g transform="matrix(-0.940784,-0.94483,-0.94483,0.940784,1171.81,-326.299)">
        <path d="M247.66,686.99L260.84,686.99" style="fill:none;fill-rule:nonzero;stroke:black;stroke-width:0.72px;"/>
    </g>
    <g transform="matrix(0.952639,-0.932875,-0.932875,-0.952639,688.966,981.589)">
        <path d="M256.011,689.4L276.249,689.4" style="fill:none;fill-rule:nonzero;stroke:black;stroke-width:0.72px;"/>
    </g>
    <g transform="matrix(0.952464,-0.933054,-0.933054,-0.952464,707.709,989.549)">
        <path d="M270.515,703.45L290.435,703.45" style="fill:none;fill-rule:nonzero;stroke:black;stroke-width:0.72px;"/>
    </g>
    <g transform="matrix(0.952464,-0.933054,-0.933054,-0.952464,709.053,986.443)">
        <path d="M268.165,705.85L288.085,705.85" style="fill:none;fill-rule:nonzero;stroke:black;stroke-width:0.72px;"/>
    </g>
    <g transform="matrix(0.952464,-0.933054,-0.933054,-0.952464,706.365,992.656)">
        <path d="M272.865,701.05L292.785,701.05" style="fill:none;fill-rule:nonzero;stroke:black;stroke-width:0.72px;"/>
    </g>
    <g transform="matrix(-0.358861,1.28413,1.28413,0.358861,-482.688,-637.231)">
        <path d="M294.543,733.95L314.457,733.95" style="fill:none;fill-rule:nonzero;stroke:black;stroke-width:0.72px;"/>
    </g>
    <g transform="matrix(-1.29153,0.331248,0.331248,1.29153,521.332,-1015.24)">
        <path d="M301.508,726.835L321.432,726.835" style="fill:none;fill-rule:nonzero;stroke:black;stroke-width:0.72px;"/>
    </g>
    <g transform="matrix(-0.933054,-0.952464,-0.952464,0.933054,1357.93,-374.034)">
        <path d="M304.19,736.425L324.11,736.425" style="fill:none;fill-rule:nonzero;stroke:black;stroke-width:0.72px;"/>
    </g>
    <g transform="matrix(0.952464,-0.933054,-0.933054,-0.952464,726.135,997.517)">
        <path d="M284.745,717.39L304.665,717.39" style="fill:none;fill-rule:nonzero;stroke:black;stroke-width:0.72px;"/>
    </g>
    <g transform="matrix(0.954973,0.930486,0.930486,-0.954973,-587.894,494.735)">
        <path d="M257.509,678.9L267.311,678.9" style="fill:none;fill-rule:nonzero;stroke:black;stroke-width:0.72px;"/>
    </g>
    <g transform="matrix(1.33333,0,0,1.33333,-55.472,-797.827)">
        <path d="M266.64,678.48L264.96,678.72L263.76,678.48L262.8,678.24L261.6,678L259.68,677.04L258.96,676.32L258,675.6L257.52,674.64L256.8,673.68L256.32,672.72L256.08,671.76L255.84,670.56L255.84,669.6L256.32,666.48" style="fill:none;fill-rule:nonzero;stroke:black;stroke-width:0.48px;"/>
    </g>
    <g transform="matrix(0.668048,-1.1539,-1.1539,-0.668048,894.705,840.925)">
        <path d="M252.976,676.78L258.245,676.78L254.277,673.096L254.561,675.479L252.976,676.78Z" style="stroke:black;stroke-width:0.48px;"/>
    </g>
    <g transform="matrix(1.33333,0,0,1.33333,-55.472,-772.547)">
        <path d="M293.28,663.12L327.36,663.12" style="fill:none;fill-rule:nonzero;stroke:black;stroke-width:0.72px;"/>
    </g>
    <g transform="matrix(1.33333,0,0,1.33333,-55.472,-780.227)">
        <path d="M293.28,666L327.36,666" style="fill:none;fill-rule:nonzero;stroke:black;stroke-width:0.72px;"/>
    </g>
    <g transform="matrix(1.33333,0,0,1.33333,-55.472,-776.387)">
        <path d="M322.8,660.96L330.72,664.56L322.8,668.16" style="fill:none;fill-rule:nonzero;stroke:black;stroke-width:0.72px;"/>
    </g>
    <g transform="matrix(1.15468,0.666702,0.666702,-1.15468,-438.799,620.041)">
        <path d="M372.106,677.34L392.024,677.34" style="fill:none;fill-rule:nonzero;stroke:black;stroke-width:0.72px;"/>
    </g>
    <g transform="matrix(1.15458,0.666876,0.666876,-1.15458,-437.238,621.547)">
        <path d="M372.088,674.43L388.682,674.43" style="fill:none;fill-rule:nonzero;stroke:black;stroke-width:0.72px;"/>
    </g>
    <g transform="matrix(1.15468,-0.666702,-0.666702,-1.15468,444.448,1134.83)">
        <path d="M372.106,647.46L392.024,647.46" style="fill:none;fill-rule:nonzero;stroke:black;stroke-width:0.72px;"/>
    </g>
    <g transform="matrix(1.15458,-0.666876,-0.666876,-1.15458,446.239,1133.19)">
        <path d="M372.088,650.37L388.682,650.37" style="fill:none;fill-rule:nonzero;stroke:black;stroke-width:0.72px;"/>
    </g>
    <g transform="matrix(1.15468,-0.666702,-0.666702,-1.15468,461.287,1117.99)">
        <path d="M354.856,677.34L374.774,677.34" style="fill:none;fill-rule:nonzero;stroke:black;stroke-width:0.72px;"/>
    </g>
    <g transform="matrix(1.15468,0.666702,0.666702,-1.15468,-421.96,636.879)">
        <path d="M354.856,647.46L374.774,647.46" style="fill:none;fill-rule:nonzero;stroke:black;stroke-width:0.72px;"/>
    </g>
    <g transform="matrix(0,-1.33333,-1.33333,0,1302.65,587.493)">
        <path d="M346.23,662.4L366.15,662.4" style="fill:none;fill-rule:nonzero;stroke:black;stroke-width:0.72px;"/>
    </g>
    <g transform="matrix(0,-1.33333,-1.33333,0,1307.13,591.973)">
        <path d="M351.25,662.4L367.85,662.4" style="fill:none;fill-rule:nonzero;stroke:black;stroke-width:0.72px;"/>
    </g>
    <g transform="matrix(1.15468,-0.666702,-0.666702,-1.15468,467.451,1140.99)">
        <path d="M389.356,677.34L409.274,677.34" style="fill:none;fill-rule:nonzero;stroke:black;stroke-width:0.72px;"/>
    </g>
    <g transform="matrix(1.15481,0.666483,0.666483,-1.15481,-417.041,615.383)">
        <path d="M389.723,648.83L404.167,648.83" style="fill:none;fill-rule:nonzero;stroke:black;stroke-width:0.72px;"/>
    </g>
    <g transform="matrix(0,-1.33333,-1.33333,0,1348.65,633.493)">
        <path d="M380.73,662.4L400.65,662.4" style="fill:none;fill-rule:nonzero;stroke:black;stroke-width:0.72px;"/>
    </g>
    <g transform="matrix(-0.957846,-0.927528,-0.927528,0.957846,1377.21,-230.252)">
        <path d="M344.098,677.255L358.172,677.255" style="fill:none;fill-rule:nonzero;stroke:black;stroke-width:0.72px;"/>
    </g>
    <g transform="matrix(1.17396,0.632133,0.632133,-1.17396,-418.462,625.536)">
        <path d="M407.04,678.75L422.1,678.75" style="fill:none;fill-rule:nonzero;stroke:black;stroke-width:0.72px;"/>
    </g>
    <g transform="matrix(0.0047281,-1.33332,-1.33332,-0.0047281,1403.82,625.689)">
        <path d="M402.32,687.96L413.6,687.96" style="fill:none;fill-rule:nonzero;stroke:black;stroke-width:0.72px;"/>
    </g>
    <g transform="matrix(0.00421494,-1.33333,-1.33333,-0.00421494,1409.7,628.634)">
        <path d="M406.58,688.855L416.07,688.855" style="fill:none;fill-rule:nonzero;stroke:black;stroke-width:0.72px;"/>
    </g>
    <g transform="matrix(1.33333,0,0,1.33333,-55.472,-867.907)">
        <path d="M413.04,698.88L422.88,698.88" style="fill:none;fill-rule:nonzero;stroke:black;stroke-width:0.72px;"/>
    </g>
    <g transform="matrix(1.33333,0,0,1.33333,-55.472,-777.667)">
        <path d="M489.12,665.04L504.48,665.04" style="fill:none;fill-rule:nonzero;stroke:black;stroke-width:0.72px;"/>
    </g>
    <g transform="matrix(1.33333,0,0,1.33333,-55.472,-786.627)">
        <path d="M493.44,668.4L504.48,668.4" style="fill:none;fill-rule:nonzero;stroke:black;stroke-width:0.72px;"/>
    </g>
    <g transform="matrix(1.33333,0,0,1.33333,-55.472,-768.707)">
        <path d="M489.12,661.68L504.48,661.68" style="fill:none;fill-rule:nonzero;stroke:black;stroke-width:0.72px;"/>
    </g>
    <g transform="matrix(-1.15468,0.666702,0.666702,1.15468,823.997,-1026.61)">
        <path d="M523.066,670.02L542.984,670.02" style="fill:none;fill-rule:nonzero;stroke:black;stroke-width:0.72px;"/>
    </g>
    <g transform="matrix(-1.15468,-0.666702,-0.666702,1.15468,1710.76,-291.096)">
        <path d="M523.066,660.06L542.984,660.06" style="fill:none;fill-rule:nonzero;stroke:black;stroke-width:0.72px;"/>
    </g>
    <g transform="matrix(0,-1.33333,-1.33333,0,1553.45,831.253)">
        <path d="M531.69,665.04L551.61,665.04" style="fill:none;fill-rule:nonzero;stroke:black;stroke-width:0.72px;"/>
    </g>
    <g transform="matrix(1.33333,0,0,1.33333,-55.472,-777.667)">
        <path d="M504.48,665.04L524.4,665.04" style="fill:none;fill-rule:nonzero;stroke:black;stroke-width:0.72px;"/>
    </g>
    <g transform="matrix(0,1.33333,1.33333,0,-356.432,-343.907)">
        <path d="M381.24,615.24L397.8,615.24" style="fill:none;fill-rule:nonzero;stroke:black;stroke-width:0.72px;"/>
    </g>
    <g transform="matrix(0,1.33333,1.33333,0,-352.592,-347.747)">
        <path d="M384.12,615.24L400.68,615.24" style="fill:none;fill-rule:nonzero;stroke:black;stroke-width:0.72px;"/>
    </g>
    <g transform="matrix(1.33333,0,0,1.33333,-55.472,-624.387)">
        <path d="M394.56,603.6L390.96,611.52L387.36,603.6" style="fill:none;fill-rule:nonzero;stroke:black;stroke-width:0.72px;"/>
    </g>
    <g transform="matrix(1.15468,0.666702,0.666702,-1.15468,-372.821,636.863)">
        <path d="M373.306,578.7L393.224,578.7" style="fill:none;fill-rule:nonzero;stroke:black;stroke-width:0.72px;"/>
    </g>
    <g transform="matrix(1.15458,0.666876,0.666876,-1.15458,-371.243,638.379)">
        <path d="M373.288,575.79L389.882,575.79" style="fill:none;fill-rule:nonzero;stroke:black;stroke-width:0.72px;"/>
    </g>
    <g transform="matrix(1.15468,-0.666702,-0.666702,-1.15468,378.899,1153.25)">
        <path d="M373.306,548.82L393.224,548.82" style="fill:none;fill-rule:nonzero;stroke:black;stroke-width:0.72px;"/>
    </g>
    <g transform="matrix(1.15458,-0.666876,-0.666876,-1.15458,380.673,1151.62)">
        <path d="M373.288,551.73L389.882,551.73" style="fill:none;fill-rule:nonzero;stroke:black;stroke-width:0.72px;"/>
    </g>
    <g transform="matrix(1.15468,-0.666702,-0.666702,-1.15468,395.738,1136.41)">
        <path d="M356.056,578.7L375.974,578.7" style="fill:none;fill-rule:nonzero;stroke:black;stroke-width:0.72px;"/>
    </g>
    <g transform="matrix(1.15468,0.666702,0.666702,-1.15468,-355.982,653.702)">
        <path d="M356.056,548.82L375.974,548.82" style="fill:none;fill-rule:nonzero;stroke:black;stroke-width:0.72px;"/>
    </g>
    <g transform="matrix(0,-1.33333,-1.33333,0,1172.73,720.613)">
        <path d="M347.43,563.76L367.35,563.76" style="fill:none;fill-rule:nonzero;stroke:black;stroke-width:0.72px;"/>
    </g>
    <g transform="matrix(0,-1.33333,-1.33333,0,1177.21,725.093)">
        <path d="M352.45,563.76L369.05,563.76" style="fill:none;fill-rule:nonzero;stroke:black;stroke-width:0.72px;"/>
    </g>
    <g transform="matrix(1.15468,-0.666702,-0.666702,-1.15468,401.902,1159.41)">
        <path d="M390.556,578.7L410.474,578.7" style="fill:none;fill-rule:nonzero;stroke:black;stroke-width:0.72px;"/>
    </g>
    <g transform="matrix(1.15481,0.666483,0.666483,-1.15481,-351.085,632.193)">
        <path d="M390.923,550.19L405.367,550.19" style="fill:none;fill-rule:nonzero;stroke:black;stroke-width:0.72px;"/>
    </g>
    <g transform="matrix(0,-1.33333,-1.33333,0,1218.73,766.613)">
        <path d="M381.93,563.76L401.85,563.76" style="fill:none;fill-rule:nonzero;stroke:black;stroke-width:0.72px;"/>
    </g>
    <g transform="matrix(-0.957846,-0.927528,-0.927528,0.957846,1288.47,-3.13666)">
        <path d="M345.298,578.615L359.372,578.615" style="fill:none;fill-rule:nonzero;stroke:black;stroke-width:0.72px;"/>
    </g>
    <g transform="matrix(1.16566,0.647319,0.647319,-1.16566,-360.885,629.053)">
        <path d="M408.1,579.665L424.64,579.665" style="fill:none;fill-rule:nonzero;stroke:black;stroke-width:0.72px;"/>
    </g>
    <g transform="matrix(0.00482651,-1.33332,-1.33332,-0.00482651,1275.92,760.807)">
        <path d="M405.315,589.195L416.365,589.195" style="fill:none;fill-rule:nonzero;stroke:black;stroke-width:0.72px;"/>
    </g>
    <g transform="matrix(0.00483527,-1.33332,-1.33332,-0.00483527,1271.47,756.319)">
        <path d="M401.965,589.205L412.995,589.205" style="fill:none;fill-rule:nonzero;stroke:black;stroke-width:0.72px;"/>
    </g>
    <g transform="matrix(1.33333,0,0,1.33333,-55.472,-541.507)">
        <path d="M499.2,576.48L519.12,576.48" style="fill:none;fill-rule:nonzero;stroke:black;stroke-width:0.72px;"/>
    </g>
    <g transform="matrix(1.33333,0,0,1.33333,-55.472,-550.467)">
        <path d="M499.2,579.84L519.12,579.84" style="fill:none;fill-rule:nonzero;stroke:black;stroke-width:0.72px;"/>
    </g>
    <g transform="matrix(1.33333,0,0,1.33333,-55.472,-532.547)">
        <path d="M499.2,573.12L519.12,573.12" style="fill:none;fill-rule:nonzero;stroke:black;stroke-width:0.72px;"/>
    </g>
    <g transform="matrix(-1.15468,0.666702,0.666702,1.15468,919.465,-816.036)">
        <path d="M537.706,581.46L557.624,581.46" style="fill:none;fill-rule:nonzero;stroke:black;stroke-width:0.72px;"/>
    </g>
    <g transform="matrix(-1.15468,-0.666702,-0.666702,1.15468,1688.15,-60.9968)">
        <path d="M537.706,571.5L557.624,571.5" style="fill:none;fill-rule:nonzero;stroke:black;stroke-width:0.72px;"/>
    </g>
    <g transform="matrix(0,-1.33333,-1.33333,0,1454.89,968.853)">
        <path d="M546.33,576.48L566.25,576.48" style="fill:none;fill-rule:nonzero;stroke:black;stroke-width:0.72px;"/>
    </g>
    <g transform="matrix(1.33333,0,0,1.33333,-55.472,-541.507)">
        <path d="M519.12,576.48L539.04,576.48" style="fill:none;fill-rule:nonzero;stroke:black;stroke-width:0.72px;"/>
    </g>
    <g transform="matrix(-1.33333,0,0,1.33333,1264.53,-541.507)">
        <path d="M490.8,576.48L499.2,576.48" style="fill:none;fill-rule:nonzero;stroke:black;stroke-width:0.72px;"/>
    </g>
    <g transform="matrix(0,1.33333,1.33333,0,-194.192,-504.227)">
        <path d="M502.2,614.52L518.76,614.52" style="fill:none;fill-rule:nonzero;stroke:black;stroke-width:0.72px;"/>
    </g>
    <g transform="matrix(0,1.33333,1.33333,0,-190.352,-508.067)">
        <path d="M505.08,614.52L521.64,614.52" style="fill:none;fill-rule:nonzero;stroke:black;stroke-width:0.72px;"/>
    </g>
    <g transform="matrix(1.33333,0,0,1.33333,-55.472,-622.467)">
        <path d="M515.52,602.88L511.92,610.8L508.32,602.88" style="fill:none;fill-rule:nonzero;stroke:black;stroke-width:0.72px;"/>
    </g>
</svg>
