<?xml version="1.0" encoding="UTF-8" standalone="no"?>
<!DOCTYPE svg PUBLIC "-//W3C//DTD SVG 1.1//EN" "http://www.w3.org/Graphics/SVG/1.1/DTD/svg11.dtd">
<svg width="100%" height="100%" viewBox="0 0 555 420" version="1.1" xmlns="http://www.w3.org/2000/svg" xmlns:xlink="http://www.w3.org/1999/xlink" xml:space="preserve" xmlns:serif="http://www.serif.com/" style="fill-rule:evenodd;clip-rule:evenodd;stroke-linecap:round;stroke-linejoin:round;stroke-miterlimit:10;">
    <g transform="matrix(1.33333,0,0,1.33333,-76.8022,-54.4774)">
        <text x="73.68px" y="156.96px" style="font-family:'ArialMT', 'Arial', sans-serif;font-size:10px;">O</text>
    </g>
    <g transform="matrix(1.33333,0,0,1.33333,-76.8022,-54.4774)">
        <text x="127.2px" y="126.96px" style="font-family:'ArialMT', 'Arial', sans-serif;font-size:10px;">:<tspan x="130.08px " y="126.96px ">B</tspan></text>
        <text x="118.08px" y="142.8px" style="font-family:'ArialMT', 'Arial', sans-serif;font-size:10px;">R</text>
        <text x="138.24px" y="142.8px" style="font-family:'ArialMT', 'Arial', sans-serif;font-size:10px;">Br</text>
    </g>
    <g transform="matrix(1.33333,0,0,1.33333,-76.8022,-54.4774)">
        <text x="218.4px" y="157.44px" style="font-family:'ArialMT', 'Arial', sans-serif;font-size:10px;">O</text>
    </g>
    <g transform="matrix(1.33333,0,0,1.33333,-76.8022,-54.4774)">
        <text x="183.6px" y="131.76px" style="font-family:'ArialMT', 'Arial', sans-serif;font-size:10px;">R</text>
    </g>
    <g transform="matrix(1.33333,0,0,1.33333,-76.8022,-54.4774)">
        <text x="294px" y="51.6px" style="font-family:'ArialMT', 'Arial', sans-serif;font-size:10px;">O</text>
    </g>
    <g transform="matrix(1.33333,0,0,1.33333,-76.8022,-54.4774)">
        <text x="259.68px" y="51.6px" style="font-family:'ArialMT', 'Arial', sans-serif;font-size:10px;">O</text>
    </g>
    <g transform="matrix(1.33333,0,0,1.33333,-76.8022,-54.4774)">
        <text x="311.28px" y="61.44px" style="font-family:'ArialMT', 'Arial', sans-serif;font-size:10px;">O</text>
    </g>
    <g transform="matrix(1.33333,0,0,1.33333,-76.8022,-54.4774)">
        <text x="328.8px" y="51.6px" style="font-family:'ArialMT', 'Arial', sans-serif;font-size:10px;">H</text>
    </g>
    <g transform="matrix(1.33333,0,0,1.33333,-76.8022,-54.4774)">
        <text x="311.52px" y="121.44px" style="font-family:'ArialMT', 'Arial', sans-serif;font-size:10px;">Cl</text>
    </g>
    <g transform="matrix(1.33333,0,0,1.33333,-76.8022,-54.4774)">
        <text x="391.2px" y="153.6px" style="font-family:'ArialMT', 'Arial', sans-serif;font-size:10px;">O</text>
    </g>
    <g transform="matrix(1.33333,0,0,1.33333,-76.8022,-54.4774)">
        <text x="357.12px" y="153.36px" style="font-family:'ArialMT', 'Arial', sans-serif;font-size:10px;">R</text>
    </g>
    <g transform="matrix(1.33333,0,0,1.33333,-76.8022,-54.4774)">
        <text x="425.76px" y="153.6px" style="font-family:'ArialMT', 'Arial', sans-serif;font-size:10px;">O</text>
    </g>
    <g transform="matrix(1.33333,0,0,1.33333,-76.8022,-54.4774)">
        <text x="374.64px" y="196.32px" style="font-family:'ArialMT', 'Arial', sans-serif;font-size:10px;">H</text>
        <text x="381.84px" y="198.96px" style="font-family:'ArialMT', 'Arial', sans-serif;font-size:6px;">2</text>
        <text x="385.44px" y="196.32px" style="font-family:'ArialMT', 'Arial', sans-serif;font-size:10px;">O</text>
        <text x="400.32px" y="197.04px" style="font-family:'ArialMT', 'Arial', sans-serif;font-size:10px;">H</text>
        <text x="407.532px" y="192px" style="font-family:'ArialMT', 'Arial', sans-serif;font-size:6px;">+</text>
    </g>
    <g transform="matrix(1.33333,0,0,1.33333,-76.8022,-54.4774)">
        <text x="358.32px" y="237.6px" style="font-family:'ArialMT', 'Arial', sans-serif;font-size:10px;">O<tspan x="366.24px " y="237.6px ">H</tspan></text>
    </g>
    <g transform="matrix(1.33333,0,0,1.33333,-76.8022,-54.4774)">
        <text x="341.28px" y="267.36px" style="font-family:'ArialMT', 'Arial', sans-serif;font-size:10px;">R</text>
    </g>
    <g transform="matrix(1.33333,0,0,1.33333,-76.8022,-54.4774)">
        <text x="444.48px" y="267.36px" style="font-family:'ArialMT', 'Arial', sans-serif;font-size:10px;">O<tspan x="452.4px " y="267.36px ">H</tspan></text>
    </g>
    <g transform="matrix(1.33333,0,0,1.33333,-76.8022,-54.4774)">
        <text x="427.2px" y="237.6px" style="font-family:'ArialMT', 'Arial', sans-serif;font-size:10px;">O</text>
    </g>
    <g transform="matrix(1.33333,0,0,1.33333,-76.8022,-54.4774)">
        <text x="357.12px" y="306.24px" style="font-family:'ArialMT', 'Arial', sans-serif;font-size:10px;">R</text>
        <text x="364.56px" y="299.28px" style="font-family:'ArialMT', 'Arial', sans-serif;font-size:8px;">1</text>
        <text x="376.8px" y="306.24px" style="font-family:'ArialMT', 'Arial', sans-serif;font-size:10px;"><tspan x="376.8px " y="306.24px ">O</tspan></text>
        <text x="384.72px" y="306.24px" style="font-family:'ArialMT', 'Arial', sans-serif;font-size:10px;">H</text>
        <text x="401.04px" y="306.48px" style="font-family:'ArialMT', 'Arial', sans-serif;font-size:10px;">H</text>
        <text x="408.25px" y="301.44px" style="font-family:'ArialMT', 'Arial', sans-serif;font-size:6px;">+</text>
    </g>
    <g transform="matrix(1.33333,0,0,1.33333,-76.8022,-54.4774)">
        <text x="390.48px" y="350.16px" style="font-family:'ArialMT', 'Arial', sans-serif;font-size:10px;">T<tspan x="396.72px " y="350.16px ">M</tspan></text>
    </g>
    <g transform="matrix(1.07314,-0.791297,-0.791297,-1.07314,510.928,949.713)">
        <path d="M75.447,714.66L95.363,714.66" style="fill:none;fill-rule:nonzero;stroke:black;stroke-width:0.72px;"/>
    </g>
    <g transform="matrix(0.420432,1.26531,1.26531,-0.420432,-918.089,287.414)">
        <path d="M80.322,730.02L100.238,730.02" style="fill:none;fill-rule:nonzero;stroke:black;stroke-width:0.72px;"/>
    </g>
    <g transform="matrix(1.08407,0.77625,0.77625,-1.08407,-614.2,836.187)">
        <path d="M59.328,714.55L79.252,714.55" style="fill:none;fill-rule:nonzero;stroke:black;stroke-width:0.72px;"/>
    </g>
    <g transform="matrix(1.3333,-0.00937059,-0.00937059,-1.3333,-69.8711,1068.78)">
        <path d="M67.22,739.4L87.14,739.4" style="fill:none;fill-rule:nonzero;stroke:black;stroke-width:0.72px;"/>
    </g>
    <g transform="matrix(-0.403719,1.27074,1.27074,0.403719,-892.714,-281.276)">
        <path d="M54.248,729.84L74.162,729.84" style="fill:none;fill-rule:nonzero;stroke:black;stroke-width:0.72px;"/>
    </g>
    <g transform="matrix(0.00909483,1.3333,1.3333,-0.00909483,-911.67,38.2375)">
        <path d="M68.43,701.41L83.09,701.41" style="fill:none;fill-rule:nonzero;stroke:black;stroke-width:0.72px;"/>
    </g>
    <g transform="matrix(0.00908244,1.3333,1.3333,-0.00908244,-907.232,33.7357)">
        <path d="M71.78,701.42L86.46,701.42" style="fill:none;fill-rule:nonzero;stroke:black;stroke-width:0.72px;"/>
    </g>
    <g transform="matrix(1.33333,0,0,1.33333,-76.8022,-830.797)">
        <path d="M107.52,712.08L170.4,712.08" style="fill:none;fill-rule:nonzero;stroke:black;stroke-width:0.72px;"/>
    </g>
    <g transform="matrix(1.2958,0.314133,0.314133,-1.2958,-294.243,989.072)">
        <path d="M162.139,713.013L170.289,713.013L163.044,709.281L163.991,711.486L162.139,713.013Z" style="stroke:black;stroke-width:0.72px;"/>
    </g>
    <g transform="matrix(1.33333,0,0,1.33333,-76.8022,-807.117)">
        <path d="M126.24,703.2L137.28,703.2" style="fill:none;fill-rule:nonzero;stroke:black;stroke-width:0.72px;"/>
    </g>
    <g transform="matrix(1.08385,-0.776567,-0.776567,-1.08385,535.232,1068.92)">
        <path d="M220.527,714.08L240.443,714.08" style="fill:none;fill-rule:nonzero;stroke:black;stroke-width:0.72px;"/>
    </g>
    <g transform="matrix(0.403526,1.2708,1.2708,-0.403526,-784.665,90.5471)">
        <path d="M225.603,729.375L245.527,729.375" style="fill:none;fill-rule:nonzero;stroke:black;stroke-width:0.72px;"/>
    </g>
    <g transform="matrix(1.07337,0.790978,0.790978,-1.07337,-585.983,712.86)">
        <path d="M204.408,714.19L224.332,714.19" style="fill:none;fill-rule:nonzero;stroke:black;stroke-width:0.72px;"/>
    </g>
    <g transform="matrix(1.3333,0.00870129,0.00870129,-1.3333,-83.2256,1066.12)">
        <path d="M212.63,738.935L232.55,738.935" style="fill:none;fill-rule:nonzero;stroke:black;stroke-width:0.72px;"/>
    </g>
    <g transform="matrix(-0.420432,1.26531,1.26531,0.420432,-632.514,-476.447)">
        <path d="M199.532,729.55L219.448,729.55" style="fill:none;fill-rule:nonzero;stroke:black;stroke-width:0.72px;"/>
    </g>
    <g transform="matrix(-0.00907626,1.3333,1.3333,0.00907626,-715.158,-167.079)">
        <path d="M213.315,700.945L228.005,700.945" style="fill:none;fill-rule:nonzero;stroke:black;stroke-width:0.72px;"/>
    </g>
    <g transform="matrix(-0.00908863,1.3333,1.3333,0.00908863,-710.631,-171.554)">
        <path d="M216.685,700.935L231.355,700.935" style="fill:none;fill-rule:nonzero;stroke:black;stroke-width:0.72px;"/>
    </g>
    <g transform="matrix(-1.27062,0.404092,0.404092,1.27062,151.48,-881.423)">
        <path d="M191.4,717.78L206.71,717.78" style="fill:none;fill-rule:nonzero;stroke:black;stroke-width:0.72px;"/>
    </g>
    <g transform="matrix(1.33333,0,0,1.33333,-76.8022,-827.597)">
        <path d="M250.08,710.88L345.84,710.88" style="fill:none;fill-rule:nonzero;stroke:black;stroke-width:0.72px;"/>
    </g>
    <g transform="matrix(1.2958,0.314133,0.314133,-1.2958,-287.282,934.005)">
        <path d="M337.579,711.813L345.729,711.813L338.484,708.081L339.431,710.286L337.579,711.813Z" style="stroke:black;stroke-width:0.72px;"/>
    </g>
    <g transform="matrix(0,-1.33333,-1.33333,0,1313.24,472.843)">
        <path d="M288.09,744.48L308.01,744.48" style="fill:none;fill-rule:nonzero;stroke:black;stroke-width:0.72px;"/>
    </g>
    <g transform="matrix(1.15468,0.666702,0.666702,-1.15468,-531.402,739.449)">
        <path d="M279.466,759.42L299.384,759.42" style="fill:none;fill-rule:nonzero;stroke:black;stroke-width:0.72px;"/>
    </g>
    <g transform="matrix(1.15458,0.666876,0.666876,-1.15458,-529.865,740.963)">
        <path d="M279.448,756.51L296.042,756.51" style="fill:none;fill-rule:nonzero;stroke:black;stroke-width:0.72px;"/>
    </g>
    <g transform="matrix(1.15468,-0.666702,-0.666702,-1.15468,461.29,1130.71)">
        <path d="M279.466,729.54L299.384,729.54" style="fill:none;fill-rule:nonzero;stroke:black;stroke-width:0.72px;"/>
    </g>
    <g transform="matrix(1.15458,-0.666876,-0.666876,-1.15458,463.087,1129.04)">
        <path d="M279.448,732.45L296.042,732.45" style="fill:none;fill-rule:nonzero;stroke:black;stroke-width:0.72px;"/>
    </g>
    <g transform="matrix(1.15468,-0.666702,-0.666702,-1.15468,478.13,1113.87)">
        <path d="M262.216,759.42L282.134,759.42" style="fill:none;fill-rule:nonzero;stroke:black;stroke-width:0.72px;"/>
    </g>
    <g transform="matrix(1.15468,0.666702,0.666702,-1.15468,-514.563,756.288)">
        <path d="M262.216,729.54L282.134,729.54" style="fill:none;fill-rule:nonzero;stroke:black;stroke-width:0.72px;"/>
    </g>
    <g transform="matrix(0,-1.33333,-1.33333,0,1267.24,426.843)">
        <path d="M253.59,744.48L273.51,744.48" style="fill:none;fill-rule:nonzero;stroke:black;stroke-width:0.72px;"/>
    </g>
    <g transform="matrix(0,-1.33333,-1.33333,0,1271.72,431.323)">
        <path d="M258.61,744.48L275.21,744.48" style="fill:none;fill-rule:nonzero;stroke:black;stroke-width:0.72px;"/>
    </g>
    <g transform="matrix(0,-1.33333,-1.33333,0,1330.08,410.003)">
        <path d="M270.84,774.36L290.76,774.36" style="fill:none;fill-rule:nonzero;stroke:black;stroke-width:0.72px;"/>
    </g>
    <g transform="matrix(1.15457,-0.666895,-0.666895,-1.15457,499.906,1118.59)">
        <path d="M279.852,787.855L293.988,787.855" style="fill:none;fill-rule:nonzero;stroke:black;stroke-width:0.72px;"/>
    </g>
    <g transform="matrix(-1.15438,-0.667213,-0.667213,1.15438,1134.37,-712.545)">
        <path d="M267.546,789.55L282.654,789.55" style="fill:none;fill-rule:nonzero;stroke:black;stroke-width:0.72px;"/>
    </g>
    <g transform="matrix(-1.15478,-0.66653,-0.66653,1.15478,1129.59,-705.169)">
        <path d="M267.679,786.16L280.841,786.16" style="fill:none;fill-rule:nonzero;stroke:black;stroke-width:0.72px;"/>
    </g>
    <g transform="matrix(1.15507,0.666028,0.666028,-1.15507,-547.872,723.167)">
        <path d="M302.306,789.345L310.894,789.345" style="fill:none;fill-rule:nonzero;stroke:black;stroke-width:0.72px;"/>
    </g>
    <g transform="matrix(1.15496,-0.66621,-0.66621,-1.15496,506.859,1143.14)">
        <path d="M319.567,789.345L328.433,789.345" style="fill:none;fill-rule:nonzero;stroke:black;stroke-width:0.72px;"/>
    </g>
    <g transform="matrix(1.15481,0.666483,0.666483,-1.15481,-509.615,734.781)">
        <path d="M297.083,730.91L311.527,730.91" style="fill:none;fill-rule:nonzero;stroke:black;stroke-width:0.72px;"/>
    </g>
    <g transform="matrix(0,-1.33333,-1.33333,0,1423,668.363)">
        <path d="M402.57,712.32L422.49,712.32" style="fill:none;fill-rule:nonzero;stroke:black;stroke-width:0.72px;"/>
    </g>
    <g transform="matrix(1.15468,0.666702,0.666702,-1.15468,-489.509,668.871)">
        <path d="M393.946,727.26L413.864,727.26" style="fill:none;fill-rule:nonzero;stroke:black;stroke-width:0.72px;"/>
    </g>
    <g transform="matrix(1.15462,-0.666805,-0.666805,-1.15462,461.75,1214.13)">
        <path d="M399.116,698.765L413.494,698.765" style="fill:none;fill-rule:nonzero;stroke:black;stroke-width:0.72px;"/>
    </g>
    <g transform="matrix(1.15468,-0.666702,-0.666702,-1.15468,477.141,1195.94)">
        <path d="M376.696,727.26L396.614,727.26" style="fill:none;fill-rule:nonzero;stroke:black;stroke-width:0.72px;"/>
    </g>
    <g transform="matrix(1.15468,0.666706,0.666706,-1.15468,-474.092,687.127)">
        <path d="M377.085,698.835L391.185,698.835" style="fill:none;fill-rule:nonzero;stroke:black;stroke-width:0.72px;"/>
    </g>
    <g transform="matrix(0,-1.33333,-1.33333,0,1377,622.363)">
        <path d="M368.07,712.32L387.99,712.32" style="fill:none;fill-rule:nonzero;stroke:black;stroke-width:0.72px;"/>
    </g>
    <g transform="matrix(-1.15475,0.666584,0.666584,1.15475,382.177,-918.029)">
        <path d="M364.294,698.68L379.016,698.68" style="fill:none;fill-rule:nonzero;stroke:black;stroke-width:0.72px;"/>
    </g>
    <g transform="matrix(1.15466,0.666729,0.666729,-1.15466,-466.868,664.672)">
        <path d="M410.676,697.125L425.814,697.125" style="fill:none;fill-rule:nonzero;stroke:black;stroke-width:0.72px;"/>
    </g>
    <g transform="matrix(1.1551,0.665976,0.665976,-1.1551,-468.633,664.126)">
        <path d="M412.488,700.515L425.682,700.515" style="fill:none;fill-rule:nonzero;stroke:black;stroke-width:0.72px;"/>
    </g>
    <g transform="matrix(-1.15468,-0.666702,-0.666702,1.15468,1234.85,-136.281)">
        <path d="M360.886,583.44L380.804,583.44" style="fill:none;fill-rule:nonzero;stroke:black;stroke-width:0.72px;"/>
    </g>
    <g transform="matrix(-1.15468,0.666702,0.666702,1.15468,499.803,-642.268)">
        <path d="M378.136,583.44L398.054,583.44" style="fill:none;fill-rule:nonzero;stroke:black;stroke-width:0.72px;"/>
    </g>
    <g transform="matrix(-1.15468,-0.666702,-0.666702,1.15468,1320.68,-113.279)">
        <path d="M395.386,583.44L415.304,583.44" style="fill:none;fill-rule:nonzero;stroke:black;stroke-width:0.72px;"/>
    </g>
    <g transform="matrix(-1.15468,0.666702,0.666702,1.15468,585.639,-665.269)">
        <path d="M412.636,583.44L432.554,583.44" style="fill:none;fill-rule:nonzero;stroke:black;stroke-width:0.72px;"/>
    </g>
    <g transform="matrix(0,-1.33333,-1.33333,0,1200.52,756.683)">
        <path d="M354.87,595.77L369.57,595.77" style="fill:none;fill-rule:nonzero;stroke:black;stroke-width:0.72px;"/>
    </g>
    <g transform="matrix(-1.15464,0.666766,0.666766,1.15464,418.616,-623.967)">
        <path d="M348.451,584.73L363.209,584.73" style="fill:none;fill-rule:nonzero;stroke:black;stroke-width:0.72px;"/>
    </g>
    <g transform="matrix(1.15476,0.666568,0.666568,-1.15476,-388.554,672.103)">
        <path d="M430.269,584.87L444.471,584.87" style="fill:none;fill-rule:nonzero;stroke:black;stroke-width:0.72px;"/>
    </g>
    <g transform="matrix(0,-1.33333,-1.33333,0,1294.76,850.923)">
        <path d="M425.55,595.77L440.25,595.77" style="fill:none;fill-rule:nonzero;stroke:black;stroke-width:0.72px;"/>
    </g>
    <g transform="matrix(0,-1.33333,-1.33333,0,1290.28,846.443)">
        <path d="M422.19,595.77L436.89,595.77" style="fill:none;fill-rule:nonzero;stroke:black;stroke-width:0.72px;"/>
    </g>
    <g transform="matrix(0,1.33333,1.33333,0,-409.602,-321.997)">
        <path d="M373.68,646.08L419.28,646.08" style="fill:none;fill-rule:nonzero;stroke:black;stroke-width:0.72px;"/>
    </g>
    <g transform="matrix(-0.314133,1.2958,1.2958,0.314133,-236.392,-479.033)">
        <path d="M392.179,628.173L400.329,628.173L393.084,624.441L394.031,626.646L392.179,628.173Z" style="stroke:black;stroke-width:0.72px;"/>
    </g>
    <g transform="matrix(0,1.33333,1.33333,0,-263.842,-176.877)">
        <path d="M368.52,537L424.92,537" style="fill:none;fill-rule:nonzero;stroke:black;stroke-width:0.72px;"/>
    </g>
    <g transform="matrix(-0.314133,1.2958,1.2958,0.314133,-87.6537,-290.742)">
        <path d="M392.419,513.693L400.569,513.693L393.324,509.961L394.271,512.166L392.419,513.693Z" style="stroke:black;stroke-width:0.72px;"/>
    </g>
    <g transform="matrix(1.33333,0,0,1.33333,-76.8022,-371.277)">
        <path d="M365.28,539.76L375.84,539.76" style="fill:none;fill-rule:nonzero;stroke:black;stroke-width:0.72px;"/>
    </g>
</svg>
