<?xml version="1.0" encoding="UTF-8" standalone="no"?>
<!DOCTYPE svg PUBLIC "-//W3C//DTD SVG 1.1//EN" "http://www.w3.org/Graphics/SVG/1.1/DTD/svg11.dtd">
<svg width="100%" height="100%" viewBox="0 0 745 370" version="1.1" xmlns="http://www.w3.org/2000/svg" xmlns:xlink="http://www.w3.org/1999/xlink" xml:space="preserve" xmlns:serif="http://www.serif.com/" style="fill-rule:evenodd;clip-rule:evenodd;stroke-linecap:round;stroke-linejoin:round;stroke-miterlimit:10;">
    <g transform="matrix(1.33333,0,0,1.33333,-88.6226,-54.7028)">
        <text x="86.88px" y="55.92px" style="font-family:'ArialMT', 'Arial', sans-serif;font-size:10px;">O</text>
    </g>
    <g transform="matrix(1.33333,0,0,1.33333,-88.6226,-54.7028)">
        <text x="69.84px" y="85.68px" style="font-family:'ArialMT', 'Arial', sans-serif;font-size:10px;">R</text>
    </g>
    <g transform="matrix(1.33333,0,0,1.33333,-88.6226,-54.7028)">
        <text x="173.04px" y="85.68px" style="font-family:'ArialMT', 'Arial', sans-serif;font-size:10px;">O</text>
    </g>
    <g transform="matrix(1.33333,0,0,1.33333,-88.6226,-54.7028)">
        <text x="155.76px" y="55.92px" style="font-family:'ArialMT', 'Arial', sans-serif;font-size:10px;">O</text>
    </g>
    <g transform="matrix(1.33333,0,0,1.33333,-88.6226,-54.7028)">
        <text x="190.56px" y="75.84px" style="font-family:'ArialMT', 'Arial', sans-serif;font-size:10px;">R</text>
        <text x="198px" y="68.88px" style="font-family:'ArialMT', 'Arial', sans-serif;font-size:8px;">1</text>
    </g>
    <g transform="matrix(0.041867,1.33268,-1.33268,0.041867,-88.6226,-54.7028)">
        <text x="47.257px" y="-88.32px" style="font-family:'ArialMT', 'Arial', sans-serif;font-size:10px;">:</text>
    </g>
    <g transform="matrix(1.33333,0,0,1.33333,-88.6226,-54.7028)">
        <text x="95.76px" y="54.48px" style="font-family:'ArialMT', 'Arial', sans-serif;font-size:10px;">:</text>
    </g>
    <g transform="matrix(1.33333,0,0,1.33333,-88.6226,-54.7028)">
        <text x="258.24px" y="72.72px" style="font-family:'ArialMT', 'Arial', sans-serif;font-size:10px;">R</text>
    </g>
    <g transform="matrix(1.33333,0,0,1.33333,-88.6226,-54.7028)">
        <text x="268.08px" y="65.76px" style="font-family:'ArialMT', 'Arial', sans-serif;font-size:10px;">-</text>
        <text x="265.92px" y="71.76px" style="font-family:'ArialMT', 'Arial', sans-serif;font-size:10px;">:</text>
        <text x="276.24px" y="75.6px" style="font-family:'ArialMT', 'Arial', sans-serif;font-size:18px;"><tspan x="276.24px " y="75.6px ">+</tspan></text>
    </g>
    <g transform="matrix(1.33333,0,0,1.33333,-88.6226,-54.7028)">
        <text x="298.32px" y="59.52px" style="font-family:'ArialMT', 'Arial', sans-serif;font-size:10px;">O</text>
        <text x="306.24px" y="52.56px" style="font-family:'ArialMT', 'Arial', sans-serif;font-size:8px;">+</text>
    </g>
    <g transform="matrix(1.33333,0,0,1.33333,-88.6226,-54.7028)">
        <text x="384.48px" y="89.28px" style="font-family:'ArialMT', 'Arial', sans-serif;font-size:10px;">O</text>
    </g>
    <g transform="matrix(1.33333,0,0,1.33333,-88.6226,-54.7028)">
        <text x="367.2px" y="59.52px" style="font-family:'ArialMT', 'Arial', sans-serif;font-size:10px;">O</text>
    </g>
    <g transform="matrix(1.33333,0,0,1.33333,-88.6226,-54.7028)">
        <text x="402px" y="79.44px" style="font-family:'ArialMT', 'Arial', sans-serif;font-size:10px;">R</text>
        <text x="409.44px" y="72.48px" style="font-family:'ArialMT', 'Arial', sans-serif;font-size:8px;">1</text>
    </g>
    <g transform="matrix(1.33333,0,0,1.33333,-88.6226,-54.7028)">
        <text x="203.76px" y="143.52px" style="font-family:'ArialMT', 'Arial', sans-serif;font-size:10px;">R</text>
        <text x="223.2px" y="143.52px" style="font-family:'ArialMT', 'Arial', sans-serif;font-size:10px;">M</text>
        <text x="231.601px" y="143.52px" style="font-family:'ArialMT', 'Arial', sans-serif;font-size:10px;">g</text>
        <text x="237.123px" y="143.52px" style="font-family:'ArialMT', 'Arial', sans-serif;font-size:10px;">B</text>
        <text x="243.844px" y="143.52px" style="font-family:'ArialMT', 'Arial', sans-serif;font-size:10px;">r</text>
        <text x="256.32px" y="146.88px" style="font-family:'ArialMT', 'Arial', sans-serif;font-size:18px;"><tspan x="256.32px " y="146.88px ">+</tspan></text>
        <text x="275.04px" y="143.76px" style="font-family:'ArialMT', 'Arial', sans-serif;font-size:10px;">CuI</text>
    </g>
    <g transform="matrix(1.33333,0,0,1.33333,-88.6226,-54.7028)">
        <text x="495.6px" y="56.88px" style="font-family:'ArialMT', 'Arial', sans-serif;font-size:10px;">O</text>
    </g>
    <g transform="matrix(1.33333,0,0,1.33333,-88.6226,-54.7028)">
        <text x="473.76px" y="86.64px" style="font-family:'ArialMT', 'Arial', sans-serif;font-size:10px;">Cl</text>
    </g>
    <g transform="matrix(1.33333,0,0,1.33333,-88.6226,-54.7028)">
        <text x="581.76px" y="86.64px" style="font-family:'ArialMT', 'Arial', sans-serif;font-size:10px;">O</text>
    </g>
    <g transform="matrix(1.33333,0,0,1.33333,-88.6226,-54.7028)">
        <text x="564.48px" y="56.88px" style="font-family:'ArialMT', 'Arial', sans-serif;font-size:10px;">O</text>
    </g>
    <g transform="matrix(1.33333,0,0,1.33333,-88.6226,-54.7028)">
        <text x="599.28px" y="76.8px" style="font-family:'ArialMT', 'Arial', sans-serif;font-size:10px;">R</text>
        <text x="606.72px" y="69.84px" style="font-family:'ArialMT', 'Arial', sans-serif;font-size:8px;">1</text>
    </g>
    <g transform="matrix(1.33333,0,0,1.33333,-88.6226,-54.7028)">
        <text x="492.24px" y="152.64px" style="font-family:'ArialMT', 'Arial', sans-serif;font-size:10px;">O</text>
    </g>
    <g transform="matrix(1.33333,0,0,1.33333,-88.6226,-54.7028)">
        <text x="474.96px" y="182.4px" style="font-family:'ArialMT', 'Arial', sans-serif;font-size:10px;">O</text>
    </g>
    <g transform="matrix(1.33333,0,0,1.33333,-88.6226,-54.7028)">
        <text x="578.4px" y="182.4px" style="font-family:'ArialMT', 'Arial', sans-serif;font-size:10px;">O</text>
    </g>
    <g transform="matrix(1.33333,0,0,1.33333,-88.6226,-54.7028)">
        <text x="561.12px" y="152.64px" style="font-family:'ArialMT', 'Arial', sans-serif;font-size:10px;">O</text>
    </g>
    <g transform="matrix(1.33333,0,0,1.33333,-88.6226,-54.7028)">
        <text x="595.92px" y="172.56px" style="font-family:'ArialMT', 'Arial', sans-serif;font-size:10px;">R</text>
        <text x="603.36px" y="165.6px" style="font-family:'ArialMT', 'Arial', sans-serif;font-size:8px;">1</text>
    </g>
    <g transform="matrix(1.33333,0,0,1.33333,-88.6226,-54.7028)">
        <text x="457.92px" y="172.56px" style="font-family:'ArialMT', 'Arial', sans-serif;font-size:10px;">H</text>
    </g>
    <g transform="matrix(1.33333,0,0,1.33333,-88.6226,-54.7028)">
        <text x="535.2px" y="283.2px" style="font-family:'ArialMT', 'Arial', sans-serif;font-size:10px;">O</text>
    </g>
    <g transform="matrix(1.33333,0,0,1.33333,-88.6226,-54.7028)">
        <text x="517.92px" y="253.44px" style="font-family:'ArialMT', 'Arial', sans-serif;font-size:10px;">O</text>
    </g>
    <g transform="matrix(1.33333,0,0,1.33333,-88.6226,-54.7028)">
        <text x="552.48px" y="313.2px" style="font-family:'ArialMT', 'Arial', sans-serif;font-size:10px;">O</text>
    </g>
    <g transform="matrix(1.33333,0,0,1.33333,-88.6226,-54.7028)">
        <text x="357.36px" y="285.12px" style="font-family:'ArialMT', 'Arial', sans-serif;font-size:10px;">O</text>
    </g>
    <g transform="matrix(1.33333,0,0,1.33333,-88.6226,-54.7028)">
        <text x="323.04px" y="265.2px" style="font-family:'ArialMT', 'Arial', sans-serif;font-size:10px;">O</text>
    </g>
    <g transform="matrix(1.33333,0,0,1.33333,-88.6226,-54.7028)">
        <text x="305.76px" y="294.96px" style="font-family:'ArialMT', 'Arial', sans-serif;font-size:10px;">O</text>
    </g>
    <g transform="matrix(1.33333,0,0,1.33333,-88.6226,-54.7028)">
        <text x="288.72px" y="285.12px" style="font-family:'ArialMT', 'Arial', sans-serif;font-size:10px;">H</text>
    </g>
    <g transform="matrix(1.33333,0,0,1.33333,-88.6226,-54.7028)">
        <text x="409.2px" y="294.96px" style="font-family:'ArialMT', 'Arial', sans-serif;font-size:10px;">O</text>
    </g>
    <g transform="matrix(1.33333,0,0,1.33333,-88.6226,-54.7028)">
        <text x="391.92px" y="265.2px" style="font-family:'ArialMT', 'Arial', sans-serif;font-size:10px;">O</text>
    </g>
    <g transform="matrix(1.33333,0,0,1.33333,-88.6226,-54.7028)">
        <text x="426.72px" y="285.12px" style="font-family:'ArialMT', 'Arial', sans-serif;font-size:10px;">H</text>
    </g>
    <g transform="matrix(1.33333,0,0,1.33333,-88.6226,-54.7028)">
        <text x="294.48px" y="57.6px" style="font-family:'ArialMT', 'Arial', sans-serif;font-size:10px;">:</text>
    </g>
    <g transform="matrix(-1.15468,-0.666702,-0.666702,1.15468,668.806,-769.498)">
        <path d="M89.446,765.12L109.364,765.12" style="fill:none;fill-rule:nonzero;stroke:black;stroke-width:0.72px;"/>
    </g>
    <g transform="matrix(-1.15468,0.666702,0.666702,1.15468,-308.491,-913.546)">
        <path d="M106.696,765.12L126.614,765.12" style="fill:none;fill-rule:nonzero;stroke:black;stroke-width:0.72px;"/>
    </g>
    <g transform="matrix(-1.15468,-0.666702,-0.666702,1.15468,754.642,-746.497)">
        <path d="M123.946,765.12L143.864,765.12" style="fill:none;fill-rule:nonzero;stroke:black;stroke-width:0.72px;"/>
    </g>
    <g transform="matrix(-1.15468,0.666702,0.666702,1.15468,-222.654,-936.547)">
        <path d="M141.196,765.12L161.114,765.12" style="fill:none;fill-rule:nonzero;stroke:black;stroke-width:0.72px;"/>
    </g>
    <g transform="matrix(0,-1.33333,-1.33333,0,1071.26,154.537)">
        <path d="M85.11,777.45L99.81,777.45" style="fill:none;fill-rule:nonzero;stroke:black;stroke-width:0.72px;"/>
    </g>
    <g transform="matrix(0,-1.33333,-1.33333,0,1066.78,150.057)">
        <path d="M81.75,777.45L96.45,777.45" style="fill:none;fill-rule:nonzero;stroke:black;stroke-width:0.72px;"/>
    </g>
    <g transform="matrix(-1.15464,0.666766,0.666766,1.15464,-389.678,-895.221)">
        <path d="M77.011,766.41L91.769,766.41" style="fill:none;fill-rule:nonzero;stroke:black;stroke-width:0.72px;"/>
    </g>
    <g transform="matrix(1.15476,0.666568,0.666568,-1.15476,-569.949,820.367)">
        <path d="M158.829,766.55L173.031,766.55" style="fill:none;fill-rule:nonzero;stroke:black;stroke-width:0.72px;"/>
    </g>
    <g transform="matrix(0,-1.33333,-1.33333,0,1163.26,246.537)">
        <path d="M154.11,777.45L168.81,777.45" style="fill:none;fill-rule:nonzero;stroke:black;stroke-width:0.72px;"/>
    </g>
    <g transform="matrix(0,-1.33333,-1.33333,0,1158.78,242.057)">
        <path d="M150.75,777.45L165.45,777.45" style="fill:none;fill-rule:nonzero;stroke:black;stroke-width:0.72px;"/>
    </g>
    <g transform="matrix(1.15496,-0.66621,-0.66621,-1.15496,454.278,1055.13)">
        <path d="M181.327,765.175L190.193,765.175" style="fill:none;fill-rule:nonzero;stroke:black;stroke-width:0.72px;"/>
    </g>
    <g transform="matrix(1.33333,0,0,1.33333,-88.6226,-1014.38)">
        <path d="M96.48,770.88L97.68,770.88L98.88,771.12L101.76,772.56L102.72,773.28L103.44,774L104.88,775.92L105.84,777.84L106.08,779.04L106.08,780.24L106.32,780.96L106.08,781.92L105.6,784.32L104.64,786.24L103.92,786.96L103.2,787.92L102.48,788.64L101.52,789.36L99.6,790.32L98.64,790.56L97.44,790.8L96,790.8" style="fill:none;fill-rule:nonzero;stroke:black;stroke-width:0.48px;"/>
    </g>
    <g transform="matrix(-1.33276,-0.0391987,-0.0391987,1.33276,208.483,-987.935)">
        <path d="M95.945,774.359L104.109,774.359L96.778,770.542L97.907,772.976L95.945,774.359Z" style="stroke:black;stroke-width:0.48px;"/>
    </g>
    <g transform="matrix(1.33333,0,0,1.33333,-88.6226,-968.303)">
        <path d="M75.36,755.04L76.56,755.04L77.76,755.28L78.72,755.52L79.68,756L80.88,756.48L81.6,756.96L82.56,757.68L83.28,758.4L84.24,759.12L84.72,760.08L85.44,761.04L85.92,762L86.16,762.96L86.4,764.16L86.64,765.12L86.64,768.48L85.92,770.4L85.2,772.08" style="fill:none;fill-rule:nonzero;stroke:black;stroke-width:0.48px;"/>
    </g>
    <g transform="matrix(-0.627451,1.17647,1.17647,0.627451,-810.881,-523.108)">
        <path d="M83.464,759.346L91.624,759.346L84.424,755.506L85.44,757.68L83.464,759.346Z" style="stroke:black;stroke-width:0.48px;"/>
    </g>
    <g transform="matrix(1.33333,0,0,1.33333,-88.6226,-992.303)">
        <path d="M214.08,772.56L248.16,772.56" style="fill:none;fill-rule:nonzero;stroke:black;stroke-width:0.72px;"/>
    </g>
    <g transform="matrix(1.33333,0,0,1.33333,-88.6226,-999.983)">
        <path d="M214.08,775.44L248.16,775.44" style="fill:none;fill-rule:nonzero;stroke:black;stroke-width:0.72px;"/>
    </g>
    <g transform="matrix(1.33333,0,0,1.33333,-88.6226,-996.143)">
        <path d="M243.6,770.4L251.52,774L243.6,777.6" style="fill:none;fill-rule:nonzero;stroke:black;stroke-width:0.72px;"/>
    </g>
    <g transform="matrix(-1.15468,-0.666702,-0.666702,1.15468,1192.47,-619.574)">
        <path d="M300.886,761.52L320.804,761.52" style="fill:none;fill-rule:nonzero;stroke:black;stroke-width:0.72px;"/>
    </g>
    <g transform="matrix(-1.15468,0.666702,0.666702,1.15468,219.975,-1045.56)">
        <path d="M318.136,761.52L338.054,761.52" style="fill:none;fill-rule:nonzero;stroke:black;stroke-width:0.72px;"/>
    </g>
    <g transform="matrix(-1.15468,-0.666702,-0.666702,1.15468,1278.31,-596.572)">
        <path d="M335.386,761.52L355.304,761.52" style="fill:none;fill-rule:nonzero;stroke:black;stroke-width:0.72px;"/>
    </g>
    <g transform="matrix(-1.15468,0.666702,0.666702,1.15468,305.812,-1068.56)">
        <path d="M352.636,761.52L372.554,761.52" style="fill:none;fill-rule:nonzero;stroke:black;stroke-width:0.72px;"/>
    </g>
    <g transform="matrix(0,-1.33333,-1.33333,0,1346.14,439.017)">
        <path d="M294.87,773.85L309.57,773.85" style="fill:none;fill-rule:nonzero;stroke:black;stroke-width:0.72px;"/>
    </g>
    <g transform="matrix(0,-1.33333,-1.33333,0,1342.74,433.457)">
        <path d="M292.38,774.66L305.34,774.66" style="fill:none;fill-rule:nonzero;stroke:black;stroke-width:0.72px;"/>
    </g>
    <g transform="matrix(0,-1.33333,-1.33333,0,1351.7,442.417)">
        <path d="M299.1,774.66L312.06,774.66" style="fill:none;fill-rule:nonzero;stroke:black;stroke-width:0.72px;"/>
    </g>
    <g transform="matrix(1.15476,0.666568,0.666568,-1.15476,-529.791,680.07)">
        <path d="M370.269,762.95L384.471,762.95" style="fill:none;fill-rule:nonzero;stroke:black;stroke-width:0.72px;"/>
    </g>
    <g transform="matrix(0,-1.33333,-1.33333,0,1440.38,533.257)">
        <path d="M365.55,773.85L380.25,773.85" style="fill:none;fill-rule:nonzero;stroke:black;stroke-width:0.72px;"/>
    </g>
    <g transform="matrix(0,-1.33333,-1.33333,0,1435.9,528.777)">
        <path d="M362.19,773.85L376.89,773.85" style="fill:none;fill-rule:nonzero;stroke:black;stroke-width:0.72px;"/>
    </g>
    <g transform="matrix(1.15496,-0.66621,-0.66621,-1.15496,489.594,1196.63)">
        <path d="M392.767,761.575L401.633,761.575" style="fill:none;fill-rule:nonzero;stroke:black;stroke-width:0.72px;"/>
    </g>
    <g transform="matrix(1.33333,0,0,1.33333,-88.6226,-991.663)">
        <path d="M425.28,772.32L459.36,772.32" style="fill:none;fill-rule:nonzero;stroke:black;stroke-width:0.72px;"/>
    </g>
    <g transform="matrix(1.33333,0,0,1.33333,-88.6226,-999.343)">
        <path d="M425.28,775.2L459.36,775.2" style="fill:none;fill-rule:nonzero;stroke:black;stroke-width:0.72px;"/>
    </g>
    <g transform="matrix(1.33333,0,0,1.33333,-88.6226,-995.503)">
        <path d="M454.8,770.16L462.72,773.76L454.8,777.36" style="fill:none;fill-rule:nonzero;stroke:black;stroke-width:0.72px;"/>
    </g>
    <g transform="matrix(0,1.33333,1.33333,0,-723.183,-262.383)">
        <path d="M245.28,736.8L276.48,736.8" style="fill:none;fill-rule:nonzero;stroke:black;stroke-width:0.72px;"/>
    </g>
    <g transform="matrix(0,1.33333,1.33333,0,-719.343,-266.223)">
        <path d="M248.16,736.8L279.36,736.8" style="fill:none;fill-rule:nonzero;stroke:black;stroke-width:0.72px;"/>
    </g>
    <g transform="matrix(1.33333,0,0,1.33333,-88.6226,-856.943)">
        <path d="M265.92,717.84L262.32,725.76L258.72,717.84" style="fill:none;fill-rule:nonzero;stroke:black;stroke-width:0.72px;"/>
    </g>
    <g transform="matrix(1.33333,0,0,1.33333,-88.6226,-805.423)">
        <path d="M211.92,702.48L222.24,702.48" style="fill:none;fill-rule:nonzero;stroke:black;stroke-width:0.72px;"/>
    </g>
    <g transform="matrix(-1.15468,-0.666702,-0.666702,1.15468,1685.07,-494.615)">
        <path d="M498.166,764.16L518.084,764.16" style="fill:none;fill-rule:nonzero;stroke:black;stroke-width:0.72px;"/>
    </g>
    <g transform="matrix(-1.15468,0.666702,0.666702,1.15468,709.05,-1183.65)">
        <path d="M515.416,764.16L535.334,764.16" style="fill:none;fill-rule:nonzero;stroke:black;stroke-width:0.72px;"/>
    </g>
    <g transform="matrix(-1.15468,-0.666702,-0.666702,1.15468,1770.9,-471.614)">
        <path d="M532.666,764.16L552.584,764.16" style="fill:none;fill-rule:nonzero;stroke:black;stroke-width:0.72px;"/>
    </g>
    <g transform="matrix(-1.15468,0.666702,0.666702,1.15468,794.887,-1206.65)">
        <path d="M549.916,764.16L569.834,764.16" style="fill:none;fill-rule:nonzero;stroke:black;stroke-width:0.72px;"/>
    </g>
    <g transform="matrix(0,-1.33333,-1.33333,0,1614.94,700.777)">
        <path d="M493.83,776.49L508.53,776.49" style="fill:none;fill-rule:nonzero;stroke:black;stroke-width:0.72px;"/>
    </g>
    <g transform="matrix(0,-1.33333,-1.33333,0,1610.46,696.297)">
        <path d="M490.47,776.49L505.17,776.49" style="fill:none;fill-rule:nonzero;stroke:black;stroke-width:0.72px;"/>
    </g>
    <g transform="matrix(-1.15484,0.666428,0.666428,1.15484,625.676,-1162.82)">
        <path d="M483.147,764.76L500.673,764.76" style="fill:none;fill-rule:nonzero;stroke:black;stroke-width:0.72px;"/>
    </g>
    <g transform="matrix(1.15476,0.666568,0.666568,-1.15476,-496.322,548.099)">
        <path d="M567.549,765.59L581.751,765.59" style="fill:none;fill-rule:nonzero;stroke:black;stroke-width:0.72px;"/>
    </g>
    <g transform="matrix(0,-1.33333,-1.33333,0,1706.94,792.777)">
        <path d="M562.83,776.49L577.53,776.49" style="fill:none;fill-rule:nonzero;stroke:black;stroke-width:0.72px;"/>
    </g>
    <g transform="matrix(0,-1.33333,-1.33333,0,1702.46,788.297)">
        <path d="M559.47,776.49L574.17,776.49" style="fill:none;fill-rule:nonzero;stroke:black;stroke-width:0.72px;"/>
    </g>
    <g transform="matrix(1.15496,-0.66621,-0.66621,-1.15496,526.542,1327.59)">
        <path d="M590.047,764.215L598.913,764.215" style="fill:none;fill-rule:nonzero;stroke:black;stroke-width:0.72px;"/>
    </g>
    <g transform="matrix(0,1.33333,1.33333,0,-353.903,-613.743)">
        <path d="M514.08,730.08L548.16,730.08" style="fill:none;fill-rule:nonzero;stroke:black;stroke-width:0.72px;"/>
    </g>
    <g transform="matrix(0,1.33333,1.33333,0,-350.063,-617.583)">
        <path d="M516.96,730.08L551.04,730.08" style="fill:none;fill-rule:nonzero;stroke:black;stroke-width:0.72px;"/>
    </g>
    <g transform="matrix(1.33333,0,0,1.33333,-88.6226,-835.183)">
        <path d="M536.16,709.68L532.56,717.6L528.96,709.68" style="fill:none;fill-rule:nonzero;stroke:black;stroke-width:0.72px;"/>
    </g>
    <g transform="matrix(-1.15468,-0.666702,-0.666702,1.15468,1612.86,-258.603)">
        <path d="M494.806,668.4L514.724,668.4" style="fill:none;fill-rule:nonzero;stroke:black;stroke-width:0.72px;"/>
    </g>
    <g transform="matrix(-1.15468,0.666702,0.666702,1.15468,764.534,-943.159)">
        <path d="M512.056,668.4L531.974,668.4" style="fill:none;fill-rule:nonzero;stroke:black;stroke-width:0.72px;"/>
    </g>
    <g transform="matrix(-1.15468,-0.666702,-0.666702,1.15468,1698.7,-235.602)">
        <path d="M529.306,668.4L549.224,668.4" style="fill:none;fill-rule:nonzero;stroke:black;stroke-width:0.72px;"/>
    </g>
    <g transform="matrix(-1.15468,0.666702,0.666702,1.15468,850.37,-966.161)">
        <path d="M546.556,668.4L566.474,668.4" style="fill:none;fill-rule:nonzero;stroke:black;stroke-width:0.72px;"/>
    </g>
    <g transform="matrix(0,-1.33333,-1.33333,0,1482.78,823.977)">
        <path d="M490.47,680.73L505.17,680.73" style="fill:none;fill-rule:nonzero;stroke:black;stroke-width:0.72px;"/>
    </g>
    <g transform="matrix(0,-1.33333,-1.33333,0,1478.3,819.497)">
        <path d="M487.11,680.73L501.81,680.73" style="fill:none;fill-rule:nonzero;stroke:black;stroke-width:0.72px;"/>
    </g>
    <g transform="matrix(-1.15476,0.666568,0.666568,1.15476,684.03,-925.352)">
        <path d="M482.889,669.83L497.091,669.83" style="fill:none;fill-rule:nonzero;stroke:black;stroke-width:0.72px;"/>
    </g>
    <g transform="matrix(1.15476,0.666568,0.666568,-1.15476,-433.091,567.439)">
        <path d="M564.189,669.83L578.391,669.83" style="fill:none;fill-rule:nonzero;stroke:black;stroke-width:0.72px;"/>
    </g>
    <g transform="matrix(0,-1.33333,-1.33333,0,1574.78,915.977)">
        <path d="M559.47,680.73L574.17,680.73" style="fill:none;fill-rule:nonzero;stroke:black;stroke-width:0.72px;"/>
    </g>
    <g transform="matrix(0,-1.33333,-1.33333,0,1570.3,911.497)">
        <path d="M556.11,680.73L570.81,680.73" style="fill:none;fill-rule:nonzero;stroke:black;stroke-width:0.72px;"/>
    </g>
    <g transform="matrix(1.15496,-0.66621,-0.66621,-1.15496,462.146,1342.44)">
        <path d="M586.687,668.455L595.553,668.455" style="fill:none;fill-rule:nonzero;stroke:black;stroke-width:0.72px;"/>
    </g>
    <g transform="matrix(-1.15487,-0.666381,-0.666381,1.15487,1526.42,-282.34)">
        <path d="M465.468,668.525L474.612,668.525" style="fill:none;fill-rule:nonzero;stroke:black;stroke-width:0.72px;"/>
    </g>
    <g transform="matrix(0,1.33333,1.33333,0,-222.063,-482.543)">
        <path d="M511.92,631.44L550.8,631.44" style="fill:none;fill-rule:nonzero;stroke:black;stroke-width:0.72px;"/>
    </g>
    <g transform="matrix(0,1.33333,1.33333,0,-218.223,-486.383)">
        <path d="M514.8,631.44L553.68,631.44" style="fill:none;fill-rule:nonzero;stroke:black;stroke-width:0.72px;"/>
    </g>
    <g transform="matrix(1.33333,0,0,1.33333,-88.6226,-565.743)">
        <path d="M536.4,608.64L532.8,616.56L529.2,608.64" style="fill:none;fill-rule:nonzero;stroke:black;stroke-width:0.72px;"/>
    </g>
    <g transform="matrix(0,-1.33333,-1.33333,0,1363.9,1053.34)">
        <path d="M531.87,550.14L546.63,550.14" style="fill:none;fill-rule:nonzero;stroke:black;stroke-width:0.72px;"/>
    </g>
    <g transform="matrix(1.15457,0.666895,0.666895,-1.15457,-373.747,613.92)">
        <path d="M521.052,569.105L535.188,569.105" style="fill:none;fill-rule:nonzero;stroke:black;stroke-width:0.72px;"/>
    </g>
    <g transform="matrix(1.15468,-0.666702,-0.666702,-1.15468,364.714,1325.55)">
        <path d="M520.666,537.78L540.584,537.78" style="fill:none;fill-rule:nonzero;stroke:black;stroke-width:0.72px;"/>
    </g>
    <g transform="matrix(1.15468,-0.666702,-0.666702,-1.15468,381.554,1308.71)">
        <path d="M503.416,567.66L523.334,567.66" style="fill:none;fill-rule:nonzero;stroke:black;stroke-width:0.72px;"/>
    </g>
    <g transform="matrix(1.15468,0.666702,0.666702,-1.15468,-355.446,629.513)">
        <path d="M503.416,537.78L523.334,537.78" style="fill:none;fill-rule:nonzero;stroke:black;stroke-width:0.72px;"/>
    </g>
    <g transform="matrix(0,-1.33333,-1.33333,0,1321.34,1003.9)">
        <path d="M494.79,552.72L514.71,552.72" style="fill:none;fill-rule:nonzero;stroke:black;stroke-width:0.72px;"/>
    </g>
    <g transform="matrix(0,-1.33333,-1.33333,0,1382.9,992.817)">
        <path d="M516.36,579.96L531,579.96" style="fill:none;fill-rule:nonzero;stroke:black;stroke-width:0.72px;"/>
    </g>
    <g transform="matrix(0,-1.33333,-1.33333,0,1378.42,988.337)">
        <path d="M513,579.96L527.64,579.96" style="fill:none;fill-rule:nonzero;stroke:black;stroke-width:0.72px;"/>
    </g>
    <g transform="matrix(1.15466,0.666729,0.666729,-1.15466,-349.638,608.475)">
        <path d="M537.396,537.525L552.534,537.525" style="fill:none;fill-rule:nonzero;stroke:black;stroke-width:0.72px;"/>
    </g>
    <g transform="matrix(1.1551,0.665976,0.665976,-1.1551,-351.578,607.955)">
        <path d="M539.208,540.915L552.402,540.915" style="fill:none;fill-rule:nonzero;stroke:black;stroke-width:0.72px;"/>
    </g>
    <g transform="matrix(-1.33333,0,0,1.33333,1167.7,-430.383)">
        <path d="M453.84,561.84L488.4,561.84" style="fill:none;fill-rule:nonzero;stroke:black;stroke-width:0.72px;"/>
    </g>
    <g transform="matrix(-1.33333,0,0,1.33333,1167.7,-422.703)">
        <path d="M453.84,558.96L488.4,558.96" style="fill:none;fill-rule:nonzero;stroke:black;stroke-width:0.72px;"/>
    </g>
    <g transform="matrix(1.33333,0,0,1.33333,-88.6226,-426.543)">
        <path d="M458.4,564L450.48,560.4L458.4,556.8" style="fill:none;fill-rule:nonzero;stroke:black;stroke-width:0.72px;"/>
    </g>
    <g transform="matrix(-1.15468,-0.666702,-0.666702,1.15468,1116.85,-91.3582)">
        <path d="M325.606,555.84L345.524,555.84" style="fill:none;fill-rule:nonzero;stroke:black;stroke-width:0.72px;"/>
    </g>
    <g transform="matrix(-1.15468,0.666706,0.666706,1.15468,413.304,-545.003)">
        <path d="M343.245,554.385L357.345,554.385" style="fill:none;fill-rule:nonzero;stroke:black;stroke-width:0.72px;"/>
    </g>
    <g transform="matrix(-1.15462,-0.666805,-0.666805,1.15462,1207.77,-63.2398)">
        <path d="M365.276,554.455L379.654,554.455" style="fill:none;fill-rule:nonzero;stroke:black;stroke-width:0.72px;"/>
    </g>
    <g transform="matrix(-1.15468,0.666702,0.666702,1.15468,504.443,-573.304)">
        <path d="M377.356,555.84L397.274,555.84" style="fill:none;fill-rule:nonzero;stroke:black;stroke-width:0.72px;"/>
    </g>
    <g transform="matrix(0,-1.33333,-1.33333,0,1107.1,748.457)">
        <path d="M321.27,568.17L335.97,568.17" style="fill:none;fill-rule:nonzero;stroke:black;stroke-width:0.72px;"/>
    </g>
    <g transform="matrix(0,-1.33333,-1.33333,0,1102.62,743.977)">
        <path d="M317.91,568.17L332.61,568.17" style="fill:none;fill-rule:nonzero;stroke:black;stroke-width:0.72px;"/>
    </g>
    <g transform="matrix(-1.15476,0.666568,0.666568,1.15476,338.074,-532.51)">
        <path d="M313.689,557.27L327.891,557.27" style="fill:none;fill-rule:nonzero;stroke:black;stroke-width:0.72px;"/>
    </g>
    <g transform="matrix(-1.15487,-0.666381,-0.666381,1.15487,1030.41,-115.02)">
        <path d="M296.268,555.965L305.412,555.965" style="fill:none;fill-rule:nonzero;stroke:black;stroke-width:0.72px;"/>
    </g>
    <g transform="matrix(1.15476,0.666568,0.666568,-1.15476,-388.277,700.322)">
        <path d="M394.989,557.27L409.191,557.27" style="fill:none;fill-rule:nonzero;stroke:black;stroke-width:0.72px;"/>
    </g>
    <g transform="matrix(0,-1.33333,-1.33333,0,1199.1,840.457)">
        <path d="M390.27,568.17L404.97,568.17" style="fill:none;fill-rule:nonzero;stroke:black;stroke-width:0.72px;"/>
    </g>
    <g transform="matrix(0,-1.33333,-1.33333,0,1194.62,835.977)">
        <path d="M386.91,568.17L401.61,568.17" style="fill:none;fill-rule:nonzero;stroke:black;stroke-width:0.72px;"/>
    </g>
    <g transform="matrix(1.15496,-0.66621,-0.66621,-1.15496,356.978,1249.79)">
        <path d="M417.487,555.895L426.353,555.895" style="fill:none;fill-rule:nonzero;stroke:black;stroke-width:0.72px;"/>
    </g>
</svg>
