<?xml version="1.0" encoding="UTF-8" standalone="no"?>
<!DOCTYPE svg PUBLIC "-//W3C//DTD SVG 1.1//EN" "http://www.w3.org/Graphics/SVG/1.1/DTD/svg11.dtd">
<svg width="100%" height="100%" viewBox="0 0 735 245" version="1.1" xmlns="http://www.w3.org/2000/svg" xmlns:xlink="http://www.w3.org/1999/xlink" xml:space="preserve" xmlns:serif="http://www.serif.com/" style="fill-rule:evenodd;clip-rule:evenodd;stroke-linecap:round;stroke-linejoin:round;stroke-miterlimit:10;">
    <g transform="matrix(1.33333,0,0,1.33333,-51.5746,-62.124)">
        <text x="81.84px" y="83.52px" style="font-family:'ArialMT', 'Arial', sans-serif;font-size:8px;">1</text>
    </g>
    <g transform="matrix(1.33333,0,0,1.33333,-51.5746,-62.124)">
        <text x="64.56px" y="108px" style="font-family:'ArialMT', 'Arial', sans-serif;font-size:8px;">1</text>
    </g>
    <g transform="matrix(1.33333,0,0,1.33333,-51.5746,-62.124)">
        <text x="46.08px" y="71.76px" style="font-family:'ArialMT', 'Arial', sans-serif;font-size:10px;">CH</text>
        <text x="60.48px" y="74.4px" style="font-family:'ArialMT', 'Arial', sans-serif;font-size:8px;">2</text>
        <text x="47.52px" y="79.2px" style="font-family:'ArialMT', 'Arial', sans-serif;font-size:8px;">3</text>
        <text x="41.28px" y="94.32px" style="font-family:'ArialMT', 'Arial', sans-serif;font-size:8px;">2</text>
    </g>
    <g transform="matrix(1.33333,0,0,1.33333,-51.5746,-62.124)">
        <text x="99.12px" y="108px" style="font-family:'ArialMT', 'Arial', sans-serif;font-size:8px;">2</text>
    </g>
    <g transform="matrix(1.33333,0,0,1.33333,-51.5746,-62.124)">
        <text x="110.16px" y="87.12px" style="font-family:'ArialMT', 'Arial', sans-serif;font-size:8px;">3</text>
    </g>
    <g transform="matrix(1.33333,0,0,1.33333,-51.5746,-62.124)">
        <text x="132.24px" y="101.76px" style="font-family:'ArialMT', 'Arial', sans-serif;font-size:10px;">R</text>
    </g>
    <g transform="matrix(1.33333,0,0,1.33333,-51.5746,-62.124)">
        <text x="114.72px" y="71.76px" style="font-family:'ArialMT', 'Arial', sans-serif;font-size:10px;">O</text>
    </g>
    <g transform="matrix(1.33333,0,0,1.33333,-51.5746,-62.124)">
        <text x="243.6px" y="103.92px" style="font-family:'ArialMT', 'Arial', sans-serif;font-size:8px;">2</text>
    </g>
    <g transform="matrix(1.33333,0,0,1.33333,-51.5746,-62.124)">
        <text x="220.08px" y="117.6px" style="font-family:'ArialMT', 'Arial', sans-serif;font-size:8px;">1</text>
    </g>
    <g transform="matrix(1.33333,0,0,1.33333,-51.5746,-62.124)">
        <text x="196.56px" y="77.52px" style="font-family:'ArialMT', 'Arial', sans-serif;font-size:8px;">2</text>
        <text x="196.8px" y="103.92px" style="font-family:'ArialMT', 'Arial', sans-serif;font-size:8px;">1</text>
    </g>
    <g transform="matrix(1.33333,0,0,1.33333,-51.5746,-62.124)">
        <text x="252.96px" y="71.28px" style="font-family:'ArialMT', 'Arial', sans-serif;font-size:10px;">O<tspan x="260.88px " y="71.28px ">H</tspan></text>
    </g>
    <g transform="matrix(1.33333,0,0,1.33333,-51.5746,-62.124)">
        <text x="235.68px" y="64.08px" style="font-family:'ArialMT', 'Arial', sans-serif;font-size:10px;">R</text>
        <text x="214.32px" y="70.32px" style="font-family:'ArialMT', 'Arial', sans-serif;font-size:10px;">CH</text>
        <text x="228.72px" y="72.96px" style="font-family:'ArialMT', 'Arial', sans-serif;font-size:8px;">2</text>
    </g>
    <g transform="matrix(1.33333,0,0,1.33333,-51.5746,-62.124)">
        <text x="215.76px" y="77.76px" style="font-family:'ArialMT', 'Arial', sans-serif;font-size:8px;">3</text>
    </g>
    <g transform="matrix(1.33333,0,0,1.33333,-51.5746,-62.124)">
        <text x="325.2px" y="101.28px" style="font-family:'ArialMT', 'Arial', sans-serif;font-size:10px;">CH</text>
        <text x="339.6px" y="103.92px" style="font-family:'ArialMT', 'Arial', sans-serif;font-size:8px;">2</text>
    </g>
    <g transform="matrix(1.33333,0,0,1.33333,-51.5746,-62.124)">
        <text x="376.56px" y="71.28px" style="font-family:'ArialMT', 'Arial', sans-serif;font-size:10px;">O<tspan x="384.48px " y="71.28px ">H</tspan></text>
    </g>
    <g transform="matrix(1.33333,0,0,1.33333,-51.5746,-62.124)">
        <text x="359.52px" y="61.44px" style="font-family:'ArialMT', 'Arial', sans-serif;font-size:10px;">R</text>
    </g>
    <g transform="matrix(1.33333,0,0,1.33333,-51.5746,-62.124)">
        <text x="353.28px" y="114.96px" style="font-family:'ArialMT', 'Arial', sans-serif;font-size:10px;">C</text>
    </g>
    <g transform="matrix(1.33333,0,0,1.33333,-51.5746,-62.124)">
        <text x="341.76px" y="114.96px" style="font-family:'ArialMT', 'Arial', sans-serif;font-size:10px;">H</text>
        <text x="348.96px" y="117.6px" style="font-family:'ArialMT', 'Arial', sans-serif;font-size:8px;">2</text>
    </g>
    <g transform="matrix(0.0209328,-1.33317,1.33317,0.0209328,-51.5746,-62.124)">
        <text x="-69.506px" y="382.978px" style="font-family:'ArialMT', 'Arial', sans-serif;font-size:10px;">:</text>
    </g>
    <g transform="matrix(-0.0162671,-1.33323,1.33323,-0.0162671,-51.5746,-62.124)">
        <text x="-67.405px" y="380.326px" style="font-family:'ArialMT', 'Arial', sans-serif;font-size:10px;">:</text>
    </g>
    <g transform="matrix(1.33333,0,0,1.33333,-51.5746,-62.124)">
        <text x="453.6px" y="105.84px" style="font-family:'ArialMT', 'Arial', sans-serif;font-size:10px;">CH</text>
        <text x="468px" y="108.48px" style="font-family:'ArialMT', 'Arial', sans-serif;font-size:8px;">2</text>
    </g>
    <g transform="matrix(1.33333,0,0,1.33333,-51.5746,-62.124)">
        <text x="470.64px" y="75.84px" style="font-family:'ArialMT', 'Arial', sans-serif;font-size:10px;">CH</text>
        <text x="485.04px" y="78.48px" style="font-family:'ArialMT', 'Arial', sans-serif;font-size:8px;">2</text>
    </g>
    <g transform="matrix(1.33333,0,0,1.33333,-51.5746,-62.124)">
        <text x="485.04px" y="68.88px" style="font-family:'ArialMT', 'Arial', sans-serif;font-size:8px;">–</text>
        <text x="501.36px" y="90.96px" style="font-family:'ArialMT', 'Arial', sans-serif;font-size:18px;">+</text>
    </g>
    <g transform="matrix(1.33333,0,0,1.33333,-51.5746,-62.124)">
        <text x="558px" y="117.36px" style="font-family:'ArialMT', 'Arial', sans-serif;font-size:10px;">CH</text>
        <text x="572.4px" y="120px" style="font-family:'ArialMT', 'Arial', sans-serif;font-size:8px;">2</text>
    </g>
    <g transform="matrix(1.33333,0,0,1.33333,-51.5746,-62.124)">
        <text x="523.68px" y="97.44px" style="font-family:'ArialMT', 'Arial', sans-serif;font-size:10px;">R</text>
    </g>
    <g transform="matrix(1.33333,0,0,1.33333,-51.5746,-62.124)">
        <text x="540.48px" y="67.44px" style="font-family:'ArialMT', 'Arial', sans-serif;font-size:10px;">O</text>
        <text x="548.4px" y="60.48px" style="font-family:'ArialMT', 'Arial', sans-serif;font-size:8px;">+</text>
    </g>
    <g transform="matrix(1.33333,0,0,1.33333,-51.5746,-62.124)">
        <text x="558px" y="57.6px" style="font-family:'ArialMT', 'Arial', sans-serif;font-size:10px;">H</text>
    </g>
    <g transform="matrix(0.0140006,1.33326,-1.33326,0.0140006,-51.5746,-62.124)">
        <text x="69.384px" y="-472.337px" style="font-family:'ArialMT', 'Arial', sans-serif;font-size:10px;">:</text>
    </g>
    <g transform="matrix(1.33333,0,0,1.33333,-51.5746,-62.124)">
        <text x="557.52px" y="225.36px" style="font-family:'ArialMT', 'Arial', sans-serif;font-size:10px;">CH</text>
        <text x="571.92px" y="228px" style="font-family:'ArialMT', 'Arial', sans-serif;font-size:8px;">2</text>
    </g>
    <g transform="matrix(1.33333,0,0,1.33333,-51.5746,-62.124)">
        <text x="523.2px" y="205.44px" style="font-family:'ArialMT', 'Arial', sans-serif;font-size:10px;">R</text>
    </g>
    <g transform="matrix(1.33333,0,0,1.33333,-51.5746,-62.124)">
        <text x="540px" y="175.44px" style="font-family:'ArialMT', 'Arial', sans-serif;font-size:10px;">O</text>
    </g>
    <g transform="matrix(1.33333,0,0,1.33333,-51.5746,-62.124)">
        <text x="440.64px" y="194.4px" style="font-family:'ArialMT', 'Arial', sans-serif;font-size:10px;">C</text>
    </g>
    <g transform="matrix(1.33333,0,0,1.33333,-51.5746,-62.124)">
        <text x="429.12px" y="194.4px" style="font-family:'ArialMT', 'Arial', sans-serif;font-size:10px;">H</text>
        <text x="436.32px" y="197.04px" style="font-family:'ArialMT', 'Arial', sans-serif;font-size:8px;">2</text>
    </g>
    <g transform="matrix(1.33333,0,0,1.33333,-51.5746,-62.124)">
        <text x="493.2px" y="184.56px" style="font-family:'ArialMT', 'Arial', sans-serif;font-size:10px;">Li</text>
    </g>
    <g transform="matrix(1.15468,-0.666702,-0.666702,-1.15468,461.436,976.978)">
        <path d="M65.626,749.22L85.544,749.22" style="fill:none;fill-rule:nonzero;stroke:black;stroke-width:0.72px;"/>
    </g>
    <g transform="matrix(1.15468,0.666702,0.666702,-1.15468,-540.659,887.693)">
        <path d="M48.376,749.22L68.294,749.22" style="fill:none;fill-rule:nonzero;stroke:black;stroke-width:0.72px;"/>
    </g>
    <g transform="matrix(0,-1.33333,-1.33333,0,1027.59,118.316)">
        <path d="M47.61,757.98L55.17,757.98" style="fill:none;fill-rule:nonzero;stroke:black;stroke-width:0.72px;"/>
    </g>
    <g transform="matrix(0,-1.33333,-1.33333,0,1023.11,113.836)">
        <path d="M44.25,757.98L51.81,757.98" style="fill:none;fill-rule:nonzero;stroke:black;stroke-width:0.72px;"/>
    </g>
    <g transform="matrix(1.15468,0.666702,0.666702,-1.15468,-534.496,864.692)">
        <path d="M82.876,749.22L102.794,749.22" style="fill:none;fill-rule:nonzero;stroke:black;stroke-width:0.72px;"/>
    </g>
    <g transform="matrix(1.15468,-0.666702,-0.666702,-1.15468,467.599,999.979)">
        <path d="M100.126,749.22L120.044,749.22" style="fill:none;fill-rule:nonzero;stroke:black;stroke-width:0.72px;"/>
    </g>
    <g transform="matrix(1.15459,0.666853,0.666853,-1.15459,-529.753,842.925)">
        <path d="M117.737,750.57L132.253,750.57" style="fill:none;fill-rule:nonzero;stroke:black;stroke-width:0.72px;"/>
    </g>
    <g transform="matrix(0,-1.33333,-1.33333,0,1124.39,205.516)">
        <path d="M113.01,761.58L127.77,761.58" style="fill:none;fill-rule:nonzero;stroke:black;stroke-width:0.72px;"/>
    </g>
    <g transform="matrix(0,-1.33333,-1.33333,0,1119.91,201.036)">
        <path d="M109.65,761.58L124.41,761.58" style="fill:none;fill-rule:nonzero;stroke:black;stroke-width:0.72px;"/>
    </g>
    <g transform="matrix(1.33333,0,0,1.33333,-51.5746,-951.724)">
        <path d="M152.64,754.56L186.72,754.56" style="fill:none;fill-rule:nonzero;stroke:black;stroke-width:0.72px;"/>
    </g>
    <g transform="matrix(1.33333,0,0,1.33333,-51.5746,-959.404)">
        <path d="M152.64,757.44L186.72,757.44" style="fill:none;fill-rule:nonzero;stroke:black;stroke-width:0.72px;"/>
    </g>
    <g transform="matrix(1.2958,0.314133,0.314133,-1.2958,-282.652,974.596)">
        <path d="M178.459,758.373L186.609,758.373L179.364,754.641L180.311,756.846L178.459,758.373Z" style="stroke:black;stroke-width:0.72px;"/>
    </g>
    <g transform="matrix(-1.2958,0.314133,0.314133,1.2958,123.115,-972.596)">
        <path d="M152.299,753.627L160.449,753.627L153.204,757.359L154.151,755.154L152.299,753.627Z" style="stroke:black;stroke-width:0.72px;"/>
    </g>
    <g transform="matrix(0,-1.33333,-1.33333,0,1274.15,373.996)">
        <path d="M229.77,754.56L249.69,754.56" style="fill:none;fill-rule:nonzero;stroke:black;stroke-width:0.72px;"/>
    </g>
    <g transform="matrix(0,-1.33333,-1.33333,0,1272.07,367.116)">
        <path d="M228.21,756.36L244.53,756.36" style="fill:none;fill-rule:nonzero;stroke:black;stroke-width:0.72px;"/>
    </g>
    <g transform="matrix(1.15468,-0.666702,-0.666702,-1.15468,482.819,1082.38)">
        <path d="M221.146,739.62L241.064,739.62" style="fill:none;fill-rule:nonzero;stroke:black;stroke-width:0.72px;"/>
    </g>
    <g transform="matrix(1.15468,0.666702,0.666702,-1.15468,-506.475,785.723)">
        <path d="M203.896,739.62L223.814,739.62" style="fill:none;fill-rule:nonzero;stroke:black;stroke-width:0.72px;"/>
    </g>
    <g transform="matrix(0,-1.33333,-1.33333,0,1228.15,327.996)">
        <path d="M195.27,754.56L215.19,754.56" style="fill:none;fill-rule:nonzero;stroke:black;stroke-width:0.72px;"/>
    </g>
    <g transform="matrix(1.15487,-0.666378,-0.666378,-1.15487,504.122,1087.2)">
        <path d="M238.782,768.06L252.948,768.06" style="fill:none;fill-rule:nonzero;stroke:black;stroke-width:0.72px;"/>
    </g>
    <g transform="matrix(-0.0274969,-1.33305,-1.33305,0.0274969,1301.71,331.213)">
        <path d="M233.544,770.58L245.666,770.58" style="fill:none;fill-rule:nonzero;stroke:black;stroke-width:0.72px;"/>
    </g>
    <g transform="matrix(1.00397,-0.877397,-0.877397,-1.00397,690.543,992.486)">
        <path d="M204.99,766.83L215.84,766.83" style="fill:none;fill-rule:nonzero;stroke:black;stroke-width:0.72px;"/>
    </g>
    <g transform="matrix(1.00317,-0.878314,-0.878314,-1.00317,693.492,989.604)">
        <path d="M202.599,769.825L214.881,769.825" style="fill:none;fill-rule:nonzero;stroke:black;stroke-width:0.72px;"/>
    </g>
    <g transform="matrix(1.33333,0,0,1.33333,-51.5746,-953.644)">
        <path d="M277.92,755.28L312,755.28" style="fill:none;fill-rule:nonzero;stroke:black;stroke-width:0.72px;"/>
    </g>
    <g transform="matrix(1.33333,0,0,1.33333,-51.5746,-961.324)">
        <path d="M277.92,758.16L312,758.16" style="fill:none;fill-rule:nonzero;stroke:black;stroke-width:0.72px;"/>
    </g>
    <g transform="matrix(1.33333,0,0,1.33333,-51.5746,-957.484)">
        <path d="M307.44,753.12L315.36,756.72L307.44,760.32" style="fill:none;fill-rule:nonzero;stroke:black;stroke-width:0.72px;"/>
    </g>
    <g transform="matrix(0,-1.33333,-1.33333,0,1438.95,538.796)">
        <path d="M353.37,754.56L373.29,754.56" style="fill:none;fill-rule:nonzero;stroke:black;stroke-width:0.72px;"/>
    </g>
    <g transform="matrix(1.15468,0.666702,0.666702,-1.15468,-501.233,686.48)">
        <path d="M344.746,769.5L364.664,769.5" style="fill:none;fill-rule:nonzero;stroke:black;stroke-width:0.72px;"/>
    </g>
    <g transform="matrix(1.15468,-0.666702,-0.666702,-1.15468,521.74,1147.94)">
        <path d="M327.496,769.5L347.414,769.5" style="fill:none;fill-rule:nonzero;stroke:black;stroke-width:0.72px;"/>
    </g>
    <g transform="matrix(0,-1.33333,-1.33333,0,1396.39,489.356)">
        <path d="M321.45,757.14L336.21,757.14" style="fill:none;fill-rule:nonzero;stroke:black;stroke-width:0.72px;"/>
    </g>
    <g transform="matrix(0,-1.33333,-1.33333,0,1399.76,494.943)">
        <path d="M325.64,756.31L338.74,756.31" style="fill:none;fill-rule:nonzero;stroke:black;stroke-width:0.72px;"/>
    </g>
    <g transform="matrix(1.15487,-0.666378,-0.666378,-1.15487,526.181,1169.57)">
        <path d="M362.382,768.06L376.548,768.06" style="fill:none;fill-rule:nonzero;stroke:black;stroke-width:0.72px;"/>
    </g>
    <g transform="matrix(0,-1.33333,-1.33333,0,1462.07,515.676)">
        <path d="M355.95,771.9L370.71,771.9" style="fill:none;fill-rule:nonzero;stroke:black;stroke-width:0.72px;"/>
    </g>
    <g transform="matrix(-0.572422,1.20421,1.20421,0.572422,-254.537,-785.556)">
        <path d="M356.588,740.34L366.022,740.34" style="fill:none;fill-rule:nonzero;stroke:black;stroke-width:0.72px;"/>
    </g>
    <g transform="matrix(-0.572963,1.20395,1.20395,0.572963,-261.452,-783.173)">
        <path d="M352.415,741.06L363.445,741.06" style="fill:none;fill-rule:nonzero;stroke:black;stroke-width:0.72px;"/>
    </g>
    <g transform="matrix(1.33333,0,0,1.33333,-51.5746,-954.284)">
        <path d="M401.76,755.52L435.84,755.52" style="fill:none;fill-rule:nonzero;stroke:black;stroke-width:0.72px;"/>
    </g>
    <g transform="matrix(1.33333,0,0,1.33333,-51.5746,-961.964)">
        <path d="M401.76,758.4L435.84,758.4" style="fill:none;fill-rule:nonzero;stroke:black;stroke-width:0.72px;"/>
    </g>
    <g transform="matrix(1.33333,0,0,1.33333,-51.5746,-958.124)">
        <path d="M431.28,753.36L439.2,756.96L431.28,760.56" style="fill:none;fill-rule:nonzero;stroke:black;stroke-width:0.72px;"/>
    </g>
    <g transform="matrix(1.33333,0,0,1.33333,-51.5746,-972.204)">
        <path d="M380.16,756.72L380.64,759.6L380.64,760.56L380.4,761.76L379.92,762.72L379.44,763.92L378.72,764.64L378,765.6L377.04,766.32L376.32,766.8L375.12,767.28L374.16,767.52L372.96,767.76L372.48,767.76L370.8,767.52L369.36,767.28L366.96,765.84L365.04,763.44L364.8,762.96L364.56,762.24" style="fill:none;fill-rule:nonzero;stroke:black;stroke-width:0.48px;"/>
    </g>
    <g transform="matrix(-0.468165,-1.24844,-1.24844,0.468165,1557.4,153.056)">
        <path d="M364.007,759.861L372.209,759.861L364.934,756.181L366.001,758.344L364.007,759.861Z" style="stroke:black;stroke-width:0.48px;"/>
    </g>
    <g transform="matrix(1.33333,0,0,1.33333,-51.5746,-995.244)">
        <path d="M354,760.8L355.2,762.24L356.16,763.68L356.88,765.6L357.36,767.28L357.6,769.2L357.12,772.08L356.88,773.28L356.4,774.48L355.68,775.68L354.96,776.64L353.04,778.56L352.08,779.28L350.88,780L349.68,780.48L349.2,780.72L348.48,780.96" style="fill:none;fill-rule:nonzero;stroke:black;stroke-width:0.48px;"/>
    </g>
    <g transform="matrix(-1.2958,0.314133,0.314133,1.2958,635.178,-1057.78)">
        <path d="M348.789,765.309L356.939,765.309L349.574,761.415L350.662,763.867L348.789,765.309Z" style="stroke:black;stroke-width:0.48px;"/>
    </g>
    <g transform="matrix(0,1.33333,1.33333,0,-445.495,-552.684)">
        <path d="M449.76,752.64L464.64,752.64" style="fill:none;fill-rule:nonzero;stroke:black;stroke-width:0.72px;"/>
    </g>
    <g transform="matrix(0,1.33333,1.33333,0,-439.908,-556.057)">
        <path d="M453.95,751.81L467.17,751.81" style="fill:none;fill-rule:nonzero;stroke:black;stroke-width:0.72px;"/>
    </g>
    <g transform="matrix(1.15451,-0.666991,-0.666991,-1.15451,540.668,1232.98)">
        <path d="M456.234,763.685L470.646,763.685" style="fill:none;fill-rule:nonzero;stroke:black;stroke-width:0.72px;"/>
    </g>
    <g transform="matrix(0,-1.33333,-1.33333,0,1685.59,821.436)">
        <path d="M554.43,741.06L569.19,741.06" style="fill:none;fill-rule:nonzero;stroke:black;stroke-width:0.72px;"/>
    </g>
    <g transform="matrix(0,-1.33333,-1.33333,0,1680,818.063)">
        <path d="M551.9,740.23L565,740.23" style="fill:none;fill-rule:nonzero;stroke:black;stroke-width:0.72px;"/>
    </g>
    <g transform="matrix(1.15468,0.666702,0.666702,-1.15468,-455.053,557.025)">
        <path d="M543.226,753.42L563.144,753.42" style="fill:none;fill-rule:nonzero;stroke:black;stroke-width:0.72px;"/>
    </g>
    <g transform="matrix(1.15485,-0.666401,-0.666401,-1.15485,547.436,1284.39)">
        <path d="M530.857,754.73L545.543,754.73" style="fill:none;fill-rule:nonzero;stroke:black;stroke-width:0.72px;"/>
    </g>
    <g transform="matrix(0,-1.33333,-1.33333,0,1695.63,765.396)">
        <path d="M537.12,765.84L552,765.84" style="fill:none;fill-rule:nonzero;stroke:black;stroke-width:0.72px;"/>
    </g>
    <g transform="matrix(0,-1.33333,-1.33333,0,1701.21,768.769)">
        <path d="M541.31,766.67L554.53,766.67" style="fill:none;fill-rule:nonzero;stroke:black;stroke-width:0.72px;"/>
    </g>
    <g transform="matrix(1.15491,-0.666297,-0.666297,-1.15491,570.33,1290.56)">
        <path d="M553.679,784.63L557.281,784.63" style="fill:none;fill-rule:nonzero;stroke:black;stroke-width:0.72px;"/>
    </g>
    <g transform="matrix(0,1.33333,1.33333,0,-260.695,-600.844)">
        <path d="M527.64,701.4L561.48,701.4" style="fill:none;fill-rule:nonzero;stroke:black;stroke-width:0.72px;"/>
    </g>
    <g transform="matrix(0,1.33333,1.33333,0,-256.855,-604.684)">
        <path d="M530.52,701.4L564.36,701.4" style="fill:none;fill-rule:nonzero;stroke:black;stroke-width:0.72px;"/>
    </g>
    <g transform="matrix(1.33333,0,0,1.33333,-51.5746,-766.444)">
        <path d="M549.6,681.12L546,689.04L542.4,681.12" style="fill:none;fill-rule:nonzero;stroke:black;stroke-width:0.72px;"/>
    </g>
    <g transform="matrix(0,-1.33333,-1.33333,0,1540.95,964.796)">
        <path d="M553.95,633.06L568.71,633.06" style="fill:none;fill-rule:nonzero;stroke:black;stroke-width:0.72px;"/>
    </g>
    <g transform="matrix(0,-1.33333,-1.33333,0,1535.36,961.423)">
        <path d="M551.42,632.23L564.52,632.23" style="fill:none;fill-rule:nonzero;stroke:black;stroke-width:0.72px;"/>
    </g>
    <g transform="matrix(1.15468,0.666702,0.666702,-1.15468,-383.135,576.64)">
        <path d="M542.746,645.42L562.664,645.42" style="fill:none;fill-rule:nonzero;stroke:black;stroke-width:0.72px;"/>
    </g>
    <g transform="matrix(1.15485,-0.666401,-0.666401,-1.15485,475.379,1303.35)">
        <path d="M530.377,646.73L545.063,646.73" style="fill:none;fill-rule:nonzero;stroke:black;stroke-width:0.72px;"/>
    </g>
    <g transform="matrix(0,-1.33333,-1.33333,0,1553.23,910.996)">
        <path d="M538.32,657.84L553.2,657.84" style="fill:none;fill-rule:nonzero;stroke:black;stroke-width:0.72px;"/>
    </g>
    <g transform="matrix(0,-1.33333,-1.33333,0,1548.75,906.516)">
        <path d="M534.96,657.84L549.84,657.84" style="fill:none;fill-rule:nonzero;stroke:black;stroke-width:0.72px;"/>
    </g>
    <g transform="matrix(0,1.33333,1.33333,0,-368.215,-493.324)">
        <path d="M447.48,701.4L480.36,701.4" style="fill:none;fill-rule:nonzero;stroke:black;stroke-width:0.72px;"/>
    </g>
    <g transform="matrix(0,1.33333,1.33333,0,-364.375,-497.164)">
        <path d="M450.36,701.4L483.24,701.4" style="fill:none;fill-rule:nonzero;stroke:black;stroke-width:0.72px;"/>
    </g>
    <g transform="matrix(1.33333,0,0,1.33333,-51.5746,-767.724)">
        <path d="M468.96,681.6L465.36,689.52L461.76,681.6" style="fill:none;fill-rule:nonzero;stroke:black;stroke-width:0.72px;"/>
    </g>
    <g transform="matrix(-1.15457,0.6669,0.6669,1.15457,642.15,-879.429)">
        <path d="M447.818,657.715L462.472,657.715" style="fill:none;fill-rule:nonzero;stroke:black;stroke-width:0.72px;"/>
    </g>
    <g transform="matrix(-1.15457,0.6669,0.6669,1.15457,645.241,-870.284)">
        <path d="M448.058,653.975L462.712,653.975" style="fill:none;fill-rule:nonzero;stroke:black;stroke-width:0.72px;"/>
    </g>
    <g transform="matrix(1.15468,0.666702,0.666702,-1.15468,-405.21,629.741)">
        <path d="M460.156,656.4L480.074,656.4" style="fill:none;fill-rule:nonzero;stroke:black;stroke-width:0.72px;"/>
    </g>
    <g transform="matrix(1.15486,-0.666395,-0.666395,-1.15486,471.773,1267.01)">
        <path d="M477.697,655.315L493.283,655.315" style="fill:none;fill-rule:nonzero;stroke:black;stroke-width:0.72px;"/>
    </g>
</svg>
