<?xml version="1.0" encoding="UTF-8" standalone="no"?>
<!DOCTYPE svg PUBLIC "-//W3C//DTD SVG 1.1//EN" "http://www.w3.org/Graphics/SVG/1.1/DTD/svg11.dtd">
<svg width="100%" height="100%" viewBox="0 0 700 255" version="1.1" xmlns="http://www.w3.org/2000/svg" xmlns:xlink="http://www.w3.org/1999/xlink" xml:space="preserve" xmlns:serif="http://www.serif.com/" style="fill-rule:evenodd;clip-rule:evenodd;stroke-linecap:round;stroke-linejoin:round;stroke-miterlimit:10;">
    <g transform="matrix(1.33333,0,0,1.33333,-73.04,-63.7844)">
        <text x="75.84px" y="61.92px" style="font-family:'ArialMT', 'Arial', sans-serif;font-size:10px;">O<tspan x="83.76px " y="61.92px ">H</tspan></text>
    </g>
    <g transform="matrix(1.33333,0,0,1.33333,-73.04,-63.7844)">
        <text x="58.8px" y="91.68px" style="font-family:'ArialMT', 'Arial', sans-serif;font-size:10px;">R</text>
    </g>
    <g transform="matrix(1.33333,0,0,1.33333,-73.04,-63.7844)">
        <text x="162px" y="91.68px" style="font-family:'ArialMT', 'Arial', sans-serif;font-size:10px;">O</text>
    </g>
    <g transform="matrix(1.33333,0,0,1.33333,-73.04,-63.7844)">
        <text x="144.72px" y="61.92px" style="font-family:'ArialMT', 'Arial', sans-serif;font-size:10px;">O</text>
    </g>
    <g transform="matrix(1.33333,0,0,1.33333,-73.04,-63.7844)">
        <text x="179.52px" y="81.84px" style="font-family:'ArialMT', 'Arial', sans-serif;font-size:10px;">R</text>
        <text x="186.96px" y="74.88px" style="font-family:'ArialMT', 'Arial', sans-serif;font-size:8px;">1</text>
    </g>
    <g transform="matrix(1.33333,0,0,1.33333,-73.04,-63.7844)">
        <text x="252.24px" y="77.52px" style="font-family:'ArialMT', 'Arial', sans-serif;font-size:10px;">R</text>
        <text x="259.68px" y="70.56px" style="font-family:'ArialMT', 'Arial', sans-serif;font-size:8px;">1</text>
        <text x="271.92px" y="77.52px" style="font-family:'ArialMT', 'Arial', sans-serif;font-size:10px;"><tspan x="271.92px " y="77.52px ">O</tspan></text>
        <text x="279.84px" y="77.52px" style="font-family:'ArialMT', 'Arial', sans-serif;font-size:10px;">H</text>
        <text x="302.16px" y="80.88px" style="font-family:'ArialMT', 'Arial', sans-serif;font-size:18px;"><tspan x="302.16px " y="80.88px ">+</tspan></text>
    </g>
    <g transform="matrix(1.33333,0,0,1.33333,-73.04,-63.7844)">
        <text x="355.2px" y="94.8px" style="font-family:'ArialMT', 'Arial', sans-serif;font-size:10px;">O</text>
    </g>
    <g transform="matrix(1.33333,0,0,1.33333,-73.04,-63.7844)">
        <text x="321.12px" y="94.56px" style="font-family:'ArialMT', 'Arial', sans-serif;font-size:10px;">R</text>
    </g>
    <g transform="matrix(1.33333,0,0,1.33333,-73.04,-63.7844)">
        <text x="389.76px" y="94.8px" style="font-family:'ArialMT', 'Arial', sans-serif;font-size:10px;">O</text>
    </g>
    <g transform="matrix(1.33333,0,0,1.33333,-73.04,-63.7844)">
        <text x="499.44px" y="106.32px" style="font-family:'ArialMT', 'Arial', sans-serif;font-size:10px;">O</text>
    </g>
    <g transform="matrix(1.33333,0,0,1.33333,-73.04,-63.7844)">
        <text x="464.4px" y="81.12px" style="font-family:'ArialMT', 'Arial', sans-serif;font-size:10px;">R</text>
    </g>
    <g transform="matrix(1.33333,0,0,1.33333,-73.04,-63.7844)">
        <text x="443.04px" y="232.32px" style="font-family:'ArialMT', 'Arial', sans-serif;font-size:10px;">O</text>
        <text x="450.96px" y="225.36px" style="font-family:'ArialMT', 'Arial', sans-serif;font-size:8px;">–</text>
    </g>
    <g transform="matrix(1.33333,0,0,1.33333,-73.04,-63.7844)">
        <text x="526.08px" y="200.64px" style="font-family:'ArialMT', 'Arial', sans-serif;font-size:10px;">C</text>
    </g>
    <g transform="matrix(1.33333,0,0,1.33333,-73.04,-63.7844)">
        <text x="518.88px" y="200.64px" style="font-family:'ArialMT', 'Arial', sans-serif;font-size:10px;">H</text>
        <text x="533.28px" y="193.68px" style="font-family:'ArialMT', 'Arial', sans-serif;font-size:8px;">–</text>
    </g>
    <g transform="matrix(1.33333,0,0,1.33333,-73.04,-63.7844)">
        <text x="542.64px" y="231.84px" style="font-family:'ArialMT', 'Arial', sans-serif;font-size:10px;">O</text>
        <text x="451.44px" y="232.08px" style="font-family:'ArialMT', 'Arial', sans-serif;font-size:10px;">:</text>
    </g>
    <g transform="matrix(1.33333,0,0,1.33333,-73.04,-63.7844)">
        <text x="439.2px" y="231.12px" style="font-family:'ArialMT', 'Arial', sans-serif;font-size:10px;">:</text>
    </g>
    <g transform="matrix(0.041867,-1.33268,1.33268,0.041867,-73.04,-63.7844)">
        <text x="-221.816px" y="454.549px" style="font-family:'ArialMT', 'Arial', sans-serif;font-size:10px;">:</text>
    </g>
    <g transform="matrix(0.0976017,1.32976,-1.32976,0.0976017,-73.04,-63.7844)">
        <text x="228.15px" y="-511.983px" style="font-family:'ArialMT', 'Arial', sans-serif;font-size:10px;">:</text>
    </g>
    <g transform="matrix(1.33333,0,0,1.33333,-73.04,-63.7844)">
        <text x="402.96px" y="212.16px" style="font-family:'ArialMT', 'Arial', sans-serif;font-size:18px;">+</text>
    </g>
    <g transform="matrix(1.33333,0,0,1.33333,-73.04,-63.7844)">
        <text x="381.6px" y="210px" style="font-family:'ArialMT', 'Arial', sans-serif;font-size:10px;">R</text>
    </g>
    <g transform="matrix(1.33333,0,0,1.33333,-73.04,-63.7844)">
        <text x="388.8px" y="203.04px" style="font-family:'ArialMT', 'Arial', sans-serif;font-size:10px;">+</text>
    </g>
    <g transform="matrix(-1.15468,-0.666702,-0.666702,1.15468,652.92,-771.012)">
        <path d="M78.406,759.12L98.324,759.12" style="fill:none;fill-rule:nonzero;stroke:black;stroke-width:0.72px;"/>
    </g>
    <g transform="matrix(-1.15468,0.666702,0.666702,1.15468,-316.375,-900.339)">
        <path d="M95.656,759.12L115.574,759.12" style="fill:none;fill-rule:nonzero;stroke:black;stroke-width:0.72px;"/>
    </g>
    <g transform="matrix(-1.15468,-0.666702,-0.666702,1.15468,738.757,-748.011)">
        <path d="M112.906,759.12L132.824,759.12" style="fill:none;fill-rule:nonzero;stroke:black;stroke-width:0.72px;"/>
    </g>
    <g transform="matrix(-1.15468,0.666702,0.666702,1.15468,-230.539,-923.34)">
        <path d="M130.156,759.12L150.074,759.12" style="fill:none;fill-rule:nonzero;stroke:black;stroke-width:0.72px;"/>
    </g>
    <g transform="matrix(0,-1.33333,-1.33333,0,1061.88,136.496)">
        <path d="M72.39,771.45L87.09,771.45" style="fill:none;fill-rule:nonzero;stroke:black;stroke-width:0.72px;"/>
    </g>
    <g transform="matrix(-1.15464,0.666766,0.666766,1.15464,-397.562,-882.014)">
        <path d="M65.971,760.41L80.729,760.41" style="fill:none;fill-rule:nonzero;stroke:black;stroke-width:0.72px;"/>
    </g>
    <g transform="matrix(1.15476,0.666568,0.666568,-1.15476,-552.338,819.715)">
        <path d="M147.789,760.55L161.991,760.55" style="fill:none;fill-rule:nonzero;stroke:black;stroke-width:0.72px;"/>
    </g>
    <g transform="matrix(0,-1.33333,-1.33333,0,1156.12,230.736)">
        <path d="M143.07,771.45L157.77,771.45" style="fill:none;fill-rule:nonzero;stroke:black;stroke-width:0.72px;"/>
    </g>
    <g transform="matrix(0,-1.33333,-1.33333,0,1151.64,226.256)">
        <path d="M139.71,771.45L154.41,771.45" style="fill:none;fill-rule:nonzero;stroke:black;stroke-width:0.72px;"/>
    </g>
    <g transform="matrix(1.15496,-0.66621,-0.66621,-1.15496,463.894,1039.76)">
        <path d="M170.287,759.175L179.153,759.175" style="fill:none;fill-rule:nonzero;stroke:black;stroke-width:0.72px;"/>
    </g>
    <g transform="matrix(1.33333,0,0,1.33333,-73.04,-987.304)">
        <path d="M204,767.28L238.08,767.28" style="fill:none;fill-rule:nonzero;stroke:black;stroke-width:0.72px;"/>
    </g>
    <g transform="matrix(1.33333,0,0,1.33333,-73.04,-994.984)">
        <path d="M204,770.16L238.08,770.16" style="fill:none;fill-rule:nonzero;stroke:black;stroke-width:0.72px;"/>
    </g>
    <g transform="matrix(1.33333,0,0,1.33333,-73.04,-991.144)">
        <path d="M233.52,765.12L241.44,768.72L233.52,772.32" style="fill:none;fill-rule:nonzero;stroke:black;stroke-width:0.72px;"/>
    </g>
    <g transform="matrix(1.33333,0,0,1.33333,-73.04,-990.504)">
        <path d="M260.4,768.48L270.96,768.48" style="fill:none;fill-rule:nonzero;stroke:black;stroke-width:0.72px;"/>
    </g>
    <g transform="matrix(0,-1.33333,-1.33333,0,1457.16,532.656)">
        <path d="M366.57,771.12L386.49,771.12" style="fill:none;fill-rule:nonzero;stroke:black;stroke-width:0.72px;"/>
    </g>
    <g transform="matrix(1.15468,0.666702,0.666702,-1.15468,-531.38,673.06)">
        <path d="M357.946,786.06L377.864,786.06" style="fill:none;fill-rule:nonzero;stroke:black;stroke-width:0.72px;"/>
    </g>
    <g transform="matrix(1.15462,-0.666805,-0.666805,-1.15462,498.286,1170.31)">
        <path d="M363.116,757.565L377.494,757.565" style="fill:none;fill-rule:nonzero;stroke:black;stroke-width:0.72px;"/>
    </g>
    <g transform="matrix(1.15468,-0.666702,-0.666702,-1.15468,513.674,1152.13)">
        <path d="M340.696,786.06L360.614,786.06" style="fill:none;fill-rule:nonzero;stroke:black;stroke-width:0.72px;"/>
    </g>
    <g transform="matrix(1.15468,0.666706,0.666706,-1.15468,-515.964,691.316)">
        <path d="M341.085,757.635L355.185,757.635" style="fill:none;fill-rule:nonzero;stroke:black;stroke-width:0.72px;"/>
    </g>
    <g transform="matrix(0,-1.33333,-1.33333,0,1411.16,486.656)">
        <path d="M332.07,771.12L351.99,771.12" style="fill:none;fill-rule:nonzero;stroke:black;stroke-width:0.72px;"/>
    </g>
    <g transform="matrix(-1.15475,0.666584,0.666584,1.15475,257.173,-1049.64)">
        <path d="M328.294,757.48L343.016,757.48" style="fill:none;fill-rule:nonzero;stroke:black;stroke-width:0.72px;"/>
    </g>
    <g transform="matrix(1.15466,0.666729,0.666729,-1.15466,-508.742,668.862)">
        <path d="M374.676,755.925L389.814,755.925" style="fill:none;fill-rule:nonzero;stroke:black;stroke-width:0.72px;"/>
    </g>
    <g transform="matrix(1.1551,0.665976,0.665976,-1.1551,-510.447,668.314)">
        <path d="M376.488,759.315L389.682,759.315" style="fill:none;fill-rule:nonzero;stroke:black;stroke-width:0.72px;"/>
    </g>
    <g transform="matrix(1.33333,0,0,1.33333,-73.04,-988.584)">
        <path d="M414.24,767.76L448.32,767.76" style="fill:none;fill-rule:nonzero;stroke:black;stroke-width:0.72px;"/>
    </g>
    <g transform="matrix(1.33333,0,0,1.33333,-73.04,-996.264)">
        <path d="M414.24,770.64L448.32,770.64" style="fill:none;fill-rule:nonzero;stroke:black;stroke-width:0.72px;"/>
    </g>
    <g transform="matrix(1.33333,0,0,1.33333,-73.04,-992.424)">
        <path d="M443.76,765.6L451.68,769.2L443.76,772.8" style="fill:none;fill-rule:nonzero;stroke:black;stroke-width:0.72px;"/>
    </g>
    <g transform="matrix(1.07337,-0.790978,-0.790978,-1.07337,665.276,1264.26)">
        <path d="M501.368,765.37L521.292,765.37" style="fill:none;fill-rule:nonzero;stroke:black;stroke-width:0.72px;"/>
    </g>
    <g transform="matrix(0.421035,1.26511,1.26511,-0.421035,-589.817,-306.54)">
        <path d="M506.245,780.73L526.165,780.73" style="fill:none;fill-rule:nonzero;stroke:black;stroke-width:0.72px;"/>
    </g>
    <g transform="matrix(1.08385,0.776567,0.776567,-1.08385,-543.765,483.286)">
        <path d="M485.257,765.26L505.173,765.26" style="fill:none;fill-rule:nonzero;stroke:black;stroke-width:0.72px;"/>
    </g>
    <g transform="matrix(1.3333,-0.00870129,-0.00870129,-1.3333,-66.1507,1063.13)">
        <path d="M493.14,790.115L513.06,790.115" style="fill:none;fill-rule:nonzero;stroke:black;stroke-width:0.72px;"/>
    </g>
    <g transform="matrix(-0.402918,1.271,1.271,0.402918,-214.135,-919.418)">
        <path d="M480.169,780.555L500.091,780.555" style="fill:none;fill-rule:nonzero;stroke:black;stroke-width:0.72px;"/>
    </g>
    <g transform="matrix(0.00905161,1.3333,1.3333,-0.00905161,-411.431,-606.088)">
        <path d="M494.315,752.085L509.045,752.085" style="fill:none;fill-rule:nonzero;stroke:black;stroke-width:0.72px;"/>
    </g>
    <g transform="matrix(0.00903934,1.3333,1.3333,-0.00903934,-406.989,-610.59)">
        <path d="M497.665,752.095L512.415,752.095" style="fill:none;fill-rule:nonzero;stroke:black;stroke-width:0.72px;"/>
    </g>
    <g transform="matrix(-1.26526,0.420594,0.420594,1.26526,850.583,-1140.42)">
        <path d="M472.168,768.64L487.512,768.64" style="fill:none;fill-rule:nonzero;stroke:black;stroke-width:0.72px;"/>
    </g>
    <g transform="matrix(1.33333,0,0,1.33333,-73.04,-963.944)">
        <path d="M492.72,757.68L492.24,759.12L491.28,760.56L490.32,761.76L489.12,762.72L486.24,764.16L484.56,764.4L482.64,764.4L481.68,764.16L480.48,763.68L478.56,762.72L477.6,762L476.88,761.28L476.16,760.32L475.68,759.6L475.2,758.4L474.96,757.44L474.72,756.24L474.72,755.28L474.96,752.64" style="fill:none;fill-rule:nonzero;stroke:black;stroke-width:0.48px;"/>
    </g>
    <g transform="matrix(0.386677,-1.27603,-1.27603,-0.386677,1354.59,968.723)">
        <path d="M486.189,753.792L494.465,753.792L487.052,757.565L488.208,755.407L486.189,753.792Z" style="stroke:black;stroke-width:0.48px;"/>
    </g>
    <g transform="matrix(1.33333,0,0,1.33333,-73.04,-933.544)">
        <path d="M508.8,738.24L510,738.24L510.96,738.48L512.16,738.96L514.08,739.92L515.52,741.36L516.24,742.32L517.2,744.24L517.68,746.64L517.68,748.32L517.44,749.28L516.96,750.48L516,752.4L514.56,753.84L513.6,754.56L511.68,755.52L509.28,756L508.8,756" style="fill:none;fill-rule:nonzero;stroke:black;stroke-width:0.48px;"/>
    </g>
    <g transform="matrix(-1.33103,0.078296,0.078296,1.33103,1235.49,-954.077)">
        <path d="M508.906,742.317L517.08,742.317L509.639,738.427L510.738,740.766L508.906,742.317Z" style="stroke:black;stroke-width:0.48px;"/>
    </g>
    <g transform="matrix(0,1.33333,1.33333,0,-345.84,-540.744)">
        <path d="M481.32,702.12L513.72,702.12" style="fill:none;fill-rule:nonzero;stroke:black;stroke-width:0.72px;"/>
    </g>
    <g transform="matrix(0,1.33333,1.33333,0,-342,-544.584)">
        <path d="M484.2,702.12L516.6,702.12" style="fill:none;fill-rule:nonzero;stroke:black;stroke-width:0.72px;"/>
    </g>
    <g transform="matrix(1.33333,0,0,1.33333,-73.04,-771.944)">
        <path d="M502.56,682.56L498.96,690.48L495.36,682.56" style="fill:none;fill-rule:nonzero;stroke:black;stroke-width:0.72px;"/>
    </g>
    <g transform="matrix(1.07425,-0.78979,-0.78979,-1.07425,549.747,1252.5)">
        <path d="M445.035,639.29L464.955,639.29" style="fill:none;fill-rule:nonzero;stroke:black;stroke-width:0.72px;"/>
    </g>
    <g transform="matrix(1.07424,-0.789803,-0.789803,-1.07424,551.38,1250.22)">
        <path d="M445.552,641.995L460.458,641.995" style="fill:none;fill-rule:nonzero;stroke:black;stroke-width:0.72px;"/>
    </g>
    <g transform="matrix(0.419026,1.26578,1.26578,-0.419026,-481.195,-121.89)">
        <path d="M449.93,654.645L469.85,654.645" style="fill:none;fill-rule:nonzero;stroke:black;stroke-width:0.72px;"/>
    </g>
    <g transform="matrix(1.08298,0.777768,0.777768,-1.08298,-460.316,557.406)">
        <path d="M428.92,639.2L448.84,639.2" style="fill:none;fill-rule:nonzero;stroke:black;stroke-width:0.72px;"/>
    </g>
    <g transform="matrix(1.33331,-0.00736267,-0.00736267,-1.33331,-68.1418,1062.05)">
        <path d="M436.84,664.045L456.76,664.045" style="fill:none;fill-rule:nonzero;stroke:black;stroke-width:0.72px;"/>
    </g>
    <g transform="matrix(-0.404935,1.27036,1.27036,0.404935,-150.402,-630.02)">
        <path d="M423.855,654.5L443.775,654.5" style="fill:none;fill-rule:nonzero;stroke:black;stroke-width:0.72px;"/>
    </g>
    <g transform="matrix(0.00727097,1.33331,1.33331,-0.00727097,-315.004,-367.417)">
        <path d="M439.675,626.055L454.345,626.055" style="fill:none;fill-rule:nonzero;stroke:black;stroke-width:0.72px;"/>
    </g>
    <g transform="matrix(1.06223,-0.805878,-0.805878,-1.06223,592.827,1331.77)">
        <path d="M544.055,639.89L563.975,639.89" style="fill:none;fill-rule:nonzero;stroke:black;stroke-width:0.72px;"/>
    </g>
    <g transform="matrix(0.437872,1.25938,1.25938,-0.437872,-398.056,-231.626)">
        <path d="M548.723,655.315L568.637,655.315" style="fill:none;fill-rule:nonzero;stroke:black;stroke-width:0.72px;"/>
    </g>
    <g transform="matrix(1.09439,0.761636,0.761636,-1.09439,-429.888,494.927)">
        <path d="M532.947,637.99L547.373,637.99" style="fill:none;fill-rule:nonzero;stroke:black;stroke-width:0.72px;"/>
    </g>
    <g transform="matrix(1.33305,-0.0274373,-0.0274373,-1.33305,-54.6535,1073.55)">
        <path d="M535.488,664.515L555.412,664.515" style="fill:none;fill-rule:nonzero;stroke:black;stroke-width:0.72px;"/>
    </g>
    <g transform="matrix(-0.385638,1.27635,1.27635,0.385638,2.91923,-757.291)">
        <path d="M529.517,659.875L538.783,659.875" style="fill:none;fill-rule:nonzero;stroke:black;stroke-width:0.72px;"/>
    </g>
    <g transform="matrix(0.0273167,1.33305,1.33305,-0.0273167,-197.033,-485.384)">
        <path d="M537.228,626.52L551.872,626.52" style="fill:none;fill-rule:nonzero;stroke:black;stroke-width:0.72px;"/>
    </g>
    <g transform="matrix(0.0271867,1.33306,1.33306,-0.0271867,-192.622,-489.992)">
        <path d="M540.553,626.555L555.267,626.555" style="fill:none;fill-rule:nonzero;stroke:black;stroke-width:0.72px;"/>
    </g>
    <g transform="matrix(1.33333,0,0,1.33333,-73.04,-664.744)">
        <path d="M476.16,646.32L510.24,646.32" style="fill:none;fill-rule:nonzero;stroke:black;stroke-width:0.72px;"/>
    </g>
    <g transform="matrix(1.2958,0.314133,0.314133,-1.2958,-257.068,875.478)">
        <path d="M501.979,647.253L510.129,647.253L502.884,643.521L503.831,645.726L501.979,647.253Z" style="stroke:black;stroke-width:0.72px;"/>
    </g>
    <g transform="matrix(-1.2958,0.314133,0.314133,1.2958,986.229,-791.308)">
        <path d="M475.819,645.387L483.969,645.387L476.724,649.119L477.671,646.914L475.819,645.387Z" style="stroke:black;stroke-width:0.72px;"/>
    </g>
    <g transform="matrix(1.33333,0,0,1.33333,-73.04,-642.664)">
        <path d="M422.88,606.96L430.08,606.96L430.08,607.44L424.32,607.44L424.32,668.64L430.08,668.64L430.08,669.12L422.88,669.12L422.88,606.96Z" style="stroke:black;stroke-width:0.02px;"/>
    </g>
    <g transform="matrix(1.33333,0,0,1.33333,-73.04,-642.664)">
        <path d="M575.76,606.96L568.56,606.96L568.56,607.44L574.32,607.44L574.32,668.64L568.56,668.64L568.56,669.12L575.76,669.12L575.76,606.96Z" style="stroke:black;stroke-width:0.02px;"/>
    </g>
</svg>
