<?xml version="1.0" encoding="UTF-8" standalone="no"?>
<!DOCTYPE svg PUBLIC "-//W3C//DTD SVG 1.1//EN" "http://www.w3.org/Graphics/SVG/1.1/DTD/svg11.dtd">
<svg width="100%" height="100%" viewBox="0 0 750 295" version="1.1" xmlns="http://www.w3.org/2000/svg" xmlns:xlink="http://www.w3.org/1999/xlink" xml:space="preserve" xmlns:serif="http://www.serif.com/" style="fill-rule:evenodd;clip-rule:evenodd;stroke-linecap:round;stroke-linejoin:round;stroke-miterlimit:10;">
    <g transform="matrix(1.33333,0,0,1.33333,-66.1546,-48.4974)">
        <text x="88.08px" y="93.36px" style="font-family:'ArialMT', 'Arial', sans-serif;font-size:10px;">CH</text>
        <text x="102.48px" y="96px" style="font-family:'ArialMT', 'Arial', sans-serif;font-size:8px;">3</text>
    </g>
    <g transform="matrix(1.33333,0,0,1.33333,-66.1546,-48.4974)">
        <text x="53.52px" y="113.04px" style="font-family:'ArialMT', 'Arial', sans-serif;font-size:10px;">CH</text>
        <text x="67.92px" y="115.68px" style="font-family:'ArialMT', 'Arial', sans-serif;font-size:8px;">2</text>
    </g>
    <g transform="matrix(1.33333,0,0,1.33333,-66.1546,-48.4974)">
        <text x="70.56px" y="63.36px" style="font-family:'ArialMT', 'Arial', sans-serif;font-size:10px;">O</text>
    </g>
    <g transform="matrix(1.33333,0,0,1.33333,-66.1546,-48.4974)">
        <text x="266.64px" y="102.72px" style="font-family:'ArialMT', 'Arial', sans-serif;font-size:10px;">CH</text>
        <text x="281.04px" y="105.36px" style="font-family:'ArialMT', 'Arial', sans-serif;font-size:8px;">3</text>
    </g>
    <g transform="matrix(1.33333,0,0,1.33333,-66.1546,-48.4974)">
        <text x="266.4px" y="72.96px" style="font-family:'ArialMT', 'Arial', sans-serif;font-size:10px;">O</text>
    </g>
    <g transform="matrix(1.33333,0,0,1.33333,-66.1546,-48.4974)">
        <text x="360.48px" y="98.4px" style="font-family:'ArialMT', 'Arial', sans-serif;font-size:10px;">NaH</text>
    </g>
    <g transform="matrix(1.33333,0,0,1.33333,-66.1546,-48.4974)">
        <text x="349.92px" y="77.04px" style="font-family:'ArialMT', 'Arial', sans-serif;font-size:10px;">O</text>
    </g>
    <g transform="matrix(1.33333,0,0,1.33333,-66.1546,-48.4974)">
        <text x="384.48px" y="77.28px" style="font-family:'ArialMT', 'Arial', sans-serif;font-size:10px;">O</text>
    </g>
    <g transform="matrix(1.33333,0,0,1.33333,-66.1546,-48.4974)">
        <text x="367.44px" y="47.28px" style="font-family:'ArialMT', 'Arial', sans-serif;font-size:10px;">O</text>
    </g>
    <g transform="matrix(1.33333,0,0,1.33333,-66.1546,-48.4974)">
        <text x="315.6px" y="76.56px" style="font-family:'ArialMT', 'Arial', sans-serif;font-size:10px;">C</text>
    </g>
    <g transform="matrix(1.33333,0,0,1.33333,-66.1546,-48.4974)">
        <text x="304.08px" y="76.56px" style="font-family:'ArialMT', 'Arial', sans-serif;font-size:10px;">H</text>
        <text x="311.28px" y="79.2px" style="font-family:'ArialMT', 'Arial', sans-serif;font-size:8px;">3</text>
    </g>
    <g transform="matrix(1.33333,0,0,1.33333,-66.1546,-48.4974)">
        <text x="419.04px" y="77.52px" style="font-family:'ArialMT', 'Arial', sans-serif;font-size:10px;">CH</text>
        <text x="433.44px" y="80.16px" style="font-family:'ArialMT', 'Arial', sans-serif;font-size:8px;">3</text>
    </g>
    <g transform="matrix(1.33333,0,0,1.33333,-66.1546,-48.4974)">
        <text x="526.8px" y="73.92px" style="font-family:'ArialMT', 'Arial', sans-serif;font-size:10px;">O</text>
    </g>
    <g transform="matrix(1.33333,0,0,1.33333,-66.1546,-48.4974)">
        <text x="552.72px" y="118.8px" style="font-family:'ArialMT', 'Arial', sans-serif;font-size:10px;">O</text>
    </g>
    <g transform="matrix(1.33333,0,0,1.33333,-66.1546,-48.4974)">
        <text x="578.88px" y="133.68px" style="font-family:'ArialMT', 'Arial', sans-serif;font-size:10px;">CH</text>
        <text x="593.28px" y="136.32px" style="font-family:'ArialMT', 'Arial', sans-serif;font-size:8px;">3</text>
    </g>
    <g transform="matrix(1.33333,0,0,1.33333,-66.1546,-48.4974)">
        <text x="552.72px" y="88.8px" style="font-family:'ArialMT', 'Arial', sans-serif;font-size:10px;">O</text>
    </g>
    <g transform="matrix(1.33333,0,0,1.33333,-66.1546,-48.4974)">
        <text x="510px" y="146.16px" style="font-family:'ArialMT', 'Arial', sans-serif;font-size:10px;">t</text>
        <text x="512.88px" y="141.12px" style="font-family:'ArialMT', 'Arial', sans-serif;font-size:6px;">o</text>
    </g>
    <g transform="matrix(1.33333,0,0,1.33333,-66.1546,-48.4974)">
        <text x="466.8px" y="233.28px" style="font-family:'ArialMT', 'Arial', sans-serif;font-size:10px;">CH</text>
        <text x="481.2px" y="235.92px" style="font-family:'ArialMT', 'Arial', sans-serif;font-size:8px;">2</text>
    </g>
    <g transform="matrix(1.33333,0,0,1.33333,-66.1546,-48.4974)">
        <text x="483.84px" y="183.36px" style="font-family:'ArialMT', 'Arial', sans-serif;font-size:10px;">O</text>
    </g>
    <g transform="matrix(1.33333,0,0,1.33333,-66.1546,-48.4974)">
        <text x="535.68px" y="213.12px" style="font-family:'ArialMT', 'Arial', sans-serif;font-size:10px;">O</text>
    </g>
    <g transform="matrix(1.33333,0,0,1.33333,-66.1546,-48.4974)">
        <text x="518.4px" y="183.36px" style="font-family:'ArialMT', 'Arial', sans-serif;font-size:10px;">O</text>
    </g>
    <g transform="matrix(1.33333,0,0,1.33333,-66.1546,-48.4974)">
        <text x="570.24px" y="213.12px" style="font-family:'ArialMT', 'Arial', sans-serif;font-size:10px;">CH</text>
        <text x="584.64px" y="215.76px" style="font-family:'ArialMT', 'Arial', sans-serif;font-size:8px;">3</text>
        <text x="445.68px" y="216.96px" style="font-family:'ArialMT', 'Arial', sans-serif;font-size:18px;">+</text>
    </g>
    <g transform="matrix(1.33333,0,0,1.33333,-66.1546,-48.4974)">
        <text x="521.28px" y="251.76px" style="font-family:'ArialMT', 'Arial', sans-serif;font-size:10px;">I</text>
    </g>
    <g transform="matrix(1.15679,-0.663031,-0.663031,-1.15679,447.837,983.95)">
        <path d="M55.871,757.685L75.799,757.685" style="fill:none;fill-rule:nonzero;stroke:black;stroke-width:0.72px;"/>
    </g>
    <g transform="matrix(1.15263,0.67024,0.67024,-1.15263,-560.242,882.76)">
        <path d="M73.489,758.965L88.111,758.965" style="fill:none;fill-rule:nonzero;stroke:black;stroke-width:0.72px;"/>
    </g>
    <g transform="matrix(-0.00362072,1.33333,1.33333,0.00362072,-983.537,1.31749)">
        <path d="M49.805,745.365L64.535,745.365" style="fill:none;fill-rule:nonzero;stroke:black;stroke-width:0.72px;"/>
    </g>
    <g transform="matrix(-0.0040837,1.33333,1.33333,0.0040837,-977.903,-2.39076)">
        <path d="M54,744.53L67.06,744.53" style="fill:none;fill-rule:nonzero;stroke:black;stroke-width:0.72px;"/>
    </g>
    <g transform="matrix(0.00362318,-1.33333,-1.33333,-0.00362318,1061.81,151.759)">
        <path d="M68.82,770L83.54,770" style="fill:none;fill-rule:nonzero;stroke:black;stroke-width:0.72px;"/>
    </g>
    <g transform="matrix(0.00362564,-1.33333,-1.33333,-0.00362564,1057.34,147.274)">
        <path d="M65.465,770.005L80.175,770.005" style="fill:none;fill-rule:nonzero;stroke:black;stroke-width:0.72px;"/>
    </g>
    <g transform="matrix(1.33333,0,0,1.33333,-66.1546,-943.857)">
        <path d="M119.28,756.72L197.76,756.72" style="fill:none;fill-rule:nonzero;stroke:black;stroke-width:0.72px;"/>
    </g>
    <g transform="matrix(1.2958,0.314133,0.314133,-1.2958,-296.592,984.781)">
        <path d="M189.499,757.653L197.649,757.653L190.404,753.921L191.351,756.126L189.499,757.653Z" style="stroke:black;stroke-width:0.72px;"/>
    </g>
    <g transform="matrix(1.07962,-0.782437,-0.782437,-1.07962,576.889,1009.47)">
        <path d="M156.485,767.875L176.405,767.875" style="fill:none;fill-rule:nonzero;stroke:black;stroke-width:0.72px;"/>
    </g>
    <g transform="matrix(0.410374,1.26861,1.26861,-0.410374,-901.487,133.708)">
        <path d="M161.487,783.195L181.403,783.195" style="fill:none;fill-rule:nonzero;stroke:black;stroke-width:0.72px;"/>
    </g>
    <g transform="matrix(0.410618,1.26853,1.26853,-0.410618,-903.097,138.915)">
        <path d="M160.803,782.16L175.707,782.16" style="fill:none;fill-rule:nonzero;stroke:black;stroke-width:0.72px;"/>
    </g>
    <g transform="matrix(1.07765,0.785144,0.785144,-1.07765,-630.626,759.693)">
        <path d="M140.37,767.895L160.29,767.895" style="fill:none;fill-rule:nonzero;stroke:black;stroke-width:0.72px;"/>
    </g>
    <g transform="matrix(1.33333,0.00133869,0.00133869,-1.33333,-67.2156,1073.85)">
        <path d="M148.46,792.68L168.38,792.68" style="fill:none;fill-rule:nonzero;stroke:black;stroke-width:0.72px;"/>
    </g>
    <g transform="matrix(-0.413795,1.2675,1.2675,0.413795,-804.911,-478.588)">
        <path d="M135.413,783.225L155.327,783.225" style="fill:none;fill-rule:nonzero;stroke:black;stroke-width:0.72px;"/>
    </g>
    <g transform="matrix(-0.413308,1.26766,1.26766,0.413308,-798.198,-480.47)">
        <path d="M141.118,782.185L156.022,782.185" style="fill:none;fill-rule:nonzero;stroke:black;stroke-width:0.72px;"/>
    </g>
    <g transform="matrix(-0.666831,-1.15461,-1.15461,0.666831,1228.8,-179.91)">
        <path d="M205.522,750.56L222.798,750.56" style="fill:none;fill-rule:nonzero;stroke:black;stroke-width:0.72px;"/>
    </g>
    <g transform="matrix(-0.666655,-1.15471,-1.15471,0.666655,1236.59,-179.746)">
        <path d="M210.09,752.235L224.05,752.235" style="fill:none;fill-rule:nonzero;stroke:black;stroke-width:0.72px;"/>
    </g>
    <g transform="matrix(0.666831,-1.15461,-1.15461,-0.666831,960.457,811.112)">
        <path d="M205.522,765.52L222.798,765.52" style="fill:none;fill-rule:nonzero;stroke:black;stroke-width:0.72px;"/>
    </g>
    <g transform="matrix(1.33333,0,0,1.33333,-66.1546,-987.271)">
        <path d="M218.48,773L235.76,773" style="fill:none;fill-rule:nonzero;stroke:black;stroke-width:0.72px;"/>
    </g>
    <g transform="matrix(0.666831,1.15461,1.15461,-0.666831,-790.014,286.644)">
        <path d="M231.442,765.52L248.718,765.52" style="fill:none;fill-rule:nonzero;stroke:black;stroke-width:0.72px;"/>
    </g>
    <g transform="matrix(-0.666831,1.15461,1.15461,0.666831,-452.556,-704.378)">
        <path d="M231.442,750.56L248.718,750.56" style="fill:none;fill-rule:nonzero;stroke:black;stroke-width:0.72px;"/>
    </g>
    <g transform="matrix(1.33333,0,0,1.33333,-66.1546,-907.484)">
        <path d="M218.48,743.08L235.76,743.08" style="fill:none;fill-rule:nonzero;stroke:black;stroke-width:0.72px;"/>
    </g>
    <g transform="matrix(1.15489,0.666335,0.666335,-1.15489,-537.382,785.679)">
        <path d="M217.145,768.015L237.095,768.015" style="fill:none;fill-rule:nonzero;stroke:black;stroke-width:0.72px;"/>
    </g>
    <g transform="matrix(0,1.33333,1.33333,0,-755.881,-244.357)">
        <path d="M225.785,753.055L245.735,753.055" style="fill:none;fill-rule:nonzero;stroke:black;stroke-width:0.72px;"/>
    </g>
    <g transform="matrix(1.33333,0,0,1.33333,-66.1546,-947.377)">
        <path d="M244.4,758.04L261.68,758.04" style="fill:none;fill-rule:nonzero;stroke:black;stroke-width:0.72px;"/>
    </g>
    <g transform="matrix(0.666502,1.1548,1.1548,-0.666502,-759.557,266.393)">
        <path d="M258.874,753.18L270.096,753.18" style="fill:none;fill-rule:nonzero;stroke:black;stroke-width:0.72px;"/>
    </g>
    <g transform="matrix(0.666928,-1.15455,-1.15455,-0.666928,991.551,873.26)">
        <path d="M260.082,762.48L272.278,762.48" style="fill:none;fill-rule:nonzero;stroke:black;stroke-width:0.72px;"/>
    </g>
    <g transform="matrix(0.667292,-1.15434,-1.15434,-0.667292,990.118,869.005)">
        <path d="M257.615,763.395L268.045,763.395" style="fill:none;fill-rule:nonzero;stroke:black;stroke-width:0.72px;"/>
    </g>
    <g transform="matrix(1.33333,0,0,1.33333,-66.1546,-945.137)">
        <path d="M288.72,757.2L456.96,757.2" style="fill:none;fill-rule:nonzero;stroke:black;stroke-width:0.72px;"/>
    </g>
    <g transform="matrix(1.2958,0.314133,0.314133,-1.2958,-287.014,903.34)">
        <path d="M448.699,758.133L456.849,758.133L449.604,754.401L450.551,756.606L448.699,758.133Z" style="stroke:black;stroke-width:0.72px;"/>
    </g>
    <g transform="matrix(1.16105,-0.655551,-0.655551,-1.16105,504.928,1179.77)">
        <path d="M357.881,775.225L372.099,775.225" style="fill:none;fill-rule:nonzero;stroke:black;stroke-width:0.72px;"/>
    </g>
    <g transform="matrix(1.14838,0.67749,0.67749,-1.14838,-521.473,675.061)">
        <path d="M370.186,775.08L384.514,775.08" style="fill:none;fill-rule:nonzero;stroke:black;stroke-width:0.72px;"/>
    </g>
    <g transform="matrix(0.013577,-1.33326,-1.33326,-0.013577,1474.07,533.856)">
        <path d="M365.57,786.075L380.3,786.075" style="fill:none;fill-rule:nonzero;stroke:black;stroke-width:0.72px;"/>
    </g>
    <g transform="matrix(0.0136047,-1.33326,-1.33326,-0.0136047,1469.65,529.378)">
        <path d="M362.225,786.09L376.925,786.09" style="fill:none;fill-rule:nonzero;stroke:black;stroke-width:0.72px;"/>
    </g>
    <g transform="matrix(-1.14816,-0.677865,-0.677865,1.14816,1310.19,-617.791)">
        <path d="M335.69,775.435L349.95,775.435" style="fill:none;fill-rule:nonzero;stroke:black;stroke-width:0.72px;"/>
    </g>
    <g transform="matrix(-1.16124,0.655217,0.655217,1.16124,249.537,-1076.63)">
        <path d="M322.803,775.415L337.637,775.415" style="fill:none;fill-rule:nonzero;stroke:black;stroke-width:0.72px;"/>
    </g>
    <g transform="matrix(1.16129,-0.655113,-0.655113,-1.16129,510.229,1202.48)">
        <path d="M392.447,774.905L406.593,774.905" style="fill:none;fill-rule:nonzero;stroke:black;stroke-width:0.72px;"/>
    </g>
    <g transform="matrix(1.1482,0.677807,0.677807,-1.1482,-515.011,651.459)">
        <path d="M404.68,774.72L419.08,774.72" style="fill:none;fill-rule:nonzero;stroke:black;stroke-width:0.72px;"/>
    </g>
    <g transform="matrix(-0.666831,-1.15461,-1.15461,0.666831,1748.54,122.669)">
        <path d="M465.922,749.6L483.198,749.6" style="fill:none;fill-rule:nonzero;stroke:black;stroke-width:0.72px;"/>
    </g>
    <g transform="matrix(-0.666655,-1.15471,-1.15471,0.666655,1756.28,122.86)">
        <path d="M470.49,751.275L484.45,751.275" style="fill:none;fill-rule:nonzero;stroke:black;stroke-width:0.72px;"/>
    </g>
    <g transform="matrix(0.666831,-1.15461,-1.15461,-0.666831,1132.91,1112.41)">
        <path d="M465.922,764.56L483.198,764.56" style="fill:none;fill-rule:nonzero;stroke:black;stroke-width:0.72px;"/>
    </g>
    <g transform="matrix(1.33333,0,0,1.33333,-66.1546,-984.711)">
        <path d="M478.88,772.04L496.16,772.04" style="fill:none;fill-rule:nonzero;stroke:black;stroke-width:0.72px;"/>
    </g>
    <g transform="matrix(0.666831,1.15461,1.15461,-0.666831,-615.349,-13.3754)">
        <path d="M491.842,764.56L509.118,764.56" style="fill:none;fill-rule:nonzero;stroke:black;stroke-width:0.72px;"/>
    </g>
    <g transform="matrix(-0.666831,1.15461,1.15461,0.666831,69.3953,-1003.12)">
        <path d="M491.842,749.6L509.118,749.6" style="fill:none;fill-rule:nonzero;stroke:black;stroke-width:0.72px;"/>
    </g>
    <g transform="matrix(1.33333,0,0,1.33333,-66.1546,-904.924)">
        <path d="M478.88,742.12L496.16,742.12" style="fill:none;fill-rule:nonzero;stroke:black;stroke-width:0.72px;"/>
    </g>
    <g transform="matrix(1.15489,0.666335,0.666335,-1.15489,-490.277,612.336)">
        <path d="M477.545,767.055L497.495,767.055" style="fill:none;fill-rule:nonzero;stroke:black;stroke-width:0.72px;"/>
    </g>
    <g transform="matrix(0,1.33333,1.33333,0,-407.401,-590.277)">
        <path d="M486.185,752.095L506.135,752.095" style="fill:none;fill-rule:nonzero;stroke:black;stroke-width:0.72px;"/>
    </g>
    <g transform="matrix(1.33333,0,0,1.33333,-66.1546,-944.817)">
        <path d="M504.8,757.08L522.08,757.08" style="fill:none;fill-rule:nonzero;stroke:black;stroke-width:0.72px;"/>
    </g>
    <g transform="matrix(0.666831,1.15461,1.15461,-0.666831,-580.8,-33.3319)">
        <path d="M517.762,749.6L535.038,749.6" style="fill:none;fill-rule:nonzero;stroke:black;stroke-width:0.72px;"/>
    </g>
    <g transform="matrix(0.666928,-1.15455,-1.15455,-0.666928,1163.97,1174.54)">
        <path d="M520.482,761.52L532.678,761.52" style="fill:none;fill-rule:nonzero;stroke:black;stroke-width:0.72px;"/>
    </g>
    <g transform="matrix(0.667292,-1.15434,-1.15434,-0.667292,1162.45,1170.23)">
        <path d="M518.015,762.435L528.445,762.435" style="fill:none;fill-rule:nonzero;stroke:black;stroke-width:0.72px;"/>
    </g>
    <g transform="matrix(1.33333,0,0,1.33333,-66.1546,-904.924)">
        <path d="M530.72,742.12L548,742.12" style="fill:none;fill-rule:nonzero;stroke:black;stroke-width:0.72px;"/>
    </g>
    <g transform="matrix(0.666297,1.15491,1.15491,-0.666297,-550.097,-53.8479)">
        <path d="M545.147,737.18L556.553,737.18" style="fill:none;fill-rule:nonzero;stroke:black;stroke-width:0.72px;"/>
    </g>
    <g transform="matrix(1.33333,0,0,1.33333,-66.1546,-865.004)">
        <path d="M561.6,727.15L573.92,727.15" style="fill:none;fill-rule:nonzero;stroke:black;stroke-width:0.72px;"/>
    </g>
    <g transform="matrix(0.666467,1.15482,1.15482,-0.666467,-515.614,-73.6194)">
        <path d="M571.093,722.255L582.397,722.255" style="fill:none;fill-rule:nonzero;stroke:black;stroke-width:0.72px;"/>
    </g>
    <g transform="matrix(0.667236,-1.15437,-1.15437,-0.667236,1163.74,1214.57)">
        <path d="M546.38,746.6L558.67,746.6" style="fill:none;fill-rule:nonzero;stroke:black;stroke-width:0.72px;"/>
    </g>
    <g transform="matrix(0.667292,-1.15434,-1.15434,-0.667292,1162.44,1210.12)">
        <path d="M543.935,747.475L554.365,747.475" style="fill:none;fill-rule:nonzero;stroke:black;stroke-width:0.72px;"/>
    </g>
    <g transform="matrix(0,1.33333,1.33333,0,-322.155,-529.137)">
        <path d="M484.08,697.2L526.32,697.2" style="fill:none;fill-rule:nonzero;stroke:black;stroke-width:0.72px;"/>
    </g>
    <g transform="matrix(-0.314133,1.2958,1.2958,0.314133,-115.05,-700.919)">
        <path d="M500.899,680.973L509.049,680.973L501.804,677.241L502.751,679.446L500.899,680.973Z" style="stroke:black;stroke-width:0.72px;"/>
    </g>
    <g transform="matrix(1.15347,-0.668787,-0.668787,-1.15347,446.43,1279.85)">
        <path d="M469.207,637.575L489.123,637.575" style="fill:none;fill-rule:nonzero;stroke:black;stroke-width:0.72px;"/>
    </g>
    <g transform="matrix(1.15617,0.664112,0.664112,-1.15617,-401.653,631.427)">
        <path d="M486.457,637.61L506.373,637.61" style="fill:none;fill-rule:nonzero;stroke:black;stroke-width:0.72px;"/>
    </g>
    <g transform="matrix(0.00269905,1.33333,1.33333,-0.00269905,-273.563,-385.229)">
        <path d="M463.155,625.17L477.975,625.17" style="fill:none;fill-rule:nonzero;stroke:black;stroke-width:0.72px;"/>
    </g>
    <g transform="matrix(0.0030372,1.33333,1.33333,-0.0030372,-268.152,-388.399)">
        <path d="M467.34,624.345L480.51,624.345" style="fill:none;fill-rule:nonzero;stroke:black;stroke-width:0.72px;"/>
    </g>
    <g transform="matrix(-0.00180424,-1.33333,-1.33333,0.00180424,1453.95,858.863)">
        <path d="M482.06,649.97L496.84,649.97" style="fill:none;fill-rule:nonzero;stroke:black;stroke-width:0.72px;"/>
    </g>
    <g transform="matrix(-0.00180302,-1.33333,-1.33333,0.00180302,1449.46,854.39)">
        <path d="M478.695,649.965L493.485,649.965" style="fill:none;fill-rule:nonzero;stroke:black;stroke-width:0.72px;"/>
    </g>
    <g transform="matrix(1.15347,-0.668787,-0.668787,-1.15347,452.682,1302.91)">
        <path d="M503.707,637.645L523.623,637.645" style="fill:none;fill-rule:nonzero;stroke:black;stroke-width:0.72px;"/>
    </g>
    <g transform="matrix(1.156,0.664419,0.664419,-1.156,-397.038,609.587)">
        <path d="M521.326,639.065L535.674,639.065" style="fill:none;fill-rule:nonzero;stroke:black;stroke-width:0.72px;"/>
    </g>
    <g transform="matrix(-0.00181159,-1.33333,-1.33333,0.00181159,1500.06,904.818)">
        <path d="M516.59,650L531.31,650" style="fill:none;fill-rule:nonzero;stroke:black;stroke-width:0.72px;"/>
    </g>
    <g transform="matrix(-0.00181036,-1.33333,-1.33333,0.00181036,1495.57,900.345)">
        <path d="M513.225,649.995L527.955,649.995" style="fill:none;fill-rule:nonzero;stroke:black;stroke-width:0.72px;"/>
    </g>
    <g transform="matrix(1.15351,-0.668717,-0.668717,-1.15351,460.282,1327.38)">
        <path d="M543.607,639.155L557.743,639.155" style="fill:none;fill-rule:nonzero;stroke:black;stroke-width:0.72px;"/>
    </g>
    <g transform="matrix(1.15595,0.664506,0.664506,-1.15595,-390.971,586.552)">
        <path d="M555.832,639.11L570.238,639.11" style="fill:none;fill-rule:nonzero;stroke:black;stroke-width:0.72px;"/>
    </g>
    <g transform="matrix(-1.07962,0.782437,0.782437,1.07962,410.588,-796.062)">
        <path d="M396.225,643.325L416.145,643.325" style="fill:none;fill-rule:nonzero;stroke:black;stroke-width:0.72px;"/>
    </g>
    <g transform="matrix(-0.410979,-1.26841,-1.26841,0.410979,1430.22,487.5)">
        <path d="M391.23,628.005L411.15,628.005" style="fill:none;fill-rule:nonzero;stroke:black;stroke-width:0.72px;"/>
    </g>
    <g transform="matrix(-0.411427,-1.26827,-1.26827,0.411427,1437.2,489.414)">
        <path d="M396.936,629.04L411.844,629.04" style="fill:none;fill-rule:nonzero;stroke:black;stroke-width:0.72px;"/>
    </g>
    <g transform="matrix(-1.0782,-0.784388,-0.784388,1.0782,1456.85,-146.049)">
        <path d="M412.344,643.31L432.266,643.31" style="fill:none;fill-rule:nonzero;stroke:black;stroke-width:0.72px;"/>
    </g>
    <g transform="matrix(-1.33333,-0.00133802,-0.00133802,1.33333,1039.27,-574.769)">
        <path d="M404.26,618.52L424.19,618.52" style="fill:none;fill-rule:nonzero;stroke:black;stroke-width:0.72px;"/>
    </g>
    <g transform="matrix(0.412993,-1.26776,-1.26776,-0.412993,1123.21,1037.79)">
        <path d="M417.315,627.98L437.235,627.98" style="fill:none;fill-rule:nonzero;stroke:black;stroke-width:0.72px;"/>
    </g>
    <g transform="matrix(0.412499,-1.26792,-1.26792,-0.412499,1121.89,1032.54)">
        <path d="M416.624,629.015L431.526,629.015" style="fill:none;fill-rule:nonzero;stroke:black;stroke-width:0.72px;"/>
    </g>
</svg>
