<?xml version="1.0" encoding="UTF-8" standalone="no"?>
<!DOCTYPE svg PUBLIC "-//W3C//DTD SVG 1.1//EN" "http://www.w3.org/Graphics/SVG/1.1/DTD/svg11.dtd">
<svg width="100%" height="100%" viewBox="0 0 520 130" version="1.1" xmlns="http://www.w3.org/2000/svg" xmlns:xlink="http://www.w3.org/1999/xlink" xml:space="preserve" xmlns:serif="http://www.serif.com/" style="fill-rule:evenodd;clip-rule:evenodd;stroke-linecap:round;stroke-linejoin:round;stroke-miterlimit:10;">
    <g transform="matrix(1.33333,0,0,1.33333,-43.3611,-77.0774)">
        <text x="99.36px" y="100.08px" style="font-family:'ArialMT', 'Arial', sans-serif;font-size:10px;">O</text>
    </g>
    <g transform="matrix(1.33333,0,0,1.33333,-43.3611,-77.0774)">
        <text x="82.08px" y="70.32px" style="font-family:'ArialMT', 'Arial', sans-serif;font-size:10px;">O</text>
    </g>
    <g transform="matrix(1.33333,0,0,1.33333,-43.3611,-77.0774)">
        <text x="48px" y="90.24px" style="font-family:'ArialMT', 'Arial', sans-serif;font-size:10px;">C</text>
    </g>
    <g transform="matrix(1.33333,0,0,1.33333,-43.3611,-77.0774)">
        <text x="36.48px" y="90.24px" style="font-family:'ArialMT', 'Arial', sans-serif;font-size:10px;">H</text>
        <text x="43.68px" y="92.88px" style="font-family:'ArialMT', 'Arial', sans-serif;font-size:8px;">3</text>
    </g>
    <g transform="matrix(1.33333,0,0,1.33333,-43.3611,-77.0774)">
        <text x="116.88px" y="90px" style="font-family:'ArialMT', 'Arial', sans-serif;font-size:10px;">H</text>
        <text x="116.88px" y="130.08px" style="font-family:'ArialMT', 'Arial', sans-serif;font-size:10px;">CH</text>
        <text x="131.28px" y="132.72px" style="font-family:'ArialMT', 'Arial', sans-serif;font-size:8px;">2</text>
    </g>
    <g transform="matrix(1.33333,0,0,1.33333,-43.3611,-77.0774)">
        <text x="134.16px" y="120px" style="font-family:'ArialMT', 'Arial', sans-serif;font-size:10px;">CH</text>
        <text x="148.56px" y="122.64px" style="font-family:'ArialMT', 'Arial', sans-serif;font-size:8px;">3</text>
    </g>
    <g transform="matrix(1.33333,0,0,1.33333,-43.3611,-77.0774)">
        <text x="285.36px" y="99.12px" style="font-family:'ArialMT', 'Arial', sans-serif;font-size:10px;">O</text>
    </g>
    <g transform="matrix(1.33333,0,0,1.33333,-43.3611,-77.0774)">
        <text x="234px" y="89.28px" style="font-family:'ArialMT', 'Arial', sans-serif;font-size:10px;">C</text>
    </g>
    <g transform="matrix(1.33333,0,0,1.33333,-43.3611,-77.0774)">
        <text x="222.48px" y="89.28px" style="font-family:'ArialMT', 'Arial', sans-serif;font-size:10px;">H</text>
        <text x="229.68px" y="91.92px" style="font-family:'ArialMT', 'Arial', sans-serif;font-size:8px;">3</text>
    </g>
    <g transform="matrix(1.33333,0,0,1.33333,-43.3611,-77.0774)">
        <text x="268.08px" y="69.12px" style="font-family:'ArialMT', 'Arial', sans-serif;font-size:10px;">O</text>
    </g>
    <g transform="matrix(1.33333,0,0,1.33333,-43.3611,-77.0774)">
        <text x="302.88px" y="89.04px" style="font-family:'ArialMT', 'Arial', sans-serif;font-size:10px;">H</text>
        <text x="302.64px" y="129.12px" style="font-family:'ArialMT', 'Arial', sans-serif;font-size:10px;">O<tspan x="310.56px " y="129.12px ">H</tspan></text>
    </g>
    <g transform="matrix(1.33333,0,0,1.33333,-43.3611,-77.0774)">
        <text x="320.16px" y="119.04px" style="font-family:'ArialMT', 'Arial', sans-serif;font-size:10px;">CH</text>
        <text x="334.56px" y="121.68px" style="font-family:'ArialMT', 'Arial', sans-serif;font-size:8px;">3</text>
    </g>
    <g transform="matrix(1.33333,0,0,1.33333,-43.3611,-77.0774)">
        <text x="302.64px" y="149.04px" style="font-family:'ArialMT', 'Arial', sans-serif;font-size:10px;">O<tspan x="310.56px " y="149.04px ">H</tspan></text>
    </g>
    <g transform="matrix(1.33333,0,0,1.33333,-43.3611,-77.0774)">
        <text x="352.32px" y="94.08px" style="font-family:'ArialMT', 'Arial', sans-serif;font-size:10px;">H</text>
        <text x="359.52px" y="89.04px" style="font-family:'ArialMT', 'Arial', sans-serif;font-size:6px;">+</text>
    </g>
    <g transform="matrix(1.33333,0,0,1.33333,-43.3611,-77.0774)">
        <text x="393.36px" y="99.6px" style="font-family:'ArialMT', 'Arial', sans-serif;font-size:10px;">T<tspan x="399.6px " y="99.6px ">M</tspan></text>
    </g>
    <g transform="matrix(1.33333,0,0,1.33333,-43.3611,-77.0774)">
        <text x="166.32px" y="91.44px" style="font-family:'ArialMT', 'Arial', sans-serif;font-size:10px;">O</text>
        <text x="174.24px" y="91.44px" style="font-family:'ArialMT', 'Arial', sans-serif;font-size:10px;">s</text>
        <text x="179.04px" y="91.44px" style="font-family:'ArialMT', 'Arial', sans-serif;font-size:10px;">O</text>
        <text x="186.96px" y="94.08px" style="font-family:'ArialMT', 'Arial', sans-serif;font-size:6px;">4</text>
    </g>
    <g transform="matrix(1.15457,0.666895,0.666895,-1.15457,-528.52,849.47)">
        <path d="M85.212,752.225L99.348,752.225" style="fill:none;fill-rule:nonzero;stroke:black;stroke-width:0.72px;"/>
    </g>
    <g transform="matrix(1.15468,-0.666702,-0.666702,-1.15468,454.198,979.885)">
        <path d="M84.826,720.9L104.744,720.9" style="fill:none;fill-rule:nonzero;stroke:black;stroke-width:0.72px;"/>
    </g>
    <g transform="matrix(1.15468,-0.666702,-0.666702,-1.15468,471.037,963.046)">
        <path d="M67.576,750.78L87.494,750.78" style="fill:none;fill-rule:nonzero;stroke:black;stroke-width:0.72px;"/>
    </g>
    <g transform="matrix(1.15468,0.666702,0.666702,-1.15468,-510.135,864.999)">
        <path d="M67.576,720.9L87.494,720.9" style="fill:none;fill-rule:nonzero;stroke:black;stroke-width:0.72px;"/>
    </g>
    <g transform="matrix(0,-1.33333,-1.33333,0,1029.64,156.243)">
        <path d="M58.95,735.84L78.87,735.84" style="fill:none;fill-rule:nonzero;stroke:black;stroke-width:0.72px;"/>
    </g>
    <g transform="matrix(0,-1.33333,-1.33333,0,1091.2,145.163)">
        <path d="M80.52,763.08L95.16,763.08" style="fill:none;fill-rule:nonzero;stroke:black;stroke-width:0.72px;"/>
    </g>
    <g transform="matrix(0,-1.33333,-1.33333,0,1086.72,140.683)">
        <path d="M77.16,763.08L91.8,763.08" style="fill:none;fill-rule:nonzero;stroke:black;stroke-width:0.72px;"/>
    </g>
    <g transform="matrix(-1.15475,-0.666584,-0.666584,1.15475,611.822,-777.6)">
        <path d="M55.174,749.48L69.896,749.48" style="fill:none;fill-rule:nonzero;stroke:black;stroke-width:0.72px;"/>
    </g>
    <g transform="matrix(1.15496,-0.66621,-0.66621,-1.15496,476.824,986.231)">
        <path d="M107.647,750.805L116.513,750.805" style="fill:none;fill-rule:nonzero;stroke:black;stroke-width:0.72px;"/>
    </g>
    <g transform="matrix(1.15461,0.666821,0.666821,-1.15461,-504.331,843.853)">
        <path d="M101.537,720.575L116.953,720.575" style="fill:none;fill-rule:nonzero;stroke:black;stroke-width:0.72px;"/>
    </g>
    <g transform="matrix(1.15503,0.666097,0.666097,-1.15503,-505.963,843.07)">
        <path d="M103.349,723.965L116.821,723.965" style="fill:none;fill-rule:nonzero;stroke:black;stroke-width:0.72px;"/>
    </g>
    <g transform="matrix(1.15468,-0.666702,-0.666702,-1.15468,463.92,989.606)">
        <path d="M102.076,730.86L121.994,730.86" style="fill:none;fill-rule:nonzero;stroke:black;stroke-width:0.72px;"/>
    </g>
    <g transform="matrix(1.1547,0.666669,0.666669,-1.1547,-508.835,830.063)">
        <path d="M119.69,732.22L134.17,732.22" style="fill:none;fill-rule:nonzero;stroke:black;stroke-width:0.72px;"/>
    </g>
    <g transform="matrix(1.33333,0,0,1.33333,-43.3611,-942.997)">
        <path d="M146.88,745.68L209.28,745.68" style="fill:none;fill-rule:nonzero;stroke:black;stroke-width:0.72px;"/>
    </g>
    <g transform="matrix(1.2958,0.314133,0.314133,-1.2958,-269.898,952.997)">
        <path d="M201.019,746.613L209.169,746.613L201.924,742.881L202.871,745.086L201.019,746.613Z" style="stroke:black;stroke-width:0.72px;"/>
    </g>
    <g transform="matrix(1.15457,0.666895,0.666895,-1.15457,-495.91,725.256)">
        <path d="M271.212,753.185L285.348,753.185" style="fill:none;fill-rule:nonzero;stroke:black;stroke-width:0.72px;"/>
    </g>
    <g transform="matrix(1.15468,-0.666702,-0.666702,-1.15468,488.068,1103.72)">
        <path d="M270.826,721.86L290.744,721.86" style="fill:none;fill-rule:nonzero;stroke:black;stroke-width:0.72px;"/>
    </g>
    <g transform="matrix(1.15468,-0.666702,-0.666702,-1.15468,504.907,1086.88)">
        <path d="M253.576,751.74L273.494,751.74" style="fill:none;fill-rule:nonzero;stroke:black;stroke-width:0.72px;"/>
    </g>
    <g transform="matrix(1.15468,0.666702,0.666702,-1.15468,-477.545,740.821)">
        <path d="M253.576,721.86L273.494,721.86" style="fill:none;fill-rule:nonzero;stroke:black;stroke-width:0.72px;"/>
    </g>
    <g transform="matrix(0,-1.33333,-1.33333,0,1278.92,402.963)">
        <path d="M244.95,736.8L264.87,736.8" style="fill:none;fill-rule:nonzero;stroke:black;stroke-width:0.72px;"/>
    </g>
    <g transform="matrix(-1.15475,-0.666584,-0.666584,1.15475,1075.25,-656.004)">
        <path d="M241.174,750.44L255.896,750.44" style="fill:none;fill-rule:nonzero;stroke:black;stroke-width:0.72px;"/>
    </g>
    <g transform="matrix(0,-1.33333,-1.33333,0,1340.64,391.723)">
        <path d="M266.4,764.16L281.28,764.16" style="fill:none;fill-rule:nonzero;stroke:black;stroke-width:0.72px;"/>
    </g>
    <g transform="matrix(0,-1.33333,-1.33333,0,1336.16,387.243)">
        <path d="M263.04,764.16L277.92,764.16" style="fill:none;fill-rule:nonzero;stroke:black;stroke-width:0.72px;"/>
    </g>
    <g transform="matrix(1.15496,-0.66621,-0.66621,-1.15496,510.64,1109.97)">
        <path d="M293.647,751.765L302.513,751.765" style="fill:none;fill-rule:nonzero;stroke:black;stroke-width:0.72px;"/>
    </g>
    <g transform="matrix(1.15487,0.666378,0.666378,-1.15487,-472.608,719.453)">
        <path d="M288.462,723.3L302.628,723.3" style="fill:none;fill-rule:nonzero;stroke:black;stroke-width:0.72px;"/>
    </g>
    <g transform="matrix(1.15468,-0.666702,-0.666702,-1.15468,497.79,1113.44)">
        <path d="M288.076,731.82L307.994,731.82" style="fill:none;fill-rule:nonzero;stroke:black;stroke-width:0.72px;"/>
    </g>
    <g transform="matrix(0,1.33333,1.33333,0,-613.321,-296.237)">
        <path d="M279.45,716.88L299.37,716.88" style="fill:none;fill-rule:nonzero;stroke:black;stroke-width:0.72px;"/>
    </g>
    <g transform="matrix(1.1547,0.666669,0.666669,-1.1547,-476.249,705.891)">
        <path d="M305.69,733.18L320.17,733.18" style="fill:none;fill-rule:nonzero;stroke:black;stroke-width:0.72px;"/>
    </g>
    <g transform="matrix(1.15487,0.666378,0.666378,-1.15487,-459.333,723.008)">
        <path d="M288.462,703.38L302.628,703.38" style="fill:none;fill-rule:nonzero;stroke:black;stroke-width:0.72px;"/>
    </g>
    <g transform="matrix(1.33333,0,0,1.33333,-43.3611,-941.717)">
        <path d="M340.8,745.2L374.88,745.2" style="fill:none;fill-rule:nonzero;stroke:black;stroke-width:0.72px;"/>
    </g>
    <g transform="matrix(1.2958,0.314133,0.314133,-1.2958,-263.531,900.995)">
        <path d="M366.619,746.133L374.769,746.133L367.524,742.401L368.471,744.606L366.619,746.133Z" style="stroke:black;stroke-width:0.72px;"/>
    </g>
</svg>
