<?xml version="1.0" encoding="UTF-8" standalone="no"?>
<!DOCTYPE svg PUBLIC "-//W3C//DTD SVG 1.1//EN" "http://www.w3.org/Graphics/SVG/1.1/DTD/svg11.dtd">
<svg width="100%" height="100%" viewBox="0 0 795 475" version="1.1" xmlns="http://www.w3.org/2000/svg" xmlns:xlink="http://www.w3.org/1999/xlink" xml:space="preserve" xmlns:serif="http://www.serif.com/" style="fill-rule:evenodd;clip-rule:evenodd;stroke-linecap:round;stroke-linejoin:round;stroke-miterlimit:10;">
    <g transform="matrix(1.33333,0,0,1.33333,-56.1399,-76.8974)">
        <text x="109.44px" y="99.12px" style="font-family:'ArialMT', 'Arial', sans-serif;font-size:10px;">O</text>
    </g>
    <g transform="matrix(1.33333,0,0,1.33333,-56.1399,-76.8974)">
        <text x="92.16px" y="69.36px" style="font-family:'ArialMT', 'Arial', sans-serif;font-size:10px;">O</text>
    </g>
    <g transform="matrix(1.33333,0,0,1.33333,-56.1399,-76.8974)">
        <text x="58.08px" y="89.28px" style="font-family:'ArialMT', 'Arial', sans-serif;font-size:10px;">C</text>
    </g>
    <g transform="matrix(1.33333,0,0,1.33333,-56.1399,-76.8974)">
        <text x="46.56px" y="89.28px" style="font-family:'ArialMT', 'Arial', sans-serif;font-size:10px;">H</text>
        <text x="53.76px" y="91.92px" style="font-family:'ArialMT', 'Arial', sans-serif;font-size:8px;">3</text>
    </g>
    <g transform="matrix(1.33333,0,0,1.33333,-56.1399,-76.8974)">
        <text x="144px" y="119.04px" style="font-family:'ArialMT', 'Arial', sans-serif;font-size:10px;">O<tspan x="151.92px " y="119.04px ">H</tspan></text>
    </g>
    <g transform="matrix(1.33333,0,0,1.33333,-56.1399,-76.8974)">
        <text x="126.96px" y="89.28px" style="font-family:'ArialMT', 'Arial', sans-serif;font-size:10px;">CH</text>
        <text x="141.36px" y="91.92px" style="font-family:'ArialMT', 'Arial', sans-serif;font-size:8px;">3</text>
    </g>
    <g transform="matrix(1.33333,0,0,1.33333,-56.1399,-76.8974)">
        <text x="273.84px" y="99.84px" style="font-family:'ArialMT', 'Arial', sans-serif;font-size:10px;">O</text>
    </g>
    <g transform="matrix(1.33333,0,0,1.33333,-56.1399,-76.8974)">
        <text x="222.48px" y="90px" style="font-family:'ArialMT', 'Arial', sans-serif;font-size:10px;">C</text>
    </g>
    <g transform="matrix(1.33333,0,0,1.33333,-56.1399,-76.8974)">
        <text x="210.96px" y="90px" style="font-family:'ArialMT', 'Arial', sans-serif;font-size:10px;">H</text>
        <text x="218.16px" y="92.64px" style="font-family:'ArialMT', 'Arial', sans-serif;font-size:8px;">3</text>
    </g>
    <g transform="matrix(1.33333,0,0,1.33333,-56.1399,-76.8974)">
        <text x="256.56px" y="69.84px" style="font-family:'ArialMT', 'Arial', sans-serif;font-size:10px;">O</text>
    </g>
    <g transform="matrix(1.33333,0,0,1.33333,-56.1399,-76.8974)">
        <text x="291.36px" y="89.76px" style="font-family:'ArialMT', 'Arial', sans-serif;font-size:10px;">H</text>
        <text x="291.12px" y="109.92px" style="font-family:'ArialMT', 'Arial', sans-serif;font-size:10px;">O</text>
    </g>
    <g transform="matrix(1.33333,0,0,1.33333,-56.1399,-76.8974)">
        <text x="273.84px" y="154.32px" style="font-family:'ArialMT', 'Arial', sans-serif;font-size:10px;">O<tspan x="281.76px " y="154.32px ">H</tspan></text>
    </g>
    <g transform="matrix(1.33333,0,0,1.33333,-56.1399,-76.8974)">
        <text x="291.36px" y="149.76px" style="font-family:'ArialMT', 'Arial', sans-serif;font-size:10px;">CH</text>
        <text x="305.76px" y="152.4px" style="font-family:'ArialMT', 'Arial', sans-serif;font-size:8px;">3</text>
    </g>
    <g transform="matrix(1.33333,0,0,1.33333,-56.1399,-76.8974)">
        <text x="308.64px" y="119.76px" style="font-family:'ArialMT', 'Arial', sans-serif;font-size:10px;">H</text>
    </g>
    <g transform="matrix(1.33333,0,0,1.33333,-56.1399,-76.8974)">
        <text x="438.72px" y="99.12px" style="font-family:'ArialMT', 'Arial', sans-serif;font-size:10px;">O</text>
    </g>
    <g transform="matrix(1.33333,0,0,1.33333,-56.1399,-76.8974)">
        <text x="387.36px" y="89.28px" style="font-family:'ArialMT', 'Arial', sans-serif;font-size:10px;">C</text>
    </g>
    <g transform="matrix(1.33333,0,0,1.33333,-56.1399,-76.8974)">
        <text x="375.84px" y="89.28px" style="font-family:'ArialMT', 'Arial', sans-serif;font-size:10px;">H</text>
        <text x="383.04px" y="91.92px" style="font-family:'ArialMT', 'Arial', sans-serif;font-size:8px;">3</text>
    </g>
    <g transform="matrix(1.33333,0,0,1.33333,-56.1399,-76.8974)">
        <text x="421.44px" y="69.12px" style="font-family:'ArialMT', 'Arial', sans-serif;font-size:10px;">O</text>
    </g>
    <g transform="matrix(1.33333,0,0,1.33333,-56.1399,-76.8974)">
        <text x="456.24px" y="129.12px" style="font-family:'ArialMT', 'Arial', sans-serif;font-size:10px;">CH</text>
        <text x="470.64px" y="131.76px" style="font-family:'ArialMT', 'Arial', sans-serif;font-size:8px;">2</text>
    </g>
    <g transform="matrix(1.33333,0,0,1.33333,-56.1399,-76.8974)">
        <text x="456.24px" y="89.04px" style="font-family:'ArialMT', 'Arial', sans-serif;font-size:10px;">H</text>
    </g>
    <g transform="matrix(1.33333,0,0,1.33333,-56.1399,-76.8974)">
        <text x="473.52px" y="119.04px" style="font-family:'ArialMT', 'Arial', sans-serif;font-size:10px;">CH</text>
        <text x="487.92px" y="121.68px" style="font-family:'ArialMT', 'Arial', sans-serif;font-size:8px;">3</text>
    </g>
    <g transform="matrix(1.33333,0,0,1.33333,-56.1399,-76.8974)">
        <text x="438.72px" y="229.2px" style="font-family:'ArialMT', 'Arial', sans-serif;font-size:10px;">O</text>
    </g>
    <g transform="matrix(1.33333,0,0,1.33333,-56.1399,-76.8974)">
        <text x="387.36px" y="219.36px" style="font-family:'ArialMT', 'Arial', sans-serif;font-size:10px;">C</text>
    </g>
    <g transform="matrix(1.33333,0,0,1.33333,-56.1399,-76.8974)">
        <text x="375.84px" y="219.36px" style="font-family:'ArialMT', 'Arial', sans-serif;font-size:10px;">H</text>
        <text x="383.04px" y="222px" style="font-family:'ArialMT', 'Arial', sans-serif;font-size:8px;">3</text>
    </g>
    <g transform="matrix(1.33333,0,0,1.33333,-56.1399,-76.8974)">
        <text x="421.44px" y="199.44px" style="font-family:'ArialMT', 'Arial', sans-serif;font-size:10px;">O</text>
    </g>
    <g transform="matrix(1.33333,0,0,1.33333,-56.1399,-76.8974)">
        <text x="456px" y="259.2px" style="font-family:'ArialMT', 'Arial', sans-serif;font-size:10px;">O</text>
    </g>
    <g transform="matrix(1.33333,0,0,1.33333,-56.1399,-76.8974)">
        <text x="456.24px" y="219.12px" style="font-family:'ArialMT', 'Arial', sans-serif;font-size:10px;">H</text>
    </g>
    <g transform="matrix(1.33333,0,0,1.33333,-56.1399,-76.8974)">
        <text x="473.52px" y="249.12px" style="font-family:'ArialMT', 'Arial', sans-serif;font-size:10px;">CH</text>
        <text x="487.92px" y="251.76px" style="font-family:'ArialMT', 'Arial', sans-serif;font-size:8px;">3</text>
    </g>
    <g transform="matrix(1.33333,0,0,1.33333,-56.1399,-76.8974)">
        <text x="421.68px" y="279.12px" style="font-family:'ArialMT', 'Arial', sans-serif;font-size:10px;">H</text>
    </g>
    <g transform="matrix(1.33333,0,0,1.33333,-56.1399,-76.8974)">
        <text x="493.92px" y="233.52px" style="font-family:'ArialMT', 'Arial', sans-serif;font-size:18px;">+</text>
        <text x="516.96px" y="229.92px" style="font-family:'ArialMT', 'Arial', sans-serif;font-size:10px;">H</text>
        <text x="524.172px" y="232.56px" style="font-family:'ArialMT', 'Arial', sans-serif;font-size:8px;">2</text>
        <text x="528.492px" y="229.92px" style="font-family:'ArialMT', 'Arial', sans-serif;font-size:10px;">C</text>
        <text x="535.703px" y="222.96px" style="font-family:'ArialMT', 'Arial', sans-serif;font-size:8px;">–</text>
        <text x="548.64px" y="229.92px" style="font-family:'ArialMT', 'Arial', sans-serif;font-size:10px;"><tspan x="548.64px " y="229.92px ">P</tspan></text>
        <text x="555.601px" y="222.96px" style="font-family:'ArialMT', 'Arial', sans-serif;font-size:8px;">+</text>
        <text x="560.401px" y="229.92px" style="font-family:'ArialMT', 'Arial', sans-serif;font-size:10px;">P</text>
        <text x="567.122px" y="229.92px" style="font-family:'ArialMT', 'Arial', sans-serif;font-size:10px;">h</text>
        <text x="572.883px" y="232.56px" style="font-family:'ArialMT', 'Arial', sans-serif;font-size:8px;">3</text>
    </g>
    <g transform="matrix(0.299988,1.29915,-1.29915,0.299988,-56.1399,-76.8974)">
        <text x="333.343px" y="-465.424px" style="font-family:'ArialMT', 'Arial', sans-serif;font-size:10px;">:</text>
    </g>
    <g transform="matrix(1.33333,0,0,1.33333,-56.1399,-76.8974)">
        <text x="403.92px" y="382.32px" style="font-family:'ArialMT', 'Arial', sans-serif;font-size:10px;">CH</text>
        <text x="418.332px" y="375.36px" style="font-family:'ArialMT', 'Arial', sans-serif;font-size:8px;">–</text>
        <text x="438.24px" y="382.56px" style="font-family:'ArialMT', 'Arial', sans-serif;font-size:10px;"><tspan x="438.24px " y="382.56px ">O</tspan></text>
    </g>
    <g transform="matrix(1.33333,0,0,1.33333,-56.1399,-76.8974)">
        <text x="386.88px" y="372.48px" style="font-family:'ArialMT', 'Arial', sans-serif;font-size:10px;">C</text>
    </g>
    <g transform="matrix(1.33333,0,0,1.33333,-56.1399,-76.8974)">
        <text x="375.36px" y="372.48px" style="font-family:'ArialMT', 'Arial', sans-serif;font-size:10px;">H</text>
        <text x="382.56px" y="375.12px" style="font-family:'ArialMT', 'Arial', sans-serif;font-size:8px;">3</text>
    </g>
    <g transform="matrix(1.33333,0,0,1.33333,-56.1399,-76.8974)">
        <text x="421.2px" y="352.56px" style="font-family:'ArialMT', 'Arial', sans-serif;font-size:10px;">O</text>
    </g>
    <g transform="matrix(1.33333,0,0,1.33333,-56.1399,-76.8974)">
        <text x="455.76px" y="372.72px" style="font-family:'ArialMT', 'Arial', sans-serif;font-size:10px;">H</text>
    </g>
    <g transform="matrix(-0.0488015,-1.33244,1.33244,-0.0488015,-56.1399,-76.8974)">
        <text x="-387.559px" y="394.789px" style="font-family:'ArialMT', 'Arial', sans-serif;font-size:10px;">:</text>
    </g>
    <g transform="matrix(1.33333,0,0,1.33333,-56.1399,-76.8974)">
        <text x="475.92px" y="375.36px" style="font-family:'ArialMT', 'Arial', sans-serif;font-size:18px;">+</text>
    </g>
    <g transform="matrix(1.33333,0,0,1.33333,-56.1399,-76.8974)">
        <text x="561.6px" y="382.56px" style="font-family:'ArialMT', 'Arial', sans-serif;font-size:10px;">CH</text>
        <text x="576px" y="385.2px" style="font-family:'ArialMT', 'Arial', sans-serif;font-size:8px;">3</text>
    </g>
    <g transform="matrix(1.33333,0,0,1.33333,-56.1399,-76.8974)">
        <text x="544.8px" y="352.32px" style="font-family:'ArialMT', 'Arial', sans-serif;font-size:10px;">O</text>
    </g>
    <g transform="matrix(1.33333,0,0,1.33333,-56.1399,-76.8974)">
        <text x="510.24px" y="371.52px" style="font-family:'ArialMT', 'Arial', sans-serif;font-size:10px;">C</text>
    </g>
    <g transform="matrix(1.33333,0,0,1.33333,-56.1399,-76.8974)">
        <text x="498.72px" y="371.52px" style="font-family:'ArialMT', 'Arial', sans-serif;font-size:10px;">H</text>
        <text x="505.92px" y="374.16px" style="font-family:'ArialMT', 'Arial', sans-serif;font-size:8px;">2</text>
    </g>
    <g transform="matrix(1.33333,0,0,1.33333,-56.1399,-76.8974)">
        <text x="590.16px" y="376.08px" style="font-family:'ArialMT', 'Arial', sans-serif;font-size:18px;">+</text>
        <text x="611.52px" y="372px" style="font-family:'ArialMT', 'Arial', sans-serif;font-size:10px;">H</text>
        <text x="618.734px" y="365.04px" style="font-family:'ArialMT', 'Arial', sans-serif;font-size:8px;">+</text>
    </g>
    <g transform="matrix(1.33333,0,0,1.33333,-56.1399,-76.8974)">
        <text x="259.44px" y="362.88px" style="font-family:'ArialMT', 'Arial', sans-serif;font-size:10px;">O</text>
        <text x="259.2px" y="382.8px" style="font-family:'ArialMT', 'Arial', sans-serif;font-size:10px;">O</text>
    </g>
    <g transform="matrix(1.33333,0,0,1.33333,-56.1399,-76.8974)">
        <text x="294px" y="359.76px" style="font-family:'ArialMT', 'Arial', sans-serif;font-size:10px;">CH</text>
        <text x="308.4px" y="362.4px" style="font-family:'ArialMT', 'Arial', sans-serif;font-size:8px;">3</text>
        <text x="293.52px" y="386.88px" style="font-family:'ArialMT', 'Arial', sans-serif;font-size:10px;">CH</text>
        <text x="307.92px" y="389.52px" style="font-family:'ArialMT', 'Arial', sans-serif;font-size:8px;">3</text>
    </g>
    <g transform="matrix(1.33333,0,0,1.33333,-56.1399,-76.8974)">
        <text x="209.04px" y="372px" style="font-family:'ArialMT', 'Arial', sans-serif;font-size:10px;">C</text>
    </g>
    <g transform="matrix(1.33333,0,0,1.33333,-56.1399,-76.8974)">
        <text x="197.52px" y="372px" style="font-family:'ArialMT', 'Arial', sans-serif;font-size:10px;">H</text>
        <text x="204.72px" y="374.64px" style="font-family:'ArialMT', 'Arial', sans-serif;font-size:8px;">3</text>
    </g>
    <g transform="matrix(1.33333,0,0,1.33333,-56.1399,-76.8974)">
        <text x="234.72px" y="337.44px" style="font-family:'ArialMT', 'Arial', sans-serif;font-size:10px;">O</text>
    </g>
    <g transform="matrix(1.33333,0,0,1.33333,-56.1399,-76.8974)">
        <text x="233.52px" y="407.52px" style="font-family:'ArialMT', 'Arial', sans-serif;font-size:10px;">O</text>
    </g>
    <g transform="matrix(1.15457,0.666895,0.666895,-1.15457,-540.137,842.756)">
        <path d="M95.292,753.185L109.428,753.185" style="fill:none;fill-rule:nonzero;stroke:black;stroke-width:0.72px;"/>
    </g>
    <g transform="matrix(1.15468,-0.666702,-0.666702,-1.15468,443.86,986.614)">
        <path d="M94.906,721.86L114.824,721.86" style="fill:none;fill-rule:nonzero;stroke:black;stroke-width:0.72px;"/>
    </g>
    <g transform="matrix(1.15468,-0.666702,-0.666702,-1.15468,460.7,969.775)">
        <path d="M77.656,751.74L97.574,751.74" style="fill:none;fill-rule:nonzero;stroke:black;stroke-width:0.72px;"/>
    </g>
    <g transform="matrix(1.15468,0.666702,0.666702,-1.15468,-521.753,858.287)">
        <path d="M77.656,721.86L97.574,721.86" style="fill:none;fill-rule:nonzero;stroke:black;stroke-width:0.72px;"/>
    </g>
    <g transform="matrix(0,-1.33333,-1.33333,0,1031.58,168.583)">
        <path d="M69.03,736.8L88.95,736.8" style="fill:none;fill-rule:nonzero;stroke:black;stroke-width:0.72px;"/>
    </g>
    <g transform="matrix(0,-1.33333,-1.33333,0,1093.14,157.503)">
        <path d="M90.6,764.04L105.24,764.04" style="fill:none;fill-rule:nonzero;stroke:black;stroke-width:0.72px;"/>
    </g>
    <g transform="matrix(0,-1.33333,-1.33333,0,1088.66,153.023)">
        <path d="M87.24,764.04L101.88,764.04" style="fill:none;fill-rule:nonzero;stroke:black;stroke-width:0.72px;"/>
    </g>
    <g transform="matrix(-1.15475,-0.666584,-0.666584,1.15475,624.764,-773.089)">
        <path d="M65.254,750.44L79.976,750.44" style="fill:none;fill-rule:nonzero;stroke:black;stroke-width:0.72px;"/>
    </g>
    <g transform="matrix(0,1.33333,1.33333,0,-883.78,-84.6174)">
        <path d="M106.11,734.22L120.87,734.22" style="fill:none;fill-rule:nonzero;stroke:black;stroke-width:0.72px;"/>
    </g>
    <g transform="matrix(1.15468,0.666702,0.666702,-1.15468,-515.589,835.286)">
        <path d="M112.156,721.86L132.074,721.86" style="fill:none;fill-rule:nonzero;stroke:black;stroke-width:0.72px;"/>
    </g>
    <g transform="matrix(1.15468,-0.666702,-0.666702,-1.15468,453.582,996.335)">
        <path d="M112.156,731.82L132.074,731.82" style="fill:none;fill-rule:nonzero;stroke:black;stroke-width:0.72px;"/>
    </g>
    <g transform="matrix(0,-1.33333,-1.33333,0,1110.34,227.823)">
        <path d="M123.42,744.12L138.06,744.12" style="fill:none;fill-rule:nonzero;stroke:black;stroke-width:0.72px;"/>
    </g>
    <g transform="matrix(1.15476,-0.666568,-0.666568,-1.15476,448.521,1008.26)">
        <path d="M129.789,720.43L143.991,720.43" style="fill:none;fill-rule:nonzero;stroke:black;stroke-width:0.72px;"/>
    </g>
    <g transform="matrix(1.33333,0,0,1.33333,-56.1399,-937.697)">
        <path d="M163.92,743.76L198,743.76" style="fill:none;fill-rule:nonzero;stroke:black;stroke-width:0.72px;"/>
    </g>
    <g transform="matrix(1.33333,0,0,1.33333,-56.1399,-945.377)">
        <path d="M163.92,746.64L198,746.64" style="fill:none;fill-rule:nonzero;stroke:black;stroke-width:0.72px;"/>
    </g>
    <g transform="matrix(1.33333,0,0,1.33333,-56.1399,-941.537)">
        <path d="M193.44,741.6L201.36,745.2L193.44,748.8" style="fill:none;fill-rule:nonzero;stroke:black;stroke-width:0.72px;"/>
    </g>
    <g transform="matrix(1.15457,0.666895,0.666895,-1.15457,-510.268,733.247)">
        <path d="M259.692,752.465L273.828,752.465" style="fill:none;fill-rule:nonzero;stroke:black;stroke-width:0.72px;"/>
    </g>
    <g transform="matrix(1.15468,-0.666702,-0.666702,-1.15468,472.751,1096.35)">
        <path d="M259.306,721.14L279.224,721.14" style="fill:none;fill-rule:nonzero;stroke:black;stroke-width:0.72px;"/>
    </g>
    <g transform="matrix(1.15468,-0.666702,-0.666702,-1.15468,489.59,1079.51)">
        <path d="M242.056,751.02L261.974,751.02" style="fill:none;fill-rule:nonzero;stroke:black;stroke-width:0.72px;"/>
    </g>
    <g transform="matrix(1.15468,0.666702,0.666702,-1.15468,-491.902,748.81)">
        <path d="M242.056,721.14L261.974,721.14" style="fill:none;fill-rule:nonzero;stroke:black;stroke-width:0.72px;"/>
    </g>
    <g transform="matrix(0,-1.33333,-1.33333,0,1249.82,388.743)">
        <path d="M233.43,736.08L253.35,736.08" style="fill:none;fill-rule:nonzero;stroke:black;stroke-width:0.72px;"/>
    </g>
    <g transform="matrix(-1.15475,-0.666584,-0.666584,1.15475,1033.32,-661.711)">
        <path d="M229.654,749.72L244.376,749.72" style="fill:none;fill-rule:nonzero;stroke:black;stroke-width:0.72px;"/>
    </g>
    <g transform="matrix(0,-1.33333,-1.33333,0,1311.54,377.503)">
        <path d="M254.88,763.44L269.76,763.44" style="fill:none;fill-rule:nonzero;stroke:black;stroke-width:0.72px;"/>
    </g>
    <g transform="matrix(0,-1.33333,-1.33333,0,1307.06,373.023)">
        <path d="M251.52,763.44L266.4,763.44" style="fill:none;fill-rule:nonzero;stroke:black;stroke-width:0.72px;"/>
    </g>
    <g transform="matrix(1.15496,-0.66621,-0.66621,-1.15496,495.327,1102.61)">
        <path d="M282.127,751.045L290.993,751.045" style="fill:none;fill-rule:nonzero;stroke:black;stroke-width:0.72px;"/>
    </g>
    <g transform="matrix(1.15468,0.666702,0.666702,-1.15468,-485.739,725.808)">
        <path d="M276.556,721.14L296.474,721.14" style="fill:none;fill-rule:nonzero;stroke:black;stroke-width:0.72px;"/>
    </g>
    <g transform="matrix(1.15487,-0.666378,-0.666378,-1.15487,480.778,1104.71)">
        <path d="M276.942,729.66L291.108,729.66" style="fill:none;fill-rule:nonzero;stroke:black;stroke-width:0.72px;"/>
    </g>
    <g transform="matrix(-0.666702,1.15468,1.15468,0.666702,-338.787,-704.477)">
        <path d="M262.951,717.495L282.869,717.495" style="fill:none;fill-rule:nonzero;stroke:black;stroke-width:0.72px;"/>
    </g>
    <g transform="matrix(-0.666324,-1.1549,-1.1549,0.666324,1298.29,-46.2068)">
        <path d="M264.421,702.795L278.449,702.795" style="fill:none;fill-rule:nonzero;stroke:black;stroke-width:0.72px;"/>
    </g>
    <g transform="matrix(0,1.33333,1.33333,0,-607.58,-292.817)">
        <path d="M287.7,708.72L302.58,708.72" style="fill:none;fill-rule:nonzero;stroke:black;stroke-width:0.72px;"/>
    </g>
    <g transform="matrix(1.15431,0.667337,0.667337,-1.15431,-489.61,712.024)">
        <path d="M299.404,731.06L308.276,731.06" style="fill:none;fill-rule:nonzero;stroke:black;stroke-width:0.72px;"/>
    </g>
    <g transform="matrix(1.33333,0,0,1.33333,-56.1399,-939.617)">
        <path d="M329.28,744.48L363.36,744.48" style="fill:none;fill-rule:nonzero;stroke:black;stroke-width:0.72px;"/>
    </g>
    <g transform="matrix(1.33333,0,0,1.33333,-56.1399,-947.297)">
        <path d="M329.28,747.36L363.36,747.36" style="fill:none;fill-rule:nonzero;stroke:black;stroke-width:0.72px;"/>
    </g>
    <g transform="matrix(1.33333,0,0,1.33333,-56.1399,-943.457)">
        <path d="M358.8,742.32L366.72,745.92L358.8,749.52" style="fill:none;fill-rule:nonzero;stroke:black;stroke-width:0.72px;"/>
    </g>
    <g transform="matrix(1.15457,0.666895,0.666895,-1.15457,-481.273,623.161)">
        <path d="M424.572,753.185L438.708,753.185" style="fill:none;fill-rule:nonzero;stroke:black;stroke-width:0.72px;"/>
    </g>
    <g transform="matrix(1.15468,-0.666702,-0.666702,-1.15468,502.687,1206.15)">
        <path d="M424.186,721.86L444.104,721.86" style="fill:none;fill-rule:nonzero;stroke:black;stroke-width:0.72px;"/>
    </g>
    <g transform="matrix(1.15468,-0.666702,-0.666702,-1.15468,519.527,1189.31)">
        <path d="M406.936,751.74L426.854,751.74" style="fill:none;fill-rule:nonzero;stroke:black;stroke-width:0.72px;"/>
    </g>
    <g transform="matrix(1.15468,0.666702,0.666702,-1.15468,-462.926,638.755)">
        <path d="M406.936,721.86L426.854,721.86" style="fill:none;fill-rule:nonzero;stroke:black;stroke-width:0.72px;"/>
    </g>
    <g transform="matrix(0,-1.33333,-1.33333,0,1470.62,607.623)">
        <path d="M398.31,736.8L418.23,736.8" style="fill:none;fill-rule:nonzero;stroke:black;stroke-width:0.72px;"/>
    </g>
    <g transform="matrix(-1.15475,-0.666584,-0.666584,1.15475,1444.04,-553.596)">
        <path d="M394.534,750.44L409.256,750.44" style="fill:none;fill-rule:nonzero;stroke:black;stroke-width:0.72px;"/>
    </g>
    <g transform="matrix(0,-1.33333,-1.33333,0,1532.34,596.383)">
        <path d="M419.76,764.16L434.64,764.16" style="fill:none;fill-rule:nonzero;stroke:black;stroke-width:0.72px;"/>
    </g>
    <g transform="matrix(0,-1.33333,-1.33333,0,1527.86,591.903)">
        <path d="M416.4,764.16L431.28,764.16" style="fill:none;fill-rule:nonzero;stroke:black;stroke-width:0.72px;"/>
    </g>
    <g transform="matrix(1.15461,0.666821,0.666821,-1.15461,-457.099,617.57)">
        <path d="M440.897,721.535L456.313,721.535" style="fill:none;fill-rule:nonzero;stroke:black;stroke-width:0.72px;"/>
    </g>
    <g transform="matrix(1.15503,0.666097,0.666097,-1.15503,-458.872,617.032)">
        <path d="M442.709,724.925L456.181,724.925" style="fill:none;fill-rule:nonzero;stroke:black;stroke-width:0.72px;"/>
    </g>
    <g transform="matrix(1.15468,-0.666702,-0.666702,-1.15468,512.409,1215.87)">
        <path d="M441.436,731.82L461.354,731.82" style="fill:none;fill-rule:nonzero;stroke:black;stroke-width:0.72px;"/>
    </g>
    <g transform="matrix(1.15496,-0.66621,-0.66621,-1.15496,525.216,1212.32)">
        <path d="M447.007,751.765L455.873,751.765" style="fill:none;fill-rule:nonzero;stroke:black;stroke-width:0.72px;"/>
    </g>
    <g transform="matrix(1.1547,0.666669,0.666669,-1.1547,-461.633,603.831)">
        <path d="M459.05,733.18L473.53,733.18" style="fill:none;fill-rule:nonzero;stroke:black;stroke-width:0.72px;"/>
    </g>
    <g transform="matrix(0,1.33333,1.33333,0,-405.9,-435.617)">
        <path d="M411.12,686.64L437.52,686.64" style="fill:none;fill-rule:nonzero;stroke:black;stroke-width:0.72px;"/>
    </g>
    <g transform="matrix(0,1.33333,1.33333,0,-402.06,-439.457)">
        <path d="M414,686.64L440.4,686.64" style="fill:none;fill-rule:nonzero;stroke:black;stroke-width:0.72px;"/>
    </g>
    <g transform="matrix(1.33333,0,0,1.33333,-56.1399,-751.777)">
        <path d="M429.36,670.08L425.76,678L422.16,670.08" style="fill:none;fill-rule:nonzero;stroke:black;stroke-width:0.72px;"/>
    </g>
    <g transform="matrix(1.15457,0.666895,0.666895,-1.15457,-394.524,646.415)">
        <path d="M424.572,623.105L438.708,623.105" style="fill:none;fill-rule:nonzero;stroke:black;stroke-width:0.72px;"/>
    </g>
    <g transform="matrix(1.15468,-0.666702,-0.666702,-1.15468,415.963,1229.38)">
        <path d="M424.186,591.78L444.104,591.78" style="fill:none;fill-rule:nonzero;stroke:black;stroke-width:0.72px;"/>
    </g>
    <g transform="matrix(1.15468,-0.666702,-0.666702,-1.15468,432.802,1212.55)">
        <path d="M406.936,621.66L426.854,621.66" style="fill:none;fill-rule:nonzero;stroke:black;stroke-width:0.72px;"/>
    </g>
    <g transform="matrix(1.15468,0.666702,0.666702,-1.15468,-376.201,661.994)">
        <path d="M406.936,591.78L426.854,591.78" style="fill:none;fill-rule:nonzero;stroke:black;stroke-width:0.72px;"/>
    </g>
    <g transform="matrix(0,-1.33333,-1.33333,0,1297.18,781.063)">
        <path d="M398.31,606.72L418.23,606.72" style="fill:none;fill-rule:nonzero;stroke:black;stroke-width:0.72px;"/>
    </g>
    <g transform="matrix(-1.15475,-0.666584,-0.666584,1.15475,1357.33,-229.947)">
        <path d="M394.534,620.36L409.256,620.36" style="fill:none;fill-rule:nonzero;stroke:black;stroke-width:0.72px;"/>
    </g>
    <g transform="matrix(0,-1.33333,-1.33333,0,1358.74,769.983)">
        <path d="M419.88,633.96L434.52,633.96" style="fill:none;fill-rule:nonzero;stroke:black;stroke-width:0.72px;"/>
    </g>
    <g transform="matrix(0,-1.33333,-1.33333,0,1354.26,765.503)">
        <path d="M416.52,633.96L431.16,633.96" style="fill:none;fill-rule:nonzero;stroke:black;stroke-width:0.72px;"/>
    </g>
    <g transform="matrix(1.15466,0.666729,0.666729,-1.15466,-370.396,640.958)">
        <path d="M440.916,591.525L456.054,591.525" style="fill:none;fill-rule:nonzero;stroke:black;stroke-width:0.72px;"/>
    </g>
    <g transform="matrix(1.1551,0.665976,0.665976,-1.1551,-372.254,640.389)">
        <path d="M442.728,594.915L455.922,594.915" style="fill:none;fill-rule:nonzero;stroke:black;stroke-width:0.72px;"/>
    </g>
    <g transform="matrix(1.15468,-0.666702,-0.666702,-1.15468,425.685,1239.11)">
        <path d="M441.436,601.74L461.354,601.74" style="fill:none;fill-rule:nonzero;stroke:black;stroke-width:0.72px;"/>
    </g>
    <g transform="matrix(1.15496,-0.66621,-0.66621,-1.15496,438.556,1235.53)">
        <path d="M447.007,621.685L455.873,621.685" style="fill:none;fill-rule:nonzero;stroke:black;stroke-width:0.72px;"/>
    </g>
    <g transform="matrix(1.1547,0.666669,0.666669,-1.1547,-374.912,627.068)">
        <path d="M459.05,603.1L473.53,603.1" style="fill:none;fill-rule:nonzero;stroke:black;stroke-width:0.72px;"/>
    </g>
    <g transform="matrix(0,1.33333,1.33333,0,-261.26,-294.177)">
        <path d="M418.08,579.36L432.96,579.36" style="fill:none;fill-rule:nonzero;stroke:black;stroke-width:0.72px;"/>
    </g>
    <g transform="matrix(1.33333,0,0,1.33333,-56.1399,-507.297)">
        <path d="M432.48,581.52L432,582.96L431.28,584.4L430.32,585.6L429.36,586.56L428.16,587.52L426.72,588.24L423.84,589.2L420.96,589.2L419.76,588.96L418.8,588.72L417.84,588.24L416.64,587.76L415.92,587.28L414.96,586.56L414.24,585.84L412.8,583.92L412.32,582.96L412.08,582L411.6,580.8L411.36,579.6L411.36,578.64L411.84,575.52" style="fill:none;fill-rule:nonzero;stroke:black;stroke-width:0.48px;"/>
    </g>
    <g transform="matrix(0.468165,-1.24844,-1.24844,-0.468165,1029.83,1052.39)">
        <path d="M406.835,585.654L415.037,585.654L407.734,581.89L408.942,584.137L406.835,585.654Z" style="stroke:black;stroke-width:0.48px;"/>
    </g>
    <g transform="matrix(1.33333,0,0,1.33333,-56.1399,-570.337)">
        <path d="M411.12,596.64L414,598.08L415.2,599.28L416.16,600.48L416.88,601.68L417.36,603.36L417.6,604.8L417.84,605.76L417.6,606.96L417.36,607.92L417.12,609.12L416.16,611.04L415.44,612L414.72,612.72L413.76,613.44L413.04,614.16L412.08,614.64L410.88,614.88L409.92,615.12L408.72,615.36L408.24,615.36L405.12,614.88" style="fill:none;fill-rule:nonzero;stroke:black;stroke-width:0.48px;"/>
    </g>
    <g transform="matrix(-1.26491,-0.421637,-0.421637,1.26491,1280.53,-370.385)">
        <path d="M411.437,610.766L419.785,610.766L412.651,614.713L413.714,612.284L411.437,610.766Z" style="stroke:black;stroke-width:0.48px;"/>
    </g>
    <g transform="matrix(1.33333,0,0,1.33333,-56.1399,-597.217)">
        <path d="M536.64,616.08L547.68,616.08" style="fill:none;fill-rule:nonzero;stroke:black;stroke-width:0.72px;"/>
    </g>
    <g transform="matrix(0,1.33333,1.33333,0,-200.62,-230.977)">
        <path d="M410.76,532.92L438.36,532.92" style="fill:none;fill-rule:nonzero;stroke:black;stroke-width:0.72px;"/>
    </g>
    <g transform="matrix(0,1.33333,1.33333,0,-196.78,-234.817)">
        <path d="M413.64,532.92L441.24,532.92" style="fill:none;fill-rule:nonzero;stroke:black;stroke-width:0.72px;"/>
    </g>
    <g transform="matrix(1.33333,0,0,1.33333,-56.1399,-340.257)">
        <path d="M429.6,515.76L426,523.68L422.4,515.76" style="fill:none;fill-rule:nonzero;stroke:black;stroke-width:0.72px;"/>
    </g>
    <g transform="matrix(1.15919,-0.658822,-0.658822,-1.15919,329.314,1242.84)">
        <path d="M423.496,472.915L425.094,472.915" style="fill:none;fill-rule:nonzero;stroke:black;stroke-width:0.72px;"/>
    </g>
    <g transform="matrix(1.15126,0.672585,0.672585,-1.15126,-293.57,670.166)">
        <path d="M424.018,469.72L438.252,469.72" style="fill:none;fill-rule:nonzero;stroke:black;stroke-width:0.72px;"/>
    </g>
    <g transform="matrix(-1.15107,-0.672912,-0.672912,1.15107,1250.41,150.173)">
        <path d="M394.413,468.515L403.587,468.515" style="fill:none;fill-rule:nonzero;stroke:black;stroke-width:0.72px;"/>
    </g>
    <g transform="matrix(0.007178,-1.33331,-1.33331,-0.007178,1150.71,977.078)">
        <path d="M419.28,480.73L434.14,480.73" style="fill:none;fill-rule:nonzero;stroke:black;stroke-width:0.72px;"/>
    </g>
    <g transform="matrix(0.00718768,-1.33331,-1.33331,-0.00718768,1146.26,972.59)">
        <path d="M415.93,480.74L430.77,480.74" style="fill:none;fill-rule:nonzero;stroke:black;stroke-width:0.72px;"/>
    </g>
    <g transform="matrix(1.15821,-0.660544,-0.660544,-1.15821,332.145,1261.54)">
        <path d="M446.539,468.27L455.381,468.27" style="fill:none;fill-rule:nonzero;stroke:black;stroke-width:0.72px;"/>
    </g>
    <g transform="matrix(1.16677,-0.645306,-0.645306,-1.16677,336.33,1315.8)">
        <path d="M529.696,468.9L549.614,468.9" style="fill:none;fill-rule:nonzero;stroke:black;stroke-width:0.72px;"/>
    </g>
    <g transform="matrix(1.14217,0.68791,0.68791,-1.14217,-273.475,574.363)">
        <path d="M547.343,470.025L561.667,470.025" style="fill:none;fill-rule:nonzero;stroke:black;stroke-width:0.72px;"/>
    </g>
    <g transform="matrix(0.025375,-1.33309,-1.33309,-0.025375,1304.76,1149.93)">
        <path d="M542.834,481.045L557.546,481.045" style="fill:none;fill-rule:nonzero;stroke:black;stroke-width:0.72px;"/>
    </g>
    <g transform="matrix(0.0254789,-1.33309,-1.33309,-0.0254789,1300.35,1145.46)">
        <path d="M539.504,481.075L554.156,481.075" style="fill:none;fill-rule:nonzero;stroke:black;stroke-width:0.72px;"/>
    </g>
    <g transform="matrix(-1.14188,-0.688403,-0.688403,1.14188,1564.6,248.796)">
        <path d="M517.349,467.86L531.991,467.86" style="fill:none;fill-rule:nonzero;stroke:black;stroke-width:0.72px;"/>
    </g>
    <g transform="matrix(-1.14236,-0.687599,-0.687599,1.14236,1567.8,239.094)">
        <path d="M517.64,471.6L532.3,471.6" style="fill:none;fill-rule:nonzero;stroke:black;stroke-width:0.72px;"/>
    </g>
    <g transform="matrix(-1.33333,0,0,1.33333,868.02,-221.537)">
        <path d="M330,475.2L363.12,475.2" style="fill:none;fill-rule:nonzero;stroke:black;stroke-width:0.72px;"/>
    </g>
    <g transform="matrix(-1.33333,0,0,1.33333,868.02,-213.857)">
        <path d="M330,472.32L363.12,472.32" style="fill:none;fill-rule:nonzero;stroke:black;stroke-width:0.72px;"/>
    </g>
    <g transform="matrix(1.33333,0,0,1.33333,-56.1399,-217.697)">
        <path d="M334.56,477.36L326.64,473.76L334.56,470.16" style="fill:none;fill-rule:nonzero;stroke:black;stroke-width:0.72px;"/>
    </g>
    <g transform="matrix(-0.801285,1.0657,1.0657,0.801285,-59.9982,-236.331)">
        <path d="M228.606,481.47L248.524,481.47" style="fill:none;fill-rule:nonzero;stroke:black;stroke-width:0.72px;"/>
    </g>
    <g transform="matrix(-0.766098,-1.09127,-1.09127,0.766098,951.993,328.737)">
        <path d="M228.341,465.355L248.269,465.355" style="fill:none;fill-rule:nonzero;stroke:black;stroke-width:0.72px;"/>
    </g>
    <g transform="matrix(-1.26115,-0.432756,-0.432756,1.26115,807.181,-109.11)">
        <path d="M244.151,487.04L258.879,487.04" style="fill:none;fill-rule:nonzero;stroke:black;stroke-width:0.72px;"/>
    </g>
    <g transform="matrix(-1.27443,0.391925,0.391925,1.27443,418.716,-250.731)">
        <path d="M243.702,459.385L258.568,459.385" style="fill:none;fill-rule:nonzero;stroke:black;stroke-width:0.72px;"/>
    </g>
    <g transform="matrix(1.09168,-0.765518,-0.765518,-1.09168,385.501,1136.91)">
        <path d="M267.06,490.42L280.96,490.42" style="fill:none;fill-rule:nonzero;stroke:black;stroke-width:0.72px;"/>
    </g>
    <g transform="matrix(1.20912,0.561961,0.561961,-1.20912,-296.667,823.708)">
        <path d="M279.015,491.31L293.725,491.31" style="fill:none;fill-rule:nonzero;stroke:black;stroke-width:0.72px;"/>
    </g>
    <g transform="matrix(1.06573,0.801249,0.801249,-1.06573,-347.656,704.68)">
        <path d="M266.709,455.185L280.371,455.185" style="fill:none;fill-rule:nonzero;stroke:black;stroke-width:0.72px;"/>
    </g>
    <g transform="matrix(1.22655,-0.522823,-0.522823,-1.22655,211.722,1146.6)">
        <path d="M278.41,453.97L293.15,453.97" style="fill:none;fill-rule:nonzero;stroke:black;stroke-width:0.72px;"/>
    </g>
    <g transform="matrix(-1.33316,-0.0216703,-0.0216703,1.33316,553.791,-212.407)">
        <path d="M217.199,473.635L232.581,473.635" style="fill:none;fill-rule:nonzero;stroke:black;stroke-width:0.72px;"/>
    </g>
    <g transform="matrix(-0.391176,-1.27466,-1.27466,0.391176,997.826,500.429)">
        <path d="M237.123,496.6L251.097,496.6" style="fill:none;fill-rule:nonzero;stroke:black;stroke-width:0.72px;"/>
    </g>
    <g transform="matrix(-0.391927,-1.27443,-1.27443,0.391927,991.465,496.556)">
        <path d="M233.244,496.11L248.246,496.11" style="fill:none;fill-rule:nonzero;stroke:black;stroke-width:0.72px;"/>
    </g>
    <g transform="matrix(-0.432523,1.26123,1.26123,0.432523,-200.689,-52.7893)">
        <path d="M232.478,450.635L247.522,450.635" style="fill:none;fill-rule:nonzero;stroke:black;stroke-width:0.72px;"/>
    </g>
    <g transform="matrix(-0.43285,1.26112,1.26112,0.43285,-193.929,-56.1906)">
        <path d="M236.419,450.09L250.311,450.09" style="fill:none;fill-rule:nonzero;stroke:black;stroke-width:0.72px;"/>
    </g>
</svg>
