<?xml version="1.0" encoding="UTF-8" standalone="no"?>
<!DOCTYPE svg PUBLIC "-//W3C//DTD SVG 1.1//EN" "http://www.w3.org/Graphics/SVG/1.1/DTD/svg11.dtd">
<svg width="100%" height="100%" viewBox="0 0 745 545" version="1.1" xmlns="http://www.w3.org/2000/svg" xmlns:xlink="http://www.w3.org/1999/xlink" xml:space="preserve" xmlns:serif="http://www.serif.com/" style="fill-rule:evenodd;clip-rule:evenodd;stroke-linecap:round;stroke-linejoin:round;stroke-miterlimit:10;">
    <g transform="matrix(1.33333,0,0,1.33333,-49.9346,-76.4328)">
        <text x="68.88px" y="106.08px" style="font-family:'ArialMT', 'Arial', sans-serif;font-size:10px;">O</text>
    </g>
    <g transform="matrix(1.33333,0,0,1.33333,-49.9346,-76.4328)">
        <text x="51.84px" y="96.24px" style="font-family:'ArialMT', 'Arial', sans-serif;font-size:10px;">C</text>
    </g>
    <g transform="matrix(1.33333,0,0,1.33333,-49.9346,-76.4328)">
        <text x="40.32px" y="96.24px" style="font-family:'ArialMT', 'Arial', sans-serif;font-size:10px;">H</text>
        <text x="47.52px" y="98.88px" style="font-family:'ArialMT', 'Arial', sans-serif;font-size:8px;">3</text>
    </g>
    <g transform="matrix(1.33333,0,0,1.33333,-49.9346,-76.4328)">
        <text x="155.28px" y="96.24px" style="font-family:'ArialMT', 'Arial', sans-serif;font-size:10px;">Cl</text>
    </g>
    <g transform="matrix(1.33333,0,0,1.33333,-49.9346,-76.4328)">
        <text x="256.08px" y="105.12px" style="font-family:'ArialMT', 'Arial', sans-serif;font-size:10px;">O</text>
    </g>
    <g transform="matrix(1.33333,0,0,1.33333,-49.9346,-76.4328)">
        <text x="239.04px" y="95.28px" style="font-family:'ArialMT', 'Arial', sans-serif;font-size:10px;">C</text>
    </g>
    <g transform="matrix(1.33333,0,0,1.33333,-49.9346,-76.4328)">
        <text x="227.52px" y="95.28px" style="font-family:'ArialMT', 'Arial', sans-serif;font-size:10px;">H</text>
        <text x="234.72px" y="97.92px" style="font-family:'ArialMT', 'Arial', sans-serif;font-size:8px;">3</text>
    </g>
    <g transform="matrix(1.33333,0,0,1.33333,-49.9346,-76.4328)">
        <text x="324.72px" y="105.36px" style="font-family:'ArialMT', 'Arial', sans-serif;font-size:10px;">Mg</text>
    </g>
    <g transform="matrix(1.33333,0,0,1.33333,-49.9346,-76.4328)">
        <text x="342.48px" y="95.28px" style="font-family:'ArialMT', 'Arial', sans-serif;font-size:10px;">Cl</text>
    </g>
    <g transform="matrix(1.33333,0,0,1.33333,-49.9346,-76.4328)">
        <text x="187.44px" y="75.36px" style="font-family:'ArialMT', 'Arial', sans-serif;font-size:10px;">Mg</text>
    </g>
    <g transform="matrix(1.33333,0,0,1.33333,-49.9346,-76.4328)">
        <text x="374.64px" y="74.16px" style="font-family:'ArialMT', 'Arial', sans-serif;font-size:10px;">1</text>
        <text x="380.16px" y="74.16px" style="font-family:'ArialMT', 'Arial', sans-serif;font-size:10px;">)</text>
        <text x="386.432px" y="74.16px" style="font-family:'ArialMT', 'Arial', sans-serif;font-size:10px;">CuI</text>
        <text x="375.12px" y="113.28px" style="font-family:'ArialMT', 'Arial', sans-serif;font-size:10px;">2)</text>
    </g>
    <g transform="matrix(1.33333,0,0,1.33333,-49.9346,-76.4328)">
        <text x="388.08px" y="142.56px" style="font-family:'ArialMT', 'Arial', sans-serif;font-size:10px;">CH</text>
        <text x="402.48px" y="145.2px" style="font-family:'ArialMT', 'Arial', sans-serif;font-size:8px;">2</text>
    </g>
    <g transform="matrix(1.33333,0,0,1.33333,-49.9346,-76.4328)">
        <text x="405.84px" y="93.12px" style="font-family:'ArialMT', 'Arial', sans-serif;font-size:10px;">O</text>
    </g>
    <g transform="matrix(1.33333,0,0,1.33333,-49.9346,-76.4328)">
        <text x="535.68px" y="71.52px" style="font-family:'ArialMT', 'Arial', sans-serif;font-size:10px;">O</text>
    </g>
    <g transform="matrix(1.33333,0,0,1.33333,-49.9346,-76.4328)">
        <text x="478.8px" y="105.6px" style="font-family:'ArialMT', 'Arial', sans-serif;font-size:10px;">O</text>
    </g>
    <g transform="matrix(1.33333,0,0,1.33333,-49.9346,-76.4328)">
        <text x="461.76px" y="95.76px" style="font-family:'ArialMT', 'Arial', sans-serif;font-size:10px;">C</text>
    </g>
    <g transform="matrix(1.33333,0,0,1.33333,-49.9346,-76.4328)">
        <text x="450.24px" y="95.76px" style="font-family:'ArialMT', 'Arial', sans-serif;font-size:10px;">H</text>
        <text x="457.44px" y="98.4px" style="font-family:'ArialMT', 'Arial', sans-serif;font-size:8px;">3</text>
    </g>
    <g transform="matrix(1.33333,0,0,1.33333,-49.9346,-76.4328)">
        <text x="476.88px" y="182.88px" style="font-family:'ArialMT', 'Arial', sans-serif;font-size:10px;">C</text>
    </g>
    <g transform="matrix(1.33333,0,0,1.33333,-49.9346,-76.4328)">
        <text x="465.36px" y="182.88px" style="font-family:'ArialMT', 'Arial', sans-serif;font-size:10px;">H</text>
        <text x="472.56px" y="185.52px" style="font-family:'ArialMT', 'Arial', sans-serif;font-size:8px;">2</text>
    </g>
    <g transform="matrix(1.33333,0,0,1.33333,-49.9346,-76.4328)">
        <text x="506.16px" y="199.92px" style="font-family:'ArialMT', 'Arial', sans-serif;font-size:10px;">M</text>
        <text x="514.56px" y="199.92px" style="font-family:'ArialMT', 'Arial', sans-serif;font-size:10px;">g</text>
        <text x="520.08px" y="199.92px" style="font-family:'ArialMT', 'Arial', sans-serif;font-size:10px;">Br</text>
    </g>
    <g transform="matrix(1.33333,0,0,1.33333,-49.9346,-76.4328)">
        <text x="501.84px" y="168.72px" style="font-family:'ArialMT', 'Arial', sans-serif;font-size:10px;">1)</text>
    </g>
    <g transform="matrix(1.33333,0,0,1.33333,-49.9346,-76.4328)">
        <text x="537.6px" y="168.24px" style="font-family:'ArialMT', 'Arial', sans-serif;font-size:10px;">2</text>
        <text x="543.12px" y="168.24px" style="font-family:'ArialMT', 'Arial', sans-serif;font-size:10px;">)</text>
        <text x="549.392px" y="168.24px" style="font-family:'ArialMT', 'Arial', sans-serif;font-size:10px;">C</text>
        <text x="556.592px" y="168.24px" style="font-family:'ArialMT', 'Arial', sans-serif;font-size:10px;">r</text>
        <text x="559.952px" y="168.24px" style="font-family:'ArialMT', 'Arial', sans-serif;font-size:10px;">O</text>
        <text x="567.872px" y="170.88px" style="font-family:'ArialMT', 'Arial', sans-serif;font-size:6px;">3</text>
    </g>
    <g transform="matrix(1.33333,0,0,1.33333,-49.9346,-76.4328)">
        <text x="536.16px" y="287.76px" style="font-family:'ArialMT', 'Arial', sans-serif;font-size:10px;">O</text>
    </g>
    <g transform="matrix(1.33333,0,0,1.33333,-49.9346,-76.4328)">
        <text x="478.08px" y="320.64px" style="font-family:'ArialMT', 'Arial', sans-serif;font-size:10px;">O</text>
    </g>
    <g transform="matrix(1.33333,0,0,1.33333,-49.9346,-76.4328)">
        <text x="461.04px" y="310.8px" style="font-family:'ArialMT', 'Arial', sans-serif;font-size:10px;">C</text>
    </g>
    <g transform="matrix(1.33333,0,0,1.33333,-49.9346,-76.4328)">
        <text x="449.52px" y="310.8px" style="font-family:'ArialMT', 'Arial', sans-serif;font-size:10px;">H</text>
        <text x="456.72px" y="313.44px" style="font-family:'ArialMT', 'Arial', sans-serif;font-size:8px;">3</text>
    </g>
    <g transform="matrix(1.33333,0,0,1.33333,-49.9346,-76.4328)">
        <text x="564px" y="250.8px" style="font-family:'ArialMT', 'Arial', sans-serif;font-size:10px;">CH</text>
        <text x="578.4px" y="253.44px" style="font-family:'ArialMT', 'Arial', sans-serif;font-size:8px;">2</text>
    </g>
    <g transform="matrix(1.33333,0,0,1.33333,-49.9346,-76.4328)">
        <text x="375.12px" y="310.8px" style="font-family:'ArialMT', 'Arial', sans-serif;font-size:10px;">O</text>
    </g>
    <g transform="matrix(1.33333,0,0,1.33333,-49.9346,-76.4328)">
        <text x="375.36px" y="380.88px" style="font-family:'ArialMT', 'Arial', sans-serif;font-size:10px;">O</text>
    </g>
    <g transform="matrix(1.33333,0,0,1.33333,-49.9346,-76.4328)">
        <text x="340.08px" y="328.56px" style="font-family:'ArialMT', 'Arial', sans-serif;font-size:10px;">C</text>
    </g>
    <g transform="matrix(1.33333,0,0,1.33333,-49.9346,-76.4328)">
        <text x="328.56px" y="328.56px" style="font-family:'ArialMT', 'Arial', sans-serif;font-size:10px;">H</text>
        <text x="335.76px" y="331.2px" style="font-family:'ArialMT', 'Arial', sans-serif;font-size:8px;">3</text>
    </g>
    <g transform="matrix(1.33333,0,0,1.33333,-49.9346,-76.4328)">
        <text x="379.44px" y="291.84px" style="font-family:'ArialMT', 'Arial', sans-serif;font-size:10px;">:<tspan x="382.32px " y="291.84px ">B</tspan></text>
    </g>
    <g transform="matrix(1.33333,0,0,1.33333,-49.9346,-76.4328)">
        <text x="147.12px" y="353.52px" style="font-family:'ArialMT', 'Arial', sans-serif;font-size:10px;">O</text>
    </g>
    <g transform="matrix(1.33333,0,0,1.33333,-49.9346,-76.4328)">
        <text x="130.08px" y="343.68px" style="font-family:'ArialMT', 'Arial', sans-serif;font-size:10px;">C</text>
    </g>
    <g transform="matrix(1.33333,0,0,1.33333,-49.9346,-76.4328)">
        <text x="118.56px" y="343.68px" style="font-family:'ArialMT', 'Arial', sans-serif;font-size:10px;">H</text>
        <text x="125.76px" y="346.32px" style="font-family:'ArialMT', 'Arial', sans-serif;font-size:8px;">3</text>
    </g>
    <g transform="matrix(1.33333,0,0,1.33333,-49.9346,-76.4328)">
        <text x="204px" y="320.64px" style="font-family:'ArialMT', 'Arial', sans-serif;font-size:10px;">O</text>
    </g>
    <g transform="matrix(1.33333,0,0,1.33333,-49.9346,-76.4328)">
        <text x="267.84px" y="264px" style="font-family:'ArialMT', 'Arial', sans-serif;font-size:10px;">O</text>
    </g>
    <g transform="matrix(1.33333,0,0,1.33333,-49.9346,-76.4328)">
        <text x="238.8px" y="320.64px" style="font-family:'ArialMT', 'Arial', sans-serif;font-size:10px;">O</text>
    </g>
    <g transform="matrix(1.33333,0,0,1.33333,-49.9346,-76.4328)">
        <text x="195.84px" y="459.84px" style="font-family:'ArialMT', 'Arial', sans-serif;font-size:10px;">T<tspan x="202.08px " y="459.84px ">M</tspan></text>
    </g>
    <g transform="matrix(1.33333,0,0,1.33333,-49.9346,-76.4328)">
        <text x="208.32px" y="405.36px" style="font-family:'ArialMT', 'Arial', sans-serif;font-size:10px;">H</text>
        <text x="215.52px" y="400.32px" style="font-family:'ArialMT', 'Arial', sans-serif;font-size:6px;">+</text>
    </g>
    <g transform="matrix(0,-1.33333,-1.33333,0,1128.91,199.367)">
        <path d="M114.57,759.6L134.49,759.6" style="fill:none;fill-rule:nonzero;stroke:black;stroke-width:0.72px;"/>
    </g>
    <g transform="matrix(0,-1.33333,-1.33333,0,1124.43,194.887)">
        <path d="M112.87,759.6L129.47,759.6" style="fill:none;fill-rule:nonzero;stroke:black;stroke-width:0.72px;"/>
    </g>
    <g transform="matrix(1.15468,0.666702,0.666702,-1.15468,-545.615,830.479)">
        <path d="M105.946,774.54L125.864,774.54" style="fill:none;fill-rule:nonzero;stroke:black;stroke-width:0.72px;"/>
    </g>
    <g transform="matrix(1.15468,-0.666702,-0.666702,-1.15468,467.239,990.365)">
        <path d="M105.946,744.66L125.864,744.66" style="fill:none;fill-rule:nonzero;stroke:black;stroke-width:0.72px;"/>
    </g>
    <g transform="matrix(1.15468,-0.666702,-0.666702,-1.15468,484.078,973.527)">
        <path d="M88.696,774.54L108.614,774.54" style="fill:none;fill-rule:nonzero;stroke:black;stroke-width:0.72px;"/>
    </g>
    <g transform="matrix(1.15458,-0.666876,-0.666876,-1.15458,482.582,975.106)">
        <path d="M92.038,771.63L108.632,771.63" style="fill:none;fill-rule:nonzero;stroke:black;stroke-width:0.72px;"/>
    </g>
    <g transform="matrix(1.15468,0.666702,0.666702,-1.15468,-528.776,847.318)">
        <path d="M88.696,744.66L108.614,744.66" style="fill:none;fill-rule:nonzero;stroke:black;stroke-width:0.72px;"/>
    </g>
    <g transform="matrix(1.15458,0.666876,0.666876,-1.15458,-530.536,845.585)">
        <path d="M92.038,747.57L108.632,747.57" style="fill:none;fill-rule:nonzero;stroke:black;stroke-width:0.72px;"/>
    </g>
    <g transform="matrix(0,-1.33333,-1.33333,0,1082.91,153.367)">
        <path d="M80.07,759.6L99.99,759.6" style="fill:none;fill-rule:nonzero;stroke:black;stroke-width:0.72px;"/>
    </g>
    <g transform="matrix(-1.15487,0.666378,0.666378,1.15487,-338.372,-866.225)">
        <path d="M76.812,746.1L90.978,746.1" style="fill:none;fill-rule:nonzero;stroke:black;stroke-width:0.72px;"/>
    </g>
    <g transform="matrix(-1.15423,-0.667474,-0.667474,1.15423,606.285,-763.847)">
        <path d="M59.386,744.77L68.534,744.77" style="fill:none;fill-rule:nonzero;stroke:black;stroke-width:0.72px;"/>
    </g>
    <g transform="matrix(1.15468,0.666702,0.666702,-1.15468,-522.612,824.317)">
        <path d="M123.196,744.66L143.114,744.66" style="fill:none;fill-rule:nonzero;stroke:black;stroke-width:0.72px;"/>
    </g>
    <g transform="matrix(1.1547,-0.666669,-0.666669,-1.1547,472.047,1012.05)">
        <path d="M140.81,743.3L155.29,743.3" style="fill:none;fill-rule:nonzero;stroke:black;stroke-width:0.72px;"/>
    </g>
    <g transform="matrix(1.33333,0,0,1.33333,-49.9346,-987.153)">
        <path d="M169.92,762.48L221.04,762.48" style="fill:none;fill-rule:nonzero;stroke:black;stroke-width:0.72px;"/>
    </g>
    <g transform="matrix(1.2958,0.314133,0.314133,-1.2958,-281.307,949.317)">
        <path d="M212.779,763.413L220.929,763.413L213.684,759.681L214.631,761.886L212.779,763.413Z" style="stroke:black;stroke-width:0.72px;"/>
    </g>
    <g transform="matrix(0,-1.33333,-1.33333,0,1379.79,447.687)">
        <path d="M301.77,760.56L321.69,760.56" style="fill:none;fill-rule:nonzero;stroke:black;stroke-width:0.72px;"/>
    </g>
    <g transform="matrix(0,-1.33333,-1.33333,0,1375.31,443.207)">
        <path d="M300.07,760.56L316.67,760.56" style="fill:none;fill-rule:nonzero;stroke:black;stroke-width:0.72px;"/>
    </g>
    <g transform="matrix(1.15468,0.666702,0.666702,-1.15468,-512.811,705.501)">
        <path d="M293.146,775.5L313.064,775.5" style="fill:none;fill-rule:nonzero;stroke:black;stroke-width:0.72px;"/>
    </g>
    <g transform="matrix(1.15468,-0.666702,-0.666702,-1.15468,501.323,1115)">
        <path d="M293.146,745.62L313.064,745.62" style="fill:none;fill-rule:nonzero;stroke:black;stroke-width:0.72px;"/>
    </g>
    <g transform="matrix(1.15468,-0.666702,-0.666702,-1.15468,518.162,1098.16)">
        <path d="M275.896,775.5L295.814,775.5" style="fill:none;fill-rule:nonzero;stroke:black;stroke-width:0.72px;"/>
    </g>
    <g transform="matrix(1.15458,-0.666876,-0.666876,-1.15458,516.685,1099.77)">
        <path d="M279.238,772.59L295.832,772.59" style="fill:none;fill-rule:nonzero;stroke:black;stroke-width:0.72px;"/>
    </g>
    <g transform="matrix(1.15468,0.666702,0.666702,-1.15468,-495.972,722.34)">
        <path d="M275.896,745.62L295.814,745.62" style="fill:none;fill-rule:nonzero;stroke:black;stroke-width:0.72px;"/>
    </g>
    <g transform="matrix(1.15458,0.666876,0.666876,-1.15458,-497.713,720.574)">
        <path d="M279.238,748.53L295.832,748.53" style="fill:none;fill-rule:nonzero;stroke:black;stroke-width:0.72px;"/>
    </g>
    <g transform="matrix(0,-1.33333,-1.33333,0,1333.79,401.687)">
        <path d="M267.27,760.56L287.19,760.56" style="fill:none;fill-rule:nonzero;stroke:black;stroke-width:0.72px;"/>
    </g>
    <g transform="matrix(-1.15487,0.666378,0.666378,1.15487,126.78,-993.36)">
        <path d="M264.012,747.06L278.178,747.06" style="fill:none;fill-rule:nonzero;stroke:black;stroke-width:0.72px;"/>
    </g>
    <g transform="matrix(-1.15423,-0.667474,-0.667474,1.15423,1072.6,-641.284)">
        <path d="M246.586,745.73L255.734,745.73" style="fill:none;fill-rule:nonzero;stroke:black;stroke-width:0.72px;"/>
    </g>
    <g transform="matrix(1.15493,0.666269,0.666269,-1.15493,-491.037,701.133)">
        <path d="M310.801,747.13L324.689,747.13" style="fill:none;fill-rule:nonzero;stroke:black;stroke-width:0.72px;"/>
    </g>
    <g transform="matrix(1.15466,-0.666734,-0.666734,-1.15466,508.648,1139.13)">
        <path d="M337.415,746.78L341.815,746.78" style="fill:none;fill-rule:nonzero;stroke:black;stroke-width:0.72px;"/>
    </g>
    <g transform="matrix(1.33333,0,0,1.33333,-49.9346,-987.153)">
        <path d="M356.64,762.48L442.8,762.48" style="fill:none;fill-rule:nonzero;stroke:black;stroke-width:0.72px;"/>
    </g>
    <g transform="matrix(1.2958,0.314133,0.314133,-1.2958,-272.984,879.655)">
        <path d="M434.539,763.413L442.689,763.413L435.444,759.681L436.391,761.886L434.539,763.413Z" style="stroke:black;stroke-width:0.72px;"/>
    </g>
    <g transform="matrix(0.0227654,-1.33314,-1.33314,-0.0227654,1418.02,630.566)">
        <path d="M384.644,715.8L399.286,715.8" style="fill:none;fill-rule:nonzero;stroke:black;stroke-width:0.72px;"/>
    </g>
    <g transform="matrix(0.021669,-1.33316,-1.33316,-0.021669,1421.71,635.383)">
        <path d="M388.854,714.94L401.776,714.94" style="fill:none;fill-rule:nonzero;stroke:black;stroke-width:0.72px;"/>
    </g>
    <g transform="matrix(1.16561,-0.64741,-0.64741,-1.16561,488.575,1183.51)">
        <path d="M390.837,727.955L410.753,727.955" style="fill:none;fill-rule:nonzero;stroke:black;stroke-width:0.72px;"/>
    </g>
    <g transform="matrix(0.0225041,-1.33314,-1.33314,-0.0225041,1473.8,621.947)">
        <path d="M402.219,740.195L417.031,740.195" style="fill:none;fill-rule:nonzero;stroke:black;stroke-width:0.72px;"/>
    </g>
    <g transform="matrix(0.0213876,-1.33316,-1.33316,-0.0213876,1471.02,615.534)">
        <path d="M399.729,741.055L412.821,741.055" style="fill:none;fill-rule:nonzero;stroke:black;stroke-width:0.72px;"/>
    </g>
    <g transform="matrix(1.15468,0.666702,0.666702,-1.15468,-472.702,557.099)">
        <path d="M515.866,775.02L535.784,775.02" style="fill:none;fill-rule:nonzero;stroke:black;stroke-width:0.72px;"/>
    </g>
    <g transform="matrix(1.15468,-0.666702,-0.666702,-1.15468,540.792,1263.57)">
        <path d="M515.866,745.14L535.784,745.14" style="fill:none;fill-rule:nonzero;stroke:black;stroke-width:0.72px;"/>
    </g>
    <g transform="matrix(1.15468,-0.666702,-0.666702,-1.15468,557.632,1246.74)">
        <path d="M498.616,775.02L518.534,775.02" style="fill:none;fill-rule:nonzero;stroke:black;stroke-width:0.72px;"/>
    </g>
    <g transform="matrix(1.15458,-0.666876,-0.666876,-1.15458,556.177,1248.39)">
        <path d="M501.958,772.11L518.552,772.11" style="fill:none;fill-rule:nonzero;stroke:black;stroke-width:0.72px;"/>
    </g>
    <g transform="matrix(1.15468,0.666702,0.666702,-1.15468,-455.862,573.937)">
        <path d="M498.616,745.14L518.534,745.14" style="fill:none;fill-rule:nonzero;stroke:black;stroke-width:0.72px;"/>
    </g>
    <g transform="matrix(1.15458,0.666876,0.666876,-1.15458,-457.581,572.134)">
        <path d="M501.958,748.05L518.552,748.05" style="fill:none;fill-rule:nonzero;stroke:black;stroke-width:0.72px;"/>
    </g>
    <g transform="matrix(0,-1.33333,-1.33333,0,1630.11,699.287)">
        <path d="M489.99,760.08L509.91,760.08" style="fill:none;fill-rule:nonzero;stroke:black;stroke-width:0.72px;"/>
    </g>
    <g transform="matrix(0,-1.33333,-1.33333,0,1722.11,791.287)">
        <path d="M558.99,760.08L578.91,760.08" style="fill:none;fill-rule:nonzero;stroke:black;stroke-width:0.72px;"/>
    </g>
    <g transform="matrix(1.15468,0.666702,0.666702,-1.15468,-466.538,534.097)">
        <path d="M550.366,775.02L570.284,775.02" style="fill:none;fill-rule:nonzero;stroke:black;stroke-width:0.72px;"/>
    </g>
    <g transform="matrix(1.15468,-0.666702,-0.666702,-1.15468,546.956,1286.58)">
        <path d="M550.366,745.14L570.284,745.14" style="fill:none;fill-rule:nonzero;stroke:black;stroke-width:0.72px;"/>
    </g>
    <g transform="matrix(1.15468,0.666702,0.666702,-1.15468,-449.699,550.936)">
        <path d="M533.116,745.14L553.034,745.14" style="fill:none;fill-rule:nonzero;stroke:black;stroke-width:0.72px;"/>
    </g>
    <g transform="matrix(0,-1.33333,-1.33333,0,1676.11,745.287)">
        <path d="M524.49,760.08L544.41,760.08" style="fill:none;fill-rule:nonzero;stroke:black;stroke-width:0.72px;"/>
    </g>
    <g transform="matrix(0,-1.33333,-1.33333,0,1671.63,740.807)">
        <path d="M522.79,760.08L539.39,760.08" style="fill:none;fill-rule:nonzero;stroke:black;stroke-width:0.72px;"/>
    </g>
    <g transform="matrix(-1.21096,0.557991,0.557991,1.21096,910.354,-1240.09)">
        <path d="M544.199,778.355L552.061,778.355" style="fill:none;fill-rule:nonzero;stroke:black;stroke-width:0.72px;"/>
    </g>
    <g transform="matrix(-1.21147,0.556885,0.556885,1.21147,913.894,-1230.74)">
        <path d="M544.186,774.73L552.374,774.73" style="fill:none;fill-rule:nonzero;stroke:black;stroke-width:0.72px;"/>
    </g>
    <g transform="matrix(-1.15487,0.666378,0.666378,1.15487,681.272,-1140.58)">
        <path d="M486.732,746.58L500.898,746.58" style="fill:none;fill-rule:nonzero;stroke:black;stroke-width:0.72px;"/>
    </g>
    <g transform="matrix(-1.15423,-0.667474,-0.667474,1.15423,1626.31,-491.43)">
        <path d="M469.306,745.25L478.454,745.25" style="fill:none;fill-rule:nonzero;stroke:black;stroke-width:0.72px;"/>
    </g>
    <g transform="matrix(0,1.33333,1.33333,0,-232.815,-558.833)">
        <path d="M474.36,670.44L592.2,670.44" style="fill:none;fill-rule:nonzero;stroke:black;stroke-width:0.72px;"/>
    </g>
    <g transform="matrix(-0.314133,1.2958,1.2958,0.314133,31.0874,-658.88)">
        <path d="M528.979,616.413L537.129,616.413L529.884,612.681L530.831,614.886L528.979,616.413Z" style="stroke:black;stroke-width:0.72px;"/>
    </g>
    <g transform="matrix(1.33333,0,0,1.33333,-49.9346,-722.193)">
        <path d="M485.04,663.12L500.4,663.12" style="fill:none;fill-rule:nonzero;stroke:black;stroke-width:0.72px;"/>
    </g>
    <g transform="matrix(1.33333,0,0,1.33333,-49.9346,-713.233)">
        <path d="M485.04,659.76L498.74,659.76" style="fill:none;fill-rule:nonzero;stroke:black;stroke-width:0.72px;"/>
    </g>
    <g transform="matrix(0.666796,1.15463,1.15463,-0.666796,-472.818,26.357)">
        <path d="M496.936,657.12L510.794,657.12" style="fill:none;fill-rule:nonzero;stroke:black;stroke-width:0.72px;"/>
    </g>
    <g transform="matrix(1.15468,0.666702,0.666702,-1.15468,-329.463,595.996)">
        <path d="M515.146,559.98L535.064,559.98" style="fill:none;fill-rule:nonzero;stroke:black;stroke-width:0.72px;"/>
    </g>
    <g transform="matrix(1.15468,-0.666702,-0.666702,-1.15468,397.296,1301.51)">
        <path d="M515.146,530.1L535.064,530.1" style="fill:none;fill-rule:nonzero;stroke:black;stroke-width:0.72px;"/>
    </g>
    <g transform="matrix(1.15468,-0.666702,-0.666702,-1.15468,414.135,1284.67)">
        <path d="M497.896,559.98L517.814,559.98" style="fill:none;fill-rule:nonzero;stroke:black;stroke-width:0.72px;"/>
    </g>
    <g transform="matrix(1.15458,-0.666876,-0.666876,-1.15458,412.643,1286.35)">
        <path d="M501.238,557.07L517.832,557.07" style="fill:none;fill-rule:nonzero;stroke:black;stroke-width:0.72px;"/>
    </g>
    <g transform="matrix(1.15468,0.666702,0.666702,-1.15468,-312.623,612.835)">
        <path d="M497.896,530.1L517.814,530.1" style="fill:none;fill-rule:nonzero;stroke:black;stroke-width:0.72px;"/>
    </g>
    <g transform="matrix(1.15458,0.666876,0.666876,-1.15458,-314.305,611.053)">
        <path d="M501.238,533.01L517.832,533.01" style="fill:none;fill-rule:nonzero;stroke:black;stroke-width:0.72px;"/>
    </g>
    <g transform="matrix(0,-1.33333,-1.33333,0,1342.43,985.047)">
        <path d="M489.27,545.04L509.19,545.04" style="fill:none;fill-rule:nonzero;stroke:black;stroke-width:0.72px;"/>
    </g>
    <g transform="matrix(0,-1.33333,-1.33333,0,1434.43,1077.05)">
        <path d="M558.27,545.04L578.19,545.04" style="fill:none;fill-rule:nonzero;stroke:black;stroke-width:0.72px;"/>
    </g>
    <g transform="matrix(1.15468,0.666702,0.666702,-1.15468,-323.299,572.995)">
        <path d="M549.646,559.98L569.564,559.98" style="fill:none;fill-rule:nonzero;stroke:black;stroke-width:0.72px;"/>
    </g>
    <g transform="matrix(1.15468,-0.666702,-0.666702,-1.15468,403.46,1324.51)">
        <path d="M549.646,530.1L569.564,530.1" style="fill:none;fill-rule:nonzero;stroke:black;stroke-width:0.72px;"/>
    </g>
    <g transform="matrix(1.15468,0.666702,0.666702,-1.15468,-306.46,589.834)">
        <path d="M532.396,530.1L552.314,530.1" style="fill:none;fill-rule:nonzero;stroke:black;stroke-width:0.72px;"/>
    </g>
    <g transform="matrix(0,-1.33333,-1.33333,0,1388.43,1031.05)">
        <path d="M523.77,545.04L543.69,545.04" style="fill:none;fill-rule:nonzero;stroke:black;stroke-width:0.72px;"/>
    </g>
    <g transform="matrix(0,-1.33333,-1.33333,0,1383.95,1026.57)">
        <path d="M522.07,545.04L538.67,545.04" style="fill:none;fill-rule:nonzero;stroke:black;stroke-width:0.72px;"/>
    </g>
    <g transform="matrix(-1.13129,0.705658,0.705658,1.13129,901.042,-732.325)">
        <path d="M544.589,564.815L550.541,564.815" style="fill:none;fill-rule:nonzero;stroke:black;stroke-width:0.72px;"/>
    </g>
    <g transform="matrix(-1.13206,0.704429,0.704429,1.13206,906.752,-724.304)">
        <path d="M544.433,561.405L552.477,561.405" style="fill:none;fill-rule:nonzero;stroke:black;stroke-width:0.72px;"/>
    </g>
    <g transform="matrix(-1.15487,0.666378,0.666378,1.15487,822.778,-605.039)">
        <path d="M486.012,531.54L500.178,531.54" style="fill:none;fill-rule:nonzero;stroke:black;stroke-width:0.72px;"/>
    </g>
    <g transform="matrix(-1.15423,-0.667474,-0.667474,1.15423,1480.98,43.016)">
        <path d="M468.586,530.21L477.734,530.21" style="fill:none;fill-rule:nonzero;stroke:black;stroke-width:0.72px;"/>
    </g>
    <g transform="matrix(-0.0220853,-1.33315,-1.33315,0.0220853,1463.11,1001.19)">
        <path d="M540.854,574.92L560.776,574.92" style="fill:none;fill-rule:nonzero;stroke:black;stroke-width:0.72px;"/>
    </g>
    <g transform="matrix(1.14389,-0.685044,-0.685044,-1.14389,458.764,1316.09)">
        <path d="M549.624,588.59L564.066,588.59" style="fill:none;fill-rule:nonzero;stroke:black;stroke-width:0.72px;"/>
    </g>
    <g transform="matrix(1.14375,-0.685282,-0.685282,-1.14375,458.013,1318.51)">
        <path d="M552.822,586.385L566.578,586.385" style="fill:none;fill-rule:nonzero;stroke:black;stroke-width:0.72px;"/>
    </g>
    <g transform="matrix(-1.33333,0,0,1.33333,948.785,-406.673)">
        <path d="M312.96,544.8L436.08,544.8" style="fill:none;fill-rule:nonzero;stroke:black;stroke-width:0.72px;"/>
    </g>
    <g transform="matrix(-1.2958,-0.314133,-0.314133,1.2958,954.43,-286.67)">
        <path d="M312.619,545.733L320.769,545.733L313.524,542.001L314.471,544.206L312.619,545.733Z" style="stroke:black;stroke-width:0.72px;"/>
    </g>
    <g transform="matrix(0.787091,1.07623,1.07623,-0.787091,-372.166,368.813)">
        <path d="M369.629,492.07L389.551,492.07" style="fill:none;fill-rule:nonzero;stroke:black;stroke-width:0.72px;"/>
    </g>
    <g transform="matrix(-1.26671,0.416213,0.416213,1.26671,774.158,-384.833)">
        <path d="M384.972,487.14L404.898,487.14" style="fill:none;fill-rule:nonzero;stroke:black;stroke-width:0.72px;"/>
    </g>
    <g transform="matrix(-0.780043,1.08135,1.08135,0.780043,202.641,-438.268)">
        <path d="M369.578,508.185L389.492,508.185" style="fill:none;fill-rule:nonzero;stroke:black;stroke-width:0.72px;"/>
    </g>
    <g transform="matrix(0.00468538,1.33333,1.33333,-0.00468538,-179.618,-157.626)">
        <path d="M394.405,500.21L414.325,500.21" style="fill:none;fill-rule:nonzero;stroke:black;stroke-width:0.72px;"/>
    </g>
    <g transform="matrix(-1.26952,-0.407557,-0.407557,1.26952,1186.95,-128.773)">
        <path d="M384.883,513.215L404.807,513.215" style="fill:none;fill-rule:nonzero;stroke:black;stroke-width:0.72px;"/>
    </g>
    <g transform="matrix(-0.416428,-1.26664,-1.26664,0.416428,1286.27,617.791)">
        <path d="M377.884,523.35L391.716,523.35" style="fill:none;fill-rule:nonzero;stroke:black;stroke-width:0.72px;"/>
    </g>
    <g transform="matrix(-0.416273,-1.26669,-1.26669,0.416273,1279.7,614.545)">
        <path d="M373.977,522.83L388.903,522.83" style="fill:none;fill-rule:nonzero;stroke:black;stroke-width:0.72px;"/>
    </g>
    <g transform="matrix(-0.407841,1.26943,1.26943,0.407841,8.46707,-269.385)">
        <path d="M374.008,477.35L389.112,477.35" style="fill:none;fill-rule:nonzero;stroke:black;stroke-width:0.72px;"/>
    </g>
    <g transform="matrix(-0.407643,1.26949,1.26949,0.407643,14.8672,-272.698)">
        <path d="M377.909,476.84L391.941,476.84" style="fill:none;fill-rule:nonzero;stroke:black;stroke-width:0.72px;"/>
    </g>
    <g transform="matrix(-1.33333,0.00468538,0.00468538,1.33333,917.719,-289.106)">
        <path d="M353.79,500.075L373.71,500.075" style="fill:none;fill-rule:nonzero;stroke:black;stroke-width:0.72px;"/>
    </g>
    <g transform="matrix(-0.670409,-1.15253,-1.15253,0.670409,1235.2,435.725)">
        <path d="M343.254,506.1L357.276,506.1" style="fill:none;fill-rule:nonzero;stroke:black;stroke-width:0.72px;"/>
    </g>
    <g transform="matrix(1.15468,0.666702,0.666702,-1.15468,-366.669,822.522)">
        <path d="M184.186,527.1L204.104,527.1" style="fill:none;fill-rule:nonzero;stroke:black;stroke-width:0.72px;"/>
    </g>
    <g transform="matrix(1.15468,-0.666702,-0.666702,-1.15468,316.248,1086.73)">
        <path d="M184.186,497.22L204.104,497.22" style="fill:none;fill-rule:nonzero;stroke:black;stroke-width:0.72px;"/>
    </g>
    <g transform="matrix(1.15468,-0.666702,-0.666702,-1.15468,333.087,1069.9)">
        <path d="M166.936,527.1L186.854,527.1" style="fill:none;fill-rule:nonzero;stroke:black;stroke-width:0.72px;"/>
    </g>
    <g transform="matrix(1.15458,-0.666876,-0.666876,-1.15458,331.556,1071.51)">
        <path d="M170.278,524.19L186.872,524.19" style="fill:none;fill-rule:nonzero;stroke:black;stroke-width:0.72px;"/>
    </g>
    <g transform="matrix(1.15468,0.666702,0.666702,-1.15468,-349.829,839.361)">
        <path d="M166.936,497.22L186.854,497.22" style="fill:none;fill-rule:nonzero;stroke:black;stroke-width:0.72px;"/>
    </g>
    <g transform="matrix(1.15458,0.666876,0.666876,-1.15458,-351.538,837.64)">
        <path d="M170.278,500.13L186.872,500.13" style="fill:none;fill-rule:nonzero;stroke:black;stroke-width:0.72px;"/>
    </g>
    <g transform="matrix(0,-1.33333,-1.33333,0,857.305,587.607)">
        <path d="M158.31,512.16L178.23,512.16" style="fill:none;fill-rule:nonzero;stroke:black;stroke-width:0.72px;"/>
    </g>
    <g transform="matrix(0,-1.33333,-1.33333,0,949.319,679.621)">
        <path d="M227.32,512.16L247.24,512.16" style="fill:none;fill-rule:nonzero;stroke:black;stroke-width:0.72px;"/>
    </g>
    <g transform="matrix(1.15485,0.666412,0.666412,-1.15485,-360.39,799.672)">
        <path d="M218.686,527.1L238.614,527.1" style="fill:none;fill-rule:nonzero;stroke:black;stroke-width:0.72px;"/>
    </g>
    <g transform="matrix(1.15485,-0.666412,-0.666412,-1.15485,322.23,1109.76)">
        <path d="M218.686,497.22L238.614,497.22" style="fill:none;fill-rule:nonzero;stroke:black;stroke-width:0.72px;"/>
    </g>
    <g transform="matrix(1.15468,0.666702,0.666702,-1.15468,-343.666,816.36)">
        <path d="M201.436,497.22L221.354,497.22" style="fill:none;fill-rule:nonzero;stroke:black;stroke-width:0.72px;"/>
    </g>
    <g transform="matrix(0,-1.33333,-1.33333,0,903.305,633.607)">
        <path d="M192.81,512.16L212.73,512.16" style="fill:none;fill-rule:nonzero;stroke:black;stroke-width:0.72px;"/>
    </g>
    <g transform="matrix(0,-1.33333,-1.33333,0,898.825,629.127)">
        <path d="M191.11,512.16L207.71,512.16" style="fill:none;fill-rule:nonzero;stroke:black;stroke-width:0.72px;"/>
    </g>
    <g transform="matrix(-1.15487,0.666378,0.666378,1.15487,21.1937,-302.682)">
        <path d="M155.052,498.66L169.218,498.66" style="fill:none;fill-rule:nonzero;stroke:black;stroke-width:0.72px;"/>
    </g>
    <g transform="matrix(-1.15423,-0.667474,-0.667474,1.15423,635.752,-96.0999)">
        <path d="M137.626,497.33L146.774,497.33" style="fill:none;fill-rule:nonzero;stroke:black;stroke-width:0.72px;"/>
    </g>
    <g transform="matrix(0,-1.33333,-1.33333,0,966.145,616.767)">
        <path d="M210.06,542.04L229.98,542.04" style="fill:none;fill-rule:nonzero;stroke:black;stroke-width:0.72px;"/>
    </g>
    <g transform="matrix(-1.16328,0.651583,0.651583,1.16328,142.935,-422.289)">
        <path d="M212.418,531.78L219.662,531.78" style="fill:none;fill-rule:nonzero;stroke:black;stroke-width:0.72px;"/>
    </g>
    <g transform="matrix(-1.16319,0.651738,0.651738,1.16319,147.096,-414.323)">
        <path d="M212.298,528.38L221.422,528.38" style="fill:none;fill-rule:nonzero;stroke:black;stroke-width:0.72px;"/>
    </g>
    <g transform="matrix(1.15468,-0.666702,-0.666702,-1.15468,362.253,1099.06)">
        <path d="M218.686,556.98L238.604,556.98" style="fill:none;fill-rule:nonzero;stroke:black;stroke-width:0.72px;"/>
    </g>
    <g transform="matrix(1.15468,0.666702,0.666702,-1.15468,-377.344,782.682)">
        <path d="M235.936,556.98L255.854,556.98" style="fill:none;fill-rule:nonzero;stroke:black;stroke-width:0.72px;"/>
    </g>
    <g transform="matrix(0,1.33333,1.33333,0,-433.295,-15.9528)">
        <path d="M244.56,542.04L264.48,542.04" style="fill:none;fill-rule:nonzero;stroke:black;stroke-width:0.72px;"/>
    </g>
    <g transform="matrix(1.15485,-0.666412,-0.666412,-1.15485,368.212,1122.08)">
        <path d="M253.186,556.98L273.114,556.98" style="fill:none;fill-rule:nonzero;stroke:black;stroke-width:0.72px;"/>
    </g>
    <g transform="matrix(1.15468,0.666702,0.666702,-1.15468,-371.179,759.674)">
        <path d="M270.446,556.98L290.364,556.98" style="fill:none;fill-rule:nonzero;stroke:black;stroke-width:0.72px;"/>
    </g>
    <g transform="matrix(0,1.33333,1.33333,0,-387.281,-61.9661)">
        <path d="M279.07,542.04L298.99,542.04" style="fill:none;fill-rule:nonzero;stroke:black;stroke-width:0.72px;"/>
    </g>
    <g transform="matrix(-1.33333,0,0,1.33333,674.799,-372.753)">
        <path d="M254.52,532.08L289.03,532.08" style="fill:none;fill-rule:nonzero;stroke:black;stroke-width:0.72px;"/>
    </g>
    <g transform="matrix(0,-1.33333,-1.33333,0,1073.8,651.621)">
        <path d="M266.08,569.34L280.84,569.34" style="fill:none;fill-rule:nonzero;stroke:black;stroke-width:0.72px;"/>
    </g>
    <g transform="matrix(0,-1.33333,-1.33333,0,1069.32,647.141)">
        <path d="M262.72,569.34L277.48,569.34" style="fill:none;fill-rule:nonzero;stroke:black;stroke-width:0.72px;"/>
    </g>
    <g transform="matrix(-1.1487,0.676948,0.676948,1.1487,212.272,-443.427)">
        <path d="M247.199,531.765L254.151,531.765" style="fill:none;fill-rule:nonzero;stroke:black;stroke-width:0.72px;"/>
    </g>
    <g transform="matrix(-1.14921,0.676092,0.676092,1.14921,217.275,-435.618)">
        <path d="M247.063,528.365L255.997,528.365" style="fill:none;fill-rule:nonzero;stroke:black;stroke-width:0.72px;"/>
    </g>
    <g transform="matrix(0,1.33333,1.33333,0,-363.375,194.447)">
        <path d="M166.92,436.92L236.76,436.92" style="fill:none;fill-rule:nonzero;stroke:black;stroke-width:0.72px;"/>
    </g>
    <g transform="matrix(-0.314133,1.2958,1.2958,0.314133,-243.453,115.777)">
        <path d="M197.539,406.893L205.689,406.893L198.444,403.161L199.391,405.366L197.539,406.893Z" style="stroke:black;stroke-width:0.72px;"/>
    </g>
</svg>
