<?xml version="1.0" encoding="UTF-8" standalone="no"?>
<!DOCTYPE svg PUBLIC "-//W3C//DTD SVG 1.1//EN" "http://www.w3.org/Graphics/SVG/1.1/DTD/svg11.dtd">
<svg width="100%" height="100%" viewBox="0 0 685 240" version="1.1" xmlns="http://www.w3.org/2000/svg" xmlns:xlink="http://www.w3.org/1999/xlink" xml:space="preserve" xmlns:serif="http://www.serif.com/" style="fill-rule:evenodd;clip-rule:evenodd;stroke-linecap:round;stroke-linejoin:round;stroke-miterlimit:10;">
    <g transform="matrix(-1.15468,-0.666702,-0.666702,1.15468,654.843,-754.492)">
        <path d="M82.966,755.76L102.884,755.76" style="fill:none;fill-rule:nonzero;stroke:black;stroke-width:0.72px;"/>
    </g>
    <g transform="matrix(-1.15468,0.666702,0.666702,1.15468,-309.973,-889.899)">
        <path d="M100.216,755.76L120.134,755.76" style="fill:none;fill-rule:nonzero;stroke:black;stroke-width:0.72px;"/>
    </g>
    <g transform="matrix(-1.15468,-0.666702,-0.666702,1.15468,740.679,-731.49)">
        <path d="M117.466,755.76L137.384,755.76" style="fill:none;fill-rule:nonzero;stroke:black;stroke-width:0.72px;"/>
    </g>
    <g transform="matrix(-1.15468,0.666702,0.666702,1.15468,-224.136,-912.9)">
        <path d="M134.716,755.76L154.634,755.76" style="fill:none;fill-rule:nonzero;stroke:black;stroke-width:0.72px;"/>
    </g>
    <g transform="matrix(0,-1.33333,-1.33333,0,1058.54,154.416)">
        <path d="M78.63,768.09L93.33,768.09" style="fill:none;fill-rule:nonzero;stroke:black;stroke-width:0.72px;"/>
    </g>
    <g transform="matrix(0,-1.33333,-1.33333,0,1054.06,149.936)">
        <path d="M75.27,768.09L89.97,768.09" style="fill:none;fill-rule:nonzero;stroke:black;stroke-width:0.72px;"/>
    </g>
    <g transform="matrix(-1.15464,0.666766,0.666766,1.15464,-391.159,-871.574)">
        <path d="M70.531,757.05L85.289,757.05" style="fill:none;fill-rule:nonzero;stroke:black;stroke-width:0.72px;"/>
    </g>
    <g transform="matrix(0,1.33333,1.33333,0,-890.063,-108.744)">
        <path d="M128.7,743.43L143.4,743.43" style="fill:none;fill-rule:nonzero;stroke:black;stroke-width:0.72px;"/>
    </g>
    <g transform="matrix(1.1547,0.666669,0.666669,-1.1547,-556.466,822.268)">
        <path d="M152.33,757.12L166.81,757.12" style="fill:none;fill-rule:nonzero;stroke:black;stroke-width:0.72px;"/>
    </g>
    <g transform="matrix(0,-1.33333,-1.33333,0,1150.54,246.416)">
        <path d="M147.63,768.09L162.33,768.09" style="fill:none;fill-rule:nonzero;stroke:black;stroke-width:0.72px;"/>
    </g>
    <g transform="matrix(0,-1.33333,-1.33333,0,1146.06,241.936)">
        <path d="M144.27,768.09L158.97,768.09" style="fill:none;fill-rule:nonzero;stroke:black;stroke-width:0.72px;"/>
    </g>
    <g transform="matrix(1.33333,0,0,1.33333,-80.2226,-914.344)">
        <path d="M131.28,753.6L129.12,754.56L126.72,755.28L123.12,755.28L121.44,755.04L119.76,754.56L118.32,754.08L116.64,753.12L115.44,752.4L113.04,750L112.08,748.56L111.36,747.12L110.64,745.44L110.16,744L109.92,742.08L109.92,739.2L110.4,737.76L110.88,736.08L111.36,734.64L112.08,733.2L113.04,732L114.24,730.8L116.64,728.88L117.36,728.4" style="fill:none;fill-rule:nonzero;stroke:black;stroke-width:0.48px;"/>
    </g>
    <g transform="matrix(1.20021,-0.580748,-0.580748,-1.20021,371.581,1029.8)">
        <path d="M110.187,753.324L118.452,753.324L111.204,749.366L112.354,751.742L110.187,753.324Z" style="stroke:black;stroke-width:0.48px;"/>
    </g>
    <g transform="matrix(1.33333,0,0,1.33333,-80.2226,-987.304)">
        <path d="M88.56,775.92L88.56,774.72L88.8,773.52L89.04,772.56L89.28,771.36L90.72,768.48L91.68,767.28L92.88,766.08L94.08,765.12L95.52,764.16L96.96,763.44L98.64,762.96L99.6,762.72L100.8,762.48L103.2,762.48L104.4,762.72L105.36,762.96L106.56,763.2L109.44,764.64L110.64,765.6L111.84,766.8L112.8,768L113.76,769.44L114.48,770.88L114.96,772.56L115.2,773.52L115.44,774.72L115.44,775.92" style="fill:none;fill-rule:nonzero;stroke:black;stroke-width:0.48px;"/>
    </g>
    <g transform="matrix(0.117192,1.32817,1.32817,-0.117192,-989.186,12.4338)">
        <path d="M85.527,765.006L93.719,765.006L86.343,768.789L87.587,766.511L85.527,765.006Z" style="stroke:black;stroke-width:0.48px;"/>
    </g>
    <g transform="matrix(1.33333,0,0,1.33333,-80.2226,-993.384)">
        <path d="M80.16,780.96L78.48,781.2L77.28,780.96L76.08,780.96L74.88,780.48L72.96,779.52L72,778.8L71.28,778.08L70.56,777.12L69.84,776.4L69.36,775.2L69.12,774.24L68.64,773.04L68.64,769.92L68.88,768.72L69.84,766.32L70.56,765.36L71.52,764.4L73.44,762.96L74.64,762.24L75.84,762L76.56,761.76" style="fill:none;fill-rule:nonzero;stroke:black;stroke-width:0.48px;"/>
    </g>
    <g transform="matrix(1.30594,-0.268871,-0.268871,-1.30594,131.095,1062.06)">
        <path d="M68.677,780.323L77.009,780.323L69.597,776.458L70.835,778.899L68.677,780.323Z" style="stroke:black;stroke-width:0.48px;"/>
    </g>
    <g transform="matrix(1.33333,0,0,1.33333,-80.2226,-965.544)">
        <path d="M189.12,761.04L223.2,761.04" style="fill:none;fill-rule:nonzero;stroke:black;stroke-width:0.72px;"/>
    </g>
    <g transform="matrix(1.33333,0,0,1.33333,-80.2226,-973.224)">
        <path d="M189.12,763.92L223.2,763.92" style="fill:none;fill-rule:nonzero;stroke:black;stroke-width:0.72px;"/>
    </g>
    <g transform="matrix(1.33333,0,0,1.33333,-80.2226,-969.384)">
        <path d="M218.64,758.88L226.56,762.48L218.64,766.08" style="fill:none;fill-rule:nonzero;stroke:black;stroke-width:0.72px;"/>
    </g>
    <g transform="matrix(-1.15457,0.6669,0.6669,1.15457,58.9868,-982.047)">
        <path d="M250.538,753.235L265.192,753.235" style="fill:none;fill-rule:nonzero;stroke:black;stroke-width:0.72px;"/>
    </g>
    <g transform="matrix(1.15461,0.666821,0.666821,-1.15461,-533.139,749.498)">
        <path d="M262.337,751.595L277.753,751.595" style="fill:none;fill-rule:nonzero;stroke:black;stroke-width:0.72px;"/>
    </g>
    <g transform="matrix(1.1546,0.666839,0.666839,-1.1546,-535.263,748.318)">
        <path d="M264.147,754.99L277.623,754.99" style="fill:none;fill-rule:nonzero;stroke:black;stroke-width:0.72px;"/>
    </g>
    <g transform="matrix(0,-1.33333,-1.33333,0,1291.06,397.176)">
        <path d="M256.86,764.25L271.56,764.25" style="fill:none;fill-rule:nonzero;stroke:black;stroke-width:0.72px;"/>
    </g>
    <g transform="matrix(1.33333,0,0,1.33333,-80.2226,-968.104)">
        <path d="M305.04,762L339.12,762" style="fill:none;fill-rule:nonzero;stroke:black;stroke-width:0.72px;"/>
    </g>
    <g transform="matrix(1.2958,0.314133,0.314133,-1.2958,-307.013,930.011)">
        <path d="M330.859,762.933L339.009,762.933L331.764,759.201L332.711,761.406L330.859,762.933Z" style="stroke:black;stroke-width:0.72px;"/>
    </g>
    <g transform="matrix(-1.2958,0.314133,0.314133,1.2958,492.81,-1036.57)">
        <path d="M304.699,761.067L312.849,761.067L305.604,764.799L306.551,762.594L304.699,761.067Z" style="stroke:black;stroke-width:0.72px;"/>
    </g>
    <g transform="matrix(-1.15457,0.6669,0.6669,1.15457,326.516,-1060.8)">
        <path d="M358.778,755.875L373.432,755.875" style="fill:none;fill-rule:nonzero;stroke:black;stroke-width:0.72px;"/>
    </g>
    <g transform="matrix(1.15481,0.666483,0.666483,-1.15481,-516.428,676.542)">
        <path d="M371.483,755.93L385.927,755.93" style="fill:none;fill-rule:nonzero;stroke:black;stroke-width:0.72px;"/>
    </g>
    <g transform="matrix(0,-1.33333,-1.33333,0,1441.14,540.216)">
        <path d="M366.78,766.89L381.48,766.89" style="fill:none;fill-rule:nonzero;stroke:black;stroke-width:0.72px;"/>
    </g>
    <g transform="matrix(0,-1.33333,-1.33333,0,1436.66,535.736)">
        <path d="M363.42,766.89L378.12,766.89" style="fill:none;fill-rule:nonzero;stroke:black;stroke-width:0.72px;"/>
    </g>
    <g transform="matrix(1.33333,0,0,1.33333,-80.2226,-58.6639)">
        <text x="80.4px" y="65.28px" style="font-family:'ArialMT', 'Arial', sans-serif;font-size:10px;">O</text>
    </g>
    <g transform="matrix(1.33333,0,0,1.33333,-80.2226,-58.6639)">
        <text x="63.36px" y="95.04px" style="font-family:'ArialMT', 'Arial', sans-serif;font-size:10px;">R</text>
    </g>
    <g transform="matrix(1.33333,0,0,1.33333,-80.2226,-58.6639)">
        <text x="132.24px" y="114.96px" style="font-family:'ArialMT', 'Arial', sans-serif;font-size:10px;">H</text>
    </g>
    <g transform="matrix(1.33333,0,0,1.33333,-80.2226,-58.6639)">
        <text x="166.8px" y="95.04px" style="font-family:'ArialMT', 'Arial', sans-serif;font-size:10px;">R</text>
        <text x="174.24px" y="88.08px" style="font-family:'ArialMT', 'Arial', sans-serif;font-size:8px;">1</text>
    </g>
    <g transform="matrix(1.33333,0,0,1.33333,-80.2226,-58.6639)">
        <text x="149.28px" y="65.28px" style="font-family:'ArialMT', 'Arial', sans-serif;font-size:10px;">O</text>
    </g>
    <g transform="matrix(1.33333,0,0,1.33333,-80.2226,-58.6639)">
        <text x="243.36px" y="98.88px" style="font-family:'ArialMT', 'Arial', sans-serif;font-size:10px;">R</text>
    </g>
    <g transform="matrix(1.33333,0,0,1.33333,-80.2226,-58.6639)">
        <text x="277.68px" y="98.88px" style="font-family:'ArialMT', 'Arial', sans-serif;font-size:10px;">CH</text>
        <text x="292.08px" y="101.52px" style="font-family:'ArialMT', 'Arial', sans-serif;font-size:8px;">2</text>
    </g>
    <g transform="matrix(1.33333,0,0,1.33333,-80.2226,-58.6639)">
        <text x="260.16px" y="69.12px" style="font-family:'ArialMT', 'Arial', sans-serif;font-size:10px;">O</text>
        <text x="268.08px" y="62.16px" style="font-family:'ArialMT', 'Arial', sans-serif;font-size:8px;">–</text>
    </g>
    <g transform="matrix(1.33333,0,0,1.33333,-80.2226,-58.6639)">
        <text x="256.8px" y="66.48px" style="font-family:'ArialMT', 'Arial', sans-serif;font-size:10px;">:</text>
    </g>
    <g transform="matrix(-0.0233344,-1.33313,1.33313,-0.0233344,-80.2226,-58.6639)">
        <text x="-64.925px" y="263.144px" style="font-family:'ArialMT', 'Arial', sans-serif;font-size:10px;">:</text>
    </g>
    <g transform="matrix(1.33333,0,0,1.33333,-80.2226,-58.6639)">
        <text x="268.56px" y="67.44px" style="font-family:'ArialMT', 'Arial', sans-serif;font-size:10px;">:</text>
    </g>
    <g transform="matrix(1.33333,0,0,1.33333,-80.2226,-58.6639)">
        <text x="351.6px" y="96.24px" style="font-family:'ArialMT', 'Arial', sans-serif;font-size:10px;">R</text>
    </g>
    <g transform="matrix(1.33333,0,0,1.33333,-80.2226,-58.6639)">
        <text x="385.92px" y="96.24px" style="font-family:'ArialMT', 'Arial', sans-serif;font-size:10px;">CH</text>
        <text x="400.32px" y="98.88px" style="font-family:'ArialMT', 'Arial', sans-serif;font-size:8px;">2</text>
    </g>
    <g transform="matrix(1.33333,0,0,1.33333,-80.2226,-58.6639)">
        <text x="400.32px" y="89.28px" style="font-family:'ArialMT', 'Arial', sans-serif;font-size:8px;">–</text>
    </g>
    <g transform="matrix(1.33333,0,0,1.33333,-80.2226,-58.6639)">
        <text x="368.4px" y="66.48px" style="font-family:'ArialMT', 'Arial', sans-serif;font-size:10px;">O</text>
    </g>
    <g transform="matrix(-0.0558679,-1.33216,1.33216,-0.0558679,-80.2226,-58.6639)">
        <text x="-103.964px" y="386.453px" style="font-family:'ArialMT', 'Arial', sans-serif;font-size:10px;">:</text>
    </g>
    <g transform="matrix(1.33333,0,0,1.33333,-80.2226,-58.6639)">
        <text x="425.52px" y="86.16px" style="font-family:'ArialMT', 'Arial', sans-serif;font-size:18px;">+</text>
        <text x="446.16px" y="84.24px" style="font-family:'ArialMT', 'Arial', sans-serif;font-size:10px;">H</text>
        <text x="453.376px" y="77.28px" style="font-family:'ArialMT', 'Arial', sans-serif;font-size:8px;">+</text>
        <text x="466.08px" y="86.16px" style="font-family:'ArialMT', 'Arial', sans-serif;font-size:18px;"><tspan x="466.08px " y="86.16px ">+</tspan></text>
    </g>
    <g transform="matrix(1.33333,0,0,1.33333,-80.2226,-58.6639)">
        <text x="548.16px" y="92.64px" style="font-family:'ArialMT', 'Arial', sans-serif;font-size:10px;">R</text>
        <text x="555.6px" y="85.68px" style="font-family:'ArialMT', 'Arial', sans-serif;font-size:8px;">1</text>
    </g>
    <g transform="matrix(1.33333,0,0,1.33333,-80.2226,-58.6639)">
        <text x="530.64px" y="62.88px" style="font-family:'ArialMT', 'Arial', sans-serif;font-size:10px;">O</text>
    </g>
    <g transform="matrix(1.33333,0,0,1.33333,-80.2226,-58.6639)">
        <text x="496.56px" y="82.8px" style="font-family:'ArialMT', 'Arial', sans-serif;font-size:10px;">C</text>
    </g>
    <g transform="matrix(1.33333,0,0,1.33333,-80.2226,-58.6639)">
        <text x="485.04px" y="82.8px" style="font-family:'ArialMT', 'Arial', sans-serif;font-size:10px;">H</text>
        <text x="492.24px" y="85.44px" style="font-family:'ArialMT', 'Arial', sans-serif;font-size:8px;">2</text>
    </g>
    <g transform="matrix(1.33333,0,0,1.33333,-80.2226,-58.6639)">
        <text x="182.88px" y="180.72px" style="font-family:'ArialMT', 'Arial', sans-serif;font-size:10px;">R</text>
    </g>
    <g transform="matrix(1.33333,0,0,1.33333,-80.2226,-58.6639)">
        <text x="251.52px" y="180.72px" style="font-family:'ArialMT', 'Arial', sans-serif;font-size:10px;">O</text>
    </g>
    <g transform="matrix(1.33333,0,0,1.33333,-80.2226,-58.6639)">
        <text x="199.68px" y="150.96px" style="font-family:'ArialMT', 'Arial', sans-serif;font-size:10px;">O</text>
    </g>
    <g transform="matrix(1.33333,0,0,1.33333,-80.2226,-58.6639)">
        <text x="234.24px" y="150.96px" style="font-family:'ArialMT', 'Arial', sans-serif;font-size:10px;">O</text>
    </g>
    <g transform="matrix(1.33333,0,0,1.33333,-80.2226,-58.6639)">
        <text x="286.32px" y="180.72px" style="font-family:'ArialMT', 'Arial', sans-serif;font-size:10px;">CH</text>
        <text x="300.72px" y="183.36px" style="font-family:'ArialMT', 'Arial', sans-serif;font-size:8px;">3</text>
    </g>
    <g transform="matrix(1.33333,0,0,1.33333,-80.2226,-58.6639)">
        <text x="458.64px" y="188.4px" style="font-family:'ArialMT', 'Arial', sans-serif;font-size:10px;">N</text>
    </g>
    <g transform="matrix(1.33333,0,0,1.33333,-80.2226,-58.6639)">
        <text x="475.68px" y="218.88px" style="font-family:'ArialMT', 'Arial', sans-serif;font-size:10px;">CH</text>
        <text x="490.08px" y="221.52px" style="font-family:'ArialMT', 'Arial', sans-serif;font-size:8px;">2</text>
    </g>
    <g transform="matrix(1.33333,0,0,1.33333,-80.2226,-58.6639)">
        <text x="441.36px" y="217.92px" style="font-family:'ArialMT', 'Arial', sans-serif;font-size:10px;">R</text>
    </g>
    <g transform="matrix(1.33333,0,0,1.33333,-80.2226,-58.6639)">
        <text x="335.04px" y="215.52px" style="font-family:'ArialMT', 'Arial', sans-serif;font-size:10px;">R</text>
    </g>
    <g transform="matrix(1.33333,0,0,1.33333,-80.2226,-58.6639)">
        <text x="369.36px" y="215.52px" style="font-family:'ArialMT', 'Arial', sans-serif;font-size:10px;">CH</text>
        <text x="383.76px" y="218.16px" style="font-family:'ArialMT', 'Arial', sans-serif;font-size:8px;">2</text>
    </g>
    <g transform="matrix(1.33333,0,0,1.33333,-80.2226,-58.6639)">
        <text x="351.84px" y="185.76px" style="font-family:'ArialMT', 'Arial', sans-serif;font-size:10px;">O</text>
    </g>
    <g transform="matrix(1.33333,0,0,1.33333,-80.2226,-58.6639)">
        <text x="369.6px" y="175.68px" style="font-family:'ArialMT', 'Arial', sans-serif;font-size:10px;">S</text>
        <text x="376.32px" y="175.68px" style="font-family:'ArialMT', 'Arial', sans-serif;font-size:10px;">i</text>
        <text x="378.72px" y="175.68px" style="font-family:'ArialMT', 'Arial', sans-serif;font-size:10px;">M</text>
        <text x="387.12px" y="175.68px" style="font-family:'ArialMT', 'Arial', sans-serif;font-size:10px;">e</text>
        <text x="392.88px" y="178.32px" style="font-family:'ArialMT', 'Arial', sans-serif;font-size:8px;">3</text>
    </g>
    <g transform="matrix(1.33333,0,0,1.33333,-80.2226,-970.344)">
        <path d="M237.12,739.2L244.32,739.2L244.32,739.68L238.56,739.68L238.56,786L244.32,786L244.32,786.48L237.12,786.48L237.12,739.2Z" style="stroke:black;stroke-width:0.02px;"/>
    </g>
    <g transform="matrix(1.33333,0,0,1.33333,-80.2226,-970.344)">
        <path d="M413.76,739.2L406.56,739.2L406.56,739.68L412.32,739.68L412.32,786L406.56,786L406.56,786.48L413.76,786.48L413.76,739.2Z" style="stroke:black;stroke-width:0.02px;"/>
    </g>
    <g transform="matrix(-1.15468,0.666702,0.666702,1.15468,723.167,-1173.14)">
        <path d="M516.106,758.16L536.024,758.16" style="fill:none;fill-rule:nonzero;stroke:black;stroke-width:0.72px;"/>
    </g>
    <g transform="matrix(1.15481,0.666483,0.666483,-1.15481,-489.863,567.769)">
        <path d="M533.723,759.53L548.167,759.53" style="fill:none;fill-rule:nonzero;stroke:black;stroke-width:0.72px;"/>
    </g>
    <g transform="matrix(0,-1.33333,-1.33333,0,1662.26,751.736)">
        <path d="M529.02,770.49L543.72,770.49" style="fill:none;fill-rule:nonzero;stroke:black;stroke-width:0.72px;"/>
    </g>
    <g transform="matrix(0,-1.33333,-1.33333,0,1657.78,747.256)">
        <path d="M525.66,770.49L540.36,770.49" style="fill:none;fill-rule:nonzero;stroke:black;stroke-width:0.72px;"/>
    </g>
    <g transform="matrix(-1.15485,-0.666401,-0.666401,1.15485,1695.81,-478.704)">
        <path d="M503.737,756.85L518.423,756.85" style="fill:none;fill-rule:nonzero;stroke:black;stroke-width:0.72px;"/>
    </g>
    <g transform="matrix(-1.15457,-0.6669,-0.6669,1.15457,1699.16,-487.353)">
        <path d="M504.008,760.585L518.662,760.585" style="fill:none;fill-rule:nonzero;stroke:black;stroke-width:0.72px;"/>
    </g>
    <g transform="matrix(0,1.33333,1.33333,0,-680.863,-242.024)">
        <path d="M247.44,714.96L281.52,714.96" style="fill:none;fill-rule:nonzero;stroke:black;stroke-width:0.72px;"/>
    </g>
    <g transform="matrix(0,1.33333,1.33333,0,-677.023,-245.864)">
        <path d="M250.32,714.96L284.4,714.96" style="fill:none;fill-rule:nonzero;stroke:black;stroke-width:0.72px;"/>
    </g>
    <g transform="matrix(1.33333,0,0,1.33333,-80.2226,-798.824)">
        <path d="M269.52,694.56L265.92,702.48L262.32,694.56" style="fill:none;fill-rule:nonzero;stroke:black;stroke-width:0.72px;"/>
    </g>
    <g transform="matrix(-1.15457,0.6669,0.6669,1.15457,-36.9022,-738.103)">
        <path d="M190.058,671.395L204.712,671.395" style="fill:none;fill-rule:nonzero;stroke:black;stroke-width:0.72px;"/>
    </g>
    <g transform="matrix(1.15468,0.666702,0.666702,-1.15468,-489.028,802.607)">
        <path d="M202.396,670.08L222.314,670.08" style="fill:none;fill-rule:nonzero;stroke:black;stroke-width:0.72px;"/>
    </g>
    <g transform="matrix(1.15468,-0.666702,-0.666702,-1.15468,407.541,1097.26)">
        <path d="M219.646,670.08L239.564,670.08" style="fill:none;fill-rule:nonzero;stroke:black;stroke-width:0.72px;"/>
    </g>
    <g transform="matrix(1.15465,0.666756,0.666756,-1.15465,-484.28,780.958)">
        <path d="M237.276,671.5L251.514,671.5" style="fill:none;fill-rule:nonzero;stroke:black;stroke-width:0.72px;"/>
    </g>
    <g transform="matrix(0,-1.33333,-1.33333,0,1103.54,427.896)">
        <path d="M198.06,682.41L212.76,682.41" style="fill:none;fill-rule:nonzero;stroke:black;stroke-width:0.72px;"/>
    </g>
    <g transform="matrix(0,-1.33333,-1.33333,0,1099.06,423.416)">
        <path d="M194.7,682.41L209.4,682.41" style="fill:none;fill-rule:nonzero;stroke:black;stroke-width:0.72px;"/>
    </g>
    <g transform="matrix(0,-1.33333,-1.33333,0,1149.54,473.896)">
        <path d="M232.56,682.41L247.26,682.41" style="fill:none;fill-rule:nonzero;stroke:black;stroke-width:0.72px;"/>
    </g>
    <g transform="matrix(0,-1.33333,-1.33333,0,1145.06,469.416)">
        <path d="M229.2,682.41L243.9,682.41" style="fill:none;fill-rule:nonzero;stroke:black;stroke-width:0.72px;"/>
    </g>
    <g transform="matrix(1.15488,-0.666351,-0.666351,-1.15488,414.801,1121.7)">
        <path d="M259.447,671.5L273.693,671.5" style="fill:none;fill-rule:nonzero;stroke:black;stroke-width:0.72px;"/>
    </g>
    <g transform="matrix(1.15455,0.66693,0.66693,-1.15455,-478.12,757.75)">
        <path d="M271.763,671.415L286.337,671.415" style="fill:none;fill-rule:nonzero;stroke:black;stroke-width:0.72px;"/>
    </g>
    <g transform="matrix(1.06834,-0.797759,-0.797759,-1.06834,575.681,1264.58)">
        <path d="M465.38,665.225L479.67,665.225" style="fill:none;fill-rule:nonzero;stroke:black;stroke-width:0.72px;"/>
    </g>
    <g transform="matrix(0.428459,1.26262,1.26262,-0.428459,-507.59,-150.256)">
        <path d="M465.092,678.93L485.008,678.93" style="fill:none;fill-rule:nonzero;stroke:black;stroke-width:0.72px;"/>
    </g>
    <g transform="matrix(1.08888,0.769497,0.769497,-1.08888,-481.45,553.644)">
        <path d="M444.711,664.96L458.989,664.96" style="fill:none;fill-rule:nonzero;stroke:black;stroke-width:0.72px;"/>
    </g>
    <g transform="matrix(1.33322,-0.0174015,-0.0174015,-1.33322,-68.1939,1071.86)">
        <path d="M451.929,688.23L471.851,688.23" style="fill:none;fill-rule:nonzero;stroke:black;stroke-width:0.72px;"/>
    </g>
    <g transform="matrix(-0.395641,1.27328,1.27328,0.395641,-167.992,-681.04)">
        <path d="M439.016,678.59L458.934,678.59" style="fill:none;fill-rule:nonzero;stroke:black;stroke-width:0.72px;"/>
    </g>
    <g transform="matrix(0.0172791,1.33322,1.33322,-0.0172791,-331.521,-401.501)">
        <path d="M455.124,644.99L469.786,644.99" style="fill:none;fill-rule:nonzero;stroke:black;stroke-width:0.72px;"/>
    </g>
    <g transform="matrix(1.12711,0.712315,0.712315,-1.12711,-433.935,600.047)">
        <path d="M460.454,632.11L475.916,632.11" style="fill:none;fill-rule:nonzero;stroke:black;stroke-width:0.72px;"/>
    </g>
    <g transform="matrix(1.12722,0.712141,0.712141,-1.12722,-436.119,598.854)">
        <path d="M462.42,635.52L475.75,635.52" style="fill:none;fill-rule:nonzero;stroke:black;stroke-width:0.72px;"/>
    </g>
    <g transform="matrix(-1.1636,0.651009,0.651009,1.1636,645.717,-816.08)">
        <path d="M448.57,634.015L463.5,634.015" style="fill:none;fill-rule:nonzero;stroke:black;stroke-width:0.72px;"/>
    </g>
    <g transform="matrix(-1.15457,0.6669,0.6669,1.15457,364.865,-753)">
        <path d="M342.218,636.595L356.872,636.595" style="fill:none;fill-rule:nonzero;stroke:black;stroke-width:0.72px;"/>
    </g>
    <g transform="matrix(1.15461,0.666821,0.666821,-1.15461,-438.976,709.21)">
        <path d="M354.017,634.955L369.433,634.955" style="fill:none;fill-rule:nonzero;stroke:black;stroke-width:0.72px;"/>
    </g>
    <g transform="matrix(1.1546,0.666839,0.666839,-1.1546,-441.097,708.03)">
        <path d="M355.827,638.35L369.303,638.35" style="fill:none;fill-rule:nonzero;stroke:black;stroke-width:0.72px;"/>
    </g>
    <g transform="matrix(0,-1.33333,-1.33333,0,1257.78,674.936)">
        <path d="M348.54,647.61L363.24,647.61" style="fill:none;fill-rule:nonzero;stroke:black;stroke-width:0.72px;"/>
    </g>
    <g transform="matrix(1.15487,-0.666381,-0.666381,-1.15487,428.174,1188.19)">
        <path d="M360.108,665.255L369.252,665.255" style="fill:none;fill-rule:nonzero;stroke:black;stroke-width:0.72px;"/>
    </g>
    <g transform="matrix(0.908696,0.975731,0.975731,-0.908696,-593.156,355.472)">
        <path d="M396.599,707.64L439.561,707.64" style="fill:none;fill-rule:nonzero;stroke:black;stroke-width:0.72px;"/>
    </g>
    <g transform="matrix(0.908696,0.975731,0.975731,-0.908696,-594.01,352.315)">
        <path d="M398.999,709.56L441.961,709.56" style="fill:none;fill-rule:nonzero;stroke:black;stroke-width:0.72px;"/>
    </g>
    <g transform="matrix(1.33333,0,0,1.33333,-80.2226,-788.264)">
        <path d="M433.44,690.48L436.32,698.64L428.16,695.28" style="fill:none;fill-rule:nonzero;stroke:black;stroke-width:0.72px;"/>
    </g>
    <g transform="matrix(0,1.33333,1.33333,0,-551.263,-376.744)">
        <path d="M346.56,716.88L380.64,716.88" style="fill:none;fill-rule:nonzero;stroke:black;stroke-width:0.72px;"/>
    </g>
    <g transform="matrix(0,1.33333,1.33333,0,-547.423,-380.584)">
        <path d="M349.44,716.88L383.52,716.88" style="fill:none;fill-rule:nonzero;stroke:black;stroke-width:0.72px;"/>
    </g>
    <g transform="matrix(1.33333,0,0,1.33333,-80.2226,-803.944)">
        <path d="M368.64,696.48L365.04,704.4L361.44,696.48" style="fill:none;fill-rule:nonzero;stroke:black;stroke-width:0.72px;"/>
    </g>
</svg>
