<?xml version="1.0" encoding="UTF-8" standalone="no"?>
<!DOCTYPE svg PUBLIC "-//W3C//DTD SVG 1.1//EN" "http://www.w3.org/Graphics/SVG/1.1/DTD/svg11.dtd">
<svg width="100%" height="100%" viewBox="0 0 810 305" version="1.1" xmlns="http://www.w3.org/2000/svg" xmlns:xlink="http://www.w3.org/1999/xlink" xml:space="preserve" xmlns:serif="http://www.serif.com/" style="fill-rule:evenodd;clip-rule:evenodd;stroke-linecap:round;stroke-linejoin:round;stroke-miterlimit:10;">
    <g transform="matrix(1.33333,0,0,1.33333,-64.1746,-50.8794)">
        <text x="64.32px" y="69.36px" style="font-family:'ArialMT', 'Arial', sans-serif;font-size:10px;">O</text>
    </g>
    <g transform="matrix(1.33333,0,0,1.33333,-64.1746,-50.8794)">
        <text x="135.12px" y="76.56px" style="font-family:'ArialMT', 'Arial', sans-serif;font-size:10px;">N</text>
        <text x="134.64px" y="96.48px" style="font-family:'ArialMT', 'Arial', sans-serif;font-size:10px;">H</text>
    </g>
    <g transform="matrix(1.33333,0,0,1.33333,-64.1746,-50.8794)">
        <text x="157.2px" y="79.44px" style="font-family:'ArialMT', 'Arial', sans-serif;font-size:10px;">;</text>
        <text x="163.069px" y="79.44px" style="font-family:'ArialMT', 'Arial', sans-serif;font-size:10px;">H</text>
        <text x="170.269px" y="74.4px" style="font-family:'ArialMT', 'Arial', sans-serif;font-size:6px;">+</text>
    </g>
    <g transform="matrix(1.33333,0,0,1.33333,-64.1746,-50.8794)">
        <text x="119.04px" y="116.64px" style="font-family:'ArialMT', 'Arial', sans-serif;font-size:10px;">2</text>
        <text x="124.56px" y="116.64px" style="font-family:'ArialMT', 'Arial', sans-serif;font-size:10px;">)</text>
        <text x="130.832px" y="116.64px" style="font-family:'ArialMT', 'Arial', sans-serif;font-size:10px;">CH</text>
        <text x="145.232px" y="119.28px" style="font-family:'ArialMT', 'Arial', sans-serif;font-size:6px;">3</text>
        <text x="148.832px" y="116.64px" style="font-family:'ArialMT', 'Arial', sans-serif;font-size:10px;">I</text>
        <text x="111.84px" y="132px" style="font-family:'ArialMT', 'Arial', sans-serif;font-size:10px;">3</text>
        <text x="117.339px" y="132px" style="font-family:'ArialMT', 'Arial', sans-serif;font-size:10px;">)</text>
        <text x="123.57px" y="132px" style="font-family:'ArialMT', 'Arial', sans-serif;font-size:10px;">H</text>
        <text x="130.749px" y="134.64px" style="font-family:'ArialMT', 'Arial', sans-serif;font-size:6px;">2</text>
        <text x="134.336px" y="132px" style="font-family:'ArialMT', 'Arial', sans-serif;font-size:10px;">O<tspan x="142.235px " y="132px ">;</tspan></text>
        <text x="148.142px" y="132px" style="font-family:'ArialMT', 'Arial', sans-serif;font-size:10px;">H</text>
        <text x="155.321px" y="126.96px" style="font-family:'ArialMT', 'Arial', sans-serif;font-size:6px;">+</text>
    </g>
    <g transform="matrix(1.33333,0,0,1.33333,-64.1746,-50.8794)">
        <text x="110.88px" y="77.28px" style="font-family:'ArialMT', 'Arial', sans-serif;font-size:10px;">1)</text>
    </g>
    <g transform="matrix(1.33333,0,0,1.33333,-64.1746,-50.8794)">
        <text x="239.28px" y="69.12px" style="font-family:'ArialMT', 'Arial', sans-serif;font-size:10px;">O</text>
    </g>
    <g transform="matrix(1.33333,0,0,1.33333,-64.1746,-50.8794)">
        <text x="205.2px" y="89.28px" style="font-family:'ArialMT', 'Arial', sans-serif;font-size:10px;">C</text>
    </g>
    <g transform="matrix(1.33333,0,0,1.33333,-64.1746,-50.8794)">
        <text x="193.68px" y="89.28px" style="font-family:'ArialMT', 'Arial', sans-serif;font-size:10px;">H</text>
        <text x="200.88px" y="91.92px" style="font-family:'ArialMT', 'Arial', sans-serif;font-size:8px;">3</text>
    </g>
    <g transform="matrix(1.33333,0,0,1.33333,-64.1746,-50.8794)">
        <text x="291.6px" y="96.72px" style="font-family:'ArialMT', 'Arial', sans-serif;font-size:10px;">LDA</text>
        <text x="283.2px" y="115.68px" style="font-family:'ArialMT', 'Arial', sans-serif;font-size:10px;">M</text>
        <text x="291.6px" y="115.68px" style="font-family:'ArialMT', 'Arial', sans-serif;font-size:10px;">e</text>
        <text x="297.12px" y="118.32px" style="font-family:'ArialMT', 'Arial', sans-serif;font-size:6px;">3</text>
        <text x="300.72px" y="115.68px" style="font-family:'ArialMT', 'Arial', sans-serif;font-size:10px;">S</text>
        <text x="307.44px" y="115.68px" style="font-family:'ArialMT', 'Arial', sans-serif;font-size:10px;">i</text>
        <text x="309.84px" y="115.68px" style="font-family:'ArialMT', 'Arial', sans-serif;font-size:10px;">Cl</text>
    </g>
    <g transform="matrix(1.33333,0,0,1.33333,-64.1746,-50.8794)">
        <text x="381.36px" y="69.12px" style="font-family:'ArialMT', 'Arial', sans-serif;font-size:10px;">O</text>
        <text x="389.28px" y="69.12px" style="font-family:'ArialMT', 'Arial', sans-serif;font-size:10px;">S</text>
        <text x="396px" y="69.12px" style="font-family:'ArialMT', 'Arial', sans-serif;font-size:10px;">i</text>
        <text x="398.4px" y="69.12px" style="font-family:'ArialMT', 'Arial', sans-serif;font-size:10px;">M</text>
        <text x="406.8px" y="69.12px" style="font-family:'ArialMT', 'Arial', sans-serif;font-size:10px;">e</text>
        <text x="412.56px" y="71.76px" style="font-family:'ArialMT', 'Arial', sans-serif;font-size:8px;">3</text>
    </g>
    <g transform="matrix(1.33333,0,0,1.33333,-64.1746,-50.8794)">
        <text x="347.28px" y="89.28px" style="font-family:'ArialMT', 'Arial', sans-serif;font-size:10px;">C</text>
    </g>
    <g transform="matrix(1.33333,0,0,1.33333,-64.1746,-50.8794)">
        <text x="335.76px" y="89.28px" style="font-family:'ArialMT', 'Arial', sans-serif;font-size:10px;">H</text>
        <text x="342.96px" y="91.92px" style="font-family:'ArialMT', 'Arial', sans-serif;font-size:8px;">3</text>
    </g>
    <g transform="matrix(1.33333,0,0,1.33333,-64.1746,-50.8794)">
        <text x="500.64px" y="68.16px" style="font-family:'ArialMT', 'Arial', sans-serif;font-size:10px;">CH</text>
        <text x="515.04px" y="70.8px" style="font-family:'ArialMT', 'Arial', sans-serif;font-size:8px;">3</text>
        <text x="449.04px" y="78px" style="font-family:'ArialMT', 'Arial', sans-serif;font-size:10px;">C</text>
    </g>
    <g transform="matrix(1.33333,0,0,1.33333,-64.1746,-50.8794)">
        <text x="437.52px" y="78px" style="font-family:'ArialMT', 'Arial', sans-serif;font-size:10px;">H</text>
        <text x="444.72px" y="80.64px" style="font-family:'ArialMT', 'Arial', sans-serif;font-size:8px;">2</text>
    </g>
    <g transform="matrix(1.33333,0,0,1.33333,-64.1746,-50.8794)">
        <text x="483.36px" y="97.92px" style="font-family:'ArialMT', 'Arial', sans-serif;font-size:10px;">O</text>
    </g>
    <g transform="matrix(1.33333,0,0,1.33333,-64.1746,-50.8794)">
        <text x="596.4px" y="91.44px" style="font-family:'ArialMT', 'Arial', sans-serif;font-size:10px;">CH</text>
        <text x="610.8px" y="94.08px" style="font-family:'ArialMT', 'Arial', sans-serif;font-size:8px;">3</text>
        <text x="612.96px" y="112.8px" style="font-family:'ArialMT', 'Arial', sans-serif;font-size:10px;">CH</text>
        <text x="627.36px" y="115.44px" style="font-family:'ArialMT', 'Arial', sans-serif;font-size:8px;">3</text>
    </g>
    <g transform="matrix(1.33333,0,0,1.33333,-64.1746,-50.8794)">
        <text x="613.2px" y="67.92px" style="font-family:'ArialMT', 'Arial', sans-serif;font-size:10px;">O</text>
    </g>
    <g transform="matrix(1.33333,0,0,1.33333,-64.1746,-50.8794)">
        <text x="594.72px" y="135.84px" style="font-family:'ArialMT', 'Arial', sans-serif;font-size:10px;">O</text>
    </g>
    <g transform="matrix(1.33333,0,0,1.33333,-64.1746,-50.8794)">
        <text x="600.72px" y="255.84px" style="font-family:'ArialMT', 'Arial', sans-serif;font-size:10px;">O</text>
    </g>
    <g transform="matrix(1.33333,0,0,1.33333,-64.1746,-50.8794)">
        <text x="623.28px" y="223.44px" style="font-family:'ArialMT', 'Arial', sans-serif;font-size:10px;">CH</text>
        <text x="637.68px" y="226.08px" style="font-family:'ArialMT', 'Arial', sans-serif;font-size:8px;">3</text>
    </g>
    <g transform="matrix(1.33333,0,0,1.33333,-64.1746,-50.8794)">
        <text x="616.56px" y="194.88px" style="font-family:'ArialMT', 'Arial', sans-serif;font-size:10px;">CH</text>
        <text x="630.96px" y="197.52px" style="font-family:'ArialMT', 'Arial', sans-serif;font-size:8px;">3</text>
        <text x="619.44px" y="210.72px" style="font-family:'ArialMT', 'Arial', sans-serif;font-size:10px;">O<tspan x="627.36px " y="210.72px ">H</tspan></text>
    </g>
    <g transform="matrix(1.33333,0,0,1.33333,-64.1746,-50.8794)">
        <text x="480.72px" y="235.44px" style="font-family:'ArialMT', 'Arial', sans-serif;font-size:10px;">CH</text>
        <text x="495.12px" y="228.48px" style="font-family:'ArialMT', 'Arial', sans-serif;font-size:8px;">–</text>
        <text x="500.88px" y="235.44px" style="font-family:'ArialMT', 'Arial', sans-serif;font-size:10px;">P</text>
        <text x="507.84px" y="228.48px" style="font-family:'ArialMT', 'Arial', sans-serif;font-size:8px;">+</text>
        <text x="512.64px" y="235.44px" style="font-family:'ArialMT', 'Arial', sans-serif;font-size:10px;">P</text>
        <text x="519.36px" y="235.44px" style="font-family:'ArialMT', 'Arial', sans-serif;font-size:10px;">h</text>
        <text x="525.12px" y="238.08px" style="font-family:'ArialMT', 'Arial', sans-serif;font-size:8px;">3</text>
        <text x="451.2px" y="252.48px" style="font-family:'ArialMT', 'Arial', sans-serif;font-size:10px;">H</text>
        <text x="458.64px" y="255.12px" style="font-family:'ArialMT', 'Arial', sans-serif;font-size:8px;">3</text>
        <text x="463.2px" y="252.48px" style="font-family:'ArialMT', 'Arial', sans-serif;font-size:10px;">CO</text>
    </g>
    <g transform="matrix(-0.0488015,-1.33244,1.33244,-0.0488015,-64.1746,-50.8794)">
        <text x="-243.837px" y="477.145px" style="font-family:'ArialMT', 'Arial', sans-serif;font-size:10px;">:</text>
    </g>
    <g transform="matrix(1.33333,0,0,1.33333,-64.1746,-50.8794)">
        <text x="406.8px" y="207.36px" style="font-family:'ArialMT', 'Arial', sans-serif;font-size:10px;">CH</text>
        <text x="421.2px" y="210px" style="font-family:'ArialMT', 'Arial', sans-serif;font-size:8px;">3</text>
    </g>
    <g transform="matrix(1.33333,0,0,1.33333,-64.1746,-50.8794)">
        <text x="400.08px" y="178.8px" style="font-family:'ArialMT', 'Arial', sans-serif;font-size:10px;">CH</text>
        <text x="414.48px" y="181.44px" style="font-family:'ArialMT', 'Arial', sans-serif;font-size:8px;">3</text>
        <text x="402.96px" y="194.64px" style="font-family:'ArialMT', 'Arial', sans-serif;font-size:10px;">O<tspan x="410.88px " y="194.64px ">H</tspan></text>
        <text x="403.92px" y="242.64px" style="font-family:'ArialMT', 'Arial', sans-serif;font-size:10px;">O</text>
        <text x="411.84px" y="261.12px" style="font-family:'ArialMT', 'Arial', sans-serif;font-size:10px;">CH</text>
        <text x="426.24px" y="263.76px" style="font-family:'ArialMT', 'Arial', sans-serif;font-size:8px;">3</text>
    </g>
    <g transform="matrix(1.33333,0,0,1.33333,-64.1746,-50.8794)">
        <text x="302.88px" y="213.36px" style="font-family:'ArialMT', 'Arial', sans-serif;font-size:10px;">H</text>
        <text x="310.08px" y="208.32px" style="font-family:'ArialMT', 'Arial', sans-serif;font-size:6px;">+</text>
        <text x="247.92px" y="220.32px" style="font-family:'ArialMT', 'Arial', sans-serif;font-size:10px;">CH</text>
        <text x="262.32px" y="222.96px" style="font-family:'ArialMT', 'Arial', sans-serif;font-size:8px;">3</text>
    </g>
    <g transform="matrix(1.33333,0,0,1.33333,-64.1746,-50.8794)">
        <text x="241.2px" y="191.76px" style="font-family:'ArialMT', 'Arial', sans-serif;font-size:10px;">CH</text>
        <text x="255.6px" y="194.4px" style="font-family:'ArialMT', 'Arial', sans-serif;font-size:8px;">3</text>
    </g>
    <g transform="matrix(1.33333,0,0,1.33333,-64.1746,-50.8794)">
        <text x="245.04px" y="255.6px" style="font-family:'ArialMT', 'Arial', sans-serif;font-size:10px;">O</text>
    </g>
    <g transform="matrix(1.33333,0,0,1.33333,-64.1746,-50.8794)">
        <text x="464.88px" y="116.64px" style="font-family:'ArialMT', 'Arial', sans-serif;font-size:10px;">B</text>
        <text x="471.6px" y="116.64px" style="font-family:'ArialMT', 'Arial', sans-serif;font-size:10px;">u</text>
        <text x="477.12px" y="119.28px" style="font-family:'ArialMT', 'Arial', sans-serif;font-size:6px;">4</text>
        <text x="480.72px" y="116.64px" style="font-family:'ArialMT', 'Arial', sans-serif;font-size:10px;">NF</text>
    </g>
    <g transform="matrix(0,-1.33333,-1.33333,0,1032.43,203.481)">
        <path d="M75.69,736.8L95.61,736.8" style="fill:none;fill-rule:nonzero;stroke:black;stroke-width:0.72px;"/>
    </g>
    <g transform="matrix(1.15468,0.666702,0.666702,-1.15468,-551.601,886.027)">
        <path d="M67.066,751.74L86.984,751.74" style="fill:none;fill-rule:nonzero;stroke:black;stroke-width:0.72px;"/>
    </g>
    <g transform="matrix(1.15468,-0.666702,-0.666702,-1.15468,430.852,994.071)">
        <path d="M67.066,721.86L86.984,721.86" style="fill:none;fill-rule:nonzero;stroke:black;stroke-width:0.72px;"/>
    </g>
    <g transform="matrix(1.15468,-0.666702,-0.666702,-1.15468,447.691,977.232)">
        <path d="M49.816,751.74L69.734,751.74" style="fill:none;fill-rule:nonzero;stroke:black;stroke-width:0.72px;"/>
    </g>
    <g transform="matrix(1.15468,0.666702,0.666702,-1.15468,-534.761,902.866)">
        <path d="M49.816,721.86L69.734,721.86" style="fill:none;fill-rule:nonzero;stroke:black;stroke-width:0.72px;"/>
    </g>
    <g transform="matrix(0,-1.33333,-1.33333,0,986.425,157.481)">
        <path d="M41.19,736.8L61.11,736.8" style="fill:none;fill-rule:nonzero;stroke:black;stroke-width:0.72px;"/>
    </g>
    <g transform="matrix(0,-1.33333,-1.33333,0,1047.99,146.401)">
        <path d="M62.76,764.04L77.4,764.04" style="fill:none;fill-rule:nonzero;stroke:black;stroke-width:0.72px;"/>
    </g>
    <g transform="matrix(0,-1.33333,-1.33333,0,1043.51,141.921)">
        <path d="M59.4,764.04L74.04,764.04" style="fill:none;fill-rule:nonzero;stroke:black;stroke-width:0.72px;"/>
    </g>
    <g transform="matrix(1.33333,0,0,1.33333,-64.1746,-901.439)">
        <path d="M96.48,739.92L188.4,739.92" style="fill:none;fill-rule:nonzero;stroke:black;stroke-width:0.72px;"/>
    </g>
    <g transform="matrix(1.2958,0.314133,0.314133,-1.2958,-289.686,985.97)">
        <path d="M180.139,740.853L188.289,740.853L181.044,737.121L181.991,739.326L180.139,740.853Z" style="stroke:black;stroke-width:0.72px;"/>
    </g>
    <g transform="matrix(1.09497,-0.760802,-0.760802,-1.09497,562.125,1000.16)">
        <path d="M141.978,776.445L156.542,776.445" style="fill:none;fill-rule:nonzero;stroke:black;stroke-width:0.72px;"/>
    </g>
    <g transform="matrix(0.385525,1.27638,1.27638,-0.385525,-928.28,128.314)">
        <path d="M142.4,790.135L162.32,790.135" style="fill:none;fill-rule:nonzero;stroke:black;stroke-width:0.72px;"/>
    </g>
    <g transform="matrix(1.06219,0.805932,0.805932,-1.06219,-655.559,757.359)">
        <path d="M121.587,777.05L135.583,777.05" style="fill:none;fill-rule:nonzero;stroke:black;stroke-width:0.72px;"/>
    </g>
    <g transform="matrix(1.33304,0.0281203,0.0281203,-1.33304,-86.6261,1067.52)">
        <path d="M129.568,799.88L149.482,799.88" style="fill:none;fill-rule:nonzero;stroke:black;stroke-width:0.72px;"/>
    </g>
    <g transform="matrix(-0.439066,1.25897,1.25897,0.439066,-835.785,-488.724)">
        <path d="M116.329,790.685L136.251,790.685" style="fill:none;fill-rule:nonzero;stroke:black;stroke-width:0.72px;"/>
    </g>
    <g transform="matrix(-0.0277718,1.33304,1.33304,0.0277718,-887.69,-146.741)">
        <path d="M133.869,759.36L143.471,759.36" style="fill:none;fill-rule:nonzero;stroke:black;stroke-width:0.72px;"/>
    </g>
    <g transform="matrix(0,-1.33333,-1.33333,0,1265.71,436.761)">
        <path d="M250.65,736.8L270.57,736.8" style="fill:none;fill-rule:nonzero;stroke:black;stroke-width:0.72px;"/>
    </g>
    <g transform="matrix(1.15468,0.666702,0.666702,-1.15468,-520.343,769.381)">
        <path d="M242.026,751.74L261.944,751.74" style="fill:none;fill-rule:nonzero;stroke:black;stroke-width:0.72px;"/>
    </g>
    <g transform="matrix(1.15468,-0.666702,-0.666702,-1.15468,462.109,1110.72)">
        <path d="M242.026,721.86L261.944,721.86" style="fill:none;fill-rule:nonzero;stroke:black;stroke-width:0.72px;"/>
    </g>
    <g transform="matrix(1.15468,-0.666702,-0.666702,-1.15468,478.948,1093.88)">
        <path d="M224.776,751.74L244.694,751.74" style="fill:none;fill-rule:nonzero;stroke:black;stroke-width:0.72px;"/>
    </g>
    <g transform="matrix(1.15468,0.666702,0.666702,-1.15468,-503.504,786.22)">
        <path d="M224.776,721.86L244.694,721.86" style="fill:none;fill-rule:nonzero;stroke:black;stroke-width:0.72px;"/>
    </g>
    <g transform="matrix(0,-1.33333,-1.33333,0,1219.71,390.761)">
        <path d="M216.15,736.8L236.07,736.8" style="fill:none;fill-rule:nonzero;stroke:black;stroke-width:0.72px;"/>
    </g>
    <g transform="matrix(0,-1.33333,-1.33333,0,1281.43,379.521)">
        <path d="M237.6,764.16L252.48,764.16" style="fill:none;fill-rule:nonzero;stroke:black;stroke-width:0.72px;"/>
    </g>
    <g transform="matrix(0,-1.33333,-1.33333,0,1276.95,375.041)">
        <path d="M234.24,764.16L249.12,764.16" style="fill:none;fill-rule:nonzero;stroke:black;stroke-width:0.72px;"/>
    </g>
    <g transform="matrix(-1.15475,-0.666584,-0.666584,1.15475,982.775,-649.003)">
        <path d="M212.374,750.44L227.096,750.44" style="fill:none;fill-rule:nonzero;stroke:black;stroke-width:0.72px;"/>
    </g>
    <g transform="matrix(1.33333,0,0,1.33333,-64.1746,-901.439)">
        <path d="M272.16,739.92L335.76,739.92" style="fill:none;fill-rule:nonzero;stroke:black;stroke-width:0.72px;"/>
    </g>
    <g transform="matrix(1.2958,0.314133,0.314133,-1.2958,-284.155,939.68)">
        <path d="M327.499,740.853L335.649,740.853L328.404,737.121L329.351,739.326L327.499,740.853Z" style="stroke:black;stroke-width:0.72px;"/>
    </g>
    <g transform="matrix(0,-1.33333,-1.33333,0,1455.15,626.201)">
        <path d="M392.73,736.8L412.65,736.8" style="fill:none;fill-rule:nonzero;stroke:black;stroke-width:0.72px;"/>
    </g>
    <g transform="matrix(1.15468,0.666702,0.666702,-1.15468,-494.96,674.656)">
        <path d="M384.106,751.74L404.024,751.74" style="fill:none;fill-rule:nonzero;stroke:black;stroke-width:0.72px;"/>
    </g>
    <g transform="matrix(1.15458,0.666876,0.666876,-1.15458,-493.411,676.152)">
        <path d="M384.088,748.83L400.682,748.83" style="fill:none;fill-rule:nonzero;stroke:black;stroke-width:0.72px;"/>
    </g>
    <g transform="matrix(1.15468,-0.666702,-0.666702,-1.15468,487.492,1205.44)">
        <path d="M384.106,721.86L404.024,721.86" style="fill:none;fill-rule:nonzero;stroke:black;stroke-width:0.72px;"/>
    </g>
    <g transform="matrix(1.15468,-0.666702,-0.666702,-1.15468,504.331,1188.6)">
        <path d="M366.856,751.74L386.774,751.74" style="fill:none;fill-rule:nonzero;stroke:black;stroke-width:0.72px;"/>
    </g>
    <g transform="matrix(1.15468,0.666702,0.666702,-1.15468,-478.121,691.495)">
        <path d="M366.856,721.86L386.774,721.86" style="fill:none;fill-rule:nonzero;stroke:black;stroke-width:0.72px;"/>
    </g>
    <g transform="matrix(0,-1.33333,-1.33333,0,1409.15,580.201)">
        <path d="M358.23,736.8L378.15,736.8" style="fill:none;fill-rule:nonzero;stroke:black;stroke-width:0.72px;"/>
    </g>
    <g transform="matrix(0,-1.33333,-1.33333,0,1468.63,566.721)">
        <path d="M378,764.16L392.88,764.16" style="fill:none;fill-rule:nonzero;stroke:black;stroke-width:0.72px;"/>
    </g>
    <g transform="matrix(-1.15475,-0.666584,-0.666584,1.15475,1336.28,-554.295)">
        <path d="M354.454,750.44L369.176,750.44" style="fill:none;fill-rule:nonzero;stroke:black;stroke-width:0.72px;"/>
    </g>
    <g transform="matrix(1.33333,0,0,1.33333,-64.1746,-901.439)">
        <path d="M425.76,739.92L533.04,739.92" style="fill:none;fill-rule:nonzero;stroke:black;stroke-width:0.72px;"/>
    </g>
    <g transform="matrix(1.2958,0.314133,0.314133,-1.2958,-276.75,877.707)">
        <path d="M524.779,740.853L532.929,740.853L525.684,737.121L526.631,739.326L524.779,740.853Z" style="stroke:black;stroke-width:0.72px;"/>
    </g>
    <g transform="matrix(-1.15468,-0.666702,-0.666702,1.15468,1641.75,-531.989)">
        <path d="M468.616,772.8L488.534,772.8" style="fill:none;fill-rule:nonzero;stroke:black;stroke-width:0.72px;"/>
    </g>
    <g transform="matrix(-1.15491,0.666297,0.666297,1.15491,649.632,-1176.58)">
        <path d="M486.236,771.42L500.644,771.42" style="fill:none;fill-rule:nonzero;stroke:black;stroke-width:0.72px;"/>
    </g>
    <g transform="matrix(-1.15475,0.666584,0.666584,1.15475,573.235,-1163.36)">
        <path d="M456.214,774.1L470.936,774.1" style="fill:none;fill-rule:nonzero;stroke:black;stroke-width:0.72px;"/>
    </g>
    <g transform="matrix(-1.15479,0.666507,0.666507,1.15479,576.458,-1154.26)">
        <path d="M456.508,770.375L471.172,770.375" style="fill:none;fill-rule:nonzero;stroke:black;stroke-width:0.72px;"/>
    </g>
    <g transform="matrix(0,1.33333,1.33333,0,-430.775,-589.639)">
        <path d="M478.17,760.47L492.87,760.47" style="fill:none;fill-rule:nonzero;stroke:black;stroke-width:0.72px;"/>
    </g>
    <g transform="matrix(0,1.33333,1.33333,0,-426.295,-594.119)">
        <path d="M481.53,760.47L496.23,760.47" style="fill:none;fill-rule:nonzero;stroke:black;stroke-width:0.72px;"/>
    </g>
    <g transform="matrix(-0.694346,1.13827,1.13827,0.694346,222.205,-1054.52)">
        <path d="M545.028,737.04L564.942,737.04" style="fill:none;fill-rule:nonzero;stroke:black;stroke-width:0.72px;"/>
    </g>
    <g transform="matrix(-1.29138,-0.331854,-0.331854,1.29138,1686.28,-686.269)">
        <path d="M559.751,742.225L586.389,742.225" style="fill:none;fill-rule:nonzero;stroke:black;stroke-width:0.72px;"/>
    </g>
    <g transform="matrix(1.33333,0,0,1.33333,-64.1746,-912.959)">
        <path d="M563.76,742.08L567.12,743.04L567.12,746.4L563.76,745.68" style="fill:white;"/>
    </g>
    <g transform="matrix(-0.00247601,-1.33333,-1.33333,0.00247601,1693.32,821.638)">
        <path d="M549.315,751.605L581.625,751.605" style="fill:none;fill-rule:nonzero;stroke:black;stroke-width:0.72px;"/>
    </g>
    <g transform="matrix(-1.21861,0.541074,0.541074,1.21861,1049.03,-1143.81)">
        <path d="M585.251,742.3L601.959,742.3" style="fill:none;fill-rule:nonzero;stroke:black;stroke-width:0.72px;"/>
    </g>
    <g transform="matrix(0.671248,-1.15204,-1.15204,-0.671248,1179.66,1270.55)">
        <path d="M586.189,737.04L606.211,737.04" style="fill:none;fill-rule:nonzero;stroke:black;stroke-width:0.72px;"/>
    </g>
    <g transform="matrix(1.28556,0.353705,0.353705,-1.28556,-295.431,832.158)">
        <path d="M565.023,731.92L591.637,731.92" style="fill:none;fill-rule:nonzero;stroke:black;stroke-width:0.72px;"/>
    </g>
    <g transform="matrix(-1.22036,0.537115,0.537115,1.22036,966.728,-1097.13)">
        <path d="M549.073,731.995L566.227,731.995" style="fill:none;fill-rule:nonzero;stroke:black;stroke-width:0.72px;"/>
    </g>
    <g transform="matrix(1.33333,0,0,1.33333,-64.1746,-912.959)">
        <path d="M563.76,742.08L567.12,743.04L567.12,746.4L563.76,745.68" style="fill:white;"/>
    </g>
    <g transform="matrix(-0.00247601,-1.33333,-1.33333,0.00247601,1693.32,821.638)">
        <path d="M549.315,751.605L581.625,751.605" style="fill:none;fill-rule:nonzero;stroke:black;stroke-width:0.72px;"/>
    </g>
    <g transform="matrix(1.15347,-0.668787,-0.668787,-1.15347,555.883,1316.61)">
        <path d="M564.097,772.755L584.013,772.755" style="fill:none;fill-rule:nonzero;stroke:black;stroke-width:0.72px;"/>
    </g>
    <g transform="matrix(1.15617,0.664112,0.664112,-1.15617,-472.637,542.079)">
        <path d="M581.347,772.79L601.263,772.79" style="fill:none;fill-rule:nonzero;stroke:black;stroke-width:0.72px;"/>
    </g>
    <g transform="matrix(0.00648028,1.33332,1.33332,-0.00648028,-286.39,-741.594)">
        <path d="M595.845,763.715L604.075,763.715" style="fill:none;fill-rule:nonzero;stroke:black;stroke-width:0.72px;"/>
    </g>
    <g transform="matrix(1.03305,0.842957,0.842957,-1.03305,-506.903,337.729)">
        <path d="M599.676,741.3L613.564,741.3" style="fill:none;fill-rule:nonzero;stroke:black;stroke-width:0.72px;"/>
    </g>
    <g transform="matrix(1.15254,-0.670388,-0.670388,-1.15254,561.481,1339.13)">
        <path d="M599.892,769.71L613.138,769.71" style="fill:none;fill-rule:nonzero;stroke:black;stroke-width:0.72px;"/>
    </g>
    <g transform="matrix(1.15266,-0.670191,-0.670191,-1.15266,563.379,1337.92)">
        <path d="M598.07,773.1L613.27,773.1" style="fill:none;fill-rule:nonzero;stroke:black;stroke-width:0.72px;"/>
    </g>
    <g transform="matrix(0.503312,1.23469,1.23469,-0.503312,-463.472,-258.296)">
        <path d="M585.378,721.48L598.942,721.48" style="fill:none;fill-rule:nonzero;stroke:black;stroke-width:0.72px;"/>
    </g>
    <g transform="matrix(0.503488,1.23462,1.23462,-0.503488,-461.512,-262.814)">
        <path d="M588.062,722.115L602.998,722.115" style="fill:none;fill-rule:nonzero;stroke:black;stroke-width:0.72px;"/>
    </g>
    <g transform="matrix(0,1.33333,1.33333,0,-194.895,-603.359)">
        <path d="M562.44,677.16L595.8,677.16" style="fill:none;fill-rule:nonzero;stroke:black;stroke-width:0.72px;"/>
    </g>
    <g transform="matrix(-0.314133,1.2958,1.2958,0.314133,28.9249,-773.386)">
        <path d="M574.819,665.373L582.969,665.373L575.724,661.641L576.671,663.846L574.819,665.373Z" style="stroke:black;stroke-width:0.72px;"/>
    </g>
    <g transform="matrix(-0.694346,1.13827,1.13827,0.694346,370.964,-818.032)">
        <path d="M551.028,617.04L570.942,617.04" style="fill:none;fill-rule:nonzero;stroke:black;stroke-width:0.72px;"/>
    </g>
    <g transform="matrix(-1.29138,-0.331854,-0.331854,1.29138,1662.2,-369.313)">
        <path d="M565.751,622.225L592.389,622.225" style="fill:none;fill-rule:nonzero;stroke:black;stroke-width:0.72px;"/>
    </g>
    <g transform="matrix(1.33333,0,0,1.33333,-64.1746,-592.959)">
        <path d="M569.76,622.08L573.12,623.04L573.12,626.4L569.76,625.68" style="fill:white;"/>
    </g>
    <g transform="matrix(-0.0167744,-1.33323,-1.33323,0.0167744,1541.02,989.117)">
        <path d="M561.439,625.385L581.311,625.385" style="fill:none;fill-rule:nonzero;stroke:black;stroke-width:0.72px;"/>
    </g>
    <g transform="matrix(-1.21861,0.541074,0.541074,1.21861,1129.27,-840.826)">
        <path d="M591.251,622.3L607.959,622.3" style="fill:none;fill-rule:nonzero;stroke:black;stroke-width:0.72px;"/>
    </g>
    <g transform="matrix(0.671248,-1.15204,-1.15204,-0.671248,1045.39,1356.91)">
        <path d="M592.189,617.04L612.211,617.04" style="fill:none;fill-rule:nonzero;stroke:black;stroke-width:0.72px;"/>
    </g>
    <g transform="matrix(1.28556,0.353705,0.353705,-1.28556,-252.7,835.768)">
        <path d="M571.023,611.92L597.637,611.92" style="fill:none;fill-rule:nonzero;stroke:black;stroke-width:0.72px;"/>
    </g>
    <g transform="matrix(-1.22036,0.537115,0.537115,1.22036,1046.5,-793.914)">
        <path d="M555.073,611.995L572.227,611.995" style="fill:none;fill-rule:nonzero;stroke:black;stroke-width:0.72px;"/>
    </g>
    <g transform="matrix(1.33333,0,0,1.33333,-64.1746,-592.959)">
        <path d="M569.76,622.08L573.12,623.04L573.12,626.4L569.76,625.68" style="fill:white;"/>
    </g>
    <g transform="matrix(-0.0167744,-1.33323,-1.33323,0.0167744,1541.02,989.117)">
        <path d="M561.439,625.385L581.311,625.385" style="fill:none;fill-rule:nonzero;stroke:black;stroke-width:0.72px;"/>
    </g>
    <g transform="matrix(1.07572,-0.787783,-0.787783,-1.07572,589.856,1362.61)">
        <path d="M569.42,640.915L588.36,640.915" style="fill:none;fill-rule:nonzero;stroke:black;stroke-width:0.72px;"/>
    </g>
    <g transform="matrix(1.22045,0.536918,0.536918,-1.22045,-341.905,679.341)">
        <path d="M585.687,642.5L605.603,642.5" style="fill:none;fill-rule:nonzero;stroke:black;stroke-width:0.72px;"/>
    </g>
    <g transform="matrix(0.253617,1.30899,1.30899,-0.253617,-237.266,-404.046)">
        <path d="M599.481,632.09L612.519,632.09" style="fill:none;fill-rule:nonzero;stroke:black;stroke-width:0.72px;"/>
    </g>
    <g transform="matrix(0.503312,1.23469,1.23469,-0.503312,-310.329,-166.101)">
        <path d="M591.378,601.48L604.942,601.48" style="fill:none;fill-rule:nonzero;stroke:black;stroke-width:0.72px;"/>
    </g>
    <g transform="matrix(0.503488,1.23462,1.23462,-0.503488,-308.379,-170.641)">
        <path d="M594.062,602.115L608.998,602.115" style="fill:none;fill-rule:nonzero;stroke:black;stroke-width:0.72px;"/>
    </g>
    <g transform="matrix(1.31453,0.223156,0.223156,-1.31453,-191.953,922.746)">
        <path d="M607.132,624.41L622.428,624.41" style="fill:none;fill-rule:nonzero;stroke:black;stroke-width:0.72px;"/>
    </g>
    <g transform="matrix(1.04219,-0.831636,-0.831636,-1.04219,648.064,1391.98)">
        <path d="M603.246,642.815L617.114,642.815" style="fill:none;fill-rule:nonzero;stroke:black;stroke-width:0.72px;"/>
    </g>
    <g transform="matrix(1.31323,0.230676,0.230676,-1.31323,-198.884,917.781)">
        <path d="M604.655,637.285L618.585,637.285" style="fill:none;fill-rule:nonzero;stroke:black;stroke-width:0.72px;"/>
    </g>
    <g transform="matrix(-1.33333,0,0,1.33333,1251.67,-596.159)">
        <path d="M442.32,625.44L544.56,625.44" style="fill:none;fill-rule:nonzero;stroke:black;stroke-width:0.72px;"/>
    </g>
    <g transform="matrix(-1.2958,-0.314133,-0.314133,1.2958,1305.63,-432.493)">
        <path d="M441.979,626.373L450.129,626.373L442.884,622.641L443.831,624.846L441.979,626.373Z" style="stroke:black;stroke-width:0.72px;"/>
    </g>
    <g transform="matrix(1.33333,0,0,1.33333,-64.1746,-556.479)">
        <path d="M496.08,610.56L499.92,610.56" style="fill:none;fill-rule:nonzero;stroke:black;stroke-width:0.72px;"/>
    </g>
    <g transform="matrix(-0.666693,1.15469,1.15469,0.666693,199.47,-685.651)">
        <path d="M475.45,601.92L483.21,601.92" style="fill:none;fill-rule:nonzero;stroke:black;stroke-width:0.72px;"/>
    </g>
    <g transform="matrix(-0.694346,1.13827,1.13827,0.694346,-86.2915,-604.224)">
        <path d="M334.548,633.12L354.462,633.12" style="fill:none;fill-rule:nonzero;stroke:black;stroke-width:0.72px;"/>
    </g>
    <g transform="matrix(-1.29138,-0.331854,-0.331854,1.29138,1099.34,-483.358)">
        <path d="M349.271,638.305L375.909,638.305" style="fill:none;fill-rule:nonzero;stroke:black;stroke-width:0.72px;"/>
    </g>
    <g transform="matrix(1.33333,0,0,1.33333,-64.1746,-635.839)">
        <path d="M353.28,638.16L356.64,639.12L356.64,642.48L353.28,641.76" style="fill:white;"/>
    </g>
    <g transform="matrix(-0.0167744,-1.33323,-1.33323,0.0167744,1270.19,678.79)">
        <path d="M344.959,641.465L364.831,641.465" style="fill:none;fill-rule:nonzero;stroke:black;stroke-width:0.72px;"/>
    </g>
    <g transform="matrix(-1.21861,0.541074,0.541074,1.21861,568.129,-764.73)">
        <path d="M374.771,638.38L391.479,638.38" style="fill:none;fill-rule:nonzero;stroke:black;stroke-width:0.72px;"/>
    </g>
    <g transform="matrix(0.671248,-1.15204,-1.15204,-0.671248,920.586,1096.87)">
        <path d="M375.709,633.12L395.731,633.12" style="fill:none;fill-rule:nonzero;stroke:black;stroke-width:0.72px;"/>
    </g>
    <g transform="matrix(1.28556,0.353705,0.353705,-1.28556,-268.729,911.57)">
        <path d="M354.543,628L381.157,628" style="fill:none;fill-rule:nonzero;stroke:black;stroke-width:0.72px;"/>
    </g>
    <g transform="matrix(-1.22036,0.537115,0.537115,1.22036,485.044,-718.702)">
        <path d="M338.593,628.075L355.747,628.075" style="fill:none;fill-rule:nonzero;stroke:black;stroke-width:0.72px;"/>
    </g>
    <g transform="matrix(1.33333,0,0,1.33333,-64.1746,-635.839)">
        <path d="M353.28,638.16L356.64,639.12L356.64,642.48L353.28,641.76" style="fill:white;"/>
    </g>
    <g transform="matrix(-0.0167744,-1.33323,-1.33323,0.0167744,1270.19,678.79)">
        <path d="M344.959,641.465L364.831,641.465" style="fill:none;fill-rule:nonzero;stroke:black;stroke-width:0.72px;"/>
    </g>
    <g transform="matrix(1.07572,-0.787783,-0.787783,-1.07572,546.756,1187.93)">
        <path d="M352.94,656.995L371.88,656.995" style="fill:none;fill-rule:nonzero;stroke:black;stroke-width:0.72px;"/>
    </g>
    <g transform="matrix(1.22045,0.536918,0.536918,-1.22045,-374.976,793.757)">
        <path d="M369.207,658.58L389.123,658.58" style="fill:none;fill-rule:nonzero;stroke:black;stroke-width:0.72px;"/>
    </g>
    <g transform="matrix(0.253617,1.30899,1.30899,-0.253617,-492.052,-138.037)">
        <path d="M383.001,648.17L396.039,648.17" style="fill:none;fill-rule:nonzero;stroke:black;stroke-width:0.72px;"/>
    </g>
    <g transform="matrix(0.502914,1.23485,1.23485,-0.502914,-504.674,86.0451)">
        <path d="M374.48,615.25L394.39,615.25" style="fill:none;fill-rule:nonzero;stroke:black;stroke-width:0.72px;"/>
    </g>
    <g transform="matrix(0.503308,1.23469,1.23469,-0.503308,-504.177,81.3589)">
        <path d="M378.802,616.815L396.048,616.815" style="fill:none;fill-rule:nonzero;stroke:black;stroke-width:0.72px;"/>
    </g>
    <g transform="matrix(1.31453,0.223156,0.223156,-1.31453,-199.613,970.752)">
        <path d="M390.652,640.49L405.948,640.49" style="fill:none;fill-rule:nonzero;stroke:black;stroke-width:0.72px;"/>
    </g>
    <g transform="matrix(1.04219,-0.831636,-0.831636,-1.04219,598.41,1207.26)">
        <path d="M386.766,658.895L400.634,658.895" style="fill:none;fill-rule:nonzero;stroke:black;stroke-width:0.72px;"/>
    </g>
    <g transform="matrix(1.31323,0.230676,0.230676,-1.31323,-206.946,967.395)">
        <path d="M388.175,653.365L402.105,653.365" style="fill:none;fill-rule:nonzero;stroke:black;stroke-width:0.72px;"/>
    </g>
    <g transform="matrix(1.32092,0.181548,0.181548,-1.32092,-169.102,992.352)">
        <path d="M388.121,605.015L403.029,605.015" style="fill:none;fill-rule:nonzero;stroke:black;stroke-width:0.72px;"/>
    </g>
    <g transform="matrix(0.503783,1.2345,1.2345,-0.503783,-455.919,70.655)">
        <path d="M407.318,594L416.132,594" style="fill:none;fill-rule:nonzero;stroke:black;stroke-width:0.72px;"/>
    </g>
    <g transform="matrix(-1.33333,0,0,1.33333,745.425,-594.239)">
        <path d="M279.6,624.72L327.6,624.72" style="fill:none;fill-rule:nonzero;stroke:black;stroke-width:0.72px;"/>
    </g>
    <g transform="matrix(-1.2958,-0.314133,-0.314133,1.2958,877.588,-481.716)">
        <path d="M279.259,625.653L287.409,625.653L280.164,621.921L281.111,624.126L279.259,625.653Z" style="stroke:black;stroke-width:0.72px;"/>
    </g>
    <g transform="matrix(-0.694346,1.13827,1.13827,0.694346,-393.697,-397.096)">
        <path d="M175.668,620.16L195.582,620.16" style="fill:none;fill-rule:nonzero;stroke:black;stroke-width:0.72px;"/>
    </g>
    <g transform="matrix(-1.29138,-0.331854,-0.331854,1.29138,678.028,-502.066)">
        <path d="M190.391,625.345L217.029,625.345" style="fill:none;fill-rule:nonzero;stroke:black;stroke-width:0.72px;"/>
    </g>
    <g transform="matrix(1.33333,0,0,1.33333,-64.1746,-601.279)">
        <path d="M194.4,625.2L197.76,626.16L197.76,629.52L194.4,628.8" style="fill:white;"/>
    </g>
    <g transform="matrix(-0.0167744,-1.33323,-1.33323,0.0167744,1038.41,484.464)">
        <path d="M186.079,628.505L205.951,628.505" style="fill:none;fill-rule:nonzero;stroke:black;stroke-width:0.72px;"/>
    </g>
    <g transform="matrix(-1.21861,0.541074,0.541074,1.21861,169.688,-645.691)">
        <path d="M215.891,625.42L232.599,625.42" style="fill:none;fill-rule:nonzero;stroke:black;stroke-width:0.72px;"/>
    </g>
    <g transform="matrix(0.671248,-1.15204,-1.15204,-0.671248,800.464,922.411)">
        <path d="M216.829,620.16L236.851,620.16" style="fill:none;fill-rule:nonzero;stroke:black;stroke-width:0.72px;"/>
    </g>
    <g transform="matrix(1.28556,0.353705,0.353705,-1.28556,-271.735,968.386)">
        <path d="M195.663,615.04L222.277,615.04" style="fill:none;fill-rule:nonzero;stroke:black;stroke-width:0.72px;"/>
    </g>
    <g transform="matrix(-1.22036,0.537115,0.537115,1.22036,86.2733,-600.27)">
        <path d="M179.713,615.115L196.867,615.115" style="fill:none;fill-rule:nonzero;stroke:black;stroke-width:0.72px;"/>
    </g>
    <g transform="matrix(1.33333,0,0,1.33333,-64.1746,-601.279)">
        <path d="M194.4,625.2L197.76,626.16L197.76,629.52L194.4,628.8" style="fill:white;"/>
    </g>
    <g transform="matrix(-0.0167744,-1.33323,-1.33323,0.0167744,1038.41,484.464)">
        <path d="M186.079,628.505L205.951,628.505" style="fill:none;fill-rule:nonzero;stroke:black;stroke-width:0.72px;"/>
    </g>
    <g transform="matrix(1.07572,-0.787783,-0.787783,-1.07572,495.617,1066.11)">
        <path d="M194.06,644.035L213,644.035" style="fill:none;fill-rule:nonzero;stroke:black;stroke-width:0.72px;"/>
    </g>
    <g transform="matrix(1.22045,0.536918,0.536918,-1.22045,-385.953,880.526)">
        <path d="M210.327,645.62L230.243,645.62" style="fill:none;fill-rule:nonzero;stroke:black;stroke-width:0.72px;"/>
    </g>
    <g transform="matrix(1.22019,0.537511,0.537511,-1.22019,-384.716,881.218)">
        <path d="M210.609,642.465L227.601,642.465" style="fill:none;fill-rule:nonzero;stroke:black;stroke-width:0.72px;"/>
    </g>
    <g transform="matrix(0.253617,1.30899,1.30899,-0.253617,-646.633,83.9283)">
        <path d="M224.121,635.21L237.159,635.21" style="fill:none;fill-rule:nonzero;stroke:black;stroke-width:0.72px;"/>
    </g>
    <g transform="matrix(0.502914,1.23485,1.23485,-0.502914,-620.607,293)">
        <path d="M215.6,602.29L235.51,602.29" style="fill:none;fill-rule:nonzero;stroke:black;stroke-width:0.72px;"/>
    </g>
    <g transform="matrix(1.31453,0.223156,0.223156,-1.31453,-199.709,1006.45)">
        <path d="M231.772,627.53L247.068,627.53" style="fill:none;fill-rule:nonzero;stroke:black;stroke-width:0.72px;"/>
    </g>
    <g transform="matrix(1.04219,-0.831636,-0.831636,-1.04219,541.375,1078.91)">
        <path d="M227.886,645.935L241.754,645.935" style="fill:none;fill-rule:nonzero;stroke:black;stroke-width:0.72px;"/>
    </g>
    <g transform="matrix(1.32092,0.181548,0.181548,-1.32092,-168.722,1021.36)">
        <path d="M229.241,592.055L244.149,592.055" style="fill:none;fill-rule:nonzero;stroke:black;stroke-width:0.72px;"/>
    </g>
    <g transform="matrix(1.32092,0.181548,0.181548,-1.32092,-169.298,1021.13)">
        <path d="M231.36,595.3L244.14,595.3" style="fill:none;fill-rule:nonzero;stroke:black;stroke-width:0.72px;"/>
    </g>
</svg>
