<?xml version="1.0" encoding="UTF-8" standalone="no"?>
<!DOCTYPE svg PUBLIC "-//W3C//DTD SVG 1.1//EN" "http://www.w3.org/Graphics/SVG/1.1/DTD/svg11.dtd">
<svg width="100%" height="100%" viewBox="0 0 615 400" version="1.1" xmlns="http://www.w3.org/2000/svg" xmlns:xlink="http://www.w3.org/1999/xlink" xml:space="preserve" xmlns:serif="http://www.serif.com/" style="fill-rule:evenodd;clip-rule:evenodd;stroke-linecap:round;stroke-linejoin:round;stroke-miterlimit:10;">
    <g transform="matrix(0,-1.33333,-1.33333,0,1048.59,163.187)">
        <path d="M78.09,750L98.01,750" style="fill:none;fill-rule:nonzero;stroke:black;stroke-width:0.72px;"/>
    </g>
    <g transform="matrix(1.15468,0.666702,0.666702,-1.15468,-564.611,856.175)">
        <path d="M69.466,764.94L89.384,764.94" style="fill:none;fill-rule:nonzero;stroke:black;stroke-width:0.72px;"/>
    </g>
    <g transform="matrix(1.15468,-0.666702,-0.666702,-1.15468,435.442,967.419)">
        <path d="M69.466,735.06L89.384,735.06" style="fill:none;fill-rule:nonzero;stroke:black;stroke-width:0.72px;"/>
    </g>
    <g transform="matrix(1.15468,-0.666702,-0.666702,-1.15468,452.282,950.58)">
        <path d="M52.216,764.94L72.134,764.94" style="fill:none;fill-rule:nonzero;stroke:black;stroke-width:0.72px;"/>
    </g>
    <g transform="matrix(1.15458,-0.666876,-0.666876,-1.15458,450.781,952.155)">
        <path d="M55.558,762.03L72.152,762.03" style="fill:none;fill-rule:nonzero;stroke:black;stroke-width:0.72px;"/>
    </g>
    <g transform="matrix(1.15468,0.666702,0.666702,-1.15468,-547.772,873.014)">
        <path d="M52.216,735.06L72.134,735.06" style="fill:none;fill-rule:nonzero;stroke:black;stroke-width:0.72px;"/>
    </g>
    <g transform="matrix(1.15458,0.666876,0.666876,-1.15458,-549.534,871.289)">
        <path d="M55.558,737.97L72.152,737.97" style="fill:none;fill-rule:nonzero;stroke:black;stroke-width:0.72px;"/>
    </g>
    <g transform="matrix(0,-1.33333,-1.33333,0,1002.59,117.187)">
        <path d="M43.59,750L63.51,750" style="fill:none;fill-rule:nonzero;stroke:black;stroke-width:0.72px;"/>
    </g>
    <g transform="matrix(1.33333,0,0,1.33333,-68.8134,-76.7728)">
        <text x="100.56px" y="98.16px" style="font-family:'ArialMT', 'Arial', sans-serif;font-size:18px;">+</text>
    </g>
    <g transform="matrix(1.33333,0,0,1.33333,-68.8134,-76.7728)">
        <text x="141.36px" y="113.28px" style="font-family:'ArialMT', 'Arial', sans-serif;font-size:10px;">CH</text>
        <text x="155.76px" y="115.92px" style="font-family:'ArialMT', 'Arial', sans-serif;font-size:8px;">2</text>
    </g>
    <g transform="matrix(1.33333,0,0,1.33333,-68.8134,-76.7728)">
        <text x="119.28px" y="83.28px" style="font-family:'ArialMT', 'Arial', sans-serif;font-size:10px;">Cl</text>
    </g>
    <g transform="matrix(1.33333,0,0,1.33333,-68.8134,-76.7728)">
        <text x="175.92px" y="73.44px" style="font-family:'ArialMT', 'Arial', sans-serif;font-size:10px;">N</text>
    </g>
    <g transform="matrix(1.33333,0,0,1.33333,-68.8134,-76.7728)">
        <text x="305.28px" y="97.68px" style="font-family:'ArialMT', 'Arial', sans-serif;font-size:10px;">Cl</text>
    </g>
    <g transform="matrix(1.33333,0,0,1.33333,-68.8134,-76.7728)">
        <text x="314.64px" y="130.8px" style="font-family:'ArialMT', 'Arial', sans-serif;font-size:10px;">N</text>
    </g>
    <g transform="matrix(1.33333,0,0,1.33333,-68.8134,-76.7728)">
        <text x="470.64px" y="97.68px" style="font-family:'ArialMT', 'Arial', sans-serif;font-size:10px;">O</text>
    </g>
    <g transform="matrix(1.33333,0,0,1.33333,-68.8134,-76.7728)">
        <text x="447.12px" y="156.96px" style="font-family:'ArialMT', 'Arial', sans-serif;font-size:10px;">C</text>
    </g>
    <g transform="matrix(1.33333,0,0,1.33333,-68.8134,-76.7728)">
        <text x="435.6px" y="156.96px" style="font-family:'ArialMT', 'Arial', sans-serif;font-size:10px;">H</text>
        <text x="442.8px" y="159.6px" style="font-family:'ArialMT', 'Arial', sans-serif;font-size:8px;">2</text>
    </g>
    <g transform="matrix(1.33333,0,0,1.33333,-68.8134,-76.7728)">
        <text x="476.4px" y="174px" style="font-family:'ArialMT', 'Arial', sans-serif;font-size:10px;">M</text>
        <text x="484.8px" y="174px" style="font-family:'ArialMT', 'Arial', sans-serif;font-size:10px;">g</text>
        <text x="490.32px" y="174px" style="font-family:'ArialMT', 'Arial', sans-serif;font-size:10px;">Br</text>
    </g>
    <g transform="matrix(1.33333,0,0,1.33333,-68.8134,-76.7728)">
        <text x="469.68px" y="245.52px" style="font-family:'ArialMT', 'Arial', sans-serif;font-size:10px;">O<tspan x="477.6px " y="245.52px ">H</tspan></text>
    </g>
    <g transform="matrix(1.33333,0,0,1.33333,-68.8134,-76.7728)">
        <text x="460.08px" y="284.16px" style="font-family:'ArialMT', 'Arial', sans-serif;font-size:10px;">C</text>
    </g>
    <g transform="matrix(1.33333,0,0,1.33333,-68.8134,-76.7728)">
        <text x="448.56px" y="284.16px" style="font-family:'ArialMT', 'Arial', sans-serif;font-size:10px;">H</text>
        <text x="455.76px" y="286.8px" style="font-family:'ArialMT', 'Arial', sans-serif;font-size:8px;">2</text>
    </g>
    <g transform="matrix(1.33333,0,0,1.33333,-68.8134,-76.7728)">
        <text x="424.8px" y="351.84px" style="font-family:'ArialMT', 'Arial', sans-serif;font-size:10px;">T<tspan x="431.04px " y="351.84px ">M</tspan></text>
    </g>
    <g transform="matrix(1.33333,0,0,1.33333,-68.8134,-76.7728)">
        <text x="356.88px" y="82.32px" style="font-family:'ArialMT', 'Arial', sans-serif;font-size:10px;">H</text>
        <text x="364.08px" y="84.96px" style="font-family:'ArialMT', 'Arial', sans-serif;font-size:6px;">2</text>
        <text x="367.68px" y="82.32px" style="font-family:'ArialMT', 'Arial', sans-serif;font-size:10px;">O</text>
        <text x="344.88px" y="107.28px" style="font-family:'ArialMT', 'Arial', sans-serif;font-size:10px;">Hg</text>
        <text x="357.6px" y="107.28px" style="font-family:'ArialMT', 'Arial', sans-serif;font-size:10px;">(</text>
        <text x="360.96px" y="107.28px" style="font-family:'ArialMT', 'Arial', sans-serif;font-size:10px;">O</text>
        <text x="368.88px" y="107.28px" style="font-family:'ArialMT', 'Arial', sans-serif;font-size:10px;">Ac)</text>
        <text x="384px" y="109.92px" style="font-family:'ArialMT', 'Arial', sans-serif;font-size:6px;">2</text>
    </g>
    <g transform="matrix(0,1.33333,1.33333,0,-871.067,-138.999)">
        <path d="M136.07,745.14L150.83,745.14" style="fill:none;fill-rule:nonzero;stroke:black;stroke-width:0.72px;"/>
    </g>
    <g transform="matrix(0,1.33333,1.33333,0,-866.587,-143.479)">
        <path d="M139.43,745.14L154.19,745.14" style="fill:none;fill-rule:nonzero;stroke:black;stroke-width:0.72px;"/>
    </g>
    <g transform="matrix(1.15485,-0.666412,-0.666412,-1.15485,463.438,1013.05)">
        <path d="M143.796,757.5L163.724,757.5" style="fill:none;fill-rule:nonzero;stroke:black;stroke-width:0.72px;"/>
    </g>
    <g transform="matrix(-1.15462,-0.666798,-0.666798,1.15462,777.966,-745.761)">
        <path d="M128.657,756.935L146.313,756.935" style="fill:none;fill-rule:nonzero;stroke:black;stroke-width:0.72px;"/>
    </g>
    <g transform="matrix(1.15459,-0.666853,-0.666853,-1.15459,472.218,1021.33)">
        <path d="M161.417,766.11L175.933,766.11" style="fill:none;fill-rule:nonzero;stroke:black;stroke-width:0.72px;"/>
    </g>
    <g transform="matrix(1.15463,-0.666792,-0.666792,-1.15463,474.245,1020.15)">
        <path d="M159.617,769.47L175.933,769.47" style="fill:none;fill-rule:nonzero;stroke:black;stroke-width:0.72px;"/>
    </g>
    <g transform="matrix(1.15465,-0.666747,-0.666747,-1.15465,470.692,1023.21)">
        <path d="M163.041,763.41L178.399,763.41" style="fill:none;fill-rule:nonzero;stroke:black;stroke-width:0.72px;"/>
    </g>
    <g transform="matrix(1.33333,0,0,1.33333,-68.8134,-958.053)">
        <path d="M195.36,751.44L229.44,751.44" style="fill:none;fill-rule:nonzero;stroke:black;stroke-width:0.72px;"/>
    </g>
    <g transform="matrix(1.2958,0.314133,0.314133,-1.2958,-296.403,946.753)">
        <path d="M221.179,752.373L229.329,752.373L222.084,748.641L223.031,750.846L221.179,752.373Z" style="stroke:black;stroke-width:0.72px;"/>
    </g>
    <g transform="matrix(-0.735734,1.11197,1.11197,0.735734,-379.326,-766.842)">
        <path d="M238.907,742.315L258.823,742.315" style="fill:none;fill-rule:nonzero;stroke:black;stroke-width:0.72px;"/>
    </g>
    <g transform="matrix(-0.735456,1.11215,1.11215,0.735456,-370.978,-773.613)">
        <path d="M246.78,743.19L260.16,743.19" style="fill:none;fill-rule:nonzero;stroke:black;stroke-width:0.72px;"/>
    </g>
    <g transform="matrix(1.2824,-0.365009,-0.365009,-1.2824,219.757,1104.09)">
        <path d="M253.941,753.62L275.859,753.62" style="fill:none;fill-rule:nonzero;stroke:black;stroke-width:0.72px;"/>
    </g>
    <g transform="matrix(0.957089,0.928309,0.928309,-0.957089,-658.43,501.392)">
        <path d="M272.629,749.685L292.551,749.685" style="fill:none;fill-rule:nonzero;stroke:black;stroke-width:0.72px;"/>
    </g>
    <g transform="matrix(-0.32527,1.29305,1.29305,0.32527,-540.202,-541.624)">
        <path d="M277.349,733.09L297.271,733.09" style="fill:none;fill-rule:nonzero;stroke:black;stroke-width:0.72px;"/>
    </g>
    <g transform="matrix(-1.05869,-0.810524,-0.810524,1.05869,1183.08,-477.497)">
        <path d="M264.59,730.305L287.21,730.305" style="fill:none;fill-rule:nonzero;stroke:black;stroke-width:0.72px;"/>
    </g>
    <g transform="matrix(1.32142,-0.177872,-0.177872,-1.32142,65.0691,1082.4)">
        <path d="M243.264,735.595L267.026,735.595" style="fill:none;fill-rule:nonzero;stroke:black;stroke-width:0.72px;"/>
    </g>
    <g transform="matrix(1.33333,0,0,1.33333,-68.8134,-965.413)">
        <path d="M268.56,751.92L268.56,755.52L265.2,756.48L265.2,752.88" style="fill:white;"/>
    </g>
    <g transform="matrix(-0.00169097,-1.33333,-1.33333,0.00169097,1291.44,396.447)">
        <path d="M251.13,752.95L282.67,752.95" style="fill:none;fill-rule:nonzero;stroke:black;stroke-width:0.72px;"/>
    </g>
    <g transform="matrix(0.942809,-0.942809,-0.942809,-0.942809,768.166,1000.51)">
        <path d="M264.395,774.72L281.365,774.72" style="fill:none;fill-rule:nonzero;stroke:black;stroke-width:0.72px;"/>
    </g>
    <g transform="matrix(-0.188408,1.31995,1.31995,0.188408,-661.657,-489.769)">
        <path d="M264.988,768.67L289.332,768.67" style="fill:none;fill-rule:nonzero;stroke:black;stroke-width:0.72px;"/>
    </g>
    <g transform="matrix(1.28263,-0.364203,-0.364203,-1.28263,217.513,1116.2)">
        <path d="M289.452,744.82L304.608,744.82" style="fill:none;fill-rule:nonzero;stroke:black;stroke-width:0.72px;"/>
    </g>
    <g transform="matrix(0.957089,0.928309,0.928309,-0.957089,-640.174,493.335)">
        <path d="M286.929,735.815L306.851,735.815" style="fill:none;fill-rule:nonzero;stroke:black;stroke-width:0.72px;"/>
    </g>
    <g transform="matrix(0.956599,0.928814,0.928814,-0.956599,-625.103,486.083)">
        <path d="M302.142,724.2L315.578,724.2" style="fill:none;fill-rule:nonzero;stroke:black;stroke-width:0.72px;"/>
    </g>
    <g transform="matrix(0.957009,0.928392,0.928392,-0.957009,-625.179,482.942)">
        <path d="M304.144,725.775L319.986,725.775" style="fill:none;fill-rule:nonzero;stroke:black;stroke-width:0.72px;"/>
    </g>
    <g transform="matrix(0.957002,0.928399,0.928399,-0.957002,-622.242,489.002)">
        <path d="M299.398,720.78L315.712,720.78" style="fill:none;fill-rule:nonzero;stroke:black;stroke-width:0.72px;"/>
    </g>
    <g transform="matrix(1.33333,0,0,1.33333,-68.8134,-956.133)">
        <path d="M334.56,750.72L397.44,750.72" style="fill:none;fill-rule:nonzero;stroke:black;stroke-width:0.72px;"/>
    </g>
    <g transform="matrix(1.2958,0.314133,0.314133,-1.2958,-289.871,894.005)">
        <path d="M389.179,751.653L397.329,751.653L390.084,747.921L391.031,750.126L389.179,751.653Z" style="stroke:black;stroke-width:0.72px;"/>
    </g>
    <g transform="matrix(-0.735734,1.11197,1.11197,0.735734,-36.6885,-950.984)">
        <path d="M404.507,742.315L424.423,742.315" style="fill:none;fill-rule:nonzero;stroke:black;stroke-width:0.72px;"/>
    </g>
    <g transform="matrix(-0.735456,1.11215,1.11215,0.735456,-28.3866,-957.786)">
        <path d="M412.38,743.19L425.76,743.19" style="fill:none;fill-rule:nonzero;stroke:black;stroke-width:0.72px;"/>
    </g>
    <g transform="matrix(1.2824,-0.365009,-0.365009,-1.2824,228.192,1164.54)">
        <path d="M419.541,753.62L441.459,753.62" style="fill:none;fill-rule:nonzero;stroke:black;stroke-width:0.72px;"/>
    </g>
    <g transform="matrix(0.957089,0.928309,0.928309,-0.957089,-596.124,347.664)">
        <path d="M438.229,749.685L458.151,749.685" style="fill:none;fill-rule:nonzero;stroke:black;stroke-width:0.72px;"/>
    </g>
    <g transform="matrix(-0.32527,1.29305,1.29305,0.32527,-265.537,-755.753)">
        <path d="M442.949,733.09L462.871,733.09" style="fill:none;fill-rule:nonzero;stroke:black;stroke-width:0.72px;"/>
    </g>
    <g transform="matrix(-1.05869,-0.810524,-0.810524,1.05869,1579.2,-343.274)">
        <path d="M430.19,730.305L452.81,730.305" style="fill:none;fill-rule:nonzero;stroke:black;stroke-width:0.72px;"/>
    </g>
    <g transform="matrix(1.32142,-0.177872,-0.177872,-1.32142,67.0427,1111.86)">
        <path d="M408.864,735.595L432.626,735.595" style="fill:none;fill-rule:nonzero;stroke:black;stroke-width:0.72px;"/>
    </g>
    <g transform="matrix(1.33333,0,0,1.33333,-68.8134,-965.413)">
        <path d="M434.16,751.92L434.16,755.52L430.8,756.48L430.8,752.88" style="fill:white;"/>
    </g>
    <g transform="matrix(-0.00169097,-1.33333,-1.33333,0.00169097,1512.52,617.247)">
        <path d="M416.73,752.95L448.27,752.95" style="fill:none;fill-rule:nonzero;stroke:black;stroke-width:0.72px;"/>
    </g>
    <g transform="matrix(0.942809,-0.942809,-0.942809,-0.942809,832.837,1156.64)">
        <path d="M429.995,774.72L446.965,774.72" style="fill:none;fill-rule:nonzero;stroke:black;stroke-width:0.72px;"/>
    </g>
    <g transform="matrix(-0.188408,1.31995,1.31995,0.188408,-409.657,-708.353)">
        <path d="M430.588,768.67L454.932,768.67" style="fill:none;fill-rule:nonzero;stroke:black;stroke-width:0.72px;"/>
    </g>
    <g transform="matrix(1.28266,-0.364097,-0.364097,-1.28266,225.197,1176.61)">
        <path d="M455.526,743.1L469.954,743.1" style="fill:none;fill-rule:nonzero;stroke:black;stroke-width:0.72px;"/>
    </g>
    <g transform="matrix(1.28246,-0.364807,-0.364807,-1.28246,227.022,1176.45)">
        <path d="M454.586,746.465L469.974,746.465" style="fill:none;fill-rule:nonzero;stroke:black;stroke-width:0.72px;"/>
    </g>
    <g transform="matrix(0,1.33333,1.33333,0,-400.333,-433.893)">
        <path d="M398.4,679.2L462.72,679.2" style="fill:none;fill-rule:nonzero;stroke:black;stroke-width:0.72px;"/>
    </g>
    <g transform="matrix(-0.314133,1.2958,1.2958,0.314133,-203.046,-584.633)">
        <path d="M426.259,651.933L434.409,651.933L427.164,648.201L428.111,650.406L426.259,651.933Z" style="stroke:black;stroke-width:0.72px;"/>
    </g>
    <g transform="matrix(1.33333,0,0,1.33333,-68.8134,-791.653)">
        <path d="M455.28,689.04L470.64,689.04" style="fill:none;fill-rule:nonzero;stroke:black;stroke-width:0.72px;"/>
    </g>
    <g transform="matrix(1.33333,0,0,1.33333,-68.8134,-782.693)">
        <path d="M455.28,685.68L468.98,685.68" style="fill:none;fill-rule:nonzero;stroke:black;stroke-width:0.72px;"/>
    </g>
    <g transform="matrix(0.666796,1.15463,1.15463,-0.666796,-541.46,43.102)">
        <path d="M467.176,683.04L481.034,683.04" style="fill:none;fill-rule:nonzero;stroke:black;stroke-width:0.72px;"/>
    </g>
    <g transform="matrix(-0.735734,1.11197,1.11197,0.735734,125.719,-644.026)">
        <path d="M403.547,594.475L423.463,594.475" style="fill:none;fill-rule:nonzero;stroke:black;stroke-width:0.72px;"/>
    </g>
    <g transform="matrix(-0.735456,1.11215,1.11215,0.735456,134.048,-650.868)">
        <path d="M411.42,595.35L424.8,595.35" style="fill:none;fill-rule:nonzero;stroke:black;stroke-width:0.72px;"/>
    </g>
    <g transform="matrix(1.2824,-0.365009,-0.365009,-1.2824,174.18,1171.72)">
        <path d="M418.581,605.78L440.499,605.78" style="fill:none;fill-rule:nonzero;stroke:black;stroke-width:0.72px;"/>
    </g>
    <g transform="matrix(0.957089,0.928309,0.928309,-0.957089,-459.244,404.179)">
        <path d="M437.269,601.845L457.191,601.845" style="fill:none;fill-rule:nonzero;stroke:black;stroke-width:0.72px;"/>
    </g>
    <g transform="matrix(-0.32527,1.29305,1.29305,0.32527,-75.9648,-509.304)">
        <path d="M441.989,585.25L461.911,585.25" style="fill:none;fill-rule:nonzero;stroke:black;stroke-width:0.72px;"/>
    </g>
    <g transform="matrix(-1.05869,-0.810524,-0.810524,1.05869,1457.07,9.58458)">
        <path d="M429.23,582.465L451.85,582.465" style="fill:none;fill-rule:nonzero;stroke:black;stroke-width:0.72px;"/>
    </g>
    <g transform="matrix(1.32142,-0.177872,-0.177872,-1.32142,40.7346,1113.45)">
        <path d="M407.904,587.755L431.666,587.755" style="fill:none;fill-rule:nonzero;stroke:black;stroke-width:0.72px;"/>
    </g>
    <g transform="matrix(1.33333,0,0,1.33333,-68.8134,-571.173)">
        <path d="M433.2,604.08L433.2,607.68L429.84,608.64L429.84,605.04" style="fill:white;"/>
    </g>
    <g transform="matrix(-0.00169097,-1.33333,-1.33333,0.00169097,1314.12,813.337)">
        <path d="M415.77,605.11L447.31,605.11" style="fill:none;fill-rule:nonzero;stroke:black;stroke-width:0.72px;"/>
    </g>
    <g transform="matrix(0.942809,-0.942809,-0.942809,-0.942809,693.077,1213.47)">
        <path d="M429.035,626.88L446.005,626.88" style="fill:none;fill-rule:nonzero;stroke:black;stroke-width:0.72px;"/>
    </g>
    <g transform="matrix(-0.188408,1.31995,1.31995,0.188408,-215.975,-482.112)">
        <path d="M429.628,620.83L453.972,620.83" style="fill:none;fill-rule:nonzero;stroke:black;stroke-width:0.72px;"/>
    </g>
    <g transform="matrix(1.28267,-0.36405,-0.36405,-1.28267,171.887,1183.57)">
        <path d="M454.097,596.945L469.003,596.945" style="fill:none;fill-rule:nonzero;stroke:black;stroke-width:0.72px;"/>
    </g>
    <g transform="matrix(0.957089,0.928309,0.928309,-0.957089,-440.988,396.122)">
        <path d="M451.569,587.975L471.491,587.975" style="fill:none;fill-rule:nonzero;stroke:black;stroke-width:0.72px;"/>
    </g>
    <g transform="matrix(-0.3251,1.29309,1.29309,0.3251,-36.6745,-509.832)">
        <path d="M459.6,573.96L474.2,573.96" style="fill:none;fill-rule:nonzero;stroke:black;stroke-width:0.72px;"/>
    </g>
    <g transform="matrix(-0.325883,1.2929,1.2929,0.325883,-41.5998,-504.925)">
        <path d="M456.441,573.565L470.229,573.565" style="fill:none;fill-rule:nonzero;stroke:black;stroke-width:0.72px;"/>
    </g>
    <g transform="matrix(0,1.33333,1.33333,0,-200.653,-234.853)">
        <path d="M413.28,529.68L448.32,529.68" style="fill:none;fill-rule:nonzero;stroke:black;stroke-width:0.72px;"/>
    </g>
    <g transform="matrix(-0.314133,1.2958,1.2958,0.314133,-27.8732,-362.734)">
        <path d="M426.499,517.053L434.649,517.053L427.404,513.321L428.351,515.526L426.499,517.053Z" style="stroke:black;stroke-width:0.72px;"/>
    </g>
</svg>
