<?xml version="1.0" encoding="UTF-8" standalone="no"?>
<!DOCTYPE svg PUBLIC "-//W3C//DTD SVG 1.1//EN" "http://www.w3.org/Graphics/SVG/1.1/DTD/svg11.dtd">
<svg width="100%" height="100%" viewBox="0 0 745 350" version="1.1" xmlns="http://www.w3.org/2000/svg" xmlns:xlink="http://www.w3.org/1999/xlink" xml:space="preserve" xmlns:serif="http://www.serif.com/" style="fill-rule:evenodd;clip-rule:evenodd;stroke-linecap:round;stroke-linejoin:round;stroke-miterlimit:10;">
    <g transform="matrix(1.33333,0,0,1.33333,-72.7826,-47.983)">
        <text x="75.36px" y="52.8px" style="font-family:'ArialMT', 'Arial', sans-serif;font-size:10px;">O</text>
    </g>
    <g transform="matrix(1.33333,0,0,1.33333,-72.7826,-47.983)">
        <text x="58.32px" y="82.56px" style="font-family:'ArialMT', 'Arial', sans-serif;font-size:10px;">R</text>
    </g>
    <g transform="matrix(1.33333,0,0,1.33333,-72.7826,-47.983)">
        <text x="161.52px" y="82.56px" style="font-family:'ArialMT', 'Arial', sans-serif;font-size:10px;">O</text>
    </g>
    <g transform="matrix(1.33333,0,0,1.33333,-72.7826,-47.983)">
        <text x="144.24px" y="52.8px" style="font-family:'ArialMT', 'Arial', sans-serif;font-size:10px;">O</text>
    </g>
    <g transform="matrix(1.33333,0,0,1.33333,-72.7826,-47.983)">
        <text x="179.04px" y="72.72px" style="font-family:'ArialMT', 'Arial', sans-serif;font-size:10px;">R</text>
        <text x="186.48px" y="65.76px" style="font-family:'ArialMT', 'Arial', sans-serif;font-size:8px;">1</text>
    </g>
    <g transform="matrix(1.33333,0,0,1.33333,-72.7826,-47.983)">
        <text x="92.88px" y="102.48px" style="font-family:'ArialMT', 'Arial', sans-serif;font-size:10px;">H</text>
    </g>
    <g transform="matrix(1.33333,0,0,1.33333,-72.7826,-47.983)">
        <text x="248.4px" y="91.68px" style="font-family:'ArialMT', 'Arial', sans-serif;font-size:10px;">R</text>
    </g>
    <g transform="matrix(1.33333,0,0,1.33333,-72.7826,-47.983)">
        <text x="265.2px" y="61.92px" style="font-family:'ArialMT', 'Arial', sans-serif;font-size:10px;">O</text>
    </g>
    <g transform="matrix(1.33333,0,0,1.33333,-72.7826,-47.983)">
        <text x="300px" y="81.84px" style="font-family:'ArialMT', 'Arial', sans-serif;font-size:10px;">CH</text>
        <text x="314.423px" y="84.48px" style="font-family:'ArialMT', 'Arial', sans-serif;font-size:8px;">2</text>
        <text x="331.68px" y="80.16px" style="font-family:'ArialMT', 'Arial', sans-serif;font-size:18px;"><tspan x="331.68px " y="80.16px ">+</tspan></text>
        <text x="353.52px" y="77.28px" style="font-family:'ArialMT', 'Arial', sans-serif;font-size:10px;">H</text>
        <text x="360.731px" y="70.32px" style="font-family:'ArialMT', 'Arial', sans-serif;font-size:8px;">+</text>
        <text x="371.981px" y="80.88px" style="font-family:'ArialMT', 'Arial', sans-serif;font-size:18px;"><tspan x="371.981px " y="80.88px ">+</tspan></text>
    </g>
    <g transform="matrix(1.33333,0,0,1.33333,-72.7826,-47.983)">
        <text x="409.44px" y="89.52px" style="font-family:'ArialMT', 'Arial', sans-serif;font-size:10px;">C</text>
    </g>
    <g transform="matrix(1.33333,0,0,1.33333,-72.7826,-47.983)">
        <text x="397.92px" y="89.52px" style="font-family:'ArialMT', 'Arial', sans-serif;font-size:10px;">H</text>
        <text x="405.129px" y="92.16px" style="font-family:'ArialMT', 'Arial', sans-serif;font-size:8px;">2</text>
        <text x="416.64px" y="82.56px" style="font-family:'ArialMT', 'Arial', sans-serif;font-size:8px;">–</text>
    </g>
    <g transform="matrix(1.33333,0,0,1.33333,-72.7826,-47.983)">
        <text x="443.52px" y="89.52px" style="font-family:'ArialMT', 'Arial', sans-serif;font-size:10px;">O</text>
    </g>
    <g transform="matrix(1.33333,0,0,1.33333,-72.7826,-47.983)">
        <text x="426.24px" y="59.76px" style="font-family:'ArialMT', 'Arial', sans-serif;font-size:10px;">O</text>
    </g>
    <g transform="matrix(1.33333,0,0,1.33333,-72.7826,-47.983)">
        <text x="461.04px" y="79.68px" style="font-family:'ArialMT', 'Arial', sans-serif;font-size:10px;">R</text>
        <text x="468.48px" y="72.72px" style="font-family:'ArialMT', 'Arial', sans-serif;font-size:8px;">1</text>
    </g>
    <g transform="matrix(0.192537,1.31936,-1.31936,0.192537,-72.7826,-47.983)">
        <text x="137.801px" y="-394.496px" style="font-family:'ArialMT', 'Arial', sans-serif;font-size:10px;">:</text>
    </g>
    <g transform="matrix(1.33333,0,0,1.33333,-72.7826,-47.983)">
        <text x="535.44px" y="90.72px" style="font-family:'ArialMT', 'Arial', sans-serif;font-size:10px;">C</text>
    </g>
    <g transform="matrix(1.33333,0,0,1.33333,-72.7826,-47.983)">
        <text x="523.92px" y="90.72px" style="font-family:'ArialMT', 'Arial', sans-serif;font-size:10px;">H</text>
        <text x="531.12px" y="93.36px" style="font-family:'ArialMT', 'Arial', sans-serif;font-size:8px;">2</text>
    </g>
    <g transform="matrix(1.33333,0,0,1.33333,-72.7826,-47.983)">
        <text x="569.52px" y="90.72px" style="font-family:'ArialMT', 'Arial', sans-serif;font-size:10px;">O</text>
    </g>
    <g transform="matrix(1.33333,0,0,1.33333,-72.7826,-47.983)">
        <text x="552.24px" y="60.96px" style="font-family:'ArialMT', 'Arial', sans-serif;font-size:10px;">O</text>
        <text x="560.16px" y="54px" style="font-family:'ArialMT', 'Arial', sans-serif;font-size:8px;">–</text>
    </g>
    <g transform="matrix(1.33333,0,0,1.33333,-72.7826,-47.983)">
        <text x="587.04px" y="80.88px" style="font-family:'ArialMT', 'Arial', sans-serif;font-size:10px;">R</text>
        <text x="594.48px" y="73.92px" style="font-family:'ArialMT', 'Arial', sans-serif;font-size:8px;">1</text>
    </g>
    <g transform="matrix(1.33333,0,0,1.33333,-72.7826,-47.983)">
        <text x="547.92px" y="59.76px" style="font-family:'ArialMT', 'Arial', sans-serif;font-size:10px;">:	<tspan x="560.88px " y="59.76px ">:</tspan></text>
    </g>
    <g transform="matrix(0.0162671,-1.33323,1.33323,0.0162671,-72.7826,-47.983)">
        <text x="-45.163px" y="557.392px" style="font-family:'ArialMT', 'Arial', sans-serif;font-size:10px;">:</text>
    </g>
    <g transform="matrix(1.33333,0,0,1.33333,-72.7826,-47.983)">
        <text x="411.36px" y="168.72px" style="font-family:'ArialMT', 'Arial', sans-serif;font-size:10px;">O</text>
    </g>
    <g transform="matrix(1.33333,0,0,1.33333,-72.7826,-47.983)">
        <text x="394.08px" y="198.72px" style="font-family:'ArialMT', 'Arial', sans-serif;font-size:10px;">O</text>
    </g>
    <g transform="matrix(1.33333,0,0,1.33333,-72.7826,-47.983)">
        <text x="394.32px" y="158.88px" style="font-family:'ArialMT', 'Arial', sans-serif;font-size:10px;">R</text>
        <text x="401.76px" y="151.92px" style="font-family:'ArialMT', 'Arial', sans-serif;font-size:8px;">1</text>
    </g>
    <g transform="matrix(1.33333,0,0,1.33333,-72.7826,-47.983)">
        <text x="463.2px" y="198.72px" style="font-family:'ArialMT', 'Arial', sans-serif;font-size:10px;">O</text>
    </g>
    <g transform="matrix(1.33333,0,0,1.33333,-72.7826,-47.983)">
        <text x="445.92px" y="168.72px" style="font-family:'ArialMT', 'Arial', sans-serif;font-size:10px;">O</text>
    </g>
    <g transform="matrix(1.33333,0,0,1.33333,-72.7826,-47.983)">
        <text x="463.44px" y="158.88px" style="font-family:'ArialMT', 'Arial', sans-serif;font-size:10px;">R</text>
        <text x="470.88px" y="151.92px" style="font-family:'ArialMT', 'Arial', sans-serif;font-size:8px;">1</text>
    </g>
    <g transform="matrix(1.33333,0,0,1.33333,-72.7826,-47.983)">
        <text x="529.68px" y="189.84px" style="font-family:'ArialMT', 'Arial', sans-serif;font-size:10px;">C</text>
    </g>
    <g transform="matrix(1.33333,0,0,1.33333,-72.7826,-47.983)">
        <text x="518.16px" y="189.84px" style="font-family:'ArialMT', 'Arial', sans-serif;font-size:10px;">H</text>
        <text x="525.36px" y="192.48px" style="font-family:'ArialMT', 'Arial', sans-serif;font-size:8px;">2</text>
    </g>
    <g transform="matrix(1.33333,0,0,1.33333,-72.7826,-47.983)">
        <text x="563.76px" y="189.84px" style="font-family:'ArialMT', 'Arial', sans-serif;font-size:10px;">O</text>
    </g>
    <g transform="matrix(1.33333,0,0,1.33333,-72.7826,-47.983)">
        <text x="546.48px" y="160.08px" style="font-family:'ArialMT', 'Arial', sans-serif;font-size:10px;">O</text>
        <text x="554.4px" y="160.08px" style="font-family:'ArialMT', 'Arial', sans-serif;font-size:10px;">S</text>
        <text x="561.12px" y="160.08px" style="font-family:'ArialMT', 'Arial', sans-serif;font-size:10px;">i</text>
        <text x="563.52px" y="160.08px" style="font-family:'ArialMT', 'Arial', sans-serif;font-size:10px;">M</text>
        <text x="571.92px" y="160.08px" style="font-family:'ArialMT', 'Arial', sans-serif;font-size:10px;">e</text>
        <text x="577.68px" y="162.72px" style="font-family:'ArialMT', 'Arial', sans-serif;font-size:8px;">3</text>
        <text x="581.28px" y="180px" style="font-family:'ArialMT', 'Arial', sans-serif;font-size:10px;">R</text>
        <text x="588.72px" y="173.04px" style="font-family:'ArialMT', 'Arial', sans-serif;font-size:8px;">1</text>
    </g>
    <g transform="matrix(1.33333,0,0,1.33333,-72.7826,-47.983)">
        <text x="530.64px" y="293.76px" style="font-family:'ArialMT', 'Arial', sans-serif;font-size:10px;">C</text>
    </g>
    <g transform="matrix(1.33333,0,0,1.33333,-72.7826,-47.983)">
        <text x="519.12px" y="293.76px" style="font-family:'ArialMT', 'Arial', sans-serif;font-size:10px;">H</text>
        <text x="526.32px" y="296.4px" style="font-family:'ArialMT', 'Arial', sans-serif;font-size:8px;">3</text>
    </g>
    <g transform="matrix(1.33333,0,0,1.33333,-72.7826,-47.983)">
        <text x="564.72px" y="293.76px" style="font-family:'ArialMT', 'Arial', sans-serif;font-size:10px;">O</text>
    </g>
    <g transform="matrix(1.33333,0,0,1.33333,-72.7826,-47.983)">
        <text x="547.44px" y="264px" style="font-family:'ArialMT', 'Arial', sans-serif;font-size:10px;">O</text>
    </g>
    <g transform="matrix(1.33333,0,0,1.33333,-72.7826,-47.983)">
        <text x="582.24px" y="283.92px" style="font-family:'ArialMT', 'Arial', sans-serif;font-size:10px;">R</text>
        <text x="589.68px" y="276.96px" style="font-family:'ArialMT', 'Arial', sans-serif;font-size:8px;">1</text>
    </g>
    <g transform="matrix(-1.15468,-0.666702,-0.666702,1.15468,658.064,-778.221)">
        <path d="M77.926,768.24L97.844,768.24" style="fill:none;fill-rule:nonzero;stroke:black;stroke-width:0.72px;"/>
    </g>
    <g transform="matrix(-1.15468,0.666702,0.666702,1.15468,-323.393,-906.908)">
        <path d="M95.176,768.24L115.094,768.24" style="fill:none;fill-rule:nonzero;stroke:black;stroke-width:0.72px;"/>
    </g>
    <g transform="matrix(-1.15468,-0.666702,-0.666702,1.15468,743.9,-755.22)">
        <path d="M112.426,768.24L132.344,768.24" style="fill:none;fill-rule:nonzero;stroke:black;stroke-width:0.72px;"/>
    </g>
    <g transform="matrix(-1.15468,0.666702,0.666702,1.15468,-237.556,-929.909)">
        <path d="M129.676,768.24L149.594,768.24" style="fill:none;fill-rule:nonzero;stroke:black;stroke-width:0.72px;"/>
    </g>
    <g transform="matrix(0,-1.33333,-1.33333,0,1075.9,141.737)">
        <path d="M73.59,780.57L88.29,780.57" style="fill:none;fill-rule:nonzero;stroke:black;stroke-width:0.72px;"/>
    </g>
    <g transform="matrix(0,-1.33333,-1.33333,0,1071.42,137.257)">
        <path d="M70.23,780.57L84.93,780.57" style="fill:none;fill-rule:nonzero;stroke:black;stroke-width:0.72px;"/>
    </g>
    <g transform="matrix(-1.15464,0.666766,0.666766,1.15464,-404.58,-888.583)">
        <path d="M65.491,769.53L80.249,769.53" style="fill:none;fill-rule:nonzero;stroke:black;stroke-width:0.72px;"/>
    </g>
    <g transform="matrix(1.15476,0.666568,0.666568,-1.15476,-558.246,834.208)">
        <path d="M147.309,769.67L161.511,769.67" style="fill:none;fill-rule:nonzero;stroke:black;stroke-width:0.72px;"/>
    </g>
    <g transform="matrix(0,-1.33333,-1.33333,0,1167.9,233.737)">
        <path d="M142.59,780.57L157.29,780.57" style="fill:none;fill-rule:nonzero;stroke:black;stroke-width:0.72px;"/>
    </g>
    <g transform="matrix(0,-1.33333,-1.33333,0,1163.42,229.257)">
        <path d="M139.23,780.57L153.93,780.57" style="fill:none;fill-rule:nonzero;stroke:black;stroke-width:0.72px;"/>
    </g>
    <g transform="matrix(1.15496,-0.66621,-0.66621,-1.15496,470.142,1053.62)">
        <path d="M169.807,768.295L178.673,768.295" style="fill:none;fill-rule:nonzero;stroke:black;stroke-width:0.72px;"/>
    </g>
    <g transform="matrix(0,1.33333,1.33333,0,-951.983,-61.983)">
        <path d="M89.16,755.91L103.86,755.91" style="fill:none;fill-rule:nonzero;stroke:black;stroke-width:0.72px;"/>
    </g>
    <g transform="matrix(1.33333,0,0,1.33333,-72.7826,-936.623)">
        <path d="M108,743.28L109.44,743.76L110.88,744.48L112.08,745.44L113.04,746.4L114,747.6L114.72,748.8L115.44,750.24L115.92,751.68L116.16,753.12L116.16,754.08L115.92,755.04L115.92,756.24L115.68,757.44L114.72,759.36L114,760.32L113.52,761.28L112.56,762L111.84,762.72L110.88,763.44L108.96,764.4L107.76,764.64L106.8,764.88L105.6,765.12L105.12,765.12L102,764.64" style="fill:none;fill-rule:nonzero;stroke:black;stroke-width:0.48px;"/>
    </g>
    <g transform="matrix(-1.2958,-0.314133,-0.314133,1.2958,461.058,-894.599)">
        <path d="M108.309,760.611L116.459,760.611L109.094,764.505L110.182,762.053L108.309,760.611Z" style="stroke:black;stroke-width:0.48px;"/>
    </g>
    <g transform="matrix(1.33333,0,0,1.33333,-72.7826,-1019.5)">
        <path d="M145.2,792.24L143.76,792.48L141.36,792L139.44,791.04L138.48,790.32L137.76,789.36L136.8,787.44L136.56,786.24L136.32,785.76L136.32,785.28L136.56,783.84L136.8,782.64L138.24,780.24L140.16,778.8L141.36,778.32L142.08,778.08" style="fill:none;fill-rule:nonzero;stroke:black;stroke-width:0.48px;"/>
    </g>
    <g transform="matrix(1.28635,-0.350823,-0.350823,-1.28635,210.717,1085.94)">
        <path d="M134.489,791.337L142.698,791.337L135.394,787.358L136.552,789.779L134.489,791.337Z" style="stroke:black;stroke-width:0.48px;"/>
    </g>
    <g transform="matrix(1.33333,0,0,1.33333,-72.7826,-963.823)">
        <path d="M130.08,775.68L128.4,774.72L125.52,771.84L124.56,770.16L123.84,768.24L123.36,766.32L123.12,765.12L123.12,762.24L124.08,758.88L126,756L128.4,753.6L129.12,753.12" style="fill:none;fill-rule:nonzero;stroke:black;stroke-width:0.48px;"/>
    </g>
    <g transform="matrix(1.20021,0.580748,0.580748,-1.20021,-495.286,900.49)">
        <path d="M122.907,755.076L131.172,755.076L123.924,759.034L125.074,756.658L122.907,755.076Z" style="stroke:black;stroke-width:0.48px;"/>
    </g>
    <g transform="matrix(1.33333,0,0,1.33333,-72.7826,-970.863)">
        <path d="M199.44,767.04L233.52,767.04" style="fill:none;fill-rule:nonzero;stroke:black;stroke-width:0.72px;"/>
    </g>
    <g transform="matrix(1.33333,0,0,1.33333,-72.7826,-978.543)">
        <path d="M199.44,769.92L233.52,769.92" style="fill:none;fill-rule:nonzero;stroke:black;stroke-width:0.72px;"/>
    </g>
    <g transform="matrix(1.33333,0,0,1.33333,-72.7826,-974.703)">
        <path d="M228.96,764.88L236.88,768.48L228.96,772.08" style="fill:none;fill-rule:nonzero;stroke:black;stroke-width:0.72px;"/>
    </g>
    <g transform="matrix(-1.15457,0.6669,0.6669,1.15457,74.1641,-992.64)">
        <path d="M255.578,760.435L270.232,760.435" style="fill:none;fill-rule:nonzero;stroke:black;stroke-width:0.72px;"/>
    </g>
    <g transform="matrix(1.15468,0.666702,0.666702,-1.15468,-529.246,753.698)">
        <path d="M267.916,759.12L287.834,759.12" style="fill:none;fill-rule:nonzero;stroke:black;stroke-width:0.72px;"/>
    </g>
    <g transform="matrix(0,-1.33333,-1.33333,0,1317.06,407.217)">
        <path d="M263.58,771.45L278.28,771.45" style="fill:none;fill-rule:nonzero;stroke:black;stroke-width:0.72px;"/>
    </g>
    <g transform="matrix(0,-1.33333,-1.33333,0,1312.58,402.737)">
        <path d="M260.22,771.45L274.92,771.45" style="fill:none;fill-rule:nonzero;stroke:black;stroke-width:0.72px;"/>
    </g>
    <g transform="matrix(1.1547,-0.666669,-0.666669,-1.1547,484.691,1134.4)">
        <path d="M285.53,757.76L300.01,757.76" style="fill:none;fill-rule:nonzero;stroke:black;stroke-width:0.72px;"/>
    </g>
    <g transform="matrix(1.15479,-0.666507,-0.666507,-1.15479,487.035,1133.64)">
        <path d="M285.278,761.545L299.942,761.545" style="fill:none;fill-rule:nonzero;stroke:black;stroke-width:0.72px;"/>
    </g>
    <g transform="matrix(-1.15485,0.666416,0.666416,1.15485,478.404,-1109.97)">
        <path d="M421.273,763.845L430.937,763.845" style="fill:none;fill-rule:nonzero;stroke:black;stroke-width:0.72px;"/>
    </g>
    <g transform="matrix(1.15487,0.666378,0.666378,-1.15487,-503.155,647.633)">
        <path d="M429.342,762.72L443.508,762.72" style="fill:none;fill-rule:nonzero;stroke:black;stroke-width:0.72px;"/>
    </g>
    <g transform="matrix(0,-1.33333,-1.33333,0,1534.66,619.057)">
        <path d="M424.62,773.61L439.32,773.61" style="fill:none;fill-rule:nonzero;stroke:black;stroke-width:0.72px;"/>
    </g>
    <g transform="matrix(0,-1.33333,-1.33333,0,1530.18,614.577)">
        <path d="M421.26,773.61L435.96,773.61" style="fill:none;fill-rule:nonzero;stroke:black;stroke-width:0.72px;"/>
    </g>
    <g transform="matrix(1.15431,-0.667337,-0.667337,-1.15431,516.951,1242.75)">
        <path d="M451.804,761.32L460.676,761.32" style="fill:none;fill-rule:nonzero;stroke:black;stroke-width:0.72px;"/>
    </g>
    <g transform="matrix(1.33333,0,0,1.33333,-72.7826,-973.423)">
        <path d="M480.72,768L514.8,768" style="fill:none;fill-rule:nonzero;stroke:black;stroke-width:0.72px;"/>
    </g>
    <g transform="matrix(1.2958,0.314133,0.314133,-1.2958,-294.864,885.28)">
        <path d="M506.539,768.933L514.689,768.933L507.444,765.201L508.391,767.406L506.539,768.933Z" style="stroke:black;stroke-width:0.72px;"/>
    </g>
    <g transform="matrix(-1.2958,0.314133,0.314133,1.2958,960.251,-1096.85)">
        <path d="M480.379,767.067L488.529,767.067L481.284,770.799L482.231,768.594L480.379,767.067Z" style="stroke:black;stroke-width:0.72px;"/>
    </g>
    <g transform="matrix(-1.15477,0.66655,0.66655,1.15477,785.854,-1190.35)">
        <path d="M542.684,763.09L556.366,763.09" style="fill:none;fill-rule:nonzero;stroke:black;stroke-width:0.72px;"/>
    </g>
    <g transform="matrix(-1.15439,0.667207,0.667207,1.15439,789.495,-1182.55)">
        <path d="M542.551,759.7L558.179,759.7" style="fill:none;fill-rule:nonzero;stroke:black;stroke-width:0.72px;"/>
    </g>
    <g transform="matrix(1.15487,0.666378,0.666378,-1.15487,-479.869,563.884)">
        <path d="M555.342,761.52L569.508,761.52" style="fill:none;fill-rule:nonzero;stroke:black;stroke-width:0.72px;"/>
    </g>
    <g transform="matrix(0,-1.33333,-1.33333,0,1698.82,786.417)">
        <path d="M548.94,772.41L563.64,772.41" style="fill:none;fill-rule:nonzero;stroke:black;stroke-width:0.72px;"/>
    </g>
    <g transform="matrix(1.15431,-0.667337,-0.667337,-1.15431,538.707,1327.05)">
        <path d="M577.804,760.12L586.676,760.12" style="fill:none;fill-rule:nonzero;stroke:black;stroke-width:0.72px;"/>
    </g>
    <g transform="matrix(1.33333,0,0,1.33333,-72.7826,-974.703)">
        <path d="M391.2,742.8L398.4,742.8L398.4,743.28L392.64,743.28L392.64,793.68L398.4,793.68L398.4,794.16L391.2,794.16L391.2,742.8Z" style="stroke:black;stroke-width:0.02px;"/>
    </g>
    <g transform="matrix(1.33333,0,0,1.33333,-72.7826,-974.703)">
        <path d="M605.04,742.8L597.84,742.8L597.84,743.28L603.6,743.28L603.6,793.68L597.84,793.68L597.84,794.16L605.04,794.16L605.04,742.8Z" style="stroke:black;stroke-width:0.02px;"/>
    </g>
    <g transform="matrix(0,1.33333,1.33333,0,-459.983,-457.583)">
        <path d="M412.32,719.76L446.4,719.76" style="fill:none;fill-rule:nonzero;stroke:black;stroke-width:0.72px;"/>
    </g>
    <g transform="matrix(0,1.33333,1.33333,0,-456.143,-461.423)">
        <path d="M415.2,719.76L449.28,719.76" style="fill:none;fill-rule:nonzero;stroke:black;stroke-width:0.72px;"/>
    </g>
    <g transform="matrix(1.33333,0,0,1.33333,-72.7826,-800.943)">
        <path d="M434.4,699.36L430.8,707.28L427.2,699.36" style="fill:none;fill-rule:nonzero;stroke:black;stroke-width:0.72px;"/>
    </g>
    <g transform="matrix(0,1.33333,1.33333,0,-303.343,-635.023)">
        <path d="M537.48,727.56L571.8,727.56" style="fill:none;fill-rule:nonzero;stroke:black;stroke-width:0.72px;"/>
    </g>
    <g transform="matrix(0,1.33333,1.33333,0,-299.503,-638.863)">
        <path d="M540.36,727.56L574.68,727.56" style="fill:none;fill-rule:nonzero;stroke:black;stroke-width:0.72px;"/>
    </g>
    <g transform="matrix(1.33333,0,0,1.33333,-72.7826,-821.423)">
        <path d="M559.68,707.04L556.08,714.96L552.48,707.04" style="fill:none;fill-rule:nonzero;stroke:black;stroke-width:0.72px;"/>
    </g>
    <g transform="matrix(1.15468,-0.666702,-0.666702,-1.15468,440.859,1252.25)">
        <path d="M431.296,652.18L451.214,652.18" style="fill:none;fill-rule:nonzero;stroke:black;stroke-width:0.72px;"/>
    </g>
    <g transform="matrix(-1.15485,-0.666412,-0.666412,1.15485,1416.83,-265.606)">
        <path d="M414.036,652.18L433.964,652.18" style="fill:none;fill-rule:nonzero;stroke:black;stroke-width:0.72px;"/>
    </g>
    <g transform="matrix(0,-1.33333,-1.33333,0,1367.15,742.297)">
        <path d="M407.95,664.58L422.79,664.58" style="fill:none;fill-rule:nonzero;stroke:black;stroke-width:0.72px;"/>
    </g>
    <g transform="matrix(-1.15427,0.667419,0.667419,1.15427,506.668,-828.289)">
        <path d="M402.063,655.275L415.427,655.275" style="fill:none;fill-rule:nonzero;stroke:black;stroke-width:0.72px;"/>
    </g>
    <g transform="matrix(-1.15432,0.667327,0.667327,1.15432,511.105,-820.401)">
        <path d="M401.933,651.88L417.237,651.88" style="fill:none;fill-rule:nonzero;stroke:black;stroke-width:0.72px;"/>
    </g>
    <g transform="matrix(-1.15423,-0.667474,-0.667474,1.15423,1393.64,-351.253)">
        <path d="M401.866,682.24L411.014,682.24" style="fill:none;fill-rule:nonzero;stroke:black;stroke-width:0.72px;"/>
    </g>
    <g transform="matrix(1.15436,0.667255,0.667255,-1.15436,-426.216,653.877)">
        <path d="M448.017,651.895L463.263,651.895" style="fill:none;fill-rule:nonzero;stroke:black;stroke-width:0.72px;"/>
    </g>
    <g transform="matrix(1.15431,0.667337,0.667337,-1.15431,-428.363,652.641)">
        <path d="M449.827,655.29L463.133,655.29" style="fill:none;fill-rule:nonzero;stroke:black;stroke-width:0.72px;"/>
    </g>
    <g transform="matrix(0,-1.33333,-1.33333,0,1413.16,788.31)">
        <path d="M442.46,664.58L457.3,664.58" style="fill:none;fill-rule:nonzero;stroke:black;stroke-width:0.72px;"/>
    </g>
    <g transform="matrix(1.15431,-0.667337,-0.667337,-1.15431,464.541,1258.53)">
        <path d="M454.204,682.14L463.076,682.14" style="fill:none;fill-rule:nonzero;stroke:black;stroke-width:0.72px;"/>
    </g>
    <g transform="matrix(-1.15435,0.66728,0.66728,1.15435,836.873,-940.024)">
        <path d="M536.921,663.975L550.609,663.975" style="fill:none;fill-rule:nonzero;stroke:black;stroke-width:0.72px;"/>
    </g>
    <g transform="matrix(-1.15439,0.667207,0.667207,1.15439,841.299,-932.127)">
        <path d="M536.791,660.58L552.419,660.58" style="fill:none;fill-rule:nonzero;stroke:black;stroke-width:0.72px;"/>
    </g>
    <g transform="matrix(1.15487,0.666378,0.666378,-1.15487,-414.846,585.412)">
        <path d="M549.582,662.4L563.748,662.4" style="fill:none;fill-rule:nonzero;stroke:black;stroke-width:0.72px;"/>
    </g>
    <g transform="matrix(0,-1.33333,-1.33333,0,1558.98,910.897)">
        <path d="M543.18,673.29L557.88,673.29" style="fill:none;fill-rule:nonzero;stroke:black;stroke-width:0.72px;"/>
    </g>
    <g transform="matrix(1.15431,-0.667337,-0.667337,-1.15431,471.529,1340.95)">
        <path d="M572.044,661L580.916,661" style="fill:none;fill-rule:nonzero;stroke:black;stroke-width:0.72px;"/>
    </g>
    <g transform="matrix(0,1.33333,1.33333,0,-159.983,-491.663)">
        <path d="M539.16,620.04L570.12,620.04" style="fill:none;fill-rule:nonzero;stroke:black;stroke-width:0.72px;"/>
    </g>
    <g transform="matrix(0,1.33333,1.33333,0,-156.143,-495.503)">
        <path d="M542.04,620.04L573,620.04" style="fill:none;fill-rule:nonzero;stroke:black;stroke-width:0.72px;"/>
    </g>
    <g transform="matrix(1.33333,0,0,1.33333,-72.7826,-539.183)">
        <path d="M559.68,601.2L556.08,609.12L552.48,601.2" style="fill:none;fill-rule:nonzero;stroke:black;stroke-width:0.72px;"/>
    </g>
    <g transform="matrix(-1.15457,0.6669,0.6669,1.15457,911.116,-678.111)">
        <path d="M537.818,558.355L552.472,558.355" style="fill:none;fill-rule:nonzero;stroke:black;stroke-width:0.72px;"/>
    </g>
    <g transform="matrix(1.15487,0.666378,0.666378,-1.15487,-345.424,603.318)">
        <path d="M550.542,558.48L564.708,558.48" style="fill:none;fill-rule:nonzero;stroke:black;stroke-width:0.72px;"/>
    </g>
    <g transform="matrix(0,-1.33333,-1.33333,0,1423.94,1052.98)">
        <path d="M545.82,569.37L560.52,569.37" style="fill:none;fill-rule:nonzero;stroke:black;stroke-width:0.72px;"/>
    </g>
    <g transform="matrix(0,-1.33333,-1.33333,0,1419.46,1048.5)">
        <path d="M542.46,569.37L557.16,569.37" style="fill:none;fill-rule:nonzero;stroke:black;stroke-width:0.72px;"/>
    </g>
    <g transform="matrix(1.15431,-0.667337,-0.667337,-1.15431,402.351,1360.2)">
        <path d="M573.004,557.08L581.876,557.08" style="fill:none;fill-rule:nonzero;stroke:black;stroke-width:0.72px;"/>
    </g>
</svg>
