<?xml version="1.0" encoding="UTF-8" standalone="no"?>
<!DOCTYPE svg PUBLIC "-//W3C//DTD SVG 1.1//EN" "http://www.w3.org/Graphics/SVG/1.1/DTD/svg11.dtd">
<svg width="100%" height="100%" viewBox="0 0 550 210" version="1.1" xmlns="http://www.w3.org/2000/svg" xmlns:xlink="http://www.w3.org/1999/xlink" xml:space="preserve" xmlns:serif="http://www.serif.com/" style="fill-rule:evenodd;clip-rule:evenodd;stroke-linecap:round;stroke-linejoin:round;stroke-miterlimit:10;">
    <g transform="matrix(1.33333,0,0,1.33333,-87.4452,-72.7574)">
        <text x="72.48px" y="109.44px" style="font-family:'ArialMT', 'Arial', sans-serif;font-size:10px;">R</text>
    </g>
    <g transform="matrix(1.33333,0,0,1.33333,-87.4452,-72.7574)">
        <text x="124.08px" y="99.6px" style="font-family:'ArialMT', 'Arial', sans-serif;font-size:10px;">CH</text>
        <text x="138.48px" y="102.24px" style="font-family:'ArialMT', 'Arial', sans-serif;font-size:8px;">2</text>
    </g>
    <g transform="matrix(1.33333,0,0,1.33333,-87.4452,-72.7574)">
        <text x="89.28px" y="79.68px" style="font-family:'ArialMT', 'Arial', sans-serif;font-size:10px;">O</text>
    </g>
    <g transform="matrix(1.33333,0,0,1.33333,-87.4452,-72.7574)">
        <text x="153.36px" y="97.92px" style="font-family:'ArialMT', 'Arial', sans-serif;font-size:18px;">+</text>
        <text x="192.72px" y="87.6px" style="font-family:'ArialMT', 'Arial', sans-serif;font-size:10px;">O</text>
        <text x="175.68px" y="117.6px" style="font-family:'ArialMT', 'Arial', sans-serif;font-size:10px;">O</text>
    </g>
    <g transform="matrix(1.33333,0,0,1.33333,-87.4452,-72.7574)">
        <text x="244.56px" y="117.12px" style="font-family:'ArialMT', 'Arial', sans-serif;font-size:10px;">O</text>
    </g>
    <g transform="matrix(1.33333,0,0,1.33333,-87.4452,-72.7574)">
        <text x="227.28px" y="87.36px" style="font-family:'ArialMT', 'Arial', sans-serif;font-size:10px;">O</text>
    </g>
    <g transform="matrix(1.33333,0,0,1.33333,-87.4452,-72.7574)">
        <text x="244.56px" y="77.28px" style="font-family:'ArialMT', 'Arial', sans-serif;font-size:10px;">R</text>
        <text x="252px" y="70.32px" style="font-family:'ArialMT', 'Arial', sans-serif;font-size:8px;">1</text>
        <text x="175.68px" y="77.76px" style="font-family:'ArialMT', 'Arial', sans-serif;font-size:10px;">R</text>
        <text x="183.12px" y="70.8px" style="font-family:'ArialMT', 'Arial', sans-serif;font-size:8px;">1</text>
    </g>
    <g transform="matrix(1.33333,0,0,1.33333,-87.4452,-72.7574)">
        <text x="285.6px" y="87.12px" style="font-family:'ArialMT', 'Arial', sans-serif;font-size:10px;">:<tspan x="288.48px " y="87.12px ">B</tspan></text>
    </g>
    <g transform="matrix(1.33333,0,0,1.33333,-87.4452,-72.7574)">
        <text x="351.84px" y="65.52px" style="font-family:'ArialMT', 'Arial', sans-serif;font-size:10px;">O</text>
    </g>
    <g transform="matrix(1.33333,0,0,1.33333,-87.4452,-72.7574)">
        <text x="334.8px" y="95.28px" style="font-family:'ArialMT', 'Arial', sans-serif;font-size:10px;">R</text>
    </g>
    <g transform="matrix(1.33333,0,0,1.33333,-87.4452,-72.7574)">
        <text x="438px" y="95.28px" style="font-family:'ArialMT', 'Arial', sans-serif;font-size:10px;">O</text>
    </g>
    <g transform="matrix(1.33333,0,0,1.33333,-87.4452,-72.7574)">
        <text x="420.72px" y="65.52px" style="font-family:'ArialMT', 'Arial', sans-serif;font-size:10px;">O</text>
    </g>
    <g transform="matrix(1.33333,0,0,1.33333,-87.4452,-72.7574)">
        <text x="455.52px" y="85.44px" style="font-family:'ArialMT', 'Arial', sans-serif;font-size:10px;">R</text>
        <text x="462.96px" y="78.48px" style="font-family:'ArialMT', 'Arial', sans-serif;font-size:8px;">1</text>
    </g>
    <g transform="matrix(1.33333,0,0,1.33333,-87.4452,-72.7574)">
        <text x="386.16px" y="125.28px" style="font-family:'ArialMT', 'Arial', sans-serif;font-size:10px;">O</text>
    </g>
    <g transform="matrix(1.33333,0,0,1.33333,-87.4452,-72.7574)">
        <text x="420.72px" y="125.28px" style="font-family:'ArialMT', 'Arial', sans-serif;font-size:10px;">O</text>
    </g>
    <g transform="matrix(1.33333,0,0,1.33333,-87.4452,-72.7574)">
        <text x="438.24px" y="115.2px" style="font-family:'ArialMT', 'Arial', sans-serif;font-size:10px;">R</text>
        <text x="445.68px" y="108.24px" style="font-family:'ArialMT', 'Arial', sans-serif;font-size:8px;">1</text>
    </g>
    <g transform="matrix(1.33333,0,0,1.33333,-87.4452,-72.7574)">
        <text x="376.8px" y="168.24px" style="font-family:'ArialMT', 'Arial', sans-serif;font-size:10px;">H</text>
        <text x="383.852px" y="170.88px" style="font-family:'ArialMT', 'Arial', sans-serif;font-size:6px;">2</text>
        <text x="387.363px" y="168.24px" style="font-family:'ArialMT', 'Arial', sans-serif;font-size:10px;">O</text>
        <text x="403.92px" y="168.72px" style="font-family:'ArialMT', 'Arial', sans-serif;font-size:10px;">H</text>
        <text x="410.984px" y="163.68px" style="font-family:'ArialMT', 'Arial', sans-serif;font-size:6px;">+</text>
        <text x="414.735px" y="168.72px" style="font-family:'ArialMT', 'Arial', sans-serif;font-size:10px;">;<tspan x="417.926px 421.116px " y="168.72px 168.72px "> t</tspan></text>
        <text x="424.307px" y="163.68px" style="font-family:'ArialMT', 'Arial', sans-serif;font-size:6px;">o</text>
    </g>
    <g transform="matrix(1.33333,0,0,1.33333,-87.4452,-72.7574)">
        <text x="394.08px" y="206.16px" style="font-family:'ArialMT', 'Arial', sans-serif;font-size:10px;">T<tspan x="400.32px " y="206.16px ">M</tspan></text>
    </g>
    <g transform="matrix(-1.15457,0.6669,0.6669,1.15457,-366.326,-855.908)">
        <path d="M79.658,742.675L94.312,742.675" style="fill:none;fill-rule:nonzero;stroke:black;stroke-width:0.72px;"/>
    </g>
    <g transform="matrix(1.15468,0.666702,0.666702,-1.15468,-563.497,849.383)">
        <path d="M91.996,741.36L111.914,741.36" style="fill:none;fill-rule:nonzero;stroke:black;stroke-width:0.72px;"/>
    </g>
    <g transform="matrix(1.1547,-0.666669,-0.666669,-1.1547,426.763,995.514)">
        <path d="M109.61,740L124.09,740" style="fill:none;fill-rule:nonzero;stroke:black;stroke-width:0.72px;"/>
    </g>
    <g transform="matrix(1.15479,-0.666507,-0.666507,-1.15479,429.126,994.782)">
        <path d="M109.358,743.785L124.022,743.785" style="fill:none;fill-rule:nonzero;stroke:black;stroke-width:0.72px;"/>
    </g>
    <g transform="matrix(0,-1.33333,-1.33333,0,1044.15,171.563)">
        <path d="M87.66,753.69L102.36,753.69" style="fill:none;fill-rule:nonzero;stroke:black;stroke-width:0.72px;"/>
    </g>
    <g transform="matrix(0,-1.33333,-1.33333,0,1039.67,167.083)">
        <path d="M84.3,753.69L99,753.69" style="fill:none;fill-rule:nonzero;stroke:black;stroke-width:0.72px;"/>
    </g>
    <g transform="matrix(1.15047,-0.673949,-0.673949,-1.15047,447.679,1065.75)">
        <path d="M212.744,733.585L232.666,733.585" style="fill:none;fill-rule:nonzero;stroke:black;stroke-width:0.72px;"/>
    </g>
    <g transform="matrix(-1.15856,-0.659932,-0.659932,1.15856,908.574,-642.367)">
        <path d="M195.494,733.48L215.416,733.48" style="fill:none;fill-rule:nonzero;stroke:black;stroke-width:0.72px;"/>
    </g>
    <g transform="matrix(-0.00815756,-1.33331,-1.33331,0.00815756,1170.83,311.701)">
        <path d="M189.4,745.765L204.11,745.765" style="fill:none;fill-rule:nonzero;stroke:black;stroke-width:0.72px;"/>
    </g>
    <g transform="matrix(-1.15101,0.673021,0.673021,1.15101,-110.487,-908.035)">
        <path d="M183.658,736.53L196.852,736.53" style="fill:none;fill-rule:nonzero;stroke:black;stroke-width:0.72px;"/>
    </g>
    <g transform="matrix(-1.15078,0.673413,0.673413,1.15078,-106.418,-900.067)">
        <path d="M183.522,733.13L198.688,733.13" style="fill:none;fill-rule:nonzero;stroke:black;stroke-width:0.72px;"/>
    </g>
    <g transform="matrix(1.15853,0.659998,0.659998,-1.15853,-530.065,765.152)">
        <path d="M229.479,733.42L244.591,733.42" style="fill:none;fill-rule:nonzero;stroke:black;stroke-width:0.72px;"/>
    </g>
    <g transform="matrix(1.15871,0.659668,0.659668,-1.15871,-531.963,764.228)">
        <path d="M231.266,736.815L244.464,736.815" style="fill:none;fill-rule:nonzero;stroke:black;stroke-width:0.72px;"/>
    </g>
    <g transform="matrix(-0.00814096,-1.33331,-1.33331,0.00814096,1217.41,357.41)">
        <path d="M223.885,745.99L238.625,745.99" style="fill:none;fill-rule:nonzero;stroke:black;stroke-width:0.72px;"/>
    </g>
    <g transform="matrix(1.15103,-0.672982,-0.672982,-1.15103,470.191,1072.03)">
        <path d="M235.571,763.625L244.189,763.625" style="fill:none;fill-rule:nonzero;stroke:black;stroke-width:0.72px;"/>
    </g>
    <g transform="matrix(-1.15865,-0.659785,-0.659785,1.15865,884.225,-728.655)">
        <path d="M183.243,763.395L192.357,763.395" style="fill:none;fill-rule:nonzero;stroke:black;stroke-width:0.72px;"/>
    </g>
    <g transform="matrix(1.33333,0,0,1.33333,-87.4452,-952.117)">
        <path d="M265.92,750.72L318.96,750.72" style="fill:none;fill-rule:nonzero;stroke:black;stroke-width:0.72px;"/>
    </g>
    <g transform="matrix(1.2958,0.314133,0.314133,-1.2958,-311.448,922.674)">
        <path d="M310.699,751.653L318.849,751.653L311.604,747.921L312.551,750.126L310.699,751.653Z" style="stroke:black;stroke-width:0.72px;"/>
    </g>
    <g transform="matrix(-1.15468,-0.666702,-0.666702,1.15468,1322.81,-587.018)">
        <path d="M354.406,755.52L374.324,755.52" style="fill:none;fill-rule:nonzero;stroke:black;stroke-width:0.72px;"/>
    </g>
    <g transform="matrix(-1.15468,0.666702,0.666702,1.15468,358.311,-1084.36)">
        <path d="M371.656,755.52L391.574,755.52" style="fill:none;fill-rule:nonzero;stroke:black;stroke-width:0.72px;"/>
    </g>
    <g transform="matrix(-1.15468,-0.666702,-0.666702,1.15468,1408.64,-564.017)">
        <path d="M388.906,755.52L408.824,755.52" style="fill:none;fill-rule:nonzero;stroke:black;stroke-width:0.72px;"/>
    </g>
    <g transform="matrix(-1.15468,0.666702,0.666702,1.15468,444.148,-1107.37)">
        <path d="M406.156,755.52L426.074,755.52" style="fill:none;fill-rule:nonzero;stroke:black;stroke-width:0.72px;"/>
    </g>
    <g transform="matrix(0,-1.33333,-1.33333,0,1412.91,502.563)">
        <path d="M350.07,767.85L364.77,767.85" style="fill:none;fill-rule:nonzero;stroke:black;stroke-width:0.72px;"/>
    </g>
    <g transform="matrix(0,-1.33333,-1.33333,0,1408.43,498.083)">
        <path d="M346.71,767.85L361.41,767.85" style="fill:none;fill-rule:nonzero;stroke:black;stroke-width:0.72px;"/>
    </g>
    <g transform="matrix(-1.15464,0.666766,0.666766,1.15464,277.114,-1066.06)">
        <path d="M341.971,756.81L356.729,756.81" style="fill:none;fill-rule:nonzero;stroke:black;stroke-width:0.72px;"/>
    </g>
    <g transform="matrix(0,1.33333,1.33333,0,-531.565,-480.957)">
        <path d="M397.53,740.58L417.45,740.58" style="fill:none;fill-rule:nonzero;stroke:black;stroke-width:0.72px;"/>
    </g>
    <g transform="matrix(1.15476,0.666568,0.666568,-1.15476,-515.057,627.413)">
        <path d="M423.789,756.95L437.991,756.95" style="fill:none;fill-rule:nonzero;stroke:black;stroke-width:0.72px;"/>
    </g>
    <g transform="matrix(0,-1.33333,-1.33333,0,1504.91,594.563)">
        <path d="M419.07,767.85L433.77,767.85" style="fill:none;fill-rule:nonzero;stroke:black;stroke-width:0.72px;"/>
    </g>
    <g transform="matrix(0,-1.33333,-1.33333,0,1500.43,590.083)">
        <path d="M415.71,767.85L430.41,767.85" style="fill:none;fill-rule:nonzero;stroke:black;stroke-width:0.72px;"/>
    </g>
    <g transform="matrix(1.15496,-0.66621,-0.66621,-1.15496,496.321,1215.31)">
        <path d="M446.287,755.575L455.153,755.575" style="fill:none;fill-rule:nonzero;stroke:black;stroke-width:0.72px;"/>
    </g>
    <g transform="matrix(-1.1544,0.667186,0.667186,1.1544,423.556,-1030.51)">
        <path d="M394.14,728.725L407.55,728.725" style="fill:none;fill-rule:nonzero;stroke:black;stroke-width:0.72px;"/>
    </g>
    <g transform="matrix(-1.15444,0.667124,0.667124,1.15444,427.97,-1022.63)">
        <path d="M394.01,725.33L409.36,725.33" style="fill:none;fill-rule:nonzero;stroke:black;stroke-width:0.72px;"/>
    </g>
    <g transform="matrix(1.15487,0.666378,0.666378,-1.15487,-498.137,644.413)">
        <path d="M406.542,727.08L420.708,727.08" style="fill:none;fill-rule:nonzero;stroke:black;stroke-width:0.72px;"/>
    </g>
    <g transform="matrix(1.15496,-0.66621,-0.66621,-1.15496,473.326,1209.12)">
        <path d="M429.007,725.685L437.873,725.685" style="fill:none;fill-rule:nonzero;stroke:black;stroke-width:0.72px;"/>
    </g>
    <g transform="matrix(0,1.33333,1.33333,0,-455.605,-383.957)">
        <path d="M375.48,675.72L423.72,675.72" style="fill:none;fill-rule:nonzero;stroke:black;stroke-width:0.72px;"/>
    </g>
    <g transform="matrix(-0.314133,1.2958,1.2958,0.314133,-278.592,-548.012)">
        <path d="M395.299,656.493L403.449,656.493L396.204,652.761L397.151,654.966L395.299,656.493Z" style="stroke:black;stroke-width:0.72px;"/>
    </g>
</svg>
