<?xml version="1.0" encoding="UTF-8" standalone="no"?>
<!DOCTYPE svg PUBLIC "-//W3C//DTD SVG 1.1//EN" "http://www.w3.org/Graphics/SVG/1.1/DTD/svg11.dtd">
<svg width="100%" height="100%" viewBox="0 0 500 130" version="1.1" xmlns="http://www.w3.org/2000/svg" xmlns:xlink="http://www.w3.org/1999/xlink" xml:space="preserve" xmlns:serif="http://www.serif.com/" style="fill-rule:evenodd;clip-rule:evenodd;stroke-linecap:round;stroke-linejoin:round;stroke-miterlimit:10;">
    <g transform="matrix(1.33333,0,0,1.33333,-81.0946,-51.8)">
        <text x="100.08px" y="92.16px" style="font-family:'ArialMT', 'Arial', sans-serif;font-size:8px;">4</text>
    </g>
    <g transform="matrix(1.33333,0,0,1.33333,-81.0946,-51.8)">
        <text x="76.56px" y="85.92px" style="font-family:'ArialMT', 'Arial', sans-serif;font-size:8px;">3</text>
    </g>
    <g transform="matrix(1.33333,0,0,1.33333,-81.0946,-51.8)">
        <text x="115.92px" y="70.56px" style="font-family:'ArialMT', 'Arial', sans-serif;font-size:10px;">H</text>
        <text x="117.36px" y="78px" style="font-family:'ArialMT', 'Arial', sans-serif;font-size:8px;">6</text>
        <text x="123.6px" y="93.12px" style="font-family:'ArialMT', 'Arial', sans-serif;font-size:8px;">5</text>
    </g>
    <g transform="matrix(1.33333,0,0,1.33333,-81.0946,-51.8)">
        <text x="98.4px" y="60.48px" style="font-family:'ArialMT', 'Arial', sans-serif;font-size:10px;">O</text>
        <text x="100.08px" y="67.92px" style="font-family:'ArialMT', 'Arial', sans-serif;font-size:8px;">1</text>
    </g>
    <g transform="matrix(1.33333,0,0,1.33333,-81.0946,-51.8)">
        <text x="76.8px" y="66px" style="font-family:'ArialMT', 'Arial', sans-serif;font-size:8px;">2</text>
    </g>
    <g transform="matrix(1.33333,0,0,1.33333,-81.0946,-51.8)">
        <text x="257.28px" y="90.96px" style="font-family:'ArialMT', 'Arial', sans-serif;font-size:10px;">CH</text>
        <text x="271.68px" y="93.6px" style="font-family:'ArialMT', 'Arial', sans-serif;font-size:8px;">2</text>
    </g>
    <g transform="matrix(1.33333,0,0,1.33333,-81.0946,-51.8)">
        <text x="239.76px" y="61.2px" style="font-family:'ArialMT', 'Arial', sans-serif;font-size:10px;">O<tspan x="247.68px " y="61.2px ">H</tspan></text>
    </g>
    <g transform="matrix(1.33333,0,0,1.33333,-81.0946,-51.8)">
        <text x="399.36px" y="94.08px" style="font-family:'ArialMT', 'Arial', sans-serif;font-size:10px;">CH</text>
        <text x="413.76px" y="96.72px" style="font-family:'ArialMT', 'Arial', sans-serif;font-size:8px;">2</text>
    </g>
    <g transform="matrix(1.33333,0,0,1.33333,-81.0946,-51.8)">
        <text x="381.84px" y="64.32px" style="font-family:'ArialMT', 'Arial', sans-serif;font-size:10px;">O</text>
    </g>
    <g transform="matrix(0,-1.33333,-1.33333,0,1036.31,226.56)">
        <path d="M92.49,735.6L112.41,735.6" style="fill:none;fill-rule:nonzero;stroke:black;stroke-width:0.72px;"/>
    </g>
    <g transform="matrix(1.15468,-0.666702,-0.666702,-1.15468,416.133,1004.57)">
        <path d="M83.866,720.66L103.784,720.66" style="fill:none;fill-rule:nonzero;stroke:black;stroke-width:0.72px;"/>
    </g>
    <g transform="matrix(1.15468,-0.666702,-0.666702,-1.15468,432.972,987.726)">
        <path d="M66.616,750.54L86.534,750.54" style="fill:none;fill-rule:nonzero;stroke:black;stroke-width:0.72px;"/>
    </g>
    <g transform="matrix(1.15468,0.666702,0.666702,-1.15468,-547.88,890.959)">
        <path d="M66.616,720.66L86.534,720.66" style="fill:none;fill-rule:nonzero;stroke:black;stroke-width:0.72px;"/>
    </g>
    <g transform="matrix(0,-1.33333,-1.33333,0,990.305,180.56)">
        <path d="M57.99,735.6L77.91,735.6" style="fill:none;fill-rule:nonzero;stroke:black;stroke-width:0.72px;"/>
    </g>
    <g transform="matrix(0,-1.33333,-1.33333,0,1090.83,218.04)">
        <path d="M115.98,759.24L123.42,759.24" style="fill:none;fill-rule:nonzero;stroke:black;stroke-width:0.72px;"/>
    </g>
    <g transform="matrix(1.15468,-0.666702,-0.666702,-1.15468,439.136,1010.73)">
        <path d="M101.116,750.54L121.034,750.54" style="fill:none;fill-rule:nonzero;stroke:black;stroke-width:0.72px;"/>
    </g>
    <g transform="matrix(1.15478,-0.66653,-0.66653,-1.15478,453.367,993.121)">
        <path d="M85.159,777.28L98.321,777.28" style="fill:none;fill-rule:nonzero;stroke:black;stroke-width:0.72px;"/>
    </g>
    <g transform="matrix(1.15438,-0.667213,-0.667213,-1.15438,456.045,991.71)">
        <path d="M83.346,780.67L98.454,780.67" style="fill:none;fill-rule:nonzero;stroke:black;stroke-width:0.72px;"/>
    </g>
    <g transform="matrix(1.15468,0.666702,0.666702,-1.15468,-564.719,874.12)">
        <path d="M83.866,750.54L103.784,750.54" style="fill:none;fill-rule:nonzero;stroke:black;stroke-width:0.72px;"/>
    </g>
    <g transform="matrix(0,-1.33333,-1.33333,0,1053.15,163.72)">
        <path d="M75.24,765.48L95.16,765.48" style="fill:none;fill-rule:nonzero;stroke:black;stroke-width:0.72px;"/>
    </g>
    <g transform="matrix(1.33333,0,0,1.33333,-81.0946,-953.56)">
        <path d="M125.28,742.32L126.96,743.04L128.4,744L129.84,745.2L132.48,747.84L133.44,749.52L134.16,750.96L134.88,752.88L135.36,754.56L135.84,756.48L135.84,760.08L135.6,761.76L135.12,763.44L134.4,765.12L133.92,766.56L132,769.44L129.6,771.84L128.4,772.8L126.96,773.52L125.52,774.48L124.08,774.96L122.4,775.44L120.72,775.68L118.8,775.92L118.32,775.92L115.92,775.68L113.52,775.2L111.36,774.48" style="fill:none;fill-rule:nonzero;stroke:black;stroke-width:0.48px;"/>
    </g>
    <g transform="matrix(-1.16003,-0.65735,-0.65735,1.16003,694.309,-702.733)">
        <path d="M111.72,741.957L119.995,741.957L112.896,737.934L113.738,740.342L111.72,741.957Z" style="stroke:black;stroke-width:0.48px;"/>
    </g>
    <g transform="matrix(1.33333,0,0,1.33333,-81.0946,-959.32)">
        <path d="M89.04,752.16L91.2,751.92L92.4,751.92L93.36,752.16L94.56,752.4L95.52,752.88L96.48,753.6L97.2,754.08L98.16,754.8L98.88,755.76L100.32,758.64L100.56,759.6L100.56,760.8L100.8,761.52L100.32,763.92L99.36,766.32L98.64,767.28L97.68,768.24L95.76,769.68L94.56,770.16L94.08,770.4L93.36,770.64" style="fill:none;fill-rule:nonzero;stroke:black;stroke-width:0.48px;"/>
    </g>
    <g transform="matrix(-1.2958,0.314133,0.314133,1.2958,-78.5935,-983.939)">
        <path d="M88.699,769.467L96.849,769.467L89.604,773.199L90.551,770.994L88.699,769.467Z" style="stroke:black;stroke-width:0.48px;"/>
    </g>
    <g transform="matrix(1.33333,0,0,1.33333,-81.0946,-1033.24)">
        <path d="M92.16,794.16L92.88,790.56L93.36,789.36L94.08,788.4L94.8,787.2L95.52,786.24L97.2,784.56L99.12,783.12L100.32,782.64L101.28,782.16L102.48,781.68L103.68,781.44L105.12,781.2L106.32,781.2L109.68,781.68L111.36,782.16L114.24,783.6L115.68,784.8L116.64,785.76L117.84,787.2L118.8,788.4L119.52,789.84L120,791.52L120.48,794.88L120.48,796.8" style="fill:none;fill-rule:nonzero;stroke:black;stroke-width:0.48px;"/>
    </g>
    <g transform="matrix(-0.193992,1.31915,1.31915,0.193992,-934.081,-286.599)">
        <path d="M115.444,786.586L123.692,786.586L116.478,782.857L117.351,785.168L115.444,786.586Z" style="stroke:black;stroke-width:0.48px;"/>
    </g>
    <g transform="matrix(1.33333,0,0,1.33333,-81.0946,-928.6)">
        <path d="M155.28,749.76L189.36,749.76" style="fill:none;fill-rule:nonzero;stroke:black;stroke-width:0.72px;"/>
    </g>
    <g transform="matrix(1.33333,0,0,1.33333,-81.0946,-936.28)">
        <path d="M155.28,752.64L189.36,752.64" style="fill:none;fill-rule:nonzero;stroke:black;stroke-width:0.72px;"/>
    </g>
    <g transform="matrix(1.33333,0,0,1.33333,-81.0946,-932.44)">
        <path d="M184.8,747.6L192.72,751.2L184.8,754.8" style="fill:none;fill-rule:nonzero;stroke:black;stroke-width:0.72px;"/>
    </g>
    <g transform="matrix(0,-1.33333,-1.33333,0,1223.83,416)">
        <path d="M233.85,734.88L253.77,734.88" style="fill:none;fill-rule:nonzero;stroke:black;stroke-width:0.72px;"/>
    </g>
    <g transform="matrix(1.15468,-0.666702,-0.666702,-1.15468,440.908,1098.94)">
        <path d="M225.226,719.94L245.144,719.94" style="fill:none;fill-rule:nonzero;stroke:black;stroke-width:0.72px;"/>
    </g>
    <g transform="matrix(1.15468,-0.666702,-0.666702,-1.15468,457.747,1082.1)">
        <path d="M207.976,749.82L227.894,749.82" style="fill:none;fill-rule:nonzero;stroke:black;stroke-width:0.72px;"/>
    </g>
    <g transform="matrix(1.15468,0.666702,0.666702,-1.15468,-522.145,796.843)">
        <path d="M207.976,719.94L227.894,719.94" style="fill:none;fill-rule:nonzero;stroke:black;stroke-width:0.72px;"/>
    </g>
    <g transform="matrix(0,-1.33333,-1.33333,0,1177.83,370)">
        <path d="M199.35,734.88L219.27,734.88" style="fill:none;fill-rule:nonzero;stroke:black;stroke-width:0.72px;"/>
    </g>
    <g transform="matrix(-1.15481,0.666483,0.666483,1.15481,42.2729,-958.152)">
        <path d="M242.843,748.45L257.287,748.45" style="fill:none;fill-rule:nonzero;stroke:black;stroke-width:0.72px;"/>
    </g>
    <g transform="matrix(-1.1546,0.666846,0.666846,1.1546,50.6861,-954.588)">
        <path d="M245.992,746.26L259.988,746.26" style="fill:none;fill-rule:nonzero;stroke:black;stroke-width:0.72px;"/>
    </g>
    <g transform="matrix(0,1.33333,1.33333,0,-798.695,-251)">
        <path d="M216.6,764.76L236.52,764.76" style="fill:none;fill-rule:nonzero;stroke:black;stroke-width:0.72px;"/>
    </g>
    <g transform="matrix(0,1.33333,1.33333,0,-804.281,-247.627)">
        <path d="M214.07,765.59L232.33,765.59" style="fill:none;fill-rule:nonzero;stroke:black;stroke-width:0.72px;"/>
    </g>
    <g transform="matrix(-1.15457,0.666895,0.666895,1.15457,-21.2242,-1020.64)">
        <path d="M225.612,778.255L239.748,778.255" style="fill:none;fill-rule:nonzero;stroke:black;stroke-width:0.72px;"/>
    </g>
    <g transform="matrix(1.33333,0,0,1.33333,-81.0946,-929.24)">
        <path d="M296.64,750L330.72,750" style="fill:none;fill-rule:nonzero;stroke:black;stroke-width:0.72px;"/>
    </g>
    <g transform="matrix(1.33333,0,0,1.33333,-81.0946,-936.92)">
        <path d="M296.64,752.88L330.72,752.88" style="fill:none;fill-rule:nonzero;stroke:black;stroke-width:0.72px;"/>
    </g>
    <g transform="matrix(1.33333,0,0,1.33333,-81.0946,-933.08)">
        <path d="M326.16,747.84L334.08,751.44L326.16,755.04" style="fill:none;fill-rule:nonzero;stroke:black;stroke-width:0.72px;"/>
    </g>
    <g transform="matrix(0,-1.33333,-1.33333,0,1409.11,609.6)">
        <path d="M375.93,731.76L395.85,731.76" style="fill:none;fill-rule:nonzero;stroke:black;stroke-width:0.72px;"/>
    </g>
    <g transform="matrix(1.15468,-0.666702,-0.666702,-1.15468,464.211,1194.22)">
        <path d="M367.306,716.82L387.224,716.82" style="fill:none;fill-rule:nonzero;stroke:black;stroke-width:0.72px;"/>
    </g>
    <g transform="matrix(1.15468,-0.666702,-0.666702,-1.15468,481.05,1177.38)">
        <path d="M350.056,746.7L369.974,746.7" style="fill:none;fill-rule:nonzero;stroke:black;stroke-width:0.72px;"/>
    </g>
    <g transform="matrix(1.15468,0.666702,0.666702,-1.15468,-494.682,702.675)">
        <path d="M350.056,716.82L369.974,716.82" style="fill:none;fill-rule:nonzero;stroke:black;stroke-width:0.72px;"/>
    </g>
    <g transform="matrix(0,-1.33333,-1.33333,0,1363.11,563.6)">
        <path d="M341.43,731.76L361.35,731.76" style="fill:none;fill-rule:nonzero;stroke:black;stroke-width:0.72px;"/>
    </g>
    <g transform="matrix(-1.15481,0.666483,0.666483,1.15481,397.867,-1045.08)">
        <path d="M384.923,745.33L399.367,745.33" style="fill:none;fill-rule:nonzero;stroke:black;stroke-width:0.72px;"/>
    </g>
    <g transform="matrix(-1.1546,0.666846,0.666846,1.1546,406.252,-1041.57)">
        <path d="M388.072,743.14L402.068,743.14" style="fill:none;fill-rule:nonzero;stroke:black;stroke-width:0.72px;"/>
    </g>
    <g transform="matrix(0,1.33333,1.33333,0,-605.095,-436.28)">
        <path d="M358.68,761.64L378.6,761.64" style="fill:none;fill-rule:nonzero;stroke:black;stroke-width:0.72px;"/>
    </g>
    <g transform="matrix(-1.15457,0.666895,0.666895,1.15457,334.338,-1107.63)">
        <path d="M367.692,775.135L381.828,775.135" style="fill:none;fill-rule:nonzero;stroke:black;stroke-width:0.72px;"/>
    </g>
    <g transform="matrix(-1.15454,0.66694,0.66694,1.15454,343.096,-1104.18)">
        <path d="M370.838,772.96L384.592,772.96" style="fill:none;fill-rule:nonzero;stroke:black;stroke-width:0.72px;"/>
    </g>
</svg>
