<?xml version="1.0" encoding="UTF-8" standalone="no"?>
<!DOCTYPE svg PUBLIC "-//W3C//DTD SVG 1.1//EN" "http://www.w3.org/Graphics/SVG/1.1/DTD/svg11.dtd">
<svg width="100%" height="100%" viewBox="0 0 520 170" version="1.1" xmlns="http://www.w3.org/2000/svg" xmlns:xlink="http://www.w3.org/1999/xlink" xml:space="preserve" xmlns:serif="http://www.serif.com/" style="fill-rule:evenodd;clip-rule:evenodd;stroke-linecap:round;stroke-linejoin:round;stroke-miterlimit:10;">
    <g transform="matrix(1.33333,0,0,1.33333,-96.1066,-50.9974)">
        <text x="129.36px" y="78.72px" style="font-family:'ArialMT', 'Arial', sans-serif;font-size:10px;">X</text>
    </g>
    <g transform="matrix(1.33333,0,0,1.33333,-96.1066,-50.9974)">
        <text x="176.88px" y="87.6px" style="font-family:'ArialMT', 'Arial', sans-serif;font-size:10px;">Na</text>
        <text x="160.56px" y="103.68px" style="font-family:'ArialMT', 'Arial', sans-serif;font-size:10px;">NH</text>
        <text x="174.974px" y="106.32px" style="font-family:'ArialMT', 'Arial', sans-serif;font-size:6px;">3</text>
        <text x="181.281px" y="103.68px" style="font-family:'ArialMT', 'Arial', sans-serif;font-size:10px;"><tspan x="181.281px 184.045px 187.024px " y="103.68px 103.68px 103.68px ">; R</tspan></text>
        <text x="194.231px" y="103.68px" style="font-family:'ArialMT', 'Arial', sans-serif;font-size:10px;">`</text>
        <text x="197.593px" y="103.68px" style="font-family:'ArialMT', 'Arial', sans-serif;font-size:10px;">O<tspan x="205.515px " y="103.68px ">H</tspan></text>
    </g>
    <g transform="matrix(1.33333,0,0,1.33333,-96.1066,-50.9974)">
        <text x="276px" y="89.28px" style="font-family:'ArialMT', 'Arial', sans-serif;font-size:10px;">CH</text>
        <text x="290.4px" y="82.32px" style="font-family:'ArialMT', 'Arial', sans-serif;font-size:8px;">–</text>
    </g>
    <g transform="matrix(1.33333,0,0,1.33333,-96.1066,-50.9974)">
        <text x="241.68px" y="109.2px" style="font-family:'ArialMT', 'Arial', sans-serif;font-size:10px;">C</text>
    </g>
    <g transform="matrix(1.33333,0,0,1.33333,-96.1066,-50.9974)">
        <text x="234.48px" y="109.2px" style="font-family:'ArialMT', 'Arial', sans-serif;font-size:10px;">H</text>
        <text x="248.88px" y="102.24px" style="font-family:'ArialMT', 'Arial', sans-serif;font-size:8px;">–</text>
    </g>
    <g transform="matrix(1.33333,0,0,1.33333,-96.1066,-50.9974)">
        <text x="310.32px" y="53.04px" style="font-family:'ArialMT', 'Arial', sans-serif;font-size:10px;">X</text>
    </g>
    <g transform="matrix(0.0162671,1.33323,-1.33323,0.0162671,-96.1066,-50.9974)">
        <text x="113.49px" y="-242.713px" style="font-family:'ArialMT', 'Arial', sans-serif;font-size:10px;">:</text>
    </g>
    <g transform="matrix(0.0093331,1.3333,-1.3333,0.0093331,-96.1066,-50.9974)">
        <text x="79.775px" y="-277.608px" style="font-family:'ArialMT', 'Arial', sans-serif;font-size:10px;">:</text>
    </g>
    <g transform="matrix(1.33333,0,0,1.33333,-96.1066,-50.9974)">
        <text x="327.12px" y="86.64px" style="font-family:'ArialMT', 'Arial', sans-serif;font-size:10px;">R`O<tspan x="345.6px " y="86.64px ">H</tspan></text>
    </g>
    <g transform="matrix(1.33333,0,0,1.33333,-96.1066,-50.9974)">
        <text x="436.08px" y="78.72px" style="font-family:'ArialMT', 'Arial', sans-serif;font-size:10px;">X</text>
    </g>
    <g transform="matrix(1.33333,0,0,1.33333,-96.1066,-50.9974)">
        <text x="290.16px" y="112.8px" style="font-family:'ArialMT', 'Arial', sans-serif;font-size:10px;">с</text>
        <text x="295.2px" y="112.8px" style="font-family:'ArialMT', 'Arial', sans-serif;font-size:10px;">т</text>
        <text x="299.76px" y="112.8px" style="font-family:'ArialMT', 'Arial', sans-serif;font-size:10px;">а</text>
        <text x="305.28px" y="112.8px" style="font-family:'ArialMT', 'Arial', sans-serif;font-size:10px;">б</text>
        <text x="311.04px" y="112.8px" style="font-family:'ArialMT', 'Arial', sans-serif;font-size:10px;">и</text>
        <text x="316.56px" y="112.8px" style="font-family:'ArialMT', 'Arial', sans-serif;font-size:10px;">л</text>
        <text x="322.56px" y="112.8px" style="font-family:'ArialMT', 'Arial', sans-serif;font-size:10px;">иза</text>
        <text x="338.16px" y="112.8px" style="font-family:'ArialMT', 'Arial', sans-serif;font-size:10px;">ц</text>
        <text x="343.92px" y="112.8px" style="font-family:'ArialMT', 'Arial', sans-serif;font-size:10px;">ия</text>
    </g>
    <g transform="matrix(1.33333,0,0,1.33333,-96.1066,-50.9974)">
        <text x="85.2px" y="156px" style="font-family:'ArialMT', 'Arial', sans-serif;font-size:10px;">X</text>
        <text x="94.363px" y="156px" style="font-family:'ArialMT', 'Arial', sans-serif;font-size:10px;">-</text>
        <text x="100.633px" y="156px" style="font-family:'ArialMT', 'Arial', sans-serif;font-size:10px;">э</text>
        <text x="105.673px" y="156px" style="font-family:'ArialMT', 'Arial', sans-serif;font-size:10px;">л</text>
        <text x="111.673px" y="156px" style="font-family:'ArialMT', 'Arial', sans-serif;font-size:10px;">ект<tspan x="126.076px " y="156px ">р</tspan>он<tspan x="142.609px " y="156px ">о</tspan>ак</text>
        <text x="157.993px" y="156px" style="font-family:'ArialMT', 'Arial', sans-serif;font-size:10px;">ц</text>
        <text x="163.753px" y="156px" style="font-family:'ArialMT', 'Arial', sans-serif;font-size:10px;">е</text>
        <text x="169.273px" y="156px" style="font-family:'ArialMT', 'Arial', sans-serif;font-size:10px;">п</text>
        <text x="174.793px" y="156px" style="font-family:'ArialMT', 'Arial', sans-serif;font-size:10px;">торна</text>
        <text x="201.433px" y="156px" style="font-family:'ArialMT', 'Arial', sans-serif;font-size:10px;">я</text>
        <text x="209.942px" y="156px" style="font-family:'ArialMT', 'Arial', sans-serif;font-size:10px;">гр</text>
        <text x="219.062px" y="156px" style="font-family:'ArialMT', 'Arial', sans-serif;font-size:10px;">у</text>
        <text x="224.102px" y="156px" style="font-family:'ArialMT', 'Arial', sans-serif;font-size:10px;">п<tspan x="229.622px 235.142px " y="156px 156px ">па</tspan></text>
    </g>
    <g transform="matrix(0,-1.33333,-1.33333,0,1053.93,229.283)">
        <path d="M105.45,747.12L125.37,747.12" style="fill:none;fill-rule:nonzero;stroke:black;stroke-width:0.72px;"/>
    </g>
    <g transform="matrix(1.15468,0.666702,0.666702,-1.15468,-585.096,864.224)">
        <path d="M96.826,762.06L116.744,762.06" style="fill:none;fill-rule:nonzero;stroke:black;stroke-width:0.72px;"/>
    </g>
    <g transform="matrix(1.15458,0.666876,0.666876,-1.15458,-583.578,865.77)">
        <path d="M96.808,759.15L113.402,759.15" style="fill:none;fill-rule:nonzero;stroke:black;stroke-width:0.72px;"/>
    </g>
    <g transform="matrix(1.15468,-0.666702,-0.666702,-1.15468,411.117,1011.95)">
        <path d="M96.826,732.18L116.744,732.18" style="fill:none;fill-rule:nonzero;stroke:black;stroke-width:0.72px;"/>
    </g>
    <g transform="matrix(1.15458,-0.666876,-0.666876,-1.15458,412.895,1010.25)">
        <path d="M96.808,735.09L113.402,735.09" style="fill:none;fill-rule:nonzero;stroke:black;stroke-width:0.72px;"/>
    </g>
    <g transform="matrix(1.15468,-0.666702,-0.666702,-1.15468,427.956,995.111)">
        <path d="M79.576,762.06L99.494,762.06" style="fill:none;fill-rule:nonzero;stroke:black;stroke-width:0.72px;"/>
    </g>
    <g transform="matrix(1.15468,0.666702,0.666702,-1.15468,-568.257,881.063)">
        <path d="M79.576,732.18L99.494,732.18" style="fill:none;fill-rule:nonzero;stroke:black;stroke-width:0.72px;"/>
    </g>
    <g transform="matrix(0,-1.33333,-1.33333,0,1007.93,183.283)">
        <path d="M70.95,747.12L90.87,747.12" style="fill:none;fill-rule:nonzero;stroke:black;stroke-width:0.72px;"/>
    </g>
    <g transform="matrix(0,-1.33333,-1.33333,0,1012.41,187.763)">
        <path d="M75.97,747.12L92.57,747.12" style="fill:none;fill-rule:nonzero;stroke:black;stroke-width:0.72px;"/>
    </g>
    <g transform="matrix(1.15469,-0.666681,-0.666681,-1.15469,432.902,1016.92)">
        <path d="M114.405,760.83L129.405,760.83" style="fill:none;fill-rule:nonzero;stroke:black;stroke-width:0.72px;"/>
    </g>
    <g transform="matrix(1.33333,0,0,1.33333,-96.1066,-930.997)">
        <path d="M149.04,750.96L225.12,750.96" style="fill:none;fill-rule:nonzero;stroke:black;stroke-width:0.72px;"/>
    </g>
    <g transform="matrix(1.2958,0.314133,0.314133,-1.2958,-323.707,973.903)">
        <path d="M216.859,751.893L225.009,751.893L217.764,748.161L218.711,750.366L216.859,751.893Z" style="stroke:black;stroke-width:0.72px;"/>
    </g>
    <g transform="matrix(0,-1.33333,-1.33333,0,1269.05,452.563)">
        <path d="M272.43,744.06L287.19,744.06" style="fill:none;fill-rule:nonzero;stroke:black;stroke-width:0.72px;"/>
    </g>
    <g transform="matrix(1.15451,0.666991,0.666991,-1.15451,-556.924,755.844)">
        <path d="M261.594,762.955L276.006,762.955" style="fill:none;fill-rule:nonzero;stroke:black;stroke-width:0.72px;"/>
    </g>
    <g transform="matrix(1.15468,-0.666702,-0.666702,-1.15468,440.167,1121.64)">
        <path d="M261.226,731.7L281.144,731.7" style="fill:none;fill-rule:nonzero;stroke:black;stroke-width:0.72px;"/>
    </g>
    <g transform="matrix(1.15458,-0.666876,-0.666876,-1.15458,441.962,1119.97)">
        <path d="M261.208,734.61L277.802,734.61" style="fill:none;fill-rule:nonzero;stroke:black;stroke-width:0.72px;"/>
    </g>
    <g transform="matrix(1.15468,-0.666702,-0.666702,-1.15468,457.007,1104.8)">
        <path d="M243.976,761.58L263.894,761.58" style="fill:none;fill-rule:nonzero;stroke:black;stroke-width:0.72px;"/>
    </g>
    <g transform="matrix(1.15458,-0.666876,-0.666876,-1.15458,455.524,1106.41)">
        <path d="M247.318,758.67L263.912,758.67" style="fill:none;fill-rule:nonzero;stroke:black;stroke-width:0.72px;"/>
    </g>
    <g transform="matrix(1.15485,0.666401,0.666401,-1.15485,-537.113,770.471)">
        <path d="M248.857,730.39L263.543,730.39" style="fill:none;fill-rule:nonzero;stroke:black;stroke-width:0.72px;"/>
    </g>
    <g transform="matrix(0,-1.33333,-1.33333,0,1229.93,399.683)">
        <path d="M237.93,749.22L252.69,749.22" style="fill:none;fill-rule:nonzero;stroke:black;stroke-width:0.72px;"/>
    </g>
    <g transform="matrix(0.942809,-0.942809,-0.942809,-0.942809,751.029,1047.93)">
        <path d="M281.516,775.8L311.044,775.8" style="fill:none;fill-rule:nonzero;stroke:black;stroke-width:0.72px;"/>
    </g>
    <g transform="matrix(1.13285,-0.70315,-0.70315,-1.13285,515.085,1127.86)">
        <path d="M299.84,783.882L308.032,783.882L300.691,780.246L301.753,782.412L299.84,783.882Z" style="stroke:black;stroke-width:0.72px;"/>
    </g>
    <g transform="matrix(1.33333,0,0,1.33333,-96.1066,-931.637)">
        <path d="M313.2,751.2L372.48,751.2" style="fill:none;fill-rule:nonzero;stroke:black;stroke-width:0.72px;"/>
    </g>
    <g transform="matrix(1.2958,0.314133,0.314133,-1.2958,-318.252,927.603)">
        <path d="M364.219,752.133L372.369,752.133L365.124,748.401L366.071,750.606L364.219,752.133Z" style="stroke:black;stroke-width:0.72px;"/>
    </g>
    <g transform="matrix(0,-1.33333,-1.33333,0,1462.89,638.243)">
        <path d="M412.17,747.12L432.09,747.12" style="fill:none;fill-rule:nonzero;stroke:black;stroke-width:0.72px;"/>
    </g>
    <g transform="matrix(1.15468,0.666702,0.666702,-1.15468,-530.3,659.733)">
        <path d="M403.546,762.06L423.464,762.06" style="fill:none;fill-rule:nonzero;stroke:black;stroke-width:0.72px;"/>
    </g>
    <g transform="matrix(1.15468,-0.666702,-0.666702,-1.15468,465.913,1216.44)">
        <path d="M403.546,732.18L423.464,732.18" style="fill:none;fill-rule:nonzero;stroke:black;stroke-width:0.72px;"/>
    </g>
    <g transform="matrix(1.15458,-0.666876,-0.666876,-1.15458,467.723,1214.8)">
        <path d="M403.528,735.09L420.122,735.09" style="fill:none;fill-rule:nonzero;stroke:black;stroke-width:0.72px;"/>
    </g>
    <g transform="matrix(1.15468,-0.666702,-0.666702,-1.15468,482.753,1199.6)">
        <path d="M386.296,762.06L406.214,762.06" style="fill:none;fill-rule:nonzero;stroke:black;stroke-width:0.72px;"/>
    </g>
    <g transform="matrix(1.15458,-0.666876,-0.666876,-1.15458,481.285,1201.24)">
        <path d="M389.638,759.15L406.232,759.15" style="fill:none;fill-rule:nonzero;stroke:black;stroke-width:0.72px;"/>
    </g>
    <g transform="matrix(1.15468,0.666702,0.666702,-1.15468,-513.46,676.572)">
        <path d="M386.296,732.18L406.214,732.18" style="fill:none;fill-rule:nonzero;stroke:black;stroke-width:0.72px;"/>
    </g>
    <g transform="matrix(0,-1.33333,-1.33333,0,1416.89,592.243)">
        <path d="M377.67,747.12L397.59,747.12" style="fill:none;fill-rule:nonzero;stroke:black;stroke-width:0.72px;"/>
    </g>
    <g transform="matrix(1.15469,-0.666681,-0.666681,-1.15469,487.695,1221.4)">
        <path d="M421.125,760.83L436.125,760.83" style="fill:none;fill-rule:nonzero;stroke:black;stroke-width:0.72px;"/>
    </g>
</svg>
