<?xml version="1.0" encoding="UTF-8" standalone="no"?>
<!DOCTYPE svg PUBLIC "-//W3C//DTD SVG 1.1//EN" "http://www.w3.org/Graphics/SVG/1.1/DTD/svg11.dtd">
<svg width="100%" height="100%" viewBox="0 0 750 480" version="1.1" xmlns="http://www.w3.org/2000/svg" xmlns:xlink="http://www.w3.org/1999/xlink" xml:space="preserve" xmlns:serif="http://www.serif.com/" style="fill-rule:evenodd;clip-rule:evenodd;stroke-linecap:round;stroke-linejoin:round;stroke-miterlimit:10;">
    <g transform="matrix(1.33333,0,0,1.33333,-42.3101,-47.04)">
        <text x="56.16px" y="99.84px" style="font-family:'ArialMT', 'Arial', sans-serif;font-size:10px;">M</text>
        <text x="64.56px" y="99.84px" style="font-family:'ArialMT', 'Arial', sans-serif;font-size:10px;">L</text>
        <text x="70.08px" y="102.48px" style="font-family:'ArialMT', 'Arial', sans-serif;font-size:6px;">n</text>
    </g>
    <g transform="matrix(1.33333,0,0,1.33333,-42.3101,-47.04)">
        <text x="106.08px" y="91.2px" style="font-family:'ArialMT', 'Arial', sans-serif;font-size:10px;">-L</text>
        <text x="106.56px" y="110.16px" style="font-family:'ArialMT', 'Arial', sans-serif;font-size:10px;">L</text>
    </g>
    <g transform="matrix(1.33333,0,0,1.33333,-42.3101,-47.04)">
        <text x="144.96px" y="100.56px" style="font-family:'ArialMT', 'Arial', sans-serif;font-size:10px;">M</text>
        <text x="153.36px" y="100.56px" style="font-family:'ArialMT', 'Arial', sans-serif;font-size:10px;">L</text>
        <text x="158.88px" y="103.2px" style="font-family:'ArialMT', 'Arial', sans-serif;font-size:6px;">n</text>
        <text x="162.48px" y="103.2px" style="font-family:'ArialMT', 'Arial', sans-serif;font-size:6px;">-<tspan x="164.64px " y="103.2px ">1</tspan></text>
    </g>
    <g transform="matrix(1.33333,0,0,1.33333,-42.3101,-47.04)">
        <text x="246.72px" y="98.88px" style="font-family:'ArialMT', 'Arial', sans-serif;font-size:10px;">M</text>
        <text x="255.12px" y="98.88px" style="font-family:'ArialMT', 'Arial', sans-serif;font-size:10px;">L</text>
        <text x="260.64px" y="101.52px" style="font-family:'ArialMT', 'Arial', sans-serif;font-size:6px;">n</text>
        <text x="264.24px" y="101.52px" style="font-family:'ArialMT', 'Arial', sans-serif;font-size:6px;">-<tspan x="266.4px " y="101.52px ">1</tspan></text>
    </g>
    <g transform="matrix(1.33333,0,0,1.33333,-42.3101,-47.04)">
        <text x="302.64px" y="90.96px" style="font-family:'ArialMT', 'Arial', sans-serif;font-size:10px;">-L</text>
        <text x="303.12px" y="109.92px" style="font-family:'ArialMT', 'Arial', sans-serif;font-size:10px;">L</text>
    </g>
    <g transform="matrix(1.33333,0,0,1.33333,-42.3101,-47.04)">
        <text x="348.48px" y="98.64px" style="font-family:'ArialMT', 'Arial', sans-serif;font-size:10px;">M</text>
        <text x="356.88px" y="98.64px" style="font-family:'ArialMT', 'Arial', sans-serif;font-size:10px;">L</text>
        <text x="362.4px" y="101.28px" style="font-family:'ArialMT', 'Arial', sans-serif;font-size:6px;">n</text>
        <text x="366px" y="101.28px" style="font-family:'ArialMT', 'Arial', sans-serif;font-size:6px;">-<tspan x="368.16px " y="101.28px ">2</tspan></text>
    </g>
    <g transform="matrix(1.33333,0,0,1.33333,-42.3101,-47.04)">
        <text x="456.48px" y="98.88px" style="font-family:'ArialMT', 'Arial', sans-serif;font-size:10px;">M</text>
        <text x="464.88px" y="98.88px" style="font-family:'ArialMT', 'Arial', sans-serif;font-size:10px;">L</text>
        <text x="470.4px" y="101.52px" style="font-family:'ArialMT', 'Arial', sans-serif;font-size:6px;">n</text>
        <text x="474px" y="101.52px" style="font-family:'ArialMT', 'Arial', sans-serif;font-size:6px;">-<tspan x="476.16px " y="101.52px ">2</tspan></text>
    </g>
    <g transform="matrix(1.33333,0,0,1.33333,-42.3101,-47.04)">
        <text x="548.16px" y="256.08px" style="font-family:'ArialMT', 'Arial', sans-serif;font-size:10px;">M</text>
        <text x="556.56px" y="256.08px" style="font-family:'ArialMT', 'Arial', sans-serif;font-size:10px;">Ln</text>
        <text x="567.6px" y="256.08px" style="font-family:'ArialMT', 'Arial', sans-serif;font-size:10px;">-</text>
        <text x="571.2px" y="258.72px" style="font-family:'ArialMT', 'Arial', sans-serif;font-size:8px;">2</text>
    </g>
    <g transform="matrix(1.33333,0,0,1.33333,-42.3101,-47.04)">
        <text x="401.76px" y="253.44px" style="font-family:'ArialMT', 'Arial', sans-serif;font-size:10px;">M</text>
        <text x="410.16px" y="253.44px" style="font-family:'ArialMT', 'Arial', sans-serif;font-size:10px;">Ln</text>
        <text x="421.2px" y="253.44px" style="font-family:'ArialMT', 'Arial', sans-serif;font-size:10px;">-</text>
        <text x="424.8px" y="256.08px" style="font-family:'ArialMT', 'Arial', sans-serif;font-size:8px;">2</text>
    </g>
    <g transform="matrix(1.33333,0,0,1.33333,-42.3101,-47.04)">
        <text x="277.68px" y="242.88px" style="font-family:'ArialMT', 'Arial', sans-serif;font-size:10px;">M</text>
        <text x="286.08px" y="242.88px" style="font-family:'ArialMT', 'Arial', sans-serif;font-size:10px;">Ln</text>
        <text x="297.12px" y="242.88px" style="font-family:'ArialMT', 'Arial', sans-serif;font-size:10px;">-</text>
        <text x="300.72px" y="245.52px" style="font-family:'ArialMT', 'Arial', sans-serif;font-size:8px;">2</text>
    </g>
    <g transform="matrix(1.33333,0,0,1.33333,-42.3101,-47.04)">
        <text x="145.2px" y="253.44px" style="font-family:'ArialMT', 'Arial', sans-serif;font-size:10px;">M</text>
        <text x="153.6px" y="253.44px" style="font-family:'ArialMT', 'Arial', sans-serif;font-size:10px;">Ln</text>
        <text x="164.64px" y="253.44px" style="font-family:'ArialMT', 'Arial', sans-serif;font-size:10px;">-</text>
        <text x="168.24px" y="256.08px" style="font-family:'ArialMT', 'Arial', sans-serif;font-size:8px;">2</text>
    </g>
    <g transform="matrix(1.33333,0,0,1.33333,-42.3101,-47.04)">
        <text x="117.6px" y="372.48px" style="font-family:'ArialMT', 'Arial', sans-serif;font-size:18px;">+</text>
        <text x="138.72px" y="369.84px" style="font-family:'ArialMT', 'Arial', sans-serif;font-size:10px;">M</text>
        <text x="147.12px" y="369.84px" style="font-family:'ArialMT', 'Arial', sans-serif;font-size:10px;">L</text>
        <text x="152.64px" y="372.48px" style="font-family:'ArialMT', 'Arial', sans-serif;font-size:6px;">n</text>
        <text x="156.24px" y="372.48px" style="font-family:'ArialMT', 'Arial', sans-serif;font-size:6px;">-<tspan x="158.4px " y="372.48px ">2</tspan></text>
    </g>
    <g transform="matrix(1.33333,0,0,1.33333,-42.3101,-47.04)">
        <text x="39.6px" y="282.48px" style="font-family:'ArialMT', 'Arial', sans-serif;font-size:10px;">Cp Co(C</text>
        <text x="78.475px" y="282.48px" style="font-family:'ArialMT', 'Arial', sans-serif;font-size:10px;">O</text>
        <text x="86.396px" y="282.48px" style="font-family:'ArialMT', 'Arial', sans-serif;font-size:10px;">)</text>
        <text x="89.758px" y="285.12px" style="font-family:'ArialMT', 'Arial', sans-serif;font-size:6px;">2</text>
    </g>
    <g transform="matrix(1.33333,0,0,1.33333,-42.3101,-907.84)">
        <path d="M86.16,743.76L133.44,743.76" style="fill:none;fill-rule:nonzero;stroke:black;stroke-width:0.72px;"/>
    </g>
    <g transform="matrix(1.33333,0,0,1.33333,-42.3101,-915.52)">
        <path d="M86.16,746.64L133.44,746.64" style="fill:none;fill-rule:nonzero;stroke:black;stroke-width:0.72px;"/>
    </g>
    <g transform="matrix(1.2958,0.314133,0.314133,-1.2958,-271.995,1006.82)">
        <path d="M125.179,747.573L133.329,747.573L126.084,743.841L127.031,746.046L125.179,747.573Z" style="stroke:black;stroke-width:0.72px;"/>
    </g>
    <g transform="matrix(-1.2958,0.314133,0.314133,1.2958,-39.0124,-908.234)">
        <path d="M85.819,742.827L93.969,742.827L86.724,746.559L87.671,744.354L85.819,742.827Z" style="stroke:black;stroke-width:0.72px;"/>
    </g>
    <g transform="matrix(1.33333,0,0,1.33333,-42.3101,-906.56)">
        <path d="M185.52,743.28L234.48,743.28" style="fill:none;fill-rule:nonzero;stroke:black;stroke-width:0.72px;"/>
    </g>
    <g transform="matrix(1.33333,0,0,1.33333,-42.3101,-914.24)">
        <path d="M185.52,746.16L234.48,746.16" style="fill:none;fill-rule:nonzero;stroke:black;stroke-width:0.72px;"/>
    </g>
    <g transform="matrix(1.2958,0.314133,0.314133,-1.2958,-268.052,975.1)">
        <path d="M226.219,747.093L234.369,747.093L227.124,743.361L228.071,745.566L226.219,747.093Z" style="stroke:black;stroke-width:0.72px;"/>
    </g>
    <g transform="matrix(-1.2958,0.314133,0.314133,1.2958,222.369,-938.184)">
        <path d="M185.179,742.347L193.329,742.347L186.084,746.079L187.031,743.874L185.179,742.347Z" style="stroke:black;stroke-width:0.72px;"/>
    </g>
    <g transform="matrix(1.33333,0,0,1.33333,-42.3101,-936)">
        <path d="M197.76,754.32L217.68,754.32" style="fill:none;fill-rule:nonzero;stroke:black;stroke-width:0.72px;"/>
    </g>
    <g transform="matrix(1.33333,0,0,1.33333,-42.3101,-944.96)">
        <path d="M197.76,757.68L217.68,757.68" style="fill:none;fill-rule:nonzero;stroke:black;stroke-width:0.72px;"/>
    </g>
    <g transform="matrix(1.33333,0,0,1.33333,-42.3101,-927.04)">
        <path d="M197.76,750.96L217.68,750.96" style="fill:none;fill-rule:nonzero;stroke:black;stroke-width:0.72px;"/>
    </g>
    <g transform="matrix(1.33333,0,0,1.33333,-42.3101,-776)">
        <path d="M243.36,694.32L263.28,694.32" style="fill:none;fill-rule:nonzero;stroke:black;stroke-width:0.72px;"/>
    </g>
    <g transform="matrix(1.33333,0,0,1.33333,-42.3101,-784.96)">
        <path d="M243.36,697.68L263.28,697.68" style="fill:none;fill-rule:nonzero;stroke:black;stroke-width:0.72px;"/>
    </g>
    <g transform="matrix(1.33333,0,0,1.33333,-42.3101,-767.04)">
        <path d="M243.36,690.96L263.28,690.96" style="fill:none;fill-rule:nonzero;stroke:black;stroke-width:0.72px;"/>
    </g>
    <g transform="matrix(1.33333,0,0,1.33333,-42.3101,-908.48)">
        <path d="M282.72,744L330,744" style="fill:none;fill-rule:nonzero;stroke:black;stroke-width:0.72px;"/>
    </g>
    <g transform="matrix(1.33333,0,0,1.33333,-42.3101,-916.16)">
        <path d="M282.72,746.88L330,746.88" style="fill:none;fill-rule:nonzero;stroke:black;stroke-width:0.72px;"/>
    </g>
    <g transform="matrix(1.2958,0.314133,0.314133,-1.2958,-264.693,945.067)">
        <path d="M321.739,747.813L329.889,747.813L322.644,744.081L323.591,746.286L321.739,747.813Z" style="stroke:black;stroke-width:0.72px;"/>
    </g>
    <g transform="matrix(-1.2958,0.314133,0.314133,1.2958,477.695,-970.611)">
        <path d="M282.379,743.067L290.529,743.067L283.284,746.799L284.231,744.594L282.379,743.067Z" style="stroke:black;stroke-width:0.72px;"/>
    </g>
    <g transform="matrix(0,1.33333,1.33333,0,-662.95,-222.88)">
        <path d="M239.64,719.64L268.68,719.64" style="fill:none;fill-rule:nonzero;stroke:black;stroke-width:0.72px;"/>
    </g>
    <g transform="matrix(-0.314133,-1.2958,-1.2958,0.314133,1322.6,201.88)">
        <path d="M249.859,729.267L258.009,729.267L250.764,732.999L251.711,730.794L249.859,729.267Z" style="stroke:black;stroke-width:0.72px;"/>
    </g>
    <g transform="matrix(1.33333,0,0,1.33333,-42.3101,-774.72)">
        <path d="M348.96,693.84L368.88,693.84" style="fill:none;fill-rule:nonzero;stroke:black;stroke-width:0.72px;"/>
    </g>
    <g transform="matrix(1.33333,0,0,1.33333,-42.3101,-783.68)">
        <path d="M348.96,697.2L368.88,697.2" style="fill:none;fill-rule:nonzero;stroke:black;stroke-width:0.72px;"/>
    </g>
    <g transform="matrix(1.33333,0,0,1.33333,-42.3101,-765.76)">
        <path d="M348.96,690.48L368.88,690.48" style="fill:none;fill-rule:nonzero;stroke:black;stroke-width:0.72px;"/>
    </g>
    <g transform="matrix(0,1.33333,1.33333,0,-521.51,-363.04)">
        <path d="M345.24,719.16L374.28,719.16" style="fill:none;fill-rule:nonzero;stroke:black;stroke-width:0.72px;"/>
    </g>
    <g transform="matrix(-0.314133,-1.2958,-1.2958,0.314133,1495.95,339.508)">
        <path d="M355.459,728.787L363.609,728.787L356.364,732.519L357.311,730.314L355.459,728.787Z" style="stroke:black;stroke-width:0.72px;"/>
    </g>
    <g transform="matrix(1.33333,0,0,1.33333,-42.3101,-907.2)">
        <path d="M389.76,743.52L438.72,743.52" style="fill:none;fill-rule:nonzero;stroke:black;stroke-width:0.72px;"/>
    </g>
    <g transform="matrix(1.33333,0,0,1.33333,-42.3101,-914.88)">
        <path d="M389.76,746.4L438.72,746.4" style="fill:none;fill-rule:nonzero;stroke:black;stroke-width:0.72px;"/>
    </g>
    <g transform="matrix(1.2958,0.314133,0.314133,-1.2958,-260.461,910.933)">
        <path d="M430.459,747.333L438.609,747.333L431.364,743.601L432.311,745.806L430.459,747.333Z" style="stroke:black;stroke-width:0.72px;"/>
    </g>
    <g transform="matrix(-1.2958,0.314133,0.314133,1.2958,759.268,-1002.97)">
        <path d="M389.419,742.587L397.569,742.587L390.324,746.319L391.271,744.114L389.419,742.587Z" style="stroke:black;stroke-width:0.72px;"/>
    </g>
    <g transform="matrix(1.33333,0,0,1.33333,-42.3101,-936.64)">
        <path d="M402,754.56L421.92,754.56" style="fill:none;fill-rule:nonzero;stroke:black;stroke-width:0.72px;"/>
    </g>
    <g transform="matrix(1.33333,0,0,1.33333,-42.3101,-945.6)">
        <path d="M402,757.92L421.92,757.92" style="fill:none;fill-rule:nonzero;stroke:black;stroke-width:0.72px;"/>
    </g>
    <g transform="matrix(1.33333,0,0,1.33333,-42.3101,-927.68)">
        <path d="M402,751.2L421.92,751.2" style="fill:none;fill-rule:nonzero;stroke:black;stroke-width:0.72px;"/>
    </g>
    <g transform="matrix(1.33333,0,0,1.33333,-42.3101,-776)">
        <path d="M457.68,694.32L477.6,694.32" style="fill:none;fill-rule:nonzero;stroke:black;stroke-width:0.72px;"/>
    </g>
    <g transform="matrix(1.33333,0,0,1.33333,-42.3101,-784.96)">
        <path d="M457.68,697.68L477.6,697.68" style="fill:none;fill-rule:nonzero;stroke:black;stroke-width:0.72px;"/>
    </g>
    <g transform="matrix(1.33333,0,0,1.33333,-42.3101,-767.04)">
        <path d="M457.68,690.96L477.6,690.96" style="fill:none;fill-rule:nonzero;stroke:black;stroke-width:0.72px;"/>
    </g>
    <g transform="matrix(0,1.33333,1.33333,0,-377.19,-508.64)">
        <path d="M453.96,719.64L483,719.64" style="fill:none;fill-rule:nonzero;stroke:black;stroke-width:0.72px;"/>
    </g>
    <g transform="matrix(-0.314133,-1.2958,-1.2958,0.314133,1675.69,479.596)">
        <path d="M464.179,729.267L472.329,729.267L465.084,732.999L466.031,730.794L464.179,729.267Z" style="stroke:black;stroke-width:0.72px;"/>
    </g>
    <g transform="matrix(1.33333,0,0,1.33333,-42.3101,-1045.44)">
        <path d="M457.92,795.36L477.84,795.36" style="fill:none;fill-rule:nonzero;stroke:black;stroke-width:0.72px;"/>
    </g>
    <g transform="matrix(1.33333,0,0,1.33333,-42.3101,-1054.4)">
        <path d="M457.92,798.72L477.84,798.72" style="fill:none;fill-rule:nonzero;stroke:black;stroke-width:0.72px;"/>
    </g>
    <g transform="matrix(1.33333,0,0,1.33333,-42.3101,-1036.48)">
        <path d="M457.92,792L477.84,792" style="fill:none;fill-rule:nonzero;stroke:black;stroke-width:0.72px;"/>
    </g>
    <g transform="matrix(0,1.33333,1.33333,0,-445.67,-577.76)">
        <path d="M454.2,771.24L483.24,771.24" style="fill:none;fill-rule:nonzero;stroke:black;stroke-width:0.72px;"/>
    </g>
    <g transform="matrix(-0.314133,1.2958,1.2958,0.314133,-255.799,-785.042)">
        <path d="M464.419,761.613L472.569,761.613L465.324,757.881L466.271,760.086L464.419,761.613Z" style="stroke:black;stroke-width:0.72px;"/>
    </g>
    <g transform="matrix(1.33333,0,0,1.33333,-42.3101,-912.32)">
        <path d="M501.6,745.44L535.68,745.44" style="fill:none;fill-rule:nonzero;stroke:black;stroke-width:0.72px;"/>
    </g>
    <g transform="matrix(0,-1.33333,-1.33333,0,1594.81,868.8)">
        <path d="M482.88,691.44L589.92,691.44" style="fill:none;fill-rule:nonzero;stroke:black;stroke-width:0.72px;"/>
    </g>
    <g transform="matrix(0.314133,1.2958,1.2958,-0.314133,-327.359,-273.751)">
        <path d="M532.099,640.947L540.249,640.947L533.004,644.679L533.951,642.474L532.099,640.947Z" style="stroke:black;stroke-width:0.72px;"/>
    </g>
    <g transform="matrix(1.33333,0,0,1.33333,-42.3101,-910.4)">
        <path d="M535.2,743.76L536.16,743.76L536.64,744.24L536.64,745.2L536.16,745.68" style="fill:none;fill-rule:nonzero;stroke:black;stroke-width:0.48px;"/>
    </g>
    <g transform="matrix(-0.780975,-1.08067,-1.08067,0.780975,1758.46,394.618)">
        <path d="M537.951,600.495L551.609,600.495" style="fill:none;fill-rule:nonzero;stroke:black;stroke-width:0.72px;"/>
    </g>
    <g transform="matrix(1.26906,-0.408965,-0.408965,-1.26906,238.432,1254.05)">
        <path d="M521.34,602.975L541.26,602.975" style="fill:none;fill-rule:nonzero;stroke:black;stroke-width:0.72px;"/>
    </g>
    <g transform="matrix(1.26914,-0.408736,-0.408736,-1.26914,237.013,1254.6)">
        <path d="M524.881,599.775L539.789,599.775" style="fill:none;fill-rule:nonzero;stroke:black;stroke-width:0.72px;"/>
    </g>
    <g transform="matrix(0.786589,-1.07659,-1.07659,-0.786589,879.065,1345.21)">
        <path d="M537.947,579.22L551.373,579.22" style="fill:none;fill-rule:nonzero;stroke:black;stroke-width:0.72px;"/>
    </g>
    <g transform="matrix(0.00334671,-1.33333,-1.33333,-0.00334671,1438.28,986.606)">
        <path d="M511.835,589.96L531.755,589.96" style="fill:none;fill-rule:nonzero;stroke:black;stroke-width:0.72px;"/>
    </g>
    <g transform="matrix(1.2671,0.415005,0.415005,-1.2671,-246.542,816.847)">
        <path d="M521.275,576.9L541.195,576.9" style="fill:none;fill-rule:nonzero;stroke:black;stroke-width:0.72px;"/>
    </g>
    <g transform="matrix(1.26704,0.415189,0.415189,-1.26704,-247.872,816.068)">
        <path d="M524.83,580.09L539.73,580.09" style="fill:none;fill-rule:nonzero;stroke:black;stroke-width:0.72px;"/>
    </g>
    <g transform="matrix(1.33333,0,0,1.33333,-42.3101,-499.52)">
        <path d="M449.52,590.64L504.24,590.64" style="fill:none;fill-rule:nonzero;stroke:black;stroke-width:0.72px;"/>
    </g>
    <g transform="matrix(1.33333,0,0,1.33333,-42.3101,-507.2)">
        <path d="M449.52,593.52L504.24,593.52" style="fill:none;fill-rule:nonzero;stroke:black;stroke-width:0.72px;"/>
    </g>
    <g transform="matrix(1.2958,0.314133,0.314133,-1.2958,-209.977,896.089)">
        <path d="M495.979,594.453L504.129,594.453L496.884,590.721L497.831,592.926L495.979,594.453Z" style="stroke:black;stroke-width:0.72px;"/>
    </g>
    <g transform="matrix(-1.2958,0.314133,0.314133,1.2958,964.41,-619.805)">
        <path d="M449.179,589.707L457.329,589.707L450.084,593.439L451.031,591.234L449.179,589.707Z" style="stroke:black;stroke-width:0.72px;"/>
    </g>
    <g transform="matrix(1.33333,0,0,1.33333,-42.3101,-529.6)">
        <path d="M467.52,601.92L487.44,601.92" style="fill:none;fill-rule:nonzero;stroke:black;stroke-width:0.72px;"/>
    </g>
    <g transform="matrix(1.33333,0,0,1.33333,-42.3101,-538.56)">
        <path d="M467.52,605.28L487.44,605.28" style="fill:none;fill-rule:nonzero;stroke:black;stroke-width:0.72px;"/>
    </g>
    <g transform="matrix(1.33333,0,0,1.33333,-42.3101,-520.64)">
        <path d="M467.52,598.56L487.44,598.56" style="fill:none;fill-rule:nonzero;stroke:black;stroke-width:0.72px;"/>
    </g>
    <g transform="matrix(-0.780975,-1.08067,-1.08067,0.780975,1451.78,230.826)">
        <path d="M391.551,603.135L405.209,603.135" style="fill:none;fill-rule:nonzero;stroke:black;stroke-width:0.72px;"/>
    </g>
    <g transform="matrix(-0.780654,-1.08091,-1.08091,0.780654,1444.72,237.562)">
        <path d="M390.415,599.36L403.515,599.36" style="fill:none;fill-rule:nonzero;stroke:black;stroke-width:0.72px;"/>
    </g>
    <g transform="matrix(1.26906,-0.408965,-0.408965,-1.26906,230.103,1194.01)">
        <path d="M374.94,605.615L394.86,605.615" style="fill:none;fill-rule:nonzero;stroke:black;stroke-width:0.72px;"/>
    </g>
    <g transform="matrix(1.26914,-0.408736,-0.408736,-1.26914,228.694,1194.59)">
        <path d="M378.481,602.415L393.389,602.415" style="fill:none;fill-rule:nonzero;stroke:black;stroke-width:0.72px;"/>
    </g>
    <g transform="matrix(0.786589,-1.07659,-1.07659,-0.786589,801.863,1186.16)">
        <path d="M391.547,581.86L404.973,581.86" style="fill:none;fill-rule:nonzero;stroke:black;stroke-width:0.72px;"/>
    </g>
    <g transform="matrix(0.00334671,-1.33333,-1.33333,-0.00334671,1247.09,787.895)">
        <path d="M365.435,592.6L385.355,592.6" style="fill:none;fill-rule:nonzero;stroke:black;stroke-width:0.72px;"/>
    </g>
    <g transform="matrix(1.2671,0.415005,0.415005,-1.2671,-257.334,877.428)">
        <path d="M374.875,579.54L394.795,579.54" style="fill:none;fill-rule:nonzero;stroke:black;stroke-width:0.72px;"/>
    </g>
    <g transform="matrix(1.26704,0.415189,0.415189,-1.26704,-258.673,876.677)">
        <path d="M378.43,582.73L393.33,582.73" style="fill:none;fill-rule:nonzero;stroke:black;stroke-width:0.72px;"/>
    </g>
    <g transform="matrix(1.33333,0,0,1.33333,-42.3101,-319.68)">
        <path d="M378.72,523.2L398.64,523.2" style="fill:none;fill-rule:nonzero;stroke:black;stroke-width:0.72px;"/>
    </g>
    <g transform="matrix(1.33333,0,0,1.33333,-42.3101,-328.64)">
        <path d="M378.72,526.56L398.64,526.56" style="fill:none;fill-rule:nonzero;stroke:black;stroke-width:0.72px;"/>
    </g>
    <g transform="matrix(1.33333,0,0,1.33333,-42.3101,-310.72)">
        <path d="M378.72,519.84L398.64,519.84" style="fill:none;fill-rule:nonzero;stroke:black;stroke-width:0.72px;"/>
    </g>
    <g transform="matrix(0,1.33333,1.33333,0,-254.31,-175.2)">
        <path d="M375,548.52L404.04,548.52" style="fill:none;fill-rule:nonzero;stroke:black;stroke-width:0.72px;"/>
    </g>
    <g transform="matrix(-0.314133,-1.2958,-1.2958,0.314133,1323.87,659.194)">
        <path d="M385.219,558.147L393.369,558.147L386.124,561.879L387.071,559.674L385.219,558.147Z" style="stroke:black;stroke-width:0.72px;"/>
    </g>
    <g transform="matrix(1.33333,0,0,1.33333,-42.3101,-503.36)">
        <path d="M326.4,592.08L360.48,592.08" style="fill:none;fill-rule:nonzero;stroke:black;stroke-width:0.72px;"/>
    </g>
    <g transform="matrix(-1.2958,0.314133,0.314133,1.2958,640.258,-584.914)">
        <path d="M326.059,591.147L334.209,591.147L326.964,594.879L327.911,592.674L326.059,591.147Z" style="stroke:black;stroke-width:0.72px;"/>
    </g>
    <g transform="matrix(-0.297808,1.29965,1.29965,0.297808,-415.789,-209.329)">
        <path d="M233.883,593.41L253.807,593.41" style="fill:none;fill-rule:nonzero;stroke:black;stroke-width:0.72px;"/>
    </g>
    <g transform="matrix(-0.829985,-1.04351,-1.04351,0.829985,1094.76,88.2557)">
        <path d="M237.86,575.905L257.78,575.905" style="fill:none;fill-rule:nonzero;stroke:black;stroke-width:0.72px;"/>
    </g>
    <g transform="matrix(-0.830586,-1.04303,-1.04303,0.830586,1102.51,86.0008)">
        <path d="M241.412,578L259.488,578" style="fill:none;fill-rule:nonzero;stroke:black;stroke-width:0.72px;"/>
    </g>
    <g transform="matrix(-1.20205,0.576931,0.576931,1.20205,253.894,-611.695)">
        <path d="M245.089,607.43L265.011,607.43" style="fill:none;fill-rule:nonzero;stroke:black;stroke-width:0.72px;"/>
    </g>
    <g transform="matrix(-1.20172,0.577622,0.577622,1.20172,258.826,-604.842)">
        <path d="M247.468,604.405L265.542,604.405" style="fill:none;fill-rule:nonzero;stroke:black;stroke-width:0.72px;"/>
    </g>
    <g transform="matrix(-1.33333,-0.000669008,-0.000669008,1.33333,662.03,-439.25)">
        <path d="M254.02,568.105L273.95,568.105" style="fill:none;fill-rule:nonzero;stroke:black;stroke-width:0.72px;"/>
    </g>
    <g transform="matrix(-1.20097,-0.579189,-0.579189,1.20097,995.442,-310.459)">
        <path d="M263.331,608.68L277.419,608.68" style="fill:none;fill-rule:nonzero;stroke:black;stroke-width:0.72px;"/>
    </g>
    <g transform="matrix(-0.832192,1.04175,1.04175,0.832192,-35.5265,-463.423)">
        <path d="M270.207,575.88L290.123,575.88" style="fill:none;fill-rule:nonzero;stroke:black;stroke-width:0.72px;"/>
    </g>
    <g transform="matrix(-0.832297,1.04166,1.04166,0.832297,-43.3262,-465.258)">
        <path d="M268.492,577.975L286.578,577.975" style="fill:none;fill-rule:nonzero;stroke:black;stroke-width:0.72px;"/>
    </g>
    <g transform="matrix(0.295257,1.30023,1.30023,-0.295257,-514.809,92.0096)">
        <path d="M277.499,590.75L292.041,590.75" style="fill:none;fill-rule:nonzero;stroke:black;stroke-width:0.72px;"/>
    </g>
    <g transform="matrix(1.33333,0,0,1.33333,-42.3101,-503.36)">
        <path d="M190.8,592.08L224.88,592.08" style="fill:none;fill-rule:nonzero;stroke:black;stroke-width:0.72px;"/>
    </g>
    <g transform="matrix(-1.2958,0.314133,0.314133,1.2958,283.748,-542.318)">
        <path d="M190.459,591.147L198.609,591.147L191.364,594.879L192.311,592.674L190.459,591.147Z" style="stroke:black;stroke-width:0.72px;"/>
    </g>
    <g transform="matrix(0,-1.33333,-1.33333,0,933.33,472.28)">
        <path d="M129.69,592.08L149.61,592.08" style="fill:none;fill-rule:nonzero;stroke:black;stroke-width:0.72px;"/>
    </g>
    <g transform="matrix(0,-1.33333,-1.33333,0,928.85,467.8)">
        <path d="M127.99,592.08L144.59,592.08" style="fill:none;fill-rule:nonzero;stroke:black;stroke-width:0.72px;"/>
    </g>
    <g transform="matrix(1.15468,0.666702,0.666702,-1.15468,-423.604,879.719)">
        <path d="M121.066,607.02L140.984,607.02" style="fill:none;fill-rule:nonzero;stroke:black;stroke-width:0.72px;"/>
    </g>
    <g transform="matrix(1.15468,-0.666702,-0.666702,-1.15468,365.878,1059.77)">
        <path d="M121.066,577.14L140.984,577.14" style="fill:none;fill-rule:nonzero;stroke:black;stroke-width:0.72px;"/>
    </g>
    <g transform="matrix(1.15468,-0.666702,-0.666702,-1.15468,382.718,1042.93)">
        <path d="M103.816,607.02L123.734,607.02" style="fill:none;fill-rule:nonzero;stroke:black;stroke-width:0.72px;"/>
    </g>
    <g transform="matrix(1.15458,-0.666876,-0.666876,-1.15458,381.194,1044.53)">
        <path d="M107.158,604.11L123.752,604.11" style="fill:none;fill-rule:nonzero;stroke:black;stroke-width:0.72px;"/>
    </g>
    <g transform="matrix(1.15468,0.666702,0.666702,-1.15468,-406.764,896.558)">
        <path d="M103.816,577.14L123.734,577.14" style="fill:none;fill-rule:nonzero;stroke:black;stroke-width:0.72px;"/>
    </g>
    <g transform="matrix(1.15458,0.666876,0.666876,-1.15458,-408.494,894.84)">
        <path d="M107.158,580.05L123.752,580.05" style="fill:none;fill-rule:nonzero;stroke:black;stroke-width:0.72px;"/>
    </g>
    <g transform="matrix(0,-1.33333,-1.33333,0,887.33,426.28)">
        <path d="M95.19,592.08L115.11,592.08" style="fill:none;fill-rule:nonzero;stroke:black;stroke-width:0.72px;"/>
    </g>
    <g transform="matrix(1.33333,0,0,1.33333,-42.3101,-504.64)">
        <path d="M141.36,590.88L141.36,594.24L134.64,594.24L134.64,590.88" style="fill:white;"/>
    </g>
    <g transform="matrix(1.33333,0,0,1.33333,-42.3101,-504.64)">
        <path d="M129.36,592.56L144.24,592.56" style="fill:none;fill-rule:nonzero;stroke:black;stroke-width:0.72px;"/>
    </g>
    <g transform="matrix(0,1.33333,1.33333,0,-591.59,197.92)">
        <path d="M105.48,535.08L140.76,535.08" style="fill:none;fill-rule:nonzero;stroke:black;stroke-width:0.72px;"/>
    </g>
    <g transform="matrix(-0.314133,1.2958,1.2958,0.314133,-515.104,56.9919)">
        <path d="M118.819,522.333L126.969,522.333L119.724,518.601L120.671,520.806L118.819,522.333Z" style="stroke:black;stroke-width:0.72px;"/>
    </g>
    <g transform="matrix(0,-1.33333,-1.33333,0,723.41,575.96)">
        <path d="M89.85,474.48L109.77,474.48" style="fill:none;fill-rule:nonzero;stroke:black;stroke-width:0.72px;"/>
    </g>
    <g transform="matrix(0,-1.33333,-1.33333,0,718.93,571.48)">
        <path d="M88.15,474.48L104.75,474.48" style="fill:none;fill-rule:nonzero;stroke:black;stroke-width:0.72px;"/>
    </g>
    <g transform="matrix(1.15468,0.666702,0.666702,-1.15468,-352.317,927.29)">
        <path d="M81.226,489.42L101.144,489.42" style="fill:none;fill-rule:nonzero;stroke:black;stroke-width:0.72px;"/>
    </g>
    <g transform="matrix(1.15468,-0.666702,-0.666702,-1.15468,280.357,1054.21)">
        <path d="M81.226,459.54L101.144,459.54" style="fill:none;fill-rule:nonzero;stroke:black;stroke-width:0.72px;"/>
    </g>
    <g transform="matrix(1.15468,-0.666702,-0.666702,-1.15468,297.196,1037.38)">
        <path d="M63.976,489.42L83.894,489.42" style="fill:none;fill-rule:nonzero;stroke:black;stroke-width:0.72px;"/>
    </g>
    <g transform="matrix(1.15458,-0.666876,-0.666876,-1.15458,295.648,1038.98)">
        <path d="M67.318,486.51L83.912,486.51" style="fill:none;fill-rule:nonzero;stroke:black;stroke-width:0.72px;"/>
    </g>
    <g transform="matrix(1.15468,0.666702,0.666702,-1.15468,-335.478,944.129)">
        <path d="M63.976,459.54L83.894,459.54" style="fill:none;fill-rule:nonzero;stroke:black;stroke-width:0.72px;"/>
    </g>
    <g transform="matrix(1.15458,0.666876,0.666876,-1.15458,-337.191,942.429)">
        <path d="M67.318,462.45L83.912,462.45" style="fill:none;fill-rule:nonzero;stroke:black;stroke-width:0.72px;"/>
    </g>
    <g transform="matrix(0,-1.33333,-1.33333,0,677.41,529.96)">
        <path d="M55.35,474.48L75.27,474.48" style="fill:none;fill-rule:nonzero;stroke:black;stroke-width:0.72px;"/>
    </g>
</svg>
