<?xml version="1.0" encoding="UTF-8" standalone="no"?>
<!DOCTYPE svg PUBLIC "-//W3C//DTD SVG 1.1//EN" "http://www.w3.org/Graphics/SVG/1.1/DTD/svg11.dtd">
<svg width="100%" height="100%" viewBox="0 0 270 80" version="1.1" xmlns="http://www.w3.org/2000/svg" xmlns:xlink="http://www.w3.org/1999/xlink" xml:space="preserve" xmlns:serif="http://www.serif.com/" style="fill-rule:evenodd;clip-rule:evenodd;stroke-linecap:round;stroke-linejoin:round;stroke-miterlimit:10;">
    <g transform="matrix(1.33333,0,0,1.33333,-59.4455,-95.8374)">
        <text x="98.4px" y="84.48px" style="font-family:'ArialMT', 'Arial', sans-serif;font-size:10px;">O<tspan x="106.32px " y="84.48px ">H</tspan></text>
        <text x="98.4px" y="124.56px" style="font-family:'ArialMT', 'Arial', sans-serif;font-size:10px;">O<tspan x="106.32px " y="124.56px ">H</tspan></text>
    </g>
    <g transform="matrix(1.33333,0,0,1.33333,-59.4455,-95.8374)">
        <text x="222.72px" y="84.24px" style="font-family:'ArialMT', 'Arial', sans-serif;font-size:10px;">O</text>
        <text x="222.72px" y="124.32px" style="font-family:'ArialMT', 'Arial', sans-serif;font-size:10px;">O</text>
    </g>
    <g transform="matrix(0,-1.33333,-1.33333,0,1042.59,151.803)">
        <path d="M75.21,741.36L95.13,741.36" style="fill:none;fill-rule:nonzero;stroke:black;stroke-width:0.72px;"/>
    </g>
    <g transform="matrix(1.15468,0.666702,0.666702,-1.15468,-549.997,840.574)">
        <path d="M66.586,756.3L86.504,756.3" style="fill:none;fill-rule:nonzero;stroke:black;stroke-width:0.72px;"/>
    </g>
    <g transform="matrix(1.15468,-0.666702,-0.666702,-1.15468,438.535,947.978)">
        <path d="M66.586,726.42L86.504,726.42" style="fill:none;fill-rule:nonzero;stroke:black;stroke-width:0.72px;"/>
    </g>
    <g transform="matrix(1.15468,-0.666702,-0.666702,-1.15468,455.375,931.139)">
        <path d="M49.336,756.3L69.254,756.3" style="fill:none;fill-rule:nonzero;stroke:black;stroke-width:0.72px;"/>
    </g>
    <g transform="matrix(1.15468,0.666702,0.666702,-1.15468,-533.158,857.413)">
        <path d="M49.336,726.42L69.254,726.42" style="fill:none;fill-rule:nonzero;stroke:black;stroke-width:0.72px;"/>
    </g>
    <g transform="matrix(0,-1.33333,-1.33333,0,996.594,105.803)">
        <path d="M40.71,741.36L60.63,741.36" style="fill:none;fill-rule:nonzero;stroke:black;stroke-width:0.72px;"/>
    </g>
    <g transform="matrix(1.15487,-0.666378,-0.666378,-1.15487,459.871,952.849)">
        <path d="M84.222,754.86L98.388,754.86" style="fill:none;fill-rule:nonzero;stroke:black;stroke-width:0.72px;"/>
    </g>
    <g transform="matrix(1.15487,0.666378,0.666378,-1.15487,-528.181,835.981)">
        <path d="M84.222,727.86L98.388,727.86" style="fill:none;fill-rule:nonzero;stroke:black;stroke-width:0.72px;"/>
    </g>
    <g transform="matrix(1.33333,0,0,1.33333,-59.4455,-957.277)">
        <path d="M124.8,744L158.88,744" style="fill:none;fill-rule:nonzero;stroke:black;stroke-width:0.72px;"/>
    </g>
    <g transform="matrix(1.33333,0,0,1.33333,-59.4455,-964.957)">
        <path d="M124.8,746.88L158.88,746.88" style="fill:none;fill-rule:nonzero;stroke:black;stroke-width:0.72px;"/>
    </g>
    <g transform="matrix(1.33333,0,0,1.33333,-59.4455,-961.117)">
        <path d="M154.32,741.84L162.24,745.44L154.32,749.04" style="fill:none;fill-rule:nonzero;stroke:black;stroke-width:0.72px;"/>
    </g>
    <g transform="matrix(1.15468,0.666702,0.666702,-1.15468,-527.947,757.647)">
        <path d="M190.906,756.54L210.824,756.54" style="fill:none;fill-rule:nonzero;stroke:black;stroke-width:0.72px;"/>
    </g>
    <g transform="matrix(1.15468,-0.666702,-0.666702,-1.15468,460.905,1030.82)">
        <path d="M190.906,726.66L210.824,726.66" style="fill:none;fill-rule:nonzero;stroke:black;stroke-width:0.72px;"/>
    </g>
    <g transform="matrix(1.15468,-0.666702,-0.666702,-1.15468,477.745,1013.98)">
        <path d="M173.656,756.54L193.574,756.54" style="fill:none;fill-rule:nonzero;stroke:black;stroke-width:0.72px;"/>
    </g>
    <g transform="matrix(1.15468,0.666702,0.666702,-1.15468,-511.108,774.486)">
        <path d="M173.656,726.66L193.574,726.66" style="fill:none;fill-rule:nonzero;stroke:black;stroke-width:0.72px;"/>
    </g>
    <g transform="matrix(0,-1.33333,-1.33333,0,1162.67,271.243)">
        <path d="M165.03,741.6L184.95,741.6" style="fill:none;fill-rule:nonzero;stroke:black;stroke-width:0.72px;"/>
    </g>
    <g transform="matrix(1.15487,-0.666378,-0.666378,-1.15487,482.218,1035.65)">
        <path d="M208.542,755.1L222.708,755.1" style="fill:none;fill-rule:nonzero;stroke:black;stroke-width:0.72px;"/>
    </g>
    <g transform="matrix(1.15481,-0.666483,-0.666483,-1.15481,484.829,1034.87)">
        <path d="M208.283,758.91L222.727,758.91" style="fill:none;fill-rule:nonzero;stroke:black;stroke-width:0.72px;"/>
    </g>
    <g transform="matrix(1.15487,0.666378,0.666378,-1.15487,-506.154,753.094)">
        <path d="M208.542,728.1L222.708,728.1" style="fill:none;fill-rule:nonzero;stroke:black;stroke-width:0.72px;"/>
    </g>
    <g transform="matrix(1.15481,0.666483,0.666483,-1.15481,-503.699,753.787)">
        <path d="M208.283,724.29L222.727,724.29" style="fill:none;fill-rule:nonzero;stroke:black;stroke-width:0.72px;"/>
    </g>
</svg>
