<?xml version="1.0" encoding="UTF-8" standalone="no"?>
<!DOCTYPE svg PUBLIC "-//W3C//DTD SVG 1.1//EN" "http://www.w3.org/Graphics/SVG/1.1/DTD/svg11.dtd">
<svg width="100%" height="100%" viewBox="0 0 750 690" version="1.1" xmlns="http://www.w3.org/2000/svg" xmlns:xlink="http://www.w3.org/1999/xlink" xml:space="preserve" xmlns:serif="http://www.serif.com/" style="fill-rule:evenodd;clip-rule:evenodd;stroke-linecap:round;stroke-linejoin:round;stroke-miterlimit:10;">
    <g transform="matrix(1.33333,0,0,1.33333,-61.6277,-50.1974)">
        <text x="52.56px" y="100.08px" style="font-family:'ArialMT', 'Arial', sans-serif;font-size:10px;">P</text>
        <text x="59.28px" y="100.08px" style="font-family:'ArialMT', 'Arial', sans-serif;font-size:10px;">d</text>
        <text x="64.8px" y="100.08px" style="font-family:'ArialMT', 'Arial', sans-serif;font-size:10px;">(PP</text>
        <text x="81.6px" y="100.08px" style="font-family:'ArialMT', 'Arial', sans-serif;font-size:10px;">h</text>
        <text x="87.36px" y="102.72px" style="font-family:'ArialMT', 'Arial', sans-serif;font-size:8px;">3</text>
        <text x="91.92px" y="100.08px" style="font-family:'ArialMT', 'Arial', sans-serif;font-size:10px;">)</text>
        <text x="95.52px" y="102.72px" style="font-family:'ArialMT', 'Arial', sans-serif;font-size:8px;">4</text>
    </g>
    <g transform="matrix(1.33333,0,0,1.33333,-61.6277,-50.1974)">
        <text x="187.2px" y="99.6px" style="font-family:'ArialMT', 'Arial', sans-serif;font-size:10px;">P</text>
        <text x="193.92px" y="99.6px" style="font-family:'ArialMT', 'Arial', sans-serif;font-size:10px;">d</text>
        <text x="199.44px" y="99.6px" style="font-family:'ArialMT', 'Arial', sans-serif;font-size:10px;">(PP</text>
        <text x="216.24px" y="99.6px" style="font-family:'ArialMT', 'Arial', sans-serif;font-size:10px;">h</text>
        <text x="222px" y="102.24px" style="font-family:'ArialMT', 'Arial', sans-serif;font-size:8px;">3</text>
        <text x="226.56px" y="99.6px" style="font-family:'ArialMT', 'Arial', sans-serif;font-size:10px;">)</text>
        <text x="230.16px" y="102.24px" style="font-family:'ArialMT', 'Arial', sans-serif;font-size:8px;">3</text>
    </g>
    <g transform="matrix(1.33333,0,0,1.33333,-61.6277,-50.1974)">
        <text x="266.88px" y="90.96px" style="font-family:'ArialMT', 'Arial', sans-serif;font-size:10px;">-PP</text>
        <text x="283.68px" y="90.96px" style="font-family:'ArialMT', 'Arial', sans-serif;font-size:10px;">h</text>
        <text x="289.2px" y="93.6px" style="font-family:'ArialMT', 'Arial', sans-serif;font-size:6px;">3</text>
        <text x="130.08px" y="91.2px" style="font-family:'ArialMT', 'Arial', sans-serif;font-size:10px;">-PP</text>
        <text x="146.88px" y="91.2px" style="font-family:'ArialMT', 'Arial', sans-serif;font-size:10px;">h</text>
        <text x="152.4px" y="93.84px" style="font-family:'ArialMT', 'Arial', sans-serif;font-size:6px;">3</text>
    </g>
    <g transform="matrix(1.33333,0,0,1.33333,-61.6277,-50.1974)">
        <text x="330.72px" y="99.36px" style="font-family:'ArialMT', 'Arial', sans-serif;font-size:10px;">Pd</text>
    </g>
    <g transform="matrix(1.33333,0,0,1.33333,-61.6277,-50.1974)">
        <text x="334.56px" y="152.4px" style="font-family:'ArialMT', 'Arial', sans-serif;font-size:10px;">L</text>
    </g>
    <g transform="matrix(1.33333,0,0,1.33333,-61.6277,-50.1974)">
        <text x="335.28px" y="51.12px" style="font-family:'ArialMT', 'Arial', sans-serif;font-size:10px;">L</text>
    </g>
    <g transform="matrix(1.33333,0,0,1.33333,-61.6277,-50.1974)">
        <text x="390px" y="90px" style="font-family:'ArialMT', 'Arial', sans-serif;font-size:10px;">RX</text>
    </g>
    <g transform="matrix(1.33333,0,0,1.33333,-61.6277,-50.1974)">
        <text x="462.72px" y="98.16px" style="font-family:'ArialMT', 'Arial', sans-serif;font-size:10px;">P</text>
        <text x="469.44px" y="98.16px" style="font-family:'ArialMT', 'Arial', sans-serif;font-size:10px;">d	<tspan x="482.88px " y="98.16px ">X</tspan></text>
    </g>
    <g transform="matrix(1.33333,0,0,1.33333,-61.6277,-50.1974)">
        <text x="442.56px" y="97.92px" style="font-family:'ArialMT', 'Arial', sans-serif;font-size:10px;">R</text>
    </g>
    <g transform="matrix(1.33333,0,0,1.33333,-61.6277,-50.1974)">
        <text x="465.84px" y="151.2px" style="font-family:'ArialMT', 'Arial', sans-serif;font-size:10px;">L</text>
    </g>
    <g transform="matrix(1.33333,0,0,1.33333,-61.6277,-50.1974)">
        <text x="464.88px" y="50.64px" style="font-family:'ArialMT', 'Arial', sans-serif;font-size:10px;">L</text>
    </g>
    <g transform="matrix(1.33333,0,0,1.33333,-61.6277,-50.1974)">
        <text x="514.56px" y="281.04px" style="font-family:'ArialMT', 'Arial', sans-serif;font-size:10px;">R</text>
    </g>
    <g transform="matrix(1.33333,0,0,1.33333,-61.6277,-50.1974)">
        <text x="547.2px" y="281.04px" style="font-family:'ArialMT', 'Arial', sans-serif;font-size:10px;">Pd</text>
    </g>
    <g transform="matrix(1.33333,0,0,1.33333,-61.6277,-50.1974)">
        <text x="566.88px" y="276.96px" style="font-family:'ArialMT', 'Arial', sans-serif;font-size:10px;">X</text>
    </g>
    <g transform="matrix(1.33333,0,0,1.33333,-61.6277,-50.1974)">
        <text x="552.48px" y="316.32px" style="font-family:'ArialMT', 'Arial', sans-serif;font-size:10px;">R</text>
        <text x="559.92px" y="309.36px" style="font-family:'ArialMT', 'Arial', sans-serif;font-size:8px;">1</text>
    </g>
    <g transform="matrix(1.33333,0,0,1.33333,-61.6277,-50.1974)">
        <text x="532.56px" y="283.92px" style="font-family:'ArialMT', 'Arial', sans-serif;font-size:10px;">H</text>
    </g>
    <g transform="matrix(1.33333,0,0,1.33333,-61.6277,-50.1974)">
        <text x="502.32px" y="307.68px" style="font-family:'ArialMT', 'Arial', sans-serif;font-size:10px;">H</text>
    </g>
    <g transform="matrix(1.33333,0,0,1.33333,-61.6277,-50.1974)">
        <text x="522.24px" y="245.52px" style="font-family:'ArialMT', 'Arial', sans-serif;font-size:10px;">L</text>
    </g>
    <g transform="matrix(1.33333,0,0,1.33333,-61.6277,-50.1974)">
        <text x="586.32px" y="313.2px" style="font-family:'ArialMT', 'Arial', sans-serif;font-size:10px;">L</text>
    </g>
    <g transform="matrix(1.33333,0,0,1.33333,-61.6277,-50.1974)">
        <text x="513.6px" y="63.12px" style="font-family:'ArialMT', 'Arial', sans-serif;font-size:10px;">C</text>
    </g>
    <g transform="matrix(1.33333,0,0,1.33333,-61.6277,-50.1974)">
        <text x="502.08px" y="63.12px" style="font-family:'ArialMT', 'Arial', sans-serif;font-size:10px;">H</text>
        <text x="509.28px" y="65.76px" style="font-family:'ArialMT', 'Arial', sans-serif;font-size:8px;">2</text>
    </g>
    <g transform="matrix(1.33333,0,0,1.33333,-61.6277,-50.1974)">
        <text x="543.36px" y="80.16px" style="font-family:'ArialMT', 'Arial', sans-serif;font-size:10px;">R</text>
        <text x="550.8px" y="73.2px" style="font-family:'ArialMT', 'Arial', sans-serif;font-size:8px;">1</text>
    </g>
    <g transform="matrix(1.33333,0,0,1.33333,-61.6277,-50.1974)">
        <text x="370.08px" y="274.8px" style="font-family:'ArialMT', 'Arial', sans-serif;font-size:10px;">H</text>
    </g>
    <g transform="matrix(1.33333,0,0,1.33333,-61.6277,-50.1974)">
        <text x="402.72px" y="274.8px" style="font-family:'ArialMT', 'Arial', sans-serif;font-size:10px;">Pd</text>
    </g>
    <g transform="matrix(1.33333,0,0,1.33333,-61.6277,-50.1974)">
        <text x="422.4px" y="270.72px" style="font-family:'ArialMT', 'Arial', sans-serif;font-size:10px;">X</text>
    </g>
    <g transform="matrix(1.33333,0,0,1.33333,-61.6277,-50.1974)">
        <text x="408px" y="310.08px" style="font-family:'ArialMT', 'Arial', sans-serif;font-size:10px;">R</text>
        <text x="415.44px" y="303.12px" style="font-family:'ArialMT', 'Arial', sans-serif;font-size:8px;">1</text>
    </g>
    <g transform="matrix(1.33333,0,0,1.33333,-61.6277,-50.1974)">
        <text x="388.08px" y="277.68px" style="font-family:'ArialMT', 'Arial', sans-serif;font-size:10px;">R</text>
    </g>
    <g transform="matrix(1.33333,0,0,1.33333,-61.6277,-50.1974)">
        <text x="357.84px" y="301.44px" style="font-family:'ArialMT', 'Arial', sans-serif;font-size:10px;">H</text>
    </g>
    <g transform="matrix(1.33333,0,0,1.33333,-61.6277,-50.1974)">
        <text x="377.76px" y="239.28px" style="font-family:'ArialMT', 'Arial', sans-serif;font-size:10px;">L</text>
    </g>
    <g transform="matrix(1.33333,0,0,1.33333,-61.6277,-50.1974)">
        <text x="441.84px" y="306.96px" style="font-family:'ArialMT', 'Arial', sans-serif;font-size:10px;">L</text>
    </g>
    <g transform="matrix(1.33333,0,0,1.33333,-61.6277,-50.1974)">
        <text x="253.68px" y="292.8px" style="font-family:'ArialMT', 'Arial', sans-serif;font-size:10px;">P</text>
        <text x="260.4px" y="292.8px" style="font-family:'ArialMT', 'Arial', sans-serif;font-size:10px;">d	<tspan x="273.84px " y="292.8px ">X</tspan></text>
    </g>
    <g transform="matrix(1.33333,0,0,1.33333,-61.6277,-50.1974)">
        <text x="233.52px" y="292.8px" style="font-family:'ArialMT', 'Arial', sans-serif;font-size:10px;">H</text>
    </g>
    <g transform="matrix(1.33333,0,0,1.33333,-61.6277,-50.1974)">
        <text x="259.44px" y="243.6px" style="font-family:'ArialMT', 'Arial', sans-serif;font-size:10px;">L</text>
    </g>
    <g transform="matrix(1.33333,0,0,1.33333,-61.6277,-50.1974)">
        <text x="257.76px" y="342px" style="font-family:'ArialMT', 'Arial', sans-serif;font-size:10px;">L</text>
    </g>
    <g transform="matrix(1.33333,0,0,1.33333,-61.6277,-50.1974)">
        <text x="200.88px" y="296.64px" style="font-family:'ArialMT', 'Arial', sans-serif;font-size:18px;">+</text>
        <text x="179.28px" y="311.52px" style="font-family:'ArialMT', 'Arial', sans-serif;font-size:10px;">R</text>
        <text x="186.72px" y="304.56px" style="font-family:'ArialMT', 'Arial', sans-serif;font-size:8px;">1</text>
    </g>
    <g transform="matrix(1.33333,0,0,1.33333,-61.6277,-50.1974)">
        <text x="139.44px" y="277.2px" style="font-family:'ArialMT', 'Arial', sans-serif;font-size:10px;">R</text>
    </g>
    <g transform="matrix(1.33333,0,0,1.33333,-61.6277,-50.1974)">
        <text x="279.36px" y="383.04px" style="font-family:'ArialMT', 'Arial', sans-serif;font-size:10px;">:<tspan x="282.24px " y="383.04px ">B</tspan></text>
    </g>
    <g transform="matrix(1.33333,0,0,1.33333,-61.6277,-50.1974)">
        <text x="255.12px" y="451.2px" style="font-family:'ArialMT', 'Arial', sans-serif;font-size:10px;">P</text>
        <text x="261.84px" y="451.2px" style="font-family:'ArialMT', 'Arial', sans-serif;font-size:10px;">d</text>
        <text x="267.36px" y="444.24px" style="font-family:'ArialMT', 'Arial', sans-serif;font-size:8px;">2<tspan x="271.68px " y="444.24px ">+</tspan></text>
    </g>
    <g transform="matrix(1.33333,0,0,1.33333,-61.6277,-50.1974)">
        <text x="223.68px" y="422.16px" style="font-family:'ArialMT', 'Arial', sans-serif;font-size:10px;">L</text>
    </g>
    <g transform="matrix(1.33333,0,0,1.33333,-61.6277,-50.1974)">
        <text x="297.6px" y="475.92px" style="font-family:'ArialMT', 'Arial', sans-serif;font-size:10px;">L</text>
    </g>
    <g transform="matrix(1.33333,0,0,1.33333,-61.6277,-50.1974)">
        <text x="100.56px" y="530.88px" style="font-family:'ArialMT', 'Arial', sans-serif;font-size:10px;">R =</text>
    </g>
    <g transform="matrix(1.33333,0,0,1.33333,-61.6277,-50.1974)">
        <text x="148.32px" y="530.16px" style="font-family:'ArialMT', 'Arial', sans-serif;font-size:10px;">C</text>
    </g>
    <g transform="matrix(1.33333,0,0,1.33333,-61.6277,-50.1974)">
        <text x="136.8px" y="530.16px" style="font-family:'ArialMT', 'Arial', sans-serif;font-size:10px;">H</text>
        <text x="144px" y="532.8px" style="font-family:'ArialMT', 'Arial', sans-serif;font-size:8px;">2</text>
    </g>
    <g transform="matrix(1.33333,0,0,1.33333,-61.6277,-50.1974)">
        <text x="178.08px" y="547.2px" style="font-family:'ArialMT', 'Arial', sans-serif;font-size:10px;">CH</text>
        <text x="192.48px" y="549.84px" style="font-family:'ArialMT', 'Arial', sans-serif;font-size:8px;">3</text>
    </g>
    <g transform="matrix(1.33333,0,0,1.33333,-61.6277,-50.1974)">
        <text x="208.08px" y="527.04px" style="font-family:'ArialMT', 'Arial', sans-serif;font-size:10px;">;</text>
        <text x="227.04px" y="529.68px" style="font-family:'ArialMT', 'Arial', sans-serif;font-size:10px;">Ar <tspan x="240.033px " y="529.68px ">-</tspan></text>
    </g>
    <g transform="matrix(1.33333,0,0,1.33333,-61.6277,-910.997)">
        <path d="M116.16,743.76L173.52,743.76" style="fill:none;fill-rule:nonzero;stroke:black;stroke-width:0.72px;"/>
    </g>
    <g transform="matrix(1.33333,0,0,1.33333,-61.6277,-918.677)">
        <path d="M116.16,746.64L173.52,746.64" style="fill:none;fill-rule:nonzero;stroke:black;stroke-width:0.72px;"/>
    </g>
    <g transform="matrix(1.2958,0.314133,0.314133,-1.2958,-289.808,991.074)">
        <path d="M165.259,747.573L173.409,747.573L166.164,743.841L167.111,746.046L165.259,747.573Z" style="stroke:black;stroke-width:0.72px;"/>
    </g>
    <g transform="matrix(-1.2958,0.314133,0.314133,1.2958,20.544,-920.815)">
        <path d="M115.819,742.827L123.969,742.827L116.724,746.559L117.671,744.354L115.819,742.827Z" style="stroke:black;stroke-width:0.72px;"/>
    </g>
    <g transform="matrix(1.33333,0,0,1.33333,-61.6277,-911.637)">
        <path d="M248.16,744L311.52,744" style="fill:none;fill-rule:nonzero;stroke:black;stroke-width:0.72px;"/>
    </g>
    <g transform="matrix(1.33333,0,0,1.33333,-61.6277,-919.317)">
        <path d="M248.16,746.88L311.52,746.88" style="fill:none;fill-rule:nonzero;stroke:black;stroke-width:0.72px;"/>
    </g>
    <g transform="matrix(1.2958,0.314133,0.314133,-1.2958,-284.704,947.715)">
        <path d="M303.259,747.813L311.409,747.813L304.164,744.081L305.111,746.286L303.259,747.813Z" style="stroke:black;stroke-width:0.72px;"/>
    </g>
    <g transform="matrix(-1.2958,0.314133,0.314133,1.2958,367.514,-962.912)">
        <path d="M247.819,743.067L255.969,743.067L248.724,746.799L249.671,744.594L247.819,743.067Z" style="stroke:black;stroke-width:0.72px;"/>
    </g>
    <g transform="matrix(0,1.33333,1.33333,0,-641.468,-408.597)">
        <path d="M324.96,772.8L350.88,772.8" style="fill:none;fill-rule:nonzero;stroke:black;stroke-width:0.48px;"/>
    </g>
    <g transform="matrix(-0.314133,1.2958,1.2958,0.314133,-494.648,-623.849)">
        <path d="M333.619,764.733L341.769,764.733L334.524,761.001L335.471,763.206L333.619,764.733Z" style="stroke:black;stroke-width:0.48px;"/>
    </g>
    <g transform="matrix(0,1.33333,1.33333,0,-571.708,-336.917)">
        <path d="M324.24,719.76L350.16,719.76" style="fill:none;fill-rule:nonzero;stroke:black;stroke-width:0.48px;"/>
    </g>
    <g transform="matrix(-0.314133,-1.2958,-1.2958,0.314133,1438.23,308.699)">
        <path d="M332.899,727.827L341.049,727.827L333.804,731.559L334.751,729.354L332.899,727.827Z" style="stroke:black;stroke-width:0.48px;"/>
    </g>
    <g transform="matrix(1.33333,0,0,1.33333,-61.6277,-914.197)">
        <path d="M370.08,744.96L424.32,744.96" style="fill:none;fill-rule:nonzero;stroke:black;stroke-width:0.72px;"/>
    </g>
    <g transform="matrix(1.33333,0,0,1.33333,-61.6277,-921.877)">
        <path d="M370.08,747.84L424.32,747.84" style="fill:none;fill-rule:nonzero;stroke:black;stroke-width:0.72px;"/>
    </g>
    <g transform="matrix(1.2958,0.314133,0.314133,-1.2958,-280.772,912.245)">
        <path d="M416.059,748.773L424.209,748.773L416.964,745.041L417.911,747.246L416.059,748.773Z" style="stroke:black;stroke-width:0.72px;"/>
    </g>
    <g transform="matrix(-1.2958,0.314133,0.314133,1.2958,687.757,-1003.74)">
        <path d="M369.739,744.027L377.889,744.027L370.644,747.759L371.591,745.554L369.739,744.027Z" style="stroke:black;stroke-width:0.72px;"/>
    </g>
    <g transform="matrix(1.33333,0,0,1.33333,-61.6277,-921.877)">
        <path d="M475.92,747.84L481.92,747.84" style="fill:none;fill-rule:nonzero;stroke:black;stroke-width:0.72px;"/>
    </g>
    <g transform="matrix(-1.33333,0,0,1.33333,1155.01,-921.877)">
        <path d="M450.72,747.84L461.76,747.84" style="fill:none;fill-rule:nonzero;stroke:black;stroke-width:0.72px;"/>
    </g>
    <g transform="matrix(0,1.33333,1.33333,0,-398.268,-513.557)">
        <path d="M455.52,720.96L481.44,720.96" style="fill:none;fill-rule:nonzero;stroke:black;stroke-width:0.48px;"/>
    </g>
    <g transform="matrix(-0.314133,-1.2958,-1.2958,0.314133,1656.06,476.834)">
        <path d="M464.179,729.027L472.329,729.027L465.084,732.759L466.031,730.554L464.179,729.027Z" style="stroke:black;stroke-width:0.48px;"/>
    </g>
    <g transform="matrix(0,1.33333,1.33333,0,-469.948,-583.317)">
        <path d="M454.8,774L480.72,774" style="fill:none;fill-rule:nonzero;stroke:black;stroke-width:0.48px;"/>
    </g>
    <g transform="matrix(-0.314133,1.2958,1.2958,0.314133,-282.296,-794.073)">
        <path d="M463.459,765.933L471.609,765.933L464.364,762.201L465.311,764.406L463.459,765.933Z" style="stroke:black;stroke-width:0.48px;"/>
    </g>
    <g transform="matrix(1.33333,0,0,1.33333,-61.6277,-923.797)">
        <path d="M511.2,748.56L551.04,748.56" style="fill:none;fill-rule:nonzero;stroke:black;stroke-width:0.48px;"/>
    </g>
    <g transform="matrix(0,1.33333,1.33333,0,-232.028,-566.197)">
        <path d="M480.84,678.36L620.28,678.36" style="fill:none;fill-rule:nonzero;stroke:black;stroke-width:0.48px;"/>
    </g>
    <g transform="matrix(-0.314133,1.2958,1.2958,0.314133,51.5944,-650.291)">
        <path d="M546.259,613.533L554.409,613.533L547.164,609.801L548.111,612.006L546.259,613.533Z" style="stroke:black;stroke-width:0.48px;"/>
    </g>
    <g transform="matrix(-0.410646,-1.26852,-1.26852,0.410646,1550.34,770.879)">
        <path d="M514.966,552.745L529.544,552.745" style="fill:none;fill-rule:nonzero;stroke:black;stroke-width:0.72px;"/>
    </g>
    <g transform="matrix(-1.33333,-0.00133802,-0.00133802,1.33333,1364.34,-382.389)">
        <path d="M524.5,545.8L544.43,545.8" style="fill:none;fill-rule:nonzero;stroke:black;stroke-width:0.72px;"/>
    </g>
    <g transform="matrix(0.412589,-1.26789,-1.26789,-0.412589,1142.54,1256.58)">
        <path d="M539.387,552.735L553.993,552.735" style="fill:none;fill-rule:nonzero;stroke:black;stroke-width:0.72px;"/>
    </g>
    <g transform="matrix(1.30436,-0.276467,-0.276467,-1.30436,111.554,1211.62)">
        <path d="M560.339,567.385L565.981,567.385" style="fill:none;fill-rule:nonzero;stroke:black;stroke-width:0.72px;"/>
    </g>
    <g transform="matrix(0.644564,1.16718,1.16718,-0.644564,-313.409,59.6689)">
        <path d="M541.574,538.569L555.351,538.569L554.933,541.908L541.574,538.569Z" style="stroke:black;stroke-width:0.24px;"/>
    </g>
    <g transform="matrix(-1.07885,-0.783497,-0.783497,1.07885,1656.41,148.435)">
        <path d="M530.1,555.735L533.35,555.735" style="fill:none;fill-rule:nonzero;stroke:black;stroke-width:0.72px;"/>
    </g>
    <g transform="matrix(-1.07967,-0.782367,-0.782367,1.07967,1650.8,151.317)">
        <path d="M528.897,553.6L531.453,553.6" style="fill:none;fill-rule:nonzero;stroke:black;stroke-width:0.72px;"/>
    </g>
    <g transform="matrix(-1.07863,-0.783801,-0.783801,1.07863,1645.62,156.585)">
        <path d="M527.693,551.465L529.547,551.465" style="fill:none;fill-rule:nonzero;stroke:black;stroke-width:0.72px;"/>
    </g>
    <g transform="matrix(-1.07631,-0.786979,-0.786979,1.07631,1640.72,163.463)">
        <path d="M526.489,549.33L527.641,549.33" style="fill:none;fill-rule:nonzero;stroke:black;stroke-width:0.72px;"/>
    </g>
    <g transform="matrix(-1.07705,-0.785959,-0.785959,1.07705,1635.14,166.444)">
        <path d="M525.286,547.195L525.744,547.195" style="fill:none;fill-rule:nonzero;stroke:black;stroke-width:0.72px;"/>
    </g>
    <g transform="matrix(-1.2806,0.371253,0.371253,1.2806,1088.95,-536.746)">
        <path d="M509.107,540.646L524.37,540.646L524.004,543.98L509.107,540.646Z" style="stroke:black;stroke-width:0.24px;"/>
    </g>
    <g transform="matrix(0.942809,0.942809,0.942809,-0.942809,-402.742,338.445)">
        <path d="M524.131,584.04L548.909,584.04" style="fill:none;fill-rule:nonzero;stroke:black;stroke-width:0.48px;"/>
    </g>
    <g transform="matrix(0.70315,1.13285,1.13285,-0.70315,-375.845,93.8579)">
        <path d="M538.4,579.882L546.592,579.882L539.251,576.246L540.313,578.412L538.4,579.882Z" style="stroke:black;stroke-width:0.48px;"/>
    </g>
    <g transform="matrix(0.942809,0.942809,0.942809,-0.942809,-353.13,318.832)">
        <path d="M559.643,546.48L586.117,546.48" style="fill:none;fill-rule:nonzero;stroke:black;stroke-width:0.48px;"/>
    </g>
    <g transform="matrix(-1.13285,-0.70315,-0.70315,1.13285,1725.09,108.826)">
        <path d="M563.6,551.238L571.792,551.238L564.451,554.874L565.513,552.708L563.6,551.238Z" style="stroke:black;stroke-width:0.48px;"/>
    </g>
    <g transform="matrix(1.33333,0,0,1.33333,-61.6277,-1015.32)">
        <path d="M521.76,782.88L537.12,782.88" style="fill:none;fill-rule:nonzero;stroke:black;stroke-width:0.72px;"/>
    </g>
    <g transform="matrix(1.33333,0,0,1.33333,-61.6277,-1006.36)">
        <path d="M521.76,779.52L535.46,779.52" style="fill:none;fill-rule:nonzero;stroke:black;stroke-width:0.72px;"/>
    </g>
    <g transform="matrix(0.666796,1.15463,1.15463,-0.666796,-598.313,-69.63)">
        <path d="M533.656,776.88L547.514,776.88" style="fill:none;fill-rule:nonzero;stroke:black;stroke-width:0.72px;"/>
    </g>
    <g transform="matrix(1.33333,0,0,1.33333,-61.6277,-405.397)">
        <path d="M459.84,554.16L493.92,554.16" style="fill:none;fill-rule:nonzero;stroke:black;stroke-width:0.72px;"/>
    </g>
    <g transform="matrix(-1.2958,0.314133,0.314133,1.2958,983.684,-530.293)">
        <path d="M459.499,553.227L467.649,553.227L460.404,556.959L461.351,554.754L459.499,553.227Z" style="stroke:black;stroke-width:0.72px;"/>
    </g>
    <g transform="matrix(-0.410646,-1.26852,-1.26852,0.410646,1306.29,576.72)">
        <path d="M370.486,558.985L385.064,558.985" style="fill:none;fill-rule:nonzero;stroke:black;stroke-width:0.72px;"/>
    </g>
    <g transform="matrix(-1.33333,-0.00133802,-0.00133802,1.33333,979.071,-399.222)">
        <path d="M380.02,552.04L399.95,552.04" style="fill:none;fill-rule:nonzero;stroke:black;stroke-width:0.72px;"/>
    </g>
    <g transform="matrix(0.412589,-1.26789,-1.26789,-0.412589,1017.42,1067.65)">
        <path d="M394.907,558.975L409.513,558.975" style="fill:none;fill-rule:nonzero;stroke:black;stroke-width:0.72px;"/>
    </g>
    <g transform="matrix(1.30436,-0.276467,-0.276467,-1.30436,109.093,1171.49)">
        <path d="M415.859,573.625L421.501,573.625" style="fill:none;fill-rule:nonzero;stroke:black;stroke-width:0.72px;"/>
    </g>
    <g transform="matrix(0.644564,1.16718,1.16718,-0.644564,-420.206,224.006)">
        <path d="M397.094,544.809L410.871,544.809L410.453,548.148L397.094,544.809Z" style="stroke:black;stroke-width:0.24px;"/>
    </g>
    <g transform="matrix(-1.07885,-0.783497,-0.783497,1.07885,1312.78,20.1831)">
        <path d="M385.62,561.975L388.87,561.975" style="fill:none;fill-rule:nonzero;stroke:black;stroke-width:0.72px;"/>
    </g>
    <g transform="matrix(-1.07967,-0.782367,-0.782367,1.07967,1307.05,23.2239)">
        <path d="M384.417,559.84L386.973,559.84" style="fill:none;fill-rule:nonzero;stroke:black;stroke-width:0.72px;"/>
    </g>
    <g transform="matrix(-1.07863,-0.783801,-0.783801,1.07863,1302.03,28.2905)">
        <path d="M383.213,557.705L385.067,557.705" style="fill:none;fill-rule:nonzero;stroke:black;stroke-width:0.72px;"/>
    </g>
    <g transform="matrix(-1.07631,-0.786979,-0.786979,1.07631,1297.49,34.7237)">
        <path d="M382.009,555.57L383.161,555.57" style="fill:none;fill-rule:nonzero;stroke:black;stroke-width:0.72px;"/>
    </g>
    <g transform="matrix(-1.07705,-0.785959,-0.785959,1.07705,1291.79,37.8474)">
        <path d="M380.806,553.435L381.264,553.435" style="fill:none;fill-rule:nonzero;stroke:black;stroke-width:0.72px;"/>
    </g>
    <g transform="matrix(-1.2806,0.371253,0.371253,1.2806,708.975,-499.418)">
        <path d="M364.627,546.886L379.89,546.886L379.524,550.22L364.627,546.886Z" style="stroke:black;stroke-width:0.24px;"/>
    </g>
    <g transform="matrix(0.942809,0.942809,0.942809,-0.942809,-465.048,472.225)">
        <path d="M379.651,590.28L404.429,590.28" style="fill:none;fill-rule:nonzero;stroke:black;stroke-width:0.48px;"/>
    </g>
    <g transform="matrix(0.70315,1.13285,1.13285,-0.70315,-473.963,253.6)">
        <path d="M393.92,586.122L402.112,586.122L394.771,582.486L395.833,584.652L393.92,586.122Z" style="stroke:black;stroke-width:0.48px;"/>
    </g>
    <g transform="matrix(0.942809,0.942809,0.942809,-0.942809,-415.436,452.613)">
        <path d="M415.163,552.72L441.637,552.72" style="fill:none;fill-rule:nonzero;stroke:black;stroke-width:0.48px;"/>
    </g>
    <g transform="matrix(-1.13285,-0.70315,-0.70315,1.13285,1373.17,-8.15422)">
        <path d="M419.12,557.478L427.312,557.478L419.971,561.114L421.033,558.948L419.12,557.478Z" style="stroke:black;stroke-width:0.48px;"/>
    </g>
    <g transform="matrix(1.33333,0,0,1.33333,-61.6277,-402.837)">
        <path d="M301.2,553.2L335.28,553.2" style="fill:none;fill-rule:nonzero;stroke:black;stroke-width:0.72px;"/>
    </g>
    <g transform="matrix(-1.2958,0.314133,0.314133,1.2958,566.9,-477.935)">
        <path d="M300.859,552.267L309.009,552.267L301.764,555.999L302.711,553.794L300.859,552.267Z" style="stroke:black;stroke-width:0.72px;"/>
    </g>
    <g transform="matrix(1.33333,0,0,1.33333,-61.6277,-402.837)">
        <path d="M266.88,553.2L272.88,553.2" style="fill:none;fill-rule:nonzero;stroke:black;stroke-width:0.72px;"/>
    </g>
    <g transform="matrix(-1.33333,0,0,1.33333,597.572,-402.837)">
        <path d="M241.68,553.2L252.72,553.2" style="fill:none;fill-rule:nonzero;stroke:black;stroke-width:0.72px;"/>
    </g>
    <g transform="matrix(0,1.33333,1.33333,0,-483.388,-48.9174)">
        <path d="M249.12,578.64L275.52,578.64" style="fill:none;fill-rule:nonzero;stroke:black;stroke-width:0.48px;"/>
    </g>
    <g transform="matrix(-0.314133,1.2958,1.2958,0.314133,-367.293,-205.619)">
        <path d="M258.019,570.333L266.169,570.333L258.924,566.601L259.871,568.806L258.019,570.333Z" style="stroke:black;stroke-width:0.48px;"/>
    </g>
    <g transform="matrix(0,1.33333,1.33333,0,-414.268,22.1226)">
        <path d="M246.96,526.08L276.24,526.08" style="fill:none;fill-rule:nonzero;stroke:black;stroke-width:0.48px;"/>
    </g>
    <g transform="matrix(-0.314133,-1.2958,-1.2958,0.314133,1064.88,527.05)">
        <path d="M257.299,535.827L265.449,535.827L258.204,539.559L259.151,537.354L257.299,535.827Z" style="stroke:black;stroke-width:0.48px;"/>
    </g>
    <g transform="matrix(1.33333,0,0,1.33333,-61.6277,-398.357)">
        <path d="M153.12,551.52L173.04,551.52" style="fill:none;fill-rule:nonzero;stroke:black;stroke-width:0.72px;"/>
    </g>
    <g transform="matrix(1.33333,0,0,1.33333,-61.6277,-407.317)">
        <path d="M154.78,554.88L173.04,554.88" style="fill:none;fill-rule:nonzero;stroke:black;stroke-width:0.72px;"/>
    </g>
    <g transform="matrix(0.666796,1.15463,1.15463,-0.666796,-573.852,504.956)">
        <path d="M169.576,545.52L183.434,545.52" style="fill:none;fill-rule:nonzero;stroke:black;stroke-width:0.72px;"/>
    </g>
    <g transform="matrix(-0.666796,-1.15463,-1.15463,0.666796,881.429,130.046)">
        <path d="M142.726,557.52L156.584,557.52" style="fill:none;fill-rule:nonzero;stroke:black;stroke-width:0.72px;"/>
    </g>
    <g transform="matrix(0,1.33333,1.33333,0,-310.908,96.0426)">
        <path d="M247.44,459.6L297.84,459.6" style="fill:none;fill-rule:nonzero;stroke:black;stroke-width:0.72px;"/>
    </g>
    <g transform="matrix(-0.314133,1.2958,1.2958,0.314133,-180.489,-3.10782)">
        <path d="M268.339,439.293L276.489,439.293L269.244,435.561L270.191,437.766L268.339,439.293Z" style="stroke:black;stroke-width:0.72px;"/>
    </g>
    <g transform="matrix(1.08498,0.774984,0.774984,-1.08498,-318.922,782.76)">
        <path d="M232.077,409.68L252.723,409.68" style="fill:none;fill-rule:nonzero;stroke:black;stroke-width:0.48px;"/>
    </g>
    <g transform="matrix(0.861256,1.01785,1.01785,-0.861256,-359.104,628.954)">
        <path d="M243.648,407.716L251.822,407.716L244.48,403.869L245.663,406.011L243.648,407.716Z" style="stroke:black;stroke-width:0.48px;"/>
    </g>
    <g transform="matrix(1.08498,0.774984,0.774984,-1.08498,-285.108,758.525)">
        <path d="M273.117,379.2L293.763,379.2" style="fill:none;fill-rule:nonzero;stroke:black;stroke-width:0.48px;"/>
    </g>
    <g transform="matrix(-1.23529,-0.501836,-0.501836,1.23529,846.451,230.896)">
        <path d="M275.322,380.635L283.612,380.635L276.372,384.429L277.365,381.983L275.322,380.635Z" style="stroke:black;stroke-width:0.48px;"/>
    </g>
    <g transform="matrix(1.33333,0,0,1.33333,-61.6277,230.123)">
        <path d="M156.48,315.84L171.84,315.84" style="fill:none;fill-rule:nonzero;stroke:black;stroke-width:0.72px;"/>
    </g>
    <g transform="matrix(1.33333,0,0,1.33333,-61.6277,239.083)">
        <path d="M156.48,312.48L170.18,312.48" style="fill:none;fill-rule:nonzero;stroke:black;stroke-width:0.72px;"/>
    </g>
    <g transform="matrix(0.666796,1.15463,1.15463,-0.666796,-302.53,663.431)">
        <path d="M168.376,309.84L182.234,309.84" style="fill:none;fill-rule:nonzero;stroke:black;stroke-width:0.72px;"/>
    </g>
</svg>
