<?xml version="1.0" encoding="UTF-8" standalone="no"?>
<!DOCTYPE svg PUBLIC "-//W3C//DTD SVG 1.1//EN" "http://www.w3.org/Graphics/SVG/1.1/DTD/svg11.dtd">
<svg width="100%" height="100%" viewBox="0 0 560 450" version="1.1" xmlns="http://www.w3.org/2000/svg" xmlns:xlink="http://www.w3.org/1999/xlink" xml:space="preserve" xmlns:serif="http://www.serif.com/" style="fill-rule:evenodd;clip-rule:evenodd;stroke-linecap:round;stroke-linejoin:round;stroke-miterlimit:10;">
    <g transform="matrix(1.33333,0,0,1.33333,-74.9012,-91.3174)">
        <text x="78.72px" y="115.68px" style="font-family:'ArialMT', 'Arial', sans-serif;font-size:10px;">O</text>
    </g>
    <g transform="matrix(1.33333,0,0,1.33333,-74.9012,-91.3174)">
        <text x="78.96px" y="83.52px" style="font-family:'ArialMT', 'Arial', sans-serif;font-size:10px;">O</text>
    </g>
    <g transform="matrix(1.33333,0,0,1.33333,-74.9012,-91.3174)">
        <text x="142.32px" y="109.68px" style="font-family:'ArialMT', 'Arial', sans-serif;font-size:10px;">O</text>
    </g>
    <g transform="matrix(1.33333,0,0,1.33333,-74.9012,-91.3174)">
        <text x="135.36px" y="136.8px" style="font-family:'ArialMT', 'Arial', sans-serif;font-size:10px;">CH</text>
        <text x="149.76px" y="139.44px" style="font-family:'ArialMT', 'Arial', sans-serif;font-size:8px;">3</text>
    </g>
    <g transform="matrix(1.33333,0,0,1.33333,-74.9012,-91.3174)">
        <text x="216.96px" y="90px" style="font-family:'ArialMT', 'Arial', sans-serif;font-size:10px;">O</text>
    </g>
    <g transform="matrix(1.33333,0,0,1.33333,-74.9012,-91.3174)">
        <text x="285.84px" y="109.68px" style="font-family:'ArialMT', 'Arial', sans-serif;font-size:10px;">O</text>
    </g>
    <g transform="matrix(1.33333,0,0,1.33333,-74.9012,-91.3174)">
        <text x="278.88px" y="137.04px" style="font-family:'ArialMT', 'Arial', sans-serif;font-size:10px;">CH</text>
        <text x="293.28px" y="139.68px" style="font-family:'ArialMT', 'Arial', sans-serif;font-size:8px;">3</text>
    </g>
    <g transform="matrix(1.33333,0,0,1.33333,-74.9012,-91.3174)">
        <text x="370.08px" y="89.52px" style="font-family:'ArialMT', 'Arial', sans-serif;font-size:10px;">O</text>
    </g>
    <g transform="matrix(1.33333,0,0,1.33333,-74.9012,-91.3174)">
        <text x="439.2px" y="129.36px" style="font-family:'ArialMT', 'Arial', sans-serif;font-size:10px;">CH</text>
        <text x="453.6px" y="132px" style="font-family:'ArialMT', 'Arial', sans-serif;font-size:8px;">3</text>
    </g>
    <g transform="matrix(1.33333,0,0,1.33333,-74.9012,-91.3174)">
        <text x="439.2px" y="260.4px" style="font-family:'ArialMT', 'Arial', sans-serif;font-size:10px;">CH</text>
        <text x="453.6px" y="263.04px" style="font-family:'ArialMT', 'Arial', sans-serif;font-size:8px;">3</text>
    </g>
    <g transform="matrix(1.33333,0,0,1.33333,-74.9012,-91.3174)">
        <text x="370.08px" y="220.56px" style="font-family:'ArialMT', 'Arial', sans-serif;font-size:10px;">O</text>
        <text x="353.04px" y="230.4px" style="font-family:'ArialMT', 'Arial', sans-serif;font-size:10px;">H</text>
    </g>
    <g transform="matrix(1.33333,0,0,1.33333,-74.9012,-91.3174)">
        <text x="270px" y="261.36px" style="font-family:'ArialMT', 'Arial', sans-serif;font-size:10px;">CH</text>
        <text x="284.4px" y="264px" style="font-family:'ArialMT', 'Arial', sans-serif;font-size:8px;">3</text>
    </g>
    <g transform="matrix(1.33333,0,0,1.33333,-74.9012,-91.3174)">
        <text x="200.88px" y="221.52px" style="font-family:'ArialMT', 'Arial', sans-serif;font-size:10px;">O</text>
        <text x="183.84px" y="231.36px" style="font-family:'ArialMT', 'Arial', sans-serif;font-size:10px;">C</text>
    </g>
    <g transform="matrix(1.33333,0,0,1.33333,-74.9012,-91.3174)">
        <text x="172.32px" y="231.36px" style="font-family:'ArialMT', 'Arial', sans-serif;font-size:10px;">H</text>
        <text x="179.52px" y="234px" style="font-family:'ArialMT', 'Arial', sans-serif;font-size:8px;">3</text>
    </g>
    <g transform="matrix(1.33333,0,0,1.33333,-74.9012,-91.3174)">
        <text x="268.8px" y="396px" style="font-family:'ArialMT', 'Arial', sans-serif;font-size:10px;">CH</text>
        <text x="283.2px" y="398.64px" style="font-family:'ArialMT', 'Arial', sans-serif;font-size:8px;">3</text>
    </g>
    <g transform="matrix(1.33333,0,0,1.33333,-74.9012,-91.3174)">
        <text x="199.68px" y="356.16px" style="font-family:'ArialMT', 'Arial', sans-serif;font-size:10px;">O</text>
        <text x="182.64px" y="366px" style="font-family:'ArialMT', 'Arial', sans-serif;font-size:10px;">C</text>
    </g>
    <g transform="matrix(1.33333,0,0,1.33333,-74.9012,-91.3174)">
        <text x="171.12px" y="366px" style="font-family:'ArialMT', 'Arial', sans-serif;font-size:10px;">H</text>
        <text x="178.32px" y="368.64px" style="font-family:'ArialMT', 'Arial', sans-serif;font-size:8px;">3</text>
    </g>
    <g transform="matrix(0.790192,-1.07395,-1.07395,-0.790192,769.859,726.093)">
        <path d="M83.754,740.81L97.286,740.81" style="fill:none;fill-rule:nonzero;stroke:black;stroke-width:0.72px;"/>
    </g>
    <g transform="matrix(0.777324,1.0833,1.0833,-0.777324,-838.875,515.121)">
        <path d="M83.873,751.73L97.337,751.73" style="fill:none;fill-rule:nonzero;stroke:black;stroke-width:0.72px;"/>
    </g>
    <g transform="matrix(1.26536,0.420275,0.420275,-1.26536,-378.645,951.59)">
        <path d="M63.446,734.175L78.134,734.175" style="fill:none;fill-rule:nonzero;stroke:black;stroke-width:0.72px;"/>
    </g>
    <g transform="matrix(1.27075,-0.403712,-0.403712,-1.27075,235.815,1012.41)">
        <path d="M63.584,758.645L78.346,758.645" style="fill:none;fill-rule:nonzero;stroke:black;stroke-width:0.72px;"/>
    </g>
    <g transform="matrix(-0.00736267,1.33331,1.33331,0.00736267,-984.516,-54.6853)">
        <path d="M53.915,746.45L73.835,746.45" style="fill:none;fill-rule:nonzero;stroke:black;stroke-width:0.72px;"/>
    </g>
    <g transform="matrix(1.15468,0.666702,0.666702,-1.15468,-554.244,816.757)">
        <path d="M110.446,751.24L130.364,751.24" style="fill:none;fill-rule:nonzero;stroke:black;stroke-width:0.72px;"/>
    </g>
    <g transform="matrix(1.15468,-0.666702,-0.666702,-1.15468,427.542,982.644)">
        <path d="M110.446,721.36L130.364,721.36" style="fill:none;fill-rule:nonzero;stroke:black;stroke-width:0.72px;"/>
    </g>
    <g transform="matrix(1.15468,-0.666702,-0.666702,-1.15468,444.381,965.805)">
        <path d="M93.196,751.24L113.114,751.24" style="fill:none;fill-rule:nonzero;stroke:black;stroke-width:0.72px;"/>
    </g>
    <g transform="matrix(1.15468,0.666702,0.666702,-1.15468,-537.405,833.596)">
        <path d="M93.196,721.36L113.114,721.36" style="fill:none;fill-rule:nonzero;stroke:black;stroke-width:0.72px;"/>
    </g>
    <g transform="matrix(0,-1.33333,-1.33333,0,1032.87,175.549)">
        <path d="M84.57,736.3L104.49,736.3" style="fill:none;fill-rule:nonzero;stroke:black;stroke-width:0.72px;"/>
    </g>
    <g transform="matrix(-1.15465,-0.666756,-0.666756,1.15465,756.661,-726.44)">
        <path d="M128.076,742.7L142.314,742.7" style="fill:none;fill-rule:nonzero;stroke:black;stroke-width:0.72px;"/>
    </g>
    <g transform="matrix(0,-1.33333,-1.33333,0,1078.87,221.549)">
        <path d="M119.07,736.3L138.99,736.3" style="fill:none;fill-rule:nonzero;stroke:black;stroke-width:0.72px;"/>
    </g>
    <g transform="matrix(1.15465,-0.666756,-0.666756,-1.15465,435.921,990.963)">
        <path d="M128.076,729.9L142.314,729.9" style="fill:none;fill-rule:nonzero;stroke:black;stroke-width:0.72px;"/>
    </g>
    <g transform="matrix(0.666957,1.15453,1.15453,-0.666957,-818.188,398.254)">
        <path d="M125.538,720.29L139.512,720.29" style="fill:none;fill-rule:nonzero;stroke:black;stroke-width:0.72px;"/>
    </g>
    <g transform="matrix(1.33333,0,0,1.33333,-74.9012,-954.037)">
        <path d="M170.64,744.48L204.72,744.48" style="fill:none;fill-rule:nonzero;stroke:black;stroke-width:0.72px;"/>
    </g>
    <g transform="matrix(1.33333,0,0,1.33333,-74.9012,-961.717)">
        <path d="M170.64,747.36L204.72,747.36" style="fill:none;fill-rule:nonzero;stroke:black;stroke-width:0.72px;"/>
    </g>
    <g transform="matrix(1.33333,0,0,1.33333,-74.9012,-957.877)">
        <path d="M200.16,742.32L208.08,745.92L200.16,749.52" style="fill:none;fill-rule:nonzero;stroke:black;stroke-width:0.72px;"/>
    </g>
    <g transform="matrix(1.15468,0.666702,0.666702,-1.15468,-528.446,721.071)">
        <path d="M254.026,751.02L273.944,751.02" style="fill:none;fill-rule:nonzero;stroke:black;stroke-width:0.72px;"/>
    </g>
    <g transform="matrix(1.15468,-0.666702,-0.666702,-1.15468,453.046,1078.41)">
        <path d="M254.026,721.14L273.944,721.14" style="fill:none;fill-rule:nonzero;stroke:black;stroke-width:0.72px;"/>
    </g>
    <g transform="matrix(1.15468,-0.666702,-0.666702,-1.15468,469.885,1061.57)">
        <path d="M236.776,751.02L256.694,751.02" style="fill:none;fill-rule:nonzero;stroke:black;stroke-width:0.72px;"/>
    </g>
    <g transform="matrix(1.15468,0.666702,0.666702,-1.15468,-511.607,737.91)">
        <path d="M236.776,721.14L256.694,721.14" style="fill:none;fill-rule:nonzero;stroke:black;stroke-width:0.72px;"/>
    </g>
    <g transform="matrix(0,-1.33333,-1.33333,0,1224.02,367.283)">
        <path d="M228.15,736.08L248.07,736.08" style="fill:none;fill-rule:nonzero;stroke:black;stroke-width:0.72px;"/>
    </g>
    <g transform="matrix(-1.15466,-0.666729,-0.666729,1.15466,1004.19,-682.984)">
        <path d="M224.826,751.275L239.964,751.275" style="fill:none;fill-rule:nonzero;stroke:black;stroke-width:0.72px;"/>
    </g>
    <g transform="matrix(-1.1551,-0.665976,-0.665976,1.1551,999.381,-675.609)">
        <path d="M224.958,747.885L238.152,747.885" style="fill:none;fill-rule:nonzero;stroke:black;stroke-width:0.72px;"/>
    </g>
    <g transform="matrix(-1.15487,-0.666378,-0.666378,1.15487,1113.46,-630.497)">
        <path d="M271.662,742.5L285.828,742.5" style="fill:none;fill-rule:nonzero;stroke:black;stroke-width:0.72px;"/>
    </g>
    <g transform="matrix(0,-1.33333,-1.33333,0,1270.02,413.283)">
        <path d="M262.65,736.08L282.57,736.08" style="fill:none;fill-rule:nonzero;stroke:black;stroke-width:0.72px;"/>
    </g>
    <g transform="matrix(1.15487,-0.666378,-0.666378,-1.15487,461.075,1086.77)">
        <path d="M271.662,729.66L285.828,729.66" style="fill:none;fill-rule:nonzero;stroke:black;stroke-width:0.72px;"/>
    </g>
    <g transform="matrix(0.666846,1.1546,1.1546,-0.666846,-722.256,232.536)">
        <path d="M269.112,720.06L283.108,720.06" style="fill:none;fill-rule:nonzero;stroke:black;stroke-width:0.72px;"/>
    </g>
    <g transform="matrix(1.33333,0,0,1.33333,-74.9012,-952.117)">
        <path d="M318,743.76L352.08,743.76" style="fill:none;fill-rule:nonzero;stroke:black;stroke-width:0.72px;"/>
    </g>
    <g transform="matrix(1.33333,0,0,1.33333,-74.9012,-959.797)">
        <path d="M318,746.64L352.08,746.64" style="fill:none;fill-rule:nonzero;stroke:black;stroke-width:0.72px;"/>
    </g>
    <g transform="matrix(1.33333,0,0,1.33333,-74.9012,-955.957)">
        <path d="M347.52,741.6L355.44,745.2L347.52,748.8" style="fill:none;fill-rule:nonzero;stroke:black;stroke-width:0.72px;"/>
    </g>
    <g transform="matrix(0,-1.33333,-1.33333,0,1474.82,616.803)">
        <path d="M415.77,736.56L435.69,736.56" style="fill:none;fill-rule:nonzero;stroke:black;stroke-width:0.72px;"/>
    </g>
    <g transform="matrix(0,-1.33333,-1.33333,0,1470.34,612.323)">
        <path d="M414.07,736.56L430.67,736.56" style="fill:none;fill-rule:nonzero;stroke:black;stroke-width:0.72px;"/>
    </g>
    <g transform="matrix(1.15468,0.666702,0.666702,-1.15468,-501.411,618.9)">
        <path d="M407.146,751.5L427.064,751.5" style="fill:none;fill-rule:nonzero;stroke:black;stroke-width:0.72px;"/>
    </g>
    <g transform="matrix(1.15468,-0.666702,-0.666702,-1.15468,480.722,1180.41)">
        <path d="M407.146,721.62L427.064,721.62" style="fill:none;fill-rule:nonzero;stroke:black;stroke-width:0.72px;"/>
    </g>
    <g transform="matrix(1.15468,-0.666702,-0.666702,-1.15468,497.561,1163.57)">
        <path d="M389.896,751.5L409.814,751.5" style="fill:none;fill-rule:nonzero;stroke:black;stroke-width:0.72px;"/>
    </g>
    <g transform="matrix(1.15468,0.666702,0.666702,-1.15468,-484.571,635.739)">
        <path d="M389.896,721.62L409.814,721.62" style="fill:none;fill-rule:nonzero;stroke:black;stroke-width:0.72px;"/>
    </g>
    <g transform="matrix(0,-1.33333,-1.33333,0,1428.82,570.803)">
        <path d="M381.27,736.56L401.19,736.56" style="fill:none;fill-rule:nonzero;stroke:black;stroke-width:0.72px;"/>
    </g>
    <g transform="matrix(-1.15466,-0.666729,-0.666729,1.15466,1385.48,-582.088)">
        <path d="M377.946,751.755L393.084,751.755" style="fill:none;fill-rule:nonzero;stroke:black;stroke-width:0.72px;"/>
    </g>
    <g transform="matrix(-1.1551,-0.665976,-0.665976,1.1551,1380.73,-574.829)">
        <path d="M378.078,748.365L391.272,748.365" style="fill:none;fill-rule:nonzero;stroke:black;stroke-width:0.72px;"/>
    </g>
    <g transform="matrix(1.15481,0.666483,0.666483,-1.15481,-479.641,614.259)">
        <path d="M424.763,722.99L439.207,722.99" style="fill:none;fill-rule:nonzero;stroke:black;stroke-width:0.72px;"/>
    </g>
    <g transform="matrix(0,1.33333,1.33333,0,-426.101,-411.797)">
        <path d="M392.52,672.84L426.36,672.84" style="fill:none;fill-rule:nonzero;stroke:black;stroke-width:0.72px;"/>
    </g>
    <g transform="matrix(-0.314133,1.2958,1.2958,0.314133,-255.435,-586.44)">
        <path d="M405.139,660.813L413.289,660.813L406.044,657.081L406.991,659.286L405.139,660.813Z" style="stroke:black;stroke-width:0.72px;"/>
    </g>
    <g transform="matrix(-0.314133,-1.2958,-1.2958,0.314133,1488.3,431.962)">
        <path d="M405.139,684.867L413.289,684.867L406.044,688.599L406.991,686.394L405.139,684.867Z" style="stroke:black;stroke-width:0.72px;"/>
    </g>
    <g transform="matrix(0,-1.33333,-1.33333,0,1300.1,791.523)">
        <path d="M415.77,605.52L435.69,605.52" style="fill:none;fill-rule:nonzero;stroke:black;stroke-width:0.72px;"/>
    </g>
    <g transform="matrix(0,-1.33333,-1.33333,0,1295.62,787.043)">
        <path d="M414.07,605.52L430.67,605.52" style="fill:none;fill-rule:nonzero;stroke:black;stroke-width:0.72px;"/>
    </g>
    <g transform="matrix(1.15468,0.666702,0.666702,-1.15468,-414.046,642.311)">
        <path d="M407.146,620.46L427.064,620.46" style="fill:none;fill-rule:nonzero;stroke:black;stroke-width:0.72px;"/>
    </g>
    <g transform="matrix(1.15468,-0.666702,-0.666702,-1.15468,393.357,1203.82)">
        <path d="M407.146,590.58L427.064,590.58" style="fill:none;fill-rule:nonzero;stroke:black;stroke-width:0.72px;"/>
    </g>
    <g transform="matrix(1.15468,-0.666702,-0.666702,-1.15468,410.196,1186.98)">
        <path d="M389.896,620.46L409.814,620.46" style="fill:none;fill-rule:nonzero;stroke:black;stroke-width:0.72px;"/>
    </g>
    <g transform="matrix(1.15468,0.666702,0.666702,-1.15468,-397.207,659.149)">
        <path d="M389.896,590.58L409.814,590.58" style="fill:none;fill-rule:nonzero;stroke:black;stroke-width:0.72px;"/>
    </g>
    <g transform="matrix(0,-1.33333,-1.33333,0,1254.1,745.523)">
        <path d="M381.27,605.52L401.19,605.52" style="fill:none;fill-rule:nonzero;stroke:black;stroke-width:0.72px;"/>
    </g>
    <g transform="matrix(0,-1.33333,-1.33333,0,1258.58,750.003)">
        <path d="M386.29,605.52L402.89,605.52" style="fill:none;fill-rule:nonzero;stroke:black;stroke-width:0.72px;"/>
    </g>
    <g transform="matrix(1.15481,0.666483,0.666483,-1.15481,-392.305,637.653)">
        <path d="M424.763,591.95L439.207,591.95" style="fill:none;fill-rule:nonzero;stroke:black;stroke-width:0.72px;"/>
    </g>
    <g transform="matrix(-1.15487,-0.666378,-0.666378,1.15487,1295.79,-252.384)">
        <path d="M378.012,619.02L392.178,619.02" style="fill:none;fill-rule:nonzero;stroke:black;stroke-width:0.72px;"/>
    </g>
    <g transform="matrix(-1.15423,0.667474,0.667474,1.15423,419.392,-755.655)">
        <path d="M360.586,620.35L369.734,620.35" style="fill:none;fill-rule:nonzero;stroke:black;stroke-width:0.72px;"/>
    </g>
    <g transform="matrix(1.33333,0,0,1.33333,-74.9012,-575.157)">
        <path d="M299.76,602.4L333.84,602.4" style="fill:none;fill-rule:nonzero;stroke:black;stroke-width:0.72px;"/>
    </g>
    <g transform="matrix(1.33333,0,0,1.33333,-74.9012,-582.837)">
        <path d="M299.76,605.28L333.84,605.28" style="fill:none;fill-rule:nonzero;stroke:black;stroke-width:0.72px;"/>
    </g>
    <g transform="matrix(1.33333,0,0,1.33333,-74.9012,-578.997)">
        <path d="M304.32,600.24L296.4,603.84L304.32,607.44" style="fill:none;fill-rule:nonzero;stroke:black;stroke-width:0.72px;"/>
    </g>
    <g transform="matrix(0,-1.33333,-1.33333,0,1073.22,567.203)">
        <path d="M246.57,604.56L266.49,604.56" style="fill:none;fill-rule:nonzero;stroke:black;stroke-width:0.72px;"/>
    </g>
    <g transform="matrix(0,-1.33333,-1.33333,0,1068.74,562.723)">
        <path d="M244.87,604.56L261.47,604.56" style="fill:none;fill-rule:nonzero;stroke:black;stroke-width:0.72px;"/>
    </g>
    <g transform="matrix(1.15468,0.666702,0.666702,-1.15468,-443.634,755.288)">
        <path d="M237.946,619.5L257.864,619.5" style="fill:none;fill-rule:nonzero;stroke:black;stroke-width:0.72px;"/>
    </g>
    <g transform="matrix(1.15468,-0.666702,-0.666702,-1.15468,362.489,1091.18)">
        <path d="M237.946,589.62L257.864,589.62" style="fill:none;fill-rule:nonzero;stroke:black;stroke-width:0.72px;"/>
    </g>
    <g transform="matrix(1.15468,-0.666702,-0.666702,-1.15468,379.328,1074.35)">
        <path d="M220.696,619.5L240.614,619.5" style="fill:none;fill-rule:nonzero;stroke:black;stroke-width:0.72px;"/>
    </g>
    <g transform="matrix(1.15468,0.666702,0.666702,-1.15468,-426.795,772.127)">
        <path d="M220.696,589.62L240.614,589.62" style="fill:none;fill-rule:nonzero;stroke:black;stroke-width:0.72px;"/>
    </g>
    <g transform="matrix(0,-1.33333,-1.33333,0,1027.22,521.203)">
        <path d="M212.07,604.56L231.99,604.56" style="fill:none;fill-rule:nonzero;stroke:black;stroke-width:0.72px;"/>
    </g>
    <g transform="matrix(0,-1.33333,-1.33333,0,1031.7,525.683)">
        <path d="M217.09,604.56L233.69,604.56" style="fill:none;fill-rule:nonzero;stroke:black;stroke-width:0.72px;"/>
    </g>
    <g transform="matrix(1.15481,0.666483,0.666483,-1.15481,-421.872,750.593)">
        <path d="M255.563,590.99L270.007,590.99" style="fill:none;fill-rule:nonzero;stroke:black;stroke-width:0.72px;"/>
    </g>
    <g transform="matrix(-1.15487,-0.666378,-0.666378,1.15487,874.15,-362.747)">
        <path d="M208.812,618.06L222.978,618.06" style="fill:none;fill-rule:nonzero;stroke:black;stroke-width:0.72px;"/>
    </g>
    <g transform="matrix(-1.15423,0.667474,0.667474,1.15423,-0.864118,-640.33)">
        <path d="M191.386,619.39L200.534,619.39" style="fill:none;fill-rule:nonzero;stroke:black;stroke-width:0.72px;"/>
    </g>
    <g transform="matrix(0,1.33333,1.33333,0,-482.741,-9.55737)">
        <path d="M218.76,543.24L255.96,543.24" style="fill:none;fill-rule:nonzero;stroke:black;stroke-width:0.72px;"/>
    </g>
    <g transform="matrix(0,1.33333,1.33333,0,-478.901,-13.3974)">
        <path d="M221.64,543.24L258.84,543.24" style="fill:none;fill-rule:nonzero;stroke:black;stroke-width:0.72px;"/>
    </g>
    <g transform="matrix(1.33333,0,0,1.33333,-74.9012,-369.397)">
        <path d="M242.4,521.28L238.8,529.2L235.2,521.28" style="fill:none;fill-rule:nonzero;stroke:black;stroke-width:0.72px;"/>
    </g>
    <g transform="matrix(0,-1.33333,-1.33333,0,892.099,745.123)">
        <path d="M245.37,469.92L265.29,469.92" style="fill:none;fill-rule:nonzero;stroke:black;stroke-width:0.72px;"/>
    </g>
    <g transform="matrix(0,-1.33333,-1.33333,0,887.619,740.643)">
        <path d="M243.67,469.92L260.27,469.92" style="fill:none;fill-rule:nonzero;stroke:black;stroke-width:0.72px;"/>
    </g>
    <g transform="matrix(1.15468,0.666702,0.666702,-1.15468,-354.084,780.142)">
        <path d="M236.746,484.86L256.664,484.86" style="fill:none;fill-rule:nonzero;stroke:black;stroke-width:0.72px;"/>
    </g>
    <g transform="matrix(1.15468,-0.666702,-0.666702,-1.15468,272.51,1114.44)">
        <path d="M236.746,454.98L256.664,454.98" style="fill:none;fill-rule:nonzero;stroke:black;stroke-width:0.72px;"/>
    </g>
    <g transform="matrix(1.15468,-0.666702,-0.666702,-1.15468,289.349,1097.6)">
        <path d="M219.496,484.86L239.414,484.86" style="fill:none;fill-rule:nonzero;stroke:black;stroke-width:0.72px;"/>
    </g>
    <g transform="matrix(1.15458,-0.666876,-0.666876,-1.15458,287.816,1099.23)">
        <path d="M222.838,481.95L239.432,481.95" style="fill:none;fill-rule:nonzero;stroke:black;stroke-width:0.72px;"/>
    </g>
    <g transform="matrix(1.15468,0.666702,0.666702,-1.15468,-337.245,796.981)">
        <path d="M219.496,454.98L239.414,454.98" style="fill:none;fill-rule:nonzero;stroke:black;stroke-width:0.72px;"/>
    </g>
    <g transform="matrix(1.15458,0.666876,0.666876,-1.15458,-338.941,795.255)">
        <path d="M222.838,457.89L239.432,457.89" style="fill:none;fill-rule:nonzero;stroke:black;stroke-width:0.72px;"/>
    </g>
    <g transform="matrix(0,-1.33333,-1.33333,0,846.099,699.123)">
        <path d="M210.87,469.92L230.79,469.92" style="fill:none;fill-rule:nonzero;stroke:black;stroke-width:0.72px;"/>
    </g>
    <g transform="matrix(1.15481,0.666483,0.666483,-1.15481,-332.351,775.43)">
        <path d="M254.363,456.35L268.807,456.35" style="fill:none;fill-rule:nonzero;stroke:black;stroke-width:0.72px;"/>
    </g>
    <g transform="matrix(-1.15487,-0.666378,-0.666378,1.15487,781.443,-28.5352)">
        <path d="M207.612,483.42L221.778,483.42" style="fill:none;fill-rule:nonzero;stroke:black;stroke-width:0.72px;"/>
    </g>
    <g transform="matrix(-1.15423,0.667474,0.667474,1.15423,86.0195,-304.603)">
        <path d="M190.186,484.75L199.334,484.75" style="fill:none;fill-rule:nonzero;stroke:black;stroke-width:0.72px;"/>
    </g>
</svg>
