<?xml version="1.0" encoding="UTF-8" standalone="no"?>
<!DOCTYPE svg PUBLIC "-//W3C//DTD SVG 1.1//EN" "http://www.w3.org/Graphics/SVG/1.1/DTD/svg11.dtd">
<svg width="100%" height="100%" viewBox="0 0 690 320" version="1.1" xmlns="http://www.w3.org/2000/svg" xmlns:xlink="http://www.w3.org/1999/xlink" xml:space="preserve" xmlns:serif="http://www.serif.com/" style="fill-rule:evenodd;clip-rule:evenodd;stroke-linecap:round;stroke-linejoin:round;stroke-miterlimit:10;">
    <g transform="matrix(1.33333,0,0,1.33333,-63.2055,-117.437)">
        <text x="155.76px" y="131.76px" style="font-family:'ArialMT', 'Arial', sans-serif;font-size:10px;">O</text>
    </g>
    <g transform="matrix(1.33333,0,0,1.33333,-63.2055,-117.437)">
        <text x="173.04px" y="101.76px" style="font-family:'ArialMT', 'Arial', sans-serif;font-size:10px;">O</text>
        <text x="190.56px" y="111.84px" style="font-family:'ArialMT', 'Arial', sans-serif;font-size:10px;">H</text>
    </g>
    <g transform="matrix(1.33333,0,0,1.33333,-63.2055,-117.437)">
        <text x="377.52px" y="131.52px" style="font-family:'ArialMT', 'Arial', sans-serif;font-size:10px;">O</text>
    </g>
    <g transform="matrix(1.33333,0,0,1.33333,-63.2055,-117.437)">
        <text x="395.04px" y="101.52px" style="font-family:'ArialMT', 'Arial', sans-serif;font-size:10px;">Cl</text>
    </g>
    <g transform="matrix(1.33333,0,0,1.33333,-63.2055,-117.437)">
        <text x="537.84px" y="156.24px" style="font-family:'ArialMT', 'Arial', sans-serif;font-size:10px;">O</text>
    </g>
    <g transform="matrix(1.33333,0,0,1.33333,-63.2055,-117.437)">
        <text x="432px" y="114.48px" style="font-family:'ArialMT', 'Arial', sans-serif;font-size:10px;">A</text>
        <text x="438.72px" y="114.48px" style="font-family:'ArialMT', 'Arial', sans-serif;font-size:10px;">l</text>
        <text x="441.12px" y="114.48px" style="font-family:'ArialMT', 'Arial', sans-serif;font-size:10px;">C</text>
        <text x="448.32px" y="114.48px" style="font-family:'ArialMT', 'Arial', sans-serif;font-size:10px;">l</text>
        <text x="450.72px" y="117.12px" style="font-family:'ArialMT', 'Arial', sans-serif;font-size:6px;">3</text>
    </g>
    <g transform="matrix(1.33333,0,0,1.33333,-63.2055,-117.437)">
        <text x="477.6px" y="215.28px" style="font-family:'ArialMT', 'Arial', sans-serif;font-size:10px;">Z</text>
        <text x="483.84px" y="215.28px" style="font-family:'ArialMT', 'Arial', sans-serif;font-size:10px;">n</text>
        <text x="492.198px" y="215.28px" style="font-family:'ArialMT', 'Arial', sans-serif;font-size:10px;">/</text>
        <text x="498.065px" y="215.28px" style="font-family:'ArialMT', 'Arial', sans-serif;font-size:10px;">Hg</text>
        <text x="522.96px" y="215.04px" style="font-family:'ArialMT', 'Arial', sans-serif;font-size:10px;">HCl</text>
    </g>
    <g transform="matrix(1.33333,0,0,1.33333,-63.2055,-117.437)">
        <text x="426px" y="283.44px" style="font-family:'ArialMT', 'Arial', sans-serif;font-size:10px;">Na</text>
        <text x="423.36px" y="306px" style="font-family:'ArialMT', 'Arial', sans-serif;font-size:10px;">NH</text>
        <text x="437.76px" y="308.64px" style="font-family:'ArialMT', 'Arial', sans-serif;font-size:6px;">3</text>
        <text x="421.2px" y="319.68px" style="font-family:'ArialMT', 'Arial', sans-serif;font-size:10px;">R</text>
        <text x="428.4px" y="319.68px" style="font-family:'ArialMT', 'Arial', sans-serif;font-size:10px;">O<tspan x="436.32px " y="319.68px ">H</tspan></text>
    </g>
    <g transform="matrix(1.33333,0,0,1.33333,-63.2055,-117.437)">
        <text x="247.68px" y="211.44px" style="font-family:'ArialMT', 'Arial', sans-serif;font-size:10px;">O</text>
    </g>
    <g transform="matrix(1.33333,0,0,1.33333,-63.2055,-117.437)">
        <text x="213.36px" y="211.44px" style="font-family:'ArialMT', 'Arial', sans-serif;font-size:10px;">O</text>
    </g>
    <g transform="matrix(1.33333,0,0,1.33333,-63.2055,-117.437)">
        <text x="264.96px" y="221.28px" style="font-family:'ArialMT', 'Arial', sans-serif;font-size:10px;">O</text>
    </g>
    <g transform="matrix(1.33333,0,0,1.33333,-63.2055,-117.437)">
        <text x="282.48px" y="211.44px" style="font-family:'ArialMT', 'Arial', sans-serif;font-size:10px;">H</text>
    </g>
    <g transform="matrix(1.33333,0,0,1.33333,-63.2055,-117.437)">
        <text x="265.2px" y="281.28px" style="font-family:'ArialMT', 'Arial', sans-serif;font-size:10px;">CH</text>
        <text x="279.6px" y="283.92px" style="font-family:'ArialMT', 'Arial', sans-serif;font-size:8px;">3</text>
    </g>
    <g transform="matrix(1.33333,0,0,1.33333,-63.2055,-117.437)">
        <text x="168.24px" y="294.24px" style="font-family:'ArialMT', 'Arial', sans-serif;font-size:10px;">T<tspan x="174.48px " y="294.24px ">M</tspan></text>
    </g>
    <g transform="matrix(0,-1.33333,-1.33333,0,1023.15,160.603)">
        <path d="M80.73,724.08L100.65,724.08" style="fill:none;fill-rule:nonzero;stroke:black;stroke-width:0.72px;"/>
    </g>
    <g transform="matrix(0,-1.33333,-1.33333,0,1018.67,156.123)">
        <path d="M79.03,724.08L95.63,724.08" style="fill:none;fill-rule:nonzero;stroke:black;stroke-width:0.72px;"/>
    </g>
    <g transform="matrix(1.15468,0.666702,0.666702,-1.15468,-541.251,818.381)">
        <path d="M72.106,739.02L92.024,739.02" style="fill:none;fill-rule:nonzero;stroke:black;stroke-width:0.72px;"/>
    </g>
    <g transform="matrix(1.15468,-0.666702,-0.666702,-1.15468,424.241,933.145)">
        <path d="M72.106,709.14L92.024,709.14" style="fill:none;fill-rule:nonzero;stroke:black;stroke-width:0.72px;"/>
    </g>
    <g transform="matrix(1.15468,-0.666702,-0.666702,-1.15468,441.08,916.307)">
        <path d="M54.856,739.02L74.774,739.02" style="fill:none;fill-rule:nonzero;stroke:black;stroke-width:0.72px;"/>
    </g>
    <g transform="matrix(1.15458,-0.666876,-0.666876,-1.15458,439.575,917.884)">
        <path d="M58.198,736.11L74.792,736.11" style="fill:none;fill-rule:nonzero;stroke:black;stroke-width:0.72px;"/>
    </g>
    <g transform="matrix(1.15468,0.666702,0.666702,-1.15468,-524.411,835.22)">
        <path d="M54.856,709.14L74.774,709.14" style="fill:none;fill-rule:nonzero;stroke:black;stroke-width:0.72px;"/>
    </g>
    <g transform="matrix(1.15458,0.666876,0.666876,-1.15458,-526.168,833.497)">
        <path d="M58.198,712.05L74.792,712.05" style="fill:none;fill-rule:nonzero;stroke:black;stroke-width:0.72px;"/>
    </g>
    <g transform="matrix(0,-1.33333,-1.33333,0,977.154,114.603)">
        <path d="M46.23,724.08L66.15,724.08" style="fill:none;fill-rule:nonzero;stroke:black;stroke-width:0.72px;"/>
    </g>
    <g transform="matrix(1.15468,-0.666702,-0.666702,-1.15468,447.244,939.308)">
        <path d="M89.356,739.02L109.274,739.02" style="fill:none;fill-rule:nonzero;stroke:black;stroke-width:0.72px;"/>
    </g>
    <g transform="matrix(1.15468,0.666702,0.666702,-1.15468,-535.087,795.38)">
        <path d="M106.606,739.02L126.524,739.02" style="fill:none;fill-rule:nonzero;stroke:black;stroke-width:0.72px;"/>
    </g>
    <g transform="matrix(1.15485,-0.666412,-0.666412,-1.15485,453.172,962.397)">
        <path d="M123.856,739.02L143.784,739.02" style="fill:none;fill-rule:nonzero;stroke:black;stroke-width:0.72px;"/>
    </g>
    <g transform="matrix(1.15468,0.666702,0.666702,-1.15468,-528.922,772.372)">
        <path d="M141.116,739.02L161.034,739.02" style="fill:none;fill-rule:nonzero;stroke:black;stroke-width:0.72px;"/>
    </g>
    <g transform="matrix(0,1.33333,1.33333,0,-821.392,-174.451)">
        <path d="M150.64,726.66L165.4,726.66" style="fill:none;fill-rule:nonzero;stroke:black;stroke-width:0.72px;"/>
    </g>
    <g transform="matrix(0,1.33333,1.33333,0,-816.912,-178.931)">
        <path d="M154,726.66L168.76,726.66" style="fill:none;fill-rule:nonzero;stroke:black;stroke-width:0.72px;"/>
    </g>
    <g transform="matrix(1.1546,-0.666835,-0.666835,-1.1546,458.311,983.91)">
        <path d="M158.742,737.615L173.038,737.615" style="fill:none;fill-rule:nonzero;stroke:black;stroke-width:0.72px;"/>
    </g>
    <g transform="matrix(1.15496,0.66621,0.66621,-1.15496,-522.344,749.568)">
        <path d="M181.327,738.915L190.193,738.915" style="fill:none;fill-rule:nonzero;stroke:black;stroke-width:0.72px;"/>
    </g>
    <g transform="matrix(1.33333,0,0,1.33333,-63.2055,-921.277)">
        <path d="M222,722.4L256.08,722.4" style="fill:none;fill-rule:nonzero;stroke:black;stroke-width:0.72px;"/>
    </g>
    <g transform="matrix(1.33333,0,0,1.33333,-63.2055,-928.957)">
        <path d="M222,725.28L256.08,725.28" style="fill:none;fill-rule:nonzero;stroke:black;stroke-width:0.72px;"/>
    </g>
    <g transform="matrix(1.33333,0,0,1.33333,-63.2055,-925.117)">
        <path d="M251.52,720.24L259.44,723.84L251.52,727.44" style="fill:none;fill-rule:nonzero;stroke:black;stroke-width:0.72px;"/>
    </g>
    <g transform="matrix(0,-1.33333,-1.33333,0,1319.15,455.963)">
        <path d="M302.49,724.32L322.41,724.32" style="fill:none;fill-rule:nonzero;stroke:black;stroke-width:0.72px;"/>
    </g>
    <g transform="matrix(0,-1.33333,-1.33333,0,1314.67,451.483)">
        <path d="M300.79,724.32L317.39,724.32" style="fill:none;fill-rule:nonzero;stroke:black;stroke-width:0.72px;"/>
    </g>
    <g transform="matrix(1.15468,0.666702,0.666702,-1.15468,-501.792,670.491)">
        <path d="M293.866,739.26L313.784,739.26" style="fill:none;fill-rule:nonzero;stroke:black;stroke-width:0.72px;"/>
    </g>
    <g transform="matrix(1.15468,-0.666702,-0.666702,-1.15468,464.019,1080.95)">
        <path d="M293.866,709.38L313.784,709.38" style="fill:none;fill-rule:nonzero;stroke:black;stroke-width:0.72px;"/>
    </g>
    <g transform="matrix(1.15468,-0.666702,-0.666702,-1.15468,480.858,1064.11)">
        <path d="M276.616,739.26L296.534,739.26" style="fill:none;fill-rule:nonzero;stroke:black;stroke-width:0.72px;"/>
    </g>
    <g transform="matrix(1.15458,-0.666876,-0.666876,-1.15458,479.375,1065.73)">
        <path d="M279.958,736.35L296.552,736.35" style="fill:none;fill-rule:nonzero;stroke:black;stroke-width:0.72px;"/>
    </g>
    <g transform="matrix(1.15468,0.666702,0.666702,-1.15468,-484.953,687.329)">
        <path d="M276.616,709.38L296.534,709.38" style="fill:none;fill-rule:nonzero;stroke:black;stroke-width:0.72px;"/>
    </g>
    <g transform="matrix(1.15458,0.666876,0.666876,-1.15458,-486.688,685.568)">
        <path d="M279.958,712.29L296.552,712.29" style="fill:none;fill-rule:nonzero;stroke:black;stroke-width:0.72px;"/>
    </g>
    <g transform="matrix(0,-1.33333,-1.33333,0,1273.15,409.963)">
        <path d="M267.99,724.32L287.91,724.32" style="fill:none;fill-rule:nonzero;stroke:black;stroke-width:0.72px;"/>
    </g>
    <g transform="matrix(1.15468,-0.666702,-0.666702,-1.15468,487.022,1087.11)">
        <path d="M311.116,739.26L331.034,739.26" style="fill:none;fill-rule:nonzero;stroke:black;stroke-width:0.72px;"/>
    </g>
    <g transform="matrix(1.15468,0.666702,0.666702,-1.15468,-495.629,647.489)">
        <path d="M328.366,739.26L348.284,739.26" style="fill:none;fill-rule:nonzero;stroke:black;stroke-width:0.72px;"/>
    </g>
    <g transform="matrix(1.15485,-0.666412,-0.666412,-1.15485,492.913,1110.14)">
        <path d="M345.616,739.26L365.544,739.26" style="fill:none;fill-rule:nonzero;stroke:black;stroke-width:0.72px;"/>
    </g>
    <g transform="matrix(1.15468,0.666702,0.666702,-1.15468,-489.464,624.481)">
        <path d="M362.876,739.26L382.794,739.26" style="fill:none;fill-rule:nonzero;stroke:black;stroke-width:0.72px;"/>
    </g>
    <g transform="matrix(0,1.33333,1.33333,0,-526.032,-470.451)">
        <path d="M372.4,726.9L387.16,726.9" style="fill:none;fill-rule:nonzero;stroke:black;stroke-width:0.72px;"/>
    </g>
    <g transform="matrix(0,1.33333,1.33333,0,-521.552,-474.931)">
        <path d="M375.76,726.9L390.52,726.9" style="fill:none;fill-rule:nonzero;stroke:black;stroke-width:0.72px;"/>
    </g>
    <g transform="matrix(1.15455,-0.66693,-0.66693,-1.15455,498.266,1131.81)">
        <path d="M380.483,737.925L395.057,737.925" style="fill:none;fill-rule:nonzero;stroke:black;stroke-width:0.72px;"/>
    </g>
    <g transform="matrix(1.15468,0.666702,0.666702,-1.15468,-465.624,534.238)">
        <path d="M498.106,739.74L518.024,739.74" style="fill:none;fill-rule:nonzero;stroke:black;stroke-width:0.72px;"/>
    </g>
    <g transform="matrix(1.15468,-0.666702,-0.666702,-1.15468,500.827,1217.03)">
        <path d="M498.106,709.86L518.024,709.86" style="fill:none;fill-rule:nonzero;stroke:black;stroke-width:0.72px;"/>
    </g>
    <g transform="matrix(1.15468,-0.666702,-0.666702,-1.15468,517.666,1200.19)">
        <path d="M480.856,739.74L500.774,739.74" style="fill:none;fill-rule:nonzero;stroke:black;stroke-width:0.72px;"/>
    </g>
    <g transform="matrix(1.15458,-0.666876,-0.666876,-1.15458,516.204,1201.84)">
        <path d="M484.198,736.83L500.792,736.83" style="fill:none;fill-rule:nonzero;stroke:black;stroke-width:0.72px;"/>
    </g>
    <g transform="matrix(1.15468,0.666702,0.666702,-1.15468,-448.785,551.076)">
        <path d="M480.856,709.86L500.774,709.86" style="fill:none;fill-rule:nonzero;stroke:black;stroke-width:0.72px;"/>
    </g>
    <g transform="matrix(1.15458,0.666876,0.666876,-1.15458,-450.5,549.279)">
        <path d="M484.198,712.77L500.792,712.77" style="fill:none;fill-rule:nonzero;stroke:black;stroke-width:0.72px;"/>
    </g>
    <g transform="matrix(0,-1.33333,-1.33333,0,1546.11,681.643)">
        <path d="M472.23,724.8L492.15,724.8" style="fill:none;fill-rule:nonzero;stroke:black;stroke-width:0.72px;"/>
    </g>
    <g transform="matrix(-1.26822,0.411585,0.411585,1.26822,1001.96,-1130.95)">
        <path d="M516.204,737.835L536.126,737.835" style="fill:none;fill-rule:nonzero;stroke:black;stroke-width:0.72px;"/>
    </g>
    <g transform="matrix(0,-1.33333,-1.33333,0,1592.11,727.643)">
        <path d="M506.73,724.8L526.65,724.8" style="fill:none;fill-rule:nonzero;stroke:black;stroke-width:0.72px;"/>
    </g>
    <g transform="matrix(0,-1.33333,-1.33333,0,1596.59,732.123)">
        <path d="M512.6,724.8L527.5,724.8" style="fill:none;fill-rule:nonzero;stroke:black;stroke-width:0.72px;"/>
    </g>
    <g transform="matrix(-0.783512,-1.07884,-1.07884,0.783512,1873.68,37.9607)">
        <path d="M531.535,732.855L551.445,732.855" style="fill:none;fill-rule:nonzero;stroke:black;stroke-width:0.72px;"/>
    </g>
    <g transform="matrix(-1.26802,-0.41219,-0.41219,1.26802,1598.92,-629.537)">
        <path d="M516.202,711.76L536.128,711.76" style="fill:none;fill-rule:nonzero;stroke:black;stroke-width:0.72px;"/>
    </g>
    <g transform="matrix(0.783194,-1.07907,-1.07907,-0.783194,1008.1,1195.12)">
        <path d="M531.531,716.74L551.449,716.74" style="fill:none;fill-rule:nonzero;stroke:black;stroke-width:0.72px;"/>
    </g>
    <g transform="matrix(0.411943,1.2681,1.2681,-0.411943,-458.695,-321.183)">
        <path d="M529.186,701.48L543.234,701.48" style="fill:none;fill-rule:nonzero;stroke:black;stroke-width:0.72px;"/>
    </g>
    <g transform="matrix(0.412115,1.26805,1.26805,-0.412115,-456.302,-325.785)">
        <path d="M532.009,702L547.151,702" style="fill:none;fill-rule:nonzero;stroke:black;stroke-width:0.72px;"/>
    </g>
    <g transform="matrix(1.33333,0,0,1.33333,-63.2055,-923.837)">
        <path d="M418.8,723.36L469.68,723.36" style="fill:none;fill-rule:nonzero;stroke:black;stroke-width:0.72px;"/>
    </g>
    <g transform="matrix(1.2958,0.314133,0.314133,-1.2958,-272.957,831.674)">
        <path d="M461.419,724.293L469.569,724.293L462.324,720.561L463.271,722.766L461.419,724.293Z" style="stroke:black;stroke-width:0.72px;"/>
    </g>
    <g transform="matrix(0,1.33333,1.33333,0,-214.086,-521.757)">
        <path d="M485.64,629.16L546.36,629.16" style="fill:none;fill-rule:nonzero;stroke:black;stroke-width:0.72px;"/>
    </g>
    <g transform="matrix(-0.314133,1.2958,1.2958,0.314133,5.83078,-656.537)">
        <path d="M511.699,603.693L519.849,603.693L512.604,599.961L513.551,602.166L511.699,603.693Z" style="stroke:black;stroke-width:0.72px;"/>
    </g>
    <g transform="matrix(1.15468,0.666702,0.666702,-1.15468,-351.23,565.577)">
        <path d="M497.146,567.9L517.064,567.9" style="fill:none;fill-rule:nonzero;stroke:black;stroke-width:0.72px;"/>
    </g>
    <g transform="matrix(1.15468,-0.666702,-0.666702,-1.15468,386.09,1247.09)">
        <path d="M497.146,538.02L517.064,538.02" style="fill:none;fill-rule:nonzero;stroke:black;stroke-width:0.72px;"/>
    </g>
    <g transform="matrix(1.15468,-0.666702,-0.666702,-1.15468,402.929,1230.25)">
        <path d="M479.896,567.9L499.814,567.9" style="fill:none;fill-rule:nonzero;stroke:black;stroke-width:0.72px;"/>
    </g>
    <g transform="matrix(1.15458,-0.666876,-0.666876,-1.15458,401.437,1231.92)">
        <path d="M483.238,564.99L499.832,564.99" style="fill:none;fill-rule:nonzero;stroke:black;stroke-width:0.72px;"/>
    </g>
    <g transform="matrix(1.15468,0.666702,0.666702,-1.15468,-334.39,582.416)">
        <path d="M479.896,538.02L499.814,538.02" style="fill:none;fill-rule:nonzero;stroke:black;stroke-width:0.72px;"/>
    </g>
    <g transform="matrix(1.15458,0.666876,0.666876,-1.15458,-336.075,580.636)">
        <path d="M483.238,540.93L499.832,540.93" style="fill:none;fill-rule:nonzero;stroke:black;stroke-width:0.72px;"/>
    </g>
    <g transform="matrix(0,-1.33333,-1.33333,0,1315.71,909.483)">
        <path d="M471.27,552.96L491.19,552.96" style="fill:none;fill-rule:nonzero;stroke:black;stroke-width:0.72px;"/>
    </g>
    <g transform="matrix(-1.26822,0.411585,0.411585,1.26822,1070.19,-683.509)">
        <path d="M515.244,565.995L535.166,565.995" style="fill:none;fill-rule:nonzero;stroke:black;stroke-width:0.72px;"/>
    </g>
    <g transform="matrix(0,-1.33333,-1.33333,0,1361.71,955.483)">
        <path d="M505.77,552.96L525.69,552.96" style="fill:none;fill-rule:nonzero;stroke:black;stroke-width:0.72px;"/>
    </g>
    <g transform="matrix(0,-1.33333,-1.33333,0,1366.19,959.963)">
        <path d="M511.64,552.96L526.54,552.96" style="fill:none;fill-rule:nonzero;stroke:black;stroke-width:0.72px;"/>
    </g>
    <g transform="matrix(-0.783512,-1.07884,-1.07884,0.783512,1686.26,400.684)">
        <path d="M530.575,561.015L550.485,561.015" style="fill:none;fill-rule:nonzero;stroke:black;stroke-width:0.72px;"/>
    </g>
    <g transform="matrix(-1.26802,-0.41219,-0.41219,1.26802,1525.59,-182.916)">
        <path d="M515.242,539.92L535.168,539.92" style="fill:none;fill-rule:nonzero;stroke:black;stroke-width:0.72px;"/>
    </g>
    <g transform="matrix(0.783194,-1.07907,-1.07907,-0.783194,822.145,1288.62)">
        <path d="M530.571,544.9L550.489,544.9" style="fill:none;fill-rule:nonzero;stroke:black;stroke-width:0.72px;"/>
    </g>
    <g transform="matrix(1.33333,0,0,1.33333,-63.2055,-463.677)">
        <path d="M401.76,550.8L455.28,550.8" style="fill:none;fill-rule:nonzero;stroke:black;stroke-width:0.72px;"/>
    </g>
    <g transform="matrix(-1.2958,0.314133,0.314133,1.2958,830.462,-570.454)">
        <path d="M401.419,549.867L409.569,549.867L402.324,553.599L403.271,551.394L401.419,549.867Z" style="stroke:black;stroke-width:0.72px;"/>
    </g>
    <g transform="matrix(1.15468,0.666702,0.666702,-1.15468,-380.312,674.746)">
        <path d="M333.466,567.66L353.384,567.66" style="fill:none;fill-rule:nonzero;stroke:black;stroke-width:0.72px;"/>
    </g>
    <g transform="matrix(1.15468,-0.666702,-0.666702,-1.15468,356.688,1138.01)">
        <path d="M333.466,537.78L353.384,537.78" style="fill:none;fill-rule:nonzero;stroke:black;stroke-width:0.72px;"/>
    </g>
    <g transform="matrix(1.15468,-0.666702,-0.666702,-1.15468,373.527,1121.17)">
        <path d="M316.216,567.66L336.134,567.66" style="fill:none;fill-rule:nonzero;stroke:black;stroke-width:0.72px;"/>
    </g>
    <g transform="matrix(1.15468,0.666702,0.666702,-1.15468,-363.472,691.585)">
        <path d="M316.216,537.78L336.134,537.78" style="fill:none;fill-rule:nonzero;stroke:black;stroke-width:0.72px;"/>
    </g>
    <g transform="matrix(0,-1.33333,-1.33333,0,1097.15,691.563)">
        <path d="M307.59,552.72L327.51,552.72" style="fill:none;fill-rule:nonzero;stroke:black;stroke-width:0.72px;"/>
    </g>
    <g transform="matrix(0,-1.33333,-1.33333,0,1101.63,696.043)">
        <path d="M312.61,552.72L329.21,552.72" style="fill:none;fill-rule:nonzero;stroke:black;stroke-width:0.72px;"/>
    </g>
    <g transform="matrix(-1.26822,0.411585,0.411585,1.26822,644.464,-615.516)">
        <path d="M351.564,565.755L371.486,565.755" style="fill:none;fill-rule:nonzero;stroke:black;stroke-width:0.72px;"/>
    </g>
    <g transform="matrix(0,-1.33333,-1.33333,0,1143.15,737.563)">
        <path d="M342.09,552.72L362.01,552.72" style="fill:none;fill-rule:nonzero;stroke:black;stroke-width:0.72px;"/>
    </g>
    <g transform="matrix(0,-1.33333,-1.33333,0,1147.63,742.043)">
        <path d="M347.96,552.72L362.86,552.72" style="fill:none;fill-rule:nonzero;stroke:black;stroke-width:0.72px;"/>
    </g>
    <g transform="matrix(-0.783512,-1.07884,-1.07884,0.783512,1339.51,224.608)">
        <path d="M366.895,560.775L386.805,560.775" style="fill:none;fill-rule:nonzero;stroke:black;stroke-width:0.72px;"/>
    </g>
    <g transform="matrix(-1.26802,-0.41219,-0.41219,1.26802,1099.7,-249.759)">
        <path d="M351.562,539.68L371.488,539.68" style="fill:none;fill-rule:nonzero;stroke:black;stroke-width:0.72px;"/>
    </g>
    <g transform="matrix(0.783194,-1.07907,-1.07907,-0.783194,731.839,1112.13)">
        <path d="M366.891,544.66L386.809,544.66" style="fill:none;fill-rule:nonzero;stroke:black;stroke-width:0.72px;"/>
    </g>
    <g transform="matrix(1.33333,0,0,1.33333,-63.2055,-466.237)">
        <path d="M193.2,551.76L304.56,551.76" style="fill:none;fill-rule:nonzero;stroke:black;stroke-width:0.72px;"/>
    </g>
    <g transform="matrix(-1.2958,0.314133,0.314133,1.2958,281.828,-507.463)">
        <path d="M192.859,550.827L201.009,550.827L193.764,554.559L194.711,552.354L192.859,550.827Z" style="stroke:black;stroke-width:0.72px;"/>
    </g>
    <g transform="matrix(0,-1.33333,-1.33333,0,1051.95,561.243)">
        <path d="M241.77,584.64L261.69,584.64" style="fill:none;fill-rule:nonzero;stroke:black;stroke-width:0.72px;"/>
    </g>
    <g transform="matrix(1.15468,0.666702,0.666702,-1.15468,-419.515,735.927)">
        <path d="M233.146,599.58L253.064,599.58" style="fill:none;fill-rule:nonzero;stroke:black;stroke-width:0.72px;"/>
    </g>
    <g transform="matrix(1.15458,0.666876,0.666876,-1.15458,-417.955,737.465)">
        <path d="M233.128,596.67L249.722,596.67" style="fill:none;fill-rule:nonzero;stroke:black;stroke-width:0.72px;"/>
    </g>
    <g transform="matrix(1.15468,-0.666702,-0.666702,-1.15468,360.046,1065.42)">
        <path d="M233.146,569.7L253.064,569.7" style="fill:none;fill-rule:nonzero;stroke:black;stroke-width:0.72px;"/>
    </g>
    <g transform="matrix(1.15458,-0.666876,-0.666876,-1.15458,361.81,1063.77)">
        <path d="M233.128,572.61L249.722,572.61" style="fill:none;fill-rule:nonzero;stroke:black;stroke-width:0.72px;"/>
    </g>
    <g transform="matrix(1.15468,-0.666702,-0.666702,-1.15468,376.886,1048.58)">
        <path d="M215.896,599.58L235.814,599.58" style="fill:none;fill-rule:nonzero;stroke:black;stroke-width:0.72px;"/>
    </g>
    <g transform="matrix(1.15468,0.666702,0.666702,-1.15468,-402.676,752.766)">
        <path d="M215.896,569.7L235.814,569.7" style="fill:none;fill-rule:nonzero;stroke:black;stroke-width:0.72px;"/>
    </g>
    <g transform="matrix(0,-1.33333,-1.33333,0,1005.95,515.243)">
        <path d="M207.27,584.64L227.19,584.64" style="fill:none;fill-rule:nonzero;stroke:black;stroke-width:0.72px;"/>
    </g>
    <g transform="matrix(0,-1.33333,-1.33333,0,1010.43,519.723)">
        <path d="M212.29,584.64L228.89,584.64" style="fill:none;fill-rule:nonzero;stroke:black;stroke-width:0.72px;"/>
    </g>
    <g transform="matrix(0,-1.33333,-1.33333,0,1068.79,498.403)">
        <path d="M224.52,614.52L244.44,614.52" style="fill:none;fill-rule:nonzero;stroke:black;stroke-width:0.72px;"/>
    </g>
    <g transform="matrix(1.15457,-0.666895,-0.666895,-1.15457,398.626,1053.31)">
        <path d="M233.532,628.015L247.668,628.015" style="fill:none;fill-rule:nonzero;stroke:black;stroke-width:0.72px;"/>
    </g>
    <g transform="matrix(-1.15438,-0.667213,-0.667213,1.15438,926.085,-408.773)">
        <path d="M221.226,629.71L236.334,629.71" style="fill:none;fill-rule:nonzero;stroke:black;stroke-width:0.72px;"/>
    </g>
    <g transform="matrix(-1.15478,-0.66653,-0.66653,1.15478,921.396,-401.303)">
        <path d="M221.359,626.32L234.521,626.32" style="fill:none;fill-rule:nonzero;stroke:black;stroke-width:0.72px;"/>
    </g>
    <g transform="matrix(1.15507,0.666028,0.666028,-1.15507,-436.075,719.551)">
        <path d="M255.986,629.505L264.574,629.505" style="fill:none;fill-rule:nonzero;stroke:black;stroke-width:0.72px;"/>
    </g>
    <g transform="matrix(1.15496,-0.66621,-0.66621,-1.15496,405.706,1077.83)">
        <path d="M273.247,629.505L282.113,629.505" style="fill:none;fill-rule:nonzero;stroke:black;stroke-width:0.72px;"/>
    </g>
    <g transform="matrix(1.15481,0.666483,0.666483,-1.15481,-397.757,731.229)">
        <path d="M250.763,571.07L265.207,571.07" style="fill:none;fill-rule:nonzero;stroke:black;stroke-width:0.72px;"/>
    </g>
</svg>
