<?xml version="1.0" encoding="UTF-8" standalone="no"?>
<!DOCTYPE svg PUBLIC "-//W3C//DTD SVG 1.1//EN" "http://www.w3.org/Graphics/SVG/1.1/DTD/svg11.dtd">
<svg width="100%" height="100%" viewBox="0 0 450 240" version="1.1" xmlns="http://www.w3.org/2000/svg" xmlns:xlink="http://www.w3.org/1999/xlink" xml:space="preserve" xmlns:serif="http://www.serif.com/" style="fill-rule:evenodd;clip-rule:evenodd;stroke-linecap:round;stroke-linejoin:round;stroke-miterlimit:10;">
    <g transform="matrix(1.33333,0,0,1.33333,-104.227,-79.92)">
        <text x="168px" y="78.48px" style="font-family:'ArialMT', 'Arial', sans-serif;font-size:10px;">X</text>
    </g>
    <g transform="matrix(1.33333,0,0,1.33333,-104.227,-79.92)">
        <text x="302.88px" y="78.48px" style="font-family:'ArialMT', 'Arial', sans-serif;font-size:10px;">CH</text>
        <text x="317.28px" y="81.12px" style="font-family:'ArialMT', 'Arial', sans-serif;font-size:8px;">2</text>
        <text x="302.88px" y="118.56px" style="font-family:'ArialMT', 'Arial', sans-serif;font-size:10px;">CH</text>
        <text x="317.28px" y="121.2px" style="font-family:'ArialMT', 'Arial', sans-serif;font-size:8px;">2</text>
    </g>
    <g transform="matrix(1.33333,0,0,1.33333,-104.227,-79.92)">
        <text x="341.52px" y="98.16px" style="font-family:'ArialMT', 'Arial', sans-serif;font-size:18px;">+</text>
    </g>
    <g transform="matrix(1.33333,0,0,1.33333,-104.227,-79.92)">
        <text x="374.16px" y="108.48px" style="font-family:'ArialMT', 'Arial', sans-serif;font-size:10px;">CH</text>
        <text x="388.56px" y="111.12px" style="font-family:'ArialMT', 'Arial', sans-serif;font-size:8px;">2</text>
    </g>
    <g transform="matrix(1.33333,0,0,1.33333,-104.227,-79.92)">
        <text x="391.68px" y="78.48px" style="font-family:'ArialMT', 'Arial', sans-serif;font-size:10px;">X</text>
    </g>
    <g transform="matrix(1.15468,0.666702,0.666702,-1.15468,-592.647,832.539)">
        <path d="M100.906,762.3L120.824,762.3" style="fill:none;fill-rule:nonzero;stroke:black;stroke-width:0.72px;"/>
    </g>
    <g transform="matrix(1.15468,-0.666702,-0.666702,-1.15468,403.886,985.705)">
        <path d="M100.906,732.42L120.824,732.42" style="fill:none;fill-rule:nonzero;stroke:black;stroke-width:0.72px;"/>
    </g>
    <g transform="matrix(1.15468,-0.666702,-0.666702,-1.15468,420.725,968.866)">
        <path d="M83.656,762.3L103.574,762.3" style="fill:none;fill-rule:nonzero;stroke:black;stroke-width:0.72px;"/>
    </g>
    <g transform="matrix(1.15458,-0.666876,-0.666876,-1.15458,419.227,970.446)">
        <path d="M86.998,759.39L103.592,759.39" style="fill:none;fill-rule:nonzero;stroke:black;stroke-width:0.72px;"/>
    </g>
    <g transform="matrix(1.15468,0.666702,0.666702,-1.15468,-575.808,849.377)">
        <path d="M83.656,732.42L103.574,732.42" style="fill:none;fill-rule:nonzero;stroke:black;stroke-width:0.72px;"/>
    </g>
    <g transform="matrix(1.15458,0.666876,0.666876,-1.15458,-577.566,847.647)">
        <path d="M86.998,735.33L103.592,735.33" style="fill:none;fill-rule:nonzero;stroke:black;stroke-width:0.72px;"/>
    </g>
    <g transform="matrix(0,-1.33333,-1.33333,0,1005.57,159.48)">
        <path d="M75.03,747.36L94.95,747.36" style="fill:none;fill-rule:nonzero;stroke:black;stroke-width:0.72px;"/>
    </g>
    <g transform="matrix(0,-1.33333,-1.33333,0,1097.59,251.493)">
        <path d="M144.04,747.36L163.96,747.36" style="fill:none;fill-rule:nonzero;stroke:black;stroke-width:0.72px;"/>
    </g>
    <g transform="matrix(1.15485,0.666412,0.666412,-1.15485,-586.286,809.704)">
        <path d="M135.406,762.3L155.334,762.3" style="fill:none;fill-rule:nonzero;stroke:black;stroke-width:0.72px;"/>
    </g>
    <g transform="matrix(1.15485,-0.666412,-0.666412,-1.15485,409.814,1008.79)">
        <path d="M135.406,732.42L155.334,732.42" style="fill:none;fill-rule:nonzero;stroke:black;stroke-width:0.72px;"/>
    </g>
    <g transform="matrix(1.15468,-0.666702,-0.666702,-1.15468,426.889,991.867)">
        <path d="M118.156,762.3L138.074,762.3" style="fill:none;fill-rule:nonzero;stroke:black;stroke-width:0.72px;"/>
    </g>
    <g transform="matrix(1.15468,0.666702,0.666702,-1.15468,-569.644,826.376)">
        <path d="M118.156,732.42L138.074,732.42" style="fill:none;fill-rule:nonzero;stroke:black;stroke-width:0.72px;"/>
    </g>
    <g transform="matrix(0,-1.33333,-1.33333,0,1051.57,205.48)">
        <path d="M109.53,747.36L129.45,747.36" style="fill:none;fill-rule:nonzero;stroke:black;stroke-width:0.72px;"/>
    </g>
    <g transform="matrix(0,-1.33333,-1.33333,0,1056.05,209.96)">
        <path d="M114.55,747.36L131.15,747.36" style="fill:none;fill-rule:nonzero;stroke:black;stroke-width:0.72px;"/>
    </g>
    <g transform="matrix(1.15465,-0.666756,-0.666756,-1.15465,431.914,1013.67)">
        <path d="M152.991,761.085L168.049,761.085" style="fill:none;fill-rule:nonzero;stroke:black;stroke-width:0.72px;"/>
    </g>
    <g transform="matrix(1.33333,0,0,1.33333,-104.227,-1007.92)">
        <path d="M127.44,773.28L127.92,770.88L128.16,769.92L128.88,768.72L129.36,767.76L131.04,766.08L132,765.6L132.96,764.88L134.16,764.4L135.12,764.16L136.32,764.16L137.04,763.92L139.44,764.4L140.4,764.64L142.32,765.6L143.28,766.32L144.72,767.76L145.44,768.72L145.92,769.68L146.16,770.88L146.4,771.84L146.64,773.04L146.64,774" style="fill:none;fill-rule:nonzero;stroke:black;stroke-width:0.48px;"/>
    </g>
    <g transform="matrix(-0.078296,1.33103,1.33103,0.078296,-944.471,-215.01)">
        <path d="M125.626,766.803L133.8,766.803L126.598,770.707L127.697,768.368L125.626,766.803Z" style="stroke:black;stroke-width:0.48px;"/>
    </g>
    <g transform="matrix(1.33333,0,0,1.33333,-104.227,-937.2)">
        <path d="M124.08,734.4L126,733.68L128.4,733.44L129.36,733.44L130.56,733.68L131.52,733.92L132.48,734.4L133.44,735.12L134.4,735.6L135.12,736.32L136.56,738.24L137.04,739.2L137.52,741.12L137.76,742.32L137.76,743.04L137.52,744.72L137.28,746.16L136.56,747.6L135.6,749.04L133.2,750.96L132.48,751.44" style="fill:none;fill-rule:nonzero;stroke:black;stroke-width:0.48px;"/>
    </g>
    <g transform="matrix(-1.16003,0.65735,0.65735,1.16003,-249.344,-884.221)">
        <path d="M132.652,738.173L140.928,738.173L133.529,734.366L134.831,736.662L132.652,738.173Z" style="stroke:black;stroke-width:0.48px;"/>
    </g>
    <g transform="matrix(1.33333,0,0,1.33333,-104.227,-928.88)">
        <path d="M156.72,730.08L158.4,731.28L159.84,732.72L161.04,734.64L161.76,737.52L161.76,739.92L161.52,741.12L161.28,742.08L160.8,743.28L160.32,744.24L159.6,744.96L158.88,745.92L157.92,746.64L155.04,748.08L152.64,748.56L152.16,748.56L148.8,748.08L147.36,747.36" style="fill:none;fill-rule:nonzero;stroke:black;stroke-width:0.48px;"/>
    </g>
    <g transform="matrix(-1.20021,-0.580748,-0.580748,1.20021,735.029,-752.183)">
        <path d="M156.987,743.796L165.252,743.796L158.004,747.754L159.154,745.378L156.987,743.796Z" style="stroke:black;stroke-width:0.48px;"/>
    </g>
    <g transform="matrix(1.33333,0,0,1.33333,-104.227,-954.8)">
        <path d="M193.44,749.04L227.52,749.04" style="fill:none;fill-rule:nonzero;stroke:black;stroke-width:0.72px;"/>
    </g>
    <g transform="matrix(1.33333,0,0,1.33333,-104.227,-962.48)">
        <path d="M193.44,751.92L227.52,751.92" style="fill:none;fill-rule:nonzero;stroke:black;stroke-width:0.72px;"/>
    </g>
    <g transform="matrix(1.33333,0,0,1.33333,-104.227,-958.64)">
        <path d="M222.96,746.88L230.88,750.48L222.96,754.08" style="fill:none;fill-rule:nonzero;stroke:black;stroke-width:0.72px;"/>
    </g>
    <g transform="matrix(0,-1.33333,-1.33333,0,1278.13,432.04)">
        <path d="M279.45,747.36L299.37,747.36" style="fill:none;fill-rule:nonzero;stroke:black;stroke-width:0.72px;"/>
    </g>
    <g transform="matrix(1.15468,0.666702,0.666702,-1.15468,-562.291,719.253)">
        <path d="M270.826,762.3L290.744,762.3" style="fill:none;fill-rule:nonzero;stroke:black;stroke-width:0.72px;"/>
    </g>
    <g transform="matrix(1.15468,-0.666702,-0.666702,-1.15468,434.243,1098.99)">
        <path d="M270.826,732.42L290.744,732.42" style="fill:none;fill-rule:nonzero;stroke:black;stroke-width:0.72px;"/>
    </g>
    <g transform="matrix(1.15468,-0.666702,-0.666702,-1.15468,451.082,1082.15)">
        <path d="M253.576,762.3L273.494,762.3" style="fill:none;fill-rule:nonzero;stroke:black;stroke-width:0.72px;"/>
    </g>
    <g transform="matrix(1.15458,-0.666876,-0.666876,-1.15458,449.601,1083.76)">
        <path d="M256.918,759.39L273.512,759.39" style="fill:none;fill-rule:nonzero;stroke:black;stroke-width:0.72px;"/>
    </g>
    <g transform="matrix(1.15468,0.666702,0.666702,-1.15468,-545.451,736.091)">
        <path d="M253.576,732.42L273.494,732.42" style="fill:none;fill-rule:nonzero;stroke:black;stroke-width:0.72px;"/>
    </g>
    <g transform="matrix(1.15458,0.666876,0.666876,-1.15458,-547.192,734.331)">
        <path d="M256.918,735.33L273.512,735.33" style="fill:none;fill-rule:nonzero;stroke:black;stroke-width:0.72px;"/>
    </g>
    <g transform="matrix(0,-1.33333,-1.33333,0,1232.13,386.04)">
        <path d="M244.95,747.36L264.87,747.36" style="fill:none;fill-rule:nonzero;stroke:black;stroke-width:0.72px;"/>
    </g>
    <g transform="matrix(1.15503,-0.666097,-0.666097,-1.15503,454.29,1104.49)">
        <path d="M289.349,759.235L302.821,759.235" style="fill:none;fill-rule:nonzero;stroke:black;stroke-width:0.72px;"/>
    </g>
    <g transform="matrix(1.15461,-0.666821,-0.666821,-1.15461,457.074,1103.22)">
        <path d="M287.537,762.625L302.953,762.625" style="fill:none;fill-rule:nonzero;stroke:black;stroke-width:0.72px;"/>
    </g>
    <g transform="matrix(1.15461,0.666821,0.666821,-1.15461,-539.636,714.923)">
        <path d="M287.537,732.095L302.953,732.095" style="fill:none;fill-rule:nonzero;stroke:black;stroke-width:0.72px;"/>
    </g>
    <g transform="matrix(1.15503,0.666097,0.666097,-1.15503,-541.338,714.279)">
        <path d="M289.349,735.485L302.821,735.485" style="fill:none;fill-rule:nonzero;stroke:black;stroke-width:0.72px;"/>
    </g>
    <g transform="matrix(0,-1.33333,-1.33333,0,1399.45,546.32)">
        <path d="M370.32,750L385.2,750" style="fill:none;fill-rule:nonzero;stroke:black;stroke-width:0.72px;"/>
    </g>
    <g transform="matrix(0,-1.33333,-1.33333,0,1402.83,551.907)">
        <path d="M374.51,749.17L387.73,749.17" style="fill:none;fill-rule:nonzero;stroke:black;stroke-width:0.72px;"/>
    </g>
    <g transform="matrix(1.1548,-0.666502,-0.666502,-1.1548,471.703,1162.84)">
        <path d="M376.758,761.18L391.722,761.18" style="fill:none;fill-rule:nonzero;stroke:black;stroke-width:0.72px;"/>
    </g>
    <g transform="matrix(0,1.33333,1.33333,0,-637.827,-260.88)">
        <path d="M271.8,688.92L305.64,688.92" style="fill:none;fill-rule:nonzero;stroke:black;stroke-width:0.72px;"/>
    </g>
    <g transform="matrix(0,1.33333,1.33333,0,-633.987,-264.72)">
        <path d="M274.68,688.92L308.52,688.92" style="fill:none;fill-rule:nonzero;stroke:black;stroke-width:0.72px;"/>
    </g>
    <g transform="matrix(1.33333,0,0,1.33333,-104.227,-750.96)">
        <path d="M293.76,668.64L290.16,676.56L286.56,668.64" style="fill:none;fill-rule:nonzero;stroke:black;stroke-width:0.72px;"/>
    </g>
    <g transform="matrix(1.15468,0.666702,0.666702,-1.15468,-482.171,733.54)">
        <path d="M280.876,644.82L300.794,644.82" style="fill:none;fill-rule:nonzero;stroke:black;stroke-width:0.72px;"/>
    </g>
    <g transform="matrix(1.15468,-0.666702,-0.666702,-1.15468,357.714,1126.68)">
        <path d="M280.876,614.94L300.794,614.94" style="fill:none;fill-rule:nonzero;stroke:black;stroke-width:0.72px;"/>
    </g>
    <g transform="matrix(1.15468,-0.666702,-0.666702,-1.15468,374.553,1109.84)">
        <path d="M263.626,644.82L283.544,644.82" style="fill:none;fill-rule:nonzero;stroke:black;stroke-width:0.72px;"/>
    </g>
    <g transform="matrix(1.15458,-0.666876,-0.666876,-1.15458,373.053,1111.46)">
        <path d="M266.968,641.91L283.562,641.91" style="fill:none;fill-rule:nonzero;stroke:black;stroke-width:0.72px;"/>
    </g>
    <g transform="matrix(1.15468,0.666702,0.666702,-1.15468,-465.332,750.379)">
        <path d="M263.626,614.94L283.544,614.94" style="fill:none;fill-rule:nonzero;stroke:black;stroke-width:0.72px;"/>
    </g>
    <g transform="matrix(1.15458,0.666876,0.666876,-1.15458,-467.051,748.629)">
        <path d="M266.968,617.85L283.562,617.85" style="fill:none;fill-rule:nonzero;stroke:black;stroke-width:0.72px;"/>
    </g>
    <g transform="matrix(0,-1.33333,-1.33333,0,1088.89,556.08)">
        <path d="M255,629.88L274.92,629.88" style="fill:none;fill-rule:nonzero;stroke:black;stroke-width:0.72px;"/>
    </g>
    <g transform="matrix(-1.33333,0,0,1.33333,720.893,-663.6)">
        <path d="M299.46,639.84L319.38,639.84" style="fill:none;fill-rule:nonzero;stroke:black;stroke-width:0.72px;"/>
    </g>
    <g transform="matrix(0,-1.33333,-1.33333,0,1134.89,602.08)">
        <path d="M289.5,629.88L309.42,629.88" style="fill:none;fill-rule:nonzero;stroke:black;stroke-width:0.72px;"/>
    </g>
    <g transform="matrix(0,-1.33333,-1.33333,0,1139.37,606.56)">
        <path d="M296.46,629.88L309.18,629.88" style="fill:none;fill-rule:nonzero;stroke:black;stroke-width:0.72px;"/>
    </g>
    <g transform="matrix(1.33333,0,0,1.33333,-104.227,-610.48)">
        <path d="M299.46,619.92L319.38,619.92" style="fill:none;fill-rule:nonzero;stroke:black;stroke-width:0.72px;"/>
    </g>
    <g transform="matrix(0,1.33333,1.33333,0,-518.227,-223.04)">
        <path d="M309.42,629.88L329.34,629.88" style="fill:none;fill-rule:nonzero;stroke:black;stroke-width:0.72px;"/>
    </g>
</svg>
