<?xml version="1.0" encoding="UTF-8" standalone="no"?>
<!DOCTYPE svg PUBLIC "-//W3C//DTD SVG 1.1//EN" "http://www.w3.org/Graphics/SVG/1.1/DTD/svg11.dtd">
<svg width="100%" height="100%" viewBox="0 0 610 260" version="1.1" xmlns="http://www.w3.org/2000/svg" xmlns:xlink="http://www.w3.org/1999/xlink" xml:space="preserve" xmlns:serif="http://www.serif.com/" style="fill-rule:evenodd;clip-rule:evenodd;stroke-linecap:round;stroke-linejoin:round;stroke-miterlimit:10;">
    <g transform="matrix(1.33333,0,0,1.33333,-63.8546,-62.3174)">
        <text x="69.84px" y="70.8px" style="font-family:'ArialMT', 'Arial', sans-serif;font-size:10px;">O</text>
    </g>
    <g transform="matrix(1.33333,0,0,1.33333,-63.8546,-62.3174)">
        <text x="87.36px" y="60.72px" style="font-family:'ArialMT', 'Arial', sans-serif;font-size:10px;">CH</text>
        <text x="101.76px" y="63.36px" style="font-family:'ArialMT', 'Arial', sans-serif;font-size:8px;">3</text>
    </g>
    <g transform="matrix(1.33333,0,0,1.33333,-63.8546,-62.3174)">
        <text x="70.08px" y="150.48px" style="font-family:'ArialMT', 'Arial', sans-serif;font-size:10px;">CH</text>
        <text x="84.48px" y="153.12px" style="font-family:'ArialMT', 'Arial', sans-serif;font-size:8px;">3</text>
    </g>
    <g transform="matrix(1.33333,0,0,1.33333,-63.8546,-62.3174)">
        <text x="142.56px" y="103.2px" style="font-family:'ArialMT', 'Arial', sans-serif;font-size:10px;">Na</text>
        <text x="139.92px" y="120.96px" style="font-family:'ArialMT', 'Arial', sans-serif;font-size:10px;">NH</text>
        <text x="154.32px" y="123.6px" style="font-family:'ArialMT', 'Arial', sans-serif;font-size:6px;">3</text>
        <text x="137.76px" y="134.64px" style="font-family:'ArialMT', 'Arial', sans-serif;font-size:10px;">R</text>
        <text x="144.96px" y="134.64px" style="font-family:'ArialMT', 'Arial', sans-serif;font-size:10px;">O<tspan x="152.88px " y="134.64px ">H</tspan></text>
    </g>
    <g transform="matrix(1.33333,0,0,1.33333,-63.8546,-62.3174)">
        <text x="309.12px" y="130.56px" style="font-family:'ArialMT', 'Arial', sans-serif;font-size:10px;">CH</text>
        <text x="323.52px" y="133.2px" style="font-family:'ArialMT', 'Arial', sans-serif;font-size:8px;">3</text>
    </g>
    <g transform="matrix(1.33333,0,0,1.33333,-63.8546,-62.3174)">
        <text x="274.56px" y="150.48px" style="font-family:'ArialMT', 'Arial', sans-serif;font-size:10px;">CH</text>
        <text x="288.96px" y="153.12px" style="font-family:'ArialMT', 'Arial', sans-serif;font-size:8px;">3</text>
    </g>
    <g transform="matrix(1.33333,0,0,1.33333,-63.8546,-62.3174)">
        <text x="240px" y="90.72px" style="font-family:'ArialMT', 'Arial', sans-serif;font-size:10px;">O</text>
        <text x="222.96px" y="100.56px" style="font-family:'ArialMT', 'Arial', sans-serif;font-size:10px;">C</text>
    </g>
    <g transform="matrix(1.33333,0,0,1.33333,-63.8546,-62.3174)">
        <text x="211.44px" y="100.56px" style="font-family:'ArialMT', 'Arial', sans-serif;font-size:10px;">H</text>
        <text x="218.64px" y="103.2px" style="font-family:'ArialMT', 'Arial', sans-serif;font-size:8px;">3</text>
    </g>
    <g transform="matrix(1.33333,0,0,1.33333,-63.8546,-62.3174)">
        <text x="467.28px" y="130.32px" style="font-family:'ArialMT', 'Arial', sans-serif;font-size:10px;">CH</text>
        <text x="481.68px" y="132.96px" style="font-family:'ArialMT', 'Arial', sans-serif;font-size:8px;">3</text>
    </g>
    <g transform="matrix(1.33333,0,0,1.33333,-63.8546,-62.3174)">
        <text x="398.16px" y="90.48px" style="font-family:'ArialMT', 'Arial', sans-serif;font-size:10px;">O</text>
    </g>
    <g transform="matrix(1.33333,0,0,1.33333,-63.8546,-62.3174)">
        <text x="440.4px" y="181.2px" style="font-family:'ArialMT', 'Arial', sans-serif;font-size:10px;">H</text>
        <text x="447.6px" y="176.16px" style="font-family:'ArialMT', 'Arial', sans-serif;font-size:6px;">+</text>
        <text x="410.4px" y="190.56px" style="font-family:'ArialMT', 'Arial', sans-serif;font-size:10px;">O<tspan x="418.32px " y="190.56px ">H</tspan></text>
    </g>
    <g transform="matrix(1.33333,0,0,1.33333,-63.8546,-62.3174)">
        <text x="390.48px" y="190.56px" style="font-family:'ArialMT', 'Arial', sans-serif;font-size:10px;">O<tspan x="398.4px " y="190.56px ">H</tspan></text>
    </g>
    <g transform="matrix(1.33333,0,0,1.33333,-63.8546,-62.3174)">
        <text x="429.36px" y="232.8px" style="font-family:'ArialMT', 'Arial', sans-serif;font-size:10px;">T<tspan x="435.6px " y="232.8px ">M</tspan></text>
    </g>
    <g transform="matrix(0,-1.33333,-1.33333,0,1038.19,201.323)">
        <path d="M81.21,735.36L101.13,735.36" style="fill:none;fill-rule:nonzero;stroke:black;stroke-width:0.72px;"/>
    </g>
    <g transform="matrix(0,-1.33333,-1.33333,0,1033.71,196.843)">
        <path d="M79.51,735.36L96.11,735.36" style="fill:none;fill-rule:nonzero;stroke:black;stroke-width:0.72px;"/>
    </g>
    <g transform="matrix(1.15468,0.666702,0.666702,-1.15468,-549.334,871.166)">
        <path d="M72.586,750.3L92.504,750.3" style="fill:none;fill-rule:nonzero;stroke:black;stroke-width:0.72px;"/>
    </g>
    <g transform="matrix(1.15468,-0.666702,-0.666702,-1.15468,431.198,986.57)">
        <path d="M72.586,720.42L92.504,720.42" style="fill:none;fill-rule:nonzero;stroke:black;stroke-width:0.72px;"/>
    </g>
    <g transform="matrix(1.15468,-0.666702,-0.666702,-1.15468,448.037,969.731)">
        <path d="M55.336,750.3L75.254,750.3" style="fill:none;fill-rule:nonzero;stroke:black;stroke-width:0.72px;"/>
    </g>
    <g transform="matrix(1.15458,-0.666876,-0.666876,-1.15458,446.534,971.308)">
        <path d="M58.678,747.39L75.272,747.39" style="fill:none;fill-rule:nonzero;stroke:black;stroke-width:0.72px;"/>
    </g>
    <g transform="matrix(1.15468,0.666702,0.666702,-1.15468,-532.495,888.005)">
        <path d="M55.336,720.42L75.254,720.42" style="fill:none;fill-rule:nonzero;stroke:black;stroke-width:0.72px;"/>
    </g>
    <g transform="matrix(1.15458,0.666876,0.666876,-1.15458,-534.254,886.281)">
        <path d="M58.678,723.33L75.272,723.33" style="fill:none;fill-rule:nonzero;stroke:black;stroke-width:0.72px;"/>
    </g>
    <g transform="matrix(0,-1.33333,-1.33333,0,992.185,155.323)">
        <path d="M46.71,735.36L66.63,735.36" style="fill:none;fill-rule:nonzero;stroke:black;stroke-width:0.72px;"/>
    </g>
    <g transform="matrix(0,-1.33333,-1.33333,0,1051.51,142.003)">
        <path d="M66.6,762.6L81.24,762.6" style="fill:none;fill-rule:nonzero;stroke:black;stroke-width:0.72px;"/>
    </g>
    <g transform="matrix(1.15431,-0.667337,-0.667337,-1.15431,471.575,975.668)">
        <path d="M78.124,780.19L86.996,780.19" style="fill:none;fill-rule:nonzero;stroke:black;stroke-width:0.72px;"/>
    </g>
    <g transform="matrix(0,1.33333,1.33333,0,-909.295,17.6826)">
        <path d="M66.48,708L81.36,708" style="fill:none;fill-rule:nonzero;stroke:black;stroke-width:0.72px;"/>
    </g>
    <g transform="matrix(1.33333,0,0,1.33333,-63.8546,-898.157)">
        <path d="M118.8,734.4L187.68,734.4" style="fill:none;fill-rule:nonzero;stroke:black;stroke-width:0.72px;"/>
    </g>
    <g transform="matrix(1.2958,0.314133,0.314133,-1.2958,-287.659,974.966)">
        <path d="M179.419,735.333L187.569,735.333L180.324,731.601L181.271,733.806L179.419,735.333Z" style="stroke:black;stroke-width:0.72px;"/>
    </g>
    <g transform="matrix(0,-1.33333,-1.33333,0,1310.83,473.963)">
        <path d="M285.69,735.36L305.61,735.36" style="fill:none;fill-rule:nonzero;stroke:black;stroke-width:0.72px;"/>
    </g>
    <g transform="matrix(0,-1.33333,-1.33333,0,1306.35,469.483)">
        <path d="M283.99,735.36L300.59,735.36" style="fill:none;fill-rule:nonzero;stroke:black;stroke-width:0.72px;"/>
    </g>
    <g transform="matrix(1.15468,0.666702,0.666702,-1.15468,-512.803,734.839)">
        <path d="M277.066,750.3L296.984,750.3" style="fill:none;fill-rule:nonzero;stroke:black;stroke-width:0.72px;"/>
    </g>
    <g transform="matrix(1.15468,-0.666702,-0.666702,-1.15468,467.729,1122.9)">
        <path d="M277.066,720.42L296.984,720.42" style="fill:none;fill-rule:nonzero;stroke:black;stroke-width:0.72px;"/>
    </g>
    <g transform="matrix(1.15468,-0.666702,-0.666702,-1.15468,484.568,1106.06)">
        <path d="M259.816,750.3L279.734,750.3" style="fill:none;fill-rule:nonzero;stroke:black;stroke-width:0.72px;"/>
    </g>
    <g transform="matrix(1.15468,0.666702,0.666702,-1.15468,-495.964,751.678)">
        <path d="M259.816,720.42L279.734,720.42" style="fill:none;fill-rule:nonzero;stroke:black;stroke-width:0.72px;"/>
    </g>
    <g transform="matrix(0,-1.33333,-1.33333,0,1264.83,427.963)">
        <path d="M251.19,735.36L271.11,735.36" style="fill:none;fill-rule:nonzero;stroke:black;stroke-width:0.72px;"/>
    </g>
    <g transform="matrix(0,-1.33333,-1.33333,0,1269.31,432.443)">
        <path d="M256.21,735.36L272.81,735.36" style="fill:none;fill-rule:nonzero;stroke:black;stroke-width:0.72px;"/>
    </g>
    <g transform="matrix(1.15481,0.666483,0.666483,-1.15481,-491.017,730.169)">
        <path d="M294.683,721.79L309.127,721.79" style="fill:none;fill-rule:nonzero;stroke:black;stroke-width:0.72px;"/>
    </g>
    <g transform="matrix(0,1.33333,1.33333,0,-636.655,-254.957)">
        <path d="M270.96,708L285.84,708" style="fill:none;fill-rule:nonzero;stroke:black;stroke-width:0.72px;"/>
    </g>
    <g transform="matrix(-1.15487,-0.666378,-0.666378,1.15487,1069.7,-633.135)">
        <path d="M247.932,748.86L262.098,748.86" style="fill:none;fill-rule:nonzero;stroke:black;stroke-width:0.72px;"/>
    </g>
    <g transform="matrix(-1.15423,0.667474,0.667474,1.15423,20.1906,-962.815)">
        <path d="M230.506,750.19L239.654,750.19" style="fill:none;fill-rule:nonzero;stroke:black;stroke-width:0.72px;"/>
    </g>
    <g transform="matrix(1.33333,0,0,1.33333,-63.8546,-898.157)">
        <path d="M345.36,734.4L379.44,734.4" style="fill:none;fill-rule:nonzero;stroke:black;stroke-width:0.72px;"/>
    </g>
    <g transform="matrix(1.2958,0.314133,0.314133,-1.2958,-280.461,914.727)">
        <path d="M371.179,735.333L379.329,735.333L372.084,731.601L373.031,733.806L371.179,735.333Z" style="stroke:black;stroke-width:0.72px;"/>
    </g>
    <g transform="matrix(0,-1.33333,-1.33333,0,1522.03,684.523)">
        <path d="M443.85,735.6L463.77,735.6" style="fill:none;fill-rule:nonzero;stroke:black;stroke-width:0.72px;"/>
    </g>
    <g transform="matrix(0,-1.33333,-1.33333,0,1517.55,680.043)">
        <path d="M442.15,735.6L458.75,735.6" style="fill:none;fill-rule:nonzero;stroke:black;stroke-width:0.72px;"/>
    </g>
    <g transform="matrix(1.15468,0.666702,0.666702,-1.15468,-484.707,629.35)">
        <path d="M435.226,750.54L455.144,750.54" style="fill:none;fill-rule:nonzero;stroke:black;stroke-width:0.72px;"/>
    </g>
    <g transform="matrix(1.15468,-0.666702,-0.666702,-1.15468,496.145,1228.3)">
        <path d="M435.226,720.66L455.144,720.66" style="fill:none;fill-rule:nonzero;stroke:black;stroke-width:0.72px;"/>
    </g>
    <g transform="matrix(1.15468,-0.666702,-0.666702,-1.15468,512.984,1211.46)">
        <path d="M417.976,750.54L437.894,750.54" style="fill:none;fill-rule:nonzero;stroke:black;stroke-width:0.72px;"/>
    </g>
    <g transform="matrix(1.15468,0.666702,0.666702,-1.15468,-467.868,646.189)">
        <path d="M417.976,720.66L437.894,720.66" style="fill:none;fill-rule:nonzero;stroke:black;stroke-width:0.72px;"/>
    </g>
    <g transform="matrix(0,-1.33333,-1.33333,0,1476.03,638.523)">
        <path d="M409.35,735.6L429.27,735.6" style="fill:none;fill-rule:nonzero;stroke:black;stroke-width:0.72px;"/>
    </g>
    <g transform="matrix(1.15481,0.666483,0.666483,-1.15481,-462.941,624.715)">
        <path d="M452.843,722.03L467.287,722.03" style="fill:none;fill-rule:nonzero;stroke:black;stroke-width:0.72px;"/>
    </g>
    <g transform="matrix(-1.15466,-0.666729,-0.666729,1.15466,1465.75,-531.978)">
        <path d="M406.026,750.795L421.164,750.795" style="fill:none;fill-rule:nonzero;stroke:black;stroke-width:0.72px;"/>
    </g>
    <g transform="matrix(-1.1551,-0.665976,-0.665976,1.1551,1461.01,-524.739)">
        <path d="M406.158,747.405L419.352,747.405" style="fill:none;fill-rule:nonzero;stroke:black;stroke-width:0.72px;"/>
    </g>
    <g transform="matrix(0,1.33333,1.33333,0,-362.255,-402.317)">
        <path d="M403.08,660.36L470.04,660.36" style="fill:none;fill-rule:nonzero;stroke:black;stroke-width:0.72px;"/>
    </g>
    <g transform="matrix(-0.314133,1.2958,1.2958,0.314133,-162.079,-544.74)">
        <path d="M432.259,631.773L440.409,631.773L433.164,628.041L434.111,630.246L432.259,631.773Z" style="stroke:black;stroke-width:0.72px;"/>
    </g>
    <g transform="matrix(-1.33333,0,0,1.33333,1014.55,-740.397)">
        <path d="M394.44,675.24L414.36,675.24" style="fill:none;fill-rule:nonzero;stroke:black;stroke-width:0.72px;"/>
    </g>
    <g transform="matrix(0,-1.33333,-1.33333,0,1352.55,695.683)">
        <path d="M387.06,667.86L401.82,667.86" style="fill:none;fill-rule:nonzero;stroke:black;stroke-width:0.72px;"/>
    </g>
    <g transform="matrix(0,1.33333,1.33333,0,-401.855,-382.717)">
        <path d="M406.98,667.86L421.74,667.86" style="fill:none;fill-rule:nonzero;stroke:black;stroke-width:0.72px;"/>
    </g>
</svg>
