<?xml version="1.0" encoding="UTF-8" standalone="no"?>
<!DOCTYPE svg PUBLIC "-//W3C//DTD SVG 1.1//EN" "http://www.w3.org/Graphics/SVG/1.1/DTD/svg11.dtd">
<svg width="100%" height="100%" viewBox="0 0 700 800" version="1.1" xmlns="http://www.w3.org/2000/svg" xmlns:xlink="http://www.w3.org/1999/xlink" xml:space="preserve" xmlns:serif="http://www.serif.com/" style="fill-rule:evenodd;clip-rule:evenodd;stroke-linecap:round;stroke-linejoin:round;stroke-miterlimit:10;">
    <g transform="matrix(1.33333,0,0,1.33333,-39.7946,-108.637)">
        <text x="185.04px" y="94.08px" style="font-family:'ArialMT', 'Arial', sans-serif;font-size:10px;">O</text>
        <text x="202.56px" y="103.92px" style="font-family:'ArialMT', 'Arial', sans-serif;font-size:10px;">CH</text>
        <text x="216.96px" y="106.56px" style="font-family:'ArialMT', 'Arial', sans-serif;font-size:8px;">3</text>
    </g>
    <g transform="matrix(1.33333,0,0,1.33333,-39.7946,-108.637)">
        <text x="47.28px" y="173.76px" style="font-family:'ArialMT', 'Arial', sans-serif;font-size:10px;">C</text>
    </g>
    <g transform="matrix(1.33333,0,0,1.33333,-39.7946,-108.637)">
        <text x="35.76px" y="173.76px" style="font-family:'ArialMT', 'Arial', sans-serif;font-size:10px;">H</text>
        <text x="42.96px" y="176.4px" style="font-family:'ArialMT', 'Arial', sans-serif;font-size:8px;">3</text>
    </g>
    <g transform="matrix(1.33333,0,0,1.33333,-39.7946,-108.637)">
        <text x="81.6px" y="173.76px" style="font-family:'ArialMT', 'Arial', sans-serif;font-size:10px;">CH</text>
        <text x="96px" y="176.4px" style="font-family:'ArialMT', 'Arial', sans-serif;font-size:8px;">3</text>
    </g>
    <g transform="matrix(1.33333,0,0,1.33333,-39.7946,-108.637)">
        <text x="365.76px" y="134.4px" style="font-family:'ArialMT', 'Arial', sans-serif;font-size:10px;">CH</text>
        <text x="380.16px" y="127.44px" style="font-family:'ArialMT', 'Arial', sans-serif;font-size:8px;">+</text>
    </g>
    <g transform="matrix(1.33333,0,0,1.33333,-39.7946,-108.637)">
        <text x="383.04px" y="124.56px" style="font-family:'ArialMT', 'Arial', sans-serif;font-size:10px;">C</text>
        <text x="390.24px" y="117.6px" style="font-family:'ArialMT', 'Arial', sans-serif;font-size:8px;">–</text>
    </g>
    <g transform="matrix(1.33333,0,0,1.33333,-39.7946,-108.637)">
        <text x="434.64px" y="94.56px" style="font-family:'ArialMT', 'Arial', sans-serif;font-size:10px;">O</text>
        <text x="452.16px" y="104.4px" style="font-family:'ArialMT', 'Arial', sans-serif;font-size:10px;">CH</text>
        <text x="466.56px" y="107.04px" style="font-family:'ArialMT', 'Arial', sans-serif;font-size:8px;">3</text>
    </g>
    <g transform="matrix(1.33333,0,0,1.33333,-39.7946,-108.637)">
        <text x="296.88px" y="174.24px" style="font-family:'ArialMT', 'Arial', sans-serif;font-size:10px;">C</text>
    </g>
    <g transform="matrix(1.33333,0,0,1.33333,-39.7946,-108.637)">
        <text x="285.36px" y="174.24px" style="font-family:'ArialMT', 'Arial', sans-serif;font-size:10px;">H</text>
        <text x="292.56px" y="176.88px" style="font-family:'ArialMT', 'Arial', sans-serif;font-size:8px;">3</text>
    </g>
    <g transform="matrix(1.33333,0,0,1.33333,-39.7946,-108.637)">
        <text x="331.2px" y="174.24px" style="font-family:'ArialMT', 'Arial', sans-serif;font-size:10px;">CH</text>
        <text x="345.6px" y="176.88px" style="font-family:'ArialMT', 'Arial', sans-serif;font-size:8px;">3</text>
    </g>
    <g transform="matrix(1.0578,0.811684,-0.811684,1.0578,-39.7946,-108.637)">
        <text x="372.316px" y="-138.744px" style="font-family:'ArialMT', 'Arial', sans-serif;font-size:10.001px;">:</text>
    </g>
    <g transform="matrix(1.33333,0,0,1.33333,-39.7946,-108.637)">
        <text x="330px" y="297.84px" style="font-family:'ArialMT', 'Arial', sans-serif;font-size:10px;">CH</text>
        <text x="344.4px" y="290.88px" style="font-family:'ArialMT', 'Arial', sans-serif;font-size:8px;">+</text>
    </g>
    <g transform="matrix(1.33333,0,0,1.33333,-39.7946,-108.637)">
        <text x="433.44px" y="258px" style="font-family:'ArialMT', 'Arial', sans-serif;font-size:10px;">O</text>
        <text x="450.96px" y="267.84px" style="font-family:'ArialMT', 'Arial', sans-serif;font-size:10px;">CH</text>
        <text x="465.36px" y="270.48px" style="font-family:'ArialMT', 'Arial', sans-serif;font-size:8px;">3</text>
    </g>
    <g transform="matrix(1.33333,0,0,1.33333,-39.7946,-108.637)">
        <text x="295.68px" y="337.68px" style="font-family:'ArialMT', 'Arial', sans-serif;font-size:10px;">C</text>
    </g>
    <g transform="matrix(1.33333,0,0,1.33333,-39.7946,-108.637)">
        <text x="284.16px" y="337.68px" style="font-family:'ArialMT', 'Arial', sans-serif;font-size:10px;">H</text>
        <text x="291.36px" y="340.32px" style="font-family:'ArialMT', 'Arial', sans-serif;font-size:8px;">3</text>
    </g>
    <g transform="matrix(1.33333,0,0,1.33333,-39.7946,-108.637)">
        <text x="330px" y="337.68px" style="font-family:'ArialMT', 'Arial', sans-serif;font-size:10px;">CH</text>
        <text x="344.4px" y="340.32px" style="font-family:'ArialMT', 'Arial', sans-serif;font-size:8px;">3</text>
    </g>
    <g transform="matrix(1.33333,0,0,1.33333,-39.7946,-108.637)">
        <text x="312.96px" y="493.68px" style="font-family:'ArialMT', 'Arial', sans-serif;font-size:10px;">C</text>
        <text x="320.16px" y="486.72px" style="font-family:'ArialMT', 'Arial', sans-serif;font-size:8px;">+</text>
    </g>
    <g transform="matrix(1.33333,0,0,1.33333,-39.7946,-108.637)">
        <text x="433.68px" y="423.84px" style="font-family:'ArialMT', 'Arial', sans-serif;font-size:10px;">O</text>
        <text x="451.2px" y="433.68px" style="font-family:'ArialMT', 'Arial', sans-serif;font-size:10px;">CH</text>
        <text x="465.6px" y="436.32px" style="font-family:'ArialMT', 'Arial', sans-serif;font-size:8px;">3</text>
    </g>
    <g transform="matrix(1.33333,0,0,1.33333,-39.7946,-108.637)">
        <text x="295.92px" y="503.52px" style="font-family:'ArialMT', 'Arial', sans-serif;font-size:10px;">C</text>
    </g>
    <g transform="matrix(1.33333,0,0,1.33333,-39.7946,-108.637)">
        <text x="284.4px" y="503.52px" style="font-family:'ArialMT', 'Arial', sans-serif;font-size:10px;">H</text>
        <text x="291.6px" y="506.16px" style="font-family:'ArialMT', 'Arial', sans-serif;font-size:8px;">3</text>
    </g>
    <g transform="matrix(1.33333,0,0,1.33333,-39.7946,-108.637)">
        <text x="330.24px" y="503.52px" style="font-family:'ArialMT', 'Arial', sans-serif;font-size:10px;">CH</text>
        <text x="344.64px" y="506.16px" style="font-family:'ArialMT', 'Arial', sans-serif;font-size:8px;">3</text>
    </g>
    <g transform="matrix(1.33333,0,0,1.33333,-39.7946,-108.637)">
        <text x="153.84px" y="673.92px" style="font-family:'ArialMT', 'Arial', sans-serif;font-size:10px;">CH</text>
        <text x="168.24px" y="676.56px" style="font-family:'ArialMT', 'Arial', sans-serif;font-size:8px;">2</text>
    </g>
    <g transform="matrix(1.33333,0,0,1.33333,-39.7946,-108.637)">
        <text x="274.56px" y="604.08px" style="font-family:'ArialMT', 'Arial', sans-serif;font-size:10px;">O</text>
        <text x="291.84px" y="614.16px" style="font-family:'ArialMT', 'Arial', sans-serif;font-size:10px;">CH</text>
        <text x="306.24px" y="616.8px" style="font-family:'ArialMT', 'Arial', sans-serif;font-size:8px;">3</text>
    </g>
    <g transform="matrix(1.33333,0,0,1.33333,-39.7946,-108.637)">
        <text x="119.52px" y="673.92px" style="font-family:'ArialMT', 'Arial', sans-serif;font-size:10px;">C</text>
    </g>
    <g transform="matrix(1.33333,0,0,1.33333,-39.7946,-108.637)">
        <text x="108px" y="673.92px" style="font-family:'ArialMT', 'Arial', sans-serif;font-size:10px;">H</text>
        <text x="115.2px" y="676.56px" style="font-family:'ArialMT', 'Arial', sans-serif;font-size:8px;">3</text>
    </g>
    <g transform="matrix(1.33333,0,0,1.33333,-39.7946,-108.637)">
        <text x="381.6px" y="672.24px" style="font-family:'ArialMT', 'Arial', sans-serif;font-size:10px;">CH</text>
        <text x="396px" y="674.88px" style="font-family:'ArialMT', 'Arial', sans-serif;font-size:8px;">3</text>
    </g>
    <g transform="matrix(1.33333,0,0,1.33333,-39.7946,-108.637)">
        <text x="502.32px" y="602.4px" style="font-family:'ArialMT', 'Arial', sans-serif;font-size:10px;">O</text>
        <text x="519.6px" y="612.48px" style="font-family:'ArialMT', 'Arial', sans-serif;font-size:10px;">CH</text>
        <text x="534px" y="615.12px" style="font-family:'ArialMT', 'Arial', sans-serif;font-size:8px;">3</text>
    </g>
    <g transform="matrix(1.33333,0,0,1.33333,-39.7946,-108.637)">
        <text x="347.28px" y="672.24px" style="font-family:'ArialMT', 'Arial', sans-serif;font-size:10px;">C</text>
    </g>
    <g transform="matrix(1.33333,0,0,1.33333,-39.7946,-108.637)">
        <text x="335.76px" y="672.24px" style="font-family:'ArialMT', 'Arial', sans-serif;font-size:10px;">H</text>
        <text x="342.96px" y="674.88px" style="font-family:'ArialMT', 'Arial', sans-serif;font-size:8px;">3</text>
    </g>
    <g transform="matrix(1.15468,0.666702,0.666702,-1.15468,-504.062,834.646)">
        <path d="M66.826,716.94L86.744,716.94" style="fill:none;fill-rule:nonzero;stroke:black;stroke-width:0.72px;"/>
    </g>
    <g transform="matrix(1.15468,-0.666702,-0.666702,-1.15468,431.988,942.37)">
        <path d="M66.826,687.06L86.744,687.06" style="fill:none;fill-rule:nonzero;stroke:black;stroke-width:0.72px;"/>
    </g>
    <g transform="matrix(1.15468,-0.666702,-0.666702,-1.15468,448.827,925.531)">
        <path d="M49.576,716.94L69.494,716.94" style="fill:none;fill-rule:nonzero;stroke:black;stroke-width:0.72px;"/>
    </g>
    <g transform="matrix(1.15468,0.666702,0.666702,-1.15468,-487.223,851.485)">
        <path d="M49.576,687.06L69.494,687.06" style="fill:none;fill-rule:nonzero;stroke:black;stroke-width:0.72px;"/>
    </g>
    <g transform="matrix(0,-1.33333,-1.33333,0,964.085,145.803)">
        <path d="M40.95,702L60.87,702" style="fill:none;fill-rule:nonzero;stroke:black;stroke-width:0.72px;"/>
    </g>
    <g transform="matrix(0,-1.33333,-1.33333,0,1056.1,237.816)">
        <path d="M109.96,702L129.88,702" style="fill:none;fill-rule:nonzero;stroke:black;stroke-width:0.72px;"/>
    </g>
    <g transform="matrix(1.15485,-0.666412,-0.666412,-1.15485,437.934,965.457)">
        <path d="M101.326,687.06L121.254,687.06" style="fill:none;fill-rule:nonzero;stroke:black;stroke-width:0.72px;"/>
    </g>
    <g transform="matrix(1.15468,-0.666702,-0.666702,-1.15468,454.991,948.532)">
        <path d="M84.076,716.94L103.994,716.94" style="fill:none;fill-rule:nonzero;stroke:black;stroke-width:0.72px;"/>
    </g>
    <g transform="matrix(1.15468,0.666702,0.666702,-1.15468,-481.059,828.484)">
        <path d="M84.076,687.06L103.994,687.06" style="fill:none;fill-rule:nonzero;stroke:black;stroke-width:0.72px;"/>
    </g>
    <g transform="matrix(0,-1.33333,-1.33333,0,1010.09,191.803)">
        <path d="M75.45,702L95.37,702" style="fill:none;fill-rule:nonzero;stroke:black;stroke-width:0.72px;"/>
    </g>
    <g transform="matrix(1.15468,0.666702,0.666702,-1.15468,-514.736,794.8)">
        <path d="M118.586,746.82L138.504,746.82" style="fill:none;fill-rule:nonzero;stroke:black;stroke-width:0.72px;"/>
    </g>
    <g transform="matrix(1.15468,-0.666702,-0.666702,-1.15468,461.156,971.54)">
        <path d="M118.586,716.94L138.504,716.94" style="fill:none;fill-rule:nonzero;stroke:black;stroke-width:0.72px;"/>
    </g>
    <g transform="matrix(1.15485,-0.666412,-0.666412,-1.15485,477.759,954.791)">
        <path d="M101.326,746.82L121.254,746.82" style="fill:none;fill-rule:nonzero;stroke:black;stroke-width:0.72px;"/>
    </g>
    <g transform="matrix(1.15485,0.666412,0.666412,-1.15485,-497.709,811.794)">
        <path d="M101.326,716.94L121.254,716.94" style="fill:none;fill-rule:nonzero;stroke:black;stroke-width:0.72px;"/>
    </g>
    <g transform="matrix(0,-1.33333,-1.33333,0,1072.93,174.963)">
        <path d="M92.7,731.88L112.62,731.88" style="fill:none;fill-rule:nonzero;stroke:black;stroke-width:0.72px;"/>
    </g>
    <g transform="matrix(0,-1.33333,-1.33333,0,1164.94,266.976)">
        <path d="M161.71,731.88L181.63,731.88" style="fill:none;fill-rule:nonzero;stroke:black;stroke-width:0.72px;"/>
    </g>
    <g transform="matrix(1.15468,0.666702,0.666702,-1.15468,-508.573,771.798)">
        <path d="M153.086,746.82L173.004,746.82" style="fill:none;fill-rule:nonzero;stroke:black;stroke-width:0.72px;"/>
    </g>
    <g transform="matrix(1.15458,0.666876,0.666876,-1.15458,-507.046,773.335)">
        <path d="M153.068,743.91L169.662,743.91" style="fill:none;fill-rule:nonzero;stroke:black;stroke-width:0.72px;"/>
    </g>
    <g transform="matrix(1.15468,-0.666702,-0.666702,-1.15468,467.319,994.541)">
        <path d="M153.086,716.94L173.004,716.94" style="fill:none;fill-rule:nonzero;stroke:black;stroke-width:0.72px;"/>
    </g>
    <g transform="matrix(1.15458,-0.666876,-0.666876,-1.15458,469.101,992.857)">
        <path d="M153.068,719.85L169.662,719.85" style="fill:none;fill-rule:nonzero;stroke:black;stroke-width:0.72px;"/>
    </g>
    <g transform="matrix(1.15468,-0.666702,-0.666702,-1.15468,484.159,977.703)">
        <path d="M135.836,746.82L155.754,746.82" style="fill:none;fill-rule:nonzero;stroke:black;stroke-width:0.72px;"/>
    </g>
    <g transform="matrix(1.15468,0.666702,0.666702,-1.15468,-491.733,788.637)">
        <path d="M135.836,716.94L155.754,716.94" style="fill:none;fill-rule:nonzero;stroke:black;stroke-width:0.72px;"/>
    </g>
    <g transform="matrix(0,-1.33333,-1.33333,0,1118.94,220.976)">
        <path d="M127.21,731.88L147.13,731.88" style="fill:none;fill-rule:nonzero;stroke:black;stroke-width:0.72px;"/>
    </g>
    <g transform="matrix(0,-1.33333,-1.33333,0,1123.42,225.456)">
        <path d="M132.23,731.88L148.83,731.88" style="fill:none;fill-rule:nonzero;stroke:black;stroke-width:0.72px;"/>
    </g>
    <g transform="matrix(1.1549,-0.666323,-0.666323,-1.1549,488.635,999.436)">
        <path d="M170.711,745.42L185.039,745.42" style="fill:none;fill-rule:nonzero;stroke:black;stroke-width:0.72px;"/>
    </g>
    <g transform="matrix(1.15496,0.66621,0.66621,-1.15496,-501.976,748.986)">
        <path d="M193.327,746.695L202.193,746.695" style="fill:none;fill-rule:nonzero;stroke:black;stroke-width:0.72px;"/>
    </g>
    <g transform="matrix(-1.15485,0.666401,0.666401,1.15485,-338.118,-715.272)">
        <path d="M54.457,678.41L69.143,678.41" style="fill:none;fill-rule:nonzero;stroke:black;stroke-width:0.72px;"/>
    </g>
    <g transform="matrix(1.15451,0.666991,0.666991,-1.15451,-479.027,842.974)">
        <path d="M67.194,678.475L81.606,678.475" style="fill:none;fill-rule:nonzero;stroke:black;stroke-width:0.72px;"/>
    </g>
    <g transform="matrix(1.33333,0,0,1.33333,-39.7946,-901.917)">
        <path d="M136.8,723.12L134.4,725.04L133.2,725.52L131.76,726L128.88,726L127.68,725.76L126.72,725.52L125.76,725.04L123.84,723.6L123.12,722.88L122.4,721.92L121.92,720.96L121.44,719.76L121.2,718.8L120.96,717.6L120.96,715.92L121.2,714.72L121.68,713.76L122.16,712.56L122.64,711.84L123.36,710.88" style="fill:none;fill-rule:nonzero;stroke:black;stroke-width:0.48px;"/>
    </g>
    <g transform="matrix(0.902742,-0.981241,-0.981241,-0.902742,714.884,838.341)">
        <path d="M129.615,709.965L137.768,709.965L130.448,713.667L131.543,711.414L129.615,709.965Z" style="stroke:black;stroke-width:0.48px;"/>
    </g>
    <g transform="matrix(1.33333,0,0,1.33333,-39.7946,-879.837)">
        <path d="M238.08,710.16L272.16,710.16" style="fill:none;fill-rule:nonzero;stroke:black;stroke-width:0.72px;"/>
    </g>
    <g transform="matrix(1.33333,0,0,1.33333,-39.7946,-887.517)">
        <path d="M238.08,713.04L272.16,713.04" style="fill:none;fill-rule:nonzero;stroke:black;stroke-width:0.72px;"/>
    </g>
    <g transform="matrix(1.33333,0,0,1.33333,-39.7946,-883.677)">
        <path d="M267.6,708L275.52,711.6L267.6,715.2" style="fill:none;fill-rule:nonzero;stroke:black;stroke-width:0.72px;"/>
    </g>
    <g transform="matrix(1.15468,0.666702,0.666702,-1.15468,-459.15,668.323)">
        <path d="M316.426,716.46L336.344,716.46" style="fill:none;fill-rule:nonzero;stroke:black;stroke-width:0.72px;"/>
    </g>
    <g transform="matrix(1.15468,-0.666702,-0.666702,-1.15468,476.26,1108.86)">
        <path d="M316.426,686.58L336.344,686.58" style="fill:none;fill-rule:nonzero;stroke:black;stroke-width:0.72px;"/>
    </g>
    <g transform="matrix(1.15468,-0.666702,-0.666702,-1.15468,493.099,1092.03)">
        <path d="M299.176,716.46L319.094,716.46" style="fill:none;fill-rule:nonzero;stroke:black;stroke-width:0.72px;"/>
    </g>
    <g transform="matrix(1.15468,0.666702,0.666702,-1.15468,-442.311,685.162)">
        <path d="M299.176,686.58L319.094,686.58" style="fill:none;fill-rule:nonzero;stroke:black;stroke-width:0.72px;"/>
    </g>
    <g transform="matrix(0,-1.33333,-1.33333,0,1296.25,479.243)">
        <path d="M290.55,701.52L310.47,701.52" style="fill:none;fill-rule:nonzero;stroke:black;stroke-width:0.72px;"/>
    </g>
    <g transform="matrix(0,-1.33333,-1.33333,0,1384.82,574.696)">
        <path d="M362.14,698.94L376.9,698.94" style="fill:none;fill-rule:nonzero;stroke:black;stroke-width:0.72px;"/>
    </g>
    <g transform="matrix(1.15485,-0.666412,-0.666412,-1.15485,482.165,1131.88)">
        <path d="M350.926,686.58L370.854,686.58" style="fill:none;fill-rule:nonzero;stroke:black;stroke-width:0.72px;"/>
    </g>
    <g transform="matrix(1.15468,-0.666702,-0.666702,-1.15468,499.262,1115.03)">
        <path d="M333.676,716.46L353.594,716.46" style="fill:none;fill-rule:nonzero;stroke:black;stroke-width:0.72px;"/>
    </g>
    <g transform="matrix(1.15468,0.666702,0.666702,-1.15468,-436.147,662.161)">
        <path d="M333.676,686.58L353.594,686.58" style="fill:none;fill-rule:nonzero;stroke:black;stroke-width:0.72px;"/>
    </g>
    <g transform="matrix(0,-1.33333,-1.33333,0,1342.25,525.243)">
        <path d="M325.05,701.52L344.97,701.52" style="fill:none;fill-rule:nonzero;stroke:black;stroke-width:0.72px;"/>
    </g>
    <g transform="matrix(1.15468,0.666702,0.666702,-1.15468,-469.824,628.476)">
        <path d="M368.186,746.34L388.104,746.34" style="fill:none;fill-rule:nonzero;stroke:black;stroke-width:0.72px;"/>
    </g>
    <g transform="matrix(1.15485,-0.666412,-0.666412,-1.15485,521.99,1121.21)">
        <path d="M350.926,746.34L370.854,746.34" style="fill:none;fill-rule:nonzero;stroke:black;stroke-width:0.72px;"/>
    </g>
    <g transform="matrix(1.1547,0.666669,0.666669,-1.1547,-454.297,646.675)">
        <path d="M351.29,717.82L365.77,717.82" style="fill:none;fill-rule:nonzero;stroke:black;stroke-width:0.72px;"/>
    </g>
    <g transform="matrix(0,-1.33333,-1.33333,0,1405.09,508.403)">
        <path d="M342.3,731.4L362.22,731.4" style="fill:none;fill-rule:nonzero;stroke:black;stroke-width:0.72px;"/>
    </g>
    <g transform="matrix(0,-1.33333,-1.33333,0,1497.1,600.416)">
        <path d="M411.31,731.4L431.23,731.4" style="fill:none;fill-rule:nonzero;stroke:black;stroke-width:0.72px;"/>
    </g>
    <g transform="matrix(1.15468,0.666702,0.666702,-1.15468,-463.661,605.475)">
        <path d="M402.686,746.34L422.604,746.34" style="fill:none;fill-rule:nonzero;stroke:black;stroke-width:0.72px;"/>
    </g>
    <g transform="matrix(1.15458,0.666876,0.666876,-1.15458,-462.109,606.969)">
        <path d="M402.668,743.43L419.262,743.43" style="fill:none;fill-rule:nonzero;stroke:black;stroke-width:0.72px;"/>
    </g>
    <g transform="matrix(1.15468,-0.666702,-0.666702,-1.15468,511.591,1161.04)">
        <path d="M402.686,716.46L422.604,716.46" style="fill:none;fill-rule:nonzero;stroke:black;stroke-width:0.72px;"/>
    </g>
    <g transform="matrix(1.15458,-0.666876,-0.666876,-1.15458,513.398,1159.4)">
        <path d="M402.668,719.37L419.262,719.37" style="fill:none;fill-rule:nonzero;stroke:black;stroke-width:0.72px;"/>
    </g>
    <g transform="matrix(1.15468,-0.666702,-0.666702,-1.15468,528.431,1144.2)">
        <path d="M385.436,746.34L405.354,746.34" style="fill:none;fill-rule:nonzero;stroke:black;stroke-width:0.72px;"/>
    </g>
    <g transform="matrix(1.15476,0.666557,0.666557,-1.15476,-445.502,621.184)">
        <path d="M390.209,715.18L405.011,715.18" style="fill:none;fill-rule:nonzero;stroke:black;stroke-width:0.72px;"/>
    </g>
    <g transform="matrix(0,-1.33333,-1.33333,0,1454.46,551.056)">
        <path d="M379.33,733.92L394.21,733.92" style="fill:none;fill-rule:nonzero;stroke:black;stroke-width:0.72px;"/>
    </g>
    <g transform="matrix(0,-1.33333,-1.33333,0,1461.19,553.283)">
        <path d="M386.04,735.61L394.22,735.61" style="fill:none;fill-rule:nonzero;stroke:black;stroke-width:0.72px;"/>
    </g>
    <g transform="matrix(1.1549,-0.666323,-0.666323,-1.1549,532.853,1165.84)">
        <path d="M420.311,744.94L434.639,744.94" style="fill:none;fill-rule:nonzero;stroke:black;stroke-width:0.72px;"/>
    </g>
    <g transform="matrix(1.15496,0.66621,0.66621,-1.15496,-457.135,582.785)">
        <path d="M442.927,746.215L451.793,746.215" style="fill:none;fill-rule:nonzero;stroke:black;stroke-width:0.72px;"/>
    </g>
    <g transform="matrix(-1.15485,0.666401,0.666401,1.15485,283.253,-880.411)">
        <path d="M304.057,677.93L318.743,677.93" style="fill:none;fill-rule:nonzero;stroke:black;stroke-width:0.72px;"/>
    </g>
    <g transform="matrix(1.15451,0.666991,0.666991,-1.15451,-434.073,676.579)">
        <path d="M316.794,677.995L331.206,677.995" style="fill:none;fill-rule:nonzero;stroke:black;stroke-width:0.72px;"/>
    </g>
    <g transform="matrix(0,1.33333,1.33333,0,-392.275,-319.677)">
        <path d="M351,632.28L384.84,632.28" style="fill:none;fill-rule:nonzero;stroke:black;stroke-width:0.72px;"/>
    </g>
    <g transform="matrix(0,1.33333,1.33333,0,-388.435,-323.517)">
        <path d="M353.88,632.28L387.72,632.28" style="fill:none;fill-rule:nonzero;stroke:black;stroke-width:0.72px;"/>
    </g>
    <g transform="matrix(1.33333,0,0,1.33333,-39.7946,-628.637)">
        <path d="M372.96,612L369.36,619.92L365.76,612" style="fill:none;fill-rule:nonzero;stroke:black;stroke-width:0.72px;"/>
    </g>
    <g transform="matrix(1.15451,0.666991,0.666991,-1.15451,-351.848,699.481)">
        <path d="M315.594,554.395L330.006,554.395" style="fill:none;fill-rule:nonzero;stroke:black;stroke-width:0.72px;"/>
    </g>
    <g transform="matrix(1.15468,-0.666702,-0.666702,-1.15468,367.079,1137.26)">
        <path d="M315.226,523.14L335.144,523.14" style="fill:none;fill-rule:nonzero;stroke:black;stroke-width:0.72px;"/>
    </g>
    <g transform="matrix(1.15468,-0.666702,-0.666702,-1.15468,383.919,1120.42)">
        <path d="M297.976,553.02L317.894,553.02" style="fill:none;fill-rule:nonzero;stroke:black;stroke-width:0.72px;"/>
    </g>
    <g transform="matrix(1.15468,0.666702,0.666702,-1.15468,-333.56,715.161)">
        <path d="M297.976,523.14L317.894,523.14" style="fill:none;fill-rule:nonzero;stroke:black;stroke-width:0.72px;"/>
    </g>
    <g transform="matrix(0,-1.33333,-1.33333,0,1076.73,695.563)">
        <path d="M289.35,538.08L309.27,538.08" style="fill:none;fill-rule:nonzero;stroke:black;stroke-width:0.72px;"/>
    </g>
    <g transform="matrix(0,-1.33333,-1.33333,0,1168.74,787.576)">
        <path d="M358.36,538.08L378.28,538.08" style="fill:none;fill-rule:nonzero;stroke:black;stroke-width:0.72px;"/>
    </g>
    <g transform="matrix(1.15485,-0.666412,-0.666412,-1.15485,373.032,1160.25)">
        <path d="M349.726,523.14L369.654,523.14" style="fill:none;fill-rule:nonzero;stroke:black;stroke-width:0.72px;"/>
    </g>
    <g transform="matrix(1.15468,0.666702,0.666702,-1.15468,-327.396,692.16)">
        <path d="M332.476,523.14L352.394,523.14" style="fill:none;fill-rule:nonzero;stroke:black;stroke-width:0.72px;"/>
    </g>
    <g transform="matrix(0,-1.33333,-1.33333,0,1119.29,745.003)">
        <path d="M326.43,535.5L341.19,535.5" style="fill:none;fill-rule:nonzero;stroke:black;stroke-width:0.72px;"/>
    </g>
    <g transform="matrix(1.15468,0.666702,0.666702,-1.15468,-361.073,658.476)">
        <path d="M366.986,582.9L386.904,582.9" style="fill:none;fill-rule:nonzero;stroke:black;stroke-width:0.72px;"/>
    </g>
    <g transform="matrix(1.15485,-0.666412,-0.666412,-1.15485,412.857,1149.58)">
        <path d="M349.726,582.9L369.654,582.9" style="fill:none;fill-rule:nonzero;stroke:black;stroke-width:0.72px;"/>
    </g>
    <g transform="matrix(1.15485,0.666412,0.666412,-1.15485,-344.134,675.514)">
        <path d="M349.726,553.02L369.654,553.02" style="fill:none;fill-rule:nonzero;stroke:black;stroke-width:0.72px;"/>
    </g>
    <g transform="matrix(1.15463,0.666781,0.666781,-1.15463,-345.497,673.221)">
        <path d="M352.957,555.515L371.213,555.515" style="fill:none;fill-rule:nonzero;stroke:black;stroke-width:0.72px;"/>
    </g>
    <g transform="matrix(0,-1.33333,-1.33333,0,1185.57,724.723)">
        <path d="M341.1,567.96L361.02,567.96" style="fill:none;fill-rule:nonzero;stroke:black;stroke-width:0.72px;"/>
    </g>
    <g transform="matrix(0,-1.33333,-1.33333,0,1277.58,816.736)">
        <path d="M410.11,567.96L430.03,567.96" style="fill:none;fill-rule:nonzero;stroke:black;stroke-width:0.72px;"/>
    </g>
    <g transform="matrix(1.15468,0.666702,0.666702,-1.15468,-354.909,635.474)">
        <path d="M401.486,582.9L421.404,582.9" style="fill:none;fill-rule:nonzero;stroke:black;stroke-width:0.72px;"/>
    </g>
    <g transform="matrix(1.15458,0.666876,0.666876,-1.15458,-353.329,636.985)">
        <path d="M401.468,579.99L418.062,579.99" style="fill:none;fill-rule:nonzero;stroke:black;stroke-width:0.72px;"/>
    </g>
    <g transform="matrix(1.15468,-0.666702,-0.666702,-1.15468,402.411,1189.44)">
        <path d="M401.486,553.02L421.404,553.02" style="fill:none;fill-rule:nonzero;stroke:black;stroke-width:0.72px;"/>
    </g>
    <g transform="matrix(1.15458,-0.666876,-0.666876,-1.15458,404.189,1187.81)">
        <path d="M401.468,555.93L418.062,555.93" style="fill:none;fill-rule:nonzero;stroke:black;stroke-width:0.72px;"/>
    </g>
    <g transform="matrix(1.15468,-0.666702,-0.666702,-1.15468,419.25,1172.6)">
        <path d="M384.236,582.9L404.154,582.9" style="fill:none;fill-rule:nonzero;stroke:black;stroke-width:0.72px;"/>
    </g>
    <g transform="matrix(1.15468,0.666702,0.666702,-1.15468,-338.07,652.313)">
        <path d="M384.236,553.02L404.154,553.02" style="fill:none;fill-rule:nonzero;stroke:black;stroke-width:0.72px;"/>
    </g>
    <g transform="matrix(0,-1.33333,-1.33333,0,1231.58,770.736)">
        <path d="M375.61,567.96L395.53,567.96" style="fill:none;fill-rule:nonzero;stroke:black;stroke-width:0.72px;"/>
    </g>
    <g transform="matrix(0,-1.33333,-1.33333,0,1236.06,775.216)">
        <path d="M380.63,567.96L397.23,567.96" style="fill:none;fill-rule:nonzero;stroke:black;stroke-width:0.72px;"/>
    </g>
    <g transform="matrix(1.1549,-0.666323,-0.666323,-1.1549,423.735,1194.2)">
        <path d="M419.111,581.5L433.439,581.5" style="fill:none;fill-rule:nonzero;stroke:black;stroke-width:0.72px;"/>
    </g>
    <g transform="matrix(1.15496,0.66621,0.66621,-1.15496,-348.464,612.737)">
        <path d="M441.727,582.775L450.593,582.775" style="fill:none;fill-rule:nonzero;stroke:black;stroke-width:0.72px;"/>
    </g>
    <g transform="matrix(-1.15485,0.666401,0.666401,1.15485,389.184,-472.942)">
        <path d="M302.857,514.49L317.543,514.49" style="fill:none;fill-rule:nonzero;stroke:black;stroke-width:0.72px;"/>
    </g>
    <g transform="matrix(1.15451,0.666991,0.666991,-1.15451,-325.275,706.605)">
        <path d="M315.594,514.555L330.006,514.555" style="fill:none;fill-rule:nonzero;stroke:black;stroke-width:0.72px;"/>
    </g>
    <g transform="matrix(1.33333,0,0,1.33333,-39.7946,-402.077)">
        <path d="M316.56,540L315.36,538.8L314.4,537.36L313.68,535.92L313.2,534L312.96,532.32L313.2,531.12L313.44,530.16L313.68,528.96L315.12,526.08L316.56,524.64L317.52,523.92L320.4,522.48L321.6,522.24L322.8,522.24L323.28,522L326.88,522.72L328.08,523.2L330,524.64" style="fill:none;fill-rule:nonzero;stroke:black;stroke-width:0.48px;"/>
    </g>
    <g transform="matrix(1.01785,0.861256,0.861256,-1.01785,-402.05,562.86)">
        <path d="M322.566,540.62L330.74,540.62L323.425,536.632L324.482,539.098L322.566,540.62Z" style="stroke:black;stroke-width:0.48px;"/>
    </g>
    <g transform="matrix(0,1.33333,1.33333,0,-181.715,-107.197)">
        <path d="M349.56,473.64L384.84,473.64" style="fill:none;fill-rule:nonzero;stroke:black;stroke-width:0.72px;"/>
    </g>
    <g transform="matrix(0,1.33333,1.33333,0,-177.875,-111.037)">
        <path d="M352.44,473.64L387.72,473.64" style="fill:none;fill-rule:nonzero;stroke:black;stroke-width:0.72px;"/>
    </g>
    <g transform="matrix(1.33333,0,0,1.33333,-39.7946,-203.677)">
        <path d="M372.24,452.64L368.64,460.56L365.04,452.64" style="fill:none;fill-rule:nonzero;stroke:black;stroke-width:0.72px;"/>
    </g>
    <g transform="matrix(1.15468,0.666702,0.666702,-1.15468,-239.79,727.79)">
        <path d="M315.466,387.18L335.384,387.18" style="fill:none;fill-rule:nonzero;stroke:black;stroke-width:0.72px;"/>
    </g>
    <g transform="matrix(1.15468,-0.666702,-0.666702,-1.15468,273.396,1150.21)">
        <path d="M298.216,387.18L318.134,387.18" style="fill:none;fill-rule:nonzero;stroke:black;stroke-width:0.72px;"/>
    </g>
    <g transform="matrix(1.15462,0.666805,0.666805,-1.15462,-224.322,745.929)">
        <path d="M298.586,358.685L312.964,358.685" style="fill:none;fill-rule:nonzero;stroke:black;stroke-width:0.72px;"/>
    </g>
    <g transform="matrix(0,-1.33333,-1.33333,0,855.925,917.003)">
        <path d="M289.59,372.24L309.51,372.24" style="fill:none;fill-rule:nonzero;stroke:black;stroke-width:0.72px;"/>
    </g>
    <g transform="matrix(0,-1.33333,-1.33333,0,947.939,1009.02)">
        <path d="M358.6,372.24L378.52,372.24" style="fill:none;fill-rule:nonzero;stroke:black;stroke-width:0.72px;"/>
    </g>
    <g transform="matrix(1.15485,-0.666412,-0.666412,-1.15485,262.557,1190.01)">
        <path d="M349.966,357.3L369.894,357.3" style="fill:none;fill-rule:nonzero;stroke:black;stroke-width:0.72px;"/>
    </g>
    <g transform="matrix(1.15468,0.666702,0.666702,-1.15468,-216.787,721.628)">
        <path d="M332.716,357.3L352.634,357.3" style="fill:none;fill-rule:nonzero;stroke:black;stroke-width:0.72px;"/>
    </g>
    <g transform="matrix(0,-1.33333,-1.33333,0,901.925,963.003)">
        <path d="M324.09,372.24L344.01,372.24" style="fill:none;fill-rule:nonzero;stroke:black;stroke-width:0.72px;"/>
    </g>
    <g transform="matrix(0,-1.33333,-1.33333,0,896.339,959.629)">
        <path d="M321.56,371.41L339.82,371.41" style="fill:none;fill-rule:nonzero;stroke:black;stroke-width:0.72px;"/>
    </g>
    <g transform="matrix(1.15468,0.666702,0.666702,-1.15468,-250.464,687.943)">
        <path d="M367.226,417.06L387.144,417.06" style="fill:none;fill-rule:nonzero;stroke:black;stroke-width:0.72px;"/>
    </g>
    <g transform="matrix(1.15485,-0.666412,-0.666412,-1.15485,302.382,1179.35)">
        <path d="M349.966,417.06L369.894,417.06" style="fill:none;fill-rule:nonzero;stroke:black;stroke-width:0.72px;"/>
    </g>
    <g transform="matrix(1.15485,0.666412,0.666412,-1.15485,-233.574,704.955)">
        <path d="M349.966,387.18L369.894,387.18" style="fill:none;fill-rule:nonzero;stroke:black;stroke-width:0.72px;"/>
    </g>
    <g transform="matrix(1.15463,0.666781,0.666781,-1.15463,-234.875,702.697)">
        <path d="M353.197,389.675L371.453,389.675" style="fill:none;fill-rule:nonzero;stroke:black;stroke-width:0.72px;"/>
    </g>
    <g transform="matrix(0,-1.33333,-1.33333,0,964.765,946.163)">
        <path d="M341.34,402.12L361.26,402.12" style="fill:none;fill-rule:nonzero;stroke:black;stroke-width:0.72px;"/>
    </g>
    <g transform="matrix(0,-1.33333,-1.33333,0,1056.78,1038.18)">
        <path d="M410.35,402.12L430.27,402.12" style="fill:none;fill-rule:nonzero;stroke:black;stroke-width:0.72px;"/>
    </g>
    <g transform="matrix(1.15468,0.666702,0.666702,-1.15468,-244.301,664.942)">
        <path d="M401.726,417.06L421.644,417.06" style="fill:none;fill-rule:nonzero;stroke:black;stroke-width:0.72px;"/>
    </g>
    <g transform="matrix(1.15458,0.666876,0.666876,-1.15458,-242.691,666.469)">
        <path d="M401.708,414.15L418.302,414.15" style="fill:none;fill-rule:nonzero;stroke:black;stroke-width:0.72px;"/>
    </g>
    <g transform="matrix(1.15468,-0.666702,-0.666702,-1.15468,291.888,1219.22)">
        <path d="M401.726,387.18L421.644,387.18" style="fill:none;fill-rule:nonzero;stroke:black;stroke-width:0.72px;"/>
    </g>
    <g transform="matrix(1.15458,-0.666876,-0.666876,-1.15458,293.637,1217.62)">
        <path d="M401.708,390.09L418.302,390.09" style="fill:none;fill-rule:nonzero;stroke:black;stroke-width:0.72px;"/>
    </g>
    <g transform="matrix(1.15468,-0.666702,-0.666702,-1.15468,308.727,1202.38)">
        <path d="M384.476,417.06L404.394,417.06" style="fill:none;fill-rule:nonzero;stroke:black;stroke-width:0.72px;"/>
    </g>
    <g transform="matrix(1.15468,0.666702,0.666702,-1.15468,-227.461,681.781)">
        <path d="M384.476,387.18L404.394,387.18" style="fill:none;fill-rule:nonzero;stroke:black;stroke-width:0.72px;"/>
    </g>
    <g transform="matrix(0,-1.33333,-1.33333,0,1010.78,992.176)">
        <path d="M375.85,402.12L395.77,402.12" style="fill:none;fill-rule:nonzero;stroke:black;stroke-width:0.72px;"/>
    </g>
    <g transform="matrix(0,-1.33333,-1.33333,0,1015.26,996.656)">
        <path d="M380.87,402.12L397.47,402.12" style="fill:none;fill-rule:nonzero;stroke:black;stroke-width:0.72px;"/>
    </g>
    <g transform="matrix(1.1549,-0.666323,-0.666323,-1.1549,313.275,1223.95)">
        <path d="M419.351,415.66L433.679,415.66" style="fill:none;fill-rule:nonzero;stroke:black;stroke-width:0.72px;"/>
    </g>
    <g transform="matrix(1.15496,0.66621,0.66621,-1.15496,-237.937,642.158)">
        <path d="M441.967,416.935L450.833,416.935" style="fill:none;fill-rule:nonzero;stroke:black;stroke-width:0.72px;"/>
    </g>
    <g transform="matrix(-1.15487,0.666381,0.666381,1.15487,495.259,-55.4137)">
        <path d="M303.468,347.265L312.612,347.265" style="fill:none;fill-rule:nonzero;stroke:black;stroke-width:0.72px;"/>
    </g>
    <g transform="matrix(1.15416,0.667602,0.667602,-1.15416,-213.499,734.561)">
        <path d="M320.487,347.47L329.913,347.47" style="fill:none;fill-rule:nonzero;stroke:black;stroke-width:0.72px;"/>
    </g>
    <g transform="matrix(1.33333,-0.00130208,-0.00130208,-1.33333,-39.3858,1014.38)">
        <path d="M230.4,313.8L476.16,313.8" style="fill:none;fill-rule:nonzero;stroke:black;stroke-width:0.48px;"/>
    </g>
    <g transform="matrix(1.33333,-0.00130208,-0.00130208,-1.33333,-39.3808,1014.38)">
        <path d="M230.4,317.64L476.16,317.64" style="fill:none;fill-rule:nonzero;stroke:black;stroke-width:0.48px;"/>
    </g>
    <g transform="matrix(0,1.33333,1.33333,0,-129.875,321.603)">
        <path d="M205.56,293.4L246.12,293.4" style="fill:none;fill-rule:nonzero;stroke:black;stroke-width:0.48px;"/>
    </g>
    <g transform="matrix(0,1.33333,1.33333,0,-124.755,316.483)">
        <path d="M209.4,293.4L249.96,293.4" style="fill:none;fill-rule:nonzero;stroke:black;stroke-width:0.48px;"/>
    </g>
    <g transform="matrix(1.33333,0,0,1.33333,-39.7946,285.603)">
        <path d="M231.84,269.04L227.76,277.2L223.68,269.04" style="fill:none;fill-rule:nonzero;stroke:black;stroke-width:0.48px;"/>
    </g>
    <g transform="matrix(0,1.33333,1.33333,0,197.165,-16.9574)">
        <path d="M458.76,297.72L492.12,297.72" style="fill:none;fill-rule:nonzero;stroke:black;stroke-width:0.48px;"/>
    </g>
    <g transform="matrix(0,1.33333,1.33333,0,202.285,-22.0774)">
        <path d="M462.6,297.72L495.96,297.72" style="fill:none;fill-rule:nonzero;stroke:black;stroke-width:0.48px;"/>
    </g>
    <g transform="matrix(1.33333,0,0,1.33333,-39.7946,264.483)">
        <path d="M481.44,276.96L477.36,285.12L473.28,276.96" style="fill:none;fill-rule:nonzero;stroke:black;stroke-width:0.48px;"/>
    </g>
    <g transform="matrix(1.33333,0,0,1.33333,-39.7946,171.363)">
        <path d="M475.68,313.68L476.16,313.68L477.12,313.92L478.08,314.4L478.8,315.36L479.28,316.32L479.28,317.04L479.04,318.24" style="fill:none;fill-rule:nonzero;stroke:black;stroke-width:0.48px;"/>
    </g>
    <g transform="matrix(1.33333,0,0,1.33333,-39.7946,171.043)">
        <path d="M225.6,318.24L225.6,316.56L227.04,314.64L228,314.16L228.48,314.16L229.2,313.92L230.4,314.16" style="fill:none;fill-rule:nonzero;stroke:black;stroke-width:0.48px;"/>
    </g>
    <g transform="matrix(1.15468,0.666702,0.666702,-1.15468,-147.976,866.118)">
        <path d="M156.316,206.82L176.234,206.82" style="fill:none;fill-rule:nonzero;stroke:black;stroke-width:0.72px;"/>
    </g>
    <g transform="matrix(1.15468,-0.666702,-0.666702,-1.15468,124.717,1076.33)">
        <path d="M139.066,206.82L158.984,206.82" style="fill:none;fill-rule:nonzero;stroke:black;stroke-width:0.72px;"/>
    </g>
    <g transform="matrix(1.15434,0.667297,0.667297,-1.15434,-131.48,884.736)">
        <path d="M138.527,176.62L153.913,176.62" style="fill:none;fill-rule:nonzero;stroke:black;stroke-width:0.72px;"/>
    </g>
    <g transform="matrix(1.15472,0.66664,0.66664,-1.15472,-133.529,883.734)">
        <path d="M140.34,180.01L153.78,180.01" style="fill:none;fill-rule:nonzero;stroke:black;stroke-width:0.72px;"/>
    </g>
    <g transform="matrix(0,-1.33333,-1.33333,0,403.245,945.283)">
        <path d="M130.44,191.88L150.36,191.88" style="fill:none;fill-rule:nonzero;stroke:black;stroke-width:0.72px;"/>
    </g>
    <g transform="matrix(0,-1.33333,-1.33333,0,495.259,1037.3)">
        <path d="M199.45,191.88L219.37,191.88" style="fill:none;fill-rule:nonzero;stroke:black;stroke-width:0.72px;"/>
    </g>
    <g transform="matrix(1.15485,-0.666412,-0.666412,-1.15485,113.957,1116.14)">
        <path d="M190.816,176.94L210.744,176.94" style="fill:none;fill-rule:nonzero;stroke:black;stroke-width:0.72px;"/>
    </g>
    <g transform="matrix(1.15468,0.666702,0.666702,-1.15468,-124.974,859.955)">
        <path d="M173.566,176.94L193.484,176.94" style="fill:none;fill-rule:nonzero;stroke:black;stroke-width:0.72px;"/>
    </g>
    <g transform="matrix(0,-1.33333,-1.33333,0,449.245,991.283)">
        <path d="M164.94,191.88L184.86,191.88" style="fill:none;fill-rule:nonzero;stroke:black;stroke-width:0.72px;"/>
    </g>
    <g transform="matrix(0,-1.33333,-1.33333,0,443.659,987.909)">
        <path d="M162.41,191.05L180.67,191.05" style="fill:none;fill-rule:nonzero;stroke:black;stroke-width:0.72px;"/>
    </g>
    <g transform="matrix(1.15468,0.666702,0.666702,-1.15468,-158.65,826.271)">
        <path d="M208.076,236.7L227.994,236.7" style="fill:none;fill-rule:nonzero;stroke:black;stroke-width:0.72px;"/>
    </g>
    <g transform="matrix(1.15468,-0.666702,-0.666702,-1.15468,153.885,1105.5)">
        <path d="M190.826,236.7L210.744,236.7" style="fill:none;fill-rule:nonzero;stroke:black;stroke-width:0.72px;"/>
    </g>
    <g transform="matrix(1.15485,0.666412,0.666412,-1.15485,-141.786,843.206)">
        <path d="M190.816,206.82L210.744,206.82" style="fill:none;fill-rule:nonzero;stroke:black;stroke-width:0.72px;"/>
    </g>
    <g transform="matrix(1.15482,0.666465,0.666465,-1.15482,-143.025,841.144)">
        <path d="M194.047,209.315L212.313,209.315" style="fill:none;fill-rule:nonzero;stroke:black;stroke-width:0.72px;"/>
    </g>
    <g transform="matrix(0.000669344,-1.33333,-1.33333,-0.000669344,511.963,974.598)">
        <path d="M182.195,221.76L202.115,221.76" style="fill:none;fill-rule:nonzero;stroke:black;stroke-width:0.72px;"/>
    </g>
    <g transform="matrix(0,-1.33333,-1.33333,0,604.099,1066.46)">
        <path d="M251.2,221.76L271.12,221.76" style="fill:none;fill-rule:nonzero;stroke:black;stroke-width:0.72px;"/>
    </g>
    <g transform="matrix(1.15468,0.666702,0.666702,-1.15468,-152.487,803.27)">
        <path d="M242.576,236.7L262.494,236.7" style="fill:none;fill-rule:nonzero;stroke:black;stroke-width:0.72px;"/>
    </g>
    <g transform="matrix(1.15458,0.666876,0.666876,-1.15458,-150.862,804.843)">
        <path d="M242.558,233.79L259.152,233.79" style="fill:none;fill-rule:nonzero;stroke:black;stroke-width:0.72px;"/>
    </g>
    <g transform="matrix(1.15468,-0.666702,-0.666702,-1.15468,143.209,1145.34)">
        <path d="M242.576,206.82L262.494,206.82" style="fill:none;fill-rule:nonzero;stroke:black;stroke-width:0.72px;"/>
    </g>
    <g transform="matrix(1.15458,-0.666876,-0.666876,-1.15458,144.911,1143.72)">
        <path d="M242.558,209.73L259.152,209.73" style="fill:none;fill-rule:nonzero;stroke:black;stroke-width:0.72px;"/>
    </g>
    <g transform="matrix(1.15468,-0.666702,-0.666702,-1.15468,160.048,1128.5)">
        <path d="M225.326,236.7L245.244,236.7" style="fill:none;fill-rule:nonzero;stroke:black;stroke-width:0.72px;"/>
    </g>
    <g transform="matrix(1.15468,0.666702,0.666702,-1.15468,-135.647,820.109)">
        <path d="M225.326,206.82L245.244,206.82" style="fill:none;fill-rule:nonzero;stroke:black;stroke-width:0.72px;"/>
    </g>
    <g transform="matrix(0,-1.33333,-1.33333,0,558.099,1020.46)">
        <path d="M216.7,221.76L236.62,221.76" style="fill:none;fill-rule:nonzero;stroke:black;stroke-width:0.72px;"/>
    </g>
    <g transform="matrix(0,-1.33333,-1.33333,0,562.579,1024.94)">
        <path d="M221.72,221.76L238.32,221.76" style="fill:none;fill-rule:nonzero;stroke:black;stroke-width:0.72px;"/>
    </g>
    <g transform="matrix(1.15479,-0.666511,-0.666511,-1.15479,164.781,1150.12)">
        <path d="M260.198,235.31L274.562,235.31" style="fill:none;fill-rule:nonzero;stroke:black;stroke-width:0.72px;"/>
    </g>
    <g transform="matrix(1.1544,0.667192,0.667192,-1.1544,-146.289,779.99)">
        <path d="M282.863,236.63L291.457,236.63" style="fill:none;fill-rule:nonzero;stroke:black;stroke-width:0.72px;"/>
    </g>
    <g transform="matrix(-1.15485,0.666401,0.666401,1.15485,174.936,481.079)">
        <path d="M126.697,178.25L141.383,178.25" style="fill:none;fill-rule:nonzero;stroke:black;stroke-width:0.72px;"/>
    </g>
    <g transform="matrix(1.15468,0.666702,0.666702,-1.15468,-108.406,713.969)">
        <path d="M384.076,208.5L403.994,208.5" style="fill:none;fill-rule:nonzero;stroke:black;stroke-width:0.72px;"/>
    </g>
    <g transform="matrix(1.15468,-0.666702,-0.666702,-1.15468,166.527,1227.88)">
        <path d="M366.826,208.5L386.744,208.5" style="fill:none;fill-rule:nonzero;stroke:black;stroke-width:0.72px;"/>
    </g>
    <g transform="matrix(1.15451,0.666991,0.666991,-1.15451,-92.8994,732.015)">
        <path d="M367.194,179.995L381.606,179.995" style="fill:none;fill-rule:nonzero;stroke:black;stroke-width:0.72px;"/>
    </g>
    <g transform="matrix(0,-1.33333,-1.33333,0,709.165,1246.72)">
        <path d="M358.2,193.56L378.12,193.56" style="fill:none;fill-rule:nonzero;stroke:black;stroke-width:0.72px;"/>
    </g>
    <g transform="matrix(0,-1.33333,-1.33333,0,713.645,1251.2)">
        <path d="M363.22,193.56L379.82,193.56" style="fill:none;fill-rule:nonzero;stroke:black;stroke-width:0.72px;"/>
    </g>
    <g transform="matrix(0,-1.33333,-1.33333,0,801.179,1338.74)">
        <path d="M427.21,193.56L447.13,193.56" style="fill:none;fill-rule:nonzero;stroke:black;stroke-width:0.72px;"/>
    </g>
    <g transform="matrix(1.15485,-0.666412,-0.666412,-1.15485,155.728,1267.63)">
        <path d="M418.576,178.62L438.504,178.62" style="fill:none;fill-rule:nonzero;stroke:black;stroke-width:0.72px;"/>
    </g>
    <g transform="matrix(1.15468,0.666702,0.666702,-1.15468,-85.4035,707.807)">
        <path d="M401.326,178.62L421.244,178.62" style="fill:none;fill-rule:nonzero;stroke:black;stroke-width:0.72px;"/>
    </g>
    <g transform="matrix(0,-1.33333,-1.33333,0,755.165,1292.72)">
        <path d="M392.7,193.56L412.62,193.56" style="fill:none;fill-rule:nonzero;stroke:black;stroke-width:0.72px;"/>
    </g>
    <g transform="matrix(0,-1.33333,-1.33333,0,749.579,1289.35)">
        <path d="M390.17,192.73L408.43,192.73" style="fill:none;fill-rule:nonzero;stroke:black;stroke-width:0.72px;"/>
    </g>
    <g transform="matrix(1.15468,0.666702,0.666702,-1.15468,-119.08,674.123)">
        <path d="M435.836,238.38L455.754,238.38" style="fill:none;fill-rule:nonzero;stroke:black;stroke-width:0.72px;"/>
    </g>
    <g transform="matrix(1.15468,-0.666702,-0.666702,-1.15468,195.695,1257.05)">
        <path d="M418.586,238.38L438.504,238.38" style="fill:none;fill-rule:nonzero;stroke:black;stroke-width:0.72px;"/>
    </g>
    <g transform="matrix(1.15485,0.666412,0.666412,-1.15485,-102.253,691.124)">
        <path d="M418.576,208.5L438.504,208.5" style="fill:none;fill-rule:nonzero;stroke:black;stroke-width:0.72px;"/>
    </g>
    <g transform="matrix(1.15482,0.666465,0.666465,-1.15482,-103.486,689.05)">
        <path d="M421.807,210.995L440.073,210.995" style="fill:none;fill-rule:nonzero;stroke:black;stroke-width:0.72px;"/>
    </g>
    <g transform="matrix(0.000669344,-1.33333,-1.33333,-0.000669344,817.731,1276.04)">
        <path d="M409.955,223.44L429.875,223.44" style="fill:none;fill-rule:nonzero;stroke:black;stroke-width:0.72px;"/>
    </g>
    <g transform="matrix(0,-1.33333,-1.33333,0,910.019,1367.9)">
        <path d="M478.96,223.44L498.88,223.44" style="fill:none;fill-rule:nonzero;stroke:black;stroke-width:0.72px;"/>
    </g>
    <g transform="matrix(1.15468,0.666702,0.666702,-1.15468,-112.917,651.122)">
        <path d="M470.336,238.38L490.254,238.38" style="fill:none;fill-rule:nonzero;stroke:black;stroke-width:0.72px;"/>
    </g>
    <g transform="matrix(1.15458,0.666876,0.666876,-1.15458,-111.27,652.655)">
        <path d="M470.318,235.47L486.912,235.47" style="fill:none;fill-rule:nonzero;stroke:black;stroke-width:0.72px;"/>
    </g>
    <g transform="matrix(1.15468,-0.666702,-0.666702,-1.15468,185.019,1296.89)">
        <path d="M470.336,208.5L490.254,208.5" style="fill:none;fill-rule:nonzero;stroke:black;stroke-width:0.72px;"/>
    </g>
    <g transform="matrix(1.15458,-0.666876,-0.666876,-1.15458,186.744,1295.31)">
        <path d="M470.318,211.41L486.912,211.41" style="fill:none;fill-rule:nonzero;stroke:black;stroke-width:0.72px;"/>
    </g>
    <g transform="matrix(1.15468,-0.666702,-0.666702,-1.15468,201.858,1280.05)">
        <path d="M453.086,238.38L473.004,238.38" style="fill:none;fill-rule:nonzero;stroke:black;stroke-width:0.72px;"/>
    </g>
    <g transform="matrix(1.15468,0.666702,0.666702,-1.15468,-96.0775,667.96)">
        <path d="M453.086,208.5L473.004,208.5" style="fill:none;fill-rule:nonzero;stroke:black;stroke-width:0.72px;"/>
    </g>
    <g transform="matrix(0,-1.33333,-1.33333,0,864.019,1321.9)">
        <path d="M444.46,223.44L464.38,223.44" style="fill:none;fill-rule:nonzero;stroke:black;stroke-width:0.72px;"/>
    </g>
    <g transform="matrix(0,-1.33333,-1.33333,0,868.499,1326.38)">
        <path d="M449.48,223.44L466.08,223.44" style="fill:none;fill-rule:nonzero;stroke:black;stroke-width:0.72px;"/>
    </g>
    <g transform="matrix(1.15479,-0.666511,-0.666511,-1.15479,206.566,1301.63)">
        <path d="M487.958,236.99L502.322,236.99" style="fill:none;fill-rule:nonzero;stroke:black;stroke-width:0.72px;"/>
    </g>
    <g transform="matrix(1.1544,0.667192,0.667192,-1.1544,-106.655,627.73)">
        <path d="M510.623,238.31L519.217,238.31" style="fill:none;fill-rule:nonzero;stroke:black;stroke-width:0.72px;"/>
    </g>
    <g transform="matrix(-1.15485,0.666401,0.666401,1.15485,740.526,325.119)">
        <path d="M354.457,179.93L369.143,179.93" style="fill:none;fill-rule:nonzero;stroke:black;stroke-width:0.72px;"/>
    </g>
</svg>
