<?xml version="1.0" encoding="UTF-8" standalone="no"?>
<!DOCTYPE svg PUBLIC "-//W3C//DTD SVG 1.1//EN" "http://www.w3.org/Graphics/SVG/1.1/DTD/svg11.dtd">
<svg width="100%" height="100%" viewBox="0 0 590 120" version="1.1" xmlns="http://www.w3.org/2000/svg" xmlns:xlink="http://www.w3.org/1999/xlink" xml:space="preserve" xmlns:serif="http://www.serif.com/" style="fill-rule:evenodd;clip-rule:evenodd;stroke-linecap:round;stroke-linejoin:round;stroke-miterlimit:10;">
    <g transform="matrix(1.33333,0,0,1.33333,-111.261,-86.0774)">
        <text x="137.52px" y="104.64px" style="font-family:'ArialMT', 'Arial', sans-serif;font-size:10px;">NH</text>
        <text x="151.92px" y="107.28px" style="font-family:'ArialMT', 'Arial', sans-serif;font-size:8px;">2</text>
    </g>
    <g transform="matrix(1.33333,0,0,1.33333,-111.261,-86.0774)">
        <text x="139.68px" y="144.72px" style="font-family:'ArialMT', 'Arial', sans-serif;font-size:10px;">I</text>
    </g>
    <g transform="matrix(1.33333,0,0,1.33333,-111.261,-86.0774)">
        <text x="262.56px" y="74.88px" style="font-family:'ArialMT', 'Arial', sans-serif;font-size:10px;">Cl</text>
        <text x="210.96px" y="84.72px" style="font-family:'ArialMT', 'Arial', sans-serif;font-size:10px;">C</text>
    </g>
    <g transform="matrix(1.33333,0,0,1.33333,-111.261,-86.0774)">
        <text x="199.44px" y="84.72px" style="font-family:'ArialMT', 'Arial', sans-serif;font-size:10px;">H</text>
        <text x="206.64px" y="87.36px" style="font-family:'ArialMT', 'Arial', sans-serif;font-size:8px;">2</text>
    </g>
    <g transform="matrix(1.33333,0,0,1.33333,-111.261,-86.0774)">
        <text x="245.28px" y="104.64px" style="font-family:'ArialMT', 'Arial', sans-serif;font-size:10px;">O</text>
    </g>
    <g transform="matrix(1.33333,0,0,1.33333,-111.261,-86.0774)">
        <text x="359.04px" y="99.6px" style="font-family:'ArialMT', 'Arial', sans-serif;font-size:10px;">N</text>
    </g>
    <g transform="matrix(1.33333,0,0,1.33333,-111.261,-86.0774)">
        <text x="366.24px" y="141.84px" style="font-family:'ArialMT', 'Arial', sans-serif;font-size:10px;">C</text>
    </g>
    <g transform="matrix(1.33333,0,0,1.33333,-111.261,-86.0774)">
        <text x="354.72px" y="141.84px" style="font-family:'ArialMT', 'Arial', sans-serif;font-size:10px;">H</text>
        <text x="361.92px" y="144.48px" style="font-family:'ArialMT', 'Arial', sans-serif;font-size:8px;">2</text>
    </g>
    <g transform="matrix(1.33333,0,0,1.33333,-111.261,-86.0774)">
        <text x="359.04px" y="79.44px" style="font-family:'ArialMT', 'Arial', sans-serif;font-size:10px;">H</text>
    </g>
    <g transform="matrix(1.33333,0,0,1.33333,-111.261,-86.0774)">
        <text x="393.36px" y="99.36px" style="font-family:'ArialMT', 'Arial', sans-serif;font-size:10px;">O</text>
    </g>
    <g transform="matrix(1.33333,0,0,1.33333,-111.261,-86.0774)">
        <text x="343.92px" y="149.28px" style="font-family:'ArialMT', 'Arial', sans-serif;font-size:10px;">I</text>
    </g>
    <g transform="matrix(1.33333,0,0,1.33333,-111.261,-86.0774)">
        <text x="430.32px" y="108.48px" style="font-family:'ArialMT', 'Arial', sans-serif;font-size:10px;">Pd<tspan x="442.654px 446.036px 452.757px " y="108.48px 108.48px 108.48px ">(PP</tspan>h</text>
        <text x="465.091px" y="111.12px" style="font-family:'ArialMT', 'Arial', sans-serif;font-size:6px;">3</text>
        <text x="468.459px" y="108.48px" style="font-family:'ArialMT', 'Arial', sans-serif;font-size:10px;">)</text>
        <text x="471.84px" y="111.12px" style="font-family:'ArialMT', 'Arial', sans-serif;font-size:6px;">4</text>
    </g>
    <g transform="matrix(1.33333,0,0,1.33333,-111.261,-86.0774)">
        <text x="494.64px" y="120.96px" style="font-family:'ArialMT', 'Arial', sans-serif;font-size:10px;">T<tspan x="500.88px " y="120.96px ">M</tspan></text>
    </g>
    <g transform="matrix(0,-1.33333,-1.33333,0,1015.74,240.283)">
        <path d="M114.09,721.2L134.01,721.2" style="fill:none;fill-rule:nonzero;stroke:black;stroke-width:0.72px;"/>
    </g>
    <g transform="matrix(0,-1.33333,-1.33333,0,1011.26,235.803)">
        <path d="M112.39,721.2L128.99,721.2" style="fill:none;fill-rule:nonzero;stroke:black;stroke-width:0.72px;"/>
    </g>
    <g transform="matrix(1.15468,0.666702,0.666702,-1.15468,-581.426,828.015)">
        <path d="M105.466,736.14L125.384,736.14" style="fill:none;fill-rule:nonzero;stroke:black;stroke-width:0.72px;"/>
    </g>
    <g transform="matrix(1.15468,-0.666702,-0.666702,-1.15468,380.225,987.261)">
        <path d="M105.466,706.26L125.384,706.26" style="fill:none;fill-rule:nonzero;stroke:black;stroke-width:0.72px;"/>
    </g>
    <g transform="matrix(1.15468,-0.666702,-0.666702,-1.15468,397.064,970.422)">
        <path d="M88.216,736.14L108.134,736.14" style="fill:none;fill-rule:nonzero;stroke:black;stroke-width:0.72px;"/>
    </g>
    <g transform="matrix(1.15458,-0.666876,-0.666876,-1.15458,395.562,972.006)">
        <path d="M91.558,733.23L108.152,733.23" style="fill:none;fill-rule:nonzero;stroke:black;stroke-width:0.72px;"/>
    </g>
    <g transform="matrix(1.15468,0.666702,0.666702,-1.15468,-564.587,844.853)">
        <path d="M88.216,706.26L108.134,706.26" style="fill:none;fill-rule:nonzero;stroke:black;stroke-width:0.72px;"/>
    </g>
    <g transform="matrix(1.15458,0.666876,0.666876,-1.15458,-566.34,843.125)">
        <path d="M91.558,709.17L108.152,709.17" style="fill:none;fill-rule:nonzero;stroke:black;stroke-width:0.72px;"/>
    </g>
    <g transform="matrix(0,-1.33333,-1.33333,0,969.739,194.283)">
        <path d="M79.59,721.2L99.51,721.2" style="fill:none;fill-rule:nonzero;stroke:black;stroke-width:0.72px;"/>
    </g>
    <g transform="matrix(1.15481,-0.666483,-0.666483,-1.15481,401.714,992.153)">
        <path d="M123.083,734.77L137.527,734.77" style="fill:none;fill-rule:nonzero;stroke:black;stroke-width:0.72px;"/>
    </g>
    <g transform="matrix(1.15469,0.666683,0.666683,-1.15469,-559.138,822.59)">
        <path d="M122.915,707.005L139.855,707.005" style="fill:none;fill-rule:nonzero;stroke:black;stroke-width:0.72px;"/>
    </g>
    <g transform="matrix(1.33333,0,0,1.33333,-111.261,-895.677)">
        <path d="M169.44,724.56L294,724.56" style="fill:none;fill-rule:nonzero;stroke:black;stroke-width:0.72px;"/>
    </g>
    <g transform="matrix(1.2958,0.314133,0.314133,-1.2958,-327.983,918.176)">
        <path d="M285.739,725.493L293.889,725.493L286.644,721.761L287.591,723.966L285.739,725.493Z" style="stroke:black;stroke-width:0.72px;"/>
    </g>
    <g transform="matrix(-1.15468,-0.666702,-0.666702,1.15468,997.866,-709.189)">
        <path d="M230.546,766.08L250.464,766.08" style="fill:none;fill-rule:nonzero;stroke:black;stroke-width:0.72px;"/>
    </g>
    <g transform="matrix(-1.15468,0.666697,0.666697,1.15468,14.2676,-1036.35)">
        <path d="M248.165,764.7L262.565,764.7" style="fill:none;fill-rule:nonzero;stroke:black;stroke-width:0.72px;"/>
    </g>
    <g transform="matrix(-1.15458,0.666871,0.666871,1.15458,-61.9762,-1023.06)">
        <path d="M218.132,767.375L232.868,767.375" style="fill:none;fill-rule:nonzero;stroke:black;stroke-width:0.72px;"/>
    </g>
    <g transform="matrix(-1.15457,0.6669,0.6669,1.15457,-58.8375,-1013.98)">
        <path d="M218.448,763.655L233.102,763.655" style="fill:none;fill-rule:nonzero;stroke:black;stroke-width:0.72px;"/>
    </g>
    <g transform="matrix(0,1.33333,1.33333,0,-786.328,-298.451)">
        <path d="M240.1,753.75L254.8,753.75" style="fill:none;fill-rule:nonzero;stroke:black;stroke-width:0.72px;"/>
    </g>
    <g transform="matrix(0,1.33333,1.33333,0,-781.848,-302.931)">
        <path d="M243.46,753.75L258.16,753.75" style="fill:none;fill-rule:nonzero;stroke:black;stroke-width:0.72px;"/>
    </g>
    <g transform="matrix(1.15468,0.666702,0.666702,-1.15468,-545.371,679.384)">
        <path d="M326.986,741.42L346.904,741.42" style="fill:none;fill-rule:nonzero;stroke:black;stroke-width:0.72px;"/>
    </g>
    <g transform="matrix(1.15468,-0.666702,-0.666702,-1.15468,423.321,1134.01)">
        <path d="M326.986,711.54L346.904,711.54" style="fill:none;fill-rule:nonzero;stroke:black;stroke-width:0.72px;"/>
    </g>
    <g transform="matrix(1.15468,-0.666702,-0.666702,-1.15468,440.16,1117.17)">
        <path d="M309.736,741.42L329.654,741.42" style="fill:none;fill-rule:nonzero;stroke:black;stroke-width:0.72px;"/>
    </g>
    <g transform="matrix(1.15458,-0.666876,-0.666876,-1.15458,438.681,1118.79)">
        <path d="M313.078,738.51L329.672,738.51" style="fill:none;fill-rule:nonzero;stroke:black;stroke-width:0.72px;"/>
    </g>
    <g transform="matrix(1.15468,0.666702,0.666702,-1.15468,-528.532,696.222)">
        <path d="M309.736,711.54L329.654,711.54" style="fill:none;fill-rule:nonzero;stroke:black;stroke-width:0.72px;"/>
    </g>
    <g transform="matrix(1.15458,0.666876,0.666876,-1.15458,-530.264,694.455)">
        <path d="M313.078,714.45L329.672,714.45" style="fill:none;fill-rule:nonzero;stroke:black;stroke-width:0.72px;"/>
    </g>
    <g transform="matrix(0,-1.33333,-1.33333,0,1272.14,482.603)">
        <path d="M301.11,726.48L321.03,726.48" style="fill:none;fill-rule:nonzero;stroke:black;stroke-width:0.72px;"/>
    </g>
    <g transform="matrix(0,-1.33333,-1.33333,0,1364.15,574.616)">
        <path d="M370.12,726.48L390.04,726.48" style="fill:none;fill-rule:nonzero;stroke:black;stroke-width:0.72px;"/>
    </g>
    <g transform="matrix(1.15494,0.666245,0.666245,-1.15494,-537.732,655.511)">
        <path d="M366.205,740.155L381.075,740.155" style="fill:none;fill-rule:nonzero;stroke:black;stroke-width:0.72px;"/>
    </g>
    <g transform="matrix(0.841853,-1.03395,-1.03395,-0.841853,811.14,1076.03)">
        <path d="M372.38,712.86L381.82,712.86" style="fill:none;fill-rule:nonzero;stroke:black;stroke-width:0.72px;"/>
    </g>
    <g transform="matrix(0.84145,-1.03428,-1.03428,-0.84145,810.916,1071.76)">
        <path d="M367.545,713.92L379.715,713.92" style="fill:none;fill-rule:nonzero;stroke:black;stroke-width:0.72px;"/>
    </g>
    <g transform="matrix(1.15481,-0.666483,-0.666483,-1.15481,444.78,1138.85)">
        <path d="M344.603,740.05L359.047,740.05" style="fill:none;fill-rule:nonzero;stroke:black;stroke-width:0.72px;"/>
    </g>
    <g transform="matrix(0,-1.33333,-1.33333,0,1318.14,528.603)">
        <path d="M335.61,726.48L355.53,726.48" style="fill:none;fill-rule:nonzero;stroke:black;stroke-width:0.72px;"/>
    </g>
    <g transform="matrix(0,-1.33333,-1.33333,0,1313.66,524.123)">
        <path d="M333.91,726.48L350.51,726.48" style="fill:none;fill-rule:nonzero;stroke:black;stroke-width:0.72px;"/>
    </g>
    <g transform="matrix(0,-1.33333,-1.33333,0,1380.98,511.763)">
        <path d="M357.9,756.36L367.74,756.36" style="fill:none;fill-rule:nonzero;stroke:black;stroke-width:0.72px;"/>
    </g>
    <g transform="matrix(1.15461,-0.666819,-0.666819,-1.15461,450.159,1162.36)">
        <path d="M380.032,738.305L393.288,738.305" style="fill:none;fill-rule:nonzero;stroke:black;stroke-width:0.72px;"/>
    </g>
    <g transform="matrix(1.15446,-0.667081,-0.667081,-1.15446,452.521,1161.18)">
        <path d="M378.21,741.695L393.42,741.695" style="fill:none;fill-rule:nonzero;stroke:black;stroke-width:0.72px;"/>
    </g>
    <g transform="matrix(0,1.33333,1.33333,0,-596.021,-369.797)">
        <path d="M338.19,709.14L352.95,709.14" style="fill:none;fill-rule:nonzero;stroke:black;stroke-width:0.72px;"/>
    </g>
    <g transform="matrix(1.33333,0,0,1.33333,-111.261,-895.677)">
        <path d="M421.44,724.56L485.04,724.56" style="fill:none;fill-rule:nonzero;stroke:black;stroke-width:0.72px;"/>
    </g>
    <g transform="matrix(1.2958,0.314133,0.314133,-1.2958,-320.813,858.164)">
        <path d="M476.779,725.493L484.929,725.493L477.684,721.761L478.631,723.966L476.779,725.493Z" style="stroke:black;stroke-width:0.72px;"/>
    </g>
</svg>
