<?xml version="1.0" encoding="UTF-8" standalone="no"?>
<!DOCTYPE svg PUBLIC "-//W3C//DTD SVG 1.1//EN" "http://www.w3.org/Graphics/SVG/1.1/DTD/svg11.dtd">
<svg width="100%" height="100%" viewBox="0 0 530 130" version="1.1" xmlns="http://www.w3.org/2000/svg" xmlns:xlink="http://www.w3.org/1999/xlink" xml:space="preserve" xmlns:serif="http://www.serif.com/" style="fill-rule:evenodd;clip-rule:evenodd;stroke-linecap:round;stroke-linejoin:round;stroke-miterlimit:10;">
    <g transform="matrix(-0.666631,-1.15472,-1.15472,0.666631,995.505,-341.948)">
        <path d="M88.029,767.98L111.031,767.98" style="fill:none;fill-rule:nonzero;stroke:black;stroke-width:0.72px;"/>
    </g>
    <g transform="matrix(-1.15468,-0.666702,-0.666702,1.15468,679.765,-775.806)">
        <path d="M92.446,772.96L112.364,772.96" style="fill:none;fill-rule:nonzero;stroke:black;stroke-width:0.72px;"/>
    </g>
    <g transform="matrix(0.666631,-1.15472,-1.15472,-0.666631,839.803,695.252)">
        <path d="M88.029,748.06L111.031,748.06" style="fill:none;fill-rule:nonzero;stroke:black;stroke-width:0.72px;"/>
    </g>
    <g transform="matrix(0,-1.33333,-1.33333,0,1068.38,216.402)">
        <path d="M101.07,758.02L120.99,758.02" style="fill:none;fill-rule:nonzero;stroke:black;stroke-width:0.72px;"/>
    </g>
    <g transform="matrix(0,-1.33333,-1.33333,0,1063.9,211.922)">
        <path d="M99.37,758.02L115.97,758.02" style="fill:none;fill-rule:nonzero;stroke:black;stroke-width:0.72px;"/>
    </g>
    <g transform="matrix(-1.15468,0.666702,0.666702,1.15468,-330.982,-838.011)">
        <path d="M92.446,743.08L112.364,743.08" style="fill:none;fill-rule:nonzero;stroke:black;stroke-width:0.72px;"/>
    </g>
    <g transform="matrix(-1.15485,-0.666412,-0.666412,1.15485,616.712,-713.117)">
        <path d="M75.186,743.08L95.114,743.08" style="fill:none;fill-rule:nonzero;stroke:black;stroke-width:0.72px;"/>
    </g>
    <g transform="matrix(-1.15485,0.666412,0.666412,1.15485,-393.596,-900.954)">
        <path d="M75.186,772.96L95.114,772.96" style="fill:none;fill-rule:nonzero;stroke:black;stroke-width:0.72px;"/>
    </g>
    <g transform="matrix(0,-1.33333,-1.33333,0,1022.37,170.389)">
        <path d="M66.56,758.02L86.48,758.02" style="fill:none;fill-rule:nonzero;stroke:black;stroke-width:0.72px;"/>
    </g>
    <g transform="matrix(1.33333,0,0,1.33333,-90.3544,-936.305)">
        <path d="M130.56,755.76L164.64,755.76" style="fill:none;fill-rule:nonzero;stroke:black;stroke-width:0.72px;"/>
    </g>
    <g transform="matrix(1.33333,0,0,1.33333,-90.3544,-943.985)">
        <path d="M130.56,758.64L164.64,758.64" style="fill:none;fill-rule:nonzero;stroke:black;stroke-width:0.72px;"/>
    </g>
    <g transform="matrix(1.33333,0,0,1.33333,-90.3544,-940.145)">
        <path d="M160.08,753.6L168,757.2L160.08,760.8" style="fill:none;fill-rule:nonzero;stroke:black;stroke-width:0.72px;"/>
    </g>
    <g transform="matrix(1.33333,0,0,1.33333,-90.3544,-43.5046)">
        <text x="236.16px" y="64.8px" style="font-family:'ArialMT', 'Arial', sans-serif;font-size:10px;">S</text>
    </g>
    <g transform="matrix(1.33333,0,0,1.33333,-90.3544,-43.5046)">
        <text x="229.2px" y="46.08px" style="font-family:'ArialMT', 'Arial', sans-serif;font-size:10px;">O</text>
        <text x="249.36px" y="49.68px" style="font-family:'ArialMT', 'Arial', sans-serif;font-size:10px;">Ph</text>
    </g>
    <g transform="matrix(1.33333,0,0,1.33333,-90.3544,-43.5046)">
        <text x="242.4px" y="83.76px" style="font-family:'ArialMT', 'Arial', sans-serif;font-size:10px;">O</text>
    </g>
    <g transform="matrix(1.33333,0,0,1.33333,-90.3544,-43.5046)">
        <text x="377.52px" y="92.64px" style="font-family:'ArialMT', 'Arial', sans-serif;font-size:18px;">+</text>
    </g>
    <g transform="matrix(1.33333,0,0,1.33333,-90.3544,-43.5046)">
        <text x="398.88px" y="109.44px" style="font-family:'ArialMT', 'Arial', sans-serif;font-size:10px;">CH</text>
        <text x="413.28px" y="112.08px" style="font-family:'ArialMT', 'Arial', sans-serif;font-size:8px;">2</text>
    </g>
    <g transform="matrix(1.33333,0,0,1.33333,-90.3544,-43.5046)">
        <text x="416.4px" y="79.44px" style="font-family:'ArialMT', 'Arial', sans-serif;font-size:10px;">S</text>
        <text x="423.12px" y="79.44px" style="font-family:'ArialMT', 'Arial', sans-serif;font-size:10px;">O</text>
        <text x="431.28px" y="82.08px" style="font-family:'ArialMT', 'Arial', sans-serif;font-size:8px;">2</text>
    </g>
    <g transform="matrix(1.33333,0,0,1.33333,-90.3544,-43.5046)">
        <text x="433.68px" y="69.6px" style="font-family:'ArialMT', 'Arial', sans-serif;font-size:10px;">Ph</text>
    </g>
    <g transform="matrix(-0.777009,-1.08353,-1.08353,0.777009,1176.68,-283.43)">
        <path d="M202.844,754.885L222.766,754.885" style="fill:none;fill-rule:nonzero;stroke:black;stroke-width:0.72px;"/>
    </g>
    <g transform="matrix(1.27036,-0.404935,-0.404935,-1.27036,229.816,1111.17)">
        <path d="M187.55,759.955L207.47,759.955" style="fill:none;fill-rule:nonzero;stroke:black;stroke-width:0.72px;"/>
    </g>
    <g transform="matrix(0.79011,-1.07401,-1.07401,-0.79011,818.644,906.191)">
        <path d="M202.754,738.77L222.666,738.77" style="fill:none;fill-rule:nonzero;stroke:black;stroke-width:0.72px;"/>
    </g>
    <g transform="matrix(0.00803198,-1.33331,-1.33331,-0.00803198,1154.69,339.704)">
        <path d="M178,746.97L197.92,746.97" style="fill:none;fill-rule:nonzero;stroke:black;stroke-width:0.72px;"/>
    </g>
    <g transform="matrix(0.00804814,-1.33331,-1.33331,-0.00804814,1159.11,344.209)">
        <path d="M183.86,746.955L198.77,746.955" style="fill:none;fill-rule:nonzero;stroke:black;stroke-width:0.72px;"/>
    </g>
    <g transform="matrix(1.26578,0.419026,0.419026,-1.26578,-384.537,946.781)">
        <path d="M187.395,733.88L207.315,733.88" style="fill:none;fill-rule:nonzero;stroke:black;stroke-width:0.72px;"/>
    </g>
    <g transform="matrix(1.31557,0.216918,0.216918,-1.31557,-244.668,1019.11)">
        <path d="M206.677,729.13L226.593,729.13" style="fill:none;fill-rule:nonzero;stroke:black;stroke-width:0.72px;"/>
    </g>
    <g transform="matrix(1.31812,-0.200831,-0.200831,-1.31812,66.4756,1110.98)">
        <path d="M206.886,764.48L226.804,764.48" style="fill:none;fill-rule:nonzero;stroke:black;stroke-width:0.72px;"/>
    </g>
    <g transform="matrix(0.00797144,-1.33331,-1.33331,-0.00797144,1205.58,391.443)">
        <path d="M207.34,746.745L245.81,746.745" style="fill:none;fill-rule:nonzero;stroke:black;stroke-width:0.72px;"/>
    </g>
    <g transform="matrix(0.872391,-1.00832,-1.00832,-0.872391,793.484,956.604)">
        <path d="M224.418,770.95L237.562,770.95" style="fill:none;fill-rule:nonzero;stroke:black;stroke-width:0.72px;"/>
    </g>
    <g transform="matrix(-0.436456,-1.25987,-1.25987,0.436456,1327.13,-19.7111)">
        <path d="M233.79,790.44L242.68,790.44" style="fill:none;fill-rule:nonzero;stroke:black;stroke-width:0.72px;"/>
    </g>
    <g transform="matrix(-0.437795,-1.25941,-1.25941,0.437795,1320.78,-25.3569)">
        <path d="M230.233,790.44L239.127,790.44" style="fill:none;fill-rule:nonzero;stroke:black;stroke-width:0.72px;"/>
    </g>
    <g transform="matrix(0.871493,-1.0091,-1.0091,-0.871493,818.937,963.277)">
        <path d="M242.632,788.45L249.608,788.45" style="fill:none;fill-rule:nonzero;stroke:black;stroke-width:0.72px;"/>
    </g>
    <g transform="matrix(0.437349,1.25956,1.25956,-0.437349,-846.105,83.8816)">
        <path d="M236.647,771.6L245.793,771.6" style="fill:none;fill-rule:nonzero;stroke:black;stroke-width:0.72px;"/>
    </g>
    <g transform="matrix(0.437349,1.25956,1.25956,-0.437349,-842.916,79.3975)">
        <path d="M240.207,771.6L249.353,771.6" style="fill:none;fill-rule:nonzero;stroke:black;stroke-width:0.72px;"/>
    </g>
    <g transform="matrix(1.33333,0,0,1.33333,-90.3544,-975.665)">
        <path d="M196.08,777.12L196.08,774.48L196.32,773.28L196.8,771.36L197.28,770.16L198,769.2L198.48,768.48L199.2,767.52L199.92,766.8L200.88,766.08L203.76,764.64L204.96,764.4L205.92,764.16L207.12,763.92L209.04,763.92L210.24,764.16L211.44,764.64L212.64,764.88L213.6,765.6L214.56,766.08L215.52,767.04L216.48,767.76L217.2,768.72L217.68,769.68L218.4,770.64L218.88,771.84L219.12,773.04L219.36,773.52L219.36,774.24" style="fill:none;fill-rule:nonzero;stroke:black;stroke-width:0.48px;"/>
    </g>
    <g transform="matrix(0.193992,1.31915,1.31915,-0.193992,-879.099,-55.7249)">
        <path d="M192.587,766.575L200.834,766.575L193.655,770.542L194.528,768.23L192.587,766.575Z" style="stroke:black;stroke-width:0.48px;"/>
    </g>
    <g transform="matrix(1.33333,0,0,1.33333,-90.3544,-888.945)">
        <path d="M197.52,745.92L195.6,746.88L193.68,747.6L191.52,747.84L190.32,747.84L187.92,747.36L186,746.4L184.08,744.96L182.64,743.52L181.68,741.6L181.2,740.4L180.96,739.44L180.72,738.24L180.72,735.12L181.2,733.44L181.92,732L183.84,729.12L185.28,728.16" style="fill:none;fill-rule:nonzero;stroke:black;stroke-width:0.48px;"/>
    </g>
    <g transform="matrix(1.05247,-0.818587,-0.818587,-1.05247,559.547,1033.06)">
        <path d="M189.998,727.044L198.208,727.044L190.882,730.917L192.04,728.497L189.998,727.044Z" style="stroke:black;stroke-width:0.48px;"/>
    </g>
    <g transform="matrix(1.33333,0,0,1.33333,-90.3544,-873.585)">
        <path d="M230.16,718.08L231.36,718.32L232.8,718.56L234,719.04L234.96,719.52L236.16,720.24L237.12,720.96L238.08,721.92L239.04,722.64L239.76,723.84L240.48,724.8L241.2,726L241.68,726.96L242.16,728.4L242.64,730.8L242.64,733.92L241.68,737.28L240.24,740.16L239.28,741.6L238.08,742.56L236.88,743.76L235.44,744.72L234,745.44L232.32,745.92L228.96,746.4L226.8,746.4L225.36,746.16L222.48,745.2L221.04,744.48L218.64,742.56L217.68,741.6L216.72,740.4L216,739.2L215.52,738.48L215.28,737.76" style="fill:none;fill-rule:nonzero;stroke:black;stroke-width:0.48px;"/>
    </g>
    <g transform="matrix(-1.33103,-0.078296,-0.078296,1.33103,592.018,-885.532)">
        <path d="M230.266,742.323L238.44,742.323L230.999,746.213L232.098,743.874L230.266,742.323Z" style="stroke:black;stroke-width:0.48px;"/>
    </g>
    <g transform="matrix(1.33333,0,0,1.33333,-90.3544,-936.305)">
        <path d="M276.72,755.76L310.8,755.76" style="fill:none;fill-rule:nonzero;stroke:black;stroke-width:0.72px;"/>
    </g>
    <g transform="matrix(1.33333,0,0,1.33333,-90.3544,-943.985)">
        <path d="M276.72,758.64L310.8,758.64" style="fill:none;fill-rule:nonzero;stroke:black;stroke-width:0.72px;"/>
    </g>
    <g transform="matrix(1.33333,0,0,1.33333,-90.3544,-940.145)">
        <path d="M306.24,753.6L314.16,757.2L306.24,760.8" style="fill:none;fill-rule:nonzero;stroke:black;stroke-width:0.72px;"/>
    </g>
    <g transform="matrix(-1.26822,0.411585,0.411585,1.26822,474.448,-1064.02)">
        <path d="M328.984,770.145L348.906,770.145" style="fill:none;fill-rule:nonzero;stroke:black;stroke-width:0.72px;"/>
    </g>
    <g transform="matrix(-1.26818,0.41169,0.41169,1.26818,478.377,-1056.15)">
        <path d="M332.536,766.95L347.434,766.95" style="fill:none;fill-rule:nonzero;stroke:black;stroke-width:0.72px;"/>
    </g>
    <g transform="matrix(0.000669344,-1.33333,-1.33333,-0.000669344,1358.19,509.369)">
        <path d="M319.505,757.11L339.425,757.11" style="fill:none;fill-rule:nonzero;stroke:black;stroke-width:0.72px;"/>
    </g>
    <g transform="matrix(-0.783194,-1.07907,-1.07907,0.783194,1485.13,-158.145)">
        <path d="M344.311,765.16L364.229,765.16" style="fill:none;fill-rule:nonzero;stroke:black;stroke-width:0.72px;"/>
    </g>
    <g transform="matrix(-1.26802,-0.41219,-0.41219,1.26802,1098.03,-716.828)">
        <path d="M328.972,744.07L348.898,744.07" style="fill:none;fill-rule:nonzero;stroke:black;stroke-width:0.72px;"/>
    </g>
    <g transform="matrix(-1.26792,-0.412499,-0.412499,1.26792,1102.25,-724.531)">
        <path d="M332.524,747.265L347.426,747.265" style="fill:none;fill-rule:nonzero;stroke:black;stroke-width:0.72px;"/>
    </g>
    <g transform="matrix(0.78395,-1.07852,-1.07852,-0.78395,912.131,1049.62)">
        <path d="M344.307,749.045L364.223,749.045" style="fill:none;fill-rule:nonzero;stroke:black;stroke-width:0.72px;"/>
    </g>
    <g transform="matrix(0,-1.33333,-1.33333,0,1445.09,617.215)">
        <path d="M395.22,748.98L409.98,748.98" style="fill:none;fill-rule:nonzero;stroke:black;stroke-width:0.72px;"/>
    </g>
    <g transform="matrix(0,-1.33333,-1.33333,0,1448.46,622.802)">
        <path d="M399.41,748.15L412.51,748.15" style="fill:none;fill-rule:nonzero;stroke:black;stroke-width:0.72px;"/>
    </g>
    <g transform="matrix(1.15482,-0.666452,-0.666452,-1.15482,489.206,1215.97)">
        <path d="M401.608,760.065L416.432,760.065" style="fill:none;fill-rule:nonzero;stroke:black;stroke-width:0.72px;"/>
    </g>
    <g transform="matrix(1.15517,-0.66585,-0.66585,-1.15517,500.893,1228.28)">
        <path d="M428.702,772.675L433.008,772.675" style="fill:none;fill-rule:nonzero;stroke:black;stroke-width:0.72px;"/>
    </g>
</svg>
