<?xml version="1.0" encoding="UTF-8" standalone="no"?>
<!DOCTYPE svg PUBLIC "-//W3C//DTD SVG 1.1//EN" "http://www.w3.org/Graphics/SVG/1.1/DTD/svg11.dtd">
<svg width="100%" height="100%" viewBox="0 0 270 40" version="1.1" xmlns="http://www.w3.org/2000/svg" xmlns:xlink="http://www.w3.org/1999/xlink" xml:space="preserve" xmlns:serif="http://www.serif.com/" style="fill-rule:evenodd;clip-rule:evenodd;stroke-linecap:round;stroke-linejoin:round;stroke-miterlimit:10;">
    <g transform="matrix(1,0,0,1,-124.96,-146.049)">
        <g transform="matrix(1.33333,0,0,1.33333,0,0)">
            <text x="103.92px" y="121.2px" style="font-family:'ArialMT', 'Arial', sans-serif;font-size:10px;">O</text>
        </g>
        <g transform="matrix(1.33333,0,0,1.33333,0,0)">
            <text x="96.72px" y="121.2px" style="font-family:'ArialMT', 'Arial', sans-serif;font-size:10px;">H</text>
        </g>
        <g transform="matrix(1.33333,0,0,1.33333,0,0)">
            <text x="143.76px" y="121.2px" style="font-family:'ArialMT', 'Arial', sans-serif;font-size:10px;">O</text>
        </g>
        <g transform="matrix(1.33333,0,0,1.33333,0,-764.16)">
            <path d="M117.84,707.52L137.76,707.52" style="fill:none;fill-rule:nonzero;stroke:black;stroke-width:0.72px;"/>
        </g>
        <g transform="matrix(-0.666796,-1.15463,-1.15463,0.666796,1052.61,-172.512)">
            <path d="M107.446,713.52L121.304,713.52" style="fill:none;fill-rule:nonzero;stroke:black;stroke-width:0.72px;"/>
        </g>
        <g transform="matrix(0.666796,-1.15463,-1.15463,-0.666796,917.98,810.035)">
            <path d="M134.296,713.52L148.154,713.52" style="fill:none;fill-rule:nonzero;stroke:black;stroke-width:0.72px;"/>
        </g>
        <g transform="matrix(0.666756,-1.15465,-1.15465,-0.666756,920.472,805.527)">
            <path d="M132.121,716.805L146.359,716.805" style="fill:none;fill-rule:nonzero;stroke:black;stroke-width:0.72px;"/>
        </g>
    </g>
    <g transform="matrix(1,0,0,1,-129.44,-147.969)">
        <g transform="matrix(1.33333,0,0,1.33333,0,0)">
            <text x="171.12px" y="122.64px" style="font-family:'ArialMT', 'Arial', sans-serif;font-size:10px;">O</text>
        </g>
        <g transform="matrix(1.33333,0,0,1.33333,0,0)">
            <text x="210.96px" y="122.64px" style="font-family:'ArialMT', 'Arial', sans-serif;font-size:10px;">O</text>
        </g>
        <g transform="matrix(1.33333,0,0,1.33333,0,-760.32)">
            <path d="M185.04,706.08L204.96,706.08" style="fill:none;fill-rule:nonzero;stroke:black;stroke-width:0.72px;"/>
        </g>
        <g transform="matrix(-0.666796,-1.15463,-1.15463,0.666796,1185.36,-92.0412)">
            <path d="M174.646,712.08L188.504,712.08" style="fill:none;fill-rule:nonzero;stroke:black;stroke-width:0.72px;"/>
        </g>
        <g transform="matrix(-0.666756,-1.15465,-1.15465,0.666756,1193.13,-96.2865)">
            <path d="M176.441,715.365L190.679,715.365" style="fill:none;fill-rule:nonzero;stroke:black;stroke-width:0.72px;"/>
        </g>
        <g transform="matrix(0.666796,-1.15463,-1.15463,-0.666796,961.109,888.585)">
            <path d="M201.496,712.08L215.354,712.08" style="fill:none;fill-rule:nonzero;stroke:black;stroke-width:0.72px;"/>
        </g>
        <g transform="matrix(0.666756,-1.15465,-1.15465,-0.666756,963.604,884.08)">
            <path d="M199.321,715.365L213.559,715.365" style="fill:none;fill-rule:nonzero;stroke:black;stroke-width:0.72px;"/>
        </g>
    </g>
    <g transform="matrix(1,0,0,1,-124.96,-149.569)">
        <g transform="matrix(1.33333,0,0,1.33333,0,0)">
            <text x="238.8px" y="123.84px" style="font-family:'ArialMT', 'Arial', sans-serif;font-size:10px;">O</text>
        </g>
        <g transform="matrix(1.33333,0,0,1.33333,0,0)">
            <text x="231.6px" y="123.84px" style="font-family:'ArialMT', 'Arial', sans-serif;font-size:10px;">H</text>
        </g>
        <g transform="matrix(1.33333,0,0,1.33333,0,0)">
            <text x="278.64px" y="123.84px" style="font-family:'ArialMT', 'Arial', sans-serif;font-size:10px;">O<tspan x="286.56px " y="123.84px ">H</tspan></text>
        </g>
        <g transform="matrix(1.33333,0,0,1.33333,0,-757.12)">
            <path d="M252.72,704.88L272.64,704.88" style="fill:none;fill-rule:nonzero;stroke:black;stroke-width:0.72px;"/>
        </g>
        <g transform="matrix(-0.666796,-1.15463,-1.15463,0.666796,1319.34,-11.4959)">
            <path d="M242.326,710.88L256.184,710.88" style="fill:none;fill-rule:nonzero;stroke:black;stroke-width:0.72px;"/>
        </g>
        <g transform="matrix(0.666796,-1.15463,-1.15463,-0.666796,1004.83,967.53)">
            <path d="M269.176,710.88L283.034,710.88" style="fill:none;fill-rule:nonzero;stroke:black;stroke-width:0.72px;"/>
        </g>
    </g>
</svg>
