<?xml version="1.0" encoding="UTF-8" standalone="no"?>
<!DOCTYPE svg PUBLIC "-//W3C//DTD SVG 1.1//EN" "http://www.w3.org/Graphics/SVG/1.1/DTD/svg11.dtd">
<svg width="100%" height="100%" viewBox="0 0 540 335" version="1.1" xmlns="http://www.w3.org/2000/svg" xmlns:xlink="http://www.w3.org/1999/xlink" xml:space="preserve" xmlns:serif="http://www.serif.com/" style="fill-rule:evenodd;clip-rule:evenodd;stroke-linecap:round;stroke-linejoin:round;stroke-miterlimit:10;">
    <g transform="matrix(1.33333,0,0,1.33333,-96.1,-159.177)">
        <text x="82.32px" y="133.92px" style="font-family:'ArialMT', 'Arial', sans-serif;font-size:10px;">R</text>
        <text x="82.08px" y="168.24px" style="font-family:'ArialMT', 'Arial', sans-serif;font-size:10px;">O</text>
    </g>
    <g transform="matrix(1.33333,0,0,1.33333,-96.1,-159.177)">
        <text x="74.88px" y="168.24px" style="font-family:'ArialMT', 'Arial', sans-serif;font-size:10px;">H</text>
    </g>
    <g transform="matrix(1.33333,0,0,1.33333,-96.1,-159.177)">
        <text x="121.92px" y="168.24px" style="font-family:'ArialMT', 'Arial', sans-serif;font-size:10px;">O</text>
    </g>
    <g transform="matrix(1.33333,0,0,1.33333,-96.1,-159.177)">
        <text x="122.16px" y="133.92px" style="font-family:'ArialMT', 'Arial', sans-serif;font-size:10px;">R</text>
    </g>
    <g transform="matrix(1.33333,0,0,1.33333,-93.1,-159.177)">
        <text x="202.8px" y="135.36px" style="font-family:'ArialMT', 'Arial', sans-serif;font-size:10px;">R</text>
        <text x="202.56px" y="169.68px" style="font-family:'ArialMT', 'Arial', sans-serif;font-size:10px;">O</text>
    </g>
    <g transform="matrix(1.33333,0,0,1.33333,-93.1,-159.177)">
        <text x="195.36px" y="169.68px" style="font-family:'ArialMT', 'Arial', sans-serif;font-size:10px;">H</text>
    </g>
    <g transform="matrix(1.33333,0,0,1.33333,-93.1,-159.177)">
        <text x="242.4px" y="169.68px" style="font-family:'ArialMT', 'Arial', sans-serif;font-size:10px;">O<tspan x="250.32px " y="169.68px ">H</tspan></text>
    </g>
    <g transform="matrix(1.33333,0,0,1.33333,-93.1,-159.177)">
        <text x="242.64px" y="135.36px" style="font-family:'ArialMT', 'Arial', sans-serif;font-size:10px;">R</text>
    </g>
    <g transform="matrix(1.33333,0,0,1.33333,-99.1,-161.177)">
        <text x="360px" y="130.08px" style="font-family:'ArialMT', 'Arial', sans-serif;font-size:10px;">R</text>
        <text x="359.52px" y="176.16px" style="font-family:'ArialMT', 'Arial', sans-serif;font-size:10px;">O</text>
        <text x="367.44px" y="176.16px" style="font-family:'ArialMT', 'Arial', sans-serif;font-size:10px;">H</text>
        <text x="382.56px" y="176.16px" style="font-family:'ArialMT', 'Arial', sans-serif;font-size:10px;">O<tspan x="390.48px " y="176.16px ">H</tspan></text>
    </g>
    <g transform="matrix(1.33333,0,0,1.33333,-99.1,-161.177)">
        <text x="383.04px" y="130.08px" style="font-family:'ArialMT', 'Arial', sans-serif;font-size:10px;">R</text>
    </g>
    <g transform="matrix(1.33333,0,0,1.33333,-99.1,-161.177)">
        <text x="327.12px" y="153.12px" style="font-family:'ArialMT', 'Arial', sans-serif;font-size:10px;">E</text>
        <text x="333.84px" y="153.12px" style="font-family:'ArialMT', 'Arial', sans-serif;font-size:10px;">t<tspan x="336.72px " y="153.12px ">O</tspan></text>
    </g>
    <g transform="matrix(1.33333,0,0,1.33333,-99.1,-161.177)">
        <text x="405.6px" y="153.12px" style="font-family:'ArialMT', 'Arial', sans-serif;font-size:10px;">O</text>
        <text x="413.52px" y="153.12px" style="font-family:'ArialMT', 'Arial', sans-serif;font-size:10px;">Et</text>
    </g>
    <g transform="matrix(1.33333,0,0,1.33333,-91.1,-159.177)">
        <text x="167.52px" y="240.96px" style="font-family:'ArialMT', 'Arial', sans-serif;font-size:10px;">C</text>
    </g>
    <g transform="matrix(1.33333,0,0,1.33333,-91.1,-159.177)">
        <text x="167.52px" y="217.92px" style="font-family:'ArialMT', 'Arial', sans-serif;font-size:10px;">R</text>
        <text x="167.04px" y="264px" style="font-family:'ArialMT', 'Arial', sans-serif;font-size:10px;">O<tspan x="174.96px " y="264px ">H</tspan></text>
    </g>
    <g transform="matrix(1.33333,0,0,1.33333,-91.1,-159.177)">
        <text x="134.64px" y="240.96px" style="font-family:'ArialMT', 'Arial', sans-serif;font-size:10px;">E</text>
        <text x="141.36px" y="240.96px" style="font-family:'ArialMT', 'Arial', sans-serif;font-size:10px;">t<tspan x="144.24px " y="240.96px ">O</tspan></text>
    </g>
    <g transform="matrix(1.33333,0,0,1.33333,-91.1,-159.177)">
        <text x="124.8px" y="240.72px" style="font-family:'ArialMT', 'Arial', sans-serif;font-size:10px;">2</text>
    </g>
    <g transform="matrix(1.33333,0,0,1.33333,-91.1,-159.177)">
        <text x="164.4px" y="263.28px" style="font-family:'ArialMT', 'Arial', sans-serif;font-size:10px;">:</text>
    </g>
    <g transform="matrix(1.33333,0,0,1.33333,-81.1,-159.177)">
        <text x="312px" y="222.24px" style="font-family:'ArialMT', 'Arial', sans-serif;font-size:10px;">R</text>
    </g>
    <g transform="matrix(1.33333,0,0,1.33333,-81.1,-159.177)">
        <text x="277.2px" y="242.16px" style="font-family:'ArialMT', 'Arial', sans-serif;font-size:10px;">O</text>
        <text x="285.12px" y="235.2px" style="font-family:'ArialMT', 'Arial', sans-serif;font-size:8px;">+</text>
    </g>
    <g transform="matrix(1.33333,0,0,1.33333,-81.1,-159.177)">
        <text x="311.76px" y="262.08px" style="font-family:'ArialMT', 'Arial', sans-serif;font-size:10px;">O</text>
        <text x="319.68px" y="262.08px" style="font-family:'ArialMT', 'Arial', sans-serif;font-size:10px;">Et</text>
    </g>
    <g transform="matrix(1.33333,0,0,1.33333,-81.1,-159.177)">
        <text x="267.36px" y="224.88px" style="font-family:'ArialMT', 'Arial', sans-serif;font-size:10px;">H</text>
        <text x="255.12px" y="241.92px" style="font-family:'ArialMT', 'Arial', sans-serif;font-size:10px;">2</text>
    </g>
    <g transform="matrix(1.33333,0,0,1.33333,-81.1,-159.177)">
        <text x="340.08px" y="244.56px" style="font-family:'ArialMT', 'Arial', sans-serif;font-size:18px;">+</text>
        <text x="363.84px" y="241.92px" style="font-family:'ArialMT', 'Arial', sans-serif;font-size:10px;">2e</text>
        <text x="374.919px" y="236.88px" style="font-family:'ArialMT', 'Arial', sans-serif;font-size:6px;">-</text>
    </g>
    <g transform="matrix(1.33333,0,0,1.33333,-81.1,-159.177)">
        <text x="282.48px" y="349.44px" style="font-family:'ArialMT', 'Arial', sans-serif;font-size:10px;">R</text>
    </g>
    <g transform="matrix(1.33333,0,0,1.33333,-81.1,-159.177)">
        <text x="312px" y="366.48px" style="font-family:'ArialMT', 'Arial', sans-serif;font-size:10px;">O</text>
        <text x="319.92px" y="366.48px" style="font-family:'ArialMT', 'Arial', sans-serif;font-size:10px;">Et</text>
    </g>
    <g transform="matrix(1.33333,0,0,1.33333,-81.1,-159.177)">
        <text x="312px" y="332.16px" style="font-family:'ArialMT', 'Arial', sans-serif;font-size:10px;">O</text>
        <text x="336.72px" y="354.72px" style="font-family:'ArialMT', 'Arial', sans-serif;font-size:18px;">+</text>
        <text x="358.8px" y="351.36px" style="font-family:'ArialMT', 'Arial', sans-serif;font-size:10px;">H</text>
        <text x="366.014px" y="346.32px" style="font-family:'ArialMT', 'Arial', sans-serif;font-size:6px;">+</text>
    </g>
    <g transform="matrix(1.33333,0,0,1.33333,-96.1,-889.417)">
        <path d="M96,694.8L115.92,694.8" style="fill:none;fill-rule:nonzero;stroke:black;stroke-width:0.72px;"/>
    </g>
    <g transform="matrix(-0.666796,-1.15463,-1.15463,0.666796,898.144,-331.465)">
        <path d="M85.606,700.8L99.464,700.8" style="fill:none;fill-rule:nonzero;stroke:black;stroke-width:0.72px;"/>
    </g>
    <g transform="matrix(-0.666796,1.15463,1.15463,0.666796,-706.324,-521.15)">
        <path d="M85.606,688.8L99.464,688.8" style="fill:none;fill-rule:nonzero;stroke:black;stroke-width:0.72px;"/>
    </g>
    <g transform="matrix(0.666267,1.15493,1.15493,-0.666267,-812.556,368.265)">
        <path d="M111.221,688.335L124.209,688.335" style="fill:none;fill-rule:nonzero;stroke:black;stroke-width:0.72px;"/>
    </g>
    <g transform="matrix(0.667127,1.15443,1.15443,-0.667127,-811.095,364.441)">
        <path d="M113.665,689.22L128.495,689.22" style="fill:none;fill-rule:nonzero;stroke:black;stroke-width:0.72px;"/>
    </g>
    <g transform="matrix(0.666796,-1.15463,-1.15463,-0.666796,792.636,634.118)">
        <path d="M112.456,700.8L126.314,700.8" style="fill:none;fill-rule:nonzero;stroke:black;stroke-width:0.72px;"/>
    </g>
    <g transform="matrix(1.33333,0,0,1.33333,-96.1,-882.377)">
        <path d="M144,692.16L178.08,692.16" style="fill:none;fill-rule:nonzero;stroke:black;stroke-width:0.72px;"/>
    </g>
    <g transform="matrix(1.33333,0,0,1.33333,-96.1,-890.057)">
        <path d="M144,695.04L178.08,695.04" style="fill:none;fill-rule:nonzero;stroke:black;stroke-width:0.72px;"/>
    </g>
    <g transform="matrix(1.2958,0.314133,0.314133,-1.2958,-307.9,882.599)">
        <path d="M169.819,695.973L177.969,695.973L170.724,692.241L171.671,694.446L169.819,695.973Z" style="stroke:black;stroke-width:0.72px;"/>
    </g>
    <g transform="matrix(-1.2958,0.314133,0.314133,1.2958,75.476,-902.878)">
        <path d="M143.659,691.227L151.809,691.227L144.564,694.959L145.511,692.754L143.659,691.227Z" style="stroke:black;stroke-width:0.72px;"/>
    </g>
    <g transform="matrix(1.33333,0,0,1.33333,-93.1,-881.097)">
        <path d="M216.48,691.68L236.4,691.68" style="fill:none;fill-rule:nonzero;stroke:black;stroke-width:0.72px;"/>
    </g>
    <g transform="matrix(1.33333,0,0,1.33333,-93.1,-890.057)">
        <path d="M216.48,695.04L236.4,695.04" style="fill:none;fill-rule:nonzero;stroke:black;stroke-width:0.72px;"/>
    </g>
    <g transform="matrix(-0.666796,-1.15463,-1.15463,0.666796,1140.46,-189.475)">
        <path d="M206.086,699.36L219.944,699.36" style="fill:none;fill-rule:nonzero;stroke:black;stroke-width:0.72px;"/>
    </g>
    <g transform="matrix(-0.666796,1.15463,1.15463,0.666796,-460.686,-657.379)">
        <path d="M206.086,687.36L219.944,687.36" style="fill:none;fill-rule:nonzero;stroke:black;stroke-width:0.72px;"/>
    </g>
    <g transform="matrix(0.666796,1.15463,1.15463,-0.666796,-726.865,228.277)">
        <path d="M232.936,687.36L246.794,687.36" style="fill:none;fill-rule:nonzero;stroke:black;stroke-width:0.72px;"/>
    </g>
    <g transform="matrix(0.666796,-1.15463,-1.15463,-0.666796,874.278,774.188)">
        <path d="M232.936,699.36L246.794,699.36" style="fill:none;fill-rule:nonzero;stroke:black;stroke-width:0.72px;"/>
    </g>
    <g transform="matrix(1.33333,0,0,1.33333,-96.1,-879.817)">
        <path d="M270.72,691.2L304.8,691.2" style="fill:none;fill-rule:nonzero;stroke:black;stroke-width:0.72px;"/>
    </g>
    <g transform="matrix(1.33333,0,0,1.33333,-96.1,-887.497)">
        <path d="M270.72,694.08L304.8,694.08" style="fill:none;fill-rule:nonzero;stroke:black;stroke-width:0.72px;"/>
    </g>
    <g transform="matrix(1.33333,0,0,1.33333,-96.1,-883.657)">
        <path d="M300.24,689.04L308.16,692.64L300.24,696.24" style="fill:none;fill-rule:nonzero;stroke:black;stroke-width:0.72px;"/>
    </g>
    <g transform="matrix(1.33333,-0.000585309,-0.000585309,-1.33333,-98.6945,961.602)">
        <path d="M363.73,692.755L386.51,692.755" style="fill:none;fill-rule:nonzero;stroke:black;stroke-width:0.72px;"/>
    </g>
    <g transform="matrix(-0.00372646,-1.33333,-1.33333,0.00372646,1322.79,508.113)">
        <path d="M354.76,701.695L372.65,701.695" style="fill:none;fill-rule:nonzero;stroke:black;stroke-width:0.72px;"/>
    </g>
    <g transform="matrix(-0.00820727,1.33331,1.33331,0.00820727,-522.951,-440.874)">
        <path d="M354.74,683.815L372.61,683.815" style="fill:none;fill-rule:nonzero;stroke:black;stroke-width:0.72px;"/>
    </g>
    <g transform="matrix(0.00372855,1.33333,1.33333,-0.00372855,-496.918,-463.206)">
        <path d="M377.595,683.82L395.475,683.82" style="fill:none;fill-rule:nonzero;stroke:black;stroke-width:0.72px;"/>
    </g>
    <g transform="matrix(0.00820268,-1.33331,-1.33331,-0.00820268,1348.73,546.949)">
        <path d="M377.625,701.7L395.505,701.7" style="fill:none;fill-rule:nonzero;stroke:black;stroke-width:0.72px;"/>
    </g>
    <g transform="matrix(-1.33333,0,0,1.33333,846.673,-885.951)">
        <path d="M345.6,692.75L363.73,692.75" style="fill:none;fill-rule:nonzero;stroke:black;stroke-width:0.72px;"/>
    </g>
    <g transform="matrix(1.33333,0,0,1.33333,-99.1,-885.977)">
        <path d="M386.51,692.76L404.64,692.76" style="fill:none;fill-rule:nonzero;stroke:black;stroke-width:0.72px;"/>
    </g>
    <g transform="matrix(1.33333,0,0,1.33333,-96.1,-879.817)">
        <path d="M437.76,691.2L471.84,691.2" style="fill:none;fill-rule:nonzero;stroke:black;stroke-width:0.72px;"/>
    </g>
    <g transform="matrix(1.33333,0,0,1.33333,-96.1,-887.497)">
        <path d="M437.76,694.08L471.84,694.08" style="fill:none;fill-rule:nonzero;stroke:black;stroke-width:0.72px;"/>
    </g>
    <g transform="matrix(1.33333,0,0,1.33333,-96.1,-883.657)">
        <path d="M467.28,689.04L475.2,692.64L467.28,696.24" style="fill:none;fill-rule:nonzero;stroke:black;stroke-width:0.72px;"/>
    </g>
    <g transform="matrix(1.33333,0,0,1.33333,-96.1,-645.577)">
        <path d="M75.12,603.36L109.2,603.36" style="fill:none;fill-rule:nonzero;stroke:black;stroke-width:0.72px;"/>
    </g>
    <g transform="matrix(1.33333,0,0,1.33333,-96.1,-653.257)">
        <path d="M75.12,606.24L109.2,606.24" style="fill:none;fill-rule:nonzero;stroke:black;stroke-width:0.72px;"/>
    </g>
    <g transform="matrix(1.33333,0,0,1.33333,-96.1,-649.417)">
        <path d="M104.64,601.2L112.56,604.8L104.64,608.4" style="fill:none;fill-rule:nonzero;stroke:black;stroke-width:0.72px;"/>
    </g>
    <g transform="matrix(1.33333,0,0,1.33333,-91.1,-665.737)">
        <path d="M176.28,609.84L176.43,609.85L176.59,609.88L176.74,609.94L176.89,610.03L177.04,610.16L177.17,610.31L177.26,610.46L177.32,610.61L177.35,610.77L177.35,611.07L177.32,611.23L177.26,611.38L177.17,611.53L177.04,611.68L176.89,611.81L176.74,611.9L176.59,611.96L176.43,611.99L176.28,612L176.13,611.99L175.97,611.96L175.82,611.9L175.67,611.81L175.52,611.68L175.39,611.53L175.3,611.38L175.24,611.23L175.21,611.07L175.21,610.77L175.24,610.61L175.3,610.46L175.39,610.31L175.52,610.16L175.67,610.03L175.82,609.94L175.97,609.88L176.13,609.85L176.28,609.84"/>
    </g>
    <g transform="matrix(-0.00419285,-1.33333,-1.33333,0.00419285,959.827,367.17)">
        <path d="M164.86,616.44L177.58,616.44" style="fill:none;fill-rule:nonzero;stroke:black;stroke-width:0.72px;"/>
    </g>
    <g transform="matrix(-0.00838558,1.33331,1.33331,0.00838558,-652.609,-61.0289)">
        <path d="M164.82,593.4L177.54,593.4" style="fill:none;fill-rule:nonzero;stroke:black;stroke-width:0.72px;"/>
    </g>
    <g transform="matrix(-1.33333,0,0,1.33333,335.14,-649.711)">
        <path d="M153.12,604.91L166.56,604.91" style="fill:none;fill-rule:nonzero;stroke:black;stroke-width:0.72px;"/>
    </g>
    <g transform="matrix(1.33333,0,0,1.33333,-91.1,-610.057)">
        <path d="M163.92,597.12L162.48,596.4L161.28,595.44L160.08,594.24L159.36,592.8L159.12,591.12L158.88,590.4L159.36,588L160.32,586.08L161.04,585.12L162,584.4L163.92,583.44L165.12,583.2L165.6,583.2L166.32,582.96L168.48,583.44" style="fill:none;fill-rule:nonzero;stroke:black;stroke-width:0.48px;"/>
    </g>
    <g transform="matrix(1.2958,0.314133,0.314133,-1.2958,-272.35,889.308)">
        <path d="M160.219,597.573L168.369,597.573L161.124,593.841L162.071,596.046L160.219,597.573Z" style="stroke:black;stroke-width:0.48px;"/>
    </g>
    <g transform="matrix(1.33333,0,0,1.33333,-91.1,-653.897)">
        <path d="M198.72,601.68L198,605.28L197.52,606.24L196.8,607.44L195.36,609.36L194.64,610.08L192.72,611.52L191.52,612L190.56,612.48L189.36,612.96L188.16,613.2L185.04,613.2L183.84,612.96L182.88,612.72L181.68,612.48L179.76,611.52L178.8,610.8L178.08,610.08L177.12,609.36L176.4,608.64L175.92,607.68L175.2,606.72L174.72,605.76L174.48,604.56L174,603.6L173.76,602.4L173.76,599.76" style="fill:none;fill-rule:nonzero;stroke:black;stroke-width:0.48px;"/>
    </g>
    <g transform="matrix(1.33333,0,0,1.33333,-91.1,-655.817)">
        <path d="M198.72,603.12L198.72,611.28L197.04,609.36L198.72,603.12Z" style="stroke:black;stroke-width:0.48px;"/>
    </g>
    <g transform="matrix(1.33333,0,0,1.33333,-87.1,-643.017)">
        <path d="M209.28,602.4L243.36,602.4" style="fill:none;fill-rule:nonzero;stroke:black;stroke-width:0.72px;"/>
    </g>
    <g transform="matrix(1.33333,0,0,1.33333,-87.1,-650.697)">
        <path d="M209.28,605.28L243.36,605.28" style="fill:none;fill-rule:nonzero;stroke:black;stroke-width:0.72px;"/>
    </g>
    <g transform="matrix(1.33333,0,0,1.33333,-87.1,-646.857)">
        <path d="M238.8,600.24L246.72,603.84L238.8,607.44" style="fill:none;fill-rule:nonzero;stroke:black;stroke-width:0.72px;"/>
    </g>
    <g transform="matrix(0.66989,-1.15283,-1.15283,-0.66989,827.999,913.534)">
        <path d="M299.871,611.08L316.989,611.08" style="fill:none;fill-rule:nonzero;stroke:black;stroke-width:0.72px;"/>
    </g>
    <g transform="matrix(-1.33333,0,0,1.33333,705.847,-646.431)">
        <path d="M286.08,603.68L304.13,603.68" style="fill:none;fill-rule:nonzero;stroke:black;stroke-width:0.72px;"/>
    </g>
    <g transform="matrix(-1.33333,0,0,1.33333,709.727,-655.391)">
        <path d="M290.64,607.04L302.48,607.04" style="fill:none;fill-rule:nonzero;stroke:black;stroke-width:0.72px;"/>
    </g>
    <g transform="matrix(0.670269,1.15261,1.15261,-0.670269,-563.931,212.507)">
        <path d="M299.896,596.32L316.924,596.32" style="fill:none;fill-rule:nonzero;stroke:black;stroke-width:0.72px;"/>
    </g>
    <g transform="matrix(-0.666871,-1.15458,-1.15458,0.666871,1178.2,57.3293)">
        <path d="M272.091,612.36L280.129,612.36" style="fill:none;fill-rule:nonzero;stroke:black;stroke-width:0.72px;"/>
    </g>
    <g transform="matrix(0,1.33333,1.33333,0,-428.78,-170.217)">
        <path d="M280.44,555.48L309,555.48" style="fill:none;fill-rule:nonzero;stroke:black;stroke-width:0.72px;"/>
    </g>
    <g transform="matrix(0,1.33333,1.33333,0,-424.94,-174.057)">
        <path d="M283.32,555.48L311.88,555.48" style="fill:none;fill-rule:nonzero;stroke:black;stroke-width:0.72px;"/>
    </g>
    <g transform="matrix(1.33333,0,0,1.33333,-81.1,-481.417)">
        <path d="M299.76,537.84L296.16,545.76L292.56,537.84" style="fill:none;fill-rule:nonzero;stroke:black;stroke-width:0.72px;"/>
    </g>
    <g transform="matrix(1.33333,0,0,1.33333,-81.1,-360.777)">
        <path d="M290.64,496.56L306,496.56" style="fill:none;fill-rule:nonzero;stroke:black;stroke-width:0.72px;"/>
    </g>
    <g transform="matrix(0.666796,1.15463,1.15463,-0.666796,-441.243,279.09)">
        <path d="M302.536,490.56L316.394,490.56" style="fill:none;fill-rule:nonzero;stroke:black;stroke-width:0.72px;"/>
    </g>
    <g transform="matrix(0.667127,-1.15443,-1.15443,-0.667127,705.885,988.068)">
        <path d="M303.745,502.14L318.575,502.14" style="fill:none;fill-rule:nonzero;stroke:black;stroke-width:0.72px;"/>
    </g>
    <g transform="matrix(0.666267,-1.15493,-1.15493,-0.666267,705.179,983.314)">
        <path d="M301.301,503.025L314.289,503.025" style="fill:none;fill-rule:nonzero;stroke:black;stroke-width:0.72px;"/>
    </g>
</svg>
