<?xml version="1.0" encoding="UTF-8" standalone="no"?>
<!DOCTYPE svg PUBLIC "-//W3C//DTD SVG 1.1//EN" "http://www.w3.org/Graphics/SVG/1.1/DTD/svg11.dtd">
<svg width="100%" height="100%" viewBox="0 0 455 70" version="1.1" xmlns="http://www.w3.org/2000/svg" xmlns:xlink="http://www.w3.org/1999/xlink" xml:space="preserve" xmlns:serif="http://www.serif.com/" style="fill-rule:evenodd;clip-rule:evenodd;stroke-linecap:round;stroke-linejoin:round;stroke-miterlimit:10;">
    <g transform="matrix(1.33333,0,0,1.33333,-87.6679,-92.6028)">
        <text x="68.64px" y="83.76px" style="font-family:'ArialMT', 'Arial', sans-serif;font-size:10px;">R</text>
        <text x="76.08px" y="76.8px" style="font-family:'ArialMT', 'Arial', sans-serif;font-size:8px;">1</text>
    </g>
    <g transform="matrix(1.33333,0,0,1.33333,-87.6679,-92.6028)">
        <text x="68.4px" y="118.08px" style="font-family:'ArialMT', 'Arial', sans-serif;font-size:10px;">O</text>
    </g>
    <g transform="matrix(1.33333,0,0,1.33333,-87.6679,-92.6028)">
        <text x="108.24px" y="118.08px" style="font-family:'ArialMT', 'Arial', sans-serif;font-size:10px;">O</text>
    </g>
    <g transform="matrix(1.33333,0,0,1.33333,-87.6679,-92.6028)">
        <text x="108.48px" y="83.76px" style="font-family:'ArialMT', 'Arial', sans-serif;font-size:10px;">R</text>
        <text x="115.92px" y="76.8px" style="font-family:'ArialMT', 'Arial', sans-serif;font-size:8px;">2</text>
    </g>
    <g transform="matrix(1.33333,0,0,1.33333,-87.6679,-92.6028)">
        <text x="200.88px" y="91.92px" style="font-family:'ArialMT', 'Arial', sans-serif;font-size:10px;">R</text>
        <text x="208.32px" y="84.96px" style="font-family:'ArialMT', 'Arial', sans-serif;font-size:8px;">1</text>
    </g>
    <g transform="matrix(1.33333,0,0,1.33333,-87.6679,-92.6028)">
        <text x="240.72px" y="91.92px" style="font-family:'ArialMT', 'Arial', sans-serif;font-size:10px;">R</text>
        <text x="248.16px" y="84.96px" style="font-family:'ArialMT', 'Arial', sans-serif;font-size:8px;">2</text>
    </g>
    <g transform="matrix(1.33333,0,0,1.33333,-87.6679,-96.6028)">
        <text x="267.84px" y="104.88px" style="font-family:'ArialMT', 'Arial', sans-serif;font-size:18px;">+</text>
        <text x="295.44px" y="102px" style="font-family:'ArialMT', 'Arial', sans-serif;font-size:10px;">I</text>
        <text x="298.32px" y="104.64px" style="font-family:'ArialMT', 'Arial', sans-serif;font-size:6px;">2</text>
        <text x="318.48px" y="105.36px" style="font-family:'ArialMT', 'Arial', sans-serif;font-size:18px;"><tspan x="318.48px " y="105.36px ">+</tspan></text>
    </g>
    <g transform="matrix(1.33333,0,0,1.33333,-87.6679,-96.6028)">
        <text x="369.84px" y="105.6px" style="font-family:'ArialMT', 'Arial', sans-serif;font-size:10px;">S</text>
    </g>
    <g transform="matrix(1.33333,0,0,1.33333,-87.6679,-96.6028)">
        <text x="369.36px" y="85.68px" style="font-family:'ArialMT', 'Arial', sans-serif;font-size:10px;">O</text>
    </g>
    <g transform="matrix(1.33333,0,0,1.33333,-87.6679,-96.6028)">
        <text x="352.32px" y="115.44px" style="font-family:'ArialMT', 'Arial', sans-serif;font-size:10px;">C</text>
    </g>
    <g transform="matrix(1.33333,0,0,1.33333,-87.6679,-96.6028)">
        <text x="340.8px" y="115.44px" style="font-family:'ArialMT', 'Arial', sans-serif;font-size:10px;">H</text>
        <text x="348px" y="118.08px" style="font-family:'ArialMT', 'Arial', sans-serif;font-size:8px;">3</text>
    </g>
    <g transform="matrix(1.33333,0,0,1.33333,-87.6679,-96.6028)">
        <text x="386.64px" y="115.44px" style="font-family:'ArialMT', 'Arial', sans-serif;font-size:10px;">CH</text>
        <text x="401.04px" y="118.08px" style="font-family:'ArialMT', 'Arial', sans-serif;font-size:8px;">3</text>
    </g>
    <g transform="matrix(1.33333,0,0,1.33333,-87.6679,-956.603)">
        <path d="M82.32,744.96L102.24,744.96" style="fill:none;fill-rule:nonzero;stroke:black;stroke-width:0.72px;"/>
    </g>
    <g transform="matrix(-0.666796,-1.15463,-1.15463,0.666796,937.13,-381.012)">
        <path d="M71.926,750.96L85.784,750.96" style="fill:none;fill-rule:nonzero;stroke:black;stroke-width:0.72px;"/>
    </g>
    <g transform="matrix(-0.667127,1.15443,1.15443,0.667127,-786.878,-538.219)">
        <path d="M69.745,739.38L84.575,739.38" style="fill:none;fill-rule:nonzero;stroke:black;stroke-width:0.72px;"/>
    </g>
    <g transform="matrix(-0.666267,1.15493,1.15493,0.666267,-779.561,-539.738)">
        <path d="M74.031,738.495L87.019,738.495" style="fill:none;fill-rule:nonzero;stroke:black;stroke-width:0.72px;"/>
    </g>
    <g transform="matrix(0.666267,1.15493,1.15493,-0.666267,-871.181,417.179)">
        <path d="M97.541,738.495L110.529,738.495" style="fill:none;fill-rule:nonzero;stroke:black;stroke-width:0.72px;"/>
    </g>
    <g transform="matrix(0.667127,1.15443,1.15443,-0.667127,-869.683,413.391)">
        <path d="M99.985,739.38L114.815,739.38" style="fill:none;fill-rule:nonzero;stroke:black;stroke-width:0.72px;"/>
    </g>
    <g transform="matrix(0.666796,-1.15463,-1.15463,-0.666796,849.866,651.464)">
        <path d="M98.776,750.96L112.634,750.96" style="fill:none;fill-rule:nonzero;stroke:black;stroke-width:0.72px;"/>
    </g>
    <g transform="matrix(1.33333,0,0,1.33333,-87.6679,-954.683)">
        <path d="M139.68,744.24L173.76,744.24" style="fill:none;fill-rule:nonzero;stroke:black;stroke-width:0.72px;"/>
    </g>
    <g transform="matrix(1.33333,0,0,1.33333,-87.6679,-962.363)">
        <path d="M139.68,747.12L173.76,747.12" style="fill:none;fill-rule:nonzero;stroke:black;stroke-width:0.72px;"/>
    </g>
    <g transform="matrix(1.33333,0,0,1.33333,-87.6679,-958.523)">
        <path d="M169.2,742.08L177.12,745.68L169.2,749.28" style="fill:none;fill-rule:nonzero;stroke:black;stroke-width:0.72px;"/>
    </g>
    <g transform="matrix(1.33333,0,0,1.33333,-87.6679,-934.843)">
        <path d="M214.56,736.8L234.48,736.8" style="fill:none;fill-rule:nonzero;stroke:black;stroke-width:0.72px;"/>
    </g>
    <g transform="matrix(1.33333,0,0,1.33333,-87.6679,-943.803)">
        <path d="M216.22,740.16L232.82,740.16" style="fill:none;fill-rule:nonzero;stroke:black;stroke-width:0.72px;"/>
    </g>
    <g transform="matrix(1.33333,0,0,1.33333,-87.6679,-951.336)">
        <path d="M214.56,749.17L215.23,748.65L215.61,748.08L215.59,747.6L215.19,747.35L214.5,747.39L213.72,747.72L212.94,748.04L212.25,748.08L211.85,747.83L211.83,747.35L212.21,746.78L213.55,745.74L213.93,745.17L213.91,744.69L213.51,744.44L212.82,744.48L212.04,744.81L211.26,745.13L210.57,745.17L210.17,744.92L210.15,744.44L210.53,743.87L211.87,742.83L212.25,742.26L212.23,741.78L211.83,741.53L211.14,741.57L210.36,741.9L209.58,742.22L208.89,742.26L208.49,742.01L208.47,741.53L208.85,740.96L210.19,739.92L210.57,739.35L210.55,738.87L210.15,738.62L209.46,738.66L208.68,738.99L207.9,739.31L207.21,739.35L206.81,739.1L206.79,738.62L207.17,738.05L207.84,737.53L208.28,737.24L208.58,736.98L208.65,736.82L208.48,736.8L208.1,736.93L207.63,737.17" style="fill:none;fill-rule:nonzero;stroke:black;stroke-width:0.72px;"/>
    </g>
    <g transform="matrix(1.33333,0,0,1.33333,-87.6679,-950.363)">
        <path d="M234.48,748.44L235.26,748.76L235.95,748.8L236.35,748.55L236.37,748.08L235.99,747.5L235.32,746.99L234.65,746.47L234.27,745.89L234.29,745.42L234.69,745.17L235.38,745.21L236.94,745.85L237.63,745.89L238.03,745.64L238.05,745.17L237.67,744.59L237,744.08L236.33,743.56L235.95,742.98L235.97,742.51L236.37,742.26L237.06,742.3L238.62,742.94L239.31,742.98L239.71,742.73L239.73,742.26L239.35,741.68L238.68,741.17L238.01,740.65L237.63,740.07L237.65,739.6L238.05,739.35L238.74,739.39L240.3,740.03L240.99,740.07L241.39,739.82L241.41,739.35L241.03,738.77L240.36,738.26L239.69,737.74L239.31,737.16L239.33,736.69L239.73,736.44L240.42,736.48L241.2,736.8L241.39,736.91L241.59,737.01L241.54,736.97L241.4,736.89L241.21,736.77" style="fill:none;fill-rule:nonzero;stroke:black;stroke-width:0.72px;"/>
    </g>
    <g transform="matrix(0,-1.33333,-1.33333,0,1412.49,525.477)">
        <path d="M370.08,750.24L379.68,750.24" style="fill:none;fill-rule:nonzero;stroke:black;stroke-width:0.72px;"/>
    </g>
    <g transform="matrix(0,-1.33333,-1.33333,0,1408.01,520.997)">
        <path d="M366.72,750.24L376.32,750.24" style="fill:none;fill-rule:nonzero;stroke:black;stroke-width:0.72px;"/>
    </g>
    <g transform="matrix(-1.15469,0.666693,0.666693,1.15469,329.32,-1047.07)">
        <path d="M359.83,735.485L369.53,735.485" style="fill:none;fill-rule:nonzero;stroke:black;stroke-width:0.72px;"/>
    </g>
    <g transform="matrix(1.15416,0.667602,0.667602,-1.15416,-510.35,639.409)">
        <path d="M376.887,735.55L386.313,735.55" style="fill:none;fill-rule:nonzero;stroke:black;stroke-width:0.72px;"/>
    </g>
</svg>
