<?xml version="1.0" encoding="UTF-8" standalone="no"?>
<!DOCTYPE svg PUBLIC "-//W3C//DTD SVG 1.1//EN" "http://www.w3.org/Graphics/SVG/1.1/DTD/svg11.dtd">
<svg width="100%" height="100%" viewBox="0 0 545 195" version="1.1" xmlns="http://www.w3.org/2000/svg" xmlns:xlink="http://www.w3.org/1999/xlink" xml:space="preserve" xmlns:serif="http://www.serif.com/" style="fill-rule:evenodd;clip-rule:evenodd;stroke-linecap:round;stroke-linejoin:round;stroke-miterlimit:10;">
    <g transform="matrix(1.33333,0,0,1.33333,-88.08,-113.773)">
        <text x="69.84px" y="101.04px" style="font-family:'ArialMT', 'Arial', sans-serif;font-size:10px;">R</text>
        <text x="77.28px" y="94.08px" style="font-family:'ArialMT', 'Arial', sans-serif;font-size:8px;">1</text>
    </g>
    <g transform="matrix(1.33333,0,0,1.33333,-88.08,-113.773)">
        <text x="69.6px" y="135.36px" style="font-family:'ArialMT', 'Arial', sans-serif;font-size:10px;">O</text>
    </g>
    <g transform="matrix(1.33333,0,0,1.33333,-88.08,-113.773)">
        <text x="109.44px" y="135.36px" style="font-family:'ArialMT', 'Arial', sans-serif;font-size:10px;">O</text>
    </g>
    <g transform="matrix(1.33333,0,0,1.33333,-88.08,-113.773)">
        <text x="109.68px" y="101.04px" style="font-family:'ArialMT', 'Arial', sans-serif;font-size:10px;">R</text>
        <text x="117.12px" y="94.08px" style="font-family:'ArialMT', 'Arial', sans-serif;font-size:8px;">2</text>
    </g>
    <g transform="matrix(1.33333,0,0,1.33333,-88.08,-113.773)">
        <text x="224.88px" y="101.52px" style="font-family:'ArialMT', 'Arial', sans-serif;font-size:10px;">R</text>
        <text x="232.32px" y="94.56px" style="font-family:'ArialMT', 'Arial', sans-serif;font-size:8px;">1</text>
    </g>
    <g transform="matrix(1.33333,0,0,1.33333,-88.08,-113.773)">
        <text x="224.88px" y="135.84px" style="font-family:'ArialMT', 'Arial', sans-serif;font-size:10px;">N</text>
    </g>
    <g transform="matrix(1.33333,0,0,1.33333,-88.08,-113.773)">
        <text x="264.48px" y="135.84px" style="font-family:'ArialMT', 'Arial', sans-serif;font-size:10px;">O</text>
    </g>
    <g transform="matrix(1.33333,0,0,1.33333,-88.08,-113.773)">
        <text x="264.72px" y="101.52px" style="font-family:'ArialMT', 'Arial', sans-serif;font-size:10px;">R</text>
        <text x="272.16px" y="94.56px" style="font-family:'ArialMT', 'Arial', sans-serif;font-size:8px;">2</text>
    </g>
    <g transform="matrix(1.33333,0,0,1.33333,-88.08,-113.773)">
        <text x="204.72px" y="135.84px" style="font-family:'ArialMT', 'Arial', sans-serif;font-size:10px;">O</text>
    </g>
    <g transform="matrix(1.33333,0,0,1.33333,-88.08,-113.773)">
        <text x="197.52px" y="135.84px" style="font-family:'ArialMT', 'Arial', sans-serif;font-size:10px;">H</text>
    </g>
    <g transform="matrix(1.33333,0,0,1.33333,-88.08,-113.773)">
        <text x="367.44px" y="102.24px" style="font-family:'ArialMT', 'Arial', sans-serif;font-size:10px;">R</text>
        <text x="374.88px" y="95.28px" style="font-family:'ArialMT', 'Arial', sans-serif;font-size:8px;">1</text>
    </g>
    <g transform="matrix(1.33333,0,0,1.33333,-88.08,-113.773)">
        <text x="367.44px" y="136.56px" style="font-family:'ArialMT', 'Arial', sans-serif;font-size:10px;">N</text>
    </g>
    <g transform="matrix(1.33333,0,0,1.33333,-88.08,-113.773)">
        <text x="407.04px" y="136.56px" style="font-family:'ArialMT', 'Arial', sans-serif;font-size:10px;">O</text>
    </g>
    <g transform="matrix(1.33333,0,0,1.33333,-88.08,-113.773)">
        <text x="407.28px" y="102.24px" style="font-family:'ArialMT', 'Arial', sans-serif;font-size:10px;">R</text>
        <text x="414.72px" y="95.28px" style="font-family:'ArialMT', 'Arial', sans-serif;font-size:8px;">2</text>
    </g>
    <g transform="matrix(1.33333,0,0,1.33333,-88.08,-113.773)">
        <text x="347.28px" y="136.56px" style="font-family:'ArialMT', 'Arial', sans-serif;font-size:10px;">O</text>
    </g>
    <g transform="matrix(1.33333,0,0,1.33333,-88.08,-113.773)">
        <text x="128.88px" y="193.92px" style="font-family:'ArialMT', 'Arial', sans-serif;font-size:10px;">R</text>
        <text x="136.32px" y="186.96px" style="font-family:'ArialMT', 'Arial', sans-serif;font-size:8px;">1</text>
    </g>
    <g transform="matrix(1.33333,0,0,1.33333,-88.08,-113.773)">
        <text x="168.48px" y="228.24px" style="font-family:'ArialMT', 'Arial', sans-serif;font-size:10px;">O</text>
    </g>
    <g transform="matrix(1.33333,0,0,1.33333,-88.08,-113.773)">
        <text x="168.72px" y="193.92px" style="font-family:'ArialMT', 'Arial', sans-serif;font-size:10px;">R</text>
        <text x="176.16px" y="186.96px" style="font-family:'ArialMT', 'Arial', sans-serif;font-size:8px;">2</text>
    </g>
    <g transform="matrix(1.33333,0,0,1.33333,-88.08,-116.773)">
        <text x="192.48px" y="214.08px" style="font-family:'ArialMT', 'Arial', sans-serif;font-size:18px;">+</text>
        <text x="221.28px" y="208.8px" style="font-family:'ArialMT', 'Arial', sans-serif;font-size:10px;">NaN</text>
        <text x="241.23px" y="208.8px" style="font-family:'ArialMT', 'Arial', sans-serif;font-size:10px;">O</text>
        <text x="249.153px" y="211.44px" style="font-family:'ArialMT', 'Arial', sans-serif;font-size:6px;">2</text>
    </g>
    <g transform="matrix(1.33333,0,0,1.33333,-88.08,-115.773)">
        <text x="264.72px" y="212.88px" style="font-family:'ArialMT', 'Arial', sans-serif;font-size:18px;">+</text>
        <text x="293.52px" y="209.52px" style="font-family:'ArialMT', 'Arial', sans-serif;font-size:10px;">HX</text>
    </g>
    <g transform="matrix(1.33333,0,0,1.33333,-88.08,-931.693)">
        <path d="M83.52,727.68L103.44,727.68" style="fill:none;fill-rule:nonzero;stroke:black;stroke-width:0.72px;"/>
    </g>
    <g transform="matrix(-0.666796,-1.15463,-1.15463,0.666796,919.166,-366.235)">
        <path d="M73.126,733.68L86.984,733.68" style="fill:none;fill-rule:nonzero;stroke:black;stroke-width:0.72px;"/>
    </g>
    <g transform="matrix(-0.667127,1.15443,1.15443,0.667127,-764.941,-526.207)">
        <path d="M70.945,722.1L85.775,722.1" style="fill:none;fill-rule:nonzero;stroke:black;stroke-width:0.72px;"/>
    </g>
    <g transform="matrix(-0.666267,1.15493,1.15493,0.666267,-757.616,-527.742)">
        <path d="M75.231,721.215L88.219,721.215" style="fill:none;fill-rule:nonzero;stroke:black;stroke-width:0.72px;"/>
    </g>
    <g transform="matrix(0.666267,1.15493,1.15493,-0.666267,-850.835,406.149)">
        <path d="M98.741,721.215L111.729,721.215" style="fill:none;fill-rule:nonzero;stroke:black;stroke-width:0.72px;"/>
    </g>
    <g transform="matrix(0.667127,1.15443,1.15443,-0.667127,-849.347,402.347)">
        <path d="M101.185,722.1L116.015,722.1" style="fill:none;fill-rule:nonzero;stroke:black;stroke-width:0.72px;"/>
    </g>
    <g transform="matrix(0.666796,-1.15463,-1.15463,-0.666796,830.302,643.197)">
        <path d="M99.976,733.68L113.834,733.68" style="fill:none;fill-rule:nonzero;stroke:black;stroke-width:0.72px;"/>
    </g>
    <g transform="matrix(1.33333,0,0,1.33333,-88.08,-929.773)">
        <path d="M140.88,726.96L174.96,726.96" style="fill:none;fill-rule:nonzero;stroke:black;stroke-width:0.72px;"/>
    </g>
    <g transform="matrix(1.33333,0,0,1.33333,-88.08,-937.453)">
        <path d="M140.88,729.84L174.96,729.84" style="fill:none;fill-rule:nonzero;stroke:black;stroke-width:0.72px;"/>
    </g>
    <g transform="matrix(1.33333,0,0,1.33333,-88.08,-933.613)">
        <path d="M170.4,724.8L178.32,728.4L170.4,732" style="fill:none;fill-rule:nonzero;stroke:black;stroke-width:0.72px;"/>
    </g>
    <g transform="matrix(1.33333,0,0,1.33333,-88.08,-930.413)">
        <path d="M238.56,727.2L258.48,727.2" style="fill:none;fill-rule:nonzero;stroke:black;stroke-width:0.72px;"/>
    </g>
    <g transform="matrix(-0.666796,-1.15463,-1.15463,0.666796,1228.71,-186.262)">
        <path d="M228.166,733.2L242.024,733.2" style="fill:none;fill-rule:nonzero;stroke:black;stroke-width:0.72px;"/>
    </g>
    <g transform="matrix(-0.666796,1.15463,1.15463,0.666796,-450.576,-705.154)">
        <path d="M228.166,721.2L242.024,721.2" style="fill:none;fill-rule:nonzero;stroke:black;stroke-width:0.72px;"/>
    </g>
    <g transform="matrix(-0.666895,1.15457,1.15457,0.666895,-458.27,-701.053)">
        <path d="M224.217,721.32L238.353,721.32" style="fill:none;fill-rule:nonzero;stroke:black;stroke-width:0.72px;"/>
    </g>
    <g transform="matrix(0.666267,1.15493,1.15493,-0.666267,-746.859,227.409)">
        <path d="M253.781,720.735L266.769,720.735" style="fill:none;fill-rule:nonzero;stroke:black;stroke-width:0.72px;"/>
    </g>
    <g transform="matrix(0.667127,1.15443,1.15443,-0.667127,-745.505,223.683)">
        <path d="M256.225,721.62L271.055,721.62" style="fill:none;fill-rule:nonzero;stroke:black;stroke-width:0.72px;"/>
    </g>
    <g transform="matrix(0.666796,-1.15463,-1.15463,-0.666796,933.088,822.53)">
        <path d="M255.016,733.2L268.874,733.2" style="fill:none;fill-rule:nonzero;stroke:black;stroke-width:0.72px;"/>
    </g>
    <g transform="matrix(-1.33333,0,0,1.33333,495.28,-884.413)">
        <path d="M213.6,709.95L223.92,709.95" style="fill:none;fill-rule:nonzero;stroke:black;stroke-width:0.72px;"/>
    </g>
    <g transform="matrix(1.33333,0,0,1.33333,-88.08,-926.573)">
        <path d="M297.12,725.76L331.2,725.76" style="fill:none;fill-rule:nonzero;stroke:black;stroke-width:0.72px;"/>
    </g>
    <g transform="matrix(1.33333,0,0,1.33333,-88.08,-934.253)">
        <path d="M297.12,728.64L331.2,728.64" style="fill:none;fill-rule:nonzero;stroke:black;stroke-width:0.72px;"/>
    </g>
    <g transform="matrix(1.2958,0.314133,0.314133,-1.2958,-304.688,878.641)">
        <path d="M322.939,729.573L331.089,729.573L323.844,725.841L324.791,728.046L322.939,729.573Z" style="stroke:black;stroke-width:0.72px;"/>
    </g>
    <g transform="matrix(-1.2958,0.314133,0.314133,1.2958,475.514,-993.913)">
        <path d="M296.779,724.827L304.929,724.827L297.684,728.559L298.631,726.354L296.779,724.827Z" style="stroke:black;stroke-width:0.72px;"/>
    </g>
    <g transform="matrix(1.33333,0,0,1.33333,-88.08,-928.493)">
        <path d="M381.12,726.48L401.04,726.48" style="fill:none;fill-rule:nonzero;stroke:black;stroke-width:0.72px;"/>
    </g>
    <g transform="matrix(-0.666796,-1.15463,-1.15463,0.666796,1513.02,-20.2181)">
        <path d="M370.726,732.48L384.584,732.48" style="fill:none;fill-rule:nonzero;stroke:black;stroke-width:0.72px;"/>
    </g>
    <g transform="matrix(-0.666796,1.15463,1.15463,0.666796,-164.606,-868.317)">
        <path d="M370.726,720.48L384.584,720.48" style="fill:none;fill-rule:nonzero;stroke:black;stroke-width:0.72px;"/>
    </g>
    <g transform="matrix(0.666267,1.15493,1.15493,-0.666267,-650.93,63.2422)">
        <path d="M396.341,720.015L409.329,720.015" style="fill:none;fill-rule:nonzero;stroke:black;stroke-width:0.72px;"/>
    </g>
    <g transform="matrix(0.667127,1.15443,1.15443,-0.667127,-649.699,59.5869)">
        <path d="M398.785,720.9L413.615,720.9" style="fill:none;fill-rule:nonzero;stroke:black;stroke-width:0.72px;"/>
    </g>
    <g transform="matrix(0.666796,-1.15463,-1.15463,-0.666796,1027.28,987.613)">
        <path d="M397.576,732.48L411.434,732.48" style="fill:none;fill-rule:nonzero;stroke:black;stroke-width:0.72px;"/>
    </g>
    <g transform="matrix(-1.33333,0,0,1.33333,875.44,-886.973)">
        <path d="M356.16,710.91L366.48,710.91" style="fill:none;fill-rule:nonzero;stroke:black;stroke-width:0.72px;"/>
    </g>
    <g transform="matrix(-1.33333,0,0,1.33333,875.44,-878.013)">
        <path d="M356.16,707.55L366.48,707.55" style="fill:none;fill-rule:nonzero;stroke:black;stroke-width:0.72px;"/>
    </g>
    <g transform="matrix(1.33333,0,0,1.33333,-88.08,-927.853)">
        <path d="M435.12,726.24L469.2,726.24" style="fill:none;fill-rule:nonzero;stroke:black;stroke-width:0.72px;"/>
    </g>
    <g transform="matrix(1.33333,0,0,1.33333,-88.08,-935.533)">
        <path d="M435.12,729.12L469.2,729.12" style="fill:none;fill-rule:nonzero;stroke:black;stroke-width:0.72px;"/>
    </g>
    <g transform="matrix(1.33333,0,0,1.33333,-88.08,-931.693)">
        <path d="M464.64,724.08L472.56,727.68L464.64,731.28" style="fill:none;fill-rule:nonzero;stroke:black;stroke-width:0.72px;"/>
    </g>
    <g transform="matrix(1.33333,0,0,1.33333,-88.08,-684.653)">
        <path d="M68.16,635.04L102.24,635.04" style="fill:none;fill-rule:nonzero;stroke:black;stroke-width:0.72px;"/>
    </g>
    <g transform="matrix(1.33333,0,0,1.33333,-88.08,-692.333)">
        <path d="M68.16,637.92L102.24,637.92" style="fill:none;fill-rule:nonzero;stroke:black;stroke-width:0.72px;"/>
    </g>
    <g transform="matrix(1.33333,0,0,1.33333,-88.08,-688.493)">
        <path d="M97.68,632.88L105.6,636.48L97.68,640.08" style="fill:none;fill-rule:nonzero;stroke:black;stroke-width:0.72px;"/>
    </g>
    <g transform="matrix(1.33333,0,0,1.33333,-88.08,-684.013)">
        <path d="M142.56,634.8L162.48,634.8" style="fill:none;fill-rule:nonzero;stroke:black;stroke-width:0.72px;"/>
    </g>
    <g transform="matrix(-0.666796,-1.15463,-1.15463,0.666796,930.012,-112.294)">
        <path d="M132.166,640.8L146.024,640.8" style="fill:none;fill-rule:nonzero;stroke:black;stroke-width:0.72px;"/>
    </g>
    <g transform="matrix(0.666267,1.15493,1.15493,-0.666267,-704.181,399.919)">
        <path d="M157.781,628.335L170.769,628.335" style="fill:none;fill-rule:nonzero;stroke:black;stroke-width:0.72px;"/>
    </g>
    <g transform="matrix(0.667127,1.15443,1.15443,-0.667127,-702.791,396.067)">
        <path d="M160.225,629.22L175.055,629.22" style="fill:none;fill-rule:nonzero;stroke:black;stroke-width:0.72px;"/>
    </g>
    <g transform="matrix(0.666796,-1.15463,-1.15463,-0.666796,762.413,773.274)">
        <path d="M159.016,640.8L172.874,640.8" style="fill:none;fill-rule:nonzero;stroke:black;stroke-width:0.72px;"/>
    </g>
</svg>
