<?xml version="1.0" encoding="UTF-8" standalone="no"?>
<!DOCTYPE svg PUBLIC "-//W3C//DTD SVG 1.1//EN" "http://www.w3.org/Graphics/SVG/1.1/DTD/svg11.dtd">
<svg width="100%" height="100%" viewBox="0 0 245 75" version="1.1" xmlns="http://www.w3.org/2000/svg" xmlns:xlink="http://www.w3.org/1999/xlink" xml:space="preserve" xmlns:serif="http://www.serif.com/" style="fill-rule:evenodd;clip-rule:evenodd;stroke-linecap:round;stroke-linejoin:round;stroke-miterlimit:10;">
    <g transform="matrix(1.33333,0,0,1.33333,-98.06,-87.9757)">
        <text x="113.04px" y="120.96px" style="font-family:'ArialMT', 'Arial', sans-serif;font-size:10px;">H</text>
    </g>
    <g transform="matrix(1.33333,0,0,1.33333,-98.06,-87.9757)">
        <text x="127.92px" y="104.64px" style="font-family:'ArialMT', 'Arial', sans-serif;font-size:10px;">O<tspan x="135.84px " y="104.64px ">H</tspan></text>
    </g>
    <g transform="matrix(1.33333,0,0,1.33333,-98.06,-87.9757)">
        <text x="137.04px" y="93.6px" style="font-family:'ArialMT', 'Arial', sans-serif;font-size:10px;">O<tspan x="144.96px " y="93.6px ">H</tspan></text>
    </g>
    <g transform="matrix(1.33333,0,0,1.33333,-98.06,-87.9757)">
        <text x="123.84px" y="74.64px" style="font-family:'ArialMT', 'Arial', sans-serif;font-size:10px;">H</text>
    </g>
    <g transform="matrix(-0.694833,1.13797,1.13797,0.694833,-783.716,-572.118)">
        <path d="M70.981,746.78L90.899,746.78" style="fill:none;fill-rule:nonzero;stroke:black;stroke-width:0.72px;"/>
    </g>
    <g transform="matrix(-1.29134,-0.331974,-0.331974,1.29134,411.482,-906.208)">
        <path d="M85.711,751.965L112.339,751.965" style="fill:none;fill-rule:nonzero;stroke:black;stroke-width:0.72px;"/>
    </g>
    <g transform="matrix(-1.21904,0.540111,0.540111,1.21904,-199.081,-949.465)">
        <path d="M111.204,752.035L127.916,752.035" style="fill:none;fill-rule:nonzero;stroke:black;stroke-width:0.72px;"/>
    </g>
    <g transform="matrix(0.672035,-1.15158,-1.15158,-0.672035,842.695,681.415)">
        <path d="M112.146,746.775L132.164,746.775" style="fill:none;fill-rule:nonzero;stroke:black;stroke-width:0.72px;"/>
    </g>
    <g transform="matrix(1.28553,0.353833,0.353833,-1.28553,-355.498,962.229)">
        <path d="M90.983,741.66L117.587,741.66" style="fill:none;fill-rule:nonzero;stroke:black;stroke-width:0.72px;"/>
    </g>
    <g transform="matrix(-1.22049,0.536829,0.536829,1.22049,-282.732,-904.557)">
        <path d="M75.024,741.735L92.186,741.735" style="fill:none;fill-rule:nonzero;stroke:black;stroke-width:0.72px;"/>
    </g>
    <g transform="matrix(-0.0281511,1.33304,1.33304,0.0281511,-917.321,-120.887)">
        <path d="M112.999,734.105L121.051,734.105" style="fill:none;fill-rule:nonzero;stroke:black;stroke-width:0.72px;"/>
    </g>
    <g transform="matrix(1.30456,-0.275482,-0.275482,-1.30456,109.079,1046.94)">
        <path d="M117.001,739.17L127.069,739.17" style="fill:none;fill-rule:nonzero;stroke:black;stroke-width:0.72px;"/>
    </g>
    <g transform="matrix(1.30075,0.292962,0.292962,-1.30075,-314.787,971.437)">
        <path d="M127.089,754.42L136.191,754.42" style="fill:none;fill-rule:nonzero;stroke:black;stroke-width:0.72px;"/>
    </g>
    <g transform="matrix(0.0362593,-1.33284,-1.33284,-0.0362593,1081.07,217.566)">
        <path d="M122.013,760.75L132.677,760.75" style="fill:none;fill-rule:nonzero;stroke:black;stroke-width:0.72px;"/>
    </g>
    <g transform="matrix(1.33333,0,0,1.33333,-98.06,-955.816)">
        <path d="M167.28,746.4L201.36,746.4" style="fill:none;fill-rule:nonzero;stroke:black;stroke-width:0.72px;"/>
    </g>
    <g transform="matrix(1.33333,0,0,1.33333,-98.06,-963.496)">
        <path d="M167.28,749.28L201.36,749.28" style="fill:none;fill-rule:nonzero;stroke:black;stroke-width:0.72px;"/>
    </g>
    <g transform="matrix(1.33333,0,0,1.33333,-98.06,-959.656)">
        <path d="M196.8,744.24L204.72,747.84L196.8,751.44" style="fill:none;fill-rule:nonzero;stroke:black;stroke-width:0.72px;"/>
    </g>
    <g transform="matrix(0,1.33333,1.33333,0,-754.42,-302.016)">
        <path d="M245.13,747.36L265.05,747.36" style="fill:none;fill-rule:nonzero;stroke:black;stroke-width:0.72px;"/>
    </g>
    <g transform="matrix(-1.15468,-0.666702,-0.666702,1.15468,1023.38,-697.71)">
        <path d="M236.506,762.3L256.424,762.3" style="fill:none;fill-rule:nonzero;stroke:black;stroke-width:0.72px;"/>
    </g>
    <g transform="matrix(-1.15458,-0.666876,-0.666876,1.15458,1017.36,-691.471)">
        <path d="M236.488,759.39L253.082,759.39" style="fill:none;fill-rule:nonzero;stroke:black;stroke-width:0.72px;"/>
    </g>
    <g transform="matrix(-1.15468,0.666702,0.666702,1.15468,26.8422,-952.005)">
        <path d="M236.506,732.42L256.424,732.42" style="fill:none;fill-rule:nonzero;stroke:black;stroke-width:0.72px;"/>
    </g>
    <g transform="matrix(-1.15468,0.666702,0.666702,1.15468,-35.9971,-1014.85)">
        <path d="M219.256,762.3L239.174,762.3" style="fill:none;fill-rule:nonzero;stroke:black;stroke-width:0.72px;"/>
    </g>
    <g transform="matrix(-1.15468,-0.666702,-0.666702,1.15468,960.536,-634.868)">
        <path d="M219.256,732.42L239.174,732.42" style="fill:none;fill-rule:nonzero;stroke:black;stroke-width:0.72px;"/>
    </g>
    <g transform="matrix(0,1.33333,1.33333,0,-800.42,-256.016)">
        <path d="M210.63,747.36L230.55,747.36" style="fill:none;fill-rule:nonzero;stroke:black;stroke-width:0.72px;"/>
    </g>
</svg>
