<?xml version="1.0" encoding="UTF-8" standalone="no"?>
<!DOCTYPE svg PUBLIC "-//W3C//DTD SVG 1.1//EN" "http://www.w3.org/Graphics/SVG/1.1/DTD/svg11.dtd">
<svg width="100%" height="100%" viewBox="0 0 610 410" version="1.1" xmlns="http://www.w3.org/2000/svg" xmlns:xlink="http://www.w3.org/1999/xlink" xml:space="preserve" xmlns:serif="http://www.serif.com/" style="fill-rule:evenodd;clip-rule:evenodd;stroke-linecap:round;stroke-linejoin:round;stroke-miterlimit:10;">
    <g transform="matrix(1.33333,0,0,1.33333,-85.2,-79.48)">
        <text x="118.32px" y="139.92px" style="font-family:'ArialMT', 'Arial', sans-serif;font-size:10px;">R</text>
        <text x="125.76px" y="132.72px" style="font-family:'ArialMT', 'Arial', sans-serif;font-size:8px;">2</text>
    </g>
    <g transform="matrix(1.33333,0,0,1.33333,-85.2,-79.48)">
        <text x="67.44px" y="100.8px" style="font-family:'ArialMT', 'Arial', sans-serif;font-size:10px;">R</text>
        <text x="74.88px" y="93.6px" style="font-family:'ArialMT', 'Arial', sans-serif;font-size:8px;">2</text>
    </g>
    <g transform="matrix(1.33333,0,0,1.33333,-85.2,-79.48)">
        <text x="170.4px" y="115.92px" style="font-family:'ArialMT', 'Arial', sans-serif;font-size:10px;">Ph</text>
    </g>
    <g transform="matrix(1.33333,0,0,1.33333,-85.2,-79.48)">
        <text x="205.68px" y="132.96px" style="font-family:'ArialMT', 'Arial', sans-serif;font-size:10px;">O</text>
        <text x="213.6px" y="132.96px" style="font-family:'ArialMT', 'Arial', sans-serif;font-size:10px;">Ag</text>
    </g>
    <g transform="matrix(1.33333,0,0,1.33333,-85.2,-79.48)">
        <text x="205.68px" y="98.64px" style="font-family:'ArialMT', 'Arial', sans-serif;font-size:10px;">O</text>
    </g>
    <g transform="matrix(1.33333,0,0,1.33333,-85.2,-79.48)">
        <text x="274.8px" y="116.64px" style="font-family:'ArialMT', 'Arial', sans-serif;font-size:10px;">I</text>
        <text x="277.68px" y="119.28px" style="font-family:'ArialMT', 'Arial', sans-serif;font-size:6px;">2</text>
    </g>
    <g transform="matrix(1.33333,0,0,1.33333,-85.2,-79.48)">
        <text x="141.12px" y="120.48px" style="font-family:'ArialMT', 'Arial', sans-serif;font-size:18px;">+</text>
    </g>
    <g transform="matrix(1.33333,0,0,1.33333,-85.2,-79.48)">
        <text x="243.6px" y="121.44px" style="font-family:'ArialMT', 'Arial', sans-serif;font-size:18px;">+</text>
    </g>
    <g transform="matrix(1.33333,0,0,1.33333,-85.2,-79.48)">
        <text x="413.28px" y="116.4px" style="font-family:'ArialMT', 'Arial', sans-serif;font-size:10px;">H</text>
    </g>
    <g transform="matrix(1.33333,0,0,1.33333,-85.2,-79.48)">
        <text x="355.44px" y="117.6px" style="font-family:'ArialMT', 'Arial', sans-serif;font-size:10px;">R</text>
        <text x="362.88px" y="110.4px" style="font-family:'ArialMT', 'Arial', sans-serif;font-size:8px;">1</text>
    </g>
    <g transform="matrix(1.33333,0,0,1.33333,-85.2,-79.48)">
        <text x="386.88px" y="114.48px" style="font-family:'ArialMT', 'Arial', sans-serif;font-size:10px;">I</text>
        <text x="389.76px" y="107.28px" style="font-family:'ArialMT', 'Arial', sans-serif;font-size:8px;">+</text>
    </g>
    <g transform="matrix(1.33333,0,0,1.33333,-85.2,-79.48)">
        <text x="356.4px" y="147.36px" style="font-family:'ArialMT', 'Arial', sans-serif;font-size:10px;">H</text>
    </g>
    <g transform="matrix(1.33333,0,0,1.33333,-85.2,-79.48)">
        <text x="413.52px" y="148.56px" style="font-family:'ArialMT', 'Arial', sans-serif;font-size:10px;">R</text>
        <text x="420.96px" y="141.36px" style="font-family:'ArialMT', 'Arial', sans-serif;font-size:8px;">2</text>
    </g>
    <g transform="matrix(1.33333,0,0,1.33333,-85.2,-79.48)">
        <text x="443.04px" y="87.36px" style="font-family:'ArialMT', 'Arial', sans-serif;font-size:10px;">Ph</text>
    </g>
    <g transform="matrix(1.33333,0,0,1.33333,-85.2,-79.48)">
        <text x="478.32px" y="104.4px" style="font-family:'ArialMT', 'Arial', sans-serif;font-size:10px;">O</text>
        <text x="486.24px" y="97.44px" style="font-family:'ArialMT', 'Arial', sans-serif;font-size:8px;">–</text>
    </g>
    <g transform="matrix(1.33333,0,0,1.33333,-85.2,-79.48)">
        <text x="478.32px" y="70.08px" style="font-family:'ArialMT', 'Arial', sans-serif;font-size:10px;">O</text>
    </g>
    <g transform="matrix(1.33333,0,0,1.33333,-85.2,-79.48)">
        <text x="193.2px" y="212.64px" style="font-family:'ArialMT', 'Arial', sans-serif;font-size:10px;">R</text>
        <text x="200.64px" y="205.44px" style="font-family:'ArialMT', 'Arial', sans-serif;font-size:8px;">2</text>
    </g>
    <g transform="matrix(1.33333,0,0,1.33333,-85.2,-79.48)">
        <text x="117.6px" y="225.36px" style="font-family:'ArialMT', 'Arial', sans-serif;font-size:10px;">R</text>
        <text x="125.04px" y="218.16px" style="font-family:'ArialMT', 'Arial', sans-serif;font-size:8px;">1</text>
    </g>
    <g transform="matrix(1.33333,0,0,1.33333,-85.2,-79.48)">
        <text x="142.8px" y="200.16px" style="font-family:'ArialMT', 'Arial', sans-serif;font-size:10px;">I</text>
    </g>
    <g transform="matrix(1.33333,0,0,1.33333,-85.2,-79.48)">
        <text x="176.88px" y="242.16px" style="font-family:'ArialMT', 'Arial', sans-serif;font-size:10px;">O</text>
    </g>
    <g transform="matrix(1.33333,0,0,1.33333,-85.2,-79.48)">
        <text x="143.28px" y="257.52px" style="font-family:'ArialMT', 'Arial', sans-serif;font-size:10px;">O</text>
    </g>
    <g transform="matrix(1.33333,0,0,1.33333,-85.2,-79.48)">
        <text x="173.76px" y="278.88px" style="font-family:'ArialMT', 'Arial', sans-serif;font-size:10px;">Ph</text>
    </g>
    <g transform="matrix(1.33333,0,0,1.33333,-85.2,-79.48)">
        <text x="168.72px" y="199.2px" style="font-family:'ArialMT', 'Arial', sans-serif;font-size:10px;">H</text>
    </g>
    <g transform="matrix(1.33333,0,0,1.33333,-85.2,-79.48)">
        <text x="152.16px" y="241.92px" style="font-family:'ArialMT', 'Arial', sans-serif;font-size:10px;">H</text>
    </g>
    <g transform="matrix(0.835493,-1.0391,1.0391,0.835493,-85.2,-79.48)">
        <text x="-113.031px" y="275.402px" style="font-family:'ArialMT', 'Arial', sans-serif;font-size:10px;">:</text>
    </g>
    <g transform="matrix(-0.358522,-1.28423,1.28423,-0.358522,-85.2,-79.48)">
        <text x="-278.737px" y="75.314px" style="font-family:'ArialMT', 'Arial', sans-serif;font-size:10px;">:</text>
    </g>
    <g transform="matrix(1.33333,0,0,1.33333,-85.2,-79.48)">
        <text x="324.24px" y="234.24px" style="font-family:'ArialMT', 'Arial', sans-serif;font-size:10px;">R</text>
        <text x="331.68px" y="227.04px" style="font-family:'ArialMT', 'Arial', sans-serif;font-size:8px;">2</text>
    </g>
    <g transform="matrix(1.33333,0,0,1.33333,-85.2,-79.48)">
        <text x="265.44px" y="207.12px" style="font-family:'ArialMT', 'Arial', sans-serif;font-size:10px;">R</text>
        <text x="272.88px" y="199.92px" style="font-family:'ArialMT', 'Arial', sans-serif;font-size:8px;">1</text>
    </g>
    <g transform="matrix(1.33333,0,0,1.33333,-85.2,-79.48)">
        <text x="312.24px" y="244.08px" style="font-family:'ArialMT', 'Arial', sans-serif;font-size:10px;">O</text>
    </g>
    <g transform="matrix(1.33333,0,0,1.33333,-85.2,-79.48)">
        <text x="274.32px" y="245.52px" style="font-family:'ArialMT', 'Arial', sans-serif;font-size:10px;">O</text>
        <text x="282.24px" y="238.32px" style="font-family:'ArialMT', 'Arial', sans-serif;font-size:8px;">+</text>
    </g>
    <g transform="matrix(1.33333,0,0,1.33333,-85.2,-79.48)">
        <text x="294.96px" y="276.24px" style="font-family:'ArialMT', 'Arial', sans-serif;font-size:10px;">Ph</text>
    </g>
    <g transform="matrix(1.33333,0,0,1.33333,-85.2,-79.48)">
        <text x="261.12px" y="234.24px" style="font-family:'ArialMT', 'Arial', sans-serif;font-size:10px;">H</text>
    </g>
    <g transform="matrix(1.33333,0,0,1.33333,-85.2,-79.48)">
        <text x="321.84px" y="206.88px" style="font-family:'ArialMT', 'Arial', sans-serif;font-size:10px;">H</text>
    </g>
    <g transform="matrix(1.33333,0,0,1.33333,-85.2,-79.48)">
        <text x="363.6px" y="223.2px" style="font-family:'ArialMT', 'Arial', sans-serif;font-size:10px;">O</text>
    </g>
    <g transform="matrix(1.33333,0,0,1.33333,-85.2,-79.48)">
        <text x="352.08px" y="223.2px" style="font-family:'ArialMT', 'Arial', sans-serif;font-size:10px;">H</text>
        <text x="359.28px" y="225.84px" style="font-family:'ArialMT', 'Arial', sans-serif;font-size:8px;">2</text>
    </g>
    <g transform="matrix(0,-1.33333,1.33333,0,-85.2,-79.48)">
        <text x="-214.56px" y="370.08px" style="font-family:'ArialMT', 'Arial', sans-serif;font-size:10px;">:</text>
    </g>
    <g transform="matrix(1.33323,-0.0162671,0.0162671,1.33323,-85.2,-79.48)">
        <text x="369.404px" y="224.844px" style="font-family:'ArialMT', 'Arial', sans-serif;font-size:10px;">:</text>
    </g>
    <g transform="matrix(1.33333,0,0,1.33333,-85.2,-79.48)">
        <text x="396px" y="250.08px" style="font-family:'ArialMT', 'Arial', sans-serif;font-size:10px;">R</text>
        <text x="403.44px" y="243.12px" style="font-family:'ArialMT', 'Arial', sans-serif;font-size:8px;">1</text>
    </g>
    <g transform="matrix(1.33333,0,0,1.33333,-85.2,-79.48)">
        <text x="416.88px" y="220.32px" style="font-family:'ArialMT', 'Arial', sans-serif;font-size:10px;">O</text>
    </g>
    <g transform="matrix(1.33333,0,0,1.33333,-85.2,-79.48)">
        <text x="409.68px" y="220.32px" style="font-family:'ArialMT', 'Arial', sans-serif;font-size:10px;">H</text>
    </g>
    <g transform="matrix(1.33333,0,0,1.33333,-85.2,-79.48)">
        <text x="410.88px" y="260.64px" style="font-family:'ArialMT', 'Arial', sans-serif;font-size:10px;">H</text>
    </g>
    <g transform="matrix(1.33333,0,0,1.33333,-85.2,-79.48)">
        <text x="450.72px" y="255.12px" style="font-family:'ArialMT', 'Arial', sans-serif;font-size:10px;">O<tspan x="458.64px " y="255.12px ">H</tspan></text>
    </g>
    <g transform="matrix(1.33333,0,0,1.33333,-85.2,-79.48)">
        <text x="464.4px" y="224.16px" style="font-family:'ArialMT', 'Arial', sans-serif;font-size:10px;">R</text>
        <text x="471.84px" y="217.2px" style="font-family:'ArialMT', 'Arial', sans-serif;font-size:8px;">2</text>
    </g>
    <g transform="matrix(1.33333,0,0,1.33333,-85.2,-79.48)">
        <text x="447.12px" y="216.96px" style="font-family:'ArialMT', 'Arial', sans-serif;font-size:10px;">H</text>
    </g>
    <g transform="matrix(1.33333,0,0,1.33333,-85.2,-79.48)">
        <text x="131.76px" y="362.4px" style="font-family:'ArialMT', 'Arial', sans-serif;font-size:10px;">R</text>
        <text x="139.2px" y="355.44px" style="font-family:'ArialMT', 'Arial', sans-serif;font-size:8px;">1</text>
    </g>
    <g transform="matrix(1.33333,0,0,1.33333,-85.2,-79.48)">
        <text x="121.2px" y="332.88px" style="font-family:'ArialMT', 'Arial', sans-serif;font-size:10px;">O</text>
    </g>
    <g transform="matrix(1.33333,0,0,1.33333,-85.2,-79.48)">
        <text x="114px" y="332.88px" style="font-family:'ArialMT', 'Arial', sans-serif;font-size:10px;">H</text>
    </g>
    <g transform="matrix(1.33333,0,0,1.33333,-85.2,-79.48)">
        <text x="138.96px" y="322.08px" style="font-family:'ArialMT', 'Arial', sans-serif;font-size:10px;">H</text>
    </g>
    <g transform="matrix(1.33333,0,0,1.33333,-85.2,-79.48)">
        <text x="179.28px" y="358.32px" style="font-family:'ArialMT', 'Arial', sans-serif;font-size:10px;">O<tspan x="187.2px " y="358.32px ">H</tspan></text>
    </g>
    <g transform="matrix(1.33333,0,0,1.33333,-85.2,-79.48)">
        <text x="171.84px" y="325.92px" style="font-family:'ArialMT', 'Arial', sans-serif;font-size:10px;">R</text>
        <text x="179.28px" y="318.96px" style="font-family:'ArialMT', 'Arial', sans-serif;font-size:8px;">2</text>
    </g>
    <g transform="matrix(1.33333,0,0,1.33333,-85.2,-79.48)">
        <text x="167.04px" y="363.36px" style="font-family:'ArialMT', 'Arial', sans-serif;font-size:10px;">H</text>
    </g>
    <g transform="matrix(-0.666962,-1.15453,-1.15453,0.666962,974.156,-262.481)">
        <path d="M105.724,718.875L123.636,718.875" style="fill:none;fill-rule:nonzero;stroke:black;stroke-width:0.48px;"/>
    </g>
    <g transform="matrix(-1.33333,0,0,1.33333,170.907,-894.6)">
        <path d="M81.88,726.63L110.2,726.63" style="fill:none;fill-rule:nonzero;stroke:black;stroke-width:0.48px;"/>
    </g>
    <g transform="matrix(-1.33333,0,0,1.33333,169.653,-885.64)">
        <path d="M81.88,723.27L109.26,723.27" style="fill:none;fill-rule:nonzero;stroke:black;stroke-width:0.48px;"/>
    </g>
    <g transform="matrix(0.666472,1.15481,1.15481,-0.666472,-879.95,463.96)">
        <path d="M70.373,733.275L85.717,733.275" style="fill:none;fill-rule:nonzero;stroke:black;stroke-width:0.48px;"/>
    </g>
    <g transform="matrix(1.33333,0,0,1.33333,-85.2,-903.8)">
        <path d="M183.6,730.08L199.68,730.08" style="fill:none;fill-rule:nonzero;stroke:black;stroke-width:0.72px;"/>
    </g>
    <g transform="matrix(0.666796,1.15463,1.15463,-0.666796,-785.838,325.897)">
        <path d="M196.216,724.08L210.074,724.08" style="fill:none;fill-rule:nonzero;stroke:black;stroke-width:0.72px;"/>
    </g>
    <g transform="matrix(0.667127,-1.15443,-1.15443,-0.667127,900.537,789.453)">
        <path d="M197.425,735.66L212.255,735.66" style="fill:none;fill-rule:nonzero;stroke:black;stroke-width:0.72px;"/>
    </g>
    <g transform="matrix(0.666267,-1.15493,-1.15493,-0.666267,899.856,784.445)">
        <path d="M194.981,736.545L207.969,736.545" style="fill:none;fill-rule:nonzero;stroke:black;stroke-width:0.72px;"/>
    </g>
    <g transform="matrix(1.33333,0,0,1.33333,-85.2,-899.96)">
        <path d="M300.96,728.64L335.04,728.64" style="fill:none;fill-rule:nonzero;stroke:black;stroke-width:0.72px;"/>
    </g>
    <g transform="matrix(1.2958,0.314133,0.314133,-1.2958,-301.664,911.729)">
        <path d="M326.779,729.573L334.929,729.573L327.684,725.841L328.631,728.046L326.779,729.573Z" style="stroke:black;stroke-width:0.72px;"/>
    </g>
    <g transform="matrix(-0.997402,-0.884854,-0.884854,0.997402,1513.05,-278.418)">
        <path d="M409.487,723.1L412.923,723.1" style="fill:none;fill-rule:nonzero;stroke:black;stroke-width:0.48px;"/>
    </g>
    <g transform="matrix(-0.996546,-0.885818,-0.885818,0.996546,1505.99,-273.526)">
        <path d="M407.655,720.59L410.305,720.59" style="fill:none;fill-rule:nonzero;stroke:black;stroke-width:0.48px;"/>
    </g>
    <g transform="matrix(-0.998525,-0.883587,-0.883587,0.998525,1497.75,-271.975)">
        <path d="M405.817,718.075L407.673,718.075" style="fill:none;fill-rule:nonzero;stroke:black;stroke-width:0.48px;"/>
    </g>
    <g transform="matrix(-0.997938,-0.884249,-0.884249,0.997938,1490.57,-267.393)">
        <path d="M403.987,715.56L405.043,715.56" style="fill:none;fill-rule:nonzero;stroke:black;stroke-width:0.48px;"/>
    </g>
    <g transform="matrix(-1.01592,-0.863531,-0.863531,1.01592,1475.62,-284.653)">
        <path d="M402.159,713.045L402.421,713.045" style="fill:none;fill-rule:nonzero;stroke:black;stroke-width:0.48px;"/>
    </g>
    <g transform="matrix(-1.33333,0,0,1.33333,947.867,-856.2)">
        <path d="M373.24,712.23L401.56,712.23" style="fill:none;fill-rule:nonzero;stroke:black;stroke-width:0.48px;"/>
    </g>
    <g transform="matrix(-1.00344,0.878006,0.878006,1.00344,133.166,-964.168)">
        <path d="M363.009,721.95L366.411,721.95" style="fill:none;fill-rule:nonzero;stroke:black;stroke-width:0.48px;"/>
    </g>
    <g transform="matrix(-1.00179,0.879881,0.879881,1.00179,138.603,-959.73)">
        <path d="M365.667,719.43L368.183,719.43" style="fill:none;fill-rule:nonzero;stroke:black;stroke-width:0.48px;"/>
    </g>
    <g transform="matrix(-1.00192,0.879735,0.879735,1.00192,146.165,-955.813)">
        <path d="M368.327,716.9L369.963,716.9" style="fill:none;fill-rule:nonzero;stroke:black;stroke-width:0.48px;"/>
    </g>
    <g transform="matrix(-1.00344,0.878006,0.878006,1.00344,155.357,-952.306)">
        <path d="M370.988,714.375L371.732,714.375" style="fill:none;fill-rule:nonzero;stroke:black;stroke-width:0.48px;"/>
    </g>
    <g transform="matrix(0.821185,-1.05044,-1.05044,-0.821185,865.878,1072.89)">
        <path d="M369.286,720.34L389.874,720.34" style="fill:none;fill-rule:nonzero;stroke:black;stroke-width:0.48px;"/>
    </g>
    <g transform="matrix(-0.754633,-1.09923,-1.09923,0.754633,1533.51,-25.0677)">
        <path d="M386.564,720.125L405.716,720.125" style="fill:none;fill-rule:nonzero;stroke:black;stroke-width:0.48px;"/>
    </g>
    <g transform="matrix(-1.06501,0.802202,0.802202,1.06501,230.665,-948.184)">
        <path d="M361.118,706.035L373.7,706.035L373.124,709.824L361.118,706.035Z" style="stroke:black;stroke-width:0.24px;"/>
    </g>
    <g transform="matrix(0.84351,1.0326,1.0326,-0.84351,-614.822,276.103)">
        <path d="M399.234,705.283L414.535,705.283L414.294,707.184L414.045,709.092L399.234,705.283Z" style="stroke:black;stroke-width:0.24px;"/>
    </g>
    <g transform="matrix(1.33333,0,0,1.33333,-85.2,-898.68)">
        <path d="M430.8,728.16L471.6,728.16" style="fill:none;fill-rule:nonzero;stroke:black;stroke-width:0.72px;"/>
    </g>
    <g transform="matrix(1.2958,0.314133,0.314133,-1.2958,-296.387,868.849)">
        <path d="M463.339,729.093L471.489,729.093L464.244,725.361L465.191,727.566L463.339,729.093Z" style="stroke:black;stroke-width:0.72px;"/>
    </g>
    <g transform="matrix(1.33333,0,0,1.33333,-85.2,-979.96)">
        <path d="M456.24,758.64L472.32,758.64" style="fill:none;fill-rule:nonzero;stroke:black;stroke-width:0.72px;"/>
    </g>
    <g transform="matrix(0.666796,1.15463,1.15463,-0.666796,-637.089,-7.93599)">
        <path d="M468.856,752.64L482.714,752.64" style="fill:none;fill-rule:nonzero;stroke:black;stroke-width:0.72px;"/>
    </g>
    <g transform="matrix(0.667127,-1.15443,-1.15443,-0.667127,1115.14,1085.17)">
        <path d="M470.065,764.22L484.895,764.22" style="fill:none;fill-rule:nonzero;stroke:black;stroke-width:0.72px;"/>
    </g>
    <g transform="matrix(0.666267,-1.15493,-1.15493,-0.666267,1114.71,1080.27)">
        <path d="M467.621,765.105L480.609,765.105" style="fill:none;fill-rule:nonzero;stroke:black;stroke-width:0.72px;"/>
    </g>
    <g transform="matrix(1.33333,0,0,1.33333,-85.2,-825.4)">
        <path d="M482.4,672.72L483.36,675.84L483.84,678.96L484.32,682.32L484.32,688.32L484.08,691.2L483.6,693.84L482.16,699.12L481.2,701.76L480.24,704.16L478.8,706.56L477.6,708.72L475.92,711.12L474.48,713.04L472.56,715.2L470.88,716.88L468.72,718.8L466.8,720.24L464.4,721.92L462.24,723.12L459.84,724.56L457.44,725.52L454.8,726.48L449.52,727.92L446.88,728.4L444,728.64L438.48,728.64L435.6,728.4L432.72,727.92L427.44,726.48L424.8,725.52L420,723.12L417.6,721.68L413.28,718.32L411.36,716.64L409.44,714.72L407.76,712.56L406.08,710.64L403.2,705.84L402,703.44L401.04,701.04L400.32,699.12L400.08,698.4" style="fill:none;fill-rule:nonzero;stroke:black;stroke-width:0.48px;"/>
    </g>
    <g transform="matrix(-0.155788,-1.3242,-1.3242,0.155788,1439.6,535.327)">
        <path d="M398.596,700.787L406.812,700.787L399.578,696.805L400.601,699.343L398.596,700.787Z" style="stroke:black;stroke-width:0.48px;"/>
    </g>
    <g transform="matrix(1.33333,0,0,1.33333,-85.2,-578.04)">
        <path d="M69.6,607.92L103.68,607.92" style="fill:none;fill-rule:nonzero;stroke:black;stroke-width:0.72px;"/>
    </g>
    <g transform="matrix(1.2958,0.314133,0.314133,-1.2958,-272.425,988.937)">
        <path d="M95.419,608.853L103.569,608.853L96.324,605.121L97.271,607.326L95.419,608.853Z" style="stroke:black;stroke-width:0.72px;"/>
    </g>
    <g transform="matrix(1.27629,-0.385827,-0.385827,-1.27629,167.558,1077.68)">
        <path d="M171.139,626.416L192.911,626.416L192.562,630.241L171.139,626.416Z" style="stroke:black;stroke-width:0.24px;"/>
    </g>
    <g transform="matrix(0.153123,1.32451,1.32451,-0.153123,-757.685,141.068)">
        <path d="M125.688,621.27L129.172,621.27" style="fill:none;fill-rule:nonzero;stroke:black;stroke-width:0.48px;"/>
    </g>
    <g transform="matrix(0.158293,1.3239,1.3239,-0.158293,-754.564,139.484)">
        <path d="M129.375,621.66L132.155,621.66" style="fill:none;fill-rule:nonzero;stroke:black;stroke-width:0.48px;"/>
    </g>
    <g transform="matrix(0.155039,1.32429,1.32429,-0.155039,-750.971,132.529)">
        <path d="M133.068,622.055L135.132,622.055" style="fill:none;fill-rule:nonzero;stroke:black;stroke-width:0.48px;"/>
    </g>
    <g transform="matrix(0.156926,1.32407,1.32407,-0.156926,-747.673,128.852)">
        <path d="M136.76,622.445L138.12,622.445" style="fill:none;fill-rule:nonzero;stroke:black;stroke-width:0.48px;"/>
    </g>
    <g transform="matrix(0.144969,1.32543,1.32543,-0.144969,-743.425,116.344)">
        <path d="M140.453,622.83L141.097,622.83" style="fill:none;fill-rule:nonzero;stroke:black;stroke-width:0.48px;"/>
    </g>
    <g transform="matrix(-1.33333,0,0,1.33333,336.027,-618.76)">
        <path d="M143.8,623.19L172.12,623.19" style="fill:none;fill-rule:nonzero;stroke:black;stroke-width:0.48px;"/>
    </g>
    <g transform="matrix(0.0260936,-1.33308,-1.33308,-0.0260936,945.342,408.991)">
        <path d="M135.283,631.875L152.657,631.875" style="fill:none;fill-rule:nonzero;stroke:black;stroke-width:0.48px;"/>
    </g>
    <g transform="matrix(0.55001,1.21461,1.21461,-0.55001,-696.076,347.532)">
        <path d="M167.506,616.035L183.214,616.035" style="fill:none;fill-rule:nonzero;stroke:black;stroke-width:0.48px;"/>
    </g>
    <g transform="matrix(-0.777504,1.08317,1.08317,0.777504,-362.074,-394.749)">
        <path d="M165.352,592.465L180.358,592.465" style="fill:none;fill-rule:nonzero;stroke:black;stroke-width:0.48px;"/>
    </g>
    <g transform="matrix(-1.32687,-0.131158,-0.131158,1.32687,418.742,-502.354)">
        <path d="M152.12,588.855L168.69,588.855" style="fill:none;fill-rule:nonzero;stroke:black;stroke-width:0.48px;"/>
    </g>
    <g transform="matrix(-1.32685,-0.131371,-0.131371,1.32685,417.985,-493.404)">
        <path d="M152.12,585.5L168.36,585.5" style="fill:none;fill-rule:nonzero;stroke:black;stroke-width:0.48px;"/>
    </g>
    <g transform="matrix(0.550385,1.21444,1.21444,-0.550385,-654.248,381.027)">
        <path d="M163.899,579.265L179.501,579.265" style="fill:none;fill-rule:nonzero;stroke:black;stroke-width:0.48px;"/>
    </g>
    <g transform="matrix(-1.33331,-0.00764075,-0.00764075,1.33331,379.058,-661.83)">
        <path d="M170.52,639.84L174.01,639.84" style="fill:none;fill-rule:nonzero;stroke:black;stroke-width:0.48px;"/>
    </g>
    <g transform="matrix(-1.3333,-0.0095577,-0.0095577,1.3333,380.171,-652.532)">
        <path d="M170.84,636.48L173.63,636.48" style="fill:none;fill-rule:nonzero;stroke:black;stroke-width:0.48px;"/>
    </g>
    <g transform="matrix(-1.33327,-0.0128199,-0.0128199,1.33327,382.133,-642.993)">
        <path d="M171.17,633.12L173.25,633.12" style="fill:none;fill-rule:nonzero;stroke:black;stroke-width:0.48px;"/>
    </g>
    <g transform="matrix(-1.33319,-0.0193216,-0.0193216,1.33319,386.091,-632.865)">
        <path d="M171.49,629.76L172.87,629.76" style="fill:none;fill-rule:nonzero;stroke:black;stroke-width:0.48px;"/>
    </g>
    <g transform="matrix(-1.33333,0,0,1.33333,373.867,-627.32)">
        <path d="M171.81,626.4L172.49,626.4" style="fill:none;fill-rule:nonzero;stroke:black;stroke-width:0.48px;"/>
    </g>
    <g transform="matrix(0.572873,1.20399,1.20399,-0.572873,-713.111,395.494)">
        <path d="M139.961,614.178L156.672,614.178L156.452,616.088L156.227,617.989L139.961,614.178Z" style="stroke:black;stroke-width:0.24px;"/>
    </g>
    <g transform="matrix(1.33333,0,0,1.33333,-85.2,-577.08)">
        <path d="M141.36,618.24L140.16,617.04L139.2,615.84L138.48,614.64L137.04,611.76L136.56,610.32L136.32,608.64L136.32,606.96L136.56,604.32L137.04,602.16L138,599.76L140.16,596.88" style="fill:none;fill-rule:nonzero;stroke:black;stroke-width:0.48px;"/>
    </g>
    <g transform="matrix(0.942809,-0.942809,-0.942809,-0.942809,547.56,932.618)">
        <path d="M133.971,615.044L142.117,615.044L134.819,611.14L135.838,613.516L133.971,615.044Z" style="stroke:black;stroke-width:0.48px;"/>
    </g>
    <g transform="matrix(1.33333,0,0,1.33333,-85.2,-579.96)">
        <path d="M208.08,608.64L242.16,608.64" style="fill:none;fill-rule:nonzero;stroke:black;stroke-width:0.72px;"/>
    </g>
    <g transform="matrix(1.2958,0.314133,0.314133,-1.2958,-267.454,945.409)">
        <path d="M233.899,609.573L242.049,609.573L234.804,605.841L235.751,608.046L233.899,609.573Z" style="stroke:black;stroke-width:0.72px;"/>
    </g>
    <g transform="matrix(0.994998,0.887557,0.887557,-0.994998,-526.099,551.799)">
        <path d="M310.021,617.248L324.292,617.248L324.032,619.147L323.766,621.053L310.021,617.248Z" style="stroke:black;stroke-width:0.24px;"/>
    </g>
    <g transform="matrix(-0.982711,0.901142,0.901142,0.982711,-19.0361,-669.81)">
        <path d="M273.019,632.68L276.451,632.68" style="fill:none;fill-rule:nonzero;stroke:black;stroke-width:0.48px;"/>
    </g>
    <g transform="matrix(-0.980325,0.903737,0.903737,0.980325,-13.8331,-665.343)">
        <path d="M275.704,630.205L278.316,630.205" style="fill:none;fill-rule:nonzero;stroke:black;stroke-width:0.48px;"/>
    </g>
    <g transform="matrix(-0.982565,0.901301,0.901301,0.982565,-4.17766,-662.399)">
        <path d="M278.383,627.73L280.187,627.73" style="fill:none;fill-rule:nonzero;stroke:black;stroke-width:0.48px;"/>
    </g>
    <g transform="matrix(-0.989035,0.894196,0.894196,0.989035,9.56933,-660.77)">
        <path d="M281.063,625.26L282.047,625.26" style="fill:none;fill-rule:nonzero;stroke:black;stroke-width:0.48px;"/>
    </g>
    <g transform="matrix(-0.982872,0.900966,0.900966,0.982872,11.1004,-655.139)">
        <path d="M283.749,622.785L283.911,622.785" style="fill:none;fill-rule:nonzero;stroke:black;stroke-width:0.48px;"/>
    </g>
    <g transform="matrix(-1.33317,0.0210217,0.0210217,1.33317,696.131,-623.066)">
        <path d="M284.288,622.495L311.562,622.495" style="fill:none;fill-rule:nonzero;stroke:black;stroke-width:0.48px;"/>
    </g>
    <g transform="matrix(0.29396,1.30053,1.30053,-0.29396,-559.131,-3.46965)">
        <path d="M305.266,614.835L321.414,614.835" style="fill:none;fill-rule:nonzero;stroke:black;stroke-width:0.48px;"/>
    </g>
    <g transform="matrix(-1.14626,0.681075,0.681075,1.14626,264.865,-639.566)">
        <path d="M296.808,594.935L312.372,594.935" style="fill:none;fill-rule:nonzero;stroke:black;stroke-width:0.48px;"/>
    </g>
    <g transform="matrix(-1.20508,-0.57057,-0.57057,1.20508,991.507,-300.078)">
        <path d="M282.418,594.44L298.682,594.44" style="fill:none;fill-rule:nonzero;stroke:black;stroke-width:0.48px;"/>
    </g>
    <g transform="matrix(-1.20528,-0.57015,-0.57015,1.20528,994.43,-308.965)">
        <path d="M282.372,597.945L299.608,597.945" style="fill:none;fill-rule:nonzero;stroke:black;stroke-width:0.48px;"/>
    </g>
    <g transform="matrix(0.027222,1.33306,1.33306,-0.027222,-472.905,-115.563)">
        <path d="M289.983,582.88L306.147,582.88" style="fill:none;fill-rule:nonzero;stroke:black;stroke-width:0.48px;"/>
    </g>
    <g transform="matrix(0.3529,-1.28578,-1.28578,-0.3529,980.615,803.77)">
        <path d="M273.3,613.9L290.68,613.9" style="fill:none;fill-rule:nonzero;stroke:black;stroke-width:0.48px;"/>
    </g>
    <g transform="matrix(-1.23765,0.495992,0.495992,1.23765,319.014,-681.301)">
        <path d="M267.126,615.831L284.277,615.831L283.845,619.646L267.126,615.831Z" style="stroke:black;stroke-width:0.24px;"/>
    </g>
    <g transform="matrix(-1.01978,-0.858968,-0.858968,1.01978,1210.88,-170.618)">
        <path d="M318.19,632.555L321.59,632.555" style="fill:none;fill-rule:nonzero;stroke:black;stroke-width:0.48px;"/>
    </g>
    <g transform="matrix(-1.01906,-0.859828,-0.859828,1.01906,1203.88,-165.717)">
        <path d="M316.464,629.99L318.976,629.99" style="fill:none;fill-rule:nonzero;stroke:black;stroke-width:0.48px;"/>
    </g>
    <g transform="matrix(-1.01754,-0.861624,-0.861624,1.01754,1197.22,-160.029)">
        <path d="M314.738,627.425L316.362,627.425" style="fill:none;fill-rule:nonzero;stroke:black;stroke-width:0.48px;"/>
    </g>
    <g transform="matrix(-1.01988,-0.858848,-0.858848,1.01988,1188.92,-158.2)">
        <path d="M313.012,624.86L313.758,624.86" style="fill:none;fill-rule:nonzero;stroke:black;stroke-width:0.48px;"/>
    </g>
    <g transform="matrix(1.33333,0,0,1.33333,-85.2,-579.96)">
        <path d="M345.84,608.64L379.92,608.64" style="fill:none;fill-rule:nonzero;stroke:black;stroke-width:0.72px;"/>
    </g>
    <g transform="matrix(1.2958,0.314133,0.314133,-1.2958,-262.283,902.134)">
        <path d="M371.659,609.573L379.809,609.573L372.564,605.841L373.511,608.046L371.659,609.573Z" style="stroke:black;stroke-width:0.72px;"/>
    </g>
    <g transform="matrix(1.33333,0,0,1.33333,-85.2,-695.16)">
        <path d="M286.56,672.72L286.56,668.4L286.8,666L287.28,663.36L287.76,660.96L288.48,658.56L290.4,653.76L292.8,649.44L294.24,647.52L295.92,645.36L297.36,643.68L299.28,641.76L300.96,640.32L303.12,638.64L305.04,637.2L309.36,634.8L314.16,632.88L316.56,632.16L318.96,631.68L321.6,631.2L324,630.96L329.28,630.96L331.92,631.2L336.72,632.16L341.52,633.6L343.68,634.8L345.84,635.76L348,636.96L350.16,638.4L352.08,639.84L353.76,641.28L355.44,642.96L358.8,646.8L360,648.72L361.44,650.64L362.64,652.8L363.6,654.96L364.56,657.36L366,662.16L366.48,664.56L366.72,666.96L366.96,668.88L366.96,669.6" style="fill:none;fill-rule:nonzero;stroke:black;stroke-width:0.48px;"/>
    </g>
    <g transform="matrix(0.314133,1.2958,1.2958,-0.314133,-615.867,24.6451)">
        <path d="M282.259,633.987L290.409,633.987L283.164,637.719L284.111,635.514L282.259,633.987Z" style="stroke:black;stroke-width:0.48px;"/>
    </g>
    <g transform="matrix(1.33333,0,0,1.33333,-85.2,-583.8)">
        <path d="M428.64,610.08L448.56,610.08" style="fill:none;fill-rule:nonzero;stroke:black;stroke-width:0.48px;"/>
    </g>
    <g transform="matrix(0.589601,1.19589,1.19589,-0.589601,-498.886,106.549)">
        <path d="M408.381,600.645L410.779,600.645" style="fill:none;fill-rule:nonzero;stroke:black;stroke-width:0.48px;"/>
    </g>
    <g transform="matrix(0.59164,1.19488,1.19488,-0.59164,-498.85,105.504)">
        <path d="M410.151,601.49L412.449,601.49" style="fill:none;fill-rule:nonzero;stroke:black;stroke-width:0.48px;"/>
    </g>
    <g transform="matrix(0.593702,1.19386,1.19386,-0.593702,-498.832,104.48)">
        <path d="M411.987,602.345L414.053,602.345" style="fill:none;fill-rule:nonzero;stroke:black;stroke-width:0.48px;"/>
    </g>
    <g transform="matrix(0.593388,1.19401,1.19401,-0.593388,-498.538,101.544)">
        <path d="M413.819,603.195L415.661,603.195" style="fill:none;fill-rule:nonzero;stroke:black;stroke-width:0.48px;"/>
    </g>
    <g transform="matrix(0.596285,1.19257,1.19257,-0.596285,-498.62,101.208)">
        <path d="M415.655,604.05L417.265,604.05" style="fill:none;fill-rule:nonzero;stroke:black;stroke-width:0.48px;"/>
    </g>
    <g transform="matrix(0.588554,1.1964,1.1964,-0.588554,-497.449,92.2445)">
        <path d="M417.494,604.9L418.876,604.9" style="fill:none;fill-rule:nonzero;stroke:black;stroke-width:0.48px;"/>
    </g>
    <g transform="matrix(0.59164,1.19488,1.19488,-0.59164,-497.564,92.0591)">
        <path d="M419.33,605.755L420.48,605.755" style="fill:none;fill-rule:nonzero;stroke:black;stroke-width:0.48px;"/>
    </g>
    <g transform="matrix(0.590517,1.19544,1.19544,-0.590517,-497.168,88.4579)">
        <path d="M421.162,606.605L422.088,606.605" style="fill:none;fill-rule:nonzero;stroke:black;stroke-width:0.48px;"/>
    </g>
    <g transform="matrix(0.588677,1.19634,1.19634,-0.588677,-496.678,84.2687)">
        <path d="M422.994,607.455L423.696,607.455" style="fill:none;fill-rule:nonzero;stroke:black;stroke-width:0.48px;"/>
    </g>
    <g transform="matrix(0.596285,1.19257,1.19257,-0.596285,-497.358,87.8064)">
        <path d="M424.83,608.31L425.3,608.31" style="fill:none;fill-rule:nonzero;stroke:black;stroke-width:0.48px;"/>
    </g>
    <g transform="matrix(0.596285,1.19257,1.19257,-0.596285,-497.104,85.1287)">
        <path d="M426.662,609.16L426.908,609.16" style="fill:none;fill-rule:nonzero;stroke:black;stroke-width:0.48px;"/>
    </g>
    <g transform="matrix(0.942809,0.942809,0.942809,-0.942809,-492.986,400.856)">
        <path d="M428.498,610.015L428.512,610.015" style="fill:none;fill-rule:nonzero;stroke:black;stroke-width:0.48px;"/>
    </g>
    <g transform="matrix(-0.589787,-1.1958,-1.1958,0.589787,1469.93,369.422)">
        <path d="M420.342,615.24L431.848,615.24" style="fill:none;fill-rule:nonzero;stroke:black;stroke-width:0.48px;"/>
    </g>
    <g transform="matrix(-0.712546,1.12697,1.12697,0.712546,103.28,-660.597)">
        <path d="M410.813,599.63L433.399,599.63L433.274,602.035L410.813,599.63Z" style="stroke:black;stroke-width:0.24px;"/>
    </g>
    <g transform="matrix(0.408708,1.26915,1.26915,-0.408708,-433.638,-86.6512)">
        <path d="M443.402,603L458.278,603" style="fill:none;fill-rule:nonzero;stroke:black;stroke-width:0.48px;"/>
    </g>
    <g transform="matrix(1.18964,-0.602114,-0.602114,-1.18964,350.688,1229.45)">
        <path d="M447.159,614.111L464.52,614.111L464.362,616.5L447.159,614.111Z" style="stroke:black;stroke-width:0.24px;"/>
    </g>
    <g transform="matrix(-1.32491,-0.149676,-0.149676,1.32491,1204.29,-545.127)">
        <path d="M448.822,622.805L451.228,622.805" style="fill:none;fill-rule:nonzero;stroke:black;stroke-width:0.48px;"/>
    </g>
    <g transform="matrix(-1.32446,-0.153561,-0.153561,1.32446,1205.64,-538.072)">
        <path d="M448.763,620.9L450.847,620.9" style="fill:none;fill-rule:nonzero;stroke:black;stroke-width:0.48px;"/>
    </g>
    <g transform="matrix(-1.32431,-0.15489,-0.15489,1.32431,1205.51,-532.336)">
        <path d="M448.724,618.99L450.446,618.99" style="fill:none;fill-rule:nonzero;stroke:black;stroke-width:0.48px;"/>
    </g>
    <g transform="matrix(-1.32506,-0.148327,-0.148327,1.32506,1200.93,-530.719)">
        <path d="M448.696,617.085L450.044,617.085" style="fill:none;fill-rule:nonzero;stroke:black;stroke-width:0.48px;"/>
    </g>
    <g transform="matrix(-1.32501,-0.148726,-0.148726,1.32501,1200.29,-525.468)">
        <path d="M448.657,615.175L449.643,615.175" style="fill:none;fill-rule:nonzero;stroke:black;stroke-width:0.48px;"/>
    </g>
    <g transform="matrix(-1.32464,-0.152008,-0.152008,1.32464,1201.25,-518.722)">
        <path d="M448.618,613.265L449.232,613.265" style="fill:none;fill-rule:nonzero;stroke:black;stroke-width:0.48px;"/>
    </g>
    <g transform="matrix(-1.32384,-0.15886,-0.15886,1.32384,1204.21,-510.139)">
        <path d="M448.579,611.365L448.831,611.365" style="fill:none;fill-rule:nonzero;stroke:black;stroke-width:0.48px;"/>
    </g>
    <g transform="matrix(1.33333,0,0,1.33333,-85.2,-581.24)">
        <path d="M484.32,609.12L518.4,609.12" style="fill:none;fill-rule:nonzero;stroke:black;stroke-width:0.72px;"/>
    </g>
    <g transform="matrix(1.2958,0.314133,0.314133,-1.2958,-257.236,858.615)">
        <path d="M510.139,610.053L518.289,610.053L511.044,606.321L511.991,608.526L510.139,610.053Z" style="stroke:black;stroke-width:0.72px;"/>
    </g>
    <g transform="matrix(1.33333,0,0,1.33333,-85.2,-294.52)">
        <path d="M148.56,501.6L168.48,501.6" style="fill:none;fill-rule:nonzero;stroke:black;stroke-width:0.48px;"/>
    </g>
    <g transform="matrix(-0.782445,1.07961,1.07961,0.782445,-314.209,-167.104)">
        <path d="M140.799,497.64L150.581,497.64" style="fill:none;fill-rule:nonzero;stroke:black;stroke-width:0.48px;"/>
    </g>
    <g transform="matrix(-0.589601,1.19589,1.19589,0.589601,-443.631,-94.7156)">
        <path d="M129.741,510.265L132.139,510.265" style="fill:none;fill-rule:nonzero;stroke:black;stroke-width:0.48px;"/>
    </g>
    <g transform="matrix(-0.591594,1.1949,1.1949,0.591594,-438.537,-96.0385)">
        <path d="M131.527,509.42L133.803,509.42" style="fill:none;fill-rule:nonzero;stroke:black;stroke-width:0.48px;"/>
    </g>
    <g transform="matrix(-0.585732,1.19779,1.19779,0.585732,-436.466,-93.8636)">
        <path d="M133.372,508.57L135.398,508.57" style="fill:none;fill-rule:nonzero;stroke:black;stroke-width:0.48px;"/>
    </g>
    <g transform="matrix(-0.58427,1.1985,1.1985,0.58427,-432.698,-93.6535)">
        <path d="M135.22,507.72L137,507.72" style="fill:none;fill-rule:nonzero;stroke:black;stroke-width:0.48px;"/>
    </g>
    <g transform="matrix(-0.592795,1.19431,1.19431,0.592795,-425.087,-97.8379)">
        <path d="M137.065,506.875L138.595,506.875" style="fill:none;fill-rule:nonzero;stroke:black;stroke-width:0.48px;"/>
    </g>
    <g transform="matrix(-0.588018,1.19667,1.19667,0.588018,-422.616,-96.1822)">
        <path d="M138.909,506.03L140.201,506.03" style="fill:none;fill-rule:nonzero;stroke:black;stroke-width:0.48px;"/>
    </g>
    <g transform="matrix(-0.58607,1.19762,1.19762,0.58607,-419.041,-95.7645)">
        <path d="M140.757,505.18L141.803,505.18" style="fill:none;fill-rule:nonzero;stroke:black;stroke-width:0.48px;"/>
    </g>
    <g transform="matrix(-0.589538,1.19592,1.19592,0.589538,-413.364,-97.7136)">
        <path d="M142.609,504.335L143.401,504.335" style="fill:none;fill-rule:nonzero;stroke:black;stroke-width:0.48px;"/>
    </g>
    <g transform="matrix(-0.60596,1.18768,1.18768,0.60596,-402.516,-105.213)">
        <path d="M144.45,503.485L145,503.485" style="fill:none;fill-rule:nonzero;stroke:black;stroke-width:0.48px;"/>
    </g>
    <g transform="matrix(-0.578421,1.20134,1.20134,0.578421,-409.066,-93.7641)">
        <path d="M146.295,502.635L146.595,502.635" style="fill:none;fill-rule:nonzero;stroke:black;stroke-width:0.48px;"/>
    </g>
    <g transform="matrix(-0.495188,1.23797,1.23797,0.495188,-435.475,-57.8925)">
        <path d="M148.143,501.795L148.197,501.795" style="fill:none;fill-rule:nonzero;stroke:black;stroke-width:0.48px;"/>
    </g>
    <g transform="matrix(-0.250593,-1.30957,-1.30957,0.250593,813.884,425.699)">
        <path d="M136.69,509.136L154.354,509.136L154.181,511.531L136.69,509.136Z" style="stroke:black;stroke-width:0.24px;"/>
    </g>
    <g transform="matrix(0.888628,0.994041,0.994041,-0.888628,-501.502,649.485)">
        <path d="M166.497,495.944L180.03,495.944L179.928,497.135L179.819,498.333L166.497,495.944Z" style="stroke:black;stroke-width:0.24px;"/>
    </g>
    <g transform="matrix(0.472303,-1.24688,-1.24688,-0.472303,695.683,818.696)">
        <path d="M163.922,508.2L178.038,508.2" style="fill:none;fill-rule:nonzero;stroke:black;stroke-width:0.48px;"/>
    </g>
    <g transform="matrix(1.32428,-0.155145,-0.155145,-1.32428,-7.85168,1065.03)">
        <path d="M168.792,488.63L171.198,488.63" style="fill:none;fill-rule:nonzero;stroke:black;stroke-width:0.48px;"/>
    </g>
    <g transform="matrix(1.32455,-0.152832,-0.152832,-1.32455,-8.73777,1064.72)">
        <path d="M168.723,490.54L170.817,490.54" style="fill:none;fill-rule:nonzero;stroke:black;stroke-width:0.48px;"/>
    </g>
    <g transform="matrix(1.32441,-0.154001,-0.154001,-1.32441,-7.84916,1064.8)">
        <path d="M168.684,492.45L170.416,492.45" style="fill:none;fill-rule:nonzero;stroke:black;stroke-width:0.48px;"/>
    </g>
    <g transform="matrix(1.32433,-0.154667,-0.154667,-1.32433,-7.21649,1064.82)">
        <path d="M168.635,494.35L170.015,494.35" style="fill:none;fill-rule:nonzero;stroke:black;stroke-width:0.48px;"/>
    </g>
    <g transform="matrix(1.32402,-0.157309,-0.157309,-1.32402,-5.55886,1065.06)">
        <path d="M168.596,496.26L169.614,496.26" style="fill:none;fill-rule:nonzero;stroke:black;stroke-width:0.48px;"/>
    </g>
    <g transform="matrix(1.32304,-0.16538,-0.16538,-1.32304,-1.07401,1065.88)">
        <path d="M168.558,498.17L169.202,498.17" style="fill:none;fill-rule:nonzero;stroke:black;stroke-width:0.48px;"/>
    </g>
    <g transform="matrix(1.32626,-0.137199,-0.137199,-1.32626,-15.3966,1062.68)">
        <path d="M168.509,500.075L168.801,500.075" style="fill:none;fill-rule:nonzero;stroke:black;stroke-width:0.48px;"/>
    </g>
    <g transform="matrix(1.33333,0,0,1.33333,-85.2,-300.28)">
        <path d="M70.32,503.76L104.4,503.76" style="fill:none;fill-rule:nonzero;stroke:black;stroke-width:0.72px;"/>
    </g>
    <g transform="matrix(1.2958,0.314133,0.314133,-1.2958,-239.678,992.621)">
        <path d="M96.139,504.693L104.289,504.693L97.044,500.961L97.991,503.166L96.139,504.693Z" style="stroke:black;stroke-width:0.72px;"/>
    </g>
</svg>
