<?xml version="1.0" encoding="UTF-8" standalone="no"?>
<!DOCTYPE svg PUBLIC "-//W3C//DTD SVG 1.1//EN" "http://www.w3.org/Graphics/SVG/1.1/DTD/svg11.dtd">
<svg width="100%" height="100%" viewBox="0 0 665 730" version="1.1" xmlns="http://www.w3.org/2000/svg" xmlns:xlink="http://www.w3.org/1999/xlink" xml:space="preserve" xmlns:serif="http://www.serif.com/" style="fill-rule:evenodd;clip-rule:evenodd;stroke-linecap:round;stroke-linejoin:round;stroke-miterlimit:10;">
    <g transform="matrix(-0.942809,0.942809,0.942809,0.942809,-607.425,-749.941)">
        <path d="M66.657,750.6L98.223,750.6" style="fill:none;fill-rule:nonzero;stroke:black;stroke-width:0.72px;"/>
    </g>
    <g transform="matrix(1.22323,-0.530557,-0.530557,-1.22323,316.154,997.467)">
        <path d="M70.383,743.76L92.097,743.76" style="fill:none;fill-rule:nonzero;stroke:black;stroke-width:0.72px;"/>
    </g>
    <g transform="matrix(1.14332,0.685994,0.685994,-1.14332,-575.667,824.345)">
        <path d="M89.106,740.52L118.494,740.52" style="fill:none;fill-rule:nonzero;stroke:black;stroke-width:0.72px;"/>
    </g>
    <g transform="matrix(1.33333,0,0,1.33333,-87.3978,-86.3032)">
        <text x="147.12px" y="78.48px" style="font-family:'ArialMT', 'Arial', sans-serif;font-size:10px;">O</text>
    </g>
    <g transform="matrix(1.33333,0,0,1.33333,-87.3978,-86.3032)">
        <text x="147.6px" y="132.72px" style="font-family:'ArialMT', 'Arial', sans-serif;font-size:10px;">CH</text>
        <text x="162px" y="135.36px" style="font-family:'ArialMT', 'Arial', sans-serif;font-size:8px;">3</text>
    </g>
    <g transform="matrix(1.33333,0,0,1.33333,-87.3978,-86.3032)">
        <text x="95.76px" y="143.04px" style="font-family:'ArialMT', 'Arial', sans-serif;font-size:10px;">H</text>
    </g>
    <g transform="matrix(1.33333,0,0,1.33333,-87.3978,-86.3032)">
        <text x="129.84px" y="122.64px" style="font-family:'ArialMT', 'Arial', sans-serif;font-size:10px;">O</text>
    </g>
    <g transform="matrix(1.33333,0,0,1.33333,-87.3978,-86.3032)">
        <text x="113.04px" y="75.36px" style="font-family:'ArialMT', 'Arial', sans-serif;font-size:10px;">CH</text>
        <text x="127.44px" y="78px" style="font-family:'ArialMT', 'Arial', sans-serif;font-size:8px;">3</text>
    </g>
    <g transform="matrix(1.33333,0,0,1.33333,-87.3978,-86.3032)">
        <text x="245.28px" y="76.08px" style="font-family:'ArialMT', 'Arial', sans-serif;font-size:8px;">3</text>
    </g>
    <g transform="matrix(1.33333,0,0,1.33333,-87.3978,-86.3032)">
        <text x="217.92px" y="109.2px" style="font-family:'ArialMT', 'Arial', sans-serif;font-size:8px;">4</text>
    </g>
    <g transform="matrix(1.33333,0,0,1.33333,-87.3978,-86.3032)">
        <text x="246.72px" y="92.64px" style="font-family:'ArialMT', 'Arial', sans-serif;font-size:8px;">5</text>
    </g>
    <g transform="matrix(1.33333,0,0,1.33333,-87.3978,-86.3032)">
        <text x="302.4px" y="78.48px" style="font-family:'ArialMT', 'Arial', sans-serif;font-size:10px;">CH</text>
        <text x="316.8px" y="81.12px" style="font-family:'ArialMT', 'Arial', sans-serif;font-size:8px;">3</text>
    </g>
    <g transform="matrix(1.33333,0,0,1.33333,-87.3978,-86.3032)">
        <text x="303.84px" y="85.92px" style="font-family:'ArialMT', 'Arial', sans-serif;font-size:8px;">1</text>
    </g>
    <g transform="matrix(1.33333,0,0,1.33333,-87.3978,-86.3032)">
        <text x="269.76px" y="101.52px" style="font-family:'ArialMT', 'Arial', sans-serif;font-size:8px;">2</text>
    </g>
    <g transform="matrix(1.33333,0,0,1.33333,-87.3978,-86.3032)">
        <text x="286.8px" y="148.8px" style="font-family:'ArialMT', 'Arial', sans-serif;font-size:8px;">8</text>
    </g>
    <g transform="matrix(1.33333,0,0,1.33333,-87.3978,-86.3032)">
        <text x="302.64px" y="132.72px" style="font-family:'ArialMT', 'Arial', sans-serif;font-size:10px;">CH</text>
        <text x="317.04px" y="135.36px" style="font-family:'ArialMT', 'Arial', sans-serif;font-size:8px;">3</text>
    </g>
    <g transform="matrix(1.33333,0,0,1.33333,-87.3978,-86.3032)">
        <text x="304.08px" y="140.16px" style="font-family:'ArialMT', 'Arial', sans-serif;font-size:8px;">9</text>
    </g>
    <g transform="matrix(1.33333,0,0,1.33333,-87.3978,-86.3032)">
        <text x="250.8px" y="143.04px" style="font-family:'ArialMT', 'Arial', sans-serif;font-size:10px;">H</text>
    </g>
    <g transform="matrix(1.33333,0,0,1.33333,-87.3978,-86.3032)">
        <text x="284.88px" y="122.64px" style="font-family:'ArialMT', 'Arial', sans-serif;font-size:10px;">O<tspan x="292.8px " y="122.64px ">H</tspan></text>
    </g>
    <g transform="matrix(1.33333,0,0,1.33333,-87.3978,-86.3032)">
        <text x="284.88px" y="102.96px" style="font-family:'ArialMT', 'Arial', sans-serif;font-size:10px;">O<tspan x="292.8px " y="102.96px ">H</tspan></text>
    </g>
    <g transform="matrix(1.33333,0,0,1.33333,-87.3978,-86.3032)">
        <text x="250.32px" y="122.88px" style="font-family:'ArialMT', 'Arial', sans-serif;font-size:10px;">H</text>
    </g>
    <g transform="matrix(1.33333,0,0,1.33333,-87.3978,-86.3032)">
        <text x="267.84px" y="75.36px" style="font-family:'ArialMT', 'Arial', sans-serif;font-size:10px;">O</text>
    </g>
    <g transform="matrix(1.33333,0,0,1.33333,-87.3978,-86.3032)">
        <text x="404.4px" y="105.84px" style="font-family:'ArialMT', 'Arial', sans-serif;font-size:10px;">C</text>
    </g>
    <g transform="matrix(1.33333,0,0,1.33333,-87.3978,-86.3032)">
        <text x="392.88px" y="105.84px" style="font-family:'ArialMT', 'Arial', sans-serif;font-size:10px;">H</text>
        <text x="400.08px" y="108.48px" style="font-family:'ArialMT', 'Arial', sans-serif;font-size:8px;">3</text>
    </g>
    <g transform="matrix(1.33333,0,0,1.33333,-87.3978,-86.3032)">
        <text x="542.4px" y="105.84px" style="font-family:'ArialMT', 'Arial', sans-serif;font-size:10px;">CH</text>
        <text x="556.8px" y="108.48px" style="font-family:'ArialMT', 'Arial', sans-serif;font-size:8px;">3</text>
    </g>
    <g transform="matrix(1.33333,0,0,1.33333,-87.3978,-86.3032)">
        <text x="421.2px" y="76.08px" style="font-family:'ArialMT', 'Arial', sans-serif;font-size:10px;">O</text>
    </g>
    <g transform="matrix(1.33333,0,0,1.33333,-87.3978,-86.3032)">
        <text x="490.32px" y="76.08px" style="font-family:'ArialMT', 'Arial', sans-serif;font-size:10px;">O<tspan x="498.24px " y="76.08px ">H</tspan></text>
    </g>
    <g transform="matrix(1.33333,0,0,1.33333,-87.3978,-86.3032)">
        <text x="507.6px" y="125.76px" style="font-family:'ArialMT', 'Arial', sans-serif;font-size:10px;">O<tspan x="515.52px " y="125.76px ">H</tspan></text>
    </g>
    <g transform="matrix(1.33333,0,0,1.33333,-87.3978,-86.3032)">
        <text x="374.4px" y="244.8px" style="font-family:'ArialMT', 'Arial', sans-serif;font-size:10px;">C</text>
    </g>
    <g transform="matrix(1.33333,0,0,1.33333,-87.3978,-86.3032)">
        <text x="362.88px" y="244.8px" style="font-family:'ArialMT', 'Arial', sans-serif;font-size:10px;">H</text>
        <text x="370.08px" y="247.44px" style="font-family:'ArialMT', 'Arial', sans-serif;font-size:8px;">3</text>
    </g>
    <g transform="matrix(1.33333,0,0,1.33333,-87.3978,-86.3032)">
        <text x="537.84px" y="246.48px" style="font-family:'ArialMT', 'Arial', sans-serif;font-size:10px;">CH</text>
        <text x="552.24px" y="249.12px" style="font-family:'ArialMT', 'Arial', sans-serif;font-size:8px;">3</text>
    </g>
    <g transform="matrix(1.33333,0,0,1.33333,-87.3978,-86.3032)">
        <text x="391.2px" y="215.04px" style="font-family:'ArialMT', 'Arial', sans-serif;font-size:10px;">O</text>
    </g>
    <g transform="matrix(1.33333,0,0,1.33333,-87.3978,-86.3032)">
        <text x="98.88px" y="251.76px" style="font-family:'ArialMT', 'Arial', sans-serif;font-size:10px;">O</text>
    </g>
    <g transform="matrix(1.33333,0,0,1.33333,-87.3978,-86.3032)">
        <text x="82.08px" y="221.76px" style="font-family:'ArialMT', 'Arial', sans-serif;font-size:10px;">C</text>
    </g>
    <g transform="matrix(1.33333,0,0,1.33333,-87.3978,-86.3032)">
        <text x="70.56px" y="221.76px" style="font-family:'ArialMT', 'Arial', sans-serif;font-size:10px;">H</text>
        <text x="77.76px" y="224.4px" style="font-family:'ArialMT', 'Arial', sans-serif;font-size:8px;">3</text>
    </g>
    <g transform="matrix(1.33333,0,0,1.33333,-87.3978,-86.3032)">
        <text x="133.44px" y="251.76px" style="font-family:'ArialMT', 'Arial', sans-serif;font-size:10px;">O</text>
        <text x="141.36px" y="251.76px" style="font-family:'ArialMT', 'Arial', sans-serif;font-size:10px;">Et</text>
    </g>
    <g transform="matrix(1.33333,0,0,1.33333,-87.3978,-86.3032)">
        <text x="245.04px" y="224.16px" style="font-family:'ArialMT', 'Arial', sans-serif;font-size:10px;">CH</text>
        <text x="259.44px" y="226.8px" style="font-family:'ArialMT', 'Arial', sans-serif;font-size:8px;">3</text>
    </g>
    <g transform="matrix(1.33333,0,0,1.33333,-87.3978,-86.3032)">
        <text x="98.88px" y="192px" style="font-family:'ArialMT', 'Arial', sans-serif;font-size:10px;">O</text>
    </g>
    <g transform="matrix(1.33333,0,0,1.33333,-87.3978,-86.3032)">
        <text x="114px" y="360.48px" style="font-family:'ArialMT', 'Arial', sans-serif;font-size:10px;">CH</text>
        <text x="128.4px" y="353.52px" style="font-family:'ArialMT', 'Arial', sans-serif;font-size:8px;">–</text>
    </g>
    <g transform="matrix(1.33333,0,0,1.33333,-87.3978,-86.3032)">
        <text x="96.48px" y="390.48px" style="font-family:'ArialMT', 'Arial', sans-serif;font-size:10px;">O</text>
    </g>
    <g transform="matrix(1.33333,0,0,1.33333,-87.3978,-86.3032)">
        <text x="79.68px" y="360.48px" style="font-family:'ArialMT', 'Arial', sans-serif;font-size:10px;">C</text>
    </g>
    <g transform="matrix(1.33333,0,0,1.33333,-87.3978,-86.3032)">
        <text x="68.16px" y="360.48px" style="font-family:'ArialMT', 'Arial', sans-serif;font-size:10px;">H</text>
        <text x="75.36px" y="363.12px" style="font-family:'ArialMT', 'Arial', sans-serif;font-size:8px;">3</text>
    </g>
    <g transform="matrix(1.33333,0,0,1.33333,-87.3978,-86.3032)">
        <text x="131.04px" y="390.48px" style="font-family:'ArialMT', 'Arial', sans-serif;font-size:10px;">O</text>
        <text x="138.96px" y="390.48px" style="font-family:'ArialMT', 'Arial', sans-serif;font-size:10px;">Et</text>
    </g>
    <g transform="matrix(1.33333,0,0,1.33333,-87.3978,-86.3032)">
        <text x="96.48px" y="330.72px" style="font-family:'ArialMT', 'Arial', sans-serif;font-size:10px;">O</text>
    </g>
    <g transform="matrix(1.33333,0,0,1.33333,-87.3978,-86.3032)">
        <text x="150.24px" y="362.88px" style="font-family:'ArialMT', 'Arial', sans-serif;font-size:18px;">+</text>
        <text x="175.2px" y="352.08px" style="font-family:'ArialMT', 'Arial', sans-serif;font-size:10px;">H</text>
        <text x="182.413px" y="354.72px" style="font-family:'ArialMT', 'Arial', sans-serif;font-size:8px;">2</text>
        <text x="186.735px" y="352.08px" style="font-family:'ArialMT', 'Arial', sans-serif;font-size:10px;">C</text>
    </g>
    <g transform="matrix(1.33333,0,0,1.33333,-87.3978,-86.3032)">
        <text x="193.92px" y="345.12px" style="font-family:'ArialMT', 'Arial', sans-serif;font-size:8px;">+</text>
    </g>
    <g transform="matrix(1.33333,0,0,1.33333,-87.3978,-86.3032)">
        <text x="298.56px" y="363.6px" style="font-family:'ArialMT', 'Arial', sans-serif;font-size:10px;">CH</text>
        <text x="312.96px" y="366.24px" style="font-family:'ArialMT', 'Arial', sans-serif;font-size:8px;">3</text>
    </g>
    <g transform="matrix(1.33333,0,0,1.33333,-87.3978,-86.3032)">
        <text x="520.8px" y="362.88px" style="font-family:'ArialMT', 'Arial', sans-serif;font-size:10px;">CH</text>
        <text x="535.2px" y="365.52px" style="font-family:'ArialMT', 'Arial', sans-serif;font-size:8px;">3</text>
    </g>
    <g transform="matrix(1.33333,0,0,1.33333,-87.3978,-86.3032)">
        <text x="386.88px" y="361.2px" style="font-family:'ArialMT', 'Arial', sans-serif;font-size:10px;">Br</text>
    </g>
    <g transform="matrix(1.33333,0,0,1.33333,-87.3978,-86.3032)">
        <text x="523.68px" y="472.08px" style="font-family:'ArialMT', 'Arial', sans-serif;font-size:10px;">CH</text>
        <text x="538.08px" y="474.72px" style="font-family:'ArialMT', 'Arial', sans-serif;font-size:8px;">3</text>
    </g>
    <g transform="matrix(1.33333,0,0,1.33333,-87.3978,-86.3032)">
        <text x="394.32px" y="470.4px" style="font-family:'ArialMT', 'Arial', sans-serif;font-size:10px;">O</text>
    </g>
    <g transform="matrix(1.33333,0,0,1.33333,-87.3978,-86.3032)">
        <text x="387.12px" y="470.4px" style="font-family:'ArialMT', 'Arial', sans-serif;font-size:10px;">H</text>
    </g>
    <g transform="matrix(1.33333,0,0,1.33333,-87.3978,-86.3032)">
        <text x="189.84px" y="470.64px" style="font-family:'ArialMT', 'Arial', sans-serif;font-size:10px;">O</text>
    </g>
    <g transform="matrix(1.33333,0,0,1.33333,-87.3978,-86.3032)">
        <text x="182.64px" y="470.64px" style="font-family:'ArialMT', 'Arial', sans-serif;font-size:10px;">H</text>
    </g>
    <g transform="matrix(1.33333,0,0,1.33333,-87.3978,-86.3032)">
        <text x="293.52px" y="450.72px" style="font-family:'ArialMT', 'Arial', sans-serif;font-size:10px;">CH</text>
        <text x="307.92px" y="453.36px" style="font-family:'ArialMT', 'Arial', sans-serif;font-size:8px;">3</text>
    </g>
    <g transform="matrix(1.33333,0,0,1.33333,-87.3978,-86.3032)">
        <text x="292.32px" y="588.96px" style="font-family:'ArialMT', 'Arial', sans-serif;font-size:10px;">O</text>
        <text x="300.24px" y="582px" style="font-family:'ArialMT', 'Arial', sans-serif;font-size:8px;">+</text>
    </g>
    <g transform="matrix(1.33333,0,0,1.33333,-87.3978,-86.3032)">
        <text x="292.56px" y="608.88px" style="font-family:'ArialMT', 'Arial', sans-serif;font-size:10px;">H</text>
    </g>
    <g transform="matrix(1.33333,0,0,1.33333,-87.3978,-86.3032)">
        <text x="252.72px" y="587.04px" style="font-family:'ArialMT', 'Arial', sans-serif;font-size:18px;">+</text>
    </g>
    <g transform="matrix(1.33333,0,0,1.33333,-87.3978,-86.3032)">
        <text x="163.68px" y="580.32px" style="font-family:'ArialMT', 'Arial', sans-serif;font-size:10px;">C</text>
        <text x="170.88px" y="573.36px" style="font-family:'ArialMT', 'Arial', sans-serif;font-size:8px;">–</text>
    </g>
    <g transform="matrix(1.33333,0,0,1.33333,-87.3978,-86.3032)">
        <text x="213.36px" y="597.36px" style="font-family:'ArialMT', 'Arial', sans-serif;font-size:10px;">CH</text>
        <text x="227.76px" y="600px" style="font-family:'ArialMT', 'Arial', sans-serif;font-size:8px;">3</text>
    </g>
    <g transform="matrix(0.0233344,1.33313,-1.33313,0.0233344,-87.3978,-86.3032)">
        <text x="349.88px" y="-108.373px" style="font-family:'ArialMT', 'Arial', sans-serif;font-size:10px;">:</text>
    </g>
    <g transform="matrix(0.00226666,1.33333,-1.33333,0.00226666,-87.3978,-86.3032)">
        <text x="459.226px" y="-191.22px" style="font-family:'ArialMT', 'Arial', sans-serif;font-size:10px;">:</text>
    </g>
    <g transform="matrix(-1.19598,0.589413,0.589413,1.19598,-201.479,-958.319)">
        <path d="M115.199,757.935L147.841,757.935" style="fill:none;fill-rule:nonzero;stroke:black;stroke-width:0.72px;"/>
    </g>
    <g transform="matrix(-1.20473,-0.571316,-0.571316,1.20473,611.76,-823.004)">
        <path d="M92.357,756.24L118.123,756.24" style="fill:none;fill-rule:nonzero;stroke:black;stroke-width:0.72px;"/>
    </g>
    <g transform="matrix(-0.0133862,-1.33327,-1.33327,0.0133862,1033.45,217.904)">
        <path d="M106.539,723L126.461,723" style="fill:none;fill-rule:nonzero;stroke:black;stroke-width:0.72px;"/>
    </g>
    <g transform="matrix(-1.16151,-0.65473,-0.65473,1.16151,688.791,-648.445)">
        <path d="M115.317,708.15L135.233,708.15" style="fill:none;fill-rule:nonzero;stroke:black;stroke-width:0.72px;"/>
    </g>
    <g transform="matrix(-1.15889,0.659354,0.659354,1.15889,-203.828,-817.927)">
        <path d="M132.995,706.87L147.595,706.87" style="fill:none;fill-rule:nonzero;stroke:black;stroke-width:0.72px;"/>
    </g>
    <g transform="matrix(-1.21719,0.544271,0.544271,1.21719,-192.915,-830.746)">
        <path d="M101.835,707.251L116.656,707.251L116.468,708.912L116.283,710.583L101.835,707.251Z" style="stroke:black;stroke-width:0.24px;"/>
    </g>
    <g transform="matrix(-0.678168,-1.14798,-1.14798,0.678168,995.669,-264.627)">
        <path d="M126.108,719.625L129.372,719.625" style="fill:none;fill-rule:nonzero;stroke:black;stroke-width:0.72px;"/>
    </g>
    <g transform="matrix(-0.676923,-1.14872,-1.14872,0.676923,989.93,-263.541)">
        <path d="M124.17,718.28L126.77,718.28" style="fill:none;fill-rule:nonzero;stroke:black;stroke-width:0.72px;"/>
    </g>
    <g transform="matrix(-0.67784,-1.14818,-1.14818,0.67784,983.553,-264.178)">
        <path d="M122.236,716.94L124.164,716.94" style="fill:none;fill-rule:nonzero;stroke:black;stroke-width:0.72px;"/>
    </g>
    <g transform="matrix(-0.682902,-1.14517,-1.14517,0.682902,975.896,-268.071)">
        <path d="M120.29,715.595L121.56,715.595" style="fill:none;fill-rule:nonzero;stroke:black;stroke-width:0.72px;"/>
    </g>
    <g transform="matrix(-0.682753,-1.14526,-1.14526,0.682753,969.825,-267.842)">
        <path d="M118.352,714.25L118.958,714.25" style="fill:none;fill-rule:nonzero;stroke:black;stroke-width:0.72px;"/>
    </g>
    <g transform="matrix(-0.696379,-1.13703,-1.13703,0.696379,1004.61,-324.17)">
        <path d="M110.628,739.56L136.802,739.56" style="fill:none;fill-rule:nonzero;stroke:black;stroke-width:0.72px;"/>
    </g>
    <g transform="matrix(-0.0100179,-1.3333,-1.3333,0.0100179,1080.23,173.705)">
        <path d="M109.505,758.04L124.145,758.04" style="fill:none;fill-rule:nonzero;stroke:black;stroke-width:0.72px;"/>
    </g>
    <g transform="matrix(1.33333,0,0,1.33333,-87.3978,-937.183)">
        <path d="M123.84,737.28L125.52,740.4L123.12,742.8L121.2,739.92" style="fill:white;"/>
    </g>
    <g transform="matrix(0.942809,-0.942809,-0.942809,-0.942809,668.941,867.979)">
        <path d="M110.237,747.84L152.323,747.84" style="fill:none;fill-rule:nonzero;stroke:black;stroke-width:0.72px;"/>
    </g>
    <g transform="matrix(1.33333,0,0,1.33333,-87.3978,-949.023)">
        <path d="M167.76,744.48L201.84,744.48" style="fill:none;fill-rule:nonzero;stroke:black;stroke-width:0.72px;"/>
    </g>
    <g transform="matrix(1.33333,0,0,1.33333,-87.3978,-956.703)">
        <path d="M167.76,747.36L201.84,747.36" style="fill:none;fill-rule:nonzero;stroke:black;stroke-width:0.72px;"/>
    </g>
    <g transform="matrix(1.33333,0,0,1.33333,-87.3978,-952.863)">
        <path d="M197.28,742.32L205.2,745.92L197.28,749.52" style="fill:none;fill-rule:nonzero;stroke:black;stroke-width:0.72px;"/>
    </g>
    <g transform="matrix(-0.942809,0.942809,0.942809,0.942809,-254.532,-896.114)">
        <path d="M221.697,750.6L253.263,750.6" style="fill:none;fill-rule:nonzero;stroke:black;stroke-width:0.72px;"/>
    </g>
    <g transform="matrix(1.28925,-0.340022,-0.340022,-1.28925,175.466,1084.2)">
        <path d="M225.947,742.32L248.533,742.32" style="fill:none;fill-rule:nonzero;stroke:black;stroke-width:0.72px;"/>
    </g>
    <g transform="matrix(1.18015,0.620494,0.620494,-1.18015,-506.197,761.841)">
        <path d="M246.649,739.08L272.951,739.08" style="fill:none;fill-rule:nonzero;stroke:black;stroke-width:0.72px;"/>
    </g>
    <g transform="matrix(-1.19595,0.589469,0.589469,1.19595,190.884,-1049.92)">
        <path d="M270.225,757.995L303.135,757.995" style="fill:none;fill-rule:nonzero;stroke:black;stroke-width:0.72px;"/>
    </g>
    <g transform="matrix(-1.20473,-0.571316,-0.571316,1.20473,1005.26,-734.427)">
        <path d="M247.397,756.24L273.163,756.24" style="fill:none;fill-rule:nonzero;stroke:black;stroke-width:0.72px;"/>
    </g>
    <g transform="matrix(-0.0133862,-1.33327,-1.33327,0.0133862,1242.24,424.614)">
        <path d="M261.579,723L281.501,723" style="fill:none;fill-rule:nonzero;stroke:black;stroke-width:0.72px;"/>
    </g>
    <g transform="matrix(-1.16151,-0.65473,-0.65473,1.16151,1075.59,-546.936)">
        <path d="M270.357,708.15L290.273,708.15" style="fill:none;fill-rule:nonzero;stroke:black;stroke-width:0.72px;"/>
    </g>
    <g transform="matrix(-1.15889,0.659354,0.659354,1.15889,182.566,-920.153)">
        <path d="M288.035,706.87L302.635,706.87" style="fill:none;fill-rule:nonzero;stroke:black;stroke-width:0.72px;"/>
    </g>
    <g transform="matrix(-1.21719,0.544271,0.544271,1.21719,202.517,-915.13)">
        <path d="M256.875,707.251L271.696,707.251L271.508,708.912L271.323,710.583L256.875,707.251Z" style="stroke:black;stroke-width:0.24px;"/>
    </g>
    <g transform="matrix(-0.678168,-1.14798,-1.14798,0.678168,1307.53,-86.6432)">
        <path d="M281.148,719.625L284.412,719.625" style="fill:none;fill-rule:nonzero;stroke:black;stroke-width:0.72px;"/>
    </g>
    <g transform="matrix(-0.676923,-1.14872,-1.14872,0.676923,1301.6,-85.4433)">
        <path d="M279.21,718.28L281.81,718.28" style="fill:none;fill-rule:nonzero;stroke:black;stroke-width:0.72px;"/>
    </g>
    <g transform="matrix(-0.67784,-1.14818,-1.14818,0.67784,1295.37,-86.1647)">
        <path d="M277.276,716.94L279.204,716.94" style="fill:none;fill-rule:nonzero;stroke:black;stroke-width:0.72px;"/>
    </g>
    <g transform="matrix(-0.682902,-1.14517,-1.14517,0.682902,1288.49,-90.5231)">
        <path d="M275.33,715.595L276.6,715.595" style="fill:none;fill-rule:nonzero;stroke:black;stroke-width:0.72px;"/>
    </g>
    <g transform="matrix(-0.682753,-1.14526,-1.14526,0.682753,1282.4,-90.28)">
        <path d="M273.392,714.25L273.998,714.25" style="fill:none;fill-rule:nonzero;stroke:black;stroke-width:0.72px;"/>
    </g>
    <g transform="matrix(-0.66371,-1.1564,-1.1564,0.66371,1332.42,-113.455)">
        <path d="M281.138,739.45L284.412,739.45" style="fill:none;fill-rule:nonzero;stroke:black;stroke-width:0.72px;"/>
    </g>
    <g transform="matrix(-0.660967,-1.15797,-1.15797,0.660967,1326.72,-111.022)">
        <path d="M279.184,738.14L281.786,738.14" style="fill:none;fill-rule:nonzero;stroke:black;stroke-width:0.72px;"/>
    </g>
    <g transform="matrix(-0.663728,-1.15639,-1.15639,0.663728,1320.23,-113.525)">
        <path d="M277.221,736.825L279.169,736.825" style="fill:none;fill-rule:nonzero;stroke:black;stroke-width:0.72px;"/>
    </g>
    <g transform="matrix(-0.665996,-1.15509,-1.15509,0.665996,1313.8,-115.592)">
        <path d="M275.259,735.515L276.541,735.515" style="fill:none;fill-rule:nonzero;stroke:black;stroke-width:0.72px;"/>
    </g>
    <g transform="matrix(-0.654684,-1.16154,-1.16154,0.654684,1309.36,-105.542)">
        <path d="M273.299,734.205L273.931,734.205" style="fill:none;fill-rule:nonzero;stroke:black;stroke-width:0.72px;"/>
    </g>
    <g transform="matrix(-1.22373,0.529397,0.529397,1.22373,203.372,-966.662)">
        <path d="M256.444,727.185L271.48,727.185L271.285,728.849L271.094,730.522L256.444,727.185Z" style="stroke:black;stroke-width:0.24px;"/>
    </g>
    <g transform="matrix(-0.0100248,-1.3333,-1.3333,0.0100248,1290.77,382.647)">
        <path d="M266.23,758.045L280.86,758.045" style="fill:none;fill-rule:nonzero;stroke:black;stroke-width:0.72px;"/>
    </g>
    <g transform="matrix(-0.0100111,-1.3333,-1.3333,0.0100111,1286.24,378.191)">
        <path d="M262.86,758.035L277.51,758.035" style="fill:none;fill-rule:nonzero;stroke:black;stroke-width:0.72px;"/>
    </g>
    <g transform="matrix(-1.1544,0.667188,0.667188,1.1544,456.836,-1099.76)">
        <path d="M411.576,746.27L426.244,746.27" style="fill:none;fill-rule:nonzero;stroke:black;stroke-width:0.72px;"/>
    </g>
    <g transform="matrix(-1.15485,-0.666412,-0.666412,1.15485,1488.65,-528.189)">
        <path d="M423.926,744.96L443.854,744.96" style="fill:none;fill-rule:nonzero;stroke:black;stroke-width:0.72px;"/>
    </g>
    <g transform="matrix(1.15468,-0.666702,-0.666702,-1.15468,489.867,1203.95)">
        <path d="M441.186,744.96L461.104,744.96" style="fill:none;fill-rule:nonzero;stroke:black;stroke-width:0.72px;"/>
    </g>
    <g transform="matrix(-1.15468,0.666702,0.666702,1.15468,624.227,-1140.99)">
        <path d="M475.686,744.96L495.604,744.96" style="fill:none;fill-rule:nonzero;stroke:black;stroke-width:0.72px;"/>
    </g>
    <g transform="matrix(1.15468,0.666702,0.666702,-1.15468,-500.384,590.887)">
        <path d="M458.436,744.96L478.354,744.96" style="fill:none;fill-rule:nonzero;stroke:black;stroke-width:0.72px;"/>
    </g>
    <g transform="matrix(-1.15468,0.666702,0.666702,1.15468,710.063,-1164)">
        <path d="M510.186,744.96L530.104,744.96" style="fill:none;fill-rule:nonzero;stroke:black;stroke-width:0.72px;"/>
    </g>
    <g transform="matrix(1.15468,0.666702,0.666702,-1.15468,-494.22,567.886)">
        <path d="M492.936,744.96L512.854,744.96" style="fill:none;fill-rule:nonzero;stroke:black;stroke-width:0.72px;"/>
    </g>
    <g transform="matrix(1.1549,0.666323,0.666323,-1.1549,-489.183,546.541)">
        <path d="M527.791,746.285L542.419,746.285" style="fill:none;fill-rule:nonzero;stroke:black;stroke-width:0.72px;"/>
    </g>
    <g transform="matrix(0,-1.33333,-1.33333,0,1491.58,595.79)">
        <path d="M419.59,757.29L434.29,757.29" style="fill:none;fill-rule:nonzero;stroke:black;stroke-width:0.72px;"/>
    </g>
    <g transform="matrix(0,-1.33333,-1.33333,0,1487.1,591.31)">
        <path d="M416.23,757.29L430.93,757.29" style="fill:none;fill-rule:nonzero;stroke:black;stroke-width:0.72px;"/>
    </g>
    <g transform="matrix(0.151395,-1.32471,-1.32471,-0.151395,1499.99,795.952)">
        <path d="M486.968,756.455L501.763,756.455L501.382,759.794L486.968,756.455Z" style="stroke:black;stroke-width:0.24px;"/>
    </g>
    <g transform="matrix(-1.33333,0,0,1.33333,1276.66,-933.503)">
        <path d="M509.88,738.66L513.16,738.66" style="fill:none;fill-rule:nonzero;stroke:black;stroke-width:0.72px;"/>
    </g>
    <g transform="matrix(-1.33333,0,0,1.33333,1276.67,-926.463)">
        <path d="M510.21,736.02L512.84,736.02" style="fill:none;fill-rule:nonzero;stroke:black;stroke-width:0.72px;"/>
    </g>
    <g transform="matrix(-1.33333,0,0,1.33333,1276.66,-919.423)">
        <path d="M510.53,733.38L512.51,733.38" style="fill:none;fill-rule:nonzero;stroke:black;stroke-width:0.72px;"/>
    </g>
    <g transform="matrix(-1.33333,0,0,1.33333,1276.66,-912.383)">
        <path d="M510.85,730.74L512.19,730.74" style="fill:none;fill-rule:nonzero;stroke:black;stroke-width:0.72px;"/>
    </g>
    <g transform="matrix(-1.33333,0,0,1.33333,1276.67,-905.343)">
        <path d="M511.18,728.1L511.87,728.1" style="fill:none;fill-rule:nonzero;stroke:black;stroke-width:0.72px;"/>
    </g>
    <g transform="matrix(-1.33333,0,0,1.33333,1276.67,-898.303)">
        <path d="M511.5,725.46L511.55,725.46" style="fill:none;fill-rule:nonzero;stroke:black;stroke-width:0.72px;"/>
    </g>
    <g transform="matrix(0,1.33333,1.33333,0,-369.958,-494.303)">
        <path d="M450.48,679.92L485.52,679.92" style="fill:none;fill-rule:nonzero;stroke:black;stroke-width:0.72px;"/>
    </g>
    <g transform="matrix(0,1.33333,1.33333,0,-366.118,-498.143)">
        <path d="M453.36,679.92L488.4,679.92" style="fill:none;fill-rule:nonzero;stroke:black;stroke-width:0.72px;"/>
    </g>
    <g transform="matrix(1.33333,0,0,1.33333,-87.3978,-731.743)">
        <path d="M473.04,659.04L469.44,666.96L465.84,659.04" style="fill:none;fill-rule:nonzero;stroke:black;stroke-width:0.72px;"/>
    </g>
    <g transform="matrix(-1.15485,0.666401,0.666401,1.15485,475.596,-734.021)">
        <path d="M381.577,607.31L396.263,607.31" style="fill:none;fill-rule:nonzero;stroke:black;stroke-width:0.72px;"/>
    </g>
    <g transform="matrix(-1.15468,-0.666702,-0.666702,1.15468,1321.54,-202.195)">
        <path d="M393.946,606L413.864,606" style="fill:none;fill-rule:nonzero;stroke:black;stroke-width:0.72px;"/>
    </g>
    <g transform="matrix(-1.15468,0.666702,0.666702,1.15468,556.42,-752.264)">
        <path d="M411.196,606L431.114,606" style="fill:none;fill-rule:nonzero;stroke:black;stroke-width:0.72px;"/>
    </g>
    <g transform="matrix(1.15468,0.666702,0.666702,-1.15468,-413.097,635.707)">
        <path d="M428.446,606L448.364,606" style="fill:none;fill-rule:nonzero;stroke:black;stroke-width:0.72px;"/>
    </g>
    <g transform="matrix(1.13797,-0.694846,-0.694846,-1.13797,422.638,1234.18)">
        <path d="M445.621,606.03L464.849,606.03" style="fill:none;fill-rule:nonzero;stroke:black;stroke-width:0.72px;"/>
    </g>
    <g transform="matrix(1.33333,0,0,1.33333,-87.3978,-593.183)">
        <path d="M463.44,611.04L486.72,611.04" style="fill:none;fill-rule:nonzero;stroke:black;stroke-width:0.72px;"/>
    </g>
    <g transform="matrix(1.33333,0,0,1.33333,-87.3978,-584.223)">
        <path d="M463.44,607.68L486.72,607.68" style="fill:none;fill-rule:nonzero;stroke:black;stroke-width:0.72px;"/>
    </g>
    <g transform="matrix(1.08929,0.768911,0.768911,-1.08929,-432.032,508.024)">
        <path d="M484.892,605.28L504.868,605.28" style="fill:none;fill-rule:nonzero;stroke:black;stroke-width:0.72px;"/>
    </g>
    <g transform="matrix(1.119,-0.724988,-0.724988,-1.119,460.892,1277.45)">
        <path d="M501.408,605.04L521.712,605.04" style="fill:none;fill-rule:nonzero;stroke:black;stroke-width:0.72px;"/>
    </g>
    <g transform="matrix(1.18457,0.612027,0.612027,-1.18457,-379.801,622.628)">
        <path d="M519.025,606.22L537.935,606.22" style="fill:none;fill-rule:nonzero;stroke:black;stroke-width:0.72px;"/>
    </g>
    <g transform="matrix(0,-1.33333,-1.33333,0,1266.32,741.097)">
        <path d="M389.61,618.33L404.31,618.33" style="fill:none;fill-rule:nonzero;stroke:black;stroke-width:0.72px;"/>
    </g>
    <g transform="matrix(0,-1.33333,-1.33333,0,1261.84,736.617)">
        <path d="M386.25,618.33L400.95,618.33" style="fill:none;fill-rule:nonzero;stroke:black;stroke-width:0.72px;"/>
    </g>
    <g transform="matrix(-1.33333,0,0,1.33333,745.882,-591.263)">
        <path d="M287.52,610.32L337.44,610.32" style="fill:none;fill-rule:nonzero;stroke:black;stroke-width:0.72px;"/>
    </g>
    <g transform="matrix(-1.33333,0,0,1.33333,745.882,-583.583)">
        <path d="M287.52,607.44L337.44,607.44" style="fill:none;fill-rule:nonzero;stroke:black;stroke-width:0.72px;"/>
    </g>
    <g transform="matrix(1.33333,0,0,1.33333,-87.3978,-587.423)">
        <path d="M292.08,612.48L284.16,608.88L292.08,605.28" style="fill:none;fill-rule:nonzero;stroke:black;stroke-width:0.72px;"/>
    </g>
    <g transform="matrix(1.15468,0.666702,0.666702,-1.15468,-486.885,849.472)">
        <path d="M101.626,629.1L121.544,629.1" style="fill:none;fill-rule:nonzero;stroke:black;stroke-width:0.72px;"/>
    </g>
    <g transform="matrix(1.15444,-0.667124,-0.667124,-1.15444,332.616,1005.44)">
        <path d="M106.73,598.91L122.08,598.91" style="fill:none;fill-rule:nonzero;stroke:black;stroke-width:0.72px;"/>
    </g>
    <g transform="matrix(1.15483,-0.66644,-0.66644,-1.15483,334.271,1004.43)">
        <path d="M106.863,602.3L120.267,602.3" style="fill:none;fill-rule:nonzero;stroke:black;stroke-width:0.72px;"/>
    </g>
    <g transform="matrix(1.15485,-0.666401,-0.666401,-1.15485,349.949,988.116)">
        <path d="M89.257,630.41L103.943,630.41" style="fill:none;fill-rule:nonzero;stroke:black;stroke-width:0.72px;"/>
    </g>
    <g transform="matrix(1.15485,0.666412,0.666412,-1.15485,-480.563,826.615)">
        <path d="M136.126,629.1L156.054,629.1" style="fill:none;fill-rule:nonzero;stroke:black;stroke-width:0.72px;"/>
    </g>
    <g transform="matrix(1.15468,-0.666702,-0.666702,-1.15468,355.041,1009.76)">
        <path d="M118.876,629.1L138.794,629.1" style="fill:none;fill-rule:nonzero;stroke:black;stroke-width:0.72px;"/>
    </g>
    <g transform="matrix(1.15487,0.666378,0.666378,-1.15487,-465.116,844.866)">
        <path d="M119.262,600.66L133.428,600.66" style="fill:none;fill-rule:nonzero;stroke:black;stroke-width:0.72px;"/>
    </g>
    <g transform="matrix(0,-1.33333,-1.33333,0,891.762,377.657)">
        <path d="M110.25,614.16L130.17,614.16" style="fill:none;fill-rule:nonzero;stroke:black;stroke-width:0.72px;"/>
    </g>
    <g transform="matrix(1.15468,-0.666702,-0.666702,-1.15468,361.207,1032.77)">
        <path d="M153.386,629.1L173.304,629.1" style="fill:none;fill-rule:nonzero;stroke:black;stroke-width:0.72px;"/>
    </g>
    <g transform="matrix(1.33333,0,0,1.33333,-87.3978,-654.623)">
        <path d="M171.97,634.08L198.72,634.08" style="fill:none;fill-rule:nonzero;stroke:black;stroke-width:0.72px;"/>
    </g>
    <g transform="matrix(1.33333,0,0,1.33333,-87.3978,-645.663)">
        <path d="M171.97,630.72L198.72,630.72" style="fill:none;fill-rule:nonzero;stroke:black;stroke-width:0.72px;"/>
    </g>
    <g transform="matrix(1.11203,0.735648,0.735648,-1.11203,-504.357,745.146)">
        <path d="M197.168,628.92L215.872,628.92" style="fill:none;fill-rule:nonzero;stroke:black;stroke-width:0.72px;"/>
    </g>
    <g transform="matrix(1.1931,-0.595213,-0.595213,-1.1931,317.821,1081.03)">
        <path d="M213.273,628.205L233.187,628.205" style="fill:none;fill-rule:nonzero;stroke:black;stroke-width:0.72px;"/>
    </g>
    <g transform="matrix(1.1124,0.735079,0.735079,-1.1124,-496.94,722.326)">
        <path d="M230.954,628.705L245.266,628.705" style="fill:none;fill-rule:nonzero;stroke:black;stroke-width:0.72px;"/>
    </g>
    <g transform="matrix(0,-1.33333,-1.33333,0,907.322,320.577)">
        <path d="M97.32,641.4L111.96,641.4" style="fill:none;fill-rule:nonzero;stroke:black;stroke-width:0.72px;"/>
    </g>
    <g transform="matrix(0,-1.33333,-1.33333,0,902.842,316.097)">
        <path d="M93.96,641.4L108.6,641.4" style="fill:none;fill-rule:nonzero;stroke:black;stroke-width:0.72px;"/>
    </g>
    <g transform="matrix(1.33333,0,0,1.33333,-87.3978,-636.063)">
        <path d="M119.52,618L122.88,617.52L123.84,617.52L125.04,617.76L126,618L127.2,618.48L128.16,618.96L128.88,619.68L129.84,620.4L130.56,621.12L131.04,622.08L131.76,623.04L132,624L132.48,625.2L132.48,626.16L132.72,626.88L132.72,627.36L132.24,630.24L131.76,631.68L131.04,632.88L130.08,634.08L129.12,635.04L126.72,636.48L126,636.72" style="fill:none;fill-rule:nonzero;stroke:black;stroke-width:0.48px;"/>
    </g>
    <g transform="matrix(-1.26491,0.421637,0.421637,1.26491,-11.3642,-630.802)">
        <path d="M126.317,622.114L134.665,622.114L127.531,618.167L128.594,620.596L126.317,622.114Z" style="stroke:black;stroke-width:0.48px;"/>
    </g>
    <g transform="matrix(0,1.33333,1.33333,0,-613.318,105.217)">
        <path d="M135.48,546.36L168.36,546.36" style="fill:none;fill-rule:nonzero;stroke:black;stroke-width:0.72px;"/>
    </g>
    <g transform="matrix(0,1.33333,1.33333,0,-609.478,101.377)">
        <path d="M138.36,546.36L171.24,546.36" style="fill:none;fill-rule:nonzero;stroke:black;stroke-width:0.72px;"/>
    </g>
    <g transform="matrix(1.33333,0,0,1.33333,-87.3978,-378.463)">
        <path d="M156.96,526.56L153.36,534.48L149.76,526.56" style="fill:none;fill-rule:nonzero;stroke:black;stroke-width:0.72px;"/>
    </g>
    <g transform="matrix(0,-1.33333,-1.33333,0,700.162,562.857)">
        <path d="M110.43,472.86L125.19,472.86" style="fill:none;fill-rule:nonzero;stroke:black;stroke-width:0.72px;"/>
    </g>
    <g transform="matrix(1.15451,0.666991,0.666991,-1.15451,-396.296,877.087)">
        <path d="M99.594,491.755L114.006,491.755" style="fill:none;fill-rule:nonzero;stroke:black;stroke-width:0.72px;"/>
    </g>
    <g transform="matrix(1.15444,-0.667124,-0.667124,-1.15444,239.643,1028.65)">
        <path d="M104.33,460.19L119.68,460.19" style="fill:none;fill-rule:nonzero;stroke:black;stroke-width:0.72px;"/>
    </g>
    <g transform="matrix(1.15483,-0.66644,-0.66644,-1.15483,241.394,1027.59)">
        <path d="M104.463,463.58L117.867,463.58" style="fill:none;fill-rule:nonzero;stroke:black;stroke-width:0.72px;"/>
    </g>
    <g transform="matrix(1.15485,-0.666401,-0.666401,-1.15485,257.078,1011.28)">
        <path d="M86.857,491.69L101.543,491.69" style="fill:none;fill-rule:nonzero;stroke:black;stroke-width:0.72px;"/>
    </g>
    <g transform="matrix(1.15487,0.666378,0.666378,-1.15487,-373.105,871.222)">
        <path d="M116.862,461.94L131.028,461.94" style="fill:none;fill-rule:nonzero;stroke:black;stroke-width:0.72px;"/>
    </g>
    <g transform="matrix(0,-1.33333,-1.33333,0,719.162,502.337)">
        <path d="M94.92,502.68L109.56,502.68" style="fill:none;fill-rule:nonzero;stroke:black;stroke-width:0.72px;"/>
    </g>
    <g transform="matrix(0,-1.33333,-1.33333,0,714.682,497.857)">
        <path d="M91.56,502.68L106.2,502.68" style="fill:none;fill-rule:nonzero;stroke:black;stroke-width:0.72px;"/>
    </g>
    <g transform="matrix(1.15472,0.666633,0.666633,-1.15472,-376.501,814.959)">
        <path d="M193.885,487.615L208.745,487.615" style="fill:none;fill-rule:nonzero;stroke:black;stroke-width:0.72px;"/>
    </g>
    <g transform="matrix(1.13797,-0.694846,-0.694846,-1.13797,294.51,1090.8)">
        <path d="M206.341,488.91L225.569,488.91" style="fill:none;fill-rule:nonzero;stroke:black;stroke-width:0.72px;"/>
    </g>
    <g transform="matrix(1.33333,0,0,1.33333,-87.3978,-280.863)">
        <path d="M224.16,493.92L247.44,493.92" style="fill:none;fill-rule:nonzero;stroke:black;stroke-width:0.72px;"/>
    </g>
    <g transform="matrix(1.33333,0,0,1.33333,-87.3978,-271.903)">
        <path d="M224.16,490.56L247.44,490.56" style="fill:none;fill-rule:nonzero;stroke:black;stroke-width:0.72px;"/>
    </g>
    <g transform="matrix(1.08929,0.768911,0.768911,-1.08929,-400.372,720.591)">
        <path d="M245.612,488.16L265.588,488.16" style="fill:none;fill-rule:nonzero;stroke:black;stroke-width:0.72px;"/>
    </g>
    <g transform="matrix(1.119,-0.724988,-0.724988,-1.119,324.696,1129.08)">
        <path d="M262.128,487.92L282.432,487.92" style="fill:none;fill-rule:nonzero;stroke:black;stroke-width:0.72px;"/>
    </g>
    <g transform="matrix(1.18457,0.612027,0.612027,-1.18457,-343.717,786.497)">
        <path d="M279.745,489.1L298.655,489.1" style="fill:none;fill-rule:nonzero;stroke:black;stroke-width:0.72px;"/>
    </g>
    <g transform="matrix(1.33333,0,0,1.33333,-87.3978,-266.783)">
        <path d="M334.56,488.64L368.64,488.64" style="fill:none;fill-rule:nonzero;stroke:black;stroke-width:0.72px;"/>
    </g>
    <g transform="matrix(1.33333,0,0,1.33333,-87.3978,-274.463)">
        <path d="M334.56,491.52L368.64,491.52" style="fill:none;fill-rule:nonzero;stroke:black;stroke-width:0.72px;"/>
    </g>
    <g transform="matrix(1.33333,0,0,1.33333,-87.3978,-270.623)">
        <path d="M364.08,486.48L372,490.08L364.08,493.68" style="fill:none;fill-rule:nonzero;stroke:black;stroke-width:0.72px;"/>
    </g>
    <g transform="matrix(1.15468,0.666702,0.666702,-1.15468,-338.537,667.863)">
        <path d="M411.406,489.6L431.324,489.6" style="fill:none;fill-rule:nonzero;stroke:black;stroke-width:0.72px;"/>
    </g>
    <g transform="matrix(1.13797,-0.694846,-0.694846,-1.13797,338.428,1245.08)">
        <path d="M428.581,489.63L447.809,489.63" style="fill:none;fill-rule:nonzero;stroke:black;stroke-width:0.72px;"/>
    </g>
    <g transform="matrix(1.33333,0,0,1.33333,-87.3978,-282.783)">
        <path d="M446.4,494.64L469.68,494.64" style="fill:none;fill-rule:nonzero;stroke:black;stroke-width:0.72px;"/>
    </g>
    <g transform="matrix(1.33333,0,0,1.33333,-87.3978,-273.823)">
        <path d="M446.4,491.28L469.68,491.28" style="fill:none;fill-rule:nonzero;stroke:black;stroke-width:0.72px;"/>
    </g>
    <g transform="matrix(1.08929,0.768911,0.768911,-1.08929,-346.69,549.533)">
        <path d="M467.852,488.88L487.828,488.88" style="fill:none;fill-rule:nonzero;stroke:black;stroke-width:0.72px;"/>
    </g>
    <g transform="matrix(1.119,-0.724988,-0.724988,-1.119,372.851,1290.05)">
        <path d="M484.368,488.64L504.672,488.64" style="fill:none;fill-rule:nonzero;stroke:black;stroke-width:0.72px;"/>
    </g>
    <g transform="matrix(1.18457,0.612027,0.612027,-1.18457,-311.096,650.374)">
        <path d="M501.985,489.82L520.895,489.82" style="fill:none;fill-rule:nonzero;stroke:black;stroke-width:0.72px;"/>
    </g>
    <g transform="matrix(-1.15458,0.666881,0.666881,1.15458,594.055,-453.872)">
        <path d="M396.773,490.3L413.887,490.3" style="fill:none;fill-rule:nonzero;stroke:black;stroke-width:0.72px;"/>
    </g>
    <g transform="matrix(0,1.33333,1.33333,0,-65.4778,-156.543)">
        <path d="M438.6,439.08L472.44,439.08" style="fill:none;fill-rule:nonzero;stroke:black;stroke-width:0.72px;"/>
    </g>
    <g transform="matrix(0,1.33333,1.33333,0,-61.6378,-160.383)">
        <path d="M441.48,439.08L475.32,439.08" style="fill:none;fill-rule:nonzero;stroke:black;stroke-width:0.72px;"/>
    </g>
    <g transform="matrix(1.33333,0,0,1.33333,-87.3978,-91.1032)">
        <path d="M460.56,418.8L456.96,426.72L453.36,418.8" style="fill:none;fill-rule:nonzero;stroke:black;stroke-width:0.72px;"/>
    </g>
    <g transform="matrix(1.15468,0.666702,0.666702,-1.15468,-265.219,685.452)">
        <path d="M414.286,380.4L434.204,380.4" style="fill:none;fill-rule:nonzero;stroke:black;stroke-width:0.72px;"/>
    </g>
    <g transform="matrix(1.13797,-0.694846,-0.694846,-1.13797,263.114,1268.41)">
        <path d="M431.461,380.43L450.689,380.43" style="fill:none;fill-rule:nonzero;stroke:black;stroke-width:0.72px;"/>
    </g>
    <g transform="matrix(1.33333,0,0,1.33333,-87.3978,8.41677)">
        <path d="M449.28,385.44L472.56,385.44" style="fill:none;fill-rule:nonzero;stroke:black;stroke-width:0.72px;"/>
    </g>
    <g transform="matrix(1.33333,0,0,1.33333,-87.3978,17.3768)">
        <path d="M449.28,382.08L472.56,382.08" style="fill:none;fill-rule:nonzero;stroke:black;stroke-width:0.72px;"/>
    </g>
    <g transform="matrix(1.08929,0.768911,0.768911,-1.08929,-262.022,573.968)">
        <path d="M470.732,379.68L490.708,379.68" style="fill:none;fill-rule:nonzero;stroke:black;stroke-width:0.72px;"/>
    </g>
    <g transform="matrix(1.119,-0.724988,-0.724988,-1.119,294.299,1315.54)">
        <path d="M487.248,379.44L507.552,379.44" style="fill:none;fill-rule:nonzero;stroke:black;stroke-width:0.72px;"/>
    </g>
    <g transform="matrix(1.18457,0.612027,0.612027,-1.18457,-243.834,664.856)">
        <path d="M504.865,380.62L523.775,380.62" style="fill:none;fill-rule:nonzero;stroke:black;stroke-width:0.72px;"/>
    </g>
    <g transform="matrix(-1.15473,0.666619,0.666619,1.15473,676.728,-186.593)">
        <path d="M402.239,381.795L416.581,381.795" style="fill:none;fill-rule:nonzero;stroke:black;stroke-width:0.72px;"/>
    </g>
    <g transform="matrix(-1.33333,0,0,1.33333,836.122,19.9368)">
        <path d="M329.04,381.12L363.6,381.12" style="fill:none;fill-rule:nonzero;stroke:black;stroke-width:0.72px;"/>
    </g>
    <g transform="matrix(-1.33333,0,0,1.33333,836.122,27.6168)">
        <path d="M329.04,378.24L363.6,378.24" style="fill:none;fill-rule:nonzero;stroke:black;stroke-width:0.72px;"/>
    </g>
    <g transform="matrix(1.33333,0,0,1.33333,-87.3978,23.7768)">
        <path d="M333.6,383.28L325.68,379.68L333.6,376.08" style="fill:none;fill-rule:nonzero;stroke:black;stroke-width:0.72px;"/>
    </g>
    <g transform="matrix(1.15468,0.666702,0.666702,-1.15468,-301.696,821.901)">
        <path d="M209.656,380.28L229.574,380.28" style="fill:none;fill-rule:nonzero;stroke:black;stroke-width:0.72px;"/>
    </g>
    <g transform="matrix(1.15446,-0.667084,-0.667084,-1.15446,203.881,1104.63)">
        <path d="M197.769,381.715L211.941,381.715" style="fill:none;fill-rule:nonzero;stroke:black;stroke-width:0.72px;"/>
    </g>
    <g transform="matrix(1.15468,-0.666702,-0.666702,-1.15468,208.452,1126.24)">
        <path d="M226.906,380.28L246.824,380.28" style="fill:none;fill-rule:nonzero;stroke:black;stroke-width:0.72px;"/>
    </g>
    <g transform="matrix(1.15468,-0.666702,-0.666702,-1.15468,218.175,1135.96)">
        <path d="M244.156,390.24L264.074,390.24" style="fill:none;fill-rule:nonzero;stroke:black;stroke-width:0.72px;"/>
    </g>
    <g transform="matrix(1.15468,-0.666702,-0.666702,-1.15468,219.815,1134.32)">
        <path d="M242.476,393.15L262.394,393.15" style="fill:none;fill-rule:nonzero;stroke:black;stroke-width:0.72px;"/>
    </g>
    <g transform="matrix(1.15468,-0.666702,-0.666702,-1.15468,216.535,1137.6)">
        <path d="M245.836,387.33L265.754,387.33" style="fill:none;fill-rule:nonzero;stroke:black;stroke-width:0.72px;"/>
    </g>
    <g transform="matrix(1.15468,-0.666702,-0.666702,-1.15468,227.897,1145.68)">
        <path d="M261.406,400.2L281.324,400.2" style="fill:none;fill-rule:nonzero;stroke:black;stroke-width:0.72px;"/>
    </g>
    <g transform="matrix(1.15499,0.666164,0.666164,-1.15499,-303.844,773.936)">
        <path d="M279.02,401.555L293.53,401.555" style="fill:none;fill-rule:nonzero;stroke:black;stroke-width:0.72px;"/>
    </g>
    <g transform="matrix(1.33333,0,0,1.33333,-87.3978,10.3368)">
        <path d="M249.6,390.48L248.4,391.68L246.72,392.64L245.04,393.36L243.36,393.84L241.44,394.08L240.24,394.08L239.04,393.84L238.08,393.6L236.88,393.12L235.92,392.64L234.96,391.92L234.24,391.44L232.56,389.76L231.12,386.88L230.64,385.68L230.4,384.72L230.4,381.6L230.64,380.4L230.88,379.44L231.36,378.24L231.84,377.28L233.28,375.36" style="fill:none;fill-rule:nonzero;stroke:black;stroke-width:0.48px;"/>
    </g>
    <g transform="matrix(0.923376,-0.96185,-0.96185,-0.923376,374.921,1118.4)">
        <path d="M242.229,375.181L250.547,375.181L243.157,379.066L244.3,376.836L242.229,375.181Z" style="stroke:black;stroke-width:0.48px;"/>
    </g>
    <g transform="matrix(1.33333,0,0,1.33333,-87.3978,70.4968)">
        <path d="M226.08,353.28L226.08,356.16L225.84,357.84L225.36,359.52L224.64,361.2L223.92,362.64L222.96,364.08L222,365.28L219.6,367.68L218.16,368.64L215.28,370.08L213.6,370.56L210.24,371.04L209.76,371.04L205.92,370.56L204.24,370.08L202.8,369.36L201.12,368.64L199.68,367.68L197.28,365.28L196.08,363.84L195.12,362.4L194.4,360.96L193.44,357.6L193.2,356.4L193.2,355.68" style="fill:none;fill-rule:nonzero;stroke:black;stroke-width:0.48px;"/>
    </g>
    <g transform="matrix(-0.268871,-1.30594,-1.30594,0.268871,753.48,743.089)">
        <path d="M221.312,365.785L229.644,365.785L222.37,369.732L223.345,367.326L221.312,365.785Z" style="stroke:black;stroke-width:0.48px;"/>
    </g>
    <g transform="matrix(0.658927,1.15913,1.15913,-0.658927,-202.64,519.383)">
        <path d="M282.995,268.105L296.855,268.105" style="fill:none;fill-rule:nonzero;stroke:black;stroke-width:0.72px;"/>
    </g>
    <g transform="matrix(-0.673906,1.15049,1.15049,0.673906,212.339,142.963)">
        <path d="M300.418,270.56L308.392,270.56" style="fill:none;fill-rule:nonzero;stroke:black;stroke-width:0.72px;"/>
    </g>
    <g transform="matrix(-1.3333,-0.00870129,-0.00870129,1.3333,705.538,308.004)">
        <path d="M286.5,274.065L306.42,274.065" style="fill:none;fill-rule:nonzero;stroke:black;stroke-width:0.72px;"/>
    </g>
    <g transform="matrix(-0.00972196,1.3333,1.3333,0.00972196,-18.7554,309.553)">
        <path d="M291.475,246.96L301.075,246.96" style="fill:none;fill-rule:nonzero;stroke:black;stroke-width:0.72px;"/>
    </g>
    <g transform="matrix(1.33333,0,0,1.33333,-87.3978,327.777)">
        <path d="M171.84,265.68L187.2,265.68" style="fill:none;fill-rule:nonzero;stroke:black;stroke-width:0.72px;"/>
    </g>
    <g transform="matrix(1.33333,0,0,1.33333,-87.3978,318.817)">
        <path d="M176.16,269.04L187.2,269.04" style="fill:none;fill-rule:nonzero;stroke:black;stroke-width:0.72px;"/>
    </g>
    <g transform="matrix(1.33333,0,0,1.33333,-87.3978,336.737)">
        <path d="M171.84,262.32L187.2,262.32" style="fill:none;fill-rule:nonzero;stroke:black;stroke-width:0.72px;"/>
    </g>
    <g transform="matrix(1.33333,0,0,1.33333,-87.3978,327.777)">
        <path d="M187.2,265.68L207.12,265.68" style="fill:none;fill-rule:nonzero;stroke:black;stroke-width:0.48px;"/>
    </g>
    <g transform="matrix(0.666796,1.15463,1.15463,-0.666796,-246.868,620.024)">
        <path d="M203.656,259.68L217.514,259.68" style="fill:none;fill-rule:nonzero;stroke:black;stroke-width:0.48px;"/>
    </g>
    <g transform="matrix(1.33333,0,0,1.33333,-87.3978,-953.503)">
        <path d="M343.2,746.16L363.12,746.16" style="fill:none;fill-rule:nonzero;stroke:black;stroke-width:0.48px;"/>
    </g>
    <g transform="matrix(1.33333,0,0,1.33333,-87.3978,-959.903)">
        <path d="M343.2,748.56L363.12,748.56" style="fill:none;fill-rule:nonzero;stroke:black;stroke-width:0.48px;"/>
    </g>
    <g transform="matrix(1.33333,0,0,1.33333,-87.3978,-947.103)">
        <path d="M343.2,743.76L363.12,743.76" style="fill:none;fill-rule:nonzero;stroke:black;stroke-width:0.48px;"/>
    </g>
    <g transform="matrix(1.24724,0.471349,-0.471349,1.24724,-87.3978,-86.3032)">
        <text x="350.082px" y="370.42px" style="font-family:'ArialMT', 'Arial', sans-serif;font-size:10px;">:</text>
    </g>
    <g transform="matrix(0,1.33333,1.33333,0,-171.078,270.977)">
        <path d="M238.68,318.36L272.52,318.36" style="fill:none;fill-rule:nonzero;stroke:black;stroke-width:0.72px;"/>
    </g>
    <g transform="matrix(0,1.33333,1.33333,0,-167.238,267.137)">
        <path d="M241.56,318.36L275.4,318.36" style="fill:none;fill-rule:nonzero;stroke:black;stroke-width:0.72px;"/>
    </g>
    <g transform="matrix(1.33333,0,0,1.33333,-87.3978,230.817)">
        <path d="M260.64,298.08L257.04,306L253.44,298.08" style="fill:none;fill-rule:nonzero;stroke:black;stroke-width:0.72px;"/>
    </g>
</svg>
