<?xml version="1.0" encoding="UTF-8" standalone="no"?>
<!DOCTYPE svg PUBLIC "-//W3C//DTD SVG 1.1//EN" "http://www.w3.org/Graphics/SVG/1.1/DTD/svg11.dtd">
<svg width="100%" height="100%" viewBox="0 0 690 415" version="1.1" xmlns="http://www.w3.org/2000/svg" xmlns:xlink="http://www.w3.org/1999/xlink" xml:space="preserve" xmlns:serif="http://www.serif.com/" style="fill-rule:evenodd;clip-rule:evenodd;stroke-linecap:round;stroke-linejoin:round;stroke-miterlimit:10;">
    <g transform="matrix(1.33333,0,0,1.33333,-51.9712,-996.654)">
        <path d="M135.84,765.36L185.52,765.36" style="fill:none;fill-rule:nonzero;stroke:black;stroke-width:0.72px;"/>
    </g>
    <g transform="matrix(1.2958,0.314133,0.314133,-1.2958,-285.582,958.545)">
        <path d="M177.259,766.293L185.409,766.293L178.164,762.561L179.111,764.766L177.259,766.293Z" style="stroke:black;stroke-width:0.72px;"/>
    </g>
    <g transform="matrix(1.33333,0,0,1.33333,-51.9712,-78.2542)">
        <text x="216.72px" y="83.52px" style="font-family:'ArialMT', 'Arial', sans-serif;font-size:10px;">C</text>
    </g>
    <g transform="matrix(1.33333,0,0,1.33333,-51.9712,-78.2542)">
        <text x="205.2px" y="83.52px" style="font-family:'ArialMT', 'Arial', sans-serif;font-size:10px;">H</text>
        <text x="212.4px" y="86.16px" style="font-family:'ArialMT', 'Arial', sans-serif;font-size:8px;">3</text>
    </g>
    <g transform="matrix(1.33333,0,0,1.33333,-51.9712,-78.2542)">
        <text x="319.92px" y="103.44px" style="font-family:'ArialMT', 'Arial', sans-serif;font-size:10px;">O<tspan x="327.84px " y="103.44px ">H</tspan></text>
    </g>
    <g transform="matrix(1.33333,0,0,1.33333,-51.9712,-78.2542)">
        <text x="431.04px" y="83.52px" style="font-family:'ArialMT', 'Arial', sans-serif;font-size:10px;">C</text>
    </g>
    <g transform="matrix(1.33333,0,0,1.33333,-51.9712,-78.2542)">
        <text x="419.52px" y="83.52px" style="font-family:'ArialMT', 'Arial', sans-serif;font-size:10px;">H</text>
        <text x="426.72px" y="86.16px" style="font-family:'ArialMT', 'Arial', sans-serif;font-size:8px;">3</text>
    </g>
    <g transform="matrix(1.33333,0,0,1.33333,-51.9712,-78.2542)">
        <text x="539.52px" y="75.36px" style="font-family:'ArialMT', 'Arial', sans-serif;font-size:10px;">O<tspan x="547.44px " y="75.36px ">H</tspan></text>
    </g>
    <g transform="matrix(1.33333,0,0,1.33333,-51.9712,-78.2542)">
        <text x="434.4px" y="196.8px" style="font-family:'ArialMT', 'Arial', sans-serif;font-size:10px;">C</text>
    </g>
    <g transform="matrix(1.33333,0,0,1.33333,-51.9712,-78.2542)">
        <text x="422.88px" y="196.8px" style="font-family:'ArialMT', 'Arial', sans-serif;font-size:10px;">H</text>
        <text x="430.08px" y="199.44px" style="font-family:'ArialMT', 'Arial', sans-serif;font-size:8px;">3</text>
    </g>
    <g transform="matrix(1.33333,0,0,1.33333,-51.9712,-78.2542)">
        <text x="543.12px" y="186.96px" style="font-family:'ArialMT', 'Arial', sans-serif;font-size:10px;">Br</text>
    </g>
    <g transform="matrix(1.33333,0,0,1.33333,-51.9712,-78.2542)">
        <text x="108px" y="197.28px" style="font-family:'ArialMT', 'Arial', sans-serif;font-size:10px;">C</text>
    </g>
    <g transform="matrix(1.33333,0,0,1.33333,-51.9712,-78.2542)">
        <text x="96.48px" y="197.28px" style="font-family:'ArialMT', 'Arial', sans-serif;font-size:10px;">H</text>
        <text x="103.68px" y="199.92px" style="font-family:'ArialMT', 'Arial', sans-serif;font-size:8px;">3</text>
    </g>
    <g transform="matrix(1.33333,0,0,1.33333,-51.9712,-78.2542)">
        <text x="125.04px" y="227.28px" style="font-family:'ArialMT', 'Arial', sans-serif;font-size:10px;">O</text>
    </g>
    <g transform="matrix(1.33333,0,0,1.33333,-51.9712,-78.2542)">
        <text x="159.36px" y="227.28px" style="font-family:'ArialMT', 'Arial', sans-serif;font-size:10px;">O</text>
        <text x="167.28px" y="227.28px" style="font-family:'ArialMT', 'Arial', sans-serif;font-size:10px;">Et</text>
    </g>
    <g transform="matrix(1.33333,0,0,1.33333,-51.9712,-78.2542)">
        <text x="251.28px" y="188.88px" style="font-family:'ArialMT', 'Arial', sans-serif;font-size:10px;">CH</text>
        <text x="265.68px" y="191.52px" style="font-family:'ArialMT', 'Arial', sans-serif;font-size:8px;">3</text>
    </g>
    <g transform="matrix(1.33333,0,0,1.33333,-51.9712,-78.2542)">
        <text x="124.8px" y="167.52px" style="font-family:'ArialMT', 'Arial', sans-serif;font-size:10px;">O</text>
    </g>
    <g transform="matrix(1.33333,0,0,1.33333,-51.9712,-78.2542)">
        <text x="146.16px" y="344.16px" style="font-family:'ArialMT', 'Arial', sans-serif;font-size:10px;">O</text>
    </g>
    <g transform="matrix(1.33333,0,0,1.33333,-51.9712,-78.2542)">
        <text x="113.76px" y="344.4px" style="font-family:'ArialMT', 'Arial', sans-serif;font-size:10px;">O</text>
    </g>
    <g transform="matrix(1.33333,0,0,1.33333,-51.9712,-78.2542)">
        <text x="112.56px" y="365.28px" style="font-family:'ArialMT', 'Arial', sans-serif;font-size:10px;">C</text>
    </g>
    <g transform="matrix(1.33333,0,0,1.33333,-51.9712,-78.2542)">
        <text x="101.04px" y="365.28px" style="font-family:'ArialMT', 'Arial', sans-serif;font-size:10px;">H</text>
        <text x="108.24px" y="367.92px" style="font-family:'ArialMT', 'Arial', sans-serif;font-size:8px;">3</text>
    </g>
    <g transform="matrix(1.33333,0,0,1.33333,-51.9712,-78.2542)">
        <text x="257.04px" y="354.48px" style="font-family:'ArialMT', 'Arial', sans-serif;font-size:10px;">CH</text>
        <text x="271.44px" y="357.12px" style="font-family:'ArialMT', 'Arial', sans-serif;font-size:8px;">3</text>
    </g>
    <g transform="matrix(1.33333,0,0,1.33333,-51.9712,-78.2542)">
        <text x="157.92px" y="106.32px" style="font-family:'ArialMT', 'Arial', sans-serif;font-size:10px;">O</text>
    </g>
    <g transform="matrix(1.33333,0,0,1.33333,-51.9712,-78.2542)">
        <text x="317.04px" y="178.08px" style="font-family:'ArialMT', 'Arial', sans-serif;font-size:10px;">C</text>
    </g>
    <g transform="matrix(1.33333,0,0,1.33333,-51.9712,-78.2542)">
        <text x="305.52px" y="178.08px" style="font-family:'ArialMT', 'Arial', sans-serif;font-size:10px;">H</text>
        <text x="312.72px" y="180.72px" style="font-family:'ArialMT', 'Arial', sans-serif;font-size:8px;">3</text>
    </g>
    <g transform="matrix(1.33333,0,0,1.33333,-51.9712,-78.2542)">
        <text x="386.64px" y="178.08px" style="font-family:'ArialMT', 'Arial', sans-serif;font-size:10px;">O</text>
        <text x="394.56px" y="178.08px" style="font-family:'ArialMT', 'Arial', sans-serif;font-size:10px;">Et</text>
    </g>
    <g transform="matrix(1.33333,0,0,1.33333,-51.9712,-78.2542)">
        <text x="334.32px" y="147.84px" style="font-family:'ArialMT', 'Arial', sans-serif;font-size:10px;">O</text>
    </g>
    <g transform="matrix(1.33333,0,0,1.33333,-51.9712,-78.2542)">
        <text x="369.12px" y="147.84px" style="font-family:'ArialMT', 'Arial', sans-serif;font-size:10px;">O</text>
    </g>
    <g transform="matrix(1.33333,0,0,1.33333,-51.9712,-78.2542)">
        <text x="321.36px" y="292.8px" style="font-family:'ArialMT', 'Arial', sans-serif;font-size:10px;">Cl</text>
    </g>
    <g transform="matrix(1.33333,0,0,1.33333,-51.9712,-78.2542)">
        <text x="413.04px" y="302.88px" style="font-family:'ArialMT', 'Arial', sans-serif;font-size:10px;">O</text>
    </g>
    <g transform="matrix(1.33333,0,0,1.33333,-51.9712,-78.2542)">
        <text x="413.04px" y="323.04px" style="font-family:'ArialMT', 'Arial', sans-serif;font-size:10px;">O<tspan x="420.96px " y="323.04px ">H</tspan></text>
    </g>
    <g transform="matrix(1.33333,0,0,1.33333,-51.9712,-78.2542)">
        <text x="395.76px" y="272.64px" style="font-family:'ArialMT', 'Arial', sans-serif;font-size:10px;">O</text>
    </g>
    <g transform="matrix(1.33333,0,0,1.33333,-51.9712,-78.2542)">
        <text x="52.32px" y="83.76px" style="font-family:'ArialMT', 'Arial', sans-serif;font-size:10px;">C</text>
    </g>
    <g transform="matrix(1.33333,0,0,1.33333,-51.9712,-78.2542)">
        <text x="40.8px" y="83.76px" style="font-family:'ArialMT', 'Arial', sans-serif;font-size:10px;">H</text>
        <text x="48px" y="86.4px" style="font-family:'ArialMT', 'Arial', sans-serif;font-size:8px;">3</text>
    </g>
    <g transform="matrix(1.33333,0,0,1.33333,-51.9712,-78.2542)">
        <text x="103.92px" y="93.6px" style="font-family:'ArialMT', 'Arial', sans-serif;font-size:10px;">CH</text>
    </g>
    <g transform="matrix(1.33333,0,0,1.33333,-51.9712,-78.2542)">
        <text x="137.28px" y="68.64px" style="font-family:'ArialMT', 'Arial', sans-serif;font-size:10px;">1) NaNH</text>
        <text x="176.188px" y="71.28px" style="font-family:'ArialMT', 'Arial', sans-serif;font-size:6px;">2</text>
    </g>
    <g transform="matrix(1.33333,0,0,1.33333,-51.9712,-78.2542)">
        <text x="137.04px" y="98.4px" style="font-family:'ArialMT', 'Arial', sans-serif;font-size:10px;">2)</text>
    </g>
    <g transform="matrix(1.33333,0,0,1.33333,-51.9712,-78.2542)">
        <text x="375.12px" y="68.88px" style="font-family:'ArialMT', 'Arial', sans-serif;font-size:10px;">H</text>
        <text x="382.32px" y="71.52px" style="font-family:'ArialMT', 'Arial', sans-serif;font-size:6px;">2</text>
    </g>
    <g transform="matrix(1.33333,0,0,1.33333,-51.9712,-78.2542)">
        <text x="356.4px" y="91.68px" style="font-family:'ArialMT', 'Arial', sans-serif;font-size:10px;">Pd/<tspan x="371.543px 374.53px " y="91.68px 91.68px "> B</tspan>aS<tspan x="393.564px " y="91.68px ">O</tspan></text>
        <text x="401.387px" y="94.32px" style="font-family:'ArialMT', 'Arial', sans-serif;font-size:6px;">4</text>
    </g>
    <g transform="matrix(1.33333,0,0,1.33333,-51.9712,-78.2542)">
        <text x="369.12px" y="105.36px" style="font-family:'ArialMT', 'Arial', sans-serif;font-size:10px;">PbO</text>
    </g>
    <g transform="matrix(1.33333,0,0,1.33333,-51.9712,-78.2542)">
        <text x="454.8px" y="134.64px" style="font-family:'ArialMT', 'Arial', sans-serif;font-size:10px;">CBr</text>
        <text x="472.074px" y="137.28px" style="font-family:'ArialMT', 'Arial', sans-serif;font-size:6px;">4</text>
        <text x="489.6px" y="134.64px" style="font-family:'ArialMT', 'Arial', sans-serif;font-size:10px;"><tspan x="489.6px " y="134.64px ">P</tspan>Ph</text>
        <text x="508.554px" y="137.28px" style="font-family:'ArialMT', 'Arial', sans-serif;font-size:6px;">3</text>
    </g>
    <g transform="matrix(1.33333,0,0,1.33333,-51.9712,-78.2542)">
        <text x="341.52px" y="205.2px" style="font-family:'ArialMT', 'Arial', sans-serif;font-size:10px;">NaOE<tspan x="368.88px " y="205.2px ">t</tspan></text>
    </g>
    <g transform="matrix(1.33333,0,0,1.33333,-51.9712,-78.2542)">
        <text x="125.76px" y="277.44px" style="font-family:'ArialMT', 'Arial', sans-serif;font-size:10px;">1) <tspan x="137.674px " y="277.44px ">N</tspan>aO<tspan x="158.362px " y="277.44px ">H</tspan></text>
        <text x="182.88px" y="276.96px" style="font-family:'ArialMT', 'Arial', sans-serif;font-size:10px;">2) <tspan x="194.794px " y="276.96px ">H</tspan>OC<tspan x="217.142px " y="276.96px ">H</tspan></text>
        <text x="224.406px" y="279.6px" style="font-family:'ArialMT', 'Arial', sans-serif;font-size:6px;">2</text>
        <text x="227.769px" y="276.96px" style="font-family:'ArialMT', 'Arial', sans-serif;font-size:10px;">CH</text>
        <text x="242.297px" y="279.6px" style="font-family:'ArialMT', 'Arial', sans-serif;font-size:6px;">2</text>
        <text x="245.659px" y="276.96px" style="font-family:'ArialMT', 'Arial', sans-serif;font-size:10px;">OH;<tspan x="263.564px 266.502px " y="276.96px 276.96px "> H</tspan></text>
        <text x="273.766px" y="271.92px" style="font-family:'ArialMT', 'Arial', sans-serif;font-size:6px;">+</text>
    </g>
    <g transform="matrix(1.33333,0,0,1.33333,-51.9712,-78.2542)">
        <text x="325.44px" y="317.76px" style="font-family:'ArialMT', 'Arial', sans-serif;font-size:10px;">1)</text>
    </g>
    <g transform="matrix(1.33333,0,0,1.33333,-51.9712,-78.2542)">
        <text x="328.08px" y="361.68px" style="font-family:'ArialMT', 'Arial', sans-serif;font-size:10px;">2)<tspan x="337.108px 340.022px " y="361.68px 361.68px "> H</tspan></text>
        <text x="347.312px" y="364.32px" style="font-family:'ArialMT', 'Arial', sans-serif;font-size:6px;">2</text>
        <text x="350.69px" y="361.68px" style="font-family:'ArialMT', 'Arial', sans-serif;font-size:10px;">O;<tspan x="361.383px 364.296px " y="361.68px 361.68px "> H</tspan></text>
        <text x="371.586px" y="356.64px" style="font-family:'ArialMT', 'Arial', sans-serif;font-size:6px;">+</text>
    </g>
    <g transform="matrix(1.33333,0,0,1.33333,-51.9712,-78.2542)">
        <text x="452.64px" y="340.32px" style="font-family:'ArialMT', 'Arial', sans-serif;font-size:10px;">T<tspan x="458.88px " y="340.32px ">M</tspan></text>
    </g>
    <g transform="matrix(-1.15485,0.666401,0.666401,1.15485,11.2077,-1022.19)">
        <path d="M223.897,768.59L238.583,768.59" style="fill:none;fill-rule:nonzero;stroke:black;stroke-width:0.72px;"/>
    </g>
    <g transform="matrix(-1.15468,-0.666702,-0.666702,1.15468,1072.19,-700.538)">
        <path d="M236.266,767.28L256.184,767.28" style="fill:none;fill-rule:nonzero;stroke:black;stroke-width:0.72px;"/>
    </g>
    <g transform="matrix(1.15468,0.666702,0.666702,-1.15468,-509.807,733.349)">
        <path d="M253.516,757.32L273.434,757.32" style="fill:none;fill-rule:nonzero;stroke:black;stroke-width:0.72px;"/>
    </g>
    <g transform="matrix(1.15468,0.666702,0.666702,-1.15468,-511.447,731.709)">
        <path d="M255.196,760.23L275.114,760.23" style="fill:none;fill-rule:nonzero;stroke:black;stroke-width:0.72px;"/>
    </g>
    <g transform="matrix(1.15468,0.666702,0.666702,-1.15468,-508.167,734.989)">
        <path d="M251.836,754.41L271.754,754.41" style="fill:none;fill-rule:nonzero;stroke:black;stroke-width:0.72px;"/>
    </g>
    <g transform="matrix(1.15468,0.666702,0.666702,-1.15468,-500.085,723.627)">
        <path d="M270.766,747.36L290.684,747.36" style="fill:none;fill-rule:nonzero;stroke:black;stroke-width:0.72px;"/>
    </g>
    <g transform="matrix(1.15468,-0.666702,-0.666702,-1.15468,499.53,1109.45)">
        <path d="M288.016,747.36L307.934,747.36" style="fill:none;fill-rule:nonzero;stroke:black;stroke-width:0.72px;"/>
    </g>
    <g transform="matrix(1.15495,0.666243,0.666243,-1.15495,-495.041,702.346)">
        <path d="M305.645,748.775L319.915,748.775" style="fill:none;fill-rule:nonzero;stroke:black;stroke-width:0.72px;"/>
    </g>
    <g transform="matrix(1.33333,0,0,1.33333,-51.9712,-997.294)">
        <path d="M352.32,765.6L405.6,765.6" style="fill:none;fill-rule:nonzero;stroke:black;stroke-width:0.72px;"/>
    </g>
    <g transform="matrix(1.2958,0.314133,0.314133,-1.2958,-277.397,889.402)">
        <path d="M397.339,766.533L405.489,766.533L398.244,762.801L399.191,765.006L397.339,766.533Z" style="stroke:black;stroke-width:0.72px;"/>
    </g>
    <g transform="matrix(-1.15485,0.666401,0.666401,1.15485,544.476,-1165.01)">
        <path d="M438.217,768.59L452.903,768.59" style="fill:none;fill-rule:nonzero;stroke:black;stroke-width:0.72px;"/>
    </g>
    <g transform="matrix(-1.15468,-0.666702,-0.666702,1.15468,1605.42,-557.651)">
        <path d="M450.586,767.28L470.504,767.28" style="fill:none;fill-rule:nonzero;stroke:black;stroke-width:0.72px;"/>
    </g>
    <g transform="matrix(1.33333,0.00357941,0.00357941,-1.33333,-54.6974,1042.58)">
        <path d="M469.17,762.27L491.52,762.27" style="fill:none;fill-rule:nonzero;stroke:black;stroke-width:0.72px;"/>
    </g>
    <g transform="matrix(1.33333,0.00357941,0.00357941,-1.33333,-54.7094,1042.58)">
        <path d="M469.18,765.63L491.53,765.63" style="fill:none;fill-rule:nonzero;stroke:black;stroke-width:0.72px;"/>
    </g>
    <g transform="matrix(-1.17593,0.628458,0.628458,1.17593,721.441,-1194.56)">
        <path d="M490.344,766.935L510.266,766.935" style="fill:none;fill-rule:nonzero;stroke:black;stroke-width:0.72px;"/>
    </g>
    <g transform="matrix(-1.13183,-0.704799,-0.704799,1.13183,1763.99,-480.143)">
        <path d="M507.585,766.365L527.505,766.365" style="fill:none;fill-rule:nonzero;stroke:black;stroke-width:0.72px;"/>
    </g>
    <g transform="matrix(1.17603,-0.628277,-0.628277,-1.17603,512.048,1258.47)">
        <path d="M525.16,764.455L539.4,764.455" style="fill:none;fill-rule:nonzero;stroke:black;stroke-width:0.72px;"/>
    </g>
    <g transform="matrix(0,1.33333,1.33333,0,-357.411,-544.334)">
        <path d="M455.88,710.28L506.52,710.28" style="fill:none;fill-rule:nonzero;stroke:black;stroke-width:0.72px;"/>
    </g>
    <g transform="matrix(-0.314133,1.2958,1.2958,0.314133,-151.913,-714.206)">
        <path d="M476.899,689.853L485.049,689.853L477.804,686.121L478.751,688.326L476.899,689.853Z" style="stroke:black;stroke-width:0.72px;"/>
    </g>
    <g transform="matrix(-1.15485,0.666401,0.666401,1.15485,628.326,-885.389)">
        <path d="M441.577,655.31L456.263,655.31" style="fill:none;fill-rule:nonzero;stroke:black;stroke-width:0.72px;"/>
    </g>
    <g transform="matrix(-1.15468,-0.666702,-0.666702,1.15468,1538.25,-273.568)">
        <path d="M453.946,654L473.864,654" style="fill:none;fill-rule:nonzero;stroke:black;stroke-width:0.72px;"/>
    </g>
    <g transform="matrix(1.33333,0.00357941,0.00357941,-1.33333,-54.2919,1042.57)">
        <path d="M472.53,648.99L494.88,648.99" style="fill:none;fill-rule:nonzero;stroke:black;stroke-width:0.72px;"/>
    </g>
    <g transform="matrix(1.33333,0.00357941,0.00357941,-1.33333,-54.3039,1042.57)">
        <path d="M472.54,652.35L494.89,652.35" style="fill:none;fill-rule:nonzero;stroke:black;stroke-width:0.72px;"/>
    </g>
    <g transform="matrix(-1.15468,0.666702,0.666702,1.15468,764.773,-918.394)">
        <path d="M493.546,653.94L513.464,653.94" style="fill:none;fill-rule:nonzero;stroke:black;stroke-width:0.72px;"/>
    </g>
    <g transform="matrix(-1.15468,-0.666702,-0.666702,1.15468,1679.66,-235.517)">
        <path d="M510.796,653.94L530.714,653.94" style="fill:none;fill-rule:nonzero;stroke:black;stroke-width:0.72px;"/>
    </g>
    <g transform="matrix(1.15464,-0.666766,-0.666766,-1.15464,478.93,1284.92)">
        <path d="M528.391,652.65L543.149,652.65" style="fill:none;fill-rule:nonzero;stroke:black;stroke-width:0.72px;"/>
    </g>
    <g transform="matrix(-1.33333,0,0,1.33333,885.309,-699.054)">
        <path d="M302.64,653.76L400.32,653.76" style="fill:none;fill-rule:nonzero;stroke:black;stroke-width:0.72px;"/>
    </g>
    <g transform="matrix(-1.2958,-0.314133,-0.314133,1.2958,959.489,-578.203)">
        <path d="M302.299,654.693L310.449,654.693L303.204,650.961L304.151,653.166L302.299,654.693Z" style="stroke:black;stroke-width:0.72px;"/>
    </g>
    <g transform="matrix(1.15468,0.666702,0.666702,-1.15468,-463.109,835.877)">
        <path d="M127.546,653.52L147.464,653.52" style="fill:none;fill-rule:nonzero;stroke:black;stroke-width:0.72px;"/>
    </g>
    <g transform="matrix(1.15449,-0.667037,-0.667037,-1.15449,388.978,1026.49)">
        <path d="M132.909,623.4L147.981,623.4" style="fill:none;fill-rule:nonzero;stroke:black;stroke-width:0.72px;"/>
    </g>
    <g transform="matrix(1.15446,-0.667088,-0.667088,-1.15446,391.128,1025.32)">
        <path d="M133.039,626.795L146.171,626.795" style="fill:none;fill-rule:nonzero;stroke:black;stroke-width:0.72px;"/>
    </g>
    <g transform="matrix(1.15485,-0.666401,-0.666401,-1.15485,406.276,1009.08)">
        <path d="M115.177,654.83L129.863,654.83" style="fill:none;fill-rule:nonzero;stroke:black;stroke-width:0.72px;"/>
    </g>
    <g transform="matrix(1.15468,0.666702,0.666702,-1.15468,-456.945,812.876)">
        <path d="M162.046,653.52L181.964,653.52" style="fill:none;fill-rule:nonzero;stroke:black;stroke-width:0.72px;"/>
    </g>
    <g transform="matrix(1.15468,-0.666702,-0.666702,-1.15468,411.38,1030.73)">
        <path d="M144.796,653.52L164.714,653.52" style="fill:none;fill-rule:nonzero;stroke:black;stroke-width:0.72px;"/>
    </g>
    <g transform="matrix(1.15487,0.666378,0.666378,-1.15487,-441.337,831.284)">
        <path d="M145.182,625.08L159.348,625.08" style="fill:none;fill-rule:nonzero;stroke:black;stroke-width:0.72px;"/>
    </g>
    <g transform="matrix(0,-1.33333,-1.33333,0,994.309,387.706)">
        <path d="M136.17,638.58L156.09,638.58" style="fill:none;fill-rule:nonzero;stroke:black;stroke-width:0.72px;"/>
    </g>
    <g transform="matrix(1.15468,-0.666702,-0.666702,-1.15468,417.543,1053.73)">
        <path d="M179.296,653.52L199.214,653.52" style="fill:none;fill-rule:nonzero;stroke:black;stroke-width:0.72px;"/>
    </g>
    <g transform="matrix(1.33284,-0.0363501,-0.0363501,-1.33284,-27.9219,1051.53)">
        <path d="M197.876,658.77L217.684,658.77" style="fill:none;fill-rule:nonzero;stroke:black;stroke-width:0.72px;"/>
    </g>
    <g transform="matrix(1.33284,-0.0363685,-0.0363685,-1.33284,-28.0318,1051.54)">
        <path d="M197.976,655.41L217.774,655.41" style="fill:none;fill-rule:nonzero;stroke:black;stroke-width:0.72px;"/>
    </g>
    <g transform="matrix(1.14818,0.67784,0.67784,-1.14818,-452.56,769.066)">
        <path d="M216.074,653.16L239.206,653.16" style="fill:none;fill-rule:nonzero;stroke:black;stroke-width:0.72px;"/>
    </g>
    <g transform="matrix(1.16112,-0.655414,-0.655414,-1.16112,416.631,1092.12)">
        <path d="M236.657,650.87L251.263,650.87" style="fill:none;fill-rule:nonzero;stroke:black;stroke-width:0.72px;"/>
    </g>
    <g transform="matrix(0,-1.33333,-1.33333,0,1009.91,330.586)">
        <path d="M123.21,665.85L137.91,665.85" style="fill:none;fill-rule:nonzero;stroke:black;stroke-width:0.72px;"/>
    </g>
    <g transform="matrix(0,-1.33333,-1.33333,0,1005.43,326.106)">
        <path d="M119.85,665.85L134.55,665.85" style="fill:none;fill-rule:nonzero;stroke:black;stroke-width:0.72px;"/>
    </g>
    <g transform="matrix(0,1.33333,1.33333,0,-574.371,57.9058)">
        <path d="M147.24,565.8L200.76,565.8" style="fill:none;fill-rule:nonzero;stroke:black;stroke-width:0.72px;"/>
    </g>
    <g transform="matrix(-0.314133,1.2958,1.2958,0.314133,-468.931,-75.7378)">
        <path d="M169.699,543.933L177.849,543.933L170.604,540.201L171.551,542.406L169.699,543.933Z" style="stroke:black;stroke-width:0.72px;"/>
    </g>
    <g transform="matrix(1.07297,-0.791522,-0.791522,-1.07297,375.383,1026.2)">
        <path d="M132.675,493.99L146.555,493.99" style="fill:none;fill-rule:nonzero;stroke:black;stroke-width:0.72px;"/>
    </g>
    <g transform="matrix(0.421637,1.26491,1.26491,-0.421637,-568.642,391.189)">
        <path d="M138.829,513.735L153.281,513.735" style="fill:none;fill-rule:nonzero;stroke:black;stroke-width:0.72px;"/>
    </g>
    <g transform="matrix(1.08433,0.775885,0.775885,-1.08433,-403.26,821.741)">
        <path d="M121.332,493.945L135.338,493.945" style="fill:none;fill-rule:nonzero;stroke:black;stroke-width:0.72px;"/>
    </g>
    <g transform="matrix(1.3333,-0.00937059,-0.00937059,-1.3333,-47.0892,1045.54)">
        <path d="M123.85,520.52L143.77,520.52" style="fill:none;fill-rule:nonzero;stroke:black;stroke-width:0.72px;"/>
    </g>
    <g transform="matrix(-0.403094,1.27094,1.27094,0.403094,-493.403,-2.05045)">
        <path d="M114.416,513.545L128.904,513.545" style="fill:none;fill-rule:nonzero;stroke:black;stroke-width:0.72px;"/>
    </g>
    <g transform="matrix(-1.18336,0.614353,0.614353,1.18336,-30.2375,-258.106)">
        <path d="M119.877,486.415L134.873,486.415" style="fill:none;fill-rule:nonzero;stroke:black;stroke-width:0.72px;"/>
    </g>
    <g transform="matrix(1.1923,0.59682,0.59682,-1.1923,-321.515,890.538)">
        <path d="M132.976,485.41L152.904,485.41" style="fill:none;fill-rule:nonzero;stroke:black;stroke-width:0.72px;"/>
    </g>
    <g transform="matrix(1.11279,-0.734494,-0.734494,-1.11279,340.635,1054.66)">
        <path d="M150.203,486.435L170.117,486.435" style="fill:none;fill-rule:nonzero;stroke:black;stroke-width:0.72px;"/>
    </g>
    <g transform="matrix(-1.11299,0.734186,0.734186,1.11299,65.4496,-293.588)">
        <path d="M184.644,488.495L204.566,488.495" style="fill:none;fill-rule:nonzero;stroke:black;stroke-width:0.72px;"/>
    </g>
    <g transform="matrix(1.19257,0.596285,0.596285,-1.19257,-317.67,869.919)">
        <path d="M167.418,487.465L187.342,487.465" style="fill:none;fill-rule:nonzero;stroke:black;stroke-width:0.72px;"/>
    </g>
    <g transform="matrix(1.33333,0.00325202,0.00325202,-1.33333,-53.5767,1043.6)">
        <path d="M202.92,493.95L227.52,493.95" style="fill:none;fill-rule:nonzero;stroke:black;stroke-width:0.72px;"/>
    </g>
    <g transform="matrix(1.33333,0.00325202,0.00325202,-1.33333,-53.5658,1043.6)">
        <path d="M202.91,490.59L227.51,490.59" style="fill:none;fill-rule:nonzero;stroke:black;stroke-width:0.72px;"/>
    </g>
    <g transform="matrix(1.08498,0.774984,0.774984,-1.08498,-372.183,740.796)">
        <path d="M225.789,488.52L244.371,488.52" style="fill:none;fill-rule:nonzero;stroke:black;stroke-width:0.72px;"/>
    </g>
    <g transform="matrix(1.21379,-0.551805,-0.551805,-1.21379,246.112,1123.79)">
        <path d="M241.978,486.175L256.742,486.175" style="fill:none;fill-rule:nonzero;stroke:black;stroke-width:0.72px;"/>
    </g>
    <g transform="matrix(1.33333,0,0,1.33333,-51.9712,-304.814)">
        <path d="M323.28,505.92L435.12,505.92" style="fill:none;fill-rule:nonzero;stroke:black;stroke-width:0.72px;"/>
    </g>
    <g transform="matrix(1.2958,0.314133,0.314133,-1.2958,-194.715,889.875)">
        <path d="M426.859,506.853L435.009,506.853L427.764,503.121L428.711,505.326L426.859,506.853Z" style="stroke:black;stroke-width:0.72px;"/>
    </g>
    <g transform="matrix(0.666351,1.15488,1.15488,-0.666351,-815.459,363.914)">
        <path d="M148.357,750.89L162.603,750.89" style="fill:none;fill-rule:nonzero;stroke:black;stroke-width:0.96px;"/>
    </g>
    <g transform="matrix(-0.667864,1.15401,1.15401,0.667864,-581.241,-652.832)">
        <path d="M161.408,750.88L175.642,750.88" style="fill:none;fill-rule:nonzero;stroke:black;stroke-width:0.96px;"/>
    </g>
    <g transform="matrix(-1.33333,-0.00132209,-0.00132209,1.33333,381.043,-974.28)">
        <path d="M151.92,757.05L172.09,757.05" style="fill:none;fill-rule:nonzero;stroke:black;stroke-width:0.96px;"/>
    </g>
    <g transform="matrix(-1.15469,0.666681,0.666681,1.15469,323.865,-854.082)">
        <path d="M324.195,674.13L339.195,674.13" style="fill:none;fill-rule:nonzero;stroke:black;stroke-width:0.96px;"/>
    </g>
    <g transform="matrix(-1.15472,-0.66664,-0.66664,1.15472,1259.72,-398.482)">
        <path d="M336.84,672.84L357,672.84" style="fill:none;fill-rule:nonzero;stroke:black;stroke-width:0.96px;"/>
    </g>
    <g transform="matrix(-1.15472,0.66664,0.66664,1.15472,406.082,-872.664)">
        <path d="M354.3,672.84L374.46,672.84" style="fill:none;fill-rule:nonzero;stroke:black;stroke-width:0.96px;"/>
    </g>
    <g transform="matrix(1.15459,0.666853,0.666853,-1.15459,-433.784,670.789)">
        <path d="M372.137,674.25L386.653,674.25" style="fill:none;fill-rule:nonzero;stroke:black;stroke-width:0.96px;"/>
    </g>
    <g transform="matrix(0,-1.33333,-1.33333,0,1315.03,583.626)">
        <path d="M332.37,685.38L347.37,685.38" style="fill:none;fill-rule:nonzero;stroke:black;stroke-width:0.96px;"/>
    </g>
    <g transform="matrix(0,-1.33333,-1.33333,0,1310.55,579.146)">
        <path d="M329.01,685.38L344.01,685.38" style="fill:none;fill-rule:nonzero;stroke:black;stroke-width:0.96px;"/>
    </g>
    <g transform="matrix(0,-1.33333,-1.33333,0,1361.59,630.186)">
        <path d="M367.29,685.38L382.29,685.38" style="fill:none;fill-rule:nonzero;stroke:black;stroke-width:0.96px;"/>
    </g>
    <g transform="matrix(0,-1.33333,-1.33333,0,1357.11,625.706)">
        <path d="M363.93,685.38L378.93,685.38" style="fill:none;fill-rule:nonzero;stroke:black;stroke-width:0.96px;"/>
    </g>
    <g transform="matrix(0,-1.33333,-1.33333,0,1168.14,843.292)">
        <path d="M372.08,532.92L392.24,532.92" style="fill:none;fill-rule:nonzero;stroke:black;stroke-width:0.96px;"/>
    </g>
    <g transform="matrix(1.15472,0.66664,0.66664,-1.15472,-350.616,697.473)">
        <path d="M363.35,548.04L383.51,548.04" style="fill:none;fill-rule:nonzero;stroke:black;stroke-width:0.96px;"/>
    </g>
    <g transform="matrix(1.15474,0.666602,0.666602,-1.15474,-348.964,699.142)">
        <path d="M363.564,545.13L379.926,545.13" style="fill:none;fill-rule:nonzero;stroke:black;stroke-width:0.96px;"/>
    </g>
    <g transform="matrix(1.15472,-0.66664,-0.66664,-1.15472,359.916,1200.76)">
        <path d="M363.35,517.8L383.51,517.8" style="fill:none;fill-rule:nonzero;stroke:black;stroke-width:0.96px;"/>
    </g>
    <g transform="matrix(1.15474,-0.666602,-0.666602,-1.15474,361.527,1199.12)">
        <path d="M363.564,520.71L379.926,520.71" style="fill:none;fill-rule:nonzero;stroke:black;stroke-width:0.96px;"/>
    </g>
    <g transform="matrix(1.15472,-0.66664,-0.66664,-1.15472,376.957,1183.72)">
        <path d="M345.89,548.04L366.05,548.04" style="fill:none;fill-rule:nonzero;stroke:black;stroke-width:0.96px;"/>
    </g>
    <g transform="matrix(1.15472,0.66664,0.66664,-1.15472,-333.575,714.514)">
        <path d="M345.89,517.8L366.05,517.8" style="fill:none;fill-rule:nonzero;stroke:black;stroke-width:0.96px;"/>
    </g>
    <g transform="matrix(0,-1.33333,-1.33333,0,1121.58,796.732)">
        <path d="M337.16,532.92L357.32,532.92" style="fill:none;fill-rule:nonzero;stroke:black;stroke-width:0.96px;"/>
    </g>
    <g transform="matrix(0,-1.33333,-1.33333,0,1126.06,801.212)">
        <path d="M342.42,532.92L358.78,532.92" style="fill:none;fill-rule:nonzero;stroke:black;stroke-width:0.96px;"/>
    </g>
    <g transform="matrix(-1.15486,-0.666384,-0.666384,1.15486,1157.76,-91.4926)">
        <path d="M330.736,547.42L348.424,547.42" style="fill:none;fill-rule:nonzero;stroke:black;stroke-width:0.96px;"/>
    </g>
    <g transform="matrix(1.15455,-0.666927,-0.666927,-1.15455,383.415,1207.02)">
        <path d="M380.809,548.04L400.961,548.04" style="fill:none;fill-rule:nonzero;stroke:black;stroke-width:0.96px;"/>
    </g>
    <g transform="matrix(1.15468,0.666697,0.666697,-1.15468,-345.804,675.565)">
        <path d="M398.645,549.48L413.045,549.48" style="fill:none;fill-rule:nonzero;stroke:black;stroke-width:0.96px;"/>
    </g>
    <g transform="matrix(0,1.33333,1.33333,0,-206.438,-222.348)">
        <path d="M412.15,532.92L421.99,532.92" style="fill:none;fill-rule:nonzero;stroke:black;stroke-width:0.96px;"/>
    </g>
    <g transform="matrix(0,-1.33333,-1.33333,0,1230.52,831.919)">
        <path d="M393.79,560.58L408.79,560.58" style="fill:none;fill-rule:nonzero;stroke:black;stroke-width:0.96px;"/>
    </g>
    <g transform="matrix(0,-1.33333,-1.33333,0,1226.04,827.439)">
        <path d="M390.43,560.58L405.43,560.58" style="fill:none;fill-rule:nonzero;stroke:black;stroke-width:0.96px;"/>
    </g>
    <g transform="matrix(-1.15429,0.667369,0.667369,1.15429,-398.572,-912.096)">
        <path d="M59.493,768.52L74.197,768.52" style="fill:none;fill-rule:nonzero;stroke:black;stroke-width:0.48px;"/>
    </g>
    <g transform="matrix(-1.15543,-0.665408,-0.665408,1.15543,662.23,-810.688)">
        <path d="M71.881,767.23L91.799,767.23" style="fill:none;fill-rule:nonzero;stroke:black;stroke-width:0.48px;"/>
    </g>
    <g transform="matrix(1.15515,0.665896,0.665896,-1.15515,-539.927,844.719)">
        <path d="M89.507,758.66L103.923,758.66" style="fill:none;fill-rule:nonzero;stroke:black;stroke-width:0.48px;"/>
    </g>
    <g transform="matrix(1.15523,0.665744,0.665744,-1.15523,-541.112,843.752)">
        <path d="M90.74,760.865L104.66,760.865" style="fill:none;fill-rule:nonzero;stroke:black;stroke-width:0.48px;"/>
    </g>
    <g transform="matrix(1.15511,0.665956,0.665956,-1.15511,-538.452,845.511)">
        <path d="M88.212,756.225L104.048,756.225" style="fill:none;fill-rule:nonzero;stroke:black;stroke-width:0.48px;"/>
    </g>
</svg>
