<?xml version="1.0" encoding="UTF-8" standalone="no"?>
<!DOCTYPE svg PUBLIC "-//W3C//DTD SVG 1.1//EN" "http://www.w3.org/Graphics/SVG/1.1/DTD/svg11.dtd">
<svg width="100%" height="100%" viewBox="0 0 525 515" version="1.1" xmlns="http://www.w3.org/2000/svg" xmlns:xlink="http://www.w3.org/1999/xlink" xml:space="preserve" xmlns:serif="http://www.serif.com/" style="fill-rule:evenodd;clip-rule:evenodd;stroke-linecap:round;stroke-linejoin:round;stroke-miterlimit:10;">
    <g transform="matrix(1.33333,0,0,1.33333,-102.304,-70.4465)">
        <text x="117.36px" y="62.64px" style="font-family:'ArialMT', 'Arial', sans-serif;font-size:10px;">C</text>
    </g>
    <g transform="matrix(1.33333,0,0,1.33333,-102.304,-70.4465)">
        <text x="105.84px" y="62.64px" style="font-family:'ArialMT', 'Arial', sans-serif;font-size:10px;">H</text>
        <text x="113.04px" y="65.28px" style="font-family:'ArialMT', 'Arial', sans-serif;font-size:8px;">3</text>
    </g>
    <g transform="matrix(1.33333,0,0,1.33333,-102.304,-70.4465)">
        <text x="154.32px" y="72px" style="font-family:'ArialMT', 'Arial', sans-serif;font-size:10px;">CH</text>
        <text x="168.72px" y="74.64px" style="font-family:'ArialMT', 'Arial', sans-serif;font-size:8px;">3</text>
    </g>
    <g transform="matrix(1.33333,0,0,1.33333,-102.304,-70.4465)">
        <text x="110.88px" y="151.44px" style="font-family:'ArialMT', 'Arial', sans-serif;font-size:10px;">O</text>
    </g>
    <g transform="matrix(1.33333,0,0,1.33333,-102.304,-70.4465)">
        <text x="153.12px" y="113.76px" style="font-family:'ArialMT', 'Arial', sans-serif;font-size:10px;">O</text>
    </g>
    <g transform="matrix(1.33333,0,0,1.33333,-102.304,-70.4465)">
        <text x="264.48px" y="63.12px" style="font-family:'ArialMT', 'Arial', sans-serif;font-size:10px;">C</text>
    </g>
    <g transform="matrix(1.33333,0,0,1.33333,-102.304,-70.4465)">
        <text x="252.96px" y="63.12px" style="font-family:'ArialMT', 'Arial', sans-serif;font-size:10px;">H</text>
        <text x="260.16px" y="65.76px" style="font-family:'ArialMT', 'Arial', sans-serif;font-size:8px;">3</text>
    </g>
    <g transform="matrix(1.33333,0,0,1.33333,-102.304,-70.4465)">
        <text x="301.44px" y="72.48px" style="font-family:'ArialMT', 'Arial', sans-serif;font-size:10px;">CH</text>
        <text x="315.84px" y="75.12px" style="font-family:'ArialMT', 'Arial', sans-serif;font-size:8px;">3</text>
    </g>
    <g transform="matrix(1.33333,0,0,1.33333,-102.304,-70.4465)">
        <text x="300.24px" y="114.24px" style="font-family:'ArialMT', 'Arial', sans-serif;font-size:10px;">O</text>
    </g>
    <g transform="matrix(1.33333,0,0,1.33333,-102.304,-70.4465)">
        <text x="239.04px" y="161.04px" style="font-family:'ArialMT', 'Arial', sans-serif;font-size:10px;">O</text>
    </g>
    <g transform="matrix(1.33333,0,0,1.33333,-102.304,-70.4465)">
        <text x="231.84px" y="161.04px" style="font-family:'ArialMT', 'Arial', sans-serif;font-size:10px;">H</text>
    </g>
    <g transform="matrix(1.33333,0,0,1.33333,-102.304,-70.4465)">
        <text x="412.32px" y="62.64px" style="font-family:'ArialMT', 'Arial', sans-serif;font-size:10px;">C</text>
    </g>
    <g transform="matrix(1.33333,0,0,1.33333,-102.304,-70.4465)">
        <text x="400.8px" y="62.64px" style="font-family:'ArialMT', 'Arial', sans-serif;font-size:10px;">H</text>
        <text x="408px" y="65.28px" style="font-family:'ArialMT', 'Arial', sans-serif;font-size:8px;">3</text>
    </g>
    <g transform="matrix(1.33333,0,0,1.33333,-102.304,-70.4465)">
        <text x="449.28px" y="72px" style="font-family:'ArialMT', 'Arial', sans-serif;font-size:10px;">CH</text>
        <text x="463.68px" y="74.64px" style="font-family:'ArialMT', 'Arial', sans-serif;font-size:8px;">3</text>
    </g>
    <g transform="matrix(1.33333,0,0,1.33333,-102.304,-70.4465)">
        <text x="448.08px" y="113.76px" style="font-family:'ArialMT', 'Arial', sans-serif;font-size:10px;">O</text>
    </g>
    <g transform="matrix(1.33333,0,0,1.33333,-102.304,-70.4465)">
        <text x="387.12px" y="160.56px" style="font-family:'ArialMT', 'Arial', sans-serif;font-size:10px;">H</text>
    </g>
    <g transform="matrix(1.33333,0,0,1.33333,-102.304,-70.4465)">
        <text x="422.88px" y="163.2px" style="font-family:'ArialMT', 'Arial', sans-serif;font-size:10px;">O</text>
    </g>
    <g transform="matrix(1.33333,0,0,1.33333,-102.304,-70.4465)">
        <text x="332.88px" y="245.52px" style="font-family:'ArialMT', 'Arial', sans-serif;font-size:10px;">C</text>
    </g>
    <g transform="matrix(1.33333,0,0,1.33333,-102.304,-70.4465)">
        <text x="321.36px" y="245.52px" style="font-family:'ArialMT', 'Arial', sans-serif;font-size:10px;">H</text>
        <text x="328.56px" y="248.16px" style="font-family:'ArialMT', 'Arial', sans-serif;font-size:8px;">3</text>
    </g>
    <g transform="matrix(1.33333,0,0,1.33333,-102.304,-70.4465)">
        <text x="369.84px" y="254.88px" style="font-family:'ArialMT', 'Arial', sans-serif;font-size:10px;">CH</text>
        <text x="384.24px" y="257.52px" style="font-family:'ArialMT', 'Arial', sans-serif;font-size:8px;">3</text>
    </g>
    <g transform="matrix(1.33333,0,0,1.33333,-102.304,-70.4465)">
        <text x="368.64px" y="296.64px" style="font-family:'ArialMT', 'Arial', sans-serif;font-size:10px;">O</text>
    </g>
    <g transform="matrix(1.33333,0,0,1.33333,-102.304,-70.4465)">
        <text x="196.08px" y="245.52px" style="font-family:'ArialMT', 'Arial', sans-serif;font-size:10px;">C</text>
    </g>
    <g transform="matrix(1.33333,0,0,1.33333,-102.304,-70.4465)">
        <text x="184.56px" y="245.52px" style="font-family:'ArialMT', 'Arial', sans-serif;font-size:10px;">H</text>
        <text x="191.76px" y="248.16px" style="font-family:'ArialMT', 'Arial', sans-serif;font-size:8px;">3</text>
    </g>
    <g transform="matrix(1.33333,0,0,1.33333,-102.304,-70.4465)">
        <text x="233.04px" y="254.88px" style="font-family:'ArialMT', 'Arial', sans-serif;font-size:10px;">CH</text>
        <text x="247.44px" y="257.52px" style="font-family:'ArialMT', 'Arial', sans-serif;font-size:8px;">3</text>
    </g>
    <g transform="matrix(1.33333,0,0,1.33333,-102.304,-70.4465)">
        <text x="231.84px" y="296.64px" style="font-family:'ArialMT', 'Arial', sans-serif;font-size:10px;">O</text>
    </g>
    <g transform="matrix(1.33333,0,0,1.33333,-102.304,-70.4465)">
        <text x="198px" y="399.12px" style="font-family:'ArialMT', 'Arial', sans-serif;font-size:10px;">CH</text>
        <text x="212.4px" y="401.76px" style="font-family:'ArialMT', 'Arial', sans-serif;font-size:8px;">3</text>
    </g>
    <g transform="matrix(1.33333,0,0,1.33333,-102.304,-70.4465)">
        <text x="205.92px" y="427.44px" style="font-family:'ArialMT', 'Arial', sans-serif;font-size:10px;">CH</text>
        <text x="220.332px" y="430.08px" style="font-family:'ArialMT', 'Arial', sans-serif;font-size:8px;">3</text>
        <text x="233.52px" y="415.68px" style="font-family:'ArialMT', 'Arial', sans-serif;font-size:18px;"><tspan x="233.52px " y="415.68px ">+</tspan></text>
    </g>
    <g transform="matrix(1.33333,0,0,1.33333,-102.304,-70.4465)">
        <text x="255.36px" y="394.08px" style="font-family:'ArialMT', 'Arial', sans-serif;font-size:10px;">O</text>
    </g>
    <g transform="matrix(1.33333,0,0,1.33333,-102.304,-70.4465)">
        <text x="255.6px" y="414px" style="font-family:'ArialMT', 'Arial', sans-serif;font-size:10px;">C</text>
    </g>
    <g transform="matrix(1.33333,0,0,1.33333,-102.304,-70.4465)">
        <text x="255.36px" y="433.92px" style="font-family:'ArialMT', 'Arial', sans-serif;font-size:10px;">CH</text>
        <text x="269.76px" y="436.56px" style="font-family:'ArialMT', 'Arial', sans-serif;font-size:8px;">2</text>
    </g>
    <g transform="matrix(1.33333,0,0,1.33333,-102.304,-70.4465)">
        <text x="333.84px" y="401.52px" style="font-family:'ArialMT', 'Arial', sans-serif;font-size:10px;">Cl</text>
    </g>
    <g transform="matrix(1.33333,0,0,1.33333,-102.304,-70.4465)">
        <text x="355.44px" y="431.52px" style="font-family:'ArialMT', 'Arial', sans-serif;font-size:10px;">CH</text>
        <text x="369.84px" y="434.16px" style="font-family:'ArialMT', 'Arial', sans-serif;font-size:8px;">2</text>
    </g>
    <g transform="matrix(1.33333,0,0,1.33333,-102.304,-70.4465)">
        <text x="390.48px" y="392.16px" style="font-family:'ArialMT', 'Arial', sans-serif;font-size:10px;">N</text>
    </g>
    <g transform="matrix(-0.938153,0.947442,0.947442,0.938153,-596.267,-717.533)">
        <path d="M74.335,740.88L108.785,740.88" style="fill:none;fill-rule:nonzero;stroke:black;stroke-width:0.72px;"/>
    </g>
    <g transform="matrix(1.32118,-0.179579,-0.179579,-1.32118,29.9611,1059.73)">
        <path d="M79.326,730.32L104.274,730.32" style="fill:none;fill-rule:nonzero;stroke:black;stroke-width:0.72px;"/>
    </g>
    <g transform="matrix(0.785144,1.07765,1.07765,-0.785144,-821.636,536.601)">
        <path d="M99.887,723.6L120.673,723.6" style="fill:none;fill-rule:nonzero;stroke:black;stroke-width:0.72px;"/>
    </g>
    <g transform="matrix(0.942809,-0.942809,-0.942809,-0.942809,630.73,888.054)">
        <path d="M112.274,725.16L140.446,725.16" style="fill:none;fill-rule:nonzero;stroke:black;stroke-width:0.72px;"/>
    </g>
    <g transform="matrix(0.643201,1.16793,1.16793,-0.643201,-880.303,385.161)">
        <path d="M121.554,743.845L141.476,743.845" style="fill:none;fill-rule:nonzero;stroke:black;stroke-width:0.72px;"/>
    </g>
    <g transform="matrix(-1.33295,-0.0318334,-0.0318334,1.33295,228.805,-951.52)">
        <path d="M103.677,752.845L126.713,752.845" style="fill:none;fill-rule:nonzero;stroke:black;stroke-width:0.72px;"/>
    </g>
    <g transform="matrix(0.692021,-1.13969,-1.13969,-0.692021,850.236,714.341)">
        <path d="M121.71,761.455L142.5,761.455" style="fill:none;fill-rule:nonzero;stroke:black;stroke-width:0.72px;"/>
    </g>
    <g transform="matrix(1.33333,0,0,1.33333,-102.304,-954.926)">
        <path d="M121.44,750.96L125.76,750.96L122.88,754.32L118.56,754.08" style="fill:white;"/>
    </g>
    <g transform="matrix(0.874918,-1.00613,-1.00613,-0.874918,708.861,829.336)">
        <path d="M95.426,751.17L146.234,751.17" style="fill:none;fill-rule:nonzero;stroke:black;stroke-width:0.72px;"/>
    </g>
    <g transform="matrix(-1.04218,-0.831653,-0.831653,1.04218,854.73,-679.821)">
        <path d="M123.847,775.12L139.173,775.12" style="fill:none;fill-rule:nonzero;stroke:black;stroke-width:0.72px;"/>
    </g>
    <g transform="matrix(1.31274,-0.233413,-0.233413,-1.31274,80.8272,1070.17)">
        <path d="M137.376,771.75L153.484,771.75" style="fill:none;fill-rule:nonzero;stroke:black;stroke-width:0.72px;"/>
    </g>
    <g transform="matrix(-0.103942,1.32928,1.32928,0.103942,-878.705,-116.399)">
        <path d="M106.226,707.465L122.004,707.465" style="fill:none;fill-rule:nonzero;stroke:black;stroke-width:0.72px;"/>
    </g>
    <g transform="matrix(-0.103116,1.32934,1.32934,0.103116,-873.853,-120.095)">
        <path d="M109.712,707.335L125.228,707.335" style="fill:none;fill-rule:nonzero;stroke:black;stroke-width:0.72px;"/>
    </g>
    <g transform="matrix(1.32001,0.187987,0.187987,-1.32001,-238.05,1015.27)">
        <path d="M135.999,732.315L152.241,732.315" style="fill:none;fill-rule:nonzero;stroke:black;stroke-width:0.72px;"/>
    </g>
    <g transform="matrix(1.32015,0.187022,0.187022,-1.32015,-237.988,1015.42)">
        <path d="M136.482,735.675L152.238,735.675" style="fill:none;fill-rule:nonzero;stroke:black;stroke-width:0.72px;"/>
    </g>
    <g transform="matrix(1.33333,0,0,1.33333,-102.304,-933.166)">
        <path d="M181.92,744.48L216,744.48" style="fill:none;fill-rule:nonzero;stroke:black;stroke-width:0.72px;"/>
    </g>
    <g transform="matrix(1.33333,0,0,1.33333,-102.304,-940.846)">
        <path d="M181.92,747.36L216,747.36" style="fill:none;fill-rule:nonzero;stroke:black;stroke-width:0.72px;"/>
    </g>
    <g transform="matrix(1.33333,0,0,1.33333,-102.304,-937.006)">
        <path d="M211.44,742.32L219.36,745.92L211.44,749.52" style="fill:none;fill-rule:nonzero;stroke:black;stroke-width:0.72px;"/>
    </g>
    <g transform="matrix(-0.938153,0.947442,0.947442,0.938153,-261.632,-855.831)">
        <path d="M221.455,740.4L255.905,740.4" style="fill:none;fill-rule:nonzero;stroke:black;stroke-width:0.72px;"/>
    </g>
    <g transform="matrix(1.32118,-0.179579,-0.179579,-1.32118,31.6622,1086.15)">
        <path d="M226.446,729.84L251.394,729.84" style="fill:none;fill-rule:nonzero;stroke:black;stroke-width:0.72px;"/>
    </g>
    <g transform="matrix(0.785144,1.07765,1.07765,-0.785144,-740.469,378.32)">
        <path d="M247.007,723.12L267.793,723.12" style="fill:none;fill-rule:nonzero;stroke:black;stroke-width:0.72px;"/>
    </g>
    <g transform="matrix(0.942809,-0.942809,-0.942809,-0.942809,687.731,1026.95)">
        <path d="M259.394,724.68L287.566,724.68" style="fill:none;fill-rule:nonzero;stroke:black;stroke-width:0.72px;"/>
    </g>
    <g transform="matrix(0.643201,1.16793,1.16793,-0.643201,-778.21,213.666)">
        <path d="M268.674,743.365L288.596,743.365" style="fill:none;fill-rule:nonzero;stroke:black;stroke-width:0.72px;"/>
    </g>
    <g transform="matrix(-1.33295,-0.0318334,-0.0318334,1.33295,621.053,-945.557)">
        <path d="M250.797,752.365L273.833,752.365" style="fill:none;fill-rule:nonzero;stroke:black;stroke-width:0.72px;"/>
    </g>
    <g transform="matrix(0.692021,-1.13969,-1.13969,-0.692021,944.039,882.32)">
        <path d="M268.83,760.975L289.62,760.975" style="fill:none;fill-rule:nonzero;stroke:black;stroke-width:0.72px;"/>
    </g>
    <g transform="matrix(1.33333,0,0,1.33333,-102.304,-953.646)">
        <path d="M268.56,750.48L272.88,750.48L270,753.84L265.68,753.6" style="fill:white;"/>
    </g>
    <g transform="matrix(0.874918,-1.00613,-1.00613,-0.874918,775.82,977.578)">
        <path d="M242.546,750.69L293.354,750.69" style="fill:none;fill-rule:nonzero;stroke:black;stroke-width:0.72px;"/>
    </g>
    <g transform="matrix(-1.04218,-0.831653,-0.831653,1.04218,1203.82,-556.328)">
        <path d="M270.967,774.64L286.293,774.64" style="fill:none;fill-rule:nonzero;stroke:black;stroke-width:0.72px;"/>
    </g>
    <g transform="matrix(1.31274,-0.233413,-0.233413,-1.31274,83.7443,1104.52)">
        <path d="M284.496,771.27L300.604,771.27" style="fill:none;fill-rule:nonzero;stroke:black;stroke-width:0.72px;"/>
    </g>
    <g transform="matrix(1.32001,0.187987,0.187987,-1.32001,-236.001,987.617)">
        <path d="M283.119,731.835L299.361,731.835" style="fill:none;fill-rule:nonzero;stroke:black;stroke-width:0.72px;"/>
    </g>
    <g transform="matrix(1.32015,0.187022,0.187022,-1.32015,-235.959,987.909)">
        <path d="M283.602,735.195L299.358,735.195" style="fill:none;fill-rule:nonzero;stroke:black;stroke-width:0.72px;"/>
    </g>
    <g transform="matrix(-0.103434,1.32932,1.32932,0.103434,-661.101,-309.04)">
        <path d="M252.269,704.31L273.151,704.31" style="fill:none;fill-rule:nonzero;stroke:black;stroke-width:0.72px;"/>
    </g>
    <g transform="matrix(-0.104066,1.32927,1.32927,0.104066,-667.078,-306.666)">
        <path d="M249.811,705.4L269.029,705.4" style="fill:none;fill-rule:nonzero;stroke:black;stroke-width:0.72px;"/>
    </g>
    <g transform="matrix(-1.20338,0.574147,0.574147,1.20338,147.845,-846.011)">
        <path d="M247.165,690.565L262.655,690.565" style="fill:none;fill-rule:nonzero;stroke:black;stroke-width:0.72px;"/>
    </g>
    <g transform="matrix(1.33333,0,0,1.33333,-102.304,-931.886)">
        <path d="M332.4,744L366.48,744" style="fill:none;fill-rule:nonzero;stroke:black;stroke-width:0.72px;"/>
    </g>
    <g transform="matrix(1.33333,0,0,1.33333,-102.304,-939.566)">
        <path d="M332.4,746.88L366.48,746.88" style="fill:none;fill-rule:nonzero;stroke:black;stroke-width:0.72px;"/>
    </g>
    <g transform="matrix(1.2958,0.314133,0.314133,-1.2958,-323.317,910.201)">
        <path d="M358.219,747.813L366.369,747.813L359.124,744.081L360.071,746.286L358.219,747.813Z" style="stroke:black;stroke-width:0.72px;"/>
    </g>
    <g transform="matrix(-1.2958,0.314133,0.314133,1.2958,548.316,-1009.62)">
        <path d="M332.059,743.067L340.209,743.067L332.964,746.799L333.911,744.594L332.059,743.067Z" style="stroke:black;stroke-width:0.72px;"/>
    </g>
    <g transform="matrix(-0.938153,0.947442,0.947442,0.938153,73.7303,-996.991)">
        <path d="M369.295,740.88L403.745,740.88" style="fill:none;fill-rule:nonzero;stroke:black;stroke-width:0.72px;"/>
    </g>
    <g transform="matrix(1.32118,-0.179579,-0.179579,-1.32118,33.5444,1112.7)">
        <path d="M374.286,730.32L399.234,730.32" style="fill:none;fill-rule:nonzero;stroke:black;stroke-width:0.72px;"/>
    </g>
    <g transform="matrix(0.785144,1.07765,1.07765,-0.785144,-659.942,218.737)">
        <path d="M394.847,723.6L415.633,723.6" style="fill:none;fill-rule:nonzero;stroke:black;stroke-width:0.72px;"/>
    </g>
    <g transform="matrix(0.942809,-0.942809,-0.942809,-0.942809,745.919,1166.15)">
        <path d="M407.234,725.16L435.406,725.16" style="fill:none;fill-rule:nonzero;stroke:black;stroke-width:0.72px;"/>
    </g>
    <g transform="matrix(0.643201,1.16793,1.16793,-0.643201,-676.742,40.6669)">
        <path d="M416.514,743.845L436.436,743.845" style="fill:none;fill-rule:nonzero;stroke:black;stroke-width:0.72px;"/>
    </g>
    <g transform="matrix(-1.33295,-0.0318334,-0.0318334,1.33295,1015.25,-942.13)">
        <path d="M398.637,752.845L421.673,752.845" style="fill:none;fill-rule:nonzero;stroke:black;stroke-width:0.72px;"/>
    </g>
    <g transform="matrix(0.692021,-1.13969,-1.13969,-0.692021,1039.4,1050.5)">
        <path d="M416.67,761.455L437.46,761.455" style="fill:none;fill-rule:nonzero;stroke:black;stroke-width:0.72px;"/>
    </g>
    <g transform="matrix(1.33333,0,0,1.33333,-102.304,-954.926)">
        <path d="M416.4,750.96L420.72,750.96L417.84,754.32L413.52,754.08" style="fill:white;"/>
    </g>
    <g transform="matrix(0.874918,-1.00613,-1.00613,-0.874918,844.075,1126.1)">
        <path d="M390.386,751.17L441.194,751.17" style="fill:none;fill-rule:nonzero;stroke:black;stroke-width:0.72px;"/>
    </g>
    <g transform="matrix(-1.04218,-0.831653,-0.831653,1.04218,1555.41,-434.516)">
        <path d="M418.807,775.12L434.133,775.12" style="fill:none;fill-rule:nonzero;stroke:black;stroke-width:0.72px;"/>
    </g>
    <g transform="matrix(1.31274,-0.233413,-0.233413,-1.31274,86.9003,1139.02)">
        <path d="M432.336,771.75L448.444,771.75" style="fill:none;fill-rule:nonzero;stroke:black;stroke-width:0.72px;"/>
    </g>
    <g transform="matrix(1.32001,0.187987,0.187987,-1.32001,-234.122,959.819)">
        <path d="M430.959,732.315L447.201,732.315" style="fill:none;fill-rule:nonzero;stroke:black;stroke-width:0.72px;"/>
    </g>
    <g transform="matrix(1.32015,0.187022,0.187022,-1.32015,-234.1,960.254)">
        <path d="M431.442,735.675L447.198,735.675" style="fill:none;fill-rule:nonzero;stroke:black;stroke-width:0.72px;"/>
    </g>
    <g transform="matrix(-0.103434,1.32932,1.32932,0.103434,-449.327,-506.256)">
        <path d="M400.109,704.79L420.991,704.79" style="fill:none;fill-rule:nonzero;stroke:black;stroke-width:0.72px;"/>
    </g>
    <g transform="matrix(-1.20335,0.574214,0.574214,1.20335,521.996,-931.685)">
        <path d="M394.499,690.93L410.521,690.93" style="fill:none;fill-rule:nonzero;stroke:black;stroke-width:0.72px;"/>
    </g>
    <g transform="matrix(1.09926,0.75459,0.75459,-1.09926,-524.609,577.537)">
        <path d="M407.381,688.49L423.319,688.49" style="fill:none;fill-rule:nonzero;stroke:black;stroke-width:0.72px;"/>
    </g>
    <g transform="matrix(1.09919,0.754685,0.754685,-1.09919,-526.888,575.835)">
        <path d="M409.46,691.805L423.47,691.805" style="fill:none;fill-rule:nonzero;stroke:black;stroke-width:0.72px;"/>
    </g>
    <g transform="matrix(0,1.33333,1.33333,0,-530.144,-310.766)">
        <path d="M308.4,671.52L392.88,671.52" style="fill:none;fill-rule:nonzero;stroke:black;stroke-width:0.72px;"/>
    </g>
    <g transform="matrix(0,1.33333,1.33333,0,-526.304,-314.606)">
        <path d="M311.28,671.52L395.76,671.52" style="fill:none;fill-rule:nonzero;stroke:black;stroke-width:0.72px;"/>
    </g>
    <g transform="matrix(1.33333,0,0,1.33333,-102.304,-627.566)">
        <path d="M355.68,625.92L352.08,633.84L348.48,625.92" style="fill:none;fill-rule:nonzero;stroke:black;stroke-width:0.72px;"/>
    </g>
    <g transform="matrix(-0.938153,0.947442,0.947442,0.938153,66.5516,-506.316)">
        <path d="M289.855,558L324.305,558" style="fill:none;fill-rule:nonzero;stroke:black;stroke-width:0.72px;"/>
    </g>
    <g transform="matrix(1.32118,-0.179579,-0.179579,-1.32118,-0.262013,1100.65)">
        <path d="M294.846,547.44L319.794,547.44" style="fill:none;fill-rule:nonzero;stroke:black;stroke-width:0.72px;"/>
    </g>
    <g transform="matrix(0.785144,1.07765,1.07765,-0.785144,-506.41,404.599)">
        <path d="M315.407,540.72L336.193,540.72" style="fill:none;fill-rule:nonzero;stroke:black;stroke-width:0.72px;"/>
    </g>
    <g transform="matrix(0.942809,-0.942809,-0.942809,-0.942809,542.475,1162.67)">
        <path d="M327.794,542.28L355.966,542.28" style="fill:none;fill-rule:nonzero;stroke:black;stroke-width:0.72px;"/>
    </g>
    <g transform="matrix(0.643201,1.16793,1.16793,-0.643201,-517.974,259.659)">
        <path d="M337.074,560.965L356.996,560.965" style="fill:none;fill-rule:nonzero;stroke:black;stroke-width:0.72px;"/>
    </g>
    <g transform="matrix(-1.33295,-0.0318334,-0.0318334,1.33295,797.621,-457.049)">
        <path d="M319.197,569.965L342.233,569.965" style="fill:none;fill-rule:nonzero;stroke:black;stroke-width:0.72px;"/>
    </g>
    <g transform="matrix(0.692021,-1.13969,-1.13969,-0.692021,780.026,1077.25)">
        <path d="M337.23,578.575L358.02,578.575" style="fill:none;fill-rule:nonzero;stroke:black;stroke-width:0.72px;"/>
    </g>
    <g transform="matrix(1.33333,0,0,1.33333,-102.304,-467.246)">
        <path d="M336.96,568.08L341.28,568.08L338.4,571.44L334.08,571.2" style="fill:white;"/>
    </g>
    <g transform="matrix(0.874918,-1.00613,-1.00613,-0.874918,623.657,1130.01)">
        <path d="M310.946,568.29L361.754,568.29" style="fill:none;fill-rule:nonzero;stroke:black;stroke-width:0.72px;"/>
    </g>
    <g transform="matrix(-1.04218,-0.831653,-0.831653,1.04218,1214.61,-66.1496)">
        <path d="M339.367,592.24L354.693,592.24" style="fill:none;fill-rule:nonzero;stroke:black;stroke-width:0.72px;"/>
    </g>
    <g transform="matrix(1.31274,-0.233413,-0.233413,-1.31274,42.5781,1124.24)">
        <path d="M352.896,588.87L369.004,588.87" style="fill:none;fill-rule:nonzero;stroke:black;stroke-width:0.72px;"/>
    </g>
    <g transform="matrix(1.32001,0.187987,0.187987,-1.32001,-200.801,977.188)">
        <path d="M351.519,549.435L367.761,549.435" style="fill:none;fill-rule:nonzero;stroke:black;stroke-width:0.72px;"/>
    </g>
    <g transform="matrix(1.32015,0.187022,0.187022,-1.32015,-200.945,977.522)">
        <path d="M352.002,552.795L367.758,552.795" style="fill:none;fill-rule:nonzero;stroke:black;stroke-width:0.72px;"/>
    </g>
    <g transform="matrix(-0.938153,0.947442,0.947442,0.938153,-244.188,-376.706)">
        <path d="M153.055,558L187.505,558" style="fill:none;fill-rule:nonzero;stroke:black;stroke-width:0.72px;"/>
    </g>
    <g transform="matrix(-0.938191,0.947404,0.947404,0.938191,-232.999,-382.216)">
        <path d="M162.3,558.315L188.35,558.315" style="fill:none;fill-rule:nonzero;stroke:black;stroke-width:0.72px;"/>
    </g>
    <g transform="matrix(1.32118,-0.179579,-0.179579,-1.32118,-1.92393,1076.08)">
        <path d="M158.046,547.44L182.994,547.44" style="fill:none;fill-rule:nonzero;stroke:black;stroke-width:0.72px;"/>
    </g>
    <g transform="matrix(0.785144,1.07765,1.07765,-0.785144,-581.402,552.021)">
        <path d="M178.607,540.72L199.393,540.72" style="fill:none;fill-rule:nonzero;stroke:black;stroke-width:0.72px;"/>
    </g>
    <g transform="matrix(0.942809,-0.942809,-0.942809,-0.942809,489.051,1033.69)">
        <path d="M190.994,542.28L219.166,542.28" style="fill:none;fill-rule:nonzero;stroke:black;stroke-width:0.72px;"/>
    </g>
    <g transform="matrix(0.643201,1.16793,1.16793,-0.643201,-612.384,419.432)">
        <path d="M200.274,560.965L220.196,560.965" style="fill:none;fill-rule:nonzero;stroke:black;stroke-width:0.72px;"/>
    </g>
    <g transform="matrix(-1.33295,-0.0318334,-0.0318334,1.33295,432.873,-461.404)">
        <path d="M182.397,569.965L205.433,569.965" style="fill:none;fill-rule:nonzero;stroke:black;stroke-width:0.72px;"/>
    </g>
    <g transform="matrix(0.692021,-1.13969,-1.13969,-0.692021,692.295,921.341)">
        <path d="M200.43,578.575L221.22,578.575" style="fill:none;fill-rule:nonzero;stroke:black;stroke-width:0.72px;"/>
    </g>
    <g transform="matrix(1.33333,0,0,1.33333,-102.304,-467.246)">
        <path d="M200.16,568.08L204.48,568.08L201.6,571.44L197.28,571.2" style="fill:white;"/>
    </g>
    <g transform="matrix(0.874918,-1.00613,-1.00613,-0.874918,560.946,992.374)">
        <path d="M174.146,568.29L224.954,568.29" style="fill:none;fill-rule:nonzero;stroke:black;stroke-width:0.72px;"/>
    </g>
    <g transform="matrix(-1.04218,-0.831653,-0.831653,1.04218,889.638,-179.92)">
        <path d="M202.567,592.24L217.893,592.24" style="fill:none;fill-rule:nonzero;stroke:black;stroke-width:0.72px;"/>
    </g>
    <g transform="matrix(1.31274,-0.233413,-0.233413,-1.31274,39.7614,1092.31)">
        <path d="M216.096,588.87L232.204,588.87" style="fill:none;fill-rule:nonzero;stroke:black;stroke-width:0.72px;"/>
    </g>
    <g transform="matrix(1.32001,0.187987,0.187987,-1.32001,-202.623,1002.9)">
        <path d="M214.719,549.435L230.961,549.435" style="fill:none;fill-rule:nonzero;stroke:black;stroke-width:0.72px;"/>
    </g>
    <g transform="matrix(1.32015,0.187022,0.187022,-1.32015,-202.748,1003.11)">
        <path d="M215.202,552.795L230.958,552.795" style="fill:none;fill-rule:nonzero;stroke:black;stroke-width:0.72px;"/>
    </g>
    <g transform="matrix(0,1.33333,1.33333,0,-516.224,158.834)">
        <path d="M163.56,490.2L195.96,490.2" style="fill:none;fill-rule:nonzero;stroke:black;stroke-width:0.72px;"/>
    </g>
    <g transform="matrix(0,1.33333,1.33333,0,-512.384,154.994)">
        <path d="M166.44,490.2L198.84,490.2" style="fill:none;fill-rule:nonzero;stroke:black;stroke-width:0.72px;"/>
    </g>
    <g transform="matrix(1.33333,0,0,1.33333,-102.304,-213.486)">
        <path d="M184.8,470.64L181.2,478.56L177.6,470.64" style="fill:none;fill-rule:nonzero;stroke:black;stroke-width:0.72px;"/>
    </g>
    <g transform="matrix(-0.7859,-1.0771,-1.0771,0.7859,764.265,327.306)">
        <path d="M176.861,436.965L196.779,436.965" style="fill:none;fill-rule:nonzero;stroke:black;stroke-width:0.72px;"/>
    </g>
    <g transform="matrix(1.26717,-0.414807,-0.414807,-1.26717,92.3494,1094.01)">
        <path d="M161.516,441.91L181.444,441.91" style="fill:none;fill-rule:nonzero;stroke:black;stroke-width:0.72px;"/>
    </g>
    <g transform="matrix(1.26713,-0.414924,-0.414924,-1.26713,91.1494,1094.65)">
        <path d="M165.07,438.71L179.98,438.71" style="fill:none;fill-rule:nonzero;stroke:black;stroke-width:0.72px;"/>
    </g>
    <g transform="matrix(0.781241,-1.08048,-1.08048,-0.781241,455.578,1021.66)">
        <path d="M176.896,420.85L196.814,420.85" style="fill:none;fill-rule:nonzero;stroke:black;stroke-width:0.72px;"/>
    </g>
    <g transform="matrix(-0.00334503,-1.33333,-1.33333,0.00334503,686.076,694.932)">
        <path d="M152.07,428.845L172,428.845" style="fill:none;fill-rule:nonzero;stroke:black;stroke-width:0.72px;"/>
    </g>
    <g transform="matrix(1.26926,0.408359,0.408359,-1.26926,-261.121,955.42)">
        <path d="M161.581,415.83L181.499,415.83" style="fill:none;fill-rule:nonzero;stroke:black;stroke-width:0.72px;"/>
    </g>
    <g transform="matrix(1.26905,0.408997,0.408997,-1.26905,-262.591,954.598)">
        <path d="M165.121,419.025L180.019,419.025" style="fill:none;fill-rule:nonzero;stroke:black;stroke-width:0.72px;"/>
    </g>
    <g transform="matrix(0.603028,-1.18917,-1.18917,-0.603028,558.367,967.206)">
        <path d="M188.796,435.26L203.014,435.26" style="fill:none;fill-rule:nonzero;stroke:black;stroke-width:0.72px;"/>
    </g>
    <g transform="matrix(1.13847,0.694028,0.694028,-1.13847,-358.646,831.269)">
        <path d="M191.64,425.18L206.01,425.18" style="fill:none;fill-rule:nonzero;stroke:black;stroke-width:0.72px;"/>
    </g>
    <g transform="matrix(-1.33333,0,0,1.33333,638.816,-467.246)">
        <path d="M261.36,569.76L294.48,569.76" style="fill:none;fill-rule:nonzero;stroke:black;stroke-width:0.72px;"/>
    </g>
    <g transform="matrix(-1.33333,0,0,1.33333,638.816,-459.566)">
        <path d="M261.36,566.88L294.48,566.88" style="fill:none;fill-rule:nonzero;stroke:black;stroke-width:0.72px;"/>
    </g>
    <g transform="matrix(1.33333,0,0,1.33333,-102.304,-463.406)">
        <path d="M265.92,571.92L258,568.32L265.92,564.72" style="fill:none;fill-rule:nonzero;stroke:black;stroke-width:0.72px;"/>
    </g>
    <g transform="matrix(-0.00555551,1.33332,1.33332,0.00555551,-346.548,117.102)">
        <path d="M252.78,441.84L262.38,441.84" style="fill:none;fill-rule:nonzero;stroke:black;stroke-width:0.72px;"/>
    </g>
    <g transform="matrix(-0.00555551,1.33332,1.33332,0.00555551,-342.049,112.622)">
        <path d="M256.14,441.84L265.74,441.84" style="fill:none;fill-rule:nonzero;stroke:black;stroke-width:0.72px;"/>
    </g>
    <g transform="matrix(-0.00416665,1.33333,1.33333,0.00416665,-320.448,144.457)">
        <path d="M252.705,421.92L262.305,421.92" style="fill:none;fill-rule:nonzero;stroke:black;stroke-width:0.72px;"/>
    </g>
    <g transform="matrix(-0.00416665,1.33333,1.33333,0.00416665,-315.954,139.977)">
        <path d="M256.065,421.92L265.665,421.92" style="fill:none;fill-rule:nonzero;stroke:black;stroke-width:0.72px;"/>
    </g>
    <g transform="matrix(1.33333,0,0,1.33333,-102.304,-103.086)">
        <path d="M282.96,433.2L317.04,433.2" style="fill:none;fill-rule:nonzero;stroke:black;stroke-width:0.72px;"/>
    </g>
    <g transform="matrix(1.33333,0,0,1.33333,-102.304,-110.766)">
        <path d="M282.96,436.08L317.04,436.08" style="fill:none;fill-rule:nonzero;stroke:black;stroke-width:0.72px;"/>
    </g>
    <g transform="matrix(1.33333,0,0,1.33333,-102.304,-106.926)">
        <path d="M312.48,431.04L320.4,434.64L312.48,438.24" style="fill:none;fill-rule:nonzero;stroke:black;stroke-width:0.72px;"/>
    </g>
    <g transform="matrix(-1.14566,-0.682085,-0.682085,1.14566,1069.4,204.676)">
        <path d="M343.163,438.685L360.737,438.685" style="fill:none;fill-rule:nonzero;stroke:black;stroke-width:0.72px;"/>
    </g>
    <g transform="matrix(0.0182008,-1.33321,-1.33321,-0.0182008,941.638,972.151)">
        <path d="M353.754,426.845L368.406,426.845" style="fill:none;fill-rule:nonzero;stroke:black;stroke-width:0.72px;"/>
    </g>
    <g transform="matrix(0.0181513,-1.33321,-1.33321,-0.0181513,937.264,967.624)">
        <path d="M350.374,426.865L365.066,426.865" style="fill:none;fill-rule:nonzero;stroke:black;stroke-width:0.72px;"/>
    </g>
    <g transform="matrix(1.16371,-0.650819,-0.650819,-1.16371,245.893,1217.26)">
        <path d="M358.233,439.05L378.147,439.05" style="fill:none;fill-rule:nonzero;stroke:black;stroke-width:0.72px;"/>
    </g>
    <g transform="matrix(1.16367,-0.650882,-0.650882,-1.16367,253.945,1225.62)">
        <path d="M375.959,447.445L390.441,447.445" style="fill:none;fill-rule:nonzero;stroke:black;stroke-width:0.72px;"/>
    </g>
    <g transform="matrix(1.16404,-0.650227,-0.650227,-1.16404,255.571,1224.41)">
        <path d="M374.204,450.83L390.526,450.83" style="fill:none;fill-rule:nonzero;stroke:black;stroke-width:0.72px;"/>
    </g>
    <g transform="matrix(1.1636,-0.651003,-0.651003,-1.1636,252.658,1227.47)">
        <path d="M377.527,444.79L393.133,444.79" style="fill:none;fill-rule:nonzero;stroke:black;stroke-width:0.72px;"/>
    </g>
</svg>
