<?xml version="1.0" encoding="UTF-8" standalone="no"?>
<!DOCTYPE svg PUBLIC "-//W3C//DTD SVG 1.1//EN" "http://www.w3.org/Graphics/SVG/1.1/DTD/svg11.dtd">
<svg width="100%" height="100%" viewBox="0 0 645 480" version="1.1" xmlns="http://www.w3.org/2000/svg" xmlns:xlink="http://www.w3.org/1999/xlink" xml:space="preserve" xmlns:serif="http://www.serif.com/" style="fill-rule:evenodd;clip-rule:evenodd;stroke-linecap:round;stroke-linejoin:round;stroke-miterlimit:10;">
    <g transform="matrix(1.33333,0,0,1.33333,-57.0778,-71.24)">
        <text x="91.92px" y="74.16px" style="font-family:'ArialMT', 'Arial', sans-serif;font-size:10px;">CH</text>
        <text x="106.32px" y="76.8px" style="font-family:'ArialMT', 'Arial', sans-serif;font-size:8px;">3</text>
    </g>
    <g transform="matrix(1.33333,0,0,1.33333,-57.0778,-71.24)">
        <text x="56.4px" y="74.16px" style="font-family:'ArialMT', 'Arial', sans-serif;font-size:10px;">C</text>
    </g>
    <g transform="matrix(1.33333,0,0,1.33333,-57.0778,-71.24)">
        <text x="44.88px" y="74.16px" style="font-family:'ArialMT', 'Arial', sans-serif;font-size:10px;">H</text>
        <text x="52.08px" y="76.8px" style="font-family:'ArialMT', 'Arial', sans-serif;font-size:8px;">3</text>
    </g>
    <g transform="matrix(1.33333,0,0,1.33333,-57.0778,-71.24)">
        <text x="116.4px" y="98.4px" style="font-family:'ArialMT', 'Arial', sans-serif;font-size:18px;">+</text>
        <text x="140.16px" y="85.2px" style="font-family:'ArialMT', 'Arial', sans-serif;font-size:10px;">Cl</text>
    </g>
    <g transform="matrix(1.33333,0,0,1.33333,-57.0778,-71.24)">
        <text x="162.72px" y="114.96px" style="font-family:'ArialMT', 'Arial', sans-serif;font-size:10px;">CH</text>
        <text x="177.12px" y="117.6px" style="font-family:'ArialMT', 'Arial', sans-serif;font-size:8px;">2</text>
    </g>
    <g transform="matrix(1.33333,0,0,1.33333,-57.0778,-71.24)">
        <text x="196.56px" y="74.64px" style="font-family:'ArialMT', 'Arial', sans-serif;font-size:10px;">N</text>
    </g>
    <g transform="matrix(1.33333,0,0,1.33333,-57.0778,-71.24)">
        <text x="297.6px" y="64.32px" style="font-family:'ArialMT', 'Arial', sans-serif;font-size:10px;">C</text>
    </g>
    <g transform="matrix(1.33333,0,0,1.33333,-57.0778,-71.24)">
        <text x="286.08px" y="64.32px" style="font-family:'ArialMT', 'Arial', sans-serif;font-size:10px;">H</text>
        <text x="293.28px" y="66.96px" style="font-family:'ArialMT', 'Arial', sans-serif;font-size:8px;">3</text>
    </g>
    <g transform="matrix(1.33333,0,0,1.33333,-57.0778,-71.24)">
        <text x="334.56px" y="73.68px" style="font-family:'ArialMT', 'Arial', sans-serif;font-size:10px;">CH</text>
        <text x="348.96px" y="76.32px" style="font-family:'ArialMT', 'Arial', sans-serif;font-size:8px;">3</text>
    </g>
    <g transform="matrix(1.33333,0,0,1.33333,-57.0778,-71.24)">
        <text x="324.72px" y="95.28px" style="font-family:'ArialMT', 'Arial', sans-serif;font-size:10px;">Cl</text>
    </g>
    <g transform="matrix(1.33333,0,0,1.33333,-57.0778,-71.24)">
        <text x="344.88px" y="139.2px" style="font-family:'ArialMT', 'Arial', sans-serif;font-size:10px;">N</text>
    </g>
    <g transform="matrix(1.33333,0,0,1.33333,-57.0778,-71.24)">
        <text x="467.28px" y="64.08px" style="font-family:'ArialMT', 'Arial', sans-serif;font-size:10px;">C</text>
    </g>
    <g transform="matrix(1.33333,0,0,1.33333,-57.0778,-71.24)">
        <text x="455.76px" y="64.08px" style="font-family:'ArialMT', 'Arial', sans-serif;font-size:10px;">H</text>
        <text x="462.96px" y="66.72px" style="font-family:'ArialMT', 'Arial', sans-serif;font-size:8px;">3</text>
    </g>
    <g transform="matrix(1.33333,0,0,1.33333,-57.0778,-71.24)">
        <text x="504.24px" y="73.44px" style="font-family:'ArialMT', 'Arial', sans-serif;font-size:10px;">CH</text>
        <text x="518.64px" y="76.08px" style="font-family:'ArialMT', 'Arial', sans-serif;font-size:8px;">3</text>
    </g>
    <g transform="matrix(1.33333,0,0,1.33333,-57.0778,-71.24)">
        <text x="503.04px" y="115.2px" style="font-family:'ArialMT', 'Arial', sans-serif;font-size:10px;">O</text>
    </g>
    <g transform="matrix(1.33333,0,0,1.33333,-57.0778,-71.24)">
        <text x="468.24px" y="198.72px" style="font-family:'ArialMT', 'Arial', sans-serif;font-size:10px;">C</text>
    </g>
    <g transform="matrix(1.33333,0,0,1.33333,-57.0778,-71.24)">
        <text x="456.72px" y="198.72px" style="font-family:'ArialMT', 'Arial', sans-serif;font-size:10px;">H</text>
        <text x="463.92px" y="201.36px" style="font-family:'ArialMT', 'Arial', sans-serif;font-size:8px;">3</text>
    </g>
    <g transform="matrix(1.33333,0,0,1.33333,-57.0778,-71.24)">
        <text x="505.2px" y="208.08px" style="font-family:'ArialMT', 'Arial', sans-serif;font-size:10px;">CH</text>
        <text x="519.6px" y="210.72px" style="font-family:'ArialMT', 'Arial', sans-serif;font-size:8px;">3</text>
    </g>
    <g transform="matrix(1.33333,0,0,1.33333,-57.0778,-71.24)">
        <text x="504px" y="249.84px" style="font-family:'ArialMT', 'Arial', sans-serif;font-size:10px;">O</text>
    </g>
    <g transform="matrix(1.33333,0,0,1.33333,-57.0778,-71.24)">
        <text x="273.36px" y="198.72px" style="font-family:'ArialMT', 'Arial', sans-serif;font-size:10px;">C</text>
    </g>
    <g transform="matrix(1.33333,0,0,1.33333,-57.0778,-71.24)">
        <text x="261.84px" y="198.72px" style="font-family:'ArialMT', 'Arial', sans-serif;font-size:10px;">H</text>
        <text x="269.04px" y="201.36px" style="font-family:'ArialMT', 'Arial', sans-serif;font-size:8px;">3</text>
    </g>
    <g transform="matrix(1.33333,0,0,1.33333,-57.0778,-71.24)">
        <text x="310.32px" y="208.08px" style="font-family:'ArialMT', 'Arial', sans-serif;font-size:10px;">CH</text>
        <text x="324.72px" y="210.72px" style="font-family:'ArialMT', 'Arial', sans-serif;font-size:8px;">3</text>
    </g>
    <g transform="matrix(1.33333,0,0,1.33333,-57.0778,-71.24)">
        <text x="309.12px" y="249.84px" style="font-family:'ArialMT', 'Arial', sans-serif;font-size:10px;">O</text>
    </g>
    <g transform="matrix(1.33333,0,0,1.33333,-57.0778,-71.24)">
        <text x="247.92px" y="296.64px" style="font-family:'ArialMT', 'Arial', sans-serif;font-size:10px;">O</text>
    </g>
    <g transform="matrix(1.33333,0,0,1.33333,-57.0778,-71.24)">
        <text x="284.16px" y="299.28px" style="font-family:'ArialMT', 'Arial', sans-serif;font-size:10px;">H</text>
    </g>
    <g transform="matrix(1.33333,0,0,1.33333,-57.0778,-71.24)">
        <text x="117.6px" y="198.48px" style="font-family:'ArialMT', 'Arial', sans-serif;font-size:10px;">C</text>
    </g>
    <g transform="matrix(1.33333,0,0,1.33333,-57.0778,-71.24)">
        <text x="106.08px" y="198.48px" style="font-family:'ArialMT', 'Arial', sans-serif;font-size:10px;">H</text>
        <text x="113.28px" y="201.12px" style="font-family:'ArialMT', 'Arial', sans-serif;font-size:8px;">3</text>
    </g>
    <g transform="matrix(1.33333,0,0,1.33333,-57.0778,-71.24)">
        <text x="154.56px" y="207.84px" style="font-family:'ArialMT', 'Arial', sans-serif;font-size:10px;">CH</text>
        <text x="168.96px" y="210.48px" style="font-family:'ArialMT', 'Arial', sans-serif;font-size:8px;">3</text>
    </g>
    <g transform="matrix(1.33333,0,0,1.33333,-57.0778,-71.24)">
        <text x="153.36px" y="249.6px" style="font-family:'ArialMT', 'Arial', sans-serif;font-size:10px;">O</text>
    </g>
    <g transform="matrix(1.33333,0,0,1.33333,-57.0778,-71.24)">
        <text x="128.16px" y="299.04px" style="font-family:'ArialMT', 'Arial', sans-serif;font-size:10px;">O<tspan x="136.08px " y="299.04px ">H</tspan></text>
    </g>
    <g transform="matrix(1.33333,0,0,1.33333,-57.0778,-71.24)">
        <text x="192px" y="410.16px" style="font-family:'ArialMT', 'Arial', sans-serif;font-size:10px;">T<tspan x="198.24px " y="410.16px ">M</tspan></text>
    </g>
    <g transform="matrix(1.33333,0,0,1.33333,-57.0778,-71.24)">
        <text x="387.6px" y="259.2px" style="font-family:'ArialMT', 'Arial', sans-serif;font-size:10px;">O</text>
        <text x="395.52px" y="259.2px" style="font-family:'ArialMT', 'Arial', sans-serif;font-size:10px;">Me</text>
    </g>
    <g transform="matrix(1.33333,0,0,1.33333,-57.0778,-71.24)">
        <text x="357.84px" y="241.92px" style="font-family:'ArialMT', 'Arial', sans-serif;font-size:10px;">H</text>
    </g>
    <g transform="matrix(1.33333,0,0,1.33333,-57.0778,-71.24)">
        <text x="357.6px" y="276.24px" style="font-family:'ArialMT', 'Arial', sans-serif;font-size:10px;">O</text>
    </g>
    <g transform="matrix(1.33333,0,0,1.33333,-57.0778,-71.24)">
        <text x="380.88px" y="83.28px" style="font-family:'ArialMT', 'Arial', sans-serif;font-size:10px;">H</text>
        <text x="388.08px" y="85.92px" style="font-family:'ArialMT', 'Arial', sans-serif;font-size:6px;">2</text>
        <text x="391.68px" y="83.28px" style="font-family:'ArialMT', 'Arial', sans-serif;font-size:10px;">O</text>
    </g>
    <g transform="matrix(1.33333,0,0,1.33333,-57.0778,-71.24)">
        <text x="447.84px" y="157.92px" style="font-family:'ArialMT', 'Arial', sans-serif;font-size:10px;">H</text>
        <text x="455.04px" y="160.56px" style="font-family:'ArialMT', 'Arial', sans-serif;font-size:6px;">2</text>
    </g>
    <g transform="matrix(1.33333,0,0,1.33333,-57.0778,-71.24)">
        <text x="473.76px" y="160.56px" style="font-family:'ArialMT', 'Arial', sans-serif;font-size:10px;">Pd</text>
    </g>
    <g transform="matrix(1.33333,0,0,1.33333,-57.0778,-71.24)">
        <text x="372.48px" y="218.88px" style="font-family:'ArialMT', 'Arial', sans-serif;font-size:10px;">NaH</text>
    </g>
    <g transform="matrix(1.33333,0,0,1.33333,-57.0778,-71.24)">
        <text x="180.96px" y="349.68px" style="font-family:'ArialMT', 'Arial', sans-serif;font-size:10px;">O</text>
        <text x="188.88px" y="352.32px" style="font-family:'ArialMT', 'Arial', sans-serif;font-size:6px;">3</text>
    </g>
    <g transform="matrix(1.33333,0,0,1.33333,-57.0778,-71.24)">
        <text x="205.2px" y="351.12px" style="font-family:'ArialMT', 'Arial', sans-serif;font-size:10px;">M</text>
        <text x="213.6px" y="351.12px" style="font-family:'ArialMT', 'Arial', sans-serif;font-size:10px;">e</text>
        <text x="219.12px" y="353.76px" style="font-family:'ArialMT', 'Arial', sans-serif;font-size:6px;">2</text>
        <text x="222.72px" y="351.12px" style="font-family:'ArialMT', 'Arial', sans-serif;font-size:10px;">S</text>
    </g>
    <g transform="matrix(-1.07962,0.782437,0.782437,1.07962,-481.067,-829.448)">
        <path d="M59.745,756.845L79.665,756.845" style="fill:none;fill-rule:nonzero;stroke:black;stroke-width:0.72px;"/>
    </g>
    <g transform="matrix(-0.410979,-1.26841,-1.26841,0.410979,996.357,-160.052)">
        <path d="M54.75,741.525L74.67,741.525" style="fill:none;fill-rule:nonzero;stroke:black;stroke-width:0.72px;"/>
    </g>
    <g transform="matrix(-0.411427,-1.26827,-1.26827,0.411427,1003.17,-158.141)">
        <path d="M60.456,742.56L75.364,742.56" style="fill:none;fill-rule:nonzero;stroke:black;stroke-width:0.72px;"/>
    </g>
    <g transform="matrix(-1.0782,-0.784388,-0.784388,1.0782,743.54,-706.48)">
        <path d="M75.864,756.83L95.786,756.83" style="fill:none;fill-rule:nonzero;stroke:black;stroke-width:0.72px;"/>
    </g>
    <g transform="matrix(-1.33333,-0.00133802,-0.00133802,1.33333,151.222,-900.682)">
        <path d="M67.78,732.04L87.71,732.04" style="fill:none;fill-rule:nonzero;stroke:black;stroke-width:0.72px;"/>
    </g>
    <g transform="matrix(0.412993,-1.26776,-1.26776,-0.412993,966.528,483.994)">
        <path d="M80.835,741.5L100.755,741.5" style="fill:none;fill-rule:nonzero;stroke:black;stroke-width:0.72px;"/>
    </g>
    <g transform="matrix(0.412499,-1.26792,-1.26792,-0.412499,965.058,478.632)">
        <path d="M80.144,742.535L95.046,742.535" style="fill:none;fill-rule:nonzero;stroke:black;stroke-width:0.72px;"/>
    </g>
    <g transform="matrix(1.1884,-0.604559,-0.604559,-1.1884,418.27,991.295)">
        <path d="M76.966,766.045L91.764,766.045" style="fill:none;fill-rule:nonzero;stroke:black;stroke-width:0.72px;"/>
    </g>
    <g transform="matrix(-1.18731,-0.606688,-0.606688,1.18731,587.066,-836.482)">
        <path d="M63.748,766.065L78.582,766.065" style="fill:none;fill-rule:nonzero;stroke:black;stroke-width:0.72px;"/>
    </g>
    <g transform="matrix(-1.16232,-0.653287,-0.653287,1.16232,831.663,-730.021)">
        <path d="M149.588,755.245L167.242,755.245" style="fill:none;fill-rule:nonzero;stroke:black;stroke-width:0.72px;"/>
    </g>
    <g transform="matrix(-0.0152525,-1.33325,-1.33325,0.0152525,1160.6,272.452)">
        <path d="M160.445,743.51L175.305,743.51" style="fill:none;fill-rule:nonzero;stroke:black;stroke-width:0.72px;"/>
    </g>
    <g transform="matrix(-0.0152936,-1.33325,-1.33325,0.0152936,1156.05,267.968)">
        <path d="M157.105,743.49L171.925,743.49" style="fill:none;fill-rule:nonzero;stroke:black;stroke-width:0.72px;"/>
    </g>
    <g transform="matrix(1.14726,-0.679388,-0.679388,-1.14726,489.039,1029.33)">
        <path d="M164.72,755.995L184.64,755.995" style="fill:none;fill-rule:nonzero;stroke:black;stroke-width:0.72px;"/>
    </g>
    <g transform="matrix(1.147,-0.679838,-0.679838,-1.147,498.112,1037.6)">
        <path d="M182.247,764.73L196.603,764.73" style="fill:none;fill-rule:nonzero;stroke:black;stroke-width:0.72px;"/>
    </g>
    <g transform="matrix(1.14706,-0.679737,-0.679737,-1.14706,500.173,1036.41)">
        <path d="M180.4,768.13L196.72,768.13" style="fill:none;fill-rule:nonzero;stroke:black;stroke-width:0.72px;"/>
    </g>
    <g transform="matrix(1.14678,-0.680205,-0.680205,-1.14678,497.104,1039.51)">
        <path d="M183.868,762.16L199.472,762.16" style="fill:none;fill-rule:nonzero;stroke:black;stroke-width:0.72px;"/>
    </g>
    <g transform="matrix(1.33333,0,0,1.33333,-57.0778,-952.52)">
        <path d="M217.44,751.44L251.52,751.44" style="fill:none;fill-rule:nonzero;stroke:black;stroke-width:0.72px;"/>
    </g>
    <g transform="matrix(1.2958,0.314133,0.314133,-1.2958,-283.838,945.349)">
        <path d="M243.259,752.373L251.409,752.373L244.164,748.641L245.111,750.846L243.259,752.373Z" style="stroke:black;stroke-width:0.72px;"/>
    </g>
    <g transform="matrix(-0.938153,0.947442,0.947442,0.938153,-140.037,-885.278)">
        <path d="M254.575,739.2L289.025,739.2" style="fill:none;fill-rule:nonzero;stroke:black;stroke-width:0.72px;"/>
    </g>
    <g transform="matrix(-0.938191,0.947404,0.947404,0.938191,-128.837,-890.791)">
        <path d="M263.82,739.515L289.87,739.515" style="fill:none;fill-rule:nonzero;stroke:black;stroke-width:0.72px;"/>
    </g>
    <g transform="matrix(1.32118,-0.179579,-0.179579,-1.32118,77.0752,1091.32)">
        <path d="M259.566,728.64L284.514,728.64" style="fill:none;fill-rule:nonzero;stroke:black;stroke-width:0.72px;"/>
    </g>
    <g transform="matrix(0.785144,1.07765,1.07765,-0.785144,-675.794,342.493)">
        <path d="M280.127,721.92L300.913,721.92" style="fill:none;fill-rule:nonzero;stroke:black;stroke-width:0.72px;"/>
    </g>
    <g transform="matrix(0.942809,-0.942809,-0.942809,-0.942809,744.76,1057.85)">
        <path d="M292.514,723.48L320.686,723.48" style="fill:none;fill-rule:nonzero;stroke:black;stroke-width:0.72px;"/>
    </g>
    <g transform="matrix(0.643201,1.16793,1.16793,-0.643201,-708.726,175.018)">
        <path d="M301.794,742.165L321.716,742.165" style="fill:none;fill-rule:nonzero;stroke:black;stroke-width:0.72px;"/>
    </g>
    <g transform="matrix(-1.33295,-0.0318334,-0.0318334,1.33295,754.549,-942.096)">
        <path d="M283.917,751.165L306.953,751.165" style="fill:none;fill-rule:nonzero;stroke:black;stroke-width:0.72px;"/>
    </g>
    <g transform="matrix(0.692021,-1.13969,-1.13969,-0.692021,1009.14,920.042)">
        <path d="M301.95,759.775L322.74,759.775" style="fill:none;fill-rule:nonzero;stroke:black;stroke-width:0.72px;"/>
    </g>
    <g transform="matrix(1.33333,0,0,1.33333,-57.0778,-951.24)">
        <path d="M301.68,749.28L306,749.28L303.12,752.64L298.8,752.4" style="fill:white;"/>
    </g>
    <g transform="matrix(0.874918,-1.00613,-1.00613,-0.874918,835.021,1010.66)">
        <path d="M275.666,749.49L326.474,749.49" style="fill:none;fill-rule:nonzero;stroke:black;stroke-width:0.72px;"/>
    </g>
    <g transform="matrix(-1.04218,-0.831653,-0.831653,1.04218,1326.72,-526.726)">
        <path d="M304.087,773.44L319.413,773.44" style="fill:none;fill-rule:nonzero;stroke:black;stroke-width:0.72px;"/>
    </g>
    <g transform="matrix(1.31274,-0.233413,-0.233413,-1.31274,129.372,1111.48)">
        <path d="M317.616,770.07L333.724,770.07" style="fill:none;fill-rule:nonzero;stroke:black;stroke-width:0.72px;"/>
    </g>
    <g transform="matrix(0.757853,-1.09701,-1.09701,-0.757853,938.657,977.604)">
        <path d="M313.412,739.44L327.998,739.44" style="fill:none;fill-rule:nonzero;stroke:black;stroke-width:0.72px;"/>
    </g>
    <g transform="matrix(1.02419,0.853705,0.853705,-1.02419,-577.17,549.553)">
        <path d="M314.139,726.755L335.021,726.755" style="fill:none;fill-rule:nonzero;stroke:black;stroke-width:0.72px;"/>
    </g>
    <g transform="matrix(1.024,0.853935,0.853935,-1.024,-563.305,541.185)">
        <path d="M330.89,715.35L345.63,715.35" style="fill:none;fill-rule:nonzero;stroke:black;stroke-width:0.72px;"/>
    </g>
    <g transform="matrix(1.0239,0.854048,0.854048,-1.0239,-564.083,537.975)">
        <path d="M332.801,717.27L349.599,717.27" style="fill:none;fill-rule:nonzero;stroke:black;stroke-width:0.72px;"/>
    </g>
    <g transform="matrix(1.02423,0.853655,0.853655,-1.02423,-560.653,543.498)">
        <path d="M328.448,711.96L345.722,711.96" style="fill:none;fill-rule:nonzero;stroke:black;stroke-width:0.72px;"/>
    </g>
    <g transform="matrix(1.33333,0,0,1.33333,-57.0778,-953.16)">
        <path d="M372.96,751.68L407.04,751.68" style="fill:none;fill-rule:nonzero;stroke:black;stroke-width:0.72px;"/>
    </g>
    <g transform="matrix(1.2958,0.314133,0.314133,-1.2958,-278.077,896.486)">
        <path d="M398.779,752.613L406.929,752.613L399.684,748.881L400.631,751.086L398.779,752.613Z" style="stroke:black;stroke-width:0.72px;"/>
    </g>
    <g transform="matrix(-0.938153,0.947442,0.947442,0.938153,245.162,-1046.58)">
        <path d="M424.255,739.44L458.705,739.44" style="fill:none;fill-rule:nonzero;stroke:black;stroke-width:0.72px;"/>
    </g>
    <g transform="matrix(-0.938191,0.947404,0.947404,0.938191,256.368,-1052.09)">
        <path d="M433.5,739.755L459.55,739.755" style="fill:none;fill-rule:nonzero;stroke:black;stroke-width:0.72px;"/>
    </g>
    <g transform="matrix(1.32118,-0.179579,-0.179579,-1.32118,79.1796,1121.79)">
        <path d="M429.246,728.88L454.194,728.88" style="fill:none;fill-rule:nonzero;stroke:black;stroke-width:0.72px;"/>
    </g>
    <g transform="matrix(0.785144,1.07765,1.07765,-0.785144,-583.036,159.506)">
        <path d="M449.807,722.16L470.593,722.16" style="fill:none;fill-rule:nonzero;stroke:black;stroke-width:0.72px;"/>
    </g>
    <g transform="matrix(0.942809,-0.942809,-0.942809,-0.942809,811.251,1217.73)">
        <path d="M462.194,723.72L490.366,723.72" style="fill:none;fill-rule:nonzero;stroke:black;stroke-width:0.72px;"/>
    </g>
    <g transform="matrix(0.643201,1.16793,1.16793,-0.643201,-591.904,-23.3225)">
        <path d="M471.474,742.405L491.396,742.405" style="fill:none;fill-rule:nonzero;stroke:black;stroke-width:0.72px;"/>
    </g>
    <g transform="matrix(-1.33295,-0.0318334,-0.0318334,1.33295,1206.97,-937.335)">
        <path d="M453.597,751.405L476.633,751.405" style="fill:none;fill-rule:nonzero;stroke:black;stroke-width:0.72px;"/>
    </g>
    <g transform="matrix(0.692021,-1.13969,-1.13969,-0.692021,1118.23,1113.27)">
        <path d="M471.63,760.015L492.42,760.015" style="fill:none;fill-rule:nonzero;stroke:black;stroke-width:0.72px;"/>
    </g>
    <g transform="matrix(1.33333,0,0,1.33333,-57.0778,-951.88)">
        <path d="M471.36,749.52L475.68,749.52L472.8,752.88L468.48,752.64" style="fill:white;"/>
    </g>
    <g transform="matrix(0.874918,-1.00613,-1.00613,-0.874918,913.047,1181.27)">
        <path d="M445.346,749.73L496.154,749.73" style="fill:none;fill-rule:nonzero;stroke:black;stroke-width:0.72px;"/>
    </g>
    <g transform="matrix(-1.04218,-0.831653,-0.831653,1.04218,1730,-386.181)">
        <path d="M473.767,773.68L489.093,773.68" style="fill:none;fill-rule:nonzero;stroke:black;stroke-width:0.72px;"/>
    </g>
    <g transform="matrix(1.31274,-0.233413,-0.233413,-1.31274,132.922,1151.08)">
        <path d="M487.296,770.31L503.404,770.31" style="fill:none;fill-rule:nonzero;stroke:black;stroke-width:0.72px;"/>
    </g>
    <g transform="matrix(1.32001,0.187987,0.187987,-1.32001,-187.893,948.713)">
        <path d="M485.919,730.875L502.161,730.875" style="fill:none;fill-rule:nonzero;stroke:black;stroke-width:0.72px;"/>
    </g>
    <g transform="matrix(1.32015,0.187022,0.187022,-1.32015,-187.88,949.201)">
        <path d="M486.402,734.235L502.158,734.235" style="fill:none;fill-rule:nonzero;stroke:black;stroke-width:0.72px;"/>
    </g>
    <g transform="matrix(0,1.33333,1.33333,0,-350.198,-482.76)">
        <path d="M448.32,685.2L482.4,685.2" style="fill:none;fill-rule:nonzero;stroke:black;stroke-width:0.72px;"/>
    </g>
    <g transform="matrix(-0.314133,1.2958,1.2958,0.314133,-161.346,-658.989)">
        <path d="M461.059,673.053L469.209,673.053L461.964,669.321L462.911,671.526L461.059,673.053Z" style="stroke:black;stroke-width:0.72px;"/>
    </g>
    <g transform="matrix(-0.938153,0.947442,0.947442,0.938153,374.906,-741.661)">
        <path d="M425.215,604.8L459.665,604.8" style="fill:none;fill-rule:nonzero;stroke:black;stroke-width:0.72px;"/>
    </g>
    <g transform="matrix(1.32118,-0.179579,-0.179579,-1.32118,55.0128,1123.6)">
        <path d="M430.206,594.24L455.154,594.24" style="fill:none;fill-rule:nonzero;stroke:black;stroke-width:0.72px;"/>
    </g>
    <g transform="matrix(0.785144,1.07765,1.07765,-0.785144,-437.415,232.279)">
        <path d="M450.767,587.52L471.553,587.52" style="fill:none;fill-rule:nonzero;stroke:black;stroke-width:0.72px;"/>
    </g>
    <g transform="matrix(0.942809,-0.942809,-0.942809,-0.942809,684.686,1271.22)">
        <path d="M463.154,589.08L491.326,589.08" style="fill:none;fill-rule:nonzero;stroke:black;stroke-width:0.72px;"/>
    </g>
    <g transform="matrix(0.643201,1.16793,1.16793,-0.643201,-433.991,68.4757)">
        <path d="M472.434,607.765L492.356,607.765" style="fill:none;fill-rule:nonzero;stroke:black;stroke-width:0.72px;"/>
    </g>
    <g transform="matrix(-1.33295,-0.0318334,-0.0318334,1.33295,1205.25,-578.315)">
        <path d="M454.557,616.765L477.593,616.765" style="fill:none;fill-rule:nonzero;stroke:black;stroke-width:0.72px;"/>
    </g>
    <g transform="matrix(0.692021,-1.13969,-1.13969,-0.692021,965.398,1200.71)">
        <path d="M472.59,625.375L493.38,625.375" style="fill:none;fill-rule:nonzero;stroke:black;stroke-width:0.72px;"/>
    </g>
    <g transform="matrix(1.33333,0,0,1.33333,-57.0778,-592.84)">
        <path d="M472.32,614.88L476.64,614.88L473.76,618.24L469.44,618" style="fill:white;"/>
    </g>
    <g transform="matrix(0.874918,-1.00613,-1.00613,-0.874918,778.021,1243.95)">
        <path d="M446.306,615.09L497.114,615.09" style="fill:none;fill-rule:nonzero;stroke:black;stroke-width:0.72px;"/>
    </g>
    <g transform="matrix(-1.04218,-0.831653,-0.831653,1.04218,1620.3,-65.5444)">
        <path d="M474.727,639.04L490.053,639.04" style="fill:none;fill-rule:nonzero;stroke:black;stroke-width:0.72px;"/>
    </g>
    <g transform="matrix(1.31274,-0.233413,-0.233413,-1.31274,101.515,1154.08)">
        <path d="M488.256,635.67L504.364,635.67" style="fill:none;fill-rule:nonzero;stroke:black;stroke-width:0.72px;"/>
    </g>
    <g transform="matrix(1.32001,0.187987,0.187987,-1.32001,-162.57,950.325)">
        <path d="M486.879,596.235L503.121,596.235" style="fill:none;fill-rule:nonzero;stroke:black;stroke-width:0.72px;"/>
    </g>
    <g transform="matrix(1.32015,0.187022,0.187022,-1.32015,-162.687,950.796)">
        <path d="M487.362,599.595L503.118,599.595" style="fill:none;fill-rule:nonzero;stroke:black;stroke-width:0.72px;"/>
    </g>
    <g transform="matrix(-1.33333,0,0,1.33333,958.602,-590.28)">
        <path d="M340.56,615.6L421.2,615.6" style="fill:none;fill-rule:nonzero;stroke:black;stroke-width:0.72px;"/>
    </g>
    <g transform="matrix(-1.2958,-0.314133,-0.314133,1.2958,1042.09,-458.949)">
        <path d="M340.219,616.533L348.369,616.533L341.124,612.801L342.071,615.006L340.219,616.533Z" style="stroke:black;stroke-width:0.72px;"/>
    </g>
    <g transform="matrix(-0.938153,0.947442,0.947442,0.938153,-67.7615,-557.024)">
        <path d="M230.335,604.8L264.785,604.8" style="fill:none;fill-rule:nonzero;stroke:black;stroke-width:0.72px;"/>
    </g>
    <g transform="matrix(1.32118,-0.179579,-0.179579,-1.32118,52.6453,1088.6)">
        <path d="M235.326,594.24L260.274,594.24" style="fill:none;fill-rule:nonzero;stroke:black;stroke-width:0.72px;"/>
    </g>
    <g transform="matrix(0.785144,1.07765,1.07765,-0.785144,-544.246,442.292)">
        <path d="M255.887,587.52L276.673,587.52" style="fill:none;fill-rule:nonzero;stroke:black;stroke-width:0.72px;"/>
    </g>
    <g transform="matrix(0.942809,-0.942809,-0.942809,-0.942809,608.581,1087.48)">
        <path d="M268.274,589.08L296.446,589.08" style="fill:none;fill-rule:nonzero;stroke:black;stroke-width:0.72px;"/>
    </g>
    <g transform="matrix(0.643201,1.16793,1.16793,-0.643201,-568.484,296.083)">
        <path d="M277.554,607.765L297.476,607.765" style="fill:none;fill-rule:nonzero;stroke:black;stroke-width:0.72px;"/>
    </g>
    <g transform="matrix(-1.33295,-0.0318334,-0.0318334,1.33295,685.64,-584.519)">
        <path d="M259.677,616.765L282.713,616.765" style="fill:none;fill-rule:nonzero;stroke:black;stroke-width:0.72px;"/>
    </g>
    <g transform="matrix(0.692021,-1.13969,-1.13969,-0.692021,840.419,978.609)">
        <path d="M277.71,625.375L298.5,625.375" style="fill:none;fill-rule:nonzero;stroke:black;stroke-width:0.72px;"/>
    </g>
    <g transform="matrix(1.33333,0,0,1.33333,-57.0778,-592.84)">
        <path d="M277.44,614.88L281.76,614.88L278.88,618.24L274.56,618" style="fill:white;"/>
    </g>
    <g transform="matrix(0.874918,-1.00613,-1.00613,-0.874918,688.685,1047.88)">
        <path d="M251.426,615.09L302.234,615.09" style="fill:none;fill-rule:nonzero;stroke:black;stroke-width:0.72px;"/>
    </g>
    <g transform="matrix(-1.04218,-0.831653,-0.831653,1.04218,1157.36,-227.617)">
        <path d="M279.847,639.04L295.173,639.04" style="fill:none;fill-rule:nonzero;stroke:black;stroke-width:0.72px;"/>
    </g>
    <g transform="matrix(1.31274,-0.233413,-0.233413,-1.31274,97.5025,1108.59)">
        <path d="M293.376,635.67L309.484,635.67" style="fill:none;fill-rule:nonzero;stroke:black;stroke-width:0.72px;"/>
    </g>
    <g transform="matrix(1.32001,0.187987,0.187987,-1.32001,-165.165,986.96)">
        <path d="M291.999,596.235L308.241,596.235" style="fill:none;fill-rule:nonzero;stroke:black;stroke-width:0.72px;"/>
    </g>
    <g transform="matrix(1.32015,0.187022,0.187022,-1.32015,-165.256,987.243)">
        <path d="M292.482,599.595L308.238,599.595" style="fill:none;fill-rule:nonzero;stroke:black;stroke-width:0.72px;"/>
    </g>
    <g transform="matrix(-0.103434,1.32932,1.32932,0.103434,-422.861,-126.813)">
        <path d="M261.149,568.71L282.031,568.71" style="fill:none;fill-rule:nonzero;stroke:black;stroke-width:0.72px;"/>
    </g>
    <g transform="matrix(-1.20309,0.57476,0.57476,1.20309,291.137,-512)">
        <path d="M256.083,556.655L270.767,556.655" style="fill:none;fill-rule:nonzero;stroke:black;stroke-width:0.72px;"/>
    </g>
    <g transform="matrix(-1.20286,0.575245,0.575245,1.20286,294.589,-503.843)">
        <path d="M256.003,553.275L272.297,553.275" style="fill:none;fill-rule:nonzero;stroke:black;stroke-width:0.72px;"/>
    </g>
    <g transform="matrix(1.0995,0.754244,0.754244,-1.0995,-410.189,712.847)">
        <path d="M269.459,554.04L284.521,554.04" style="fill:none;fill-rule:nonzero;stroke:black;stroke-width:0.72px;"/>
    </g>
    <g transform="matrix(-1.33333,0,0,1.33333,469.002,-594.12)">
        <path d="M180.72,617.04L213.84,617.04" style="fill:none;fill-rule:nonzero;stroke:black;stroke-width:0.72px;"/>
    </g>
    <g transform="matrix(-1.33333,0,0,1.33333,469.002,-586.44)">
        <path d="M180.72,614.16L213.84,614.16" style="fill:none;fill-rule:nonzero;stroke:black;stroke-width:0.72px;"/>
    </g>
    <g transform="matrix(-1.2958,-0.314133,-0.314133,1.2958,621.399,-505.374)">
        <path d="M180.379,615.093L188.529,615.093L181.284,611.361L182.231,613.566L180.379,615.093Z" style="stroke:black;stroke-width:0.72px;"/>
    </g>
    <g transform="matrix(1.2958,-0.314133,-0.314133,-1.2958,144.633,1094.09)">
        <path d="M205.579,616.107L213.729,616.107L206.484,619.839L207.431,617.634L205.579,616.107Z" style="stroke:black;stroke-width:0.72px;"/>
    </g>
    <g transform="matrix(-0.938153,0.947442,0.947442,0.938153,-421.796,-409.995)">
        <path d="M74.575,605.04L109.025,605.04" style="fill:none;fill-rule:nonzero;stroke:black;stroke-width:0.72px;"/>
    </g>
    <g transform="matrix(1.32118,-0.179579,-0.179579,-1.32118,50.7962,1060.63)">
        <path d="M79.566,594.48L104.514,594.48" style="fill:none;fill-rule:nonzero;stroke:black;stroke-width:0.72px;"/>
    </g>
    <g transform="matrix(0.785144,1.07765,1.07765,-0.785144,-629.891,610.015)">
        <path d="M100.127,587.76L120.913,587.76" style="fill:none;fill-rule:nonzero;stroke:black;stroke-width:0.72px;"/>
    </g>
    <g transform="matrix(0.942809,-0.942809,-0.942809,-0.942809,547.979,940.536)">
        <path d="M112.514,589.32L140.686,589.32" style="fill:none;fill-rule:nonzero;stroke:black;stroke-width:0.72px;"/>
    </g>
    <g transform="matrix(0.643201,1.16793,1.16793,-0.643201,-676.259,477.835)">
        <path d="M121.794,608.005L141.716,608.005" style="fill:none;fill-rule:nonzero;stroke:black;stroke-width:0.72px;"/>
    </g>
    <g transform="matrix(-1.33295,-0.0318334,-0.0318334,1.33295,270.346,-590.117)">
        <path d="M103.917,617.005L126.953,617.005" style="fill:none;fill-rule:nonzero;stroke:black;stroke-width:0.72px;"/>
    </g>
    <g transform="matrix(0.692021,-1.13969,-1.13969,-0.692021,740.801,800.937)">
        <path d="M121.95,625.615L142.74,625.615" style="fill:none;fill-rule:nonzero;stroke:black;stroke-width:0.72px;"/>
    </g>
    <g transform="matrix(1.33333,0,0,1.33333,-57.0778,-593.48)">
        <path d="M121.68,615.12L126,615.12L123.12,618.48L118.8,618.24" style="fill:white;"/>
    </g>
    <g transform="matrix(0.874918,-1.00613,-1.00613,-0.874918,617.524,891.055)">
        <path d="M95.666,615.33L146.474,615.33" style="fill:none;fill-rule:nonzero;stroke:black;stroke-width:0.72px;"/>
    </g>
    <g transform="matrix(-1.04218,-0.831653,-0.831653,1.04218,787.555,-357.725)">
        <path d="M124.087,639.28L139.413,639.28" style="fill:none;fill-rule:nonzero;stroke:black;stroke-width:0.72px;"/>
    </g>
    <g transform="matrix(1.31274,-0.233413,-0.233413,-1.31274,94.3514,1072.23)">
        <path d="M137.616,635.91L153.724,635.91" style="fill:none;fill-rule:nonzero;stroke:black;stroke-width:0.72px;"/>
    </g>
    <g transform="matrix(1.32001,0.187987,0.187987,-1.32001,-167.285,1016.24)">
        <path d="M136.239,596.475L152.481,596.475" style="fill:none;fill-rule:nonzero;stroke:black;stroke-width:0.72px;"/>
    </g>
    <g transform="matrix(1.32015,0.187022,0.187022,-1.32015,-167.354,1016.37)">
        <path d="M136.722,599.835L152.478,599.835" style="fill:none;fill-rule:nonzero;stroke:black;stroke-width:0.72px;"/>
    </g>
    <g transform="matrix(-0.103434,1.32932,1.32932,0.103434,-646.971,79.8968)">
        <path d="M105.389,568.95L126.271,568.95" style="fill:none;fill-rule:nonzero;stroke:black;stroke-width:0.72px;"/>
    </g>
    <g transform="matrix(-0.104066,1.32927,1.32927,0.104066,-642.726,74.1908)">
        <path d="M109.631,569.52L128.849,569.52" style="fill:none;fill-rule:nonzero;stroke:black;stroke-width:0.72px;"/>
    </g>
    <g transform="matrix(1.0993,0.754529,0.754529,-1.0993,-447.015,830.201)">
        <path d="M113.723,554.36L128.497,554.36" style="fill:none;fill-rule:nonzero;stroke:black;stroke-width:0.72px;"/>
    </g>
    <g transform="matrix(-0.0105399,1.33329,1.33329,0.0105399,-454.163,116.958)">
        <path d="M168.359,498.12L229.081,498.12" style="fill:none;fill-rule:nonzero;stroke:black;stroke-width:0.72px;"/>
    </g>
    <g transform="matrix(-0.350823,1.28635,1.28635,0.350823,-329.402,1.40022)">
        <path d="M194.243,472.646L202.452,472.646L195.316,468.71L196.2,470.941L194.243,472.646Z" style="stroke:black;stroke-width:0.72px;"/>
    </g>
    <g transform="matrix(1.33333,0,0,1.33333,-57.0778,-513.48)">
        <path d="M371.52,586.8L386.64,586.8" style="fill:none;fill-rule:nonzero;stroke:black;stroke-width:0.72px;"/>
    </g>
    <g transform="matrix(-0.666796,-1.15463,-1.15463,0.666796,1363.54,290.609)">
        <path d="M361.126,592.8L374.984,592.8" style="fill:none;fill-rule:nonzero;stroke:black;stroke-width:0.72px;"/>
    </g>
    <g transform="matrix(-0.667127,1.15443,1.15443,0.667127,4.8301,-534.326)">
        <path d="M358.945,581.22L373.775,581.22" style="fill:none;fill-rule:nonzero;stroke:black;stroke-width:0.72px;"/>
    </g>
    <g transform="matrix(-0.666267,1.15493,1.15493,0.666267,11.9774,-536.125)">
        <path d="M363.231,580.335L376.219,580.335" style="fill:none;fill-rule:nonzero;stroke:black;stroke-width:0.72px;"/>
    </g>
</svg>
