<?xml version="1.0" encoding="UTF-8" standalone="no"?>
<!DOCTYPE svg PUBLIC "-//W3C//DTD SVG 1.1//EN" "http://www.w3.org/Graphics/SVG/1.1/DTD/svg11.dtd">
<svg width="100%" height="100%" viewBox="0 0 345 95" version="1.1" xmlns="http://www.w3.org/2000/svg" xmlns:xlink="http://www.w3.org/1999/xlink" xml:space="preserve" xmlns:serif="http://www.serif.com/" style="fill-rule:evenodd;clip-rule:evenodd;stroke-linecap:round;stroke-linejoin:round;stroke-miterlimit:10;">
    <g transform="matrix(1.33333,0,0,1.33333,-81.5077,-73.6479)">
        <text x="75.36px" y="96.24px" style="font-family:'ArialMT', 'Arial', sans-serif;font-size:10px;">O</text>
    </g>
    <g transform="matrix(1.33333,0,0,1.33333,-81.5077,-73.6479)">
        <text x="129.84px" y="96.24px" style="font-family:'ArialMT', 'Arial', sans-serif;font-size:10px;">O</text>
    </g>
    <g transform="matrix(1.33333,0,0,1.33333,-81.5077,-73.6479)">
        <text x="130.08px" y="76.32px" style="font-family:'ArialMT', 'Arial', sans-serif;font-size:10px;">CH</text>
        <text x="144.48px" y="78.96px" style="font-family:'ArialMT', 'Arial', sans-serif;font-size:8px;">3</text>
    </g>
    <g transform="matrix(1.33333,0,0,1.33333,-81.5077,-73.6479)">
        <text x="75.6px" y="76.32px" style="font-family:'ArialMT', 'Arial', sans-serif;font-size:10px;">C</text>
    </g>
    <g transform="matrix(1.33333,0,0,1.33333,-81.5077,-73.6479)">
        <text x="64.08px" y="76.32px" style="font-family:'ArialMT', 'Arial', sans-serif;font-size:10px;">H</text>
        <text x="71.28px" y="78.96px" style="font-family:'ArialMT', 'Arial', sans-serif;font-size:8px;">3</text>
    </g>
    <g transform="matrix(1.33333,0,0,1.33333,-81.5077,-73.6479)">
        <text x="303.6px" y="82.56px" style="font-family:'ArialMT', 'Arial', sans-serif;font-size:10px;">T<tspan x="309.84px " y="82.56px ">M</tspan></text>
    </g>
    <g transform="matrix(1.33333,0,0,1.33333,-81.5077,-73.6479)">
        <text x="179.28px" y="65.76px" style="font-family:'ArialMT', 'Arial', sans-serif;font-size:10px;">T</text>
        <text x="185.52px" y="65.76px" style="font-family:'ArialMT', 'Arial', sans-serif;font-size:10px;">i</text>
        <text x="187.921px" y="65.76px" style="font-family:'ArialMT', 'Arial', sans-serif;font-size:10px;">C</text>
        <text x="195.121px" y="65.76px" style="font-family:'ArialMT', 'Arial', sans-serif;font-size:10px;">l</text>
        <text x="197.522px" y="68.4px" style="font-family:'ArialMT', 'Arial', sans-serif;font-size:6px;">2</text>
        <text x="204.035px" y="65.76px" style="font-family:'ArialMT', 'Arial', sans-serif;font-size:10px;"><tspan x="204.035px " y="65.76px ">(</tspan></text>
        <text x="207.38px" y="65.76px" style="font-family:'ArialMT', 'Arial', sans-serif;font-size:10px;">T</text>
        <text x="213.62px" y="65.76px" style="font-family:'ArialMT', 'Arial', sans-serif;font-size:10px;">i</text>
        <text x="216.02px" y="65.76px" style="font-family:'ArialMT', 'Arial', sans-serif;font-size:10px;">C</text>
        <text x="223.221px" y="65.76px" style="font-family:'ArialMT', 'Arial', sans-serif;font-size:10px;">l</text>
        <text x="225.621px" y="68.4px" style="font-family:'ArialMT', 'Arial', sans-serif;font-size:6px;">4</text>
        <text x="232.291px" y="65.76px" style="font-family:'ArialMT', 'Arial', sans-serif;font-size:10px;"><tspan x="232.291px " y="65.76px ">+</tspan></text>
        <text x="240.96px" y="65.76px" style="font-family:'ArialMT', 'Arial', sans-serif;font-size:10px;">M</text>
        <text x="249.36px" y="65.76px" style="font-family:'ArialMT', 'Arial', sans-serif;font-size:10px;">g</text>
        <text x="254.881px" y="65.76px" style="font-family:'ArialMT', 'Arial', sans-serif;font-size:10px;">/</text>
        <text x="257.761px" y="65.76px" style="font-family:'ArialMT', 'Arial', sans-serif;font-size:10px;">Hg)</text>
    </g>
    <g transform="matrix(1.33333,0,0,1.33333,-81.5077,-73.6479)">
        <text x="233.04px" y="97.92px" style="font-family:'ArialMT', 'Arial', sans-serif;font-size:10px;">0</text>
        <text x="241.395px" y="92.88px" style="font-family:'ArialMT', 'Arial', sans-serif;font-size:6px;">o</text>
    </g>
    <g transform="matrix(1.33333,0,0,1.33333,-81.5077,-73.6479)">
        <text x="206.4px" y="123.12px" style="font-family:'ArialMT', 'Arial', sans-serif;font-size:10px;">O</text>
    </g>
    <g transform="matrix(-1.33333,0,0,1.33333,202.652,-1030.13)">
        <path d="M96.6,779.64L116.52,779.64" style="fill:none;fill-rule:nonzero;stroke:black;stroke-width:0.72px;"/>
    </g>
    <g transform="matrix(0,-1.33333,-1.33333,0,1073.53,151.472)">
        <path d="M86.64,769.68L106.56,769.68" style="fill:none;fill-rule:nonzero;stroke:black;stroke-width:0.72px;"/>
    </g>
    <g transform="matrix(0,1.33333,1.33333,0,-952.388,-132.688)">
        <path d="M106.56,769.68L126.48,769.68" style="fill:none;fill-rule:nonzero;stroke:black;stroke-width:0.72px;"/>
    </g>
    <g transform="matrix(-1.15475,0.666586,0.666586,1.15475,-362.749,-896.66)">
        <path d="M83.349,757.845L96.651,757.845" style="fill:none;fill-rule:nonzero;stroke:black;stroke-width:0.72px;"/>
    </g>
    <g transform="matrix(-1.15436,0.667255,0.667255,1.15436,-358.94,-888.554)">
        <path d="M83.217,754.455L98.463,754.455" style="fill:none;fill-rule:nonzero;stroke:black;stroke-width:0.72px;"/>
    </g>
    <g transform="matrix(1.15436,0.667255,0.667255,-1.15436,-563.037,832.293)">
        <path d="M114.657,754.455L129.903,754.455" style="fill:none;fill-rule:nonzero;stroke:black;stroke-width:0.72px;"/>
    </g>
    <g transform="matrix(1.15475,0.666586,0.666586,-1.15475,-564.689,831.501)">
        <path d="M116.469,757.845L129.771,757.845" style="fill:none;fill-rule:nonzero;stroke:black;stroke-width:0.72px;"/>
    </g>
    <g transform="matrix(1.15488,-0.66635,-0.66635,-1.15488,449.071,994.533)">
        <path d="M115.547,763.355L130.093,763.355" style="fill:none;fill-rule:nonzero;stroke:black;stroke-width:0.72px;"/>
    </g>
    <g transform="matrix(-1.15482,-0.666452,-0.666452,1.15482,651.661,-790.509)">
        <path d="M82.768,763.425L97.592,763.425" style="fill:none;fill-rule:nonzero;stroke:black;stroke-width:0.72px;"/>
    </g>
    <g transform="matrix(1.33333,0,0,1.33333,-81.5077,-983.728)">
        <path d="M169.92,762.24L282.96,762.24" style="fill:none;fill-rule:nonzero;stroke:black;stroke-width:0.72px;"/>
    </g>
    <g transform="matrix(1.2958,0.314133,0.314133,-1.2958,-310.481,932.66)">
        <path d="M274.699,763.173L282.849,763.173L275.604,759.441L276.551,761.646L274.699,763.173Z" style="stroke:black;stroke-width:0.72px;"/>
    </g>
    <g transform="matrix(-1.06793,0.79831,0.79831,1.06793,-134.318,-881.371)">
        <path d="M213.897,730.44L227.793,730.44" style="fill:none;fill-rule:nonzero;stroke:black;stroke-width:0.48px;"/>
    </g>
    <g transform="matrix(-0.42966,-1.26221,-1.26221,0.42966,1251.11,18.9175)">
        <path d="M213.239,744.03L233.161,744.03" style="fill:none;fill-rule:nonzero;stroke:black;stroke-width:0.48px;"/>
    </g>
    <g transform="matrix(-1.08921,-0.769025,-0.769025,1.08921,964.071,-566.334)">
        <path d="M192.918,730.185L206.702,730.185" style="fill:none;fill-rule:nonzero;stroke:black;stroke-width:0.48px;"/>
    </g>
    <g transform="matrix(-1.33321,0.0180706,0.0180706,1.33321,464.934,-963.658)">
        <path d="M200.069,753.325L219.991,753.325" style="fill:none;fill-rule:nonzero;stroke:black;stroke-width:0.48px;"/>
    </g>
    <g transform="matrix(0.39423,-1.27372,-1.27372,-0.39423,1050.85,601.607)">
        <path d="M187.165,743.675L207.085,743.675" style="fill:none;fill-rule:nonzero;stroke:black;stroke-width:0.48px;"/>
    </g>
</svg>
