<?xml version="1.0" encoding="UTF-8" standalone="no"?>
<!DOCTYPE svg PUBLIC "-//W3C//DTD SVG 1.1//EN" "http://www.w3.org/Graphics/SVG/1.1/DTD/svg11.dtd">
<svg width="100%" height="100%" viewBox="0 0 530 385" version="1.1" xmlns="http://www.w3.org/2000/svg" xmlns:xlink="http://www.w3.org/1999/xlink" xml:space="preserve" xmlns:serif="http://www.serif.com/" style="fill-rule:evenodd;clip-rule:evenodd;stroke-linecap:round;stroke-linejoin:round;stroke-miterlimit:10;">
    <g transform="matrix(0,-1.33333,-1.33333,0,1148.4,263.507)">
        <path d="M157.29,746.64L177.21,746.64" style="fill:none;fill-rule:nonzero;stroke:black;stroke-width:0.72px;"/>
    </g>
    <g transform="matrix(1.15468,0.666702,0.666702,-1.15468,-549.533,794.213)">
        <path d="M148.666,761.58L168.584,761.58" style="fill:none;fill-rule:nonzero;stroke:black;stroke-width:0.72px;"/>
    </g>
    <g transform="matrix(1.15468,-0.666702,-0.666702,-1.15468,446.04,1011.06)">
        <path d="M148.666,731.7L168.584,731.7" style="fill:none;fill-rule:nonzero;stroke:black;stroke-width:0.72px;"/>
    </g>
    <g transform="matrix(1.15468,-0.666702,-0.666702,-1.15468,462.879,994.224)">
        <path d="M131.416,761.58L151.334,761.58" style="fill:none;fill-rule:nonzero;stroke:black;stroke-width:0.72px;"/>
    </g>
    <g transform="matrix(1.15468,0.666702,0.666702,-1.15468,-532.694,811.052)">
        <path d="M131.416,731.7L151.334,731.7" style="fill:none;fill-rule:nonzero;stroke:black;stroke-width:0.72px;"/>
    </g>
    <g transform="matrix(1.15468,0.666702,0.666702,-1.15468,-555.696,817.214)">
        <path d="M114.166,761.58L134.084,761.58" style="fill:none;fill-rule:nonzero;stroke:black;stroke-width:0.72px;"/>
    </g>
    <g transform="matrix(1.15468,-0.666702,-0.666702,-1.15468,456.716,971.222)">
        <path d="M96.916,761.58L116.834,761.58" style="fill:none;fill-rule:nonzero;stroke:black;stroke-width:0.72px;"/>
    </g>
    <g transform="matrix(1.15468,-0.666702,-0.666702,-1.15468,439.877,988.061)">
        <path d="M114.166,731.7L134.084,731.7" style="fill:none;fill-rule:nonzero;stroke:black;stroke-width:0.72px;"/>
    </g>
    <g transform="matrix(1.15468,0.666702,0.666702,-1.15468,-538.857,834.053)">
        <path d="M96.916,731.7L116.834,731.7" style="fill:none;fill-rule:nonzero;stroke:black;stroke-width:0.72px;"/>
    </g>
    <g transform="matrix(1.26822,0.411585,0.411585,-1.26822,-377.015,950.022)">
        <path d="M78.814,759.675L98.736,759.675" style="fill:none;fill-rule:nonzero;stroke:black;stroke-width:0.72px;"/>
    </g>
    <g transform="matrix(0.783512,-1.07884,-1.07884,-0.783512,784.452,700.321)">
        <path d="M63.495,754.695L83.405,754.695" style="fill:none;fill-rule:nonzero;stroke:black;stroke-width:0.72px;"/>
    </g>
    <g transform="matrix(1.26802,-0.41219,-0.41219,-1.26802,238.056,1024.71)">
        <path d="M78.812,733.6L98.738,733.6" style="fill:none;fill-rule:nonzero;stroke:black;stroke-width:0.72px;"/>
    </g>
    <g transform="matrix(-0.783194,-1.07907,-1.07907,0.783194,882.311,-447.94)">
        <path d="M63.491,738.58L83.409,738.58" style="fill:none;fill-rule:nonzero;stroke:black;stroke-width:0.72px;"/>
    </g>
    <g transform="matrix(1.15487,-0.666378,-0.666378,-1.15487,467.359,1015.91)">
        <path d="M166.302,760.14L180.468,760.14" style="fill:none;fill-rule:nonzero;stroke:black;stroke-width:0.72px;"/>
    </g>
    <g transform="matrix(1.15466,0.666729,0.666729,-1.15466,-526.897,790.021)">
        <path d="M165.396,731.445L180.534,731.445" style="fill:none;fill-rule:nonzero;stroke:black;stroke-width:0.72px;"/>
    </g>
    <g transform="matrix(1.1551,0.665976,0.665976,-1.1551,-528.529,789.305)">
        <path d="M167.208,734.835L180.402,734.835" style="fill:none;fill-rule:nonzero;stroke:black;stroke-width:0.72px;"/>
    </g>
    <g transform="matrix(1.33333,0,0,1.33333,-70.1247,-950.533)">
        <path d="M209.28,744.96L243.36,744.96" style="fill:none;fill-rule:nonzero;stroke:black;stroke-width:0.72px;"/>
    </g>
    <g transform="matrix(1.33333,0,0,1.33333,-70.1247,-958.213)">
        <path d="M209.28,747.84L243.36,747.84" style="fill:none;fill-rule:nonzero;stroke:black;stroke-width:0.72px;"/>
    </g>
    <g transform="matrix(1.2958,0.314133,0.314133,-1.2958,-296.061,932.755)">
        <path d="M235.099,748.773L243.249,748.773L236.004,745.041L236.951,747.246L235.099,748.773Z" style="stroke:black;stroke-width:0.72px;"/>
    </g>
    <g transform="matrix(-1.2958,0.314133,0.314133,1.2958,256.495,-989.558)">
        <path d="M208.939,744.027L217.089,744.027L209.844,747.759L210.791,745.554L208.939,744.027Z" style="stroke:black;stroke-width:0.72px;"/>
    </g>
    <g transform="matrix(0,-1.33333,-1.33333,0,1406.96,522.067)">
        <path d="M351.21,746.64L371.13,746.64" style="fill:none;fill-rule:nonzero;stroke:black;stroke-width:0.72px;"/>
    </g>
    <g transform="matrix(0,-1.33333,-1.33333,0,1402.48,517.587)">
        <path d="M349.51,746.64L366.11,746.64" style="fill:none;fill-rule:nonzero;stroke:black;stroke-width:0.72px;"/>
    </g>
    <g transform="matrix(1.15468,0.666702,0.666702,-1.15468,-514.888,664.926)">
        <path d="M342.586,761.58L362.504,761.58" style="fill:none;fill-rule:nonzero;stroke:black;stroke-width:0.72px;"/>
    </g>
    <g transform="matrix(1.15468,-0.666702,-0.666702,-1.15468,480.685,1140.35)">
        <path d="M342.586,731.7L362.504,731.7" style="fill:none;fill-rule:nonzero;stroke:black;stroke-width:0.72px;"/>
    </g>
    <g transform="matrix(1.15468,-0.666702,-0.666702,-1.15468,497.524,1123.51)">
        <path d="M325.336,761.58L345.254,761.58" style="fill:none;fill-rule:nonzero;stroke:black;stroke-width:0.72px;"/>
    </g>
    <g transform="matrix(1.15468,0.666702,0.666702,-1.15468,-498.049,681.765)">
        <path d="M325.336,731.7L345.254,731.7" style="fill:none;fill-rule:nonzero;stroke:black;stroke-width:0.72px;"/>
    </g>
    <g transform="matrix(1.15468,0.666702,0.666702,-1.15468,-521.052,687.927)">
        <path d="M308.086,761.58L328.004,761.58" style="fill:none;fill-rule:nonzero;stroke:black;stroke-width:0.72px;"/>
    </g>
    <g transform="matrix(1.15468,-0.666702,-0.666702,-1.15468,491.36,1100.51)">
        <path d="M290.836,761.58L310.754,761.58" style="fill:none;fill-rule:nonzero;stroke:black;stroke-width:0.72px;"/>
    </g>
    <g transform="matrix(1.15468,-0.666702,-0.666702,-1.15468,474.521,1117.35)">
        <path d="M308.086,731.7L328.004,731.7" style="fill:none;fill-rule:nonzero;stroke:black;stroke-width:0.72px;"/>
    </g>
    <g transform="matrix(1.15468,0.666702,0.666702,-1.15468,-504.213,704.766)">
        <path d="M290.836,731.7L310.754,731.7" style="fill:none;fill-rule:nonzero;stroke:black;stroke-width:0.72px;"/>
    </g>
    <g transform="matrix(1.26822,0.411585,0.411585,-1.26822,-364.388,870.208)">
        <path d="M272.734,759.675L292.656,759.675" style="fill:none;fill-rule:nonzero;stroke:black;stroke-width:0.72px;"/>
    </g>
    <g transform="matrix(0.783512,-1.07884,-1.07884,-0.783512,891.073,909.528)">
        <path d="M257.415,754.695L277.325,754.695" style="fill:none;fill-rule:nonzero;stroke:black;stroke-width:0.72px;"/>
    </g>
    <g transform="matrix(1.26802,-0.41219,-0.41219,-1.26802,250.722,1104.64)">
        <path d="M272.732,733.6L292.658,733.6" style="fill:none;fill-rule:nonzero;stroke:black;stroke-width:0.72px;"/>
    </g>
    <g transform="matrix(-0.783194,-1.07907,-1.07907,0.783194,1292.75,-238.687)">
        <path d="M257.411,738.58L277.329,738.58" style="fill:none;fill-rule:nonzero;stroke:black;stroke-width:0.72px;"/>
    </g>
    <g transform="matrix(1.15487,-0.666378,-0.666378,-1.15487,501.967,1145.13)">
        <path d="M360.222,760.14L374.388,760.14" style="fill:none;fill-rule:nonzero;stroke:black;stroke-width:0.72px;"/>
    </g>
    <g transform="matrix(1.15487,0.666378,0.666378,-1.15487,-493.122,660.423)">
        <path d="M360.222,733.14L374.388,733.14" style="fill:none;fill-rule:nonzero;stroke:black;stroke-width:0.72px;"/>
    </g>
    <g transform="matrix(0,1.33333,1.33333,0,-527.885,-352.293)">
        <path d="M331.8,692.28L366.12,692.28" style="fill:none;fill-rule:nonzero;stroke:black;stroke-width:0.72px;"/>
    </g>
    <g transform="matrix(0,1.33333,1.33333,0,-524.045,-356.133)">
        <path d="M334.68,692.28L369,692.28" style="fill:none;fill-rule:nonzero;stroke:black;stroke-width:0.72px;"/>
    </g>
    <g transform="matrix(1.33333,0,0,1.33333,-70.1247,-765.893)">
        <path d="M354,671.76L350.4,679.68L346.8,671.76" style="fill:none;fill-rule:nonzero;stroke:black;stroke-width:0.72px;"/>
    </g>
    <g transform="matrix(0,-1.33333,-1.33333,0,1329.52,745.427)">
        <path d="M405.93,633.84L425.85,633.84" style="fill:none;fill-rule:nonzero;stroke:black;stroke-width:0.72px;"/>
    </g>
    <g transform="matrix(1.15468,0.666702,0.666702,-1.15468,-429.909,648.596)">
        <path d="M397.306,648.78L417.224,648.78" style="fill:none;fill-rule:nonzero;stroke:black;stroke-width:0.72px;"/>
    </g>
    <g transform="matrix(1.15468,-0.666702,-0.666702,-1.15468,415.257,1196.98)">
        <path d="M397.306,618.9L417.224,618.9" style="fill:none;fill-rule:nonzero;stroke:black;stroke-width:0.72px;"/>
    </g>
    <g transform="matrix(1.15468,-0.666702,-0.666702,-1.15468,432.096,1180.14)">
        <path d="M380.056,648.78L399.974,648.78" style="fill:none;fill-rule:nonzero;stroke:black;stroke-width:0.72px;"/>
    </g>
    <g transform="matrix(1.15468,0.666702,0.666702,-1.15468,-413.069,665.435)">
        <path d="M380.056,618.9L399.974,618.9" style="fill:none;fill-rule:nonzero;stroke:black;stroke-width:0.72px;"/>
    </g>
    <g transform="matrix(1.15468,0.666702,0.666702,-1.15468,-436.072,671.598)">
        <path d="M362.806,648.78L382.724,648.78" style="fill:none;fill-rule:nonzero;stroke:black;stroke-width:0.72px;"/>
    </g>
    <g transform="matrix(1.15468,-0.666702,-0.666702,-1.15468,425.932,1157.14)">
        <path d="M345.556,648.78L365.474,648.78" style="fill:none;fill-rule:nonzero;stroke:black;stroke-width:0.72px;"/>
    </g>
    <g transform="matrix(1.15468,-0.666702,-0.666702,-1.15468,409.093,1173.98)">
        <path d="M362.806,618.9L382.724,618.9" style="fill:none;fill-rule:nonzero;stroke:black;stroke-width:0.72px;"/>
    </g>
    <g transform="matrix(1.15468,0.666702,0.666702,-1.15468,-419.233,688.436)">
        <path d="M345.556,618.9L365.474,618.9" style="fill:none;fill-rule:nonzero;stroke:black;stroke-width:0.72px;"/>
    </g>
    <g transform="matrix(1.26822,0.411585,0.411585,-1.26822,-314.398,855.031)">
        <path d="M327.454,646.875L347.376,646.875" style="fill:none;fill-rule:nonzero;stroke:black;stroke-width:0.72px;"/>
    </g>
    <g transform="matrix(0.783512,-1.07884,-1.07884,-0.783512,799.467,1030.58)">
        <path d="M312.135,641.895L332.045,641.895" style="fill:none;fill-rule:nonzero;stroke:black;stroke-width:0.72px;"/>
    </g>
    <g transform="matrix(1.26802,-0.41219,-0.41219,-1.26802,207.801,1134.56)">
        <path d="M327.452,620.8L347.378,620.8" style="fill:none;fill-rule:nonzero;stroke:black;stroke-width:0.72px;"/>
    </g>
    <g transform="matrix(-0.783194,-1.07907,-1.07907,0.783194,1286.85,59.1038)">
        <path d="M312.131,625.78L332.049,625.78" style="fill:none;fill-rule:nonzero;stroke:black;stroke-width:0.72px;"/>
    </g>
    <g transform="matrix(1.15487,-0.666378,-0.666378,-1.15487,436.566,1201.73)">
        <path d="M414.942,647.34L429.108,647.34" style="fill:none;fill-rule:nonzero;stroke:black;stroke-width:0.72px;"/>
    </g>
    <g transform="matrix(1.15487,0.666378,0.666378,-1.15487,-408.188,644.09)">
        <path d="M414.942,620.34L429.108,620.34" style="fill:none;fill-rule:nonzero;stroke:black;stroke-width:0.72px;"/>
    </g>
    <g transform="matrix(0,-1.33333,-1.33333,0,1352.64,722.307)">
        <path d="M408.51,651.18L423.27,651.18" style="fill:none;fill-rule:nonzero;stroke:black;stroke-width:0.72px;"/>
    </g>
    <g transform="matrix(1.15487,-0.666378,-0.666378,-1.15487,423.291,1205.28)">
        <path d="M414.942,627.42L429.108,627.42" style="fill:none;fill-rule:nonzero;stroke:black;stroke-width:0.72px;"/>
    </g>
    <g transform="matrix(1.15468,0.666702,0.666702,-1.15468,-354.17,668.034)">
        <path d="M398.506,535.5L418.424,535.5" style="fill:none;fill-rule:nonzero;stroke:black;stroke-width:0.72px;"/>
    </g>
    <g transform="matrix(1.15468,-0.666702,-0.666702,-1.15468,339.947,1218.02)">
        <path d="M398.506,505.62L418.424,505.62" style="fill:none;fill-rule:nonzero;stroke:black;stroke-width:0.72px;"/>
    </g>
    <g transform="matrix(1.15468,-0.666702,-0.666702,-1.15468,356.786,1201.18)">
        <path d="M381.256,535.5L401.174,535.5" style="fill:none;fill-rule:nonzero;stroke:black;stroke-width:0.72px;"/>
    </g>
    <g transform="matrix(1.15468,0.666702,0.666702,-1.15468,-337.331,684.873)">
        <path d="M381.256,505.62L401.174,505.62" style="fill:none;fill-rule:nonzero;stroke:black;stroke-width:0.72px;"/>
    </g>
    <g transform="matrix(1.15468,0.666702,0.666702,-1.15468,-360.334,691.035)">
        <path d="M364.006,535.5L383.924,535.5" style="fill:none;fill-rule:nonzero;stroke:black;stroke-width:0.72px;"/>
    </g>
    <g transform="matrix(1.15468,-0.666702,-0.666702,-1.15468,350.623,1178.18)">
        <path d="M346.756,535.5L366.674,535.5" style="fill:none;fill-rule:nonzero;stroke:black;stroke-width:0.72px;"/>
    </g>
    <g transform="matrix(1.15468,-0.666702,-0.666702,-1.15468,333.783,1195.02)">
        <path d="M364.006,505.62L383.924,505.62" style="fill:none;fill-rule:nonzero;stroke:black;stroke-width:0.72px;"/>
    </g>
    <g transform="matrix(1.15468,0.666702,0.666702,-1.15468,-343.494,707.874)">
        <path d="M346.756,505.62L366.674,505.62" style="fill:none;fill-rule:nonzero;stroke:black;stroke-width:0.72px;"/>
    </g>
    <g transform="matrix(1.26822,0.411585,0.411585,-1.26822,-267.695,861.913)">
        <path d="M328.654,533.595L348.576,533.595" style="fill:none;fill-rule:nonzero;stroke:black;stroke-width:0.72px;"/>
    </g>
    <g transform="matrix(0.783512,-1.07884,-1.07884,-0.783512,677.916,1094.16)">
        <path d="M313.335,528.615L333.245,528.615" style="fill:none;fill-rule:nonzero;stroke:black;stroke-width:0.72px;"/>
    </g>
    <g transform="matrix(1.26802,-0.41219,-0.41219,-1.26802,161.186,1142.45)">
        <path d="M328.652,507.52L348.578,507.52" style="fill:none;fill-rule:nonzero;stroke:black;stroke-width:0.72px;"/>
    </g>
    <g transform="matrix(-0.783194,-1.07907,-1.07907,0.783194,1167.15,300.159)">
        <path d="M313.331,512.5L333.249,512.5" style="fill:none;fill-rule:nonzero;stroke:black;stroke-width:0.72px;"/>
    </g>
    <g transform="matrix(1.15487,-0.666378,-0.666378,-1.15487,361.293,1222.74)">
        <path d="M416.142,534.06L430.308,534.06" style="fill:none;fill-rule:nonzero;stroke:black;stroke-width:0.72px;"/>
    </g>
    <g transform="matrix(1.15487,0.666378,0.666378,-1.15487,-332.487,663.507)">
        <path d="M416.142,507.06L430.308,507.06" style="fill:none;fill-rule:nonzero;stroke:black;stroke-width:0.72px;"/>
    </g>
    <g transform="matrix(0,-1.33333,-1.33333,0,1203.2,874.947)">
        <path d="M409.71,537.9L424.47,537.9" style="fill:none;fill-rule:nonzero;stroke:black;stroke-width:0.72px;"/>
    </g>
    <g transform="matrix(1.15487,-0.666378,-0.666378,-1.15487,348.018,1226.3)">
        <path d="M416.142,514.14L430.308,514.14" style="fill:none;fill-rule:nonzero;stroke:black;stroke-width:0.72px;"/>
    </g>
    <g transform="matrix(1.33333,0,0,1.33333,-70.1247,-381.253)">
        <path d="M413.04,533.52L412.32,534.48L411.36,535.44L410.4,536.16L409.2,536.64L406.8,537.12L405.6,536.88L404.64,536.64L402.72,535.68L401.76,534.96L401.04,534.24L399.6,531.36L399.6,530.16L399.36,529.68L399.84,527.76L400.56,525.84" style="fill:none;fill-rule:nonzero;stroke:black;stroke-width:0.48px;"/>
    </g>
    <g transform="matrix(0.70315,-1.13285,-1.13285,-0.70315,784.796,1151.44)">
        <path d="M394.814,533.356L403.006,533.356L395.819,529.461L396.895,531.824L394.814,533.356Z" style="stroke:black;stroke-width:0.48px;"/>
    </g>
    <g transform="matrix(1.33333,0,0,1.33333,-70.1247,-86.5325)">
        <text x="180.48px" y="79.2px" style="font-family:'ArialMT', 'Arial', sans-serif;font-size:10px;">O<tspan x="188.4px " y="79.2px ">H</tspan></text>
    </g>
    <g transform="matrix(1.33333,0,0,1.33333,-70.1247,-86.5325)">
        <text x="180.48px" y="119.28px" style="font-family:'ArialMT', 'Arial', sans-serif;font-size:10px;">O</text>
    </g>
    <g transform="matrix(1.33333,0,0,1.33333,-70.1247,-86.5325)">
        <text x="374.4px" y="79.2px" style="font-family:'ArialMT', 'Arial', sans-serif;font-size:10px;">O<tspan x="382.32px " y="79.2px ">H</tspan></text>
    </g>
    <g transform="matrix(1.33333,0,0,1.33333,-70.1247,-86.5325)">
        <text x="374.4px" y="119.28px" style="font-family:'ArialMT', 'Arial', sans-serif;font-size:10px;">O<tspan x="382.32px " y="119.28px ">H</tspan></text>
    </g>
    <g transform="matrix(1.33333,0,0,1.33333,-70.1247,-86.5325)">
        <text x="429.12px" y="192px" style="font-family:'ArialMT', 'Arial', sans-serif;font-size:10px;">O<tspan x="437.04px " y="192px ">H</tspan></text>
    </g>
    <g transform="matrix(1.33333,0,0,1.33333,-70.1247,-86.5325)">
        <text x="429.12px" y="232.08px" style="font-family:'ArialMT', 'Arial', sans-serif;font-size:10px;">O<tspan x="437.04px " y="232.08px ">H</tspan></text>
    </g>
    <g transform="matrix(1.33333,0,0,1.33333,-70.1247,-86.5325)">
        <text x="411.84px" y="182.16px" style="font-family:'ArialMT', 'Arial', sans-serif;font-size:10px;">O</text>
        <text x="419.76px" y="182.16px" style="font-family:'ArialMT', 'Arial', sans-serif;font-size:10px;">Et</text>
    </g>
    <g transform="matrix(1.33333,0,0,1.33333,-70.1247,-86.5325)">
        <text x="429.12px" y="212.16px" style="font-family:'ArialMT', 'Arial', sans-serif;font-size:10px;">O</text>
        <text x="437.04px" y="212.16px" style="font-family:'ArialMT', 'Arial', sans-serif;font-size:10px;">Et</text>
    </g>
    <g transform="matrix(1.33333,0,0,1.33333,-70.1247,-86.5325)">
        <text x="430.32px" y="305.28px" style="font-family:'ArialMT', 'Arial', sans-serif;font-size:10px;">O<tspan x="438.24px " y="305.28px ">H</tspan></text>
    </g>
    <g transform="matrix(1.33333,0,0,1.33333,-70.1247,-86.5325)">
        <text x="430.32px" y="345.36px" style="font-family:'ArialMT', 'Arial', sans-serif;font-size:10px;">O<tspan x="438.24px " y="345.36px ">H</tspan></text>
    </g>
    <g transform="matrix(1.33333,0,0,1.33333,-70.1247,-86.5325)">
        <text x="413.04px" y="295.44px" style="font-family:'ArialMT', 'Arial', sans-serif;font-size:10px;">O</text>
        <text x="420.96px" y="295.44px" style="font-family:'ArialMT', 'Arial', sans-serif;font-size:10px;">Et</text>
    </g>
    <g transform="matrix(1.33333,0,0,1.33333,-70.1247,-86.5325)">
        <text x="430.32px" y="325.44px" style="font-family:'ArialMT', 'Arial', sans-serif;font-size:10px;">O</text>
        <text x="438.24px" y="325.44px" style="font-family:'ArialMT', 'Arial', sans-serif;font-size:10px;">Et</text>
    </g>
    <g transform="matrix(1.33333,0,0,1.33333,-70.1247,-86.5325)">
        <text x="221.28px" y="306.48px" style="font-family:'ArialMT', 'Arial', sans-serif;font-size:10px;">O</text>
    </g>
    <g transform="matrix(1.33333,0,0,1.33333,-70.1247,-86.5325)">
        <text x="221.28px" y="346.56px" style="font-family:'ArialMT', 'Arial', sans-serif;font-size:10px;">O</text>
    </g>
    <g transform="matrix(1.33333,0,0,1.33333,-70.1247,-86.5325)">
        <text x="204px" y="296.64px" style="font-family:'ArialMT', 'Arial', sans-serif;font-size:10px;">O</text>
        <text x="211.92px" y="296.64px" style="font-family:'ArialMT', 'Arial', sans-serif;font-size:10px;">Et</text>
    </g>
    <g transform="matrix(1.33333,0,0,1.33333,-70.1247,-86.5325)">
        <text x="221.28px" y="326.64px" style="font-family:'ArialMT', 'Arial', sans-serif;font-size:10px;">O</text>
        <text x="229.2px" y="326.64px" style="font-family:'ArialMT', 'Arial', sans-serif;font-size:10px;">Et</text>
    </g>
    <g transform="matrix(1.33333,0,0,1.33333,-70.1247,-86.5325)">
        <text x="81.6px" y="328.08px" style="font-family:'ArialMT', 'Arial', sans-serif;font-size:18px;">+</text>
    </g>
    <g transform="matrix(1.33333,0,0,1.33333,-70.1247,-86.5325)">
        <text x="54.72px" y="325.44px" style="font-family:'ArialMT', 'Arial', sans-serif;font-size:10px;">2</text>
        <text x="60.24px" y="325.44px" style="font-family:'ArialMT', 'Arial', sans-serif;font-size:10px;">e</text>
        <text x="66px" y="318.48px" style="font-family:'ArialMT', 'Arial', sans-serif;font-size:8px;">-</text>
    </g>
    <g transform="matrix(0.0162671,1.33323,-1.33323,0.0162671,-70.1247,-86.5325)">
        <text x="69.309px" y="-182.288px" style="font-family:'ArialMT', 'Arial', sans-serif;font-size:10px;">:</text>
    </g>
    <g transform="matrix(-0.0233344,1.33313,-1.33313,-0.0233344,-70.1247,-86.5325)">
        <text x="77.005px" y="-184.976px" style="font-family:'ArialMT', 'Arial', sans-serif;font-size:10px;">:</text>
    </g>
    <g transform="matrix(0.0162671,1.33323,-1.33323,0.0162671,-70.1247,-86.5325)">
        <text x="109.629px" y="-182.036px" style="font-family:'ArialMT', 'Arial', sans-serif;font-size:10px;">:</text>
    </g>
    <g transform="matrix(-0.0186667,1.3332,-1.3332,-0.0186667,-70.1247,-86.5325)">
        <text x="116.811px" y="-185.013px" style="font-family:'ArialMT', 'Arial', sans-serif;font-size:10px;">:</text>
    </g>
    <g transform="matrix(-0.0115996,1.33328,-1.33328,-0.0115996,-70.1247,-86.5325)">
        <text x="116.393px" y="-378.307px" style="font-family:'ArialMT', 'Arial', sans-serif;font-size:10px;">:</text>
    </g>
    <g transform="matrix(-0.0186667,1.3332,-1.3332,-0.0186667,-70.1247,-86.5325)">
        <text x="75.224px" y="-378.13px" style="font-family:'ArialMT', 'Arial', sans-serif;font-size:10px;">:</text>
    </g>
    <g transform="matrix(0.0140006,1.33326,-1.33326,0.0140006,-70.1247,-86.5325)">
        <text x="70.778px" y="-376.558px" style="font-family:'ArialMT', 'Arial', sans-serif;font-size:10px;">:</text>
    </g>
    <g transform="matrix(-0.0186667,1.3332,-1.3332,-0.0186667,-70.1247,-86.5325)">
        <text x="100.898px" y="-378.73px" style="font-family:'ArialMT', 'Arial', sans-serif;font-size:10px;">:</text>
    </g>
    <g transform="matrix(1.33333,0,0,1.33333,-70.1247,-86.5325)">
        <text x="409.2px" y="294.72px" style="font-family:'ArialMT', 'Arial', sans-serif;font-size:10px;">:</text>
    </g>
    <g transform="matrix(1.33333,0,0,1.33333,-70.1247,-293.893)">
        <path d="M432.48,502.08L431.76,503.04L431.04,503.76L429.12,505.2L426.72,506.16L425.52,506.4L423.12,506.4L422.16,506.16L420.96,505.92L419.04,504.96L418.08,504.24L416.64,502.8L415.92,501.84L414.96,499.92L414.72,498.72L414.48,497.76L414.48,495.12L415.44,492.24L416.16,491.04" style="fill:none;fill-rule:nonzero;stroke:black;stroke-width:0.48px;"/>
    </g>
    <g transform="matrix(0.774984,-1.08498,-1.08498,-0.774984,705.904,1204.48)">
        <path d="M410.217,502.738L418.475,502.738L411.137,498.972L412.198,501.204L410.217,502.738Z" style="stroke:black;stroke-width:0.48px;"/>
    </g>
    <g transform="matrix(1.33333,0,0,1.33333,-70.1247,-328.133)">
        <path d="M400.32,517.44L399.36,513.84L399.6,512.64L399.84,511.68L400.08,510.48L400.56,509.52L402,508.08L402.96,507.36L403.68,506.64L404.88,506.16L405.84,505.92L407.04,505.92L407.52,505.68L409.2,505.92L410.64,506.4L412.08,507.36L413.28,508.32L414.24,509.52L414.72,510.24" style="fill:none;fill-rule:nonzero;stroke:black;stroke-width:0.48px;"/>
    </g>
    <g transform="matrix(0.501836,1.23529,1.23529,-0.501836,-367.958,119.135)">
        <path d="M395.062,509.336L403.352,509.336L396.063,513.074L397.209,510.795L395.062,509.336Z" style="stroke:black;stroke-width:0.48px;"/>
    </g>
    <g transform="matrix(0,1.33333,1.33333,0,-370.445,-198.693)">
        <path d="M333.96,575.64L366.84,575.64" style="fill:none;fill-rule:nonzero;stroke:black;stroke-width:0.72px;"/>
    </g>
    <g transform="matrix(0,1.33333,1.33333,0,-366.605,-202.533)">
        <path d="M336.84,575.64L369.72,575.64" style="fill:none;fill-rule:nonzero;stroke:black;stroke-width:0.72px;"/>
    </g>
    <g transform="matrix(1.33333,0,0,1.33333,-70.1247,-456.773)">
        <path d="M355.44,555.84L351.84,563.76L348.24,555.84" style="fill:none;fill-rule:nonzero;stroke:black;stroke-width:0.72px;"/>
    </g>
    <g transform="matrix(-1.33333,0,0,1.33333,675.475,-357.253)">
        <path d="M262.8,522.48L296.4,522.48" style="fill:none;fill-rule:nonzero;stroke:black;stroke-width:0.72px;"/>
    </g>
    <g transform="matrix(-1.33333,0,0,1.33333,675.475,-349.573)">
        <path d="M262.8,519.6L296.4,519.6" style="fill:none;fill-rule:nonzero;stroke:black;stroke-width:0.72px;"/>
    </g>
    <g transform="matrix(1.33333,0,0,1.33333,-70.1247,-353.413)">
        <path d="M267.36,524.64L259.44,521.04L267.36,517.44" style="fill:none;fill-rule:nonzero;stroke:black;stroke-width:0.72px;"/>
    </g>
    <g transform="matrix(1.15468,0.666702,0.666702,-1.15468,-390.716,807.616)">
        <path d="M189.466,534.3L209.384,534.3" style="fill:none;fill-rule:nonzero;stroke:black;stroke-width:0.72px;"/>
    </g>
    <g transform="matrix(1.15468,-0.666702,-0.666702,-1.15468,301.801,1078.87)">
        <path d="M189.466,504.42L209.384,504.42" style="fill:none;fill-rule:nonzero;stroke:black;stroke-width:0.72px;"/>
    </g>
    <g transform="matrix(1.15468,-0.666702,-0.666702,-1.15468,318.64,1062.03)">
        <path d="M172.216,534.3L192.134,534.3" style="fill:none;fill-rule:nonzero;stroke:black;stroke-width:0.72px;"/>
    </g>
    <g transform="matrix(1.15468,0.666702,0.666702,-1.15468,-373.876,824.455)">
        <path d="M172.216,504.42L192.134,504.42" style="fill:none;fill-rule:nonzero;stroke:black;stroke-width:0.72px;"/>
    </g>
    <g transform="matrix(1.15468,0.666702,0.666702,-1.15468,-396.879,830.617)">
        <path d="M154.966,534.3L174.884,534.3" style="fill:none;fill-rule:nonzero;stroke:black;stroke-width:0.72px;"/>
    </g>
    <g transform="matrix(1.15468,-0.666702,-0.666702,-1.15468,312.477,1039.03)">
        <path d="M137.716,534.3L157.634,534.3" style="fill:none;fill-rule:nonzero;stroke:black;stroke-width:0.72px;"/>
    </g>
    <g transform="matrix(1.15468,-0.666702,-0.666702,-1.15468,295.638,1055.87)">
        <path d="M154.966,504.42L174.884,504.42" style="fill:none;fill-rule:nonzero;stroke:black;stroke-width:0.72px;"/>
    </g>
    <g transform="matrix(1.15468,0.666702,0.666702,-1.15468,-380.04,847.456)">
        <path d="M137.716,504.42L157.634,504.42" style="fill:none;fill-rule:nonzero;stroke:black;stroke-width:0.72px;"/>
    </g>
    <g transform="matrix(1.26822,0.411585,0.411585,-1.26822,-280.813,948.029)">
        <path d="M119.614,532.395L139.536,532.395" style="fill:none;fill-rule:nonzero;stroke:black;stroke-width:0.72px;"/>
    </g>
    <g transform="matrix(0.783512,-1.07884,-1.07884,-0.783512,561.687,869.3)">
        <path d="M104.295,527.415L124.205,527.415" style="fill:none;fill-rule:nonzero;stroke:black;stroke-width:0.72px;"/>
    </g>
    <g transform="matrix(1.26802,-0.41219,-0.41219,-1.26802,147.038,1056.37)">
        <path d="M119.612,506.32L139.538,506.32" style="fill:none;fill-rule:nonzero;stroke:black;stroke-width:0.72px;"/>
    </g>
    <g transform="matrix(-0.783194,-1.07907,-1.07907,0.783194,723.415,77.1306)">
        <path d="M104.291,511.3L124.209,511.3" style="fill:none;fill-rule:nonzero;stroke:black;stroke-width:0.72px;"/>
    </g>
    <g transform="matrix(1.1551,-0.665976,-0.665976,-1.1551,321.868,1084.28)">
        <path d="M208.008,531.165L221.202,531.165" style="fill:none;fill-rule:nonzero;stroke:black;stroke-width:0.72px;"/>
    </g>
    <g transform="matrix(1.15466,-0.666729,-0.666729,-1.15466,324.472,1083.04)">
        <path d="M206.196,534.555L221.334,534.555" style="fill:none;fill-rule:nonzero;stroke:black;stroke-width:0.72px;"/>
    </g>
    <g transform="matrix(1.15466,0.666729,0.666729,-1.15466,-368.073,803.426)">
        <path d="M206.196,504.165L221.334,504.165" style="fill:none;fill-rule:nonzero;stroke:black;stroke-width:0.72px;"/>
    </g>
    <g transform="matrix(1.1551,0.665976,0.665976,-1.1551,-369.894,802.642)">
        <path d="M208.008,507.555L221.202,507.555" style="fill:none;fill-rule:nonzero;stroke:black;stroke-width:0.72px;"/>
    </g>
    <g transform="matrix(0,-1.33333,-1.33333,0,922.875,597.827)">
        <path d="M200.67,536.7L215.43,536.7" style="fill:none;fill-rule:nonzero;stroke:black;stroke-width:0.72px;"/>
    </g>
    <g transform="matrix(1.15487,-0.666378,-0.666378,-1.15487,309.912,1087.21)">
        <path d="M207.102,512.94L221.268,512.94" style="fill:none;fill-rule:nonzero;stroke:black;stroke-width:0.72px;"/>
    </g>
    <g transform="matrix(0.924502,-0.960767,0.960767,0.924502,-70.1247,-86.5325)">
        <text x="47.329px" y="549.26px" style="font-family:'ArialMT', 'Arial', sans-serif;font-size:10px;">:</text>
    </g>
    <g transform="matrix(0.473479,-1.24643,1.24643,0.473479,-70.1247,-86.5325)">
        <text x="-159.955px" y="528.625px" style="font-family:'ArialMT', 'Arial', sans-serif;font-size:10px;">:</text>
    </g>
    <g transform="matrix(0.0186667,1.3332,-1.3332,0.0186667,-70.1247,-86.5325)">
        <text x="288.138px" y="-410.006px" style="font-family:'ArialMT', 'Arial', sans-serif;font-size:10px;">:</text>
    </g>
    <g transform="matrix(1.29809,0.304524,-0.304524,1.29809,-70.1247,-86.5325)">
        <text x="488.93px" y="214.881px" style="font-family:'ArialMT', 'Arial', sans-serif;font-size:10px;">:</text>
    </g>
    <g transform="matrix(-0.0162671,1.33323,-1.33323,-0.0162671,-70.1247,-86.5325)">
        <text x="320.494px" y="-436.903px" style="font-family:'ArialMT', 'Arial', sans-serif;font-size:10px;">:</text>
    </g>
    <g transform="matrix(1.33333,0,0,1.33333,-70.1247,-86.5325)">
        <text x="426.48px" y="303.84px" style="font-family:'ArialMT', 'Arial', sans-serif;font-size:10px;">:</text>
    </g>
    <g transform="matrix(0.327082,-1.29259,1.29259,0.327082,-70.1247,-86.5325)">
        <text x="-180.797px" y="495.523px" style="font-family:'ArialMT', 'Arial', sans-serif;font-size:10px;">:</text>
    </g>
    <g transform="matrix(1.33333,0,0,1.33333,-70.1247,-381.573)">
        <path d="M434.88,528L434.64,529.2L434.16,530.4L433.44,531.6L432.72,532.56L431.76,533.52L430.8,534.24L429.6,534.72L428.16,534.96L427.68,534.96L426.96,535.2L425.52,534.96L424.32,534.72L423.12,534.24L422.16,533.52" style="fill:none;fill-rule:nonzero;stroke:black;stroke-width:0.48px;"/>
    </g>
    <g transform="matrix(-1.11528,-0.730702,-0.730702,1.11528,1358.94,56.0823)">
        <path d="M422.581,527.729L430.902,527.729L423.682,523.859L424.7,526.247L422.581,527.729Z" style="stroke:black;stroke-width:0.48px;"/>
    </g>
</svg>
