<?xml version="1.0" encoding="UTF-8" standalone="no"?>
<!DOCTYPE svg PUBLIC "-//W3C//DTD SVG 1.1//EN" "http://www.w3.org/Graphics/SVG/1.1/DTD/svg11.dtd">
<svg width="100%" height="100%" viewBox="0 0 630 115" version="1.1" xmlns="http://www.w3.org/2000/svg" xmlns:xlink="http://www.w3.org/1999/xlink" xml:space="preserve" xmlns:serif="http://www.serif.com/" style="fill-rule:evenodd;clip-rule:evenodd;stroke-linecap:round;stroke-linejoin:round;stroke-miterlimit:10;">
    <g transform="matrix(1.33333,0,0,1.33333,-74.1522,-79.2665)">
        <text x="57.36px" y="108.48px" style="font-family:'ArialMT', 'Arial', sans-serif;font-size:12px;">I</text>
        <text x="77.04px" y="110.4px" style="font-family:'ArialMT', 'Arial', sans-serif;font-size:18px;"><tspan x="77.04px " y="110.4px ">+</tspan></text>
        <text x="105.12px" y="106.56px" style="font-family:'ArialMT', 'Arial', sans-serif;font-size:10px;">H</text>
        <text x="112.337px" y="109.2px" style="font-family:'ArialMT', 'Arial', sans-serif;font-size:8px;">3</text>
        <text x="116.658px" y="106.56px" style="font-family:'ArialMT', 'Arial', sans-serif;font-size:10px;">C</text>
    </g>
    <g transform="matrix(1.33333,0,0,1.33333,-74.1522,-79.2665)">
        <text x="146.16px" y="123.6px" style="font-family:'ArialMT', 'Arial', sans-serif;font-size:10px;">O</text>
    </g>
    <g transform="matrix(1.33333,0,0,1.33333,-74.1522,-79.2665)">
        <text x="146.16px" y="89.28px" style="font-family:'ArialMT', 'Arial', sans-serif;font-size:10px;">O</text>
    </g>
    <g transform="matrix(1.33333,0,0,1.33333,-74.1522,-79.2665)">
        <text x="166.56px" y="123.6px" style="font-family:'ArialMT', 'Arial', sans-serif;font-size:10px;">Ag</text>
    </g>
    <g transform="matrix(1.33333,0,0,1.33333,-74.1522,-79.2665)">
        <text x="169.2px" y="109.44px" style="font-family:'ArialMT', 'Arial', sans-serif;font-size:18px;">+</text>
        <text x="196.8px" y="105.84px" style="font-family:'ArialMT', 'Arial', sans-serif;font-size:10px;">H</text>
        <text x="204.013px" y="108.48px" style="font-family:'ArialMT', 'Arial', sans-serif;font-size:8px;">2</text>
        <text x="208.335px" y="105.84px" style="font-family:'ArialMT', 'Arial', sans-serif;font-size:10px;">O</text>
    </g>
    <g transform="matrix(1.33333,0,0,1.33333,-74.1522,-79.2665)">
        <text x="517.92px" y="93.6px" style="font-family:'ArialMT', 'Arial', sans-serif;font-size:10px;">O</text>
    </g>
    <g transform="matrix(1.33333,0,0,1.33333,-74.1522,-79.2665)">
        <text x="478.56px" y="69.84px" style="font-family:'ArialMT', 'Arial', sans-serif;font-size:10px;">CH</text>
        <text x="492.96px" y="72.48px" style="font-family:'ArialMT', 'Arial', sans-serif;font-size:8px;">3</text>
    </g>
    <g transform="matrix(1.33333,0,0,1.33333,-74.1522,-79.2665)">
        <text x="381.36px" y="74.88px" style="font-family:'ArialMT', 'Arial', sans-serif;font-size:10px;">CH</text>
        <text x="395.76px" y="77.52px" style="font-family:'ArialMT', 'Arial', sans-serif;font-size:8px;">3</text>
    </g>
    <g transform="matrix(1.33333,0,0,1.33333,-74.1522,-79.2665)">
        <text x="325.92px" y="71.76px" style="font-family:'ArialMT', 'Arial', sans-serif;font-size:10px;">O</text>
    </g>
    <g transform="matrix(1.33333,0,0,1.33333,-74.1522,-79.2665)">
        <text x="318.72px" y="71.76px" style="font-family:'ArialMT', 'Arial', sans-serif;font-size:10px;">H</text>
    </g>
    <g transform="matrix(1.33333,0,0,1.33333,-74.1522,-79.2665)">
        <text x="306.24px" y="89.28px" style="font-family:'ArialMT', 'Arial', sans-serif;font-size:10px;">H</text>
    </g>
    <g transform="matrix(1.33333,0,0,1.33333,-74.1522,-79.2665)">
        <text x="286.8px" y="133.92px" style="font-family:'ArialMT', 'Arial', sans-serif;font-size:10px;">O</text>
    </g>
    <g transform="matrix(1.33333,0,0,1.33333,-74.1522,-79.2665)">
        <text x="279.6px" y="133.92px" style="font-family:'ArialMT', 'Arial', sans-serif;font-size:10px;">H</text>
    </g>
    <g transform="matrix(1.33333,0,0,1.33333,-74.1522,-79.2665)">
        <text x="320.64px" y="141.84px" style="font-family:'ArialMT', 'Arial', sans-serif;font-size:10px;">H</text>
    </g>
    <g transform="matrix(1.33333,0,0,1.33333,-74.1522,-928.546)">
        <path d="M124.8,739.44L140.16,739.44" style="fill:none;fill-rule:nonzero;stroke:black;stroke-width:0.72px;"/>
    </g>
    <g transform="matrix(0.666796,1.15463,1.15463,-0.666796,-825.269,388.596)">
        <path d="M136.696,733.44L150.554,733.44" style="fill:none;fill-rule:nonzero;stroke:black;stroke-width:0.72px;"/>
    </g>
    <g transform="matrix(0.667127,-1.15443,-1.15443,-0.667127,882.738,714.719)">
        <path d="M137.905,745.02L152.735,745.02" style="fill:none;fill-rule:nonzero;stroke:black;stroke-width:0.72px;"/>
    </g>
    <g transform="matrix(0.666267,-1.15493,-1.15493,-0.666267,882.01,709.674)">
        <path d="M135.461,745.905L148.449,745.905" style="fill:none;fill-rule:nonzero;stroke:black;stroke-width:0.72px;"/>
    </g>
    <g transform="matrix(1.33333,0,0,1.33333,-74.1522,-882.546)">
        <path d="M155.04,722.19L165.6,722.19" style="fill:none;fill-rule:nonzero;stroke:black;stroke-width:0.72px;"/>
    </g>
    <g transform="matrix(1.33333,0,0,1.33333,-74.1522,-931.106)">
        <path d="M235.2,740.4L269.28,740.4" style="fill:none;fill-rule:nonzero;stroke:black;stroke-width:0.72px;"/>
    </g>
    <g transform="matrix(1.2958,0.314133,0.314133,-1.2958,-296.778,932.158)">
        <path d="M261.019,741.333L269.169,741.333L261.924,737.601L262.871,739.806L261.019,741.333Z" style="stroke:black;stroke-width:0.72px;"/>
    </g>
    <g transform="matrix(-0.942809,0.942809,0.942809,0.942809,-34.0477,-940.358)">
        <path d="M307.377,737.64L338.943,737.64" style="fill:none;fill-rule:nonzero;stroke:black;stroke-width:0.72px;"/>
    </g>
    <g transform="matrix(1.22323,-0.530557,-0.530557,-1.22323,349.028,1133.65)">
        <path d="M311.103,730.8L332.817,730.8" style="fill:none;fill-rule:nonzero;stroke:black;stroke-width:0.72px;"/>
    </g>
    <g transform="matrix(1.14332,0.685994,0.685994,-1.14332,-507.792,668.711)">
        <path d="M329.826,727.56L359.214,727.56" style="fill:none;fill-rule:nonzero;stroke:black;stroke-width:0.72px;"/>
    </g>
    <g transform="matrix(-1.20473,-0.571316,-0.571316,1.20473,1228.56,-645.546)">
        <path d="M333.077,743.28L358.843,743.28" style="fill:none;fill-rule:nonzero;stroke:black;stroke-width:0.72px;"/>
    </g>
    <g transform="matrix(0.93833,-0.947267,-0.947267,-0.93833,765.97,1104.09)">
        <path d="M351.816,732.72L387.624,732.72" style="fill:none;fill-rule:nonzero;stroke:black;stroke-width:0.72px;"/>
    </g>
    <g transform="matrix(-1.2733,0.395588,0.395588,1.2733,596.829,-1036.14)">
        <path d="M357.017,741.6L382.903,741.6" style="fill:none;fill-rule:nonzero;stroke:black;stroke-width:0.72px;"/>
    </g>
    <g transform="matrix(1.26962,-0.407237,-0.407237,-1.26962,244.283,1147.77)">
        <path d="M356.482,724.08L383.198,724.08" style="fill:none;fill-rule:nonzero;stroke:black;stroke-width:0.72px;"/>
    </g>
    <g transform="matrix(1.14332,0.685994,0.685994,-1.14332,-494.478,636.325)">
        <path d="M380.765,721.68L405.955,721.68" style="fill:none;fill-rule:nonzero;stroke:black;stroke-width:0.72px;"/>
    </g>
    <g transform="matrix(0.942809,-0.942809,-0.942809,-0.942809,774.619,1151.93)">
        <path d="M398.991,727.68L434.289,727.68" style="fill:none;fill-rule:nonzero;stroke:black;stroke-width:0.72px;"/>
    </g>
    <g transform="matrix(-1.29422,0.320586,0.320586,1.29422,782.768,-1026.38)">
        <path d="M402.565,736.92L429.515,736.92" style="fill:none;fill-rule:nonzero;stroke:black;stroke-width:0.72px;"/>
    </g>
    <g transform="matrix(-1.15849,-0.660067,-0.660067,1.15849,1392.4,-540.387)">
        <path d="M380.762,739.56L404.518,739.56" style="fill:none;fill-rule:nonzero;stroke:black;stroke-width:0.72px;"/>
    </g>
    <g transform="matrix(1.14332,0.685994,0.685994,-1.14332,-492.781,601.075)">
        <path d="M427.026,732.6L456.414,732.6" style="fill:none;fill-rule:nonzero;stroke:black;stroke-width:0.72px;"/>
    </g>
    <g transform="matrix(-1.20473,-0.571316,-0.571316,1.20473,1478.14,-602.806)">
        <path d="M430.277,748.32L456.043,748.32" style="fill:none;fill-rule:nonzero;stroke:black;stroke-width:0.72px;"/>
    </g>
    <g transform="matrix(0.93833,-0.947267,-0.947267,-0.93833,809.138,1194.17)">
        <path d="M449.016,737.76L484.824,737.76" style="fill:none;fill-rule:nonzero;stroke:black;stroke-width:0.72px;"/>
    </g>
    <g transform="matrix(-1.2733,0.395588,0.395588,1.2733,848.2,-1087.72)">
        <path d="M454.217,746.64L480.103,746.64" style="fill:none;fill-rule:nonzero;stroke:black;stroke-width:0.72px;"/>
    </g>
    <g transform="matrix(1.26962,-0.407237,-0.407237,-1.26962,252.529,1187.04)">
        <path d="M453.682,729.12L480.398,729.12" style="fill:none;fill-rule:nonzero;stroke:black;stroke-width:0.72px;"/>
    </g>
    <g transform="matrix(1.14332,0.685994,0.685994,-1.14332,-479.467,568.688)">
        <path d="M477.965,726.72L503.155,726.72" style="fill:none;fill-rule:nonzero;stroke:black;stroke-width:0.72px;"/>
    </g>
    <g transform="matrix(-1.15849,-0.660067,-0.660067,1.15849,1637.93,-488.787)">
        <path d="M477.962,744.6L501.718,744.6" style="fill:none;fill-rule:nonzero;stroke:black;stroke-width:0.72px;"/>
    </g>
    <g transform="matrix(1.08929,-0.768911,-0.768911,-1.08929,599.557,1182.6)">
        <path d="M399.761,743.76L434.719,743.76" style="fill:none;fill-rule:nonzero;stroke:black;stroke-width:0.72px;"/>
    </g>
    <g transform="matrix(-0.0863981,-1.33053,-1.33053,0.0863981,1607.39,673.905)">
        <path d="M491.501,729.48L510.019,729.48" style="fill:none;fill-rule:nonzero;stroke:black;stroke-width:0.72px;"/>
    </g>
    <g transform="matrix(1.13078,-0.706474,-0.706474,-1.13078,553.341,1252.55)">
        <path d="M499.625,742.27L518.385,742.27" style="fill:none;fill-rule:nonzero;stroke:black;stroke-width:0.72px;"/>
    </g>
    <g transform="matrix(1.13027,-0.707297,-0.707297,-1.13027,556.441,1251.26)">
        <path d="M497.681,745.675L518.549,745.675" style="fill:none;fill-rule:nonzero;stroke:black;stroke-width:0.72px;"/>
    </g>
    <g transform="matrix(0.144246,-1.32551,-1.32551,-0.144246,1505.65,775.858)">
        <path d="M470.37,760.68L490.89,760.68" style="fill:none;fill-rule:nonzero;stroke:black;stroke-width:0.72px;"/>
    </g>
    <g transform="matrix(0.144246,-1.32551,-1.32551,-0.144246,1383.39,653.011)">
        <path d="M373.17,755.64L393.69,755.64" style="fill:none;fill-rule:nonzero;stroke:black;stroke-width:0.72px;"/>
    </g>
    <g transform="matrix(-0.227437,-1.31379,-1.31379,0.227437,1441.93,295.79)">
        <path d="M322.345,758.88L342.805,758.88" style="fill:none;fill-rule:nonzero;stroke:black;stroke-width:0.72px;"/>
    </g>
    <g transform="matrix(-1.2709,-0.403218,-0.403218,1.2709,1073.76,-784.2)">
        <path d="M313.911,751.96L334.809,751.96" style="fill:none;fill-rule:nonzero;stroke:black;stroke-width:0.72px;"/>
    </g>
    <g transform="matrix(-1.10249,0.749858,0.749858,1.10249,125.355,-940.604)">
        <path d="M293.971,720.93L313.709,720.93" style="fill:none;fill-rule:nonzero;stroke:black;stroke-width:0.72px;"/>
    </g>
    <g transform="matrix(0.64287,1.16812,1.16812,-0.64287,-693.965,177.644)">
        <path d="M306.893,717.84L326.617,717.84" style="fill:none;fill-rule:nonzero;stroke:black;stroke-width:0.72px;"/>
    </g>
</svg>
