<?xml version="1.0" encoding="UTF-8" standalone="no"?>
<!DOCTYPE svg PUBLIC "-//W3C//DTD SVG 1.1//EN" "http://www.w3.org/Graphics/SVG/1.1/DTD/svg11.dtd">
<svg width="100%" height="100%" viewBox="0 0 670 250" version="1.1" xmlns="http://www.w3.org/2000/svg" xmlns:xlink="http://www.w3.org/1999/xlink" xml:space="preserve" xmlns:serif="http://www.serif.com/" style="fill-rule:evenodd;clip-rule:evenodd;stroke-linecap:round;stroke-linejoin:round;stroke-miterlimit:10;">
    <g transform="matrix(1.33333,0,0,1.33333,-82.0999,-52.6067)">
        <text x="93.12px" y="112.56px" style="font-family:'ArialMT', 'Arial', sans-serif;font-size:10px;">N</text>
    </g>
    <g transform="matrix(1.33333,0,0,1.33333,-82.0999,-52.6067)">
        <text x="76.08px" y="142.32px" style="font-family:'ArialMT', 'Arial', sans-serif;font-size:10px;">C</text>
    </g>
    <g transform="matrix(1.33333,0,0,1.33333,-82.0999,-52.6067)">
        <text x="64.56px" y="142.32px" style="font-family:'ArialMT', 'Arial', sans-serif;font-size:10px;">H</text>
        <text x="71.76px" y="144.96px" style="font-family:'ArialMT', 'Arial', sans-serif;font-size:8px;">3</text>
    </g>
    <g transform="matrix(1.33333,0,0,1.33333,-82.0999,-52.6067)">
        <text x="110.16px" y="162.24px" style="font-family:'ArialMT', 'Arial', sans-serif;font-size:10px;">O</text>
        <text x="118.08px" y="162.24px" style="font-family:'ArialMT', 'Arial', sans-serif;font-size:10px;">T<tspan x="124.32px " y="162.24px ">s</tspan></text>
    </g>
    <g transform="matrix(1.33333,0,0,1.33333,-82.0999,-52.6067)">
        <text x="205.92px" y="114px" style="font-family:'ArialMT', 'Arial', sans-serif;font-size:10px;">N</text>
    </g>
    <g transform="matrix(1.33333,0,0,1.33333,-82.0999,-52.6067)">
        <text x="188.88px" y="143.76px" style="font-family:'ArialMT', 'Arial', sans-serif;font-size:10px;">C</text>
    </g>
    <g transform="matrix(1.33333,0,0,1.33333,-82.0999,-52.6067)">
        <text x="177.36px" y="143.76px" style="font-family:'ArialMT', 'Arial', sans-serif;font-size:10px;">H</text>
        <text x="184.56px" y="146.4px" style="font-family:'ArialMT', 'Arial', sans-serif;font-size:8px;">3</text>
    </g>
    <g transform="matrix(1.33333,0,0,1.33333,-82.0999,-52.6067)">
        <text x="222.96px" y="163.68px" style="font-family:'ArialMT', 'Arial', sans-serif;font-size:10px;">O<tspan x="230.88px " y="163.68px ">H</tspan></text>
    </g>
    <g transform="matrix(1.33333,0,0,1.33333,-82.0999,-52.6067)">
        <text x="338.16px" y="103.92px" style="font-family:'ArialMT', 'Arial', sans-serif;font-size:10px;">CH</text>
        <text x="352.56px" y="106.56px" style="font-family:'ArialMT', 'Arial', sans-serif;font-size:8px;">2</text>
    </g>
    <g transform="matrix(1.33333,0,0,1.33333,-82.0999,-52.6067)">
        <text x="352.56px" y="96.96px" style="font-family:'ArialMT', 'Arial', sans-serif;font-size:8px;">+</text>
    </g>
    <g transform="matrix(1.33333,0,0,1.33333,-82.0999,-52.6067)">
        <text x="303.12px" y="102.72px" style="font-family:'ArialMT', 'Arial', sans-serif;font-size:10px;">CH</text>
        <text x="317.52px" y="105.36px" style="font-family:'ArialMT', 'Arial', sans-serif;font-size:8px;">2</text>
    </g>
    <g transform="matrix(1.33333,0,0,1.33333,-82.0999,-52.6067)">
        <text x="317.52px" y="95.76px" style="font-family:'ArialMT', 'Arial', sans-serif;font-size:8px;">+</text>
    </g>
    <g transform="matrix(1.33333,0,0,1.33333,-82.0999,-52.6067)">
        <text x="363.84px" y="91.2px" style="font-family:'ArialMT', 'Arial', sans-serif;font-size:18px;">+</text>
        <text x="385.68px" y="86.64px" style="font-family:'ArialMT', 'Arial', sans-serif;font-size:10px;">H</text>
        <text x="392.893px" y="89.28px" style="font-family:'ArialMT', 'Arial', sans-serif;font-size:8px;">3</text>
        <text x="397.215px" y="86.64px" style="font-family:'ArialMT', 'Arial', sans-serif;font-size:10px;">C</text>
    </g>
    <g transform="matrix(1.33333,0,0,1.33333,-82.0999,-52.6067)">
        <text x="423.12px" y="105.6px" style="font-family:'ArialMT', 'Arial', sans-serif;font-size:10px;">O</text>
    </g>
    <g transform="matrix(1.33333,0,0,1.33333,-82.0999,-52.6067)">
        <text x="415.92px" y="105.6px" style="font-family:'ArialMT', 'Arial', sans-serif;font-size:10px;">H</text>
    </g>
    <g transform="matrix(1.33333,0,0,1.33333,-82.0999,-52.6067)">
        <text x="413.52px" y="55.2px" style="font-family:'ArialMT', 'Arial', sans-serif;font-size:10px;">N</text>
        <text x="420.72px" y="48.24px" style="font-family:'ArialMT', 'Arial', sans-serif;font-size:8px;">2<tspan x="425.04px " y="48.24px ">–</tspan></text>
    </g>
    <g transform="matrix(1.33333,0,0,1.33333,-82.0999,-52.6067)">
        <text x="501.84px" y="86.64px" style="font-family:'ArialMT', 'Arial', sans-serif;font-size:10px;">C</text>
    </g>
    <g transform="matrix(1.33333,0,0,1.33333,-82.0999,-52.6067)">
        <text x="490.32px" y="86.64px" style="font-family:'ArialMT', 'Arial', sans-serif;font-size:10px;">H</text>
        <text x="497.52px" y="89.28px" style="font-family:'ArialMT', 'Arial', sans-serif;font-size:8px;">3</text>
    </g>
    <g transform="matrix(1.33333,0,0,1.33333,-82.0999,-52.6067)">
        <text x="518.16px" y="105.6px" style="font-family:'ArialMT', 'Arial', sans-serif;font-size:10px;">E</text>
        <text x="524.88px" y="105.6px" style="font-family:'ArialMT', 'Arial', sans-serif;font-size:10px;">t<tspan x="527.76px " y="105.6px ">O</tspan></text>
    </g>
    <g transform="matrix(1.33333,0,0,1.33333,-82.0999,-52.6067)">
        <text x="552.96px" y="80.64px" style="font-family:'ArialMT', 'Arial', sans-serif;font-size:10px;">O</text>
    </g>
    <g transform="matrix(1.33333,0,0,1.33333,-82.0999,-52.6067)">
        <text x="518.16px" y="55.2px" style="font-family:'ArialMT', 'Arial', sans-serif;font-size:10px;">NH</text>
        <text x="532.56px" y="57.84px" style="font-family:'ArialMT', 'Arial', sans-serif;font-size:8px;">2</text>
    </g>
    <g transform="matrix(1.33333,0,0,1.33333,-82.0999,-52.6067)">
        <text x="296.88px" y="223.92px" style="font-family:'ArialMT', 'Arial', sans-serif;font-size:10px;">Br</text>
    </g>
    <g transform="matrix(1.33333,0,0,1.33333,-82.0999,-52.6067)">
        <text x="348.48px" y="223.92px" style="font-family:'ArialMT', 'Arial', sans-serif;font-size:10px;">Br</text>
    </g>
    <g transform="matrix(1.16838,-0.642389,0.642389,1.16838,-82.0999,-52.6067)">
        <text x="332.555px" y="248.586px" style="font-family:'ArialMT', 'Arial', sans-serif;font-size:10px;">:</text>
    </g>
    <g transform="matrix(1.16838,0.642389,-0.642389,1.16838,-82.0999,-52.6067)">
        <text x="395.912px" y="-153.029px" style="font-family:'ArialMT', 'Arial', sans-serif;font-size:10px;">:</text>
    </g>
    <g transform="matrix(0,-1.33333,-1.33333,0,1074.66,217.753)">
        <path d="M104.25,753.36L124.17,753.36" style="fill:none;fill-rule:nonzero;stroke:black;stroke-width:0.72px;"/>
    </g>
    <g transform="matrix(1.15468,0.666702,0.666702,-1.15468,-575.464,862.3)">
        <path d="M95.626,768.3L115.544,768.3" style="fill:none;fill-rule:nonzero;stroke:black;stroke-width:0.72px;"/>
    </g>
    <g transform="matrix(1.15451,-0.666992,-0.666992,-1.15451,430.518,1009.55)">
        <path d="M100.279,739.665L115.211,739.665" style="fill:none;fill-rule:nonzero;stroke:black;stroke-width:0.72px;"/>
    </g>
    <g transform="matrix(1.15468,-0.666702,-0.666702,-1.15468,445.909,991.587)">
        <path d="M78.376,768.3L98.294,768.3" style="fill:none;fill-rule:nonzero;stroke:black;stroke-width:0.72px;"/>
    </g>
    <g transform="matrix(1.15462,0.666805,0.666805,-1.15462,-560.048,880.439)">
        <path d="M78.746,739.805L93.124,739.805" style="fill:none;fill-rule:nonzero;stroke:black;stroke-width:0.72px;"/>
    </g>
    <g transform="matrix(0,-1.33333,-1.33333,0,1028.66,171.753)">
        <path d="M69.75,753.36L89.67,753.36" style="fill:none;fill-rule:nonzero;stroke:black;stroke-width:0.72px;"/>
    </g>
    <g transform="matrix(-1.15468,-0.666702,-0.666702,1.15468,652.982,-622.51)">
        <path d="M95.626,708.54L115.544,708.54" style="fill:none;fill-rule:nonzero;stroke:black;stroke-width:0.72px;"/>
    </g>
    <g transform="matrix(1.15485,-0.666401,-0.666401,-1.15485,407.115,1003.64)">
        <path d="M83.257,709.85L97.943,709.85" style="fill:none;fill-rule:nonzero;stroke:black;stroke-width:0.72px;"/>
    </g>
    <g transform="matrix(0,1.33333,1.33333,0,-913.94,-20.4467)">
        <path d="M89.64,720.84L104.28,720.84" style="fill:none;fill-rule:nonzero;stroke:black;stroke-width:0.72px;"/>
    </g>
    <g transform="matrix(0,1.33333,1.33333,0,-858.06,-10.5667)">
        <path d="M106.83,696.18L121.59,696.18" style="fill:none;fill-rule:nonzero;stroke:black;stroke-width:0.72px;"/>
    </g>
    <g transform="matrix(1.33333,0,0,1.33333,-82.0999,-942.207)">
        <path d="M131.04,754.56L165.12,754.56" style="fill:none;fill-rule:nonzero;stroke:black;stroke-width:0.72px;"/>
    </g>
    <g transform="matrix(1.33333,0,0,1.33333,-82.0999,-949.887)">
        <path d="M131.04,757.44L165.12,757.44" style="fill:none;fill-rule:nonzero;stroke:black;stroke-width:0.72px;"/>
    </g>
    <g transform="matrix(1.33333,0,0,1.33333,-82.0999,-946.047)">
        <path d="M160.56,752.4L168.48,756L160.56,759.6" style="fill:none;fill-rule:nonzero;stroke:black;stroke-width:0.72px;"/>
    </g>
    <g transform="matrix(0,-1.33333,-1.33333,0,1223.14,370.073)">
        <path d="M217.05,751.92L236.97,751.92" style="fill:none;fill-rule:nonzero;stroke:black;stroke-width:0.72px;"/>
    </g>
    <g transform="matrix(1.15468,0.666702,0.666702,-1.15468,-554.352,787.353)">
        <path d="M208.426,766.86L228.344,766.86" style="fill:none;fill-rule:nonzero;stroke:black;stroke-width:0.72px;"/>
    </g>
    <g transform="matrix(1.15451,-0.666992,-0.666992,-1.15451,449.728,1085.05)">
        <path d="M213.079,738.225L228.011,738.225" style="fill:none;fill-rule:nonzero;stroke:black;stroke-width:0.72px;"/>
    </g>
    <g transform="matrix(1.15468,-0.666702,-0.666702,-1.15468,465.101,1067.05)">
        <path d="M191.176,766.86L211.094,766.86" style="fill:none;fill-rule:nonzero;stroke:black;stroke-width:0.72px;"/>
    </g>
    <g transform="matrix(1.15462,0.666805,0.666805,-1.15462,-538.929,805.481)">
        <path d="M191.546,738.365L205.924,738.365" style="fill:none;fill-rule:nonzero;stroke:black;stroke-width:0.72px;"/>
    </g>
    <g transform="matrix(0,-1.33333,-1.33333,0,1177.14,324.073)">
        <path d="M182.55,751.92L202.47,751.92" style="fill:none;fill-rule:nonzero;stroke:black;stroke-width:0.72px;"/>
    </g>
    <g transform="matrix(-1.15468,-0.666702,-0.666702,1.15468,932.67,-543.723)">
        <path d="M208.426,707.1L228.344,707.1" style="fill:none;fill-rule:nonzero;stroke:black;stroke-width:0.72px;"/>
    </g>
    <g transform="matrix(1.15485,-0.666401,-0.666401,-1.15485,426.288,1079.06)">
        <path d="M196.057,708.41L210.743,708.41" style="fill:none;fill-rule:nonzero;stroke:black;stroke-width:0.72px;"/>
    </g>
    <g transform="matrix(0,1.33333,1.33333,0,-761.62,-168.927)">
        <path d="M202.44,719.4L217.08,719.4" style="fill:none;fill-rule:nonzero;stroke:black;stroke-width:0.72px;"/>
    </g>
    <g transform="matrix(0,1.33333,1.33333,0,-705.74,-159.047)">
        <path d="M219.63,694.74L234.39,694.74" style="fill:none;fill-rule:nonzero;stroke:black;stroke-width:0.72px;"/>
    </g>
    <g transform="matrix(1.33333,0,0,1.33333,-82.0999,-886.207)">
        <path d="M205.68,744.24L204.48,744.24L203.28,744L202.08,743.52L200.16,742.56L199.2,741.84L198.48,740.88L197.52,740.16L197.04,739.2L196.32,738.24L195.84,737.04L195.6,736.08L195.36,734.88L195.36,732.48L195.84,730.08L196.8,728.16L197.52,727.2L198,726.48L198.96,725.52L199.68,725.04L200.64,724.32L202.56,723.36L204.96,722.88L206.4,722.88" style="fill:none;fill-rule:nonzero;stroke:black;stroke-width:0.48px;"/>
    </g>
    <g transform="matrix(1.33333,0,0,1.33333,-82.0999,-863.167)">
        <path d="M197.52,726.96L205.68,726.96L198.48,722.88L199.44,725.28L197.52,726.96Z" style="stroke:black;stroke-width:0.48px;"/>
    </g>
    <g transform="matrix(1.33333,0,0,1.33333,-82.0999,-886.847)">
        <path d="M216.72,722.64L219.12,723.12L220.32,723.6L221.52,724.32L223.44,725.76L224.88,727.68L225.6,728.88L226.08,730.08L226.56,732.48L226.56,734.88L226.08,737.28L224.64,740.16L223.92,741.12L223.2,741.84L221.28,743.28L218.4,744.72L217.2,744.96L214.08,744.96" style="fill:none;fill-rule:nonzero;stroke:black;stroke-width:0.48px;"/>
    </g>
    <g transform="matrix(-1.31304,-0.231714,-0.231714,1.31304,662.791,-793.145)">
        <path d="M213.808,724.302L222.094,724.302L214.712,720.562L215.755,722.939L213.808,724.302Z" style="stroke:black;stroke-width:0.48px;"/>
    </g>
    <g transform="matrix(1.33333,0,0,1.33333,-82.0999,-945.407)">
        <path d="M245.76,755.76L279.84,755.76" style="fill:none;fill-rule:nonzero;stroke:black;stroke-width:0.72px;"/>
    </g>
    <g transform="matrix(1.33333,0,0,1.33333,-82.0999,-953.087)">
        <path d="M245.76,758.64L279.84,758.64" style="fill:none;fill-rule:nonzero;stroke:black;stroke-width:0.72px;"/>
    </g>
    <g transform="matrix(1.33333,0,0,1.33333,-82.0999,-949.247)">
        <path d="M275.28,753.6L283.2,757.2L275.28,760.8" style="fill:none;fill-rule:nonzero;stroke:black;stroke-width:0.72px;"/>
    </g>
    <g transform="matrix(-1.15472,0.66664,0.66664,1.15472,191.569,-1049.29)">
        <path d="M305.48,767.22L325.64,767.22" style="fill:none;fill-rule:nonzero;stroke:black;stroke-width:0.72px;"/>
    </g>
    <g transform="matrix(-1.15484,-0.66643,-0.66643,1.15484,1257.8,-617.102)">
        <path d="M322.941,767.225L343.089,767.225" style="fill:none;fill-rule:nonzero;stroke:black;stroke-width:0.72px;"/>
    </g>
    <g transform="matrix(0.00353903,1.33333,1.33333,-0.00353903,-633.833,-389.261)">
        <path d="M334.225,754.655L349.295,754.655" style="fill:none;fill-rule:nonzero;stroke:black;stroke-width:0.72px;"/>
    </g>
    <g transform="matrix(-0.00769588,1.33331,1.33331,0.00769588,-677.669,-351.905)">
        <path d="M299.86,755.25L313.72,755.25" style="fill:none;fill-rule:nonzero;stroke:black;stroke-width:0.72px;"/>
    </g>
    <g transform="matrix(-1.07962,0.782428,0.782428,1.07962,310.418,-1101.55)">
        <path d="M403.977,766.585L418.513,766.585" style="fill:none;fill-rule:nonzero;stroke:black;stroke-width:0.72px;"/>
    </g>
    <g transform="matrix(-1.0782,-0.784388,-0.784388,1.0782,1543.3,-441.335)">
        <path d="M415.224,764.99L435.146,764.99" style="fill:none;fill-rule:nonzero;stroke:black;stroke-width:0.72px;"/>
    </g>
    <g transform="matrix(0.413015,-1.26775,-1.26775,-0.413015,1268.28,924.026)">
        <path d="M423.811,752.285L438.209,752.285" style="fill:none;fill-rule:nonzero;stroke:black;stroke-width:0.72px;"/>
    </g>
    <g transform="matrix(0.000908884,-1.33333,-1.33333,-0.000908884,1511.28,589.26)">
        <path d="M409.8,778.185L424.47,778.185" style="fill:none;fill-rule:nonzero;stroke:black;stroke-width:0.72px;"/>
    </g>
    <g transform="matrix(1.33333,0,0,1.33333,-82.0999,-947.967)">
        <path d="M445.92,756.72L480,756.72" style="fill:none;fill-rule:nonzero;stroke:black;stroke-width:0.72px;"/>
    </g>
    <g transform="matrix(1.33333,0,0,1.33333,-82.0999,-955.647)">
        <path d="M445.92,759.6L480,759.6" style="fill:none;fill-rule:nonzero;stroke:black;stroke-width:0.72px;"/>
    </g>
    <g transform="matrix(1.33333,0,0,1.33333,-82.0999,-951.807)">
        <path d="M475.44,754.56L483.36,758.16L475.44,761.76" style="fill:none;fill-rule:nonzero;stroke:black;stroke-width:0.72px;"/>
    </g>
    <g transform="matrix(-1.07962,0.782428,0.782428,1.07962,562.91,-1183.43)">
        <path d="M508.617,766.585L523.153,766.585" style="fill:none;fill-rule:nonzero;stroke:black;stroke-width:0.72px;"/>
    </g>
    <g transform="matrix(-1.0782,-0.784388,-0.784388,1.0782,1795.64,-359.256)">
        <path d="M519.864,764.99L539.786,764.99" style="fill:none;fill-rule:nonzero;stroke:black;stroke-width:0.72px;"/>
    </g>
    <g transform="matrix(0.413015,-1.26775,-1.26775,-0.413015,1364.58,1056.68)">
        <path d="M528.451,752.285L542.849,752.285" style="fill:none;fill-rule:nonzero;stroke:black;stroke-width:0.72px;"/>
    </g>
    <g transform="matrix(1.26841,-0.410998,-0.410998,-1.26841,265.546,1244.7)">
        <path d="M538.042,759.735L552.348,759.735" style="fill:none;fill-rule:nonzero;stroke:black;stroke-width:0.72px;"/>
    </g>
    <g transform="matrix(1.2685,-0.410704,-0.410704,-1.2685,266.62,1244.18)">
        <path d="M536.986,763.1L552.374,763.1" style="fill:none;fill-rule:nonzero;stroke:black;stroke-width:0.72px;"/>
    </g>
    <g transform="matrix(0.000908884,-1.33333,-1.33333,-0.000908884,1650.71,728.78)">
        <path d="M514.44,778.185L529.11,778.185" style="fill:none;fill-rule:nonzero;stroke:black;stroke-width:0.72px;"/>
    </g>
    <g transform="matrix(0,1.33333,1.33333,0,-580.02,-300.287)">
        <path d="M310.56,700.56L343.68,700.56" style="fill:none;fill-rule:nonzero;stroke:black;stroke-width:0.72px;"/>
    </g>
    <g transform="matrix(0,1.33333,1.33333,0,-576.18,-304.127)">
        <path d="M313.44,700.56L346.56,700.56" style="fill:none;fill-rule:nonzero;stroke:black;stroke-width:0.72px;"/>
    </g>
    <g transform="matrix(1.33333,0,0,1.33333,-82.0999,-755.647)">
        <path d="M332.16,680.64L328.56,688.56L324.96,680.64" style="fill:none;fill-rule:nonzero;stroke:black;stroke-width:0.72px;"/>
    </g>
    <g transform="matrix(-1.07962,0.782437,0.782437,1.07962,174.209,-777.332)">
        <path d="M310.785,661.565L330.705,661.565" style="fill:none;fill-rule:nonzero;stroke:black;stroke-width:0.72px;"/>
    </g>
    <g transform="matrix(-0.410979,-1.26841,-1.26841,0.410979,1288.37,343.202)">
        <path d="M305.79,646.245L325.71,646.245" style="fill:none;fill-rule:nonzero;stroke:black;stroke-width:0.72px;"/>
    </g>
    <g transform="matrix(-1.0782,-0.784388,-0.784388,1.0782,1249.17,-261.163)">
        <path d="M326.904,661.55L346.826,661.55" style="fill:none;fill-rule:nonzero;stroke:black;stroke-width:0.72px;"/>
    </g>
    <g transform="matrix(0.412993,-1.26776,-1.26776,-0.412993,1051.76,908.575)">
        <path d="M331.875,646.22L351.795,646.22" style="fill:none;fill-rule:nonzero;stroke:black;stroke-width:0.72px;"/>
    </g>
    <g transform="matrix(-0.892812,0.990285,0.990285,0.892812,-9.0899,-644.458)">
        <path d="M305.231,630.725L321.509,630.725" style="fill:none;fill-rule:nonzero;stroke:black;stroke-width:0.72px;"/>
    </g>
    <g transform="matrix(0.891167,0.991766,0.991766,-0.891167,-557.044,450.252)">
        <path d="M336.574,631.87L349.696,631.87" style="fill:none;fill-rule:nonzero;stroke:black;stroke-width:0.72px;"/>
    </g>
</svg>
