<?xml version="1.0" encoding="UTF-8" standalone="no"?>
<!DOCTYPE svg PUBLIC "-//W3C//DTD SVG 1.1//EN" "http://www.w3.org/Graphics/SVG/1.1/DTD/svg11.dtd">
<svg width="100%" height="100%" viewBox="0 0 670 230" version="1.1" xmlns="http://www.w3.org/2000/svg" xmlns:xlink="http://www.w3.org/1999/xlink" xml:space="preserve" xmlns:serif="http://www.serif.com/" style="fill-rule:evenodd;clip-rule:evenodd;stroke-linecap:round;stroke-linejoin:round;stroke-miterlimit:10;">
    <g transform="matrix(1.33333,0,0,1.33333,-58.7427,-64.7918)">
        <text x="57.12px" y="174.72px" style="font-family:'ArialMT', 'Arial', sans-serif;font-size:10px;">C</text>
    </g>
    <g transform="matrix(1.33333,0,0,1.33333,-58.7427,-64.7918)">
        <text x="45.6px" y="174.72px" style="font-family:'ArialMT', 'Arial', sans-serif;font-size:10px;">H</text>
        <text x="52.8px" y="177.36px" style="font-family:'ArialMT', 'Arial', sans-serif;font-size:8px;">3</text>
    </g>
    <g transform="matrix(1.33333,0,0,1.33333,-58.7427,-64.7918)">
        <text x="83.04px" y="193.68px" style="font-family:'ArialMT', 'Arial', sans-serif;font-size:10px;">O</text>
    </g>
    <g transform="matrix(1.33333,0,0,1.33333,-58.7427,-64.7918)">
        <text x="108.24px" y="168.72px" style="font-family:'ArialMT', 'Arial', sans-serif;font-size:10px;">O</text>
    </g>
    <g transform="matrix(1.33333,0,0,1.33333,-58.7427,-64.7918)">
        <text x="123.36px" y="181.92px" style="font-family:'ArialMT', 'Arial', sans-serif;font-size:10px;">Et</text>
    </g>
    <g transform="matrix(1.33333,0,0,1.33333,-58.7427,-64.7918)">
        <text x="73.44px" y="143.28px" style="font-family:'ArialMT', 'Arial', sans-serif;font-size:10px;">NH</text>
        <text x="87.84px" y="145.92px" style="font-family:'ArialMT', 'Arial', sans-serif;font-size:8px;">2</text>
    </g>
    <g transform="matrix(1.33333,0,0,1.33333,-58.7427,-64.7918)">
        <text x="206.16px" y="174.72px" style="font-family:'ArialMT', 'Arial', sans-serif;font-size:10px;">C</text>
    </g>
    <g transform="matrix(1.33333,0,0,1.33333,-58.7427,-64.7918)">
        <text x="194.64px" y="174.72px" style="font-family:'ArialMT', 'Arial', sans-serif;font-size:10px;">H</text>
        <text x="201.84px" y="177.36px" style="font-family:'ArialMT', 'Arial', sans-serif;font-size:8px;">3</text>
    </g>
    <g transform="matrix(1.33333,0,0,1.33333,-58.7427,-64.7918)">
        <text x="232.08px" y="193.68px" style="font-family:'ArialMT', 'Arial', sans-serif;font-size:10px;">O</text>
    </g>
    <g transform="matrix(1.33333,0,0,1.33333,-58.7427,-64.7918)">
        <text x="224.88px" y="193.68px" style="font-family:'ArialMT', 'Arial', sans-serif;font-size:10px;">H</text>
    </g>
    <g transform="matrix(1.33333,0,0,1.33333,-58.7427,-64.7918)">
        <text x="222.48px" y="143.28px" style="font-family:'ArialMT', 'Arial', sans-serif;font-size:10px;">NH</text>
        <text x="236.88px" y="145.92px" style="font-family:'ArialMT', 'Arial', sans-serif;font-size:8px;">2</text>
    </g>
    <g transform="matrix(1.33333,0,0,1.33333,-58.7427,-64.7918)">
        <text x="400.08px" y="160.8px" style="font-family:'ArialMT', 'Arial', sans-serif;font-size:10px;">N</text>
    </g>
    <g transform="matrix(1.33333,0,0,1.33333,-58.7427,-64.7918)">
        <text x="383.04px" y="190.56px" style="font-family:'ArialMT', 'Arial', sans-serif;font-size:10px;">C</text>
    </g>
    <g transform="matrix(1.33333,0,0,1.33333,-58.7427,-64.7918)">
        <text x="371.52px" y="190.56px" style="font-family:'ArialMT', 'Arial', sans-serif;font-size:10px;">H</text>
        <text x="378.72px" y="193.2px" style="font-family:'ArialMT', 'Arial', sans-serif;font-size:8px;">3</text>
    </g>
    <g transform="matrix(1.33333,0,0,1.33333,-58.7427,-64.7918)">
        <text x="417.12px" y="210.48px" style="font-family:'ArialMT', 'Arial', sans-serif;font-size:10px;">O<tspan x="425.04px " y="210.48px ">H</tspan></text>
    </g>
    <g transform="matrix(1.33333,0,0,1.33333,-58.7427,-64.7918)">
        <text x="530.4px" y="168.72px" style="font-family:'ArialMT', 'Arial', sans-serif;font-size:10px;">T<tspan x="536.64px " y="168.72px ">M</tspan></text>
    </g>
    <g transform="matrix(1.33333,0,0,1.33333,-58.7427,-64.7918)">
        <text x="474.72px" y="73.92px" style="font-family:'ArialMT', 'Arial', sans-serif;font-size:9px;">S</text>
    </g>
    <g transform="matrix(1.33333,0,0,1.33333,-58.7427,-64.7918)">
        <text x="490.32px" y="64.56px" style="font-family:'ArialMT', 'Arial', sans-serif;font-size:9px;">O</text>
    </g>
    <g transform="matrix(1.33333,0,0,1.33333,-58.7427,-64.7918)">
        <text x="457.92px" y="83.28px" style="font-family:'ArialMT', 'Arial', sans-serif;font-size:9px;">O</text>
    </g>
    <g transform="matrix(1.33333,0,0,1.33333,-58.7427,-64.7918)">
        <text x="460.8px" y="57.84px" style="font-family:'ArialMT', 'Arial', sans-serif;font-size:9px;">Cl</text>
    </g>
    <g transform="matrix(1.33333,0,0,1.33333,-58.7427,-64.7918)">
        <text x="474.48px" y="148.8px" style="font-family:'ArialMT', 'Arial', sans-serif;font-size:9px;">CH</text>
        <text x="487.44px" y="151.44px" style="font-family:'ArialMT', 'Arial', sans-serif;font-size:7px;">3</text>
    </g>
    <g transform="matrix(1.33333,0,0,1.33333,-58.7427,-64.7918)">
        <text x="474.24px" y="218.4px" style="font-family:'ArialMT', 'Arial', sans-serif;font-size:10px;">N</text>
    </g>
    <g transform="matrix(1.33333,0,0,1.33333,-58.7427,-64.7918)">
        <text x="144px" y="156px" style="font-family:'ArialMT', 'Arial', sans-serif;font-size:10px;">L</text>
        <text x="149.52px" y="156px" style="font-family:'ArialMT', 'Arial', sans-serif;font-size:10px;">i</text>
        <text x="151.92px" y="156px" style="font-family:'ArialMT', 'Arial', sans-serif;font-size:10px;">A</text>
        <text x="158.64px" y="156px" style="font-family:'ArialMT', 'Arial', sans-serif;font-size:10px;">l</text>
        <text x="161.04px" y="156px" style="font-family:'ArialMT', 'Arial', sans-serif;font-size:10px;">H</text>
        <text x="168.24px" y="158.64px" style="font-family:'ArialMT', 'Arial', sans-serif;font-size:6px;">4</text>
    </g>
    <g transform="matrix(1.33333,0,0,1.33333,-58.7427,-64.7918)">
        <text x="297.84px" y="176.88px" style="font-family:'ArialMT', 'Arial', sans-serif;font-size:10px;">H</text>
        <text x="305.04px" y="179.52px" style="font-family:'ArialMT', 'Arial', sans-serif;font-size:6px;">2</text>
        <text x="308.64px" y="176.88px" style="font-family:'ArialMT', 'Arial', sans-serif;font-size:10px;">C</text>
        <text x="315.84px" y="176.88px" style="font-family:'ArialMT', 'Arial', sans-serif;font-size:10px;">O</text>
        <text x="323.76px" y="179.52px" style="font-family:'ArialMT', 'Arial', sans-serif;font-size:6px;">3</text>
    </g>
    <g transform="matrix(1.33333,0,0,1.33333,-58.7427,-64.7918)">
        <text x="296.211px" y="190.56px" style="font-family:'ArialMT', 'Arial', sans-serif;font-size:10px;">тол<tspan x="312.16px " y="190.56px ">у</tspan>ол</text>
    </g>
    <g transform="matrix(1.33333,0,0,1.33333,-58.7427,-64.7918)">
        <text x="339.6px" y="157.44px" style="font-family:'ArialMT', 'Arial', sans-serif;font-size:10px;">Br</text>
    </g>
    <g transform="matrix(1.33333,0,0,1.33333,-58.7427,-64.7918)">
        <text x="270.48px" y="155.52px" style="font-family:'ArialMT', 'Arial', sans-serif;font-size:10px;">Br</text>
    </g>
    <g transform="matrix(-1.07962,0.782428,0.782428,1.07962,-417.906,-635.116)">
        <path d="M63.897,678.505L78.433,678.505" style="fill:none;fill-rule:nonzero;stroke:black;stroke-width:0.72px;"/>
    </g>
    <g transform="matrix(-1.0782,-0.784388,-0.784388,1.0782,677.451,-507.867)">
        <path d="M75.144,676.91L95.066,676.91" style="fill:none;fill-rule:nonzero;stroke:black;stroke-width:0.72px;"/>
    </g>
    <g transform="matrix(0.412964,-1.26777,-1.26777,-0.412964,868.217,564.095)">
        <path d="M85.679,663.945L99.531,663.945" style="fill:none;fill-rule:nonzero;stroke:black;stroke-width:0.72px;"/>
    </g>
    <g transform="matrix(0.413063,-1.26774,-1.26774,-0.413063,865.754,559.42)">
        <path d="M81.772,664.465L96.718,664.465" style="fill:none;fill-rule:nonzero;stroke:black;stroke-width:0.72px;"/>
    </g>
    <g transform="matrix(1.26855,-0.410571,-0.410571,-1.26855,224.202,1055.29)">
        <path d="M92.799,673.335L107.641,673.335" style="fill:none;fill-rule:nonzero;stroke:black;stroke-width:0.72px;"/>
    </g>
    <g transform="matrix(0.98938,0.893815,0.893815,-0.98938,-616.662,720.178)">
        <path d="M116.202,670.285L123.318,670.285" style="fill:none;fill-rule:nonzero;stroke:black;stroke-width:0.72px;"/>
    </g>
    <g transform="matrix(0.000908884,-1.33333,-1.33333,-0.000908884,964.067,240.995)">
        <path d="M69.72,690.105L84.39,690.105" style="fill:none;fill-rule:nonzero;stroke:black;stroke-width:0.72px;"/>
    </g>
    <g transform="matrix(1.33333,0,0,1.33333,-58.7427,-749.592)">
        <path d="M144.24,677.76L178.32,677.76" style="fill:none;fill-rule:nonzero;stroke:black;stroke-width:0.72px;"/>
    </g>
    <g transform="matrix(1.2958,0.314133,0.314133,-1.2958,-265.105,977.557)">
        <path d="M170.059,678.693L178.209,678.693L170.964,674.961L171.911,677.166L170.059,678.693Z" style="stroke:black;stroke-width:0.72px;"/>
    </g>
    <g transform="matrix(-1.07962,0.782428,0.782428,1.07962,-58.2791,-751.729)">
        <path d="M212.937,678.505L227.473,678.505" style="fill:none;fill-rule:nonzero;stroke:black;stroke-width:0.72px;"/>
    </g>
    <g transform="matrix(-1.0782,-0.784388,-0.784388,1.0782,1036.87,-390.962)">
        <path d="M224.184,676.91L244.106,676.91" style="fill:none;fill-rule:nonzero;stroke:black;stroke-width:0.72px;"/>
    </g>
    <g transform="matrix(0.413015,-1.26775,-1.26775,-0.413015,1004.15,750.711)">
        <path d="M232.771,664.205L247.169,664.205" style="fill:none;fill-rule:nonzero;stroke:black;stroke-width:0.72px;"/>
    </g>
    <g transform="matrix(0.000908884,-1.33333,-1.33333,-0.000908884,1162.65,439.715)">
        <path d="M218.76,690.105L233.43,690.105" style="fill:none;fill-rule:nonzero;stroke:black;stroke-width:0.72px;"/>
    </g>
    <g transform="matrix(1.33333,0,0,1.33333,-58.7427,-748.312)">
        <path d="M261.36,677.28L363.36,677.28" style="fill:none;fill-rule:nonzero;stroke:black;stroke-width:0.72px;"/>
    </g>
    <g transform="matrix(1.2958,0.314133,0.314133,-1.2958,-258.01,919.448)">
        <path d="M355.099,678.213L363.249,678.213L356.004,674.481L356.951,676.686L355.099,678.213Z" style="stroke:black;stroke-width:0.72px;"/>
    </g>
    <g transform="matrix(0,-1.33333,-1.33333,0,1442.98,679.168)">
        <path d="M411.21,705.12L431.13,705.12" style="fill:none;fill-rule:nonzero;stroke:black;stroke-width:0.72px;"/>
    </g>
    <g transform="matrix(1.15468,0.666702,0.666702,-1.15468,-465.106,654.082)">
        <path d="M402.586,720.06L422.504,720.06" style="fill:none;fill-rule:nonzero;stroke:black;stroke-width:0.72px;"/>
    </g>
    <g transform="matrix(1.15451,-0.666992,-0.666992,-1.15451,476.59,1210.73)">
        <path d="M407.239,691.425L422.171,691.425" style="fill:none;fill-rule:nonzero;stroke:black;stroke-width:0.72px;"/>
    </g>
    <g transform="matrix(1.15468,-0.666702,-0.666702,-1.15468,491.944,1192.67)">
        <path d="M385.336,720.06L405.254,720.06" style="fill:none;fill-rule:nonzero;stroke:black;stroke-width:0.72px;"/>
    </g>
    <g transform="matrix(1.15462,0.666805,0.666805,-1.15462,-449.666,672.192)">
        <path d="M385.706,691.565L400.084,691.565" style="fill:none;fill-rule:nonzero;stroke:black;stroke-width:0.72px;"/>
    </g>
    <g transform="matrix(0,-1.33333,-1.33333,0,1396.98,633.168)">
        <path d="M376.71,705.12L396.63,705.12" style="fill:none;fill-rule:nonzero;stroke:black;stroke-width:0.72px;"/>
    </g>
    <g transform="matrix(0,1.33333,1.33333,0,-416.983,-377.592)">
        <path d="M396.6,672.6L411.24,672.6" style="fill:none;fill-rule:nonzero;stroke:black;stroke-width:0.72px;"/>
    </g>
    <g transform="matrix(-1.15485,0.666401,0.666401,1.15485,489.563,-853.376)">
        <path d="M390.217,661.61L404.903,661.61" style="fill:none;fill-rule:nonzero;stroke:black;stroke-width:0.72px;"/>
    </g>
    <g transform="matrix(1.15468,0.666702,0.666702,-1.15468,-425.264,664.759)">
        <path d="M402.586,660.3L422.504,660.3" style="fill:none;fill-rule:nonzero;stroke:black;stroke-width:0.72px;"/>
    </g>
    <g transform="matrix(0,1.33333,1.33333,0,-361.103,-367.712)">
        <path d="M413.79,647.94L428.55,647.94" style="fill:none;fill-rule:nonzero;stroke:black;stroke-width:0.72px;"/>
    </g>
    <g transform="matrix(1.33333,0,0,1.33333,-58.7427,-750.232)">
        <path d="M441.84,678L516.24,678" style="fill:none;fill-rule:nonzero;stroke:black;stroke-width:0.72px;"/>
    </g>
    <g transform="matrix(1.2958,0.314133,0.314133,-1.2958,-252.498,871.396)">
        <path d="M507.979,678.933L516.129,678.933L508.884,675.201L509.831,677.406L507.979,678.933Z" style="stroke:black;stroke-width:0.72px;"/>
    </g>
    <g transform="matrix(0,-1.33333,-1.33333,0,1578.6,737.888)">
        <path d="M484.69,733.96L503.41,733.96" style="fill:none;fill-rule:nonzero;stroke:black;stroke-width:0.48px;"/>
    </g>
    <g transform="matrix(1.15467,0.666728,0.666728,-1.15467,-470.632,600.131)">
        <path d="M476.586,748L495.304,748" style="fill:none;fill-rule:nonzero;stroke:black;stroke-width:0.48px;"/>
    </g>
    <g transform="matrix(1.15427,0.667411,0.667411,-1.15427,-469.544,600.912)">
        <path d="M477.083,745.505L491.927,745.505" style="fill:none;fill-rule:nonzero;stroke:black;stroke-width:0.48px;"/>
    </g>
    <g transform="matrix(1.15467,-0.666728,-0.666728,-1.15467,508.071,1253.13)">
        <path d="M476.586,719.92L495.304,719.92" style="fill:none;fill-rule:nonzero;stroke:black;stroke-width:0.48px;"/>
    </g>
    <g transform="matrix(1.15427,-0.667411,-0.667411,-1.15427,510.162,1251.77)">
        <path d="M477.083,722.415L491.927,722.415" style="fill:none;fill-rule:nonzero;stroke:black;stroke-width:0.48px;"/>
    </g>
    <g transform="matrix(1.15467,-0.666728,-0.666728,-1.15467,523.897,1237.31)">
        <path d="M460.376,748L479.094,748" style="fill:none;fill-rule:nonzero;stroke:black;stroke-width:0.48px;"/>
    </g>
    <g transform="matrix(1.15467,0.666728,0.666728,-1.15467,-454.807,615.956)">
        <path d="M460.376,719.92L479.094,719.92" style="fill:none;fill-rule:nonzero;stroke:black;stroke-width:0.48px;"/>
    </g>
    <g transform="matrix(0,-1.33333,-1.33333,0,1535.38,694.661)">
        <path d="M452.27,733.96L470.99,733.96" style="fill:none;fill-rule:nonzero;stroke:black;stroke-width:0.48px;"/>
    </g>
    <g transform="matrix(0,-1.33333,-1.33333,0,1539.22,698.501)">
        <path d="M457.09,733.96L471.93,733.96" style="fill:none;fill-rule:nonzero;stroke:black;stroke-width:0.48px;"/>
    </g>
    <g transform="matrix(0,-1.33333,-1.33333,0,1591.36,681.901)">
        <path d="M470.78,759.74L484.9,759.74" style="fill:none;fill-rule:nonzero;stroke:black;stroke-width:0.48px;"/>
    </g>
    <g transform="matrix(1.15431,-0.667337,-0.667337,-1.15431,544.808,1243.18)">
        <path d="M481.084,774.17L489.956,774.17" style="fill:none;fill-rule:nonzero;stroke:black;stroke-width:0.48px;"/>
    </g>
    <g transform="matrix(1.15496,-0.66621,-0.66621,-1.15496,545.834,1242.55)">
        <path d="M481.087,777.495L489.953,777.495" style="fill:none;fill-rule:nonzero;stroke:black;stroke-width:0.48px;"/>
    </g>
    <g transform="matrix(-1.15431,0.667337,0.667337,1.15431,597.41,-1167.56)">
        <path d="M465.484,768.49L474.356,768.49" style="fill:none;fill-rule:nonzero;stroke:black;stroke-width:0.48px;"/>
    </g>
    <g transform="matrix(-1.15496,0.66621,0.66621,1.15496,600.798,-1159.26)">
        <path d="M465.487,765.165L474.353,765.165" style="fill:none;fill-rule:nonzero;stroke:black;stroke-width:0.48px;"/>
    </g>
    <g transform="matrix(-0.666871,-1.15458,-1.15458,0.666871,1787.67,42.9919)">
        <path d="M468.056,780.22L477.434,780.22" style="fill:none;fill-rule:nonzero;stroke:black;stroke-width:0.48px;"/>
    </g>
    <g transform="matrix(0,1.33333,1.33333,0,-365.969,-523.699)">
        <path d="M470.86,708.26L484.82,708.26" style="fill:none;fill-rule:nonzero;stroke:black;stroke-width:0.48px;"/>
    </g>
    <g transform="matrix(0,-1.33333,-1.33333,0,1465.06,854.848)">
        <path d="M485.37,647.52L505.29,647.52" style="fill:none;fill-rule:nonzero;stroke:black;stroke-width:0.48px;"/>
    </g>
    <g transform="matrix(1.15468,0.666702,0.666702,-1.15468,-413.455,614.93)">
        <path d="M476.746,662.46L496.664,662.46" style="fill:none;fill-rule:nonzero;stroke:black;stroke-width:0.48px;"/>
    </g>
    <g transform="matrix(1.1549,0.66632,0.66632,-1.1549,-411.67,616.901)">
        <path d="M476.961,659.55L493.089,659.55" style="fill:none;fill-rule:nonzero;stroke:black;stroke-width:0.48px;"/>
    </g>
    <g transform="matrix(1.15451,-0.666992,-0.666992,-1.15451,451.433,1270.5)">
        <path d="M481.399,633.825L496.331,633.825" style="fill:none;fill-rule:nonzero;stroke:black;stroke-width:0.48px;"/>
    </g>
    <g transform="matrix(1.15479,-0.66652,-0.66652,-1.15479,452.001,1268.16)">
        <path d="M479.168,636.08L492.932,636.08" style="fill:none;fill-rule:nonzero;stroke:black;stroke-width:0.48px;"/>
    </g>
    <g transform="matrix(1.15468,-0.666702,-0.666702,-1.15468,466.791,1252.4)">
        <path d="M459.496,662.46L479.414,662.46" style="fill:none;fill-rule:nonzero;stroke:black;stroke-width:0.48px;"/>
    </g>
    <g transform="matrix(1.15462,0.666805,0.666805,-1.15462,-398.005,633.036)">
        <path d="M459.866,633.965L474.244,633.965" style="fill:none;fill-rule:nonzero;stroke:black;stroke-width:0.48px;"/>
    </g>
    <g transform="matrix(0,-1.33333,-1.33333,0,1419.06,808.848)">
        <path d="M450.87,647.52L470.79,647.52" style="fill:none;fill-rule:nonzero;stroke:black;stroke-width:0.48px;"/>
    </g>
    <g transform="matrix(0,-1.33333,-1.33333,0,1423.54,813.328)">
        <path d="M456.13,647.52L472.25,647.52" style="fill:none;fill-rule:nonzero;stroke:black;stroke-width:0.48px;"/>
    </g>
    <g transform="matrix(-1.17152,0.636639,0.636639,1.17152,195.765,-913.358)">
        <path d="M273.351,714.915L293.269,714.915" style="fill:none;fill-rule:nonzero;stroke:black;stroke-width:0.48px;"/>
    </g>
    <g transform="matrix(-1.1369,-0.696592,-0.696592,1.1369,1181.39,-497.761)">
        <path d="M290.592,714.465L310.518,714.465" style="fill:none;fill-rule:nonzero;stroke:black;stroke-width:0.48px;"/>
    </g>
    <g transform="matrix(-1.17168,0.636359,0.636359,1.17168,282.992,-933.084)">
        <path d="M307.842,714.015L327.768,714.015" style="fill:none;fill-rule:nonzero;stroke:black;stroke-width:0.48px;"/>
    </g>
    <g transform="matrix(-1.13672,-0.696891,-0.696891,1.13672,1266.12,-471.279)">
        <path d="M325.091,713.565L345.009,713.565" style="fill:none;fill-rule:nonzero;stroke:black;stroke-width:0.48px;"/>
    </g>
    <g transform="matrix(-0.0343156,1.33289,1.33289,0.0343156,-523.491,-358.575)">
        <path d="M335.968,700.98L350.732,700.98" style="fill:none;fill-rule:nonzero;stroke:black;stroke-width:0.48px;"/>
    </g>
    <g transform="matrix(-0.0345967,1.33288,1.33288,0.0345967,-620.228,-269.371)">
        <path d="M267.048,702.84L281.692,702.84" style="fill:none;fill-rule:nonzero;stroke:black;stroke-width:0.48px;"/>
    </g>
</svg>
