<?xml version="1.0" encoding="UTF-8" standalone="no"?>
<!DOCTYPE svg PUBLIC "-//W3C//DTD SVG 1.1//EN" "http://www.w3.org/Graphics/SVG/1.1/DTD/svg11.dtd">
<svg width="100%" height="100%" viewBox="0 0 620 230" version="1.1" xmlns="http://www.w3.org/2000/svg" xmlns:xlink="http://www.w3.org/1999/xlink" xml:space="preserve" xmlns:serif="http://www.serif.com/" style="fill-rule:evenodd;clip-rule:evenodd;stroke-linecap:round;stroke-linejoin:round;stroke-miterlimit:10;">
    <g transform="matrix(1.33333,0,0,1.33333,-85.6649,-61.7432)">
        <text x="129.36px" y="94.08px" style="font-family:'ArialMT', 'Arial', sans-serif;font-size:10px;">O</text>
    </g>
    <g transform="matrix(1.33333,0,0,1.33333,-85.6649,-61.7432)">
        <text x="123.84px" y="58.8px" style="font-family:'ArialMT', 'Arial', sans-serif;font-size:10px;">O</text>
    </g>
    <g transform="matrix(1.33333,0,0,1.33333,-85.6649,-61.7432)">
        <text x="123.84px" y="129.12px" style="font-family:'ArialMT', 'Arial', sans-serif;font-size:10px;">O</text>
    </g>
    <g transform="matrix(1.33333,0,0,1.33333,-85.6649,-61.7432)">
        <text x="276.48px" y="93.12px" style="font-family:'ArialMT', 'Arial', sans-serif;font-size:10px;">O</text>
        <text x="284.4px" y="93.12px" style="font-family:'ArialMT', 'Arial', sans-serif;font-size:10px;">Et</text>
    </g>
    <g transform="matrix(1.33333,0,0,1.33333,-85.6649,-61.7432)">
        <text x="269.04px" y="128.64px" style="font-family:'ArialMT', 'Arial', sans-serif;font-size:10px;">O</text>
    </g>
    <g transform="matrix(1.33333,0,0,1.33333,-85.6649,-61.7432)">
        <text x="270.96px" y="57.84px" style="font-family:'ArialMT', 'Arial', sans-serif;font-size:10px;">O</text>
    </g>
    <g transform="matrix(1.33333,0,0,1.33333,-85.6649,-61.7432)">
        <text x="491.76px" y="92.88px" style="font-family:'ArialMT', 'Arial', sans-serif;font-size:10px;">O</text>
    </g>
    <g transform="matrix(1.33333,0,0,1.33333,-85.6649,-61.7432)">
        <text x="505.92px" y="132px" style="font-family:'ArialMT', 'Arial', sans-serif;font-size:10px;">N</text>
        <text x="513.12px" y="132px" style="font-family:'ArialMT', 'Arial', sans-serif;font-size:10px;">O</text>
        <text x="521.28px" y="134.64px" style="font-family:'ArialMT', 'Arial', sans-serif;font-size:8px;">2</text>
    </g>
    <g transform="matrix(1.33333,0,0,1.33333,-85.6649,-61.7432)">
        <text x="420.96px" y="149.04px" style="font-family:'ArialMT', 'Arial', sans-serif;font-size:10px;">C</text>
    </g>
    <g transform="matrix(1.33333,0,0,1.33333,-85.6649,-61.7432)">
        <text x="409.44px" y="149.04px" style="font-family:'ArialMT', 'Arial', sans-serif;font-size:10px;">H</text>
        <text x="416.64px" y="151.68px" style="font-family:'ArialMT', 'Arial', sans-serif;font-size:8px;">3</text>
    </g>
    <g transform="matrix(1.33333,0,0,1.33333,-85.6649,-61.7432)">
        <text x="486.24px" y="57.6px" style="font-family:'ArialMT', 'Arial', sans-serif;font-size:10px;">O</text>
    </g>
    <g transform="matrix(1.33333,0,0,1.33333,-85.6649,-61.7432)">
        <text x="461.28px" y="214.8px" style="font-family:'ArialMT', 'Arial', sans-serif;font-size:10px;">T<tspan x="467.52px " y="214.8px ">M</tspan></text>
    </g>
    <g transform="matrix(1.33333,0,0,1.33333,-85.6649,-61.7432)">
        <text x="152.16px" y="79.92px" style="font-family:'ArialMT', 'Arial', sans-serif;font-size:10px;">1</text>
        <text x="157.68px" y="79.92px" style="font-family:'ArialMT', 'Arial', sans-serif;font-size:10px;">) <tspan x="163.963px " y="79.92px ">E</tspan></text>
        <text x="170.673px" y="79.92px" style="font-family:'ArialMT', 'Arial', sans-serif;font-size:10px;">t<tspan x="173.573px 181.473px " y="79.92px 79.92px ">OH</tspan></text>
    </g>
    <g transform="matrix(1.33333,0,0,1.33333,-85.6649,-61.7432)">
        <text x="152.88px" y="105.6px" style="font-family:'ArialMT', 'Arial', sans-serif;font-size:10px;">2</text>
        <text x="158.4px" y="105.6px" style="font-family:'ArialMT', 'Arial', sans-serif;font-size:10px;">) <tspan x="164.683px " y="105.6px ">S</tspan></text>
        <text x="171.393px" y="105.6px" style="font-family:'ArialMT', 'Arial', sans-serif;font-size:10px;">O</text>
        <text x="179.313px" y="105.6px" style="font-family:'ArialMT', 'Arial', sans-serif;font-size:10px;">C</text>
        <text x="186.513px" y="105.6px" style="font-family:'ArialMT', 'Arial', sans-serif;font-size:10px;">l</text>
        <text x="188.913px" y="108.24px" style="font-family:'ArialMT', 'Arial', sans-serif;font-size:6px;">2</text>
    </g>
    <g transform="matrix(1.33333,0,0,1.33333,-85.6649,-61.7432)">
        <text x="144px" y="120.96px" style="font-family:'ArialMT', 'Arial', sans-serif;font-size:10px;">3</text>
        <text x="149.52px" y="120.96px" style="font-family:'ArialMT', 'Arial', sans-serif;font-size:10px;">) <tspan x="155.803px " y="120.96px ">P</tspan></text>
        <text x="162.513px" y="120.96px" style="font-family:'ArialMT', 'Arial', sans-serif;font-size:10px;">d</text>
        <text x="168.033px" y="120.96px" style="font-family:'ArialMT', 'Arial', sans-serif;font-size:10px;">/</text>
        <text x="170.913px" y="120.96px" style="font-family:'ArialMT', 'Arial', sans-serif;font-size:10px;">B</text>
        <text x="177.633px" y="120.96px" style="font-family:'ArialMT', 'Arial', sans-serif;font-size:10px;">a</text>
        <text x="183.153px" y="120.96px" style="font-family:'ArialMT', 'Arial', sans-serif;font-size:10px;">S</text>
        <text x="189.873px" y="120.96px" style="font-family:'ArialMT', 'Arial', sans-serif;font-size:10px;">O</text>
        <text x="197.793px" y="123.6px" style="font-family:'ArialMT', 'Arial', sans-serif;font-size:6px;">4</text>
    </g>
    <g transform="matrix(1.33333,0,0,1.33333,-85.6649,-61.7432)">
        <text x="162.48px" y="134.64px" style="font-family:'ArialMT', 'Arial', sans-serif;font-size:10px;">P</text>
        <text x="169.2px" y="134.64px" style="font-family:'ArialMT', 'Arial', sans-serif;font-size:10px;">bO</text>
    </g>
    <g transform="matrix(1.33333,0,0,1.33333,-85.6649,-61.7432)">
        <text x="321.84px" y="75.36px" style="font-family:'ArialMT', 'Arial', sans-serif;font-size:10px;">C</text>
    </g>
    <g transform="matrix(1.33333,0,0,1.33333,-85.6649,-61.7432)">
        <text x="310.32px" y="75.36px" style="font-family:'ArialMT', 'Arial', sans-serif;font-size:10px;">H</text>
        <text x="317.52px" y="78px" style="font-family:'ArialMT', 'Arial', sans-serif;font-size:8px;">3</text>
    </g>
    <g transform="matrix(1.33333,0,0,1.33333,-85.6649,-61.7432)">
        <text x="390.72px" y="77.04px" style="font-family:'ArialMT', 'Arial', sans-serif;font-size:10px;">N</text>
        <text x="397.92px" y="77.04px" style="font-family:'ArialMT', 'Arial', sans-serif;font-size:10px;">O</text>
        <text x="406.08px" y="79.68px" style="font-family:'ArialMT', 'Arial', sans-serif;font-size:8px;">2</text>
    </g>
    <g transform="matrix(1.33333,0,0,1.33333,-85.6649,-61.7432)">
        <text x="346.56px" y="104.64px" style="font-family:'ArialMT', 'Arial', sans-serif;font-size:10px;">Na</text>
        <text x="359.28px" y="104.64px" style="font-family:'ArialMT', 'Arial', sans-serif;font-size:10px;">O<tspan x="367.2px " y="104.64px ">H</tspan></text>
    </g>
    <g transform="matrix(1.33333,0,0,1.33333,-85.6649,-61.7432)">
        <text x="450.72px" y="178.08px" style="font-family:'ArialMT', 'Arial', sans-serif;font-size:10px;">H</text>
        <text x="457.929px" y="180.72px" style="font-family:'ArialMT', 'Arial', sans-serif;font-size:6px;">2</text>
        <text x="474.96px" y="178.32px" style="font-family:'ArialMT', 'Arial', sans-serif;font-size:10px;"><tspan x="474.96px " y="178.32px ">P</tspan>d</text>
    </g>
    <g transform="matrix(1.15468,0.666702,0.666702,-1.15468,-580.127,861.101)">
        <path d="M84.106,766.86L104.024,766.86" style="fill:none;fill-rule:nonzero;stroke:black;stroke-width:0.72px;"/>
    </g>
    <g transform="matrix(1.15458,0.666876,0.666876,-1.15458,-578.611,862.648)">
        <path d="M84.088,763.95L100.682,763.95" style="fill:none;fill-rule:nonzero;stroke:black;stroke-width:0.72px;"/>
    </g>
    <g transform="matrix(1.15468,-0.666702,-0.666702,-1.15468,422.486,991.866)">
        <path d="M84.106,736.98L104.024,736.98" style="fill:none;fill-rule:nonzero;stroke:black;stroke-width:0.72px;"/>
    </g>
    <g transform="matrix(1.15458,-0.666876,-0.666876,-1.15458,424.264,990.168)">
        <path d="M84.088,739.89L100.682,739.89" style="fill:none;fill-rule:nonzero;stroke:black;stroke-width:0.72px;"/>
    </g>
    <g transform="matrix(1.15468,-0.666702,-0.666702,-1.15468,439.326,975.027)">
        <path d="M66.856,766.86L86.774,766.86" style="fill:none;fill-rule:nonzero;stroke:black;stroke-width:0.72px;"/>
    </g>
    <g transform="matrix(1.15468,0.666702,0.666702,-1.15468,-563.288,877.94)">
        <path d="M66.856,736.98L86.774,736.98" style="fill:none;fill-rule:nonzero;stroke:black;stroke-width:0.72px;"/>
    </g>
    <g transform="matrix(0,-1.33333,-1.33333,0,1007.82,149.177)">
        <path d="M58.23,751.92L78.15,751.92" style="fill:none;fill-rule:nonzero;stroke:black;stroke-width:0.72px;"/>
    </g>
    <g transform="matrix(0,-1.33333,-1.33333,0,1012.3,153.657)">
        <path d="M63.25,751.92L79.85,751.92" style="fill:none;fill-rule:nonzero;stroke:black;stroke-width:0.72px;"/>
    </g>
    <g transform="matrix(-1.26802,0.41219,0.41219,1.26802,-109.193,-975.348)">
        <path d="M102.202,764.96L122.128,764.96" style="fill:none;fill-rule:nonzero;stroke:black;stroke-width:0.72px;"/>
    </g>
    <g transform="matrix(0,-1.33333,-1.33333,0,1053.82,195.177)">
        <path d="M92.73,751.92L112.65,751.92" style="fill:none;fill-rule:nonzero;stroke:black;stroke-width:0.72px;"/>
    </g>
    <g transform="matrix(-0.78307,-1.07916,-1.07916,0.78307,1003.14,-417.334)">
        <path d="M118.815,762.5L132.505,762.5" style="fill:none;fill-rule:nonzero;stroke:black;stroke-width:0.72px;"/>
    </g>
    <g transform="matrix(-1.26802,-0.41219,-0.41219,1.26802,510.675,-815.038)">
        <path d="M102.202,738.88L122.128,738.88" style="fill:none;fill-rule:nonzero;stroke:black;stroke-width:0.72px;"/>
    </g>
    <g transform="matrix(0.783341,-1.07896,-1.07896,-0.783341,783.147,788.642)">
        <path d="M118.877,741.22L132.273,741.22" style="fill:none;fill-rule:nonzero;stroke:black;stroke-width:0.72px;"/>
    </g>
    <g transform="matrix(0.412115,-1.26805,-1.26805,-0.412115,1012.39,506.359)">
        <path d="M117.999,774.72L133.141,774.72" style="fill:none;fill-rule:nonzero;stroke:black;stroke-width:0.72px;"/>
    </g>
    <g transform="matrix(0.411664,-1.26819,-1.26819,-0.411664,1010.12,501.292)">
        <path d="M115.182,775.235L129.238,775.235" style="fill:none;fill-rule:nonzero;stroke:black;stroke-width:0.72px;"/>
    </g>
    <g transform="matrix(0.411943,1.2681,1.2681,-0.411943,-897,234.517)">
        <path d="M115.186,728.6L129.234,728.6" style="fill:none;fill-rule:nonzero;stroke:black;stroke-width:0.72px;"/>
    </g>
    <g transform="matrix(0.412115,1.26805,1.26805,-0.412115,-894.536,229.897)">
        <path d="M118.009,729.12L133.151,729.12" style="fill:none;fill-rule:nonzero;stroke:black;stroke-width:0.72px;"/>
    </g>
    <g transform="matrix(1.33333,0,0,1.33333,-85.6649,-952.623)">
        <path d="M153.36,755.04L196.56,755.04" style="fill:none;fill-rule:nonzero;stroke:black;stroke-width:0.72px;"/>
    </g>
    <g transform="matrix(1.2958,0.314133,0.314133,-1.2958,-315.619,971.976)">
        <path d="M188.299,755.973L196.449,755.973L189.204,752.241L190.151,754.446L188.299,755.973Z" style="stroke:black;stroke-width:0.72px;"/>
    </g>
    <g transform="matrix(1.15468,0.666702,0.666702,-1.15468,-554.484,762.845)">
        <path d="M231.226,767.82L251.144,767.82" style="fill:none;fill-rule:nonzero;stroke:black;stroke-width:0.72px;"/>
    </g>
    <g transform="matrix(1.15458,0.666876,0.666876,-1.15458,-552.953,764.366)">
        <path d="M231.208,764.91L247.802,764.91" style="fill:none;fill-rule:nonzero;stroke:black;stroke-width:0.72px;"/>
    </g>
    <g transform="matrix(1.15468,-0.666702,-0.666702,-1.15468,449.41,1089.78)">
        <path d="M231.226,737.94L251.144,737.94" style="fill:none;fill-rule:nonzero;stroke:black;stroke-width:0.72px;"/>
    </g>
    <g transform="matrix(1.15458,-0.666876,-0.666876,-1.15458,451.203,1088.11)">
        <path d="M231.208,740.85L247.802,740.85" style="fill:none;fill-rule:nonzero;stroke:black;stroke-width:0.72px;"/>
    </g>
    <g transform="matrix(1.15468,-0.666702,-0.666702,-1.15468,466.249,1072.94)">
        <path d="M213.976,767.82L233.894,767.82" style="fill:none;fill-rule:nonzero;stroke:black;stroke-width:0.72px;"/>
    </g>
    <g transform="matrix(1.15468,0.666702,0.666702,-1.15468,-537.644,779.683)">
        <path d="M213.976,737.94L233.894,737.94" style="fill:none;fill-rule:nonzero;stroke:black;stroke-width:0.72px;"/>
    </g>
    <g transform="matrix(0,-1.33333,-1.33333,0,1205.26,344.057)">
        <path d="M205.35,752.88L225.27,752.88" style="fill:none;fill-rule:nonzero;stroke:black;stroke-width:0.72px;"/>
    </g>
    <g transform="matrix(0,-1.33333,-1.33333,0,1209.74,348.537)">
        <path d="M210.37,752.88L226.97,752.88" style="fill:none;fill-rule:nonzero;stroke:black;stroke-width:0.72px;"/>
    </g>
    <g transform="matrix(-1.26802,0.41219,0.41219,1.26802,273.122,-1038.49)">
        <path d="M249.322,765.92L269.248,765.92" style="fill:none;fill-rule:nonzero;stroke:black;stroke-width:0.72px;"/>
    </g>
    <g transform="matrix(0,-1.33333,-1.33333,0,1251.26,390.057)">
        <path d="M239.85,752.88L259.77,752.88" style="fill:none;fill-rule:nonzero;stroke:black;stroke-width:0.72px;"/>
    </g>
    <g transform="matrix(-0.78307,-1.07916,-1.07916,0.78307,1315.54,-260.6)">
        <path d="M265.935,763.46L279.625,763.46" style="fill:none;fill-rule:nonzero;stroke:black;stroke-width:0.72px;"/>
    </g>
    <g transform="matrix(-1.26802,-0.41219,-0.41219,1.26802,893.782,-756.894)">
        <path d="M249.322,739.84L269.248,739.84" style="fill:none;fill-rule:nonzero;stroke:black;stroke-width:0.72px;"/>
    </g>
    <g transform="matrix(0.277015,1.30424,1.30424,-0.277015,-751.705,-62.3686)">
        <path d="M262.945,729.58L277.625,729.58" style="fill:none;fill-rule:nonzero;stroke:black;stroke-width:0.72px;"/>
    </g>
    <g transform="matrix(0.2773,1.30418,1.30418,-0.2773,-753.588,-56.7648)">
        <path d="M260.945,728.42L273.255,728.42" style="fill:none;fill-rule:nonzero;stroke:black;stroke-width:0.72px;"/>
    </g>
    <g transform="matrix(0.412115,-1.26805,-1.26805,-0.412115,1149.14,692.029)">
        <path d="M265.119,775.68L280.261,775.68" style="fill:none;fill-rule:nonzero;stroke:black;stroke-width:0.72px;"/>
    </g>
    <g transform="matrix(0.411664,-1.26819,-1.26819,-0.411664,1146.93,686.984)">
        <path d="M262.302,776.195L276.358,776.195" style="fill:none;fill-rule:nonzero;stroke:black;stroke-width:0.72px;"/>
    </g>
    <g transform="matrix(1.33333,0,0,1.33333,-85.6649,-953.903)">
        <path d="M311.76,755.52L408.96,755.52" style="fill:none;fill-rule:nonzero;stroke:black;stroke-width:0.72px;"/>
    </g>
    <g transform="matrix(1.2958,0.314133,0.314133,-1.2958,-307.798,905.236)">
        <path d="M400.699,756.453L408.849,756.453L401.604,752.721L402.551,754.926L400.699,756.453Z" style="stroke:black;stroke-width:0.72px;"/>
    </g>
    <g transform="matrix(1.15468,0.666702,0.666702,-1.15468,-516.183,619.274)">
        <path d="M446.506,768.06L466.424,768.06" style="fill:none;fill-rule:nonzero;stroke:black;stroke-width:0.72px;"/>
    </g>
    <g transform="matrix(1.15458,0.666876,0.666876,-1.15458,-514.631,620.758)">
        <path d="M446.488,765.15L463.082,765.15" style="fill:none;fill-rule:nonzero;stroke:black;stroke-width:0.72px;"/>
    </g>
    <g transform="matrix(1.15468,-0.666702,-0.666702,-1.15468,488.03,1233.26)">
        <path d="M446.506,738.18L466.424,738.18" style="fill:none;fill-rule:nonzero;stroke:black;stroke-width:0.72px;"/>
    </g>
    <g transform="matrix(1.15458,-0.666876,-0.666876,-1.15458,489.845,1231.63)">
        <path d="M446.488,741.09L463.082,741.09" style="fill:none;fill-rule:nonzero;stroke:black;stroke-width:0.72px;"/>
    </g>
    <g transform="matrix(1.15468,-0.666702,-0.666702,-1.15468,504.87,1216.43)">
        <path d="M429.256,768.06L449.174,768.06" style="fill:none;fill-rule:nonzero;stroke:black;stroke-width:0.72px;"/>
    </g>
    <g transform="matrix(1.15468,0.666702,0.666702,-1.15468,-499.344,636.113)">
        <path d="M429.256,738.18L449.174,738.18" style="fill:none;fill-rule:nonzero;stroke:black;stroke-width:0.72px;"/>
    </g>
    <g transform="matrix(0,-1.33333,-1.33333,0,1492.62,630.777)">
        <path d="M420.63,753.12L440.55,753.12" style="fill:none;fill-rule:nonzero;stroke:black;stroke-width:0.72px;"/>
    </g>
    <g transform="matrix(0,-1.33333,-1.33333,0,1497.1,635.257)">
        <path d="M425.65,753.12L442.25,753.12" style="fill:none;fill-rule:nonzero;stroke:black;stroke-width:0.72px;"/>
    </g>
    <g transform="matrix(-1.26802,0.41219,0.41219,1.26802,833.043,-1127.85)">
        <path d="M464.602,766.16L484.528,766.16" style="fill:none;fill-rule:nonzero;stroke:black;stroke-width:0.72px;"/>
    </g>
    <g transform="matrix(0,-1.33333,-1.33333,0,1538.62,676.777)">
        <path d="M455.13,753.12L475.05,753.12" style="fill:none;fill-rule:nonzero;stroke:black;stroke-width:0.72px;"/>
    </g>
    <g transform="matrix(-0.78307,-1.07916,-1.07916,0.78307,1771.42,-28.7875)">
        <path d="M481.215,763.7L494.905,763.7" style="fill:none;fill-rule:nonzero;stroke:black;stroke-width:0.72px;"/>
    </g>
    <g transform="matrix(-1.26802,-0.41219,-0.41219,1.26802,1453.9,-668.782)">
        <path d="M464.602,740.08L484.528,740.08" style="fill:none;fill-rule:nonzero;stroke:black;stroke-width:0.72px;"/>
    </g>
    <g transform="matrix(0.783341,-1.07896,-1.07896,-0.783341,983.759,1179)">
        <path d="M481.277,742.42L494.673,742.42" style="fill:none;fill-rule:nonzero;stroke:black;stroke-width:0.72px;"/>
    </g>
    <g transform="matrix(-1.30415,-0.277441,-0.277441,1.30415,1425.48,-690.864)">
        <path d="M490.035,716.49L505.125,716.49" style="fill:none;fill-rule:nonzero;stroke:black;stroke-width:0.72px;"/>
    </g>
    <g transform="matrix(0.892323,-0.990726,-0.990726,-0.892323,831.648,1226.46)">
        <path d="M473.576,710.66L493.494,710.66" style="fill:none;fill-rule:nonzero;stroke:black;stroke-width:0.72px;"/>
    </g>
    <g transform="matrix(0.412387,1.26796,1.26796,-0.412387,-559.53,-226.846)">
        <path d="M477.162,727.53L497.078,727.53" style="fill:none;fill-rule:nonzero;stroke:black;stroke-width:0.72px;"/>
    </g>
    <g transform="matrix(-1.30423,-0.277041,-0.277041,1.30423,1341.81,-670.126)">
        <path d="M457.163,705.33L477.087,705.33" style="fill:none;fill-rule:nonzero;stroke:black;stroke-width:0.72px;"/>
    </g>
    <g transform="matrix(-0.89199,0.991026,0.991026,0.89199,223.609,-943.568)">
        <path d="M440.752,699.995L460.678,699.995" style="fill:none;fill-rule:nonzero;stroke:black;stroke-width:0.72px;"/>
    </g>
    <g transform="matrix(-1.30408,-0.277761,-0.277761,1.30408,1258.61,-648.757)">
        <path d="M428.953,694.18L444.217,694.18" style="fill:none;fill-rule:nonzero;stroke:black;stroke-width:0.72px;"/>
    </g>
    <g transform="matrix(0.412115,-1.26805,-1.26805,-0.412115,1347.76,964.793)">
        <path d="M480.399,775.92L495.541,775.92" style="fill:none;fill-rule:nonzero;stroke:black;stroke-width:0.72px;"/>
    </g>
    <g transform="matrix(0.411664,-1.26819,-1.26819,-0.411664,1345.65,959.779)">
        <path d="M477.582,776.435L491.638,776.435" style="fill:none;fill-rule:nonzero;stroke:black;stroke-width:0.72px;"/>
    </g>
    <g transform="matrix(0,1.33333,1.33333,0,-349.985,-451.503)">
        <path d="M451.2,666.24L484.8,666.24" style="fill:none;fill-rule:nonzero;stroke:black;stroke-width:0.72px;"/>
    </g>
    <g transform="matrix(-0.314133,1.2958,1.2958,0.314133,-161.326,-622.072)">
        <path d="M463.699,654.333L471.849,654.333L464.604,650.601L465.551,652.806L463.699,654.333Z" style="stroke:black;stroke-width:0.72px;"/>
    </g>
    <g transform="matrix(-1.1718,0.636122,0.636122,1.1718,263.223,-1098.78)">
        <path d="M329.107,776.625L343.843,776.625" style="fill:none;fill-rule:nonzero;stroke:black;stroke-width:0.48px;"/>
    </g>
    <g transform="matrix(-1.13642,-0.697377,-0.697377,1.13642,1322.72,-607.98)">
        <path d="M341.479,774.93L361.401,774.93" style="fill:none;fill-rule:nonzero;stroke:black;stroke-width:0.48px;"/>
    </g>
    <g transform="matrix(-1.17196,0.635842,0.635842,1.17196,345.558,-1113.88)">
        <path d="M358.724,774.47L378.646,774.47" style="fill:none;fill-rule:nonzero;stroke:black;stroke-width:0.48px;"/>
    </g>
    <g transform="matrix(-1.13643,-0.697355,-0.697355,1.13643,1402.49,-586.831)">
        <path d="M376.373,775.44L390.827,775.44" style="fill:none;fill-rule:nonzero;stroke:black;stroke-width:0.48px;"/>
    </g>
</svg>
