<?xml version="1.0" encoding="UTF-8" standalone="no"?>
<!DOCTYPE svg PUBLIC "-//W3C//DTD SVG 1.1//EN" "http://www.w3.org/Graphics/SVG/1.1/DTD/svg11.dtd">
<svg width="100%" height="100%" viewBox="0 0 390 70" version="1.1" xmlns="http://www.w3.org/2000/svg" xmlns:xlink="http://www.w3.org/1999/xlink" xml:space="preserve" xmlns:serif="http://www.serif.com/" style="fill-rule:evenodd;clip-rule:evenodd;stroke-linecap:round;stroke-linejoin:round;stroke-miterlimit:10;">
    <g transform="matrix(1.33333,0,0,1.33333,-163.188,-181.16)">
        <text x="123.84px" y="157.2px" style="font-family:'ArialMT', 'Arial', sans-serif;font-size:10px;">R</text>
    </g>
    <g transform="matrix(1.33333,0,0,1.33333,-163.188,-181.16)">
        <text x="153.36px" y="174.24px" style="font-family:'ArialMT', 'Arial', sans-serif;font-size:10px;">O</text>
    </g>
    <g transform="matrix(1.33333,0,0,1.33333,-161.188,-181.16)">
        <text x="177.36px" y="154.08px" style="font-family:'ArialMT', 'Arial', sans-serif;font-size:10px;">M</text>
        <text x="185.76px" y="154.08px" style="font-family:'ArialMT', 'Arial', sans-serif;font-size:10px;">e</text>
        <text x="191.28px" y="156.72px" style="font-family:'ArialMT', 'Arial', sans-serif;font-size:6px;">3</text>
        <text x="194.88px" y="154.08px" style="font-family:'ArialMT', 'Arial', sans-serif;font-size:10px;">S</text>
        <text x="201.6px" y="154.08px" style="font-family:'ArialMT', 'Arial', sans-serif;font-size:10px;">i</text>
        <text x="204px" y="154.08px" style="font-family:'ArialMT', 'Arial', sans-serif;font-size:10px;">CN</text>
    </g>
    <g transform="matrix(1.33333,0,0,1.33333,-165.188,-181.16)">
        <text x="240.24px" y="165.12px" style="font-family:'ArialMT', 'Arial', sans-serif;font-size:10px;">R</text>
    </g>
    <g transform="matrix(1.33333,0,0,1.33333,-165.188,-181.16)">
        <text x="260.16px" y="185.04px" style="font-family:'ArialMT', 'Arial', sans-serif;font-size:10px;">CN</text>
    </g>
    <g transform="matrix(1.33333,0,0,1.33333,-165.188,-181.16)">
        <text x="259.92px" y="145.2px" style="font-family:'ArialMT', 'Arial', sans-serif;font-size:10px;">O</text>
        <text x="267.84px" y="145.2px" style="font-family:'ArialMT', 'Arial', sans-serif;font-size:10px;">S</text>
        <text x="274.56px" y="145.2px" style="font-family:'ArialMT', 'Arial', sans-serif;font-size:10px;">i</text>
        <text x="276.96px" y="145.2px" style="font-family:'ArialMT', 'Arial', sans-serif;font-size:10px;">M</text>
        <text x="285.36px" y="145.2px" style="font-family:'ArialMT', 'Arial', sans-serif;font-size:10px;">e</text>
        <text x="291.12px" y="147.84px" style="font-family:'ArialMT', 'Arial', sans-serif;font-size:8px;">3</text>
    </g>
    <g transform="matrix(1.33333,0,0,1.33333,-165.188,-181.16)">
        <text x="280.08px" y="165.12px" style="font-family:'ArialMT', 'Arial', sans-serif;font-size:10px;">H</text>
    </g>
    <g transform="matrix(1.33333,0,0,1.33333,-161.188,-181.16)">
        <text x="310.8px" y="155.76px" style="font-family:'ArialMT', 'Arial', sans-serif;font-size:10px;">B</text>
        <text x="317.52px" y="155.76px" style="font-family:'ArialMT', 'Arial', sans-serif;font-size:10px;">uLi</text>
    </g>
    <g transform="matrix(1.33333,0,0,1.33333,-161.188,-181.16)">
        <text x="355.44px" y="165.12px" style="font-family:'ArialMT', 'Arial', sans-serif;font-size:10px;">R	<tspan x="375.36px " y="165.12px ">C</tspan></text>
        <text x="382.57px" y="158.16px" style="font-family:'ArialMT', 'Arial', sans-serif;font-size:8px;">–</text>
    </g>
    <g transform="matrix(1.33333,0,0,1.33333,-161.188,-181.16)">
        <text x="375.36px" y="185.04px" style="font-family:'ArialMT', 'Arial', sans-serif;font-size:10px;">CN</text>
    </g>
    <g transform="matrix(1.33333,0,0,1.33333,-161.188,-181.16)">
        <text x="375.12px" y="145.2px" style="font-family:'ArialMT', 'Arial', sans-serif;font-size:10px;">O</text>
        <text x="383.04px" y="145.2px" style="font-family:'ArialMT', 'Arial', sans-serif;font-size:10px;">S</text>
        <text x="389.76px" y="145.2px" style="font-family:'ArialMT', 'Arial', sans-serif;font-size:10px;">i</text>
        <text x="392.16px" y="145.2px" style="font-family:'ArialMT', 'Arial', sans-serif;font-size:10px;">M</text>
        <text x="400.56px" y="145.2px" style="font-family:'ArialMT', 'Arial', sans-serif;font-size:10px;">e</text>
        <text x="406.32px" y="147.84px" style="font-family:'ArialMT', 'Arial', sans-serif;font-size:8px;">3</text>
    </g>
    <g transform="matrix(1.33333,0,0,1.33333,-163.188,-895.4)">
        <path d="M132,688.8L147.36,688.8" style="fill:none;fill-rule:nonzero;stroke:black;stroke-width:0.72px;"/>
    </g>
    <g transform="matrix(0.666796,1.15463,1.15463,-0.666796,-851.036,312.142)">
        <path d="M143.896,682.8L157.754,682.8" style="fill:none;fill-rule:nonzero;stroke:black;stroke-width:0.72px;"/>
    </g>
    <g transform="matrix(0.666756,1.15465,1.15465,-0.666756,-848.576,316.593)">
        <path d="M141.721,679.515L155.959,679.515" style="fill:none;fill-rule:nonzero;stroke:black;stroke-width:0.72px;"/>
    </g>
    <g transform="matrix(1.33333,0,0,1.33333,-161.188,-872.36)">
        <path d="M173.76,680.16L219.84,680.16" style="fill:none;fill-rule:nonzero;stroke:black;stroke-width:0.72px;"/>
    </g>
    <g transform="matrix(1.2958,0.314133,0.314133,-1.2958,-366.746,848.056)">
        <path d="M211.579,681.093L219.729,681.093L212.484,677.361L213.431,679.566L211.579,681.093Z" style="stroke:black;stroke-width:0.72px;"/>
    </g>
    <g transform="matrix(1.33333,0,0,1.33333,-165.188,-873.64)">
        <path d="M248.4,680.64L263.88,680.64" style="fill:none;fill-rule:nonzero;stroke:black;stroke-width:0.72px;"/>
    </g>
    <g transform="matrix(0,1.33333,1.33333,0,-711.108,-308.2)">
        <path d="M256.56,673.32L271.2,673.32" style="fill:none;fill-rule:nonzero;stroke:black;stroke-width:0.72px;"/>
    </g>
    <g transform="matrix(0,-1.33333,-1.33333,0,1104.09,375.8)">
        <path d="M256.44,688.08L271.32,688.08" style="fill:none;fill-rule:nonzero;stroke:black;stroke-width:0.72px;"/>
    </g>
    <g transform="matrix(1.33333,0,0,1.33333,-165.188,-873.64)">
        <path d="M263.88,680.64L279.12,680.64" style="fill:none;fill-rule:nonzero;stroke:black;stroke-width:0.72px;"/>
    </g>
    <g transform="matrix(1.33333,0,0,1.33333,-161.188,-873)">
        <path d="M303.6,680.4L337.68,680.4" style="fill:none;fill-rule:nonzero;stroke:black;stroke-width:0.72px;"/>
    </g>
    <g transform="matrix(1.2958,0.314133,0.314133,-1.2958,-362.399,811.03)">
        <path d="M329.419,681.333L337.569,681.333L330.324,677.601L331.271,679.806L329.419,681.333Z" style="stroke:black;stroke-width:0.72px;"/>
    </g>
    <g transform="matrix(1.33333,0,0,1.33333,-161.188,-873.64)">
        <path d="M363.6,680.64L374.4,680.64" style="fill:none;fill-rule:nonzero;stroke:black;stroke-width:0.72px;"/>
    </g>
    <g transform="matrix(0,1.33333,1.33333,0,-550.148,-458.44)">
        <path d="M374.28,670.8L383.88,670.8" style="fill:none;fill-rule:nonzero;stroke:black;stroke-width:0.72px;"/>
    </g>
    <g transform="matrix(0,-1.33333,-1.33333,0,1265.21,525.88)">
        <path d="M374.28,690.72L383.88,690.72" style="fill:none;fill-rule:nonzero;stroke:black;stroke-width:0.72px;"/>
    </g>
</svg>
