<?xml version="1.0" encoding="UTF-8" standalone="no"?>
<!DOCTYPE svg PUBLIC "-//W3C//DTD SVG 1.1//EN" "http://www.w3.org/Graphics/SVG/1.1/DTD/svg11.dtd">
<svg width="100%" height="100%" viewBox="0 0 230 85" version="1.1" xmlns="http://www.w3.org/2000/svg" xmlns:xlink="http://www.w3.org/1999/xlink" xml:space="preserve" xmlns:serif="http://www.serif.com/" style="fill-rule:evenodd;clip-rule:evenodd;stroke-linecap:round;stroke-linejoin:round;stroke-miterlimit:10;">
    <g transform="matrix(1.33333,0,0,1.33333,-133.89,-165.266)">
        <text x="125.76px" y="174px" style="font-family:'ArialMT', 'Arial', sans-serif;font-size:10px;">S</text>
        <text x="108px" y="183.84px" style="font-family:'ArialMT', 'Arial', sans-serif;font-size:10px;">O</text>
    </g>
    <g transform="matrix(1.33333,0,0,1.33333,-133.89,-165.266)">
        <text x="143.04px" y="184.08px" style="font-family:'ArialMT', 'Arial', sans-serif;font-size:10px;">Et</text>
    </g>
    <g transform="matrix(1.33333,0,0,1.33333,-133.89,-165.266)">
        <text x="125.76px" y="134.16px" style="font-family:'ArialMT', 'Arial', sans-serif;font-size:10px;">SE<tspan x="139.2px " y="134.16px ">t</tspan></text>
    </g>
    <g transform="matrix(1.33333,0,0,1.33333,-133.89,-165.266)">
        <text x="105.6px" y="154.08px" style="font-family:'ArialMT', 'Arial', sans-serif;font-size:10px;">R</text>
    </g>
    <g transform="matrix(1.33333,0,0,1.33333,-133.89,-165.266)">
        <text x="145.44px" y="154.08px" style="font-family:'ArialMT', 'Arial', sans-serif;font-size:10px;">H</text>
    </g>
    <g transform="matrix(1.33333,0,0,1.33333,-133.89,-167.266)">
        <text x="175.44px" y="152.16px" style="font-family:'ArialMT', 'Arial', sans-serif;font-size:10px;">B</text>
        <text x="182.16px" y="152.16px" style="font-family:'ArialMT', 'Arial', sans-serif;font-size:10px;">uLi</text>
    </g>
    <g transform="matrix(1.33333,0,0,1.33333,-134.89,-167.266)">
        <text x="237.36px" y="175.2px" style="font-family:'ArialMT', 'Arial', sans-serif;font-size:10px;">S</text>
    </g>
    <g transform="matrix(1.33333,0,0,1.33333,-134.89,-167.266)">
        <text x="237.12px" y="155.28px" style="font-family:'ArialMT', 'Arial', sans-serif;font-size:10px;">C</text>
        <text x="244.32px" y="148.32px" style="font-family:'ArialMT', 'Arial', sans-serif;font-size:8px;">–</text>
    </g>
    <g transform="matrix(1.33333,0,0,1.33333,-134.89,-167.266)">
        <text x="219.6px" y="185.04px" style="font-family:'ArialMT', 'Arial', sans-serif;font-size:10px;">O</text>
    </g>
    <g transform="matrix(1.33333,0,0,1.33333,-134.89,-167.266)">
        <text x="254.64px" y="185.28px" style="font-family:'ArialMT', 'Arial', sans-serif;font-size:10px;">Et</text>
    </g>
    <g transform="matrix(1.33333,0,0,1.33333,-134.89,-167.266)">
        <text x="237.36px" y="135.36px" style="font-family:'ArialMT', 'Arial', sans-serif;font-size:10px;">SE<tspan x="250.8px " y="135.36px ">t</tspan></text>
    </g>
    <g transform="matrix(1.33333,0,0,1.33333,-134.89,-167.266)">
        <text x="217.2px" y="155.28px" style="font-family:'ArialMT', 'Arial', sans-serif;font-size:10px;">R</text>
    </g>
    <g transform="matrix(1.33333,0,0,1.33333,-134.89,-167.266)">
        <text x="258px" y="156.96px" style="font-family:'ArialMT', 'Arial', sans-serif;font-size:10px;">L</text>
        <text x="263.52px" y="156.96px" style="font-family:'ArialMT', 'Arial', sans-serif;font-size:10px;">i</text>
        <text x="265.92px" y="150px" style="font-family:'ArialMT', 'Arial', sans-serif;font-size:8px;">+</text>
    </g>
    <g transform="matrix(0,-1.33333,-1.33333,0,950.99,217.054)">
        <path d="M121.86,684.42L136.62,684.42" style="fill:none;fill-rule:nonzero;stroke:black;stroke-width:0.72px;"/>
    </g>
    <g transform="matrix(-1.15423,0.667474,0.667474,1.15423,-279.812,-787.471)">
        <path d="M116.266,668.97L125.414,668.97" style="fill:none;fill-rule:nonzero;stroke:black;stroke-width:0.72px;"/>
    </g>
    <g transform="matrix(-1.15423,0.667474,0.667474,1.15423,-277.222,-777.819)">
        <path d="M116.266,665.09L125.414,665.09" style="fill:none;fill-rule:nonzero;stroke:black;stroke-width:0.72px;"/>
    </g>
    <g transform="matrix(1.1546,0.666836,0.666836,-1.1546,-554.024,746.224)">
        <path d="M132.771,666.965L142.749,666.965" style="fill:none;fill-rule:nonzero;stroke:black;stroke-width:0.72px;"/>
    </g>
    <g transform="matrix(0,-1.33333,-1.33333,0,970.67,197.374)">
        <path d="M121.86,699.18L136.62,699.18" style="fill:none;fill-rule:nonzero;stroke:black;stroke-width:0.72px;"/>
    </g>
    <g transform="matrix(-1.33333,0,0,1.33333,190.11,-887.506)">
        <path d="M113.76,691.8L129.24,691.8" style="fill:none;fill-rule:nonzero;stroke:black;stroke-width:0.72px;"/>
    </g>
    <g transform="matrix(1.33333,0,0,1.33333,-133.89,-887.506)">
        <path d="M129.24,691.8L144.48,691.8" style="fill:none;fill-rule:nonzero;stroke:black;stroke-width:0.72px;"/>
    </g>
    <g transform="matrix(1.33333,0,0,1.33333,-133.89,-868.706)">
        <path d="M168.24,684L202.32,684" style="fill:none;fill-rule:nonzero;stroke:black;stroke-width:0.72px;"/>
    </g>
    <g transform="matrix(1.2958,0.314133,0.314133,-1.2958,-341.312,867.31)">
        <path d="M194.059,684.933L202.209,684.933L194.964,681.201L195.911,683.406L194.059,684.933Z" style="stroke:black;stroke-width:0.72px;"/>
    </g>
    <g transform="matrix(0,-1.33333,-1.33333,0,1093.75,368.894)">
        <path d="M236.04,680.64L245.64,680.64" style="fill:none;fill-rule:nonzero;stroke:black;stroke-width:0.72px;"/>
    </g>
    <g transform="matrix(-1.15423,0.667474,0.667474,1.15423,-2.39848,-860.976)">
        <path d="M227.866,667.77L237.014,667.77" style="fill:none;fill-rule:nonzero;stroke:black;stroke-width:0.72px;"/>
    </g>
    <g transform="matrix(-1.15423,0.667474,0.667474,1.15423,0.191322,-851.324)">
        <path d="M227.866,663.89L237.014,663.89" style="fill:none;fill-rule:nonzero;stroke:black;stroke-width:0.72px;"/>
    </g>
    <g transform="matrix(1.1546,0.666836,0.666836,-1.1546,-534.278,670.019)">
        <path d="M244.371,665.765L254.349,665.765" style="fill:none;fill-rule:nonzero;stroke:black;stroke-width:0.72px;"/>
    </g>
    <g transform="matrix(0,-1.33333,-1.33333,0,1120.31,342.334)">
        <path d="M236.04,700.56L245.64,700.56" style="fill:none;fill-rule:nonzero;stroke:black;stroke-width:0.72px;"/>
    </g>
    <g transform="matrix(-1.33333,0,0,1.33333,480.47,-886.306)">
        <path d="M225.36,690.6L236.16,690.6" style="fill:none;fill-rule:nonzero;stroke:black;stroke-width:0.72px;"/>
    </g>
</svg>
