<?xml version="1.0" encoding="UTF-8" standalone="no"?>
<!DOCTYPE svg PUBLIC "-//W3C//DTD SVG 1.1//EN" "http://www.w3.org/Graphics/SVG/1.1/DTD/svg11.dtd">
<svg width="100%" height="100%" viewBox="0 0 245 105" version="1.1" xmlns="http://www.w3.org/2000/svg" xmlns:xlink="http://www.w3.org/1999/xlink" xml:space="preserve" xmlns:serif="http://www.serif.com/" style="fill-rule:evenodd;clip-rule:evenodd;stroke-linecap:round;stroke-linejoin:round;stroke-miterlimit:10;">
    <g transform="matrix(1.33333,0,0,1.33333,-110.68,-204.62)">
        <text x="108.72px" y="172.08px" style="font-family:'ArialMT', 'Arial', sans-serif;font-size:10px;">N</text>
        <text x="115.926px" y="165.12px" style="font-family:'ArialMT', 'Arial', sans-serif;font-size:8px;">+</text>
        <text x="128.64px" y="172.08px" style="font-family:'ArialMT', 'Arial', sans-serif;font-size:10px;"><tspan x="128.64px " y="172.08px ">C</tspan></text>
        <text x="135.846px" y="165.12px" style="font-family:'ArialMT', 'Arial', sans-serif;font-size:8px;">–</text>
    </g>
    <g transform="matrix(1.33333,0,0,1.33333,-110.68,-204.62)">
        <text x="88.8px" y="171.84px" style="font-family:'ArialMT', 'Arial', sans-serif;font-size:10px;">R</text>
        <text x="96.24px" y="164.88px" style="font-family:'ArialMT', 'Arial', sans-serif;font-size:8px;">2</text>
    </g>
    <g transform="matrix(1.33333,0,0,1.33333,-110.68,-204.62)">
        <text x="108.72px" y="222.96px" style="font-family:'ArialMT', 'Arial', sans-serif;font-size:10px;">N	<tspan x="128.64px " y="222.96px ">C</tspan></text>
    </g>
    <g transform="matrix(1.33333,0,0,1.33333,-110.68,-204.62)">
        <text x="88.8px" y="222.72px" style="font-family:'ArialMT', 'Arial', sans-serif;font-size:10px;">R</text>
        <text x="96.24px" y="215.76px" style="font-family:'ArialMT', 'Arial', sans-serif;font-size:8px;">2</text>
    </g>
    <g transform="matrix(1.33333,0,0,1.33333,-110.68,-204.62)">
        <text x="136.56px" y="171.12px" style="font-family:'ArialMT', 'Arial', sans-serif;font-size:10px;">:</text>
    </g>
    <g transform="matrix(1.33333,0,0,1.33333,-110.68,-204.62)">
        <text x="136.08px" y="222.24px" style="font-family:'ArialMT', 'Arial', sans-serif;font-size:10px;">:</text>
    </g>
    <g transform="matrix(1.33333,0,0,1.33333,-110.68,-204.62)">
        <text x="170.16px" y="188.16px" style="font-family:'ArialMT', 'Arial', sans-serif;font-size:10px;">RLi</text>
    </g>
    <g transform="matrix(1.33333,0,0,1.33333,-110.68,-204.62)">
        <text x="227.52px" y="196.08px" style="font-family:'ArialMT', 'Arial', sans-serif;font-size:10px;">N</text>
    </g>
    <g transform="matrix(1.33333,0,0,1.33333,-110.68,-204.62)">
        <text x="207.6px" y="195.84px" style="font-family:'ArialMT', 'Arial', sans-serif;font-size:10px;">R</text>
        <text x="215.04px" y="188.88px" style="font-family:'ArialMT', 'Arial', sans-serif;font-size:8px;">2</text>
    </g>
    <g transform="matrix(1.33333,0,0,1.33333,-110.68,-204.62)">
        <text x="257.28px" y="213.12px" style="font-family:'ArialMT', 'Arial', sans-serif;font-size:10px;">R</text>
    </g>
    <g transform="matrix(1.33333,0,0,1.33333,-110.68,-204.62)">
        <text x="258.24px" y="178.8px" style="font-family:'ArialMT', 'Arial', sans-serif;font-size:10px;">Li</text>
    </g>
    <g transform="matrix(1.33333,0,0,1.33333,-110.68,-879.18)">
        <path d="M116.88,673.92L127.68,673.92" style="fill:none;fill-rule:nonzero;stroke:black;stroke-width:0.72px;"/>
    </g>
    <g transform="matrix(1.33333,0,0,1.33333,-110.68,-888.14)">
        <path d="M121.44,677.28L127.68,677.28" style="fill:none;fill-rule:nonzero;stroke:black;stroke-width:0.72px;"/>
    </g>
    <g transform="matrix(1.33333,0,0,1.33333,-110.68,-870.22)">
        <path d="M116.88,670.56L127.68,670.56" style="fill:none;fill-rule:nonzero;stroke:black;stroke-width:0.72px;"/>
    </g>
    <g transform="matrix(-1.33333,0,0,1.33333,162.28,-879.18)">
        <path d="M96.96,673.92L107.76,673.92" style="fill:none;fill-rule:nonzero;stroke:black;stroke-width:0.72px;"/>
    </g>
    <g transform="matrix(1.33333,0,0,1.33333,-110.68,-739.02)">
        <path d="M116.88,621.36L127.68,621.36" style="fill:none;fill-rule:nonzero;stroke:black;stroke-width:0.72px;"/>
    </g>
    <g transform="matrix(1.33333,0,0,1.33333,-110.68,-747.98)">
        <path d="M116.88,624.72L127.68,624.72" style="fill:none;fill-rule:nonzero;stroke:black;stroke-width:0.72px;"/>
    </g>
    <g transform="matrix(-1.33333,0,0,1.33333,162.28,-743.5)">
        <path d="M96.96,623.04L107.76,623.04" style="fill:none;fill-rule:nonzero;stroke:black;stroke-width:0.72px;"/>
    </g>
    <g transform="matrix(1.33333,0,0,1.33333,-110.68,-767.82)">
        <rect x="130.08" y="629.52" width="5.04" height="5.28" style="fill:white;stroke:black;stroke-width:0.48px;"/>
    </g>
    <g transform="matrix(0,-1.33333,-1.33333,0,904.52,202.26)">
        <path d="M100.44,649.08L124.2,649.08" style="fill:none;fill-rule:nonzero;stroke:black;stroke-width:0.72px;"/>
    </g>
    <g transform="matrix(0.314133,-1.2958,-1.2958,-0.314133,855.137,393.87)">
        <path d="M108.019,657.933L116.169,657.933L108.924,654.201L109.871,656.406L108.019,657.933Z" style="stroke:black;stroke-width:0.72px;"/>
    </g>
    <g transform="matrix(0.314133,1.2958,1.2958,-0.314133,-827.019,118.925)">
        <path d="M108.019,640.227L116.169,640.227L108.924,643.959L109.871,641.754L108.019,640.227Z" style="stroke:black;stroke-width:0.72px;"/>
    </g>
    <g transform="matrix(1.33333,0,0,1.33333,-110.68,-813.58)">
        <path d="M83.76,685.44L91.68,685.44L91.68,684.96L85.2,684.96L85.2,613.68L91.68,613.68L91.68,613.2L83.76,613.2L83.76,685.44Z" style="stroke:black;stroke-width:0.02px;"/>
    </g>
    <g transform="matrix(1.33333,0,0,1.33333,-110.68,-813.58)">
        <path d="M146.16,685.44L138.24,685.44L138.24,684.96L144.72,684.96L144.72,613.68L138.24,613.68L138.24,613.2L146.16,613.2L146.16,685.44Z" style="stroke:black;stroke-width:0.02px;"/>
    </g>
    <g transform="matrix(1.33333,0,0,1.33333,-110.68,-813.26)">
        <path d="M160.56,649.2L194.64,649.2" style="fill:none;fill-rule:nonzero;stroke:black;stroke-width:0.72px;"/>
    </g>
    <g transform="matrix(1.2958,0.314133,0.314133,-1.2958,-307.459,833.675)">
        <path d="M186.379,650.133L194.529,650.133L187.284,646.401L188.231,648.606L186.379,650.133Z" style="stroke:black;stroke-width:0.72px;"/>
    </g>
    <g transform="matrix(1.33333,0,0,1.33333,-110.68,-815.18)">
        <path d="M235.68,649.92L251.04,649.92" style="fill:none;fill-rule:nonzero;stroke:black;stroke-width:0.72px;"/>
    </g>
    <g transform="matrix(1.33333,0,0,1.33333,-110.68,-824.14)">
        <path d="M235.68,653.28L249.38,653.28" style="fill:none;fill-rule:nonzero;stroke:black;stroke-width:0.72px;"/>
    </g>
    <g transform="matrix(-1.33333,0,0,1.33333,479.08,-815.18)">
        <path d="M215.76,649.92L226.56,649.92" style="fill:none;fill-rule:nonzero;stroke:black;stroke-width:0.72px;"/>
    </g>
    <g transform="matrix(0.666796,1.15463,1.15463,-0.666796,-684.53,194.885)">
        <path d="M247.576,643.92L261.434,643.92" style="fill:none;fill-rule:nonzero;stroke:black;stroke-width:0.72px;"/>
    </g>
    <g transform="matrix(0.666796,-1.15463,-1.15463,-0.666796,816.299,774.603)">
        <path d="M247.576,655.92L261.434,655.92" style="fill:none;fill-rule:nonzero;stroke:black;stroke-width:0.72px;"/>
    </g>
</svg>
