<?xml version="1.0" encoding="UTF-8" standalone="no"?>
<!DOCTYPE svg PUBLIC "-//W3C//DTD SVG 1.1//EN" "http://www.w3.org/Graphics/SVG/1.1/DTD/svg11.dtd">
<svg width="100%" height="100%" viewBox="0 0 360 490" version="1.1" xmlns="http://www.w3.org/2000/svg" xmlns:xlink="http://www.w3.org/1999/xlink" xml:space="preserve" xmlns:serif="http://www.serif.com/" style="fill-rule:evenodd;clip-rule:evenodd;stroke-linecap:round;stroke-linejoin:round;stroke-miterlimit:10;">
    <g transform="matrix(1.33333,0,0,1.33333,-62.4026,-77.3846)">
        <text x="84.96px" y="98.64px" style="font-family:'ArialMT', 'Arial', sans-serif;font-size:10px;">R</text>
        <text x="92.4px" y="91.68px" style="font-family:'ArialMT', 'Arial', sans-serif;font-size:8px;">1</text>
    </g>
    <g transform="matrix(1.33333,0,0,1.33333,-62.4026,-77.3846)">
        <text x="67.92px" y="68.88px" style="font-family:'ArialMT', 'Arial', sans-serif;font-size:10px;">PP</text>
        <text x="81.36px" y="68.88px" style="font-family:'ArialMT', 'Arial', sans-serif;font-size:10px;">h</text>
        <text x="87.12px" y="71.52px" style="font-family:'ArialMT', 'Arial', sans-serif;font-size:8px;">3</text>
    </g>
    <g transform="matrix(1.33333,0,0,1.33333,-62.4026,-77.3846)">
        <text x="50.4px" y="98.64px" style="font-family:'ArialMT', 'Arial', sans-serif;font-size:10px;">H</text>
    </g>
    <g transform="matrix(1.33333,0,0,1.33333,-62.4026,-77.3846)">
        <text x="128.4px" y="101.28px" style="font-family:'ArialMT', 'Arial', sans-serif;font-size:10px;">O</text>
    </g>
    <g transform="matrix(1.33333,0,0,1.33333,-62.4026,-77.3846)">
        <text x="145.92px" y="71.52px" style="font-family:'ArialMT', 'Arial', sans-serif;font-size:10px;">H</text>
    </g>
    <g transform="matrix(1.33333,0,0,1.33333,-62.4026,-77.3846)">
        <text x="111.36px" y="71.52px" style="font-family:'ArialMT', 'Arial', sans-serif;font-size:10px;">R</text>
        <text x="118.8px" y="64.56px" style="font-family:'ArialMT', 'Arial', sans-serif;font-size:8px;">2</text>
    </g>
    <g transform="matrix(1.33333,0,0,1.33333,-62.4026,-77.3846)">
        <text x="240.24px" y="102.72px" style="font-family:'ArialMT', 'Arial', sans-serif;font-size:10px;">R</text>
        <text x="247.68px" y="95.76px" style="font-family:'ArialMT', 'Arial', sans-serif;font-size:8px;">1</text>
    </g>
    <g transform="matrix(1.33333,0,0,1.33333,-62.4026,-77.3846)">
        <text x="223.2px" y="72.96px" style="font-family:'ArialMT', 'Arial', sans-serif;font-size:10px;">PP</text>
        <text x="236.64px" y="72.96px" style="font-family:'ArialMT', 'Arial', sans-serif;font-size:10px;">h</text>
        <text x="242.4px" y="75.6px" style="font-family:'ArialMT', 'Arial', sans-serif;font-size:8px;">3</text>
    </g>
    <g transform="matrix(1.33333,0,0,1.33333,-62.4026,-77.3846)">
        <text x="205.92px" y="102.72px" style="font-family:'ArialMT', 'Arial', sans-serif;font-size:10px;">H</text>
    </g>
    <g transform="matrix(1.33333,0,0,1.33333,-62.4026,-77.3846)">
        <text x="273.6px" y="103.68px" style="font-family:'ArialMT', 'Arial', sans-serif;font-size:10px;">O</text>
        <text x="281.52px" y="96.72px" style="font-family:'ArialMT', 'Arial', sans-serif;font-size:8px;">–</text>
    </g>
    <g transform="matrix(1.33333,0,0,1.33333,-62.4026,-77.3846)">
        <text x="291.12px" y="73.92px" style="font-family:'ArialMT', 'Arial', sans-serif;font-size:10px;">H</text>
    </g>
    <g transform="matrix(1.33333,0,0,1.33333,-62.4026,-77.3846)">
        <text x="256.56px" y="73.92px" style="font-family:'ArialMT', 'Arial', sans-serif;font-size:10px;">R</text>
        <text x="264px" y="66.96px" style="font-family:'ArialMT', 'Arial', sans-serif;font-size:8px;">2</text>
    </g>
    <g transform="matrix(1.33333,0,0,1.33333,-62.4026,-77.3846)">
        <text x="239.52px" y="211.2px" style="font-family:'ArialMT', 'Arial', sans-serif;font-size:10px;">R</text>
        <text x="246.96px" y="204.24px" style="font-family:'ArialMT', 'Arial', sans-serif;font-size:8px;">1</text>
    </g>
    <g transform="matrix(1.33333,0,0,1.33333,-62.4026,-77.3846)">
        <text x="222.48px" y="181.44px" style="font-family:'ArialMT', 'Arial', sans-serif;font-size:10px;">PP</text>
        <text x="235.92px" y="181.44px" style="font-family:'ArialMT', 'Arial', sans-serif;font-size:10px;">h</text>
        <text x="241.68px" y="184.08px" style="font-family:'ArialMT', 'Arial', sans-serif;font-size:8px;">3</text>
    </g>
    <g transform="matrix(1.33333,0,0,1.33333,-62.4026,-77.3846)">
        <text x="205.2px" y="211.2px" style="font-family:'ArialMT', 'Arial', sans-serif;font-size:10px;">H</text>
    </g>
    <g transform="matrix(1.33333,0,0,1.33333,-62.4026,-77.3846)">
        <text x="286.08px" y="207.6px" style="font-family:'ArialMT', 'Arial', sans-serif;font-size:10px;">R</text>
        <text x="293.52px" y="200.64px" style="font-family:'ArialMT', 'Arial', sans-serif;font-size:8px;">2</text>
    </g>
    <g transform="matrix(1.33333,0,0,1.33333,-62.4026,-77.3846)">
        <text x="272.88px" y="173.52px" style="font-family:'ArialMT', 'Arial', sans-serif;font-size:10px;">O</text>
        <text x="280.8px" y="166.56px" style="font-family:'ArialMT', 'Arial', sans-serif;font-size:8px;">–</text>
    </g>
    <g transform="matrix(1.33333,0,0,1.33333,-62.4026,-77.3846)">
        <text x="259.92px" y="207.6px" style="font-family:'ArialMT', 'Arial', sans-serif;font-size:10px;">H</text>
    </g>
    <g transform="matrix(1.33333,0,0,1.33333,-62.4026,-77.3846)">
        <text x="86.16px" y="180px" style="font-family:'ArialMT', 'Arial', sans-serif;font-size:10px;">H</text>
        <text x="86.16px" y="214.32px" style="font-family:'ArialMT', 'Arial', sans-serif;font-size:10px;">R</text>
        <text x="93.6px" y="207.36px" style="font-family:'ArialMT', 'Arial', sans-serif;font-size:8px;">1</text>
    </g>
    <g transform="matrix(1.33333,0,0,1.33333,-62.4026,-77.3846)">
        <text x="126px" y="214.32px" style="font-family:'ArialMT', 'Arial', sans-serif;font-size:10px;">R</text>
        <text x="133.44px" y="207.36px" style="font-family:'ArialMT', 'Arial', sans-serif;font-size:8px;">2</text>
    </g>
    <g transform="matrix(1.33333,0,0,1.33333,-62.4026,-77.3846)">
        <text x="126px" y="180px" style="font-family:'ArialMT', 'Arial', sans-serif;font-size:10px;">H</text>
    </g>
    <g transform="matrix(1.33333,0,0,1.33333,-62.4026,-77.3846)">
        <text x="265.68px" y="241.68px" style="font-family:'ArialMT', 'Arial', sans-serif;font-size:10px;">BuLi</text>
    </g>
    <g transform="matrix(1.33333,0,0,1.33333,-62.4026,-77.3846)">
        <text x="205.92px" y="318.96px" style="font-family:'ArialMT', 'Arial', sans-serif;font-size:10px;">R</text>
        <text x="213.36px" y="312px" style="font-family:'ArialMT', 'Arial', sans-serif;font-size:8px;">1</text>
    </g>
    <g transform="matrix(1.33333,0,0,1.33333,-62.4026,-77.3846)">
        <text x="222.96px" y="285.12px" style="font-family:'ArialMT', 'Arial', sans-serif;font-size:10px;">PP</text>
        <text x="236.4px" y="285.12px" style="font-family:'ArialMT', 'Arial', sans-serif;font-size:10px;">h</text>
        <text x="242.16px" y="287.76px" style="font-family:'ArialMT', 'Arial', sans-serif;font-size:8px;">3</text>
    </g>
    <g transform="matrix(1.33333,0,0,1.33333,-62.4026,-77.3846)">
        <text x="286.56px" y="311.28px" style="font-family:'ArialMT', 'Arial', sans-serif;font-size:10px;">R</text>
        <text x="294px" y="304.32px" style="font-family:'ArialMT', 'Arial', sans-serif;font-size:8px;">2</text>
    </g>
    <g transform="matrix(1.33333,0,0,1.33333,-62.4026,-77.3846)">
        <text x="273.36px" y="277.2px" style="font-family:'ArialMT', 'Arial', sans-serif;font-size:10px;">O</text>
        <text x="281.28px" y="270.24px" style="font-family:'ArialMT', 'Arial', sans-serif;font-size:8px;">–</text>
    </g>
    <g transform="matrix(1.33333,0,0,1.33333,-62.4026,-77.3846)">
        <text x="260.4px" y="311.28px" style="font-family:'ArialMT', 'Arial', sans-serif;font-size:10px;">H</text>
    </g>
    <g transform="matrix(1.33333,0,0,1.33333,-62.4026,-77.3846)">
        <text x="86.88px" y="288.24px" style="font-family:'ArialMT', 'Arial', sans-serif;font-size:10px;">R</text>
        <text x="94.32px" y="281.28px" style="font-family:'ArialMT', 'Arial', sans-serif;font-size:8px;">1</text>
        <text x="86.88px" y="322.56px" style="font-family:'ArialMT', 'Arial', sans-serif;font-size:10px;">H</text>
    </g>
    <g transform="matrix(1.33333,0,0,1.33333,-62.4026,-77.3846)">
        <text x="126.72px" y="322.56px" style="font-family:'ArialMT', 'Arial', sans-serif;font-size:10px;">R</text>
        <text x="134.16px" y="315.6px" style="font-family:'ArialMT', 'Arial', sans-serif;font-size:8px;">2</text>
    </g>
    <g transform="matrix(1.33333,0,0,1.33333,-62.4026,-77.3846)">
        <text x="126.72px" y="288.24px" style="font-family:'ArialMT', 'Arial', sans-serif;font-size:10px;">H</text>
    </g>
    <g transform="matrix(1.33333,0,0,1.33333,-62.4026,-77.3846)">
        <text x="84.72px" y="408px" style="font-family:'ArialMT', 'Arial', sans-serif;font-size:10px;">R</text>
        <text x="92.16px" y="401.04px" style="font-family:'ArialMT', 'Arial', sans-serif;font-size:8px;">1</text>
    </g>
    <g transform="matrix(1.33333,0,0,1.33333,-62.4026,-77.3846)">
        <text x="67.68px" y="378.24px" style="font-family:'ArialMT', 'Arial', sans-serif;font-size:10px;">PP</text>
        <text x="81.12px" y="378.24px" style="font-family:'ArialMT', 'Arial', sans-serif;font-size:10px;">h</text>
        <text x="86.88px" y="380.88px" style="font-family:'ArialMT', 'Arial', sans-serif;font-size:8px;">3</text>
    </g>
    <g transform="matrix(1.33333,0,0,1.33333,-62.4026,-77.3846)">
        <text x="50.16px" y="408px" style="font-family:'ArialMT', 'Arial', sans-serif;font-size:10px;">H</text>
    </g>
    <g transform="matrix(1.33333,0,0,1.33333,-62.4026,-77.3846)">
        <text x="128.16px" y="410.64px" style="font-family:'ArialMT', 'Arial', sans-serif;font-size:10px;">O</text>
    </g>
    <g transform="matrix(1.33333,0,0,1.33333,-62.4026,-77.3846)">
        <text x="145.68px" y="380.88px" style="font-family:'ArialMT', 'Arial', sans-serif;font-size:10px;">R</text>
        <text x="153.12px" y="373.92px" style="font-family:'ArialMT', 'Arial', sans-serif;font-size:8px;">2</text>
    </g>
    <g transform="matrix(1.33333,0,0,1.33333,-62.4026,-77.3846)">
        <text x="111.12px" y="380.88px" style="font-family:'ArialMT', 'Arial', sans-serif;font-size:10px;">H</text>
    </g>
    <g transform="matrix(1.33333,0,0,1.33333,-62.4026,-77.3846)">
        <text x="240px" y="412.08px" style="font-family:'ArialMT', 'Arial', sans-serif;font-size:10px;">R</text>
        <text x="247.44px" y="405.12px" style="font-family:'ArialMT', 'Arial', sans-serif;font-size:8px;">1</text>
    </g>
    <g transform="matrix(1.33333,0,0,1.33333,-62.4026,-77.3846)">
        <text x="222.96px" y="382.32px" style="font-family:'ArialMT', 'Arial', sans-serif;font-size:10px;">PP</text>
        <text x="236.4px" y="382.32px" style="font-family:'ArialMT', 'Arial', sans-serif;font-size:10px;">h</text>
        <text x="242.16px" y="384.96px" style="font-family:'ArialMT', 'Arial', sans-serif;font-size:8px;">3</text>
    </g>
    <g transform="matrix(1.33333,0,0,1.33333,-62.4026,-77.3846)">
        <text x="205.68px" y="412.08px" style="font-family:'ArialMT', 'Arial', sans-serif;font-size:10px;">H</text>
    </g>
    <g transform="matrix(1.33333,0,0,1.33333,-62.4026,-77.3846)">
        <text x="273.36px" y="413.04px" style="font-family:'ArialMT', 'Arial', sans-serif;font-size:10px;">O</text>
        <text x="281.28px" y="406.08px" style="font-family:'ArialMT', 'Arial', sans-serif;font-size:8px;">–</text>
    </g>
    <g transform="matrix(1.33333,0,0,1.33333,-62.4026,-77.3846)">
        <text x="290.88px" y="383.28px" style="font-family:'ArialMT', 'Arial', sans-serif;font-size:10px;">R</text>
        <text x="298.32px" y="376.32px" style="font-family:'ArialMT', 'Arial', sans-serif;font-size:8px;">2</text>
    </g>
    <g transform="matrix(1.33333,0,0,1.33333,-62.4026,-77.3846)">
        <text x="256.32px" y="383.28px" style="font-family:'ArialMT', 'Arial', sans-serif;font-size:10px;">H</text>
    </g>
    <g transform="matrix(1.07059,0.794747,0.794747,-1.07059,-640.166,785.293)">
        <path d="M70.122,752.304L84.769,752.304L84.573,753.977L84.383,755.642L70.122,752.304Z" style="stroke:black;stroke-width:0.24px;"/>
    </g>
    <g transform="matrix(0,-1.33333,-1.33333,0,1052.14,121.035)">
        <path d="M64.065,764.505L78.735,764.505" style="fill:none;fill-rule:nonzero;stroke:black;stroke-width:0.72px;"/>
    </g>
    <g transform="matrix(0.666766,1.15464,1.15464,-0.666766,-889.076,476.038)">
        <path d="M58.06,750.42L61.34,750.42" style="fill:none;fill-rule:nonzero;stroke:black;stroke-width:0.72px;"/>
    </g>
    <g transform="matrix(0.668048,1.1539,1.1539,-0.668048,-888.596,473.524)">
        <path d="M60.673,751.74L63.307,751.74" style="fill:none;fill-rule:nonzero;stroke:black;stroke-width:0.72px;"/>
    </g>
    <g transform="matrix(0.667259,1.15436,1.15436,-0.667259,-888.883,469.383)">
        <path d="M63.281,753.055L65.279,753.055" style="fill:none;fill-rule:nonzero;stroke:black;stroke-width:0.72px;"/>
    </g>
    <g transform="matrix(0.665731,1.15524,1.15524,-0.665731,-889.457,464.657)">
        <path d="M65.879,754.38L67.241,754.38" style="fill:none;fill-rule:nonzero;stroke:black;stroke-width:0.72px;"/>
    </g>
    <g transform="matrix(0.669514,1.15305,1.15305,-0.669514,-888.06,464.14)">
        <path d="M68.492,755.7L69.208,755.7" style="fill:none;fill-rule:nonzero;stroke:black;stroke-width:0.72px;"/>
    </g>
    <g transform="matrix(0.596285,1.19257,1.19257,-0.596285,-912.772,402.381)">
        <path d="M71.101,757.02L71.169,757.02" style="fill:none;fill-rule:nonzero;stroke:black;stroke-width:0.72px;"/>
    </g>
    <g transform="matrix(0,1.33333,1.33333,0,-897.756,-138.498)">
        <path d="M123.245,757.135L137.995,757.135" style="fill:none;fill-rule:nonzero;stroke:black;stroke-width:0.72px;"/>
    </g>
    <g transform="matrix(0,1.33333,1.33333,0,-893.276,-142.978)">
        <path d="M126.605,757.135L141.355,757.135" style="fill:none;fill-rule:nonzero;stroke:black;stroke-width:0.72px;"/>
    </g>
    <g transform="matrix(1.22341,-0.530143,-0.530143,-1.22341,360.504,1034.37)">
        <path d="M131.115,767.555L145.828,767.555L145.634,769.219L145.444,770.893L131.115,767.555Z" style="stroke:black;stroke-width:0.24px;"/>
    </g>
    <g transform="matrix(-0.666766,1.15464,1.15464,0.666766,-711.555,-636.66)">
        <path d="M119.02,771.22L122.3,771.22" style="fill:none;fill-rule:nonzero;stroke:black;stroke-width:0.72px;"/>
    </g>
    <g transform="matrix(-0.668048,1.1539,1.1539,0.668048,-704.722,-637.561)">
        <path d="M121.633,769.9L124.267,769.9" style="fill:none;fill-rule:nonzero;stroke:black;stroke-width:0.72px;"/>
    </g>
    <g transform="matrix(-0.662239,1.15725,1.15725,0.662239,-701.929,-633.519)">
        <path d="M124.238,768.585L126.232,768.585" style="fill:none;fill-rule:nonzero;stroke:black;stroke-width:0.72px;"/>
    </g>
    <g transform="matrix(-0.662583,1.15705,1.15705,0.662583,-695.636,-633.774)">
        <path d="M126.851,767.265L128.199,767.265" style="fill:none;fill-rule:nonzero;stroke:black;stroke-width:0.72px;"/>
    </g>
    <g transform="matrix(-0.663559,1.15649,1.15649,0.663559,-689.003,-634.453)">
        <path d="M129.453,765.945L130.157,765.945" style="fill:none;fill-rule:nonzero;stroke:black;stroke-width:0.72px;"/>
    </g>
    <g transform="matrix(-0.685994,1.14332,1.14332,0.685994,-669.874,-649.88)">
        <path d="M132.066,764.625L132.124,764.625" style="fill:none;fill-rule:nonzero;stroke:black;stroke-width:0.72px;"/>
    </g>
    <g transform="matrix(1.33333,0,0,1.33333,-62.4026,-990.345)">
        <path d="M78.24,764.88L80.88,764.16L83.76,763.2L86.88,762.72L90,762L95.28,761.52L106.56,761.52L112.08,762.24L117.12,763.2L121.68,764.4L123.6,765.12" style="fill:none;fill-rule:nonzero;stroke:black;stroke-width:0.48px;"/>
    </g>
    <g transform="matrix(1.16003,0.65735,0.65735,-1.16003,-543.616,834.281)">
        <path d="M115.8,763.797L124.075,763.797L116.858,759.982L117.7,762.391L115.8,763.797Z" style="stroke:black;stroke-width:0.48px;"/>
    </g>
    <g transform="matrix(1.33333,0,0,1.33333,-62.4026,-982.345)">
        <path d="M164.4,760.32L198.48,760.32" style="fill:none;fill-rule:nonzero;stroke:black;stroke-width:0.72px;"/>
    </g>
    <g transform="matrix(1.2958,0.314133,0.314133,-1.2958,-293.944,955.533)">
        <path d="M190.219,761.253L198.369,761.253L191.124,757.521L192.071,759.726L190.219,761.253Z" style="stroke:black;stroke-width:0.72px;"/>
    </g>
    <g transform="matrix(1.06975,0.795877,0.795877,-1.06975,-596.762,662.015)">
        <path d="M225.532,748.229L240.04,748.229L239.843,749.901L239.651,751.566L225.532,748.229Z" style="stroke:black;stroke-width:0.24px;"/>
    </g>
    <g transform="matrix(0,-1.33333,-1.33333,0,1253.88,333.695)">
        <path d="M219.45,760.41L234.15,760.41" style="fill:none;fill-rule:nonzero;stroke:black;stroke-width:0.72px;"/>
    </g>
    <g transform="matrix(0.666766,1.15464,1.15464,-0.666766,-780.747,299.16)">
        <path d="M213.58,746.38L216.86,746.38" style="fill:none;fill-rule:nonzero;stroke:black;stroke-width:0.72px;"/>
    </g>
    <g transform="matrix(0.668048,1.1539,1.1539,-0.668048,-780.469,296.757)">
        <path d="M216.193,747.7L218.827,747.7" style="fill:none;fill-rule:nonzero;stroke:black;stroke-width:0.72px;"/>
    </g>
    <g transform="matrix(0.665133,1.15558,1.15558,-0.665133,-781.091,290.688)">
        <path d="M218.803,749.02L220.787,749.02" style="fill:none;fill-rule:nonzero;stroke:black;stroke-width:0.72px;"/>
    </g>
    <g transform="matrix(0.666871,1.15458,1.15458,-0.666871,-780.721,288.687)">
        <path d="M221.415,750.34L222.755,750.34" style="fill:none;fill-rule:nonzero;stroke:black;stroke-width:0.72px;"/>
    </g>
    <g transform="matrix(0.65735,1.16003,1.16003,-0.65735,-782.68,276.79)">
        <path d="M224.025,751.66L224.715,751.66" style="fill:none;fill-rule:nonzero;stroke:black;stroke-width:0.72px;"/>
    </g>
    <g transform="matrix(0.8,1.06667,1.06667,-0.8,-744.699,401.821)">
        <path d="M226.63,752.98L226.68,752.98" style="fill:none;fill-rule:nonzero;stroke:black;stroke-width:0.72px;"/>
    </g>
    <g transform="matrix(0,1.33333,1.33333,0,-698.536,-331.278)">
        <path d="M270.26,754.72L284.98,754.72" style="fill:none;fill-rule:nonzero;stroke:black;stroke-width:0.72px;"/>
    </g>
    <g transform="matrix(1.22401,-0.528757,-0.528757,-1.22401,373.932,1111.72)">
        <path d="M276.445,765.089L291.021,765.089L290.828,766.763L290.632,768.427L276.445,765.089Z" style="stroke:black;stroke-width:0.24px;"/>
    </g>
    <g transform="matrix(-0.665009,1.15566,1.15566,0.665009,-419.667,-798.523)">
        <path d="M264.216,768.865L267.504,768.865" style="fill:none;fill-rule:nonzero;stroke:black;stroke-width:0.72px;"/>
    </g>
    <g transform="matrix(-0.66586,1.15517,1.15517,0.66586,-412.961,-799.053)">
        <path d="M266.828,767.545L269.472,767.545" style="fill:none;fill-rule:nonzero;stroke:black;stroke-width:0.72px;"/>
    </g>
    <g transform="matrix(-0.672242,1.15146,1.15146,0.672242,-402.305,-802.943)">
        <path d="M269.433,766.225L271.437,766.225" style="fill:none;fill-rule:nonzero;stroke:black;stroke-width:0.72px;"/>
    </g>
    <g transform="matrix(-0.661519,1.15766,1.15766,0.661519,-403.865,-796.413)">
        <path d="M272.035,764.905L273.405,764.905" style="fill:none;fill-rule:nonzero;stroke:black;stroke-width:0.72px;"/>
    </g>
    <g transform="matrix(-0.661519,1.15766,1.15766,0.661519,-397.768,-796.431)">
        <path d="M274.647,763.585L275.373,763.585" style="fill:none;fill-rule:nonzero;stroke:black;stroke-width:0.72px;"/>
    </g>
    <g transform="matrix(-0.774984,1.08498,1.08498,0.774984,-304.817,-862.78)">
        <path d="M277.252,762.265L277.338,762.265" style="fill:none;fill-rule:nonzero;stroke:black;stroke-width:0.72px;"/>
    </g>
    <g transform="matrix(1.31282,-0.23301,-0.23301,-1.31282,119.294,1088.4)">
        <path d="M226.403,757.57L278.017,757.57" style="fill:none;fill-rule:nonzero;stroke:black;stroke-width:0.72px;"/>
    </g>
    <g transform="matrix(1.33333,0,0,1.33333,-62.4026,-972.745)">
        <path d="M253.68,751.2L254.64,750.24L255.84,749.28L257.28,748.56L258.72,748.08L261.6,748.08L262.8,748.32L265.68,749.76L266.64,750.48L267.36,751.44L268.8,754.32L269.04,755.52L269.04,757.92L268.8,759.12L267.36,762L266.64,762.96L265.68,763.68L262.8,765.12L261.6,765.36L259.2,765.36L258,765.12L256.8,764.64L255.84,764.16L254.88,763.44" style="fill:none;fill-rule:nonzero;stroke:black;stroke-width:0.48px;"/>
    </g>
    <g transform="matrix(-1.05247,-0.818587,-0.818587,1.05247,1167.3,-526.183)">
        <path d="M255.518,747.996L263.728,747.996L256.402,744.123L257.56,746.543L255.518,747.996Z" style="stroke:black;stroke-width:0.48px;"/>
    </g>
    <g transform="matrix(1.06975,0.795877,0.795877,-1.06975,-510.568,691.197)">
        <path d="M224.812,639.689L239.32,639.689L239.123,641.361L238.931,643.026L224.812,639.689Z" style="stroke:black;stroke-width:0.24px;"/>
    </g>
    <g transform="matrix(0,-1.33333,-1.33333,0,1108.24,477.415)">
        <path d="M218.7,651.9L233.46,651.9" style="fill:none;fill-rule:nonzero;stroke:black;stroke-width:0.72px;"/>
    </g>
    <g transform="matrix(0.666766,1.15464,1.15464,-0.666766,-655.902,372.341)">
        <path d="M212.86,637.84L216.14,637.84" style="fill:none;fill-rule:nonzero;stroke:black;stroke-width:0.72px;"/>
    </g>
    <g transform="matrix(0.668048,1.1539,1.1539,-0.668048,-655.703,369.797)">
        <path d="M215.473,639.16L218.107,639.16" style="fill:none;fill-rule:nonzero;stroke:black;stroke-width:0.72px;"/>
    </g>
    <g transform="matrix(0.665133,1.15558,1.15558,-0.665133,-656.145,364.047)">
        <path d="M218.083,640.48L220.067,640.48" style="fill:none;fill-rule:nonzero;stroke:black;stroke-width:0.72px;"/>
    </g>
    <g transform="matrix(0.666871,1.15458,1.15458,-0.666871,-655.882,361.856)">
        <path d="M220.695,641.8L222.035,641.8" style="fill:none;fill-rule:nonzero;stroke:black;stroke-width:0.72px;"/>
    </g>
    <g transform="matrix(0.65735,1.16003,1.16003,-0.65735,-657.257,350.996)">
        <path d="M223.305,643.12L223.995,643.12" style="fill:none;fill-rule:nonzero;stroke:black;stroke-width:0.72px;"/>
    </g>
    <g transform="matrix(0.596285,1.19257,1.19257,-0.596285,-664.421,300.755)">
        <path d="M225.908,644.44L225.952,644.44" style="fill:none;fill-rule:nonzero;stroke:black;stroke-width:0.72px;"/>
    </g>
    <g transform="matrix(1.31282,-0.23301,-0.23301,-1.31282,93.9883,1090.46)">
        <path d="M225.683,649.03L277.297,649.03" style="fill:none;fill-rule:nonzero;stroke:black;stroke-width:0.72px;"/>
    </g>
    <g transform="matrix(0.72263,1.12053,1.12053,-0.72263,-616.359,333.717)">
        <path d="M274.442,646.87L287.745,646.87L287.531,648.531L287.323,650.201L274.442,646.87Z" style="stroke:black;stroke-width:0.24px;"/>
    </g>
    <g transform="matrix(-0.0107366,-1.33329,-1.33329,0.0107366,1190.16,526.707)">
        <path d="M270.015,660.37L283.675,660.37" style="fill:none;fill-rule:nonzero;stroke:black;stroke-width:0.72px;"/>
    </g>
    <g transform="matrix(1.00623,0.874803,0.874803,-1.00623,-538.166,599.111)">
        <path d="M267.322,644.415L270.568,644.415" style="fill:none;fill-rule:nonzero;stroke:black;stroke-width:0.72px;"/>
    </g>
    <g transform="matrix(1.00603,0.875035,0.875035,-1.00603,-539.434,596.749)">
        <path d="M269.408,646.405L271.952,646.405" style="fill:none;fill-rule:nonzero;stroke:black;stroke-width:0.72px;"/>
    </g>
    <g transform="matrix(1.00614,0.874905,0.874905,-1.00614,-540.548,594.685)">
        <path d="M271.506,648.39L273.334,648.39" style="fill:none;fill-rule:nonzero;stroke:black;stroke-width:0.72px;"/>
    </g>
    <g transform="matrix(1.00048,0.881374,0.881374,-1.00048,-544.379,587.065)">
        <path d="M273.59,650.38L274.71,650.38" style="fill:none;fill-rule:nonzero;stroke:black;stroke-width:0.72px;"/>
    </g>
    <g transform="matrix(1.00544,0.875708,0.875708,-1.00544,-543.232,589.673)">
        <path d="M275.679,652.375L276.091,652.375" style="fill:none;fill-rule:nonzero;stroke:black;stroke-width:0.72px;"/>
    </g>
    <g transform="matrix(0,1.33333,1.33333,0,-668.323,-236.585)">
        <path d="M242.52,707.88L264.36,707.88" style="fill:none;fill-rule:nonzero;stroke:black;stroke-width:0.72px;"/>
    </g>
    <g transform="matrix(-0.314133,1.2958,1.2958,0.314133,-553.121,-437.975)">
        <path d="M249.139,701.853L257.289,701.853L250.044,698.121L250.991,700.326L249.139,701.853Z" style="stroke:black;stroke-width:0.72px;"/>
    </g>
    <g transform="matrix(-1.33333,0,0,1.33333,413.437,-681.545)">
        <path d="M163.44,647.52L193.44,647.52" style="fill:none;fill-rule:nonzero;stroke:black;stroke-width:0.72px;"/>
    </g>
    <g transform="matrix(-1.2958,-0.314133,-0.314133,1.2958,581.122,-604.655)">
        <path d="M163.099,648.453L171.249,648.453L164.004,644.721L164.951,646.926L163.099,648.453Z" style="stroke:black;stroke-width:0.72px;"/>
    </g>
    <g transform="matrix(1.33333,0,0,1.33333,-62.4026,-680.265)">
        <path d="M99.84,647.04L119.76,647.04" style="fill:none;fill-rule:nonzero;stroke:black;stroke-width:0.72px;"/>
    </g>
    <g transform="matrix(1.33333,0,0,1.33333,-62.4026,-689.225)">
        <path d="M99.84,650.4L119.76,650.4" style="fill:none;fill-rule:nonzero;stroke:black;stroke-width:0.72px;"/>
    </g>
    <g transform="matrix(-0.666796,-1.15463,-1.15463,0.666796,886.316,-153.072)">
        <path d="M89.446,654.72L103.304,654.72" style="fill:none;fill-rule:nonzero;stroke:black;stroke-width:0.72px;"/>
    </g>
    <g transform="matrix(-0.666871,1.15458,1.15458,0.666871,-611.705,-358.389)">
        <path d="M93.811,645.24L101.849,645.24" style="fill:none;fill-rule:nonzero;stroke:black;stroke-width:0.72px;"/>
    </g>
    <g transform="matrix(0.666796,1.15463,1.15463,-0.666796,-722.37,474.5)">
        <path d="M116.296,642.72L130.154,642.72" style="fill:none;fill-rule:nonzero;stroke:black;stroke-width:0.72px;"/>
    </g>
    <g transform="matrix(0.666796,-1.15463,-1.15463,-0.666796,775.688,751.059)">
        <path d="M116.296,654.72L130.154,654.72" style="fill:none;fill-rule:nonzero;stroke:black;stroke-width:0.72px;"/>
    </g>
    <g transform="matrix(0,1.33333,1.33333,0,-529.603,-97.8646)">
        <path d="M242.4,603.84L264.48,603.84" style="fill:none;fill-rule:nonzero;stroke:black;stroke-width:0.72px;"/>
    </g>
    <g transform="matrix(-0.314133,1.2958,1.2958,0.314133,-418.15,-266.374)">
        <path d="M249.139,597.693L257.289,597.693L250.044,593.961L250.991,596.166L249.139,597.693Z" style="stroke:black;stroke-width:0.72px;"/>
    </g>
    <g transform="matrix(-1.02493,0.852815,0.852815,1.02493,4.12054,-412.335)">
        <path d="M217.448,537.545L227.752,537.545" style="fill:none;fill-rule:nonzero;stroke:black;stroke-width:0.72px;"/>
    </g>
    <g transform="matrix(0,-1.33333,-1.33333,0,972.877,618.535)">
        <path d="M220.86,548.22L235.62,548.22" style="fill:none;fill-rule:nonzero;stroke:black;stroke-width:0.72px;"/>
    </g>
    <g transform="matrix(0,-1.33333,-1.33333,0,968.397,614.055)">
        <path d="M217.5,548.22L232.26,548.22" style="fill:none;fill-rule:nonzero;stroke:black;stroke-width:0.72px;"/>
    </g>
    <g transform="matrix(1.31282,-0.23301,-0.23301,-1.31282,69.8396,1092.7)">
        <path d="M226.163,545.35L277.777,545.35" style="fill:none;fill-rule:nonzero;stroke:black;stroke-width:0.72px;"/>
    </g>
    <g transform="matrix(0.72263,1.12053,1.12053,-0.72263,-499.889,396.497)">
        <path d="M274.922,543.19L288.225,543.19L288.011,544.851L287.803,546.521L274.922,543.19Z" style="stroke:black;stroke-width:0.24px;"/>
    </g>
    <g transform="matrix(-0.0107366,-1.33329,-1.33329,0.0107366,1052.57,666.7)">
        <path d="M270.495,556.69L284.155,556.69" style="fill:none;fill-rule:nonzero;stroke:black;stroke-width:0.72px;"/>
    </g>
    <g transform="matrix(1.00623,0.874803,0.874803,-1.00623,-447.309,632.605)">
        <path d="M267.802,540.735L271.048,540.735" style="fill:none;fill-rule:nonzero;stroke:black;stroke-width:0.72px;"/>
    </g>
    <g transform="matrix(1.00603,0.875035,0.875035,-1.00603,-448.554,630.264)">
        <path d="M269.888,542.725L272.432,542.725" style="fill:none;fill-rule:nonzero;stroke:black;stroke-width:0.72px;"/>
    </g>
    <g transform="matrix(1.00614,0.874905,0.874905,-1.00614,-449.681,628.189)">
        <path d="M271.986,544.71L273.814,544.71" style="fill:none;fill-rule:nonzero;stroke:black;stroke-width:0.72px;"/>
    </g>
    <g transform="matrix(1.00048,0.881374,0.881374,-1.00048,-452.838,621.152)">
        <path d="M274.07,546.7L275.19,546.7" style="fill:none;fill-rule:nonzero;stroke:black;stroke-width:0.72px;"/>
    </g>
    <g transform="matrix(1.00544,0.875708,0.875708,-1.00544,-452.281,623.248)">
        <path d="M276.159,548.695L276.571,548.695" style="fill:none;fill-rule:nonzero;stroke:black;stroke-width:0.72px;"/>
    </g>
    <g transform="matrix(-1.33333,0,0,1.33333,415.357,-410.825)">
        <path d="M164.16,546L194.16,546" style="fill:none;fill-rule:nonzero;stroke:black;stroke-width:0.72px;"/>
    </g>
    <g transform="matrix(-1.2958,-0.314133,-0.314133,1.2958,551.124,-337.519)">
        <path d="M163.819,546.933L171.969,546.933L164.724,543.201L165.671,545.406L163.819,546.933Z" style="stroke:black;stroke-width:0.72px;"/>
    </g>
    <g transform="matrix(1.33333,0,0,1.33333,-62.4026,-391.625)">
        <path d="M100.56,538.8L120.48,538.8" style="fill:none;fill-rule:nonzero;stroke:black;stroke-width:0.72px;"/>
    </g>
    <g transform="matrix(1.33333,0,0,1.33333,-62.4026,-400.585)">
        <path d="M100.56,542.16L120.48,542.16" style="fill:none;fill-rule:nonzero;stroke:black;stroke-width:0.72px;"/>
    </g>
    <g transform="matrix(-0.666796,-1.15463,-1.15463,0.666796,762.78,64.2529)">
        <path d="M90.166,546.48L104.024,546.48" style="fill:none;fill-rule:nonzero;stroke:black;stroke-width:0.72px;"/>
    </g>
    <g transform="matrix(-0.666796,1.15463,1.15463,0.666796,-485.324,-135.962)">
        <path d="M90.166,534.48L104.024,534.48" style="fill:none;fill-rule:nonzero;stroke:black;stroke-width:0.72px;"/>
    </g>
    <g transform="matrix(0.666796,1.15463,1.15463,-0.666796,-596.913,545.815)">
        <path d="M117.016,534.48L130.874,534.48" style="fill:none;fill-rule:nonzero;stroke:black;stroke-width:0.72px;"/>
    </g>
    <g transform="matrix(0.666796,-1.15463,-1.15463,-0.666796,651.191,824.036)">
        <path d="M117.016,546.48L130.874,546.48" style="fill:none;fill-rule:nonzero;stroke:black;stroke-width:0.72px;"/>
    </g>
    <g transform="matrix(1.07059,0.794747,0.794747,-1.07059,-394.366,866.767)">
        <path d="M69.882,442.944L84.529,442.944L84.333,444.617L84.143,446.282L69.882,442.944Z" style="stroke:black;stroke-width:0.24px;"/>
    </g>
    <g transform="matrix(0,-1.33333,-1.33333,0,639.337,533.195)">
        <path d="M63.825,455.145L78.495,455.145" style="fill:none;fill-rule:nonzero;stroke:black;stroke-width:0.72px;"/>
    </g>
    <g transform="matrix(0.666766,1.15464,1.15464,-0.666766,-532.035,682.524)">
        <path d="M57.82,441.06L61.1,441.06" style="fill:none;fill-rule:nonzero;stroke:black;stroke-width:0.72px;"/>
    </g>
    <g transform="matrix(0.668048,1.1539,1.1539,-0.668048,-531.784,679.613)">
        <path d="M60.433,442.38L63.067,442.38" style="fill:none;fill-rule:nonzero;stroke:black;stroke-width:0.72px;"/>
    </g>
    <g transform="matrix(0.667259,1.15436,1.15436,-0.667259,-531.93,675.716)">
        <path d="M63.041,443.695L65.039,443.695" style="fill:none;fill-rule:nonzero;stroke:black;stroke-width:0.72px;"/>
    </g>
    <g transform="matrix(0.665731,1.15524,1.15524,-0.665731,-532.232,671.464)">
        <path d="M65.639,445.02L67.001,445.02" style="fill:none;fill-rule:nonzero;stroke:black;stroke-width:0.72px;"/>
    </g>
    <g transform="matrix(0.669514,1.15305,1.15305,-0.669514,-531.511,669.775)">
        <path d="M68.252,446.34L68.968,446.34" style="fill:none;fill-rule:nonzero;stroke:black;stroke-width:0.72px;"/>
    </g>
    <g transform="matrix(0.596285,1.19257,1.19257,-0.596285,-544.015,630.681)">
        <path d="M70.861,447.66L70.929,447.66" style="fill:none;fill-rule:nonzero;stroke:black;stroke-width:0.72px;"/>
    </g>
    <g transform="matrix(0,1.33333,1.33333,0,-485.596,274.302)">
        <path d="M123.005,447.775L137.755,447.775" style="fill:none;fill-rule:nonzero;stroke:black;stroke-width:0.72px;"/>
    </g>
    <g transform="matrix(0,1.33333,1.33333,0,-481.116,269.822)">
        <path d="M126.365,447.775L141.115,447.775" style="fill:none;fill-rule:nonzero;stroke:black;stroke-width:0.72px;"/>
    </g>
    <g transform="matrix(1.22341,-0.530143,-0.530143,-1.22341,196.473,1068.25)">
        <path d="M130.875,458.195L145.588,458.195L145.394,459.859L145.204,461.533L130.875,458.195Z" style="stroke:black;stroke-width:0.24px;"/>
    </g>
    <g transform="matrix(-0.666766,1.15464,1.15464,0.666766,-354.834,-17.6326)">
        <path d="M118.78,461.86L122.06,461.86" style="fill:none;fill-rule:nonzero;stroke:black;stroke-width:0.72px;"/>
    </g>
    <g transform="matrix(-0.668048,1.1539,1.1539,0.668048,-348.231,-18.1362)">
        <path d="M121.393,460.54L124.027,460.54" style="fill:none;fill-rule:nonzero;stroke:black;stroke-width:0.72px;"/>
    </g>
    <g transform="matrix(-0.662239,1.15725,1.15725,0.662239,-344.402,-15.8912)">
        <path d="M123.998,459.225L125.992,459.225" style="fill:none;fill-rule:nonzero;stroke:black;stroke-width:0.72px;"/>
    </g>
    <g transform="matrix(-0.662583,1.15705,1.15705,0.662583,-338.171,-16.0397)">
        <path d="M126.611,457.905L127.959,457.905" style="fill:none;fill-rule:nonzero;stroke:black;stroke-width:0.72px;"/>
    </g>
    <g transform="matrix(-0.663559,1.15649,1.15649,0.663559,-331.711,-16.4163)">
        <path d="M129.213,456.585L129.917,456.585" style="fill:none;fill-rule:nonzero;stroke:black;stroke-width:0.72px;"/>
    </g>
    <g transform="matrix(-0.685994,1.14332,1.14332,0.685994,-316.659,-24.9068)">
        <path d="M131.826,455.265L131.884,455.265" style="fill:none;fill-rule:nonzero;stroke:black;stroke-width:0.72px;"/>
    </g>
    <g transform="matrix(1.33333,0,0,1.33333,-62.4026,-165.385)">
        <path d="M78,455.52L80.64,454.8L83.52,453.84L86.64,453.36L89.76,452.64L95.04,452.16L106.32,452.16L111.84,452.88L116.88,453.84L121.44,455.04L123.36,455.76" style="fill:none;fill-rule:nonzero;stroke:black;stroke-width:0.48px;"/>
    </g>
    <g transform="matrix(1.16003,0.65735,0.65735,-1.16003,-340.299,888.052)">
        <path d="M115.56,454.437L123.835,454.437L116.618,450.622L117.46,453.031L115.56,454.437Z" style="stroke:black;stroke-width:0.48px;"/>
    </g>
    <g transform="matrix(1.33333,0,0,1.33333,-62.4026,-157.385)">
        <path d="M164.16,450.96L198.24,450.96" style="fill:none;fill-rule:nonzero;stroke:black;stroke-width:0.72px;"/>
    </g>
    <g transform="matrix(1.2958,0.314133,0.314133,-1.2958,-196.772,967.22)">
        <path d="M189.979,451.893L198.129,451.893L190.884,448.161L191.831,450.366L189.979,451.893Z" style="stroke:black;stroke-width:0.72px;"/>
    </g>
    <g transform="matrix(1.06975,0.795877,0.795877,-1.06975,-350.613,743.749)">
        <path d="M225.292,438.869L239.8,438.869L239.603,440.541L239.411,442.206L225.292,438.869Z" style="stroke:black;stroke-width:0.24px;"/>
    </g>
    <g transform="matrix(0,-1.33333,-1.33333,0,841.077,745.855)">
        <path d="M219.21,451.05L233.91,451.05" style="fill:none;fill-rule:nonzero;stroke:black;stroke-width:0.72px;"/>
    </g>
    <g transform="matrix(0.666766,1.15464,1.15464,-0.666766,-423.706,505.647)">
        <path d="M213.34,437.02L216.62,437.02" style="fill:none;fill-rule:nonzero;stroke:black;stroke-width:0.72px;"/>
    </g>
    <g transform="matrix(0.668048,1.1539,1.1539,-0.668048,-423.657,502.846)">
        <path d="M215.953,438.34L218.587,438.34" style="fill:none;fill-rule:nonzero;stroke:black;stroke-width:0.72px;"/>
    </g>
    <g transform="matrix(0.665133,1.15558,1.15558,-0.665133,-423.76,497.68)">
        <path d="M218.563,439.66L220.547,439.66" style="fill:none;fill-rule:nonzero;stroke:black;stroke-width:0.72px;"/>
    </g>
    <g transform="matrix(0.666871,1.15458,1.15458,-0.666871,-423.699,495.14)">
        <path d="M221.175,440.98L222.515,440.98" style="fill:none;fill-rule:nonzero;stroke:black;stroke-width:0.72px;"/>
    </g>
    <g transform="matrix(0.65735,1.16003,1.16003,-0.65735,-423.976,486.191)">
        <path d="M223.785,442.3L224.475,442.3" style="fill:none;fill-rule:nonzero;stroke:black;stroke-width:0.72px;"/>
    </g>
    <g transform="matrix(0.596285,1.19257,1.19257,-0.596285,-424.575,448.196)">
        <path d="M226.388,443.62L226.432,443.62" style="fill:none;fill-rule:nonzero;stroke:black;stroke-width:0.72px;"/>
    </g>
    <g transform="matrix(0,1.33333,1.33333,0,-286.376,81.5221)">
        <path d="M270.02,445.36L284.74,445.36" style="fill:none;fill-rule:nonzero;stroke:black;stroke-width:0.72px;"/>
    </g>
    <g transform="matrix(1.22401,-0.528757,-0.528757,-1.22401,210.33,1145.41)">
        <path d="M276.205,455.729L290.781,455.729L290.588,457.403L290.392,459.067L276.205,455.729Z" style="stroke:black;stroke-width:0.24px;"/>
    </g>
    <g transform="matrix(-0.665009,1.15566,1.15566,0.665009,-62.6326,-180.038)">
        <path d="M263.976,459.505L267.264,459.505" style="fill:none;fill-rule:nonzero;stroke:black;stroke-width:0.72px;"/>
    </g>
    <g transform="matrix(-0.66586,1.15517,1.15517,0.66586,-56.0785,-180.305)">
        <path d="M266.588,458.185L269.232,458.185" style="fill:none;fill-rule:nonzero;stroke:black;stroke-width:0.72px;"/>
    </g>
    <g transform="matrix(-0.672242,1.15146,1.15146,0.672242,-46.5697,-182.221)">
        <path d="M269.193,456.865L271.197,456.865" style="fill:none;fill-rule:nonzero;stroke:black;stroke-width:0.72px;"/>
    </g>
    <g transform="matrix(-0.661519,1.15766,1.15766,0.661519,-46.2104,-179.008)">
        <path d="M271.795,455.545L273.165,455.545" style="fill:none;fill-rule:nonzero;stroke:black;stroke-width:0.72px;"/>
    </g>
    <g transform="matrix(-0.661519,1.15766,1.15766,0.661519,-40.1141,-179.026)">
        <path d="M274.407,454.225L275.133,454.225" style="fill:none;fill-rule:nonzero;stroke:black;stroke-width:0.72px;"/>
    </g>
    <g transform="matrix(-0.774984,1.08498,1.08498,0.774984,30.3254,-210.291)">
        <path d="M277.012,452.905L277.098,452.905" style="fill:none;fill-rule:nonzero;stroke:black;stroke-width:0.72px;"/>
    </g>
    <g transform="matrix(1.31282,-0.23301,-0.23301,-1.31282,47.205,1094.69)">
        <path d="M226.163,448.21L277.777,448.21" style="fill:none;fill-rule:nonzero;stroke:black;stroke-width:0.72px;"/>
    </g>
    <g transform="matrix(1.33333,0,0,1.33333,-62.4026,-116.105)">
        <path d="M240,418.56L242.88,418.56L244.56,418.8L246.24,419.28L247.92,420L250.8,421.44L252,422.64L253.2,423.6L254.4,425.04L255.36,426.24L256.08,427.68L256.8,429.36L257.52,430.8L257.76,432.48L258,434.4L258,437.28L257.76,438.96L257.28,440.64L256.56,442.32L255.12,445.2L253.92,446.4L252.96,447.6L251.52,448.8L250.32,449.76L248.88,450.48L247.2,451.2L245.76,451.92L244.08,452.16L242.16,452.4L239.28,452.4L237.6,452.16L235.92,451.68L232.56,450.24L231.12,449.28L229.92,448.32L228.72,447.12L227.52,445.68L226.56,444.24L225.84,442.8L225.12,441.12L224.16,437.76L224.16,436.56" style="fill:none;fill-rule:nonzero;stroke:black;stroke-width:0.48px;"/>
    </g>
    <g transform="matrix(1.33333,0,0,1.33333,-62.4026,-170.025)">
        <path d="M306.48,450.72L306.72,454.08L306.72,455.76L306.48,457.44L305.52,460.8L304.8,462.24L303.84,463.68L302.88,464.88L300.48,467.28L299.28,468.24L297.84,469.2L296.4,469.92L293.04,470.88L291.36,471.12L288,471.12L286.32,470.88L282.96,469.92L281.52,469.2L280.08,468.24L278.88,467.28L276.48,464.88L275.52,463.68L274.56,462.24L273.84,460.8L272.88,457.44L272.64,455.76L272.64,451.44L273.12,449.52L273.84,447.84L274.56,445.92L275.52,444.48L276.72,442.8L277.92,441.6L279.36,440.4L281.04,439.2L284.4,437.76L285.6,437.52L286.32,437.28" style="fill:none;fill-rule:nonzero;stroke:black;stroke-width:0.48px;"/>
    </g>
</svg>
