<?xml version="1.0" encoding="UTF-8" standalone="no"?>
<!DOCTYPE svg PUBLIC "-//W3C//DTD SVG 1.1//EN" "http://www.w3.org/Graphics/SVG/1.1/DTD/svg11.dtd">
<svg width="100%" height="100%" viewBox="0 0 545 455" version="1.1" xmlns="http://www.w3.org/2000/svg" xmlns:xlink="http://www.w3.org/1999/xlink" xml:space="preserve" xmlns:serif="http://www.serif.com/" style="fill-rule:evenodd;clip-rule:evenodd;stroke-linecap:round;stroke-linejoin:round;stroke-miterlimit:10;">
    <g transform="matrix(1.33333,0,0,1.33333,-63.52,-121.777)">
        <text x="95.52px" y="112.56px" style="font-family:'ArialMT', 'Arial', sans-serif;font-size:10px;">CH</text>
    </g>
    <g transform="matrix(1.33333,0,0,1.33333,-63.52,-121.777)">
        <text x="55.68px" y="112.32px" style="font-family:'ArialMT', 'Arial', sans-serif;font-size:10px;">R</text>
    </g>
    <g transform="matrix(1.33333,0,0,1.33333,-63.52,-121.777)">
        <text x="127.2px" y="103.44px" style="font-family:'ArialMT', 'Arial', sans-serif;font-size:10px;">B</text>
        <text x="133.92px" y="103.44px" style="font-family:'ArialMT', 'Arial', sans-serif;font-size:10px;">uLi</text>
    </g>
    <g transform="matrix(1.33333,0,0,1.33333,-63.52,-121.777)">
        <text x="168.96px" y="112.32px" style="font-family:'ArialMT', 'Arial', sans-serif;font-size:10px;">R</text>
    </g>
    <g transform="matrix(1.33333,0,0,1.33333,-63.52,-121.777)">
        <text x="229.68px" y="112.56px" style="font-family:'ArialMT', 'Arial', sans-serif;font-size:10px;">Li</text>
    </g>
    <g transform="matrix(1.33333,0,0,1.33333,-63.52,-121.777)">
        <text x="256.8px" y="101.76px" style="font-family:'ArialMT', 'Arial', sans-serif;font-size:10px;">Br</text>
        <text x="266.88px" y="104.4px" style="font-family:'ArialMT', 'Arial', sans-serif;font-size:6px;">2</text>
    </g>
    <g transform="matrix(1.33333,0,0,1.33333,-63.52,-121.777)">
        <text x="297.84px" y="113.76px" style="font-family:'ArialMT', 'Arial', sans-serif;font-size:10px;">R</text>
    </g>
    <g transform="matrix(1.33333,0,0,1.33333,-63.52,-121.777)">
        <text x="357.84px" y="114px" style="font-family:'ArialMT', 'Arial', sans-serif;font-size:10px;">Br</text>
    </g>
    <g transform="matrix(1.33333,0,0,1.33333,-63.52,-121.777)">
        <text x="51.36px" y="182.88px" style="font-family:'ArialMT', 'Arial', sans-serif;font-size:10px;">H	<tspan x="71.52px " y="182.88px ">B</tspan></text>
    </g>
    <g transform="matrix(1.33333,0,0,1.33333,-63.52,-121.777)">
        <text x="111.12px" y="148.32px" style="font-family:'ArialMT', 'Arial', sans-serif;font-size:10px;">R</text>
        <text x="118.56px" y="141.36px" style="font-family:'ArialMT', 'Arial', sans-serif;font-size:8px;">1</text>
    </g>
    <g transform="matrix(1.33333,0,0,1.33333,-63.52,-121.777)">
        <text x="63.84px" y="210px" style="font-family:'ArialMT', 'Arial', sans-serif;font-size:10px;">C</text>
    </g>
    <g transform="matrix(1.33333,0,0,1.33333,-63.52,-121.777)">
        <text x="52.32px" y="210px" style="font-family:'ArialMT', 'Arial', sans-serif;font-size:10px;">H</text>
        <text x="59.52px" y="212.64px" style="font-family:'ArialMT', 'Arial', sans-serif;font-size:8px;">3</text>
    </g>
    <g transform="matrix(1.33333,0,0,1.33333,-63.52,-121.777)">
        <text x="98.4px" y="189.84px" style="font-family:'ArialMT', 'Arial', sans-serif;font-size:10px;">CH</text>
        <text x="112.8px" y="192.48px" style="font-family:'ArialMT', 'Arial', sans-serif;font-size:8px;">3</text>
    </g>
    <g transform="matrix(1.33333,0,0,1.33333,-63.52,-121.777)">
        <text x="80.88px" y="234.48px" style="font-family:'ArialMT', 'Arial', sans-serif;font-size:10px;">C</text>
    </g>
    <g transform="matrix(1.33333,0,0,1.33333,-63.52,-121.777)">
        <text x="69.36px" y="234.48px" style="font-family:'ArialMT', 'Arial', sans-serif;font-size:10px;">H</text>
        <text x="76.56px" y="237.12px" style="font-family:'ArialMT', 'Arial', sans-serif;font-size:8px;">3</text>
    </g>
    <g transform="matrix(1.33333,0,0,1.33333,-63.52,-121.777)">
        <text x="110.88px" y="217.2px" style="font-family:'ArialMT', 'Arial', sans-serif;font-size:10px;">CH</text>
        <text x="125.28px" y="219.84px" style="font-family:'ArialMT', 'Arial', sans-serif;font-size:8px;">3</text>
        <text x="137.76px" y="237.84px" style="font-family:'ArialMT', 'Arial', sans-serif;font-size:10px;">R</text>
        <text x="137.76px" y="272.16px" style="font-family:'ArialMT', 'Arial', sans-serif;font-size:10px;">H</text>
    </g>
    <g transform="matrix(1.33333,0,0,1.33333,-63.52,-121.777)">
        <text x="177.84px" y="272.16px" style="font-family:'ArialMT', 'Arial', sans-serif;font-size:10px;">B</text>
    </g>
    <g transform="matrix(1.33333,0,0,1.33333,-63.52,-121.777)">
        <text x="177.84px" y="237.84px" style="font-family:'ArialMT', 'Arial', sans-serif;font-size:10px;">Br</text>
    </g>
    <g transform="matrix(1.33333,0,0,1.33333,-63.52,-121.777)">
        <text x="217.44px" y="237.84px" style="font-family:'ArialMT', 'Arial', sans-serif;font-size:10px;">R</text>
        <text x="224.88px" y="230.88px" style="font-family:'ArialMT', 'Arial', sans-serif;font-size:8px;">1</text>
    </g>
    <g transform="matrix(1.33333,0,0,1.33333,-63.52,-121.777)">
        <text x="170.4px" y="299.28px" style="font-family:'ArialMT', 'Arial', sans-serif;font-size:10px;">C</text>
    </g>
    <g transform="matrix(1.33333,0,0,1.33333,-63.52,-121.777)">
        <text x="158.88px" y="299.28px" style="font-family:'ArialMT', 'Arial', sans-serif;font-size:10px;">H</text>
        <text x="166.08px" y="301.92px" style="font-family:'ArialMT', 'Arial', sans-serif;font-size:8px;">3</text>
    </g>
    <g transform="matrix(1.33333,0,0,1.33333,-63.52,-121.777)">
        <text x="204.72px" y="279.36px" style="font-family:'ArialMT', 'Arial', sans-serif;font-size:10px;">CH</text>
        <text x="219.12px" y="282px" style="font-family:'ArialMT', 'Arial', sans-serif;font-size:8px;">3</text>
    </g>
    <g transform="matrix(1.33333,0,0,1.33333,-63.52,-121.777)">
        <text x="187.44px" y="323.76px" style="font-family:'ArialMT', 'Arial', sans-serif;font-size:10px;">C</text>
    </g>
    <g transform="matrix(1.33333,0,0,1.33333,-63.52,-121.777)">
        <text x="175.92px" y="323.76px" style="font-family:'ArialMT', 'Arial', sans-serif;font-size:10px;">H</text>
        <text x="183.12px" y="326.4px" style="font-family:'ArialMT', 'Arial', sans-serif;font-size:8px;">3</text>
    </g>
    <g transform="matrix(1.33333,0,0,1.33333,-63.52,-121.777)">
        <text x="217.2px" y="306.72px" style="font-family:'ArialMT', 'Arial', sans-serif;font-size:10px;">CH</text>
        <text x="231.6px" y="309.36px" style="font-family:'ArialMT', 'Arial', sans-serif;font-size:8px;">3</text>
    </g>
    <g transform="matrix(1.33333,0,0,1.33333,-63.52,-121.777)">
        <text x="234.48px" y="253.68px" style="font-family:'ArialMT', 'Arial', sans-serif;font-size:10px;">O</text>
    </g>
    <g transform="matrix(1.33333,0,0,1.33333,-63.52,-121.777)">
        <text x="227.28px" y="253.68px" style="font-family:'ArialMT', 'Arial', sans-serif;font-size:10px;">H</text>
        <text x="242.4px" y="246.72px" style="font-family:'ArialMT', 'Arial', sans-serif;font-size:8px;">–</text>
    </g>
    <g transform="matrix(1.33333,0,0,1.33333,-63.52,-121.777)">
        <text x="262.8px" y="240.96px" style="font-family:'ArialMT', 'Arial', sans-serif;font-size:10px;">O</text>
        <text x="270.72px" y="240.96px" style="font-family:'ArialMT', 'Arial', sans-serif;font-size:10px;">H</text>
        <text x="277.92px" y="235.92px" style="font-family:'ArialMT', 'Arial', sans-serif;font-size:6px;">-</text>
    </g>
    <g transform="matrix(1.33333,0,0,1.33333,-63.52,-121.777)">
        <text x="301.92px" y="235.92px" style="font-family:'ArialMT', 'Arial', sans-serif;font-size:10px;">R</text>
        <text x="301.92px" y="270.24px" style="font-family:'ArialMT', 'Arial', sans-serif;font-size:10px;">H</text>
    </g>
    <g transform="matrix(1.33333,0,0,1.33333,-63.52,-121.777)">
        <text x="342px" y="236.16px" style="font-family:'ArialMT', 'Arial', sans-serif;font-size:10px;">B</text>
    </g>
    <g transform="matrix(1.33333,0,0,1.33333,-63.52,-121.777)">
        <text x="361.92px" y="256.56px" style="font-family:'ArialMT', 'Arial', sans-serif;font-size:10px;">CH</text>
        <text x="376.32px" y="259.2px" style="font-family:'ArialMT', 'Arial', sans-serif;font-size:8px;">3</text>
    </g>
    <g transform="matrix(1.33333,0,0,1.33333,-63.52,-121.777)">
        <text x="360.24px" y="216.72px" style="font-family:'ArialMT', 'Arial', sans-serif;font-size:10px;">C</text>
    </g>
    <g transform="matrix(1.33333,0,0,1.33333,-63.52,-121.777)">
        <text x="348.72px" y="216.72px" style="font-family:'ArialMT', 'Arial', sans-serif;font-size:10px;">H</text>
        <text x="355.92px" y="219.36px" style="font-family:'ArialMT', 'Arial', sans-serif;font-size:8px;">3</text>
    </g>
    <g transform="matrix(1.33333,0,0,1.33333,-63.52,-121.777)">
        <text x="392.64px" y="252.72px" style="font-family:'ArialMT', 'Arial', sans-serif;font-size:10px;">CH</text>
        <text x="407.04px" y="255.36px" style="font-family:'ArialMT', 'Arial', sans-serif;font-size:8px;">3</text>
    </g>
    <g transform="matrix(1.33333,0,0,1.33333,-63.52,-121.777)">
        <text x="391.68px" y="219.36px" style="font-family:'ArialMT', 'Arial', sans-serif;font-size:10px;">CH</text>
        <text x="406.08px" y="222px" style="font-family:'ArialMT', 'Arial', sans-serif;font-size:8px;">3</text>
    </g>
    <g transform="matrix(1.33333,0,0,1.33333,-63.52,-121.777)">
        <text x="331.68px" y="218.88px" style="font-family:'ArialMT', 'Arial', sans-serif;font-size:10px;">O</text>
    </g>
    <g transform="matrix(1.33333,0,0,1.33333,-63.52,-121.777)">
        <text x="324.48px" y="218.88px" style="font-family:'ArialMT', 'Arial', sans-serif;font-size:10px;">H</text>
    </g>
    <g transform="matrix(1.33333,0,0,1.33333,-63.52,-121.777)">
        <text x="341.52px" y="304.8px" style="font-family:'ArialMT', 'Arial', sans-serif;font-size:10px;">R</text>
        <text x="348.96px" y="297.84px" style="font-family:'ArialMT', 'Arial', sans-serif;font-size:8px;">1</text>
    </g>
    <g transform="matrix(1.33333,0,0,1.33333,-63.52,-121.777)">
        <text x="183.84px" y="382.08px" style="font-family:'ArialMT', 'Arial', sans-serif;font-size:10px;">Ac</text>
        <text x="195.6px" y="382.08px" style="font-family:'ArialMT', 'Arial', sans-serif;font-size:10px;">O<tspan x="203.52px " y="382.08px ">H</tspan></text>
    </g>
    <g transform="matrix(1.33333,0,0,1.33333,-63.52,-121.777)">
        <text x="230.16px" y="358.32px" style="font-family:'ArialMT', 'Arial', sans-serif;font-size:10px;">R</text>
        <text x="230.16px" y="392.64px" style="font-family:'ArialMT', 'Arial', sans-serif;font-size:10px;">H</text>
    </g>
    <g transform="matrix(1.33333,0,0,1.33333,-63.52,-121.777)">
        <text x="269.76px" y="427.2px" style="font-family:'ArialMT', 'Arial', sans-serif;font-size:10px;">R</text>
        <text x="277.2px" y="420.24px" style="font-family:'ArialMT', 'Arial', sans-serif;font-size:8px;">1</text>
    </g>
    <g transform="matrix(1.33333,0,0,1.33333,-63.52,-121.777)">
        <text x="270px" y="358.32px" style="font-family:'ArialMT', 'Arial', sans-serif;font-size:10px;">H</text>
    </g>
    <g transform="matrix(1.33333,0,0,1.33333,-63.52,-955.057)">
        <path d="M79.2,733.44L94.56,733.44" style="fill:none;fill-rule:nonzero;stroke:black;stroke-width:0.72px;"/>
    </g>
    <g transform="matrix(1.33333,0,0,1.33333,-63.52,-964.017)">
        <path d="M79.2,736.8L94.56,736.8" style="fill:none;fill-rule:nonzero;stroke:black;stroke-width:0.72px;"/>
    </g>
    <g transform="matrix(1.33333,0,0,1.33333,-63.52,-946.097)">
        <path d="M79.2,730.08L94.56,730.08" style="fill:none;fill-rule:nonzero;stroke:black;stroke-width:0.72px;"/>
    </g>
    <g transform="matrix(-1.33333,0,0,1.33333,127.2,-955.057)">
        <path d="M63.84,733.44L79.2,733.44" style="fill:none;fill-rule:nonzero;stroke:black;stroke-width:0.72px;"/>
    </g>
    <g transform="matrix(1.33333,0,0,1.33333,-63.52,-953.137)">
        <path d="M120,732.72L154.08,732.72" style="fill:none;fill-rule:nonzero;stroke:black;stroke-width:0.72px;"/>
    </g>
    <g transform="matrix(1.2958,0.314133,0.314133,-1.2958,-288.057,926.124)">
        <path d="M145.819,733.653L153.969,733.653L146.724,729.921L147.671,732.126L145.819,733.653Z" style="stroke:black;stroke-width:0.72px;"/>
    </g>
    <g transform="matrix(1.33333,0,0,1.33333,-63.52,-955.057)">
        <path d="M192.48,733.44L212.4,733.44" style="fill:none;fill-rule:nonzero;stroke:black;stroke-width:0.72px;"/>
    </g>
    <g transform="matrix(1.33333,0,0,1.33333,-63.52,-964.017)">
        <path d="M192.48,736.8L212.4,736.8" style="fill:none;fill-rule:nonzero;stroke:black;stroke-width:0.72px;"/>
    </g>
    <g transform="matrix(1.33333,0,0,1.33333,-63.52,-946.097)">
        <path d="M192.48,730.08L212.4,730.08" style="fill:none;fill-rule:nonzero;stroke:black;stroke-width:0.72px;"/>
    </g>
    <g transform="matrix(-1.33333,0,0,1.33333,429.28,-955.057)">
        <path d="M177.12,733.44L192.48,733.44" style="fill:none;fill-rule:nonzero;stroke:black;stroke-width:0.72px;"/>
    </g>
    <g transform="matrix(1.33333,0,0,1.33333,-63.52,-955.057)">
        <path d="M212.4,733.44L228.72,733.44" style="fill:none;fill-rule:nonzero;stroke:black;stroke-width:0.72px;"/>
    </g>
    <g transform="matrix(1.33333,0,0,1.33333,-63.52,-951.217)">
        <path d="M246.48,732L280.56,732" style="fill:none;fill-rule:nonzero;stroke:black;stroke-width:0.72px;"/>
    </g>
    <g transform="matrix(1.2958,0.314133,0.314133,-1.2958,-283.084,886.419)">
        <path d="M272.299,732.933L280.449,732.933L273.204,729.201L274.151,731.406L272.299,732.933Z" style="stroke:black;stroke-width:0.72px;"/>
    </g>
    <g transform="matrix(1.33333,0,0,1.33333,-63.52,-951.217)">
        <path d="M321.36,732L341.28,732" style="fill:none;fill-rule:nonzero;stroke:black;stroke-width:0.72px;"/>
    </g>
    <g transform="matrix(1.33333,0,0,1.33333,-63.52,-960.177)">
        <path d="M321.36,735.36L341.28,735.36" style="fill:none;fill-rule:nonzero;stroke:black;stroke-width:0.72px;"/>
    </g>
    <g transform="matrix(1.33333,0,0,1.33333,-63.52,-942.257)">
        <path d="M321.36,728.64L341.28,728.64" style="fill:none;fill-rule:nonzero;stroke:black;stroke-width:0.72px;"/>
    </g>
    <g transform="matrix(-1.33333,0,0,1.33333,772.96,-951.217)">
        <path d="M306,732L321.36,732" style="fill:none;fill-rule:nonzero;stroke:black;stroke-width:0.72px;"/>
    </g>
    <g transform="matrix(1.33333,0,0,1.33333,-63.52,-951.217)">
        <path d="M341.28,732L356.88,732" style="fill:none;fill-rule:nonzero;stroke:black;stroke-width:0.72px;"/>
    </g>
    <g transform="matrix(1.33333,0,0,1.33333,-63.52,-951.217)">
        <path d="M375.84,732L409.92,732" style="fill:none;fill-rule:nonzero;stroke:black;stroke-width:0.72px;"/>
    </g>
    <g transform="matrix(1.2958,0.314133,0.314133,-1.2958,-278.229,845.783)">
        <path d="M401.659,732.933L409.809,732.933L402.564,729.201L403.511,731.406L401.659,732.933Z" style="stroke:black;stroke-width:0.72px;"/>
    </g>
    <g transform="matrix(1.33333,0,0,1.33333,-63.52,-575.537)">
        <path d="M52.8,591.12L127.2,591.12" style="fill:none;fill-rule:nonzero;stroke:black;stroke-width:0.72px;"/>
    </g>
    <g transform="matrix(1.2958,0.314133,0.314133,-1.2958,-244.585,939.882)">
        <path d="M118.939,592.053L127.089,592.053L119.844,588.321L120.791,590.526L118.939,592.053Z" style="stroke:black;stroke-width:0.72px;"/>
    </g>
    <g transform="matrix(1.33333,0,0,1.33333,-63.52,-767.537)">
        <path d="M59.52,663.12L70.56,663.12" style="fill:none;fill-rule:nonzero;stroke:black;stroke-width:0.72px;"/>
    </g>
    <g transform="matrix(0.666603,1.15474,1.15474,-0.666603,-761.979,472.193)">
        <path d="M74.474,651.855L88.296,651.855" style="fill:none;fill-rule:nonzero;stroke:black;stroke-width:0.72px;"/>
    </g>
    <g transform="matrix(0.666706,-1.15468,-1.15468,-0.666706,769.246,645.192)">
        <path d="M74.265,674.265L88.365,674.265" style="fill:none;fill-rule:nonzero;stroke:black;stroke-width:0.72px;"/>
    </g>
    <g transform="matrix(1.33333,0,0,1.33333,-63.52,-813.537)">
        <path d="M84.84,680.37L104.76,680.37" style="fill:none;fill-rule:nonzero;stroke:black;stroke-width:0.72px;"/>
    </g>
    <g transform="matrix(0.666989,-1.15451,-1.15451,-0.666989,801.043,668.373)">
        <path d="M101.288,686.385L115.182,686.385" style="fill:none;fill-rule:nonzero;stroke:black;stroke-width:0.72px;"/>
    </g>
    <g transform="matrix(-1.15677,0.66307,0.66307,1.15677,-294.063,-650.334)">
        <path d="M71.02,642.19L85.82,642.19" style="fill:none;fill-rule:nonzero;stroke:black;stroke-width:0.72px;"/>
    </g>
    <g transform="matrix(0.665671,1.15527,1.15527,-0.665671,-739.897,471.563)">
        <path d="M79.91,637.34L99.6,637.34" style="fill:none;fill-rule:nonzero;stroke:black;stroke-width:0.72px;"/>
    </g>
    <g transform="matrix(1.15091,-0.673191,-0.673191,-1.15091,390.38,943.643)">
        <path d="M83.841,649.555L98.439,649.555" style="fill:none;fill-rule:nonzero;stroke:black;stroke-width:0.72px;"/>
    </g>
    <g transform="matrix(-0.667194,1.1544,1.1544,0.667194,-600.037,-350.116)">
        <path d="M84.056,622.685L98.204,622.685" style="fill:none;fill-rule:nonzero;stroke:black;stroke-width:0.72px;"/>
    </g>
    <g transform="matrix(1.3333,0.00874298,0.00874298,-1.3333,-69.0143,999.87)">
        <path d="M94.67,628.76L109.92,628.76" style="fill:none;fill-rule:nonzero;stroke:black;stroke-width:0.72px;"/>
    </g>
    <g transform="matrix(1.33333,0,0,1.33333,-63.52,-570.417)">
        <path d="M151.44,589.2L171.36,589.2" style="fill:none;fill-rule:nonzero;stroke:black;stroke-width:0.72px;"/>
    </g>
    <g transform="matrix(1.33333,0,0,1.33333,-63.52,-579.377)">
        <path d="M151.44,592.56L171.36,592.56" style="fill:none;fill-rule:nonzero;stroke:black;stroke-width:0.72px;"/>
    </g>
    <g transform="matrix(-1.15437,0.667241,0.667241,1.15437,-103.883,-593.018)">
        <path d="M143.541,601.735L146.799,601.735" style="fill:none;fill-rule:nonzero;stroke:black;stroke-width:0.72px;"/>
    </g>
    <g transform="matrix(-1.15638,0.663751,0.663751,1.15638,-96.6752,-588.912)">
        <path d="M145.209,599.45L147.781,599.45" style="fill:none;fill-rule:nonzero;stroke:black;stroke-width:0.72px;"/>
    </g>
    <g transform="matrix(-1.15196,0.671389,0.671389,1.15196,-97.0859,-582.59)">
        <path d="M146.872,597.165L148.758,597.165" style="fill:none;fill-rule:nonzero;stroke:black;stroke-width:0.72px;"/>
    </g>
    <g transform="matrix(-1.15491,0.666297,0.666297,1.15491,-88.8142,-578.791)">
        <path d="M148.53,594.88L149.73,594.88" style="fill:none;fill-rule:nonzero;stroke:black;stroke-width:0.72px;"/>
    </g>
    <g transform="matrix(-1.1479,0.678306,0.678306,1.1479,-92.1753,-571.624)">
        <path d="M150.194,592.59L150.706,592.59" style="fill:none;fill-rule:nonzero;stroke:black;stroke-width:0.72px;"/>
    </g>
    <g transform="matrix(-0.800611,1.06621,1.06621,0.800611,-372.453,-403.422)">
        <path d="M139.6,583.956L153.556,583.956L153.357,585.62L153.152,587.291L139.6,583.956Z" style="stroke:black;stroke-width:0.24px;"/>
    </g>
    <g transform="matrix(0.522573,1.22666,1.22666,-0.522573,-638.125,311.585)">
        <path d="M168.001,583.121L181.958,583.121L181.757,584.794L181.553,586.457L168.001,583.121Z" style="stroke:black;stroke-width:0.24px;"/>
    </g>
    <g transform="matrix(-1.15437,-0.667241,-0.667241,1.15437,779.873,-377.633)">
        <path d="M176.001,601.735L179.259,601.735" style="fill:none;fill-rule:nonzero;stroke:black;stroke-width:0.72px;"/>
    </g>
    <g transform="matrix(-1.15638,-0.663751,-0.663751,1.15638,773.314,-374.653)">
        <path d="M175.019,599.45L177.591,599.45" style="fill:none;fill-rule:nonzero;stroke:black;stroke-width:0.72px;"/>
    </g>
    <g transform="matrix(-1.15196,-0.671389,-0.671389,1.15196,772.299,-365.865)">
        <path d="M174.042,597.165L175.928,597.165" style="fill:none;fill-rule:nonzero;stroke:black;stroke-width:0.72px;"/>
    </g>
    <g transform="matrix(-1.15491,-0.666297,-0.666297,1.15491,764.98,-363.71)">
        <path d="M173.07,594.88L174.27,594.88" style="fill:none;fill-rule:nonzero;stroke:black;stroke-width:0.72px;"/>
    </g>
    <g transform="matrix(-1.1479,-0.678306,-0.678306,1.1479,766.078,-352.667)">
        <path d="M172.094,592.59L172.606,592.59" style="fill:none;fill-rule:nonzero;stroke:black;stroke-width:0.72px;"/>
    </g>
    <g transform="matrix(0.666515,1.15479,1.15479,-0.666515,-587.848,408.889)">
        <path d="M180.733,562.47L194.797,562.47" style="fill:none;fill-rule:nonzero;stroke:black;stroke-width:0.72px;"/>
    </g>
    <g transform="matrix(0.666796,-1.15463,-1.15463,-0.666796,736.983,827.794)">
        <path d="M180.886,584.88L194.744,584.88" style="fill:none;fill-rule:nonzero;stroke:black;stroke-width:0.72px;"/>
    </g>
    <g transform="matrix(1.33333,0,0,1.33333,-63.52,-574.897)">
        <path d="M191.28,590.88L211.2,590.88" style="fill:none;fill-rule:nonzero;stroke:black;stroke-width:0.72px;"/>
    </g>
    <g transform="matrix(0.666796,-1.15463,-1.15463,-0.666796,768.735,850.798)">
        <path d="M207.736,596.88L221.594,596.88" style="fill:none;fill-rule:nonzero;stroke:black;stroke-width:0.72px;"/>
    </g>
    <g transform="matrix(-1.15682,0.662987,0.662987,1.15682,30.5024,-498.21)">
        <path d="M177.59,552.735L192.25,552.735" style="fill:none;fill-rule:nonzero;stroke:black;stroke-width:0.72px;"/>
    </g>
    <g transform="matrix(0.665671,1.15527,1.15527,-0.665671,-565.445,408.345)">
        <path d="M186.35,547.85L206.04,547.85" style="fill:none;fill-rule:nonzero;stroke:black;stroke-width:0.72px;"/>
    </g>
    <g transform="matrix(1.1509,-0.673204,-0.673204,-1.1509,349.528,1031.59)">
        <path d="M190.291,560.03L204.749,560.03" style="fill:none;fill-rule:nonzero;stroke:black;stroke-width:0.72px;"/>
    </g>
    <g transform="matrix(-0.667292,1.15434,1.15434,0.667292,-283.745,-294.283)">
        <path d="M190.677,533.3L204.583,533.3" style="fill:none;fill-rule:nonzero;stroke:black;stroke-width:0.72px;"/>
    </g>
    <g transform="matrix(1.3333,0.00881232,0.00881232,-1.3333,-68.2661,998.928)">
        <path d="M201.11,539.27L216.24,539.27" style="fill:none;fill-rule:nonzero;stroke:black;stroke-width:0.72px;"/>
    </g>
    <g transform="matrix(1.33333,0,0,1.33333,-63.52,-548.977)">
        <path d="M223.2,574.08L222.24,575.76L219.84,579.12L218.64,580.56L217.2,582L213.84,584.4L212.16,585.36L206.4,587.52L204.48,588L202.32,588.24L198,588.24L196.08,588L192.24,587.04L190.32,586.32L188.64,585.6" style="fill:none;fill-rule:nonzero;stroke:black;stroke-width:0.48px;"/>
    </g>
    <g transform="matrix(-1.11528,-0.730702,-0.730702,1.11528,828.121,-264.979)">
        <path d="M189.061,574.769L197.382,574.769L190.162,570.899L191.18,573.287L189.061,574.769Z" style="stroke:black;stroke-width:0.48px;"/>
    </g>
    <g transform="matrix(1.33333,0,0,1.33333,-63.52,-609.137)">
        <path d="M179.28,616.56L177.36,616.32L174,615.36L172.32,614.64L170.88,613.68L169.44,612.48L168.24,611.28L167.28,610.08L166.08,608.64L165.36,606.96L164.64,605.52L164.16,603.6L163.92,601.92L163.68,600.72L163.68,600L164.16,596.64L164.4,595.2L166.56,590.88" style="fill:none;fill-rule:nonzero;stroke:black;stroke-width:0.48px;"/>
    </g>
    <g transform="matrix(0.861256,-1.01785,-1.01785,-0.861256,637.275,878.491)">
        <path d="M160.566,613.1L168.74,613.1L161.425,609.112L162.482,611.578L160.566,613.1Z" style="stroke:black;stroke-width:0.48px;"/>
    </g>
    <g transform="matrix(1.33333,0,0,1.33333,-63.52,-580.017)">
        <path d="M254.16,592.8L288.24,592.8" style="fill:none;fill-rule:nonzero;stroke:black;stroke-width:0.72px;"/>
    </g>
    <g transform="matrix(1.2958,0.314133,0.314133,-1.2958,-239.068,889.231)">
        <path d="M279.979,593.733L288.129,593.733L280.884,590.001L281.831,592.206L279.979,593.733Z" style="stroke:black;stroke-width:0.72px;"/>
    </g>
    <g transform="matrix(1.33333,0,0,1.33333,-63.52,-575.537)">
        <path d="M315.6,591.12L335.52,591.12" style="fill:none;fill-rule:nonzero;stroke:black;stroke-width:0.72px;"/>
    </g>
    <g transform="matrix(1.33333,0,0,1.33333,-63.52,-584.497)">
        <path d="M315.6,594.48L335.52,594.48" style="fill:none;fill-rule:nonzero;stroke:black;stroke-width:0.72px;"/>
    </g>
    <g transform="matrix(-1.15437,0.667241,0.667241,1.15437,303.217,-707.329)">
        <path d="M307.701,603.655L310.959,603.655" style="fill:none;fill-rule:nonzero;stroke:black;stroke-width:0.72px;"/>
    </g>
    <g transform="matrix(-1.15638,0.663751,0.663751,1.15638,310.762,-702.653)">
        <path d="M309.369,601.37L311.941,601.37" style="fill:none;fill-rule:nonzero;stroke:black;stroke-width:0.72px;"/>
    </g>
    <g transform="matrix(-1.15196,0.671389,0.671389,1.15196,309.611,-697.577)">
        <path d="M311.032,599.085L312.918,599.085" style="fill:none;fill-rule:nonzero;stroke:black;stroke-width:0.72px;"/>
    </g>
    <g transform="matrix(-1.15491,0.666297,0.666297,1.15491,318.377,-692.948)">
        <path d="M312.69,596.8L313.89,596.8" style="fill:none;fill-rule:nonzero;stroke:black;stroke-width:0.72px;"/>
    </g>
    <g transform="matrix(-1.1479,0.678306,0.678306,1.1479,313.842,-687.738)">
        <path d="M314.354,594.51L314.866,594.51" style="fill:none;fill-rule:nonzero;stroke:black;stroke-width:0.72px;"/>
    </g>
    <g transform="matrix(-0.800611,1.06621,1.06621,0.800611,-24.1913,-582.548)">
        <path d="M303.76,585.876L317.716,585.876L317.517,587.54L317.312,589.211L303.76,585.876Z" style="stroke:black;stroke-width:0.24px;"/>
    </g>
    <g transform="matrix(-1.15051,-0.673871,-0.673871,1.15051,1191.96,-267.723)">
        <path d="M340.128,603.42L343.372,603.42" style="fill:none;fill-rule:nonzero;stroke:black;stroke-width:0.72px;"/>
    </g>
    <g transform="matrix(-1.15152,-0.672152,-0.672152,1.15152,1186.42,-264.162)">
        <path d="M339.136,601.145L341.694,601.145" style="fill:none;fill-rule:nonzero;stroke:black;stroke-width:0.72px;"/>
    </g>
    <g transform="matrix(-1.14961,-0.675399,-0.675399,1.14961,1182.87,-257.166)">
        <path d="M338.152,598.87L340.008,598.87" style="fill:none;fill-rule:nonzero;stroke:black;stroke-width:0.72px;"/>
    </g>
    <g transform="matrix(-1.15337,-0.668957,-0.668957,1.15337,1175.43,-256.829)">
        <path d="M337.162,596.59L338.318,596.59" style="fill:none;fill-rule:nonzero;stroke:black;stroke-width:0.72px;"/>
    </g>
    <g transform="matrix(-1.15588,-0.664628,-0.664628,1.15588,1168.87,-255.004)">
        <path d="M336.179,594.315L336.641,594.315" style="fill:none;fill-rule:nonzero;stroke:black;stroke-width:0.72px;"/>
    </g>
    <g transform="matrix(1.33318,0.0203668,0.0203668,-1.33318,-75.8775,993.406)">
        <path d="M349.679,609.48L365.391,609.48" style="fill:none;fill-rule:nonzero;stroke:black;stroke-width:0.72px;"/>
    </g>
    <g transform="matrix(0.0116483,1.33328,1.33328,-0.0116483,-383.033,-282.021)">
        <path d="M358.015,601.92L372.895,601.92" style="fill:none;fill-rule:nonzero;stroke:black;stroke-width:0.72px;"/>
    </g>
    <g transform="matrix(1.33324,-0.0160873,-0.0160873,-1.33324,-53.6787,1006.76)">
        <path d="M365.389,609.48L385.281,609.48" style="fill:none;fill-rule:nonzero;stroke:black;stroke-width:0.72px;"/>
    </g>
    <g transform="matrix(-0.0890539,-1.33036,-1.33036,0.0890539,1275.91,609.072)">
        <path d="M357.564,616.68L372.236,616.68" style="fill:none;fill-rule:nonzero;stroke:black;stroke-width:0.72px;"/>
    </g>
    <g transform="matrix(0.741639,1.10804,1.10804,-0.741639,-502.529,212.335)">
        <path d="M382.268,603.96L395.842,603.96" style="fill:none;fill-rule:nonzero;stroke:black;stroke-width:0.72px;"/>
    </g>
    <g transform="matrix(0.691971,-1.13972,-1.13972,-0.691971,887.347,1049.22)">
        <path d="M381.971,615.48L395.729,615.48" style="fill:none;fill-rule:nonzero;stroke:black;stroke-width:0.72px;"/>
    </g>
    <g transform="matrix(-0.653047,-1.16246,-1.16246,0.653047,1331.69,168.319)">
        <path d="M336.523,618.36L344.507,618.36" style="fill:none;fill-rule:nonzero;stroke:black;stroke-width:0.72px;"/>
    </g>
    <g transform="matrix(0.562971,1.20865,1.20865,-0.562971,-506.211,138.699)">
        <path d="M330.589,582.417L350.578,582.417L350.442,584.09L350.297,585.769L330.589,582.417Z" style="stroke:black;stroke-width:0.24px;"/>
    </g>
    <g transform="matrix(-0.67087,1.15226,1.15226,0.67087,-34.4929,-527.652)">
        <path d="M330.453,566.905L350.367,566.905" style="fill:none;fill-rule:nonzero;stroke:black;stroke-width:0.72px;"/>
    </g>
    <g transform="matrix(0.662861,1.15689,1.15689,-0.662861,-475.242,238.483)">
        <path d="M331.905,552.27L345.805,552.27" style="fill:none;fill-rule:nonzero;stroke:black;stroke-width:0.72px;"/>
    </g>
    <g transform="matrix(1.33333,0,0,1.33333,-63.52,-563.377)">
        <path d="M175.2,585.84L177.12,584.88L179.52,584.64L181.2,584.88L182.88,585.36L184.32,586.08L186,587.76L186.48,588.48" style="fill:none;fill-rule:nonzero;stroke:black;stroke-width:0.48px;"/>
    </g>
    <g transform="matrix(-1.16003,0.65735,0.65735,1.16003,-3.89946,-586.456)">
        <path d="M175.56,589.083L183.835,589.083L176.618,592.898L177.578,590.698L175.56,589.083Z" style="stroke:black;stroke-width:0.48px;"/>
    </g>
    <g transform="matrix(1.33333,0,0,1.33333,-63.52,-577.457)">
        <path d="M418.56,591.84L452.64,591.84" style="fill:none;fill-rule:nonzero;stroke:black;stroke-width:0.72px;"/>
    </g>
    <g transform="matrix(1.2958,0.314133,0.314133,-1.2958,-232.596,837.624)">
        <path d="M444.379,592.773L452.529,592.773L445.284,589.041L446.231,591.246L444.379,592.773Z" style="stroke:black;stroke-width:0.72px;"/>
    </g>
    <g transform="matrix(1.33333,0,0,1.33333,-63.52,-210.097)">
        <path d="M180,454.08L214.08,454.08" style="fill:none;fill-rule:nonzero;stroke:black;stroke-width:0.72px;"/>
    </g>
    <g transform="matrix(1.2958,0.314133,0.314133,-1.2958,-198.275,917.734)">
        <path d="M205.819,455.013L213.969,455.013L206.724,451.281L207.671,453.486L205.819,455.013Z" style="stroke:black;stroke-width:0.72px;"/>
    </g>
    <g transform="matrix(1.33333,0,0,1.33333,-63.52,-249.137)">
        <path d="M243.84,468.72L263.76,468.72" style="fill:none;fill-rule:nonzero;stroke:black;stroke-width:0.72px;"/>
    </g>
    <g transform="matrix(1.33333,0,0,1.33333,-63.52,-258.097)">
        <path d="M243.84,472.08L263.76,472.08" style="fill:none;fill-rule:nonzero;stroke:black;stroke-width:0.72px;"/>
    </g>
    <g transform="matrix(-1.15437,0.667241,0.667241,1.15437,206.37,-354.953)">
        <path d="M235.941,481.255L239.199,481.255" style="fill:none;fill-rule:nonzero;stroke:black;stroke-width:0.72px;"/>
    </g>
    <g transform="matrix(-1.15638,0.663751,0.663751,1.15638,213.343,-350.282)">
        <path d="M237.609,478.97L240.181,478.97" style="fill:none;fill-rule:nonzero;stroke:black;stroke-width:0.72px;"/>
    </g>
    <g transform="matrix(-1.15196,0.671389,0.671389,1.15196,213.444,-345.198)">
        <path d="M239.272,476.685L241.158,476.685" style="fill:none;fill-rule:nonzero;stroke:black;stroke-width:0.72px;"/>
    </g>
    <g transform="matrix(-1.15491,0.666297,0.666297,1.15491,221.375,-340.573)">
        <path d="M240.93,474.4L242.13,474.4" style="fill:none;fill-rule:nonzero;stroke:black;stroke-width:0.72px;"/>
    </g>
    <g transform="matrix(-1.1479,0.678306,0.678306,1.1479,218.813,-335.36)">
        <path d="M242.594,472.11L243.106,472.11" style="fill:none;fill-rule:nonzero;stroke:black;stroke-width:0.72px;"/>
    </g>
    <g transform="matrix(-0.800611,1.06621,1.06621,0.800611,-46.8193,-244.842)">
        <path d="M232,463.476L245.956,463.476L245.757,465.14L245.552,466.811L232,463.476Z" style="stroke:black;stroke-width:0.24px;"/>
    </g>
    <g transform="matrix(0.562971,1.20865,1.20865,-0.562971,-413.553,319.724)">
        <path d="M258.829,460.017L278.818,460.017L278.682,461.69L278.537,463.369L258.829,460.017Z" style="stroke:black;stroke-width:0.24px;"/>
    </g>
    <g transform="matrix(-0.67087,1.15226,1.15226,0.67087,-37.2775,-199.651)">
        <path d="M258.693,444.505L278.607,444.505" style="fill:none;fill-rule:nonzero;stroke:black;stroke-width:0.72px;"/>
    </g>
    <g transform="matrix(0.662861,1.15689,1.15689,-0.662861,-381.752,403.567)">
        <path d="M260.145,429.87L274.045,429.87" style="fill:none;fill-rule:nonzero;stroke:black;stroke-width:0.72px;"/>
    </g>
    <g transform="matrix(-1.15437,-0.667241,-0.667241,1.15437,929.397,-16.2478)">
        <path d="M268.421,481.255L271.679,481.255" style="fill:none;fill-rule:nonzero;stroke:black;stroke-width:0.72px;"/>
    </g>
    <g transform="matrix(-1.15283,-0.66989,-0.66989,1.15283,925.448,-10.0097)">
        <path d="M267.446,478.975L270.014,478.975" style="fill:none;fill-rule:nonzero;stroke:black;stroke-width:0.72px;"/>
    </g>
    <g transform="matrix(-1.15503,-0.666092,-0.666092,1.15503,919.401,-7.27991)">
        <path d="M266.464,476.69L268.346,476.69" style="fill:none;fill-rule:nonzero;stroke:black;stroke-width:0.72px;"/>
    </g>
    <g transform="matrix(-1.1501,-0.674576,-0.674576,1.1501,917.294,2.1219)">
        <path d="M265.477,474.405L266.683,474.405" style="fill:none;fill-rule:nonzero;stroke:black;stroke-width:0.72px;"/>
    </g>
    <g transform="matrix(-1.15449,-0.667037,-0.667037,1.15449,910.064,2.83433)">
        <path d="M264.495,472.12L265.015,472.12" style="fill:none;fill-rule:nonzero;stroke:black;stroke-width:0.72px;"/>
    </g>
</svg>
