<?xml version="1.0" encoding="UTF-8" standalone="no"?>
<!DOCTYPE svg PUBLIC "-//W3C//DTD SVG 1.1//EN" "http://www.w3.org/Graphics/SVG/1.1/DTD/svg11.dtd">
<svg width="100%" height="100%" viewBox="0 0 315 215" version="1.1" xmlns="http://www.w3.org/2000/svg" xmlns:xlink="http://www.w3.org/1999/xlink" xml:space="preserve" xmlns:serif="http://www.serif.com/" style="fill-rule:evenodd;clip-rule:evenodd;stroke-linecap:round;stroke-linejoin:round;stroke-miterlimit:10;">
    <g transform="matrix(1.33333,0,0,1.33333,-79.9174,-96.32)">
        <text x="176.64px" y="94.56px" style="font-family:'ArialMT', 'Arial', sans-serif;font-size:7px;">1</text>
    </g>
    <g transform="matrix(1.33333,0,0,1.33333,-79.9174,-96.32)">
        <text x="176.4px" y="122.88px" style="font-family:'ArialMT', 'Arial', sans-serif;font-size:7px;">2</text>
    </g>
    <g transform="matrix(1.33333,0,0,1.33333,-79.9174,-96.32)">
        <text x="201.12px" y="140.4px" style="font-family:'ArialMT', 'Arial', sans-serif;font-size:7px;">3</text>
    </g>
    <g transform="matrix(1.33333,0,0,1.33333,-79.9174,-96.32)">
        <text x="223.2px" y="123.6px" style="font-family:'ArialMT', 'Arial', sans-serif;font-size:7px;">4</text>
    </g>
    <g transform="matrix(1.33333,0,0,1.33333,-79.9174,-96.32)">
        <text x="223.2px" y="96px" style="font-family:'ArialMT', 'Arial', sans-serif;font-size:7px;">5</text>
    </g>
    <g transform="matrix(1.33333,0,0,1.33333,-79.9174,-96.32)">
        <text x="208.8px" y="80.16px" style="font-family:'ArialMT', 'Arial', sans-serif;font-size:7px;">6</text>
    </g>
    <g transform="matrix(1.33333,0,0,1.33333,-66.9174,-96.32)">
        <text x="63.12px" y="187.2px" style="font-family:'ArialMT', 'Arial', sans-serif;font-size:7px;">1</text>
    </g>
    <g transform="matrix(1.33333,0,0,1.33333,-66.9174,-96.32)">
        <text x="80.4px" y="180.24px" style="font-family:'ArialMT', 'Arial', sans-serif;font-size:7px;">2</text>
    </g>
    <g transform="matrix(1.33333,0,0,1.33333,-66.9174,-96.32)">
        <text x="97.68px" y="190.56px" style="font-family:'ArialMT', 'Arial', sans-serif;font-size:7px;">3</text>
    </g>
    <g transform="matrix(1.33333,0,0,1.33333,-66.9174,-96.32)">
        <text x="116.4px" y="180.48px" style="font-family:'ArialMT', 'Arial', sans-serif;font-size:7px;">4</text>
    </g>
    <g transform="matrix(1.33333,0,0,1.33333,-66.9174,-96.32)">
        <text x="138.24px" y="193.92px" style="font-family:'ArialMT', 'Arial', sans-serif;font-size:7px;">5</text>
    </g>
    <g transform="matrix(1.33333,0,0,1.33333,-66.9174,-96.32)">
        <text x="198.48px" y="210.96px" style="font-family:'ArialMT', 'Arial', sans-serif;font-size:7px;">1</text>
    </g>
    <g transform="matrix(1.33333,0,0,1.33333,-66.9174,-96.32)">
        <text x="198.24px" y="184.8px" style="font-family:'ArialMT', 'Arial', sans-serif;font-size:7px;">2</text>
    </g>
    <g transform="matrix(1.33333,0,0,1.33333,-66.9174,-96.32)">
        <text x="217.44px" y="166.8px" style="font-family:'ArialMT', 'Arial', sans-serif;font-size:7px;">3</text>
    </g>
    <g transform="matrix(1.33333,0,0,1.33333,-66.9174,-96.32)">
        <text x="259.2px" y="179.76px" style="font-family:'ArialMT', 'Arial', sans-serif;font-size:7px;">4</text>
    </g>
    <g transform="matrix(1.33333,0,0,1.33333,-66.9174,-96.32)">
        <text x="258px" y="203.28px" style="font-family:'ArialMT', 'Arial', sans-serif;font-size:7px;">5</text>
    </g>
    <g transform="matrix(1.33333,0,0,1.33333,-66.9174,-96.32)">
        <text x="134.16px" y="229.44px" style="font-family:'ArialMT', 'Arial', sans-serif;font-size:7px;">6</text>
    </g>
    <g transform="matrix(1.33333,0,0,1.33333,-79.9174,-96.32)">
        <text x="76.08px" y="91.68px" style="font-family:'ArialMT', 'Arial', sans-serif;font-size:10px;">H</text>
    </g>
    <g transform="matrix(1.33333,0,0,1.33333,-79.9174,-96.32)">
        <text x="76.08px" y="131.52px" style="font-family:'ArialMT', 'Arial', sans-serif;font-size:10px;">CH</text>
        <text x="90.48px" y="134.16px" style="font-family:'ArialMT', 'Arial', sans-serif;font-size:8px;">2</text>
    </g>
    <g transform="matrix(1.33333,0,0,1.33333,-79.9174,-96.32)">
        <text x="79.2px" y="114.24px" style="font-family:'ArialMT', 'Arial', sans-serif;font-size:18px;">+</text>
        <text x="112.56px" y="121.44px" style="font-family:'ArialMT', 'Arial', sans-serif;font-size:10px;">CH</text>
    </g>
    <g transform="matrix(1.33333,0,0,1.33333,-79.9174,-96.32)">
        <text x="126.96px" y="124.08px" style="font-family:'ArialMT', 'Arial', sans-serif;font-size:8px;">2</text>
    </g>
    <g transform="matrix(1.33333,0,0,1.33333,-79.9174,-96.32)">
        <text x="112.56px" y="101.52px" style="font-family:'ArialMT', 'Arial', sans-serif;font-size:10px;">CH</text>
        <text x="126.96px" y="104.16px" style="font-family:'ArialMT', 'Arial', sans-serif;font-size:8px;">2</text>
    </g>
    <g transform="matrix(1.33333,0,0,1.33333,-79.9174,-96.32)">
        <text x="182.4px" y="102.24px" style="font-family:'ArialMT', 'Arial', sans-serif;font-size:10px;">CH</text>
        <text x="196.8px" y="104.88px" style="font-family:'ArialMT', 'Arial', sans-serif;font-size:8px;">2</text>
    </g>
    <g transform="matrix(1.33333,0,0,1.33333,-79.9174,-96.32)">
        <text x="199.44px" y="84.96px" style="font-family:'ArialMT', 'Arial', sans-serif;font-size:10px;">H</text>
    </g>
    <g transform="matrix(1.33333,0,0,1.33333,-66.9174,-96.32)">
        <text x="62.88px" y="200.88px" style="font-family:'ArialMT', 'Arial', sans-serif;font-size:10px;">C</text>
    </g>
    <g transform="matrix(1.33333,0,0,1.33333,-66.9174,-96.32)">
        <text x="51.36px" y="200.88px" style="font-family:'ArialMT', 'Arial', sans-serif;font-size:10px;">H</text>
        <text x="58.56px" y="203.52px" style="font-family:'ArialMT', 'Arial', sans-serif;font-size:8px;">2</text>
    </g>
    <g transform="matrix(1.33333,0,0,1.33333,-66.9174,-96.32)">
        <text x="132px" y="219.6px" style="font-family:'ArialMT', 'Arial', sans-serif;font-size:10px;">H</text>
    </g>
    <g transform="matrix(1.33333,0,0,1.33333,-66.9174,-96.32)">
        <text x="219.36px" y="178.32px" style="font-family:'ArialMT', 'Arial', sans-serif;font-size:10px;">CH</text>
        <text x="233.76px" y="180.96px" style="font-family:'ArialMT', 'Arial', sans-serif;font-size:8px;">2</text>
    </g>
    <g transform="matrix(1.33333,0,0,1.33333,-66.9174,-96.32)">
        <text x="219.36px" y="218.16px" style="font-family:'ArialMT', 'Arial', sans-serif;font-size:10px;">H</text>
    </g>
    <g transform="matrix(1.33333,0,0,1.33333,-66.9174,-96.32)">
        <text x="237.12px" y="202.08px" style="font-family:'ArialMT', 'Arial', sans-serif;font-size:18px;">+</text>
        <text x="264.24px" y="207.84px" style="font-family:'ArialMT', 'Arial', sans-serif;font-size:10px;">CH</text>
        <text x="278.661px" y="210.48px" style="font-family:'ArialMT', 'Arial', sans-serif;font-size:8px;">2</text>
    </g>
    <g transform="matrix(1.33333,0,0,1.33333,-66.9174,-96.32)">
        <text x="264.24px" y="187.92px" style="font-family:'ArialMT', 'Arial', sans-serif;font-size:10px;">CH</text>
        <text x="278.64px" y="190.56px" style="font-family:'ArialMT', 'Arial', sans-serif;font-size:8px;">2</text>
    </g>
    <g transform="matrix(-1.15462,0.666805,0.666805,1.15462,-407.25,-880.577)">
        <path d="M61.706,747.955L76.084,747.955" style="fill:none;fill-rule:nonzero;stroke:black;stroke-width:0.72px;"/>
    </g>
    <g transform="matrix(-1.15462,-0.666805,-0.666805,1.15462,572.153,-721.25)">
        <path d="M61.706,720.845L76.084,720.845" style="fill:none;fill-rule:nonzero;stroke:black;stroke-width:0.72px;"/>
    </g>
    <g transform="matrix(-1.1546,-0.666846,-0.666846,1.1546,580.984,-724.67)">
        <path d="M64.852,723.02L78.848,723.02" style="fill:none;fill-rule:nonzero;stroke:black;stroke-width:0.72px;"/>
    </g>
    <g transform="matrix(0,1.33333,1.33333,0,-975.557,-36.52)">
        <path d="M52.71,734.4L72.63,734.4" style="fill:none;fill-rule:nonzero;stroke:black;stroke-width:0.72px;"/>
    </g>
    <g transform="matrix(0,-1.33333,-1.33333,0,1056.72,204.48)">
        <path d="M113.28,734.4L122.88,734.4" style="fill:none;fill-rule:nonzero;stroke:black;stroke-width:0.72px;"/>
    </g>
    <g transform="matrix(0,-1.33333,-1.33333,0,1052.24,200)">
        <path d="M109.92,734.4L119.52,734.4" style="fill:none;fill-rule:nonzero;stroke:black;stroke-width:0.72px;"/>
    </g>
    <g transform="matrix(1.33333,0,0,1.33333,-79.9174,-927.04)">
        <path d="M138,732.48L172.08,732.48" style="fill:none;fill-rule:nonzero;stroke:black;stroke-width:0.72px;"/>
    </g>
    <g transform="matrix(1.2958,0.314133,0.314133,-1.2958,-303.704,945.936)">
        <path d="M163.819,733.413L171.969,733.413L164.724,729.681L165.671,731.886L163.819,733.413Z" style="stroke:black;stroke-width:0.72px;"/>
    </g>
    <g transform="matrix(0,1.33333,1.33333,0,-764.117,-246.04)">
        <path d="M210.57,733.68L230.49,733.68" style="fill:none;fill-rule:nonzero;stroke:black;stroke-width:0.72px;"/>
    </g>
    <g transform="matrix(-1.15468,0.666702,0.666702,1.15468,-31.8804,-903.272)">
        <path d="M201.946,718.74L221.864,718.74" style="fill:none;fill-rule:nonzero;stroke:black;stroke-width:0.72px;"/>
    </g>
    <g transform="matrix(-1.15468,-0.666702,-0.666702,1.15468,883.572,-632.218)">
        <path d="M184.696,718.74L204.614,718.74" style="fill:none;fill-rule:nonzero;stroke:black;stroke-width:0.72px;"/>
    </g>
    <g transform="matrix(0,-1.33333,-1.33333,0,1142.92,299.48)">
        <path d="M178.65,731.1L193.41,731.1" style="fill:none;fill-rule:nonzero;stroke:black;stroke-width:0.72px;"/>
    </g>
    <g transform="matrix(0,-1.33333,-1.33333,0,1148.51,302.853)">
        <path d="M182.84,731.93L195.94,731.93" style="fill:none;fill-rule:nonzero;stroke:black;stroke-width:0.72px;"/>
    </g>
    <g transform="matrix(-0.945365,-0.940247,-0.940247,0.945365,1113.12,-481.669)">
        <path d="M204.947,750.07L223.183,750.07" style="fill:none;fill-rule:nonzero;stroke:black;stroke-width:0.72px;"/>
    </g>
    <g transform="matrix(1.33333,0,0,1.33333,-79.9174,-859.52)">
        <path d="M115.2,699.6L114.24,702.48L113.76,703.68L113.04,705.12L112.08,706.32L110.88,708L107.52,710.88L105.84,712.08L104.4,712.8L103.2,713.52L101.76,714L98.88,714.48L97.2,714.72L93.36,714.72L90.96,714.24L88.56,713.52L86.64,712.56L84.48,711.36L82.8,709.92L81.84,709.2" style="fill:none;fill-rule:nonzero;stroke:black;stroke-width:0.48px;"/>
    </g>
    <g transform="matrix(0.117192,-1.32817,-1.32817,-0.117192,1001.26,311.978)">
        <path d="M108.993,708.727L117.185,708.727L109.851,712.658L111.018,710.352L108.993,708.727Z" style="stroke:black;stroke-width:0.48px;"/>
    </g>
    <g transform="matrix(1.33333,0,0,1.33333,-79.9174,-944.96)">
        <path d="M71.52,733.2L72.48,735.12L72.72,737.52L72.72,738.72L72.48,739.92L71.52,741.84L70.8,742.8L68.88,744.24L67.92,744.72L66.72,744.96L66.24,745.2L65.52,745.2" style="fill:none;fill-rule:nonzero;stroke:black;stroke-width:0.48px;"/>
    </g>
    <g transform="matrix(-1.3242,0.155788,0.155788,1.3242,-9.55089,-939.485)">
        <path d="M65.716,737.507L73.932,737.507L66.698,733.525L67.693,735.824L65.716,737.507Z" style="stroke:black;stroke-width:0.48px;"/>
    </g>
    <g transform="matrix(1.33333,0,0,1.33333,-79.9174,-953.92)">
        <path d="M109.2,748.56L105.36,749.28L104.16,749.28L102.96,749.04L102,748.8L100.8,748.32L98.88,747.36L98.16,746.64L97.2,745.92L96.48,745.2L95.76,744.24L94.8,742.32L94.32,741.12L94.08,740.16L94.08,738.96L93.84,738.48L93.84,737.76L94.08,735.84" style="fill:none;fill-rule:nonzero;stroke:black;stroke-width:0.48px;"/>
    </g>
    <g transform="matrix(0.314133,-1.2958,-1.2958,-0.314133,981.755,388.519)">
        <path d="M89.779,746.253L97.929,746.253L90.684,742.521L91.631,744.726L89.779,746.253Z" style="stroke:black;stroke-width:0.48px;"/>
    </g>
    <g transform="matrix(-1.14469,0.683711,0.683711,1.14469,-320.837,-641.261)">
        <path d="M70.007,651.585L84.613,651.585" style="fill:none;fill-rule:nonzero;stroke:black;stroke-width:0.72px;"/>
    </g>
    <g transform="matrix(-1.14469,0.68372,0.68372,1.14469,-317.601,-632.166)">
        <path d="M70.253,647.84L84.917,647.84" style="fill:none;fill-rule:nonzero;stroke:black;stroke-width:0.72px;"/>
    </g>
    <g transform="matrix(-1.16459,-0.649228,-0.649228,1.16459,585.901,-538.701)">
        <path d="M82.319,650.48L102.241,650.48" style="fill:none;fill-rule:nonzero;stroke:black;stroke-width:0.72px;"/>
    </g>
    <g transform="matrix(-1.1448,0.683531,0.683531,1.1448,-240.285,-661.234)">
        <path d="M99.572,650.735L119.488,650.735" style="fill:none;fill-rule:nonzero;stroke:black;stroke-width:0.72px;"/>
    </g>
    <g transform="matrix(-1.16431,-0.649738,-0.649738,1.16431,672.704,-517.314)">
        <path d="M116.817,650.985L136.743,650.985" style="fill:none;fill-rule:nonzero;stroke:black;stroke-width:0.72px;"/>
    </g>
    <g transform="matrix(0.0190586,1.3332,1.3332,-0.0190586,-740.348,5.93951)">
        <path d="M128.239,638.785L142.931,638.785" style="fill:none;fill-rule:nonzero;stroke:black;stroke-width:0.72px;"/>
    </g>
    <g transform="matrix(1.33333,0,0,1.33333,-60.9174,-701.12)">
        <path d="M145.44,647.76L179.52,647.76" style="fill:none;fill-rule:nonzero;stroke:black;stroke-width:0.72px;"/>
    </g>
    <g transform="matrix(1.33333,0,0,1.33333,-60.9174,-708.8)">
        <path d="M145.44,650.64L179.52,650.64" style="fill:none;fill-rule:nonzero;stroke:black;stroke-width:0.72px;"/>
    </g>
    <g transform="matrix(1.33333,0,0,1.33333,-60.9174,-704.96)">
        <path d="M174.96,645.6L182.88,649.2L174.96,652.8" style="fill:none;fill-rule:nonzero;stroke:black;stroke-width:0.72px;"/>
    </g>
    <g transform="matrix(-1.15462,0.666805,0.666805,1.15462,19.9961,-760.561)">
        <path d="M204.986,661.315L219.364,661.315" style="fill:none;fill-rule:nonzero;stroke:black;stroke-width:0.72px;"/>
    </g>
    <g transform="matrix(-1.15449,0.667037,0.667037,1.15449,28.1743,-756.643)">
        <path d="M208.164,659.02L221.676,659.02" style="fill:none;fill-rule:nonzero;stroke:black;stroke-width:0.72px;"/>
    </g>
    <g transform="matrix(-1.15462,-0.666805,-0.666805,1.15462,883.855,-410.154)">
        <path d="M204.986,634.205L219.364,634.205" style="fill:none;fill-rule:nonzero;stroke:black;stroke-width:0.72px;"/>
    </g>
    <g transform="matrix(0,1.33333,1.33333,0,-655.997,-112.04)">
        <path d="M195.99,647.76L215.91,647.76" style="fill:none;fill-rule:nonzero;stroke:black;stroke-width:0.72px;"/>
    </g>
    <g transform="matrix(0,-1.33333,-1.33333,0,1156.76,521.92)">
        <path d="M264.96,648L274.56,648" style="fill:none;fill-rule:nonzero;stroke:black;stroke-width:0.72px;"/>
    </g>
    <g transform="matrix(0,-1.33333,-1.33333,0,1152.28,517.44)">
        <path d="M261.6,648L271.2,648" style="fill:none;fill-rule:nonzero;stroke:black;stroke-width:0.72px;"/>
    </g>
</svg>
