<?xml version="1.0" encoding="UTF-8" standalone="no"?>
<!DOCTYPE svg PUBLIC "-//W3C//DTD SVG 1.1//EN" "http://www.w3.org/Graphics/SVG/1.1/DTD/svg11.dtd">
<svg width="100%" height="100%" viewBox="0 0 600 265" version="1.1" xmlns="http://www.w3.org/2000/svg" xmlns:xlink="http://www.w3.org/1999/xlink" xml:space="preserve" xmlns:serif="http://www.serif.com/" style="fill-rule:evenodd;clip-rule:evenodd;stroke-linecap:round;stroke-linejoin:round;stroke-miterlimit:10;">
    <g transform="matrix(-1.10968,-0.739183,-0.739183,1.10968,420.049,-412.094)">
        <path d="M58.482,448.05L73.238,448.05" style="fill:none;fill-rule:nonzero;stroke:black;stroke-width:0.72px;"/>
    </g>
    <g transform="matrix(-0.443508,1.25741,1.25741,0.443508,-540.2,-264.897)">
        <path d="M53.27,461.255L72.6,461.255" style="fill:none;fill-rule:nonzero;stroke:black;stroke-width:0.72px;"/>
    </g>
    <g transform="matrix(-1.10843,0.741047,0.741047,1.10843,-190.875,-524.88)">
        <path d="M79.865,448.035L94.745,448.035" style="fill:none;fill-rule:nonzero;stroke:black;stroke-width:0.72px;"/>
    </g>
    <g transform="matrix(-1.33333,0.00127775,0.00127775,1.33333,131.587,-620.63)">
        <path d="M66.15,470.38L87.02,470.38" style="fill:none;fill-rule:nonzero;stroke:black;stroke-width:0.72px;"/>
    </g>
    <g transform="matrix(0.446176,1.25647,1.25647,-0.446176,-571.551,111.184)">
        <path d="M80.588,461.28L99.922,461.28" style="fill:none;fill-rule:nonzero;stroke:black;stroke-width:0.72px;"/>
    </g>
    <g transform="matrix(0.0109542,1.33329,1.33329,-0.0109542,-540.314,-33.5678)">
        <path d="M68.21,427.32L85.25,427.32" style="fill:none;fill-rule:nonzero;stroke:black;stroke-width:0.72px;"/>
    </g>
    <g transform="matrix(1.33333,0,0,1.33333,-72.0389,-488.746)">
        <text x="72.96px" y="404.88px" style="font-family:'ArialMT', 'Arial', sans-serif;font-size:10px;">N</text>
    </g>
    <g transform="matrix(1.33333,0,0,1.33333,-72.0389,-488.746)">
        <text x="119.52px" y="438.96px" style="font-family:'ArialMT', 'Arial', sans-serif;font-size:10px;">O</text>
    </g>
    <g transform="matrix(1.33333,0,0,1.33333,-72.0389,-488.746)">
        <text x="75.84px" y="455.76px" style="font-family:'ArialMT', 'Arial', sans-serif;font-size:10px;">O</text>
    </g>
    <g transform="matrix(1.33333,0,0,1.33333,-72.0389,-488.746)">
        <text x="68.64px" y="455.76px" style="font-family:'ArialMT', 'Arial', sans-serif;font-size:10px;">H</text>
    </g>
    <g transform="matrix(1.33333,0,0,1.33333,-72.0389,-488.746)">
        <text x="105.12px" y="417.12px" style="font-family:'ArialMT', 'Arial', sans-serif;font-size:10px;">CH</text>
        <text x="119.52px" y="419.76px" style="font-family:'ArialMT', 'Arial', sans-serif;font-size:8px;">2</text>
        <text x="95.04px" y="427.2px" style="font-family:'ArialMT', 'Arial', sans-serif;font-size:10px;">H</text>
    </g>
    <g transform="matrix(1.33333,0,0,1.33333,-72.0389,-488.746)">
        <text x="261.36px" y="438.48px" style="font-family:'ArialMT', 'Arial', sans-serif;font-size:10px;">H</text>
    </g>
    <g transform="matrix(1.33333,0,0,1.33333,-72.0389,-488.746)">
        <text x="218.88px" y="409.92px" style="font-family:'ArialMT', 'Arial', sans-serif;font-size:10px;">N</text>
    </g>
    <g transform="matrix(1.33333,0,0,1.33333,-72.0389,-488.746)">
        <text x="181.92px" y="440.16px" style="font-family:'ArialMT', 'Arial', sans-serif;font-size:10px;">O</text>
    </g>
    <g transform="matrix(1.33333,0,0,1.33333,-72.0389,-488.746)">
        <text x="216.96px" y="453.6px" style="font-family:'ArialMT', 'Arial', sans-serif;font-size:10px;">O<tspan x="224.88px " y="453.6px ">H</tspan></text>
    </g>
    <g transform="matrix(1.33333,0,0,1.33333,-72.0389,-488.746)">
        <text x="351.6px" y="412.08px" style="font-family:'ArialMT', 'Arial', sans-serif;font-size:10px;">NH</text>
        <text x="366px" y="414.72px" style="font-family:'ArialMT', 'Arial', sans-serif;font-size:8px;">2</text>
    </g>
    <g transform="matrix(1.33333,0,0,1.33333,-72.0389,-488.746)">
        <text x="398.88px" y="424.56px" style="font-family:'ArialMT', 'Arial', sans-serif;font-size:10px;">CH</text>
        <text x="413.28px" y="427.2px" style="font-family:'ArialMT', 'Arial', sans-serif;font-size:8px;">3</text>
    </g>
    <g transform="matrix(1.33333,0,0,1.33333,-72.0389,-488.746)">
        <text x="415.44px" y="400.56px" style="font-family:'ArialMT', 'Arial', sans-serif;font-size:18px;">+</text>
    </g>
    <g transform="matrix(1.33333,0,0,1.33333,-72.0389,-488.746)">
        <text x="455.76px" y="385.44px" style="font-family:'ArialMT', 'Arial', sans-serif;font-size:10px;">O</text>
    </g>
    <g transform="matrix(1.33333,0,0,1.33333,-72.0389,-488.746)">
        <text x="484.56px" y="385.44px" style="font-family:'ArialMT', 'Arial', sans-serif;font-size:10px;">O</text>
    </g>
    <g transform="matrix(1.33333,0,0,1.33333,-72.0389,-488.746)">
        <text x="455.76px" y="410.16px" style="font-family:'ArialMT', 'Arial', sans-serif;font-size:10px;">O</text>
    </g>
    <g transform="matrix(1.33333,0,0,1.33333,-72.0389,-488.746)">
        <text x="484.8px" y="410.16px" style="font-family:'ArialMT', 'Arial', sans-serif;font-size:10px;">H</text>
    </g>
    <g transform="matrix(1.33333,0,0,1.33333,-72.0389,-488.746)">
        <text x="441.6px" y="410.16px" style="font-family:'ArialMT', 'Arial', sans-serif;font-size:10px;">H</text>
        <text x="100.32px" y="415.92px" style="font-family:'ArialMT', 'Arial', sans-serif;font-size:7px;">1</text>
    </g>
    <g transform="matrix(1.33333,0,0,1.33333,-72.0389,-488.746)">
        <text x="110.4px" y="397.44px" style="font-family:'ArialMT', 'Arial', sans-serif;font-size:7px;">2</text>
    </g>
    <g transform="matrix(1.14455,0.683941,0.683941,-1.14455,-338.096,496.607)">
        <path d="M75.177,412.92L98.103,412.92" style="fill:none;fill-rule:nonzero;stroke:black;stroke-width:0.72px;"/>
    </g>
    <g transform="matrix(1.33333,0,0,1.33333,-72.0389,-447.146)">
        <path d="M96.48,405.36L118.56,405.36" style="fill:none;fill-rule:nonzero;stroke:black;stroke-width:0.72px;"/>
    </g>
    <g transform="matrix(1.33333,0,0,1.33333,-72.0389,-456.106)">
        <path d="M96.48,408.72L118.56,408.72" style="fill:none;fill-rule:nonzero;stroke:black;stroke-width:0.72px;"/>
    </g>
    <g transform="matrix(-0.942809,0.942809,0.942809,0.942809,-244.038,-364.701)">
        <path d="M82.284,401.16L98.916,401.16" style="fill:none;fill-rule:nonzero;stroke:black;stroke-width:0.72px;"/>
    </g>
    <g transform="matrix(1.19788,0.585541,0.585541,-1.19788,-321.03,513.995)">
        <path d="M92.656,448.565L109.074,448.565" style="fill:none;fill-rule:nonzero;stroke:black;stroke-width:0.72px;"/>
    </g>
    <g transform="matrix(0.0398373,1.33274,1.33274,-0.0398373,-517.476,-79.0749)">
        <path d="M102.883,439.44L113.927,439.44" style="fill:none;fill-rule:nonzero;stroke:black;stroke-width:0.72px;"/>
    </g>
    <g transform="matrix(0.0394997,1.33275,1.33275,-0.0394997,-520.466,-73.5377)">
        <path d="M100.518,438.475L109.632,438.475" style="fill:none;fill-rule:nonzero;stroke:black;stroke-width:0.72px;"/>
    </g>
    <g transform="matrix(1.33333,0,0,1.33333,-72.0389,-482.986)">
        <path d="M76.8,418.8L94.08,418.8" style="fill:none;fill-rule:nonzero;stroke:black;stroke-width:0.72px;"/>
    </g>
    <g transform="matrix(1.33333,0,0,1.33333,-72.0389,-554.026)">
        <path d="M140.88,445.44L174.96,445.44" style="fill:none;fill-rule:nonzero;stroke:black;stroke-width:0.72px;"/>
    </g>
    <g transform="matrix(1.33333,0,0,1.33333,-72.0389,-561.706)">
        <path d="M140.88,448.32L174.96,448.32" style="fill:none;fill-rule:nonzero;stroke:black;stroke-width:0.72px;"/>
    </g>
    <g transform="matrix(1.33333,0,0,1.33333,-72.0389,-557.866)">
        <path d="M170.4,443.28L178.32,446.88L170.4,450.48" style="fill:none;fill-rule:nonzero;stroke:black;stroke-width:0.72px;"/>
    </g>
    <g transform="matrix(1.33333,0,0,1.33333,-72.0389,-621.226)">
        <path d="M207.36,470.64L238.08,470.64" style="fill:none;fill-rule:nonzero;stroke:black;stroke-width:0.72px;"/>
    </g>
    <g transform="matrix(0,1.33333,1.33333,0,-409.959,-257.066)">
        <path d="M197.52,460.8L217.2,460.8" style="fill:none;fill-rule:nonzero;stroke:black;stroke-width:0.72px;"/>
    </g>
    <g transform="matrix(0,1.33333,1.33333,0,-370.439,-299.466)">
        <path d="M229.32,461.88L246.84,461.88" style="fill:none;fill-rule:nonzero;stroke:black;stroke-width:0.72px;"/>
    </g>
    <g transform="matrix(0.942809,0.942809,0.942809,-0.942809,-398.428,229.149)">
        <path d="M235.644,447.24L252.276,447.24" style="fill:none;fill-rule:nonzero;stroke:black;stroke-width:0.72px;"/>
    </g>
    <g transform="matrix(0.942809,0.942809,0.942809,-0.942809,-397.227,232.369)">
        <path d="M233.3,444.945L249.69,444.945" style="fill:none;fill-rule:nonzero;stroke:black;stroke-width:0.72px;"/>
    </g>
    <g transform="matrix(0,1.33333,1.33333,0,-314.919,-275.306)">
        <path d="M240.48,432L259.2,432" style="fill:none;fill-rule:nonzero;stroke:black;stroke-width:0.72px;"/>
    </g>
    <g transform="matrix(0.942809,0.942809,0.942809,-0.942809,-365.899,230.296)">
        <path d="M247.653,417.36L262.587,417.36" style="fill:none;fill-rule:nonzero;stroke:black;stroke-width:0.72px;"/>
    </g>
    <g transform="matrix(0.950428,0.935128,0.935128,-0.950428,-407.465,264.283)">
        <path d="M205.233,445.765L220.047,445.765" style="fill:none;fill-rule:nonzero;stroke:black;stroke-width:0.72px;"/>
    </g>
    <g transform="matrix(0,1.33333,1.33333,0,-343.239,-230.666)">
        <path d="M217.56,425.88L227.4,425.88" style="fill:none;fill-rule:nonzero;stroke:black;stroke-width:0.72px;"/>
    </g>
    <g transform="matrix(0,1.33333,1.33333,0,-347.879,-226.346)">
        <path d="M214.32,426L223.92,426" style="fill:none;fill-rule:nonzero;stroke:black;stroke-width:0.72px;"/>
    </g>
    <g transform="matrix(-0.942809,0.942809,0.942809,0.942809,27.3924,-509.771)">
        <path d="M204.229,413.4L225.611,413.4" style="fill:none;fill-rule:nonzero;stroke:black;stroke-width:0.72px;"/>
    </g>
    <g transform="matrix(-1.33333,0,0,1.33333,458.841,-452.906)">
        <path d="M190.8,407.52L207.36,407.52" style="fill:none;fill-rule:nonzero;stroke:black;stroke-width:0.72px;"/>
    </g>
    <g transform="matrix(-1.33333,0,0,1.33333,458.841,-443.946)">
        <path d="M190.8,404.16L207.36,404.16" style="fill:none;fill-rule:nonzero;stroke:black;stroke-width:0.72px;"/>
    </g>
    <g transform="matrix(0.942809,0.942809,0.942809,-0.942809,-367.929,277.437)">
        <path d="M205.571,401.52L217.789,401.52" style="fill:none;fill-rule:nonzero;stroke:black;stroke-width:0.72px;"/>
    </g>
    <g transform="matrix(1.33333,0,0,1.33333,-72.0389,-561.066)">
        <path d="M280.56,448.08L314.64,448.08" style="fill:none;fill-rule:nonzero;stroke:black;stroke-width:0.72px;"/>
    </g>
    <g transform="matrix(1.33333,0,0,1.33333,-72.0389,-568.746)">
        <path d="M280.56,450.96L314.64,450.96" style="fill:none;fill-rule:nonzero;stroke:black;stroke-width:0.72px;"/>
    </g>
    <g transform="matrix(1.33333,0,0,1.33333,-72.0389,-564.906)">
        <path d="M310.08,445.92L318,449.52L310.08,453.12" style="fill:none;fill-rule:nonzero;stroke:black;stroke-width:0.72px;"/>
    </g>
    <g transform="matrix(1.33333,0,0,1.33333,-72.0389,-622.506)">
        <path d="M338.88,471.12L367.44,471.12" style="fill:none;fill-rule:nonzero;stroke:black;stroke-width:0.72px;"/>
    </g>
    <g transform="matrix(0,1.33333,1.33333,0,-234.599,-432.426)">
        <path d="M328.56,460.8L349.2,460.8" style="fill:none;fill-rule:nonzero;stroke:black;stroke-width:0.72px;"/>
    </g>
    <g transform="matrix(0.936019,0.94955,0.94955,-0.936019,-357.15,129.836)">
        <path d="M336.384,444.515L353.136,444.515" style="fill:none;fill-rule:nonzero;stroke:black;stroke-width:0.72px;"/>
    </g>
    <g transform="matrix(0.942809,0.942809,0.942809,-0.942809,-361.521,98.7657)">
        <path d="M363.961,462.72L387.719,462.72" style="fill:none;fill-rule:nonzero;stroke:black;stroke-width:0.72px;"/>
    </g>
    <g transform="matrix(0,1.33333,1.33333,0,-155.559,-474.346)">
        <path d="M376.8,446.88L391.68,446.88" style="fill:none;fill-rule:nonzero;stroke:black;stroke-width:0.72px;"/>
    </g>
    <g transform="matrix(0,1.33333,1.33333,0,-151.266,-479.012)">
        <path d="M380.3,447.02L394.9,447.02" style="fill:none;fill-rule:nonzero;stroke:black;stroke-width:0.72px;"/>
    </g>
    <g transform="matrix(0.949032,0.936545,0.936545,-0.949032,-326.98,101.267)">
        <path d="M381.47,432.69L400.69,432.69" style="fill:none;fill-rule:nonzero;stroke:black;stroke-width:0.72px;"/>
    </g>
    <g transform="matrix(1.33333,0,0,1.33333,-72.0389,-561.066)">
        <path d="M466.8,448.08L481.2,448.08" style="fill:none;fill-rule:nonzero;stroke:black;stroke-width:0.72px;"/>
    </g>
    <g transform="matrix(-0.666401,-1.15485,-1.15485,0.666401,1382.78,268.375)">
        <path d="M462.744,452.1L470.086,452.1" style="fill:none;fill-rule:nonzero;stroke:black;stroke-width:0.72px;"/>
    </g>
    <g transform="matrix(-0.667539,-1.1542,-1.1542,0.667539,1375.26,265.323)">
        <path d="M458.381,451.26L467.669,451.26" style="fill:none;fill-rule:nonzero;stroke:black;stroke-width:0.72px;"/>
    </g>
    <g transform="matrix(0.667539,-1.1542,-1.1542,-0.667539,771.697,893.125)">
        <path d="M480.331,451.26L489.619,451.26" style="fill:none;fill-rule:nonzero;stroke:black;stroke-width:0.72px;"/>
    </g>
    <g transform="matrix(0.665798,-1.1552,-1.1552,-0.665798,771.948,888.347)">
        <path d="M477.82,452.26L485.53,452.26" style="fill:none;fill-rule:nonzero;stroke:black;stroke-width:0.72px;"/>
    </g>
    <g transform="matrix(-0.667037,1.15449,1.15449,0.667037,344.427,-791.823)">
        <path d="M460.562,444.48L468.878,444.48" style="fill:none;fill-rule:nonzero;stroke:black;stroke-width:0.72px;"/>
    </g>
    <g transform="matrix(0.667037,1.15449,1.15449,-0.667037,-263.177,-220.281)">
        <path d="M479.122,444.48L487.438,444.48" style="fill:none;fill-rule:nonzero;stroke:black;stroke-width:0.72px;"/>
    </g>
    <g transform="matrix(-1.33333,0,0,1.33333,1134.04,-527.812)">
        <path d="M449.76,435.61L454.8,435.61" style="fill:none;fill-rule:nonzero;stroke:black;stroke-width:0.72px;"/>
    </g>
    <g transform="matrix(1.33333,0,0,1.33333,-72.0389,-504.106)">
        <path d="M112.32,414L114.24,413.76L115.2,414L116.4,414L117.6,414.24L118.56,414.72L119.52,414.96L120.48,415.68L121.44,416.16L122.16,416.88L123.12,417.6L123.84,418.32L124.32,419.28L125.04,420.24L126,422.16L126.24,423.36L126.48,424.32L126.72,425.52L126.72,427.92L126.24,430.32L126,431.28L125.52,432.48L124.8,433.44L124.32,434.4L123.6,435.36L122.88,436.08L121.92,436.8L121.2,437.52L120.24,438L119.28,438.72L118.08,438.96L117.12,439.44L115.92,439.44L114.72,439.68L114.24,439.68L110.4,439.2L108.72,438.48L107.04,437.52L105.6,436.32L104.88,435.6L104.4,434.88" style="fill:none;fill-rule:nonzero;stroke:black;stroke-width:0.48px;"/>
    </g>
    <g transform="matrix(-0.774984,-1.08498,-1.08498,0.774984,606.395,-124.251)">
        <path d="M104.758,416.274L113.016,416.274L105.762,412.312L106.906,414.74L104.758,416.274Z" style="stroke:black;stroke-width:0.48px;"/>
    </g>
    <g transform="matrix(1.33333,0,0,1.33333,-72.0389,-476.906)">
        <path d="M88.8,421.44L88.08,422.88L87.12,424.32L86.16,425.52L84.96,426.72L82.08,428.64L80.64,429.12L78.96,429.84L77.28,430.08L74.16,430.08L71.76,429.6L70.08,429.12L68.4,428.4L66.96,427.68L65.52,426.48L64.32,425.28L63.36,424.08L62.64,423.12L62.16,421.92L61.68,420.96L61.44,420L60.96,417.6L60.96,415.2L61.44,412.8L61.92,411.6L62.4,410.64L62.88,409.44L63.6,408.48L64.32,407.76L65.04,406.8L67.92,404.64L69.12,404.16L70.08,403.68L71.28,403.2L72.48,402.96L73.2,402.96" style="fill:none;fill-rule:nonzero;stroke:black;stroke-width:0.48px;"/>
    </g>
    <g transform="matrix(1.33276,-0.0391987,-0.0391987,-1.33276,-55.2204,636.277)">
        <path d="M65.095,429.959L73.258,429.959L65.941,426.093L66.964,428.223L65.095,429.959Z" style="stroke:black;stroke-width:0.48px;"/>
    </g>
    <g transform="matrix(1.33333,0,0,1.33333,-72.0389,-587.626)">
        <path d="M84.24,466.56L83.04,464.64L82.32,462.48L82.08,460.32L82.08,459.12L82.32,457.92L82.56,456.96L83.04,455.76L83.52,454.8L84.24,453.84L86.4,451.68L87.36,450.96L88.32,450.48L89.28,450.24L90.48,449.76L91.68,449.76L92.16,449.52L92.64,449.52L93.84,449.76L95.04,449.76L96,450.24L97.2,450.48L98.16,450.96L98.88,451.68L99.84,452.4L101.28,453.84L102,454.8L102.48,455.76L102.72,456.96L103.2,457.92L103.2,459.12L103.44,459.6L103.44,460.32L103.2,462.48L102.48,464.4" style="fill:none;fill-rule:nonzero;stroke:black;stroke-width:0.48px;"/>
    </g>
    <g transform="matrix(-0.611524,1.18483,1.18483,0.611524,-408.993,-376.27)">
        <path d="M100.534,455.925L108.906,455.925L101.655,452.183L102.701,454.343L100.534,455.925Z" style="stroke:black;stroke-width:0.48px;"/>
    </g>
    <g transform="matrix(1.33333,0,0,1.33333,-72.0389,-488.746)">
        <text x="91.68px" y="399.12px" style="font-family:'ArialMT', 'Arial', sans-serif;font-size:7px;">3</text>
    </g>
    <g transform="matrix(1.33333,0,0,1.33333,-72.0389,-488.746)">
        <text x="73.68px" y="395.04px" style="font-family:'ArialMT', 'Arial', sans-serif;font-size:7px;">4</text>
    </g>
    <g transform="matrix(1.33333,0,0,1.33333,-72.0389,-488.746)">
        <text x="69.36px" y="426.24px" style="font-family:'ArialMT', 'Arial', sans-serif;font-size:7px;">5</text>
    </g>
    <g transform="matrix(1.33333,0,0,1.33333,-72.0389,-488.746)">
        <text x="91.2px" y="418.32px" style="font-family:'ArialMT', 'Arial', sans-serif;font-size:7px;">6</text>
    </g>
    <g transform="matrix(1.33333,0,0,1.33333,-72.0389,-488.746)">
        <text x="109.68px" y="501.36px" style="font-family:'ArialMT', 'Arial', sans-serif;font-size:10px;">O</text>
    </g>
    <g transform="matrix(1.33333,0,0,1.33333,-72.0389,-488.746)">
        <text x="144px" y="503.52px" style="font-family:'ArialMT', 'Arial', sans-serif;font-size:10px;">O</text>
    </g>
    <g transform="matrix(1.33333,0,0,1.33333,-72.0389,-488.746)">
        <text x="201.12px" y="523.92px" style="font-family:'ArialMT', 'Arial', sans-serif;font-size:10px;">N</text>
    </g>
    <g transform="matrix(1.33333,0,0,1.33333,-72.0389,-488.746)">
        <text x="159.84px" y="502.08px" style="font-family:'ArialMT', 'Arial', sans-serif;font-size:10px;">H</text>
    </g>
    <g transform="matrix(1.33333,0,0,1.33333,-72.0389,-488.746)">
        <text x="189.6px" y="493.68px" style="font-family:'ArialMT', 'Arial', sans-serif;font-size:10px;">O</text>
    </g>
    <g transform="matrix(1.33333,0,0,1.33333,-72.0389,-488.746)">
        <text x="188.64px" y="556.08px" style="font-family:'ArialMT', 'Arial', sans-serif;font-size:10px;">O</text>
    </g>
    <g transform="matrix(1.33333,0,0,1.33333,-72.0389,-488.746)">
        <text x="222.24px" y="523.68px" style="font-family:'ArialMT', 'Arial', sans-serif;font-size:10px;">Ph</text>
    </g>
    <g transform="matrix(1.33333,0,0,1.33333,-72.0389,-488.746)">
        <text x="346.08px" y="500.4px" style="font-family:'ArialMT', 'Arial', sans-serif;font-size:10px;">O</text>
    </g>
    <g transform="matrix(1.33333,0,0,1.33333,-72.0389,-488.746)">
        <text x="377.04px" y="497.04px" style="font-family:'ArialMT', 'Arial', sans-serif;font-size:10px;">O</text>
    </g>
    <g transform="matrix(1.33333,0,0,1.33333,-72.0389,-488.746)">
        <text x="378.96px" y="545.52px" style="font-family:'ArialMT', 'Arial', sans-serif;font-size:10px;">CH</text>
        <text x="393.36px" y="548.16px" style="font-family:'ArialMT', 'Arial', sans-serif;font-size:8px;">2</text>
    </g>
    <g transform="matrix(1.33333,0,0,1.33333,-72.0389,-488.746)">
        <text x="346.56px" y="559.44px" style="font-family:'ArialMT', 'Arial', sans-serif;font-size:10px;">H</text>
    </g>
    <g transform="matrix(1.33333,0,0,1.33333,-72.0389,-488.746)">
        <text x="389.76px" y="523.2px" style="font-family:'ArialMT', 'Arial', sans-serif;font-size:18px;">+</text>
    </g>
    <g transform="matrix(1.33333,0,0,1.33333,-72.0389,-488.746)">
        <text x="443.04px" y="518.88px" style="font-family:'ArialMT', 'Arial', sans-serif;font-size:10px;">N</text>
    </g>
    <g transform="matrix(1.33333,0,0,1.33333,-72.0389,-488.746)">
        <text x="437.04px" y="483.84px" style="font-family:'ArialMT', 'Arial', sans-serif;font-size:10px;">O</text>
    </g>
    <g transform="matrix(1.33333,0,0,1.33333,-72.0389,-488.746)">
        <text x="437.04px" y="554.16px" style="font-family:'ArialMT', 'Arial', sans-serif;font-size:10px;">O</text>
    </g>
    <g transform="matrix(1.33333,0,0,1.33333,-72.0389,-488.746)">
        <text x="463.2px" y="518.88px" style="font-family:'ArialMT', 'Arial', sans-serif;font-size:10px;">Ph</text>
    </g>
    <g transform="matrix(1.15468,0.666702,0.666702,-1.15468,-282.801,514.58)">
        <path d="M77.866,339.66L97.784,339.66" style="fill:none;fill-rule:nonzero;stroke:black;stroke-width:0.72px;"/>
    </g>
    <g transform="matrix(1.15458,0.666876,0.666876,-1.15458,-281.211,516.171)">
        <path d="M77.848,336.75L94.442,336.75" style="fill:none;fill-rule:nonzero;stroke:black;stroke-width:0.72px;"/>
    </g>
    <g transform="matrix(1.15468,-0.666702,-0.666702,-1.15468,150.182,637.024)">
        <path d="M77.866,309.78L97.784,309.78" style="fill:none;fill-rule:nonzero;stroke:black;stroke-width:0.72px;"/>
    </g>
    <g transform="matrix(1.15458,-0.666876,-0.666876,-1.15458,151.885,635.368)">
        <path d="M77.848,312.69L94.442,312.69" style="fill:none;fill-rule:nonzero;stroke:black;stroke-width:0.72px;"/>
    </g>
    <g transform="matrix(1.15468,-0.666702,-0.666702,-1.15468,167.022,620.186)">
        <path d="M60.616,339.66L80.534,339.66" style="fill:none;fill-rule:nonzero;stroke:black;stroke-width:0.72px;"/>
    </g>
    <g transform="matrix(1.15468,0.666702,0.666702,-1.15468,-265.961,531.419)">
        <path d="M60.616,309.78L80.534,309.78" style="fill:none;fill-rule:nonzero;stroke:black;stroke-width:0.72px;"/>
    </g>
    <g transform="matrix(0,-1.33333,-1.33333,0,443.521,283.454)">
        <path d="M51.99,324.72L71.91,324.72" style="fill:none;fill-rule:nonzero;stroke:black;stroke-width:0.72px;"/>
    </g>
    <g transform="matrix(0,-1.33333,-1.33333,0,448.001,287.934)">
        <path d="M57.01,324.72L73.61,324.72" style="fill:none;fill-rule:nonzero;stroke:black;stroke-width:0.72px;"/>
    </g>
    <g transform="matrix(0,-1.33333,-1.33333,0,535.534,375.468)">
        <path d="M121,324.72L140.92,324.72" style="fill:none;fill-rule:nonzero;stroke:black;stroke-width:0.72px;"/>
    </g>
    <g transform="matrix(1.15467,0.666726,0.666726,-1.15467,-275.275,490.198)">
        <path d="M117.601,338.26L131.919,338.26" style="fill:none;fill-rule:nonzero;stroke:black;stroke-width:0.72px;"/>
    </g>
    <g transform="matrix(1.15485,-0.666412,-0.666412,-1.15485,156.237,660.045)">
        <path d="M112.366,309.78L132.294,309.78" style="fill:none;fill-rule:nonzero;stroke:black;stroke-width:0.72px;"/>
    </g>
    <g transform="matrix(1.15478,-0.666528,-0.666528,-1.15478,157.92,658.399)">
        <path d="M112.348,312.69L128.952,312.69" style="fill:none;fill-rule:nonzero;stroke:black;stroke-width:0.72px;"/>
    </g>
    <g transform="matrix(1.15487,-0.666378,-0.666378,-1.15487,171.651,641.814)">
        <path d="M95.502,338.22L109.668,338.22" style="fill:none;fill-rule:nonzero;stroke:black;stroke-width:0.72px;"/>
    </g>
    <g transform="matrix(1.15468,0.666702,0.666702,-1.15468,-259.798,508.418)">
        <path d="M95.116,309.78L115.034,309.78" style="fill:none;fill-rule:nonzero;stroke:black;stroke-width:0.72px;"/>
    </g>
    <g transform="matrix(0,-1.33333,-1.33333,0,489.521,329.454)">
        <path d="M86.49,324.72L106.41,324.72" style="fill:none;fill-rule:nonzero;stroke:black;stroke-width:0.72px;"/>
    </g>
    <g transform="matrix(1.2103,-0.559419,-0.559419,-1.2103,132.701,669.339)">
        <path d="M131.082,335.78L143.618,335.78" style="fill:none;fill-rule:nonzero;stroke:black;stroke-width:0.72px;"/>
    </g>
    <g transform="matrix(1.21072,-0.558504,-0.558504,-1.21072,134.137,668.547)">
        <path d="M129.602,339.16L143.688,339.16" style="fill:none;fill-rule:nonzero;stroke:black;stroke-width:0.72px;"/>
    </g>
    <g transform="matrix(1.19921,0.582816,0.582816,-1.19921,-233.747,510.096)">
        <path d="M129.842,309.9L152.078,309.9" style="fill:none;fill-rule:nonzero;stroke:black;stroke-width:0.72px;"/>
    </g>
    <g transform="matrix(0.809598,-1.0594,-1.0594,-0.809598,361.007,679.05)">
        <path d="M190.06,311.52L203.35,311.52" style="fill:none;fill-rule:nonzero;stroke:black;stroke-width:0.72px;"/>
    </g>
    <g transform="matrix(0.756932,1.09765,1.09765,-0.756932,-323.561,225.351)">
        <path d="M190.483,332.79L204.257,332.79" style="fill:none;fill-rule:nonzero;stroke:black;stroke-width:0.72px;"/>
    </g>
    <g transform="matrix(1.25757,0.44306,0.44306,-1.25757,-195.302,529.159)">
        <path d="M173.314,309.55L193.236,309.55" style="fill:none;fill-rule:nonzero;stroke:black;stroke-width:0.72px;"/>
    </g>
    <g transform="matrix(1.27784,-0.380675,-0.380675,-1.27784,65.9278,685.199)">
        <path d="M173.945,335.615L193.875,335.615" style="fill:none;fill-rule:nonzero;stroke:black;stroke-width:0.72px;"/>
    </g>
    <g transform="matrix(-0.0321353,1.33295,1.33295,0.0321353,-264.578,-39.0718)">
        <path d="M164.162,322.815L184.078,322.815" style="fill:none;fill-rule:nonzero;stroke:black;stroke-width:0.72px;"/>
    </g>
    <g transform="matrix(1.26191,-0.430546,-0.430546,-1.26191,72.5794,681.676)">
        <path d="M150.311,308.95L174.529,308.95" style="fill:none;fill-rule:nonzero;stroke:black;stroke-width:0.72px;"/>
    </g>
    <g transform="matrix(-0.93249,-0.953016,-0.953016,0.93249,636.057,35.5899)">
        <path d="M166.633,336.02L175.727,336.02" style="fill:none;fill-rule:nonzero;stroke:black;stroke-width:0.72px;"/>
    </g>
    <g transform="matrix(-0.00155581,-1.33333,-1.33333,0.00155581,645.451,436.454)">
        <path d="M190.85,342.755L199.42,342.755" style="fill:none;fill-rule:nonzero;stroke:black;stroke-width:0.72px;"/>
    </g>
    <g transform="matrix(-0.001554,-1.33333,-1.33333,0.001554,640.959,431.982)">
        <path d="M187.485,342.75L196.065,342.75" style="fill:none;fill-rule:nonzero;stroke:black;stroke-width:0.72px;"/>
    </g>
    <g transform="matrix(-0.0153382,1.33325,1.33325,0.0153382,-215.331,-26.1595)">
        <path d="M185.275,300.61L196.575,300.61" style="fill:none;fill-rule:nonzero;stroke:black;stroke-width:0.72px;"/>
    </g>
    <g transform="matrix(-0.0153927,1.33324,1.33324,0.0153927,-210.762,-30.6285)">
        <path d="M188.655,300.59L199.915,300.59" style="fill:none;fill-rule:nonzero;stroke:black;stroke-width:0.72px;"/>
    </g>
    <g transform="matrix(1.33323,-0.0166654,-0.0166654,-1.33323,-66.647,637.369)">
        <path d="M209.28,322.195L221.28,322.195" style="fill:none;fill-rule:nonzero;stroke:black;stroke-width:0.72px;"/>
    </g>
    <g transform="matrix(1.33333,0,0,1.33333,-72.0389,-229.546)">
        <path d="M249.12,323.76L283.2,323.76" style="fill:none;fill-rule:nonzero;stroke:black;stroke-width:0.72px;"/>
    </g>
    <g transform="matrix(1.33333,0,0,1.33333,-72.0389,-237.226)">
        <path d="M249.12,326.64L283.2,326.64" style="fill:none;fill-rule:nonzero;stroke:black;stroke-width:0.72px;"/>
    </g>
    <g transform="matrix(1.33333,0,0,1.33333,-72.0389,-233.386)">
        <path d="M278.64,321.6L286.56,325.2L278.64,328.8" style="fill:none;fill-rule:nonzero;stroke:black;stroke-width:0.72px;"/>
    </g>
    <g transform="matrix(1.15468,0.666702,0.666702,-1.15468,-241.207,356.8)">
        <path d="M314.266,340.62L334.184,340.62" style="fill:none;fill-rule:nonzero;stroke:black;stroke-width:0.72px;"/>
    </g>
    <g transform="matrix(1.15458,0.666876,0.666876,-1.15458,-239.593,358.35)">
        <path d="M314.248,337.71L330.842,337.71" style="fill:none;fill-rule:nonzero;stroke:black;stroke-width:0.72px;"/>
    </g>
    <g transform="matrix(1.15468,-0.666702,-0.666702,-1.15468,193.056,794.461)">
        <path d="M314.266,310.74L334.184,310.74" style="fill:none;fill-rule:nonzero;stroke:black;stroke-width:0.72px;"/>
    </g>
    <g transform="matrix(1.15458,-0.666876,-0.666876,-1.15458,194.783,792.846)">
        <path d="M314.248,313.65L330.842,313.65" style="fill:none;fill-rule:nonzero;stroke:black;stroke-width:0.72px;"/>
    </g>
    <g transform="matrix(1.15468,-0.666702,-0.666702,-1.15468,209.895,777.622)">
        <path d="M297.016,340.62L316.934,340.62" style="fill:none;fill-rule:nonzero;stroke:black;stroke-width:0.72px;"/>
    </g>
    <g transform="matrix(1.15468,0.666702,0.666702,-1.15468,-224.368,373.639)">
        <path d="M297.016,310.74L316.934,310.74" style="fill:none;fill-rule:nonzero;stroke:black;stroke-width:0.72px;"/>
    </g>
    <g transform="matrix(0,-1.33333,-1.33333,0,760.001,597.374)">
        <path d="M288.39,325.68L308.31,325.68" style="fill:none;fill-rule:nonzero;stroke:black;stroke-width:0.72px;"/>
    </g>
    <g transform="matrix(0,-1.33333,-1.33333,0,764.481,601.854)">
        <path d="M293.41,325.68L310.01,325.68" style="fill:none;fill-rule:nonzero;stroke:black;stroke-width:0.72px;"/>
    </g>
    <g transform="matrix(0,-1.33333,-1.33333,0,852.014,689.388)">
        <path d="M357.4,325.68L377.32,325.68" style="fill:none;fill-rule:nonzero;stroke:black;stroke-width:0.72px;"/>
    </g>
    <g transform="matrix(1.15467,0.666726,0.666726,-1.15467,-233.678,332.412)">
        <path d="M354.001,339.22L368.319,339.22" style="fill:none;fill-rule:nonzero;stroke:black;stroke-width:0.72px;"/>
    </g>
    <g transform="matrix(1.15485,-0.666412,-0.666412,-1.15485,199.07,817.414)">
        <path d="M348.766,310.74L368.694,310.74" style="fill:none;fill-rule:nonzero;stroke:black;stroke-width:0.72px;"/>
    </g>
    <g transform="matrix(1.15487,-0.666378,-0.666378,-1.15487,214.481,799.174)">
        <path d="M331.902,339.18L346.068,339.18" style="fill:none;fill-rule:nonzero;stroke:black;stroke-width:0.72px;"/>
    </g>
    <g transform="matrix(1.15468,0.666702,0.666702,-1.15468,-218.204,350.638)">
        <path d="M331.516,310.74L351.434,310.74" style="fill:none;fill-rule:nonzero;stroke:black;stroke-width:0.72px;"/>
    </g>
    <g transform="matrix(0,-1.33333,-1.33333,0,806.001,643.374)">
        <path d="M322.89,325.68L342.81,325.68" style="fill:none;fill-rule:nonzero;stroke:black;stroke-width:0.72px;"/>
    </g>
    <g transform="matrix(0.949871,-0.935694,-0.935694,-0.949871,388.333,853.017)">
        <path d="M366.637,339.06L379.803,339.06" style="fill:none;fill-rule:nonzero;stroke:black;stroke-width:0.72px;"/>
    </g>
    <g transform="matrix(0.949978,-0.935585,-0.935585,-0.949978,389.939,850.04)">
        <path d="M364.182,341.715L378.078,341.715" style="fill:none;fill-rule:nonzero;stroke:black;stroke-width:0.72px;"/>
    </g>
    <g transform="matrix(0.941614,0.944002,0.944002,-0.941614,-217.605,161.681)">
        <path d="M363.709,308.6L380.461,308.6" style="fill:none;fill-rule:nonzero;stroke:black;stroke-width:0.72px;"/>
    </g>
    <g transform="matrix(0.941565,0.944051,0.944051,-0.941565,-219.234,158.607)">
        <path d="M366.177,311.215L382.263,311.215" style="fill:none;fill-rule:nonzero;stroke:black;stroke-width:0.72px;"/>
    </g>
    <g transform="matrix(0.00376646,1.33333,1.33333,-0.00376646,-4.76934,-230.125)">
        <path d="M343.04,298.68L357.2,298.68" style="fill:none;fill-rule:nonzero;stroke:black;stroke-width:0.72px;"/>
    </g>
    <g transform="matrix(-1.26796,0.412387,0.412387,1.26796,894.605,-425.883)">
        <path d="M415.532,339.92L435.448,339.92" style="fill:none;fill-rule:nonzero;stroke:black;stroke-width:0.72px;"/>
    </g>
    <g transform="matrix(0,-1.33333,-1.33333,0,918.494,752.668)">
        <path d="M406.06,326.88L425.98,326.88" style="fill:none;fill-rule:nonzero;stroke:black;stroke-width:0.72px;"/>
    </g>
    <g transform="matrix(0,-1.33333,-1.33333,0,922.974,757.148)">
        <path d="M411.93,326.88L426.83,326.88" style="fill:none;fill-rule:nonzero;stroke:black;stroke-width:0.72px;"/>
    </g>
    <g transform="matrix(-0.783992,-1.07849,-1.07849,0.783992,1221.33,392.396)">
        <path d="M432.199,337.58L445.601,337.58" style="fill:none;fill-rule:nonzero;stroke:black;stroke-width:0.72px;"/>
    </g>
    <g transform="matrix(-1.26815,-0.411782,-0.411782,1.26815,1164.1,-7.44021)">
        <path d="M415.533,313.845L435.447,313.845" style="fill:none;fill-rule:nonzero;stroke:black;stroke-width:0.72px;"/>
    </g>
    <g transform="matrix(0.784171,-1.07836,-1.07836,-0.784171,510.125,933.494)">
        <path d="M432.141,316.305L445.829,316.305" style="fill:none;fill-rule:nonzero;stroke:black;stroke-width:0.72px;"/>
    </g>
    <g transform="matrix(0.412115,-1.26805,-1.26805,-0.412115,775.694,868.228)">
        <path d="M431.329,349.68L446.471,349.68" style="fill:none;fill-rule:nonzero;stroke:black;stroke-width:0.72px;"/>
    </g>
    <g transform="matrix(0.412801,-1.26782,-1.26782,-0.412801,772.876,863.625)">
        <path d="M428.51,350.2L442.56,350.2" style="fill:none;fill-rule:nonzero;stroke:black;stroke-width:0.72px;"/>
    </g>
    <g transform="matrix(0.412522,1.26791,1.26791,-0.412522,-55.8874,-197.932)">
        <path d="M428.505,303.565L442.565,303.565" style="fill:none;fill-rule:nonzero;stroke:black;stroke-width:0.72px;"/>
    </g>
    <g transform="matrix(0.411856,1.26813,1.26813,-0.411856,-53.2217,-202.975)">
        <path d="M431.325,304.085L446.475,304.085" style="fill:none;fill-rule:nonzero;stroke:black;stroke-width:0.72px;"/>
    </g>
    <g transform="matrix(1.33333,0,0,1.33333,-72.0389,-237.866)">
        <path d="M451.2,326.88L462.24,326.88" style="fill:none;fill-rule:nonzero;stroke:black;stroke-width:0.72px;"/>
    </g>
</svg>
