<?xml version="1.0" encoding="UTF-8" standalone="no"?>
<!DOCTYPE svg PUBLIC "-//W3C//DTD SVG 1.1//EN" "http://www.w3.org/Graphics/SVG/1.1/DTD/svg11.dtd">
<svg width="100%" height="100%" viewBox="0 0 350 495" version="1.1" xmlns="http://www.w3.org/2000/svg" xmlns:xlink="http://www.w3.org/1999/xlink" xml:space="preserve" xmlns:serif="http://www.serif.com/" style="fill-rule:evenodd;clip-rule:evenodd;stroke-linecap:round;stroke-linejoin:round;stroke-miterlimit:10;">
    <g transform="matrix(1.33333,0,0,1.33333,-63.4539,-73.9467)">
        <text x="84.96px" y="98.64px" style="font-family:'ArialMT', 'Arial', sans-serif;font-size:10px;">R</text>
        <text x="92.4px" y="91.68px" style="font-family:'ArialMT', 'Arial', sans-serif;font-size:8px;">1</text>
    </g>
    <g transform="matrix(1.33333,0,0,1.33333,-63.4539,-73.9467)">
        <text x="67.92px" y="68.88px" style="font-family:'ArialMT', 'Arial', sans-serif;font-size:10px;">PP</text>
        <text x="81.36px" y="68.88px" style="font-family:'ArialMT', 'Arial', sans-serif;font-size:10px;">h</text>
        <text x="87.12px" y="71.52px" style="font-family:'ArialMT', 'Arial', sans-serif;font-size:8px;">3</text>
    </g>
    <g transform="matrix(1.33333,0,0,1.33333,-63.4539,-73.9467)">
        <text x="50.4px" y="98.64px" style="font-family:'ArialMT', 'Arial', sans-serif;font-size:10px;">H</text>
    </g>
    <g transform="matrix(1.33333,0,0,1.33333,-63.4539,-73.9467)">
        <text x="128.4px" y="101.28px" style="font-family:'ArialMT', 'Arial', sans-serif;font-size:10px;">O</text>
    </g>
    <g transform="matrix(1.33333,0,0,1.33333,-63.4539,-73.9467)">
        <text x="145.92px" y="71.52px" style="font-family:'ArialMT', 'Arial', sans-serif;font-size:10px;">H</text>
    </g>
    <g transform="matrix(1.33333,0,0,1.33333,-63.4539,-73.9467)">
        <text x="111.36px" y="71.52px" style="font-family:'ArialMT', 'Arial', sans-serif;font-size:10px;">R</text>
        <text x="118.8px" y="64.56px" style="font-family:'ArialMT', 'Arial', sans-serif;font-size:8px;">2</text>
    </g>
    <g transform="matrix(1.33333,0,0,1.33333,-63.4539,-73.9467)">
        <text x="240.24px" y="102.72px" style="font-family:'ArialMT', 'Arial', sans-serif;font-size:10px;">R</text>
        <text x="247.68px" y="95.76px" style="font-family:'ArialMT', 'Arial', sans-serif;font-size:8px;">1</text>
    </g>
    <g transform="matrix(1.33333,0,0,1.33333,-63.4539,-73.9467)">
        <text x="223.2px" y="72.96px" style="font-family:'ArialMT', 'Arial', sans-serif;font-size:10px;">PP</text>
        <text x="236.64px" y="72.96px" style="font-family:'ArialMT', 'Arial', sans-serif;font-size:10px;">h</text>
        <text x="242.4px" y="75.6px" style="font-family:'ArialMT', 'Arial', sans-serif;font-size:8px;">3</text>
    </g>
    <g transform="matrix(1.33333,0,0,1.33333,-63.4539,-73.9467)">
        <text x="205.92px" y="102.72px" style="font-family:'ArialMT', 'Arial', sans-serif;font-size:10px;">H</text>
    </g>
    <g transform="matrix(1.33333,0,0,1.33333,-63.4539,-73.9467)">
        <text x="273.6px" y="103.68px" style="font-family:'ArialMT', 'Arial', sans-serif;font-size:10px;">O</text>
        <text x="281.52px" y="96.72px" style="font-family:'ArialMT', 'Arial', sans-serif;font-size:8px;">–</text>
    </g>
    <g transform="matrix(1.33333,0,0,1.33333,-63.4539,-73.9467)">
        <text x="291.12px" y="73.92px" style="font-family:'ArialMT', 'Arial', sans-serif;font-size:10px;">H</text>
    </g>
    <g transform="matrix(1.33333,0,0,1.33333,-63.4539,-73.9467)">
        <text x="256.56px" y="73.92px" style="font-family:'ArialMT', 'Arial', sans-serif;font-size:10px;">R</text>
        <text x="264px" y="66.96px" style="font-family:'ArialMT', 'Arial', sans-serif;font-size:8px;">2</text>
    </g>
    <g transform="matrix(1.33333,0,0,1.33333,-63.4539,-73.9467)">
        <text x="239.52px" y="211.2px" style="font-family:'ArialMT', 'Arial', sans-serif;font-size:10px;">R</text>
        <text x="246.96px" y="204.24px" style="font-family:'ArialMT', 'Arial', sans-serif;font-size:8px;">1</text>
    </g>
    <g transform="matrix(1.33333,0,0,1.33333,-63.4539,-73.9467)">
        <text x="222.48px" y="181.44px" style="font-family:'ArialMT', 'Arial', sans-serif;font-size:10px;">PP</text>
        <text x="235.92px" y="181.44px" style="font-family:'ArialMT', 'Arial', sans-serif;font-size:10px;">h</text>
        <text x="241.68px" y="184.08px" style="font-family:'ArialMT', 'Arial', sans-serif;font-size:8px;">3</text>
    </g>
    <g transform="matrix(1.33333,0,0,1.33333,-63.4539,-73.9467)">
        <text x="205.2px" y="211.2px" style="font-family:'ArialMT', 'Arial', sans-serif;font-size:10px;">H</text>
    </g>
    <g transform="matrix(1.33333,0,0,1.33333,-63.4539,-73.9467)">
        <text x="286.08px" y="207.6px" style="font-family:'ArialMT', 'Arial', sans-serif;font-size:10px;">R</text>
        <text x="293.52px" y="200.64px" style="font-family:'ArialMT', 'Arial', sans-serif;font-size:8px;">2</text>
    </g>
    <g transform="matrix(1.33333,0,0,1.33333,-63.4539,-73.9467)">
        <text x="272.88px" y="173.52px" style="font-family:'ArialMT', 'Arial', sans-serif;font-size:10px;">O</text>
        <text x="280.8px" y="166.56px" style="font-family:'ArialMT', 'Arial', sans-serif;font-size:8px;">–</text>
    </g>
    <g transform="matrix(1.33333,0,0,1.33333,-63.4539,-73.9467)">
        <text x="259.92px" y="207.6px" style="font-family:'ArialMT', 'Arial', sans-serif;font-size:10px;">H</text>
    </g>
    <g transform="matrix(1.33333,0,0,1.33333,-63.4539,-73.9467)">
        <text x="86.16px" y="180px" style="font-family:'ArialMT', 'Arial', sans-serif;font-size:10px;">H</text>
    </g>
    <g transform="matrix(1.33333,0,0,1.33333,-63.4539,-73.9467)">
        <text x="86.16px" y="214.32px" style="font-family:'ArialMT', 'Arial', sans-serif;font-size:10px;">R</text>
        <text x="93.6px" y="207.36px" style="font-family:'ArialMT', 'Arial', sans-serif;font-size:8px;">1</text>
    </g>
    <g transform="matrix(1.33333,0,0,1.33333,-63.4539,-73.9467)">
        <text x="126px" y="214.32px" style="font-family:'ArialMT', 'Arial', sans-serif;font-size:10px;">R</text>
        <text x="133.44px" y="207.36px" style="font-family:'ArialMT', 'Arial', sans-serif;font-size:8px;">2</text>
    </g>
    <g transform="matrix(1.33333,0,0,1.33333,-63.4539,-73.9467)">
        <text x="126px" y="180px" style="font-family:'ArialMT', 'Arial', sans-serif;font-size:10px;">H</text>
    </g>
    <g transform="matrix(1.33333,0,0,1.33333,-63.4539,-73.9467)">
        <text x="265.68px" y="241.68px" style="font-family:'ArialMT', 'Arial', sans-serif;font-size:10px;">BuLi</text>
    </g>
    <g transform="matrix(1.33333,0,0,1.33333,-63.4539,-73.9467)">
        <text x="205.92px" y="318.96px" style="font-family:'ArialMT', 'Arial', sans-serif;font-size:10px;">R</text>
        <text x="213.36px" y="312px" style="font-family:'ArialMT', 'Arial', sans-serif;font-size:8px;">1</text>
    </g>
    <g transform="matrix(1.33333,0,0,1.33333,-63.4539,-73.9467)">
        <text x="222.96px" y="285.12px" style="font-family:'ArialMT', 'Arial', sans-serif;font-size:10px;">PP</text>
        <text x="236.4px" y="285.12px" style="font-family:'ArialMT', 'Arial', sans-serif;font-size:10px;">h</text>
        <text x="242.16px" y="287.76px" style="font-family:'ArialMT', 'Arial', sans-serif;font-size:8px;">3</text>
    </g>
    <g transform="matrix(1.33333,0,0,1.33333,-63.4539,-73.9467)">
        <text x="286.56px" y="311.28px" style="font-family:'ArialMT', 'Arial', sans-serif;font-size:10px;">R</text>
        <text x="294px" y="304.32px" style="font-family:'ArialMT', 'Arial', sans-serif;font-size:8px;">2</text>
    </g>
    <g transform="matrix(1.33333,0,0,1.33333,-63.4539,-73.9467)">
        <text x="273.36px" y="277.2px" style="font-family:'ArialMT', 'Arial', sans-serif;font-size:10px;">O</text>
        <text x="281.28px" y="270.24px" style="font-family:'ArialMT', 'Arial', sans-serif;font-size:8px;">–</text>
    </g>
    <g transform="matrix(1.33333,0,0,1.33333,-63.4539,-73.9467)">
        <text x="260.4px" y="311.28px" style="font-family:'ArialMT', 'Arial', sans-serif;font-size:10px;">H</text>
    </g>
    <g transform="matrix(1.33333,0,0,1.33333,-63.4539,-73.9467)">
        <text x="86.88px" y="288.24px" style="font-family:'ArialMT', 'Arial', sans-serif;font-size:10px;">R</text>
        <text x="94.32px" y="281.28px" style="font-family:'ArialMT', 'Arial', sans-serif;font-size:8px;">1</text>
    </g>
    <g transform="matrix(1.33333,0,0,1.33333,-63.4539,-73.9467)">
        <text x="86.88px" y="322.56px" style="font-family:'ArialMT', 'Arial', sans-serif;font-size:10px;">H</text>
    </g>
    <g transform="matrix(1.33333,0,0,1.33333,-63.4539,-73.9467)">
        <text x="126.72px" y="322.56px" style="font-family:'ArialMT', 'Arial', sans-serif;font-size:10px;">R</text>
        <text x="134.16px" y="315.6px" style="font-family:'ArialMT', 'Arial', sans-serif;font-size:8px;">2</text>
    </g>
    <g transform="matrix(1.33333,0,0,1.33333,-63.4539,-73.9467)">
        <text x="126.72px" y="288.24px" style="font-family:'ArialMT', 'Arial', sans-serif;font-size:10px;">H</text>
    </g>
    <g transform="matrix(1.33333,0,0,1.33333,-63.4539,-73.9467)">
        <text x="84.72px" y="408px" style="font-family:'ArialMT', 'Arial', sans-serif;font-size:10px;">R</text>
        <text x="92.16px" y="401.04px" style="font-family:'ArialMT', 'Arial', sans-serif;font-size:8px;">1</text>
    </g>
    <g transform="matrix(1.33333,0,0,1.33333,-63.4539,-73.9467)">
        <text x="67.68px" y="378.24px" style="font-family:'ArialMT', 'Arial', sans-serif;font-size:10px;">PP</text>
        <text x="81.12px" y="378.24px" style="font-family:'ArialMT', 'Arial', sans-serif;font-size:10px;">h</text>
        <text x="86.88px" y="380.88px" style="font-family:'ArialMT', 'Arial', sans-serif;font-size:8px;">3</text>
    </g>
    <g transform="matrix(1.33333,0,0,1.33333,-63.4539,-73.9467)">
        <text x="50.16px" y="408px" style="font-family:'ArialMT', 'Arial', sans-serif;font-size:10px;">H</text>
    </g>
    <g transform="matrix(1.33333,0,0,1.33333,-63.4539,-73.9467)">
        <text x="128.16px" y="410.64px" style="font-family:'ArialMT', 'Arial', sans-serif;font-size:10px;">O</text>
    </g>
    <g transform="matrix(1.33333,0,0,1.33333,-63.4539,-73.9467)">
        <text x="145.68px" y="380.88px" style="font-family:'ArialMT', 'Arial', sans-serif;font-size:10px;">R</text>
        <text x="153.12px" y="373.92px" style="font-family:'ArialMT', 'Arial', sans-serif;font-size:8px;">2</text>
    </g>
    <g transform="matrix(1.33333,0,0,1.33333,-63.4539,-73.9467)">
        <text x="111.12px" y="380.88px" style="font-family:'ArialMT', 'Arial', sans-serif;font-size:10px;">H</text>
    </g>
    <g transform="matrix(1.33333,0,0,1.33333,-63.4539,-73.9467)">
        <text x="240px" y="412.08px" style="font-family:'ArialMT', 'Arial', sans-serif;font-size:10px;">R</text>
        <text x="247.44px" y="405.12px" style="font-family:'ArialMT', 'Arial', sans-serif;font-size:8px;">1</text>
    </g>
    <g transform="matrix(1.33333,0,0,1.33333,-63.4539,-73.9467)">
        <text x="222.96px" y="382.32px" style="font-family:'ArialMT', 'Arial', sans-serif;font-size:10px;">PP</text>
        <text x="236.4px" y="382.32px" style="font-family:'ArialMT', 'Arial', sans-serif;font-size:10px;">h</text>
        <text x="242.16px" y="384.96px" style="font-family:'ArialMT', 'Arial', sans-serif;font-size:8px;">3</text>
    </g>
    <g transform="matrix(1.33333,0,0,1.33333,-63.4539,-73.9467)">
        <text x="205.68px" y="412.08px" style="font-family:'ArialMT', 'Arial', sans-serif;font-size:10px;">H</text>
    </g>
    <g transform="matrix(1.33333,0,0,1.33333,-63.4539,-73.9467)">
        <text x="273.36px" y="413.04px" style="font-family:'ArialMT', 'Arial', sans-serif;font-size:10px;">O</text>
        <text x="281.28px" y="406.08px" style="font-family:'ArialMT', 'Arial', sans-serif;font-size:8px;">–</text>
    </g>
    <g transform="matrix(1.33333,0,0,1.33333,-63.4539,-73.9467)">
        <text x="290.88px" y="383.28px" style="font-family:'ArialMT', 'Arial', sans-serif;font-size:10px;">R</text>
        <text x="298.32px" y="376.32px" style="font-family:'ArialMT', 'Arial', sans-serif;font-size:8px;">2</text>
    </g>
    <g transform="matrix(1.33333,0,0,1.33333,-63.4539,-73.9467)">
        <text x="256.32px" y="383.28px" style="font-family:'ArialMT', 'Arial', sans-serif;font-size:10px;">H</text>
    </g>
    <g transform="matrix(1.07059,0.794747,0.794747,-1.07059,-641.217,788.731)">
        <path d="M70.122,752.304L84.769,752.304L84.573,753.977L84.383,755.642L70.122,752.304Z" style="stroke:black;stroke-width:0.24px;"/>
    </g>
    <g transform="matrix(0,-1.33333,-1.33333,0,1051.09,124.473)">
        <path d="M64.065,764.505L78.735,764.505" style="fill:none;fill-rule:nonzero;stroke:black;stroke-width:0.72px;"/>
    </g>
    <g transform="matrix(0.666766,1.15464,1.15464,-0.666766,-890.127,479.476)">
        <path d="M58.06,750.42L61.34,750.42" style="fill:none;fill-rule:nonzero;stroke:black;stroke-width:0.72px;"/>
    </g>
    <g transform="matrix(0.668048,1.1539,1.1539,-0.668048,-889.647,476.962)">
        <path d="M60.673,751.74L63.307,751.74" style="fill:none;fill-rule:nonzero;stroke:black;stroke-width:0.72px;"/>
    </g>
    <g transform="matrix(0.667259,1.15436,1.15436,-0.667259,-889.934,472.821)">
        <path d="M63.281,753.055L65.279,753.055" style="fill:none;fill-rule:nonzero;stroke:black;stroke-width:0.72px;"/>
    </g>
    <g transform="matrix(0.665731,1.15524,1.15524,-0.665731,-890.508,468.095)">
        <path d="M65.879,754.38L67.241,754.38" style="fill:none;fill-rule:nonzero;stroke:black;stroke-width:0.72px;"/>
    </g>
    <g transform="matrix(0.669514,1.15305,1.15305,-0.669514,-889.111,467.577)">
        <path d="M68.492,755.7L69.208,755.7" style="fill:none;fill-rule:nonzero;stroke:black;stroke-width:0.72px;"/>
    </g>
    <g transform="matrix(0.596285,1.19257,1.19257,-0.596285,-913.823,405.819)">
        <path d="M71.101,757.02L71.169,757.02" style="fill:none;fill-rule:nonzero;stroke:black;stroke-width:0.72px;"/>
    </g>
    <g transform="matrix(0,1.33333,1.33333,0,-898.807,-135.06)">
        <path d="M123.245,757.135L137.995,757.135" style="fill:none;fill-rule:nonzero;stroke:black;stroke-width:0.72px;"/>
    </g>
    <g transform="matrix(0,1.33333,1.33333,0,-894.327,-139.54)">
        <path d="M126.605,757.135L141.355,757.135" style="fill:none;fill-rule:nonzero;stroke:black;stroke-width:0.72px;"/>
    </g>
    <g transform="matrix(1.22341,-0.530143,-0.530143,-1.22341,359.453,1037.81)">
        <path d="M131.115,767.555L145.828,767.555L145.634,769.219L145.444,770.893L131.115,767.555Z" style="stroke:black;stroke-width:0.24px;"/>
    </g>
    <g transform="matrix(-0.666766,1.15464,1.15464,0.666766,-712.606,-633.222)">
        <path d="M119.02,771.22L122.3,771.22" style="fill:none;fill-rule:nonzero;stroke:black;stroke-width:0.72px;"/>
    </g>
    <g transform="matrix(-0.668048,1.1539,1.1539,0.668048,-705.773,-634.123)">
        <path d="M121.633,769.9L124.267,769.9" style="fill:none;fill-rule:nonzero;stroke:black;stroke-width:0.72px;"/>
    </g>
    <g transform="matrix(-0.662239,1.15725,1.15725,0.662239,-702.98,-630.081)">
        <path d="M124.238,768.585L126.232,768.585" style="fill:none;fill-rule:nonzero;stroke:black;stroke-width:0.72px;"/>
    </g>
    <g transform="matrix(-0.662583,1.15705,1.15705,0.662583,-696.687,-630.336)">
        <path d="M126.851,767.265L128.199,767.265" style="fill:none;fill-rule:nonzero;stroke:black;stroke-width:0.72px;"/>
    </g>
    <g transform="matrix(-0.663559,1.15649,1.15649,0.663559,-690.054,-631.015)">
        <path d="M129.453,765.945L130.157,765.945" style="fill:none;fill-rule:nonzero;stroke:black;stroke-width:0.72px;"/>
    </g>
    <g transform="matrix(-0.685994,1.14332,1.14332,0.685994,-670.925,-646.442)">
        <path d="M132.066,764.625L132.124,764.625" style="fill:none;fill-rule:nonzero;stroke:black;stroke-width:0.72px;"/>
    </g>
    <g transform="matrix(1.33333,0,0,1.33333,-63.4539,-986.907)">
        <path d="M78.24,764.88L80.88,764.16L83.76,763.2L86.88,762.72L90,762L95.28,761.52L106.56,761.52L112.08,762.24L117.12,763.2L121.68,764.4L123.6,765.12" style="fill:none;fill-rule:nonzero;stroke:black;stroke-width:0.48px;"/>
    </g>
    <g transform="matrix(1.16003,0.65735,0.65735,-1.16003,-544.667,837.719)">
        <path d="M115.8,763.797L124.075,763.797L116.858,759.982L117.7,762.391L115.8,763.797Z" style="stroke:black;stroke-width:0.48px;"/>
    </g>
    <g transform="matrix(1.33333,0,0,1.33333,-63.4539,-978.907)">
        <path d="M164.4,760.32L198.48,760.32" style="fill:none;fill-rule:nonzero;stroke:black;stroke-width:0.72px;"/>
    </g>
    <g transform="matrix(1.2958,0.314133,0.314133,-1.2958,-294.995,958.971)">
        <path d="M190.219,761.253L198.369,761.253L191.124,757.521L192.071,759.726L190.219,761.253Z" style="stroke:black;stroke-width:0.72px;"/>
    </g>
    <g transform="matrix(1.06975,0.795877,0.795877,-1.06975,-597.814,665.453)">
        <path d="M225.532,748.229L240.04,748.229L239.843,749.901L239.651,751.566L225.532,748.229Z" style="stroke:black;stroke-width:0.24px;"/>
    </g>
    <g transform="matrix(0,-1.33333,-1.33333,0,1252.83,337.133)">
        <path d="M219.45,760.41L234.15,760.41" style="fill:none;fill-rule:nonzero;stroke:black;stroke-width:0.72px;"/>
    </g>
    <g transform="matrix(0.666766,1.15464,1.15464,-0.666766,-781.798,302.598)">
        <path d="M213.58,746.38L216.86,746.38" style="fill:none;fill-rule:nonzero;stroke:black;stroke-width:0.72px;"/>
    </g>
    <g transform="matrix(0.668048,1.1539,1.1539,-0.668048,-781.52,300.195)">
        <path d="M216.193,747.7L218.827,747.7" style="fill:none;fill-rule:nonzero;stroke:black;stroke-width:0.72px;"/>
    </g>
    <g transform="matrix(0.665133,1.15558,1.15558,-0.665133,-782.143,294.126)">
        <path d="M218.803,749.02L220.787,749.02" style="fill:none;fill-rule:nonzero;stroke:black;stroke-width:0.72px;"/>
    </g>
    <g transform="matrix(0.666871,1.15458,1.15458,-0.666871,-781.772,292.124)">
        <path d="M221.415,750.34L222.755,750.34" style="fill:none;fill-rule:nonzero;stroke:black;stroke-width:0.72px;"/>
    </g>
    <g transform="matrix(0.65735,1.16003,1.16003,-0.65735,-783.731,280.228)">
        <path d="M224.025,751.66L224.715,751.66" style="fill:none;fill-rule:nonzero;stroke:black;stroke-width:0.72px;"/>
    </g>
    <g transform="matrix(0.8,1.06667,1.06667,-0.8,-745.75,405.259)">
        <path d="M226.63,752.98L226.68,752.98" style="fill:none;fill-rule:nonzero;stroke:black;stroke-width:0.72px;"/>
    </g>
    <g transform="matrix(0,1.33333,1.33333,0,-699.587,-327.84)">
        <path d="M270.26,754.72L284.98,754.72" style="fill:none;fill-rule:nonzero;stroke:black;stroke-width:0.72px;"/>
    </g>
    <g transform="matrix(1.22401,-0.528757,-0.528757,-1.22401,372.881,1115.15)">
        <path d="M276.445,765.089L291.021,765.089L290.828,766.763L290.632,768.427L276.445,765.089Z" style="stroke:black;stroke-width:0.24px;"/>
    </g>
    <g transform="matrix(-0.665009,1.15566,1.15566,0.665009,-420.718,-795.085)">
        <path d="M264.216,768.865L267.504,768.865" style="fill:none;fill-rule:nonzero;stroke:black;stroke-width:0.72px;"/>
    </g>
    <g transform="matrix(-0.66586,1.15517,1.15517,0.66586,-414.012,-795.615)">
        <path d="M266.828,767.545L269.472,767.545" style="fill:none;fill-rule:nonzero;stroke:black;stroke-width:0.72px;"/>
    </g>
    <g transform="matrix(-0.672242,1.15146,1.15146,0.672242,-403.356,-799.505)">
        <path d="M269.433,766.225L271.437,766.225" style="fill:none;fill-rule:nonzero;stroke:black;stroke-width:0.72px;"/>
    </g>
    <g transform="matrix(-0.661519,1.15766,1.15766,0.661519,-404.916,-792.975)">
        <path d="M272.035,764.905L273.405,764.905" style="fill:none;fill-rule:nonzero;stroke:black;stroke-width:0.72px;"/>
    </g>
    <g transform="matrix(-0.661519,1.15766,1.15766,0.661519,-398.82,-792.993)">
        <path d="M274.647,763.585L275.373,763.585" style="fill:none;fill-rule:nonzero;stroke:black;stroke-width:0.72px;"/>
    </g>
    <g transform="matrix(-0.774984,1.08498,1.08498,0.774984,-305.869,-859.342)">
        <path d="M277.252,762.265L277.338,762.265" style="fill:none;fill-rule:nonzero;stroke:black;stroke-width:0.72px;"/>
    </g>
    <g transform="matrix(1.31282,-0.23301,-0.23301,-1.31282,118.243,1091.84)">
        <path d="M226.403,757.57L278.017,757.57" style="fill:none;fill-rule:nonzero;stroke:black;stroke-width:0.72px;"/>
    </g>
    <g transform="matrix(1.33333,0,0,1.33333,-63.4539,-969.307)">
        <path d="M253.68,751.2L254.64,750.24L255.84,749.28L257.28,748.56L258.72,748.08L261.6,748.08L262.8,748.32L265.68,749.76L266.64,750.48L267.36,751.44L268.8,754.32L269.04,755.52L269.04,757.92L268.8,759.12L267.36,762L266.64,762.96L265.68,763.68L262.8,765.12L261.6,765.36L259.2,765.36L258,765.12L256.8,764.64L255.84,764.16L254.88,763.44" style="fill:none;fill-rule:nonzero;stroke:black;stroke-width:0.48px;"/>
    </g>
    <g transform="matrix(-1.05247,-0.818587,-0.818587,1.05247,1166.25,-522.745)">
        <path d="M255.518,747.996L263.728,747.996L256.402,744.123L257.56,746.543L255.518,747.996Z" style="stroke:black;stroke-width:0.48px;"/>
    </g>
    <g transform="matrix(1.06975,0.795877,0.795877,-1.06975,-511.619,694.635)">
        <path d="M224.812,639.689L239.32,639.689L239.123,641.361L238.931,643.026L224.812,639.689Z" style="stroke:black;stroke-width:0.24px;"/>
    </g>
    <g transform="matrix(0,-1.33333,-1.33333,0,1107.19,480.853)">
        <path d="M218.7,651.9L233.46,651.9" style="fill:none;fill-rule:nonzero;stroke:black;stroke-width:0.72px;"/>
    </g>
    <g transform="matrix(0.666766,1.15464,1.15464,-0.666766,-656.953,375.779)">
        <path d="M212.86,637.84L216.14,637.84" style="fill:none;fill-rule:nonzero;stroke:black;stroke-width:0.72px;"/>
    </g>
    <g transform="matrix(0.668048,1.1539,1.1539,-0.668048,-656.755,373.235)">
        <path d="M215.473,639.16L218.107,639.16" style="fill:none;fill-rule:nonzero;stroke:black;stroke-width:0.72px;"/>
    </g>
    <g transform="matrix(0.665133,1.15558,1.15558,-0.665133,-657.197,367.485)">
        <path d="M218.083,640.48L220.067,640.48" style="fill:none;fill-rule:nonzero;stroke:black;stroke-width:0.72px;"/>
    </g>
    <g transform="matrix(0.666871,1.15458,1.15458,-0.666871,-656.934,365.294)">
        <path d="M220.695,641.8L222.035,641.8" style="fill:none;fill-rule:nonzero;stroke:black;stroke-width:0.72px;"/>
    </g>
    <g transform="matrix(0.65735,1.16003,1.16003,-0.65735,-658.308,354.434)">
        <path d="M223.305,643.12L223.995,643.12" style="fill:none;fill-rule:nonzero;stroke:black;stroke-width:0.72px;"/>
    </g>
    <g transform="matrix(0.596285,1.19257,1.19257,-0.596285,-665.472,304.193)">
        <path d="M225.908,644.44L225.952,644.44" style="fill:none;fill-rule:nonzero;stroke:black;stroke-width:0.72px;"/>
    </g>
    <g transform="matrix(1.31282,-0.23301,-0.23301,-1.31282,92.937,1093.9)">
        <path d="M225.683,649.03L277.297,649.03" style="fill:none;fill-rule:nonzero;stroke:black;stroke-width:0.72px;"/>
    </g>
    <g transform="matrix(0.72263,1.12053,1.12053,-0.72263,-617.41,337.155)">
        <path d="M274.442,646.87L287.745,646.87L287.531,648.531L287.323,650.201L274.442,646.87Z" style="stroke:black;stroke-width:0.24px;"/>
    </g>
    <g transform="matrix(-0.0107366,-1.33329,-1.33329,0.0107366,1189.11,530.145)">
        <path d="M270.015,660.37L283.675,660.37" style="fill:none;fill-rule:nonzero;stroke:black;stroke-width:0.72px;"/>
    </g>
    <g transform="matrix(1.00623,0.874803,0.874803,-1.00623,-539.217,602.549)">
        <path d="M267.322,644.415L270.568,644.415" style="fill:none;fill-rule:nonzero;stroke:black;stroke-width:0.72px;"/>
    </g>
    <g transform="matrix(1.00603,0.875035,0.875035,-1.00603,-540.486,600.187)">
        <path d="M269.408,646.405L271.952,646.405" style="fill:none;fill-rule:nonzero;stroke:black;stroke-width:0.72px;"/>
    </g>
    <g transform="matrix(1.00614,0.874905,0.874905,-1.00614,-541.6,598.123)">
        <path d="M271.506,648.39L273.334,648.39" style="fill:none;fill-rule:nonzero;stroke:black;stroke-width:0.72px;"/>
    </g>
    <g transform="matrix(1.00048,0.881374,0.881374,-1.00048,-545.43,590.503)">
        <path d="M273.59,650.38L274.71,650.38" style="fill:none;fill-rule:nonzero;stroke:black;stroke-width:0.72px;"/>
    </g>
    <g transform="matrix(1.00544,0.875708,0.875708,-1.00544,-544.283,593.111)">
        <path d="M275.679,652.375L276.091,652.375" style="fill:none;fill-rule:nonzero;stroke:black;stroke-width:0.72px;"/>
    </g>
    <g transform="matrix(0,1.33333,1.33333,0,-669.374,-233.147)">
        <path d="M242.52,707.88L264.36,707.88" style="fill:none;fill-rule:nonzero;stroke:black;stroke-width:0.72px;"/>
    </g>
    <g transform="matrix(-0.314133,1.2958,1.2958,0.314133,-554.172,-434.537)">
        <path d="M249.139,701.853L257.289,701.853L250.044,698.121L250.991,700.326L249.139,701.853Z" style="stroke:black;stroke-width:0.72px;"/>
    </g>
    <g transform="matrix(-1.33333,0,0,1.33333,412.386,-678.107)">
        <path d="M163.44,647.52L193.44,647.52" style="fill:none;fill-rule:nonzero;stroke:black;stroke-width:0.72px;"/>
    </g>
    <g transform="matrix(-1.2958,-0.314133,-0.314133,1.2958,580.071,-601.217)">
        <path d="M163.099,648.453L171.249,648.453L164.004,644.721L164.951,646.926L163.099,648.453Z" style="stroke:black;stroke-width:0.72px;"/>
    </g>
    <g transform="matrix(1.33333,0,0,1.33333,-63.4539,-676.827)">
        <path d="M99.84,647.04L119.76,647.04" style="fill:none;fill-rule:nonzero;stroke:black;stroke-width:0.72px;"/>
    </g>
    <g transform="matrix(1.33333,0,0,1.33333,-63.4539,-685.787)">
        <path d="M99.84,650.4L119.76,650.4" style="fill:none;fill-rule:nonzero;stroke:black;stroke-width:0.72px;"/>
    </g>
    <g transform="matrix(-0.666796,-1.15463,-1.15463,0.666796,885.265,-149.635)">
        <path d="M89.446,654.72L103.304,654.72" style="fill:none;fill-rule:nonzero;stroke:black;stroke-width:0.72px;"/>
    </g>
    <g transform="matrix(-0.666871,1.15458,1.15458,0.666871,-612.757,-354.951)">
        <path d="M93.811,645.24L101.849,645.24" style="fill:none;fill-rule:nonzero;stroke:black;stroke-width:0.72px;"/>
    </g>
    <g transform="matrix(0.666796,1.15463,1.15463,-0.666796,-723.421,477.938)">
        <path d="M116.296,642.72L130.154,642.72" style="fill:none;fill-rule:nonzero;stroke:black;stroke-width:0.72px;"/>
    </g>
    <g transform="matrix(0.666796,-1.15463,-1.15463,-0.666796,774.637,754.497)">
        <path d="M116.296,654.72L130.154,654.72" style="fill:none;fill-rule:nonzero;stroke:black;stroke-width:0.72px;"/>
    </g>
    <g transform="matrix(0,1.33333,1.33333,0,-530.654,-94.4267)">
        <path d="M242.4,603.84L264.48,603.84" style="fill:none;fill-rule:nonzero;stroke:black;stroke-width:0.72px;"/>
    </g>
    <g transform="matrix(-0.314133,1.2958,1.2958,0.314133,-419.202,-262.936)">
        <path d="M249.139,597.693L257.289,597.693L250.044,593.961L250.991,596.166L249.139,597.693Z" style="stroke:black;stroke-width:0.72px;"/>
    </g>
    <g transform="matrix(-1.02493,0.852815,0.852815,1.02493,3.06927,-408.897)">
        <path d="M217.448,537.545L227.752,537.545" style="fill:none;fill-rule:nonzero;stroke:black;stroke-width:0.72px;"/>
    </g>
    <g transform="matrix(0,-1.33333,-1.33333,0,971.826,621.973)">
        <path d="M220.86,548.22L235.62,548.22" style="fill:none;fill-rule:nonzero;stroke:black;stroke-width:0.72px;"/>
    </g>
    <g transform="matrix(0,-1.33333,-1.33333,0,967.346,617.493)">
        <path d="M217.5,548.22L232.26,548.22" style="fill:none;fill-rule:nonzero;stroke:black;stroke-width:0.72px;"/>
    </g>
    <g transform="matrix(1.31282,-0.23301,-0.23301,-1.31282,68.7884,1096.14)">
        <path d="M226.163,545.35L277.777,545.35" style="fill:none;fill-rule:nonzero;stroke:black;stroke-width:0.72px;"/>
    </g>
    <g transform="matrix(0.72263,1.12053,1.12053,-0.72263,-500.941,399.935)">
        <path d="M274.922,543.19L288.225,543.19L288.011,544.851L287.803,546.521L274.922,543.19Z" style="stroke:black;stroke-width:0.24px;"/>
    </g>
    <g transform="matrix(-0.0107366,-1.33329,-1.33329,0.0107366,1051.52,670.138)">
        <path d="M270.495,556.69L284.155,556.69" style="fill:none;fill-rule:nonzero;stroke:black;stroke-width:0.72px;"/>
    </g>
    <g transform="matrix(1.00623,0.874803,0.874803,-1.00623,-448.361,636.043)">
        <path d="M267.802,540.735L271.048,540.735" style="fill:none;fill-rule:nonzero;stroke:black;stroke-width:0.72px;"/>
    </g>
    <g transform="matrix(1.00603,0.875035,0.875035,-1.00603,-449.605,633.702)">
        <path d="M269.888,542.725L272.432,542.725" style="fill:none;fill-rule:nonzero;stroke:black;stroke-width:0.72px;"/>
    </g>
    <g transform="matrix(1.00614,0.874905,0.874905,-1.00614,-450.732,631.627)">
        <path d="M271.986,544.71L273.814,544.71" style="fill:none;fill-rule:nonzero;stroke:black;stroke-width:0.72px;"/>
    </g>
    <g transform="matrix(1.00048,0.881374,0.881374,-1.00048,-453.889,624.59)">
        <path d="M274.07,546.7L275.19,546.7" style="fill:none;fill-rule:nonzero;stroke:black;stroke-width:0.72px;"/>
    </g>
    <g transform="matrix(1.00544,0.875708,0.875708,-1.00544,-453.333,626.686)">
        <path d="M276.159,548.695L276.571,548.695" style="fill:none;fill-rule:nonzero;stroke:black;stroke-width:0.72px;"/>
    </g>
    <g transform="matrix(-1.33333,0,0,1.33333,414.306,-407.387)">
        <path d="M164.16,546L194.16,546" style="fill:none;fill-rule:nonzero;stroke:black;stroke-width:0.72px;"/>
    </g>
    <g transform="matrix(-1.2958,-0.314133,-0.314133,1.2958,550.073,-334.081)">
        <path d="M163.819,546.933L171.969,546.933L164.724,543.201L165.671,545.406L163.819,546.933Z" style="stroke:black;stroke-width:0.72px;"/>
    </g>
    <g transform="matrix(1.33333,0,0,1.33333,-63.4539,-388.187)">
        <path d="M100.56,538.8L120.48,538.8" style="fill:none;fill-rule:nonzero;stroke:black;stroke-width:0.72px;"/>
    </g>
    <g transform="matrix(1.33333,0,0,1.33333,-63.4539,-397.147)">
        <path d="M100.56,542.16L120.48,542.16" style="fill:none;fill-rule:nonzero;stroke:black;stroke-width:0.72px;"/>
    </g>
    <g transform="matrix(-0.666796,-1.15463,-1.15463,0.666796,761.729,67.6909)">
        <path d="M90.166,546.48L104.024,546.48" style="fill:none;fill-rule:nonzero;stroke:black;stroke-width:0.72px;"/>
    </g>
    <g transform="matrix(-0.666796,1.15463,1.15463,0.666796,-486.376,-132.524)">
        <path d="M90.166,534.48L104.024,534.48" style="fill:none;fill-rule:nonzero;stroke:black;stroke-width:0.72px;"/>
    </g>
    <g transform="matrix(0.666796,1.15463,1.15463,-0.666796,-597.964,549.253)">
        <path d="M117.016,534.48L130.874,534.48" style="fill:none;fill-rule:nonzero;stroke:black;stroke-width:0.72px;"/>
    </g>
    <g transform="matrix(0.666796,-1.15463,-1.15463,-0.666796,650.14,827.474)">
        <path d="M117.016,546.48L130.874,546.48" style="fill:none;fill-rule:nonzero;stroke:black;stroke-width:0.72px;"/>
    </g>
    <g transform="matrix(1.07059,0.794747,0.794747,-1.07059,-395.418,870.205)">
        <path d="M69.882,442.944L84.529,442.944L84.333,444.617L84.143,446.282L69.882,442.944Z" style="stroke:black;stroke-width:0.24px;"/>
    </g>
    <g transform="matrix(0,-1.33333,-1.33333,0,638.286,536.633)">
        <path d="M63.825,455.145L78.495,455.145" style="fill:none;fill-rule:nonzero;stroke:black;stroke-width:0.72px;"/>
    </g>
    <g transform="matrix(0.666766,1.15464,1.15464,-0.666766,-533.087,685.962)">
        <path d="M57.82,441.06L61.1,441.06" style="fill:none;fill-rule:nonzero;stroke:black;stroke-width:0.72px;"/>
    </g>
    <g transform="matrix(0.668048,1.1539,1.1539,-0.668048,-532.836,683.051)">
        <path d="M60.433,442.38L63.067,442.38" style="fill:none;fill-rule:nonzero;stroke:black;stroke-width:0.72px;"/>
    </g>
    <g transform="matrix(0.667259,1.15436,1.15436,-0.667259,-532.981,679.154)">
        <path d="M63.041,443.695L65.039,443.695" style="fill:none;fill-rule:nonzero;stroke:black;stroke-width:0.72px;"/>
    </g>
    <g transform="matrix(0.665731,1.15524,1.15524,-0.665731,-533.283,674.902)">
        <path d="M65.639,445.02L67.001,445.02" style="fill:none;fill-rule:nonzero;stroke:black;stroke-width:0.72px;"/>
    </g>
    <g transform="matrix(0.669514,1.15305,1.15305,-0.669514,-532.562,673.213)">
        <path d="M68.252,446.34L68.968,446.34" style="fill:none;fill-rule:nonzero;stroke:black;stroke-width:0.72px;"/>
    </g>
    <g transform="matrix(0.596285,1.19257,1.19257,-0.596285,-545.066,634.119)">
        <path d="M70.861,447.66L70.929,447.66" style="fill:none;fill-rule:nonzero;stroke:black;stroke-width:0.72px;"/>
    </g>
    <g transform="matrix(0,1.33333,1.33333,0,-486.647,277.74)">
        <path d="M123.005,447.775L137.755,447.775" style="fill:none;fill-rule:nonzero;stroke:black;stroke-width:0.72px;"/>
    </g>
    <g transform="matrix(0,1.33333,1.33333,0,-482.167,273.26)">
        <path d="M126.365,447.775L141.115,447.775" style="fill:none;fill-rule:nonzero;stroke:black;stroke-width:0.72px;"/>
    </g>
    <g transform="matrix(1.22341,-0.530143,-0.530143,-1.22341,195.422,1071.69)">
        <path d="M130.875,458.195L145.588,458.195L145.394,459.859L145.204,461.533L130.875,458.195Z" style="stroke:black;stroke-width:0.24px;"/>
    </g>
    <g transform="matrix(-0.666766,1.15464,1.15464,0.666766,-355.885,-14.1946)">
        <path d="M118.78,461.86L122.06,461.86" style="fill:none;fill-rule:nonzero;stroke:black;stroke-width:0.72px;"/>
    </g>
    <g transform="matrix(-0.668048,1.1539,1.1539,0.668048,-349.282,-14.6983)">
        <path d="M121.393,460.54L124.027,460.54" style="fill:none;fill-rule:nonzero;stroke:black;stroke-width:0.72px;"/>
    </g>
    <g transform="matrix(-0.662239,1.15725,1.15725,0.662239,-345.453,-12.4532)">
        <path d="M123.998,459.225L125.992,459.225" style="fill:none;fill-rule:nonzero;stroke:black;stroke-width:0.72px;"/>
    </g>
    <g transform="matrix(-0.662583,1.15705,1.15705,0.662583,-339.222,-12.6018)">
        <path d="M126.611,457.905L127.959,457.905" style="fill:none;fill-rule:nonzero;stroke:black;stroke-width:0.72px;"/>
    </g>
    <g transform="matrix(-0.663559,1.15649,1.15649,0.663559,-332.762,-12.9784)">
        <path d="M129.213,456.585L129.917,456.585" style="fill:none;fill-rule:nonzero;stroke:black;stroke-width:0.72px;"/>
    </g>
    <g transform="matrix(-0.685994,1.14332,1.14332,0.685994,-317.711,-21.4689)">
        <path d="M131.826,455.265L131.884,455.265" style="fill:none;fill-rule:nonzero;stroke:black;stroke-width:0.72px;"/>
    </g>
    <g transform="matrix(1.33333,0,0,1.33333,-63.4539,-161.947)">
        <path d="M78,455.52L80.64,454.8L83.52,453.84L86.64,453.36L89.76,452.64L95.04,452.16L106.32,452.16L111.84,452.88L116.88,453.84L121.44,455.04L123.36,455.76" style="fill:none;fill-rule:nonzero;stroke:black;stroke-width:0.48px;"/>
    </g>
    <g transform="matrix(1.16003,0.65735,0.65735,-1.16003,-341.351,891.49)">
        <path d="M115.56,454.437L123.835,454.437L116.618,450.622L117.46,453.031L115.56,454.437Z" style="stroke:black;stroke-width:0.48px;"/>
    </g>
    <g transform="matrix(1.33333,0,0,1.33333,-63.4539,-153.947)">
        <path d="M164.16,450.96L198.24,450.96" style="fill:none;fill-rule:nonzero;stroke:black;stroke-width:0.72px;"/>
    </g>
    <g transform="matrix(1.2958,0.314133,0.314133,-1.2958,-197.823,970.658)">
        <path d="M189.979,451.893L198.129,451.893L190.884,448.161L191.831,450.366L189.979,451.893Z" style="stroke:black;stroke-width:0.72px;"/>
    </g>
    <g transform="matrix(1.06975,0.795877,0.795877,-1.06975,-351.665,747.187)">
        <path d="M225.292,438.869L239.8,438.869L239.603,440.541L239.411,442.206L225.292,438.869Z" style="stroke:black;stroke-width:0.24px;"/>
    </g>
    <g transform="matrix(0,-1.33333,-1.33333,0,840.026,749.293)">
        <path d="M219.21,451.05L233.91,451.05" style="fill:none;fill-rule:nonzero;stroke:black;stroke-width:0.72px;"/>
    </g>
    <g transform="matrix(0.666766,1.15464,1.15464,-0.666766,-424.757,509.085)">
        <path d="M213.34,437.02L216.62,437.02" style="fill:none;fill-rule:nonzero;stroke:black;stroke-width:0.72px;"/>
    </g>
    <g transform="matrix(0.668048,1.1539,1.1539,-0.668048,-424.709,506.284)">
        <path d="M215.953,438.34L218.587,438.34" style="fill:none;fill-rule:nonzero;stroke:black;stroke-width:0.72px;"/>
    </g>
    <g transform="matrix(0.665133,1.15558,1.15558,-0.665133,-424.811,501.118)">
        <path d="M218.563,439.66L220.547,439.66" style="fill:none;fill-rule:nonzero;stroke:black;stroke-width:0.72px;"/>
    </g>
    <g transform="matrix(0.666871,1.15458,1.15458,-0.666871,-424.75,498.578)">
        <path d="M221.175,440.98L222.515,440.98" style="fill:none;fill-rule:nonzero;stroke:black;stroke-width:0.72px;"/>
    </g>
    <g transform="matrix(0.65735,1.16003,1.16003,-0.65735,-425.027,489.629)">
        <path d="M223.785,442.3L224.475,442.3" style="fill:none;fill-rule:nonzero;stroke:black;stroke-width:0.72px;"/>
    </g>
    <g transform="matrix(0.596285,1.19257,1.19257,-0.596285,-425.626,451.634)">
        <path d="M226.388,443.62L226.432,443.62" style="fill:none;fill-rule:nonzero;stroke:black;stroke-width:0.72px;"/>
    </g>
    <g transform="matrix(0,1.33333,1.33333,0,-287.427,84.96)">
        <path d="M270.02,445.36L284.74,445.36" style="fill:none;fill-rule:nonzero;stroke:black;stroke-width:0.72px;"/>
    </g>
    <g transform="matrix(1.22401,-0.528757,-0.528757,-1.22401,209.278,1148.85)">
        <path d="M276.205,455.729L290.781,455.729L290.588,457.403L290.392,459.067L276.205,455.729Z" style="stroke:black;stroke-width:0.24px;"/>
    </g>
    <g transform="matrix(-0.665009,1.15566,1.15566,0.665009,-63.6838,-176.6)">
        <path d="M263.976,459.505L267.264,459.505" style="fill:none;fill-rule:nonzero;stroke:black;stroke-width:0.72px;"/>
    </g>
    <g transform="matrix(-0.66586,1.15517,1.15517,0.66586,-57.1297,-176.868)">
        <path d="M266.588,458.185L269.232,458.185" style="fill:none;fill-rule:nonzero;stroke:black;stroke-width:0.72px;"/>
    </g>
    <g transform="matrix(-0.672242,1.15146,1.15146,0.672242,-47.6209,-178.784)">
        <path d="M269.193,456.865L271.197,456.865" style="fill:none;fill-rule:nonzero;stroke:black;stroke-width:0.72px;"/>
    </g>
    <g transform="matrix(-0.661519,1.15766,1.15766,0.661519,-47.2617,-175.57)">
        <path d="M271.795,455.545L273.165,455.545" style="fill:none;fill-rule:nonzero;stroke:black;stroke-width:0.72px;"/>
    </g>
    <g transform="matrix(-0.661519,1.15766,1.15766,0.661519,-41.1654,-175.588)">
        <path d="M274.407,454.225L275.133,454.225" style="fill:none;fill-rule:nonzero;stroke:black;stroke-width:0.72px;"/>
    </g>
    <g transform="matrix(-0.774984,1.08498,1.08498,0.774984,29.2741,-206.853)">
        <path d="M277.012,452.905L277.098,452.905" style="fill:none;fill-rule:nonzero;stroke:black;stroke-width:0.72px;"/>
    </g>
    <g transform="matrix(1.31282,-0.23301,-0.23301,-1.31282,46.1537,1098.13)">
        <path d="M226.163,448.21L277.777,448.21" style="fill:none;fill-rule:nonzero;stroke:black;stroke-width:0.72px;"/>
    </g>
    <g transform="matrix(1.33333,0,0,1.33333,-63.4539,-112.667)">
        <path d="M240,418.56L242.88,418.56L244.56,418.8L246.24,419.28L247.92,420L250.8,421.44L252,422.64L253.2,423.6L254.4,425.04L255.36,426.24L256.08,427.68L256.8,429.36L257.52,430.8L257.76,432.48L258,434.4L258,437.28L257.76,438.96L257.28,440.64L256.56,442.32L255.12,445.2L253.92,446.4L252.96,447.6L251.52,448.8L250.32,449.76L248.88,450.48L247.2,451.2L245.76,451.92L244.08,452.16L242.16,452.4L239.28,452.4L237.6,452.16L235.92,451.68L232.56,450.24L231.12,449.28L229.92,448.32L228.72,447.12L227.52,445.68L226.56,444.24L225.84,442.8L225.12,441.12L224.16,437.76L224.16,436.56" style="fill:none;fill-rule:nonzero;stroke:black;stroke-width:0.48px;"/>
    </g>
    <g transform="matrix(1.33333,0,0,1.33333,-63.4539,-165.587)">
        <path d="M306.48,450.72L306.72,454.08L306.72,455.76L306.48,457.44L305.52,460.8L304.8,462.24L303.84,463.68L302.88,464.88L300.48,467.28L299.28,468.24L297.84,469.2L296.4,469.92L293.04,470.88L291.36,471.12L288,471.12L286.32,470.88L282.96,469.92L281.52,469.2L280.08,468.24L278.88,467.28L276.48,464.88L275.52,463.68L274.56,462.24L273.84,460.8L272.88,457.44L272.64,455.76L272.64,451.44L273.12,449.52L273.84,447.84L274.56,445.92L275.52,444.48L276.72,442.8L277.92,441.6L279.36,440.4L281.04,439.2L284.4,437.76L285.6,437.52L286.32,437.28" style="fill:none;fill-rule:nonzero;stroke:black;stroke-width:0.48px;"/>
    </g>
</svg>
