<?xml version="1.0" encoding="UTF-8" standalone="no"?>
<!DOCTYPE svg PUBLIC "-//W3C//DTD SVG 1.1//EN" "http://www.w3.org/Graphics/SVG/1.1/DTD/svg11.dtd">
<svg width="100%" height="100%" viewBox="0 0 390 105" version="1.1" xmlns="http://www.w3.org/2000/svg" xmlns:xlink="http://www.w3.org/1999/xlink" xml:space="preserve" xmlns:serif="http://www.serif.com/" style="fill-rule:evenodd;clip-rule:evenodd;stroke-linecap:round;stroke-linejoin:round;stroke-miterlimit:10;">
    <g transform="matrix(1.33333,0,0,1.33333,-51.5411,-716.14)">
        <text x="66.72px" y="605.76px" style="font-family:'ArialMT', 'Arial', sans-serif;font-size:10px;">O</text>
    </g>
    <g transform="matrix(1.33333,0,0,1.33333,-51.5411,-716.14)">
        <text x="180.72px" y="608.4px" style="font-family:'ArialMT', 'Arial', sans-serif;font-size:10px;">O</text>
    </g>
    <g transform="matrix(1.33333,0,0,1.33333,-51.5411,-716.14)">
        <text x="171.12px" y="547.92px" style="font-family:'ArialMT', 'Arial', sans-serif;font-size:10px;">CH</text>
        <text x="185.52px" y="550.56px" style="font-family:'ArialMT', 'Arial', sans-serif;font-size:8px;">2</text>
        <text x="190.8px" y="548.4px" style="font-family:'ArialMT', 'Arial', sans-serif;font-size:10px;">CH</text>
        <text x="205.2px" y="551.04px" style="font-family:'ArialMT', 'Arial', sans-serif;font-size:8px;">2</text>
        <text x="225.12px" y="581.28px" style="font-family:'ArialMT', 'Arial', sans-serif;font-size:18px;">+</text>
    </g>
    <g transform="matrix(1.33333,0,0,1.33333,-51.5411,-716.14)">
        <text x="271.2px" y="556.08px" style="font-family:'ArialMT', 'Arial', sans-serif;font-size:10px;">L</text>
        <text x="271.44px" y="599.28px" style="font-family:'ArialMT', 'Arial', sans-serif;font-size:10px;">L</text>
    </g>
    <g transform="matrix(1.33333,0,0,1.33333,-51.5411,-716.14)">
        <text x="270px" y="576.48px" style="font-family:'ArialMT', 'Arial', sans-serif;font-size:10px;">Ru</text>
    </g>
    <g transform="matrix(1.33333,0,0,1.33333,-51.5411,-716.14)">
        <text x="311.04px" y="585.6px" style="font-family:'ArialMT', 'Arial', sans-serif;font-size:10px;">Ph</text>
    </g>
    <g transform="matrix(1.33333,0,0,1.33333,-51.5411,-716.14)">
        <text x="248.88px" y="562.8px" style="font-family:'ArialMT', 'Arial', sans-serif;font-size:10px;">Cl</text>
    </g>
    <g transform="matrix(1.33333,0,0,1.33333,-51.5411,-716.14)">
        <text x="250.56px" y="591.36px" style="font-family:'ArialMT', 'Arial', sans-serif;font-size:10px;">Cl</text>
    </g>
    <g transform="matrix(-0.844062,-1.03215,-1.03215,0.844062,421.552,-105.586)">
        <path d="M76.435,276.1L96.355,276.1" style="fill:none;fill-rule:nonzero;stroke:black;stroke-width:0.72px;"/>
    </g>
    <g transform="matrix(1.33324,-0.0160631,-0.0160631,-1.33324,-46.9773,407.519)">
        <path d="M60.169,283.69L80.091,283.69" style="fill:none;fill-rule:nonzero;stroke:black;stroke-width:0.72px;"/>
    </g>
    <g transform="matrix(1.33323,-0.016223,-0.016223,-1.33323,-46.9864,407.531)">
        <path d="M61.129,280.33L79.211,280.33" style="fill:none;fill-rule:nonzero;stroke:black;stroke-width:0.72px;"/>
    </g>
    <g transform="matrix(0.281155,-1.30335,-1.30335,-0.281155,380.905,252.353)">
        <path d="M80.641,258.655L100.559,258.655" style="fill:none;fill-rule:nonzero;stroke:black;stroke-width:0.72px;"/>
    </g>
    <g transform="matrix(0.818727,-1.05236,-1.05236,-0.818727,266.423,321.423)">
        <path d="M44.096,275.71L64.014,275.71" style="fill:none;fill-rule:nonzero;stroke:black;stroke-width:0.72px;"/>
    </g>
    <g transform="matrix(1.19405,-0.593321,-0.593321,-1.19405,105.675,420.877)">
        <path d="M74.848,245.715L89.252,245.715" style="fill:none;fill-rule:nonzero;stroke:black;stroke-width:0.72px;"/>
    </g>
    <g transform="matrix(-0.312505,-1.29619,-1.29619,0.312505,365.835,46.6882)">
        <path d="M40.312,258.165L60.238,258.165" style="fill:none;fill-rule:nonzero;stroke:black;stroke-width:0.72px;"/>
    </g>
    <g transform="matrix(-1.20813,-0.564099,-0.564099,1.20813,237.311,-183.894)">
        <path d="M51.929,245.41L66.441,245.41" style="fill:none;fill-rule:nonzero;stroke:black;stroke-width:0.72px;"/>
    </g>
    <g transform="matrix(1.33333,0,0,1.33333,-51.5411,-300.78)">
        <path d="M107.76,265.2L141.84,265.2" style="fill:none;fill-rule:nonzero;stroke:black;stroke-width:0.72px;"/>
    </g>
    <g transform="matrix(1.33333,0,0,1.33333,-51.5411,-308.46)">
        <path d="M107.76,268.08L141.84,268.08" style="fill:none;fill-rule:nonzero;stroke:black;stroke-width:0.72px;"/>
    </g>
    <g transform="matrix(1.33333,0,0,1.33333,-51.5411,-304.62)">
        <path d="M137.28,263.04L145.2,266.64L137.28,270.24" style="fill:none;fill-rule:nonzero;stroke:black;stroke-width:0.72px;"/>
    </g>
    <g transform="matrix(-0.837814,-1.03723,-1.03723,0.837814,667.788,21.0541)">
        <path d="M190.748,273.38L210.672,273.38" style="fill:none;fill-rule:nonzero;stroke:black;stroke-width:0.72px;"/>
    </g>
    <g transform="matrix(0.287823,-1.3019,-1.3019,-0.287823,495.762,405.523)">
        <path d="M194.86,255.905L214.78,255.905" style="fill:none;fill-rule:nonzero;stroke:black;stroke-width:0.72px;"/>
    </g>
    <g transform="matrix(0.824412,-1.04791,-1.04791,-0.824412,320.394,443.84)">
        <path d="M158.407,273.16L178.333,273.16" style="fill:none;fill-rule:nonzero;stroke:black;stroke-width:0.72px;"/>
    </g>
    <g transform="matrix(1.19748,-0.586369,-0.586369,-1.19748,117.581,488.417)">
        <path d="M188.859,242.98L203.411,242.98" style="fill:none;fill-rule:nonzero;stroke:black;stroke-width:0.72px;"/>
    </g>
    <g transform="matrix(-0.305871,-1.29778,-1.29778,0.305871,549.857,200.86)">
        <path d="M154.534,255.635L174.456,255.635" style="fill:none;fill-rule:nonzero;stroke:black;stroke-width:0.72px;"/>
    </g>
    <g transform="matrix(-1.20529,-0.570143,-0.570143,1.20529,526.796,-111.346)">
        <path d="M166.091,242.87L180.449,242.87" style="fill:none;fill-rule:nonzero;stroke:black;stroke-width:0.72px;"/>
    </g>
    <g transform="matrix(0.0146759,-1.33325,-1.33325,-0.0146759,561.193,260.883)">
        <path d="M168.69,286.895L180.5,286.895" style="fill:none;fill-rule:nonzero;stroke:black;stroke-width:0.72px;"/>
    </g>
    <g transform="matrix(0.0147258,-1.33325,-1.33325,-0.0147258,556.781,256.391)">
        <path d="M165.35,286.915L177.12,286.915" style="fill:none;fill-rule:nonzero;stroke:black;stroke-width:0.72px;"/>
    </g>
    <g transform="matrix(-0.00476613,-1.33332,-1.33332,0.00476613,590.923,281.992)">
        <path d="M188.835,286.725L200.025,286.725" style="fill:none;fill-rule:nonzero;stroke:black;stroke-width:0.72px;"/>
    </g>
    <g transform="matrix(-0.00477039,-1.33332,-1.33332,0.00477039,595.427,286.464)">
        <path d="M192.2,286.73L203.38,286.73" style="fill:none;fill-rule:nonzero;stroke:black;stroke-width:0.72px;"/>
    </g>
    <g transform="matrix(1.33333,0,0,1.33333,-51.5411,-312.3)">
        <path d="M283.68,269.52L298.56,269.52" style="fill:none;fill-rule:nonzero;stroke:black;stroke-width:0.72px;"/>
    </g>
    <g transform="matrix(1.33333,0,0,1.33333,-51.5411,-303.34)">
        <path d="M283.68,266.16L298.56,266.16" style="fill:none;fill-rule:nonzero;stroke:black;stroke-width:0.72px;"/>
    </g>
    <g transform="matrix(1.15561,0.66508,0.66508,-1.15561,-174.506,156.713)">
        <path d="M297.674,266.205L310.966,266.205" style="fill:none;fill-rule:nonzero;stroke:black;stroke-width:0.72px;"/>
    </g>
    <g transform="matrix(-0.856425,1.02192,1.02192,0.856425,232.099,-474.069)">
        <path d="M258.844,280.545L262.066,280.545" style="fill:none;fill-rule:nonzero;stroke:black;stroke-width:0.72px;"/>
    </g>
    <g transform="matrix(-0.858349,1.0203,1.0203,0.858349,239.215,-472.523)">
        <path d="M261.24,278.845L263.71,278.845" style="fill:none;fill-rule:nonzero;stroke:black;stroke-width:0.72px;"/>
    </g>
    <g transform="matrix(-0.861256,1.01785,1.01785,0.861256,246.831,-471.031)">
        <path d="M263.649,277.15L265.351,277.15" style="fill:none;fill-rule:nonzero;stroke:black;stroke-width:0.72px;"/>
    </g>
    <g transform="matrix(-0.84662,1.03005,1.03005,0.84662,245.726,-468.589)">
        <path d="M266.048,275.455L266.992,275.455" style="fill:none;fill-rule:nonzero;stroke:black;stroke-width:0.72px;"/>
    </g>
    <g transform="matrix(-0.867722,1.01234,1.01234,0.867722,262.392,-467.995)">
        <path d="M268.448,273.76L268.632,273.76" style="fill:none;fill-rule:nonzero;stroke:black;stroke-width:0.72px;"/>
    </g>
    <g transform="matrix(-1.06442,0.802985,0.802985,1.06442,373.62,-430.029)">
        <path d="M258.06,259.337L269.484,259.337L269.231,260.994L268.984,262.658L258.06,259.337Z" style="stroke:black;stroke-width:0.24px;"/>
    </g>
    <g transform="matrix(-0.0269786,-1.33306,-1.33306,0.0269786,662.238,423.34)">
        <path d="M269.684,255.96L278.086,255.96" style="fill:none;fill-rule:nonzero;stroke:black;stroke-width:0.72px;stroke-dasharray:2.16,1.44;"/>
    </g>
    <g transform="matrix(1.33333,0,0,1.33333,-51.5411,-292.753)">
        <path d="M273.71,260.14L272.6,264.24L275,264.19L273.71,260.14Z" style="stroke:black;stroke-width:0.24px;"/>
    </g>
    <g transform="matrix(-0.0155545,1.33324,1.33324,0.0155545,-57.7842,-338.449)">
        <path d="M270.745,281.64L276.745,281.64" style="fill:none;fill-rule:nonzero;stroke:black;stroke-width:0.72px;stroke-dasharray:2.16,1.44;"/>
    </g>
    <g transform="matrix(1.33333,0,0,1.33333,-51.5411,-331.193)">
        <path d="M273.66,278.65L274.91,274.58L272.51,274.56L273.66,278.65Z" style="stroke:black;stroke-width:0.24px;"/>
    </g>
</svg>
