<?xml version="1.0" encoding="UTF-8" standalone="no"?>
<!DOCTYPE svg PUBLIC "-//W3C//DTD SVG 1.1//EN" "http://www.w3.org/Graphics/SVG/1.1/DTD/svg11.dtd">
<svg width="100%" height="100%" viewBox="0 0 495 280" version="1.1" xmlns="http://www.w3.org/2000/svg" xmlns:xlink="http://www.w3.org/1999/xlink" xml:space="preserve" xmlns:serif="http://www.serif.com/" style="fill-rule:evenodd;clip-rule:evenodd;stroke-linecap:round;stroke-linejoin:round;stroke-miterlimit:10;">
    <g transform="matrix(1.33333,0,0,1.33333,-76.04,-102.369)">
        <text x="64.8px" y="156px" style="font-family:'ArialMT', 'Arial', sans-serif;font-size:10px;">H</text>
        <text x="64.8px" y="190.32px" style="font-family:'ArialMT', 'Arial', sans-serif;font-size:10px;">R</text>
    </g>
    <g transform="matrix(1.33333,0,0,1.33333,-76.04,-102.369)">
        <text x="104.64px" y="190.32px" style="font-family:'ArialMT', 'Arial', sans-serif;font-size:10px;">H</text>
    </g>
    <g transform="matrix(1.33333,0,0,1.33333,-76.04,-102.369)">
        <text x="104.64px" y="156px" style="font-family:'ArialMT', 'Arial', sans-serif;font-size:10px;">R</text>
        <text x="112.08px" y="149.04px" style="font-family:'ArialMT', 'Arial', sans-serif;font-size:8px;">1</text>
    </g>
    <g transform="matrix(1.33333,0,0,1.33333,-76.04,-102.369)">
        <text x="181.2px" y="155.28px" style="font-family:'ArialMT', 'Arial', sans-serif;font-size:10px;">CH</text>
        <text x="195.6px" y="157.92px" style="font-family:'ArialMT', 'Arial', sans-serif;font-size:8px;">3</text>
    </g>
    <g transform="matrix(1.33333,0,0,1.33333,-76.04,-102.369)">
        <text x="163.68px" y="85.44px" style="font-family:'ArialMT', 'Arial', sans-serif;font-size:10px;">O</text>
    </g>
    <g transform="matrix(1.33333,0,0,1.33333,-76.04,-102.369)">
        <text x="129.36px" y="85.44px" style="font-family:'ArialMT', 'Arial', sans-serif;font-size:10px;">O</text>
    </g>
    <g transform="matrix(1.33333,0,0,1.33333,-76.04,-102.369)">
        <text x="180.96px" y="95.28px" style="font-family:'ArialMT', 'Arial', sans-serif;font-size:10px;">O<tspan x="188.88px " y="95.28px ">H</tspan></text>
    </g>
    <g transform="matrix(1.33333,0,0,1.33333,-76.04,-102.369)">
        <text x="211.44px" y="154.56px" style="font-family:'ArialMT', 'Arial', sans-serif;font-size:10px;">H</text>
        <text x="211.44px" y="188.88px" style="font-family:'ArialMT', 'Arial', sans-serif;font-size:10px;">R</text>
    </g>
    <g transform="matrix(1.33333,0,0,1.33333,-76.04,-102.369)">
        <text x="251.28px" y="188.88px" style="font-family:'ArialMT', 'Arial', sans-serif;font-size:10px;">H</text>
    </g>
    <g transform="matrix(1.33333,0,0,1.33333,-76.04,-102.369)">
        <text x="251.28px" y="154.56px" style="font-family:'ArialMT', 'Arial', sans-serif;font-size:10px;">R</text>
        <text x="258.72px" y="147.6px" style="font-family:'ArialMT', 'Arial', sans-serif;font-size:8px;">1</text>
    </g>
    <g transform="matrix(1.33333,0,0,1.33333,-76.04,-102.369)">
        <text x="231.12px" y="154.56px" style="font-family:'ArialMT', 'Arial', sans-serif;font-size:10px;">O</text>
    </g>
    <g transform="matrix(1.33333,0,0,1.33333,-76.04,-102.369)">
        <text x="244.56px" y="218.4px" style="font-family:'ArialMT', 'Arial', sans-serif;font-size:10px;">PP</text>
        <text x="258px" y="218.4px" style="font-family:'ArialMT', 'Arial', sans-serif;font-size:10px;">h</text>
        <text x="263.76px" y="221.04px" style="font-family:'ArialMT', 'Arial', sans-serif;font-size:8px;">3</text>
    </g>
    <g transform="matrix(1.33333,0,0,1.33333,-76.04,-102.369)">
        <text x="319.44px" y="184.56px" style="font-family:'ArialMT', 'Arial', sans-serif;font-size:10px;">H</text>
        <text x="337.92px" y="189.6px" style="font-family:'ArialMT', 'Arial', sans-serif;font-size:10px;">R</text>
    </g>
    <g transform="matrix(1.33333,0,0,1.33333,-76.04,-102.369)">
        <text x="372px" y="158.64px" style="font-family:'ArialMT', 'Arial', sans-serif;font-size:10px;">H</text>
    </g>
    <g transform="matrix(1.33333,0,0,1.33333,-76.04,-102.369)">
        <text x="347.76px" y="155.52px" style="font-family:'ArialMT', 'Arial', sans-serif;font-size:10px;">R</text>
        <text x="355.2px" y="148.56px" style="font-family:'ArialMT', 'Arial', sans-serif;font-size:8px;">1</text>
    </g>
    <g transform="matrix(1.33333,0,0,1.33333,-76.04,-102.369)">
        <text x="327.6px" y="151.92px" style="font-family:'ArialMT', 'Arial', sans-serif;font-size:10px;">O</text>
        <text x="335.52px" y="144.96px" style="font-family:'ArialMT', 'Arial', sans-serif;font-size:8px;">–</text>
    </g>
    <g transform="matrix(1.33333,0,0,1.33333,-76.04,-102.369)">
        <text x="360.96px" y="188.4px" style="font-family:'ArialMT', 'Arial', sans-serif;font-size:10px;">PP</text>
        <text x="374.4px" y="188.4px" style="font-family:'ArialMT', 'Arial', sans-serif;font-size:10px;">h</text>
        <text x="380.16px" y="191.04px" style="font-family:'ArialMT', 'Arial', sans-serif;font-size:8px;">3</text>
    </g>
    <g transform="matrix(1.33333,0,0,1.33333,-76.04,-102.369)">
        <text x="112.08px" y="276.72px" style="font-family:'ArialMT', 'Arial', sans-serif;font-size:10px;">H</text>
        <text x="130.56px" y="281.76px" style="font-family:'ArialMT', 'Arial', sans-serif;font-size:10px;">R</text>
    </g>
    <g transform="matrix(1.33333,0,0,1.33333,-76.04,-102.369)">
        <text x="140.64px" y="278.88px" style="font-family:'ArialMT', 'Arial', sans-serif;font-size:10px;">H</text>
        <text x="157.68px" y="278.4px" style="font-family:'ArialMT', 'Arial', sans-serif;font-size:10px;">R</text>
        <text x="165.12px" y="271.44px" style="font-family:'ArialMT', 'Arial', sans-serif;font-size:8px;">1</text>
    </g>
    <g transform="matrix(1.33333,0,0,1.33333,-76.04,-102.369)">
        <text x="120.24px" y="244.08px" style="font-family:'ArialMT', 'Arial', sans-serif;font-size:10px;">O</text>
        <text x="128.16px" y="237.12px" style="font-family:'ArialMT', 'Arial', sans-serif;font-size:8px;">–</text>
    </g>
    <g transform="matrix(1.33333,0,0,1.33333,-76.04,-102.369)">
        <text x="155.04px" y="237.12px" style="font-family:'ArialMT', 'Arial', sans-serif;font-size:10px;">PP</text>
        <text x="168.48px" y="237.12px" style="font-family:'ArialMT', 'Arial', sans-serif;font-size:10px;">h</text>
        <text x="174.24px" y="239.76px" style="font-family:'ArialMT', 'Arial', sans-serif;font-size:8px;">3</text>
    </g>
    <g transform="matrix(1.33333,0,0,1.33333,-76.04,-102.369)">
        <text x="229.44px" y="241.92px" style="font-family:'ArialMT', 'Arial', sans-serif;font-size:10px;">H</text>
        <text x="229.44px" y="276.24px" style="font-family:'ArialMT', 'Arial', sans-serif;font-size:10px;">R</text>
    </g>
    <g transform="matrix(1.33333,0,0,1.33333,-76.04,-102.369)">
        <text x="269.28px" y="276.24px" style="font-family:'ArialMT', 'Arial', sans-serif;font-size:10px;">R</text>
        <text x="276.72px" y="269.28px" style="font-family:'ArialMT', 'Arial', sans-serif;font-size:8px;">1</text>
    </g>
    <g transform="matrix(1.33333,0,0,1.33333,-76.04,-102.369)">
        <text x="269.28px" y="241.92px" style="font-family:'ArialMT', 'Arial', sans-serif;font-size:10px;">H</text>
    </g>
    <g transform="matrix(1.33333,0,0,1.33333,-76.04,-769.249)">
        <path d="M78.48,671.04L98.4,671.04" style="fill:none;fill-rule:nonzero;stroke:black;stroke-width:0.72px;"/>
    </g>
    <g transform="matrix(1.33333,0,0,1.33333,-76.04,-778.209)">
        <path d="M78.48,674.4L98.4,674.4" style="fill:none;fill-rule:nonzero;stroke:black;stroke-width:0.72px;"/>
    </g>
    <g transform="matrix(-1.15437,0.667241,0.667241,1.15437,-352.513,-728.522)">
        <path d="M70.581,683.575L73.839,683.575" style="fill:none;fill-rule:nonzero;stroke:black;stroke-width:0.72px;"/>
    </g>
    <g transform="matrix(-1.15638,0.663751,0.663751,1.15638,-345.166,-724.834)">
        <path d="M72.249,681.29L74.821,681.29" style="fill:none;fill-rule:nonzero;stroke:black;stroke-width:0.72px;"/>
    </g>
    <g transform="matrix(-1.15196,0.671389,0.671389,1.15196,-345.879,-717.594)">
        <path d="M73.912,679.005L75.798,679.005" style="fill:none;fill-rule:nonzero;stroke:black;stroke-width:0.72px;"/>
    </g>
    <g transform="matrix(-1.15491,0.666297,0.666297,1.15491,-337.406,-714.408)">
        <path d="M75.57,676.72L76.77,676.72" style="fill:none;fill-rule:nonzero;stroke:black;stroke-width:0.72px;"/>
    </g>
    <g transform="matrix(-1.1479,0.678306,0.678306,1.1479,-341.239,-705.791)">
        <path d="M77.234,674.43L77.746,674.43" style="fill:none;fill-rule:nonzero;stroke:black;stroke-width:0.72px;"/>
    </g>
    <g transform="matrix(-0.800611,1.06621,1.06621,0.800611,-627.924,-480.865)">
        <path d="M66.64,665.796L80.596,665.796L80.397,667.46L80.192,669.131L66.64,665.796Z" style="stroke:black;stroke-width:0.24px;"/>
    </g>
    <g transform="matrix(0.522573,1.22666,1.22666,-0.522573,-810.188,354.138)">
        <path d="M95.041,664.961L108.998,664.961L108.797,666.634L108.593,668.297L95.041,664.961Z" style="stroke:black;stroke-width:0.24px;"/>
    </g>
    <g transform="matrix(-1.15437,-0.667241,-0.667241,1.15437,640.457,-610.5)">
        <path d="M103.041,683.575L106.299,683.575" style="fill:none;fill-rule:nonzero;stroke:black;stroke-width:0.72px;"/>
    </g>
    <g transform="matrix(-1.15638,-0.663751,-0.663751,1.15638,633.466,-607.43)">
        <path d="M102.059,681.29L104.631,681.29" style="fill:none;fill-rule:nonzero;stroke:black;stroke-width:0.72px;"/>
    </g>
    <g transform="matrix(-1.15196,-0.671389,-0.671389,1.15196,633.398,-598.838)">
        <path d="M101.082,679.005L102.968,679.005" style="fill:none;fill-rule:nonzero;stroke:black;stroke-width:0.72px;"/>
    </g>
    <g transform="matrix(-1.15491,-0.666297,-0.666297,1.15491,625.448,-596.553)">
        <path d="M100.11,676.72L101.31,676.72" style="fill:none;fill-rule:nonzero;stroke:black;stroke-width:0.72px;"/>
    </g>
    <g transform="matrix(-1.1479,-0.678306,-0.678306,1.1479,628.04,-585.812)">
        <path d="M99.134,674.43L99.646,674.43" style="fill:none;fill-rule:nonzero;stroke:black;stroke-width:0.72px;"/>
    </g>
    <g transform="matrix(1.33333,0,0,1.33333,-76.04,-775.649)">
        <path d="M134.16,673.44L190.8,673.44" style="fill:none;fill-rule:nonzero;stroke:black;stroke-width:0.72px;"/>
    </g>
    <g transform="matrix(1.2958,0.314133,0.314133,-1.2958,-280.577,936.222)">
        <path d="M182.539,674.373L190.689,674.373L183.444,670.641L184.391,672.846L182.539,674.373Z" style="stroke:black;stroke-width:0.72px;"/>
    </g>
    <g transform="matrix(0,1.33333,1.33333,0,-799.92,-150.969)">
        <path d="M157.77,710.64L177.69,710.64" style="fill:none;fill-rule:nonzero;stroke:black;stroke-width:0.72px;"/>
    </g>
    <g transform="matrix(-1.15468,-0.666702,-0.666702,1.15468,803.561,-678.986)">
        <path d="M149.146,725.58L169.064,725.58" style="fill:none;fill-rule:nonzero;stroke:black;stroke-width:0.72px;"/>
    </g>
    <g transform="matrix(-1.15458,-0.666876,-0.666876,1.15458,797.551,-672.766)">
        <path d="M149.128,722.67L165.722,722.67" style="fill:none;fill-rule:nonzero;stroke:black;stroke-width:0.72px;"/>
    </g>
    <g transform="matrix(-1.15468,0.666702,0.666702,1.15468,-144.009,-816.796)">
        <path d="M149.146,695.7L169.064,695.7" style="fill:none;fill-rule:nonzero;stroke:black;stroke-width:0.72px;"/>
    </g>
    <g transform="matrix(-1.15458,0.666876,0.666876,1.15458,-150.267,-822.873)">
        <path d="M149.128,698.61L165.722,698.61" style="fill:none;fill-rule:nonzero;stroke:black;stroke-width:0.72px;"/>
    </g>
    <g transform="matrix(-1.15468,0.666702,0.666702,1.15468,-206.849,-879.637)">
        <path d="M131.896,725.58L151.814,725.58" style="fill:none;fill-rule:nonzero;stroke:black;stroke-width:0.72px;"/>
    </g>
    <g transform="matrix(-1.15468,-0.666702,-0.666702,1.15468,740.722,-616.145)">
        <path d="M131.896,695.7L151.814,695.7" style="fill:none;fill-rule:nonzero;stroke:black;stroke-width:0.72px;"/>
    </g>
    <g transform="matrix(0,1.33333,1.33333,0,-845.92,-104.969)">
        <path d="M123.27,710.64L143.19,710.64" style="fill:none;fill-rule:nonzero;stroke:black;stroke-width:0.72px;"/>
    </g>
    <g transform="matrix(0,1.33333,1.33333,0,-841.44,-109.449)">
        <path d="M128.29,710.64L144.89,710.64" style="fill:none;fill-rule:nonzero;stroke:black;stroke-width:0.72px;"/>
    </g>
    <g transform="matrix(1.15481,0.666483,0.666483,-1.15481,-509.564,779.787)">
        <path d="M166.763,697.07L181.207,697.07" style="fill:none;fill-rule:nonzero;stroke:black;stroke-width:0.72px;"/>
    </g>
    <g transform="matrix(0,-1.33333,-1.33333,0,1111.96,233.471)">
        <path d="M140.52,740.52L160.44,740.52" style="fill:none;fill-rule:nonzero;stroke:black;stroke-width:0.72px;"/>
    </g>
    <g transform="matrix(1.15457,-0.666895,-0.666895,-1.15457,454.804,989.835)">
        <path d="M149.532,754.015L163.668,754.015" style="fill:none;fill-rule:nonzero;stroke:black;stroke-width:0.72px;"/>
    </g>
    <g transform="matrix(-1.15438,-0.667213,-0.667213,1.15438,788.352,-763.204)">
        <path d="M137.226,755.71L152.334,755.71" style="fill:none;fill-rule:nonzero;stroke:black;stroke-width:0.72px;"/>
    </g>
    <g transform="matrix(-1.15478,-0.66653,-0.66653,1.15478,783.543,-755.726)">
        <path d="M137.359,752.32L150.521,752.32" style="fill:none;fill-rule:nonzero;stroke:black;stroke-width:0.72px;"/>
    </g>
    <g transform="matrix(1.15507,0.666028,0.666028,-1.15507,-547.803,768.104)">
        <path d="M171.986,755.505L180.574,755.505" style="fill:none;fill-rule:nonzero;stroke:black;stroke-width:0.72px;"/>
    </g>
    <g transform="matrix(1.33333,0,0,1.33333,-76.04,-777.569)">
        <path d="M225.12,674.16L245.04,674.16" style="fill:none;fill-rule:nonzero;stroke:black;stroke-width:0.72px;"/>
    </g>
    <g transform="matrix(-1.15437,0.667241,0.667241,1.15437,11.3232,-829.948)">
        <path d="M217.221,685.015L220.479,685.015" style="fill:none;fill-rule:nonzero;stroke:black;stroke-width:0.72px;"/>
    </g>
    <g transform="matrix(-1.15638,0.663751,0.663751,1.15638,18.9696,-825.752)">
        <path d="M218.889,682.73L221.461,682.73" style="fill:none;fill-rule:nonzero;stroke:black;stroke-width:0.72px;"/>
    </g>
    <g transform="matrix(-1.15196,0.671389,0.671389,1.15196,17.5974,-819.625)">
        <path d="M220.552,680.445L222.438,680.445" style="fill:none;fill-rule:nonzero;stroke:black;stroke-width:0.72px;"/>
    </g>
    <g transform="matrix(-1.15491,0.666297,0.666297,1.15491,26.5107,-815.697)">
        <path d="M222.21,678.16L223.41,678.16" style="fill:none;fill-rule:nonzero;stroke:black;stroke-width:0.72px;"/>
    </g>
    <g transform="matrix(-1.1479,0.678306,0.678306,1.1479,21.6328,-808.83)">
        <path d="M223.874,675.87L224.386,675.87" style="fill:none;fill-rule:nonzero;stroke:black;stroke-width:0.72px;"/>
    </g>
    <g transform="matrix(-0.800611,1.06621,1.06621,0.800611,-316.537,-640.287)">
        <path d="M213.28,667.236L227.236,667.236L227.037,668.9L226.832,670.571L213.28,667.236Z" style="stroke:black;stroke-width:0.24px;"/>
    </g>
    <g transform="matrix(0.522573,1.22666,1.22666,-0.522573,-693.064,173.093)">
        <path d="M241.681,666.401L255.638,666.401L255.437,668.074L255.233,669.737L241.681,666.401Z" style="stroke:black;stroke-width:0.24px;"/>
    </g>
    <g transform="matrix(-1.15437,-0.667241,-0.667241,1.15437,1006.21,-516.238)">
        <path d="M249.681,685.015L252.939,685.015" style="fill:none;fill-rule:nonzero;stroke:black;stroke-width:0.72px;"/>
    </g>
    <g transform="matrix(-1.15638,-0.663751,-0.663751,1.15638,999.514,-513.683)">
        <path d="M248.699,682.73L251.271,682.73" style="fill:none;fill-rule:nonzero;stroke:black;stroke-width:0.72px;"/>
    </g>
    <g transform="matrix(-1.15196,-0.671389,-0.671389,1.15196,998.809,-503.965)">
        <path d="M247.722,680.445L249.608,680.445" style="fill:none;fill-rule:nonzero;stroke:black;stroke-width:0.72px;"/>
    </g>
    <g transform="matrix(-1.15491,-0.666297,-0.666297,1.15491,991.284,-502.431)">
        <path d="M246.75,678.16L247.95,678.16" style="fill:none;fill-rule:nonzero;stroke:black;stroke-width:0.72px;"/>
    </g>
    <g transform="matrix(-1.1479,-0.678306,-0.678306,1.1479,992.865,-489.918)">
        <path d="M245.774,675.87L246.286,675.87" style="fill:none;fill-rule:nonzero;stroke:black;stroke-width:0.72px;"/>
    </g>
    <g transform="matrix(0.666796,-1.15463,-1.15463,-0.666796,861.651,830.769)">
        <path d="M221.656,680.16L235.514,680.16" style="fill:none;fill-rule:nonzero;stroke:black;stroke-width:0.72px;"/>
    </g>
    <g transform="matrix(0.666796,1.15463,1.15463,-0.666796,-700.352,287.91)">
        <path d="M234.646,680.16L248.504,680.16" style="fill:none;fill-rule:nonzero;stroke:black;stroke-width:0.72px;"/>
    </g>
    <g transform="matrix(1.33333,0,0,1.33333,-76.04,-718.689)">
        <path d="M244.56,668.88L242.88,668.16L241.44,667.2L238.56,664.8L237.36,663.6L236.16,662.16L235.2,660.72L233.76,657.36L233.28,655.68L232.8,653.76L232.8,651.84L232.56,650.88L233.04,647.04L233.52,645.12L234.24,643.2L234.96,641.52L235.92,640.08L237.12,638.4L239.76,635.76L240.48,635.28" style="fill:none;fill-rule:nonzero;stroke:black;stroke-width:0.48px;"/>
    </g>
    <g transform="matrix(1.16003,-0.65735,-0.65735,-1.16003,402.413,1060.59)">
        <path d="M233.452,666.653L241.728,666.653L234.329,662.846L235.422,665.261L233.452,666.653Z" style="stroke:black;stroke-width:0.48px;"/>
    </g>
    <g transform="matrix(1.33333,0,0,1.33333,-76.04,-776.929)">
        <path d="M268.08,673.92L302.16,673.92" style="fill:none;fill-rule:nonzero;stroke:black;stroke-width:0.72px;"/>
    </g>
    <g transform="matrix(1.2958,0.314133,0.314133,-1.2958,-276.548,901.222)">
        <path d="M293.899,674.853L302.049,674.853L294.804,671.121L295.751,673.326L293.899,674.853Z" style="stroke:black;stroke-width:0.72px;"/>
    </g>
    <g transform="matrix(1.33333,0,0,1.33333,-76.04,-780.769)">
        <path d="M338.64,675.36L358.56,675.36" style="fill:none;fill-rule:nonzero;stroke:black;stroke-width:0.72px;"/>
    </g>
    <g transform="matrix(0.890604,0.992271,0.992271,-0.890604,-591.766,399.133)">
        <path d="M326.946,666.35L330.224,666.35" style="fill:none;fill-rule:nonzero;stroke:black;stroke-width:0.72px;"/>
    </g>
    <g transform="matrix(0.890834,0.992065,0.992065,-0.890834,-592.58,396.625)">
        <path d="M329.233,668.11L331.867,668.11" style="fill:none;fill-rule:nonzero;stroke:black;stroke-width:0.72px;"/>
    </g>
    <g transform="matrix(0.887888,0.994702,0.994702,-0.887888,-594.249,391.045)">
        <path d="M331.516,669.875L333.514,669.875" style="fill:none;fill-rule:nonzero;stroke:black;stroke-width:0.72px;"/>
    </g>
    <g transform="matrix(0.887041,0.995457,0.995457,-0.887041,-595.348,387.485)">
        <path d="M333.804,671.635L335.156,671.635" style="fill:none;fill-rule:nonzero;stroke:black;stroke-width:0.72px;"/>
    </g>
    <g transform="matrix(0.895039,0.988272,0.988272,-0.895039,-594.074,392.541)">
        <path d="M336.092,673.395L336.808,673.395" style="fill:none;fill-rule:nonzero;stroke:black;stroke-width:0.72px;"/>
    </g>
    <g transform="matrix(0.853579,1.0243,1.0243,-0.853579,-605.247,349.643)">
        <path d="M338.376,675.16L338.454,675.16" style="fill:none;fill-rule:nonzero;stroke:black;stroke-width:0.72px;"/>
    </g>
    <g transform="matrix(0.0572645,1.3321,1.3321,-0.0572645,-531.602,-286.282)">
        <path d="M333.432,666.607L347.635,666.607L347.238,669.947L333.432,666.607Z" style="stroke:black;stroke-width:0.24px;"/>
    </g>
    <g transform="matrix(1.17548,-0.629313,-0.629313,-1.17548,409.768,1142.67)">
        <path d="M357.005,679.119L372.238,679.119L372.057,680.793L371.87,682.458L357.005,679.119Z" style="stroke:black;stroke-width:0.24px;"/>
    </g>
    <g transform="matrix(-1.20413,0.572591,0.572591,1.20413,431.603,-918.388)">
        <path d="M352.827,684.01L355.993,684.01" style="fill:none;fill-rule:nonzero;stroke:black;stroke-width:0.72px;"/>
    </g>
    <g transform="matrix(-1.20058,0.57999,0.57999,1.20058,429.567,-913.218)">
        <path d="M354.406,681.63L356.704,681.63" style="fill:none;fill-rule:nonzero;stroke:black;stroke-width:0.72px;"/>
    </g>
    <g transform="matrix(-1.20174,0.57758,0.57758,1.20174,435.886,-907.778)">
        <path d="M355.979,679.25L357.411,679.25" style="fill:none;fill-rule:nonzero;stroke:black;stroke-width:0.72px;"/>
    </g>
    <g transform="matrix(-1.19742,0.58649,0.58649,1.19742,432.574,-902.665)">
        <path d="M357.562,676.87L358.108,676.87" style="fill:none;fill-rule:nonzero;stroke:black;stroke-width:0.72px;"/>
    </g>
    <g transform="matrix(-0.476278,-1.24537,-1.24537,0.476278,1381.56,204.421)">
        <path d="M328.875,682.08L343.265,682.08" style="fill:none;fill-rule:nonzero;stroke:black;stroke-width:0.72px;"/>
    </g>
    <g transform="matrix(0.413557,1.26758,1.26758,-0.413557,-592.345,-52.2721)">
        <path d="M353.945,669L367.325,669" style="fill:none;fill-rule:nonzero;stroke:black;stroke-width:0.72px;"/>
    </g>
    <g transform="matrix(1.33333,0,0,1.33333,-76.04,-778.849)">
        <path d="M391.2,674.64L425.28,674.64" style="fill:none;fill-rule:nonzero;stroke:black;stroke-width:0.72px;"/>
    </g>
    <g transform="matrix(1.2958,0.314133,0.314133,-1.2958,-272.153,862.519)">
        <path d="M417.019,675.573L425.169,675.573L417.924,671.841L418.871,674.046L417.019,675.573Z" style="stroke:black;stroke-width:0.72px;"/>
    </g>
    <g transform="matrix(1.33333,0,0,1.33333,-76.04,-536.929)">
        <path d="M60.72,583.92L94.8,583.92" style="fill:none;fill-rule:nonzero;stroke:black;stroke-width:0.72px;"/>
    </g>
    <g transform="matrix(1.2958,0.314133,0.314133,-1.2958,-256.059,969.739)">
        <path d="M86.539,584.853L94.689,584.853L87.444,581.121L88.391,583.326L86.539,584.853Z" style="stroke:black;stroke-width:0.72px;"/>
    </g>
    <g transform="matrix(1.33333,0,0,1.33333,-76.04,-535.009)">
        <path d="M131.28,583.2L151.2,583.2" style="fill:none;fill-rule:nonzero;stroke:black;stroke-width:0.72px;"/>
    </g>
    <g transform="matrix(0.890604,0.992271,0.992271,-0.890604,-592.122,645.692)">
        <path d="M119.586,574.19L122.864,574.19" style="fill:none;fill-rule:nonzero;stroke:black;stroke-width:0.72px;"/>
    </g>
    <g transform="matrix(0.890834,0.992065,0.992065,-0.890834,-592.908,643.121)">
        <path d="M121.873,575.95L124.507,575.95" style="fill:none;fill-rule:nonzero;stroke:black;stroke-width:0.72px;"/>
    </g>
    <g transform="matrix(0.887888,0.994702,0.994702,-0.887888,-594.945,638.359)">
        <path d="M124.156,577.715L126.154,577.715" style="fill:none;fill-rule:nonzero;stroke:black;stroke-width:0.72px;"/>
    </g>
    <g transform="matrix(0.887041,0.995457,0.995457,-0.887041,-596.15,635.033)">
        <path d="M126.444,579.475L127.796,579.475" style="fill:none;fill-rule:nonzero;stroke:black;stroke-width:0.72px;"/>
    </g>
    <g transform="matrix(0.895039,0.988272,0.988272,-0.895039,-593.879,637.863)">
        <path d="M128.732,581.235L129.448,581.235" style="fill:none;fill-rule:nonzero;stroke:black;stroke-width:0.72px;"/>
    </g>
    <g transform="matrix(0.853579,1.0243,1.0243,-0.853579,-610.33,606.255)">
        <path d="M131.016,583L131.094,583" style="fill:none;fill-rule:nonzero;stroke:black;stroke-width:0.72px;"/>
    </g>
    <g transform="matrix(0.0572645,1.3321,1.3321,-0.0572645,-673.441,107.545)">
        <path d="M126.072,574.447L140.275,574.447L139.878,577.787L126.072,574.447Z" style="stroke:black;stroke-width:0.24px;"/>
    </g>
    <g transform="matrix(1.22978,0.51518,0.51518,-1.22978,-356.202,885.035)">
        <path d="M145.495,573.38L148.705,573.38" style="fill:none;fill-rule:nonzero;stroke:black;stroke-width:0.72px;"/>
    </g>
    <g transform="matrix(1.22978,0.51518,0.51518,-1.22978,-357.35,884.257)">
        <path d="M146.917,575.815L149.323,575.815" style="fill:none;fill-rule:nonzero;stroke:black;stroke-width:0.72px;"/>
    </g>
    <g transform="matrix(1.23101,0.512234,0.512234,-1.23101,-356.98,884.632)">
        <path d="M148.328,578.25L149.942,578.25" style="fill:none;fill-rule:nonzero;stroke:black;stroke-width:0.72px;"/>
    </g>
    <g transform="matrix(1.23458,0.503578,0.503578,-1.23458,-353.633,887.234)">
        <path d="M149.74,580.685L150.56,580.685" style="fill:none;fill-rule:nonzero;stroke:black;stroke-width:0.72px;"/>
    </g>
    <g transform="matrix(1.19257,0.596285,0.596285,-1.19257,-402.469,847.968)">
        <path d="M151.159,583.125L151.181,583.125" style="fill:none;fill-rule:nonzero;stroke:black;stroke-width:0.72px;"/>
    </g>
    <g transform="matrix(0.560551,1.20978,1.20978,-0.560551,-654.656,386.084)">
        <path d="M148.363,576.182L160.993,576.182L160.554,579.515L148.363,576.182Z" style="stroke:black;stroke-width:0.24px;"/>
    </g>
    <g transform="matrix(-0.476278,-1.24537,-1.24537,0.476278,891.541,112.956)">
        <path d="M121.515,589.92L135.905,589.92" style="fill:none;fill-rule:nonzero;stroke:black;stroke-width:0.72px;"/>
    </g>
    <g transform="matrix(0.3687,-1.28134,-1.28134,-0.3687,832.992,645.277)">
        <path d="M143.521,593.4L164.749,593.4" style="fill:none;fill-rule:nonzero;stroke:black;stroke-width:0.72px;"/>
    </g>
    <g transform="matrix(1.33333,0,0,1.33333,-76.04,-540.329)">
        <path d="M181.2,586.32L215.28,586.32" style="fill:none;fill-rule:nonzero;stroke:black;stroke-width:0.72px;"/>
    </g>
    <g transform="matrix(1.2958,0.314133,0.314133,-1.2958,-252.291,934.802)">
        <path d="M207.019,587.253L215.169,587.253L207.924,583.521L208.871,585.726L207.019,587.253Z" style="stroke:black;stroke-width:0.72px;"/>
    </g>
    <g transform="matrix(1.33333,0,0,1.33333,-76.04,-540.129)">
        <path d="M243.12,585.12L263.04,585.12" style="fill:none;fill-rule:nonzero;stroke:black;stroke-width:0.72px;"/>
    </g>
    <g transform="matrix(1.33333,0,0,1.33333,-76.04,-549.089)">
        <path d="M243.12,588.48L263.04,588.48" style="fill:none;fill-rule:nonzero;stroke:black;stroke-width:0.72px;"/>
    </g>
    <g transform="matrix(-1.15437,0.667241,0.667241,1.15437,114.392,-624.633)">
        <path d="M235.221,597.655L238.479,597.655" style="fill:none;fill-rule:nonzero;stroke:black;stroke-width:0.72px;"/>
    </g>
    <g transform="matrix(-1.15638,0.663751,0.663751,1.15638,121.77,-620.198)">
        <path d="M236.889,595.37L239.461,595.37" style="fill:none;fill-rule:nonzero;stroke:black;stroke-width:0.72px;"/>
    </g>
    <g transform="matrix(-1.15196,0.671389,0.671389,1.15196,120.985,-614.594)">
        <path d="M238.552,593.085L240.438,593.085" style="fill:none;fill-rule:nonzero;stroke:black;stroke-width:0.72px;"/>
    </g>
    <g transform="matrix(-1.15491,0.666297,0.666297,1.15491,129.507,-610.317)">
        <path d="M240.21,590.8L241.41,590.8" style="fill:none;fill-rule:nonzero;stroke:black;stroke-width:0.72px;"/>
    </g>
    <g transform="matrix(-1.1479,0.678306,0.678306,1.1479,125.552,-604.279)">
        <path d="M241.874,588.51L242.386,588.51" style="fill:none;fill-rule:nonzero;stroke:black;stroke-width:0.72px;"/>
    </g>
    <g transform="matrix(-0.800611,1.06621,1.06621,0.800611,-184.982,-473.057)">
        <path d="M231.28,579.876L245.236,579.876L245.037,581.54L244.832,583.211L231.28,579.876Z" style="stroke:black;stroke-width:0.24px;"/>
    </g>
    <g transform="matrix(0.522573,1.22666,1.22666,-0.522573,-571.31,221.841)">
        <path d="M259.681,579.041L273.638,579.041L273.437,580.714L273.233,582.377L259.681,579.041Z" style="stroke:black;stroke-width:0.24px;"/>
    </g>
    <g transform="matrix(-1.15437,-0.667241,-0.667241,1.15437,992.703,-286.902)">
        <path d="M267.681,597.655L270.939,597.655" style="fill:none;fill-rule:nonzero;stroke:black;stroke-width:0.72px;"/>
    </g>
    <g transform="matrix(-1.15638,-0.663751,-0.663751,1.15638,986.343,-284.234)">
        <path d="M266.699,595.37L269.271,595.37" style="fill:none;fill-rule:nonzero;stroke:black;stroke-width:0.72px;"/>
    </g>
    <g transform="matrix(-1.15196,-0.671389,-0.671389,1.15196,984.892,-274.764)">
        <path d="M265.722,593.085L267.608,593.085" style="fill:none;fill-rule:nonzero;stroke:black;stroke-width:0.72px;"/>
    </g>
    <g transform="matrix(-1.15491,-0.666297,-0.666297,1.15491,977.864,-273.064)">
        <path d="M264.75,590.8L265.95,590.8" style="fill:none;fill-rule:nonzero;stroke:black;stroke-width:0.72px;"/>
    </g>
    <g transform="matrix(-1.1479,-0.678306,-0.678306,1.1479,978.27,-260.948)">
        <path d="M263.774,588.51L264.286,588.51" style="fill:none;fill-rule:nonzero;stroke:black;stroke-width:0.72px;"/>
    </g>
</svg>
