<?xml version="1.0" encoding="UTF-8" standalone="no"?>
<!DOCTYPE svg PUBLIC "-//W3C//DTD SVG 1.1//EN" "http://www.w3.org/Graphics/SVG/1.1/DTD/svg11.dtd">
<svg width="100%" height="100%" viewBox="0 0 625 345" version="1.1" xmlns="http://www.w3.org/2000/svg" xmlns:xlink="http://www.w3.org/1999/xlink" xml:space="preserve" xmlns:serif="http://www.serif.com/" style="fill-rule:evenodd;clip-rule:evenodd;stroke-linecap:round;stroke-linejoin:round;stroke-miterlimit:10;">
    <g transform="matrix(1.33333,0,0,1.33333,-48.78,-308.348)">
        <text x="39.84px" y="263.52px" style="font-family:'ArialMT', 'Arial', sans-serif;font-size:10px;">R</text>
    </g>
    <g transform="matrix(1.33333,0,0,1.33333,-48.78,-308.348)">
        <text x="79.68px" y="263.52px" style="font-family:'ArialMT', 'Arial', sans-serif;font-size:10px;">CH</text>
    </g>
    <g transform="matrix(1.33333,0,0,1.33333,-48.78,-308.348)">
        <text x="104.16px" y="251.04px" style="font-family:'ArialMT', 'Arial', sans-serif;font-size:10px;">M</text>
        <text x="112.56px" y="251.04px" style="font-family:'ArialMT', 'Arial', sans-serif;font-size:10px;">e</text>
        <text x="118.08px" y="253.68px" style="font-family:'ArialMT', 'Arial', sans-serif;font-size:6px;">3</text>
        <text x="121.68px" y="251.04px" style="font-family:'ArialMT', 'Arial', sans-serif;font-size:10px;">S</text>
        <text x="128.4px" y="251.04px" style="font-family:'ArialMT', 'Arial', sans-serif;font-size:10px;">i<tspan x="130.8px " y="251.04px ">H</tspan></text>
    </g>
    <g transform="matrix(1.33333,0,0,1.33333,-48.78,-308.348)">
        <text x="104.16px" y="274.32px" style="font-family:'ArialMT', 'Arial', sans-serif;font-size:10px;">H</text>
        <text x="111.36px" y="276.96px" style="font-family:'ArialMT', 'Arial', sans-serif;font-size:6px;">2</text>
        <text x="114.96px" y="274.32px" style="font-family:'ArialMT', 'Arial', sans-serif;font-size:10px;">P</text>
        <text x="121.68px" y="274.32px" style="font-family:'ArialMT', 'Arial', sans-serif;font-size:10px;">t</text>
        <text x="124.56px" y="274.32px" style="font-family:'ArialMT', 'Arial', sans-serif;font-size:10px;">C</text>
        <text x="131.76px" y="274.32px" style="font-family:'ArialMT', 'Arial', sans-serif;font-size:10px;">l</text>
        <text x="134.16px" y="276.96px" style="font-family:'ArialMT', 'Arial', sans-serif;font-size:6px;">6</text>
    </g>
    <g transform="matrix(1.33333,0,0,1.33333,-48.78,-308.348)">
        <text x="192.96px" y="280.56px" style="font-family:'ArialMT', 'Arial', sans-serif;font-size:10px;">S</text>
        <text x="199.68px" y="280.56px" style="font-family:'ArialMT', 'Arial', sans-serif;font-size:10px;">i</text>
        <text x="202.08px" y="280.56px" style="font-family:'ArialMT', 'Arial', sans-serif;font-size:10px;">M</text>
        <text x="210.48px" y="280.56px" style="font-family:'ArialMT', 'Arial', sans-serif;font-size:10px;">e</text>
        <text x="216.24px" y="283.2px" style="font-family:'ArialMT', 'Arial', sans-serif;font-size:8px;">3</text>
    </g>
    <g transform="matrix(1.33333,0,0,1.33333,-48.78,-308.348)">
        <text x="192.72px" y="246px" style="font-family:'ArialMT', 'Arial', sans-serif;font-size:10px;">H</text>
    </g>
    <g transform="matrix(1.33333,0,0,1.33333,-48.78,-308.348)">
        <text x="152.88px" y="246px" style="font-family:'ArialMT', 'Arial', sans-serif;font-size:10px;">R</text>
    </g>
    <g transform="matrix(1.33333,0,0,1.33333,-48.78,-308.348)">
        <text x="152.88px" y="280.56px" style="font-family:'ArialMT', 'Arial', sans-serif;font-size:10px;">H</text>
    </g>
    <g transform="matrix(1.33333,0,0,1.33333,-48.78,-308.348)">
        <text x="215.28px" y="253.68px" style="font-family:'ArialMT', 'Arial', sans-serif;font-size:10px;">m</text>
        <text x="223.92px" y="253.68px" style="font-family:'ArialMT', 'Arial', sans-serif;font-size:10px;">C</text>
        <text x="231.12px" y="253.68px" style="font-family:'ArialMT', 'Arial', sans-serif;font-size:10px;">PB<tspan x="244.56px " y="253.68px ">A</tspan></text>
    </g>
    <g transform="matrix(1.33333,0,0,1.33333,-48.78,-308.348)">
        <text x="306.48px" y="278.64px" style="font-family:'ArialMT', 'Arial', sans-serif;font-size:10px;">S</text>
        <text x="313.2px" y="278.64px" style="font-family:'ArialMT', 'Arial', sans-serif;font-size:10px;">i</text>
        <text x="315.6px" y="278.64px" style="font-family:'ArialMT', 'Arial', sans-serif;font-size:10px;">M</text>
        <text x="324px" y="278.64px" style="font-family:'ArialMT', 'Arial', sans-serif;font-size:10px;">e</text>
        <text x="329.76px" y="281.28px" style="font-family:'ArialMT', 'Arial', sans-serif;font-size:8px;">3</text>
    </g>
    <g transform="matrix(1.33333,0,0,1.33333,-48.78,-308.348)">
        <text x="306.24px" y="244.08px" style="font-family:'ArialMT', 'Arial', sans-serif;font-size:10px;">H</text>
    </g>
    <g transform="matrix(1.33333,0,0,1.33333,-48.78,-308.348)">
        <text x="266.4px" y="244.08px" style="font-family:'ArialMT', 'Arial', sans-serif;font-size:10px;">R</text>
    </g>
    <g transform="matrix(1.33333,0,0,1.33333,-48.78,-308.348)">
        <text x="266.4px" y="278.64px" style="font-family:'ArialMT', 'Arial', sans-serif;font-size:10px;">H</text>
    </g>
    <g transform="matrix(1.33333,0,0,1.33333,-48.78,-308.348)">
        <text x="286.08px" y="244.08px" style="font-family:'ArialMT', 'Arial', sans-serif;font-size:10px;">O</text>
    </g>
    <g transform="matrix(1.33333,0,0,1.33333,-48.78,-308.348)">
        <text x="301.44px" y="300.96px" style="font-family:'ArialMT', 'Arial', sans-serif;font-size:10px;">R</text>
        <text x="308.64px" y="300.96px" style="font-family:'ArialMT', 'Arial', sans-serif;font-size:10px;">M</text>
        <text x="317.04px" y="300.96px" style="font-family:'ArialMT', 'Arial', sans-serif;font-size:10px;">gX</text>
    </g>
    <g transform="matrix(1.33333,0,0,1.33333,-48.78,-308.348)">
        <text x="431.76px" y="253.44px" style="font-family:'ArialMT', 'Arial', sans-serif;font-size:10px;">S</text>
        <text x="438.48px" y="253.44px" style="font-family:'ArialMT', 'Arial', sans-serif;font-size:10px;">i</text>
        <text x="440.88px" y="253.44px" style="font-family:'ArialMT', 'Arial', sans-serif;font-size:10px;">M</text>
        <text x="449.28px" y="253.44px" style="font-family:'ArialMT', 'Arial', sans-serif;font-size:10px;">e</text>
        <text x="455.04px" y="256.08px" style="font-family:'ArialMT', 'Arial', sans-serif;font-size:8px;">3</text>
    </g>
    <g transform="matrix(1.33333,0,0,1.33333,-48.78,-308.348)">
        <text x="420.96px" y="240.96px" style="font-family:'ArialMT', 'Arial', sans-serif;font-size:10px;">H</text>
    </g>
    <g transform="matrix(1.33333,0,0,1.33333,-48.78,-308.348)">
        <text x="374.16px" y="270.48px" style="font-family:'ArialMT', 'Arial', sans-serif;font-size:10px;">R</text>
    </g>
    <g transform="matrix(1.33333,0,0,1.33333,-48.78,-308.348)">
        <text x="385.2px" y="283.2px" style="font-family:'ArialMT', 'Arial', sans-serif;font-size:10px;">H</text>
    </g>
    <g transform="matrix(1.33333,0,0,1.33333,-48.78,-308.348)">
        <text x="384.72px" y="243.6px" style="font-family:'ArialMT', 'Arial', sans-serif;font-size:10px;">O</text>
        <text x="392.64px" y="236.64px" style="font-family:'ArialMT', 'Arial', sans-serif;font-size:8px;">–</text>
    </g>
    <g transform="matrix(1.33333,0,0,1.33333,-48.78,-308.348)">
        <text x="421.44px" y="279.6px" style="font-family:'ArialMT', 'Arial', sans-serif;font-size:10px;">R</text>
    </g>
    <g transform="matrix(1.33333,0,0,1.33333,-48.78,-293.348)">
        <text x="152.64px" y="331.92px" style="font-family:'ArialMT', 'Arial', sans-serif;font-size:10px;">S</text>
        <text x="159.36px" y="331.92px" style="font-family:'ArialMT', 'Arial', sans-serif;font-size:10px;">i</text>
        <text x="161.76px" y="331.92px" style="font-family:'ArialMT', 'Arial', sans-serif;font-size:10px;">M</text>
        <text x="170.16px" y="331.92px" style="font-family:'ArialMT', 'Arial', sans-serif;font-size:10px;">e</text>
        <text x="175.92px" y="334.56px" style="font-family:'ArialMT', 'Arial', sans-serif;font-size:8px;">3</text>
    </g>
    <g transform="matrix(1.33333,0,0,1.33333,-48.78,-293.348)">
        <text x="141.84px" y="319.44px" style="font-family:'ArialMT', 'Arial', sans-serif;font-size:10px;">H</text>
    </g>
    <g transform="matrix(1.33333,0,0,1.33333,-48.78,-293.348)">
        <text x="95.04px" y="348.96px" style="font-family:'ArialMT', 'Arial', sans-serif;font-size:10px;">R</text>
    </g>
    <g transform="matrix(1.33333,0,0,1.33333,-48.78,-293.348)">
        <text x="106.08px" y="361.68px" style="font-family:'ArialMT', 'Arial', sans-serif;font-size:10px;">H</text>
    </g>
    <g transform="matrix(1.33333,0,0,1.33333,-48.78,-293.348)">
        <text x="105.6px" y="322.08px" style="font-family:'ArialMT', 'Arial', sans-serif;font-size:10px;">O</text>
    </g>
    <g transform="matrix(1.33333,0,0,1.33333,-48.78,-293.348)">
        <text x="98.4px" y="322.08px" style="font-family:'ArialMT', 'Arial', sans-serif;font-size:10px;">H</text>
    </g>
    <g transform="matrix(1.33333,0,0,1.33333,-48.78,-293.348)">
        <text x="142.32px" y="358.08px" style="font-family:'ArialMT', 'Arial', sans-serif;font-size:10px;">R</text>
    </g>
    <g transform="matrix(1.33333,0,0,1.33333,-48.78,-293.348)">
        <text x="203.28px" y="327.6px" style="font-family:'ArialMT', 'Arial', sans-serif;font-size:10px;">H</text>
        <text x="210.48px" y="322.56px" style="font-family:'ArialMT', 'Arial', sans-serif;font-size:6px;">+</text>
    </g>
    <g transform="matrix(1.33333,0,0,1.33333,-48.78,-293.348)">
        <text x="293.04px" y="360.96px" style="font-family:'ArialMT', 'Arial', sans-serif;font-size:10px;">S</text>
        <text x="299.76px" y="360.96px" style="font-family:'ArialMT', 'Arial', sans-serif;font-size:10px;">i</text>
        <text x="302.16px" y="360.96px" style="font-family:'ArialMT', 'Arial', sans-serif;font-size:10px;">M</text>
        <text x="310.56px" y="360.96px" style="font-family:'ArialMT', 'Arial', sans-serif;font-size:10px;">e</text>
        <text x="316.32px" y="363.6px" style="font-family:'ArialMT', 'Arial', sans-serif;font-size:8px;">3</text>
    </g>
    <g transform="matrix(1.33333,0,0,1.33333,-48.78,-293.348)">
        <text x="291.36px" y="319.92px" style="font-family:'ArialMT', 'Arial', sans-serif;font-size:10px;">H</text>
    </g>
    <g transform="matrix(1.33333,0,0,1.33333,-48.78,-293.348)">
        <text x="244.56px" y="349.44px" style="font-family:'ArialMT', 'Arial', sans-serif;font-size:10px;">R</text>
    </g>
    <g transform="matrix(1.33333,0,0,1.33333,-48.78,-293.348)">
        <text x="255.6px" y="362.16px" style="font-family:'ArialMT', 'Arial', sans-serif;font-size:10px;">H</text>
    </g>
    <g transform="matrix(1.33333,0,0,1.33333,-48.78,-293.348)">
        <text x="255.12px" y="322.56px" style="font-family:'ArialMT', 'Arial', sans-serif;font-size:10px;">O</text>
    </g>
    <g transform="matrix(1.33333,0,0,1.33333,-48.78,-293.348)">
        <text x="243.6px" y="322.56px" style="font-family:'ArialMT', 'Arial', sans-serif;font-size:10px;">H</text>
        <text x="250.809px" y="325.2px" style="font-family:'ArialMT', 'Arial', sans-serif;font-size:8px;">2</text>
        <text x="263.04px" y="315.6px" style="font-family:'ArialMT', 'Arial', sans-serif;font-size:8px;">+</text>
    </g>
    <g transform="matrix(1.33333,0,0,1.33333,-48.78,-293.348)">
        <text x="304.8px" y="344.64px" style="font-family:'ArialMT', 'Arial', sans-serif;font-size:10px;">R</text>
    </g>
    <g transform="matrix(1.33333,0,0,1.33333,-48.78,-293.348)">
        <text x="378px" y="329.04px" style="font-family:'ArialMT', 'Arial', sans-serif;font-size:10px;">R</text>
    </g>
    <g transform="matrix(1.33333,0,0,1.33333,-48.78,-293.348)">
        <text x="417.84px" y="329.04px" style="font-family:'ArialMT', 'Arial', sans-serif;font-size:10px;">R</text>
    </g>
    <g transform="matrix(1.33333,0,0,1.33333,-48.78,-293.348)">
        <text x="102.96px" y="397.44px" style="font-family:'ArialMT', 'Arial', sans-serif;font-size:10px;">O</text>
        <text x="110.88px" y="397.44px" style="font-family:'ArialMT', 'Arial', sans-serif;font-size:10px;">H</text>
        <text x="118.08px" y="392.4px" style="font-family:'ArialMT', 'Arial', sans-serif;font-size:6px;">-</text>
    </g>
    <g transform="matrix(1.33333,0,0,1.33333,-48.78,-293.348)">
        <text x="141.84px" y="434.64px" style="font-family:'ArialMT', 'Arial', sans-serif;font-size:10px;">S</text>
        <text x="148.56px" y="434.64px" style="font-family:'ArialMT', 'Arial', sans-serif;font-size:10px;">i</text>
        <text x="150.96px" y="434.64px" style="font-family:'ArialMT', 'Arial', sans-serif;font-size:10px;">M</text>
        <text x="159.36px" y="434.64px" style="font-family:'ArialMT', 'Arial', sans-serif;font-size:10px;">e</text>
        <text x="165.12px" y="437.28px" style="font-family:'ArialMT', 'Arial', sans-serif;font-size:8px;">3</text>
    </g>
    <g transform="matrix(1.33333,0,0,1.33333,-48.78,-293.348)">
        <text x="149.04px" y="462px" style="font-family:'ArialMT', 'Arial', sans-serif;font-size:10px;">H</text>
    </g>
    <g transform="matrix(1.33333,0,0,1.33333,-48.78,-293.348)">
        <text x="93.12px" y="461.52px" style="font-family:'ArialMT', 'Arial', sans-serif;font-size:10px;">R</text>
    </g>
    <g transform="matrix(1.33333,0,0,1.33333,-48.78,-293.348)">
        <text x="104.16px" y="474.24px" style="font-family:'ArialMT', 'Arial', sans-serif;font-size:10px;">H</text>
    </g>
    <g transform="matrix(1.33333,0,0,1.33333,-48.78,-293.348)">
        <text x="103.68px" y="434.64px" style="font-family:'ArialMT', 'Arial', sans-serif;font-size:10px;">O</text>
        <text x="111.6px" y="427.68px" style="font-family:'ArialMT', 'Arial', sans-serif;font-size:8px;">–</text>
    </g>
    <g transform="matrix(1.33333,0,0,1.33333,-48.78,-293.348)">
        <text x="139.44px" y="474.72px" style="font-family:'ArialMT', 'Arial', sans-serif;font-size:10px;">R</text>
    </g>
    <g transform="matrix(1.33333,0,0,1.33333,-48.78,-293.348)">
        <text x="243.12px" y="437.76px" style="font-family:'ArialMT', 'Arial', sans-serif;font-size:10px;">R</text>
    </g>
    <g transform="matrix(1.33333,0,0,1.33333,-48.78,-293.348)">
        <text x="282.96px" y="472.08px" style="font-family:'ArialMT', 'Arial', sans-serif;font-size:10px;">R</text>
    </g>
    <g transform="matrix(1.33333,0,0,1.33333,-48.78,-738.828)">
        <path d="M48,582.39L63.45,582.39" style="fill:none;fill-rule:nonzero;stroke:black;stroke-width:0.72px;"/>
    </g>
    <g transform="matrix(1.33333,0,0,1.33333,-48.78,-738.828)">
        <path d="M63.45,582.39L78.72,582.39" style="fill:none;fill-rule:nonzero;stroke:black;stroke-width:0.72px;"/>
    </g>
    <g transform="matrix(1.33333,0,0,1.33333,-48.78,-747.788)">
        <path d="M63.45,585.75L78.81,585.75" style="fill:none;fill-rule:nonzero;stroke:black;stroke-width:0.72px;"/>
    </g>
    <g transform="matrix(1.33333,0,0,1.33333,-48.78,-729.868)">
        <path d="M63.45,579.03L78.81,579.03" style="fill:none;fill-rule:nonzero;stroke:black;stroke-width:0.72px;"/>
    </g>
    <g transform="matrix(1.33333,0,0,1.33333,-48.78,-740.348)">
        <path d="M103.92,582.96L138,582.96" style="fill:none;fill-rule:nonzero;stroke:black;stroke-width:0.72px;"/>
    </g>
    <g transform="matrix(1.2958,0.314133,0.314133,-1.2958,-226.876,750.225)">
        <path d="M129.739,583.893L137.889,583.893L130.644,580.161L131.591,582.366L129.739,583.893Z" style="stroke:black;stroke-width:0.72px;"/>
    </g>
    <g transform="matrix(1.33333,0,0,1.33333,-48.78,-734.775)">
        <path d="M166.49,580.87L186.41,580.87" style="fill:none;fill-rule:nonzero;stroke:black;stroke-width:0.72px;"/>
    </g>
    <g transform="matrix(1.33333,0,0,1.33333,-48.78,-743.735)">
        <path d="M166.49,584.23L186.41,584.23" style="fill:none;fill-rule:nonzero;stroke:black;stroke-width:0.72px;"/>
    </g>
    <g transform="matrix(0.523391,1.22631,1.22631,-0.523391,-600.861,113.849)">
        <path d="M183.031,574.757L197.067,574.757L196.868,576.429L196.664,578.093L183.031,574.757Z" style="stroke:black;stroke-width:0.24px;"/>
    </g>
    <g transform="matrix(-1.15437,-0.667241,-0.667241,1.15437,826.832,-533.801)">
        <path d="M191.141,593.575L194.399,593.575" style="fill:none;fill-rule:nonzero;stroke:black;stroke-width:0.72px;"/>
    </g>
    <g transform="matrix(-1.1532,-0.669266,-0.669266,1.1532,822.996,-527.917)">
        <path d="M190.155,591.29L192.745,591.29" style="fill:none;fill-rule:nonzero;stroke:black;stroke-width:0.72px;"/>
    </g>
    <g transform="matrix(-1.15723,-0.662269,-0.662269,1.15723,814.83,-526.824)">
        <path d="M189.174,589.005L191.086,589.005" style="fill:none;fill-rule:nonzero;stroke:black;stroke-width:0.72px;"/>
    </g>
    <g transform="matrix(-1.15092,-0.673178,-0.673178,1.15092,815.238,-516.244)">
        <path d="M188.196,586.72L189.424,586.72" style="fill:none;fill-rule:nonzero;stroke:black;stroke-width:0.72px;"/>
    </g>
    <g transform="matrix(-1.15171,-0.671828,-0.671828,1.15171,809.776,-512.158)">
        <path d="M187.212,584.43L187.768,584.43" style="fill:none;fill-rule:nonzero;stroke:black;stroke-width:0.72px;"/>
    </g>
    <g transform="matrix(-1.15437,0.667241,0.667241,1.15437,-46.507,-769.264)">
        <path d="M158.491,593.575L161.749,593.575" style="fill:none;fill-rule:nonzero;stroke:black;stroke-width:0.72px;"/>
    </g>
    <g transform="matrix(-1.1532,0.669266,0.669266,1.1532,-43.0847,-764.094)">
        <path d="M160.145,591.29L162.735,591.29" style="fill:none;fill-rule:nonzero;stroke:black;stroke-width:0.72px;"/>
    </g>
    <g transform="matrix(-1.1555,0.665286,0.665286,1.1555,-35.5423,-760.006)">
        <path d="M161.813,589.005L163.717,589.005" style="fill:none;fill-rule:nonzero;stroke:black;stroke-width:0.72px;"/>
    </g>
    <g transform="matrix(-1.15366,0.668473,0.668473,1.15366,-32.9091,-754.64)">
        <path d="M163.467,586.72L164.703,586.72" style="fill:none;fill-rule:nonzero;stroke:black;stroke-width:0.72px;"/>
    </g>
    <g transform="matrix(-1.15171,0.671828,0.671828,1.15171,-30.3911,-749.239)">
        <path d="M165.122,584.43L165.678,584.43" style="fill:none;fill-rule:nonzero;stroke:black;stroke-width:0.72px;"/>
    </g>
    <g transform="matrix(-0.800456,1.06632,1.06632,0.800456,-316.824,-588.091)">
        <path d="M154.582,575.591L168.624,575.591L168.426,577.255L168.221,578.927L154.582,575.591Z" style="stroke:black;stroke-width:0.24px;"/>
    </g>
    <g transform="matrix(1.33333,0,0,1.33333,-48.78,-740.348)">
        <path d="M216,582.96L250.08,582.96" style="fill:none;fill-rule:nonzero;stroke:black;stroke-width:0.72px;"/>
    </g>
    <g transform="matrix(1.2958,0.314133,0.314133,-1.2958,-222.67,715.017)">
        <path d="M241.819,583.893L249.969,583.893L242.724,580.161L243.671,582.366L241.819,583.893Z" style="stroke:black;stroke-width:0.72px;"/>
    </g>
    <g transform="matrix(1.33333,0,0,1.33333,-48.78,-744.375)">
        <path d="M280.01,584.47L299.93,584.47" style="fill:none;fill-rule:nonzero;stroke:black;stroke-width:0.72px;"/>
    </g>
    <g transform="matrix(0.523391,1.22631,1.22631,-0.523391,-511.271,-26.9171)">
        <path d="M296.551,576.677L310.587,576.677L310.388,578.349L310.184,580.013L296.551,576.677Z" style="stroke:black;stroke-width:0.24px;"/>
    </g>
    <g transform="matrix(-1.15437,-0.667241,-0.667241,1.15437,1110.52,-462.833)">
        <path d="M304.661,595.495L307.919,595.495" style="fill:none;fill-rule:nonzero;stroke:black;stroke-width:0.72px;"/>
    </g>
    <g transform="matrix(-1.1532,-0.669266,-0.669266,1.1532,1106.55,-456.716)">
        <path d="M303.675,593.21L306.265,593.21" style="fill:none;fill-rule:nonzero;stroke:black;stroke-width:0.72px;"/>
    </g>
    <g transform="matrix(-1.15723,-0.662269,-0.662269,1.15723,1098.83,-456.425)">
        <path d="M302.694,590.925L304.606,590.925" style="fill:none;fill-rule:nonzero;stroke:black;stroke-width:0.72px;"/>
    </g>
    <g transform="matrix(-1.15092,-0.673178,-0.673178,1.15092,1098.54,-444.595)">
        <path d="M301.716,588.64L302.944,588.64" style="fill:none;fill-rule:nonzero;stroke:black;stroke-width:0.72px;"/>
    </g>
    <g transform="matrix(-1.15171,-0.671828,-0.671828,1.15171,1093.17,-440.663)">
        <path d="M300.732,586.35L301.288,586.35" style="fill:none;fill-rule:nonzero;stroke:black;stroke-width:0.72px;"/>
    </g>
    <g transform="matrix(-1.15437,0.667241,0.667241,1.15437,234.616,-849.786)">
        <path d="M272.011,595.495L275.269,595.495" style="fill:none;fill-rule:nonzero;stroke:black;stroke-width:0.72px;"/>
    </g>
    <g transform="matrix(-1.1532,0.669266,0.669266,1.1532,237.901,-844.843)">
        <path d="M273.665,593.21L276.255,593.21" style="fill:none;fill-rule:nonzero;stroke:black;stroke-width:0.72px;"/>
    </g>
    <g transform="matrix(-1.1555,0.665286,0.665286,1.1555,245.712,-840.308)">
        <path d="M275.333,590.925L277.237,590.925" style="fill:none;fill-rule:nonzero;stroke:black;stroke-width:0.72px;"/>
    </g>
    <g transform="matrix(-1.15366,0.668473,0.668473,1.15366,248.13,-835.301)">
        <path d="M276.987,588.64L278.223,588.64" style="fill:none;fill-rule:nonzero;stroke:black;stroke-width:0.72px;"/>
    </g>
    <g transform="matrix(-1.15171,0.671828,0.671828,1.15171,250.421,-830.276)">
        <path d="M278.642,586.35L279.198,586.35" style="fill:none;fill-rule:nonzero;stroke:black;stroke-width:0.72px;"/>
    </g>
    <g transform="matrix(-0.800456,1.06632,1.06632,0.800456,-76.6433,-713.237)">
        <path d="M268.102,577.511L282.144,577.511L281.946,579.175L281.741,580.847L268.102,577.511Z" style="stroke:black;stroke-width:0.24px;"/>
    </g>
    <g transform="matrix(0.666214,-1.15496,-1.15496,-0.666214,822.43,747.696)">
        <path d="M276.495,590.555L290.545,590.555" style="fill:none;fill-rule:nonzero;stroke:black;stroke-width:0.72px;"/>
    </g>
    <g transform="matrix(0.666926,1.15455,1.15455,-0.666926,-533.073,78.4359)">
        <path d="M289.388,590.555L303.442,590.555" style="fill:none;fill-rule:nonzero;stroke:black;stroke-width:0.72px;"/>
    </g>
    <g transform="matrix(1.33333,0,0,1.33333,-48.78,-687.228)">
        <path d="M296.88,579.36L294.96,577.92L293.28,576.48L291.6,574.56L290.4,572.64L288.48,568.32L288,565.92L288,561.6L288.48,558.24L289.2,556.8L289.68,555.36L290.4,553.92L291.36,552.48L293.28,550.08L294.48,548.88L295.68,547.92L297.12,547.2L297.84,546.72" style="fill:none;fill-rule:nonzero;stroke:black;stroke-width:0.48px;"/>
    </g>
    <g transform="matrix(1.23529,-0.501836,-0.501836,-1.23529,269.223,905.255)">
        <path d="M290.442,577.685L298.732,577.685L291.492,573.891L292.617,576.025L290.442,577.685Z" style="stroke:black;stroke-width:0.48px;"/>
    </g>
    <g transform="matrix(1.33333,0,0,1.33333,-48.78,-742.908)">
        <path d="M328.56,583.92L362.64,583.92" style="fill:none;fill-rule:nonzero;stroke:black;stroke-width:0.72px;"/>
    </g>
    <g transform="matrix(1.2958,0.314133,0.314133,-1.2958,-218.746,679.622)">
        <path d="M354.379,584.853L362.529,584.853L355.284,581.121L356.231,583.326L354.379,584.853Z" style="stroke:black;stroke-width:0.72px;"/>
    </g>
    <g transform="matrix(1.33333,0,0,1.33333,-48.78,-743.095)">
        <path d="M397.37,583.99L417.29,583.99" style="fill:none;fill-rule:nonzero;stroke:black;stroke-width:0.72px;"/>
    </g>
    <g transform="matrix(1.26249,-0.428822,-0.428822,-1.26249,233.399,954.556)">
        <path d="M416.402,586.486L431.42,586.486L431.053,589.821L416.402,586.486Z" style="stroke:black;stroke-width:0.24px;"/>
    </g>
    <g transform="matrix(-1.25917,-0.438496,-0.438496,1.25917,1308.65,-552.233)">
        <path d="M420.708,598.515L424.022,598.515" style="fill:none;fill-rule:nonzero;stroke:black;stroke-width:0.72px;"/>
    </g>
    <g transform="matrix(-1.25795,-0.441981,-0.441981,1.25795,1306.86,-543.963)">
        <path d="M420.122,596.025L422.868,596.025" style="fill:none;fill-rule:nonzero;stroke:black;stroke-width:0.72px;"/>
    </g>
    <g transform="matrix(-1.258,-0.441834,-0.441834,1.258,1303.44,-537.975)">
        <path d="M419.539,593.53L421.711,593.53" style="fill:none;fill-rule:nonzero;stroke:black;stroke-width:0.72px;"/>
    </g>
    <g transform="matrix(-1.25899,-0.438991,-0.438991,1.25899,1298.81,-533.677)">
        <path d="M418.945,591.035L420.555,591.035" style="fill:none;fill-rule:nonzero;stroke:black;stroke-width:0.72px;"/>
    </g>
    <g transform="matrix(-1.25968,-0.43703,-0.43703,1.25968,1294.59,-528.84)">
        <path d="M418.361,588.55L419.399,588.55" style="fill:none;fill-rule:nonzero;stroke:black;stroke-width:0.72px;"/>
    </g>
    <g transform="matrix(-1.26491,-0.421637,-0.421637,1.26491,1284.4,-532.256)">
        <path d="M417.768,586.055L418.242,586.055" style="fill:none;fill-rule:nonzero;stroke:black;stroke-width:0.72px;"/>
    </g>
    <g transform="matrix(0.540769,1.21875,1.21875,-0.540769,-449.098,-111.221)">
        <path d="M381.878,577.88L385.182,577.88" style="fill:none;fill-rule:nonzero;stroke:black;stroke-width:0.72px;"/>
    </g>
    <g transform="matrix(0.536985,1.22042,1.22042,-0.536985,-447.999,-117.843)">
        <path d="M384.574,578.95L387.306,578.95" style="fill:none;fill-rule:nonzero;stroke:black;stroke-width:0.72px;"/>
    </g>
    <g transform="matrix(0.538644,1.21969,1.21969,-0.538644,-447.596,-120.392)">
        <path d="M387.278,580.015L389.432,580.015" style="fill:none;fill-rule:nonzero;stroke:black;stroke-width:0.72px;"/>
    </g>
    <g transform="matrix(0.541518,1.21842,1.21842,-0.541518,-447.359,-122.016)">
        <path d="M389.982,581.08L391.558,581.08" style="fill:none;fill-rule:nonzero;stroke:black;stroke-width:0.72px;"/>
    </g>
    <g transform="matrix(0.547708,1.21565,1.21565,-0.547708,-447.566,-121.109)">
        <path d="M392.686,582.145L393.684,582.145" style="fill:none;fill-rule:nonzero;stroke:black;stroke-width:0.72px;"/>
    </g>
    <g transform="matrix(0.532781,1.22226,1.22226,-0.532781,-444.918,-136.215)">
        <path d="M395.392,583.215L395.818,583.215" style="fill:none;fill-rule:nonzero;stroke:black;stroke-width:0.72px;"/>
    </g>
    <g transform="matrix(-0.611193,1.185,1.185,0.611193,34.038,-771.204)">
        <path d="M384.077,575.321L401.551,575.321L401.223,578.662L384.077,575.321Z" style="stroke:black;stroke-width:0.24px;"/>
    </g>
    <g transform="matrix(-0.567818,-1.20638,-1.20638,0.567818,1413.24,167.131)">
        <path d="M387.024,590.555L401.536,590.555" style="fill:none;fill-rule:nonzero;stroke:black;stroke-width:0.72px;"/>
    </g>
    <g transform="matrix(0.532739,1.22228,1.22228,-0.532739,-418.639,-161.691)">
        <path d="M413.18,577.715L426.87,577.715" style="fill:none;fill-rule:nonzero;stroke:black;stroke-width:0.72px;"/>
    </g>
    <g transform="matrix(1.33333,0,0,1.33333,-48.78,-740.348)">
        <path d="M468,582.96L502.08,582.96" style="fill:none;fill-rule:nonzero;stroke:black;stroke-width:0.72px;"/>
    </g>
    <g transform="matrix(1.2958,0.314133,0.314133,-1.2958,-213.211,635.856)">
        <path d="M493.819,583.893L501.969,583.893L494.724,580.161L495.671,582.366L493.819,583.893Z" style="stroke:black;stroke-width:0.72px;"/>
    </g>
    <g transform="matrix(1.33333,0,0,1.33333,-48.78,-525.028)">
        <path d="M39.84,507.84L73.92,507.84" style="fill:none;fill-rule:nonzero;stroke:black;stroke-width:0.72px;"/>
    </g>
    <g transform="matrix(1.2958,0.314133,0.314133,-1.2958,-205.684,788.175)">
        <path d="M65.659,508.773L73.809,508.773L66.564,505.041L67.511,507.246L65.659,508.773Z" style="stroke:black;stroke-width:0.72px;"/>
    </g>
    <g transform="matrix(1.33333,0,0,1.33333,-48.78,-518.815)">
        <path d="M118.25,505.51L138.17,505.51" style="fill:none;fill-rule:nonzero;stroke:black;stroke-width:0.72px;"/>
    </g>
    <g transform="matrix(1.26249,-0.428822,-0.428822,-1.26249,179.973,855.422)">
        <path d="M137.282,508.006L152.3,508.006L151.933,511.341L137.282,508.006Z" style="stroke:black;stroke-width:0.24px;"/>
    </g>
    <g transform="matrix(-1.25917,-0.438496,-0.438496,1.25917,550.616,-456.166)">
        <path d="M141.588,520.035L144.902,520.035" style="fill:none;fill-rule:nonzero;stroke:black;stroke-width:0.72px;"/>
    </g>
    <g transform="matrix(-1.25795,-0.441981,-0.441981,1.25795,548.899,-448.965)">
        <path d="M141.002,517.545L143.748,517.545" style="fill:none;fill-rule:nonzero;stroke:black;stroke-width:0.72px;"/>
    </g>
    <g transform="matrix(-1.258,-0.441834,-0.441834,1.258,545.473,-442.932)">
        <path d="M140.419,515.05L142.591,515.05" style="fill:none;fill-rule:nonzero;stroke:black;stroke-width:0.72px;"/>
    </g>
    <g transform="matrix(-1.25899,-0.438991,-0.438991,1.25899,540.786,-437.763)">
        <path d="M139.825,512.555L141.435,512.555" style="fill:none;fill-rule:nonzero;stroke:black;stroke-width:0.72px;"/>
    </g>
    <g transform="matrix(-1.25968,-0.43703,-0.43703,1.25968,536.535,-432.325)">
        <path d="M139.241,510.07L140.279,510.07" style="fill:none;fill-rule:nonzero;stroke:black;stroke-width:0.72px;"/>
    </g>
    <g transform="matrix(-1.26491,-0.421637,-0.421637,1.26491,526.09,-431.033)">
        <path d="M138.648,507.575L139.122,507.575" style="fill:none;fill-rule:nonzero;stroke:black;stroke-width:0.72px;"/>
    </g>
    <g transform="matrix(0.540769,1.21875,1.21875,-0.540769,-574.671,306.156)">
        <path d="M102.758,499.4L106.062,499.4" style="fill:none;fill-rule:nonzero;stroke:black;stroke-width:0.72px;"/>
    </g>
    <g transform="matrix(0.536985,1.22042,1.22042,-0.536985,-574.498,300.298)">
        <path d="M105.454,500.47L108.186,500.47" style="fill:none;fill-rule:nonzero;stroke:black;stroke-width:0.72px;"/>
    </g>
    <g transform="matrix(0.538644,1.21969,1.21969,-0.538644,-573.689,297.415)">
        <path d="M108.158,501.535L110.312,501.535" style="fill:none;fill-rule:nonzero;stroke:black;stroke-width:0.72px;"/>
    </g>
    <g transform="matrix(0.541518,1.21842,1.21842,-0.541518,-572.749,295.21)">
        <path d="M110.862,502.6L112.438,502.6" style="fill:none;fill-rule:nonzero;stroke:black;stroke-width:0.72px;"/>
    </g>
    <g transform="matrix(0.547708,1.21565,1.21565,-0.547708,-571.446,294.858)">
        <path d="M113.566,503.665L114.564,503.665" style="fill:none;fill-rule:nonzero;stroke:black;stroke-width:0.72px;"/>
    </g>
    <g transform="matrix(0.532781,1.22226,1.22226,-0.532781,-572.446,282.77)">
        <path d="M116.272,504.735L116.698,504.735" style="fill:none;fill-rule:nonzero;stroke:black;stroke-width:0.72px;"/>
    </g>
    <g transform="matrix(-0.611193,1.185,1.185,0.611193,-415.72,-272.841)">
        <path d="M104.957,496.841L122.431,496.841L122.103,500.182L104.957,496.841Z" style="stroke:black;stroke-width:0.24px;"/>
    </g>
    <g transform="matrix(-0.567818,-1.20638,-1.20638,0.567818,787.915,-5.39277)">
        <path d="M107.904,512.075L122.416,512.075" style="fill:none;fill-rule:nonzero;stroke:black;stroke-width:0.72px;"/>
    </g>
    <g transform="matrix(0.532739,1.22228,1.22228,-0.532739,-546.177,257.302)">
        <path d="M134.06,499.235L147.75,499.235" style="fill:none;fill-rule:nonzero;stroke:black;stroke-width:0.72px;"/>
    </g>
    <g transform="matrix(1.33333,0,0,1.33333,-48.78,-523.748)">
        <path d="M191.52,507.36L225.6,507.36" style="fill:none;fill-rule:nonzero;stroke:black;stroke-width:0.72px;"/>
    </g>
    <g transform="matrix(1.2958,0.314133,0.314133,-1.2958,-199.84,740.545)">
        <path d="M217.339,508.293L225.489,508.293L218.244,504.561L219.191,506.766L217.339,508.293Z" style="stroke:black;stroke-width:0.72px;"/>
    </g>
    <g transform="matrix(1.33333,0,0,1.33333,-48.78,-517.535)">
        <path d="M267.77,505.03L287.69,505.03" style="fill:none;fill-rule:nonzero;stroke:black;stroke-width:0.72px;"/>
    </g>
    <g transform="matrix(0.403533,1.2708,1.2708,-0.403533,-409.416,-3.80915)">
        <path d="M283.05,495.752L299.438,495.752L299.093,499.093L283.05,495.752Z" style="stroke:black;stroke-width:0.24px;"/>
    </g>
    <g transform="matrix(0.439792,-1.25871,-1.25871,-0.439792,856.358,736.488)">
        <path d="M282.093,512.915L298.797,512.915" style="fill:none;fill-rule:nonzero;stroke:black;stroke-width:0.72px;"/>
    </g>
    <g transform="matrix(0.540769,1.21875,1.21875,-0.540769,-455.582,124.309)">
        <path d="M252.278,498.92L255.582,498.92" style="fill:none;fill-rule:nonzero;stroke:black;stroke-width:0.72px;"/>
    </g>
    <g transform="matrix(0.536985,1.22042,1.22042,-0.536985,-454.842,118.203)">
        <path d="M254.974,499.99L257.706,499.99" style="fill:none;fill-rule:nonzero;stroke:black;stroke-width:0.72px;"/>
    </g>
    <g transform="matrix(0.538644,1.21969,1.21969,-0.538644,-454.281,115.429)">
        <path d="M257.678,501.055L259.832,501.055" style="fill:none;fill-rule:nonzero;stroke:black;stroke-width:0.72px;"/>
    </g>
    <g transform="matrix(0.541518,1.21842,1.21842,-0.541518,-453.772,113.412)">
        <path d="M260.382,502.12L261.958,502.12" style="fill:none;fill-rule:nonzero;stroke:black;stroke-width:0.72px;"/>
    </g>
    <g transform="matrix(0.547708,1.21565,1.21565,-0.547708,-453.395,113.472)">
        <path d="M263.086,503.185L264.084,503.185" style="fill:none;fill-rule:nonzero;stroke:black;stroke-width:0.72px;"/>
    </g>
    <g transform="matrix(0.532781,1.22226,1.22226,-0.532781,-452.16,100.402)">
        <path d="M265.792,504.255L266.218,504.255" style="fill:none;fill-rule:nonzero;stroke:black;stroke-width:0.72px;"/>
    </g>
    <g transform="matrix(-0.611193,1.185,1.185,0.611193,-124.405,-449.088)">
        <path d="M254.477,496.361L271.951,496.361L271.623,499.702L254.477,496.361Z" style="stroke:black;stroke-width:0.24px;"/>
    </g>
    <g transform="matrix(-0.567818,-1.20638,-1.20638,0.567818,1071.6,175.898)">
        <path d="M257.424,511.595L271.936,511.595" style="fill:none;fill-rule:nonzero;stroke:black;stroke-width:0.72px;"/>
    </g>
    <g transform="matrix(0.241345,-1.31131,-1.31131,-0.241345,940.26,677.43)">
        <path d="M300.883,502.3L304.197,502.3" style="fill:none;fill-rule:nonzero;stroke:black;stroke-width:0.72px;"/>
    </g>
    <g transform="matrix(0.239806,-1.31159,-1.31159,-0.239806,938.66,672.814)">
        <path d="M298.583,502.78L301.307,502.78" style="fill:none;fill-rule:nonzero;stroke:black;stroke-width:0.72px;"/>
    </g>
    <g transform="matrix(0.241235,-1.31133,-1.31133,-0.241235,935.889,669.52)">
        <path d="M296.267,503.26L298.423,503.26" style="fill:none;fill-rule:nonzero;stroke:black;stroke-width:0.72px;"/>
    </g>
    <g transform="matrix(0.237024,-1.3121,-1.3121,-0.237024,935.306,663.703)">
        <path d="M293.962,503.735L295.538,503.735" style="fill:none;fill-rule:nonzero;stroke:black;stroke-width:0.72px;"/>
    </g>
    <g transform="matrix(0.240869,-1.3114,-1.3114,-0.240869,931.614,661.518)">
        <path d="M291.662,504.21L292.658,504.21" style="fill:none;fill-rule:nonzero;stroke:black;stroke-width:0.72px;"/>
    </g>
    <g transform="matrix(0.249483,-1.30978,-1.30978,-0.249483,926.095,661.465)">
        <path d="M289.346,504.69L289.774,504.69" style="fill:none;fill-rule:nonzero;stroke:black;stroke-width:0.72px;"/>
    </g>
    <g transform="matrix(1.33333,0,0,1.33333,-48.78,-522.468)">
        <path d="M324.96,506.88L359.04,506.88" style="fill:none;fill-rule:nonzero;stroke:black;stroke-width:0.72px;"/>
    </g>
    <g transform="matrix(1.2958,0.314133,0.314133,-1.2958,-194.681,698.645)">
        <path d="M350.779,507.813L358.929,507.813L351.684,504.081L352.631,506.286L350.779,507.813Z" style="stroke:black;stroke-width:0.72px;"/>
    </g>
    <g transform="matrix(1.33333,0,0,1.33333,-48.78,-503.268)">
        <path d="M391.68,499.68L411.6,499.68" style="fill:none;fill-rule:nonzero;stroke:black;stroke-width:0.72px;"/>
    </g>
    <g transform="matrix(1.33333,0,0,1.33333,-48.78,-512.228)">
        <path d="M393.34,503.04L409.94,503.04" style="fill:none;fill-rule:nonzero;stroke:black;stroke-width:0.72px;"/>
    </g>
    <g transform="matrix(-0.666796,-1.15463,-1.15463,0.666796,1311.57,266.03)">
        <path d="M381.286,505.68L395.144,505.68" style="fill:none;fill-rule:nonzero;stroke:black;stroke-width:0.72px;"/>
    </g>
    <g transform="matrix(0.666796,-1.15463,-1.15463,-0.666796,811.747,971.402)">
        <path d="M408.136,505.68L421.994,505.68" style="fill:none;fill-rule:nonzero;stroke:black;stroke-width:0.72px;"/>
    </g>
    <g transform="matrix(0,1.33333,1.33333,0,-478.86,64.4121)">
        <path d="M107.76,448.08L143.28,448.08" style="fill:none;fill-rule:nonzero;stroke:black;stroke-width:0.72px;"/>
    </g>
    <g transform="matrix(-0.314133,1.2958,1.2958,0.314133,-404.73,-48.8985)">
        <path d="M121.219,435.213L129.369,435.213L122.124,431.481L123.071,433.686L121.219,435.213Z" style="stroke:black;stroke-width:0.72px;"/>
    </g>
    <g transform="matrix(1.33333,0,0,1.33333,-48.78,-218.655)">
        <path d="M116.33,392.95L136.25,392.95" style="fill:none;fill-rule:nonzero;stroke:black;stroke-width:0.72px;"/>
    </g>
    <g transform="matrix(0.584205,-1.19853,-1.19853,-0.584205,534.518,697.06)">
        <path d="M132.147,399.515L146.753,399.515" style="fill:none;fill-rule:nonzero;stroke:black;stroke-width:0.72px;"/>
    </g>
    <g transform="matrix(0.649967,-1.16418,-1.16418,-0.649967,502.148,735.813)">
        <path d="M145.309,386.985L148.551,386.985" style="fill:none;fill-rule:nonzero;stroke:black;stroke-width:0.72px;"/>
    </g>
    <g transform="matrix(0.650193,-1.16406,-1.16406,-0.650193,501.984,732.315)">
        <path d="M143.349,388.27L145.891,388.27" style="fill:none;fill-rule:nonzero;stroke:black;stroke-width:0.72px;"/>
    </g>
    <g transform="matrix(0.647524,-1.16554,-1.16554,-0.647524,502.873,727.928)">
        <path d="M141.393,389.56L143.247,389.56" style="fill:none;fill-rule:nonzero;stroke:black;stroke-width:0.72px;"/>
    </g>
    <g transform="matrix(0.651471,-1.16334,-1.16334,-0.651471,501.379,725.586)">
        <path d="M139.437,390.85L140.583,390.85" style="fill:none;fill-rule:nonzero;stroke:black;stroke-width:0.72px;"/>
    </g>
    <g transform="matrix(0.655095,-1.1613,-1.1613,-0.655095,500.008,723.174)">
        <path d="M137.486,392.135L137.934,392.135" style="fill:none;fill-rule:nonzero;stroke:black;stroke-width:0.72px;"/>
    </g>
    <g transform="matrix(0.540769,1.21875,1.21875,-0.540769,-439.011,397.707)">
        <path d="M100.838,386.84L104.142,386.84" style="fill:none;fill-rule:nonzero;stroke:black;stroke-width:0.72px;"/>
    </g>
    <g transform="matrix(0.536985,1.22042,1.22042,-0.536985,-438.656,392.279)">
        <path d="M103.534,387.91L106.266,387.91" style="fill:none;fill-rule:nonzero;stroke:black;stroke-width:0.72px;"/>
    </g>
    <g transform="matrix(0.538644,1.21969,1.21969,-0.538644,-437.926,389.207)">
        <path d="M106.238,388.975L108.392,388.975" style="fill:none;fill-rule:nonzero;stroke:black;stroke-width:0.72px;"/>
    </g>
    <g transform="matrix(0.541518,1.21842,1.21842,-0.541518,-437.125,386.676)">
        <path d="M108.942,390.04L110.518,390.04" style="fill:none;fill-rule:nonzero;stroke:black;stroke-width:0.72px;"/>
    </g>
    <g transform="matrix(0.547708,1.21565,1.21565,-0.547708,-436.121,385.622)">
        <path d="M111.646,391.105L112.644,391.105" style="fill:none;fill-rule:nonzero;stroke:black;stroke-width:0.72px;"/>
    </g>
    <g transform="matrix(0.532781,1.22226,1.22226,-0.532781,-436.405,375.227)">
        <path d="M114.352,392.175L114.778,392.175" style="fill:none;fill-rule:nonzero;stroke:black;stroke-width:0.72px;"/>
    </g>
    <g transform="matrix(-0.611193,1.185,1.185,0.611193,-286.07,-51.6897)">
        <path d="M103.037,384.281L120.511,384.281L120.183,387.622L103.037,384.281Z" style="stroke:black;stroke-width:0.24px;"/>
    </g>
    <g transform="matrix(-0.567818,-1.20638,-1.20638,0.567818,648.475,206.285)">
        <path d="M105.984,399.515L120.496,399.515" style="fill:none;fill-rule:nonzero;stroke:black;stroke-width:0.72px;"/>
    </g>
    <g transform="matrix(0.27203,1.30529,1.30529,-0.27203,-402.313,238.993)">
        <path d="M130.564,382.814L148.062,382.814L147.899,384.482L147.738,386.16L130.564,382.814Z" style="stroke:black;stroke-width:0.24px;"/>
    </g>
    <g transform="matrix(1.33333,0,0,1.33333,-48.78,-224.868)">
        <path d="M187.44,395.28L221.52,395.28" style="fill:none;fill-rule:nonzero;stroke:black;stroke-width:0.72px;"/>
    </g>
    <g transform="matrix(1.2958,0.314133,0.314133,-1.2958,-164.785,746.033)">
        <path d="M213.259,396.213L221.409,396.213L214.164,392.481L215.111,394.686L213.259,396.213Z" style="stroke:black;stroke-width:0.72px;"/>
    </g>
    <g transform="matrix(1.33333,0,0,1.33333,-48.78,-213.348)">
        <path d="M256.8,390.96L276.72,390.96" style="fill:none;fill-rule:nonzero;stroke:black;stroke-width:0.72px;"/>
    </g>
    <g transform="matrix(1.33333,0,0,1.33333,-48.78,-204.388)">
        <path d="M256.8,387.6L275.06,387.6" style="fill:none;fill-rule:nonzero;stroke:black;stroke-width:0.72px;"/>
    </g>
    <g transform="matrix(-0.666796,-1.15463,-1.15463,0.666796,916.263,327.748)">
        <path d="M246.406,396.96L260.264,396.96" style="fill:none;fill-rule:nonzero;stroke:black;stroke-width:0.72px;"/>
    </g>
    <g transform="matrix(0.666796,1.15463,1.15463,-0.666796,-306.511,249.113)">
        <path d="M273.256,384.96L287.114,384.96" style="fill:none;fill-rule:nonzero;stroke:black;stroke-width:0.72px;"/>
    </g>
</svg>
