<?xml version="1.0" encoding="UTF-8" standalone="no"?>
<!DOCTYPE svg PUBLIC "-//W3C//DTD SVG 1.1//EN" "http://www.w3.org/Graphics/SVG/1.1/DTD/svg11.dtd">
<svg width="100%" height="100%" viewBox="0 0 530 230" version="1.1" xmlns="http://www.w3.org/2000/svg" xmlns:xlink="http://www.w3.org/1999/xlink" xml:space="preserve" xmlns:serif="http://www.serif.com/" style="fill-rule:evenodd;clip-rule:evenodd;stroke-linecap:round;stroke-linejoin:round;stroke-miterlimit:10;">
    <g transform="matrix(1.15468,0.666702,0.666702,-1.15468,-604.605,837.824)">
        <path d="M100.596,774.97L120.514,774.97" style="fill:none;fill-rule:nonzero;stroke:black;stroke-width:0.72px;"/>
    </g>
    <g transform="matrix(1.15468,-0.666702,-0.666702,-1.15468,408.822,990.577)">
        <path d="M100.596,745.09L120.514,745.09" style="fill:none;fill-rule:nonzero;stroke:black;stroke-width:0.72px;"/>
    </g>
    <g transform="matrix(1.15468,-0.666702,-0.666702,-1.15468,425.661,973.738)">
        <path d="M83.346,774.97L103.264,774.97" style="fill:none;fill-rule:nonzero;stroke:black;stroke-width:0.72px;"/>
    </g>
    <g transform="matrix(1.15458,-0.666876,-0.666876,-1.15458,424.165,975.317)">
        <path d="M86.688,772.06L103.282,772.06" style="fill:none;fill-rule:nonzero;stroke:black;stroke-width:0.72px;"/>
    </g>
    <g transform="matrix(1.15468,0.666702,0.666702,-1.15468,-587.766,854.663)">
        <path d="M83.346,745.09L103.264,745.09" style="fill:none;fill-rule:nonzero;stroke:black;stroke-width:0.72px;"/>
    </g>
    <g transform="matrix(1.15458,0.666876,0.666876,-1.15458,-589.527,852.931)">
        <path d="M86.688,748L103.282,748" style="fill:none;fill-rule:nonzero;stroke:black;stroke-width:0.72px;"/>
    </g>
    <g transform="matrix(0,-1.33333,-1.33333,0,1018.6,149.515)">
        <path d="M74.72,760.03L94.64,760.03" style="fill:none;fill-rule:nonzero;stroke:black;stroke-width:0.72px;"/>
    </g>
    <g transform="matrix(-1.33333,0,0,1.33333,236.691,-1003.32)">
        <path d="M119.18,769.99L139.1,769.99" style="fill:none;fill-rule:nonzero;stroke:black;stroke-width:0.72px;"/>
    </g>
    <g transform="matrix(0,-1.33333,-1.33333,0,1064.6,195.515)">
        <path d="M109.22,760.03L129.14,760.03" style="fill:none;fill-rule:nonzero;stroke:black;stroke-width:0.72px;"/>
    </g>
    <g transform="matrix(0,-1.33333,-1.33333,0,1069.08,199.995)">
        <path d="M116.18,760.03L128.9,760.03" style="fill:none;fill-rule:nonzero;stroke:black;stroke-width:0.72px;"/>
    </g>
    <g transform="matrix(1.33333,0,0,1.33333,-107.682,-950.205)">
        <path d="M119.18,750.07L139.1,750.07" style="fill:none;fill-rule:nonzero;stroke:black;stroke-width:0.72px;"/>
    </g>
    <g transform="matrix(0,1.33333,1.33333,0,-935.589,-148.858)">
        <path d="M129.14,760.03L149.06,760.03" style="fill:none;fill-rule:nonzero;stroke:black;stroke-width:0.72px;"/>
    </g>
    <g transform="matrix(1.33333,0,0,1.33333,-107.682,-973.698)">
        <path d="M156,758.88L190.08,758.88" style="fill:none;fill-rule:nonzero;stroke:black;stroke-width:0.72px;"/>
    </g>
    <g transform="matrix(1.33333,0,0,1.33333,-107.682,-981.378)">
        <path d="M156,761.76L190.08,761.76" style="fill:none;fill-rule:nonzero;stroke:black;stroke-width:0.72px;"/>
    </g>
    <g transform="matrix(1.33333,0,0,1.33333,-107.682,-977.538)">
        <path d="M185.52,756.72L193.44,760.32L185.52,763.92" style="fill:none;fill-rule:nonzero;stroke:black;stroke-width:0.72px;"/>
    </g>
    <g transform="matrix(1.33333,0,0,1.33333,-107.682,-72.5779)">
        <text x="274.32px" y="96.48px" style="font-family:'ArialMT', 'Arial', sans-serif;font-size:10px;">O</text>
    </g>
    <g transform="matrix(1.33333,0,0,1.33333,-107.682,-72.5779)">
        <text x="291.6px" y="66.72px" style="font-family:'ArialMT', 'Arial', sans-serif;font-size:10px;">O</text>
    </g>
    <g transform="matrix(1.33333,0,0,1.33333,-107.682,-72.5779)">
        <text x="449.52px" y="85.92px" style="font-family:'ArialMT', 'Arial', sans-serif;font-size:10px;">O</text>
    </g>
    <g transform="matrix(1.33333,0,0,1.33333,-107.682,-72.5779)">
        <text x="423.12px" y="169.92px" style="font-family:'ArialMT', 'Arial', sans-serif;font-size:10px;">O</text>
    </g>
    <g transform="matrix(1.33333,0,0,1.33333,-107.682,-72.5779)">
        <text x="448.56px" y="204.96px" style="font-family:'ArialMT', 'Arial', sans-serif;font-size:10px;">O<tspan x="456.48px " y="204.96px ">H</tspan></text>
    </g>
    <g transform="matrix(1.33333,0,0,1.33333,-107.682,-72.5779)">
        <text x="455.76px" y="180.48px" style="font-family:'ArialMT', 'Arial', sans-serif;font-size:10px;">O</text>
    </g>
    <g transform="matrix(1.15468,0.666702,0.666702,-1.15468,-581.872,754.908)">
        <path d="M225.156,774.25L245.074,774.25" style="fill:none;fill-rule:nonzero;stroke:black;stroke-width:0.72px;"/>
    </g>
    <g transform="matrix(1.15468,-0.666702,-0.666702,-1.15468,430.595,1073.75)">
        <path d="M225.156,744.37L245.074,744.37" style="fill:none;fill-rule:nonzero;stroke:black;stroke-width:0.72px;"/>
    </g>
    <g transform="matrix(1.15468,-0.666702,-0.666702,-1.15468,447.434,1056.91)">
        <path d="M207.906,774.25L227.824,774.25" style="fill:none;fill-rule:nonzero;stroke:black;stroke-width:0.72px;"/>
    </g>
    <g transform="matrix(1.15458,-0.666876,-0.666876,-1.15458,445.951,1058.51)">
        <path d="M211.248,771.34L227.842,771.34" style="fill:none;fill-rule:nonzero;stroke:black;stroke-width:0.72px;"/>
    </g>
    <g transform="matrix(1.15468,0.666702,0.666702,-1.15468,-565.033,771.747)">
        <path d="M207.906,744.37L227.824,744.37" style="fill:none;fill-rule:nonzero;stroke:black;stroke-width:0.72px;"/>
    </g>
    <g transform="matrix(1.15458,0.666876,0.666876,-1.15458,-566.781,769.994)">
        <path d="M211.248,747.28L227.842,747.28" style="fill:none;fill-rule:nonzero;stroke:black;stroke-width:0.72px;"/>
    </g>
    <g transform="matrix(0,-1.33333,-1.33333,0,1183.72,316.555)">
        <path d="M199.28,759.31L219.2,759.31" style="fill:none;fill-rule:nonzero;stroke:black;stroke-width:0.72px;"/>
    </g>
    <g transform="matrix(0,-1.33333,-1.33333,0,1279.2,405.095)">
        <path d="M270.895,761.915L285.605,761.915" style="fill:none;fill-rule:nonzero;stroke:black;stroke-width:0.72px;"/>
    </g>
    <g transform="matrix(1.15485,0.666412,0.666412,-1.15485,-575.529,732.111)">
        <path d="M259.656,774.25L279.584,774.25" style="fill:none;fill-rule:nonzero;stroke:black;stroke-width:0.72px;"/>
    </g>
    <g transform="matrix(1.15477,-0.666539,-0.666539,-1.15477,435.236,1095.4)">
        <path d="M260.034,742.96L274.316,742.96" style="fill:none;fill-rule:nonzero;stroke:black;stroke-width:0.72px;"/>
    </g>
    <g transform="matrix(1.15468,-0.666702,-0.666702,-1.15468,453.598,1079.91)">
        <path d="M242.406,774.25L262.324,774.25" style="fill:none;fill-rule:nonzero;stroke:black;stroke-width:0.72px;"/>
    </g>
    <g transform="matrix(1.15468,0.666702,0.666702,-1.15468,-558.87,748.746)">
        <path d="M242.406,744.37L262.324,744.37" style="fill:none;fill-rule:nonzero;stroke:black;stroke-width:0.72px;"/>
    </g>
    <g transform="matrix(0,-1.33333,-1.33333,0,1229.72,362.555)">
        <path d="M233.78,759.31L253.7,759.31" style="fill:none;fill-rule:nonzero;stroke:black;stroke-width:0.72px;"/>
    </g>
    <g transform="matrix(0,-1.33333,-1.33333,0,1234.2,367.035)">
        <path d="M238.8,759.31L255.4,759.31" style="fill:none;fill-rule:nonzero;stroke:black;stroke-width:0.72px;"/>
    </g>
    <g transform="matrix(1.15463,-0.666787,-0.666787,-1.15463,457.413,1102.12)">
        <path d="M278.196,771.145L291.534,771.145" style="fill:none;fill-rule:nonzero;stroke:black;stroke-width:0.72px;"/>
    </g>
    <g transform="matrix(1.15464,-0.666775,-0.666775,-1.15464,459.516,1100.96)">
        <path d="M276.386,774.54L291.664,774.54" style="fill:none;fill-rule:nonzero;stroke:black;stroke-width:0.72px;"/>
    </g>
    <g transform="matrix(1.33333,0,0,1.33333,-107.682,-971.778)">
        <path d="M312.48,758.16L346.56,758.16" style="fill:none;fill-rule:nonzero;stroke:black;stroke-width:0.72px;"/>
    </g>
    <g transform="matrix(1.33333,0,0,1.33333,-107.682,-979.458)">
        <path d="M312.48,761.04L346.56,761.04" style="fill:none;fill-rule:nonzero;stroke:black;stroke-width:0.72px;"/>
    </g>
    <g transform="matrix(1.33333,0,0,1.33333,-107.682,-975.618)">
        <path d="M342,756L349.92,759.6L342,763.2" style="fill:none;fill-rule:nonzero;stroke:black;stroke-width:0.72px;"/>
    </g>
    <g transform="matrix(1.15468,0.666702,0.666702,-1.15468,-553.925,648.694)">
        <path d="M384.276,774.97L404.194,774.97" style="fill:none;fill-rule:nonzero;stroke:black;stroke-width:0.72px;"/>
    </g>
    <g transform="matrix(1.15468,-0.666702,-0.666702,-1.15468,459.502,1179.71)">
        <path d="M384.276,745.09L404.194,745.09" style="fill:none;fill-rule:nonzero;stroke:black;stroke-width:0.72px;"/>
    </g>
    <g transform="matrix(1.15468,-0.666702,-0.666702,-1.15468,476.342,1162.87)">
        <path d="M367.026,774.97L386.944,774.97" style="fill:none;fill-rule:nonzero;stroke:black;stroke-width:0.72px;"/>
    </g>
    <g transform="matrix(1.15458,-0.666876,-0.666876,-1.15458,474.874,1164.5)">
        <path d="M370.368,772.06L386.962,772.06" style="fill:none;fill-rule:nonzero;stroke:black;stroke-width:0.72px;"/>
    </g>
    <g transform="matrix(1.15468,0.666702,0.666702,-1.15468,-537.086,665.533)">
        <path d="M367.026,745.09L386.944,745.09" style="fill:none;fill-rule:nonzero;stroke:black;stroke-width:0.72px;"/>
    </g>
    <g transform="matrix(1.15458,0.666876,0.666876,-1.15458,-538.818,663.752)">
        <path d="M370.368,748L386.962,748" style="fill:none;fill-rule:nonzero;stroke:black;stroke-width:0.72px;"/>
    </g>
    <g transform="matrix(0,-1.33333,-1.33333,0,1396.84,527.755)">
        <path d="M358.4,760.03L378.32,760.03" style="fill:none;fill-rule:nonzero;stroke:black;stroke-width:0.72px;"/>
    </g>
    <g transform="matrix(-1.26822,0.411585,0.411585,1.26822,646.846,-1130.9)">
        <path d="M402.374,773.065L422.296,773.065" style="fill:none;fill-rule:nonzero;stroke:black;stroke-width:0.72px;"/>
    </g>
    <g transform="matrix(0,-1.33333,-1.33333,0,1442.84,573.755)">
        <path d="M392.9,760.03L412.82,760.03" style="fill:none;fill-rule:nonzero;stroke:black;stroke-width:0.72px;"/>
    </g>
    <g transform="matrix(0,-1.33333,-1.33333,0,1447.32,578.235)">
        <path d="M398.77,760.03L413.67,760.03" style="fill:none;fill-rule:nonzero;stroke:black;stroke-width:0.72px;"/>
    </g>
    <g transform="matrix(-0.783512,-1.07884,-1.07884,0.783512,1626.25,-114.56)">
        <path d="M417.705,768.085L437.615,768.085" style="fill:none;fill-rule:nonzero;stroke:black;stroke-width:0.72px;"/>
    </g>
    <g transform="matrix(-1.26802,-0.41219,-0.41219,1.26802,1272.85,-723.243)">
        <path d="M402.372,746.99L422.298,746.99" style="fill:none;fill-rule:nonzero;stroke:black;stroke-width:0.72px;"/>
    </g>
    <g transform="matrix(0.783194,-1.07907,-1.07907,-0.783194,939.016,1097.77)">
        <path d="M417.701,751.97L437.619,751.97" style="fill:none;fill-rule:nonzero;stroke:black;stroke-width:0.72px;"/>
    </g>
    <g transform="matrix(1.33333,0,0,1.33333,-107.682,-972.285)">
        <path d="M433.51,758.35L448.56,758.35" style="fill:none;fill-rule:nonzero;stroke:black;stroke-width:0.72px;"/>
    </g>
    <g transform="matrix(1.33333,0,0,1.33333,-107.682,-981.245)">
        <path d="M433.51,761.71L448.56,761.71" style="fill:none;fill-rule:nonzero;stroke:black;stroke-width:0.72px;"/>
    </g>
    <g transform="matrix(0,1.33333,1.33333,0,-516.002,-429.058)">
        <path d="M385.2,707.76L417.84,707.76" style="fill:none;fill-rule:nonzero;stroke:black;stroke-width:0.72px;"/>
    </g>
    <g transform="matrix(0,1.33333,1.33333,0,-512.162,-432.898)">
        <path d="M388.08,707.76L420.72,707.76" style="fill:none;fill-rule:nonzero;stroke:black;stroke-width:0.72px;"/>
    </g>
    <g transform="matrix(1.33333,0,0,1.33333,-107.682,-795.458)">
        <path d="M406.56,688.08L402.96,696L399.36,688.08" style="fill:none;fill-rule:nonzero;stroke:black;stroke-width:0.72px;"/>
    </g>
    <g transform="matrix(1.15468,0.666702,0.666702,-1.15468,-474.732,670.601)">
        <path d="M383.316,655.93L403.234,655.93" style="fill:none;fill-rule:nonzero;stroke:black;stroke-width:0.72px;"/>
    </g>
    <g transform="matrix(1.15468,-0.666702,-0.666702,-1.15468,379.967,1200.33)">
        <path d="M383.316,626.05L403.234,626.05" style="fill:none;fill-rule:nonzero;stroke:black;stroke-width:0.72px;"/>
    </g>
    <g transform="matrix(1.15468,-0.666702,-0.666702,-1.15468,396.806,1183.49)">
        <path d="M366.066,655.93L385.984,655.93" style="fill:none;fill-rule:nonzero;stroke:black;stroke-width:0.72px;"/>
    </g>
    <g transform="matrix(1.15458,-0.666876,-0.666876,-1.15458,395.317,1185.13)">
        <path d="M369.408,653.02L386.002,653.02" style="fill:none;fill-rule:nonzero;stroke:black;stroke-width:0.72px;"/>
    </g>
    <g transform="matrix(1.15468,0.666702,0.666702,-1.15468,-457.893,687.439)">
        <path d="M366.066,626.05L385.984,626.05" style="fill:none;fill-rule:nonzero;stroke:black;stroke-width:0.72px;"/>
    </g>
    <g transform="matrix(1.15458,0.666876,0.666876,-1.15458,-459.604,685.671)">
        <path d="M369.408,628.96L386.002,628.96" style="fill:none;fill-rule:nonzero;stroke:black;stroke-width:0.72px;"/>
    </g>
    <g transform="matrix(0,-1.33333,-1.33333,0,1236.84,685.195)">
        <path d="M357.44,640.99L377.36,640.99" style="fill:none;fill-rule:nonzero;stroke:black;stroke-width:0.72px;"/>
    </g>
    <g transform="matrix(-1.26822,0.411585,0.411585,1.26822,693.344,-820.813)">
        <path d="M401.414,654.025L421.336,654.025" style="fill:none;fill-rule:nonzero;stroke:black;stroke-width:0.72px;"/>
    </g>
    <g transform="matrix(0,-1.33333,-1.33333,0,1282.84,731.195)">
        <path d="M391.94,640.99L411.86,640.99" style="fill:none;fill-rule:nonzero;stroke:black;stroke-width:0.72px;"/>
    </g>
    <g transform="matrix(0,-1.33333,-1.33333,0,1287.32,735.675)">
        <path d="M397.81,640.99L412.71,640.99" style="fill:none;fill-rule:nonzero;stroke:black;stroke-width:0.72px;"/>
    </g>
    <g transform="matrix(-0.783512,-1.07884,-1.07884,0.783512,1495.79,136.393)">
        <path d="M416.745,649.045L436.655,649.045" style="fill:none;fill-rule:nonzero;stroke:black;stroke-width:0.72px;"/>
    </g>
    <g transform="matrix(-1.26802,-0.41219,-0.41219,1.26802,1221.28,-413.973)">
        <path d="M401.412,627.95L421.338,627.95" style="fill:none;fill-rule:nonzero;stroke:black;stroke-width:0.72px;"/>
    </g>
    <g transform="matrix(0.783194,-1.07907,-1.07907,-0.783194,810.036,1162.22)">
        <path d="M416.741,632.93L436.659,632.93" style="fill:none;fill-rule:nonzero;stroke:black;stroke-width:0.72px;"/>
    </g>
    <g transform="matrix(0.411905,-1.26811,-1.26811,-0.411905,1124.11,974.707)">
        <path d="M415.873,663.95L430.277,663.95" style="fill:none;fill-rule:nonzero;stroke:black;stroke-width:0.72px;"/>
    </g>
    <g transform="matrix(1.3042,-0.27722,-0.27722,-1.3042,93.2519,1151.98)">
        <path d="M431.838,678.65L446.652,678.65" style="fill:none;fill-rule:nonzero;stroke:black;stroke-width:0.72px;"/>
    </g>
    <g transform="matrix(1.33333,0,0,1.33333,-107.682,-659.325)">
        <path d="M432.55,640.99L447.6,640.99" style="fill:none;fill-rule:nonzero;stroke:black;stroke-width:0.72px;"/>
    </g>
    <g transform="matrix(0.892124,0.990905,0.990905,-0.892124,-578.007,305.275)">
        <path d="M444.346,675.375L457.304,675.375" style="fill:none;fill-rule:nonzero;stroke:black;stroke-width:0.72px;"/>
    </g>
    <g transform="matrix(0.891851,0.99115,0.99115,-0.891851,-574.416,307.638)">
        <path d="M442.699,671.32L457.201,671.32" style="fill:none;fill-rule:nonzero;stroke:black;stroke-width:0.72px;"/>
    </g>
    <g transform="matrix(1.33333,0,0,1.33333,-107.682,-650.498)">
        <path d="M315.36,637.68L349.44,637.68" style="fill:none;fill-rule:nonzero;stroke:black;stroke-width:0.72px;"/>
    </g>
    <g transform="matrix(1.33333,0,0,1.33333,-107.682,-658.178)">
        <path d="M315.36,640.56L349.44,640.56" style="fill:none;fill-rule:nonzero;stroke:black;stroke-width:0.72px;"/>
    </g>
    <g transform="matrix(1.33333,0,0,1.33333,-107.682,-654.338)">
        <path d="M319.92,635.52L312,639.12L319.92,642.72" style="fill:none;fill-rule:nonzero;stroke:black;stroke-width:0.72px;"/>
    </g>
    <g transform="matrix(0,-1.33333,-1.33333,0,1145.56,596.475)">
        <path d="M289.94,640.03L309.86,640.03" style="fill:none;fill-rule:nonzero;stroke:black;stroke-width:0.72px;"/>
    </g>
    <g transform="matrix(1.15468,0.666702,0.666702,-1.15468,-492.315,738.776)">
        <path d="M281.316,654.97L301.234,654.97" style="fill:none;fill-rule:nonzero;stroke:black;stroke-width:0.72px;"/>
    </g>
    <g transform="matrix(1.15458,0.666876,0.666876,-1.15458,-490.759,740.3)">
        <path d="M281.298,652.06L297.892,652.06" style="fill:none;fill-rule:nonzero;stroke:black;stroke-width:0.72px;"/>
    </g>
    <g transform="matrix(1.15468,-0.666702,-0.666702,-1.15468,361.104,1132.5)">
        <path d="M281.316,625.09L301.234,625.09" style="fill:none;fill-rule:nonzero;stroke:black;stroke-width:0.72px;"/>
    </g>
    <g transform="matrix(1.15458,-0.666876,-0.666876,-1.15458,362.882,1130.85)">
        <path d="M281.298,628L297.892,628" style="fill:none;fill-rule:nonzero;stroke:black;stroke-width:0.72px;"/>
    </g>
    <g transform="matrix(1.15468,-0.666702,-0.666702,-1.15468,377.943,1115.66)">
        <path d="M264.066,654.97L283.984,654.97" style="fill:none;fill-rule:nonzero;stroke:black;stroke-width:0.72px;"/>
    </g>
    <g transform="matrix(1.15468,0.666702,0.666702,-1.15468,-475.476,755.615)">
        <path d="M264.066,625.09L283.984,625.09" style="fill:none;fill-rule:nonzero;stroke:black;stroke-width:0.72px;"/>
    </g>
    <g transform="matrix(1.26822,0.411585,0.411585,-1.26822,-359.809,902.122)">
        <path d="M245.964,653.065L265.886,653.065" style="fill:none;fill-rule:nonzero;stroke:black;stroke-width:0.72px;"/>
    </g>
    <g transform="matrix(0,-1.33333,-1.33333,0,1099.56,550.475)">
        <path d="M255.44,640.03L275.36,640.03" style="fill:none;fill-rule:nonzero;stroke:black;stroke-width:0.72px;"/>
    </g>
    <g transform="matrix(0,-1.33333,-1.33333,0,1104.04,554.955)">
        <path d="M260.46,640.03L277.06,640.03" style="fill:none;fill-rule:nonzero;stroke:black;stroke-width:0.72px;"/>
    </g>
    <g transform="matrix(0.783512,-1.07884,-1.07884,-0.783512,723.782,953.219)">
        <path d="M230.645,648.085L250.555,648.085" style="fill:none;fill-rule:nonzero;stroke:black;stroke-width:0.72px;"/>
    </g>
    <g transform="matrix(1.26802,-0.41219,-0.41219,-1.26802,167.472,1114.52)">
        <path d="M245.962,626.99L265.888,626.99" style="fill:none;fill-rule:nonzero;stroke:black;stroke-width:0.72px;"/>
    </g>
    <g transform="matrix(-0.783194,-1.07907,-1.07907,0.783194,1083.49,-27.976)">
        <path d="M230.641,631.97L250.559,631.97" style="fill:none;fill-rule:nonzero;stroke:black;stroke-width:0.72px;"/>
    </g>
    <g transform="matrix(-0.784016,-1.07847,-1.07847,0.784016,1091.2,-29.8878)">
        <path d="M235.871,633.945L250.769,633.945" style="fill:none;fill-rule:nonzero;stroke:black;stroke-width:0.72px;"/>
    </g>
</svg>
