<?xml version="1.0" encoding="UTF-8" standalone="no"?>
<!DOCTYPE svg PUBLIC "-//W3C//DTD SVG 1.1//EN" "http://www.w3.org/Graphics/SVG/1.1/DTD/svg11.dtd">
<svg width="100%" height="100%" viewBox="0 0 540 110" version="1.1" xmlns="http://www.w3.org/2000/svg" xmlns:xlink="http://www.w3.org/1999/xlink" xml:space="preserve" xmlns:serif="http://www.serif.com/" style="fill-rule:evenodd;clip-rule:evenodd;stroke-linecap:round;stroke-linejoin:round;stroke-miterlimit:10;">
    <g transform="matrix(1.33333,0,0,1.33333,-57.6346,-72.3574)">
        <text x="100.8px" y="100.32px" style="font-family:'ArialMT', 'Arial', sans-serif;font-size:10px;">O</text>
    </g>
    <g transform="matrix(1.33333,0,0,1.33333,-57.6346,-72.3574)">
        <text x="97.44px" y="91.44px" style="font-family:'ArialMT', 'Arial', sans-serif;font-size:10px;">O</text>
    </g>
    <g transform="matrix(1.33333,0,0,1.33333,-57.6346,-72.3574)">
        <text x="72.96px" y="66.96px" style="font-family:'ArialMT', 'Arial', sans-serif;font-size:10px;">O</text>
    </g>
    <g transform="matrix(1.33333,0,0,1.33333,-57.6346,-72.3574)">
        <text x="131.04px" y="82.56px" style="font-family:'ArialMT', 'Arial', sans-serif;font-size:10px;">CH</text>
        <text x="145.44px" y="85.2px" style="font-family:'ArialMT', 'Arial', sans-serif;font-size:8px;">3</text>
    </g>
    <g transform="matrix(1.33333,0,0,1.33333,-57.6346,-72.3574)">
        <text x="82.56px" y="127.92px" style="font-family:'ArialMT', 'Arial', sans-serif;font-size:10px;">O</text>
    </g>
    <g transform="matrix(1.33333,0,0,1.33333,-57.6346,-72.3574)">
        <text x="135.36px" y="104.88px" style="font-family:'ArialMT', 'Arial', sans-serif;font-size:10px;">CH</text>
        <text x="149.76px" y="107.52px" style="font-family:'ArialMT', 'Arial', sans-serif;font-size:8px;">3</text>
    </g>
    <g transform="matrix(1.33333,0,0,1.33333,-57.6346,-72.3574)">
        <text x="243.84px" y="101.76px" style="font-family:'ArialMT', 'Arial', sans-serif;font-size:10px;">C</text>
    </g>
    <g transform="matrix(1.33333,0,0,1.33333,-57.6346,-72.3574)">
        <text x="232.32px" y="101.76px" style="font-family:'ArialMT', 'Arial', sans-serif;font-size:10px;">H</text>
        <text x="239.529px" y="104.4px" style="font-family:'ArialMT', 'Arial', sans-serif;font-size:8px;">2</text>
        <text x="251.04px" y="94.8px" style="font-family:'ArialMT', 'Arial', sans-serif;font-size:8px;">+</text>
    </g>
    <g transform="matrix(1.33333,0,0,1.33333,-57.6346,-72.3574)">
        <text x="278.16px" y="101.76px" style="font-family:'ArialMT', 'Arial', sans-serif;font-size:10px;">CH</text>
        <text x="292.56px" y="104.4px" style="font-family:'ArialMT', 'Arial', sans-serif;font-size:8px;">2</text>
    </g>
    <g transform="matrix(1.33333,0,0,1.33333,-57.6346,-72.3574)">
        <text x="292.56px" y="94.8px" style="font-family:'ArialMT', 'Arial', sans-serif;font-size:8px;">+</text>
        <text x="314.88px" y="103.92px" style="font-family:'ArialMT', 'Arial', sans-serif;font-size:18px;">+</text>
        <text x="339.6px" y="100.56px" style="font-family:'ArialMT', 'Arial', sans-serif;font-size:10px;">:</text>
        <text x="342.96px" y="101.52px" style="font-family:'ArialMT', 'Arial', sans-serif;font-size:10px;">C</text>
        <text x="350.16px" y="94.56px" style="font-family:'ArialMT', 'Arial', sans-serif;font-size:8px;">2</text>
        <text x="354.48px" y="94.56px" style="font-family:'ArialMT', 'Arial', sans-serif;font-size:8px;">–</text>
        <text x="379.44px" y="101.52px" style="font-family:'ArialMT', 'Arial', sans-serif;font-size:10px;"><tspan x="379.44px " y="101.52px ">O</tspan></text>
    </g>
    <g transform="matrix(1.33333,0,0,1.33333,-57.6346,-72.3574)">
        <text x="376.08px" y="92.64px" style="font-family:'ArialMT', 'Arial', sans-serif;font-size:10px;">O</text>
    </g>
    <g transform="matrix(1.33333,0,0,1.33333,-57.6346,-72.3574)">
        <text x="351.6px" y="68.16px" style="font-family:'ArialMT', 'Arial', sans-serif;font-size:10px;">O</text>
    </g>
    <g transform="matrix(1.33333,0,0,1.33333,-57.6346,-72.3574)">
        <text x="409.68px" y="83.76px" style="font-family:'ArialMT', 'Arial', sans-serif;font-size:10px;">CH</text>
        <text x="424.08px" y="86.4px" style="font-family:'ArialMT', 'Arial', sans-serif;font-size:8px;">3</text>
    </g>
    <g transform="matrix(1.33333,0,0,1.33333,-57.6346,-72.3574)">
        <text x="361.2px" y="129.12px" style="font-family:'ArialMT', 'Arial', sans-serif;font-size:10px;">O</text>
    </g>
    <g transform="matrix(1.33333,0,0,1.33333,-57.6346,-72.3574)">
        <text x="414px" y="106.08px" style="font-family:'ArialMT', 'Arial', sans-serif;font-size:10px;">CH</text>
        <text x="428.4px" y="108.72px" style="font-family:'ArialMT', 'Arial', sans-serif;font-size:8px;">3</text>
    </g>
    <g transform="matrix(-0.0115996,-1.33328,1.33328,-0.0115996,-57.6346,-72.3574)">
        <text x="-106.851px" y="345.644px" style="font-family:'ArialMT', 'Arial', sans-serif;font-size:10px;">:</text>
    </g>
    <g transform="matrix(-1.33333,0,0,1.33333,97.2454,-937.957)">
        <path d="M48.12,745.56L68.04,745.56" style="fill:none;fill-rule:nonzero;stroke:black;stroke-width:0.72px;"/>
    </g>
    <g transform="matrix(0,-1.33333,-1.33333,0,987.325,133.563)">
        <path d="M38.16,735.6L58.08,735.6" style="fill:none;fill-rule:nonzero;stroke:black;stroke-width:0.72px;"/>
    </g>
    <g transform="matrix(1.33333,0,0,1.33333,-57.6346,-884.837)">
        <path d="M48.12,725.64L68.04,725.64" style="fill:none;fill-rule:nonzero;stroke:black;stroke-width:0.72px;"/>
    </g>
    <g transform="matrix(0,1.33333,1.33333,0,-947.715,-21.3174)">
        <path d="M58.08,735.6L78,735.6" style="fill:none;fill-rule:nonzero;stroke:black;stroke-width:0.72px;"/>
    </g>
    <g transform="matrix(0.942809,-0.942809,-0.942809,-0.942809,681.251,827.083)">
        <path d="M65.122,752.605L85.048,752.605" style="fill:none;fill-rule:nonzero;stroke:black;stroke-width:0.72px;"/>
    </g>
    <g transform="matrix(-1.23185,0.510208,0.510208,1.23185,-196.632,-897.391)">
        <path d="M85.888,740.715L100.392,740.715" style="fill:none;fill-rule:nonzero;stroke:black;stroke-width:0.72px;"/>
    </g>
    <g transform="matrix(1.23188,0.510157,0.510157,-1.23188,-428.207,935.542)">
        <path d="M67.282,741.75L87.198,741.75" style="fill:none;fill-rule:nonzero;stroke:black;stroke-width:0.72px;"/>
    </g>
    <g transform="matrix(1.28779,0.345505,0.345505,-1.28779,-315.365,984.838)">
        <path d="M81.876,757.725L96.734,757.725" style="fill:none;fill-rule:nonzero;stroke:black;stroke-width:0.72px;"/>
    </g>
    <g transform="matrix(-0.345483,-1.2878,-1.2878,0.345483,1067.52,-131.826)">
        <path d="M74.833,766.92L88.997,766.92" style="fill:none;fill-rule:nonzero;stroke:black;stroke-width:0.72px;"/>
    </g>
    <g transform="matrix(-0.345203,-1.28787,-1.28787,0.345203,1061.35,-135.208)">
        <path d="M71.018,766.485L86.082,766.485" style="fill:none;fill-rule:nonzero;stroke:black;stroke-width:0.72px;"/>
    </g>
    <g transform="matrix(0.942293,-0.943325,-0.943325,-0.942293,706.436,856.044)">
        <path d="M104.426,764.01L117.344,764.01" style="fill:none;fill-rule:nonzero;stroke:black;stroke-width:0.72px;"/>
    </g>
    <g transform="matrix(1.2879,0.345084,0.345084,-1.2879,-316.606,973.011)">
        <path d="M115.192,766.62L130.338,766.62" style="fill:none;fill-rule:nonzero;stroke:black;stroke-width:0.72px;"/>
    </g>
    <g transform="matrix(0,1.33333,1.33333,0,-918.661,-36.8507)">
        <path d="M77.35,730.53L92.17,730.53" style="fill:none;fill-rule:nonzero;stroke:black;stroke-width:0.72px;"/>
    </g>
    <g transform="matrix(0,1.33333,1.33333,0,-914.181,-41.3307)">
        <path d="M80.71,730.53L95.53,730.53" style="fill:none;fill-rule:nonzero;stroke:black;stroke-width:0.72px;"/>
    </g>
    <g transform="matrix(1.05769,0.811829,0.811829,-1.05769,-624.728,753.384)">
        <path d="M108.251,737.64L122.079,737.64" style="fill:none;fill-rule:nonzero;stroke:black;stroke-width:0.72px;"/>
    </g>
    <g transform="matrix(1.23169,-0.510593,-0.510593,-1.23169,331.267,1040.48)">
        <path d="M120.083,736.28L134.967,736.28" style="fill:none;fill-rule:nonzero;stroke:black;stroke-width:0.72px;"/>
    </g>
    <g transform="matrix(1.33333,0,0,1.33333,-57.6346,-941.157)">
        <path d="M58.8,754.8L57.36,754.32L56.16,753.6L54.96,752.64L53.04,750.24L52.56,748.8L52.08,747.12L52.08,744.48L52.32,743.28L52.56,742.32L53.52,740.4L54.24,739.44L54.96,738.72" style="fill:none;fill-rule:nonzero;stroke:black;stroke-width:0.48px;"/>
    </g>
    <g transform="matrix(1.28635,0.350823,0.350823,-1.28635,-315.229,996.122)">
        <path d="M51.209,739.863L59.418,739.863L52.114,743.842L53.272,741.421L51.209,739.863Z" style="stroke:black;stroke-width:0.48px;"/>
    </g>
    <g transform="matrix(1.33333,0,0,1.33333,-57.6346,-895.717)">
        <path d="M72.24,735.12L70.32,735.12L69.12,734.88L67.2,733.92L66.24,733.2L64.8,731.76L64.32,730.8L64.08,729.6L63.84,728.64L63.6,727.92L63.6,727.44L64.32,724.32" style="fill:none;fill-rule:nonzero;stroke:black;stroke-width:0.48px;"/>
    </g>
    <g transform="matrix(0.468165,-1.24844,-1.24844,-0.468165,909.945,496.981)">
        <path d="M59.393,731.686L67.595,731.686L60.376,727.697L61.275,730.085L59.393,731.686Z" style="stroke:black;stroke-width:0.48px;"/>
    </g>
    <g transform="matrix(1.33333,0,0,1.33333,-57.6346,-933.797)">
        <path d="M175.2,744L209.28,744" style="fill:none;fill-rule:nonzero;stroke:black;stroke-width:0.72px;"/>
    </g>
    <g transform="matrix(1.33333,0,0,1.33333,-57.6346,-941.477)">
        <path d="M175.2,746.88L209.28,746.88" style="fill:none;fill-rule:nonzero;stroke:black;stroke-width:0.72px;"/>
    </g>
    <g transform="matrix(1.33333,0,0,1.33333,-57.6346,-937.637)">
        <path d="M204.72,741.84L212.64,745.44L204.72,749.04" style="fill:none;fill-rule:nonzero;stroke:black;stroke-width:0.72px;"/>
    </g>
    <g transform="matrix(-1.15432,0.667321,0.667321,1.15432,89.1059,-993.614)">
        <path d="M255.93,751.67L265.32,751.67" style="fill:none;fill-rule:nonzero;stroke:black;stroke-width:0.72px;"/>
    </g>
    <g transform="matrix(1.15481,0.666483,0.666483,-1.15481,-509.399,735.654)">
        <path d="M263.723,750.41L278.167,750.41" style="fill:none;fill-rule:nonzero;stroke:black;stroke-width:0.72px;"/>
    </g>
    <g transform="matrix(0.942809,-0.942809,-0.942809,-0.942809,795.735,1093.07)">
        <path d="M356.074,756.505L361.576,756.505" style="fill:none;fill-rule:nonzero;stroke:black;stroke-width:0.72px;"/>
    </g>
    <g transform="matrix(-1.23185,0.510208,0.510208,1.23185,518.744,-1036.48)">
        <path d="M364.528,739.515L379.032,739.515" style="fill:none;fill-rule:nonzero;stroke:black;stroke-width:0.72px;"/>
    </g>
    <g transform="matrix(1.23191,0.510062,0.510062,-1.23191,-398.574,792.537)">
        <path d="M350.545,739.63L365.655,739.63" style="fill:none;fill-rule:nonzero;stroke:black;stroke-width:0.72px;"/>
    </g>
    <g transform="matrix(1.28779,0.345505,0.345505,-1.28779,-302.26,888.622)">
        <path d="M360.516,756.525L375.374,756.525" style="fill:none;fill-rule:nonzero;stroke:black;stroke-width:0.72px;"/>
    </g>
    <g transform="matrix(-0.345483,-1.2878,-1.2878,0.345483,1533.76,229.02)">
        <path d="M353.473,765.72L367.637,765.72" style="fill:none;fill-rule:nonzero;stroke:black;stroke-width:0.72px;"/>
    </g>
    <g transform="matrix(-0.345203,-1.28787,-1.28787,0.345203,1527.51,225.659)">
        <path d="M349.658,765.285L364.722,765.285" style="fill:none;fill-rule:nonzero;stroke:black;stroke-width:0.72px;"/>
    </g>
    <g transform="matrix(0.942293,-0.943325,-0.943325,-0.942293,814.263,1119.36)">
        <path d="M383.066,762.81L395.984,762.81" style="fill:none;fill-rule:nonzero;stroke:black;stroke-width:0.72px;"/>
    </g>
    <g transform="matrix(1.2879,0.345084,0.345084,-1.2879,-303.533,876.911)">
        <path d="M393.832,765.42L408.978,765.42" style="fill:none;fill-rule:nonzero;stroke:black;stroke-width:0.72px;"/>
    </g>
    <g transform="matrix(0,1.33333,1.33333,0,-545.541,-406.771)">
        <path d="M355.99,729.33L370.81,729.33" style="fill:none;fill-rule:nonzero;stroke:black;stroke-width:0.72px;"/>
    </g>
    <g transform="matrix(0,1.33333,1.33333,0,-541.061,-411.251)">
        <path d="M359.35,729.33L374.17,729.33" style="fill:none;fill-rule:nonzero;stroke:black;stroke-width:0.72px;"/>
    </g>
    <g transform="matrix(1.05769,0.811829,0.811829,-1.05769,-546.949,527.507)">
        <path d="M386.891,736.44L400.719,736.44" style="fill:none;fill-rule:nonzero;stroke:black;stroke-width:0.72px;"/>
    </g>
    <g transform="matrix(1.23169,-0.510593,-0.510593,-1.23169,358.974,1182.88)">
        <path d="M398.723,735.08L413.607,735.08" style="fill:none;fill-rule:nonzero;stroke:black;stroke-width:0.72px;"/>
    </g>
</svg>
