<?xml version="1.0" encoding="UTF-8" standalone="no"?>
<!DOCTYPE svg PUBLIC "-//W3C//DTD SVG 1.1//EN" "http://www.w3.org/Graphics/SVG/1.1/DTD/svg11.dtd">
<svg width="100%" height="100%" viewBox="0 0 490 115" version="1.1" xmlns="http://www.w3.org/2000/svg" xmlns:xlink="http://www.w3.org/1999/xlink" xml:space="preserve" xmlns:serif="http://www.serif.com/" style="fill-rule:evenodd;clip-rule:evenodd;stroke-linecap:round;stroke-linejoin:round;stroke-miterlimit:10;">
    <g transform="matrix(1.33333,0,0,1.33333,-71.0011,-85.5374)">
        <text x="56.4px" y="116.64px" style="font-family:'ArialMT', 'Arial', sans-serif;font-size:10px;">Br</text>
    </g>
    <g transform="matrix(1.33333,0,0,1.33333,-71.0011,-85.5374)">
        <text x="147.6px" y="106.8px" style="font-family:'ArialMT', 'Arial', sans-serif;font-size:10px;">Br</text>
        <text x="178.8px" y="114.96px" style="font-family:'ArialMT', 'Arial', sans-serif;font-size:18px;">+</text>
    </g>
    <g transform="matrix(1.33333,0,0,1.33333,-71.0011,-85.5374)">
        <text x="241.68px" y="92.64px" style="font-family:'ArialMT', 'Arial', sans-serif;font-size:10px;">O</text>
    </g>
    <g transform="matrix(1.33333,0,0,1.33333,-71.0011,-85.5374)">
        <text x="211.92px" y="75.36px" style="font-family:'ArialMT', 'Arial', sans-serif;font-size:10px;">O</text>
    </g>
    <g transform="matrix(1.33333,0,0,1.33333,-71.0011,-85.5374)">
        <text x="211.92px" y="144.24px" style="font-family:'ArialMT', 'Arial', sans-serif;font-size:10px;">O</text>
    </g>
    <g transform="matrix(1.33333,0,0,1.33333,-71.0011,-85.5374)">
        <text x="271.92px" y="75.36px" style="font-family:'ArialMT', 'Arial', sans-serif;font-size:10px;">CH</text>
        <text x="286.32px" y="78px" style="font-family:'ArialMT', 'Arial', sans-serif;font-size:8px;">3</text>
    </g>
    <g transform="matrix(1.33333,0,0,1.33333,-71.0011,-85.5374)">
        <text x="241.68px" y="126.96px" style="font-family:'ArialMT', 'Arial', sans-serif;font-size:10px;">O</text>
    </g>
    <g transform="matrix(1.33333,0,0,1.33333,-71.0011,-85.5374)">
        <text x="271.92px" y="144.24px" style="font-family:'ArialMT', 'Arial', sans-serif;font-size:10px;">CH</text>
        <text x="286.32px" y="146.88px" style="font-family:'ArialMT', 'Arial', sans-serif;font-size:8px;">3</text>
    </g>
    <g transform="matrix(1.33333,0,0,1.33333,-71.0011,-85.5374)">
        <text x="392.4px" y="111.36px" style="font-family:'ArialMT', 'Arial', sans-serif;font-size:10px;">T<tspan x="398.64px " y="111.36px ">M</tspan></text>
    </g>
    <g transform="matrix(1.33333,0,0,1.33333,-71.0011,-85.5374)">
        <text x="327.36px" y="103.2px" style="font-family:'ArialMT', 'Arial', sans-serif;font-size:10px;">Et<tspan x="336.944px 344.79px 352.08px " y="103.2px 103.2px 103.2px ">ONa</tspan></text>
    </g>
    <g transform="matrix(-1.15468,-0.666702,-0.666702,1.15468,644.24,-729.077)">
        <path d="M80.786,734.16L100.704,734.16" style="fill:none;fill-rule:nonzero;stroke:black;stroke-width:0.72px;"/>
    </g>
    <g transform="matrix(-1.15468,0.666702,0.666702,1.15468,-291.774,-861.578)">
        <path d="M98.036,734.16L117.954,734.16" style="fill:none;fill-rule:nonzero;stroke:black;stroke-width:0.72px;"/>
    </g>
    <g transform="matrix(-1.15485,-0.666412,-0.666412,1.15485,729.897,-706.232)">
        <path d="M115.286,734.16L135.214,734.16" style="fill:none;fill-rule:nonzero;stroke:black;stroke-width:0.72px;"/>
    </g>
    <g transform="matrix(-1.15455,0.666932,0.666932,1.15455,-375.086,-841.194)">
        <path d="M66.303,734.9L83.257,734.9" style="fill:none;fill-rule:nonzero;stroke:black;stroke-width:0.72px;"/>
    </g>
    <g transform="matrix(1.15458,-0.666871,-0.666871,-1.15458,442.797,999.558)">
        <path d="M132.892,732.865L147.628,732.865" style="fill:none;fill-rule:nonzero;stroke:black;stroke-width:0.72px;"/>
    </g>
    <g transform="matrix(0.666702,-1.15468,-1.15468,-0.666702,936.071,795.557)">
        <path d="M210.851,744.685L230.769,744.685" style="fill:none;fill-rule:nonzero;stroke:black;stroke-width:0.72px;"/>
    </g>
    <g transform="matrix(0.666702,1.15468,1.15468,-0.666702,-763.757,297.127)">
        <path d="M210.851,727.435L230.769,727.435" style="fill:none;fill-rule:nonzero;stroke:black;stroke-width:0.72px;"/>
    </g>
    <g transform="matrix(1.33333,0,0,1.33333,-71.0011,-971.804)">
        <path d="M225.79,753.31L240.72,753.31" style="fill:none;fill-rule:nonzero;stroke:black;stroke-width:0.72px;"/>
    </g>
    <g transform="matrix(-0.667277,-1.15435,-1.15435,0.667277,1254.18,-224.366)">
        <path d="M217.536,759.755L230.484,759.755" style="fill:none;fill-rule:nonzero;stroke:black;stroke-width:0.72px;"/>
    </g>
    <g transform="matrix(-0.667201,-1.15439,-1.15439,0.667201,1246.43,-226.537)">
        <path d="M213.171,758.915L228.059,758.915" style="fill:none;fill-rule:nonzero;stroke:black;stroke-width:0.72px;"/>
    </g>
    <g transform="matrix(-0.666737,1.15466,1.15466,0.666737,-453.258,-644.23)">
        <path d="M213.211,713.225L228.049,713.225" style="fill:none;fill-rule:nonzero;stroke:black;stroke-width:0.72px;"/>
    </g>
    <g transform="matrix(-0.666744,1.15466,1.15466,0.666744,-445.493,-646.474)">
        <path d="M217.576,712.385L230.474,712.385" style="fill:none;fill-rule:nonzero;stroke:black;stroke-width:0.72px;"/>
    </g>
    <g transform="matrix(0.666625,-1.15472,-1.15472,-0.666625,979.88,818.513)">
        <path d="M245.14,764.48L259.18,764.48" style="fill:none;fill-rule:nonzero;stroke:black;stroke-width:0.72px;"/>
    </g>
    <g transform="matrix(1.33333,0,0,1.33333,-71.0011,-1017.8)">
        <path d="M255.67,770.56L270.96,770.56" style="fill:none;fill-rule:nonzero;stroke:black;stroke-width:0.72px;"/>
    </g>
    <g transform="matrix(1.33333,0,0,1.33333,-71.0011,-879.804)">
        <path d="M225.79,718.81L240.72,718.81" style="fill:none;fill-rule:nonzero;stroke:black;stroke-width:0.72px;"/>
    </g>
    <g transform="matrix(0.666706,1.15468,1.15468,-0.666706,-720.028,274.134)">
        <path d="M245.095,707.655L259.195,707.655" style="fill:none;fill-rule:nonzero;stroke:black;stroke-width:0.72px;"/>
    </g>
    <g transform="matrix(1.33333,0,0,1.33333,-71.0011,-833.777)">
        <path d="M255.67,701.55L270.96,701.55" style="fill:none;fill-rule:nonzero;stroke:black;stroke-width:0.72px;"/>
    </g>
    <g transform="matrix(1.33333,0,0,1.33333,-71.0011,-921.377)">
        <path d="M312.72,734.4L371.76,734.4" style="fill:none;fill-rule:nonzero;stroke:black;stroke-width:0.72px;"/>
    </g>
    <g transform="matrix(1.2958,0.314133,0.314133,-1.2958,-287.896,893.92)">
        <path d="M363.499,735.333L371.649,735.333L364.404,731.601L365.351,733.806L363.499,735.333Z" style="stroke:black;stroke-width:0.72px;"/>
    </g>
</svg>
