<?xml version="1.0" encoding="UTF-8" standalone="no"?>
<!DOCTYPE svg PUBLIC "-//W3C//DTD SVG 1.1//EN" "http://www.w3.org/Graphics/SVG/1.1/DTD/svg11.dtd">
<svg width="100%" height="100%" viewBox="0 0 330 100" version="1.1" xmlns="http://www.w3.org/2000/svg" xmlns:xlink="http://www.w3.org/1999/xlink" xml:space="preserve" xmlns:serif="http://www.serif.com/" style="fill-rule:evenodd;clip-rule:evenodd;stroke-linecap:round;stroke-linejoin:round;stroke-miterlimit:10;">
    <g transform="matrix(1.33333,0,0,1.33333,-71.8546,-95.1174)">
        <text x="69.84px" y="81.6px" style="font-family:'ArialMT', 'Arial', sans-serif;font-size:10px;">O</text>
    </g>
    <g transform="matrix(1.33333,0,0,1.33333,-71.8546,-95.1174)">
        <text x="121.44px" y="97.2px" style="font-family:'ArialMT', 'Arial', sans-serif;font-size:10px;">CH</text>
        <text x="135.84px" y="99.84px" style="font-family:'ArialMT', 'Arial', sans-serif;font-size:8px;">3</text>
    </g>
    <g transform="matrix(1.33333,0,0,1.33333,-71.8546,-95.1174)">
        <text x="99.84px" y="92.88px" style="font-family:'ArialMT', 'Arial', sans-serif;font-size:10px;">C</text>
    </g>
    <g transform="matrix(1.33333,0,0,1.33333,-71.8546,-95.1174)">
        <text x="88.32px" y="92.88px" style="font-family:'ArialMT', 'Arial', sans-serif;font-size:10px;">H</text>
        <text x="95.52px" y="95.52px" style="font-family:'ArialMT', 'Arial', sans-serif;font-size:8px;">3</text>
    </g>
    <g transform="matrix(1.33333,0,0,1.33333,-71.8546,-95.1174)">
        <text x="217.2px" y="81.6px" style="font-family:'ArialMT', 'Arial', sans-serif;font-size:10px;">O</text>
    </g>
    <g transform="matrix(1.33333,0,0,1.33333,-71.8546,-95.1174)">
        <text x="269.28px" y="111.36px" style="font-family:'ArialMT', 'Arial', sans-serif;font-size:10px;">CH</text>
        <text x="283.68px" y="114px" style="font-family:'ArialMT', 'Arial', sans-serif;font-size:8px;">3</text>
    </g>
    <g transform="matrix(1.33333,0,0,1.33333,-71.8546,-95.1174)">
        <text x="252px" y="81.36px" style="font-family:'ArialMT', 'Arial', sans-serif;font-size:10px;">CH</text>
        <text x="266.4px" y="84px" style="font-family:'ArialMT', 'Arial', sans-serif;font-size:8px;">3</text>
    </g>
    <g transform="matrix(1.33333,0,0,1.33333,-71.8546,-95.1174)">
        <text x="252px" y="141.36px" style="font-family:'ArialMT', 'Arial', sans-serif;font-size:10px;">CH</text>
        <text x="266.4px" y="144px" style="font-family:'ArialMT', 'Arial', sans-serif;font-size:8px;">2</text>
    </g>
    <g transform="matrix(1.15468,0.666702,0.666702,-1.15468,-550.134,840.296)">
        <path d="M72.586,739.5L92.504,739.5" style="fill:none;fill-rule:nonzero;stroke:black;stroke-width:0.72px;"/>
    </g>
    <g transform="matrix(1.15468,-0.666702,-0.666702,-1.15468,415.998,955.7)">
        <path d="M72.586,709.62L92.504,709.62" style="fill:none;fill-rule:nonzero;stroke:black;stroke-width:0.72px;"/>
    </g>
    <g transform="matrix(1.15468,-0.666702,-0.666702,-1.15468,432.837,938.861)">
        <path d="M55.336,739.5L75.254,739.5" style="fill:none;fill-rule:nonzero;stroke:black;stroke-width:0.72px;"/>
    </g>
    <g transform="matrix(1.15468,0.666702,0.666702,-1.15468,-533.295,857.134)">
        <path d="M55.336,709.62L75.254,709.62" style="fill:none;fill-rule:nonzero;stroke:black;stroke-width:0.72px;"/>
    </g>
    <g transform="matrix(0,-1.33333,-1.33333,0,969.785,136.923)">
        <path d="M46.71,724.56L66.63,724.56" style="fill:none;fill-rule:nonzero;stroke:black;stroke-width:0.72px;"/>
    </g>
    <g transform="matrix(0,-1.33333,-1.33333,0,1031.35,125.843)">
        <path d="M68.28,751.8L82.92,751.8" style="fill:none;fill-rule:nonzero;stroke:black;stroke-width:0.72px;"/>
    </g>
    <g transform="matrix(0,-1.33333,-1.33333,0,1026.87,121.363)">
        <path d="M64.92,751.8L79.56,751.8" style="fill:none;fill-rule:nonzero;stroke:black;stroke-width:0.72px;"/>
    </g>
    <g transform="matrix(-1.33333,0,0,1.33333,197.825,-931.277)">
        <path d="M91.17,734.52L111.09,734.52" style="fill:none;fill-rule:nonzero;stroke:black;stroke-width:0.72px;"/>
    </g>
    <g transform="matrix(0,-1.33333,-1.33333,0,1015.79,182.923)">
        <path d="M81.21,724.56L101.13,724.56" style="fill:none;fill-rule:nonzero;stroke:black;stroke-width:0.72px;"/>
    </g>
    <g transform="matrix(1.33333,0,0,1.33333,-71.8546,-878.157)">
        <path d="M91.17,714.6L111.09,714.6" style="fill:none;fill-rule:nonzero;stroke:black;stroke-width:0.72px;"/>
    </g>
    <g transform="matrix(0,1.33333,1.33333,0,-889.815,-86.7574)">
        <path d="M101.13,724.56L121.05,724.56" style="fill:none;fill-rule:nonzero;stroke:black;stroke-width:0.72px;"/>
    </g>
    <g transform="matrix(0.943311,-0.942307,-0.942307,-0.943311,669.867,848.239)">
        <path d="M109.149,739.21L122.421,739.21" style="fill:none;fill-rule:nonzero;stroke:black;stroke-width:0.72px;"/>
    </g>
    <g transform="matrix(-0.509666,-1.23208,-1.23208,0.509666,1041,-205.075)">
        <path d="M101.128,741.18L115.542,741.18" style="fill:none;fill-rule:nonzero;stroke:black;stroke-width:0.72px;"/>
    </g>
    <g transform="matrix(1.33333,0,0,1.33333,-71.8546,-916.877)">
        <path d="M111.12,734.4L109.2,734.4L108,734.16L106.08,733.2L105.12,732.48L104.4,731.52L103.92,730.8L103.44,729.6L102.96,728.64L102.72,727.44L102.72,726.96L103.44,723.84" style="fill:none;fill-rule:nonzero;stroke:black;stroke-width:0.48px;"/>
    </g>
    <g transform="matrix(0.468165,-1.24844,-1.24844,-0.468165,928.672,523.682)">
        <path d="M98.513,730.966L106.715,730.966L99.496,726.977L100.395,729.365L98.513,730.966Z" style="stroke:black;stroke-width:0.48px;"/>
    </g>
    <g transform="matrix(1.33333,0,0,1.33333,-71.8546,-900.877)">
        <path d="M83.52,717.12L85.92,716.4L88.8,715.92L90,716.16L90.96,716.16L92.16,716.4L93.12,716.88L94.32,717.36L96.24,718.32L96.96,719.04L97.92,719.76L98.64,720.72L99.12,721.44L99.84,722.4L100.8,724.32L101.04,725.52L101.28,726.48L101.52,727.68L101.52,730.32" style="fill:none;fill-rule:nonzero;stroke:black;stroke-width:0.48px;"/>
    </g>
    <g transform="matrix(-0.193992,1.31915,1.31915,0.193992,-867.868,-205.043)">
        <path d="M96.347,721.425L104.594,721.425L97.415,717.458L98.288,719.77L96.347,721.425Z" style="stroke:black;stroke-width:0.48px;"/>
    </g>
    <g transform="matrix(1.33333,0,0,1.33333,-71.8546,-911.117)">
        <path d="M148.56,726.96L182.64,726.96" style="fill:none;fill-rule:nonzero;stroke:black;stroke-width:0.72px;"/>
    </g>
    <g transform="matrix(1.33333,0,0,1.33333,-71.8546,-918.797)">
        <path d="M148.56,729.84L182.64,729.84" style="fill:none;fill-rule:nonzero;stroke:black;stroke-width:0.72px;"/>
    </g>
    <g transform="matrix(1.33333,0,0,1.33333,-71.8546,-914.957)">
        <path d="M178.08,724.8L186,728.4L178.08,732" style="fill:none;fill-rule:nonzero;stroke:black;stroke-width:0.72px;"/>
    </g>
    <g transform="matrix(1.15468,0.666702,0.666702,-1.15468,-523.808,742.05)">
        <path d="M219.946,739.5L239.864,739.5" style="fill:none;fill-rule:nonzero;stroke:black;stroke-width:0.72px;"/>
    </g>
    <g transform="matrix(1.15468,-0.666702,-0.666702,-1.15468,442.324,1053.94)">
        <path d="M219.946,709.62L239.864,709.62" style="fill:none;fill-rule:nonzero;stroke:black;stroke-width:0.72px;"/>
    </g>
    <g transform="matrix(1.15468,-0.666702,-0.666702,-1.15468,459.163,1037.11)">
        <path d="M202.696,739.5L222.614,739.5" style="fill:none;fill-rule:nonzero;stroke:black;stroke-width:0.72px;"/>
    </g>
    <g transform="matrix(1.15468,0.666702,0.666702,-1.15468,-506.968,758.889)">
        <path d="M202.696,709.62L222.614,709.62" style="fill:none;fill-rule:nonzero;stroke:black;stroke-width:0.72px;"/>
    </g>
    <g transform="matrix(0,-1.33333,-1.33333,0,1166.27,333.403)">
        <path d="M194.07,724.56L213.99,724.56" style="fill:none;fill-rule:nonzero;stroke:black;stroke-width:0.72px;"/>
    </g>
    <g transform="matrix(0,-1.33333,-1.33333,0,1227.83,322.323)">
        <path d="M215.64,751.8L230.28,751.8" style="fill:none;fill-rule:nonzero;stroke:black;stroke-width:0.72px;"/>
    </g>
    <g transform="matrix(0,-1.33333,-1.33333,0,1223.35,317.843)">
        <path d="M212.28,751.8L226.92,751.8" style="fill:none;fill-rule:nonzero;stroke:black;stroke-width:0.72px;"/>
    </g>
    <g transform="matrix(1.15468,-0.666702,-0.666702,-1.15468,465.327,1060.11)">
        <path d="M237.196,739.5L257.114,739.5" style="fill:none;fill-rule:nonzero;stroke:black;stroke-width:0.72px;"/>
    </g>
    <g transform="matrix(1.15478,-0.666528,-0.666528,-1.15478,466.814,1058.5)">
        <path d="M237.178,742.41L253.782,742.41" style="fill:none;fill-rule:nonzero;stroke:black;stroke-width:0.72px;"/>
    </g>
    <g transform="matrix(1.1547,0.666669,0.666669,-1.1547,-518.952,720.399)">
        <path d="M254.81,740.86L269.29,740.86" style="fill:none;fill-rule:nonzero;stroke:black;stroke-width:0.72px;"/>
    </g>
    <g transform="matrix(0,-1.33333,-1.33333,0,1271.75,365.923)">
        <path d="M248.34,751.92L263.22,751.92" style="fill:none;fill-rule:nonzero;stroke:black;stroke-width:0.72px;"/>
    </g>
    <g transform="matrix(1.15481,0.666483,0.666483,-1.15481,-502.017,737.367)">
        <path d="M237.563,710.99L252.007,710.99" style="fill:none;fill-rule:nonzero;stroke:black;stroke-width:0.72px;"/>
    </g>
    <g transform="matrix(1.15457,0.6669,0.6669,-1.15457,-499.75,737.872)">
        <path d="M237.308,707.195L251.962,707.195" style="fill:none;fill-rule:nonzero;stroke:black;stroke-width:0.72px;"/>
    </g>
</svg>
