<?xml version="1.0" encoding="UTF-8" standalone="no"?>
<!DOCTYPE svg PUBLIC "-//W3C//DTD SVG 1.1//EN" "http://www.w3.org/Graphics/SVG/1.1/DTD/svg11.dtd">
<svg width="100%" height="100%" viewBox="0 0 610 360" version="1.1" xmlns="http://www.w3.org/2000/svg" xmlns:xlink="http://www.w3.org/1999/xlink" xml:space="preserve" xmlns:serif="http://www.serif.com/" style="fill-rule:evenodd;clip-rule:evenodd;stroke-linecap:round;stroke-linejoin:round;stroke-miterlimit:10;">
    <g transform="matrix(1.33333,0,0,1.33333,-75.7733,-76.1928)">
        <text x="110.16px" y="105.12px" style="font-family:'ArialMT', 'Arial', sans-serif;font-size:10px;">O</text>
    </g>
    <g transform="matrix(1.33333,0,0,1.33333,-75.7733,-76.1928)">
        <text x="62.4px" y="105.12px" style="font-family:'ArialMT', 'Arial', sans-serif;font-size:10px;">R</text>
        <text x="84px" y="109.44px" style="font-family:'ArialMT', 'Arial', sans-serif;font-size:10px;">R</text>
        <text x="91.44px" y="102.48px" style="font-family:'ArialMT', 'Arial', sans-serif;font-size:8px;">1</text>
    </g>
    <g transform="matrix(1.33333,0,0,1.33333,-75.7733,-76.1928)">
        <text x="209.52px" y="90.96px" style="font-family:'ArialMT', 'Arial', sans-serif;font-size:10px;">C</text>
        <text x="216.72px" y="84px" style="font-family:'ArialMT', 'Arial', sans-serif;font-size:8px;">+</text>
        <text x="220.56px" y="104.4px" style="font-family:'ArialMT', 'Arial', sans-serif;font-size:10px;">:</text>
        <text x="223.46px" y="105.12px" style="font-family:'ArialMT', 'Arial', sans-serif;font-size:10px;">O</text>
        <text x="231.36px" y="98.16px" style="font-family:'ArialMT', 'Arial', sans-serif;font-size:8px;">–</text>
    </g>
    <g transform="matrix(1.33333,0,0,1.33333,-75.7733,-76.1928)">
        <text x="175.68px" y="105.12px" style="font-family:'ArialMT', 'Arial', sans-serif;font-size:10px;">R</text>
        <text x="197.28px" y="109.44px" style="font-family:'ArialMT', 'Arial', sans-serif;font-size:10px;">R</text>
        <text x="204.72px" y="102.48px" style="font-family:'ArialMT', 'Arial', sans-serif;font-size:8px;">1</text>
    </g>
    <g transform="matrix(1.33333,0,0,1.33333,-75.7733,-76.1928)">
        <text x="231.12px" y="104.4px" style="font-family:'ArialMT', 'Arial', sans-serif;font-size:10px;">:</text>
    </g>
    <g transform="matrix(0.0140006,-1.33326,1.33326,0.0140006,-75.7733,-76.1928)">
        <text x="-106.907px" y="228.415px" style="font-family:'ArialMT', 'Arial', sans-serif;font-size:10px;">:</text>
    </g>
    <g transform="matrix(1.33333,0,0,1.33333,-75.7733,-76.1928)">
        <text x="323.76px" y="90.72px" style="font-family:'ArialMT', 'Arial', sans-serif;font-size:10px;">C</text>
        <text x="330.96px" y="83.76px" style="font-family:'ArialMT', 'Arial', sans-serif;font-size:8px;">+</text>
    </g>
    <g transform="matrix(1.33333,0,0,1.33333,-75.7733,-76.1928)">
        <text x="357.6px" y="104.88px" style="font-family:'ArialMT', 'Arial', sans-serif;font-size:10px;">O</text>
        <text x="365.52px" y="97.92px" style="font-family:'ArialMT', 'Arial', sans-serif;font-size:8px;">–</text>
    </g>
    <g transform="matrix(1.33333,0,0,1.33333,-75.7733,-76.1928)">
        <text x="313.92px" y="73.44px" style="font-family:'ArialMT', 'Arial', sans-serif;font-size:10px;">R</text>
        <text x="313.92px" y="108px" style="font-family:'ArialMT', 'Arial', sans-serif;font-size:10px;">R</text>
        <text x="321.36px" y="101.04px" style="font-family:'ArialMT', 'Arial', sans-serif;font-size:8px;">1</text>
    </g>
    <g transform="matrix(0.0140006,1.33326,-1.33326,0.0140006,-75.7733,-76.1928)">
        <text x="110.892px" y="-356.695px" style="font-family:'ArialMT', 'Arial', sans-serif;font-size:10px;">:</text>
    </g>
    <g transform="matrix(1.33333,0,0,1.33333,-75.7733,-76.1928)">
        <text x="353.28px" y="104.64px" style="font-family:'ArialMT', 'Arial', sans-serif;font-size:10px;">:</text>
        <text x="366.72px" y="104.16px" style="font-family:'ArialMT', 'Arial', sans-serif;font-size:10px;">:</text>
    </g>
    <g transform="matrix(1.33333,0,0,1.33333,-75.7733,-76.1928)">
        <text x="473.04px" y="101.52px" style="font-family:'ArialMT', 'Arial', sans-serif;font-size:10px;">O</text>
    </g>
    <g transform="matrix(1.33333,0,0,1.33333,-75.7733,-76.1928)">
        <text x="445.92px" y="74.16px" style="font-family:'ArialMT', 'Arial', sans-serif;font-size:10px;">R</text>
        <text x="449.28px" y="98.16px" style="font-family:'ArialMT', 'Arial', sans-serif;font-size:10px;">R</text>
        <text x="456.72px" y="91.2px" style="font-family:'ArialMT', 'Arial', sans-serif;font-size:8px;">1</text>
    </g>
    <g transform="matrix(1.33333,0,0,1.33333,-75.7733,-76.1928)">
        <text x="483.12px" y="201.36px" style="font-family:'ArialMT', 'Arial', sans-serif;font-size:10px;">C</text>
        <text x="490.32px" y="194.4px" style="font-family:'ArialMT', 'Arial', sans-serif;font-size:8px;">+</text>
    </g>
    <g transform="matrix(1.33333,0,0,1.33333,-75.7733,-76.1928)">
        <text x="453.12px" y="184.08px" style="font-family:'ArialMT', 'Arial', sans-serif;font-size:10px;">R</text>
        <text x="453.12px" y="218.64px" style="font-family:'ArialMT', 'Arial', sans-serif;font-size:10px;">R</text>
        <text x="460.56px" y="211.68px" style="font-family:'ArialMT', 'Arial', sans-serif;font-size:8px;">1</text>
        <text x="472.8px" y="218.64px" style="font-family:'ArialMT', 'Arial', sans-serif;font-size:10px;"><tspan x="472.8px " y="218.64px ">O</tspan></text>
        <text x="480.72px" y="211.68px" style="font-family:'ArialMT', 'Arial', sans-serif;font-size:8px;">–</text>
    </g>
    <g transform="matrix(1.33333,0,0,1.33333,-75.7733,-76.1928)">
        <text x="481.44px" y="217.44px" style="font-family:'ArialMT', 'Arial', sans-serif;font-size:10px;">:</text>
    </g>
    <g transform="matrix(1.33333,0,0,1.33333,-75.7733,-76.1928)">
        <text x="469.2px" y="217.44px" style="font-family:'ArialMT', 'Arial', sans-serif;font-size:10px;">:</text>
    </g>
    <g transform="matrix(-0.0115996,-1.33328,1.33328,-0.0115996,-75.7733,-76.1928)">
        <text x="-226.064px" y="475.411px" style="font-family:'ArialMT', 'Arial', sans-serif;font-size:10px;">:</text>
    </g>
    <g transform="matrix(1.33333,0,0,1.33333,-75.7733,-76.1928)">
        <text x="322.56px" y="185.28px" style="font-family:'ArialMT', 'Arial', sans-serif;font-size:10px;">R</text>
        <text x="322.56px" y="219.84px" style="font-family:'ArialMT', 'Arial', sans-serif;font-size:10px;">R</text>
        <text x="330px" y="212.88px" style="font-family:'ArialMT', 'Arial', sans-serif;font-size:8px;">1</text>
        <text x="338.16px" y="219.12px" style="font-family:'ArialMT', 'Arial', sans-serif;font-size:10px;"><tspan x="338.16px " y="219.12px ">:</tspan></text>
        <text x="342.24px" y="219.84px" style="font-family:'ArialMT', 'Arial', sans-serif;font-size:10px;">O</text>
        <text x="350.16px" y="212.88px" style="font-family:'ArialMT', 'Arial', sans-serif;font-size:8px;">–</text>
        <text x="362.88px" y="219.84px" style="font-family:'ArialMT', 'Arial', sans-serif;font-size:10px;"><tspan x="362.88px " y="219.84px ">X</tspan></text>
    </g>
    <g transform="matrix(1.33333,0,0,1.33333,-75.7733,-76.1928)">
        <text x="350.16px" y="219.36px" style="font-family:'ArialMT', 'Arial', sans-serif;font-size:10px;">:</text>
    </g>
    <g transform="matrix(0.0209328,-1.33317,1.33317,0.0209328,-75.7733,-76.1928)">
        <text x="-219.066px" y="351.003px" style="font-family:'ArialMT', 'Arial', sans-serif;font-size:10px;">:</text>
    </g>
    <g transform="matrix(1.33333,0,0,1.33333,-75.7733,-76.1928)">
        <text x="239.04px" y="201.84px" style="font-family:'ArialMT', 'Arial', sans-serif;font-size:10px;">O</text>
    </g>
    <g transform="matrix(1.33333,0,0,1.33333,-75.7733,-76.1928)">
        <text x="209.28px" y="184.56px" style="font-family:'ArialMT', 'Arial', sans-serif;font-size:10px;">R</text>
        <text x="209.28px" y="219.12px" style="font-family:'ArialMT', 'Arial', sans-serif;font-size:10px;">R</text>
        <text x="216.72px" y="212.16px" style="font-family:'ArialMT', 'Arial', sans-serif;font-size:8px;">1</text>
    </g>
    <g transform="matrix(1.33333,0,0,1.33333,-75.7733,-76.1928)">
        <text x="186.96px" y="204.72px" style="font-family:'ArialMT', 'Arial', sans-serif;font-size:18px;">+</text>
    </g>
    <g transform="matrix(1.33333,0,0,1.33333,-75.7733,-76.1928)">
        <text x="147.12px" y="207.84px" style="font-family:'ArialMT', 'Arial', sans-serif;font-size:10px;">C</text>
        <text x="154.32px" y="200.88px" style="font-family:'ArialMT', 'Arial', sans-serif;font-size:8px;">–</text>
        <text x="130.32px" y="217.68px" style="font-family:'ArialMT', 'Arial', sans-serif;font-size:10px;">X</text>
    </g>
    <g transform="matrix(0.751343,1.10148,-1.10148,0.751343,-75.7733,-76.1928)">
        <text x="245.827px" y="-8.358px" style="font-family:'ArialMT', 'Arial', sans-serif;font-size:10px;">:</text>
    </g>
    <g transform="matrix(1.33333,0,0,1.33333,-75.7733,-76.1928)">
        <text x="138.48px" y="314.88px" style="font-family:'ArialMT', 'Arial', sans-serif;font-size:10px;">X</text>
    </g>
    <g transform="matrix(1.33333,0,0,1.33333,-75.7733,-76.1928)">
        <text x="204.48px" y="301.2px" style="font-family:'ArialMT', 'Arial', sans-serif;font-size:10px;">г</text>
        <text x="208.08px" y="301.2px" style="font-family:'ArialMT', 'Arial', sans-serif;font-size:10px;">д</text>
        <text x="214.08px" y="301.2px" style="font-family:'ArialMT', 'Arial', sans-serif;font-size:10px;">е</text>
        <text x="222.433px" y="301.2px" style="font-family:'ArialMT', 'Arial', sans-serif;font-size:10px;">X</text>
        <text x="231.592px" y="301.2px" style="font-family:'ArialMT', 'Arial', sans-serif;font-size:10px;">-</text>
        <text x="244.32px" y="301.92px" style="font-family:'ArialMT', 'Arial', sans-serif;font-size:10px;">S</text>
        <text x="254.16px" y="319.2px" style="font-family:'ArialMT', 'Arial', sans-serif;font-size:10px;">Ph</text>
    </g>
    <g transform="matrix(1.33333,0,0,1.33333,-75.7733,-76.1928)">
        <text x="254.16px" y="284.64px" style="font-family:'ArialMT', 'Arial', sans-serif;font-size:10px;">Ph</text>
    </g>
    <g transform="matrix(1.33333,0,0,1.33333,-75.7733,-76.1928)">
        <text x="192px" y="300.72px" style="font-family:'ArialMT', 'Arial', sans-serif;font-size:10px;">,</text>
    </g>
    <g transform="matrix(-1.33333,0,0,1.33333,164.413,-1019.69)">
        <path d="M80.11,774.77L100.03,774.77" style="fill:none;fill-rule:nonzero;stroke:black;stroke-width:0.72px;"/>
    </g>
    <g transform="matrix(-0.000669344,-1.33333,-1.33333,0.000669344,1050.85,132.929)">
        <path d="M70.155,764.81L90.075,764.81" style="fill:none;fill-rule:nonzero;stroke:black;stroke-width:0.72px;"/>
    </g>
    <g transform="matrix(1.33333,0,0,1.33333,-75.7733,-966.566)">
        <path d="M80.12,754.85L100.03,754.85" style="fill:none;fill-rule:nonzero;stroke:black;stroke-width:0.72px;"/>
    </g>
    <g transform="matrix(0,1.33333,1.33333,0,-962.147,-106.753)">
        <path d="M90.07,764.81L109.99,764.81" style="fill:none;fill-rule:nonzero;stroke:black;stroke-width:0.72px;"/>
    </g>
    <g transform="matrix(0.942354,0.943264,0.943264,-0.942354,-741.116,655.604)">
        <path d="M96.703,748.48L111.347,748.48" style="fill:none;fill-rule:nonzero;stroke:black;stroke-width:0.72px;"/>
    </g>
    <g transform="matrix(0.943275,0.942343,0.942343,-0.943275,-741.994,653.291)">
        <path d="M99.128,750.975L113.432,750.975" style="fill:none;fill-rule:nonzero;stroke:black;stroke-width:0.72px;"/>
    </g>
    <g transform="matrix(-0.942809,0.942809,0.942809,0.942809,-611.462,-731.93)">
        <path d="M68.58,750.07L82.1,750.07" style="fill:none;fill-rule:nonzero;stroke:black;stroke-width:0.72px;"/>
    </g>
    <g transform="matrix(0.509583,1.23211,1.23211,-0.509583,-929.415,327.924)">
        <path d="M75.691,748.225L90.029,748.225" style="fill:none;fill-rule:nonzero;stroke:black;stroke-width:0.72px;"/>
    </g>
    <g transform="matrix(1.33333,0,0,1.33333,-75.7733,-986.913)">
        <path d="M130.08,762.48L164.16,762.48" style="fill:none;fill-rule:nonzero;stroke:black;stroke-width:0.72px;"/>
    </g>
    <g transform="matrix(1.2958,0.314133,0.314133,-1.2958,-309.281,967.425)">
        <path d="M155.899,763.413L164.049,763.413L156.804,759.681L157.751,761.886L155.899,763.413Z" style="stroke:black;stroke-width:0.72px;"/>
    </g>
    <g transform="matrix(-1.2958,0.314133,0.314133,1.2958,37.1153,-1000.4)">
        <path d="M129.739,761.547L137.889,761.547L130.644,765.279L131.591,763.074L129.739,761.547Z" style="stroke:black;stroke-width:0.72px;"/>
    </g>
    <g transform="matrix(-1.33333,0,0,1.33333,466.493,-1019.69)">
        <path d="M193.39,774.77L213.31,774.77" style="fill:none;fill-rule:nonzero;stroke:black;stroke-width:0.72px;"/>
    </g>
    <g transform="matrix(-0.000669344,-1.33333,-1.33333,0.000669344,1201.96,283.969)">
        <path d="M183.435,764.81L203.355,764.81" style="fill:none;fill-rule:nonzero;stroke:black;stroke-width:0.72px;"/>
    </g>
    <g transform="matrix(1.33333,0,0,1.33333,-75.7733,-966.566)">
        <path d="M193.4,754.85L208.56,754.85" style="fill:none;fill-rule:nonzero;stroke:black;stroke-width:0.72px;"/>
    </g>
    <g transform="matrix(0,1.33333,1.33333,0,-814.593,-261.279)">
        <path d="M205.965,767.425L220.655,767.425" style="fill:none;fill-rule:nonzero;stroke:black;stroke-width:0.72px;"/>
    </g>
    <g transform="matrix(0.942809,0.942809,0.942809,-0.942809,-695.123,546.73)">
        <path d="M216.686,748.08L223.474,748.08" style="fill:none;fill-rule:nonzero;stroke:black;stroke-width:0.72px;"/>
    </g>
    <g transform="matrix(-0.942809,0.942809,0.942809,0.942809,-353.62,-838.732)">
        <path d="M181.86,750.07L195.38,750.07" style="fill:none;fill-rule:nonzero;stroke:black;stroke-width:0.72px;"/>
    </g>
    <g transform="matrix(0.509583,1.23211,1.23211,-0.509583,-836.101,188.35)">
        <path d="M188.971,748.225L203.309,748.225" style="fill:none;fill-rule:nonzero;stroke:black;stroke-width:0.72px;"/>
    </g>
    <g transform="matrix(1.33333,0,0,1.33333,-75.7733,-991.713)">
        <path d="M193.68,763.2L195.36,762L197.04,761.04L198.96,760.56L201.12,760.32L202.56,760.32L204,760.56L206.4,761.52L207.6,762.24L209.52,764.16L210.24,765.36L211.44,767.76L211.44,768.24" style="fill:none;fill-rule:nonzero;stroke:black;stroke-width:0.48px;"/>
    </g>
    <g transform="matrix(0.268871,1.30594,1.30594,-0.268871,-851.776,-39.9889)">
        <path d="M204.997,766.163L213.329,766.163L205.917,762.298L207.155,764.739L204.997,766.163Z" style="stroke:black;stroke-width:0.48px;"/>
    </g>
    <g transform="matrix(1.33333,0,0,1.33333,-75.7733,-983.713)">
        <path d="M250.8,761.28L284.88,761.28" style="fill:none;fill-rule:nonzero;stroke:black;stroke-width:0.72px;"/>
    </g>
    <g transform="matrix(1.33333,0,0,1.33333,-75.7733,-991.393)">
        <path d="M250.8,764.16L284.88,764.16" style="fill:none;fill-rule:nonzero;stroke:black;stroke-width:0.72px;"/>
    </g>
    <g transform="matrix(1.33333,0,0,1.33333,-75.7733,-987.553)">
        <path d="M280.32,759.12L288.24,762.72L280.32,766.32" style="fill:none;fill-rule:nonzero;stroke:black;stroke-width:0.72px;"/>
    </g>
    <g transform="matrix(-1.33333,0,0,1.33333,824.253,-1020.33)">
        <path d="M327.55,775.01L347.47,775.01" style="fill:none;fill-rule:nonzero;stroke:black;stroke-width:0.72px;"/>
    </g>
    <g transform="matrix(1.33333,0,0,1.33333,-75.7733,-967.206)">
        <path d="M331.92,755.09L347.47,755.09" style="fill:none;fill-rule:nonzero;stroke:black;stroke-width:0.72px;"/>
    </g>
    <g transform="matrix(0,1.33333,1.33333,0,-632.547,-436.993)">
        <path d="M337.51,765.05L357.43,765.05" style="fill:none;fill-rule:nonzero;stroke:black;stroke-width:0.72px;"/>
    </g>
    <g transform="matrix(-0.942809,-0.942809,-0.942809,0.942809,1413.74,-376.788)">
        <path d="M323.424,765.05L351.596,765.05" style="fill:none;fill-rule:nonzero;stroke:black;stroke-width:0.72px;"/>
    </g>
    <g transform="matrix(0.942809,0.942809,0.942809,-0.942809,-645.87,421.356)">
        <path d="M345.571,750.505L358.539,750.505" style="fill:none;fill-rule:nonzero;stroke:black;stroke-width:0.72px;"/>
    </g>
    <g transform="matrix(-0.665626,-1.1553,-1.1553,0.665626,1451.36,-107.824)">
        <path d="M318.509,763.8L326.541,763.8" style="fill:none;fill-rule:nonzero;stroke:black;stroke-width:0.72px;"/>
    </g>
    <g transform="matrix(-0.667337,1.15431,1.15431,0.667337,-292.053,-826.288)">
        <path d="M322.956,749.04L325.174,749.04" style="fill:none;fill-rule:nonzero;stroke:black;stroke-width:0.72px;"/>
    </g>
    <g transform="matrix(1.33333,0,0,1.33333,-75.7733,-983.073)">
        <path d="M382.32,761.04L416.4,761.04" style="fill:none;fill-rule:nonzero;stroke:black;stroke-width:0.72px;"/>
    </g>
    <g transform="matrix(1.33333,0,0,1.33333,-75.7733,-990.753)">
        <path d="M382.32,763.92L416.4,763.92" style="fill:none;fill-rule:nonzero;stroke:black;stroke-width:0.72px;"/>
    </g>
    <g transform="matrix(1.33333,0,0,1.33333,-75.7733,-986.913)">
        <path d="M411.84,758.88L419.76,762.48L411.84,766.08" style="fill:none;fill-rule:nonzero;stroke:black;stroke-width:0.72px;"/>
    </g>
    <g transform="matrix(1.33333,0,0,1.33333,-75.7733,-928.353)">
        <path d="M354.96,745.44L353.04,746.64L351.12,747.36L348.72,747.84L346.56,748.08L344.64,747.84L342.96,747.6L341.28,747.12L338.4,745.68L335.52,743.76L334.56,742.32L333.36,741.12L332.64,739.68L331.92,738L331.44,736.56L330.96,734.88L330.72,733.68L330.72,732.96" style="fill:none;fill-rule:nonzero;stroke:black;stroke-width:0.48px;"/>
    </g>
    <g transform="matrix(0,-1.33333,-1.33333,0,1359.75,497.887)">
        <path d="M328.56,745.92L336.72,745.92L329.52,742.08L330.48,744.48L328.56,745.92Z" style="stroke:black;stroke-width:0.48px;"/>
    </g>
    <g transform="matrix(0.666515,-1.15479,-1.15479,-0.666515,1119.13,1100.73)">
        <path d="M476.363,755.61L490.427,755.61" style="fill:none;fill-rule:nonzero;stroke:black;stroke-width:0.72px;"/>
    </g>
    <g transform="matrix(1.33333,0,0,1.33333,-75.7733,-984.833)">
        <path d="M466.99,761.7L486.91,761.7" style="fill:none;fill-rule:nonzero;stroke:black;stroke-width:0.72px;"/>
    </g>
    <g transform="matrix(0.667226,1.15438,1.15438,-0.667226,-634.622,-0.0959671)">
        <path d="M463.476,755.61L477.544,755.61" style="fill:none;fill-rule:nonzero;stroke:black;stroke-width:0.72px;"/>
    </g>
    <g transform="matrix(-1.15445,-0.667096,-0.667096,1.15445,1580.55,-550.637)">
        <path d="M453.08,765.43L467.99,765.43" style="fill:none;fill-rule:nonzero;stroke:black;stroke-width:0.72px;"/>
    </g>
    <g transform="matrix(-0.942809,0.942809,0.942809,0.942809,265.698,-1119.62)">
        <path d="M460.967,759.205L468.023,759.205" style="fill:none;fill-rule:nonzero;stroke:black;stroke-width:0.72px;"/>
    </g>
    <g transform="matrix(-0.666702,-1.15468,-1.15468,0.666702,1817.42,85.166)">
        <path d="M491.891,770.325L511.809,770.325" style="fill:none;fill-rule:nonzero;stroke:black;stroke-width:0.72px;"/>
    </g>
    <g transform="matrix(0.666702,-1.15468,-1.15468,-0.666702,1141.61,1100.82)">
        <path d="M481.931,770.325L501.849,770.325" style="fill:none;fill-rule:nonzero;stroke:black;stroke-width:0.72px;"/>
    </g>
    <g transform="matrix(1.33333,0,0,1.33333,-75.7733,-984.833)">
        <path d="M486.91,761.7L506.83,761.7" style="fill:none;fill-rule:nonzero;stroke:black;stroke-width:0.72px;"/>
    </g>
    <g transform="matrix(1.33333,0,0,1.33333,-75.7733,-964.833)">
        <path d="M476.4,751.68L479.76,750.24L482.88,750.24L484.08,750.48L485.04,750.96L486.24,751.44L487.2,752.16L487.92,752.88L489.36,754.8L489.84,755.76L490.32,756.96L490.32,758.16" style="fill:none;fill-rule:nonzero;stroke:black;stroke-width:0.48px;"/>
    </g>
    <g transform="matrix(0.155788,1.3242,1.3242,-0.155788,-500.097,-487.983)">
        <path d="M484.036,756.227L492.252,756.227L485.018,752.245L486.013,754.544L484.036,756.227Z" style="stroke:black;stroke-width:0.48px;"/>
    </g>
    <g transform="matrix(0,1.33333,1.33333,0,-367.133,-544.833)">
        <path d="M470.52,705.96L504.36,705.96" style="fill:none;fill-rule:nonzero;stroke:black;stroke-width:0.72px;"/>
    </g>
    <g transform="matrix(0,1.33333,1.33333,0,-363.293,-548.673)">
        <path d="M473.4,705.96L507.24,705.96" style="fill:none;fill-rule:nonzero;stroke:black;stroke-width:0.72px;"/>
    </g>
    <g transform="matrix(1.33333,0,0,1.33333,-75.7733,-792.673)">
        <path d="M492.48,685.68L488.88,693.6L485.28,685.68" style="fill:none;fill-rule:nonzero;stroke:black;stroke-width:0.72px;"/>
    </g>
    <g transform="matrix(1.33333,0,0,1.33333,-75.7733,-672.486)">
        <path d="M466.87,644.57L482.16,644.57" style="fill:none;fill-rule:nonzero;stroke:black;stroke-width:0.72px;"/>
    </g>
    <g transform="matrix(-0.666702,-1.15468,-1.15468,0.666702,1681.94,319.292)">
        <path d="M491.771,653.195L511.689,653.195" style="fill:none;fill-rule:nonzero;stroke:black;stroke-width:0.72px;"/>
    </g>
    <g transform="matrix(0.665545,-1.15535,-1.15535,-0.665545,1015.12,1178.34)">
        <path d="M490.608,658.27L498.802,658.27" style="fill:none;fill-rule:nonzero;stroke:black;stroke-width:0.72px;"/>
    </g>
    <g transform="matrix(1.33333,0,0,1.33333,-75.7733,-672.486)">
        <path d="M491.28,644.57L506.71,644.57" style="fill:none;fill-rule:nonzero;stroke:black;stroke-width:0.72px;"/>
    </g>
    <g transform="matrix(-0.666766,-1.15464,-1.15464,0.666766,1602.26,280.137)">
        <path d="M456.416,650.605L470.354,650.605" style="fill:none;fill-rule:nonzero;stroke:black;stroke-width:0.72px;"/>
    </g>
    <g transform="matrix(-0.665876,1.15516,1.15516,0.665876,113.028,-772.07)">
        <path d="M460.7,641.005L468.93,641.005" style="fill:none;fill-rule:nonzero;stroke:black;stroke-width:0.72px;"/>
    </g>
    <g transform="matrix(0.666926,1.15455,1.15455,-0.666926,-499.469,77.7929)">
        <path d="M463.358,638.485L477.412,638.485" style="fill:none;fill-rule:nonzero;stroke:black;stroke-width:0.72px;"/>
    </g>
    <g transform="matrix(1.33333,0,0,1.33333,-75.7733,-667.553)">
        <path d="M398.88,642.72L432.96,642.72" style="fill:none;fill-rule:nonzero;stroke:black;stroke-width:0.72px;"/>
    </g>
    <g transform="matrix(1.33333,0,0,1.33333,-75.7733,-675.233)">
        <path d="M398.88,645.6L432.96,645.6" style="fill:none;fill-rule:nonzero;stroke:black;stroke-width:0.72px;"/>
    </g>
    <g transform="matrix(1.33333,0,0,1.33333,-75.7733,-671.393)">
        <path d="M403.44,640.56L395.52,644.16L403.44,647.76" style="fill:none;fill-rule:nonzero;stroke:black;stroke-width:0.72px;"/>
    </g>
    <g transform="matrix(1.33333,0,0,1.33333,-75.7733,-669.286)">
        <path d="M336.31,643.37L356.23,643.37" style="fill:none;fill-rule:nonzero;stroke:black;stroke-width:0.72px;"/>
    </g>
    <g transform="matrix(-0.666702,-1.15468,-1.15468,0.666702,1419.43,170.937)">
        <path d="M361.211,651.995L381.129,651.995" style="fill:none;fill-rule:nonzero;stroke:black;stroke-width:0.72px;"/>
    </g>
    <g transform="matrix(0.666702,-1.15468,-1.15468,-0.666702,917.866,1028.81)">
        <path d="M351.251,651.995L371.169,651.995" style="fill:none;fill-rule:nonzero;stroke:black;stroke-width:0.72px;"/>
    </g>
    <g transform="matrix(1.33333,0,0,1.33333,-75.7733,-669.286)">
        <path d="M356.23,643.37L376.15,643.37" style="fill:none;fill-rule:nonzero;stroke:black;stroke-width:0.72px;"/>
    </g>
    <g transform="matrix(-0.666766,-1.15464,-1.15464,0.666766,1339.74,131.787)">
        <path d="M325.856,649.405L339.794,649.405" style="fill:none;fill-rule:nonzero;stroke:black;stroke-width:0.72px;"/>
    </g>
    <g transform="matrix(-0.665876,1.15516,1.15516,0.665876,-146.603,-618.854)">
        <path d="M330.14,639.805L338.37,639.805" style="fill:none;fill-rule:nonzero;stroke:black;stroke-width:0.72px;"/>
    </g>
    <g transform="matrix(0.666926,1.15455,1.15455,-0.666926,-585.089,229.331)">
        <path d="M332.798,637.285L346.852,637.285" style="fill:none;fill-rule:nonzero;stroke:black;stroke-width:0.72px;"/>
    </g>
    <g transform="matrix(0.666926,1.15455,1.15455,-0.666926,-571.815,206.332)">
        <path d="M352.718,637.285L366.772,637.285" style="fill:none;fill-rule:nonzero;stroke:black;stroke-width:0.72px;"/>
    </g>
    <g transform="matrix(1.33333,0,0,1.33333,-75.7733,-641.313)">
        <path d="M340.32,625.68L342.96,625.44L344.16,625.44L346.56,625.92L349.44,627.36L350.4,628.08L351.12,628.8L351.84,629.76L352.56,630.48L353.28,631.44L353.76,632.4L354.24,634.8L354.48,635.76L354.48,636.96L354,640.32" style="fill:none;fill-rule:nonzero;stroke:black;stroke-width:0.48px;"/>
    </g>
    <g transform="matrix(-1.2958,0.314133,0.314133,1.2958,628.314,-744.638)">
        <path d="M339.979,639.147L348.129,639.147L340.884,642.879L341.831,640.674L339.979,639.147Z" style="stroke:black;stroke-width:0.48px;"/>
    </g>
    <g transform="matrix(1.33333,0,0,1.33333,-75.7733,-673.633)">
        <path d="M356.16,653.04L354.72,652.56L353.52,651.84L352.32,650.88L351.36,649.68L350.64,648.48L349.92,647.04L349.44,645.6L349.44,642.72L349.68,641.76L349.92,640.56L350.88,638.64L351.6,637.92L352.32,636.96" style="fill:none;fill-rule:nonzero;stroke:black;stroke-width:0.48px;"/>
    </g>
    <g transform="matrix(0.981241,-0.902742,-0.902742,-0.981241,633.28,1133.13)">
        <path d="M345.975,649.995L354.128,649.995L346.808,646.293L347.903,648.546L345.975,649.995Z" style="stroke:black;stroke-width:0.48px;"/>
    </g>
    <g transform="matrix(1.33333,0,0,1.33333,-75.7733,-666.273)">
        <path d="M267.36,642.24L301.44,642.24" style="fill:none;fill-rule:nonzero;stroke:black;stroke-width:0.72px;"/>
    </g>
    <g transform="matrix(1.33333,0,0,1.33333,-75.7733,-673.953)">
        <path d="M267.36,645.12L301.44,645.12" style="fill:none;fill-rule:nonzero;stroke:black;stroke-width:0.72px;"/>
    </g>
    <g transform="matrix(1.33333,0,0,1.33333,-75.7733,-670.113)">
        <path d="M271.92,640.08L264,643.68L271.92,647.28" style="fill:none;fill-rule:nonzero;stroke:black;stroke-width:0.72px;"/>
    </g>
    <g transform="matrix(1.33333,0,0,1.33333,-75.7733,-666.726)">
        <path d="M223.03,642.41L238.08,642.41" style="fill:none;fill-rule:nonzero;stroke:black;stroke-width:0.72px;"/>
    </g>
    <g transform="matrix(1.33333,0,0,1.33333,-75.7733,-675.686)">
        <path d="M223.03,645.77L238.08,645.77" style="fill:none;fill-rule:nonzero;stroke:black;stroke-width:0.72px;"/>
    </g>
    <g transform="matrix(-0.666766,-1.15464,-1.15464,0.666766,1114,-0.451075)">
        <path d="M212.576,650.125L226.514,650.125" style="fill:none;fill-rule:nonzero;stroke:black;stroke-width:0.72px;"/>
    </g>
    <g transform="matrix(-0.665876,1.15516,1.15516,0.665876,-373.905,-489.437)">
        <path d="M216.86,640.525L225.09,640.525" style="fill:none;fill-rule:nonzero;stroke:black;stroke-width:0.72px;"/>
    </g>
    <g transform="matrix(-0.666702,-1.15468,-1.15468,0.666702,1002.69,-55.6021)">
        <path d="M155.891,646.725L175.809,646.725" style="fill:none;fill-rule:nonzero;stroke:black;stroke-width:0.72px;"/>
    </g>
    <g transform="matrix(0.666062,-1.15505,-1.15505,-0.666062,783.058,794.888)">
        <path d="M154.716,651.795L162.924,651.795" style="fill:none;fill-rule:nonzero;stroke:black;stroke-width:0.72px;"/>
    </g>
    <g transform="matrix(1.33333,0,0,1.33333,-75.7733,-655.233)">
        <path d="M155.28,638.1L170.83,638.1" style="fill:none;fill-rule:nonzero;stroke:black;stroke-width:0.72px;"/>
    </g>
    <g transform="matrix(-1.15469,0.666693,0.666693,1.15469,-144.548,-623.031)">
        <path d="M137.11,632.935L146.81,632.935" style="fill:none;fill-rule:nonzero;stroke:black;stroke-width:0.72px;"/>
    </g>
    <g transform="matrix(0,1.33333,1.33333,0,-661.853,34.6872)">
        <path d="M142.68,599.16L176.52,599.16" style="fill:none;fill-rule:nonzero;stroke:black;stroke-width:0.72px;"/>
    </g>
    <g transform="matrix(0,1.33333,1.33333,0,-658.013,30.8472)">
        <path d="M145.56,599.16L179.4,599.16" style="fill:none;fill-rule:nonzero;stroke:black;stroke-width:0.72px;"/>
    </g>
    <g transform="matrix(1.33333,0,0,1.33333,-75.7733,-507.873)">
        <path d="M164.64,578.88L161.04,586.8L157.44,578.88" style="fill:none;fill-rule:nonzero;stroke:black;stroke-width:0.72px;"/>
    </g>
    <g transform="matrix(-0.666702,-1.15468,-1.15468,0.666702,906.778,148.224)">
        <path d="M164.051,549.525L183.969,549.525" style="fill:none;fill-rule:nonzero;stroke:black;stroke-width:0.72px;"/>
    </g>
    <g transform="matrix(0.666702,-1.15468,-1.15468,-0.666702,668.113,869.462)">
        <path d="M154.091,549.525L174.009,549.525" style="fill:none;fill-rule:nonzero;stroke:black;stroke-width:0.72px;"/>
    </g>
    <g transform="matrix(1.33333,0,0,1.33333,-75.7733,-396.033)">
        <path d="M159.07,540.9L178.99,540.9" style="fill:none;fill-rule:nonzero;stroke:black;stroke-width:0.72px;"/>
    </g>
    <g transform="matrix(-1.15478,0.666525,0.666525,1.15478,-54.3418,-391.654)">
        <path d="M144.903,537.105L160.087,537.105" style="fill:none;fill-rule:nonzero;stroke:black;stroke-width:0.72px;"/>
    </g>
    <g transform="matrix(0.666871,1.15458,1.15458,-0.666871,-525.383,397.753)">
        <path d="M248.751,535.32L256.789,535.32" style="fill:none;fill-rule:nonzero;stroke:black;stroke-width:0.72px;"/>
    </g>
    <g transform="matrix(0.665626,-1.1553,-1.1553,-0.665626,731.386,969.354)">
        <path d="M248.699,552.6L256.731,552.6" style="fill:none;fill-rule:nonzero;stroke:black;stroke-width:0.72px;"/>
    </g>
</svg>
