<?xml version="1.0" encoding="UTF-8" standalone="no"?>
<!DOCTYPE svg PUBLIC "-//W3C//DTD SVG 1.1//EN" "http://www.w3.org/Graphics/SVG/1.1/DTD/svg11.dtd">
<svg width="100%" height="100%" viewBox="0 0 620 120" version="1.1" xmlns="http://www.w3.org/2000/svg" xmlns:xlink="http://www.w3.org/1999/xlink" xml:space="preserve" xmlns:serif="http://www.serif.com/" style="fill-rule:evenodd;clip-rule:evenodd;stroke-linecap:round;stroke-linejoin:round;stroke-miterlimit:10;">
    <g transform="matrix(1.33333,0,0,1.33333,-85.7026,-67.3574)">
        <text x="81.36px" y="70.08px" style="font-family:'ArialMT', 'Arial', sans-serif;font-size:10px;">O</text>
    </g>
    <g transform="matrix(1.33333,0,0,1.33333,-85.7026,-67.3574)">
        <text x="167.76px" y="89.76px" style="font-family:'ArialMT', 'Arial', sans-serif;font-size:10px;">O</text>
    </g>
    <g transform="matrix(1.33333,0,0,1.33333,-85.7026,-67.3574)">
        <text x="184.8px" y="79.92px" style="font-family:'ArialMT', 'Arial', sans-serif;font-size:10px;">O</text>
        <text x="202.32px" y="89.76px" style="font-family:'ArialMT', 'Arial', sans-serif;font-size:10px;">H</text>
    </g>
    <g transform="matrix(1.33333,0,0,1.33333,-85.7026,-67.3574)">
        <text x="150.48px" y="60px" style="font-family:'ArialMT', 'Arial', sans-serif;font-size:10px;">O</text>
    </g>
    <g transform="matrix(1.33333,0,0,1.33333,-85.7026,-67.3574)">
        <text x="133.44px" y="89.76px" style="font-family:'ArialMT', 'Arial', sans-serif;font-size:10px;">R</text>
    </g>
    <g transform="matrix(1.33333,0,0,1.33333,-85.7026,-67.3574)">
        <text x="280.08px" y="92.64px" style="font-family:'ArialMT', 'Arial', sans-serif;font-size:10px;">O</text>
    </g>
    <g transform="matrix(1.33333,0,0,1.33333,-85.7026,-67.3574)">
        <text x="262.32px" y="64.08px" style="font-family:'ArialMT', 'Arial', sans-serif;font-size:10px;">O</text>
    </g>
    <g transform="matrix(1.33333,0,0,1.33333,-85.7026,-67.3574)">
        <text x="323.76px" y="95.52px" style="font-family:'ArialMT', 'Arial', sans-serif;font-size:10px;">H</text>
        <text x="330.96px" y="98.16px" style="font-family:'ArialMT', 'Arial', sans-serif;font-size:6px;">2</text>
        <text x="334.56px" y="95.52px" style="font-family:'ArialMT', 'Arial', sans-serif;font-size:10px;">O</text>
        <text x="326.88px" y="115.68px" style="font-family:'ArialMT', 'Arial', sans-serif;font-size:10px;">H</text>
        <text x="334.08px" y="110.64px" style="font-family:'ArialMT', 'Arial', sans-serif;font-size:6px;">+</text>
    </g>
    <g transform="matrix(1.33333,0,0,1.33333,-85.7026,-67.3574)">
        <text x="381.84px" y="86.4px" style="font-family:'ArialMT', 'Arial', sans-serif;font-size:10px;">O<tspan x="389.76px " y="86.4px ">H</tspan></text>
    </g>
    <g transform="matrix(1.33333,0,0,1.33333,-85.7026,-67.3574)">
        <text x="468px" y="136.08px" style="font-family:'ArialMT', 'Arial', sans-serif;font-size:10px;">O</text>
    </g>
    <g transform="matrix(1.33333,0,0,1.33333,-85.7026,-67.3574)">
        <text x="485.28px" y="106.32px" style="font-family:'ArialMT', 'Arial', sans-serif;font-size:10px;">O</text>
        <text x="502.8px" y="116.16px" style="font-family:'ArialMT', 'Arial', sans-serif;font-size:10px;">R</text>
        <text x="510.24px" y="109.2px" style="font-family:'ArialMT', 'Arial', sans-serif;font-size:8px;">1</text>
    </g>
    <g transform="matrix(0,-1.33333,-1.33333,0,1032.66,210.683)">
        <path d="M92.73,736.08L112.65,736.08" style="fill:none;fill-rule:nonzero;stroke:black;stroke-width:0.72px;"/>
    </g>
    <g transform="matrix(1.15468,0.666702,0.666702,-1.15468,-569.604,858.317)">
        <path d="M84.106,751.02L104.024,751.02" style="fill:none;fill-rule:nonzero;stroke:black;stroke-width:0.72px;"/>
    </g>
    <g transform="matrix(1.15468,-0.666702,-0.666702,-1.15468,411.888,989.082)">
        <path d="M84.106,721.14L104.024,721.14" style="fill:none;fill-rule:nonzero;stroke:black;stroke-width:0.72px;"/>
    </g>
    <g transform="matrix(1.15468,-0.666702,-0.666702,-1.15468,428.727,972.243)">
        <path d="M66.856,751.02L86.774,751.02" style="fill:none;fill-rule:nonzero;stroke:black;stroke-width:0.72px;"/>
    </g>
    <g transform="matrix(1.15468,0.666702,0.666702,-1.15468,-552.765,875.156)">
        <path d="M66.856,721.14L86.774,721.14" style="fill:none;fill-rule:nonzero;stroke:black;stroke-width:0.72px;"/>
    </g>
    <g transform="matrix(0,-1.33333,-1.33333,0,986.657,164.683)">
        <path d="M58.23,736.08L78.15,736.08" style="fill:none;fill-rule:nonzero;stroke:black;stroke-width:0.72px;"/>
    </g>
    <g transform="matrix(0,-1.33333,-1.33333,0,1048.22,153.603)">
        <path d="M79.8,763.32L94.44,763.32" style="fill:none;fill-rule:nonzero;stroke:black;stroke-width:0.72px;"/>
    </g>
    <g transform="matrix(0,-1.33333,-1.33333,0,1043.74,149.123)">
        <path d="M76.44,763.32L91.08,763.32" style="fill:none;fill-rule:nonzero;stroke:black;stroke-width:0.72px;"/>
    </g>
    <g transform="matrix(1.33333,0,0,1.33333,-85.7026,-919.837)">
        <path d="M120.72,740.64L226.32,740.64" style="fill:none;fill-rule:nonzero;stroke:black;stroke-width:0.72px;"/>
    </g>
    <g transform="matrix(1.2958,0.314133,0.314133,-1.2958,-310.016,957.553)">
        <path d="M218.059,741.573L226.209,741.573L218.964,737.841L219.911,740.046L218.059,741.573Z" style="stroke:black;stroke-width:0.72px;"/>
    </g>
    <g transform="matrix(-1.15473,-0.666619,-0.666619,1.15473,822.109,-734.73)">
        <path d="M153.419,762.435L167.761,762.435" style="fill:none;fill-rule:nonzero;stroke:black;stroke-width:0.72px;"/>
    </g>
    <g transform="matrix(-1.15449,0.667037,0.667037,1.15449,-144.933,-958.33)">
        <path d="M176.082,761.03L184.398,761.03" style="fill:none;fill-rule:nonzero;stroke:black;stroke-width:0.72px;"/>
    </g>
    <g transform="matrix(-1.15431,-0.667337,-0.667337,1.15431,913.521,-706.158)">
        <path d="M193.084,761.03L201.956,761.03" style="fill:none;fill-rule:nonzero;stroke:black;stroke-width:0.72px;"/>
    </g>
    <g transform="matrix(0,-1.33333,-1.33333,0,1153.54,232.123)">
        <path d="M148.71,773.37L163.41,773.37" style="fill:none;fill-rule:nonzero;stroke:black;stroke-width:0.72px;"/>
    </g>
    <g transform="matrix(0,-1.33333,-1.33333,0,1149.06,227.643)">
        <path d="M145.35,773.37L160.05,773.37" style="fill:none;fill-rule:nonzero;stroke:black;stroke-width:0.72px;"/>
    </g>
    <g transform="matrix(-1.15464,0.666766,0.666766,1.15464,-225.803,-940.131)">
        <path d="M140.611,762.33L155.369,762.33" style="fill:none;fill-rule:nonzero;stroke:black;stroke-width:0.72px;"/>
    </g>
    <g transform="matrix(-0.297808,1.29965,1.29965,0.297808,-650.918,-477.516)">
        <path d="M236.043,743.65L255.967,743.65" style="fill:none;fill-rule:nonzero;stroke:black;stroke-width:0.72px;"/>
    </g>
    <g transform="matrix(-0.829985,-1.04351,-1.04351,0.829985,1212.82,-254.825)">
        <path d="M240.02,726.145L259.94,726.145" style="fill:none;fill-rule:nonzero;stroke:black;stroke-width:0.72px;"/>
    </g>
    <g transform="matrix(-1.20205,0.576931,0.576931,1.20205,129.3,-1014.17)">
        <path d="M247.249,757.67L267.171,757.67" style="fill:none;fill-rule:nonzero;stroke:black;stroke-width:0.72px;"/>
    </g>
    <g transform="matrix(-1.33333,-0.000669008,-0.000669008,1.33333,624.498,-860.206)">
        <path d="M256.18,718.345L276.11,718.345" style="fill:none;fill-rule:nonzero;stroke:black;stroke-width:0.72px;"/>
    </g>
    <g transform="matrix(-1.20081,-0.57951,-0.57951,1.20081,1045.01,-709.852)">
        <path d="M265.477,758.86L279.833,758.86" style="fill:none;fill-rule:nonzero;stroke:black;stroke-width:0.72px;"/>
    </g>
    <g transform="matrix(-0.832192,1.04175,1.04175,0.832192,-230.753,-811.339)">
        <path d="M272.367,726.12L292.283,726.12" style="fill:none;fill-rule:nonzero;stroke:black;stroke-width:0.72px;"/>
    </g>
    <g transform="matrix(0.295257,1.30023,1.30023,-0.295257,-751.306,-87.0769)">
        <path d="M279.659,740.99L294.201,740.99" style="fill:none;fill-rule:nonzero;stroke:black;stroke-width:0.72px;"/>
    </g>
    <g transform="matrix(0.000909504,-1.33333,-1.33333,-0.000909504,1296.97,387.322)">
        <path d="M260.545,769.31L275.205,769.31" style="fill:none;fill-rule:nonzero;stroke:black;stroke-width:0.72px;"/>
    </g>
    <g transform="matrix(0.000909504,-1.33333,-1.33333,-0.000909504,1292.49,382.842)">
        <path d="M257.185,769.31L271.845,769.31" style="fill:none;fill-rule:nonzero;stroke:black;stroke-width:0.72px;"/>
    </g>
    <g transform="matrix(1.33333,0,0,1.33333,-85.7026,-915.997)">
        <path d="M307.2,739.2L364.08,739.2" style="fill:none;fill-rule:nonzero;stroke:black;stroke-width:0.72px;"/>
    </g>
    <g transform="matrix(1.2958,0.314133,0.314133,-1.2958,-304.394,914.332)">
        <path d="M355.819,740.133L363.969,740.133L356.724,736.401L357.671,738.606L355.819,740.133Z" style="stroke:black;stroke-width:0.72px;"/>
    </g>
    <g transform="matrix(-1.15468,-0.666702,-0.666702,1.15468,1385.27,-509.667)">
        <path d="M384.406,734.64L404.324,734.64" style="fill:none;fill-rule:nonzero;stroke:black;stroke-width:0.72px;"/>
    </g>
    <g transform="matrix(-1.15468,0.666702,0.666702,1.15468,448.615,-1047.02)">
        <path d="M401.656,734.64L421.574,734.64" style="fill:none;fill-rule:nonzero;stroke:black;stroke-width:0.72px;"/>
    </g>
    <g transform="matrix(-1.15468,-0.666702,-0.666702,1.15468,1471.11,-486.666)">
        <path d="M418.906,734.64L438.824,734.64" style="fill:none;fill-rule:nonzero;stroke:black;stroke-width:0.72px;"/>
    </g>
    <g transform="matrix(-1.15468,0.666702,0.666702,1.15468,534.451,-1070.02)">
        <path d="M436.156,734.64L456.074,734.64" style="fill:none;fill-rule:nonzero;stroke:black;stroke-width:0.72px;"/>
    </g>
    <g transform="matrix(0,-1.33333,-1.33333,0,1424.58,573.563)">
        <path d="M378.39,746.97L393.09,746.97" style="fill:none;fill-rule:nonzero;stroke:black;stroke-width:0.72px;"/>
    </g>
    <g transform="matrix(1.15468,0.666702,0.666702,-1.15468,-492.707,615.03)">
        <path d="M453.406,734.64L473.324,734.64" style="fill:none;fill-rule:nonzero;stroke:black;stroke-width:0.72px;"/>
    </g>
    <g transform="matrix(0,1.33333,1.33333,0,-421.703,-534.957)">
        <path d="M462.96,722.31L477.66,722.31" style="fill:none;fill-rule:nonzero;stroke:black;stroke-width:0.72px;"/>
    </g>
    <g transform="matrix(0,1.33333,1.33333,0,-417.223,-539.437)">
        <path d="M466.32,722.31L481.02,722.31" style="fill:none;fill-rule:nonzero;stroke:black;stroke-width:0.72px;"/>
    </g>
    <g transform="matrix(1.15465,-0.666756,-0.666756,-1.15465,488.615,1243)">
        <path d="M471.036,733.22L485.274,733.22" style="fill:none;fill-rule:nonzero;stroke:black;stroke-width:0.72px;"/>
    </g>
    <g transform="matrix(1.15496,0.66621,0.66621,-1.15496,-486.249,592.406)">
        <path d="M493.567,734.565L502.433,734.565" style="fill:none;fill-rule:nonzero;stroke:black;stroke-width:0.72px;"/>
    </g>
</svg>
