<?xml version="1.0" encoding="UTF-8" standalone="no"?>
<!DOCTYPE svg PUBLIC "-//W3C//DTD SVG 1.1//EN" "http://www.w3.org/Graphics/SVG/1.1/DTD/svg11.dtd">
<svg width="100%" height="100%" viewBox="0 0 600 440" version="1.1" xmlns="http://www.w3.org/2000/svg" xmlns:xlink="http://www.w3.org/1999/xlink" xml:space="preserve" xmlns:serif="http://www.serif.com/" style="fill-rule:evenodd;clip-rule:evenodd;stroke-linecap:round;stroke-linejoin:round;stroke-miterlimit:10;">
    <g transform="matrix(1.33333,0,0,1.33333,-80.8026,-64.6374)">
        <text x="80.64px" y="58.08px" style="font-family:'ArialMT', 'Arial', sans-serif;font-size:10px;">O</text>
    </g>
    <g transform="matrix(1.33333,0,0,1.33333,-80.8026,-64.6374)">
        <text x="63.6px" y="87.84px" style="font-family:'ArialMT', 'Arial', sans-serif;font-size:10px;">R</text>
    </g>
    <g transform="matrix(1.33333,0,0,1.33333,-80.8026,-64.6374)">
        <text x="166.8px" y="107.76px" style="font-family:'ArialMT', 'Arial', sans-serif;font-size:10px;">O</text>
    </g>
    <g transform="matrix(1.33333,0,0,1.33333,-80.8026,-64.6374)">
        <text x="184.08px" y="78px" style="font-family:'ArialMT', 'Arial', sans-serif;font-size:10px;">O</text>
        <text x="201.6px" y="87.84px" style="font-family:'ArialMT', 'Arial', sans-serif;font-size:10px;">R</text>
        <text x="209.04px" y="80.88px" style="font-family:'ArialMT', 'Arial', sans-serif;font-size:8px;">1</text>
    </g>
    <g transform="matrix(1.33333,0,0,1.33333,-80.8026,-64.6374)">
        <text x="149.76px" y="58.08px" style="font-family:'ArialMT', 'Arial', sans-serif;font-size:10px;">H</text>
    </g>
    <g transform="matrix(1.33333,0,0,1.33333,-80.8026,-64.6374)">
        <text x="337.68px" y="78px" style="font-family:'ArialMT', 'Arial', sans-serif;font-size:10px;">CH</text>
        <text x="352.08px" y="80.64px" style="font-family:'ArialMT', 'Arial', sans-serif;font-size:8px;">2</text>
    </g>
    <g transform="matrix(1.33333,0,0,1.33333,-80.8026,-64.6374)">
        <text x="352.08px" y="71.04px" style="font-family:'ArialMT', 'Arial', sans-serif;font-size:8px;">–</text>
    </g>
    <g transform="matrix(1.33333,0,0,1.33333,-80.8026,-64.6374)">
        <text x="303.12px" y="58.08px" style="font-family:'ArialMT', 'Arial', sans-serif;font-size:10px;">O</text>
    </g>
    <g transform="matrix(1.33333,0,0,1.33333,-80.8026,-64.6374)">
        <text x="286.08px" y="87.84px" style="font-family:'ArialMT', 'Arial', sans-serif;font-size:10px;">R</text>
    </g>
    <g transform="matrix(1.33333,0,0,1.33333,-80.8026,-64.6374)">
        <text x="374.16px" y="80.64px" style="font-family:'ArialMT', 'Arial', sans-serif;font-size:18px;">+</text>
    </g>
    <g transform="matrix(0.0581362,1.33207,-1.33207,0.0581362,-80.8026,-64.6374)">
        <text x="80.956px" y="-337.121px" style="font-family:'ArialMT', 'Arial', sans-serif;font-size:10px;">:</text>
    </g>
    <g transform="matrix(1.33333,0,0,1.33333,-80.8026,-64.6374)">
        <text x="467.52px" y="63.12px" style="font-family:'ArialMT', 'Arial', sans-serif;font-size:10px;">O</text>
        <text x="485.04px" y="72.96px" style="font-family:'ArialMT', 'Arial', sans-serif;font-size:10px;">R</text>
        <text x="492.48px" y="66px" style="font-family:'ArialMT', 'Arial', sans-serif;font-size:8px;">1</text>
        <text x="450.48px" y="92.88px" style="font-family:'ArialMT', 'Arial', sans-serif;font-size:10px;">O</text>
    </g>
    <g transform="matrix(1.33333,0,0,1.33333,-80.8026,-64.6374)">
        <text x="416.16px" y="72.96px" style="font-family:'ArialMT', 'Arial', sans-serif;font-size:10px;">C</text>
    </g>
    <g transform="matrix(1.33333,0,0,1.33333,-80.8026,-64.6374)">
        <text x="404.64px" y="72.96px" style="font-family:'ArialMT', 'Arial', sans-serif;font-size:10px;">H</text>
        <text x="411.84px" y="75.6px" style="font-family:'ArialMT', 'Arial', sans-serif;font-size:8px;">2</text>
    </g>
    <g transform="matrix(1.33333,0,0,1.33333,-80.8026,-64.6374)">
        <text x="317.76px" y="187.44px" style="font-family:'ArialMT', 'Arial', sans-serif;font-size:10px;">O</text>
    </g>
    <g transform="matrix(1.33333,0,0,1.33333,-80.8026,-64.6374)">
        <text x="285.36px" y="187.2px" style="font-family:'ArialMT', 'Arial', sans-serif;font-size:10px;">O</text>
        <text x="283.92px" y="208.08px" style="font-family:'ArialMT', 'Arial', sans-serif;font-size:10px;">R</text>
    </g>
    <g transform="matrix(1.33333,0,0,1.33333,-80.8026,-64.6374)">
        <text x="348.96px" y="226.32px" style="font-family:'ArialMT', 'Arial', sans-serif;font-size:10px;">BrM<tspan x="367.44px " y="226.32px ">g</tspan></text>
    </g>
    <g transform="matrix(1.33333,0,0,1.33333,-80.8026,-64.6374)">
        <text x="375.6px" y="182.88px" style="font-family:'ArialMT', 'Arial', sans-serif;font-size:18px;">+</text>
        <text x="407.76px" y="180px" style="font-family:'ArialMT', 'Arial', sans-serif;font-size:10px;">CuI</text>
    </g>
    <g transform="matrix(1.33333,0,0,1.33333,-80.8026,-64.6374)">
        <text x="284.88px" y="296.88px" style="font-family:'ArialMT', 'Arial', sans-serif;font-size:10px;">O</text>
    </g>
    <g transform="matrix(1.33333,0,0,1.33333,-80.8026,-64.6374)">
        <text x="267.84px" y="326.64px" style="font-family:'ArialMT', 'Arial', sans-serif;font-size:10px;">R</text>
    </g>
    <g transform="matrix(1.33333,0,0,1.33333,-80.8026,-64.6374)">
        <text x="336.48px" y="346.56px" style="font-family:'ArialMT', 'Arial', sans-serif;font-size:10px;">O<tspan x="344.4px " y="346.56px ">H</tspan></text>
    </g>
    <g transform="matrix(1.33333,0,0,1.33333,-80.8026,-64.6374)">
        <text x="282px" y="373.92px" style="font-family:'ArialMT', 'Arial', sans-serif;font-size:10px;">1</text>
        <text x="287.52px" y="373.92px" style="font-family:'ArialMT', 'Arial', sans-serif;font-size:10px;">,</text>
        <text x="290.4px" y="373.92px" style="font-family:'ArialMT', 'Arial', sans-serif;font-size:10px;">4</text>
        <text x="298.755px" y="373.92px" style="font-family:'ArialMT', 'Arial', sans-serif;font-size:10px;">-</text>
        <text x="302.115px" y="373.92px" style="font-family:'ArialMT', 'Arial', sans-serif;font-size:10px;">рет<tspan x="317.707px " y="373.92px ">р</tspan>он</text>
    </g>
    <g transform="matrix(-1.15468,-0.666702,-0.666702,1.15468,659.66,-778.219)">
        <path d="M83.206,762.96L103.124,762.96" style="fill:none;fill-rule:nonzero;stroke:black;stroke-width:0.72px;"/>
    </g>
    <g transform="matrix(-1.15468,0.666702,0.666702,1.15468,-314.756,-913.946)">
        <path d="M100.456,762.96L120.374,762.96" style="fill:none;fill-rule:nonzero;stroke:black;stroke-width:0.72px;"/>
    </g>
    <g transform="matrix(-1.15468,-0.666702,-0.666702,1.15468,745.497,-755.218)">
        <path d="M117.706,762.96L137.624,762.96" style="fill:none;fill-rule:nonzero;stroke:black;stroke-width:0.72px;"/>
    </g>
    <g transform="matrix(-1.15468,0.666702,0.666702,1.15468,-228.919,-936.947)">
        <path d="M134.956,762.96L154.874,762.96" style="fill:none;fill-rule:nonzero;stroke:black;stroke-width:0.72px;"/>
    </g>
    <g transform="matrix(0,-1.33333,-1.33333,0,1067.88,139.163)">
        <path d="M78.87,775.29L93.57,775.29" style="fill:none;fill-rule:nonzero;stroke:black;stroke-width:0.72px;"/>
    </g>
    <g transform="matrix(0,-1.33333,-1.33333,0,1063.4,134.683)">
        <path d="M75.51,775.29L90.21,775.29" style="fill:none;fill-rule:nonzero;stroke:black;stroke-width:0.72px;"/>
    </g>
    <g transform="matrix(-1.15464,0.666766,0.666766,1.15464,-395.943,-895.621)">
        <path d="M70.771,764.25L85.529,764.25" style="fill:none;fill-rule:nonzero;stroke:black;stroke-width:0.72px;"/>
    </g>
    <g transform="matrix(1.15468,0.666702,0.666702,-1.15468,-560.498,813.502)">
        <path d="M152.206,762.96L172.124,762.96" style="fill:none;fill-rule:nonzero;stroke:black;stroke-width:0.72px;"/>
    </g>
    <g transform="matrix(0,1.33333,1.33333,0,-856.163,-168.397)">
        <path d="M161.76,750.63L176.46,750.63" style="fill:none;fill-rule:nonzero;stroke:black;stroke-width:0.72px;"/>
    </g>
    <g transform="matrix(0,1.33333,1.33333,0,-851.683,-172.877)">
        <path d="M165.12,750.63L179.82,750.63" style="fill:none;fill-rule:nonzero;stroke:black;stroke-width:0.72px;"/>
    </g>
    <g transform="matrix(1.15465,-0.666756,-0.666756,-1.15465,458.578,1039.83)">
        <path d="M169.836,761.54L184.074,761.54" style="fill:none;fill-rule:nonzero;stroke:black;stroke-width:0.72px;"/>
    </g>
    <g transform="matrix(1.15496,0.66621,0.66621,-1.15496,-553.941,790.737)">
        <path d="M192.367,762.885L201.233,762.885" style="fill:none;fill-rule:nonzero;stroke:black;stroke-width:0.72px;"/>
    </g>
    <g transform="matrix(0,-1.33333,-1.33333,0,1157.64,228.923)">
        <path d="M146.19,775.29L160.89,775.29" style="fill:none;fill-rule:nonzero;stroke:black;stroke-width:0.72px;"/>
    </g>
    <g transform="matrix(1.33333,0,0,1.33333,-80.8026,-983.357)">
        <path d="M129.36,756L130.32,757.68L131.04,759.36L131.52,761.28L131.76,763.2L131.76,764.4L131.28,766.8L130.8,767.76L130.32,768.96L128.88,770.88L127.2,772.56L126.24,773.28L125.28,773.76L122.88,774.72L121.92,774.96L121.2,774.96" style="fill:none;fill-rule:nonzero;stroke:black;stroke-width:0.48px;"/>
    </g>
    <g transform="matrix(-0.774984,-1.08498,-1.08498,0.774984,1033.38,-424.381)">
        <path d="M128.217,770.462L136.475,770.462L129.137,774.228L130.198,771.996L128.217,770.462Z" style="stroke:black;stroke-width:0.48px;"/>
    </g>
    <g transform="matrix(1.33333,0,0,1.33333,-80.8026,-992.637)">
        <path d="M158.64,754.8L160.56,756L163.44,759.36L164.4,761.28L165.36,763.44L165.84,765.6L166.08,766.8L166.08,768L165.6,771.36L165.12,773.04L164.64,774.48L162.72,777.36L161.76,778.56L160.56,779.52L157.68,781.44L156.24,782.16L154.8,782.64L153.12,782.88L151.2,783.12L149.04,783.12L147.36,782.88L145.68,782.4L142.8,780.96" style="fill:none;fill-rule:nonzero;stroke:black;stroke-width:0.48px;"/>
    </g>
    <g transform="matrix(-1.05247,-0.818587,-0.818587,1.05247,887.199,-621.788)">
        <path d="M143.438,754.956L151.648,754.956L144.47,750.893L145.438,753.167L143.438,754.956Z" style="stroke:black;stroke-width:0.48px;"/>
    </g>
    <g transform="matrix(1.33333,0,0,1.33333,-80.8026,-986.237)">
        <path d="M234.48,766.56L268.56,766.56" style="fill:none;fill-rule:nonzero;stroke:black;stroke-width:0.72px;"/>
    </g>
    <g transform="matrix(1.33333,0,0,1.33333,-80.8026,-993.917)">
        <path d="M234.48,769.44L268.56,769.44" style="fill:none;fill-rule:nonzero;stroke:black;stroke-width:0.72px;"/>
    </g>
    <g transform="matrix(1.33333,0,0,1.33333,-80.8026,-990.077)">
        <path d="M264,764.4L271.92,768L264,771.6" style="fill:none;fill-rule:nonzero;stroke:black;stroke-width:0.72px;"/>
    </g>
    <g transform="matrix(-1.15468,-0.666702,-0.666702,1.15468,1213.12,-629.911)">
        <path d="M305.656,762.96L325.574,762.96" style="fill:none;fill-rule:nonzero;stroke:black;stroke-width:0.72px;"/>
    </g>
    <g transform="matrix(-1.15491,0.666297,0.666297,1.15491,234.075,-1057.27)">
        <path d="M323.276,761.58L337.684,761.58" style="fill:none;fill-rule:nonzero;stroke:black;stroke-width:0.72px;"/>
    </g>
    <g transform="matrix(0,-1.33333,-1.33333,0,1364.48,435.763)">
        <path d="M301.32,775.29L316.02,775.29" style="fill:none;fill-rule:nonzero;stroke:black;stroke-width:0.72px;"/>
    </g>
    <g transform="matrix(0,-1.33333,-1.33333,0,1360,431.283)">
        <path d="M297.96,775.29L312.66,775.29" style="fill:none;fill-rule:nonzero;stroke:black;stroke-width:0.72px;"/>
    </g>
    <g transform="matrix(-1.15475,0.666584,0.666584,1.15475,157.709,-1044)">
        <path d="M293.254,764.26L307.976,764.26" style="fill:none;fill-rule:nonzero;stroke:black;stroke-width:0.72px;"/>
    </g>
    <g transform="matrix(-1.15457,0.666895,0.666895,1.15457,546.953,-1180.74)">
        <path d="M453.372,776.395L467.508,776.395" style="fill:none;fill-rule:nonzero;stroke:black;stroke-width:0.72px;"/>
    </g>
    <g transform="matrix(1.15496,0.66621,0.66621,-1.15496,-513.331,599.244)">
        <path d="M475.807,777.815L484.673,777.815" style="fill:none;fill-rule:nonzero;stroke:black;stroke-width:0.72px;"/>
    </g>
    <g transform="matrix(-1.15468,-0.666702,-0.666702,1.15468,1546.68,-580.208)">
        <path d="M435.736,777.84L455.654,777.84" style="fill:none;fill-rule:nonzero;stroke:black;stroke-width:0.72px;"/>
    </g>
    <g transform="matrix(0,1.33333,1.33333,0,-497.963,-566.277)">
        <path d="M445.29,765.51L459.99,765.51" style="fill:none;fill-rule:nonzero;stroke:black;stroke-width:0.72px;"/>
    </g>
    <g transform="matrix(0,1.33333,1.33333,0,-493.483,-570.757)">
        <path d="M448.65,765.51L463.35,765.51" style="fill:none;fill-rule:nonzero;stroke:black;stroke-width:0.72px;"/>
    </g>
    <g transform="matrix(-1.15475,0.666584,0.666584,1.15475,471.439,-1167.74)">
        <path d="M423.334,779.14L438.056,779.14" style="fill:none;fill-rule:nonzero;stroke:black;stroke-width:0.72px;"/>
    </g>
    <g transform="matrix(-1.15457,0.6669,0.6669,1.15457,474.27,-1158.64)">
        <path d="M423.638,775.415L438.292,775.415" style="fill:none;fill-rule:nonzero;stroke:black;stroke-width:0.72px;"/>
    </g>
    <g transform="matrix(0,1.33333,1.33333,0,-631.683,-308.957)">
        <path d="M286.92,719.16L325.08,719.16" style="fill:none;fill-rule:nonzero;stroke:black;stroke-width:0.72px;"/>
    </g>
    <g transform="matrix(0,1.33333,1.33333,0,-627.843,-312.797)">
        <path d="M289.8,719.16L327.96,719.16" style="fill:none;fill-rule:nonzero;stroke:black;stroke-width:0.72px;"/>
    </g>
    <g transform="matrix(1.33333,0,0,1.33333,-80.8026,-810.557)">
        <path d="M311.04,696.72L307.44,704.64L303.84,696.72" style="fill:none;fill-rule:nonzero;stroke:black;stroke-width:0.72px;"/>
    </g>
    <g transform="matrix(1.08259,-0.778319,-0.778319,-1.08259,503.826,1136.86)">
        <path d="M304.136,650.91L318.114,650.91" style="fill:none;fill-rule:nonzero;stroke:black;stroke-width:0.72px;"/>
    </g>
    <g transform="matrix(0.405901,1.27005,1.27005,-0.405901,-637.679,32.4822)">
        <path d="M310.51,670.515L325.03,670.515" style="fill:none;fill-rule:nonzero;stroke:black;stroke-width:0.72px;"/>
    </g>
    <g transform="matrix(1.07478,0.789067,0.789067,-1.07478,-516.916,653.021)">
        <path d="M292.892,650.945L306.798,650.945" style="fill:none;fill-rule:nonzero;stroke:black;stroke-width:0.72px;"/>
    </g>
    <g transform="matrix(1.33332,0.00669,0.00669,-1.33332,-85.3298,1055.87)">
        <path d="M295.63,677.48L315.56,677.48" style="fill:none;fill-rule:nonzero;stroke:black;stroke-width:0.72px;"/>
    </g>
    <g transform="matrix(-0.417194,1.26638,1.26638,0.417194,-416.586,-487.655)">
        <path d="M286.168,670.685L300.582,670.685" style="fill:none;fill-rule:nonzero;stroke:black;stroke-width:0.72px;"/>
    </g>
    <g transform="matrix(1.18498,0.611234,0.611234,-1.18498,-426.748,770.528)">
        <path d="M304.342,642.265L324.258,642.265" style="fill:none;fill-rule:nonzero;stroke:black;stroke-width:0.72px;"/>
    </g>
    <g transform="matrix(-1.19096,0.599489,0.599489,1.19096,287.618,-745.479)">
        <path d="M291.281,643.465L306.249,643.465" style="fill:none;fill-rule:nonzero;stroke:black;stroke-width:0.72px;"/>
    </g>
    <g transform="matrix(1.1217,-0.720807,-0.720807,-1.1217,452.9,1160.79)">
        <path d="M321.569,643.085L341.491,643.085" style="fill:none;fill-rule:nonzero;stroke:black;stroke-width:0.72px;"/>
    </g>
    <g transform="matrix(1.18512,0.610961,0.610961,-1.18512,-422.511,749.404)">
        <path d="M338.803,643.905L358.727,643.905" style="fill:none;fill-rule:nonzero;stroke:black;stroke-width:0.72px;"/>
    </g>
    <g transform="matrix(-0.0173264,1.33322,1.33322,0.0173264,-440.543,-272.395)">
        <path d="M350.214,632.03L364.836,632.03" style="fill:none;fill-rule:nonzero;stroke:black;stroke-width:0.72px;"/>
    </g>
    <g transform="matrix(0,1.33333,1.33333,0,-454.563,-131.197)">
        <path d="M288.48,586.08L323.04,586.08" style="fill:none;fill-rule:nonzero;stroke:black;stroke-width:0.72px;"/>
    </g>
    <g transform="matrix(0,1.33333,1.33333,0,-450.723,-135.037)">
        <path d="M291.36,586.08L325.92,586.08" style="fill:none;fill-rule:nonzero;stroke:black;stroke-width:0.72px;"/>
    </g>
    <g transform="matrix(1.33333,0,0,1.33333,-80.8026,-460.477)">
        <path d="M310.8,565.44L307.2,573.36L303.6,565.44" style="fill:none;fill-rule:nonzero;stroke:black;stroke-width:0.72px;"/>
    </g>
    <g transform="matrix(-1.15468,-0.666702,-0.666702,1.15468,1008.6,-47.9139)">
        <path d="M287.446,524.16L307.364,524.16" style="fill:none;fill-rule:nonzero;stroke:black;stroke-width:0.72px;"/>
    </g>
    <g transform="matrix(-1.15468,0.666702,0.666702,1.15468,352.605,-455.976)">
        <path d="M304.696,524.16L324.614,524.16" style="fill:none;fill-rule:nonzero;stroke:black;stroke-width:0.72px;"/>
    </g>
    <g transform="matrix(-1.15468,-0.666702,-0.666702,1.15468,1094.44,-24.9127)">
        <path d="M321.946,524.16L341.864,524.16" style="fill:none;fill-rule:nonzero;stroke:black;stroke-width:0.72px;"/>
    </g>
    <g transform="matrix(0,-1.33333,-1.33333,0,1021.8,729.883)">
        <path d="M283.11,536.49L297.81,536.49" style="fill:none;fill-rule:nonzero;stroke:black;stroke-width:0.72px;"/>
    </g>
    <g transform="matrix(0,-1.33333,-1.33333,0,1017.32,725.403)">
        <path d="M279.75,536.49L294.45,536.49" style="fill:none;fill-rule:nonzero;stroke:black;stroke-width:0.72px;"/>
    </g>
    <g transform="matrix(-1.15464,0.666766,0.666766,1.15464,271.425,-437.673)">
        <path d="M275.011,525.45L289.769,525.45" style="fill:none;fill-rule:nonzero;stroke:black;stroke-width:0.72px;"/>
    </g>
    <g transform="matrix(0,1.33333,1.33333,0,-309.203,-78.5574)">
        <path d="M333.18,511.83L347.88,511.83" style="fill:none;fill-rule:nonzero;stroke:black;stroke-width:0.72px;"/>
    </g>
</svg>
