<?xml version="1.0" encoding="UTF-8" standalone="no"?>
<!DOCTYPE svg PUBLIC "-//W3C//DTD SVG 1.1//EN" "http://www.w3.org/Graphics/SVG/1.1/DTD/svg11.dtd">
<svg width="100%" height="100%" viewBox="0 0 480 110" version="1.1" xmlns="http://www.w3.org/2000/svg" xmlns:xlink="http://www.w3.org/1999/xlink" xml:space="preserve" xmlns:serif="http://www.serif.com/" style="fill-rule:evenodd;clip-rule:evenodd;stroke-linecap:round;stroke-linejoin:round;stroke-miterlimit:10;">
    <g transform="matrix(1.33333,0,0,1.33333,-75.18,-63.7174)">
        <text x="58.32px" y="74.88px" style="font-family:'ArialMT', 'Arial', sans-serif;font-size:10px;">O<tspan x="66.24px " y="74.88px ">H</tspan></text>
    </g>
    <g transform="matrix(1.33333,0,0,1.33333,-75.18,-63.7174)">
        <text x="144.48px" y="124.56px" style="font-family:'ArialMT', 'Arial', sans-serif;font-size:10px;">O</text>
    </g>
    <g transform="matrix(1.33333,0,0,1.33333,-75.18,-63.7174)">
        <text x="161.76px" y="94.8px" style="font-family:'ArialMT', 'Arial', sans-serif;font-size:10px;">O</text>
        <text x="179.28px" y="104.64px" style="font-family:'ArialMT', 'Arial', sans-serif;font-size:10px;">R</text>
        <text x="186.72px" y="97.68px" style="font-family:'ArialMT', 'Arial', sans-serif;font-size:8px;">1</text>
    </g>
    <g transform="matrix(1.33333,0,0,1.33333,-75.18,-63.7174)">
        <text x="297.6px" y="87.12px" style="font-family:'ArialMT', 'Arial', sans-serif;font-size:10px;">O</text>
    </g>
    <g transform="matrix(1.33333,0,0,1.33333,-75.18,-63.7174)">
        <text x="279.84px" y="58.56px" style="font-family:'ArialMT', 'Arial', sans-serif;font-size:10px;">O</text>
    </g>
    <g transform="matrix(1.33333,0,0,1.33333,-75.18,-63.7174)">
        <text x="393.12px" y="60.72px" style="font-family:'ArialMT', 'Arial', sans-serif;font-size:10px;">O</text>
    </g>
    <g transform="matrix(-1.15468,-0.666702,-0.666702,1.15468,598.55,-750.381)">
        <path d="M60.886,746.16L80.804,746.16" style="fill:none;fill-rule:nonzero;stroke:black;stroke-width:0.72px;"/>
    </g>
    <g transform="matrix(-1.15468,0.666702,0.666702,1.15468,-353.465,-856.347)">
        <path d="M78.136,746.16L98.054,746.16" style="fill:none;fill-rule:nonzero;stroke:black;stroke-width:0.72px;"/>
    </g>
    <g transform="matrix(-1.15468,-0.666702,-0.666702,1.15468,684.386,-727.38)">
        <path d="M95.386,746.16L115.304,746.16" style="fill:none;fill-rule:nonzero;stroke:black;stroke-width:0.72px;"/>
    </g>
    <g transform="matrix(-1.15468,0.666702,0.666702,1.15468,-267.629,-879.348)">
        <path d="M112.636,746.16L132.554,746.16" style="fill:none;fill-rule:nonzero;stroke:black;stroke-width:0.72px;"/>
    </g>
    <g transform="matrix(0,-1.33333,-1.33333,0,1019.1,130.483)">
        <path d="M54.87,758.49L69.57,758.49" style="fill:none;fill-rule:nonzero;stroke:black;stroke-width:0.72px;"/>
    </g>
    <g transform="matrix(1.15468,0.666702,0.666702,-1.15468,-547.663,832.304)">
        <path d="M129.886,746.16L149.804,746.16" style="fill:none;fill-rule:nonzero;stroke:black;stroke-width:0.72px;"/>
    </g>
    <g transform="matrix(0,1.33333,1.33333,0,-857.9,-115.317)">
        <path d="M139.44,733.83L154.14,733.83" style="fill:none;fill-rule:nonzero;stroke:black;stroke-width:0.72px;"/>
    </g>
    <g transform="matrix(0,1.33333,1.33333,0,-853.42,-119.797)">
        <path d="M142.8,733.83L157.5,733.83" style="fill:none;fill-rule:nonzero;stroke:black;stroke-width:0.72px;"/>
    </g>
    <g transform="matrix(1.15465,-0.666756,-0.666756,-1.15465,449.011,1028.87)">
        <path d="M147.516,744.74L161.754,744.74" style="fill:none;fill-rule:nonzero;stroke:black;stroke-width:0.72px;"/>
    </g>
    <g transform="matrix(1.15496,0.66621,0.66621,-1.15496,-541.107,809.524)">
        <path d="M170.047,746.085L178.913,746.085" style="fill:none;fill-rule:nonzero;stroke:black;stroke-width:0.72px;"/>
    </g>
    <g transform="matrix(1.33333,0,0,1.33333,-75.18,-941.157)">
        <path d="M206.64,750L240.72,750" style="fill:none;fill-rule:nonzero;stroke:black;stroke-width:0.72px;"/>
    </g>
    <g transform="matrix(1.33333,0,0,1.33333,-75.18,-948.837)">
        <path d="M206.64,752.88L240.72,752.88" style="fill:none;fill-rule:nonzero;stroke:black;stroke-width:0.72px;"/>
    </g>
    <g transform="matrix(1.33333,0,0,1.33333,-75.18,-944.997)">
        <path d="M236.16,747.84L244.08,751.44L236.16,755.04" style="fill:none;fill-rule:nonzero;stroke:black;stroke-width:0.72px;"/>
    </g>
    <g transform="matrix(-0.297808,1.29965,1.29965,0.297808,-618.992,-505.65)">
        <path d="M253.563,749.17L273.487,749.17" style="fill:none;fill-rule:nonzero;stroke:black;stroke-width:0.72px;"/>
    </g>
    <g transform="matrix(-0.829985,-1.04351,-1.04351,0.829985,1267,-244.844)">
        <path d="M257.54,731.665L277.46,731.665" style="fill:none;fill-rule:nonzero;stroke:black;stroke-width:0.72px;"/>
    </g>
    <g transform="matrix(-1.20205,0.576931,0.576931,1.20205,181.058,-1034.64)">
        <path d="M264.769,763.19L284.691,763.19" style="fill:none;fill-rule:nonzero;stroke:black;stroke-width:0.72px;"/>
    </g>
    <g transform="matrix(-1.33333,-0.000669008,-0.000669008,1.33333,681.744,-871.274)">
        <path d="M273.7,723.865L293.63,723.865" style="fill:none;fill-rule:nonzero;stroke:black;stroke-width:0.72px;"/>
    </g>
    <g transform="matrix(-1.20081,-0.57951,-0.57951,1.20081,1103.13,-710.047)">
        <path d="M282.997,764.38L297.353,764.38" style="fill:none;fill-rule:nonzero;stroke:black;stroke-width:0.72px;"/>
    </g>
    <g transform="matrix(-0.832192,1.04175,1.04175,0.832192,-188.041,-837.904)">
        <path d="M289.887,731.64L309.803,731.64" style="fill:none;fill-rule:nonzero;stroke:black;stroke-width:0.72px;"/>
    </g>
    <g transform="matrix(0.295257,1.30023,1.30023,-0.295257,-729.773,-111.947)">
        <path d="M297.179,746.51L311.721,746.51" style="fill:none;fill-rule:nonzero;stroke:black;stroke-width:0.72px;"/>
    </g>
    <g transform="matrix(0.000909504,-1.33333,-1.33333,-0.000909504,1338.19,406.967)">
        <path d="M278.065,774.83L292.725,774.83" style="fill:none;fill-rule:nonzero;stroke:black;stroke-width:0.72px;"/>
    </g>
    <g transform="matrix(0.000909504,-1.33333,-1.33333,-0.000909504,1333.72,402.487)">
        <path d="M274.705,774.83L289.365,774.83" style="fill:none;fill-rule:nonzero;stroke:black;stroke-width:0.72px;"/>
    </g>
    <g transform="matrix(1.33333,0,0,1.33333,-75.18,-940.517)">
        <path d="M322.8,749.76L356.88,749.76" style="fill:none;fill-rule:nonzero;stroke:black;stroke-width:0.72px;"/>
    </g>
    <g transform="matrix(1.33333,0,0,1.33333,-75.18,-948.197)">
        <path d="M322.8,752.64L356.88,752.64" style="fill:none;fill-rule:nonzero;stroke:black;stroke-width:0.72px;"/>
    </g>
    <g transform="matrix(1.33333,0,0,1.33333,-75.18,-944.357)">
        <path d="M352.32,747.6L360.24,751.2L352.32,754.8" style="fill:none;fill-rule:nonzero;stroke:black;stroke-width:0.72px;"/>
    </g>
    <g transform="matrix(0,-1.33333,-1.33333,0,1471.02,617.843)">
        <path d="M404.49,745.2L424.41,745.2" style="fill:none;fill-rule:nonzero;stroke:black;stroke-width:0.72px;"/>
    </g>
    <g transform="matrix(1.15468,0.666702,0.666702,-1.15468,-509.465,652.477)">
        <path d="M395.866,760.14L415.784,760.14" style="fill:none;fill-rule:nonzero;stroke:black;stroke-width:0.72px;"/>
    </g>
    <g transform="matrix(1.15468,-0.666702,-0.666702,-1.15468,484.188,1198.94)">
        <path d="M395.866,730.26L415.784,730.26" style="fill:none;fill-rule:nonzero;stroke:black;stroke-width:0.72px;"/>
    </g>
    <g transform="matrix(1.15468,-0.666702,-0.666702,-1.15468,501.027,1182.1)">
        <path d="M378.616,760.14L398.534,760.14" style="fill:none;fill-rule:nonzero;stroke:black;stroke-width:0.72px;"/>
    </g>
    <g transform="matrix(1.15468,0.666702,0.666702,-1.15468,-492.626,669.315)">
        <path d="M378.616,730.26L398.534,730.26" style="fill:none;fill-rule:nonzero;stroke:black;stroke-width:0.72px;"/>
    </g>
    <g transform="matrix(0,-1.33333,-1.33333,0,1425.02,571.843)">
        <path d="M369.99,745.2L389.91,745.2" style="fill:none;fill-rule:nonzero;stroke:black;stroke-width:0.72px;"/>
    </g>
    <g transform="matrix(0,-1.33333,-1.33333,0,1486.74,560.603)">
        <path d="M391.44,772.56L406.32,772.56" style="fill:none;fill-rule:nonzero;stroke:black;stroke-width:0.72px;"/>
    </g>
    <g transform="matrix(0,-1.33333,-1.33333,0,1482.26,556.123)">
        <path d="M388.08,772.56L402.96,772.56" style="fill:none;fill-rule:nonzero;stroke:black;stroke-width:0.72px;"/>
    </g>
</svg>
