<?xml version="1.0" encoding="UTF-8" standalone="no"?>
<!DOCTYPE svg PUBLIC "-//W3C//DTD SVG 1.1//EN" "http://www.w3.org/Graphics/SVG/1.1/DTD/svg11.dtd">
<svg width="100%" height="100%" viewBox="0 0 650 130" version="1.1" xmlns="http://www.w3.org/2000/svg" xmlns:xlink="http://www.w3.org/1999/xlink" xml:space="preserve" xmlns:serif="http://www.serif.com/" style="fill-rule:evenodd;clip-rule:evenodd;stroke-linecap:round;stroke-linejoin:round;stroke-miterlimit:10;">
    <g transform="matrix(1.33333,0,0,1.33333,-75.8026,-64.6528)">
        <text x="61.92px" y="104.16px" style="font-family:'ArialMT', 'Arial', sans-serif;font-size:10px;">R</text>
    </g>
    <g transform="matrix(1.33333,0,0,1.33333,-75.8026,-64.6528)">
        <text x="96.24px" y="104.16px" style="font-family:'ArialMT', 'Arial', sans-serif;font-size:10px;">CH</text>
        <text x="110.64px" y="106.8px" style="font-family:'ArialMT', 'Arial', sans-serif;font-size:8px;">3</text>
    </g>
    <g transform="matrix(1.33333,0,0,1.33333,-75.8026,-64.6528)">
        <text x="78.72px" y="74.4px" style="font-family:'ArialMT', 'Arial', sans-serif;font-size:10px;">O</text>
    </g>
    <g transform="matrix(1.33333,0,0,1.33333,-75.8026,-64.6528)">
        <text x="168px" y="116.4px" style="font-family:'ArialMT', 'Arial', sans-serif;font-size:10px;">R</text>
    </g>
    <g transform="matrix(1.33333,0,0,1.33333,-75.8026,-64.6528)">
        <text x="202.32px" y="116.4px" style="font-family:'ArialMT', 'Arial', sans-serif;font-size:10px;">CH</text>
        <text x="216.72px" y="119.04px" style="font-family:'ArialMT', 'Arial', sans-serif;font-size:8px;">2</text>
    </g>
    <g transform="matrix(1.33333,0,0,1.33333,-75.8026,-64.6528)">
        <text x="185.04px" y="86.64px" style="font-family:'ArialMT', 'Arial', sans-serif;font-size:10px;">N</text>
    </g>
    <g transform="matrix(1.33333,0,0,1.33333,-75.8026,-64.6528)">
        <text x="236.64px" y="92.16px" style="font-family:'ArialMT', 'Arial', sans-serif;font-size:18px;">+</text>
    </g>
    <g transform="matrix(1.33333,0,0,1.33333,-75.8026,-64.6528)">
        <text x="329.28px" y="98.64px" style="font-family:'ArialMT', 'Arial', sans-serif;font-size:10px;">O</text>
    </g>
    <g transform="matrix(1.33333,0,0,1.33333,-75.8026,-64.6528)">
        <text x="346.8px" y="88.8px" style="font-family:'ArialMT', 'Arial', sans-serif;font-size:10px;">R</text>
        <text x="354.24px" y="81.84px" style="font-family:'ArialMT', 'Arial', sans-serif;font-size:8px;">1</text>
    </g>
    <g transform="matrix(1.33333,0,0,1.33333,-75.8026,-64.6528)">
        <text x="312px" y="68.88px" style="font-family:'ArialMT', 'Arial', sans-serif;font-size:10px;">O</text>
    </g>
    <g transform="matrix(1.33333,0,0,1.33333,-75.8026,-64.6528)">
        <text x="260.88px" y="118.56px" style="font-family:'ArialMT', 'Arial', sans-serif;font-size:10px;">Br</text>
    </g>
    <g transform="matrix(1.33333,0,0,1.33333,-75.8026,-64.6528)">
        <text x="499.2px" y="99.12px" style="font-family:'ArialMT', 'Arial', sans-serif;font-size:10px;">O</text>
    </g>
    <g transform="matrix(1.33333,0,0,1.33333,-75.8026,-64.6528)">
        <text x="516.72px" y="89.28px" style="font-family:'ArialMT', 'Arial', sans-serif;font-size:10px;">R</text>
        <text x="524.16px" y="82.32px" style="font-family:'ArialMT', 'Arial', sans-serif;font-size:8px;">1</text>
    </g>
    <g transform="matrix(1.33333,0,0,1.33333,-75.8026,-64.6528)">
        <text x="481.92px" y="69.36px" style="font-family:'ArialMT', 'Arial', sans-serif;font-size:10px;">O</text>
    </g>
    <g transform="matrix(1.33333,0,0,1.33333,-75.8026,-64.6528)">
        <text x="430.32px" y="119.04px" style="font-family:'ArialMT', 'Arial', sans-serif;font-size:10px;">O<tspan x="438.24px " y="119.04px ">H</tspan></text>
    </g>
    <g transform="matrix(1.33333,0,0,1.33333,-75.8026,-64.6528)">
        <text x="458.4px" y="140.4px" style="font-family:'ArialMT', 'Arial', sans-serif;font-size:10px;">1</text>
        <text x="463.92px" y="140.4px" style="font-family:'ArialMT', 'Arial', sans-serif;font-size:10px;">,</text>
        <text x="466.8px" y="140.4px" style="font-family:'ArialMT', 'Arial', sans-serif;font-size:10px;">4</text>
        <text x="472.32px" y="140.4px" style="font-family:'ArialMT', 'Arial', sans-serif;font-size:10px;">-</text>
        <text x="475.68px" y="140.4px" style="font-family:'ArialMT', 'Arial', sans-serif;font-size:10px;">рет<tspan x="491.271px " y="140.4px ">р</tspan>он</text>
    </g>
    <g transform="matrix(-1.15457,0.6669,0.6669,1.15457,-384.476,-853.897)">
        <path d="M69.098,747.955L83.752,747.955" style="fill:none;fill-rule:nonzero;stroke:black;stroke-width:0.72px;"/>
    </g>
    <g transform="matrix(1.15481,0.666483,0.666483,-1.15481,-558.445,865.034)">
        <path d="M81.803,748.01L96.247,748.01" style="fill:none;fill-rule:nonzero;stroke:black;stroke-width:0.72px;"/>
    </g>
    <g transform="matrix(0,-1.33333,-1.33333,0,1048.76,158.547)">
        <path d="M77.1,758.97L91.8,758.97" style="fill:none;fill-rule:nonzero;stroke:black;stroke-width:0.72px;"/>
    </g>
    <g transform="matrix(0,-1.33333,-1.33333,0,1044.28,154.067)">
        <path d="M73.74,758.97L88.44,758.97" style="fill:none;fill-rule:nonzero;stroke:black;stroke-width:0.72px;"/>
    </g>
    <g transform="matrix(1.33333,0,0,1.33333,-75.8026,-958.093)">
        <path d="M121.92,756L156,756" style="fill:none;fill-rule:nonzero;stroke:black;stroke-width:0.72px;"/>
    </g>
    <g transform="matrix(1.2958,0.314133,0.314133,-1.2958,-307.581,981.771)">
        <path d="M147.739,756.933L155.889,756.933L148.644,753.201L149.591,755.406L147.739,756.933Z" style="stroke:black;stroke-width:0.72px;"/>
    </g>
    <g transform="matrix(-1.15457,0.6669,0.6669,1.15457,-112.397,-894.19)">
        <path d="M175.178,735.715L189.832,735.715" style="fill:none;fill-rule:nonzero;stroke:black;stroke-width:0.72px;"/>
    </g>
    <g transform="matrix(1.15461,0.666821,0.666821,-1.15461,-530.505,796.892)">
        <path d="M186.977,734.075L202.393,734.075" style="fill:none;fill-rule:nonzero;stroke:black;stroke-width:0.72px;"/>
    </g>
    <g transform="matrix(1.1546,0.666839,0.666839,-1.1546,-532.63,795.714)">
        <path d="M188.787,737.47L202.263,737.47" style="fill:none;fill-rule:nonzero;stroke:black;stroke-width:0.72px;"/>
    </g>
    <g transform="matrix(1.07864,0.783776,0.783776,-1.07864,-631.434,722.755)">
        <path d="M171.401,766.89L185.419,766.89" style="fill:none;fill-rule:nonzero;stroke:black;stroke-width:0.72px;"/>
    </g>
    <g transform="matrix(-1.07875,0.783629,0.783629,1.07875,-196.429,-947.531)">
        <path d="M191.811,766.735L206.359,766.735" style="fill:none;fill-rule:nonzero;stroke:black;stroke-width:0.72px;"/>
    </g>
    <g transform="matrix(-0.411782,1.26815,1.26815,0.411782,-758.754,-527.081)">
        <path d="M165.858,780.48L185.772,780.48" style="fill:none;fill-rule:nonzero;stroke:black;stroke-width:0.72px;"/>
    </g>
    <g transform="matrix(0.41219,1.26802,1.26802,-0.41219,-879.504,82.9683)">
        <path d="M191.927,780.485L211.853,780.485" style="fill:none;fill-rule:nonzero;stroke:black;stroke-width:0.72px;"/>
    </g>
    <g transform="matrix(-1.33333,0.000669344,0.000669344,1.33333,427.269,-1048.77)">
        <path d="M178.89,789.955L198.81,789.955" style="fill:none;fill-rule:nonzero;stroke:black;stroke-width:0.72px;"/>
    </g>
    <g transform="matrix(0,-1.33333,-1.33333,0,1171.64,314.067)">
        <path d="M181.5,746.73L196.2,746.73" style="fill:none;fill-rule:nonzero;stroke:black;stroke-width:0.72px;"/>
    </g>
    <g transform="matrix(-1.15468,-0.666702,-0.666702,1.15468,1147.7,-619.997)">
        <path d="M280.246,752.16L300.164,752.16" style="fill:none;fill-rule:nonzero;stroke:black;stroke-width:0.72px;"/>
    </g>
    <g transform="matrix(-1.15468,0.666702,0.666702,1.15468,187.683,-1018.46)">
        <path d="M297.496,752.16L317.414,752.16" style="fill:none;fill-rule:nonzero;stroke:black;stroke-width:0.72px;"/>
    </g>
    <g transform="matrix(-1.15457,-0.666895,-0.666895,1.15457,1228.38,-602.114)">
        <path d="M315.132,753.605L329.268,753.605" style="fill:none;fill-rule:nonzero;stroke:black;stroke-width:0.72px;"/>
    </g>
    <g transform="matrix(-1.15496,0.66621,0.66621,1.15496,274.082,-1041.6)">
        <path d="M337.567,752.185L346.433,752.185" style="fill:none;fill-rule:nonzero;stroke:black;stroke-width:0.72px;"/>
    </g>
    <g transform="matrix(-1.15468,0.666702,0.666702,1.15468,101.846,-995.457)">
        <path d="M262.996,752.16L282.914,752.16" style="fill:none;fill-rule:nonzero;stroke:black;stroke-width:0.72px;"/>
    </g>
    <g transform="matrix(0,-1.33333,-1.33333,0,1367.2,462.267)">
        <path d="M310.41,764.49L325.11,764.49" style="fill:none;fill-rule:nonzero;stroke:black;stroke-width:0.72px;"/>
    </g>
    <g transform="matrix(0,-1.33333,-1.33333,0,1362.72,457.787)">
        <path d="M307.05,764.49L321.75,764.49" style="fill:none;fill-rule:nonzero;stroke:black;stroke-width:0.72px;"/>
    </g>
    <g transform="matrix(0,1.33333,1.33333,0,-709.803,-280.973)">
        <path d="M256.98,739.83L271.68,739.83" style="fill:none;fill-rule:nonzero;stroke:black;stroke-width:0.72px;"/>
    </g>
    <g transform="matrix(-1.15468,-0.666702,-0.666702,1.15468,1570.14,-505.516)">
        <path d="M450.166,751.68L470.084,751.68" style="fill:none;fill-rule:nonzero;stroke:black;stroke-width:0.72px;"/>
    </g>
    <g transform="matrix(-1.15468,0.666702,0.666702,1.15468,610.766,-1130.55)">
        <path d="M467.416,751.68L487.334,751.68" style="fill:none;fill-rule:nonzero;stroke:black;stroke-width:0.72px;"/>
    </g>
    <g transform="matrix(-1.15457,-0.666895,-0.666895,1.15457,1650.8,-487.601)">
        <path d="M485.052,753.125L499.188,753.125" style="fill:none;fill-rule:nonzero;stroke:black;stroke-width:0.72px;"/>
    </g>
    <g transform="matrix(-1.15496,0.66621,0.66621,1.15496,697.213,-1153.6)">
        <path d="M507.487,751.705L516.353,751.705" style="fill:none;fill-rule:nonzero;stroke:black;stroke-width:0.72px;"/>
    </g>
    <g transform="matrix(-1.15468,0.666702,0.666702,1.15468,524.93,-1107.55)">
        <path d="M432.916,751.68L452.834,751.68" style="fill:none;fill-rule:nonzero;stroke:black;stroke-width:0.72px;"/>
    </g>
    <g transform="matrix(0,-1.33333,-1.33333,0,1593.12,689.467)">
        <path d="M480.33,764.01L495.03,764.01" style="fill:none;fill-rule:nonzero;stroke:black;stroke-width:0.72px;"/>
    </g>
    <g transform="matrix(0,-1.33333,-1.33333,0,1588.64,684.987)">
        <path d="M476.97,764.01L491.67,764.01" style="fill:none;fill-rule:nonzero;stroke:black;stroke-width:0.72px;"/>
    </g>
    <g transform="matrix(0,1.33333,1.33333,0,-482.603,-506.893)">
        <path d="M426.9,739.35L441.6,739.35" style="fill:none;fill-rule:nonzero;stroke:black;stroke-width:0.72px;"/>
    </g>
    <g transform="matrix(1.33333,0,0,1.33333,-75.8026,-952.973)">
        <path d="M378.48,754.08L412.56,754.08" style="fill:none;fill-rule:nonzero;stroke:black;stroke-width:0.72px;"/>
    </g>
    <g transform="matrix(1.33333,0,0,1.33333,-75.8026,-960.653)">
        <path d="M378.48,756.96L412.56,756.96" style="fill:none;fill-rule:nonzero;stroke:black;stroke-width:0.72px;"/>
    </g>
    <g transform="matrix(1.33333,0,0,1.33333,-75.8026,-956.813)">
        <path d="M408,751.92L415.92,755.52L408,759.12" style="fill:none;fill-rule:nonzero;stroke:black;stroke-width:0.72px;"/>
    </g>
</svg>
