<?xml version="1.0" encoding="UTF-8" standalone="no"?>
<!DOCTYPE svg PUBLIC "-//W3C//DTD SVG 1.1//EN" "http://www.w3.org/Graphics/SVG/1.1/DTD/svg11.dtd">
<svg width="100%" height="100%" viewBox="0 0 780 250" version="1.1" xmlns="http://www.w3.org/2000/svg" xmlns:xlink="http://www.w3.org/1999/xlink" xml:space="preserve" xmlns:serif="http://www.serif.com/" style="fill-rule:evenodd;clip-rule:evenodd;stroke-linecap:round;stroke-linejoin:round;stroke-miterlimit:10;">
    <g transform="matrix(1.33333,0,0,1.33333,-45.3946,-69.8774)">
        <text x="48.72px" y="121.2px" style="font-family:'ArialMT', 'Arial', sans-serif;font-size:10px;">C</text>
    </g>
    <g transform="matrix(1.33333,0,0,1.33333,-45.3946,-69.8774)">
        <text x="37.2px" y="121.2px" style="font-family:'ArialMT', 'Arial', sans-serif;font-size:10px;">H</text>
        <text x="44.4px" y="123.84px" style="font-family:'ArialMT', 'Arial', sans-serif;font-size:8px;">3</text>
    </g>
    <g transform="matrix(1.33333,0,0,1.33333,-45.3946,-69.8774)">
        <text x="100.32px" y="131.04px" style="font-family:'ArialMT', 'Arial', sans-serif;font-size:10px;">CH</text>
        <text x="114.72px" y="133.68px" style="font-family:'ArialMT', 'Arial', sans-serif;font-size:8px;">3</text>
    </g>
    <g transform="matrix(1.33333,0,0,1.33333,-45.3946,-69.8774)">
        <text x="82.8px" y="101.28px" style="font-family:'ArialMT', 'Arial', sans-serif;font-size:10px;">O</text>
    </g>
    <g transform="matrix(1.33333,0,0,1.33333,-45.3946,-69.8774)">
        <text x="130.56px" y="120.24px" style="font-family:'ArialMT', 'Arial', sans-serif;font-size:18px;">+</text>
    </g>
    <g transform="matrix(1.33333,0,0,1.33333,-45.3946,-69.8774)">
        <text x="183.84px" y="126.96px" style="font-family:'ArialMT', 'Arial', sans-serif;font-size:10px;">O</text>
    </g>
    <g transform="matrix(1.33333,0,0,1.33333,-45.3946,-69.8774)">
        <text x="149.52px" y="146.88px" style="font-family:'ArialMT', 'Arial', sans-serif;font-size:10px;">O</text>
    </g>
    <g transform="matrix(1.33333,0,0,1.33333,-45.3946,-69.8774)">
        <text x="166.56px" y="97.2px" style="font-family:'ArialMT', 'Arial', sans-serif;font-size:10px;">O</text>
    </g>
    <g transform="matrix(1.33333,0,0,1.33333,-45.3946,-69.8774)">
        <text x="201.36px" y="116.88px" style="font-family:'ArialMT', 'Arial', sans-serif;font-size:10px;">H</text>
    </g>
    <g transform="matrix(1.33333,0,0,1.33333,-45.3946,-69.8774)">
        <text x="231.84px" y="105.84px" style="font-family:'ArialMT', 'Arial', sans-serif;font-size:10px;">H</text>
        <text x="239.04px" y="108.48px" style="font-family:'ArialMT', 'Arial', sans-serif;font-size:6px;">3</text>
        <text x="242.64px" y="105.84px" style="font-family:'ArialMT', 'Arial', sans-serif;font-size:10px;">P</text>
        <text x="249.36px" y="105.84px" style="font-family:'ArialMT', 'Arial', sans-serif;font-size:10px;">O</text>
        <text x="257.28px" y="108.48px" style="font-family:'ArialMT', 'Arial', sans-serif;font-size:6px;">4</text>
        <text x="232.8px" y="128.4px" style="font-family:'ArialMT', 'Arial', sans-serif;font-size:10px;">80</text>
        <text x="246.675px" y="123.36px" style="font-family:'ArialMT', 'Arial', sans-serif;font-size:6px;">o</text>
        <text x="250.275px" y="128.4px" style="font-family:'ArialMT', 'Arial', sans-serif;font-size:10px;">C</text>
    </g>
    <g transform="matrix(1.33333,0,0,1.33333,-45.3946,-69.8774)">
        <text x="319.44px" y="107.28px" style="font-family:'ArialMT', 'Arial', sans-serif;font-size:10px;">C</text>
    </g>
    <g transform="matrix(1.33333,0,0,1.33333,-45.3946,-69.8774)">
        <text x="307.92px" y="107.28px" style="font-family:'ArialMT', 'Arial', sans-serif;font-size:10px;">H</text>
        <text x="315.12px" y="109.92px" style="font-family:'ArialMT', 'Arial', sans-serif;font-size:8px;">3</text>
    </g>
    <g transform="matrix(1.33333,0,0,1.33333,-45.3946,-69.8774)">
        <text x="302.16px" y="137.04px" style="font-family:'ArialMT', 'Arial', sans-serif;font-size:10px;">O</text>
    </g>
    <g transform="matrix(1.33333,0,0,1.33333,-45.3946,-69.8774)">
        <text x="371.28px" y="117.12px" style="font-family:'ArialMT', 'Arial', sans-serif;font-size:10px;">CH</text>
        <text x="385.68px" y="119.76px" style="font-family:'ArialMT', 'Arial', sans-serif;font-size:8px;">3</text>
    </g>
    <g transform="matrix(1.33333,0,0,1.33333,-45.3946,-69.8774)">
        <text x="353.76px" y="87.12px" style="font-family:'ArialMT', 'Arial', sans-serif;font-size:10px;">O</text>
    </g>
    <g transform="matrix(1.33333,0,0,1.33333,-45.3946,-69.8774)">
        <text x="319.2px" y="167.04px" style="font-family:'ArialMT', 'Arial', sans-serif;font-size:10px;">O</text>
    </g>
    <g transform="matrix(1.33333,0,0,1.33333,-45.3946,-69.8774)">
        <text x="285.12px" y="146.88px" style="font-family:'ArialMT', 'Arial', sans-serif;font-size:10px;">H</text>
    </g>
    <g transform="matrix(1.33333,0,0,1.33333,-45.3946,-69.8774)">
        <text x="437.04px" y="130.08px" style="font-family:'ArialMT', 'Arial', sans-serif;font-size:10px;">S</text>
        <text x="443.76px" y="130.08px" style="font-family:'ArialMT', 'Arial', sans-serif;font-size:10px;">nC</text>
        <text x="456.48px" y="130.08px" style="font-family:'ArialMT', 'Arial', sans-serif;font-size:10px;">l</text>
        <text x="458.88px" y="132.72px" style="font-family:'ArialMT', 'Arial', sans-serif;font-size:6px;">4</text>
    </g>
    <g transform="matrix(1.33333,0,0,1.33333,-45.3946,-69.8774)">
        <text x="447.36px" y="65.52px" style="font-family:'ArialMT', 'Arial', sans-serif;font-size:10px;">CH</text>
        <text x="461.76px" y="68.16px" style="font-family:'ArialMT', 'Arial', sans-serif;font-size:8px;">2</text>
        <text x="447.12px" y="105.36px" style="font-family:'ArialMT', 'Arial', sans-serif;font-size:10px;">CH</text>
        <text x="461.52px" y="108px" style="font-family:'ArialMT', 'Arial', sans-serif;font-size:8px;">2</text>
    </g>
    <g transform="matrix(1.33333,0,0,1.33333,-45.3946,-69.8774)">
        <text x="550.8px" y="86.4px" style="font-family:'ArialMT', 'Arial', sans-serif;font-size:10px;">C</text>
    </g>
    <g transform="matrix(1.33333,0,0,1.33333,-45.3946,-69.8774)">
        <text x="539.28px" y="86.4px" style="font-family:'ArialMT', 'Arial', sans-serif;font-size:10px;">H</text>
        <text x="546.48px" y="89.04px" style="font-family:'ArialMT', 'Arial', sans-serif;font-size:8px;">3</text>
    </g>
    <g transform="matrix(1.33333,0,0,1.33333,-45.3946,-69.8774)">
        <text x="586.56px" y="106.32px" style="font-family:'ArialMT', 'Arial', sans-serif;font-size:10px;">CH</text>
        <text x="600.96px" y="108.96px" style="font-family:'ArialMT', 'Arial', sans-serif;font-size:8px;">3</text>
    </g>
    <g transform="matrix(1.33333,0,0,1.33333,-45.3946,-69.8774)">
        <text x="569.04px" y="76.32px" style="font-family:'ArialMT', 'Arial', sans-serif;font-size:10px;">O</text>
    </g>
    <g transform="matrix(1.33333,0,0,1.33333,-45.3946,-69.8774)">
        <text x="569.04px" y="156.24px" style="font-family:'ArialMT', 'Arial', sans-serif;font-size:10px;">O<tspan x="576.96px " y="156.24px ">H</tspan></text>
    </g>
    <g transform="matrix(1.33333,0,0,1.33333,-45.3946,-69.8774)">
        <text x="586.32px" y="126.24px" style="font-family:'ArialMT', 'Arial', sans-serif;font-size:10px;">O</text>
    </g>
    <g transform="matrix(1.33333,0,0,1.33333,-45.3946,-69.8774)">
        <text x="549.84px" y="231.84px" style="font-family:'ArialMT', 'Arial', sans-serif;font-size:10px;">T<tspan x="556.08px " y="231.84px ">M</tspan></text>
    </g>
    <g transform="matrix(1.33333,0,0,1.33333,-45.3946,-69.8774)">
        <text x="530.64px" y="190.56px" style="font-family:'ArialMT', 'Arial', sans-serif;font-size:10px;">C</text>
        <text x="537.839px" y="190.56px" style="font-family:'ArialMT', 'Arial', sans-serif;font-size:10px;">r</text>
        <text x="541.198px" y="190.56px" style="font-family:'ArialMT', 'Arial', sans-serif;font-size:10px;">O</text>
        <text x="549.117px" y="193.2px" style="font-family:'ArialMT', 'Arial', sans-serif;font-size:6px;">3</text>
        <text x="562.32px" y="190.8px" style="font-family:'ArialMT', 'Arial', sans-serif;font-size:10px;"><tspan x="562.32px " y="190.8px ">H</tspan></text>
        <text x="569.529px" y="185.76px" style="font-family:'ArialMT', 'Arial', sans-serif;font-size:6px;">+</text>
    </g>
    <g transform="matrix(-1.15485,-0.666401,-0.666401,1.15485,590.734,-692.812)">
        <path d="M55.897,718.45L70.583,718.45" style="fill:none;fill-rule:nonzero;stroke:black;stroke-width:0.72px;"/>
    </g>
    <g transform="matrix(-1.15468,0.666702,0.666702,1.15468,-330.635,-790.243)">
        <path d="M68.266,719.76L88.184,719.76" style="fill:none;fill-rule:nonzero;stroke:black;stroke-width:0.72px;"/>
    </g>
    <g transform="matrix(1.15481,0.666483,0.666483,-1.15481,-509.394,861.889)">
        <path d="M85.883,721.13L100.327,721.13" style="fill:none;fill-rule:nonzero;stroke:black;stroke-width:0.72px;"/>
    </g>
    <g transform="matrix(0,-1.33333,-1.33333,0,1048.77,194.603)">
        <path d="M81.18,732.09L95.88,732.09" style="fill:none;fill-rule:nonzero;stroke:black;stroke-width:0.72px;"/>
    </g>
    <g transform="matrix(0,-1.33333,-1.33333,0,1044.29,190.123)">
        <path d="M77.82,732.09L92.52,732.09" style="fill:none;fill-rule:nonzero;stroke:black;stroke-width:0.72px;"/>
    </g>
    <g transform="matrix(1.15457,0.666895,0.666895,-1.15457,-497.525,805.136)">
        <path d="M169.692,725.345L183.828,725.345" style="fill:none;fill-rule:nonzero;stroke:black;stroke-width:0.72px;"/>
    </g>
    <g transform="matrix(1.15468,-0.666702,-0.666702,-1.15468,466.176,1031.37)">
        <path d="M152.056,723.9L171.974,723.9" style="fill:none;fill-rule:nonzero;stroke:black;stroke-width:0.72px;"/>
    </g>
    <g transform="matrix(0,-1.33333,-1.33333,0,1107.85,308.483)">
        <path d="M146.01,711.54L160.77,711.54" style="fill:none;fill-rule:nonzero;stroke:black;stroke-width:0.72px;"/>
    </g>
    <g transform="matrix(0,-1.33333,-1.33333,0,1111.22,314.069)">
        <path d="M150.2,710.71L163.3,710.71" style="fill:none;fill-rule:nonzero;stroke:black;stroke-width:0.72px;"/>
    </g>
    <g transform="matrix(0,-1.33333,-1.33333,0,1165.97,300.843)">
        <path d="M165,736.2L179.64,736.2" style="fill:none;fill-rule:nonzero;stroke:black;stroke-width:0.72px;"/>
    </g>
    <g transform="matrix(0,-1.33333,-1.33333,0,1161.49,296.363)">
        <path d="M161.64,736.2L176.28,736.2" style="fill:none;fill-rule:nonzero;stroke:black;stroke-width:0.72px;"/>
    </g>
    <g transform="matrix(1.15496,-0.66621,-0.66621,-1.15496,471.952,1054.51)">
        <path d="M192.127,723.925L200.993,723.925" style="fill:none;fill-rule:nonzero;stroke:black;stroke-width:0.72px;"/>
    </g>
    <g transform="matrix(1.33333,0,0,1.33333,-45.3946,-889.717)">
        <path d="M220.8,728.4L278.4,728.4" style="fill:none;fill-rule:nonzero;stroke:black;stroke-width:0.72px;"/>
    </g>
    <g transform="matrix(1.2958,0.314133,0.314133,-1.2958,-263.909,939.133)">
        <path d="M270.139,729.333L278.289,729.333L271.044,725.601L271.991,727.806L270.139,729.333Z" style="stroke:black;stroke-width:0.72px;"/>
    </g>
    <g transform="matrix(0,-1.33333,-1.33333,0,1367.05,548.323)">
        <path d="M330.57,718.8L350.49,718.8" style="fill:none;fill-rule:nonzero;stroke:black;stroke-width:0.72px;"/>
    </g>
    <g transform="matrix(0,-1.33333,-1.33333,0,1362.57,543.843)">
        <path d="M328.87,718.8L345.47,718.8" style="fill:none;fill-rule:nonzero;stroke:black;stroke-width:0.72px;"/>
    </g>
    <g transform="matrix(1.15451,0.666992,0.666992,-1.15451,-474.225,698.879)">
        <path d="M326.599,732.495L341.531,732.495" style="fill:none;fill-rule:nonzero;stroke:black;stroke-width:0.72px;"/>
    </g>
    <g transform="matrix(1.15468,-0.666702,-0.666702,-1.15468,483.166,1148.22)">
        <path d="M321.946,703.86L341.864,703.86" style="fill:none;fill-rule:nonzero;stroke:black;stroke-width:0.72px;"/>
    </g>
    <g transform="matrix(1.15457,0.666895,0.666895,-1.15457,-457.135,715.603)">
        <path d="M310.092,702.415L324.228,702.415" style="fill:none;fill-rule:nonzero;stroke:black;stroke-width:0.72px;"/>
    </g>
    <g transform="matrix(1.15468,-0.666702,-0.666702,-1.15468,506.169,1154.38)">
        <path d="M339.196,733.74L359.114,733.74" style="fill:none;fill-rule:nonzero;stroke:black;stroke-width:0.72px;"/>
    </g>
    <g transform="matrix(1.1547,0.666669,0.666669,-1.1547,-470.431,678.668)">
        <path d="M356.81,735.1L371.29,735.1" style="fill:none;fill-rule:nonzero;stroke:black;stroke-width:0.72px;"/>
    </g>
    <g transform="matrix(0,-1.33333,-1.33333,0,1428.77,537.083)">
        <path d="M352.02,746.16L366.9,746.16" style="fill:none;fill-rule:nonzero;stroke:black;stroke-width:0.72px;"/>
    </g>
    <g transform="matrix(0,-1.33333,-1.33333,0,1424.29,532.603)">
        <path d="M348.66,746.16L363.54,746.16" style="fill:none;fill-rule:nonzero;stroke:black;stroke-width:0.72px;"/>
    </g>
    <g transform="matrix(0,1.33333,1.33333,0,-538.515,-298.037)">
        <path d="M314.16,691.44L329.04,691.44" style="fill:none;fill-rule:nonzero;stroke:black;stroke-width:0.72px;"/>
    </g>
    <g transform="matrix(0,1.33333,1.33333,0,-534.035,-302.517)">
        <path d="M317.52,691.44L332.4,691.44" style="fill:none;fill-rule:nonzero;stroke:black;stroke-width:0.72px;"/>
    </g>
    <g transform="matrix(-1.15487,0.666381,0.666381,1.15487,225.222,-896.5)">
        <path d="M292.668,703.765L301.812,703.765" style="fill:none;fill-rule:nonzero;stroke:black;stroke-width:0.72px;"/>
    </g>
    <g transform="matrix(1.33333,0,0,1.33333,-45.3946,-890.997)">
        <path d="M406.56,728.88L504.72,728.88" style="fill:none;fill-rule:nonzero;stroke:black;stroke-width:0.72px;"/>
    </g>
    <g transform="matrix(1.2958,0.314133,0.314133,-1.2958,-255.565,868.02)">
        <path d="M496.459,729.813L504.609,729.813L497.364,726.081L498.311,728.286L496.459,729.813Z" style="stroke:black;stroke-width:0.72px;"/>
    </g>
    <g transform="matrix(-0.0107092,1.33329,1.33329,0.0107092,-476.545,-547.643)">
        <path d="M423.68,760.51L443.6,760.51" style="fill:none;fill-rule:nonzero;stroke:black;stroke-width:0.72px;"/>
    </g>
    <g transform="matrix(1.15985,-0.657673,-0.657673,-1.15985,540.032,1207.81)">
        <path d="M432.772,774.065L447.348,774.065" style="fill:none;fill-rule:nonzero;stroke:black;stroke-width:0.72px;"/>
    </g>
    <g transform="matrix(1.15978,-0.657787,-0.657787,-1.15978,539.129,1210.04)">
        <path d="M435.918,771.78L449.782,771.78" style="fill:none;fill-rule:nonzero;stroke:black;stroke-width:0.72px;"/>
    </g>
    <g transform="matrix(1.14932,0.675907,0.675907,-1.14932,-469.251,617.946)">
        <path d="M432.551,746.845L447.169,746.845" style="fill:none;fill-rule:nonzero;stroke:black;stroke-width:0.72px;"/>
    </g>
    <g transform="matrix(1.1494,0.675771,0.675771,-1.1494,-470.234,615.802)">
        <path d="M435.758,749.14L449.412,749.14" style="fill:none;fill-rule:nonzero;stroke:black;stroke-width:0.72px;"/>
    </g>
    <g transform="matrix(0,-1.33333,-1.33333,0,1668.49,820.963)">
        <path d="M545.85,729.6L565.77,729.6" style="fill:none;fill-rule:nonzero;stroke:black;stroke-width:0.72px;"/>
    </g>
    <g transform="matrix(1.15468,0.666702,0.666702,-1.15468,-444.025,554.859)">
        <path d="M537.226,744.54L557.144,744.54" style="fill:none;fill-rule:nonzero;stroke:black;stroke-width:0.72px;"/>
    </g>
    <g transform="matrix(1.15468,-0.666702,-0.666702,-1.15468,528.827,1289.82)">
        <path d="M537.226,714.66L557.144,714.66" style="fill:none;fill-rule:nonzero;stroke:black;stroke-width:0.72px;"/>
    </g>
    <g transform="matrix(1.15468,-0.666702,-0.666702,-1.15468,545.667,1272.98)">
        <path d="M519.976,744.54L539.894,744.54" style="fill:none;fill-rule:nonzero;stroke:black;stroke-width:0.72px;"/>
    </g>
    <g transform="matrix(1.15468,0.666702,0.666702,-1.15468,-427.185,571.697)">
        <path d="M519.976,714.66L539.894,714.66" style="fill:none;fill-rule:nonzero;stroke:black;stroke-width:0.72px;"/>
    </g>
    <g transform="matrix(0,-1.33333,-1.33333,0,1622.49,774.963)">
        <path d="M511.35,729.6L531.27,729.6" style="fill:none;fill-rule:nonzero;stroke:black;stroke-width:0.72px;"/>
    </g>
    <g transform="matrix(0,-1.33333,-1.33333,0,1626.97,779.443)">
        <path d="M516.37,729.6L532.97,729.6" style="fill:none;fill-rule:nonzero;stroke:black;stroke-width:0.72px;"/>
    </g>
    <g transform="matrix(-0.66664,-1.15472,-1.15472,0.66664,1963.16,215.378)">
        <path d="M570.24,748.865L573.6,748.865" style="fill:none;fill-rule:nonzero;stroke:black;stroke-width:0.72px;"/>
    </g>
    <g transform="matrix(-0.665496,-1.15538,-1.15538,0.665496,1956.89,216.614)">
        <path d="M568.187,747.54L571.073,747.54" style="fill:none;fill-rule:nonzero;stroke:black;stroke-width:0.72px;"/>
    </g>
    <g transform="matrix(-0.666297,-1.15491,-1.15491,0.666297,1950.92,215.759)">
        <path d="M566.149,746.22L568.551,746.22" style="fill:none;fill-rule:nonzero;stroke:black;stroke-width:0.72px;"/>
    </g>
    <g transform="matrix(-0.661519,-1.15766,-1.15766,0.661519,1944.16,220.863)">
        <path d="M564.093,744.9L566.027,744.9" style="fill:none;fill-rule:nonzero;stroke:black;stroke-width:0.72px;"/>
    </g>
    <g transform="matrix(-0.668409,-1.15369,-1.15369,0.668409,1939,213.496)">
        <path d="M562.047,743.58L563.503,743.58" style="fill:none;fill-rule:nonzero;stroke:black;stroke-width:0.72px;"/>
    </g>
    <g transform="matrix(-0.671828,-1.15171,-1.15171,0.671828,1933.33,209.845)">
        <path d="M559.999,742.26L560.971,742.26" style="fill:none;fill-rule:nonzero;stroke:black;stroke-width:0.72px;"/>
    </g>
    <g transform="matrix(-0.658679,-1.15928,-1.15928,0.658679,1925.51,223.834)">
        <path d="M557.952,740.94L558.458,740.94" style="fill:none;fill-rule:nonzero;stroke:black;stroke-width:0.72px;"/>
    </g>
    <g transform="matrix(-0.596285,-1.19257,-1.19257,0.596285,1909.36,288.466)">
        <path d="M555.904,739.62L555.926,739.62" style="fill:none;fill-rule:nonzero;stroke:black;stroke-width:0.72px;"/>
    </g>
    <g transform="matrix(1.0944,0.761615,0.761615,-1.0944,-454.174,451.902)">
        <path d="M554.169,713.45L574.162,713.45L574.017,715.128L573.879,716.798L554.169,713.45Z" style="stroke:black;stroke-width:0.24px;"/>
    </g>
    <g transform="matrix(0.0707838,-1.33145,-1.33145,-0.0707838,1649.81,848.427)">
        <path d="M547.552,745.712L562.433,745.712L562.244,747.384L562.056,749.046L547.552,745.712Z" style="stroke:black;stroke-width:0.24px;"/>
    </g>
    <g transform="matrix(1.1547,0.666669,0.666669,-1.1547,-439.175,533.219)">
        <path d="M572.09,745.9L586.57,745.9" style="fill:none;fill-rule:nonzero;stroke:black;stroke-width:0.72px;"/>
    </g>
    <g transform="matrix(0,-1.33333,-1.33333,0,1730.21,809.723)">
        <path d="M567.3,756.96L582.18,756.96" style="fill:none;fill-rule:nonzero;stroke:black;stroke-width:0.72px;"/>
    </g>
    <g transform="matrix(0,-1.33333,-1.33333,0,1725.73,805.243)">
        <path d="M563.94,756.96L578.82,756.96" style="fill:none;fill-rule:nonzero;stroke:black;stroke-width:0.72px;"/>
    </g>
    <g transform="matrix(0,1.33333,1.33333,0,-217.635,-647.717)">
        <path d="M565.62,702.24L580.5,702.24" style="fill:none;fill-rule:nonzero;stroke:black;stroke-width:0.72px;"/>
    </g>
    <g transform="matrix(1.15454,-0.666936,-0.666936,-1.15454,532.782,1312.05)">
        <path d="M573.013,711.53L586.247,711.53" style="fill:none;fill-rule:nonzero;stroke:black;stroke-width:0.72px;"/>
    </g>
    <g transform="matrix(1.15456,-0.666905,-0.666905,-1.15456,534.863,1310.87)">
        <path d="M571.203,714.925L586.377,714.925" style="fill:none;fill-rule:nonzero;stroke:black;stroke-width:0.72px;"/>
    </g>
    <g transform="matrix(0,1.33333,1.33333,0,-174.195,-560.277)">
        <path d="M534.84,653.16L578.28,653.16" style="fill:none;fill-rule:nonzero;stroke:black;stroke-width:0.72px;"/>
    </g>
    <g transform="matrix(-0.314133,1.2958,1.2958,0.314133,48.1681,-715.308)">
        <path d="M552.259,636.333L560.409,636.333L553.164,632.601L554.111,634.806L552.259,636.333Z" style="stroke:black;stroke-width:0.72px;"/>
    </g>
</svg>
