<?xml version="1.0" encoding="UTF-8" standalone="no"?>
<!DOCTYPE svg PUBLIC "-//W3C//DTD SVG 1.1//EN" "http://www.w3.org/Graphics/SVG/1.1/DTD/svg11.dtd">
<svg width="100%" height="100%" viewBox="0 0 670 460" version="1.1" xmlns="http://www.w3.org/2000/svg" xmlns:xlink="http://www.w3.org/1999/xlink" xml:space="preserve" xmlns:serif="http://www.serif.com/" style="fill-rule:evenodd;clip-rule:evenodd;stroke-linecap:round;stroke-linejoin:round;stroke-miterlimit:10;">
    <g transform="matrix(1.33333,0,0,1.33333,-61.6615,-49.9739)">
        <text x="69.36px" y="65.28px" style="font-family:'ArialMT', 'Arial', sans-serif;font-size:10px;">O</text>
    </g>
    <g transform="matrix(1.33333,0,0,1.33333,-61.6615,-49.9739)">
        <text x="52.56px" y="95.04px" style="font-family:'ArialMT', 'Arial', sans-serif;font-size:10px;">R</text>
    </g>
    <g transform="matrix(1.33333,0,0,1.33333,-61.6615,-49.9739)">
        <text x="155.76px" y="114.96px" style="font-family:'ArialMT', 'Arial', sans-serif;font-size:10px;">O</text>
    </g>
    <g transform="matrix(1.33333,0,0,1.33333,-61.6615,-49.9739)">
        <text x="173.28px" y="85.2px" style="font-family:'ArialMT', 'Arial', sans-serif;font-size:10px;">R</text>
        <text x="180.72px" y="78.24px" style="font-family:'ArialMT', 'Arial', sans-serif;font-size:8px;">1</text>
    </g>
    <g transform="matrix(1.33333,0,0,1.33333,-61.6615,-49.9739)">
        <text x="252px" y="73.44px" style="font-family:'ArialMT', 'Arial', sans-serif;font-size:10px;">R</text>
        <text x="252px" y="113.04px" style="font-family:'ArialMT', 'Arial', sans-serif;font-size:10px;">R</text>
        <text x="259.44px" y="106.08px" style="font-family:'ArialMT', 'Arial', sans-serif;font-size:8px;">1</text>
    </g>
    <g transform="matrix(1.33333,0,0,1.33333,-61.6615,-49.9739)">
        <text x="376.32px" y="113.04px" style="font-family:'ArialMT', 'Arial', sans-serif;font-size:10px;">R</text>
        <text x="383.76px" y="106.08px" style="font-family:'ArialMT', 'Arial', sans-serif;font-size:8px;">1</text>
    </g>
    <g transform="matrix(1.33333,0,0,1.33333,-61.6615,-49.9739)">
        <text x="393.36px" y="63.36px" style="font-family:'ArialMT', 'Arial', sans-serif;font-size:10px;">O<tspan x="401.28px " y="63.36px ">H</tspan></text>
        <text x="376.32px" y="75.6px" style="font-family:'ArialMT', 'Arial', sans-serif;font-size:10px;">R</text>
    </g>
    <g transform="matrix(0.0209328,-1.33317,1.33317,0.0209328,-61.6615,-49.9739)">
        <text x="-49.572px" y="398.987px" style="font-family:'ArialMT', 'Arial', sans-serif;font-size:10px;">:</text>
    </g>
    <g transform="matrix(1.33333,0,0,1.33333,-61.6615,-49.9739)">
        <text x="390.24px" y="62.16px" style="font-family:'ArialMT', 'Arial', sans-serif;font-size:10px;">:</text>
    </g>
    <g transform="matrix(1.33333,0,0,1.33333,-61.6615,-49.9739)">
        <text x="407.52px" y="213.6px" style="font-family:'ArialMT', 'Arial', sans-serif;font-size:18px;">+</text>
    </g>
    <g transform="matrix(1.33333,0,0,1.33333,-61.6615,-49.9739)">
        <text x="386.64px" y="211.2px" style="font-family:'ArialMT', 'Arial', sans-serif;font-size:10px;">R</text>
    </g>
    <g transform="matrix(1.33333,0,0,1.33333,-61.6615,-49.9739)">
        <text x="395.28px" y="204.24px" style="font-family:'ArialMT', 'Arial', sans-serif;font-size:10px;">-</text>
        <text x="382.32px" y="210.24px" style="font-family:'ArialMT', 'Arial', sans-serif;font-size:10px;">:</text>
    </g>
    <g transform="matrix(1.33333,0,0,1.33333,-61.6615,-49.9739)">
        <text x="466.08px" y="180.24px" style="font-family:'ArialMT', 'Arial', sans-serif;font-size:10px;">O</text>
        <text x="474px" y="173.28px" style="font-family:'ArialMT', 'Arial', sans-serif;font-size:8px;">+</text>
    </g>
    <g transform="matrix(1.33333,0,0,1.33333,-61.6615,-49.9739)">
        <text x="483.6px" y="170.4px" style="font-family:'ArialMT', 'Arial', sans-serif;font-size:10px;">H</text>
    </g>
    <g transform="matrix(1.33333,0,0,1.33333,-61.6615,-49.9739)">
        <text x="432px" y="200.4px" style="font-family:'ArialMT', 'Arial', sans-serif;font-size:10px;">R</text>
        <text x="439.44px" y="193.44px" style="font-family:'ArialMT', 'Arial', sans-serif;font-size:8px;">1</text>
    </g>
    <g transform="matrix(1.33333,0,0,1.33333,-61.6615,-49.9739)">
        <text x="465.36px" y="320.4px" style="font-family:'ArialMT', 'Arial', sans-serif;font-size:10px;">O</text>
    </g>
    <g transform="matrix(1.33333,0,0,1.33333,-61.6615,-49.9739)">
        <text x="431.28px" y="340.56px" style="font-family:'ArialMT', 'Arial', sans-serif;font-size:10px;">R</text>
        <text x="438.72px" y="333.6px" style="font-family:'ArialMT', 'Arial', sans-serif;font-size:8px;">1</text>
    </g>
    <g transform="matrix(1.33333,0,0,1.33333,-61.6615,-49.9739)">
        <text x="502.08px" y="363.6px" style="font-family:'ArialMT', 'Arial', sans-serif;font-size:18px;">+</text>
        <text x="520.053px" y="360.24px" style="font-family:'ArialMT', 'Arial', sans-serif;font-size:10px;">H</text>
        <text x="527.267px" y="353.28px" style="font-family:'ArialMT', 'Arial', sans-serif;font-size:8px;">+</text>
    </g>
    <g transform="matrix(1.33333,0,0,1.33333,-61.6615,-49.9739)">
        <text x="341.52px" y="321.6px" style="font-family:'ArialMT', 'Arial', sans-serif;font-size:10px;">O</text>
        <text x="349.44px" y="314.64px" style="font-family:'ArialMT', 'Arial', sans-serif;font-size:8px;">–</text>
    </g>
    <g transform="matrix(1.33333,0,0,1.33333,-61.6615,-49.9739)">
        <text x="302.64px" y="363.12px" style="font-family:'ArialMT', 'Arial', sans-serif;font-size:18px;">+</text>
    </g>
    <g transform="matrix(1.33333,0,0,1.33333,-61.6615,-49.9739)">
        <text x="277.92px" y="361.68px" style="font-family:'ArialMT', 'Arial', sans-serif;font-size:10px;">R</text>
        <text x="285.36px" y="354.72px" style="font-family:'ArialMT', 'Arial', sans-serif;font-size:8px;">1</text>
    </g>
    <g transform="matrix(1.33333,0,0,1.33333,-61.6615,-49.9739)">
        <text x="290.16px" y="355.2px" style="font-family:'ArialMT', 'Arial', sans-serif;font-size:10px;">+</text>
    </g>
    <g transform="matrix(0.0186667,-1.3332,1.3332,0.0186667,-61.6615,-49.9739)">
        <text x="-308.944px" y="349.72px" style="font-family:'ArialMT', 'Arial', sans-serif;font-size:10px;">:</text>
    </g>
    <g transform="matrix(1.33333,0,0,1.33333,-61.6615,-49.9739)">
        <text x="337.2px" y="320.4px" style="font-family:'ArialMT', 'Arial', sans-serif;font-size:10px;">:</text>
        <text x="350.16px" y="320.88px" style="font-family:'ArialMT', 'Arial', sans-serif;font-size:10px;">:</text>
    </g>
    <g transform="matrix(-1.15468,-0.666702,-0.666702,1.15468,646.399,-753.198)">
        <path d="M72.096,755.82L92.014,755.82" style="fill:none;fill-rule:nonzero;stroke:black;stroke-width:0.72px;"/>
    </g>
    <g transform="matrix(-1.15468,0.666702,0.666702,1.15468,-318.496,-874.111)">
        <path d="M89.346,755.82L109.264,755.82" style="fill:none;fill-rule:nonzero;stroke:black;stroke-width:0.72px;"/>
    </g>
    <g transform="matrix(-1.15468,-0.666702,-0.666702,1.15468,732.236,-730.197)">
        <path d="M106.596,755.82L126.514,755.82" style="fill:none;fill-rule:nonzero;stroke:black;stroke-width:0.72px;"/>
    </g>
    <g transform="matrix(-1.15485,0.666412,0.666412,1.15485,-232.406,-897.203)">
        <path d="M123.846,755.82L143.774,755.82" style="fill:none;fill-rule:nonzero;stroke:black;stroke-width:0.72px;"/>
    </g>
    <g transform="matrix(0,-1.33333,-1.33333,0,1062.65,148.573)">
        <path d="M67.79,768.12L82.43,768.12" style="fill:none;fill-rule:nonzero;stroke:black;stroke-width:0.72px;"/>
    </g>
    <g transform="matrix(0,-1.33333,-1.33333,0,1058.17,144.093)">
        <path d="M64.43,768.12L79.07,768.12" style="fill:none;fill-rule:nonzero;stroke:black;stroke-width:0.72px;"/>
    </g>
    <g transform="matrix(-1.15463,0.666795,0.666795,1.15463,-399.632,-855.848)">
        <path d="M59.736,757.13L74.414,757.13" style="fill:none;fill-rule:nonzero;stroke:black;stroke-width:0.72px;"/>
    </g>
    <g transform="matrix(1.15468,0.666702,0.666702,-1.15468,-538.58,836.841)">
        <path d="M141.106,755.82L161.024,755.82" style="fill:none;fill-rule:nonzero;stroke:black;stroke-width:0.72px;"/>
    </g>
    <g transform="matrix(0,1.33333,1.33333,0,-842.262,-129.374)">
        <path d="M150.63,743.46L165.39,743.46" style="fill:none;fill-rule:nonzero;stroke:black;stroke-width:0.72px;"/>
    </g>
    <g transform="matrix(0,1.33333,1.33333,0,-837.782,-133.854)">
        <path d="M153.99,743.46L168.75,743.46" style="fill:none;fill-rule:nonzero;stroke:black;stroke-width:0.72px;"/>
    </g>
    <g transform="matrix(1.15478,-0.666534,-0.666534,-1.15478,470.87,1048.52)">
        <path d="M158.714,754.485L173.296,754.485" style="fill:none;fill-rule:nonzero;stroke:black;stroke-width:0.72px;"/>
    </g>
    <g transform="matrix(1.33333,0,0,1.33333,-61.6615,-941.494)">
        <path d="M198.72,755.28L232.8,755.28" style="fill:none;fill-rule:nonzero;stroke:black;stroke-width:0.72px;"/>
    </g>
    <g transform="matrix(1.33333,0,0,1.33333,-61.6615,-949.174)">
        <path d="M198.72,758.16L232.8,758.16" style="fill:none;fill-rule:nonzero;stroke:black;stroke-width:0.72px;"/>
    </g>
    <g transform="matrix(1.33333,0,0,1.33333,-61.6615,-945.334)">
        <path d="M228.24,753.12L236.16,756.72L228.24,760.32" style="fill:none;fill-rule:nonzero;stroke:black;stroke-width:0.72px;"/>
    </g>
    <g transform="matrix(0,-1.33333,-1.33333,0,1351.74,478.946)">
        <path d="M297.45,752.64L317.37,752.64" style="fill:none;fill-rule:nonzero;stroke:black;stroke-width:0.72px;"/>
    </g>
    <g transform="matrix(1.15468,0.666702,0.666702,-1.15468,-520.03,736.255)">
        <path d="M288.826,767.58L308.744,767.58" style="fill:none;fill-rule:nonzero;stroke:black;stroke-width:0.72px;"/>
    </g>
    <g transform="matrix(1.15468,-0.666702,-0.666702,-1.15468,483.544,1139.99)">
        <path d="M288.826,737.7L308.744,737.7" style="fill:none;fill-rule:nonzero;stroke:black;stroke-width:0.72px;"/>
    </g>
    <g transform="matrix(1.15468,-0.666702,-0.666702,-1.15468,500.383,1123.16)">
        <path d="M271.576,767.58L291.494,767.58" style="fill:none;fill-rule:nonzero;stroke:black;stroke-width:0.72px;"/>
    </g>
    <g transform="matrix(1.15468,0.666702,0.666702,-1.15468,-503.191,753.094)">
        <path d="M271.576,737.7L291.494,737.7" style="fill:none;fill-rule:nonzero;stroke:black;stroke-width:0.72px;"/>
    </g>
    <g transform="matrix(0,-1.33333,-1.33333,0,1305.74,432.946)">
        <path d="M262.95,752.64L282.87,752.64" style="fill:none;fill-rule:nonzero;stroke:black;stroke-width:0.72px;"/>
    </g>
    <g transform="matrix(0,-1.33333,-1.33333,0,1310.22,437.426)">
        <path d="M267.97,752.64L284.57,752.64" style="fill:none;fill-rule:nonzero;stroke:black;stroke-width:0.72px;"/>
    </g>
    <g transform="matrix(-1.15475,-0.666584,-0.666584,1.15475,1112.29,-656.313)">
        <path d="M259.174,766.28L273.896,766.28" style="fill:none;fill-rule:nonzero;stroke:black;stroke-width:0.72px;"/>
    </g>
    <g transform="matrix(-1.15461,0.666825,0.666825,1.15461,113.474,-948.527)">
        <path d="M264.086,740.315L273.544,740.315" style="fill:none;fill-rule:nonzero;stroke:black;stroke-width:0.72px;"/>
    </g>
    <g transform="matrix(1.33333,0,0,1.33333,-61.6615,-939.574)">
        <path d="M322.56,754.56L356.64,754.56" style="fill:none;fill-rule:nonzero;stroke:black;stroke-width:0.72px;"/>
    </g>
    <g transform="matrix(1.33333,0,0,1.33333,-61.6615,-947.254)">
        <path d="M322.56,757.44L356.64,757.44" style="fill:none;fill-rule:nonzero;stroke:black;stroke-width:0.72px;"/>
    </g>
    <g transform="matrix(1.33333,0,0,1.33333,-61.6615,-943.414)">
        <path d="M352.08,752.4L360,756L352.08,759.6" style="fill:none;fill-rule:nonzero;stroke:black;stroke-width:0.72px;"/>
    </g>
    <g transform="matrix(0,-1.33333,-1.33333,0,1517.5,644.706)">
        <path d="M421.77,752.64L441.69,752.64" style="fill:none;fill-rule:nonzero;stroke:black;stroke-width:0.72px;"/>
    </g>
    <g transform="matrix(1.15468,0.666702,0.666702,-1.15468,-497.82,653.37)">
        <path d="M413.146,767.58L433.064,767.58" style="fill:none;fill-rule:nonzero;stroke:black;stroke-width:0.72px;"/>
    </g>
    <g transform="matrix(1.15468,-0.666702,-0.666702,-1.15468,505.754,1222.88)">
        <path d="M413.146,737.7L433.064,737.7" style="fill:none;fill-rule:nonzero;stroke:black;stroke-width:0.72px;"/>
    </g>
    <g transform="matrix(1.15468,-0.666702,-0.666702,-1.15468,522.593,1206.04)">
        <path d="M395.896,767.58L415.814,767.58" style="fill:none;fill-rule:nonzero;stroke:black;stroke-width:0.72px;"/>
    </g>
    <g transform="matrix(1.15468,0.666702,0.666702,-1.15468,-480.98,670.209)">
        <path d="M395.896,737.7L415.814,737.7" style="fill:none;fill-rule:nonzero;stroke:black;stroke-width:0.72px;"/>
    </g>
    <g transform="matrix(0,-1.33333,-1.33333,0,1471.5,598.706)">
        <path d="M387.27,752.64L407.19,752.64" style="fill:none;fill-rule:nonzero;stroke:black;stroke-width:0.72px;"/>
    </g>
    <g transform="matrix(-1.15461,0.666825,0.666825,1.15461,422.775,-1031.43)">
        <path d="M388.406,740.315L397.864,740.315" style="fill:none;fill-rule:nonzero;stroke:black;stroke-width:0.72px;"/>
    </g>
    <g transform="matrix(0,-1.33333,-1.33333,0,1494.62,575.586)">
        <path d="M389.85,769.98L404.61,769.98" style="fill:none;fill-rule:nonzero;stroke:black;stroke-width:0.72px;"/>
    </g>
    <g transform="matrix(-1.21794,-0.542581,-0.542581,1.21794,1350.83,-668.192)">
        <path d="M383.876,765.44L397.834,765.44" style="fill:none;fill-rule:nonzero;stroke:black;stroke-width:0.72px;"/>
    </g>
    <g transform="matrix(1.33333,0,0,1.33333,-61.6615,-1014.77)">
        <path d="M396.72,774.72L397.92,773.76L399.36,772.8L401.04,772.08L404.4,771.6L405.6,771.6L406.8,771.84L407.76,772.08L408.96,772.56L409.92,773.04L410.88,773.76L411.6,774.24L413.28,775.92L413.76,776.88L414.48,777.84L414.72,778.8L415.2,780L415.44,780.96L415.44,783.84L414.96,786.24L413.52,789.12L412.8,790.08L412.08,790.8L411.12,791.52L410.4,792.24L409.44,792.72L408.24,793.2L407.28,793.44L404.88,793.92L404.4,793.92L401.28,793.44" style="fill:none;fill-rule:nonzero;stroke:black;stroke-width:0.48px;"/>
    </g>
    <g transform="matrix(-1.27603,-0.386677,-0.386677,1.27603,1294.48,-784.37)">
        <path d="M401.093,772.559L409.369,772.559L402.047,768.584L403.098,770.909L401.093,772.559Z" style="stroke:black;stroke-width:0.48px;"/>
    </g>
    <g transform="matrix(1.33333,0,0,1.33333,-61.6615,-968.374)">
        <path d="M388.56,774L389.76,773.04L391.2,770.64L392.16,767.76L392.16,764.88L391.68,763.44L390.72,761.04L389.76,759.84L387.84,757.92L386.64,757.2L385.2,756.72" style="fill:none;fill-rule:nonzero;stroke:black;stroke-width:0.48px;"/>
    </g>
    <g transform="matrix(-0.548782,1.21516,1.21516,0.548782,-248.306,-834.75)">
        <path d="M388.36,759.018L396.524,759.018L389.263,762.85L390.35,760.444L388.36,759.018Z" style="stroke:black;stroke-width:0.48px;"/>
    </g>
    <g transform="matrix(0,1.33333,1.33333,0,-445.022,-412.214)">
        <path d="M396.24,700.56L429.84,700.56" style="fill:none;fill-rule:nonzero;stroke:black;stroke-width:0.72px;"/>
    </g>
    <g transform="matrix(0,1.33333,1.33333,0,-441.182,-416.054)">
        <path d="M399.12,700.56L432.72,700.56" style="fill:none;fill-rule:nonzero;stroke:black;stroke-width:0.72px;"/>
    </g>
    <g transform="matrix(1.33333,0,0,1.33333,-61.6615,-752.374)">
        <path d="M418.08,680.4L414.48,688.32L410.88,680.4" style="fill:none;fill-rule:nonzero;stroke:black;stroke-width:0.72px;"/>
    </g>
    <g transform="matrix(0,-1.33333,-1.33333,0,1422.46,888.226)">
        <path d="M477.45,625.68L497.37,625.68" style="fill:none;fill-rule:nonzero;stroke:black;stroke-width:0.72px;"/>
    </g>
    <g transform="matrix(1.15468,0.666702,0.666702,-1.15468,-403.228,638.93)">
        <path d="M468.826,640.62L488.744,640.62" style="fill:none;fill-rule:nonzero;stroke:black;stroke-width:0.72px;"/>
    </g>
    <g transform="matrix(1.15468,-0.666702,-0.666702,-1.15468,431.057,1282.68)">
        <path d="M468.826,610.74L488.744,610.74" style="fill:none;fill-rule:nonzero;stroke:black;stroke-width:0.72px;"/>
    </g>
    <g transform="matrix(1.15468,-0.666702,-0.666702,-1.15468,447.896,1265.84)">
        <path d="M451.576,640.62L471.494,640.62" style="fill:none;fill-rule:nonzero;stroke:black;stroke-width:0.72px;"/>
    </g>
    <g transform="matrix(1.15468,0.666702,0.666702,-1.15468,-386.388,655.769)">
        <path d="M451.576,610.74L471.494,610.74" style="fill:none;fill-rule:nonzero;stroke:black;stroke-width:0.72px;"/>
    </g>
    <g transform="matrix(0,-1.33333,-1.33333,0,1376.46,842.226)">
        <path d="M442.95,625.68L462.87,625.68" style="fill:none;fill-rule:nonzero;stroke:black;stroke-width:0.72px;"/>
    </g>
    <g transform="matrix(0,-1.33333,-1.33333,0,1435.94,828.746)">
        <path d="M462.72,653.04L477.6,653.04" style="fill:none;fill-rule:nonzero;stroke:black;stroke-width:0.72px;"/>
    </g>
    <g transform="matrix(0,-1.33333,-1.33333,0,1441.53,832.119)">
        <path d="M466.91,653.87L480.13,653.87" style="fill:none;fill-rule:nonzero;stroke:black;stroke-width:0.72px;"/>
    </g>
    <g transform="matrix(1.15491,-0.666297,-0.666297,-1.15491,471.81,1273.26)">
        <path d="M479.279,671.83L482.881,671.83" style="fill:none;fill-rule:nonzero;stroke:black;stroke-width:0.72px;"/>
    </g>
    <g transform="matrix(-1.15475,-0.666584,-0.666584,1.15475,1475.51,-220.441)">
        <path d="M439.174,639.32L453.896,639.32" style="fill:none;fill-rule:nonzero;stroke:black;stroke-width:0.72px;"/>
    </g>
    <g transform="matrix(0,1.33333,1.33333,0,-198.942,-317.174)">
        <path d="M451.44,572.64L487.92,572.64" style="fill:none;fill-rule:nonzero;stroke:black;stroke-width:0.72px;"/>
    </g>
    <g transform="matrix(0,1.33333,1.33333,0,-195.102,-321.014)">
        <path d="M454.32,572.64L490.8,572.64" style="fill:none;fill-rule:nonzero;stroke:black;stroke-width:0.72px;"/>
    </g>
    <g transform="matrix(1.33333,0,0,1.33333,-61.6615,-407.414)">
        <path d="M474.72,551.04L471.12,558.96L467.52,551.04" style="fill:none;fill-rule:nonzero;stroke:black;stroke-width:0.72px;"/>
    </g>
    <g transform="matrix(0,-1.33333,-1.33333,0,1234.62,1074.15)">
        <path d="M476.73,485.52L496.65,485.52" style="fill:none;fill-rule:nonzero;stroke:black;stroke-width:0.72px;"/>
    </g>
    <g transform="matrix(1.15468,0.666702,0.666702,-1.15468,-309.911,664.45)">
        <path d="M468.106,500.46L488.024,500.46" style="fill:none;fill-rule:nonzero;stroke:black;stroke-width:0.72px;"/>
    </g>
    <g transform="matrix(1.15468,-0.666702,-0.666702,-1.15468,337.483,1307.24)">
        <path d="M468.106,470.58L488.024,470.58" style="fill:none;fill-rule:nonzero;stroke:black;stroke-width:0.72px;"/>
    </g>
    <g transform="matrix(1.15468,-0.666702,-0.666702,-1.15468,354.322,1290.4)">
        <path d="M450.856,500.46L470.774,500.46" style="fill:none;fill-rule:nonzero;stroke:black;stroke-width:0.72px;"/>
    </g>
    <g transform="matrix(1.15468,0.666702,0.666702,-1.15468,-293.072,681.289)">
        <path d="M450.856,470.58L470.774,470.58" style="fill:none;fill-rule:nonzero;stroke:black;stroke-width:0.72px;"/>
    </g>
    <g transform="matrix(0,-1.33333,-1.33333,0,1188.62,1028.15)">
        <path d="M442.23,485.52L462.15,485.52" style="fill:none;fill-rule:nonzero;stroke:black;stroke-width:0.72px;"/>
    </g>
    <g transform="matrix(0,-1.33333,-1.33333,0,1250.34,1016.91)">
        <path d="M463.68,512.88L478.56,512.88" style="fill:none;fill-rule:nonzero;stroke:black;stroke-width:0.72px;"/>
    </g>
    <g transform="matrix(0,-1.33333,-1.33333,0,1245.86,1012.43)">
        <path d="M460.32,512.88L475.2,512.88" style="fill:none;fill-rule:nonzero;stroke:black;stroke-width:0.72px;"/>
    </g>
    <g transform="matrix(-1.15475,-0.666584,-0.666584,1.15475,1380.29,127.809)">
        <path d="M438.454,499.16L453.176,499.16" style="fill:none;fill-rule:nonzero;stroke:black;stroke-width:0.72px;"/>
    </g>
    <g transform="matrix(1.33333,0,0,1.33333,-61.6615,-220.214)">
        <path d="M388.56,484.8L422.64,484.8" style="fill:none;fill-rule:nonzero;stroke:black;stroke-width:0.72px;"/>
    </g>
    <g transform="matrix(1.33333,0,0,1.33333,-61.6615,-227.894)">
        <path d="M388.56,487.68L422.64,487.68" style="fill:none;fill-rule:nonzero;stroke:black;stroke-width:0.72px;"/>
    </g>
    <g transform="matrix(1.33333,0,0,1.33333,-61.6615,-224.054)">
        <path d="M393.12,482.64L385.2,486.24L393.12,489.84" style="fill:none;fill-rule:nonzero;stroke:black;stroke-width:0.72px;"/>
    </g>
    <g transform="matrix(0,-1.33333,-1.33333,0,1067.9,910.626)">
        <path d="M352.89,484.32L372.81,484.32" style="fill:none;fill-rule:nonzero;stroke:black;stroke-width:0.72px;"/>
    </g>
    <g transform="matrix(1.15468,0.666702,0.666702,-1.15468,-331.236,747.229)">
        <path d="M344.266,499.26L364.184,499.26" style="fill:none;fill-rule:nonzero;stroke:black;stroke-width:0.72px;"/>
    </g>
    <g transform="matrix(1.15468,-0.666702,-0.666702,-1.15468,314.559,1224.89)">
        <path d="M344.266,469.38L364.184,469.38" style="fill:none;fill-rule:nonzero;stroke:black;stroke-width:0.72px;"/>
    </g>
    <g transform="matrix(1.15468,-0.666702,-0.666702,-1.15468,331.398,1208.05)">
        <path d="M327.016,499.26L346.934,499.26" style="fill:none;fill-rule:nonzero;stroke:black;stroke-width:0.72px;"/>
    </g>
    <g transform="matrix(1.15458,-0.666876,-0.666876,-1.15458,329.878,1209.7)">
        <path d="M330.358,496.35L346.952,496.35" style="fill:none;fill-rule:nonzero;stroke:black;stroke-width:0.72px;"/>
    </g>
    <g transform="matrix(1.15468,0.666702,0.666702,-1.15468,-314.397,764.068)">
        <path d="M327.016,469.38L346.934,469.38" style="fill:none;fill-rule:nonzero;stroke:black;stroke-width:0.72px;"/>
    </g>
    <g transform="matrix(0,-1.33333,-1.33333,0,1021.9,864.626)">
        <path d="M318.39,484.32L338.31,484.32" style="fill:none;fill-rule:nonzero;stroke:black;stroke-width:0.72px;"/>
    </g>
    <g transform="matrix(0,-1.33333,-1.33333,0,1081.38,851.146)">
        <path d="M338.16,511.68L353.04,511.68" style="fill:none;fill-rule:nonzero;stroke:black;stroke-width:0.72px;"/>
    </g>
</svg>
