<?xml version="1.0" encoding="UTF-8" standalone="no"?>
<!DOCTYPE svg PUBLIC "-//W3C//DTD SVG 1.1//EN" "http://www.w3.org/Graphics/SVG/1.1/DTD/svg11.dtd">
<svg width="100%" height="100%" viewBox="0 0 710 390" version="1.1" xmlns="http://www.w3.org/2000/svg" xmlns:xlink="http://www.w3.org/1999/xlink" xml:space="preserve" xmlns:serif="http://www.serif.com/" style="fill-rule:evenodd;clip-rule:evenodd;stroke-linecap:round;stroke-linejoin:round;stroke-miterlimit:10;">
    <g transform="matrix(1.33333,0,0,1.33333,-51.2922,-49.9574)">
        <text x="52.56px" y="84.24px" style="font-family:'ArialMT', 'Arial', sans-serif;font-size:10px;">C</text>
    </g>
    <g transform="matrix(1.33333,0,0,1.33333,-51.2922,-49.9574)">
        <text x="41.04px" y="84.24px" style="font-family:'ArialMT', 'Arial', sans-serif;font-size:10px;">H</text>
        <text x="48.24px" y="86.88px" style="font-family:'ArialMT', 'Arial', sans-serif;font-size:8px;">3</text>
    </g>
    <g transform="matrix(1.33333,0,0,1.33333,-51.2922,-49.9574)">
        <text x="69.6px" y="114px" style="font-family:'ArialMT', 'Arial', sans-serif;font-size:10px;">O<tspan x="77.52px " y="114px ">H</tspan></text>
    </g>
    <g transform="matrix(1.33333,0,0,1.33333,-51.2922,-49.9574)">
        <text x="87.12px" y="64.32px" style="font-family:'ArialMT', 'Arial', sans-serif;font-size:10px;">CH</text>
        <text x="101.52px" y="66.96px" style="font-family:'ArialMT', 'Arial', sans-serif;font-size:8px;">3</text>
    </g>
    <g transform="matrix(1.33333,0,0,1.33333,-51.2922,-49.9574)">
        <text x="173.04px" y="94.08px" style="font-family:'ArialMT', 'Arial', sans-serif;font-size:10px;">O</text>
    </g>
    <g transform="matrix(1.33333,0,0,1.33333,-51.2922,-49.9574)">
        <text x="155.76px" y="64.32px" style="font-family:'ArialMT', 'Arial', sans-serif;font-size:10px;">O</text>
    </g>
    <g transform="matrix(1.33333,0,0,1.33333,-51.2922,-49.9574)">
        <text x="190.56px" y="84.24px" style="font-family:'ArialMT', 'Arial', sans-serif;font-size:10px;">R</text>
        <text x="198px" y="77.28px" style="font-family:'ArialMT', 'Arial', sans-serif;font-size:8px;">1</text>
    </g>
    <g transform="matrix(1.33333,0,0,1.33333,-51.2922,-49.9574)">
        <text x="304.08px" y="77.76px" style="font-family:'ArialMT', 'Arial', sans-serif;font-size:10px;">O</text>
    </g>
    <g transform="matrix(1.33333,0,0,1.33333,-51.2922,-49.9574)">
        <text x="286.32px" y="49.2px" style="font-family:'ArialMT', 'Arial', sans-serif;font-size:10px;">O</text>
    </g>
    <g transform="matrix(1.33333,0,0,1.33333,-51.2922,-49.9574)">
        <text x="328.32px" y="101.52px" style="font-family:'ArialMT', 'Arial', sans-serif;font-size:10px;">CH</text>
        <text x="342.72px" y="104.16px" style="font-family:'ArialMT', 'Arial', sans-serif;font-size:8px;">3</text>
    </g>
    <g transform="matrix(1.33333,0,0,1.33333,-51.2922,-49.9574)">
        <text x="305.04px" y="130.56px" style="font-family:'ArialMT', 'Arial', sans-serif;font-size:10px;">CH</text>
        <text x="319.44px" y="133.2px" style="font-family:'ArialMT', 'Arial', sans-serif;font-size:8px;">3</text>
    </g>
    <g transform="matrix(1.33333,0,0,1.33333,-51.2922,-49.9574)">
        <text x="426.72px" y="53.04px" style="font-family:'ArialMT', 'Arial', sans-serif;font-size:10px;">O</text>
    </g>
    <g transform="matrix(1.33333,0,0,1.33333,-51.2922,-49.9574)">
        <text x="461.52px" y="72.96px" style="font-family:'ArialMT', 'Arial', sans-serif;font-size:10px;">CH</text>
        <text x="475.92px" y="75.6px" style="font-family:'ArialMT', 'Arial', sans-serif;font-size:8px;">3</text>
        <text x="461.52px" y="113.04px" style="font-family:'ArialMT', 'Arial', sans-serif;font-size:10px;">CH</text>
        <text x="475.92px" y="115.68px" style="font-family:'ArialMT', 'Arial', sans-serif;font-size:8px;">3</text>
    </g>
    <g transform="matrix(1.33333,0,0,1.33333,-51.2922,-49.9574)">
        <text x="426.72px" y="187.68px" style="font-family:'ArialMT', 'Arial', sans-serif;font-size:10px;">O</text>
    </g>
    <g transform="matrix(1.33333,0,0,1.33333,-51.2922,-49.9574)">
        <text x="459.84px" y="230.4px" style="font-family:'ArialMT', 'Arial', sans-serif;font-size:18px;">+</text>
        <text x="480.72px" y="228px" style="font-family:'ArialMT', 'Arial', sans-serif;font-size:10px;">CH</text>
        <text x="495.141px" y="230.64px" style="font-family:'ArialMT', 'Arial', sans-serif;font-size:8px;">3</text>
    </g>
    <g transform="matrix(1.33333,0,0,1.33333,-51.2922,-49.9574)">
        <text x="495.12px" y="221.04px" style="font-family:'ArialMT', 'Arial', sans-serif;font-size:8px;">–</text>
        <text x="510.48px" y="230.88px" style="font-family:'ArialMT', 'Arial', sans-serif;font-size:18px;">+</text>
        <text x="532.08px" y="227.76px" style="font-family:'ArialMT', 'Arial', sans-serif;font-size:10px;">CH</text>
        <text x="546.501px" y="230.4px" style="font-family:'ArialMT', 'Arial', sans-serif;font-size:8px;">3</text>
    </g>
    <g transform="matrix(1.33333,0,0,1.33333,-51.2922,-49.9574)">
        <text x="546.48px" y="220.8px" style="font-family:'ArialMT', 'Arial', sans-serif;font-size:8px;">+</text>
    </g>
    <g transform="matrix(0.0233344,1.33313,-1.33313,0.0233344,-51.2922,-49.9574)">
        <text x="225.08px" y="-479.734px" style="font-family:'ArialMT', 'Arial', sans-serif;font-size:10px;">:</text>
    </g>
    <g transform="matrix(1.33333,0,0,1.33333,-51.2922,-49.9574)">
        <text x="472.08px" y="306.24px" style="font-family:'ArialMT', 'Arial', sans-serif;font-size:10px;">Cu	<tspan x="492.96px " y="306.24px ">L</tspan>i</text>
    </g>
    <g transform="matrix(1.33333,0,0,1.33333,-51.2922,-49.9574)">
        <text x="462px" y="288.96px" style="font-family:'ArialMT', 'Arial', sans-serif;font-size:10px;">C</text>
    </g>
    <g transform="matrix(1.33333,0,0,1.33333,-51.2922,-49.9574)">
        <text x="450.48px" y="288.96px" style="font-family:'ArialMT', 'Arial', sans-serif;font-size:10px;">H</text>
        <text x="457.68px" y="291.6px" style="font-family:'ArialMT', 'Arial', sans-serif;font-size:8px;">3</text>
    </g>
    <g transform="matrix(1.33333,0,0,1.33333,-51.2922,-49.9574)">
        <text x="462px" y="323.28px" style="font-family:'ArialMT', 'Arial', sans-serif;font-size:10px;">C</text>
    </g>
    <g transform="matrix(1.33333,0,0,1.33333,-51.2922,-49.9574)">
        <text x="450.48px" y="323.28px" style="font-family:'ArialMT', 'Arial', sans-serif;font-size:10px;">H</text>
        <text x="457.68px" y="325.92px" style="font-family:'ArialMT', 'Arial', sans-serif;font-size:8px;">3</text>
    </g>
    <g transform="matrix(1.33333,0,0,1.33333,-51.2922,-49.9574)">
        <text x="533.04px" y="306px" style="font-family:'ArialMT', 'Arial', sans-serif;font-size:10px;">C</text>
    </g>
    <g transform="matrix(1.33333,0,0,1.33333,-51.2922,-49.9574)">
        <text x="521.52px" y="306px" style="font-family:'ArialMT', 'Arial', sans-serif;font-size:10px;">H</text>
        <text x="528.72px" y="308.64px" style="font-family:'ArialMT', 'Arial', sans-serif;font-size:8px;">3</text>
    </g>
    <g transform="matrix(1.33333,0,0,1.33333,-51.2922,-49.9574)">
        <text x="555.12px" y="306px" style="font-family:'ArialMT', 'Arial', sans-serif;font-size:10px;">I</text>
    </g>
    <g transform="matrix(1.33333,0,0,1.33333,-51.2922,-49.9574)">
        <text x="158.64px" y="113.52px" style="font-family:'ArialMT', 'Arial', sans-serif;font-size:10px;">R</text>
        <text x="165.84px" y="108.48px" style="font-family:'ArialMT', 'Arial', sans-serif;font-size:6px;">1</text>
        <text x="169.44px" y="113.52px" style="font-family:'ArialMT', 'Arial', sans-serif;font-size:10px;">=</text>
        <text x="178.493px" y="113.52px" style="font-family:'ArialMT', 'Arial', sans-serif;font-size:10px;">о</text>
        <text x="184.013px" y="113.52px" style="font-family:'ArialMT', 'Arial', sans-serif;font-size:10px;">к</text>
        <text x="188.333px" y="113.52px" style="font-family:'ArialMT', 'Arial', sans-serif;font-size:10px;">тил</text>
    </g>
    <g transform="matrix(-1.15468,-0.666702,-0.666702,1.15468,700.536,-743.853)">
        <path d="M89.446,756.72L109.364,756.72" style="fill:none;fill-rule:nonzero;stroke:black;stroke-width:0.72px;"/>
    </g>
    <g transform="matrix(-1.15468,0.666702,0.666702,1.15468,-265.56,-887.901)">
        <path d="M106.696,756.72L126.614,756.72" style="fill:none;fill-rule:nonzero;stroke:black;stroke-width:0.72px;"/>
    </g>
    <g transform="matrix(-1.15468,-0.666702,-0.666702,1.15468,786.372,-720.852)">
        <path d="M123.946,756.72L143.864,756.72" style="fill:none;fill-rule:nonzero;stroke:black;stroke-width:0.72px;"/>
    </g>
    <g transform="matrix(-1.15468,0.666702,0.666702,1.15468,-179.723,-910.902)">
        <path d="M141.196,756.72L161.114,756.72" style="fill:none;fill-rule:nonzero;stroke:black;stroke-width:0.72px;"/>
    </g>
    <g transform="matrix(-1.15468,0.666702,0.666702,1.15468,-351.396,-864.9)">
        <path d="M72.196,756.72L92.114,756.72" style="fill:none;fill-rule:nonzero;stroke:black;stroke-width:0.72px;"/>
    </g>
    <g transform="matrix(-1.15493,-0.666271,-0.666271,1.15493,619.057,-762.395)">
        <path d="M59.731,755.435L74.519,755.435" style="fill:none;fill-rule:nonzero;stroke:black;stroke-width:0.72px;"/>
    </g>
    <g transform="matrix(0,1.33333,1.33333,0,-945.772,-17.9574)">
        <path d="M66.18,744.39L80.88,744.39" style="fill:none;fill-rule:nonzero;stroke:black;stroke-width:0.72px;"/>
    </g>
    <g transform="matrix(0,-1.33333,-1.33333,0,1095.15,168.243)">
        <path d="M83.43,769.05L98.13,769.05" style="fill:none;fill-rule:nonzero;stroke:black;stroke-width:0.72px;"/>
    </g>
    <g transform="matrix(1.15476,0.666568,0.666568,-1.15476,-527.019,826.612)">
        <path d="M158.829,758.15L173.031,758.15" style="fill:none;fill-rule:nonzero;stroke:black;stroke-width:0.72px;"/>
    </g>
    <g transform="matrix(0,-1.33333,-1.33333,0,1189.39,262.483)">
        <path d="M154.11,769.05L168.81,769.05" style="fill:none;fill-rule:nonzero;stroke:black;stroke-width:0.72px;"/>
    </g>
    <g transform="matrix(0,-1.33333,-1.33333,0,1184.91,258.003)">
        <path d="M150.75,769.05L165.45,769.05" style="fill:none;fill-rule:nonzero;stroke:black;stroke-width:0.72px;"/>
    </g>
    <g transform="matrix(1.15496,-0.66621,-0.66621,-1.15496,486.013,1061.37)">
        <path d="M181.327,756.775L190.193,756.775" style="fill:none;fill-rule:nonzero;stroke:black;stroke-width:0.72px;"/>
    </g>
    <g transform="matrix(1.33333,0,0,1.33333,-51.2922,-955.557)">
        <path d="M215.52,760.56L249.6,760.56" style="fill:none;fill-rule:nonzero;stroke:black;stroke-width:0.72px;"/>
    </g>
    <g transform="matrix(1.33333,0,0,1.33333,-51.2922,-963.237)">
        <path d="M215.52,763.44L249.6,763.44" style="fill:none;fill-rule:nonzero;stroke:black;stroke-width:0.72px;"/>
    </g>
    <g transform="matrix(1.33333,0,0,1.33333,-51.2922,-959.397)">
        <path d="M245.04,758.4L252.96,762L245.04,765.6" style="fill:none;fill-rule:nonzero;stroke:black;stroke-width:0.72px;"/>
    </g>
    <g transform="matrix(-0.297808,1.29965,1.29965,0.297808,-596.699,-515.579)">
        <path d="M260.043,758.53L279.967,758.53" style="fill:none;fill-rule:nonzero;stroke:black;stroke-width:0.72px;"/>
    </g>
    <g transform="matrix(-0.829985,-1.04351,-1.04351,0.829985,1314.68,-244.571)">
        <path d="M264.02,741.025L283.94,741.025" style="fill:none;fill-rule:nonzero;stroke:black;stroke-width:0.72px;"/>
    </g>
    <g transform="matrix(-1.20205,0.576931,0.576931,1.20205,215.975,-1048.35)">
        <path d="M271.249,772.55L291.171,772.55" style="fill:none;fill-rule:nonzero;stroke:black;stroke-width:0.72px;"/>
    </g>
    <g transform="matrix(-1.33333,-0.000669008,-0.000669008,1.33333,722.918,-882.47)">
        <path d="M280.18,733.225L300.11,733.225" style="fill:none;fill-rule:nonzero;stroke:black;stroke-width:0.72px;"/>
    </g>
    <g transform="matrix(-1.20081,-0.57951,-0.57951,1.20081,1148.86,-716.252)">
        <path d="M289.477,773.74L303.833,773.74" style="fill:none;fill-rule:nonzero;stroke:black;stroke-width:0.72px;"/>
    </g>
    <g transform="matrix(-0.832192,1.04175,1.04175,0.832192,-159.872,-851.164)">
        <path d="M296.367,741L316.283,741" style="fill:none;fill-rule:nonzero;stroke:black;stroke-width:0.72px;"/>
    </g>
    <g transform="matrix(0.295257,1.30023,1.30023,-0.295257,-711.329,-116.329)">
        <path d="M303.659,755.87L318.201,755.87" style="fill:none;fill-rule:nonzero;stroke:black;stroke-width:0.72px;"/>
    </g>
    <g transform="matrix(0.000909504,-1.33333,-1.33333,-0.000909504,1383.2,416.896)">
        <path d="M284.545,784.19L299.205,784.19" style="fill:none;fill-rule:nonzero;stroke:black;stroke-width:0.72px;"/>
    </g>
    <g transform="matrix(0.000909504,-1.33333,-1.33333,-0.000909504,1378.72,412.416)">
        <path d="M281.185,784.19L295.845,784.19" style="fill:none;fill-rule:nonzero;stroke:black;stroke-width:0.72px;"/>
    </g>
    <g transform="matrix(1.29957,0.298147,0.298147,-1.29957,-263.23,951.988)">
        <path d="M312.347,747.08L327.553,747.08" style="fill:none;fill-rule:nonzero;stroke:black;stroke-width:0.72px;"/>
    </g>
    <g transform="matrix(0.576576,1.20222,1.20222,-0.576576,-695.705,158.082)">
        <path d="M296.1,726.85L310.23,726.85" style="fill:none;fill-rule:nonzero;stroke:black;stroke-width:0.72px;"/>
    </g>
    <g transform="matrix(1.33333,0,0,1.33333,-51.2922,-955.557)">
        <path d="M357.84,760.56L391.92,760.56" style="fill:none;fill-rule:nonzero;stroke:black;stroke-width:0.72px;"/>
    </g>
    <g transform="matrix(1.33333,0,0,1.33333,-51.2922,-963.237)">
        <path d="M357.84,763.44L391.92,763.44" style="fill:none;fill-rule:nonzero;stroke:black;stroke-width:0.72px;"/>
    </g>
    <g transform="matrix(1.33333,0,0,1.33333,-51.2922,-959.397)">
        <path d="M387.36,758.4L395.28,762L387.36,765.6" style="fill:none;fill-rule:nonzero;stroke:black;stroke-width:0.72px;"/>
    </g>
    <g transform="matrix(0,-1.33333,-1.33333,0,1549.95,666.163)">
        <path d="M438.09,752.88L458.01,752.88" style="fill:none;fill-rule:nonzero;stroke:black;stroke-width:0.72px;"/>
    </g>
    <g transform="matrix(1.15468,0.666702,0.666702,-1.15468,-484.695,642.463)">
        <path d="M429.466,767.82L449.384,767.82" style="fill:none;fill-rule:nonzero;stroke:black;stroke-width:0.72px;"/>
    </g>
    <g transform="matrix(1.15468,-0.666702,-0.666702,-1.15468,519.199,1233.73)">
        <path d="M429.466,737.94L449.384,737.94" style="fill:none;fill-rule:nonzero;stroke:black;stroke-width:0.72px;"/>
    </g>
    <g transform="matrix(1.15468,-0.666702,-0.666702,-1.15468,536.038,1216.89)">
        <path d="M412.216,767.82L432.134,767.82" style="fill:none;fill-rule:nonzero;stroke:black;stroke-width:0.72px;"/>
    </g>
    <g transform="matrix(1.15468,0.666702,0.666702,-1.15468,-467.855,659.302)">
        <path d="M412.216,737.94L432.134,737.94" style="fill:none;fill-rule:nonzero;stroke:black;stroke-width:0.72px;"/>
    </g>
    <g transform="matrix(0,-1.33333,-1.33333,0,1503.95,620.163)">
        <path d="M403.59,752.88L423.51,752.88" style="fill:none;fill-rule:nonzero;stroke:black;stroke-width:0.72px;"/>
    </g>
    <g transform="matrix(0,-1.33333,-1.33333,0,1565.67,608.923)">
        <path d="M425.04,780.24L439.92,780.24" style="fill:none;fill-rule:nonzero;stroke:black;stroke-width:0.72px;"/>
    </g>
    <g transform="matrix(0,-1.33333,-1.33333,0,1561.19,604.443)">
        <path d="M421.68,780.24L436.56,780.24" style="fill:none;fill-rule:nonzero;stroke:black;stroke-width:0.72px;"/>
    </g>
    <g transform="matrix(1.15481,-0.666483,-0.666483,-1.15481,540.639,1238.56)">
        <path d="M447.083,766.45L461.527,766.45" style="fill:none;fill-rule:nonzero;stroke:black;stroke-width:0.72px;"/>
    </g>
    <g transform="matrix(1.15481,0.666483,0.666483,-1.15481,-462.924,637.829)">
        <path d="M447.083,739.31L461.527,739.31" style="fill:none;fill-rule:nonzero;stroke:black;stroke-width:0.72px;"/>
    </g>
    <g transform="matrix(1.33333,0,0,1.33333,-51.2922,-958.437)">
        <path d="M447.84,752.16L449.52,751.92L451.92,752.4L452.88,752.64L454.8,753.6L456.72,755.04L457.2,756L457.92,756.96L458.88,758.88L459.36,761.28L459.36,761.76L459.12,762.96L458.88,764.4L458.64,765.36L457.92,766.56L457.44,767.52L456.48,768.48L455.76,769.44L454.56,770.16L453.6,770.64L452.4,771.12L451.92,771.12L451.2,771.36" style="fill:none;fill-rule:nonzero;stroke:black;stroke-width:0.48px;"/>
    </g>
    <g transform="matrix(-1.31915,0.193992,0.193992,1.31915,1009.97,-1016.85)">
        <path d="M451.435,756.34L459.683,756.34L452.539,752.296L453.398,754.838L451.435,756.34Z" style="stroke:black;stroke-width:0.48px;"/>
    </g>
    <g transform="matrix(1.33333,0,0,1.33333,-51.2922,-891.557)">
        <path d="M456.72,745.92L453.84,744.48L452.64,743.52L451.68,742.08L450.96,740.88L450.24,739.2L450,737.76L450,735.6L450.24,734.64L450.72,733.44L450.96,732.48L452.4,730.56L453.84,729.12L456.72,727.68L459.12,727.2L459.6,727.2L462.48,727.68" style="fill:none;fill-rule:nonzero;stroke:black;stroke-width:0.48px;"/>
    </g>
    <g transform="matrix(1.27603,0.386677,0.386677,-1.27603,-307.654,855.697)">
        <path d="M449.109,728.472L457.385,728.472L449.972,732.245L451.128,730.087L449.109,728.472Z" style="stroke:black;stroke-width:0.48px;"/>
    </g>
    <g transform="matrix(0,1.33333,1.33333,0,-409.692,-430.757)">
        <path d="M413.28,698.16L445.44,698.16" style="fill:none;fill-rule:nonzero;stroke:black;stroke-width:0.72px;"/>
    </g>
    <g transform="matrix(0,1.33333,1.33333,0,-405.852,-434.597)">
        <path d="M416.16,698.16L448.32,698.16" style="fill:none;fill-rule:nonzero;stroke:black;stroke-width:0.72px;"/>
    </g>
    <g transform="matrix(1.33333,0,0,1.33333,-51.2922,-747.877)">
        <path d="M434.4,678.72L430.8,686.64L427.2,678.72" style="fill:none;fill-rule:nonzero;stroke:black;stroke-width:0.72px;"/>
    </g>
    <g transform="matrix(0,-1.33333,-1.33333,0,1370.43,845.683)">
        <path d="M438.09,618.24L458.01,618.24" style="fill:none;fill-rule:nonzero;stroke:black;stroke-width:0.72px;"/>
    </g>
    <g transform="matrix(0,-1.33333,-1.33333,0,1365.95,841.203)">
        <path d="M436.39,618.24L452.99,618.24" style="fill:none;fill-rule:nonzero;stroke:black;stroke-width:0.72px;"/>
    </g>
    <g transform="matrix(1.15468,0.666702,0.666702,-1.15468,-394.93,666.517)">
        <path d="M429.466,633.18L449.384,633.18" style="fill:none;fill-rule:nonzero;stroke:black;stroke-width:0.72px;"/>
    </g>
    <g transform="matrix(1.15468,-0.666702,-0.666702,-1.15468,429.434,1257.79)">
        <path d="M429.466,603.3L449.384,603.3" style="fill:none;fill-rule:nonzero;stroke:black;stroke-width:0.72px;"/>
    </g>
    <g transform="matrix(1.15468,-0.666702,-0.666702,-1.15468,446.273,1240.95)">
        <path d="M412.216,633.18L432.134,633.18" style="fill:none;fill-rule:nonzero;stroke:black;stroke-width:0.72px;"/>
    </g>
    <g transform="matrix(1.15468,0.666702,0.666702,-1.15468,-378.091,683.356)">
        <path d="M412.216,603.3L432.134,603.3" style="fill:none;fill-rule:nonzero;stroke:black;stroke-width:0.72px;"/>
    </g>
    <g transform="matrix(0,-1.33333,-1.33333,0,1324.43,799.683)">
        <path d="M403.59,618.24L423.51,618.24" style="fill:none;fill-rule:nonzero;stroke:black;stroke-width:0.72px;"/>
    </g>
    <g transform="matrix(0,-1.33333,-1.33333,0,1386.15,788.443)">
        <path d="M425.04,645.6L439.92,645.6" style="fill:none;fill-rule:nonzero;stroke:black;stroke-width:0.72px;"/>
    </g>
    <g transform="matrix(0,-1.33333,-1.33333,0,1381.67,783.963)">
        <path d="M421.68,645.6L436.56,645.6" style="fill:none;fill-rule:nonzero;stroke:black;stroke-width:0.72px;"/>
    </g>
    <g transform="matrix(0,1.33333,1.33333,0,-184.732,-358.117)">
        <path d="M469.68,586.56L503.28,586.56" style="fill:none;fill-rule:nonzero;stroke:black;stroke-width:0.72px;"/>
    </g>
    <g transform="matrix(0,1.33333,1.33333,0,-180.892,-361.957)">
        <path d="M472.56,586.56L506.16,586.56" style="fill:none;fill-rule:nonzero;stroke:black;stroke-width:0.72px;"/>
    </g>
    <g transform="matrix(1.33333,0,0,1.33333,-51.2922,-448.357)">
        <path d="M491.52,566.4L487.92,574.32L484.32,566.4" style="fill:none;fill-rule:nonzero;stroke:black;stroke-width:0.72px;"/>
    </g>
    <g transform="matrix(0,1.33333,1.33333,0,-114.332,-430.437)">
        <path d="M523.92,587.28L556.08,587.28" style="fill:none;fill-rule:nonzero;stroke:black;stroke-width:0.72px;"/>
    </g>
    <g transform="matrix(0,1.33333,1.33333,0,-110.492,-434.277)">
        <path d="M526.8,587.28L558.96,587.28" style="fill:none;fill-rule:nonzero;stroke:black;stroke-width:0.72px;"/>
    </g>
    <g transform="matrix(1.33333,0,0,1.33333,-51.2922,-452.197)">
        <path d="M545.04,567.84L541.44,575.76L537.84,567.84" style="fill:none;fill-rule:nonzero;stroke:black;stroke-width:0.72px;"/>
    </g>
    <g transform="matrix(1.33333,0,0,1.33333,-51.2922,-366.757)">
        <path d="M485.76,539.76L492,539.76" style="fill:none;fill-rule:nonzero;stroke:black;stroke-width:0.72px;"/>
    </g>
    <g transform="matrix(-0.666871,-1.15458,-1.15458,0.666871,1523.36,519.462)">
        <path d="M466.741,548.28L474.779,548.28" style="fill:none;fill-rule:nonzero;stroke:black;stroke-width:0.72px;"/>
    </g>
    <g transform="matrix(-0.666693,1.15469,1.15469,0.666693,276.824,-533.15)">
        <path d="M466.81,531.12L474.57,531.12" style="fill:none;fill-rule:nonzero;stroke:black;stroke-width:0.72px;"/>
    </g>
    <g transform="matrix(1.33333,0,0,1.33333,-51.2922,-367.397)">
        <path d="M541.2,540L554.16,540" style="fill:none;fill-rule:nonzero;stroke:black;stroke-width:0.72px;"/>
    </g>
</svg>
