<?xml version="1.0" encoding="UTF-8" standalone="no"?>
<!DOCTYPE svg PUBLIC "-//W3C//DTD SVG 1.1//EN" "http://www.w3.org/Graphics/SVG/1.1/DTD/svg11.dtd">
<svg width="100%" height="100%" viewBox="0 0 620 290" version="1.1" xmlns="http://www.w3.org/2000/svg" xmlns:xlink="http://www.w3.org/1999/xlink" xml:space="preserve" xmlns:serif="http://www.serif.com/" style="fill-rule:evenodd;clip-rule:evenodd;stroke-linecap:round;stroke-linejoin:round;stroke-miterlimit:10;">
    <g transform="matrix(1.33333,0,0,1.33333,-78.3746,-59.6374)">
        <text x="75.6px" y="96.96px" style="font-family:'ArialMT', 'Arial', sans-serif;font-size:10px;">CH</text>
        <text x="90px" y="99.6px" style="font-family:'ArialMT', 'Arial', sans-serif;font-size:8px;">2</text>
    </g>
    <g transform="matrix(1.33333,0,0,1.33333,-78.3746,-59.6374)">
        <text x="124.32px" y="125.28px" style="font-family:'ArialMT', 'Arial', sans-serif;font-size:10px;">1</text>
        <text x="129.84px" y="125.28px" style="font-family:'ArialMT', 'Arial', sans-serif;font-size:10px;">) <tspan x="136.126px " y="125.28px ">(</tspan>M</text>
        <text x="147.873px" y="125.28px" style="font-family:'ArialMT', 'Arial', sans-serif;font-size:10px;">e</text>
        <text x="153.393px" y="125.28px" style="font-family:'ArialMT', 'Arial', sans-serif;font-size:10px;">)</text>
        <text x="156.753px" y="127.92px" style="font-family:'ArialMT', 'Arial', sans-serif;font-size:6px;">2</text>
        <text x="160.353px" y="125.28px" style="font-family:'ArialMT', 'Arial', sans-serif;font-size:10px;">CuL<tspan x="178.593px " y="125.28px ">i</tspan></text>
        <text x="125.04px" y="144px" style="font-family:'ArialMT', 'Arial', sans-serif;font-size:10px;">2</text>
        <text x="130.56px" y="144px" style="font-family:'ArialMT', 'Arial', sans-serif;font-size:10px;">)</text>
        <text x="136.832px" y="144px" style="font-family:'ArialMT', 'Arial', sans-serif;font-size:10px;">CH</text>
        <text x="151.232px" y="146.64px" style="font-family:'ArialMT', 'Arial', sans-serif;font-size:6px;">3</text>
        <text x="154.832px" y="144px" style="font-family:'ArialMT', 'Arial', sans-serif;font-size:10px;">I</text>
    </g>
    <g transform="matrix(1.33333,0,0,1.33333,-78.3746,-59.6374)">
        <text x="264px" y="117.36px" style="font-family:'ArialMT', 'Arial', sans-serif;font-size:10px;">CH</text>
        <text x="278.4px" y="120px" style="font-family:'ArialMT', 'Arial', sans-serif;font-size:8px;">3</text>
        <text x="264px" y="157.44px" style="font-family:'ArialMT', 'Arial', sans-serif;font-size:10px;">CH</text>
        <text x="278.4px" y="160.08px" style="font-family:'ArialMT', 'Arial', sans-serif;font-size:8px;">3</text>
    </g>
    <g transform="matrix(1.33333,0,0,1.33333,-78.3746,-59.6374)">
        <text x="229.2px" y="97.44px" style="font-family:'ArialMT', 'Arial', sans-serif;font-size:10px;">O</text>
    </g>
    <g transform="matrix(1.33333,0,0,1.33333,-78.3746,-59.6374)">
        <text x="376.56px" y="125.52px" style="font-family:'ArialMT', 'Arial', sans-serif;font-size:10px;">Cl</text>
    </g>
    <g transform="matrix(1.33333,0,0,1.33333,-78.3746,-59.6374)">
        <text x="359.04px" y="55.68px" style="font-family:'ArialMT', 'Arial', sans-serif;font-size:10px;">O</text>
    </g>
    <g transform="matrix(1.33333,0,0,1.33333,-78.3746,-59.6374)">
        <text x="324.72px" y="55.68px" style="font-family:'ArialMT', 'Arial', sans-serif;font-size:10px;">O</text>
    </g>
    <g transform="matrix(1.33333,0,0,1.33333,-78.3746,-59.6374)">
        <text x="376.32px" y="65.52px" style="font-family:'ArialMT', 'Arial', sans-serif;font-size:10px;">O</text>
    </g>
    <g transform="matrix(1.33333,0,0,1.33333,-78.3746,-59.6374)">
        <text x="393.84px" y="55.68px" style="font-family:'ArialMT', 'Arial', sans-serif;font-size:10px;">H</text>
    </g>
    <g transform="matrix(1.33333,0,0,1.33333,-78.3746,-59.6374)">
        <text x="466.8px" y="120.72px" style="font-family:'ArialMT', 'Arial', sans-serif;font-size:10px;">O</text>
    </g>
    <g transform="matrix(1.33333,0,0,1.33333,-78.3746,-59.6374)">
        <text x="449.04px" y="92.16px" style="font-family:'ArialMT', 'Arial', sans-serif;font-size:10px;">O</text>
    </g>
    <g transform="matrix(1.33333,0,0,1.33333,-78.3746,-59.6374)">
        <text x="491.04px" y="144.48px" style="font-family:'ArialMT', 'Arial', sans-serif;font-size:10px;">CH</text>
        <text x="505.44px" y="147.12px" style="font-family:'ArialMT', 'Arial', sans-serif;font-size:8px;">3</text>
    </g>
    <g transform="matrix(1.33333,0,0,1.33333,-78.3746,-59.6374)">
        <text x="467.76px" y="173.52px" style="font-family:'ArialMT', 'Arial', sans-serif;font-size:10px;">CH</text>
        <text x="482.16px" y="176.16px" style="font-family:'ArialMT', 'Arial', sans-serif;font-size:8px;">3</text>
    </g>
    <g transform="matrix(1.33333,0,0,1.33333,-78.3746,-59.6374)">
        <text x="387.12px" y="210.72px" style="font-family:'ArialMT', 'Arial', sans-serif;font-size:10px;">CH</text>
        <text x="401.52px" y="213.36px" style="font-family:'ArialMT', 'Arial', sans-serif;font-size:6px;">3</text>
        <text x="405.12px" y="210.72px" style="font-family:'ArialMT', 'Arial', sans-serif;font-size:10px;">(</text>
        <text x="408.48px" y="210.72px" style="font-family:'ArialMT', 'Arial', sans-serif;font-size:10px;">CH</text>
        <text x="422.88px" y="213.36px" style="font-family:'ArialMT', 'Arial', sans-serif;font-size:6px;">2</text>
        <text x="426.48px" y="210.72px" style="font-family:'ArialMT', 'Arial', sans-serif;font-size:10px;">)</text>
        <text x="429.84px" y="213.36px" style="font-family:'ArialMT', 'Arial', sans-serif;font-size:6px;">7</text>
        <text x="433.44px" y="210.72px" style="font-family:'ArialMT', 'Arial', sans-serif;font-size:10px;">O</text>
        <text x="441.36px" y="210.72px" style="font-family:'ArialMT', 'Arial', sans-serif;font-size:10px;">H</text>
        <text x="460.08px" y="210.24px" style="font-family:'ArialMT', 'Arial', sans-serif;font-size:10px;">H</text>
        <text x="467.29px" y="205.2px" style="font-family:'ArialMT', 'Arial', sans-serif;font-size:6px;">+</text>
    </g>
    <g transform="matrix(1.33333,0,0,1.33333,-78.3746,-59.6374)">
        <text x="445.92px" y="256.32px" style="font-family:'ArialMT', 'Arial', sans-serif;font-size:10px;">T<tspan x="452.16px " y="256.32px ">M</tspan></text>
    </g>
    <g transform="matrix(0,-1.33333,-1.33333,0,996.145,246.243)">
        <path d="M86.73,709.2L106.65,709.2" style="fill:none;fill-rule:nonzero;stroke:black;stroke-width:0.72px;"/>
    </g>
    <g transform="matrix(0,-1.33333,-1.33333,0,991.665,241.763)">
        <path d="M85.03,709.2L101.63,709.2" style="fill:none;fill-rule:nonzero;stroke:black;stroke-width:0.72px;"/>
    </g>
    <g transform="matrix(1.15468,0.666702,0.666702,-1.15468,-545.427,874.839)">
        <path d="M78.106,724.14L98.024,724.14" style="fill:none;fill-rule:nonzero;stroke:black;stroke-width:0.72px;"/>
    </g>
    <g transform="matrix(1.15468,-0.666702,-0.666702,-1.15468,400.223,997.604)">
        <path d="M78.106,694.26L98.024,694.26" style="fill:none;fill-rule:nonzero;stroke:black;stroke-width:0.72px;"/>
    </g>
    <g transform="matrix(1.15468,-0.666702,-0.666702,-1.15468,417.062,980.765)">
        <path d="M60.856,724.14L80.774,724.14" style="fill:none;fill-rule:nonzero;stroke:black;stroke-width:0.72px;"/>
    </g>
    <g transform="matrix(1.15468,0.666702,0.666702,-1.15468,-528.588,891.678)">
        <path d="M60.856,694.26L80.774,694.26" style="fill:none;fill-rule:nonzero;stroke:black;stroke-width:0.72px;"/>
    </g>
    <g transform="matrix(0,-1.33333,-1.33333,0,950.145,200.243)">
        <path d="M52.23,709.2L72.15,709.2" style="fill:none;fill-rule:nonzero;stroke:black;stroke-width:0.72px;"/>
    </g>
    <g transform="matrix(0,-1.33333,-1.33333,0,1011.71,189.163)">
        <path d="M73.8,736.44L88.44,736.44" style="fill:none;fill-rule:nonzero;stroke:black;stroke-width:0.72px;"/>
    </g>
    <g transform="matrix(0,-1.33333,-1.33333,0,1007.23,184.683)">
        <path d="M70.44,736.44L85.08,736.44" style="fill:none;fill-rule:nonzero;stroke:black;stroke-width:0.72px;"/>
    </g>
    <g transform="matrix(1.33333,0,0,1.33333,-78.3746,-835.317)">
        <path d="M107.52,711.84L204.24,711.84" style="fill:none;fill-rule:nonzero;stroke:black;stroke-width:0.72px;"/>
    </g>
    <g transform="matrix(1.2958,0.314133,0.314133,-1.2958,-294.47,973.29)">
        <path d="M195.979,712.773L204.129,712.773L196.884,709.041L197.831,711.246L195.979,712.773Z" style="stroke:black;stroke-width:0.72px;"/>
    </g>
    <g transform="matrix(0,-1.33333,-1.33333,0,1200.31,452.323)">
        <path d="M240.57,708.48L260.49,708.48" style="fill:none;fill-rule:nonzero;stroke:black;stroke-width:0.72px;"/>
    </g>
    <g transform="matrix(1.15468,0.666702,0.666702,-1.15468,-517.463,772.403)">
        <path d="M231.946,723.42L251.864,723.42" style="fill:none;fill-rule:nonzero;stroke:black;stroke-width:0.72px;"/>
    </g>
    <g transform="matrix(1.15468,-0.666702,-0.666702,-1.15468,427.227,1100.3)">
        <path d="M231.946,693.54L251.864,693.54" style="fill:none;fill-rule:nonzero;stroke:black;stroke-width:0.72px;"/>
    </g>
    <g transform="matrix(1.15468,-0.666702,-0.666702,-1.15468,444.066,1083.46)">
        <path d="M214.696,723.42L234.614,723.42" style="fill:none;fill-rule:nonzero;stroke:black;stroke-width:0.72px;"/>
    </g>
    <g transform="matrix(1.15468,0.666702,0.666702,-1.15468,-500.624,789.241)">
        <path d="M214.696,693.54L234.614,693.54" style="fill:none;fill-rule:nonzero;stroke:black;stroke-width:0.72px;"/>
    </g>
    <g transform="matrix(0,-1.33333,-1.33333,0,1154.31,406.323)">
        <path d="M206.07,708.48L225.99,708.48" style="fill:none;fill-rule:nonzero;stroke:black;stroke-width:0.72px;"/>
    </g>
    <g transform="matrix(1.15481,-0.666483,-0.666483,-1.15481,448.703,1105.16)">
        <path d="M249.563,722.05L264.007,722.05" style="fill:none;fill-rule:nonzero;stroke:black;stroke-width:0.72px;"/>
    </g>
    <g transform="matrix(1.15481,0.666483,0.666483,-1.15481,-495.677,767.72)">
        <path d="M249.563,694.91L264.007,694.91" style="fill:none;fill-rule:nonzero;stroke:black;stroke-width:0.72px;"/>
    </g>
    <g transform="matrix(0,-1.33333,-1.33333,0,1216.03,395.083)">
        <path d="M227.52,735.84L242.4,735.84" style="fill:none;fill-rule:nonzero;stroke:black;stroke-width:0.72px;"/>
    </g>
    <g transform="matrix(0,-1.33333,-1.33333,0,1211.55,390.603)">
        <path d="M224.16,735.84L239.04,735.84" style="fill:none;fill-rule:nonzero;stroke:black;stroke-width:0.72px;"/>
    </g>
    <g transform="matrix(1.33333,0,0,1.33333,-78.3746,-835.317)">
        <path d="M294.72,711.84L414.96,711.84" style="fill:none;fill-rule:nonzero;stroke:black;stroke-width:0.72px;"/>
    </g>
    <g transform="matrix(1.2958,0.314133,0.314133,-1.2958,-286.561,907.096)">
        <path d="M406.699,712.773L414.849,712.773L407.604,709.041L408.551,711.246L406.699,712.773Z" style="stroke:black;stroke-width:0.72px;"/>
    </g>
    <g transform="matrix(0,-1.33333,-1.33333,0,1392.95,559.843)">
        <path d="M353.13,740.4L373.05,740.4" style="fill:none;fill-rule:nonzero;stroke:black;stroke-width:0.72px;"/>
    </g>
    <g transform="matrix(0,-1.33333,-1.33333,0,1388.47,555.363)">
        <path d="M351.43,740.4L368.03,740.4" style="fill:none;fill-rule:nonzero;stroke:black;stroke-width:0.72px;"/>
    </g>
    <g transform="matrix(1.15468,0.666702,0.666702,-1.15468,-518.635,691.656)">
        <path d="M344.506,755.34L364.424,755.34" style="fill:none;fill-rule:nonzero;stroke:black;stroke-width:0.72px;"/>
    </g>
    <g transform="matrix(1.15468,-0.666702,-0.666702,-1.15468,468.618,1169.64)">
        <path d="M344.506,725.46L364.424,725.46" style="fill:none;fill-rule:nonzero;stroke:black;stroke-width:0.72px;"/>
    </g>
    <g transform="matrix(1.15468,-0.666702,-0.666702,-1.15468,485.457,1152.8)">
        <path d="M327.256,755.34L347.174,755.34" style="fill:none;fill-rule:nonzero;stroke:black;stroke-width:0.72px;"/>
    </g>
    <g transform="matrix(1.15458,-0.666876,-0.666876,-1.15458,483.982,1154.42)">
        <path d="M330.598,752.43L347.192,752.43" style="fill:none;fill-rule:nonzero;stroke:black;stroke-width:0.72px;"/>
    </g>
    <g transform="matrix(1.15468,0.666702,0.666702,-1.15468,-501.796,708.495)">
        <path d="M327.256,725.46L347.174,725.46" style="fill:none;fill-rule:nonzero;stroke:black;stroke-width:0.72px;"/>
    </g>
    <g transform="matrix(1.15458,0.666876,0.666876,-1.15458,-503.528,706.723)">
        <path d="M330.598,728.37L347.192,728.37" style="fill:none;fill-rule:nonzero;stroke:black;stroke-width:0.72px;"/>
    </g>
    <g transform="matrix(0,-1.33333,-1.33333,0,1346.95,513.843)">
        <path d="M318.63,740.4L338.55,740.4" style="fill:none;fill-rule:nonzero;stroke:black;stroke-width:0.72px;"/>
    </g>
    <g transform="matrix(1.15481,0.666483,0.666483,-1.15481,-496.856,687.002)">
        <path d="M362.123,726.83L376.567,726.83" style="fill:none;fill-rule:nonzero;stroke:black;stroke-width:0.72px;"/>
    </g>
    <g transform="matrix(0,-1.33333,-1.33333,0,1409.79,497.003)">
        <path d="M335.88,770.28L355.8,770.28" style="fill:none;fill-rule:nonzero;stroke:black;stroke-width:0.72px;"/>
    </g>
    <g transform="matrix(1.15457,-0.666895,-0.666895,-1.15457,507.239,1157.53)">
        <path d="M344.892,783.775L359.028,783.775" style="fill:none;fill-rule:nonzero;stroke:black;stroke-width:0.72px;"/>
    </g>
    <g transform="matrix(-1.15438,-0.667213,-0.667213,1.15438,1291.87,-664.159)">
        <path d="M332.586,785.47L347.694,785.47" style="fill:none;fill-rule:nonzero;stroke:black;stroke-width:0.72px;"/>
    </g>
    <g transform="matrix(-1.15478,-0.66653,-0.66653,1.15478,1287.12,-656.827)">
        <path d="M332.719,782.08L345.881,782.08" style="fill:none;fill-rule:nonzero;stroke:black;stroke-width:0.72px;"/>
    </g>
    <g transform="matrix(1.15507,0.666028,0.666028,-1.15507,-535.133,675.415)">
        <path d="M367.346,785.265L375.934,785.265" style="fill:none;fill-rule:nonzero;stroke:black;stroke-width:0.72px;"/>
    </g>
    <g transform="matrix(1.15496,-0.66621,-0.66621,-1.15496,514.169,1182.04)">
        <path d="M384.607,785.265L393.473,785.265" style="fill:none;fill-rule:nonzero;stroke:black;stroke-width:0.72px;"/>
    </g>
    <g transform="matrix(-0.297808,1.29965,1.29965,0.297808,-302.529,-666.664)">
        <path d="M422.763,715.57L442.687,715.57" style="fill:none;fill-rule:nonzero;stroke:black;stroke-width:0.72px;"/>
    </g>
    <g transform="matrix(-0.829985,-1.04351,-1.04351,0.829985,1594.78,8.48462)">
        <path d="M426.74,698.065L446.66,698.065" style="fill:none;fill-rule:nonzero;stroke:black;stroke-width:0.72px;"/>
    </g>
    <g transform="matrix(-1.20205,0.576931,0.576931,1.20205,626.236,-1042.99)">
        <path d="M433.969,729.59L453.891,729.59" style="fill:none;fill-rule:nonzero;stroke:black;stroke-width:0.72px;"/>
    </g>
    <g transform="matrix(-1.33333,-0.000669008,-0.000669008,1.33333,1129.73,-777.481)">
        <path d="M442.9,690.265L462.83,690.265" style="fill:none;fill-rule:nonzero;stroke:black;stroke-width:0.72px;"/>
    </g>
    <g transform="matrix(-1.20081,-0.57951,-0.57951,1.20081,1509.24,-522.767)">
        <path d="M452.197,730.78L466.553,730.78" style="fill:none;fill-rule:nonzero;stroke:black;stroke-width:0.72px;"/>
    </g>
    <g transform="matrix(-0.832192,1.04175,1.04175,0.832192,210.174,-937.326)">
        <path d="M459.087,698.04L479.003,698.04" style="fill:none;fill-rule:nonzero;stroke:black;stroke-width:0.72px;"/>
    </g>
    <g transform="matrix(0.295257,1.30023,1.30023,-0.295257,-513.638,-292.987)">
        <path d="M466.379,712.91L480.921,712.91" style="fill:none;fill-rule:nonzero;stroke:black;stroke-width:0.72px;"/>
    </g>
    <g transform="matrix(0.000909504,-1.33333,-1.33333,-0.000909504,1515.65,681.417)">
        <path d="M447.265,741.23L461.925,741.23" style="fill:none;fill-rule:nonzero;stroke:black;stroke-width:0.72px;"/>
    </g>
    <g transform="matrix(0.000909504,-1.33333,-1.33333,-0.000909504,1511.17,676.937)">
        <path d="M443.905,741.23L458.565,741.23" style="fill:none;fill-rule:nonzero;stroke:black;stroke-width:0.72px;"/>
    </g>
    <g transform="matrix(1.29957,0.298147,0.298147,-1.29957,-272.01,895.243)">
        <path d="M475.067,704.12L490.273,704.12" style="fill:none;fill-rule:nonzero;stroke:black;stroke-width:0.72px;"/>
    </g>
    <g transform="matrix(0.576576,1.20222,1.20222,-0.576576,-548,-14.7135)">
        <path d="M458.82,683.89L472.95,683.89" style="fill:none;fill-rule:nonzero;stroke:black;stroke-width:0.72px;"/>
    </g>
    <g transform="matrix(0,1.33333,1.33333,0,-318.535,-386.197)">
        <path d="M426.36,633.48L480.36,633.48" style="fill:none;fill-rule:nonzero;stroke:black;stroke-width:0.72px;"/>
    </g>
    <g transform="matrix(-0.314133,1.2958,1.2958,0.314133,-122.487,-530.221)">
        <path d="M449.059,611.373L457.209,611.373L449.964,607.641L450.911,609.846L449.059,611.373Z" style="stroke:black;stroke-width:0.72px;"/>
    </g>
</svg>
