<?xml version="1.0" encoding="UTF-8" standalone="no"?>
<!DOCTYPE svg PUBLIC "-//W3C//DTD SVG 1.1//EN" "http://www.w3.org/Graphics/SVG/1.1/DTD/svg11.dtd">
<svg width="100%" height="100%" viewBox="0 0 760 610" version="1.1" xmlns="http://www.w3.org/2000/svg" xmlns:xlink="http://www.w3.org/1999/xlink" xml:space="preserve" xmlns:serif="http://www.serif.com/" style="fill-rule:evenodd;clip-rule:evenodd;stroke-linecap:round;stroke-linejoin:round;stroke-miterlimit:10;">
    <g transform="matrix(1.33333,0,0,1.33333,-37.6255,-45.3974)">
        <text x="120.48px" y="125.28px" style="font-family:'ArialMT', 'Arial', sans-serif;font-size:10px;">O</text>
    </g>
    <g transform="matrix(1.33333,0,0,1.33333,-37.6255,-45.3974)">
        <text x="85.92px" y="125.04px" style="font-family:'ArialMT', 'Arial', sans-serif;font-size:10px;">O</text>
    </g>
    <g transform="matrix(1.33333,0,0,1.33333,-37.6255,-45.3974)">
        <text x="103.68px" y="75.36px" style="font-family:'ArialMT', 'Arial', sans-serif;font-size:10px;">CH</text>
        <text x="118.08px" y="78px" style="font-family:'ArialMT', 'Arial', sans-serif;font-size:8px;">3</text>
    </g>
    <g transform="matrix(1.33333,0,0,1.33333,-37.6255,-45.3974)">
        <text x="103.44px" y="135.12px" style="font-family:'ArialMT', 'Arial', sans-serif;font-size:10px;">CH</text>
        <text x="117.84px" y="137.76px" style="font-family:'ArialMT', 'Arial', sans-serif;font-size:8px;">3</text>
    </g>
    <g transform="matrix(1.33333,0,0,1.33333,-37.6255,-45.3974)">
        <text x="155.04px" y="125.52px" style="font-family:'ArialMT', 'Arial', sans-serif;font-size:10px;">O</text>
    </g>
    <g transform="matrix(1.33333,0,0,1.33333,-37.6255,-45.3974)">
        <text x="51.36px" y="124.8px" style="font-family:'ArialMT', 'Arial', sans-serif;font-size:10px;">O</text>
    </g>
    <g transform="matrix(1.33333,0,0,1.33333,-37.6255,-45.3974)">
        <text x="172.08px" y="76.32px" style="font-family:'ArialMT', 'Arial', sans-serif;font-size:10px;">O</text>
    </g>
    <g transform="matrix(1.33333,0,0,1.33333,-37.6255,-45.3974)">
        <text x="154.56px" y="46.56px" style="font-family:'ArialMT', 'Arial', sans-serif;font-size:10px;">O</text>
    </g>
    <g transform="matrix(1.33333,0,0,1.33333,-37.6255,-45.3974)">
        <text x="189.6px" y="66px" style="font-family:'ArialMT', 'Arial', sans-serif;font-size:10px;">H</text>
    </g>
    <g transform="matrix(1.33333,0,0,1.33333,-37.6255,-45.3974)">
        <text x="298.8px" y="86.16px" style="font-family:'ArialMT', 'Arial', sans-serif;font-size:8px;">4</text>
    </g>
    <g transform="matrix(1.33333,0,0,1.33333,-37.6255,-45.3974)">
        <text x="275.28px" y="79.92px" style="font-family:'ArialMT', 'Arial', sans-serif;font-size:8px;">3</text>
    </g>
    <g transform="matrix(1.33333,0,0,1.33333,-37.6255,-45.3974)">
        <text x="258.24px" y="89.76px" style="font-family:'ArialMT', 'Arial', sans-serif;font-size:8px;">2</text>
    </g>
    <g transform="matrix(1.33333,0,0,1.33333,-37.6255,-45.3974)">
        <text x="270.72px" y="116.88px" style="font-family:'ArialMT', 'Arial', sans-serif;font-size:8px;">1</text>
        <text x="245.52px" y="124.32px" style="font-family:'ArialMT', 'Arial', sans-serif;font-size:10px;">O</text>
    </g>
    <g transform="matrix(1.33333,0,0,1.33333,-37.6255,-45.3974)">
        <text x="314.4px" y="124.32px" style="font-family:'ArialMT', 'Arial', sans-serif;font-size:10px;">O</text>
        <text x="314.64px" y="144.24px" style="font-family:'ArialMT', 'Arial', sans-serif;font-size:10px;">H</text>
    </g>
    <g transform="matrix(1.33333,0,0,1.33333,-37.6255,-45.3974)">
        <text x="245.76px" y="144.24px" style="font-family:'ArialMT', 'Arial', sans-serif;font-size:10px;">H</text>
    </g>
    <g transform="matrix(1.33333,0,0,1.33333,-37.6255,-45.3974)">
        <text x="297.36px" y="54.48px" style="font-family:'ArialMT', 'Arial', sans-serif;font-size:10px;">CH</text>
        <text x="311.76px" y="57.12px" style="font-family:'ArialMT', 'Arial', sans-serif;font-size:8px;">3</text>
    </g>
    <g transform="matrix(1.33333,0,0,1.33333,-37.6255,-45.3974)">
        <text x="262.8px" y="54.48px" style="font-family:'ArialMT', 'Arial', sans-serif;font-size:10px;">O</text>
    </g>
    <g transform="matrix(1.33333,0,0,1.33333,-37.6255,-45.3974)">
        <text x="314.4px" y="104.16px" style="font-family:'ArialMT', 'Arial', sans-serif;font-size:10px;">O</text>
        <text x="245.52px" y="104.4px" style="font-family:'ArialMT', 'Arial', sans-serif;font-size:10px;">O</text>
    </g>
    <g transform="matrix(1.33333,0,0,1.33333,-37.6255,-45.3974)">
        <text x="280.08px" y="104.4px" style="font-family:'ArialMT', 'Arial', sans-serif;font-size:10px;">CH</text>
        <text x="294.48px" y="107.04px" style="font-family:'ArialMT', 'Arial', sans-serif;font-size:8px;">3</text>
    </g>
    <g transform="matrix(1.33333,0,0,1.33333,-37.6255,-45.3974)">
        <text x="316.08px" y="76.08px" style="font-family:'ArialMT', 'Arial', sans-serif;font-size:8px;">5</text>
    </g>
    <g transform="matrix(1.33333,0,0,1.33333,-37.6255,-45.3974)">
        <text x="333.36px" y="86.16px" style="font-family:'ArialMT', 'Arial', sans-serif;font-size:8px;">6</text>
    </g>
    <g transform="matrix(1.33333,0,0,1.33333,-37.6255,-45.3974)">
        <text x="331.68px" y="114.24px" style="font-family:'ArialMT', 'Arial', sans-serif;font-size:10px;">O</text>
    </g>
    <g transform="matrix(1.33333,0,0,1.33333,-37.6255,-45.3974)">
        <text x="348.96px" y="84.24px" style="font-family:'ArialMT', 'Arial', sans-serif;font-size:10px;">O</text>
        <text x="366.48px" y="94.32px" style="font-family:'ArialMT', 'Arial', sans-serif;font-size:10px;">H</text>
    </g>
    <g transform="matrix(1.33333,0,0,1.33333,-37.6255,-45.3974)">
        <text x="480px" y="91.2px" style="font-family:'ArialMT', 'Arial', sans-serif;font-size:8px;">3</text>
    </g>
    <g transform="matrix(1.33333,0,0,1.33333,-37.6255,-45.3974)">
        <text x="475.44px" y="114.48px" style="font-family:'ArialMT', 'Arial', sans-serif;font-size:8px;">4</text>
    </g>
    <g transform="matrix(1.33333,0,0,1.33333,-37.6255,-45.3974)">
        <text x="456.48px" y="70.56px" style="font-family:'ArialMT', 'Arial', sans-serif;font-size:8px;">2</text>
    </g>
    <g transform="matrix(1.33333,0,0,1.33333,-37.6255,-45.3974)">
        <text x="433.2px" y="84px" style="font-family:'ArialMT', 'Arial', sans-serif;font-size:8px;">1</text>
        <text x="433.2px" y="111.12px" style="font-family:'ArialMT', 'Arial', sans-serif;font-size:8px;">6</text>
    </g>
    <g transform="matrix(1.33333,0,0,1.33333,-37.6255,-45.3974)">
        <text x="506.88px" y="88.56px" style="font-family:'ArialMT', 'Arial', sans-serif;font-size:10px;">CH</text>
        <text x="521.28px" y="91.2px" style="font-family:'ArialMT', 'Arial', sans-serif;font-size:8px;">3</text>
    </g>
    <g transform="matrix(1.33333,0,0,1.33333,-37.6255,-45.3974)">
        <text x="497.76px" y="63.36px" style="font-family:'ArialMT', 'Arial', sans-serif;font-size:10px;">O</text>
        <text x="472.32px" y="68.64px" style="font-family:'ArialMT', 'Arial', sans-serif;font-size:10px;">CH</text>
        <text x="486.72px" y="71.28px" style="font-family:'ArialMT', 'Arial', sans-serif;font-size:8px;">3</text>
    </g>
    <g transform="matrix(1.33333,0,0,1.33333,-37.6255,-45.3974)">
        <text x="520.8px" y="122.64px" style="font-family:'ArialMT', 'Arial', sans-serif;font-size:10px;">O</text>
    </g>
    <g transform="matrix(1.33333,0,0,1.33333,-37.6255,-45.3974)">
        <text x="525.12px" y="100.8px" style="font-family:'ArialMT', 'Arial', sans-serif;font-size:10px;">O</text>
    </g>
    <g transform="matrix(1.33333,0,0,1.33333,-37.6255,-45.3974)">
        <text x="515.76px" y="141.84px" style="font-family:'ArialMT', 'Arial', sans-serif;font-size:10px;">H</text>
    </g>
    <g transform="matrix(1.33333,0,0,1.33333,-37.6255,-45.3974)">
        <text x="432.96px" y="225.84px" style="font-family:'ArialMT', 'Arial', sans-serif;font-size:10px;">CH</text>
        <text x="447.36px" y="228.48px" style="font-family:'ArialMT', 'Arial', sans-serif;font-size:8px;">2</text>
        <text x="433.2px" y="265.68px" style="font-family:'ArialMT', 'Arial', sans-serif;font-size:10px;">CH</text>
        <text x="447.6px" y="268.32px" style="font-family:'ArialMT', 'Arial', sans-serif;font-size:8px;">2</text>
    </g>
    <g transform="matrix(1.33333,0,0,1.33333,-37.6255,-45.3974)">
        <text x="471.84px" y="250.56px" style="font-family:'ArialMT', 'Arial', sans-serif;font-size:18px;">+</text>
    </g>
    <g transform="matrix(1.33333,0,0,1.33333,-37.6255,-45.3974)">
        <text x="506.64px" y="234.72px" style="font-family:'ArialMT', 'Arial', sans-serif;font-size:10px;">C</text>
    </g>
    <g transform="matrix(1.33333,0,0,1.33333,-37.6255,-45.3974)">
        <text x="495.12px" y="234.72px" style="font-family:'ArialMT', 'Arial', sans-serif;font-size:10px;">H</text>
        <text x="502.32px" y="237.36px" style="font-family:'ArialMT', 'Arial', sans-serif;font-size:8px;">3</text>
    </g>
    <g transform="matrix(1.33333,0,0,1.33333,-37.6255,-45.3974)">
        <text x="523.44px" y="204.72px" style="font-family:'ArialMT', 'Arial', sans-serif;font-size:10px;">O</text>
    </g>
    <g transform="matrix(1.33333,0,0,1.33333,-37.6255,-45.3974)">
        <text x="558.24px" y="224.64px" style="font-family:'ArialMT', 'Arial', sans-serif;font-size:10px;">CH</text>
        <text x="572.64px" y="227.28px" style="font-family:'ArialMT', 'Arial', sans-serif;font-size:8px;">3</text>
    </g>
    <g transform="matrix(1.33333,0,0,1.33333,-37.6255,-45.3974)">
        <text x="558px" y="284.64px" style="font-family:'ArialMT', 'Arial', sans-serif;font-size:10px;">O<tspan x="565.92px " y="284.64px ">H</tspan></text>
    </g>
    <g transform="matrix(1.33333,0,0,1.33333,-37.6255,-45.3974)">
        <text x="575.28px" y="254.64px" style="font-family:'ArialMT', 'Arial', sans-serif;font-size:10px;">O</text>
    </g>
    <g transform="matrix(1.33333,0,0,1.33333,-37.6255,-45.3974)">
        <text x="489.36px" y="370.56px" style="font-family:'ArialMT', 'Arial', sans-serif;font-size:10px;">CH</text>
        <text x="503.76px" y="373.2px" style="font-family:'ArialMT', 'Arial', sans-serif;font-size:8px;">3</text>
    </g>
    <g transform="matrix(1.33333,0,0,1.33333,-37.6255,-45.3974)">
        <text x="471.84px" y="340.56px" style="font-family:'ArialMT', 'Arial', sans-serif;font-size:10px;">O</text>
    </g>
    <g transform="matrix(1.33333,0,0,1.33333,-37.6255,-45.3974)">
        <text x="437.76px" y="360.72px" style="font-family:'ArialMT', 'Arial', sans-serif;font-size:10px;">C</text>
    </g>
    <g transform="matrix(1.33333,0,0,1.33333,-37.6255,-45.3974)">
        <text x="426.24px" y="360.72px" style="font-family:'ArialMT', 'Arial', sans-serif;font-size:10px;">H</text>
        <text x="433.44px" y="363.36px" style="font-family:'ArialMT', 'Arial', sans-serif;font-size:8px;">3</text>
    </g>
    <g transform="matrix(1.33333,0,0,1.33333,-37.6255,-45.3974)">
        <text x="437.52px" y="400.32px" style="font-family:'ArialMT', 'Arial', sans-serif;font-size:10px;">O</text>
    </g>
    <g transform="matrix(1.33333,0,0,1.33333,-37.6255,-45.3974)">
        <text x="430.32px" y="400.32px" style="font-family:'ArialMT', 'Arial', sans-serif;font-size:10px;">H</text>
    </g>
    <g transform="matrix(1.33333,0,0,1.33333,-37.6255,-45.3974)">
        <text x="499.2px" y="407.76px" style="font-family:'ArialMT', 'Arial', sans-serif;font-size:10px;">O<tspan x="507.12px " y="407.76px ">H</tspan></text>
    </g>
    <g transform="matrix(1.33333,0,0,1.33333,-37.6255,-45.3974)">
        <text x="508.56px" y="385.44px" style="font-family:'ArialMT', 'Arial', sans-serif;font-size:10px;">O</text>
    </g>
    <g transform="matrix(0.0233344,1.33313,-1.33313,0.0233344,-37.6255,-45.3974)">
        <text x="409.087px" y="-432.827px" style="font-family:'ArialMT', 'Arial', sans-serif;font-size:10px;">:</text>
    </g>
    <g transform="matrix(-0.0511981,-1.33235,1.33235,-0.0511981,-37.6255,-45.3974)">
        <text x="-408.015px" y="427.198px" style="font-family:'ArialMT', 'Arial', sans-serif;font-size:10px;">:</text>
    </g>
    <g transform="matrix(1.33333,0,0,1.33333,-37.6255,-45.3974)">
        <text x="336px" y="371.04px" style="font-family:'ArialMT', 'Arial', sans-serif;font-size:10px;">O</text>
    </g>
    <g transform="matrix(1.33333,0,0,1.33333,-37.6255,-45.3974)">
        <text x="301.68px" y="390.96px" style="font-family:'ArialMT', 'Arial', sans-serif;font-size:10px;">O</text>
        <text x="309.6px" y="384px" style="font-family:'ArialMT', 'Arial', sans-serif;font-size:8px;">+</text>
    </g>
    <g transform="matrix(1.33333,0,0,1.33333,-37.6255,-45.3974)">
        <text x="318.72px" y="341.04px" style="font-family:'ArialMT', 'Arial', sans-serif;font-size:10px;">O</text>
    </g>
    <g transform="matrix(1.33333,0,0,1.33333,-37.6255,-45.3974)">
        <text x="353.52px" y="360.96px" style="font-family:'ArialMT', 'Arial', sans-serif;font-size:10px;">H</text>
    </g>
    <g transform="matrix(1.33333,0,0,1.33333,-37.6255,-45.3974)">
        <text x="284.64px" y="401.04px" style="font-family:'ArialMT', 'Arial', sans-serif;font-size:10px;">H</text>
    </g>
    <g transform="matrix(1.33333,0,0,1.33333,-37.6255,-45.3974)">
        <text x="272.16px" y="375.6px" style="font-family:'ArialMT', 'Arial', sans-serif;font-size:18px;">+</text>
    </g>
    <g transform="matrix(1.33333,0,0,1.33333,-37.6255,-45.3974)">
        <text x="177.36px" y="372.72px" style="font-family:'ArialMT', 'Arial', sans-serif;font-size:10px;">C</text>
    </g>
    <g transform="matrix(1.33333,0,0,1.33333,-37.6255,-45.3974)">
        <text x="165.84px" y="372.72px" style="font-family:'ArialMT', 'Arial', sans-serif;font-size:10px;">H</text>
        <text x="173.04px" y="375.36px" style="font-family:'ArialMT', 'Arial', sans-serif;font-size:8px;">3</text>
    </g>
    <g transform="matrix(1.33333,0,0,1.33333,-37.6255,-45.3974)">
        <text x="228.96px" y="382.56px" style="font-family:'ArialMT', 'Arial', sans-serif;font-size:10px;">CH</text>
        <text x="243.36px" y="385.2px" style="font-family:'ArialMT', 'Arial', sans-serif;font-size:8px;">3</text>
    </g>
    <g transform="matrix(1.33333,0,0,1.33333,-37.6255,-45.3974)">
        <text x="208.32px" y="352.08px" style="font-family:'ArialMT', 'Arial', sans-serif;font-size:10px;">:</text>
        <text x="211.44px" y="352.8px" style="font-family:'ArialMT', 'Arial', sans-serif;font-size:10px;">O</text>
        <text x="219.36px" y="345.84px" style="font-family:'ArialMT', 'Arial', sans-serif;font-size:8px;">–</text>
    </g>
    <g transform="matrix(1.33333,0,0,1.33333,-37.6255,-45.3974)">
        <text x="46.32px" y="372.24px" style="font-family:'ArialMT', 'Arial', sans-serif;font-size:10px;">C</text>
    </g>
    <g transform="matrix(1.33333,0,0,1.33333,-37.6255,-45.3974)">
        <text x="34.8px" y="372.24px" style="font-family:'ArialMT', 'Arial', sans-serif;font-size:10px;">H</text>
        <text x="42px" y="374.88px" style="font-family:'ArialMT', 'Arial', sans-serif;font-size:8px;">3</text>
        <text x="63.6px" y="382.08px" style="font-family:'ArialMT', 'Arial', sans-serif;font-size:10px;">CH</text>
        <text x="78.007px" y="375.12px" style="font-family:'ArialMT', 'Arial', sans-serif;font-size:8px;">–</text>
        <text x="97.92px" y="382.08px" style="font-family:'ArialMT', 'Arial', sans-serif;font-size:10px;"><tspan x="97.92px " y="382.08px ">C</tspan>H</text>
        <text x="112.327px" y="384.72px" style="font-family:'ArialMT', 'Arial', sans-serif;font-size:8px;">3</text>
    </g>
    <g transform="matrix(1.33333,0,0,1.33333,-37.6255,-45.3974)">
        <text x="80.4px" y="352.32px" style="font-family:'ArialMT', 'Arial', sans-serif;font-size:10px;">O</text>
    </g>
    <g transform="matrix(1.33333,0,0,1.33333,-37.6255,-45.3974)">
        <text x="219.6px" y="351.84px" style="font-family:'ArialMT', 'Arial', sans-serif;font-size:10px;">:</text>
    </g>
    <g transform="matrix(-0.0140006,-1.33326,1.33326,-0.0140006,-37.6255,-45.3974)">
        <text x="-346.552px" y="212.613px" style="font-family:'ArialMT', 'Arial', sans-serif;font-size:10px;">:</text>
    </g>
    <g transform="matrix(-0.0278662,1.33304,-1.33304,-0.0278662,-37.6255,-45.3974)">
        <text x="368.18px" y="-73.711px" style="font-family:'ArialMT', 'Arial', sans-serif;font-size:10px;">:</text>
    </g>
    <g transform="matrix(1.33333,0,0,1.33333,-37.6255,-45.3974)">
        <text x="102.48px" y="474.24px" style="font-family:'ArialMT', 'Arial', sans-serif;font-size:10px;">C</text>
    </g>
    <g transform="matrix(1.33333,0,0,1.33333,-37.6255,-45.3974)">
        <text x="90.96px" y="474.24px" style="font-family:'ArialMT', 'Arial', sans-serif;font-size:10px;">H</text>
        <text x="98.16px" y="476.88px" style="font-family:'ArialMT', 'Arial', sans-serif;font-size:8px;">3</text>
    </g>
    <g transform="matrix(1.33333,0,0,1.33333,-37.6255,-45.3974)">
        <text x="154.08px" y="484.08px" style="font-family:'ArialMT', 'Arial', sans-serif;font-size:10px;">CH</text>
        <text x="168.48px" y="486.72px" style="font-family:'ArialMT', 'Arial', sans-serif;font-size:8px;">3</text>
    </g>
    <g transform="matrix(1.33333,0,0,1.33333,-37.6255,-45.3974)">
        <text x="136.56px" y="454.32px" style="font-family:'ArialMT', 'Arial', sans-serif;font-size:10px;">O</text>
    </g>
    <g transform="matrix(-0.00870129,1.3333,1.3333,0.00870129,-881.104,-59.8588)">
        <path d="M97.345,740.63L117.265,740.63" style="fill:none;fill-rule:nonzero;stroke:black;stroke-width:0.72px;"/>
    </g>
    <g transform="matrix(-1.15062,-0.673691,-0.673691,1.15062,733.829,-652.472)">
        <path d="M106.265,727.075L120.495,727.075" style="fill:none;fill-rule:nonzero;stroke:black;stroke-width:0.72px;"/>
    </g>
    <g transform="matrix(-1.15864,0.659804,0.659804,1.15864,-179.474,-823.773)">
        <path d="M128.427,726.935L142.673,726.935" style="fill:none;fill-rule:nonzero;stroke:black;stroke-width:0.72px;"/>
    </g>
    <g transform="matrix(-0.00870129,1.3333,1.3333,0.00870129,-834.524,-105.576)">
        <path d="M131.845,740.42L151.765,740.42" style="fill:none;fill-rule:nonzero;stroke:black;stroke-width:0.72px;"/>
    </g>
    <g transform="matrix(-1.33331,-0.00811579,-0.00811579,1.33331,300.782,-923.101)">
        <path d="M107.37,750.485L141.87,750.485" style="fill:none;fill-rule:nonzero;stroke:black;stroke-width:0.72px;"/>
    </g>
    <g transform="matrix(-1.1588,0.659511,0.659511,1.1588,-265.42,-801.568)">
        <path d="M93.863,727.13L108.177,727.13" style="fill:none;fill-rule:nonzero;stroke:black;stroke-width:0.72px;"/>
    </g>
    <g transform="matrix(-1.15041,-0.674051,-0.674051,1.15041,648.461,-676.137)">
        <path d="M71.768,727.31L85.932,727.31" style="fill:none;fill-rule:nonzero;stroke:black;stroke-width:0.72px;"/>
    </g>
    <g transform="matrix(0.00803198,-1.33331,-1.33331,-0.00803198,1046.64,192.378)">
        <path d="M62.84,740.85L82.76,740.85" style="fill:none;fill-rule:nonzero;stroke:black;stroke-width:0.72px;"/>
    </g>
    <g transform="matrix(1.33331,0.00849978,0.00849978,-1.33331,-44.0039,1076.38)">
        <path d="M72.86,750.7L107.37,750.7" style="fill:none;fill-rule:nonzero;stroke:black;stroke-width:0.72px;"/>
    </g>
    <g transform="matrix(0.00812443,-1.33331,-1.33331,-0.00812443,1115.34,215.905)">
        <path d="M100.03,757.975L114.8,757.975" style="fill:none;fill-rule:nonzero;stroke:black;stroke-width:0.72px;"/>
    </g>
    <g transform="matrix(-0.00813544,1.33331,1.33331,0.00813544,-858.202,-36.039)">
        <path d="M99.82,723.295L114.57,723.295" style="fill:none;fill-rule:nonzero;stroke:black;stroke-width:0.72px;"/>
    </g>
    <g transform="matrix(1.1505,0.673889,0.673889,-1.1505,-499.33,845.189)">
        <path d="M139.853,725.15L155.127,725.15" style="fill:none;fill-rule:nonzero;stroke:black;stroke-width:0.72px;"/>
    </g>
    <g transform="matrix(1.1505,0.673881,0.673881,-1.1505,-501.459,844.004)">
        <path d="M141.677,728.545L154.993,728.545" style="fill:none;fill-rule:nonzero;stroke:black;stroke-width:0.72px;"/>
    </g>
    <g transform="matrix(-1.15888,0.659379,0.659379,1.15888,-353.659,-783.302)">
        <path d="M59.362,729.03L72.788,729.03" style="fill:none;fill-rule:nonzero;stroke:black;stroke-width:0.72px;"/>
    </g>
    <g transform="matrix(-1.15867,0.659739,0.659739,1.15867,-349.628,-775.264)">
        <path d="M59.235,725.635L74.575,725.635" style="fill:none;fill-rule:nonzero;stroke:black;stroke-width:0.72px;"/>
    </g>
    <g transform="matrix(-0.0163108,-1.33323,-1.33323,0.0163108,1166.66,240.723)">
        <path d="M132.354,759.78L151.156,759.78" style="fill:none;fill-rule:nonzero;stroke:black;stroke-width:0.72px;"/>
    </g>
    <g transform="matrix(1.14679,-0.680177,-0.680177,-1.14679,517.027,1034.9)">
        <path d="M140.247,774.26L160.163,774.26" style="fill:none;fill-rule:nonzero;stroke:black;stroke-width:0.72px;"/>
    </g>
    <g transform="matrix(1.16278,0.652474,0.652474,-1.16278,-515.732,837.211)">
        <path d="M157.864,775.875L172.026,775.875" style="fill:none;fill-rule:nonzero;stroke:black;stroke-width:0.72px;"/>
    </g>
    <g transform="matrix(-0.016226,-1.33323,-1.33323,0.016226,1227.73,229.174)">
        <path d="M152.964,786.765L167.756,786.765" style="fill:none;fill-rule:nonzero;stroke:black;stroke-width:0.72px;"/>
    </g>
    <g transform="matrix(-0.0161713,-1.33324,-1.33324,0.0161713,1223.16,224.771)">
        <path d="M149.579,786.74L164.421,786.74" style="fill:none;fill-rule:nonzero;stroke:black;stroke-width:0.72px;"/>
    </g>
    <g transform="matrix(1.14647,-0.680718,-0.680718,-1.14647,524.279,1058.19)">
        <path d="M180.334,774.73L189.266,774.73" style="fill:none;fill-rule:nonzero;stroke:black;stroke-width:0.72px;"/>
    </g>
    <g transform="matrix(1.33333,0,0,1.33333,-37.6255,-920.277)">
        <path d="M197.52,749.04L231.6,749.04" style="fill:none;fill-rule:nonzero;stroke:black;stroke-width:0.72px;"/>
    </g>
    <g transform="matrix(1.33333,0,0,1.33333,-37.6255,-927.957)">
        <path d="M197.52,751.92L231.6,751.92" style="fill:none;fill-rule:nonzero;stroke:black;stroke-width:0.72px;"/>
    </g>
    <g transform="matrix(1.33333,0,0,1.33333,-37.6255,-924.117)">
        <path d="M227.04,746.88L234.96,750.48L227.04,754.08" style="fill:none;fill-rule:nonzero;stroke:black;stroke-width:0.72px;"/>
    </g>
    <g transform="matrix(0,-1.33333,-1.33333,0,1352.73,489.923)">
        <path d="M291.21,741.6L311.13,741.6" style="fill:none;fill-rule:nonzero;stroke:black;stroke-width:0.72px;"/>
    </g>
    <g transform="matrix(1.15468,0.666702,0.666702,-1.15468,-489.748,746.964)">
        <path d="M282.586,756.54L302.504,756.54" style="fill:none;fill-rule:nonzero;stroke:black;stroke-width:0.72px;"/>
    </g>
    <g transform="matrix(1.15468,-0.666702,-0.666702,-1.15468,515.944,1125.54)">
        <path d="M265.336,756.54L285.254,756.54" style="fill:none;fill-rule:nonzero;stroke:black;stroke-width:0.72px;"/>
    </g>
    <g transform="matrix(0,-1.33333,-1.33333,0,1306.73,443.923)">
        <path d="M256.71,741.6L276.63,741.6" style="fill:none;fill-rule:nonzero;stroke:black;stroke-width:0.72px;"/>
    </g>
    <g transform="matrix(-1.15487,0.666378,0.666378,1.15487,125.448,-908.111)">
        <path d="M253.452,728.1L267.618,728.1" style="fill:none;fill-rule:nonzero;stroke:black;stroke-width:0.72px;"/>
    </g>
    <g transform="matrix(1.15487,0.666378,0.666378,-1.15487,-467.972,742.44)">
        <path d="M300.222,728.1L314.388,728.1" style="fill:none;fill-rule:nonzero;stroke:black;stroke-width:0.72px;"/>
    </g>
    <g transform="matrix(0,1.33333,1.33333,0,-561.866,-296.197)">
        <path d="M313.62,711.6L323.22,711.6" style="fill:none;fill-rule:nonzero;stroke:black;stroke-width:0.72px;"/>
    </g>
    <g transform="matrix(0,1.33333,1.33333,0,-653.866,-204.197)">
        <path d="M244.62,711.6L254.22,711.6" style="fill:none;fill-rule:nonzero;stroke:black;stroke-width:0.72px;"/>
    </g>
    <g transform="matrix(0,-1.33333,-1.33333,0,1369.57,427.083)">
        <path d="M273.96,771.48L293.88,771.48" style="fill:none;fill-rule:nonzero;stroke:black;stroke-width:0.72px;"/>
    </g>
    <g transform="matrix(1.15451,-0.666991,-0.666991,-1.15451,537.878,1130.31)">
        <path d="M282.954,785.045L297.366,785.045" style="fill:none;fill-rule:nonzero;stroke:black;stroke-width:0.72px;"/>
    </g>
    <g transform="matrix(-1.15438,-0.667213,-0.667213,1.15438,1179.38,-694.219)">
        <path d="M270.666,786.67L285.774,786.67" style="fill:none;fill-rule:nonzero;stroke:black;stroke-width:0.72px;"/>
    </g>
    <g transform="matrix(-1.15478,-0.66653,-0.66653,1.15478,1174.61,-686.844)">
        <path d="M270.799,783.28L283.961,783.28" style="fill:none;fill-rule:nonzero;stroke:black;stroke-width:0.72px;"/>
    </g>
    <g transform="matrix(1.1551,-0.665976,-0.665976,-1.1551,505.705,1151.37)">
        <path d="M301.128,733.485L314.322,733.485" style="fill:none;fill-rule:nonzero;stroke:black;stroke-width:0.72px;"/>
    </g>
    <g transform="matrix(1.15466,-0.666729,-0.666729,-1.15466,508.501,1150.12)">
        <path d="M299.316,736.875L314.454,736.875" style="fill:none;fill-rule:nonzero;stroke:black;stroke-width:0.72px;"/>
    </g>
    <g transform="matrix(-1.15466,-0.666729,-0.666729,1.15466,1102.93,-582.195)">
        <path d="M253.386,736.875L268.524,736.875" style="fill:none;fill-rule:nonzero;stroke:black;stroke-width:0.72px;"/>
    </g>
    <g transform="matrix(-1.1551,-0.665976,-0.665976,1.1551,1098.14,-574.835)">
        <path d="M253.518,733.485L266.712,733.485" style="fill:none;fill-rule:nonzero;stroke:black;stroke-width:0.72px;"/>
    </g>
    <g transform="matrix(0,1.33333,1.33333,0,-664.506,-306.837)">
        <path d="M276.48,754.08L291.36,754.08" style="fill:none;fill-rule:nonzero;stroke:black;stroke-width:0.72px;"/>
    </g>
    <g transform="matrix(1.15468,-0.666702,-0.666702,-1.15468,522.107,1148.55)">
        <path d="M299.836,756.54L319.754,756.54" style="fill:none;fill-rule:nonzero;stroke:black;stroke-width:0.72px;"/>
    </g>
    <g transform="matrix(1.15468,0.666702,0.666702,-1.15468,-483.585,723.963)">
        <path d="M317.086,756.54L337.004,756.54" style="fill:none;fill-rule:nonzero;stroke:black;stroke-width:0.72px;"/>
    </g>
    <g transform="matrix(0,1.33333,1.33333,0,-584.546,-360.397)">
        <path d="M326.61,744.18L341.37,744.18" style="fill:none;fill-rule:nonzero;stroke:black;stroke-width:0.72px;"/>
    </g>
    <g transform="matrix(0,1.33333,1.33333,0,-580.066,-364.877)">
        <path d="M329.97,744.18L344.73,744.18" style="fill:none;fill-rule:nonzero;stroke:black;stroke-width:0.72px;"/>
    </g>
    <g transform="matrix(1.15465,-0.666756,-0.666756,-1.15465,526.936,1170.16)">
        <path d="M334.716,755.12L348.954,755.12" style="fill:none;fill-rule:nonzero;stroke:black;stroke-width:0.72px;"/>
    </g>
    <g transform="matrix(1.15496,0.66621,0.66621,-1.15496,-477.077,701.278)">
        <path d="M357.247,756.465L366.113,756.465" style="fill:none;fill-rule:nonzero;stroke:black;stroke-width:0.72px;"/>
    </g>
    <g transform="matrix(1.33333,0,0,1.33333,-37.6255,-920.917)">
        <path d="M385.2,749.28L419.28,749.28" style="fill:none;fill-rule:nonzero;stroke:black;stroke-width:0.72px;"/>
    </g>
    <g transform="matrix(1.33333,0,0,1.33333,-37.6255,-928.597)">
        <path d="M385.2,752.16L419.28,752.16" style="fill:none;fill-rule:nonzero;stroke:black;stroke-width:0.72px;"/>
    </g>
    <g transform="matrix(1.33333,0,0,1.33333,-37.6255,-924.757)">
        <path d="M414.72,747.12L422.64,750.72L414.72,754.32" style="fill:none;fill-rule:nonzero;stroke:black;stroke-width:0.72px;"/>
    </g>
    <g transform="matrix(0,-1.33333,-1.33333,0,1593.69,715.523)">
        <path d="M466.17,747.36L486.09,747.36" style="fill:none;fill-rule:nonzero;stroke:black;stroke-width:0.72px;"/>
    </g>
    <g transform="matrix(1.15468,0.666702,0.666702,-1.15468,-462.331,629.289)">
        <path d="M457.546,762.3L477.464,762.3" style="fill:none;fill-rule:nonzero;stroke:black;stroke-width:0.72px;"/>
    </g>
    <g transform="matrix(1.15468,-0.666702,-0.666702,-1.15468,534.202,1258)">
        <path d="M457.546,732.42L477.464,732.42" style="fill:none;fill-rule:nonzero;stroke:black;stroke-width:0.72px;"/>
    </g>
    <g transform="matrix(1.15468,-0.666702,-0.666702,-1.15468,551.041,1241.16)">
        <path d="M440.296,762.3L460.214,762.3" style="fill:none;fill-rule:nonzero;stroke:black;stroke-width:0.72px;"/>
    </g>
    <g transform="matrix(1.15468,0.666702,0.666702,-1.15468,-445.492,646.127)">
        <path d="M440.296,732.42L460.214,732.42" style="fill:none;fill-rule:nonzero;stroke:black;stroke-width:0.72px;"/>
    </g>
    <g transform="matrix(0,-1.33333,-1.33333,0,1547.69,669.523)">
        <path d="M431.67,747.36L451.59,747.36" style="fill:none;fill-rule:nonzero;stroke:black;stroke-width:0.72px;"/>
    </g>
    <g transform="matrix(0,-1.33333,-1.33333,0,1552.17,674.003)">
        <path d="M438.63,747.36L451.35,747.36" style="fill:none;fill-rule:nonzero;stroke:black;stroke-width:0.72px;"/>
    </g>
    <g transform="matrix(1.15468,-0.666702,-0.666702,-1.15468,557.205,1264.16)">
        <path d="M474.796,762.3L494.714,762.3" style="fill:none;fill-rule:nonzero;stroke:black;stroke-width:0.72px;"/>
    </g>
    <g transform="matrix(1.1547,0.666669,0.666669,-1.1547,-457.479,607.646)">
        <path d="M492.41,763.66L506.89,763.66" style="fill:none;fill-rule:nonzero;stroke:black;stroke-width:0.72px;"/>
    </g>
    <g transform="matrix(0.64707,-1.1658,-1.1658,-0.64707,1203.94,1127.85)">
        <path d="M491.642,771.91L504.108,771.91" style="fill:none;fill-rule:nonzero;stroke:black;stroke-width:0.72px;"/>
    </g>
    <g transform="matrix(0.648058,-1.16525,-1.16525,-0.648058,1201.65,1123.83)">
        <path d="M489.187,772.73L499.783,772.73" style="fill:none;fill-rule:nonzero;stroke:black;stroke-width:0.72px;"/>
    </g>
    <g transform="matrix(0,-1.33333,-1.33333,0,1616.81,692.403)">
        <path d="M468.75,764.7L483.51,764.7" style="fill:none;fill-rule:nonzero;stroke:black;stroke-width:0.72px;"/>
    </g>
    <g transform="matrix(1.33253,0.0463488,0.0463488,-1.33253,-71.3778,1053.7)">
        <path d="M476.12,736.8L510.64,736.8" style="fill:none;fill-rule:nonzero;stroke:black;stroke-width:0.72px;"/>
    </g>
    <g transform="matrix(0.984069,0.899659,0.899659,-0.984069,-516.214,357.969)">
        <path d="M508.996,731.99L521.474,731.99" style="fill:none;fill-rule:nonzero;stroke:black;stroke-width:0.72px;"/>
    </g>
    <g transform="matrix(1.20254,-0.575906,-0.575906,-1.20254,454.969,1278.85)">
        <path d="M510.664,737.755L524.856,737.755" style="fill:none;fill-rule:nonzero;stroke:black;stroke-width:0.72px;"/>
    </g>
    <g transform="matrix(1.20236,-0.576289,-0.576289,-1.20236,457.2,1278.06)">
        <path d="M509.134,741.135L524.936,741.135" style="fill:none;fill-rule:nonzero;stroke:black;stroke-width:0.72px;"/>
    </g>
    <g transform="matrix(-0.345175,1.28788,1.28788,0.345175,-80.308,-793.128)">
        <path d="M517.533,713.64L526.727,713.64" style="fill:none;fill-rule:nonzero;stroke:black;stroke-width:0.72px;"/>
    </g>
    <g transform="matrix(1.33333,0,0,1.33333,-37.6255,-924.437)">
        <path d="M474.24,760.32L471.12,760.8L469.92,760.8L467.52,760.32L465.6,759.36L463.68,757.92L462.96,757.2L462.24,756.24L461.28,754.32L461.04,753.12L460.56,752.16L460.56,748.8L460.8,747.6L461.28,746.16L462.72,743.76L463.68,742.8L464.64,742.08L465.84,741.12L467.04,740.64L467.76,740.4" style="fill:none;fill-rule:nonzero;stroke:black;stroke-width:0.48px;"/>
    </g>
    <g transform="matrix(1.24844,-0.468165,-0.468165,-1.24844,348.749,1234.45)">
        <path d="M466.073,739.394L474.275,739.394L467.056,743.383L467.955,740.995L466.073,739.394Z" style="stroke:black;stroke-width:0.48px;"/>
    </g>
    <g transform="matrix(1.33333,0,0,1.33333,-37.6255,-857.877)">
        <path d="M470.4,718.8L470.4,720.72L470.16,721.92L469.92,722.88L469.68,724.08L468.72,726L467.28,727.92L465.84,729.36L464.88,730.08L464.16,730.56L462.96,731.04L461.04,732L459.84,732.24L458.64,732.24L458.16,732.48L457.68,732.48L456.48,732.24L455.28,732.24L454.08,732L452.88,731.52L450.96,730.56L449.04,729.12L447.6,727.68L446.88,726.72L445.92,724.8L445.44,723.6L444.96,722.64L444.72,721.44L444.72,720.24" style="fill:none;fill-rule:nonzero;stroke:black;stroke-width:0.48px;"/>
    </g>
    <g transform="matrix(0,-1.33333,-1.33333,0,1527.33,703.563)">
        <path d="M442.68,729L450.84,729L443.64,724.92L444.6,727.32L442.68,729Z" style="stroke:black;stroke-width:0.48px;"/>
    </g>
    <g transform="matrix(1.33333,0,0,1.33333,-37.6255,-947.477)">
        <path d="M438.72,771.12L437.52,771.12L436.32,770.88L435.12,770.4L433.2,769.44L431.28,768L430.56,767.28L429.12,765.36L428.16,763.44L427.68,762.24L427.44,761.04L427.44,758.16L427.92,755.76L428.4,754.8L428.64,753.84L430.08,751.92L430.8,751.2L431.52,750.24L432.24,749.76L433.2,749.04L434.16,748.56L435.36,748.08L436.32,747.84L438.72,747.36L439.2,747.36L442.56,747.84L445.44,749.28L446.88,750.24L449.04,752.4L449.28,753.12L449.76,753.84" style="fill:none;fill-rule:nonzero;stroke:black;stroke-width:0.48px;"/>
    </g>
    <g transform="matrix(0.548782,1.21516,1.21516,-0.548782,-620.989,-68.2486)">
        <path d="M443.08,769.782L451.244,769.782L443.983,765.95L444.971,768.138L443.08,769.782Z" style="stroke:black;stroke-width:0.48px;"/>
    </g>
    <g transform="matrix(-0.0203539,1.33318,1.33318,0.0203539,-298.733,-474.006)">
        <path d="M459.238,678.12L490.682,678.12" style="fill:none;fill-rule:nonzero;stroke:black;stroke-width:0.72px;"/>
    </g>
    <g transform="matrix(-0.0203539,1.33318,1.33318,0.0203539,-294.834,-477.845)">
        <path d="M462.118,678.12L493.562,678.12" style="fill:none;fill-rule:nonzero;stroke:black;stroke-width:0.72px;"/>
    </g>
    <g transform="matrix(1.33333,0,0,1.33333,-37.6255,-690.837)">
        <path d="M479.76,659.04L476.16,666.96L472.8,659.04" style="fill:none;fill-rule:nonzero;stroke:black;stroke-width:0.72px;"/>
    </g>
    <g transform="matrix(-0.00803198,-1.33331,-1.33331,0.00803198,1325.25,831.532)">
        <path d="M409.56,600.12L429.48,600.12" style="fill:none;fill-rule:nonzero;stroke:black;stroke-width:0.72px;"/>
    </g>
    <g transform="matrix(1.15071,-0.673539,-0.673539,-1.15071,453.509,1251.82)">
        <path d="M418.465,613.75L432.995,613.75" style="fill:none;fill-rule:nonzero;stroke:black;stroke-width:0.72px;"/>
    </g>
    <g transform="matrix(1.15096,-0.673109,-0.673109,-1.15096,452.087,1254.05)">
        <path d="M421.661,611.45L435.249,611.45" style="fill:none;fill-rule:nonzero;stroke:black;stroke-width:0.72px;"/>
    </g>
    <g transform="matrix(1.15861,0.659842,0.659842,-1.15861,-350.245,693.646)">
        <path d="M418.625,586.555L433.195,586.555" style="fill:none;fill-rule:nonzero;stroke:black;stroke-width:0.72px;"/>
    </g>
    <g transform="matrix(1.15848,0.660076,0.660076,-1.15848,-351.319,691.21)">
        <path d="M421.766,588.81L435.704,588.81" style="fill:none;fill-rule:nonzero;stroke:black;stroke-width:0.72px;"/>
    </g>
    <g transform="matrix(0,-1.33333,-1.33333,0,1490.33,1001.92)">
        <path d="M534.81,601.2L554.73,601.2" style="fill:none;fill-rule:nonzero;stroke:black;stroke-width:0.72px;"/>
    </g>
    <g transform="matrix(0,-1.33333,-1.33333,0,1494.81,1006.4)">
        <path d="M539.83,601.2L556.43,601.2" style="fill:none;fill-rule:nonzero;stroke:black;stroke-width:0.72px;"/>
    </g>
    <g transform="matrix(1.15468,0.666702,0.666702,-1.15468,-352.623,609.638)">
        <path d="M526.186,616.14L546.104,616.14" style="fill:none;fill-rule:nonzero;stroke:black;stroke-width:0.72px;"/>
    </g>
    <g transform="matrix(1.15485,-0.666401,-0.666401,-1.15485,466.86,1314.26)">
        <path d="M513.817,617.45L528.503,617.45" style="fill:none;fill-rule:nonzero;stroke:black;stroke-width:0.72px;"/>
    </g>
    <g transform="matrix(0,-1.33333,-1.33333,0,1506.05,944.683)">
        <path d="M521.76,628.56L536.64,628.56" style="fill:none;fill-rule:nonzero;stroke:black;stroke-width:0.72px;"/>
    </g>
    <g transform="matrix(0,-1.33333,-1.33333,0,1501.57,940.203)">
        <path d="M518.4,628.56L533.28,628.56" style="fill:none;fill-rule:nonzero;stroke:black;stroke-width:0.72px;"/>
    </g>
    <g transform="matrix(1.15481,-0.666483,-0.666483,-1.15481,470.481,1334.66)">
        <path d="M543.803,614.77L558.247,614.77" style="fill:none;fill-rule:nonzero;stroke:black;stroke-width:0.72px;"/>
    </g>
    <g transform="matrix(1.15468,0.666702,0.666702,-1.15468,-329.621,603.476)">
        <path d="M543.436,586.26L563.354,586.26" style="fill:none;fill-rule:nonzero;stroke:black;stroke-width:0.72px;"/>
    </g>
    <g transform="matrix(0,1.33333,1.33333,0,-53.3855,-437.317)">
        <path d="M554.58,573.84L569.46,573.84" style="fill:none;fill-rule:nonzero;stroke:black;stroke-width:0.72px;"/>
    </g>
    <g transform="matrix(1.15498,-0.66618,-0.66618,-1.15498,452.257,1351.94)">
        <path d="M561.975,583.135L575.205,583.135" style="fill:none;fill-rule:nonzero;stroke:black;stroke-width:0.72px;"/>
    </g>
    <g transform="matrix(1.15456,-0.666905,-0.666905,-1.15456,455.028,1350.94)">
        <path d="M560.163,586.525L575.337,586.525" style="fill:none;fill-rule:nonzero;stroke:black;stroke-width:0.72px;"/>
    </g>
    <g transform="matrix(0,1.33333,1.33333,0,-126.746,-277.877)">
        <path d="M458.28,541.56L491.16,541.56" style="fill:none;fill-rule:nonzero;stroke:black;stroke-width:0.72px;"/>
    </g>
    <g transform="matrix(0,1.33333,1.33333,0,-122.906,-281.717)">
        <path d="M461.16,541.56L494.04,541.56" style="fill:none;fill-rule:nonzero;stroke:black;stroke-width:0.72px;"/>
    </g>
    <g transform="matrix(1.33333,0,0,1.33333,-37.6255,-324.757)">
        <path d="M479.76,521.76L476.16,529.68L472.56,521.76" style="fill:none;fill-rule:nonzero;stroke:black;stroke-width:0.72px;"/>
    </g>
    <g transform="matrix(1.15451,0.666991,0.666991,-1.15451,-272.678,669.433)">
        <path d="M474.954,481.675L489.366,481.675" style="fill:none;fill-rule:nonzero;stroke:black;stroke-width:0.72px;"/>
    </g>
    <g transform="matrix(1.15468,-0.666702,-0.666702,-1.15468,366.075,1302.9)">
        <path d="M457.336,480.3L477.254,480.3" style="fill:none;fill-rule:nonzero;stroke:black;stroke-width:0.72px;"/>
    </g>
    <g transform="matrix(0,-1.33333,-1.33333,0,1194.41,1068.24)">
        <path d="M448.71,465.36L468.63,465.36" style="fill:none;fill-rule:nonzero;stroke:black;stroke-width:0.72px;"/>
    </g>
    <g transform="matrix(0,-1.33333,-1.33333,0,1256.13,1057)">
        <path d="M470.16,492.72L485.04,492.72" style="fill:none;fill-rule:nonzero;stroke:black;stroke-width:0.72px;"/>
    </g>
    <g transform="matrix(0,-1.33333,-1.33333,0,1251.65,1052.52)">
        <path d="M466.8,492.72L481.68,492.72" style="fill:none;fill-rule:nonzero;stroke:black;stroke-width:0.72px;"/>
    </g>
    <g transform="matrix(-1.15475,-0.666584,-0.666584,1.15475,1407.02,186.864)">
        <path d="M444.934,479L459.656,479" style="fill:none;fill-rule:nonzero;stroke:black;stroke-width:0.72px;"/>
    </g>
    <g transform="matrix(-1.15487,0.666378,0.666378,1.15487,787.263,-348.715)">
        <path d="M445.452,451.86L459.618,451.86" style="fill:none;fill-rule:nonzero;stroke:black;stroke-width:0.72px;"/>
    </g>
    <g transform="matrix(-1.33333,0,0,1.33333,1231.49,-137.237)">
        <path d="M458.67,455.4L493.17,455.4" style="fill:none;fill-rule:nonzero;stroke:black;stroke-width:0.72px;"/>
    </g>
    <g transform="matrix(0.666846,1.1546,1.1546,-0.666846,-225.408,204.23)">
        <path d="M489.672,449.34L503.668,449.34" style="fill:none;fill-rule:nonzero;stroke:black;stroke-width:0.72px;"/>
    </g>
    <g transform="matrix(1.28787,-0.345212,-0.345212,-1.28787,142.431,1229.26)">
        <path d="M493.363,455.655L507.847,455.655" style="fill:none;fill-rule:nonzero;stroke:black;stroke-width:0.72px;"/>
    </g>
    <g transform="matrix(1.28772,-0.345761,-0.345761,-1.28772,143.898,1229.17)">
        <path d="M492.477,459.015L507.863,459.015" style="fill:none;fill-rule:nonzero;stroke:black;stroke-width:0.72px;"/>
    </g>
    <g transform="matrix(1.33333,0,0,1.33333,-37.6255,-146.197)">
        <path d="M441.84,463.44L441.6,461.52L441.6,460.32L441.84,459.12L442.32,458.16L443.76,456.24L444.48,455.52L446.4,454.56L447.6,454.32L448.32,454.08L448.8,454.08L450.24,454.32L451.44,454.56L452.64,455.28L453.6,456L454.56,456.96L455.28,458.16L455.52,458.64L455.76,459.36" style="fill:none;fill-rule:nonzero;stroke:black;stroke-width:0.48px;"/>
    </g>
    <g transform="matrix(0.534425,1.22154,1.22154,-0.534425,-240.457,155.294)">
        <path d="M448.954,463.429L457.337,463.429L450.122,459.513L451.18,461.931L448.954,463.429Z" style="stroke:black;stroke-width:0.48px;"/>
    </g>
    <g transform="matrix(1.33333,0,0,1.33333,-37.6255,-178.517)">
        <path d="M471.12,462L473.04,463.44L474.48,465.36L474.96,466.56L475.68,470.16L475.44,471.36L475.44,472.56L474,475.44L473.28,476.4L471.84,477.84L470.88,478.56L469.92,479.04L468.72,479.28L467.76,479.76L466.08,479.76L464.16,479.52L462.48,479.04L460.8,478.32" style="fill:none;fill-rule:nonzero;stroke:black;stroke-width:0.48px;"/>
    </g>
    <g transform="matrix(-1.13285,-0.70315,-0.70315,1.13285,1467.72,236.282)">
        <path d="M471.2,475.158L479.392,475.158L472.051,478.794L473.113,476.628L471.2,475.158Z" style="stroke:black;stroke-width:0.48px;"/>
    </g>
    <g transform="matrix(1.33333,0,0,1.33333,-37.6255,-245.717)">
        <path d="M471.12,504L468.96,504L467.76,503.76L465.84,502.8L464.88,502.08L464.16,501.36L463.44,500.4L462.48,498.48L462.24,497.28L462.24,494.88L462.48,493.68L462.96,492.48L464.4,490.56L466.32,489.12L467.52,488.64L468.48,488.16L469.2,488.16" style="fill:none;fill-rule:nonzero;stroke:black;stroke-width:0.48px;"/>
    </g>
    <g transform="matrix(1.31304,-0.231714,-0.231714,-1.31304,88.0109,1174.76)">
        <path d="M461.29,503.253L469.576,503.253L462.319,499.415L463.445,501.654L461.29,503.253Z" style="stroke:black;stroke-width:0.48px;"/>
    </g>
    <g transform="matrix(-1.33333,0,0,1.33333,1019.65,-172.757)">
        <path d="M379.2,468.72L413.76,468.72" style="fill:none;fill-rule:nonzero;stroke:black;stroke-width:0.72px;"/>
    </g>
    <g transform="matrix(-1.33333,0,0,1.33333,1019.65,-165.077)">
        <path d="M379.2,465.84L413.76,465.84" style="fill:none;fill-rule:nonzero;stroke:black;stroke-width:0.72px;"/>
    </g>
    <g transform="matrix(1.33333,0,0,1.33333,-37.6255,-168.917)">
        <path d="M383.76,470.88L375.84,467.28L383.76,463.68" style="fill:none;fill-rule:nonzero;stroke:black;stroke-width:0.72px;"/>
    </g>
    <g transform="matrix(1.15457,0.666895,0.666895,-1.15457,-299.78,771.774)">
        <path d="M321.852,481.265L335.988,481.265" style="fill:none;fill-rule:nonzero;stroke:black;stroke-width:0.72px;"/>
    </g>
    <g transform="matrix(1.15468,-0.666702,-0.666702,-1.15468,338.4,1200.9)">
        <path d="M304.216,479.82L324.134,479.82" style="fill:none;fill-rule:nonzero;stroke:black;stroke-width:0.72px;"/>
    </g>
    <g transform="matrix(0,-1.33333,-1.33333,0,993.054,861.283)">
        <path d="M298.17,467.46L312.93,467.46" style="fill:none;fill-rule:nonzero;stroke:black;stroke-width:0.72px;"/>
    </g>
    <g transform="matrix(0,-1.33333,-1.33333,0,988.574,856.803)">
        <path d="M294.81,467.46L309.57,467.46" style="fill:none;fill-rule:nonzero;stroke:black;stroke-width:0.72px;"/>
    </g>
    <g transform="matrix(0,-1.33333,-1.33333,0,1051.33,853.483)">
        <path d="M317.04,492.24L331.92,492.24" style="fill:none;fill-rule:nonzero;stroke:black;stroke-width:0.72px;"/>
    </g>
    <g transform="matrix(0,-1.33333,-1.33333,0,1046.85,849.003)">
        <path d="M313.68,492.24L328.56,492.24" style="fill:none;fill-rule:nonzero;stroke:black;stroke-width:0.72px;"/>
    </g>
    <g transform="matrix(1.15496,-0.66621,-0.66621,-1.15496,344.253,1223.89)">
        <path d="M344.287,479.845L353.153,479.845" style="fill:none;fill-rule:nonzero;stroke:black;stroke-width:0.72px;"/>
    </g>
    <g transform="matrix(-1.15487,0.666381,0.666381,1.15487,401.004,-239.896)">
        <path d="M292.188,449.845L301.332,449.845" style="fill:none;fill-rule:nonzero;stroke:black;stroke-width:0.72px;"/>
    </g>
    <g transform="matrix(-1.15485,-0.666401,-0.666401,1.15485,750.971,43.2226)">
        <path d="M184.537,466.93L199.223,466.93" style="fill:none;fill-rule:nonzero;stroke:black;stroke-width:0.72px;"/>
    </g>
    <g transform="matrix(-1.15468,0.666702,0.666702,1.15468,164.881,-225.742)">
        <path d="M196.906,468.24L216.824,468.24" style="fill:none;fill-rule:nonzero;stroke:black;stroke-width:0.72px;"/>
    </g>
    <g transform="matrix(-1.15458,0.666876,0.666876,1.15458,158.658,-231.851)">
        <path d="M196.888,471.15L213.482,471.15" style="fill:none;fill-rule:nonzero;stroke:black;stroke-width:0.72px;"/>
    </g>
    <g transform="matrix(1.15481,0.666483,0.666483,-1.15481,-311.025,845.535)">
        <path d="M214.523,469.61L228.967,469.61" style="fill:none;fill-rule:nonzero;stroke:black;stroke-width:0.72px;"/>
    </g>
    <g transform="matrix(0,-1.33333,-1.33333,0,890.454,723.723)">
        <path d="M208.14,480.57L222.84,480.57" style="fill:none;fill-rule:nonzero;stroke:black;stroke-width:0.72px;"/>
    </g>
    <g transform="matrix(1.33333,0,0,1.33333,-37.6255,-186.197)">
        <path d="M121.44,473.76L155.52,473.76" style="fill:none;fill-rule:nonzero;stroke:black;stroke-width:0.72px;"/>
    </g>
    <g transform="matrix(1.2958,0.314133,0.314133,-1.2958,-180.761,1011.77)">
        <path d="M147.259,474.693L155.409,474.693L148.164,470.961L149.111,473.166L147.259,474.693Z" style="stroke:black;stroke-width:0.72px;"/>
    </g>
    <g transform="matrix(-1.2958,0.314133,0.314133,1.2958,143.244,-207.808)">
        <path d="M121.099,472.827L129.249,472.827L122.004,476.559L122.951,474.354L121.099,472.827Z" style="stroke:black;stroke-width:0.72px;"/>
    </g>
    <g transform="matrix(-1.15477,-0.666542,-0.666542,1.15477,420.503,-50.0422)">
        <path d="M53.849,468.725L63.271,468.725" style="fill:none;fill-rule:nonzero;stroke:black;stroke-width:0.72px;"/>
    </g>
    <g transform="matrix(-1.15278,0.669989,0.669989,1.15278,-146.274,-155.851)">
        <path d="M83.188,473.36L84.542,473.36" style="fill:none;fill-rule:nonzero;stroke:black;stroke-width:0.72px;"/>
    </g>
    <g transform="matrix(1.15481,0.666483,0.666483,-1.15481,-334.739,932.786)">
        <path d="M83.483,470.09L97.927,470.09" style="fill:none;fill-rule:nonzero;stroke:black;stroke-width:0.72px;"/>
    </g>
    <g transform="matrix(0,-1.33333,-1.33333,0,718.614,550.603)">
        <path d="M78.78,481.05L93.48,481.05" style="fill:none;fill-rule:nonzero;stroke:black;stroke-width:0.72px;"/>
    </g>
    <g transform="matrix(0,-1.33333,-1.33333,0,714.134,546.123)">
        <path d="M75.42,481.05L90.12,481.05" style="fill:none;fill-rule:nonzero;stroke:black;stroke-width:0.72px;"/>
    </g>
    <g transform="matrix(1.33333,0,0,1.33333,-37.6255,-190.997)">
        <path d="M32.88,449.76L40.08,449.76L40.08,450.24L34.32,450.24L34.32,500.88L40.08,500.88L40.08,501.36L32.88,501.36L32.88,449.76Z" style="stroke:black;stroke-width:0.02px;"/>
    </g>
    <g transform="matrix(1.33333,0,0,1.33333,-37.6255,-190.997)">
        <path d="M254.88,449.76L247.68,449.76L247.68,450.24L253.44,450.24L253.44,500.88L247.68,500.88L247.68,501.36L254.88,501.36L254.88,449.76Z" style="stroke:black;stroke-width:0.02px;"/>
    </g>
    <g transform="matrix(0,1.33333,1.33333,0,-424.666,322.123)">
        <path d="M121.08,428.28L154.92,428.28" style="fill:none;fill-rule:nonzero;stroke:black;stroke-width:0.72px;"/>
    </g>
    <g transform="matrix(0,1.33333,1.33333,0,-420.826,318.283)">
        <path d="M123.96,428.28L157.8,428.28" style="fill:none;fill-rule:nonzero;stroke:black;stroke-width:0.72px;"/>
    </g>
    <g transform="matrix(1.33333,0,0,1.33333,-37.6255,-21.3974)">
        <path d="M143.04,408L139.44,415.92L135.84,408" style="fill:none;fill-rule:nonzero;stroke:black;stroke-width:0.72px;"/>
    </g>
    <g transform="matrix(-1.15485,-0.666401,-0.666401,1.15485,497.002,245.923)">
        <path d="M109.657,365.41L124.343,365.41" style="fill:none;fill-rule:nonzero;stroke:black;stroke-width:0.72px;"/>
    </g>
    <g transform="matrix(-1.15468,0.666702,0.666702,1.15468,46.2619,76.7637)">
        <path d="M122.026,366.72L141.944,366.72" style="fill:none;fill-rule:nonzero;stroke:black;stroke-width:0.72px;"/>
    </g>
    <g transform="matrix(1.15481,0.666483,0.666483,-1.15481,-256.732,913.566)">
        <path d="M139.643,368.09L154.087,368.09" style="fill:none;fill-rule:nonzero;stroke:black;stroke-width:0.72px;"/>
    </g>
    <g transform="matrix(0,-1.33333,-1.33333,0,657.494,761.483)">
        <path d="M134.94,379.05L149.64,379.05" style="fill:none;fill-rule:nonzero;stroke:black;stroke-width:0.72px;"/>
    </g>
    <g transform="matrix(0,-1.33333,-1.33333,0,653.014,757.003)">
        <path d="M131.58,379.05L146.28,379.05" style="fill:none;fill-rule:nonzero;stroke:black;stroke-width:0.72px;"/>
    </g>
</svg>
