<?xml version="1.0" encoding="UTF-8" standalone="no"?>
<!DOCTYPE svg PUBLIC "-//W3C//DTD SVG 1.1//EN" "http://www.w3.org/Graphics/SVG/1.1/DTD/svg11.dtd">
<svg width="100%" height="100%" viewBox="0 0 710 460" version="1.1" xmlns="http://www.w3.org/2000/svg" xmlns:xlink="http://www.w3.org/1999/xlink" xml:space="preserve" xmlns:serif="http://www.serif.com/" style="fill-rule:evenodd;clip-rule:evenodd;stroke-linecap:round;stroke-linejoin:round;stroke-miterlimit:10;">
    <g transform="matrix(1.33333,0,0,1.33333,-75.6022,-60.5574)">
        <text x="74.4px" y="57.6px" style="font-family:'ArialMT', 'Arial', sans-serif;font-size:10px;">O</text>
    </g>
    <g transform="matrix(1.33333,0,0,1.33333,-75.6022,-60.5574)">
        <text x="110.16px" y="92.64px" style="font-family:'ArialMT', 'Arial', sans-serif;font-size:18px;">+</text>
    </g>
    <g transform="matrix(1.33333,0,0,1.33333,-75.6022,-60.5574)">
        <text x="163.68px" y="88.56px" style="font-family:'ArialMT', 'Arial', sans-serif;font-size:10px;">O</text>
    </g>
    <g transform="matrix(1.33333,0,0,1.33333,-75.6022,-60.5574)">
        <text x="147.6px" y="57.12px" style="font-family:'ArialMT', 'Arial', sans-serif;font-size:10px;">O</text>
    </g>
    <g transform="matrix(1.33333,0,0,1.33333,-75.6022,-60.5574)">
        <text x="182.88px" y="82.56px" style="font-family:'ArialMT', 'Arial', sans-serif;font-size:10px;">CH</text>
        <text x="197.28px" y="85.2px" style="font-family:'ArialMT', 'Arial', sans-serif;font-size:8px;">3</text>
    </g>
    <g transform="matrix(1.33333,0,0,1.33333,-75.6022,-60.5574)">
        <text x="124.08px" y="122.4px" style="font-family:'ArialMT', 'Arial', sans-serif;font-size:10px;">O</text>
    </g>
    <g transform="matrix(1.33333,0,0,1.33333,-75.6022,-60.5574)">
        <text x="156.96px" y="111.84px" style="font-family:'ArialMT', 'Arial', sans-serif;font-size:10px;">O</text>
        <text x="163.44px" y="130.8px" style="font-family:'ArialMT', 'Arial', sans-serif;font-size:10px;">CH</text>
        <text x="177.84px" y="133.44px" style="font-family:'ArialMT', 'Arial', sans-serif;font-size:8px;">3</text>
    </g>
    <g transform="matrix(1.33333,0,0,1.33333,-75.6022,-60.5574)">
        <text x="295.2px" y="125.28px" style="font-family:'ArialMT', 'Arial', sans-serif;font-size:10px;">O</text>
    </g>
    <g transform="matrix(1.33333,0,0,1.33333,-75.6022,-60.5574)">
        <text x="354.72px" y="119.04px" style="font-family:'ArialMT', 'Arial', sans-serif;font-size:10px;">O</text>
    </g>
    <g transform="matrix(1.33333,0,0,1.33333,-75.6022,-60.5574)">
        <text x="326.88px" y="139.44px" style="font-family:'ArialMT', 'Arial', sans-serif;font-size:10px;">O</text>
    </g>
    <g transform="matrix(1.33333,0,0,1.33333,-75.6022,-60.5574)">
        <text x="351.12px" y="84.72px" style="font-family:'ArialMT', 'Arial', sans-serif;font-size:10px;">O</text>
    </g>
    <g transform="matrix(1.33333,0,0,1.33333,-75.6022,-60.5574)">
        <text x="374.88px" y="117.12px" style="font-family:'ArialMT', 'Arial', sans-serif;font-size:10px;">CH</text>
        <text x="389.28px" y="119.76px" style="font-family:'ArialMT', 'Arial', sans-serif;font-size:8px;">3</text>
    </g>
    <g transform="matrix(1.33333,0,0,1.33333,-75.6022,-60.5574)">
        <text x="318.96px" y="157.44px" style="font-family:'ArialMT', 'Arial', sans-serif;font-size:10px;">C</text>
    </g>
    <g transform="matrix(1.33333,0,0,1.33333,-75.6022,-60.5574)">
        <text x="307.44px" y="157.44px" style="font-family:'ArialMT', 'Arial', sans-serif;font-size:10px;">H</text>
        <text x="314.64px" y="160.08px" style="font-family:'ArialMT', 'Arial', sans-serif;font-size:8px;">3</text>
    </g>
    <g transform="matrix(1.33333,0,0,1.33333,-75.6022,-60.5574)">
        <text x="408.48px" y="78.24px" style="font-family:'ArialMT', 'Arial', sans-serif;font-size:10px;">1</text>
        <text x="413.999px" y="78.24px" style="font-family:'ArialMT', 'Arial', sans-serif;font-size:10px;">)</text>
        <text x="420.272px" y="78.24px" style="font-family:'ArialMT', 'Arial', sans-serif;font-size:10px;">H</text>
        <text x="427.482px" y="73.2px" style="font-family:'ArialMT', 'Arial', sans-serif;font-size:6px;">+</text>
        <text x="433.967px" y="78.24px" style="font-family:'ArialMT', 'Arial', sans-serif;font-size:10px;"><tspan x="433.967px " y="78.24px ">;</tspan></text>
        <text x="439.835px" y="78.24px" style="font-family:'ArialMT', 'Arial', sans-serif;font-size:10px;">H</text>
        <text x="447.034px" y="80.88px" style="font-family:'ArialMT', 'Arial', sans-serif;font-size:6px;">2</text>
        <text x="450.633px" y="78.24px" style="font-family:'ArialMT', 'Arial', sans-serif;font-size:10px;">O</text>
        <text x="408.96px" y="101.28px" style="font-family:'ArialMT', 'Arial', sans-serif;font-size:10px;">2</text>
        <text x="414.48px" y="101.28px" style="font-family:'ArialMT', 'Arial', sans-serif;font-size:10px;">)</text>
        <text x="420.752px" y="101.28px" style="font-family:'ArialMT', 'Arial', sans-serif;font-size:10px;">t</text>
        <text x="423.632px" y="96.24px" style="font-family:'ArialMT', 'Arial', sans-serif;font-size:6px;">o</text>
    </g>
    <g transform="matrix(1.33333,0,0,1.33333,-75.6022,-60.5574)">
        <text x="504.96px" y="56.88px" style="font-family:'ArialMT', 'Arial', sans-serif;font-size:10px;">O</text>
    </g>
    <g transform="matrix(1.33333,0,0,1.33333,-75.6022,-60.5574)">
        <text x="558px" y="137.52px" style="font-family:'ArialMT', 'Arial', sans-serif;font-size:10px;">O<tspan x="565.92px " y="137.52px ">H</tspan></text>
    </g>
    <g transform="matrix(1.33333,0,0,1.33333,-75.6022,-60.5574)">
        <text x="554.4px" y="103.2px" style="font-family:'ArialMT', 'Arial', sans-serif;font-size:10px;">O</text>
    </g>
    <g transform="matrix(1.33333,0,0,1.33333,-75.6022,-60.5574)">
        <text x="499.2px" y="178.08px" style="font-family:'ArialMT', 'Arial', sans-serif;font-size:10px;">H</text>
        <text x="506.4px" y="173.04px" style="font-family:'ArialMT', 'Arial', sans-serif;font-size:6px;">+</text>
    </g>
    <g transform="matrix(1.33333,0,0,1.33333,-75.6022,-60.5574)">
        <text x="538.08px" y="156.48px" style="font-family:'ArialMT', 'Arial', sans-serif;font-size:10px;">CH</text>
        <text x="552.48px" y="159.12px" style="font-family:'ArialMT', 'Arial', sans-serif;font-size:8px;">3</text>
        <text x="538.08px" y="196.32px" style="font-family:'ArialMT', 'Arial', sans-serif;font-size:10px;">CH</text>
        <text x="552.48px" y="198.96px" style="font-family:'ArialMT', 'Arial', sans-serif;font-size:8px;">3</text>
    </g>
    <g transform="matrix(1.33333,0,0,1.33333,-75.6022,-60.5574)">
        <text x="508.32px" y="238.8px" style="font-family:'ArialMT', 'Arial', sans-serif;font-size:10px;">O</text>
    </g>
    <g transform="matrix(1.33333,0,0,1.33333,-75.6022,-60.5574)">
        <text x="472.8px" y="238.8px" style="font-family:'ArialMT', 'Arial', sans-serif;font-size:10px;">O</text>
    </g>
    <g transform="matrix(1.33333,0,0,1.33333,-75.6022,-60.5574)">
        <text x="543.6px" y="308.64px" style="font-family:'ArialMT', 'Arial', sans-serif;font-size:10px;">O</text>
    </g>
    <g transform="matrix(1.33333,0,0,1.33333,-75.6022,-60.5574)">
        <text x="540px" y="274.32px" style="font-family:'ArialMT', 'Arial', sans-serif;font-size:10px;">O</text>
    </g>
    <g transform="matrix(1.33333,0,0,1.33333,-75.6022,-60.5574)">
        <text x="535.68px" y="326.88px" style="font-family:'ArialMT', 'Arial', sans-serif;font-size:10px;">H</text>
    </g>
    <g transform="matrix(1.33333,0,0,1.33333,-75.6022,-60.5574)">
        <text x="419.52px" y="247.2px" style="font-family:'ArialMT', 'Arial', sans-serif;font-size:10px;">L</text>
        <text x="425.04px" y="247.2px" style="font-family:'ArialMT', 'Arial', sans-serif;font-size:10px;">i</text>
        <text x="427.44px" y="247.2px" style="font-family:'ArialMT', 'Arial', sans-serif;font-size:10px;">A</text>
        <text x="434.16px" y="247.2px" style="font-family:'ArialMT', 'Arial', sans-serif;font-size:10px;">l</text>
        <text x="436.56px" y="247.2px" style="font-family:'ArialMT', 'Arial', sans-serif;font-size:10px;">H</text>
        <text x="443.76px" y="249.84px" style="font-family:'ArialMT', 'Arial', sans-serif;font-size:6px;">4</text>
    </g>
    <g transform="matrix(1.33333,0,0,1.33333,-75.6022,-60.5574)">
        <text x="372.24px" y="238.32px" style="font-family:'ArialMT', 'Arial', sans-serif;font-size:10px;">O</text>
    </g>
    <g transform="matrix(1.33333,0,0,1.33333,-75.6022,-60.5574)">
        <text x="336.72px" y="238.32px" style="font-family:'ArialMT', 'Arial', sans-serif;font-size:10px;">O</text>
    </g>
    <g transform="matrix(1.33333,0,0,1.33333,-75.6022,-60.5574)">
        <text x="395.76px" y="292.08px" style="font-family:'ArialMT', 'Arial', sans-serif;font-size:10px;">O<tspan x="403.68px " y="292.08px ">H</tspan></text>
    </g>
    <g transform="matrix(1.33333,0,0,1.33333,-75.6022,-60.5574)">
        <text x="159.36px" y="258.24px" style="font-family:'ArialMT', 'Arial', sans-serif;font-size:10px;">O</text>
    </g>
    <g transform="matrix(1.33333,0,0,1.33333,-75.6022,-60.5574)">
        <text x="167.76px" y="240px" style="font-family:'ArialMT', 'Arial', sans-serif;font-size:10px;">H</text>
    </g>
    <g transform="matrix(1.33333,0,0,1.33333,-75.6022,-60.5574)">
        <text x="191.04px" y="272.4px" style="font-family:'ArialMT', 'Arial', sans-serif;font-size:10px;">O</text>
    </g>
    <g transform="matrix(1.33333,0,0,1.33333,-75.6022,-60.5574)">
        <text x="121.68px" y="228px" style="font-family:'ArialMT', 'Arial', sans-serif;font-size:10px;">O</text>
    </g>
    <g transform="matrix(1.33333,0,0,1.33333,-75.6022,-60.5574)">
        <text x="88.08px" y="340.32px" style="font-family:'ArialMT', 'Arial', sans-serif;font-size:10px;">1</text>
        <text x="93.599px" y="340.32px" style="font-family:'ArialMT', 'Arial', sans-serif;font-size:10px;">) <tspan x="99.887px " y="340.32px ">E</tspan></text>
        <text x="106.596px" y="340.32px" style="font-family:'ArialMT', 'Arial', sans-serif;font-size:10px;">t<tspan x="109.495px " y="340.32px ">O</tspan></text>
        <text x="117.395px" y="340.32px" style="font-family:'ArialMT', 'Arial', sans-serif;font-size:10px;">H</text>
        <text x="127.448px" y="340.32px" style="font-family:'ArialMT', 'Arial', sans-serif;font-size:10px;">;</text>
        <text x="133.309px" y="340.32px" style="font-family:'ArialMT', 'Arial', sans-serif;font-size:10px;">H</text>
        <text x="140.509px" y="335.28px" style="font-family:'ArialMT', 'Arial', sans-serif;font-size:6px;">+</text>
        <text x="156.48px" y="339.6px" style="font-family:'ArialMT', 'Arial', sans-serif;font-size:10px;"><tspan x="156.48px " y="339.6px ">2</tspan></text>
        <text x="162.02px" y="339.6px" style="font-family:'ArialMT', 'Arial', sans-serif;font-size:10px;">) <tspan x="168.307px " y="339.6px ">E</tspan></text>
        <text x="175.017px" y="339.6px" style="font-family:'ArialMT', 'Arial', sans-serif;font-size:10px;">t<tspan x="177.916px " y="339.6px ">O</tspan></text>
        <text x="185.815px" y="339.6px" style="font-family:'ArialMT', 'Arial', sans-serif;font-size:10px;">Na</text>
    </g>
    <g transform="matrix(1.33333,0,0,1.33333,-75.6022,-60.5574)">
        <text x="142.32px" y="384px" style="font-family:'ArialMT', 'Arial', sans-serif;font-size:10px;">T<tspan x="148.56px " y="384px ">M</tspan></text>
    </g>
    <g transform="matrix(1.33333,0,0,1.33333,-75.6022,-60.5574)">
        <text x="234.24px" y="77.28px" style="font-family:'ArialMT', 'Arial', sans-serif;font-size:10px;">Et<tspan x="243.884px " y="77.28px ">O</tspan></text>
        <text x="251.76px" y="72.24px" style="font-family:'ArialMT', 'Arial', sans-serif;font-size:6px;">-</text>
    </g>
    <g transform="matrix(1.33333,0,0,1.33333,-75.6022,-60.5574)">
        <text x="240.24px" y="249.6px" style="font-family:'ArialMT', 'Arial', sans-serif;font-size:10px;">1</text>
        <text x="245.76px" y="249.6px" style="font-family:'ArialMT', 'Arial', sans-serif;font-size:10px;">)</text>
        <text x="251.848px" y="249.6px" style="font-family:'ArialMT', 'Arial', sans-serif;font-size:10px;">T</text>
        <text x="258.088px" y="249.6px" style="font-family:'ArialMT', 'Arial', sans-serif;font-size:10px;">s</text>
        <text x="262.888px" y="249.6px" style="font-family:'ArialMT', 'Arial', sans-serif;font-size:10px;">C</text>
        <text x="270.088px" y="249.6px" style="font-family:'ArialMT', 'Arial', sans-serif;font-size:10px;">l<tspan x="272.479px 275.54px " y="249.6px 249.6px "> +</tspan></text>
        <text x="284.609px" y="249.6px" style="font-family:'ArialMT', 'Arial', sans-serif;font-size:10px;">Py</text>
        <text x="240.48px" y="270px" style="font-family:'ArialMT', 'Arial', sans-serif;font-size:10px;">2</text>
        <text x="246px" y="270px" style="font-family:'ArialMT', 'Arial', sans-serif;font-size:10px;">) <tspan x="252.283px " y="270px ">K</tspan></text>
        <text x="258.993px" y="270px" style="font-family:'ArialMT', 'Arial', sans-serif;font-size:10px;">CN</text>
        <text x="240.48px" y="282.96px" style="font-family:'ArialMT', 'Arial', sans-serif;font-size:10px;">3</text>
        <text x="245.979px" y="282.96px" style="font-family:'ArialMT', 'Arial', sans-serif;font-size:10px;">)</text>
        <text x="252.218px" y="282.96px" style="font-family:'ArialMT', 'Arial', sans-serif;font-size:10px;">H</text>
        <text x="259.397px" y="285.6px" style="font-family:'ArialMT', 'Arial', sans-serif;font-size:6px;">2</text>
        <text x="262.984px" y="282.96px" style="font-family:'ArialMT', 'Arial', sans-serif;font-size:10px;">O<tspan x="270.883px 273.899px " y="282.96px 282.96px "> ;</tspan></text>
        <text x="279.814px" y="282.96px" style="font-family:'ArialMT', 'Arial', sans-serif;font-size:10px;">H</text>
        <text x="286.993px" y="277.92px" style="font-family:'ArialMT', 'Arial', sans-serif;font-size:6px;">+</text>
    </g>
    <g transform="matrix(-1.07962,0.782437,0.782437,1.07962,-502.94,-833.04)">
        <path d="M60.225,762.605L80.145,762.605" style="fill:none;fill-rule:nonzero;stroke:black;stroke-width:0.72px;"/>
    </g>
    <g transform="matrix(-0.410979,-1.26841,-1.26841,0.410979,985.976,-158.808)">
        <path d="M55.23,747.285L75.15,747.285" style="fill:none;fill-rule:nonzero;stroke:black;stroke-width:0.72px;"/>
    </g>
    <g transform="matrix(-1.0782,-0.784388,-0.784388,1.0782,730.692,-709.311)">
        <path d="M76.344,762.59L96.266,762.59" style="fill:none;fill-rule:nonzero;stroke:black;stroke-width:0.72px;"/>
    </g>
    <g transform="matrix(-1.33333,-0.00133802,-0.00133802,1.33333,133.985,-905.359)">
        <path d="M68.26,737.8L88.19,737.8" style="fill:none;fill-rule:nonzero;stroke:black;stroke-width:0.72px;"/>
    </g>
    <g transform="matrix(0.412993,-1.26776,-1.26776,-0.412993,955.748,489.984)">
        <path d="M81.315,747.26L101.235,747.26" style="fill:none;fill-rule:nonzero;stroke:black;stroke-width:0.72px;"/>
    </g>
    <g transform="matrix(0.412499,-1.26792,-1.26792,-0.412499,954.279,484.619)">
        <path d="M80.624,748.295L95.526,748.295" style="fill:none;fill-rule:nonzero;stroke:black;stroke-width:0.72px;"/>
    </g>
    <g transform="matrix(0.000908884,-1.33333,-1.33333,-0.000908884,1065.28,134.908)">
        <path d="M72.6,775.785L87.27,775.785" style="fill:none;fill-rule:nonzero;stroke:black;stroke-width:0.72px;"/>
    </g>
    <g transform="matrix(0.000908884,-1.33333,-1.33333,-0.000908884,1060.81,130.428)">
        <path d="M69.24,775.785L83.91,775.785" style="fill:none;fill-rule:nonzero;stroke:black;stroke-width:0.72px;"/>
    </g>
    <g transform="matrix(-1.07962,0.782437,0.782437,1.07962,-326.687,-891.472)">
        <path d="M133.425,763.085L153.345,763.085" style="fill:none;fill-rule:nonzero;stroke:black;stroke-width:0.72px;"/>
    </g>
    <g transform="matrix(-0.410979,-1.26841,-1.26841,0.410979,1114.27,-66.7976)">
        <path d="M128.43,747.765L148.35,747.765" style="fill:none;fill-rule:nonzero;stroke:black;stroke-width:0.72px;"/>
    </g>
    <g transform="matrix(-1.07815,-0.784456,-0.784456,1.07815,903.181,-659.145)">
        <path d="M150.116,764.83L164.054,764.83" style="fill:none;fill-rule:nonzero;stroke:black;stroke-width:0.72px;"/>
    </g>
    <g transform="matrix(0.000908884,-1.33333,-1.33333,-0.000908884,1163.46,231.868)">
        <path d="M145.8,776.265L160.47,776.265" style="fill:none;fill-rule:nonzero;stroke:black;stroke-width:0.72px;"/>
    </g>
    <g transform="matrix(0.000908884,-1.33333,-1.33333,-0.000908884,1158.98,227.388)">
        <path d="M142.44,776.265L157.11,776.265" style="fill:none;fill-rule:nonzero;stroke:black;stroke-width:0.72px;"/>
    </g>
    <g transform="matrix(1.26852,-0.410644,-0.410644,-1.26852,248.116,1085.51)">
        <path d="M172.321,760.345L182.159,760.345" style="fill:none;fill-rule:nonzero;stroke:black;stroke-width:0.72px;"/>
    </g>
    <g transform="matrix(-0.893323,0.989824,0.989824,0.893323,-500.758,-706.401)">
        <path d="M128.106,734.025L142.614,734.025" style="fill:none;fill-rule:nonzero;stroke:black;stroke-width:0.72px;"/>
    </g>
    <g transform="matrix(-0.893015,0.990102,0.990102,0.893015,-493.246,-703.61)">
        <path d="M130.556,731.755L145.114,731.755" style="fill:none;fill-rule:nonzero;stroke:black;stroke-width:0.72px;"/>
    </g>
    <g transform="matrix(1.30384,0.278882,0.278882,-1.30384,-276.678,998.797)">
        <path d="M141.296,736.735L156.164,736.735" style="fill:none;fill-rule:nonzero;stroke:black;stroke-width:0.72px;"/>
    </g>
    <g transform="matrix(0.411052,1.26839,1.26839,-0.411052,-843.336,185.688)">
        <path d="M159.499,724.56L168.581,724.56" style="fill:none;fill-rule:nonzero;stroke:black;stroke-width:0.72px;"/>
    </g>
    <g transform="matrix(1.33333,0,0,1.33333,-75.6022,-955.917)">
        <path d="M215.52,756.72L272.4,756.72" style="fill:none;fill-rule:nonzero;stroke:black;stroke-width:0.72px;"/>
    </g>
    <g transform="matrix(1.2958,0.314133,0.314133,-1.2958,-303.238,949.275)">
        <path d="M264.139,757.653L272.289,757.653L265.044,753.921L265.991,756.126L264.139,757.653Z" style="stroke:black;stroke-width:0.72px;"/>
    </g>
    <g transform="matrix(-1.07962,0.782437,0.782437,1.07962,30.4525,-1057.2)">
        <path d="M287.505,781.805L307.425,781.805" style="fill:none;fill-rule:nonzero;stroke:black;stroke-width:0.72px;"/>
    </g>
    <g transform="matrix(-0.410979,-1.26841,-1.26841,0.410979,1406.78,95.986)">
        <path d="M282.51,766.485L302.43,766.485" style="fill:none;fill-rule:nonzero;stroke:black;stroke-width:0.72px;"/>
    </g>
    <g transform="matrix(-1.0782,-0.784388,-0.784388,1.0782,1293.84,-577.337)">
        <path d="M303.624,781.79L323.546,781.79" style="fill:none;fill-rule:nonzero;stroke:black;stroke-width:0.72px;"/>
    </g>
    <g transform="matrix(-1.33333,-0.00133802,-0.00133802,1.33333,740.09,-956.255)">
        <path d="M295.54,757L315.47,757" style="fill:none;fill-rule:nonzero;stroke:black;stroke-width:0.72px;"/>
    </g>
    <g transform="matrix(0.412993,-1.26776,-1.26776,-0.412993,1189.26,760.449)">
        <path d="M308.595,766.46L328.515,766.46" style="fill:none;fill-rule:nonzero;stroke:black;stroke-width:0.72px;"/>
    </g>
    <g transform="matrix(0.782437,1.07962,1.07962,-0.782437,-707.142,302.526)">
        <path d="M311.355,748.925L331.275,748.925" style="fill:none;fill-rule:nonzero;stroke:black;stroke-width:0.72px;"/>
    </g>
    <g transform="matrix(-0.543505,1.21753,1.21753,0.543505,-360.142,-704.786)">
        <path d="M313.14,731.765L333.06,731.765" style="fill:none;fill-rule:nonzero;stroke:black;stroke-width:0.72px;"/>
    </g>
    <g transform="matrix(1.32611,-0.138569,-0.138569,-1.32611,29.6351,1103.35)">
        <path d="M327.106,741.895L347.024,741.895" style="fill:none;fill-rule:nonzero;stroke:black;stroke-width:0.72px;"/>
    </g>
    <g transform="matrix(-1.32616,0.138086,0.138086,1.32616,652.85,-905.34)">
        <path d="M304.04,723.57L318.91,723.57" style="fill:none;fill-rule:nonzero;stroke:black;stroke-width:0.72px;"/>
    </g>
    <g transform="matrix(-1.32613,0.138394,0.138394,1.32613,653.547,-896.501)">
        <path d="M304.039,720.21L319.261,720.21" style="fill:none;fill-rule:nonzero;stroke:black;stroke-width:0.72px;"/>
    </g>
    <g transform="matrix(0.782996,1.07921,1.07921,-0.782996,-678.35,277.415)">
        <path d="M344.183,737.465L357.687,737.465" style="fill:none;fill-rule:nonzero;stroke:black;stroke-width:0.72px;"/>
    </g>
    <g transform="matrix(0.783533,1.07882,1.07882,-0.783533,-671.644,319.198)">
        <path d="M316.219,717.135L329.901,717.135" style="fill:none;fill-rule:nonzero;stroke:black;stroke-width:0.72px;"/>
    </g>
    <g transform="matrix(0.543653,-1.21746,-1.21746,-0.543653,1114.07,898.469)">
        <path d="M344.051,749.125L359.109,749.125" style="fill:none;fill-rule:nonzero;stroke:black;stroke-width:0.72px;"/>
    </g>
    <g transform="matrix(0.543432,-1.21756,-1.21756,-0.543432,1112.38,893.692)">
        <path d="M341.421,749.805L354.989,749.805" style="fill:none;fill-rule:nonzero;stroke:black;stroke-width:0.72px;"/>
    </g>
    <g transform="matrix(1.32609,-0.138777,-0.138777,-1.32609,28.0785,1107.91)">
        <path d="M363.572,727.86L373.948,727.86" style="fill:none;fill-rule:nonzero;stroke:black;stroke-width:0.72px;"/>
    </g>
    <g transform="matrix(-0.543723,1.21743,1.21743,0.543723,-311.501,-644.837)">
        <path d="M322.469,697.44L330.881,697.44" style="fill:none;fill-rule:nonzero;stroke:black;stroke-width:0.72px;"/>
    </g>
    <g transform="matrix(1.33333,0,0,1.33333,-75.6022,-955.277)">
        <path d="M402.48,756.48L474.96,756.48" style="fill:none;fill-rule:nonzero;stroke:black;stroke-width:0.72px;"/>
    </g>
    <g transform="matrix(1.2958,0.314133,0.314133,-1.2958,-295.56,885.653)">
        <path d="M466.699,757.413L474.849,757.413L467.604,753.681L468.551,755.886L466.699,757.413Z" style="stroke:black;stroke-width:0.72px;"/>
    </g>
    <g transform="matrix(-1.07962,0.782437,0.782437,1.07962,535.416,-1171.66)">
        <path d="M490.785,763.325L510.705,763.325" style="fill:none;fill-rule:nonzero;stroke:black;stroke-width:0.72px;"/>
    </g>
    <g transform="matrix(-0.410979,-1.26841,-1.26841,0.410979,1737.92,386.064)">
        <path d="M485.79,748.005L505.71,748.005" style="fill:none;fill-rule:nonzero;stroke:black;stroke-width:0.72px;"/>
    </g>
    <g transform="matrix(-1.0782,-0.784388,-0.784388,1.0782,1769.57,-373.321)">
        <path d="M506.904,763.31L526.826,763.31" style="fill:none;fill-rule:nonzero;stroke:black;stroke-width:0.72px;"/>
    </g>
    <g transform="matrix(-1.33333,-0.00133802,-0.00133802,1.33333,1282.15,-906.703)">
        <path d="M498.82,738.52L518.75,738.52" style="fill:none;fill-rule:nonzero;stroke:black;stroke-width:0.72px;"/>
    </g>
    <g transform="matrix(0.412993,-1.26776,-1.26776,-0.412993,1352.92,1035.17)">
        <path d="M511.875,747.98L531.795,747.98" style="fill:none;fill-rule:nonzero;stroke:black;stroke-width:0.72px;"/>
    </g>
    <g transform="matrix(0.000908884,-1.33333,-1.33333,-0.000908884,1639.93,708.028)">
        <path d="M503.16,776.505L517.83,776.505" style="fill:none;fill-rule:nonzero;stroke:black;stroke-width:0.72px;"/>
    </g>
    <g transform="matrix(0.000908884,-1.33333,-1.33333,-0.000908884,1635.46,703.548)">
        <path d="M499.8,776.505L514.47,776.505" style="fill:none;fill-rule:nonzero;stroke:black;stroke-width:0.72px;"/>
    </g>
    <g transform="matrix(0.782437,1.07962,1.07962,-0.782437,-575.205,93.2421)">
        <path d="M514.635,730.445L534.555,730.445" style="fill:none;fill-rule:nonzero;stroke:black;stroke-width:0.72px;"/>
    </g>
    <g transform="matrix(1.32611,-0.138569,-0.138569,-1.32611,28.5421,1131.65)">
        <path d="M530.386,723.415L550.304,723.415" style="fill:none;fill-rule:nonzero;stroke:black;stroke-width:0.72px;"/>
    </g>
    <g transform="matrix(0.782996,1.07921,1.07921,-0.782996,-546.533,68.2032)">
        <path d="M547.463,718.985L560.967,718.985" style="fill:none;fill-rule:nonzero;stroke:black;stroke-width:0.72px;"/>
    </g>
    <g transform="matrix(0.543653,-1.21746,-1.21746,-0.543653,1252.09,1160.55)">
        <path d="M547.331,730.645L562.389,730.645" style="fill:none;fill-rule:nonzero;stroke:black;stroke-width:0.72px;"/>
    </g>
    <g transform="matrix(0.543432,-1.21756,-1.21756,-0.543432,1250.45,1155.8)">
        <path d="M544.701,731.325L558.269,731.325" style="fill:none;fill-rule:nonzero;stroke:black;stroke-width:0.72px;"/>
    </g>
    <g transform="matrix(0,1.33333,1.33333,0,-277.362,-517.037)">
        <path d="M490.2,667.8L542.76,667.8" style="fill:none;fill-rule:nonzero;stroke:black;stroke-width:0.72px;"/>
    </g>
    <g transform="matrix(-0.314133,1.2958,1.2958,0.314133,-61.1317,-670.659)">
        <path d="M512.179,646.413L520.329,646.413L513.084,642.681L514.031,644.886L512.179,646.413Z" style="stroke:black;stroke-width:0.72px;"/>
    </g>
    <g transform="matrix(0,-1.33333,-1.33333,0,1516.56,868.563)">
        <path d="M514.56,669.6L534.48,669.6" style="fill:none;fill-rule:nonzero;stroke:black;stroke-width:0.72px;"/>
    </g>
    <g transform="matrix(1.15488,-0.66635,-0.66635,-1.15488,474.369,1293.8)">
        <path d="M523.547,683.195L538.093,683.195" style="fill:none;fill-rule:nonzero;stroke:black;stroke-width:0.72px;"/>
    </g>
    <g transform="matrix(1.15488,0.66635,0.66635,-1.15488,-418.006,591.227)">
        <path d="M523.547,656.005L538.093,656.005" style="fill:none;fill-rule:nonzero;stroke:black;stroke-width:0.72px;"/>
    </g>
    <g transform="matrix(-1.07962,0.782437,0.782437,1.07962,634.56,-747.492)">
        <path d="M476.385,592.205L496.305,592.205" style="fill:none;fill-rule:nonzero;stroke:black;stroke-width:0.72px;"/>
    </g>
    <g transform="matrix(-0.410979,-1.26841,-1.26841,0.410979,1495.75,666.286)">
        <path d="M471.39,576.885L491.31,576.885" style="fill:none;fill-rule:nonzero;stroke:black;stroke-width:0.72px;"/>
    </g>
    <g transform="matrix(-1.0782,-0.784388,-0.784388,1.0782,1600.62,28.0449)">
        <path d="M492.504,592.19L512.426,592.19" style="fill:none;fill-rule:nonzero;stroke:black;stroke-width:0.72px;"/>
    </g>
    <g transform="matrix(-1.33333,-0.00133802,-0.00133802,1.33333,1243.52,-450.402)">
        <path d="M484.42,567.4L504.35,567.4" style="fill:none;fill-rule:nonzero;stroke:black;stroke-width:0.72px;"/>
    </g>
    <g transform="matrix(0.412993,-1.26776,-1.26776,-0.412993,1122.73,1174.4)">
        <path d="M497.475,576.86L517.395,576.86" style="fill:none;fill-rule:nonzero;stroke:black;stroke-width:0.72px;"/>
    </g>
    <g transform="matrix(0.00905161,1.3333,1.3333,-0.00905161,-223.585,-441.287)">
        <path d="M504.715,619.605L519.445,619.605" style="fill:none;fill-rule:nonzero;stroke:black;stroke-width:0.72px;"/>
    </g>
    <g transform="matrix(1.18832,-0.604712,-0.604712,-1.18832,360.674,1277.69)">
        <path d="M493.62,601.345L508.15,601.345" style="fill:none;fill-rule:nonzero;stroke:black;stroke-width:0.72px;"/>
    </g>
    <g transform="matrix(-1.18749,-0.606338,-0.606338,1.18749,1519.26,-157.848)">
        <path d="M480.898,601.3L495.192,601.3" style="fill:none;fill-rule:nonzero;stroke:black;stroke-width:0.72px;"/>
    </g>
    <g transform="matrix(0.011743,-1.33328,-1.33328,-0.011743,1380.63,878.794)">
        <path d="M469.395,619.62L484.155,619.62" style="fill:none;fill-rule:nonzero;stroke:black;stroke-width:0.72px;"/>
    </g>
    <g transform="matrix(-1.33333,-0.00113669,-0.00113669,1.33333,1243.6,-609.395)">
        <path d="M476.84,626.985L512.03,626.985" style="fill:none;fill-rule:nonzero;stroke:black;stroke-width:0.72px;"/>
    </g>
    <g transform="matrix(0.782437,1.07962,1.07962,-0.782437,-398.394,203.058)">
        <path d="M500.235,559.325L520.155,559.325" style="fill:none;fill-rule:nonzero;stroke:black;stroke-width:0.72px;"/>
    </g>
    <g transform="matrix(1.32611,-0.138569,-0.138569,-1.32611,4.72616,1130.89)">
        <path d="M515.986,552.295L535.904,552.295" style="fill:none;fill-rule:nonzero;stroke:black;stroke-width:0.72px;"/>
    </g>
    <g transform="matrix(0.782996,1.07921,1.07921,-0.782996,-369.783,177.918)">
        <path d="M533.063,547.865L546.567,547.865" style="fill:none;fill-rule:nonzero;stroke:black;stroke-width:0.72px;"/>
    </g>
    <g transform="matrix(0.543653,-1.21746,-1.21746,-0.543653,1032.39,1278.15)">
        <path d="M532.931,559.525L547.989,559.525" style="fill:none;fill-rule:nonzero;stroke:black;stroke-width:0.72px;"/>
    </g>
    <g transform="matrix(0.543432,-1.21756,-1.21756,-0.543432,1030.73,1273.43)">
        <path d="M530.301,560.205L543.869,560.205" style="fill:none;fill-rule:nonzero;stroke:black;stroke-width:0.72px;"/>
    </g>
    <g transform="matrix(-0.542802,1.21784,1.21784,0.542802,300.9,-590.714)">
        <path d="M539.159,528.12L547.831,528.12" style="fill:none;fill-rule:nonzero;stroke:black;stroke-width:0.72px;"/>
    </g>
    <g transform="matrix(1.33333,0,0,1.33333,-75.6022,-502.797)">
        <path d="M402.96,586.8L459.84,586.8" style="fill:none;fill-rule:nonzero;stroke:black;stroke-width:0.72px;"/>
    </g>
    <g transform="matrix(-1.2958,0.314133,0.314133,1.2958,809.911,-608.6)">
        <path d="M402.619,585.867L410.769,585.867L403.524,589.599L404.471,587.394L402.619,585.867Z" style="stroke:black;stroke-width:0.72px;"/>
    </g>
    <g transform="matrix(-1.07962,0.782437,0.782437,1.07962,305.831,-642.176)">
        <path d="M340.305,592.685L360.225,592.685" style="fill:none;fill-rule:nonzero;stroke:black;stroke-width:0.72px;"/>
    </g>
    <g transform="matrix(-0.410979,-1.26841,-1.26841,0.410979,1258.99,492.843)">
        <path d="M335.31,577.365L355.23,577.365" style="fill:none;fill-rule:nonzero;stroke:black;stroke-width:0.72px;"/>
    </g>
    <g transform="matrix(-1.0782,-0.784388,-0.784388,1.0782,1272.83,-79.8522)">
        <path d="M356.424,592.67L376.346,592.67" style="fill:none;fill-rule:nonzero;stroke:black;stroke-width:0.72px;"/>
    </g>
    <g transform="matrix(-1.33333,-0.00133802,-0.00133802,1.33333,880.637,-451.864)">
        <path d="M348.34,567.88L368.27,567.88" style="fill:none;fill-rule:nonzero;stroke:black;stroke-width:0.72px;"/>
    </g>
    <g transform="matrix(0.412993,-1.26776,-1.26776,-0.412993,998.099,1001.44)">
        <path d="M361.395,577.34L381.315,577.34" style="fill:none;fill-rule:nonzero;stroke:black;stroke-width:0.72px;"/>
    </g>
    <g transform="matrix(0.00905161,1.3333,1.3333,-0.00905161,-404.433,-260.486)">
        <path d="M368.635,620.085L383.365,620.085" style="fill:none;fill-rule:nonzero;stroke:black;stroke-width:0.72px;"/>
    </g>
    <g transform="matrix(1.18832,-0.604712,-0.604712,-1.18832,341.231,1195.33)">
        <path d="M357.54,601.825L372.07,601.825" style="fill:none;fill-rule:nonzero;stroke:black;stroke-width:0.72px;"/>
    </g>
    <g transform="matrix(-1.18749,-0.606338,-0.606338,1.18749,1176.52,-241.569)">
        <path d="M344.818,601.78L359.112,601.78" style="fill:none;fill-rule:nonzero;stroke:black;stroke-width:0.72px;"/>
    </g>
    <g transform="matrix(0.011743,-1.33328,-1.33328,-0.011743,1201.42,696.727)">
        <path d="M333.315,620.1L348.075,620.1" style="fill:none;fill-rule:nonzero;stroke:black;stroke-width:0.72px;"/>
    </g>
    <g transform="matrix(-1.33333,-0.00113669,-0.00113669,1.33333,880.724,-610.83)">
        <path d="M340.76,627.465L375.95,627.465" style="fill:none;fill-rule:nonzero;stroke:black;stroke-width:0.72px;"/>
    </g>
    <g transform="matrix(0.782437,1.07962,1.07962,-0.782437,-473.878,349.708)">
        <path d="M364.155,559.805L384.075,559.805" style="fill:none;fill-rule:nonzero;stroke:black;stroke-width:0.72px;"/>
    </g>
    <g transform="matrix(1.32612,-0.13851,-0.13851,-1.32612,3.721,1111.67)">
        <path d="M379.92,552.515L394.84,552.515" style="fill:none;fill-rule:nonzero;stroke:black;stroke-width:0.72px;"/>
    </g>
    <g transform="matrix(1.33333,0,0,1.33333,-75.6022,-500.877)">
        <path d="M213.12,586.08L323.28,586.08" style="fill:none;fill-rule:nonzero;stroke:black;stroke-width:0.72px;"/>
    </g>
    <g transform="matrix(-1.2958,0.314133,0.314133,1.2958,311.023,-547.072)">
        <path d="M212.779,585.147L220.929,585.147L213.684,588.879L214.631,586.674L212.779,585.147Z" style="stroke:black;stroke-width:0.72px;"/>
    </g>
    <g transform="matrix(-1.07962,0.782437,0.782437,1.07962,-255.528,-458.867)">
        <path d="M107.505,592.205L127.425,592.205" style="fill:none;fill-rule:nonzero;stroke:black;stroke-width:0.72px;"/>
    </g>
    <g transform="matrix(-0.410979,-1.26841,-1.26841,0.410979,852.31,198.393)">
        <path d="M102.51,576.885L122.43,576.885" style="fill:none;fill-rule:nonzero;stroke:black;stroke-width:0.72px;"/>
    </g>
    <g transform="matrix(-1.0782,-0.784388,-0.784388,1.0782,711.049,-261.3)">
        <path d="M123.624,592.19L143.546,592.19" style="fill:none;fill-rule:nonzero;stroke:black;stroke-width:0.72px;"/>
    </g>
    <g transform="matrix(-1.33333,-0.00133802,-0.00133802,1.33333,259.837,-450.896)">
        <path d="M115.54,567.4L135.47,567.4" style="fill:none;fill-rule:nonzero;stroke:black;stroke-width:0.72px;"/>
    </g>
    <g transform="matrix(0.412993,-1.26776,-1.26776,-0.412993,783.236,706.749)">
        <path d="M128.595,576.86L148.515,576.86" style="fill:none;fill-rule:nonzero;stroke:black;stroke-width:0.72px;"/>
    </g>
    <g transform="matrix(0.782437,1.07962,1.07962,-0.782437,-601.608,601.307)">
        <path d="M131.355,559.325L151.275,559.325" style="fill:none;fill-rule:nonzero;stroke:black;stroke-width:0.72px;"/>
    </g>
    <g transform="matrix(1.32611,-0.138569,-0.138569,-1.32611,2.06282,1079.78)">
        <path d="M147.106,552.295L167.024,552.295" style="fill:none;fill-rule:nonzero;stroke:black;stroke-width:0.72px;"/>
    </g>
    <g transform="matrix(0.543505,-1.21753,-1.21753,-0.543505,744.252,826.017)">
        <path d="M161.07,562.425L180.99,562.425" style="fill:none;fill-rule:nonzero;stroke:black;stroke-width:0.72px;"/>
    </g>
    <g transform="matrix(-0.782882,-1.07929,-1.07929,0.782882,909.266,25.6299)">
        <path d="M164.345,577L177.885,577" style="fill:none;fill-rule:nonzero;stroke:black;stroke-width:0.72px;"/>
    </g>
    <g transform="matrix(0.542802,-1.21784,-1.21784,-0.542802,783.545,794.191)">
        <path d="M163.129,596.76L171.801,596.76" style="fill:none;fill-rule:nonzero;stroke:black;stroke-width:0.72px;"/>
    </g>
    <g transform="matrix(1.32609,-0.138787,-0.138787,-1.32609,4.91637,1083.22)">
        <path d="M175.23,570.625L190.12,570.625" style="fill:none;fill-rule:nonzero;stroke:black;stroke-width:0.72px;"/>
    </g>
    <g transform="matrix(1.32615,-0.138214,-0.138214,-1.32615,5.04047,1083.1)">
        <path d="M174.879,573.98L190.121,573.98" style="fill:none;fill-rule:nonzero;stroke:black;stroke-width:0.72px;"/>
    </g>
    <g transform="matrix(0.000908884,-1.33333,-1.33333,-0.000908884,901.082,424.993)">
        <path d="M119.88,605.385L134.55,605.385" style="fill:none;fill-rule:nonzero;stroke:black;stroke-width:0.72px;"/>
    </g>
    <g transform="matrix(0.000908884,-1.33333,-1.33333,-0.000908884,896.605,420.513)">
        <path d="M116.52,605.385L131.19,605.385" style="fill:none;fill-rule:nonzero;stroke:black;stroke-width:0.72px;"/>
    </g>
    <g transform="matrix(0,1.33333,1.33333,0,-547.442,192.083)">
        <path d="M124.44,503.16L174.12,503.16" style="fill:none;fill-rule:nonzero;stroke:black;stroke-width:0.72px;"/>
    </g>
    <g transform="matrix(-0.314133,1.2958,1.2958,0.314133,-454.607,74.0253)">
        <path d="M144.979,483.213L153.129,483.213L145.884,479.481L146.831,481.686L144.979,483.213Z" style="stroke:black;stroke-width:0.72px;"/>
    </g>
</svg>
