<?xml version="1.0" encoding="UTF-8" standalone="no"?>
<!DOCTYPE svg PUBLIC "-//W3C//DTD SVG 1.1//EN" "http://www.w3.org/Graphics/SVG/1.1/DTD/svg11.dtd">
<svg width="100%" height="100%" viewBox="0 0 280 165" version="1.1" xmlns="http://www.w3.org/2000/svg" xmlns:xlink="http://www.w3.org/1999/xlink" xml:space="preserve" xmlns:serif="http://www.serif.com/" style="fill-rule:evenodd;clip-rule:evenodd;stroke-linecap:round;stroke-linejoin:round;stroke-miterlimit:10;">
    <g transform="matrix(1.33333,0,0,1.33333,-135.084,-179.065)">
        <text x="103.68px" y="161.28px" style="font-family:'ArialMT', 'Arial', sans-serif;font-size:10px;">R</text>
    </g>
    <g transform="matrix(1.33333,0,0,1.33333,-135.084,-179.065)">
        <text x="133.2px" y="178.32px" style="font-family:'ArialMT', 'Arial', sans-serif;font-size:10px;">O<tspan x="141.12px " y="178.32px ">H</tspan></text>
    </g>
    <g transform="matrix(1.33333,0,0,1.33333,-135.084,-179.065)">
        <text x="133.2px" y="144px" style="font-family:'ArialMT', 'Arial', sans-serif;font-size:10px;">O</text>
    </g>
    <g transform="matrix(1.33333,0,0,1.33333,-135.084,-179.065)">
        <text x="157.44px" y="165.6px" style="font-family:'ArialMT', 'Arial', sans-serif;font-size:18px;">+</text>
        <text x="180.48px" y="161.52px" style="font-family:'ArialMT', 'Arial', sans-serif;font-size:10px;">HN</text>
    </g>
    <g transform="matrix(1.33333,0,0,1.33333,-135.084,-179.065)">
        <text x="197.52px" y="178.56px" style="font-family:'ArialMT', 'Arial', sans-serif;font-size:10px;">CH</text>
        <text x="211.92px" y="181.2px" style="font-family:'ArialMT', 'Arial', sans-serif;font-size:8px;">3</text>
    </g>
    <g transform="matrix(1.33333,0,0,1.33333,-135.084,-179.065)">
        <text x="197.28px" y="144.24px" style="font-family:'ArialMT', 'Arial', sans-serif;font-size:10px;">O	<tspan x="217.44px " y="144.24px ">C</tspan>H</text>
        <text x="231.856px" y="146.88px" style="font-family:'ArialMT', 'Arial', sans-serif;font-size:8px;">3</text>
    </g>
    <g transform="matrix(1.33333,0,0,1.33333,-135.084,-179.065)">
        <text x="248.88px" y="150px" style="font-family:'ArialMT', 'Arial', sans-serif;font-size:10px;">C</text>
        <text x="256.08px" y="150px" style="font-family:'ArialMT', 'Arial', sans-serif;font-size:10px;">y</text>
        <text x="261.12px" y="150px" style="font-family:'ArialMT', 'Arial', sans-serif;font-size:10px;">N</text>
        <text x="268.32px" y="150px" style="font-family:'ArialMT', 'Arial', sans-serif;font-size:10px;">=</text>
        <text x="274.32px" y="150px" style="font-family:'ArialMT', 'Arial', sans-serif;font-size:10px;">C</text>
        <text x="281.52px" y="150px" style="font-family:'ArialMT', 'Arial', sans-serif;font-size:10px;">=</text>
        <text x="287.52px" y="150px" style="font-family:'ArialMT', 'Arial', sans-serif;font-size:10px;">NCy</text>
    </g>
    <g transform="matrix(1.33333,0,0,1.33333,-135.084,-179.065)">
        <text x="105.12px" y="234.72px" style="font-family:'ArialMT', 'Arial', sans-serif;font-size:10px;">R</text>
    </g>
    <g transform="matrix(1.33333,0,0,1.33333,-135.084,-179.065)">
        <text x="134.64px" y="251.76px" style="font-family:'ArialMT', 'Arial', sans-serif;font-size:10px;">O<tspan x="142.56px " y="251.76px ">H</tspan></text>
    </g>
    <g transform="matrix(1.33333,0,0,1.33333,-135.084,-179.065)">
        <text x="134.64px" y="217.44px" style="font-family:'ArialMT', 'Arial', sans-serif;font-size:10px;">O</text>
    </g>
    <g transform="matrix(1.33333,0,0,1.33333,-135.084,-179.065)">
        <text x="178.8px" y="224.88px" style="font-family:'ArialMT', 'Arial', sans-serif;font-size:10px;">1)<tspan x="187.82px 190.733px " y="224.88px 224.88px "> M</tspan>e</text>
        <text x="204.752px" y="227.52px" style="font-family:'ArialMT', 'Arial', sans-serif;font-size:6px;">3</text>
        <text x="208.128px" y="224.88px" style="font-family:'ArialMT', 'Arial', sans-serif;font-size:10px;">Si<tspan x="217.147px " y="224.88px ">C</tspan>l</text>
    </g>
    <g transform="matrix(1.33333,0,0,1.33333,-135.084,-179.065)">
        <text x="164.4px" y="245.76px" style="font-family:'ArialMT', 'Arial', sans-serif;font-size:10px;">2</text>
        <text x="169.92px" y="245.76px" style="font-family:'ArialMT', 'Arial', sans-serif;font-size:10px;">)</text>
        <text x="176.192px" y="245.76px" style="font-family:'ArialMT', 'Arial', sans-serif;font-size:10px;">HN</text>
        <text x="190.592px" y="245.76px" style="font-family:'ArialMT', 'Arial', sans-serif;font-size:10px;">(</text>
        <text x="193.952px" y="245.76px" style="font-family:'ArialMT', 'Arial', sans-serif;font-size:10px;">CH</text>
        <text x="208.352px" y="248.4px" style="font-family:'ArialMT', 'Arial', sans-serif;font-size:6px;">3</text>
        <text x="211.952px" y="245.76px" style="font-family:'ArialMT', 'Arial', sans-serif;font-size:10px;">)</text>
        <text x="215.312px" y="245.76px" style="font-family:'ArialMT', 'Arial', sans-serif;font-size:10px;">O</text>
        <text x="223.232px" y="245.76px" style="font-family:'ArialMT', 'Arial', sans-serif;font-size:10px;">CH</text>
        <text x="237.632px" y="248.4px" style="font-family:'ArialMT', 'Arial', sans-serif;font-size:6px;">3</text>
    </g>
    <g transform="matrix(1.33333,0,0,1.33333,-135.084,-882.425)">
        <path d="M111.84,684.72L127.2,684.72" style="fill:none;fill-rule:nonzero;stroke:black;stroke-width:0.72px;"/>
    </g>
    <g transform="matrix(0.666796,1.15463,1.15463,-0.666796,-831.659,340.234)">
        <path d="M123.736,678.72L137.594,678.72" style="fill:none;fill-rule:nonzero;stroke:black;stroke-width:0.72px;"/>
    </g>
    <g transform="matrix(0.667127,-1.15443,-1.15443,-0.667127,750.001,636.414)">
        <path d="M124.945,690.3L139.775,690.3" style="fill:none;fill-rule:nonzero;stroke:black;stroke-width:0.72px;"/>
    </g>
    <g transform="matrix(0.666267,-1.15493,-1.15493,-0.666267,749.235,631.409)">
        <path d="M122.501,691.185L135.489,691.185" style="fill:none;fill-rule:nonzero;stroke:black;stroke-width:0.72px;"/>
    </g>
    <g transform="matrix(0.666693,1.15469,1.15469,-0.666693,-784.625,266.323)">
        <path d="M192.39,675.84L200.15,675.84" style="fill:none;fill-rule:nonzero;stroke:black;stroke-width:0.72px;"/>
    </g>
    <g transform="matrix(0.666871,-1.15458,-1.15458,-0.666871,795.802,708.166)">
        <path d="M192.181,693L200.219,693" style="fill:none;fill-rule:nonzero;stroke:black;stroke-width:0.72px;"/>
    </g>
    <g transform="matrix(1.33333,0,0,1.33333,-135.084,-927.785)">
        <path d="M206.16,701.73L216.48,701.73" style="fill:none;fill-rule:nonzero;stroke:black;stroke-width:0.72px;"/>
    </g>
    <g transform="matrix(1.33333,0,0,1.33333,-135.084,-879.865)">
        <path d="M247.44,683.76L308.16,683.76" style="fill:none;fill-rule:nonzero;stroke:black;stroke-width:0.72px;"/>
    </g>
    <g transform="matrix(1.2958,0.314133,0.314133,-1.2958,-338.458,822.272)">
        <path d="M299.899,684.693L308.049,684.693L300.804,680.961L301.751,683.166L299.899,684.693Z" style="stroke:black;stroke-width:0.72px;"/>
    </g>
    <g transform="matrix(1.33333,0,0,1.33333,-135.084,-686.585)">
        <path d="M113.28,611.28L128.64,611.28" style="fill:none;fill-rule:nonzero;stroke:black;stroke-width:0.72px;"/>
    </g>
    <g transform="matrix(0.666796,1.15463,1.15463,-0.666796,-745.903,387.522)">
        <path d="M125.176,605.28L139.034,605.28" style="fill:none;fill-rule:nonzero;stroke:black;stroke-width:0.72px;"/>
    </g>
    <g transform="matrix(0.667127,-1.15443,-1.15443,-0.667127,666.179,687.003)">
        <path d="M126.385,616.86L141.215,616.86" style="fill:none;fill-rule:nonzero;stroke:black;stroke-width:0.72px;"/>
    </g>
    <g transform="matrix(0.666267,-1.15493,-1.15493,-0.666267,665.378,682.062)">
        <path d="M123.941,617.745L136.929,617.745" style="fill:none;fill-rule:nonzero;stroke:black;stroke-width:0.72px;"/>
    </g>
    <g transform="matrix(1.33333,0,0,1.33333,-135.084,-683.385)">
        <path d="M162.96,610.08L240.72,610.08" style="fill:none;fill-rule:nonzero;stroke:black;stroke-width:0.72px;"/>
    </g>
    <g transform="matrix(1.2958,0.314133,0.314133,-1.2958,-317.844,846.223)">
        <path d="M232.459,611.013L240.609,611.013L233.364,607.281L234.311,609.486L232.459,611.013Z" style="stroke:black;stroke-width:0.72px;"/>
    </g>
</svg>
