<?xml version="1.0" encoding="UTF-8" standalone="no"?>
<!DOCTYPE svg PUBLIC "-//W3C//DTD SVG 1.1//EN" "http://www.w3.org/Graphics/SVG/1.1/DTD/svg11.dtd">
<svg width="100%" height="100%" viewBox="0 0 495 100" version="1.1" xmlns="http://www.w3.org/2000/svg" xmlns:xlink="http://www.w3.org/1999/xlink" xml:space="preserve" xmlns:serif="http://www.serif.com/" style="fill-rule:evenodd;clip-rule:evenodd;stroke-linecap:round;stroke-linejoin:round;stroke-miterlimit:10;">
    <g transform="matrix(1.33333,0,0,1.33333,-68.0049,-89.8632)">
        <text x="337.92px" y="103.44px" style="font-family:'ArialMT', 'Arial', sans-serif;font-size:10px;">R</text>
        <text x="345.36px" y="96.48px" style="font-family:'ArialMT', 'Arial', sans-serif;font-size:8px;">1</text>
    </g>
    <g transform="matrix(1.33333,0,0,1.33333,-68.0049,-89.8632)">
        <text x="372px" y="83.52px" style="font-family:'ArialMT', 'Arial', sans-serif;font-size:10px;">O</text>
    </g>
    <g transform="matrix(1.33333,0,0,1.33333,-68.0049,-89.8632)">
        <text x="406.8px" y="103.44px" style="font-family:'ArialMT', 'Arial', sans-serif;font-size:10px;">R</text>
        <text x="414.24px" y="96.48px" style="font-family:'ArialMT', 'Arial', sans-serif;font-size:8px;">2</text>
    </g>
    <g transform="matrix(1.33333,0,0,1.33333,-68.0049,-89.8632)">
        <text x="217.92px" y="82.8px" style="font-family:'ArialMT', 'Arial', sans-serif;font-size:10px;">O</text>
        <text x="225.84px" y="82.8px" style="font-family:'ArialMT', 'Arial', sans-serif;font-size:10px;">S</text>
        <text x="232.56px" y="82.8px" style="font-family:'ArialMT', 'Arial', sans-serif;font-size:10px;">i</text>
        <text x="234.96px" y="82.8px" style="font-family:'ArialMT', 'Arial', sans-serif;font-size:10px;">M</text>
        <text x="243.36px" y="82.8px" style="font-family:'ArialMT', 'Arial', sans-serif;font-size:10px;">e</text>
        <text x="249.12px" y="85.44px" style="font-family:'ArialMT', 'Arial', sans-serif;font-size:8px;">3</text>
    </g>
    <g transform="matrix(1.33333,0,0,1.33333,-68.0049,-89.8632)">
        <text x="252.72px" y="102.72px" style="font-family:'ArialMT', 'Arial', sans-serif;font-size:10px;">R</text>
        <text x="260.16px" y="95.76px" style="font-family:'ArialMT', 'Arial', sans-serif;font-size:8px;">2</text>
    </g>
    <g transform="matrix(1.33333,0,0,1.33333,-68.0049,-89.8632)">
        <text x="68.16px" y="77.76px" style="font-family:'ArialMT', 'Arial', sans-serif;font-size:10px;">O</text>
    </g>
    <g transform="matrix(1.33333,0,0,1.33333,-68.0049,-89.8632)">
        <text x="102.96px" y="97.44px" style="font-family:'ArialMT', 'Arial', sans-serif;font-size:10px;">R</text>
        <text x="110.4px" y="90.48px" style="font-family:'ArialMT', 'Arial', sans-serif;font-size:8px;">2</text>
    </g>
    <g transform="matrix(1.33333,0,0,1.33333,-68.0049,-89.8632)">
        <text x="144.24px" y="99.84px" style="font-family:'ArialMT', 'Arial', sans-serif;font-size:10px;">LDA</text>
    </g>
    <g transform="matrix(1.33333,0,0,1.33333,-68.0049,-89.8632)">
        <text x="135.84px" y="121.44px" style="font-family:'ArialMT', 'Arial', sans-serif;font-size:10px;">M</text>
        <text x="144.24px" y="121.44px" style="font-family:'ArialMT', 'Arial', sans-serif;font-size:10px;">e</text>
        <text x="149.76px" y="124.08px" style="font-family:'ArialMT', 'Arial', sans-serif;font-size:6px;">3</text>
        <text x="153.36px" y="121.44px" style="font-family:'ArialMT', 'Arial', sans-serif;font-size:10px;">S</text>
        <text x="160.08px" y="121.44px" style="font-family:'ArialMT', 'Arial', sans-serif;font-size:10px;">i</text>
        <text x="162.48px" y="121.44px" style="font-family:'ArialMT', 'Arial', sans-serif;font-size:10px;">Cl</text>
    </g>
    <g transform="matrix(1.33333,0,0,1.33333,-68.0049,-89.8632)">
        <text x="285.6px" y="98.88px" style="font-family:'ArialMT', 'Arial', sans-serif;font-size:10px;">B</text>
        <text x="292.32px" y="98.88px" style="font-family:'ArialMT', 'Arial', sans-serif;font-size:10px;">u</text>
        <text x="297.84px" y="101.52px" style="font-family:'ArialMT', 'Arial', sans-serif;font-size:6px;">4</text>
        <text x="301.44px" y="98.88px" style="font-family:'ArialMT', 'Arial', sans-serif;font-size:10px;">NF</text>
    </g>
    <g transform="matrix(1.33333,0,0,1.33333,-68.0049,-89.8632)">
        <text x="291.6px" y="122.88px" style="font-family:'ArialMT', 'Arial', sans-serif;font-size:10px;">R</text>
        <text x="298.8px" y="117.84px" style="font-family:'ArialMT', 'Arial', sans-serif;font-size:6px;">1</text>
        <text x="302.4px" y="122.88px" style="font-family:'ArialMT', 'Arial', sans-serif;font-size:10px;">X</text>
    </g>
    <g transform="matrix(0,1.33333,1.33333,0,-506.965,-455.063)">
        <path d="M383.34,722.52L403.26,722.52" style="fill:none;fill-rule:nonzero;stroke:black;stroke-width:0.72px;"/>
    </g>
    <g transform="matrix(-1.15468,-0.666702,-0.666702,1.15468,1380.74,-545.65)">
        <path d="M374.716,737.46L394.634,737.46" style="fill:none;fill-rule:nonzero;stroke:black;stroke-width:0.72px;"/>
    </g>
    <g transform="matrix(-1.15468,0.666702,0.666702,1.15468,417.326,-984.235)">
        <path d="M374.716,707.58L394.634,707.58" style="fill:none;fill-rule:nonzero;stroke:black;stroke-width:0.72px;"/>
    </g>
    <g transform="matrix(-1.15468,0.666702,0.666702,1.15468,354.487,-1047.08)">
        <path d="M357.466,737.46L377.384,737.46" style="fill:none;fill-rule:nonzero;stroke:black;stroke-width:0.72px;"/>
    </g>
    <g transform="matrix(-1.15468,-0.666702,-0.666702,1.15468,1317.9,-482.809)">
        <path d="M357.466,707.58L377.384,707.58" style="fill:none;fill-rule:nonzero;stroke:black;stroke-width:0.72px;"/>
    </g>
    <g transform="matrix(0,1.33333,1.33333,0,-552.965,-409.063)">
        <path d="M348.84,722.52L368.76,722.52" style="fill:none;fill-rule:nonzero;stroke:black;stroke-width:0.72px;"/>
    </g>
    <g transform="matrix(-1.15485,-0.666401,-0.666401,1.15485,1299.5,-564.116)">
        <path d="M345.097,736.15L359.783,736.15" style="fill:none;fill-rule:nonzero;stroke:black;stroke-width:0.72px;"/>
    </g>
    <g transform="matrix(0,-1.33333,-1.33333,0,1435.4,536.577)">
        <path d="M370.35,749.82L385.11,749.82" style="fill:none;fill-rule:nonzero;stroke:black;stroke-width:0.72px;"/>
    </g>
    <g transform="matrix(0,-1.33333,-1.33333,0,1430.92,532.097)">
        <path d="M366.99,749.82L381.75,749.82" style="fill:none;fill-rule:nonzero;stroke:black;stroke-width:0.72px;"/>
    </g>
    <g transform="matrix(1.1547,-0.666669,-0.666669,-1.1547,494.107,1167.59)">
        <path d="M392.33,736.1L406.81,736.1" style="fill:none;fill-rule:nonzero;stroke:black;stroke-width:0.72px;"/>
    </g>
    <g transform="matrix(0,1.33333,1.33333,0,-713.365,-250.583)">
        <path d="M229.26,723.24L249.18,723.24" style="fill:none;fill-rule:nonzero;stroke:black;stroke-width:0.72px;"/>
    </g>
    <g transform="matrix(-1.15468,-0.666702,-0.666702,1.15468,997.865,-650.167)">
        <path d="M220.636,738.18L240.554,738.18" style="fill:none;fill-rule:nonzero;stroke:black;stroke-width:0.72px;"/>
    </g>
    <g transform="matrix(-1.15468,0.666702,0.666702,1.15468,33.4934,-883.301)">
        <path d="M220.636,708.3L240.554,708.3" style="fill:none;fill-rule:nonzero;stroke:black;stroke-width:0.72px;"/>
    </g>
    <g transform="matrix(-1.15468,0.666702,0.666702,1.15468,-29.3459,-946.143)">
        <path d="M203.386,738.18L223.304,738.18" style="fill:none;fill-rule:nonzero;stroke:black;stroke-width:0.72px;"/>
    </g>
    <g transform="matrix(-1.15458,0.666876,0.666876,1.15458,-23.3755,-939.986)">
        <path d="M206.728,735.27L223.322,735.27" style="fill:none;fill-rule:nonzero;stroke:black;stroke-width:0.72px;"/>
    </g>
    <g transform="matrix(-1.15468,-0.666702,-0.666702,1.15468,935.025,-587.326)">
        <path d="M203.386,708.3L223.304,708.3" style="fill:none;fill-rule:nonzero;stroke:black;stroke-width:0.72px;"/>
    </g>
    <g transform="matrix(0,1.33333,1.33333,0,-759.365,-204.583)">
        <path d="M194.76,723.24L214.68,723.24" style="fill:none;fill-rule:nonzero;stroke:black;stroke-width:0.72px;"/>
    </g>
    <g transform="matrix(0,-1.33333,-1.33333,0,1228.68,327.937)">
        <path d="M214.59,750.54L229.35,750.54" style="fill:none;fill-rule:nonzero;stroke:black;stroke-width:0.72px;"/>
    </g>
    <g transform="matrix(1.1547,-0.666669,-0.666669,-1.1547,467.063,1064.74)">
        <path d="M238.25,736.82L252.73,736.82" style="fill:none;fill-rule:nonzero;stroke:black;stroke-width:0.72px;"/>
    </g>
    <g transform="matrix(0,1.33333,1.33333,0,-919.885,-57.8232)">
        <path d="M79.53,728.4L99.45,728.4" style="fill:none;fill-rule:nonzero;stroke:black;stroke-width:0.72px;"/>
    </g>
    <g transform="matrix(-1.15468,-0.666702,-0.666702,1.15468,628.775,-762.83)">
        <path d="M70.906,743.34L90.824,743.34" style="fill:none;fill-rule:nonzero;stroke:black;stroke-width:0.72px;"/>
    </g>
    <g transform="matrix(-1.15468,0.666702,0.666702,1.15468,-342.477,-796.314)">
        <path d="M70.906,713.46L90.824,713.46" style="fill:none;fill-rule:nonzero;stroke:black;stroke-width:0.72px;"/>
    </g>
    <g transform="matrix(-1.15468,0.666702,0.666702,1.15468,-405.316,-859.155)">
        <path d="M53.656,743.34L73.574,743.34" style="fill:none;fill-rule:nonzero;stroke:black;stroke-width:0.72px;"/>
    </g>
    <g transform="matrix(-1.15468,-0.666702,-0.666702,1.15468,565.935,-699.989)">
        <path d="M53.656,713.46L73.574,713.46" style="fill:none;fill-rule:nonzero;stroke:black;stroke-width:0.72px;"/>
    </g>
    <g transform="matrix(0,1.33333,1.33333,0,-965.885,-11.8232)">
        <path d="M45.03,728.4L64.95,728.4" style="fill:none;fill-rule:nonzero;stroke:black;stroke-width:0.72px;"/>
    </g>
    <g transform="matrix(0,-1.33333,-1.33333,0,1038.08,123.737)">
        <path d="M66.6,755.64L81.24,755.64" style="fill:none;fill-rule:nonzero;stroke:black;stroke-width:0.72px;"/>
    </g>
    <g transform="matrix(0,-1.33333,-1.33333,0,1033.6,119.257)">
        <path d="M63.24,755.64L77.88,755.64" style="fill:none;fill-rule:nonzero;stroke:black;stroke-width:0.72px;"/>
    </g>
    <g transform="matrix(1.15481,-0.666483,-0.666483,-1.15481,443.599,964.048)">
        <path d="M88.523,741.97L102.967,741.97" style="fill:none;fill-rule:nonzero;stroke:black;stroke-width:0.72px;"/>
    </g>
    <g transform="matrix(1.33333,0,0,1.33333,-68.0049,-930.183)">
        <path d="M127.44,736.08L180,736.08" style="fill:none;fill-rule:nonzero;stroke:black;stroke-width:0.72px;"/>
    </g>
    <g transform="matrix(1.2958,0.314133,0.314133,-1.2958,-292.625,949.769)">
        <path d="M171.739,737.013L179.889,737.013L172.644,733.281L173.591,735.486L171.739,737.013Z" style="stroke:black;stroke-width:0.72px;"/>
    </g>
    <g transform="matrix(1.33333,0,0,1.33333,-68.0049,-926.343)">
        <path d="M273.84,734.64L326.4,734.64" style="fill:none;fill-rule:nonzero;stroke:black;stroke-width:0.72px;"/>
    </g>
    <g transform="matrix(1.2958,0.314133,0.314133,-1.2958,-286.678,903.834)">
        <path d="M318.139,735.573L326.289,735.573L319.044,731.841L319.991,734.046L318.139,735.573Z" style="stroke:black;stroke-width:0.72px;"/>
    </g>
</svg>
