<?xml version="1.0" encoding="UTF-8" standalone="no"?>
<!DOCTYPE svg PUBLIC "-//W3C//DTD SVG 1.1//EN" "http://www.w3.org/Graphics/SVG/1.1/DTD/svg11.dtd">
<svg width="100%" height="100%" viewBox="0 0 535 200" version="1.1" xmlns="http://www.w3.org/2000/svg" xmlns:xlink="http://www.w3.org/1999/xlink" xml:space="preserve" xmlns:serif="http://www.serif.com/" style="fill-rule:evenodd;clip-rule:evenodd;stroke-linecap:round;stroke-linejoin:round;stroke-miterlimit:10;">
    <g transform="matrix(1.33333,0,0,1.33333,-52.82,-75.52)">
        <text x="103.2px" y="115.68px" style="font-family:'ArialMT', 'Arial', sans-serif;font-size:10px;">H</text>
    </g>
    <g transform="matrix(1.33333,0,0,1.33333,-52.82,-75.52)">
        <text x="102.96px" y="81.36px" style="font-family:'ArialMT', 'Arial', sans-serif;font-size:10px;">O</text>
    </g>
    <g transform="matrix(1.33333,0,0,1.33333,-52.82,-75.52)">
        <text x="63.36px" y="81.36px" style="font-family:'ArialMT', 'Arial', sans-serif;font-size:10px;">R</text>
        <text x="70.8px" y="74.4px" style="font-family:'ArialMT', 'Arial', sans-serif;font-size:8px;">1</text>
    </g>
    <g transform="matrix(1.33333,0,0,1.33333,-52.82,-75.52)">
        <text x="220.32px" y="117.12px" style="font-family:'ArialMT', 'Arial', sans-serif;font-size:10px;">H</text>
    </g>
    <g transform="matrix(1.33333,0,0,1.33333,-52.82,-75.52)">
        <text x="220.08px" y="82.8px" style="font-family:'ArialMT', 'Arial', sans-serif;font-size:10px;">O<tspan x="228px " y="82.8px ">H</tspan></text>
    </g>
    <g transform="matrix(1.33333,0,0,1.33333,-52.82,-75.52)">
        <text x="180.48px" y="82.8px" style="font-family:'ArialMT', 'Arial', sans-serif;font-size:10px;">R</text>
        <text x="187.92px" y="75.84px" style="font-family:'ArialMT', 'Arial', sans-serif;font-size:8px;">1</text>
    </g>
    <g transform="matrix(1.33333,0,0,1.33333,-52.82,-75.52)">
        <text x="359.52px" y="98.64px" style="font-family:'ArialMT', 'Arial', sans-serif;font-size:10px;">B</text>
    </g>
    <g transform="matrix(1.33333,0,0,1.33333,-52.82,-75.52)">
        <text x="319.44px" y="98.64px" style="font-family:'ArialMT', 'Arial', sans-serif;font-size:10px;">C</text>
    </g>
    <g transform="matrix(1.33333,0,0,1.33333,-52.82,-75.52)">
        <text x="307.92px" y="98.64px" style="font-family:'ArialMT', 'Arial', sans-serif;font-size:10px;">H</text>
        <text x="315.12px" y="101.28px" style="font-family:'ArialMT', 'Arial', sans-serif;font-size:8px;">3</text>
    </g>
    <g transform="matrix(1.33333,0,0,1.33333,-52.82,-75.52)">
        <text x="379.2px" y="98.64px" style="font-family:'ArialMT', 'Arial', sans-serif;font-size:10px;">R</text>
        <text x="386.64px" y="91.68px" style="font-family:'ArialMT', 'Arial', sans-serif;font-size:8px;">2</text>
    </g>
    <g transform="matrix(1.33333,0,0,1.33333,-52.82,-75.52)">
        <text x="349.44px" y="81.36px" style="font-family:'ArialMT', 'Arial', sans-serif;font-size:10px;">R</text>
        <text x="356.88px" y="74.4px" style="font-family:'ArialMT', 'Arial', sans-serif;font-size:8px;">2</text>
    </g>
    <g transform="matrix(1.33333,0,0,1.33333,-52.82,-75.52)">
        <text x="147.36px" y="186px" style="font-family:'ArialMT', 'Arial', sans-serif;font-size:10px;">CH</text>
    </g>
    <g transform="matrix(1.33333,0,0,1.33333,-52.82,-75.52)">
        <text x="107.52px" y="185.76px" style="font-family:'ArialMT', 'Arial', sans-serif;font-size:10px;">R</text>
        <text x="114.96px" y="178.8px" style="font-family:'ArialMT', 'Arial', sans-serif;font-size:8px;">1</text>
    </g>
    <g transform="matrix(1.33333,0,0,1.33333,-52.82,-75.52)">
        <text x="175.2px" y="189.36px" style="font-family:'ArialMT', 'Arial', sans-serif;font-size:18px;">+</text>
        <text x="203.52px" y="185.52px" style="font-family:'ArialMT', 'Arial', sans-serif;font-size:10px;">H	<tspan x="223.68px " y="185.52px ">B</tspan></text>
    </g>
    <g transform="matrix(1.33333,0,0,1.33333,-52.82,-75.52)">
        <text x="233.28px" y="202.56px" style="font-family:'ArialMT', 'Arial', sans-serif;font-size:10px;">R</text>
        <text x="240.72px" y="195.6px" style="font-family:'ArialMT', 'Arial', sans-serif;font-size:8px;">2</text>
    </g>
    <g transform="matrix(1.33333,0,0,1.33333,-52.82,-75.52)">
        <text x="233.28px" y="168.24px" style="font-family:'ArialMT', 'Arial', sans-serif;font-size:10px;">R</text>
        <text x="240.72px" y="161.28px" style="font-family:'ArialMT', 'Arial', sans-serif;font-size:8px;">2</text>
    </g>
    <g transform="matrix(1.33333,0,0,1.33333,-52.82,-945.92)">
        <path d="M77.04,747.36L96.96,747.36" style="fill:none;fill-rule:nonzero;stroke:black;stroke-width:0.72px;"/>
    </g>
    <g transform="matrix(0.666796,1.15463,1.15463,-0.666796,-841.876,436.943)">
        <path d="M93.496,741.36L107.354,741.36" style="fill:none;fill-rule:nonzero;stroke:black;stroke-width:0.72px;"/>
    </g>
    <g transform="matrix(0.667127,-1.15443,-1.15443,-0.667127,884.433,663.317)">
        <path d="M94.705,752.94L109.535,752.94" style="fill:none;fill-rule:nonzero;stroke:black;stroke-width:0.72px;"/>
    </g>
    <g transform="matrix(0.666267,-1.15493,-1.15493,-0.666267,883.672,658.244)">
        <path d="M92.261,753.825L105.249,753.825" style="fill:none;fill-rule:nonzero;stroke:black;stroke-width:0.72px;"/>
    </g>
    <g transform="matrix(-0.666796,-1.15463,-1.15463,0.666796,964.188,-374.826)">
        <path d="M66.646,753.36L80.504,753.36" style="fill:none;fill-rule:nonzero;stroke:black;stroke-width:0.72px;"/>
    </g>
    <g transform="matrix(1.33333,0,0,1.33333,-52.82,-936.32)">
        <path d="M122.16,743.76L162.48,743.76" style="fill:none;fill-rule:nonzero;stroke:black;stroke-width:0.72px;"/>
    </g>
    <g transform="matrix(1.33333,0,0,1.33333,-52.82,-944)">
        <path d="M122.16,746.64L162.48,746.64" style="fill:none;fill-rule:nonzero;stroke:black;stroke-width:0.72px;"/>
    </g>
    <g transform="matrix(1.2958,0.314133,0.314133,-1.2958,-281.415,969.22)">
        <path d="M154.219,747.573L162.369,747.573L155.124,743.841L156.071,746.046L154.219,747.573Z" style="stroke:black;stroke-width:0.72px;"/>
    </g>
    <g transform="matrix(-1.2958,0.314133,0.314133,1.2958,45.1265,-948.023)">
        <path d="M121.819,742.827L129.969,742.827L122.724,746.559L123.671,744.354L121.819,742.827Z" style="stroke:black;stroke-width:0.72px;"/>
    </g>
    <g transform="matrix(1.33333,0,0,1.33333,-52.82,-942.08)">
        <path d="M194.16,745.92L214.08,745.92" style="fill:none;fill-rule:nonzero;stroke:black;stroke-width:0.72px;"/>
    </g>
    <g transform="matrix(1.33333,0,0,1.33333,-52.82,-951.04)">
        <path d="M195.82,749.28L212.42,749.28" style="fill:none;fill-rule:nonzero;stroke:black;stroke-width:0.72px;"/>
    </g>
    <g transform="matrix(0.666796,1.15463,1.15463,-0.666796,-762.149,302.673)">
        <path d="M210.616,739.92L224.474,739.92" style="fill:none;fill-rule:nonzero;stroke:black;stroke-width:0.72px;"/>
    </g>
    <g transform="matrix(0.666796,-1.15463,-1.15463,-0.666796,960.368,797.041)">
        <path d="M210.616,751.92L224.474,751.92" style="fill:none;fill-rule:nonzero;stroke:black;stroke-width:0.72px;"/>
    </g>
    <g transform="matrix(-0.666796,-1.15463,-1.15463,0.666796,1196.78,-236.716)">
        <path d="M183.766,751.92L197.624,751.92" style="fill:none;fill-rule:nonzero;stroke:black;stroke-width:0.72px;"/>
    </g>
    <g transform="matrix(1.33333,0,0,1.33333,-52.82,-948.16)">
        <path d="M43.2,715.2L50.88,715.2L50.88,715.68L44.64,715.68L44.64,780.72L50.88,780.72L50.88,781.2L43.2,781.2L43.2,715.2Z" style="stroke:black;stroke-width:0.02px;"/>
    </g>
    <g transform="matrix(1.33333,0,0,1.33333,-52.82,-948.16)">
        <path d="M242.88,715.2L235.2,715.2L235.2,715.68L241.44,715.68L241.44,780.72L235.2,780.72L235.2,781.2L242.88,781.2L242.88,715.2Z" style="stroke:black;stroke-width:0.02px;"/>
    </g>
    <g transform="matrix(1.33333,0,0,1.33333,-52.82,-940.16)">
        <path d="M255.6,745.2L289.68,745.2" style="fill:none;fill-rule:nonzero;stroke:black;stroke-width:0.72px;"/>
    </g>
    <g transform="matrix(1.33333,0,0,1.33333,-52.82,-947.84)">
        <path d="M255.6,748.08L289.68,748.08" style="fill:none;fill-rule:nonzero;stroke:black;stroke-width:0.72px;"/>
    </g>
    <g transform="matrix(1.33333,0,0,1.33333,-52.82,-944)">
        <path d="M285.12,743.04L293.04,746.64L285.12,750.24" style="fill:none;fill-rule:nonzero;stroke:black;stroke-width:0.72px;"/>
    </g>
    <g transform="matrix(1.33333,0,0,1.33333,-52.82,-899.84)">
        <path d="M333.12,730.08L353.04,730.08" style="fill:none;fill-rule:nonzero;stroke:black;stroke-width:0.72px;"/>
    </g>
    <g transform="matrix(1.33333,0,0,1.33333,-52.82,-908.8)">
        <path d="M334.78,733.44L351.38,733.44" style="fill:none;fill-rule:nonzero;stroke:black;stroke-width:0.72px;"/>
    </g>
    <g transform="matrix(0.666796,-1.15463,-1.15463,-0.666796,1034.7,968.045)">
        <path d="M349.576,736.08L363.434,736.08" style="fill:none;fill-rule:nonzero;stroke:black;stroke-width:0.72px;"/>
    </g>
    <g transform="matrix(-0.666796,-1.15463,-1.15463,0.666796,1456.43,-44.5873)">
        <path d="M322.726,736.08L336.584,736.08" style="fill:none;fill-rule:nonzero;stroke:black;stroke-width:0.72px;"/>
    </g>
    <g transform="matrix(1.33333,0,0,1.33333,-52.82,-945.84)">
        <path d="M367.2,747.33L378.24,747.33" style="fill:none;fill-rule:nonzero;stroke:black;stroke-width:0.72px;"/>
    </g>
    <g transform="matrix(-0.665626,-1.1553,-1.1553,0.665626,1536.21,-50.2605)">
        <path d="M354.049,755.88L362.081,755.88" style="fill:none;fill-rule:nonzero;stroke:black;stroke-width:0.72px;"/>
    </g>
    <g transform="matrix(1.33333,0,0,1.33333,-52.82,-942.08)">
        <path d="M399.84,745.92L433.92,745.92" style="fill:none;fill-rule:nonzero;stroke:black;stroke-width:0.72px;"/>
    </g>
    <g transform="matrix(1.33333,0,0,1.33333,-52.82,-949.76)">
        <path d="M399.84,748.8L433.92,748.8" style="fill:none;fill-rule:nonzero;stroke:black;stroke-width:0.72px;"/>
    </g>
    <g transform="matrix(1.33333,0,0,1.33333,-52.82,-945.92)">
        <path d="M429.36,743.76L437.28,747.36L429.36,750.96" style="fill:none;fill-rule:nonzero;stroke:black;stroke-width:0.72px;"/>
    </g>
    <g transform="matrix(1.33333,0,0,1.33333,-52.82,-708.48)">
        <path d="M48,658.32L82.08,658.32" style="fill:none;fill-rule:nonzero;stroke:black;stroke-width:0.72px;"/>
    </g>
    <g transform="matrix(1.33333,0,0,1.33333,-52.82,-716.16)">
        <path d="M48,661.2L82.08,661.2" style="fill:none;fill-rule:nonzero;stroke:black;stroke-width:0.72px;"/>
    </g>
    <g transform="matrix(1.33333,0,0,1.33333,-52.82,-712.32)">
        <path d="M77.52,656.16L85.44,659.76L77.52,663.36" style="fill:none;fill-rule:nonzero;stroke:black;stroke-width:0.72px;"/>
    </g>
    <g transform="matrix(1.33333,0,0,1.33333,-52.82,-712.96)">
        <path d="M131.04,660L146.4,660" style="fill:none;fill-rule:nonzero;stroke:black;stroke-width:0.72px;"/>
    </g>
    <g transform="matrix(1.33333,0,0,1.33333,-52.82,-721.92)">
        <path d="M131.04,663.36L146.4,663.36" style="fill:none;fill-rule:nonzero;stroke:black;stroke-width:0.72px;"/>
    </g>
    <g transform="matrix(1.33333,0,0,1.33333,-52.82,-704)">
        <path d="M131.04,656.64L146.4,656.64" style="fill:none;fill-rule:nonzero;stroke:black;stroke-width:0.72px;"/>
    </g>
    <g transform="matrix(-1.33333,0,0,1.33333,276.14,-712.96)">
        <path d="M115.68,660L131.04,660" style="fill:none;fill-rule:nonzero;stroke:black;stroke-width:0.72px;"/>
    </g>
    <g transform="matrix(1.33333,0,0,1.33333,-52.82,-714.24)">
        <path d="M211.68,660.48L222.72,660.48" style="fill:none;fill-rule:nonzero;stroke:black;stroke-width:0.72px;"/>
    </g>
    <g transform="matrix(0.666693,1.15469,1.15469,-0.666693,-650.809,344.576)">
        <path d="M228.15,651.84L235.91,651.84" style="fill:none;fill-rule:nonzero;stroke:black;stroke-width:0.72px;"/>
    </g>
    <g transform="matrix(0.666871,-1.15458,-1.15458,-0.666871,874.188,868.994)">
        <path d="M227.941,669L235.979,669" style="fill:none;fill-rule:nonzero;stroke:black;stroke-width:0.72px;"/>
    </g>
</svg>
