<?xml version="1.0" encoding="UTF-8" standalone="no"?>
<!DOCTYPE svg PUBLIC "-//W3C//DTD SVG 1.1//EN" "http://www.w3.org/Graphics/SVG/1.1/DTD/svg11.dtd">
<svg width="100%" height="100%" viewBox="0 0 600 155" version="1.1" xmlns="http://www.w3.org/2000/svg" xmlns:xlink="http://www.w3.org/1999/xlink" xml:space="preserve" xmlns:serif="http://www.serif.com/" style="fill-rule:evenodd;clip-rule:evenodd;stroke-linecap:round;stroke-linejoin:round;stroke-miterlimit:10;">
    <g transform="matrix(1.33333,0,0,1.33333,-63.04,-81.5467)">
        <text x="296.4px" y="97.2px" style="font-family:'ArialMT', 'Arial', sans-serif;font-size:10px;">B</text>
    </g>
    <g transform="matrix(1.33333,0,0,1.33333,-63.04,-81.5467)">
        <text x="256.32px" y="97.2px" style="font-family:'ArialMT', 'Arial', sans-serif;font-size:10px;">C</text>
    </g>
    <g transform="matrix(1.33333,0,0,1.33333,-63.04,-81.5467)">
        <text x="244.8px" y="97.2px" style="font-family:'ArialMT', 'Arial', sans-serif;font-size:10px;">H</text>
        <text x="252px" y="99.84px" style="font-family:'ArialMT', 'Arial', sans-serif;font-size:8px;">3</text>
    </g>
    <g transform="matrix(1.33333,0,0,1.33333,-63.04,-81.5467)">
        <text x="316.08px" y="97.2px" style="font-family:'ArialMT', 'Arial', sans-serif;font-size:10px;">R</text>
        <text x="323.52px" y="90.24px" style="font-family:'ArialMT', 'Arial', sans-serif;font-size:8px;">2</text>
    </g>
    <g transform="matrix(1.33333,0,0,1.33333,-63.04,-81.5467)">
        <text x="286.32px" y="79.92px" style="font-family:'ArialMT', 'Arial', sans-serif;font-size:10px;">R</text>
        <text x="293.76px" y="72.96px" style="font-family:'ArialMT', 'Arial', sans-serif;font-size:8px;">2</text>
    </g>
    <g transform="matrix(1.33333,0,0,1.33333,-63.04,-81.5467)">
        <text x="93.36px" y="94.8px" style="font-family:'ArialMT', 'Arial', sans-serif;font-size:10px;">CH</text>
    </g>
    <g transform="matrix(1.33333,0,0,1.33333,-63.04,-81.5467)">
        <text x="53.52px" y="94.56px" style="font-family:'ArialMT', 'Arial', sans-serif;font-size:10px;">R</text>
        <text x="60.96px" y="87.6px" style="font-family:'ArialMT', 'Arial', sans-serif;font-size:8px;">1</text>
    </g>
    <g transform="matrix(1.33333,0,0,1.33333,-63.04,-81.5467)">
        <text x="121.2px" y="98.16px" style="font-family:'ArialMT', 'Arial', sans-serif;font-size:18px;">+</text>
        <text x="149.52px" y="94.32px" style="font-family:'ArialMT', 'Arial', sans-serif;font-size:10px;">H	<tspan x="169.68px " y="94.32px ">B</tspan></text>
    </g>
    <g transform="matrix(1.33333,0,0,1.33333,-63.04,-81.5467)">
        <text x="179.28px" y="111.36px" style="font-family:'ArialMT', 'Arial', sans-serif;font-size:10px;">R</text>
        <text x="186.72px" y="104.4px" style="font-family:'ArialMT', 'Arial', sans-serif;font-size:8px;">2</text>
    </g>
    <g transform="matrix(1.33333,0,0,1.33333,-63.04,-81.5467)">
        <text x="179.28px" y="77.04px" style="font-family:'ArialMT', 'Arial', sans-serif;font-size:10px;">R</text>
        <text x="186.72px" y="70.08px" style="font-family:'ArialMT', 'Arial', sans-serif;font-size:8px;">2</text>
    </g>
    <g transform="matrix(1.33333,0,0,1.33333,-63.04,-81.5467)">
        <text x="347.28px" y="85.68px" style="font-family:'ArialMT', 'Arial', sans-serif;font-size:10px;">H</text>
        <text x="354.48px" y="88.32px" style="font-family:'ArialMT', 'Arial', sans-serif;font-size:6px;">2</text>
        <text x="358.08px" y="85.68px" style="font-family:'ArialMT', 'Arial', sans-serif;font-size:10px;">O</text>
        <text x="366px" y="88.32px" style="font-family:'ArialMT', 'Arial', sans-serif;font-size:6px;">2</text>
    </g>
    <g transform="matrix(1.33333,0,0,1.33333,-63.04,-81.5467)">
        <text x="344.64px" y="106.32px" style="font-family:'ArialMT', 'Arial', sans-serif;font-size:10px;">Na</text>
        <text x="357.36px" y="106.32px" style="font-family:'ArialMT', 'Arial', sans-serif;font-size:10px;">O<tspan x="365.28px " y="106.32px ">H</tspan></text>
    </g>
    <g transform="matrix(1.33333,0,0,1.33333,-63.04,-81.5467)">
        <text x="431.04px" y="91.92px" style="font-family:'ArialMT', 'Arial', sans-serif;font-size:10px;">O<tspan x="438.96px " y="91.92px ">H</tspan></text>
    </g>
    <g transform="matrix(1.33333,0,0,1.33333,-63.04,-81.5467)">
        <text x="391.44px" y="91.92px" style="font-family:'ArialMT', 'Arial', sans-serif;font-size:10px;">R</text>
        <text x="398.88px" y="84.96px" style="font-family:'ArialMT', 'Arial', sans-serif;font-size:8px;">1</text>
    </g>
    <g transform="matrix(1.33333,0,0,1.33333,-63.04,-81.5467)">
        <text x="138.72px" y="174.24px" style="font-family:'ArialMT', 'Arial', sans-serif;font-size:10px;">H</text>
    </g>
    <g transform="matrix(1.33333,0,0,1.33333,-63.04,-81.5467)">
        <text x="138.48px" y="139.92px" style="font-family:'ArialMT', 'Arial', sans-serif;font-size:10px;">O</text>
    </g>
    <g transform="matrix(1.33333,0,0,1.33333,-63.04,-81.5467)">
        <text x="98.88px" y="139.92px" style="font-family:'ArialMT', 'Arial', sans-serif;font-size:10px;">R</text>
        <text x="106.32px" y="132.96px" style="font-family:'ArialMT', 'Arial', sans-serif;font-size:8px;">1</text>
    </g>
    <g transform="matrix(1.33333,0,0,1.33333,-63.04,-909.707)">
        <path d="M270,731.52L289.92,731.52" style="fill:none;fill-rule:nonzero;stroke:black;stroke-width:0.72px;"/>
    </g>
    <g transform="matrix(1.33333,0,0,1.33333,-63.04,-918.667)">
        <path d="M271.66,734.88L288.26,734.88" style="fill:none;fill-rule:nonzero;stroke:black;stroke-width:0.72px;"/>
    </g>
    <g transform="matrix(0.666796,-1.15463,-1.15463,-0.666796,984.071,888.179)">
        <path d="M286.456,737.52L300.314,737.52" style="fill:none;fill-rule:nonzero;stroke:black;stroke-width:0.72px;"/>
    </g>
    <g transform="matrix(-0.666796,-1.15463,-1.15463,0.666796,1321.62,-126.374)">
        <path d="M259.606,737.52L273.464,737.52" style="fill:none;fill-rule:nonzero;stroke:black;stroke-width:0.72px;"/>
    </g>
    <g transform="matrix(1.33333,0,0,1.33333,-63.04,-955.707)">
        <path d="M304.08,748.77L315.12,748.77" style="fill:none;fill-rule:nonzero;stroke:black;stroke-width:0.72px;"/>
    </g>
    <g transform="matrix(-0.665626,-1.1553,-1.1553,0.665626,1401.48,-132.088)">
        <path d="M290.929,757.32L298.961,757.32" style="fill:none;fill-rule:nonzero;stroke:black;stroke-width:0.72px;"/>
    </g>
    <g transform="matrix(1.33333,0,0,1.33333,-63.04,-962.187)">
        <path d="M77.04,751.2L92.4,751.2" style="fill:none;fill-rule:nonzero;stroke:black;stroke-width:0.72px;"/>
    </g>
    <g transform="matrix(1.33333,0,0,1.33333,-63.04,-971.147)">
        <path d="M77.04,754.56L92.4,754.56" style="fill:none;fill-rule:nonzero;stroke:black;stroke-width:0.72px;"/>
    </g>
    <g transform="matrix(1.33333,0,0,1.33333,-63.04,-953.227)">
        <path d="M77.04,747.84L92.4,747.84" style="fill:none;fill-rule:nonzero;stroke:black;stroke-width:0.72px;"/>
    </g>
    <g transform="matrix(-1.33333,0,0,1.33333,121.92,-962.187)">
        <path d="M61.68,751.2L77.04,751.2" style="fill:none;fill-rule:nonzero;stroke:black;stroke-width:0.72px;"/>
    </g>
    <g transform="matrix(1.33333,0,0,1.33333,-63.04,-963.467)">
        <path d="M157.68,751.68L168.72,751.68" style="fill:none;fill-rule:nonzero;stroke:black;stroke-width:0.72px;"/>
    </g>
    <g transform="matrix(0.666693,1.15469,1.15469,-0.666693,-802.335,340.104)">
        <path d="M174.15,743.04L181.91,743.04" style="fill:none;fill-rule:nonzero;stroke:black;stroke-width:0.72px;"/>
    </g>
    <g transform="matrix(0.666871,-1.15458,-1.15458,-0.666871,933.277,739.838)">
        <path d="M173.941,760.2L181.979,760.2" style="fill:none;fill-rule:nonzero;stroke:black;stroke-width:0.72px;"/>
    </g>
    <g transform="matrix(1.33333,0,0,1.33333,-63.04,-962.187)">
        <path d="M201.6,751.2L235.68,751.2" style="fill:none;fill-rule:nonzero;stroke:black;stroke-width:0.72px;"/>
    </g>
    <g transform="matrix(1.2958,0.314133,0.314133,-1.2958,-290.32,940.027)">
        <path d="M227.419,752.133L235.569,752.133L228.324,748.401L229.271,750.606L227.419,752.133Z" style="stroke:black;stroke-width:0.72px;"/>
    </g>
    <g transform="matrix(1.33333,0,0,1.33333,-63.04,-953.867)">
        <path d="M341.28,748.08L375.36,748.08" style="fill:none;fill-rule:nonzero;stroke:black;stroke-width:0.72px;"/>
    </g>
    <g transform="matrix(1.2958,0.314133,0.314133,-1.2958,-284.097,896.266)">
        <path d="M367.099,749.013L375.249,749.013L368.004,745.281L368.951,747.486L367.099,749.013Z" style="stroke:black;stroke-width:0.72px;"/>
    </g>
    <g transform="matrix(1.33333,0,0,1.33333,-63.04,-923.787)">
        <path d="M405.12,736.8L425.04,736.8" style="fill:none;fill-rule:nonzero;stroke:black;stroke-width:0.72px;"/>
    </g>
    <g transform="matrix(1.33333,0,0,1.33333,-63.04,-932.747)">
        <path d="M406.78,740.16L423.38,740.16" style="fill:none;fill-rule:nonzero;stroke:black;stroke-width:0.72px;"/>
    </g>
    <g transform="matrix(0.666796,-1.15463,-1.15463,-0.666796,1080.23,1040.67)">
        <path d="M421.576,742.8L435.434,742.8" style="fill:none;fill-rule:nonzero;stroke:black;stroke-width:0.72px;"/>
    </g>
    <g transform="matrix(-0.666796,-1.15463,-1.15463,0.666796,1597.98,19.0782)">
        <path d="M394.726,742.8L408.584,742.8" style="fill:none;fill-rule:nonzero;stroke:black;stroke-width:0.72px;"/>
    </g>
    <g transform="matrix(1.33333,0,0,1.33333,-63.04,-953.867)">
        <path d="M459.84,748.08L493.92,748.08" style="fill:none;fill-rule:nonzero;stroke:black;stroke-width:0.72px;"/>
    </g>
    <g transform="matrix(1.2958,0.314133,0.314133,-1.2958,-279.647,859.023)">
        <path d="M485.659,749.013L493.809,749.013L486.564,745.281L487.511,747.486L485.659,749.013Z" style="stroke:black;stroke-width:0.72px;"/>
    </g>
    <g transform="matrix(1.33333,0,0,1.33333,-63.04,-796.427)">
        <path d="M50.64,689.04L84.72,689.04" style="fill:none;fill-rule:nonzero;stroke:black;stroke-width:0.72px;"/>
    </g>
    <g transform="matrix(1.2958,0.314133,0.314133,-1.2958,-276.459,989.782)">
        <path d="M76.459,689.973L84.609,689.973L77.364,686.241L78.311,688.446L76.459,689.973Z" style="stroke:black;stroke-width:0.72px;"/>
    </g>
    <g transform="matrix(1.33333,0,0,1.33333,-63.04,-795.787)">
        <path d="M112.56,688.8L132.48,688.8" style="fill:none;fill-rule:nonzero;stroke:black;stroke-width:0.72px;"/>
    </g>
    <g transform="matrix(0.666796,1.15463,1.15463,-0.666796,-760.806,428.936)">
        <path d="M129.016,682.8L142.874,682.8" style="fill:none;fill-rule:nonzero;stroke:black;stroke-width:0.72px;"/>
    </g>
    <g transform="matrix(0.667127,-1.15443,-1.15443,-0.667127,830.273,737.309)">
        <path d="M130.225,694.38L145.055,694.38" style="fill:none;fill-rule:nonzero;stroke:black;stroke-width:0.72px;"/>
    </g>
    <g transform="matrix(0.666267,-1.15493,-1.15493,-0.666267,829.514,732.304)">
        <path d="M127.781,695.265L140.769,695.265" style="fill:none;fill-rule:nonzero;stroke:black;stroke-width:0.72px;"/>
    </g>
    <g transform="matrix(-0.666796,-1.15463,-1.15463,0.666796,957.398,-222.713)">
        <path d="M102.166,694.8L116.024,694.8" style="fill:none;fill-rule:nonzero;stroke:black;stroke-width:0.72px;"/>
    </g>
</svg>
