<?xml version="1.0" encoding="UTF-8" standalone="no"?>
<!DOCTYPE svg PUBLIC "-//W3C//DTD SVG 1.1//EN" "http://www.w3.org/Graphics/SVG/1.1/DTD/svg11.dtd">
<svg width="100%" height="100%" viewBox="0 0 515 455" version="1.1" xmlns="http://www.w3.org/2000/svg" xmlns:xlink="http://www.w3.org/1999/xlink" xml:space="preserve" xmlns:serif="http://www.serif.com/" style="fill-rule:evenodd;clip-rule:evenodd;stroke-linecap:round;stroke-linejoin:round;stroke-miterlimit:10;">
    <g transform="matrix(1.33333,0,0,1.33333,-77.0712,-76.2046)">
        <text x="71.04px" y="97.44px" style="font-family:'ArialMT', 'Arial', sans-serif;font-size:10px;">C</text>
    </g>
    <g transform="matrix(1.33333,0,0,1.33333,-77.0712,-76.2046)">
        <text x="59.52px" y="97.44px" style="font-family:'ArialMT', 'Arial', sans-serif;font-size:10px;">H</text>
        <text x="66.72px" y="100.08px" style="font-family:'ArialMT', 'Arial', sans-serif;font-size:8px;">3</text>
    </g>
    <g transform="matrix(1.33333,0,0,1.33333,-77.0712,-76.2046)">
        <text x="87.84px" y="67.68px" style="font-family:'ArialMT', 'Arial', sans-serif;font-size:10px;">O</text>
    </g>
    <g transform="matrix(1.33333,0,0,1.33333,-77.0712,-76.2046)">
        <text x="157.2px" y="107.52px" style="font-family:'ArialMT', 'Arial', sans-serif;font-size:10px;">CH</text>
    </g>
    <g transform="matrix(1.33333,0,0,1.33333,-77.0712,-76.2046)">
        <text x="236.4px" y="97.2px" style="font-family:'ArialMT', 'Arial', sans-serif;font-size:10px;">C</text>
    </g>
    <g transform="matrix(1.33333,0,0,1.33333,-77.0712,-76.2046)">
        <text x="224.88px" y="97.2px" style="font-family:'ArialMT', 'Arial', sans-serif;font-size:10px;">H</text>
        <text x="232.08px" y="99.84px" style="font-family:'ArialMT', 'Arial', sans-serif;font-size:8px;">3</text>
    </g>
    <g transform="matrix(1.33333,0,0,1.33333,-77.0712,-76.2046)">
        <text x="253.2px" y="67.44px" style="font-family:'ArialMT', 'Arial', sans-serif;font-size:10px;">O</text>
    </g>
    <g transform="matrix(1.33333,0,0,1.33333,-77.0712,-76.2046)">
        <text x="322.56px" y="107.28px" style="font-family:'ArialMT', 'Arial', sans-serif;font-size:10px;">CH</text>
    </g>
    <g transform="matrix(1.33333,0,0,1.33333,-77.0712,-76.2046)">
        <text x="253.2px" y="127.2px" style="font-family:'ArialMT', 'Arial', sans-serif;font-size:10px;">O</text>
    </g>
    <g transform="matrix(1.33333,0,0,1.33333,-77.0712,-76.2046)">
        <text x="287.76px" y="127.2px" style="font-family:'ArialMT', 'Arial', sans-serif;font-size:10px;">O</text>
        <text x="295.68px" y="127.2px" style="font-family:'ArialMT', 'Arial', sans-serif;font-size:10px;">Et</text>
    </g>
    <g transform="matrix(1.33333,0,0,1.33333,-77.0712,-76.2046)">
        <text x="148.56px" y="252.72px" style="font-family:'ArialMT', 'Arial', sans-serif;font-size:10px;">O</text>
    </g>
    <g transform="matrix(1.33333,0,0,1.33333,-77.0712,-76.2046)">
        <text x="131.76px" y="222.72px" style="font-family:'ArialMT', 'Arial', sans-serif;font-size:10px;">C</text>
    </g>
    <g transform="matrix(1.33333,0,0,1.33333,-77.0712,-76.2046)">
        <text x="120.24px" y="222.72px" style="font-family:'ArialMT', 'Arial', sans-serif;font-size:10px;">H</text>
        <text x="127.44px" y="225.36px" style="font-family:'ArialMT', 'Arial', sans-serif;font-size:8px;">3</text>
    </g>
    <g transform="matrix(1.33333,0,0,1.33333,-77.0712,-76.2046)">
        <text x="148.56px" y="192.96px" style="font-family:'ArialMT', 'Arial', sans-serif;font-size:10px;">O</text>
        <text x="156.48px" y="186px" style="font-family:'ArialMT', 'Arial', sans-serif;font-size:8px;">–</text>
    </g>
    <g transform="matrix(1.33333,0,0,1.33333,-77.0712,-76.2046)">
        <text x="183.12px" y="252.72px" style="font-family:'ArialMT', 'Arial', sans-serif;font-size:10px;">O</text>
        <text x="191.04px" y="252.72px" style="font-family:'ArialMT', 'Arial', sans-serif;font-size:10px;">Et</text>
    </g>
    <g transform="matrix(1.33333,0,0,1.33333,-77.0712,-76.2046)">
        <text x="288.72px" y="221.76px" style="font-family:'ArialMT', 'Arial', sans-serif;font-size:10px;">CH</text>
        <text x="303.12px" y="214.8px" style="font-family:'ArialMT', 'Arial', sans-serif;font-size:8px;">–</text>
    </g>
    <g transform="matrix(1.33333,0,0,1.33333,-77.0712,-76.2046)">
        <text x="271.2px" y="251.76px" style="font-family:'ArialMT', 'Arial', sans-serif;font-size:10px;">O</text>
    </g>
    <g transform="matrix(1.33333,0,0,1.33333,-77.0712,-76.2046)">
        <text x="254.4px" y="221.76px" style="font-family:'ArialMT', 'Arial', sans-serif;font-size:10px;">C</text>
    </g>
    <g transform="matrix(1.33333,0,0,1.33333,-77.0712,-76.2046)">
        <text x="242.88px" y="221.76px" style="font-family:'ArialMT', 'Arial', sans-serif;font-size:10px;">H</text>
        <text x="250.08px" y="224.4px" style="font-family:'ArialMT', 'Arial', sans-serif;font-size:8px;">3</text>
    </g>
    <g transform="matrix(1.33333,0,0,1.33333,-77.0712,-76.2046)">
        <text x="271.2px" y="191.76px" style="font-family:'ArialMT', 'Arial', sans-serif;font-size:10px;">O</text>
    </g>
    <g transform="matrix(1.33333,0,0,1.33333,-77.0712,-76.2046)">
        <text x="305.76px" y="251.76px" style="font-family:'ArialMT', 'Arial', sans-serif;font-size:10px;">O</text>
        <text x="313.68px" y="251.76px" style="font-family:'ArialMT', 'Arial', sans-serif;font-size:10px;">Et</text>
    </g>
    <g transform="matrix(1.33333,0,0,1.33333,-77.0712,-76.2046)">
        <text x="338.88px" y="223.2px" style="font-family:'ArialMT', 'Arial', sans-serif;font-size:18px;">+</text>
        <text x="366.48px" y="214.8px" style="font-family:'ArialMT', 'Arial', sans-serif;font-size:10px;">H</text>
        <text x="373.693px" y="217.44px" style="font-family:'ArialMT', 'Arial', sans-serif;font-size:8px;">2</text>
        <text x="378.015px" y="214.8px" style="font-family:'ArialMT', 'Arial', sans-serif;font-size:10px;">C</text>
    </g>
    <g transform="matrix(1.33333,0,0,1.33333,-77.0712,-76.2046)">
        <text x="385.2px" y="207.84px" style="font-family:'ArialMT', 'Arial', sans-serif;font-size:8px;">+</text>
    </g>
    <g transform="matrix(1.33333,0,0,1.33333,-77.0712,-76.2046)">
        <text x="412.32px" y="234.72px" style="font-family:'ArialMT', 'Arial', sans-serif;font-size:10px;">CH</text>
    </g>
    <g transform="matrix(1.33333,0,0,1.33333,-77.0712,-76.2046)">
        <text x="211.2px" y="395.28px" style="font-family:'ArialMT', 'Arial', sans-serif;font-size:10px;">O</text>
    </g>
    <g transform="matrix(1.33333,0,0,1.33333,-77.0712,-76.2046)">
        <text x="194.4px" y="365.28px" style="font-family:'ArialMT', 'Arial', sans-serif;font-size:10px;">C</text>
    </g>
    <g transform="matrix(1.33333,0,0,1.33333,-77.0712,-76.2046)">
        <text x="182.88px" y="365.28px" style="font-family:'ArialMT', 'Arial', sans-serif;font-size:10px;">H</text>
        <text x="190.08px" y="367.92px" style="font-family:'ArialMT', 'Arial', sans-serif;font-size:8px;">3</text>
    </g>
    <g transform="matrix(1.33333,0,0,1.33333,-77.0712,-76.2046)">
        <text x="245.76px" y="395.28px" style="font-family:'ArialMT', 'Arial', sans-serif;font-size:10px;">O</text>
        <text x="253.68px" y="395.28px" style="font-family:'ArialMT', 'Arial', sans-serif;font-size:10px;">Et</text>
    </g>
    <g transform="matrix(1.33333,0,0,1.33333,-77.0712,-76.2046)">
        <text x="211.2px" y="335.28px" style="font-family:'ArialMT', 'Arial', sans-serif;font-size:10px;">O</text>
    </g>
    <g transform="matrix(1.33333,0,0,1.33333,-77.0712,-76.2046)">
        <text x="371.52px" y="364.56px" style="font-family:'ArialMT', 'Arial', sans-serif;font-size:10px;">Br</text>
    </g>
    <g transform="matrix(1.33333,0,0,1.33333,-77.0712,-76.2046)">
        <text x="427.92px" y="354.48px" style="font-family:'ArialMT', 'Arial', sans-serif;font-size:10px;">CH</text>
    </g>
    <g transform="matrix(-1.15485,0.666401,0.666401,1.15485,-367.095,-888.422)">
        <path d="M78.217,754.67L92.903,754.67" style="fill:none;fill-rule:nonzero;stroke:black;stroke-width:0.72px;"/>
    </g>
    <g transform="matrix(-1.15468,-0.666702,-0.666702,1.15468,675.353,-760.981)">
        <path d="M90.586,753.36L110.504,753.36" style="fill:none;fill-rule:nonzero;stroke:black;stroke-width:0.72px;"/>
    </g>
    <g transform="matrix(-1.15468,0.666702,0.666702,1.15468,-286.262,-906.549)">
        <path d="M107.836,753.36L127.754,753.36" style="fill:none;fill-rule:nonzero;stroke:black;stroke-width:0.72px;"/>
    </g>
    <g transform="matrix(1.15468,0.666702,0.666702,-1.15468,-555.212,821.73)">
        <path d="M125.086,753.36L145.004,753.36" style="fill:none;fill-rule:nonzero;stroke:black;stroke-width:0.72px;"/>
    </g>
    <g transform="matrix(0,-1.33333,-1.33333,0,1068.65,150.235)">
        <path d="M86.25,765.69L100.95,765.69" style="fill:none;fill-rule:nonzero;stroke:black;stroke-width:0.72px;"/>
    </g>
    <g transform="matrix(0,-1.33333,-1.33333,0,1064.17,145.755)">
        <path d="M82.89,765.69L97.59,765.69" style="fill:none;fill-rule:nonzero;stroke:black;stroke-width:0.72px;"/>
    </g>
    <g transform="matrix(1.15459,0.666853,0.666853,-1.15459,-546.907,813.24)">
        <path d="M142.697,744.75L157.213,744.75" style="fill:none;fill-rule:nonzero;stroke:black;stroke-width:0.72px;"/>
    </g>
    <g transform="matrix(1.1547,0.666667,0.666667,-1.1547,-548.16,811.444)">
        <path d="M144.305,747.39L159.905,747.39" style="fill:none;fill-rule:nonzero;stroke:black;stroke-width:0.72px;"/>
    </g>
    <g transform="matrix(1.15483,0.666438,0.666438,-1.15483,-544.554,814.677)">
        <path d="M140.897,741.39L157.223,741.39" style="fill:none;fill-rule:nonzero;stroke:black;stroke-width:0.72px;"/>
    </g>
    <g transform="matrix(1.33333,0,0,1.33333,-77.0712,-949.805)">
        <path d="M171.36,748.56L205.44,748.56" style="fill:none;fill-rule:nonzero;stroke:black;stroke-width:0.72px;"/>
    </g>
    <g transform="matrix(1.33333,0,0,1.33333,-77.0712,-957.485)">
        <path d="M171.36,751.44L205.44,751.44" style="fill:none;fill-rule:nonzero;stroke:black;stroke-width:0.72px;"/>
    </g>
    <g transform="matrix(1.33333,0,0,1.33333,-77.0712,-953.645)">
        <path d="M200.88,746.4L208.8,750L200.88,753.6" style="fill:none;fill-rule:nonzero;stroke:black;stroke-width:0.72px;"/>
    </g>
    <g transform="matrix(-1.15485,0.666401,0.666401,1.15485,44.1916,-999.215)">
        <path d="M243.577,754.91L258.263,754.91" style="fill:none;fill-rule:nonzero;stroke:black;stroke-width:0.72px;"/>
    </g>
    <g transform="matrix(-1.15468,-0.666702,-0.666702,1.15468,1086.93,-651.332)">
        <path d="M255.946,753.6L275.864,753.6" style="fill:none;fill-rule:nonzero;stroke:black;stroke-width:0.72px;"/>
    </g>
    <g transform="matrix(-1.15468,0.666702,0.666702,1.15468,124.995,-1017.39)">
        <path d="M273.196,753.6L293.114,753.6" style="fill:none;fill-rule:nonzero;stroke:black;stroke-width:0.72px;"/>
    </g>
    <g transform="matrix(1.15468,0.666702,0.666702,-1.15468,-525.83,711.442)">
        <path d="M290.446,753.6L310.364,753.6" style="fill:none;fill-rule:nonzero;stroke:black;stroke-width:0.72px;"/>
    </g>
    <g transform="matrix(0,-1.33333,-1.33333,0,1289.45,370.395)">
        <path d="M251.61,765.93L266.31,765.93" style="fill:none;fill-rule:nonzero;stroke:black;stroke-width:0.72px;"/>
    </g>
    <g transform="matrix(0,-1.33333,-1.33333,0,1284.97,365.915)">
        <path d="M248.25,765.93L262.95,765.93" style="fill:none;fill-rule:nonzero;stroke:black;stroke-width:0.72px;"/>
    </g>
    <g transform="matrix(1.15459,0.666853,0.666853,-1.15459,-517.511,702.927)">
        <path d="M308.057,744.99L322.573,744.99" style="fill:none;fill-rule:nonzero;stroke:black;stroke-width:0.72px;"/>
    </g>
    <g transform="matrix(1.1547,0.666667,0.666667,-1.1547,-518.781,701.161)">
        <path d="M309.665,747.63L325.265,747.63" style="fill:none;fill-rule:nonzero;stroke:black;stroke-width:0.72px;"/>
    </g>
    <g transform="matrix(1.15483,0.666438,0.666438,-1.15483,-515.197,704.432)">
        <path d="M306.257,741.63L322.583,741.63" style="fill:none;fill-rule:nonzero;stroke:black;stroke-width:0.72px;"/>
    </g>
    <g transform="matrix(0,1.33333,1.33333,0,-695.911,-304.565)">
        <path d="M264.57,738.66L284.49,738.66" style="fill:none;fill-rule:nonzero;stroke:black;stroke-width:0.72px;"/>
    </g>
    <g transform="matrix(-1.1544,0.667186,0.667186,1.1544,104.441,-940.471)">
        <path d="M261.18,726.805L274.59,726.805" style="fill:none;fill-rule:nonzero;stroke:black;stroke-width:0.72px;"/>
    </g>
    <g transform="matrix(-1.15444,0.667124,0.667124,1.15444,108.851,-932.595)">
        <path d="M261.05,723.41L276.4,723.41" style="fill:none;fill-rule:nonzero;stroke:black;stroke-width:0.72px;"/>
    </g>
    <g transform="matrix(1.15487,0.666378,0.666378,-1.15487,-510.213,729.91)">
        <path d="M273.582,725.16L287.748,725.16" style="fill:none;fill-rule:nonzero;stroke:black;stroke-width:0.72px;"/>
    </g>
    <g transform="matrix(1.33333,0,0,1.33333,-77.0712,-1001)">
        <path d="M254.64,774.24L252.96,775.2L251.28,775.92L249.36,776.16L248.16,776.16L246.96,775.92L244.08,774.48L243.36,773.76L242.64,772.8L241.92,772.08L241.44,771.12L241.2,769.92L240.96,768.96L240.96,766.56L241.2,765.6L241.44,764.4L241.92,763.44L242.64,762.48L244.08,761.04L246.96,759.6L248.16,759.36L249.36,759.36L252.24,759.84" style="fill:none;fill-rule:nonzero;stroke:black;stroke-width:0.48px;"/>
    </g>
    <g transform="matrix(1.24844,0.468165,0.468165,-1.24844,-419.599,864.243)">
        <path d="M244.115,777.174L252.317,777.174L245.014,773.41L246.222,775.657L244.115,777.174Z" style="stroke:black;stroke-width:0.48px;"/>
    </g>
    <g transform="matrix(1.33333,0,0,1.33333,-77.0712,-973.485)">
        <path d="M265.68,757.2L266.4,755.52L267.36,754.08L269.76,751.68L271.2,750.72L272.88,750L274.56,749.52L276.48,749.04L278.4,749.04L280.8,749.52L284.64,751.44L285.6,752.16L286.32,752.88L287.04,753.84L287.76,754.56L288.72,756.48L289.2,757.68L289.44,758.64L289.68,759.84L289.68,761.52L289.44,763.68L288.96,765.84" style="fill:none;fill-rule:nonzero;stroke:black;stroke-width:0.48px;"/>
    </g>
    <g transform="matrix(-0.468165,1.24844,1.24844,0.468165,-543.756,-660.952)">
        <path d="M265.127,760.059L273.329,760.059L266.054,763.739L267.121,761.576L265.127,760.059Z" style="stroke:black;stroke-width:0.48px;"/>
    </g>
    <g transform="matrix(1.33333,0,0,1.33333,-77.0712,-948.525)">
        <path d="M347.76,748.08L381.84,748.08" style="fill:none;fill-rule:nonzero;stroke:black;stroke-width:0.72px;"/>
    </g>
    <g transform="matrix(1.33333,0,0,1.33333,-77.0712,-956.205)">
        <path d="M347.76,750.96L381.84,750.96" style="fill:none;fill-rule:nonzero;stroke:black;stroke-width:0.72px;"/>
    </g>
    <g transform="matrix(1.33333,0,0,1.33333,-77.0712,-952.365)">
        <path d="M377.28,745.92L385.2,749.52L377.28,753.12" style="fill:none;fill-rule:nonzero;stroke:black;stroke-width:0.72px;"/>
    </g>
    <g transform="matrix(0,-1.33333,-1.33333,0,967.049,455.275)">
        <path d="M159.93,613.2L179.85,613.2" style="fill:none;fill-rule:nonzero;stroke:black;stroke-width:0.72px;"/>
    </g>
    <g transform="matrix(1.15468,0.666702,0.666702,-1.15468,-467.043,826.62)">
        <path d="M151.306,628.14L171.224,628.14" style="fill:none;fill-rule:nonzero;stroke:black;stroke-width:0.72px;"/>
    </g>
    <g transform="matrix(1.15458,0.666876,0.666876,-1.15458,-465.496,828.17)">
        <path d="M151.288,625.23L167.882,625.23" style="fill:none;fill-rule:nonzero;stroke:black;stroke-width:0.72px;"/>
    </g>
    <g transform="matrix(1.15444,-0.667124,-0.667124,-1.15444,351.19,1048.85)">
        <path d="M156.41,597.95L171.76,597.95" style="fill:none;fill-rule:nonzero;stroke:black;stroke-width:0.72px;"/>
    </g>
    <g transform="matrix(1.15483,-0.66644,-0.66644,-1.15483,352.825,1047.81)">
        <path d="M156.543,601.34L169.947,601.34" style="fill:none;fill-rule:nonzero;stroke:black;stroke-width:0.72px;"/>
    </g>
    <g transform="matrix(1.15485,-0.666401,-0.666401,-1.15485,368.503,1031.49)">
        <path d="M138.937,629.45L153.623,629.45" style="fill:none;fill-rule:nonzero;stroke:black;stroke-width:0.72px;"/>
    </g>
    <g transform="matrix(0,-1.33333,-1.33333,0,980.369,395.955)">
        <path d="M145.32,640.44L159.96,640.44" style="fill:none;fill-rule:nonzero;stroke:black;stroke-width:0.72px;"/>
    </g>
    <g transform="matrix(1.15487,0.666378,0.666378,-1.15487,-445.284,822.03)">
        <path d="M168.942,599.7L183.108,599.7" style="fill:none;fill-rule:nonzero;stroke:black;stroke-width:0.72px;"/>
    </g>
    <g transform="matrix(1.33333,0,0,1.33333,-77.0712,-624.045)">
        <path d="M189.84,626.4L223.92,626.4" style="fill:none;fill-rule:nonzero;stroke:black;stroke-width:0.72px;"/>
    </g>
    <g transform="matrix(1.2958,0.314133,0.314133,-1.2958,-265.589,953.748)">
        <path d="M215.659,627.333L223.809,627.333L216.564,623.601L217.511,625.806L215.659,627.333Z" style="stroke:black;stroke-width:0.72px;"/>
    </g>
    <g transform="matrix(-1.2958,0.314133,0.314133,1.2958,235.682,-661.413)">
        <path d="M189.499,625.467L197.649,625.467L190.404,629.199L191.351,626.994L189.499,625.467Z" style="stroke:black;stroke-width:0.72px;"/>
    </g>
    <g transform="matrix(0,-1.33333,-1.33333,0,1128.41,620.955)">
        <path d="M285.15,611.58L299.91,611.58" style="fill:none;fill-rule:nonzero;stroke:black;stroke-width:0.72px;"/>
    </g>
    <g transform="matrix(1.15451,0.666991,0.666991,-1.15451,-447.251,745.843)">
        <path d="M274.314,630.475L288.726,630.475" style="fill:none;fill-rule:nonzero;stroke:black;stroke-width:0.72px;"/>
    </g>
    <g transform="matrix(1.15444,-0.667124,-0.667124,-1.15444,373.77,1130.49)">
        <path d="M279.05,598.91L294.4,598.91" style="fill:none;fill-rule:nonzero;stroke:black;stroke-width:0.72px;"/>
    </g>
    <g transform="matrix(1.15483,-0.66644,-0.66644,-1.15483,375.357,1129.37)">
        <path d="M279.183,602.3L292.587,602.3" style="fill:none;fill-rule:nonzero;stroke:black;stroke-width:0.72px;"/>
    </g>
    <g transform="matrix(1.15485,-0.666401,-0.666401,-1.15485,391.032,1113.05)">
        <path d="M261.577,630.41L276.263,630.41" style="fill:none;fill-rule:nonzero;stroke:black;stroke-width:0.72px;"/>
    </g>
    <g transform="matrix(0,-1.33333,-1.33333,0,1147.57,560.275)">
        <path d="M269.52,641.52L284.4,641.52" style="fill:none;fill-rule:nonzero;stroke:black;stroke-width:0.72px;"/>
    </g>
    <g transform="matrix(0,-1.33333,-1.33333,0,1143.09,555.795)">
        <path d="M266.16,641.52L281.04,641.52" style="fill:none;fill-rule:nonzero;stroke:black;stroke-width:0.72px;"/>
    </g>
    <g transform="matrix(1.15487,0.666378,0.666378,-1.15487,-424.036,740.134)">
        <path d="M291.582,600.66L305.748,600.66" style="fill:none;fill-rule:nonzero;stroke:black;stroke-width:0.72px;"/>
    </g>
    <g transform="matrix(1.33333,0,0,1.33333,-77.0712,-618.925)">
        <path d="M330,674.64L323.52,674.64L323.52,674.4L329.28,674.4L329.28,574.56L323.52,574.56L323.52,574.32L330,574.32L330,674.64Z" style="stroke:black;stroke-width:0.02px;"/>
    </g>
    <g transform="matrix(1.33333,0,0,1.33333,-77.0712,-618.925)">
        <path d="M108.24,574.32L114.72,574.32L114.72,574.56L108.96,574.56L108.96,674.4L114.72,674.4L114.72,674.64L108.24,674.64L108.24,574.32Z" style="stroke:black;stroke-width:0.02px;"/>
    </g>
    <g transform="matrix(1.33333,0,0,1.33333,-77.0712,-617.005)">
        <path d="M60.48,623.76L94.56,623.76" style="fill:none;fill-rule:nonzero;stroke:black;stroke-width:0.72px;"/>
    </g>
    <g transform="matrix(1.33333,0,0,1.33333,-77.0712,-624.685)">
        <path d="M60.48,626.64L94.56,626.64" style="fill:none;fill-rule:nonzero;stroke:black;stroke-width:0.72px;"/>
    </g>
    <g transform="matrix(1.33333,0,0,1.33333,-77.0712,-620.845)">
        <path d="M90,621.6L97.92,625.2L90,628.8" style="fill:none;fill-rule:nonzero;stroke:black;stroke-width:0.72px;"/>
    </g>
    <g transform="matrix(-1.15469,-0.666689,-0.666689,1.15469,1316.12,-246.605)">
        <path d="M385.175,624.855L399.875,624.855" style="fill:none;fill-rule:nonzero;stroke:black;stroke-width:0.72px;"/>
    </g>
    <g transform="matrix(-1.15468,-0.666697,-0.666697,1.15468,1342.63,-220.098)">
        <path d="M397.925,617.58L412.325,617.58" style="fill:none;fill-rule:nonzero;stroke:black;stroke-width:0.72px;"/>
    </g>
    <g transform="matrix(-1.15483,-0.666438,-0.666438,1.15483,1338.16,-212.424)">
        <path d="M396.117,614.19L412.443,614.19" style="fill:none;fill-rule:nonzero;stroke:black;stroke-width:0.72px;"/>
    </g>
    <g transform="matrix(-1.1547,-0.666667,-0.666667,1.1547,1349.83,-225.148)">
        <path d="M399.525,620.19L415.125,620.19" style="fill:none;fill-rule:nonzero;stroke:black;stroke-width:0.72px;"/>
    </g>
    <g transform="matrix(0,1.33333,1.33333,0,-512.271,36.4354)">
        <path d="M201.6,541.92L229.44,541.92" style="fill:none;fill-rule:nonzero;stroke:black;stroke-width:0.72px;"/>
    </g>
    <g transform="matrix(0,1.33333,1.33333,0,-508.431,32.5954)">
        <path d="M204.48,541.92L232.32,541.92" style="fill:none;fill-rule:nonzero;stroke:black;stroke-width:0.72px;"/>
    </g>
    <g transform="matrix(1.33333,0,0,1.33333,-77.0712,-363.245)">
        <path d="M220.56,524.64L216.96,532.56L213.36,524.64" style="fill:none;fill-rule:nonzero;stroke:black;stroke-width:0.72px;"/>
    </g>
    <g transform="matrix(0,1.33333,1.33333,0,-291.951,-223.885)">
        <path d="M363.96,556.92L427.56,556.92" style="fill:none;fill-rule:nonzero;stroke:black;stroke-width:0.72px;"/>
    </g>
    <g transform="matrix(0,1.33333,1.33333,0,-288.111,-227.725)">
        <path d="M366.84,556.92L430.44,556.92" style="fill:none;fill-rule:nonzero;stroke:black;stroke-width:0.72px;"/>
    </g>
    <g transform="matrix(1.33333,0,0,1.33333,-77.0712,-355.565)">
        <path d="M400.8,521.76L397.2,529.68L393.6,521.76" style="fill:none;fill-rule:nonzero;stroke:black;stroke-width:0.72px;"/>
    </g>
    <g transform="matrix(0,-1.33333,-1.33333,0,860.489,728.875)">
        <path d="M222.57,470.64L242.49,470.64" style="fill:none;fill-rule:nonzero;stroke:black;stroke-width:0.72px;"/>
    </g>
    <g transform="matrix(1.15468,0.666702,0.666702,-1.15468,-360.807,810.327)">
        <path d="M213.946,485.58L233.864,485.58" style="fill:none;fill-rule:nonzero;stroke:black;stroke-width:0.72px;"/>
    </g>
    <g transform="matrix(1.15444,-0.667124,-0.667124,-1.15444,267.291,1116.14)">
        <path d="M219.05,455.39L234.4,455.39" style="fill:none;fill-rule:nonzero;stroke:black;stroke-width:0.72px;"/>
    </g>
    <g transform="matrix(1.15483,-0.66644,-0.66644,-1.15483,268.999,1115)">
        <path d="M219.183,458.78L232.587,458.78" style="fill:none;fill-rule:nonzero;stroke:black;stroke-width:0.72px;"/>
    </g>
    <g transform="matrix(1.15485,-0.666401,-0.666401,-1.15485,284.681,1098.68)">
        <path d="M201.577,486.89L216.263,486.89" style="fill:none;fill-rule:nonzero;stroke:black;stroke-width:0.72px;"/>
    </g>
    <g transform="matrix(1.15487,0.666378,0.666378,-1.15487,-339.106,805.73)">
        <path d="M231.582,457.14L245.748,457.14" style="fill:none;fill-rule:nonzero;stroke:black;stroke-width:0.72px;"/>
    </g>
    <g transform="matrix(0,-1.33333,-1.33333,0,876.209,671.635)">
        <path d="M209.52,498L224.4,498" style="fill:none;fill-rule:nonzero;stroke:black;stroke-width:0.72px;"/>
    </g>
    <g transform="matrix(0,-1.33333,-1.33333,0,871.729,667.155)">
        <path d="M206.16,498L221.04,498" style="fill:none;fill-rule:nonzero;stroke:black;stroke-width:0.72px;"/>
    </g>
    <g transform="matrix(-1.15464,-0.666774,-0.666774,1.15464,1210.1,122.917)">
        <path d="M381.426,475.65L398.344,475.65" style="fill:none;fill-rule:nonzero;stroke:black;stroke-width:0.72px;"/>
    </g>
    <g transform="matrix(-1.15468,0.666702,0.666702,1.15468,615.035,-409.505)">
        <path d="M395.876,476.4L415.794,476.4" style="fill:none;fill-rule:nonzero;stroke:black;stroke-width:0.72px;"/>
    </g>
    <g transform="matrix(-1.15498,0.66619,0.66619,1.15498,646.693,-440.71)">
        <path d="M413.495,484.985L427.925,484.985" style="fill:none;fill-rule:nonzero;stroke:black;stroke-width:0.72px;"/>
    </g>
    <g transform="matrix(-1.1547,0.666667,0.666667,1.1547,653.526,-435.727)">
        <path d="M415.095,482.37L430.695,482.37" style="fill:none;fill-rule:nonzero;stroke:black;stroke-width:0.72px;"/>
    </g>
    <g transform="matrix(-1.15483,0.666438,0.666438,1.15483,642.117,-448.594)">
        <path d="M411.687,488.37L428.013,488.37" style="fill:none;fill-rule:nonzero;stroke:black;stroke-width:0.72px;"/>
    </g>
</svg>
