<?xml version="1.0" encoding="UTF-8" standalone="no"?>
<!DOCTYPE svg PUBLIC "-//W3C//DTD SVG 1.1//EN" "http://www.w3.org/Graphics/SVG/1.1/DTD/svg11.dtd">
<svg width="100%" height="100%" viewBox="0 0 500 100" version="1.1" xmlns="http://www.w3.org/2000/svg" xmlns:xlink="http://www.w3.org/1999/xlink" xml:space="preserve" xmlns:serif="http://www.serif.com/" style="fill-rule:evenodd;clip-rule:evenodd;stroke-linecap:round;stroke-linejoin:round;stroke-miterlimit:10;">
    <g transform="matrix(1.33333,0,0,1.33333,-67.2627,-70.5046)">
        <text x="81.36px" y="124.08px" style="font-family:'ArialMT', 'Arial', sans-serif;font-size:10px;">O</text>
    </g>
    <g transform="matrix(1.33333,0,0,1.33333,-67.2627,-70.5046)">
        <text x="64.56px" y="94.08px" style="font-family:'ArialMT', 'Arial', sans-serif;font-size:10px;">C</text>
    </g>
    <g transform="matrix(1.33333,0,0,1.33333,-67.2627,-70.5046)">
        <text x="53.04px" y="94.08px" style="font-family:'ArialMT', 'Arial', sans-serif;font-size:10px;">H</text>
        <text x="60.24px" y="96.72px" style="font-family:'ArialMT', 'Arial', sans-serif;font-size:8px;">3</text>
    </g>
    <g transform="matrix(1.33333,0,0,1.33333,-67.2627,-70.5046)">
        <text x="81.36px" y="64.08px" style="font-family:'ArialMT', 'Arial', sans-serif;font-size:10px;">O</text>
    </g>
    <g transform="matrix(1.33333,0,0,1.33333,-67.2627,-70.5046)">
        <text x="115.92px" y="124.08px" style="font-family:'ArialMT', 'Arial', sans-serif;font-size:10px;">O</text>
        <text x="123.84px" y="124.08px" style="font-family:'ArialMT', 'Arial', sans-serif;font-size:10px;">Et</text>
    </g>
    <g transform="matrix(1.33333,0,0,1.33333,-67.2627,-70.5046)">
        <text x="242.64px" y="123.6px" style="font-family:'ArialMT', 'Arial', sans-serif;font-size:10px;">O</text>
    </g>
    <g transform="matrix(1.33333,0,0,1.33333,-67.2627,-70.5046)">
        <text x="225.84px" y="93.6px" style="font-family:'ArialMT', 'Arial', sans-serif;font-size:10px;">C</text>
    </g>
    <g transform="matrix(1.33333,0,0,1.33333,-67.2627,-70.5046)">
        <text x="214.32px" y="93.6px" style="font-family:'ArialMT', 'Arial', sans-serif;font-size:10px;">H</text>
        <text x="221.52px" y="96.24px" style="font-family:'ArialMT', 'Arial', sans-serif;font-size:8px;">3</text>
    </g>
    <g transform="matrix(1.33333,0,0,1.33333,-67.2627,-70.5046)">
        <text x="277.2px" y="123.6px" style="font-family:'ArialMT', 'Arial', sans-serif;font-size:10px;">O</text>
        <text x="285.12px" y="123.6px" style="font-family:'ArialMT', 'Arial', sans-serif;font-size:10px;">Et</text>
    </g>
    <g transform="matrix(1.33333,0,0,1.33333,-67.2627,-70.5046)">
        <text x="242.64px" y="63.84px" style="font-family:'ArialMT', 'Arial', sans-serif;font-size:10px;">O</text>
    </g>
    <g transform="matrix(1.33333,0,0,1.33333,-67.2627,-70.5046)">
        <text x="312px" y="103.44px" style="font-family:'ArialMT', 'Arial', sans-serif;font-size:10px;">CH</text>
    </g>
    <g transform="matrix(1.33333,0,0,1.33333,-67.2627,-70.5046)">
        <text x="408.24px" y="94.08px" style="font-family:'ArialMT', 'Arial', sans-serif;font-size:10px;">T<tspan x="414.48px " y="94.08px ">M</tspan></text>
    </g>
    <g transform="matrix(1.33333,0,0,1.33333,-67.2627,-70.5046)">
        <text x="339.36px" y="81.84px" style="font-family:'ArialMT', 'Arial', sans-serif;font-size:10px;">1</text>
        <text x="344.88px" y="81.84px" style="font-family:'ArialMT', 'Arial', sans-serif;font-size:10px;">)</text>
        <text x="351.152px" y="81.84px" style="font-family:'ArialMT', 'Arial', sans-serif;font-size:10px;">H</text>
        <text x="358.352px" y="84.48px" style="font-family:'ArialMT', 'Arial', sans-serif;font-size:6px;">2</text>
        <text x="361.952px" y="81.84px" style="font-family:'ArialMT', 'Arial', sans-serif;font-size:10px;">O</text>
    </g>
    <g transform="matrix(1.33333,0,0,1.33333,-67.2627,-70.5046)">
        <text x="340.8px" y="105.12px" style="font-family:'ArialMT', 'Arial', sans-serif;font-size:10px;">2</text>
        <text x="346.32px" y="105.12px" style="font-family:'ArialMT', 'Arial', sans-serif;font-size:10px;">)</text>
        <text x="352.592px" y="105.12px" style="font-family:'ArialMT', 'Arial', sans-serif;font-size:10px;">Na</text>
        <text x="365.312px" y="105.12px" style="font-family:'ArialMT', 'Arial', sans-serif;font-size:10px;">O<tspan x="373.232px " y="105.12px ">H</tspan></text>
    </g>
    <g transform="matrix(1.33333,0,0,1.33333,-67.2627,-70.5046)">
        <text x="137.04px" y="84.24px" style="font-family:'ArialMT', 'Arial', sans-serif;font-size:10px;">1</text>
        <text x="142.56px" y="84.24px" style="font-family:'ArialMT', 'Arial', sans-serif;font-size:10px;">) <tspan x="148.843px " y="84.24px ">E</tspan></text>
        <text x="155.553px" y="84.24px" style="font-family:'ArialMT', 'Arial', sans-serif;font-size:10px;">t<tspan x="158.453px " y="84.24px ">O</tspan></text>
        <text x="166.353px" y="84.24px" style="font-family:'ArialMT', 'Arial', sans-serif;font-size:10px;">Na</text>
    </g>
    <g transform="matrix(1.33333,0,0,1.33333,-67.2627,-70.5046)">
        <text x="127.44px" y="106.56px" style="font-family:'ArialMT', 'Arial', sans-serif;font-size:10px;">2</text>
        <text x="132.96px" y="106.56px" style="font-family:'ArialMT', 'Arial', sans-serif;font-size:10px;">) <tspan x="139.239px " y="106.56px ">B</tspan>r</text>
        <text x="149.312px" y="106.56px" style="font-family:'ArialMT', 'Arial', sans-serif;font-size:10px;">CH</text>
        <text x="163.712px" y="109.2px" style="font-family:'ArialMT', 'Arial', sans-serif;font-size:6px;">2</text>
        <text x="167.312px" y="106.56px" style="font-family:'ArialMT', 'Arial', sans-serif;font-size:10px;">CCH</text>
    </g>
    <g transform="matrix(0,-1.33333,-1.33333,0,1058.78,199.855)">
        <path d="M92.73,741.84L112.65,741.84" style="fill:none;fill-rule:nonzero;stroke:black;stroke-width:0.72px;"/>
    </g>
    <g transform="matrix(1.15468,0.666702,0.666702,-1.15468,-555.005,854.141)">
        <path d="M84.106,756.78L104.024,756.78" style="fill:none;fill-rule:nonzero;stroke:black;stroke-width:0.72px;"/>
    </g>
    <g transform="matrix(1.15444,-0.667124,-0.667124,-1.15444,434.795,986.705)">
        <path d="M89.21,726.59L104.56,726.59" style="fill:none;fill-rule:nonzero;stroke:black;stroke-width:0.72px;"/>
    </g>
    <g transform="matrix(1.15483,-0.66644,-0.66644,-1.15483,436.37,985.761)">
        <path d="M89.343,729.98L102.747,729.98" style="fill:none;fill-rule:nonzero;stroke:black;stroke-width:0.72px;"/>
    </g>
    <g transform="matrix(1.15485,-0.666401,-0.666401,-1.15485,452.044,969.451)">
        <path d="M71.737,758.09L86.423,758.09" style="fill:none;fill-rule:nonzero;stroke:black;stroke-width:0.72px;"/>
    </g>
    <g transform="matrix(0,-1.33333,-1.33333,0,1074.5,142.615)">
        <path d="M79.68,769.2L94.56,769.2" style="fill:none;fill-rule:nonzero;stroke:black;stroke-width:0.72px;"/>
    </g>
    <g transform="matrix(0,-1.33333,-1.33333,0,1070.02,138.135)">
        <path d="M76.32,769.2L91.2,769.2" style="fill:none;fill-rule:nonzero;stroke:black;stroke-width:0.72px;"/>
    </g>
    <g transform="matrix(1.15487,0.666378,0.666378,-1.15487,-533.191,849.553)">
        <path d="M101.742,728.34L115.908,728.34" style="fill:none;fill-rule:nonzero;stroke:black;stroke-width:0.72px;"/>
    </g>
    <g transform="matrix(1.33333,0,0,1.33333,-67.2627,-952.425)">
        <path d="M125.52,751.68L190.32,751.68" style="fill:none;fill-rule:nonzero;stroke:black;stroke-width:0.72px;"/>
    </g>
    <g transform="matrix(1.2958,0.314133,0.314133,-1.2958,-296.396,965.301)">
        <path d="M182.059,752.613L190.209,752.613L182.964,748.881L183.911,751.086L182.059,752.613Z" style="stroke:black;stroke-width:0.72px;"/>
    </g>
    <g transform="matrix(1.15468,0.666702,0.666702,-1.15468,-526.511,746.529)">
        <path d="M245.386,757.26L265.304,757.26" style="fill:none;fill-rule:nonzero;stroke:black;stroke-width:0.72px;"/>
    </g>
    <g transform="matrix(1.15444,-0.667124,-0.667124,-1.15444,463.968,1094.21)">
        <path d="M250.49,727.07L265.84,727.07" style="fill:none;fill-rule:nonzero;stroke:black;stroke-width:0.72px;"/>
    </g>
    <g transform="matrix(1.15483,-0.66644,-0.66644,-1.15483,465.478,1093.16)">
        <path d="M250.623,730.46L264.027,730.46" style="fill:none;fill-rule:nonzero;stroke:black;stroke-width:0.72px;"/>
    </g>
    <g transform="matrix(1.15485,-0.666401,-0.666401,-1.15485,481.149,1076.84)">
        <path d="M233.017,758.57L247.703,758.57" style="fill:none;fill-rule:nonzero;stroke:black;stroke-width:0.72px;"/>
    </g>
    <g transform="matrix(1.15485,0.666412,0.666412,-1.15485,-520.176,723.735)">
        <path d="M279.886,757.26L299.814,757.26" style="fill:none;fill-rule:nonzero;stroke:black;stroke-width:0.72px;"/>
    </g>
    <g transform="matrix(1.15468,-0.666702,-0.666702,-1.15468,486.304,1098.51)">
        <path d="M262.636,757.26L282.554,757.26" style="fill:none;fill-rule:nonzero;stroke:black;stroke-width:0.72px;"/>
    </g>
    <g transform="matrix(1.15487,0.666378,0.666378,-1.15487,-504.728,741.994)">
        <path d="M263.022,728.82L277.188,728.82" style="fill:none;fill-rule:nonzero;stroke:black;stroke-width:0.72px;"/>
    </g>
    <g transform="matrix(0,-1.33333,-1.33333,0,1274.46,414.255)">
        <path d="M254.01,742.32L273.93,742.32" style="fill:none;fill-rule:nonzero;stroke:black;stroke-width:0.72px;"/>
    </g>
    <g transform="matrix(0,-1.33333,-1.33333,0,1290.02,357.175)">
        <path d="M241.08,769.56L255.72,769.56" style="fill:none;fill-rule:nonzero;stroke:black;stroke-width:0.72px;"/>
    </g>
    <g transform="matrix(0,-1.33333,-1.33333,0,1285.54,352.695)">
        <path d="M237.72,769.56L252.36,769.56" style="fill:none;fill-rule:nonzero;stroke:black;stroke-width:0.72px;"/>
    </g>
    <g transform="matrix(1.15476,0.666562,0.666562,-1.15476,-511.866,715.225)">
        <path d="M297.509,748.655L312.011,748.655" style="fill:none;fill-rule:nonzero;stroke:black;stroke-width:0.72px;"/>
    </g>
    <g transform="matrix(1.15483,0.666449,0.666449,-1.15483,-513.291,713.523)">
        <path d="M299.138,751.41L314.262,751.41" style="fill:none;fill-rule:nonzero;stroke:black;stroke-width:0.72px;"/>
    </g>
    <g transform="matrix(1.15463,0.666792,0.666792,-1.15463,-509.914,716.254)">
        <path d="M295.707,745.29L312.023,745.29" style="fill:none;fill-rule:nonzero;stroke:black;stroke-width:0.72px;"/>
    </g>
    <g transform="matrix(1.33333,0,0,1.33333,-67.2627,-951.145)">
        <path d="M337.44,751.2L392.16,751.2" style="fill:none;fill-rule:nonzero;stroke:black;stroke-width:0.72px;"/>
    </g>
    <g transform="matrix(1.2958,0.314133,0.314133,-1.2958,-288.669,901.914)">
        <path d="M383.899,752.133L392.049,752.133L384.804,748.401L385.751,750.606L383.899,752.133Z" style="stroke:black;stroke-width:0.72px;"/>
    </g>
</svg>
