<?xml version="1.0" encoding="UTF-8" standalone="no"?>
<!DOCTYPE svg PUBLIC "-//W3C//DTD SVG 1.1//EN" "http://www.w3.org/Graphics/SVG/1.1/DTD/svg11.dtd">
<svg width="100%" height="100%" viewBox="0 0 570 235" version="1.1" xmlns="http://www.w3.org/2000/svg" xmlns:xlink="http://www.w3.org/1999/xlink" xml:space="preserve" xmlns:serif="http://www.serif.com/" style="fill-rule:evenodd;clip-rule:evenodd;stroke-linecap:round;stroke-linejoin:round;stroke-miterlimit:10;">
    <g transform="matrix(1.33333,0,0,1.33333,-60.28,-94.5)">
        <text x="58.08px" y="86.88px" style="font-family:'ArialMT', 'Arial', sans-serif;font-size:10px;">C</text>
    </g>
    <g transform="matrix(1.33333,0,0,1.33333,-60.28,-94.5)">
        <text x="46.56px" y="86.88px" style="font-family:'ArialMT', 'Arial', sans-serif;font-size:10px;">H</text>
        <text x="53.76px" y="89.52px" style="font-family:'ArialMT', 'Arial', sans-serif;font-size:8px;">3</text>
    </g>
    <g transform="matrix(1.33333,0,0,1.33333,-60.28,-94.5)">
        <text x="58.08px" y="126.48px" style="font-family:'ArialMT', 'Arial', sans-serif;font-size:10px;">C</text>
    </g>
    <g transform="matrix(1.33333,0,0,1.33333,-60.28,-94.5)">
        <text x="46.56px" y="126.48px" style="font-family:'ArialMT', 'Arial', sans-serif;font-size:10px;">H</text>
        <text x="53.76px" y="129.12px" style="font-family:'ArialMT', 'Arial', sans-serif;font-size:8px;">3</text>
    </g>
    <g transform="matrix(1.33333,0,0,1.33333,-60.28,-94.5)">
        <text x="126.72px" y="86.64px" style="font-family:'ArialMT', 'Arial', sans-serif;font-size:10px;">O</text>
    </g>
    <g transform="matrix(1.33333,0,0,1.33333,-60.28,-94.5)">
        <text x="183.36px" y="87.36px" style="font-family:'ArialMT', 'Arial', sans-serif;font-size:10px;">C</text>
    </g>
    <g transform="matrix(1.33333,0,0,1.33333,-60.28,-94.5)">
        <text x="171.84px" y="87.36px" style="font-family:'ArialMT', 'Arial', sans-serif;font-size:10px;">H</text>
        <text x="179.04px" y="90px" style="font-family:'ArialMT', 'Arial', sans-serif;font-size:8px;">3</text>
    </g>
    <g transform="matrix(1.33333,0,0,1.33333,-60.28,-94.5)">
        <text x="183.36px" y="126.96px" style="font-family:'ArialMT', 'Arial', sans-serif;font-size:10px;">C</text>
    </g>
    <g transform="matrix(1.33333,0,0,1.33333,-60.28,-94.5)">
        <text x="171.84px" y="126.96px" style="font-family:'ArialMT', 'Arial', sans-serif;font-size:10px;">H</text>
        <text x="179.04px" y="129.6px" style="font-family:'ArialMT', 'Arial', sans-serif;font-size:8px;">3</text>
    </g>
    <g transform="matrix(1.33333,0,0,1.33333,-60.28,-94.5)">
        <text x="252.24px" y="87.12px" style="font-family:'ArialMT', 'Arial', sans-serif;font-size:10px;">N</text>
        <text x="259.44px" y="87.12px" style="font-family:'ArialMT', 'Arial', sans-serif;font-size:10px;">O</text>
        <text x="267.6px" y="89.76px" style="font-family:'ArialMT', 'Arial', sans-serif;font-size:8px;">2</text>
    </g>
    <g transform="matrix(1.33333,0,0,1.33333,-60.28,-94.5)">
        <text x="331.44px" y="87.6px" style="font-family:'ArialMT', 'Arial', sans-serif;font-size:10px;">C</text>
    </g>
    <g transform="matrix(1.33333,0,0,1.33333,-60.28,-94.5)">
        <text x="319.92px" y="87.6px" style="font-family:'ArialMT', 'Arial', sans-serif;font-size:10px;">H</text>
        <text x="327.12px" y="90.24px" style="font-family:'ArialMT', 'Arial', sans-serif;font-size:8px;">3</text>
    </g>
    <g transform="matrix(1.33333,0,0,1.33333,-60.28,-94.5)">
        <text x="331.44px" y="127.2px" style="font-family:'ArialMT', 'Arial', sans-serif;font-size:10px;">C</text>
    </g>
    <g transform="matrix(1.33333,0,0,1.33333,-60.28,-94.5)">
        <text x="319.92px" y="127.2px" style="font-family:'ArialMT', 'Arial', sans-serif;font-size:10px;">H</text>
        <text x="327.12px" y="129.84px" style="font-family:'ArialMT', 'Arial', sans-serif;font-size:8px;">3</text>
    </g>
    <g transform="matrix(1.33333,0,0,1.33333,-60.28,-94.5)">
        <text x="400.32px" y="87.36px" style="font-family:'ArialMT', 'Arial', sans-serif;font-size:10px;">N</text>
        <text x="407.52px" y="87.36px" style="font-family:'ArialMT', 'Arial', sans-serif;font-size:10px;">O</text>
        <text x="415.68px" y="90px" style="font-family:'ArialMT', 'Arial', sans-serif;font-size:8px;">2</text>
    </g>
    <g transform="matrix(1.33333,0,0,1.33333,-60.28,-94.5)">
        <text x="114.24px" y="208.32px" style="font-family:'ArialMT', 'Arial', sans-serif;font-size:10px;">C</text>
    </g>
    <g transform="matrix(1.33333,0,0,1.33333,-60.28,-94.5)">
        <text x="102.72px" y="208.32px" style="font-family:'ArialMT', 'Arial', sans-serif;font-size:10px;">H</text>
        <text x="109.92px" y="210.96px" style="font-family:'ArialMT', 'Arial', sans-serif;font-size:8px;">3</text>
    </g>
    <g transform="matrix(1.33333,0,0,1.33333,-60.28,-94.5)">
        <text x="114.24px" y="228.24px" style="font-family:'ArialMT', 'Arial', sans-serif;font-size:10px;">C</text>
    </g>
    <g transform="matrix(1.33333,0,0,1.33333,-60.28,-94.5)">
        <text x="102.72px" y="228.24px" style="font-family:'ArialMT', 'Arial', sans-serif;font-size:10px;">H</text>
        <text x="109.92px" y="230.88px" style="font-family:'ArialMT', 'Arial', sans-serif;font-size:8px;">3</text>
    </g>
    <g transform="matrix(1.33333,0,0,1.33333,-60.28,-94.5)">
        <text x="148.32px" y="194.16px" style="font-family:'ArialMT', 'Arial', sans-serif;font-size:10px;">CH</text>
        <text x="162.72px" y="196.8px" style="font-family:'ArialMT', 'Arial', sans-serif;font-size:8px;">2</text>
    </g>
    <g transform="matrix(1.33333,0,0,1.33333,-60.28,-94.5)">
        <text x="148.32px" y="242.4px" style="font-family:'ArialMT', 'Arial', sans-serif;font-size:10px;">CH</text>
        <text x="162.72px" y="245.04px" style="font-family:'ArialMT', 'Arial', sans-serif;font-size:8px;">2</text>
    </g>
    <g transform="matrix(1.33333,0,0,1.33333,-60.28,-94.5)">
        <text x="165.84px" y="221.76px" style="font-family:'ArialMT', 'Arial', sans-serif;font-size:18px;">+</text>
    </g>
    <g transform="matrix(1.33333,0,0,1.33333,-60.28,-94.5)">
        <text x="213.84px" y="204.72px" style="font-family:'ArialMT', 'Arial', sans-serif;font-size:10px;">N</text>
        <text x="221.04px" y="204.72px" style="font-family:'ArialMT', 'Arial', sans-serif;font-size:10px;">O</text>
        <text x="229.2px" y="207.36px" style="font-family:'ArialMT', 'Arial', sans-serif;font-size:8px;">2</text>
    </g>
    <g transform="matrix(1.33333,0,0,1.33333,-60.28,-94.5)">
        <text x="196.8px" y="234.48px" style="font-family:'ArialMT', 'Arial', sans-serif;font-size:10px;">CH</text>
        <text x="211.2px" y="237.12px" style="font-family:'ArialMT', 'Arial', sans-serif;font-size:8px;">2</text>
    </g>
    <g transform="matrix(0,-1.33333,-1.33333,0,1076.64,193.78)">
        <path d="M103.53,739.2L123.45,739.2" style="fill:none;fill-rule:nonzero;stroke:black;stroke-width:0.72px;"/>
    </g>
    <g transform="matrix(1.15468,0.666702,0.666702,-1.15468,-544.332,823.417)">
        <path d="M94.906,754.14L114.824,754.14" style="fill:none;fill-rule:nonzero;stroke:black;stroke-width:0.72px;"/>
    </g>
    <g transform="matrix(1.15468,-0.666702,-0.666702,-1.15468,441.32,968.582)">
        <path d="M94.906,724.26L114.824,724.26" style="fill:none;fill-rule:nonzero;stroke:black;stroke-width:0.72px;"/>
    </g>
    <g transform="matrix(1.15468,-0.666702,-0.666702,-1.15468,458.16,951.744)">
        <path d="M77.656,754.14L97.574,754.14" style="fill:none;fill-rule:nonzero;stroke:black;stroke-width:0.72px;"/>
    </g>
    <g transform="matrix(1.15468,0.666702,0.666702,-1.15468,-527.493,840.255)">
        <path d="M77.656,724.26L97.574,724.26" style="fill:none;fill-rule:nonzero;stroke:black;stroke-width:0.72px;"/>
    </g>
    <g transform="matrix(0,-1.33333,-1.33333,0,1030.64,147.78)">
        <path d="M69.03,739.2L88.95,739.2" style="fill:none;fill-rule:nonzero;stroke:black;stroke-width:0.72px;"/>
    </g>
    <g transform="matrix(-1.15475,-0.666584,-0.666584,1.15475,622.223,-796.663)">
        <path d="M65.254,752.84L79.976,752.84" style="fill:none;fill-rule:nonzero;stroke:black;stroke-width:0.72px;"/>
    </g>
    <g transform="matrix(-1.15475,0.666584,0.666584,1.15475,-363.255,-825.596)">
        <path d="M65.254,725.56L79.976,725.56" style="fill:none;fill-rule:nonzero;stroke:black;stroke-width:0.72px;"/>
    </g>
    <g transform="matrix(1.1551,-0.665976,-0.665976,-1.1551,461.267,974.152)">
        <path d="M113.448,751.005L126.642,751.005" style="fill:none;fill-rule:nonzero;stroke:black;stroke-width:0.72px;"/>
    </g>
    <g transform="matrix(1.15466,-0.666729,-0.666729,-1.15466,463.995,972.751)">
        <path d="M111.636,754.395L126.774,754.395" style="fill:none;fill-rule:nonzero;stroke:black;stroke-width:0.72px;"/>
    </g>
    <g transform="matrix(1.33333,0,0,1.33333,-60.28,-938.66)">
        <path d="M134.4,737.52L168.48,737.52" style="fill:none;fill-rule:nonzero;stroke:black;stroke-width:0.72px;"/>
    </g>
    <g transform="matrix(1.33333,0,0,1.33333,-60.28,-946.34)">
        <path d="M134.4,740.4L168.48,740.4" style="fill:none;fill-rule:nonzero;stroke:black;stroke-width:0.72px;"/>
    </g>
    <g transform="matrix(1.33333,0,0,1.33333,-60.28,-942.5)">
        <path d="M163.92,735.36L171.84,738.96L163.92,742.56" style="fill:none;fill-rule:nonzero;stroke:black;stroke-width:0.72px;"/>
    </g>
    <g transform="matrix(0,-1.33333,-1.33333,0,1243.04,361.46)">
        <path d="M228.81,738.72L248.73,738.72" style="fill:none;fill-rule:nonzero;stroke:black;stroke-width:0.72px;"/>
    </g>
    <g transform="matrix(1.15468,0.666702,0.666702,-1.15468,-521.631,739.978)">
        <path d="M220.186,753.66L240.104,753.66" style="fill:none;fill-rule:nonzero;stroke:black;stroke-width:0.72px;"/>
    </g>
    <g transform="matrix(1.15468,-0.666702,-0.666702,-1.15468,463.382,1052.19)">
        <path d="M220.186,723.78L240.104,723.78" style="fill:none;fill-rule:nonzero;stroke:black;stroke-width:0.72px;"/>
    </g>
    <g transform="matrix(1.15468,-0.666702,-0.666702,-1.15468,480.221,1035.35)">
        <path d="M202.936,753.66L222.854,753.66" style="fill:none;fill-rule:nonzero;stroke:black;stroke-width:0.72px;"/>
    </g>
    <g transform="matrix(1.15468,0.666702,0.666702,-1.15468,-504.791,756.817)">
        <path d="M202.936,723.78L222.854,723.78" style="fill:none;fill-rule:nonzero;stroke:black;stroke-width:0.72px;"/>
    </g>
    <g transform="matrix(0,-1.33333,-1.33333,0,1197.04,315.46)">
        <path d="M194.31,738.72L214.23,738.72" style="fill:none;fill-rule:nonzero;stroke:black;stroke-width:0.72px;"/>
    </g>
    <g transform="matrix(-1.15475,-0.666584,-0.666584,1.15475,933.61,-711.959)">
        <path d="M190.534,752.36L205.256,752.36" style="fill:none;fill-rule:nonzero;stroke:black;stroke-width:0.72px;"/>
    </g>
    <g transform="matrix(-1.15475,0.666584,0.666584,1.15475,-51.2279,-907.912)">
        <path d="M190.534,725.08L205.256,725.08" style="fill:none;fill-rule:nonzero;stroke:black;stroke-width:0.72px;"/>
    </g>
    <g transform="matrix(1.15481,-0.666483,-0.666483,-1.15481,484.852,1057.06)">
        <path d="M237.803,752.29L252.247,752.29" style="fill:none;fill-rule:nonzero;stroke:black;stroke-width:0.72px;"/>
    </g>
    <g transform="matrix(1.33333,0,0,1.33333,-60.28,-939.94)">
        <path d="M275.28,738L309.36,738" style="fill:none;fill-rule:nonzero;stroke:black;stroke-width:0.72px;"/>
    </g>
    <g transform="matrix(1.33333,0,0,1.33333,-60.28,-947.62)">
        <path d="M275.28,740.88L309.36,740.88" style="fill:none;fill-rule:nonzero;stroke:black;stroke-width:0.72px;"/>
    </g>
    <g transform="matrix(1.33333,0,0,1.33333,-60.28,-943.78)">
        <path d="M304.8,735.84L312.72,739.44L304.8,743.04" style="fill:none;fill-rule:nonzero;stroke:black;stroke-width:0.72px;"/>
    </g>
    <g transform="matrix(0,-1.33333,-1.33333,0,1440.16,559.22)">
        <path d="M376.89,738.48L396.81,738.48" style="fill:none;fill-rule:nonzero;stroke:black;stroke-width:0.72px;"/>
    </g>
    <g transform="matrix(1.15468,0.666702,0.666702,-1.15468,-495.016,641.296)">
        <path d="M368.266,753.42L388.184,753.42" style="fill:none;fill-rule:nonzero;stroke:black;stroke-width:0.72px;"/>
    </g>
    <g transform="matrix(1.15468,-0.666702,-0.666702,-1.15468,489.677,1150.96)">
        <path d="M368.266,723.54L388.184,723.54" style="fill:none;fill-rule:nonzero;stroke:black;stroke-width:0.72px;"/>
    </g>
    <g transform="matrix(1.15468,-0.666702,-0.666702,-1.15468,506.516,1134.12)">
        <path d="M351.016,753.42L370.934,753.42" style="fill:none;fill-rule:nonzero;stroke:black;stroke-width:0.72px;"/>
    </g>
    <g transform="matrix(1.15468,0.666702,0.666702,-1.15468,-478.176,658.134)">
        <path d="M351.016,723.54L370.934,723.54" style="fill:none;fill-rule:nonzero;stroke:black;stroke-width:0.72px;"/>
    </g>
    <g transform="matrix(0,-1.33333,-1.33333,0,1394.16,513.22)">
        <path d="M342.39,738.48L362.31,738.48" style="fill:none;fill-rule:nonzero;stroke:black;stroke-width:0.72px;"/>
    </g>
    <g transform="matrix(0,-1.33333,-1.33333,0,1398.64,517.7)">
        <path d="M347.41,738.48L364.01,738.48" style="fill:none;fill-rule:nonzero;stroke:black;stroke-width:0.72px;"/>
    </g>
    <g transform="matrix(-1.15475,-0.666584,-0.666584,1.15475,1301.89,-612.654)">
        <path d="M338.614,752.12L353.336,752.12" style="fill:none;fill-rule:nonzero;stroke:black;stroke-width:0.72px;"/>
    </g>
    <g transform="matrix(-1.15475,0.666584,0.666584,1.15475,317.367,-1006.02)">
        <path d="M338.614,724.84L353.336,724.84" style="fill:none;fill-rule:nonzero;stroke:black;stroke-width:0.72px;"/>
    </g>
    <g transform="matrix(1.15481,-0.666483,-0.666483,-1.15481,511.128,1155.8)">
        <path d="M385.883,752.05L400.327,752.05" style="fill:none;fill-rule:nonzero;stroke:black;stroke-width:0.72px;"/>
    </g>
    <g transform="matrix(1.33333,0,0,1.33333,-60.28,-1003.62)">
        <path d="M354.48,768.24L354.48,767.04L354.72,765.84L354.96,764.88L355.44,763.68L356.4,761.76L357.36,760.32L358.32,759.12L359.76,757.92L360.96,756.96L362.64,756.24L364.56,755.28L365.76,755.04L367.68,755.04L368.16,754.8L369.36,755.04L370.56,755.04L371.52,755.28L372.72,755.76L373.68,756L376.56,757.92L377.76,758.88L378.96,760.08L379.92,761.52L380.64,762.96L381.12,764.16L381.36,765.12L381.84,767.52L381.84,768.96" style="fill:none;fill-rule:nonzero;stroke:black;stroke-width:0.48px;"/>
    </g>
    <g transform="matrix(0.0391987,1.33276,1.33276,-0.0391987,-611.723,-429.639)">
        <path d="M352.025,757.801L360.189,757.801L352.858,761.618L353.987,759.184L352.025,757.801Z" style="stroke:black;stroke-width:0.48px;"/>
    </g>
    <g transform="matrix(1.33333,0,0,1.33333,-60.28,-924.26)">
        <path d="M359.76,725.04L362.4,724.56L363.6,724.56L364.56,724.8L365.76,725.28L366.72,725.76L368.16,727.2L368.88,728.16L369.84,730.08L370.08,731.28L370.08,733.92L369.6,735.36L368.16,737.76L366.96,738.72L365.76,739.44L365.04,739.68" style="fill:none;fill-rule:nonzero;stroke:black;stroke-width:0.48px;"/>
    </g>
    <g transform="matrix(-1.20021,0.580748,0.580748,1.20021,451.322,-1030.01)">
        <path d="M365.255,729.096L373.52,729.096L366.161,725.458L367.206,727.619L365.255,729.096Z" style="stroke:black;stroke-width:0.48px;"/>
    </g>
    <g transform="matrix(1.33333,0,0,1.33333,-60.28,-923.94)">
        <path d="M391.2,720.24L393.12,721.44L394.56,722.88L395.76,724.8L396.72,726.72L397.44,728.88L397.44,730.08L397.68,731.28L397.44,732.24L397.44,733.44L397.2,734.64L395.28,738.48L394.56,739.44L393.84,740.16L391.92,741.6L389.04,743.04L387.84,743.28L386.88,743.52L385.68,743.76L385.2,743.76L381.84,743.28L380.4,742.8L378.96,742.08" style="fill:none;fill-rule:nonzero;stroke:black;stroke-width:0.48px;"/>
    </g>
    <g transform="matrix(-1.21516,-0.548782,-0.548782,1.21516,1352.56,-642.426)">
        <path d="M391.48,739.098L399.644,739.098L392.383,742.93L393.47,740.524L391.48,739.098Z" style="stroke:black;stroke-width:0.48px;"/>
    </g>
    <g transform="matrix(1.33333,0,0,1.33333,-60.28,-940.58)">
        <path d="M433.2,738.24L467.28,738.24" style="fill:none;fill-rule:nonzero;stroke:black;stroke-width:0.72px;"/>
    </g>
    <g transform="matrix(1.33333,0,0,1.33333,-60.28,-948.26)">
        <path d="M433.2,741.12L467.28,741.12" style="fill:none;fill-rule:nonzero;stroke:black;stroke-width:0.72px;"/>
    </g>
    <g transform="matrix(1.33333,0,0,1.33333,-60.28,-944.42)">
        <path d="M462.72,736.08L470.64,739.68L462.72,743.28" style="fill:none;fill-rule:nonzero;stroke:black;stroke-width:0.72px;"/>
    </g>
    <g transform="matrix(-1.33333,0,0,1.33333,286.76,-672.1)">
        <path d="M122.4,637.56L137.88,637.56" style="fill:none;fill-rule:nonzero;stroke:black;stroke-width:0.72px;"/>
    </g>
    <g transform="matrix(1.33333,0,0,1.33333,-60.28,-618.98)">
        <path d="M122.4,617.64L137.88,617.64" style="fill:none;fill-rule:nonzero;stroke:black;stroke-width:0.72px;"/>
    </g>
    <g transform="matrix(0,1.33333,1.33333,0,-713.24,7.42)">
        <path d="M127.92,627.6L147.84,627.6" style="fill:none;fill-rule:nonzero;stroke:black;stroke-width:0.72px;"/>
    </g>
    <g transform="matrix(0.942809,-0.942809,-0.942809,-0.942809,600.799,913.472)">
        <path d="M136.96,641.465L151.37,641.465" style="fill:none;fill-rule:nonzero;stroke:black;stroke-width:0.72px;"/>
    </g>
    <g transform="matrix(0.942809,-0.942809,-0.942809,-0.942809,602.433,910.432)">
        <path d="M134.48,644.085L149.57,644.085" style="fill:none;fill-rule:nonzero;stroke:black;stroke-width:0.72px;"/>
    </g>
    <g transform="matrix(0.942809,0.942809,0.942809,-0.942809,-580.981,655.502)">
        <path d="M134.48,611.115L149.57,611.115" style="fill:none;fill-rule:nonzero;stroke:black;stroke-width:0.72px;"/>
    </g>
    <g transform="matrix(0.942809,0.942809,0.942809,-0.942809,-582.615,652.462)">
        <path d="M136.96,613.735L151.37,613.735" style="fill:none;fill-rule:nonzero;stroke:black;stroke-width:0.72px;"/>
    </g>
    <g transform="matrix(1.15462,-0.666805,-0.666805,-1.15462,400.016,1052.39)">
        <path d="M199.466,634.915L213.844,634.915" style="fill:none;fill-rule:nonzero;stroke:black;stroke-width:0.72px;"/>
    </g>
    <g transform="matrix(0,-1.33333,-1.33333,0,1038.88,463.38)">
        <path d="M193.05,623.94L207.81,623.94" style="fill:none;fill-rule:nonzero;stroke:black;stroke-width:0.72px;"/>
    </g>
    <g transform="matrix(0,-1.33333,-1.33333,0,1042.25,468.967)">
        <path d="M197.24,623.11L210.34,623.11" style="fill:none;fill-rule:nonzero;stroke:black;stroke-width:0.72px;"/>
    </g>
    <g transform="matrix(1.33333,0,0,1.33333,-60.28,-640.42)">
        <path d="M47.28,625.68L81.36,625.68" style="fill:none;fill-rule:nonzero;stroke:black;stroke-width:0.72px;"/>
    </g>
    <g transform="matrix(1.33333,0,0,1.33333,-60.28,-648.1)">
        <path d="M47.28,628.56L81.36,628.56" style="fill:none;fill-rule:nonzero;stroke:black;stroke-width:0.72px;"/>
    </g>
    <g transform="matrix(1.33333,0,0,1.33333,-60.28,-644.26)">
        <path d="M76.8,623.52L84.72,627.12L76.8,630.72" style="fill:none;fill-rule:nonzero;stroke:black;stroke-width:0.72px;"/>
    </g>
</svg>
