<?xml version="1.0" encoding="UTF-8" standalone="no"?>
<!DOCTYPE svg PUBLIC "-//W3C//DTD SVG 1.1//EN" "http://www.w3.org/Graphics/SVG/1.1/DTD/svg11.dtd">
<svg width="100%" height="100%" viewBox="0 0 605 340" version="1.1" xmlns="http://www.w3.org/2000/svg" xmlns:xlink="http://www.w3.org/1999/xlink" xml:space="preserve" xmlns:serif="http://www.serif.com/" style="fill-rule:evenodd;clip-rule:evenodd;stroke-linecap:round;stroke-linejoin:round;stroke-miterlimit:10;">
    <g transform="matrix(1.33333,0,0,1.33333,-87.5947,-76.1832)">
        <text x="86.4px" y="96px" style="font-family:'ArialMT', 'Arial', sans-serif;font-size:10px;">C</text>
    </g>
    <g transform="matrix(1.33333,0,0,1.33333,-87.5947,-76.1832)">
        <text x="74.88px" y="96px" style="font-family:'ArialMT', 'Arial', sans-serif;font-size:10px;">H</text>
        <text x="82.08px" y="98.64px" style="font-family:'ArialMT', 'Arial', sans-serif;font-size:8px;">3</text>
    </g>
    <g transform="matrix(1.33333,0,0,1.33333,-87.5947,-76.1832)">
        <text x="156.24px" y="67.68px" style="font-family:'ArialMT', 'Arial', sans-serif;font-size:10px;">O</text>
    </g>
    <g transform="matrix(1.33333,0,0,1.33333,-87.5947,-76.1832)">
        <text x="123.6px" y="168.72px" style="font-family:'ArialMT', 'Arial', sans-serif;font-size:10px;">CH</text>
        <text x="138px" y="171.36px" style="font-family:'ArialMT', 'Arial', sans-serif;font-size:8px;">2</text>
    </g>
    <g transform="matrix(1.33333,0,0,1.33333,-87.5947,-76.1832)">
        <text x="174.72px" y="96.96px" style="font-family:'ArialMT', 'Arial', sans-serif;font-size:10px;">H</text>
    </g>
    <g transform="matrix(1.33333,0,0,1.33333,-87.5947,-76.1832)">
        <text x="332.64px" y="97.92px" style="font-family:'ArialMT', 'Arial', sans-serif;font-size:10px;">O<tspan x="340.56px " y="97.92px ">H</tspan></text>
    </g>
    <g transform="matrix(1.33333,0,0,1.33333,-87.5947,-76.1832)">
        <text x="244.56px" y="96.96px" style="font-family:'ArialMT', 'Arial', sans-serif;font-size:10px;">C</text>
    </g>
    <g transform="matrix(1.33333,0,0,1.33333,-87.5947,-76.1832)">
        <text x="233.04px" y="96.96px" style="font-family:'ArialMT', 'Arial', sans-serif;font-size:10px;">H</text>
        <text x="240.24px" y="99.6px" style="font-family:'ArialMT', 'Arial', sans-serif;font-size:8px;">3</text>
    </g>
    <g transform="matrix(1.33333,0,0,1.33333,-87.5947,-76.1832)">
        <text x="281.76px" y="169.68px" style="font-family:'ArialMT', 'Arial', sans-serif;font-size:10px;">CH</text>
        <text x="296.16px" y="172.32px" style="font-family:'ArialMT', 'Arial', sans-serif;font-size:8px;">2</text>
    </g>
    <g transform="matrix(1.33333,0,0,1.33333,-87.5947,-76.1832)">
        <text x="480.72px" y="97.44px" style="font-family:'ArialMT', 'Arial', sans-serif;font-size:10px;">B</text>
    </g>
    <g transform="matrix(1.33333,0,0,1.33333,-87.5947,-76.1832)">
        <text x="392.16px" y="96.48px" style="font-family:'ArialMT', 'Arial', sans-serif;font-size:10px;">C</text>
    </g>
    <g transform="matrix(1.33333,0,0,1.33333,-87.5947,-76.1832)">
        <text x="380.64px" y="96.48px" style="font-family:'ArialMT', 'Arial', sans-serif;font-size:10px;">H</text>
        <text x="387.84px" y="99.12px" style="font-family:'ArialMT', 'Arial', sans-serif;font-size:8px;">3</text>
    </g>
    <g transform="matrix(1.33333,0,0,1.33333,-87.5947,-76.1832)">
        <text x="429.36px" y="169.2px" style="font-family:'ArialMT', 'Arial', sans-serif;font-size:10px;">CH</text>
        <text x="443.76px" y="171.84px" style="font-family:'ArialMT', 'Arial', sans-serif;font-size:8px;">2</text>
    </g>
    <g transform="matrix(1.33333,0,0,1.33333,-87.5947,-76.1832)">
        <text x="481.2px" y="117.36px" style="font-family:'ArialMT', 'Arial', sans-serif;font-size:10px;">R</text>
    </g>
    <g transform="matrix(1.33333,0,0,1.33333,-87.5947,-76.1832)">
        <text x="497.52px" y="86.88px" style="font-family:'ArialMT', 'Arial', sans-serif;font-size:10px;">R</text>
    </g>
    <g transform="matrix(1.33333,0,0,1.33333,-87.5947,-76.1832)">
        <text x="413.76px" y="233.52px" style="font-family:'ArialMT', 'Arial', sans-serif;font-size:10px;">C</text>
    </g>
    <g transform="matrix(1.33333,0,0,1.33333,-87.5947,-76.1832)">
        <text x="402.24px" y="233.52px" style="font-family:'ArialMT', 'Arial', sans-serif;font-size:10px;">H</text>
        <text x="409.44px" y="236.16px" style="font-family:'ArialMT', 'Arial', sans-serif;font-size:8px;">3</text>
    </g>
    <g transform="matrix(1.33333,0,0,1.33333,-87.5947,-76.1832)">
        <text x="450.96px" y="306.24px" style="font-family:'ArialMT', 'Arial', sans-serif;font-size:10px;">CH</text>
        <text x="465.36px" y="308.88px" style="font-family:'ArialMT', 'Arial', sans-serif;font-size:8px;">2</text>
    </g>
    <g transform="matrix(1.33333,0,0,1.33333,-87.5947,-76.1832)">
        <text x="502.08px" y="234.48px" style="font-family:'ArialMT', 'Arial', sans-serif;font-size:10px;">CH</text>
    </g>
    <g transform="matrix(-0.588796,1.19628,1.19628,0.588796,-790.856,-409.051)">
        <path d="M58.84,709.92L93.08,709.92" style="fill:none;fill-rule:nonzero;stroke:black;stroke-width:0.72px;"/>
    </g>
    <g transform="matrix(1.1557,-0.664926,-0.664926,-1.1557,391.293,973.413)">
        <path d="M67.054,699.6L87.266,699.6" style="fill:none;fill-rule:nonzero;stroke:black;stroke-width:0.72px;"/>
    </g>
    <g transform="matrix(1.28614,0.351606,0.351606,-1.28614,-328.905,977.261)">
        <path d="M85.308,700.08L119.892,700.08" style="fill:none;fill-rule:nonzero;stroke:black;stroke-width:0.72px;"/>
    </g>
    <g transform="matrix(0.621366,-1.1797,-1.1797,-0.621366,842.27,690.479)">
        <path d="M109.793,711.24L145.327,711.24" style="fill:none;fill-rule:nonzero;stroke:black;stroke-width:0.72px;"/>
    </g>
    <g transform="matrix(-1.26072,0.434017,0.434017,1.26072,-86.5215,-878.923)">
        <path d="M105.717,721.92L136.683,721.92" style="fill:none;fill-rule:nonzero;stroke:black;stroke-width:0.72px;"/>
    </g>
    <g transform="matrix(-1.25268,-0.456705,-0.456705,1.25268,487.501,-774.938)">
        <path d="M82.778,721.08L107.302,721.08" style="fill:none;fill-rule:nonzero;stroke:black;stroke-width:0.72px;"/>
    </g>
    <g transform="matrix(1.33333,0,0,1.33333,-87.5947,-876.823)">
        <path d="M93.84,719.04L97.2,720.24L95.52,723.36L92.4,722.16" style="fill:white;"/>
    </g>
    <g transform="matrix(0.627451,-1.17647,-1.17647,-0.627451,824.405,648.937)">
        <path d="M77.28,719.04L109.92,719.04" style="fill:none;fill-rule:nonzero;stroke:black;stroke-width:0.72px;"/>
    </g>
    <g transform="matrix(1.21157,-0.556667,-0.556667,-1.21157,329.667,1009)">
        <path d="M82.628,729.36L102.172,729.36" style="fill:none;fill-rule:nonzero;stroke:black;stroke-width:0.72px;"/>
    </g>
    <g transform="matrix(0.970367,-0.914421,-0.914421,-0.970367,635.24,879.973)">
        <path d="M96.576,745.29L131.134,745.29" style="fill:none;fill-rule:nonzero;stroke:black;stroke-width:0.72px;"/>
    </g>
    <g transform="matrix(-1.17664,-0.627138,-0.627138,1.17664,723.697,-757.462)">
        <path d="M125.259,752.455L145.181,752.455" style="fill:none;fill-rule:nonzero;stroke:black;stroke-width:0.72px;"/>
    </g>
    <g transform="matrix(-1.13164,0.7051,0.7051,1.13164,-242.749,-917.335)">
        <path d="M142.504,753.035L162.416,753.035" style="fill:none;fill-rule:nonzero;stroke:black;stroke-width:0.72px;"/>
    </g>
    <g transform="matrix(-0.745695,-1.10531,-1.10531,0.745695,931.973,-382.451)">
        <path d="M90.671,739.08L104.279,739.08" style="fill:none;fill-rule:nonzero;stroke:black;stroke-width:0.72px;"/>
    </g>
    <g transform="matrix(-0.0444802,-1.33259,-1.33259,0.0444802,1156.45,207.724)">
        <path d="M155.001,765.7L169.689,765.7" style="fill:none;fill-rule:nonzero;stroke:black;stroke-width:0.72px;"/>
    </g>
    <g transform="matrix(-0.0450194,-1.33257,-1.33257,0.0450194,1151.82,202.921)">
        <path d="M151.586,765.64L166.394,765.64" style="fill:none;fill-rule:nonzero;stroke:black;stroke-width:0.72px;"/>
    </g>
    <g transform="matrix(0.530992,1.22304,1.22304,-0.530992,-833.111,346.569)">
        <path d="M113.63,688.585L127.29,688.585" style="fill:none;fill-rule:nonzero;stroke:black;stroke-width:0.72px;"/>
    </g>
    <g transform="matrix(0.530861,1.2231,1.2231,-0.530861,-831.25,341.813)">
        <path d="M116.27,689.255L131.39,689.255" style="fill:none;fill-rule:nonzero;stroke:black;stroke-width:0.72px;"/>
    </g>
    <g transform="matrix(1.1766,0.627213,0.627213,-1.1766,-534.835,823.106)">
        <path d="M160.054,754.875L174.616,754.875" style="fill:none;fill-rule:nonzero;stroke:black;stroke-width:0.72px;"/>
    </g>
    <g transform="matrix(-0.588796,1.19628,1.19628,0.588796,-485.704,-596.41)">
        <path d="M217,708.96L251.24,708.96" style="fill:none;fill-rule:nonzero;stroke:black;stroke-width:0.72px;"/>
    </g>
    <g transform="matrix(1.1557,-0.664926,-0.664926,-1.1557,418.749,1078.75)">
        <path d="M225.214,698.64L245.426,698.64" style="fill:none;fill-rule:nonzero;stroke:black;stroke-width:0.72px;"/>
    </g>
    <g transform="matrix(1.28614,0.351606,0.351606,-1.28614,-321.103,921.697)">
        <path d="M243.468,699.12L278.052,699.12" style="fill:none;fill-rule:nonzero;stroke:black;stroke-width:0.72px;"/>
    </g>
    <g transform="matrix(0.621366,-1.1797,-1.1797,-0.621366,953.743,877.743)">
        <path d="M267.953,710.28L303.487,710.28" style="fill:none;fill-rule:nonzero;stroke:black;stroke-width:0.72px;"/>
    </g>
    <g transform="matrix(-1.26072,0.434017,0.434017,1.26072,324.17,-945.077)">
        <path d="M263.877,720.96L294.843,720.96" style="fill:none;fill-rule:nonzero;stroke:black;stroke-width:0.72px;"/>
    </g>
    <g transform="matrix(-1.25268,-0.456705,-0.456705,1.25268,896.065,-700.223)">
        <path d="M240.938,720.12L265.462,720.12" style="fill:none;fill-rule:nonzero;stroke:black;stroke-width:0.72px;"/>
    </g>
    <g transform="matrix(1.33333,0,0,1.33333,-87.5947,-874.263)">
        <path d="M252,718.08L255.36,719.28L253.68,722.4L250.56,721.2" style="fill:white;"/>
    </g>
    <g transform="matrix(0.627451,-1.17647,-1.17647,-0.627451,934.918,835.685)">
        <path d="M235.44,718.08L268.08,718.08" style="fill:none;fill-rule:nonzero;stroke:black;stroke-width:0.72px;"/>
    </g>
    <g transform="matrix(1.21157,-0.556667,-0.556667,-1.21157,348.391,1097.16)">
        <path d="M240.788,728.4L260.332,728.4" style="fill:none;fill-rule:nonzero;stroke:black;stroke-width:0.72px;"/>
    </g>
    <g transform="matrix(0.970367,-0.914421,-0.914421,-0.970367,691.769,1024.95)">
        <path d="M254.736,744.33L289.294,744.33" style="fill:none;fill-rule:nonzero;stroke:black;stroke-width:0.72px;"/>
    </g>
    <g transform="matrix(-1.17664,-0.627138,-0.627138,1.17664,1120.07,-655.864)">
        <path d="M283.419,751.495L303.341,751.495" style="fill:none;fill-rule:nonzero;stroke:black;stroke-width:0.72px;"/>
    </g>
    <g transform="matrix(-1.13164,0.7051,0.7051,1.13164,147.788,-1026.49)">
        <path d="M300.664,752.075L320.576,752.075" style="fill:none;fill-rule:nonzero;stroke:black;stroke-width:0.72px;"/>
    </g>
    <g transform="matrix(-1.13157,0.705221,0.705221,1.13157,152.634,-1019.1)">
        <path d="M302.558,748.78L320.822,748.78" style="fill:none;fill-rule:nonzero;stroke:black;stroke-width:0.72px;"/>
    </g>
    <g transform="matrix(-1.17629,-0.62779,-0.62779,1.17629,1202.31,-641.549)">
        <path d="M318.228,753.975L332.522,753.975" style="fill:none;fill-rule:nonzero;stroke:black;stroke-width:0.72px;"/>
    </g>
    <g transform="matrix(-0.745695,-1.10531,-1.10531,0.745695,1259.73,-205.639)">
        <path d="M248.831,738.12L262.439,738.12" style="fill:none;fill-rule:nonzero;stroke:black;stroke-width:0.72px;"/>
    </g>
    <g transform="matrix(0.530992,1.22304,1.22304,-0.530992,-705.039,153.904)">
        <path d="M271.79,687.625L285.45,687.625" style="fill:none;fill-rule:nonzero;stroke:black;stroke-width:0.72px;"/>
    </g>
    <g transform="matrix(0.530861,1.2231,1.2231,-0.530861,-703.157,149.138)">
        <path d="M274.43,688.295L289.55,688.295" style="fill:none;fill-rule:nonzero;stroke:black;stroke-width:0.72px;"/>
    </g>
    <g transform="matrix(1.33333,0,0,1.33333,-87.5947,-860.183)">
        <path d="M171.12,714.96L205.2,714.96" style="fill:none;fill-rule:nonzero;stroke:black;stroke-width:0.72px;"/>
    </g>
    <g transform="matrix(1.33333,0,0,1.33333,-87.5947,-867.863)">
        <path d="M171.12,717.84L205.2,717.84" style="fill:none;fill-rule:nonzero;stroke:black;stroke-width:0.72px;"/>
    </g>
    <g transform="matrix(1.2958,0.314133,0.314133,-1.2958,-305.539,956.218)">
        <path d="M196.939,718.773L205.089,718.773L197.844,715.041L198.791,717.246L196.939,718.773Z" style="stroke:black;stroke-width:0.72px;"/>
    </g>
    <g transform="matrix(-1.2958,0.314133,0.314133,1.2958,148.121,-888.347)">
        <path d="M170.779,714.027L178.929,714.027L171.684,717.759L172.631,715.554L170.779,714.027Z" style="stroke:black;stroke-width:0.72px;"/>
    </g>
    <g transform="matrix(1.33333,0,0,1.33333,-87.5947,-863.383)">
        <path d="M317.76,716.16L351.84,716.16" style="fill:none;fill-rule:nonzero;stroke:black;stroke-width:0.72px;"/>
    </g>
    <g transform="matrix(1.33333,0,0,1.33333,-87.5947,-871.063)">
        <path d="M317.76,719.04L351.84,719.04" style="fill:none;fill-rule:nonzero;stroke:black;stroke-width:0.72px;"/>
    </g>
    <g transform="matrix(1.33333,0,0,1.33333,-87.5947,-867.223)">
        <path d="M347.28,714L355.2,717.6L347.28,721.2" style="fill:none;fill-rule:nonzero;stroke:black;stroke-width:0.72px;"/>
    </g>
    <g transform="matrix(-0.588796,1.19628,1.19628,0.588796,-202.571,-773.905)">
        <path d="M364.6,709.44L398.84,709.44" style="fill:none;fill-rule:nonzero;stroke:black;stroke-width:0.72px;"/>
    </g>
    <g transform="matrix(1.1557,-0.664926,-0.664926,-1.1557,445.286,1176.81)">
        <path d="M372.814,699.12L393.026,699.12" style="fill:none;fill-rule:nonzero;stroke:black;stroke-width:0.72px;"/>
    </g>
    <g transform="matrix(1.28614,0.351606,0.351606,-1.28614,-314.306,869.777)">
        <path d="M391.068,699.6L425.652,699.6" style="fill:none;fill-rule:nonzero;stroke:black;stroke-width:0.72px;"/>
    </g>
    <g transform="matrix(0.621366,-1.1797,-1.1797,-0.621366,1059.4,1051.52)">
        <path d="M415.553,710.76L451.087,710.76" style="fill:none;fill-rule:nonzero;stroke:black;stroke-width:0.72px;"/>
    </g>
    <g transform="matrix(-1.26072,0.434017,0.434017,1.26072,706.844,-1010.38)">
        <path d="M411.477,721.44L442.443,721.44" style="fill:none;fill-rule:nonzero;stroke:black;stroke-width:0.72px;"/>
    </g>
    <g transform="matrix(-1.25268,-0.456705,-0.456705,1.25268,1277.98,-634.055)">
        <path d="M388.538,720.6L413.062,720.6" style="fill:none;fill-rule:nonzero;stroke:black;stroke-width:0.72px;"/>
    </g>
    <g transform="matrix(1.33333,0,0,1.33333,-87.5947,-875.543)">
        <path d="M399.6,718.56L402.96,719.76L401.28,722.88L398.16,721.68" style="fill:white;"/>
    </g>
    <g transform="matrix(0.627451,-1.17647,-1.17647,-0.627451,1039.67,1008.99)">
        <path d="M383.04,718.56L415.68,718.56" style="fill:none;fill-rule:nonzero;stroke:black;stroke-width:0.72px;"/>
    </g>
    <g transform="matrix(1.21157,-0.556667,-0.556667,-1.21157,366.63,1179.27)">
        <path d="M388.388,728.88L407.932,728.88" style="fill:none;fill-rule:nonzero;stroke:black;stroke-width:0.72px;"/>
    </g>
    <g transform="matrix(0.970367,-0.914421,-0.914421,-0.970367,745.782,1159.74)">
        <path d="M402.336,744.81L436.894,744.81" style="fill:none;fill-rule:nonzero;stroke:black;stroke-width:0.72px;"/>
    </g>
    <g transform="matrix(-1.17664,-0.627138,-0.627138,1.17664,1490.84,-564.503)">
        <path d="M431.019,751.975L450.941,751.975" style="fill:none;fill-rule:nonzero;stroke:black;stroke-width:0.72px;"/>
    </g>
    <g transform="matrix(-1.13164,0.7051,0.7051,1.13164,511.28,-1131.74)">
        <path d="M448.264,752.555L468.176,752.555" style="fill:none;fill-rule:nonzero;stroke:black;stroke-width:0.72px;"/>
    </g>
    <g transform="matrix(-1.13157,0.705221,0.705221,1.13157,516.115,-1124.37)">
        <path d="M450.158,749.26L468.422,749.26" style="fill:none;fill-rule:nonzero;stroke:black;stroke-width:0.72px;"/>
    </g>
    <g transform="matrix(-1.17652,-0.627358,-0.627358,1.17652,1573.34,-550.006)">
        <path d="M465.798,754.33L480.632,754.33" style="fill:none;fill-rule:nonzero;stroke:black;stroke-width:0.72px;"/>
    </g>
    <g transform="matrix(-0.745695,-1.10531,-1.10531,0.745695,1567.13,-43.4922)">
        <path d="M396.431,738.6L410.039,738.6" style="fill:none;fill-rule:nonzero;stroke:black;stroke-width:0.72px;"/>
    </g>
    <g transform="matrix(0.530992,1.22304,1.22304,-0.530992,-587.2,-27.0019)">
        <path d="M419.39,688.105L433.05,688.105" style="fill:none;fill-rule:nonzero;stroke:black;stroke-width:0.72px;"/>
    </g>
    <g transform="matrix(0.530861,1.2231,1.2231,-0.530861,-585.299,-31.7762)">
        <path d="M422.03,688.775L437.15,688.775" style="fill:none;fill-rule:nonzero;stroke:black;stroke-width:0.72px;"/>
    </g>
    <g transform="matrix(0.0444198,1.33259,1.33259,-0.0444198,-447.106,-551.208)">
        <path d="M479.777,738.48L489.383,738.48" style="fill:none;fill-rule:nonzero;stroke:black;stroke-width:0.72px;"/>
    </g>
    <g transform="matrix(1.13191,-0.704669,-0.704669,-1.13191,542.62,1241.63)">
        <path d="M487.674,753.57L497.286,753.57" style="fill:none;fill-rule:nonzero;stroke:black;stroke-width:0.72px;"/>
    </g>
    <g transform="matrix(0,1.33333,1.33333,0,-373.675,-383.383)">
        <path d="M412.08,643.44L445.68,643.44" style="fill:none;fill-rule:nonzero;stroke:black;stroke-width:0.72px;"/>
    </g>
    <g transform="matrix(0,1.33333,1.33333,0,-369.835,-387.223)">
        <path d="M414.96,643.44L448.56,643.44" style="fill:none;fill-rule:nonzero;stroke:black;stroke-width:0.72px;"/>
    </g>
    <g transform="matrix(1.33333,0,0,1.33333,-87.5947,-626.263)">
        <path d="M433.92,623.28L430.32,631.2L426.72,623.28" style="fill:none;fill-rule:nonzero;stroke:black;stroke-width:0.72px;"/>
    </g>
    <g transform="matrix(-0.588796,1.19628,1.19628,0.588796,2.88536,-536.336)">
        <path d="M386.2,572.4L420.44,572.4" style="fill:none;fill-rule:nonzero;stroke:black;stroke-width:0.72px;"/>
    </g>
    <g transform="matrix(1.1557,-0.664926,-0.664926,-1.1557,358.001,1215.51)">
        <path d="M394.414,562.08L414.626,562.08" style="fill:none;fill-rule:nonzero;stroke:black;stroke-width:0.72px;"/>
    </g>
    <g transform="matrix(1.28614,0.351606,0.351606,-1.28614,-265.102,868.65)">
        <path d="M412.668,562.56L447.252,562.56" style="fill:none;fill-rule:nonzero;stroke:black;stroke-width:0.72px;"/>
    </g>
    <g transform="matrix(0.621366,-1.1797,-1.1797,-0.621366,913.108,1174.57)">
        <path d="M437.153,573.72L472.687,573.72" style="fill:none;fill-rule:nonzero;stroke:black;stroke-width:0.72px;"/>
    </g>
    <g transform="matrix(-1.26072,0.434017,0.434017,1.26072,822.353,-664.269)">
        <path d="M433.077,584.4L464.043,584.4" style="fill:none;fill-rule:nonzero;stroke:black;stroke-width:0.72px;"/>
    </g>
    <g transform="matrix(-1.25268,-0.456705,-0.456705,1.25268,1271.25,-269.803)">
        <path d="M410.138,583.56L434.662,583.56" style="fill:none;fill-rule:nonzero;stroke:black;stroke-width:0.72px;"/>
    </g>
    <g transform="matrix(1.33333,0,0,1.33333,-87.5947,-510.103)">
        <path d="M421.2,581.52L424.56,582.72L422.88,585.84L419.76,584.64" style="fill:white;"/>
    </g>
    <g transform="matrix(0.627451,-1.17647,-1.17647,-0.627451,893.695,1131.14)">
        <path d="M404.64,581.52L437.28,581.52" style="fill:none;fill-rule:nonzero;stroke:black;stroke-width:0.72px;"/>
    </g>
    <g transform="matrix(1.21157,-0.556667,-0.556667,-1.21157,292.975,1207.98)">
        <path d="M409.988,591.84L429.532,591.84" style="fill:none;fill-rule:nonzero;stroke:black;stroke-width:0.72px;"/>
    </g>
    <g transform="matrix(0.970367,-0.914421,-0.914421,-0.970367,628.309,1229.23)">
        <path d="M423.936,607.77L458.494,607.77" style="fill:none;fill-rule:nonzero;stroke:black;stroke-width:0.72px;"/>
    </g>
    <g transform="matrix(-1.17664,-0.627138,-0.627138,1.17664,1459.12,-206.99)">
        <path d="M452.619,614.935L472.541,614.935" style="fill:none;fill-rule:nonzero;stroke:black;stroke-width:0.72px;"/>
    </g>
    <g transform="matrix(-1.13164,0.7051,0.7051,1.13164,661.15,-809.173)">
        <path d="M469.864,615.515L489.776,615.515" style="fill:none;fill-rule:nonzero;stroke:black;stroke-width:0.72px;"/>
    </g>
    <g transform="matrix(-0.745695,-1.10531,-1.10531,0.745695,1460.56,265.293)">
        <path d="M418.031,601.56L431.639,601.56" style="fill:none;fill-rule:nonzero;stroke:black;stroke-width:0.72px;"/>
    </g>
    <g transform="matrix(0.530992,1.22304,1.22304,-0.530992,-402.264,56.5333)">
        <path d="M440.99,551.065L454.65,551.065" style="fill:none;fill-rule:nonzero;stroke:black;stroke-width:0.72px;"/>
    </g>
    <g transform="matrix(0.530861,1.2231,1.2231,-0.530861,-400.352,51.7758)">
        <path d="M443.63,551.735L458.75,551.735" style="fill:none;fill-rule:nonzero;stroke:black;stroke-width:0.72px;"/>
    </g>
    <g transform="matrix(1.1766,0.627213,0.627213,-1.1766,-397.271,639.336)">
        <path d="M487.414,617.355L501.976,617.355" style="fill:none;fill-rule:nonzero;stroke:black;stroke-width:0.72px;"/>
    </g>
    <g transform="matrix(1.17636,0.627653,0.627653,-1.17636,-398.497,636.918)">
        <path d="M490.535,619.73L504.215,619.73" style="fill:none;fill-rule:nonzero;stroke:black;stroke-width:0.72px;"/>
    </g>
    <g transform="matrix(1.1765,0.627404,0.627404,-1.1765,-394.977,639.812)">
        <path d="M487.309,613.575L501.951,613.575" style="fill:none;fill-rule:nonzero;stroke:black;stroke-width:0.72px;"/>
    </g>
</svg>
