<?xml version="1.0" encoding="UTF-8" standalone="no"?>
<!DOCTYPE svg PUBLIC "-//W3C//DTD SVG 1.1//EN" "http://www.w3.org/Graphics/SVG/1.1/DTD/svg11.dtd">
<svg width="100%" height="100%" viewBox="0 0 510 270" version="1.1" xmlns="http://www.w3.org/2000/svg" xmlns:xlink="http://www.w3.org/1999/xlink" xml:space="preserve" xmlns:serif="http://www.serif.com/" style="fill-rule:evenodd;clip-rule:evenodd;stroke-linecap:round;stroke-linejoin:round;stroke-miterlimit:10;">
    <g transform="matrix(1.33333,0,0,1.33333,-134.281,-155.488)">
        <text x="138px" y="149.04px" style="font-family:'ArialMT', 'Arial', sans-serif;font-size:10px;">R</text>
        <text x="145.44px" y="142.08px" style="font-family:'ArialMT', 'Arial', sans-serif;font-size:8px;">2</text>
    </g>
    <g transform="matrix(1.33333,0,0,1.33333,-134.281,-155.488)">
        <text x="120.48px" y="179.04px" style="font-family:'ArialMT', 'Arial', sans-serif;font-size:10px;">O</text>
    </g>
    <g transform="matrix(1.33333,0,0,1.33333,-134.281,-155.488)">
        <text x="103.44px" y="149.04px" style="font-family:'ArialMT', 'Arial', sans-serif;font-size:10px;">R</text>
        <text x="110.88px" y="142.08px" style="font-family:'ArialMT', 'Arial', sans-serif;font-size:8px;">1</text>
    </g>
    <g transform="matrix(1.33333,0,0,1.33333,-134.281,-155.488)">
        <text x="245.76px" y="159.6px" style="font-family:'ArialMT', 'Arial', sans-serif;font-size:10px;">S</text>
    </g>
    <g transform="matrix(1.33333,0,0,1.33333,-134.281,-155.488)">
        <text x="211.44px" y="159.6px" style="font-family:'ArialMT', 'Arial', sans-serif;font-size:10px;">S</text>
    </g>
    <g transform="matrix(1.33333,0,0,1.33333,-134.281,-155.488)">
        <text x="245.28px" y="132.96px" style="font-family:'ArialMT', 'Arial', sans-serif;font-size:10px;">R</text>
        <text x="252.72px" y="126px" style="font-family:'ArialMT', 'Arial', sans-serif;font-size:8px;">2</text>
    </g>
    <g transform="matrix(1.33333,0,0,1.33333,-134.281,-155.488)">
        <text x="212.88px" y="132.96px" style="font-family:'ArialMT', 'Arial', sans-serif;font-size:10px;">R</text>
        <text x="220.32px" y="126px" style="font-family:'ArialMT', 'Arial', sans-serif;font-size:8px;">1</text>
    </g>
    <g transform="matrix(1.33333,0,0,1.33333,-134.281,-155.488)">
        <text x="352.08px" y="160.8px" style="font-family:'ArialMT', 'Arial', sans-serif;font-size:10px;">S</text>
    </g>
    <g transform="matrix(1.33333,0,0,1.33333,-134.281,-155.488)">
        <text x="334.56px" y="150.72px" style="font-family:'ArialMT', 'Arial', sans-serif;font-size:10px;">C</text>
        <text x="341.76px" y="143.76px" style="font-family:'ArialMT', 'Arial', sans-serif;font-size:8px;">–</text>
    </g>
    <g transform="matrix(1.33333,0,0,1.33333,-134.281,-155.488)">
        <text x="317.76px" y="160.8px" style="font-family:'ArialMT', 'Arial', sans-serif;font-size:10px;">S</text>
    </g>
    <g transform="matrix(1.33333,0,0,1.33333,-134.281,-155.488)">
        <text x="319.2px" y="134.16px" style="font-family:'ArialMT', 'Arial', sans-serif;font-size:10px;">R</text>
        <text x="326.64px" y="127.2px" style="font-family:'ArialMT', 'Arial', sans-serif;font-size:8px;">1</text>
    </g>
    <g transform="matrix(1.33333,0,0,1.33333,-134.281,-155.488)">
        <text x="375.12px" y="167.28px" style="font-family:'ArialMT', 'Arial', sans-serif;font-size:18px;">+</text>
        <text x="399.6px" y="163.2px" style="font-family:'ArialMT', 'Arial', sans-serif;font-size:10px;">R</text>
        <text x="406.813px" y="158.16px" style="font-family:'ArialMT', 'Arial', sans-serif;font-size:6px;">1<tspan x="410.415px " y="158.16px ">+</tspan></text>
    </g>
    <g transform="matrix(1.33333,0,0,1.33333,-134.281,-155.488)">
        <text x="353.04px" y="273.36px" style="font-family:'ArialMT', 'Arial', sans-serif;font-size:10px;">S</text>
    </g>
    <g transform="matrix(1.33333,0,0,1.33333,-134.281,-155.488)">
        <text x="318.72px" y="273.36px" style="font-family:'ArialMT', 'Arial', sans-serif;font-size:10px;">S</text>
    </g>
    <g transform="matrix(1.33333,0,0,1.33333,-134.281,-155.488)">
        <text x="352.56px" y="246.72px" style="font-family:'ArialMT', 'Arial', sans-serif;font-size:10px;">H</text>
    </g>
    <g transform="matrix(1.33333,0,0,1.33333,-134.281,-155.488)">
        <text x="320.16px" y="246.72px" style="font-family:'ArialMT', 'Arial', sans-serif;font-size:10px;">R</text>
        <text x="327.6px" y="239.76px" style="font-family:'ArialMT', 'Arial', sans-serif;font-size:8px;">1</text>
    </g>
    <g transform="matrix(1.33333,0,0,1.33333,-134.281,-155.488)">
        <text x="422.16px" y="252.72px" style="font-family:'ArialMT', 'Arial', sans-serif;font-size:10px;">RCHO</text>
    </g>
    <g transform="matrix(1.33333,0,0,1.33333,-134.281,-155.488)">
        <text x="430.56px" y="281.76px" style="font-family:'ArialMT', 'Arial', sans-serif;font-size:18px;">+</text>
    </g>
    <g transform="matrix(1.33333,0,0,1.33333,-134.281,-155.488)">
        <text x="397.44px" y="315.36px" style="font-family:'ArialMT', 'Arial', sans-serif;font-size:10px;">S</text>
    </g>
    <g transform="matrix(1.33333,0,0,1.33333,-134.281,-155.488)">
        <text x="390.24px" y="315.36px" style="font-family:'ArialMT', 'Arial', sans-serif;font-size:10px;">H</text>
    </g>
    <g transform="matrix(1.33333,0,0,1.33333,-134.281,-155.488)">
        <text x="466.56px" y="315.36px" style="font-family:'ArialMT', 'Arial', sans-serif;font-size:10px;">SH</text>
    </g>
    <g transform="matrix(1.15507,-0.666033,-0.666033,-1.15507,348.929,931.032)">
        <path d="M123.403,690.52L138.017,690.52" style="fill:none;fill-rule:nonzero;stroke:black;stroke-width:0.72px;"/>
    </g>
    <g transform="matrix(0,1.33333,1.33333,0,-876.595,-102.441)">
        <path d="M115.265,679.435L130.135,679.435" style="fill:none;fill-rule:nonzero;stroke:black;stroke-width:0.72px;"/>
    </g>
    <g transform="matrix(0,1.33333,1.33333,0,-872.115,-106.921)">
        <path d="M118.625,679.435L133.495,679.435" style="fill:none;fill-rule:nonzero;stroke:black;stroke-width:0.72px;"/>
    </g>
    <g transform="matrix(-1.15503,-0.666088,-0.666088,1.15503,619.291,-672.691)">
        <path d="M110.614,690.555L125.366,690.555" style="fill:none;fill-rule:nonzero;stroke:black;stroke-width:0.72px;"/>
    </g>
    <g transform="matrix(1.33333,0,0,1.33333,-134.281,-849.888)">
        <path d="M159.36,681.36L193.44,681.36" style="fill:none;fill-rule:nonzero;stroke:black;stroke-width:0.72px;"/>
    </g>
    <g transform="matrix(1.33333,0,0,1.33333,-134.281,-857.568)">
        <path d="M159.36,684.24L193.44,684.24" style="fill:none;fill-rule:nonzero;stroke:black;stroke-width:0.72px;"/>
    </g>
    <g transform="matrix(1.33333,0,0,1.33333,-134.281,-853.728)">
        <path d="M188.88,679.2L196.8,682.8L188.88,686.4" style="fill:none;fill-rule:nonzero;stroke:black;stroke-width:0.72px;"/>
    </g>
    <g transform="matrix(0,1.33333,1.33333,0,-700.281,-263.728)">
        <path d="M241.98,673.8L256.62,673.8" style="fill:none;fill-rule:nonzero;stroke:black;stroke-width:0.72px;"/>
    </g>
    <g transform="matrix(-1.15475,-0.666584,-0.666584,1.15475,920.669,-597.442)">
        <path d="M231.064,692.68L245.786,692.68" style="fill:none;fill-rule:nonzero;stroke:black;stroke-width:0.72px;"/>
    </g>
    <g transform="matrix(-1.15468,0.666702,0.666702,1.15468,23.4977,-839.207)">
        <path d="M230.716,661.5L250.634,661.5" style="fill:none;fill-rule:nonzero;stroke:black;stroke-width:0.72px;"/>
    </g>
    <g transform="matrix(-1.15451,0.666992,0.666992,1.15451,-35.0362,-906.536)">
        <path d="M218.119,692.625L233.051,692.625" style="fill:none;fill-rule:nonzero;stroke:black;stroke-width:0.72px;"/>
    </g>
    <g transform="matrix(-1.15468,-0.666702,-0.666702,1.15468,862.626,-529.791)">
        <path d="M213.466,661.5L233.384,661.5" style="fill:none;fill-rule:nonzero;stroke:black;stroke-width:0.72px;"/>
    </g>
    <g transform="matrix(0,1.33333,1.33333,0,-746.281,-217.728)">
        <path d="M207.48,673.8L222.12,673.8" style="fill:none;fill-rule:nonzero;stroke:black;stroke-width:0.72px;"/>
    </g>
    <g transform="matrix(0.95635,-0.92907,-0.92907,-0.95635,608.015,923.6)">
        <path d="M229.632,702.32L246.738,702.32" style="fill:none;fill-rule:nonzero;stroke:black;stroke-width:0.72px;"/>
    </g>
    <g transform="matrix(-0.906731,-0.977556,-0.977556,0.906731,1059.73,-384.653)">
        <path d="M218.45,702.295L234.64,702.295" style="fill:none;fill-rule:nonzero;stroke:black;stroke-width:0.72px;"/>
    </g>
    <g transform="matrix(1.33333,0,0,1.33333,-134.281,-913.888)">
        <path d="M238.56,696.96L239.76,697.44L241.2,697.92L242.16,698.88L243.12,699.6L244.08,700.8L244.8,702L245.04,703.2L245.28,704.64L245.28,706.56L245.04,707.52L244.8,708.72L244.32,709.68L243.6,710.4L242.88,711.36L242.16,712.08L239.28,713.52L238.08,713.76L235.44,713.76" style="fill:none;fill-rule:nonzero;stroke:black;stroke-width:0.48px;"/>
    </g>
    <g transform="matrix(-1.32817,-0.117192,-0.117192,1.32817,585.021,-863.016)">
        <path d="M235.287,699.714L243.479,699.714L236.103,695.931L237.347,698.209L235.287,699.714Z" style="stroke:black;stroke-width:0.48px;"/>
    </g>
    <g transform="matrix(1.33333,0,0,1.33333,-134.281,-847.968)">
        <path d="M264.72,680.64L298.8,680.64" style="fill:none;fill-rule:nonzero;stroke:black;stroke-width:0.72px;"/>
    </g>
    <g transform="matrix(1.33333,0,0,1.33333,-134.281,-855.648)">
        <path d="M264.72,683.52L298.8,683.52" style="fill:none;fill-rule:nonzero;stroke:black;stroke-width:0.72px;"/>
    </g>
    <g transform="matrix(1.33333,0,0,1.33333,-134.281,-851.808)">
        <path d="M294.24,678.48L302.16,682.08L294.24,685.68" style="fill:none;fill-rule:nonzero;stroke:black;stroke-width:0.72px;"/>
    </g>
    <g transform="matrix(0,1.33333,1.33333,0,-556.921,-403.888)">
        <path d="M348.3,672.6L362.94,672.6" style="fill:none;fill-rule:nonzero;stroke:black;stroke-width:0.72px;"/>
    </g>
    <g transform="matrix(-1.15469,-0.666693,-0.666693,1.15469,1189.03,-518.931)">
        <path d="M342.07,690.225L351.77,690.225" style="fill:none;fill-rule:nonzero;stroke:black;stroke-width:0.72px;"/>
    </g>
    <g transform="matrix(-1.15468,0.666702,0.666702,1.15468,288.823,-907.106)">
        <path d="M337.036,660.3L356.954,660.3" style="fill:none;fill-rule:nonzero;stroke:black;stroke-width:0.72px;"/>
    </g>
    <g transform="matrix(-1.15416,0.667602,0.667602,1.15416,224.718,-969.411)">
        <path d="M324.807,690.05L334.233,690.05" style="fill:none;fill-rule:nonzero;stroke:black;stroke-width:0.72px;"/>
    </g>
    <g transform="matrix(-1.15468,-0.666702,-0.666702,1.15468,1126.35,-455.922)">
        <path d="M319.786,660.3L339.704,660.3" style="fill:none;fill-rule:nonzero;stroke:black;stroke-width:0.72px;"/>
    </g>
    <g transform="matrix(0,1.33333,1.33333,0,-602.921,-357.888)">
        <path d="M313.8,672.6L328.44,672.6" style="fill:none;fill-rule:nonzero;stroke:black;stroke-width:0.72px;"/>
    </g>
    <g transform="matrix(-0.906543,-0.97773,-0.97773,0.906543,1293.95,-285.931)">
        <path d="M325.891,703.665L335.069,703.665" style="fill:none;fill-rule:nonzero;stroke:black;stroke-width:0.72px;"/>
    </g>
    <g transform="matrix(0,1.33333,1.33333,0,-522.761,-323.168)">
        <path d="M327.6,629.52L348.72,629.52" style="fill:none;fill-rule:nonzero;stroke:black;stroke-width:0.72px;"/>
    </g>
    <g transform="matrix(0,1.33333,1.33333,0,-518.921,-327.008)">
        <path d="M330.48,629.52L351.6,629.52" style="fill:none;fill-rule:nonzero;stroke:black;stroke-width:0.72px;"/>
    </g>
    <g transform="matrix(1.33333,0,0,1.33333,-134.281,-685.088)">
        <path d="M343.2,615.6L339.6,623.52L336,615.6" style="fill:none;fill-rule:nonzero;stroke:black;stroke-width:0.72px;"/>
    </g>
    <g transform="matrix(0,1.33333,1.33333,0,-405.561,-255.088)">
        <path d="M349.26,560.04L363.9,560.04" style="fill:none;fill-rule:nonzero;stroke:black;stroke-width:0.72px;"/>
    </g>
    <g transform="matrix(-1.15475,-0.666584,-0.666584,1.15475,1111.76,-242.887)">
        <path d="M338.344,578.92L353.066,578.92" style="fill:none;fill-rule:nonzero;stroke:black;stroke-width:0.72px;"/>
    </g>
    <g transform="matrix(-1.15468,0.666702,0.666702,1.15468,366.256,-627.695)">
        <path d="M337.996,547.74L357.914,547.74" style="fill:none;fill-rule:nonzero;stroke:black;stroke-width:0.72px;"/>
    </g>
    <g transform="matrix(-1.15451,0.666992,0.666992,1.15451,307.737,-695.073)">
        <path d="M325.399,578.865L340.331,578.865" style="fill:none;fill-rule:nonzero;stroke:black;stroke-width:0.72px;"/>
    </g>
    <g transform="matrix(-1.15468,-0.666702,-0.666702,1.15468,1053.7,-175.231)">
        <path d="M320.746,547.74L340.664,547.74" style="fill:none;fill-rule:nonzero;stroke:black;stroke-width:0.72px;"/>
    </g>
    <g transform="matrix(0,1.33333,1.33333,0,-451.561,-209.088)">
        <path d="M314.76,560.04L329.4,560.04" style="fill:none;fill-rule:nonzero;stroke:black;stroke-width:0.72px;"/>
    </g>
    <g transform="matrix(0.95635,-0.92907,-0.92907,-0.95635,542.767,1066.16)">
        <path d="M336.912,588.56L354.018,588.56" style="fill:none;fill-rule:nonzero;stroke:black;stroke-width:0.72px;"/>
    </g>
    <g transform="matrix(-0.906731,-0.977556,-0.977556,0.906731,1188.83,-24.9515)">
        <path d="M325.73,588.535L341.92,588.535" style="fill:none;fill-rule:nonzero;stroke:black;stroke-width:0.72px;"/>
    </g>
    <g transform="matrix(1.33333,0,0,1.33333,-134.281,-542.688)">
        <path d="M373.68,566.16L407.76,566.16" style="fill:none;fill-rule:nonzero;stroke:black;stroke-width:0.72px;"/>
    </g>
    <g transform="matrix(1.33333,0,0,1.33333,-134.281,-550.368)">
        <path d="M373.68,569.04L407.76,569.04" style="fill:none;fill-rule:nonzero;stroke:black;stroke-width:0.72px;"/>
    </g>
    <g transform="matrix(1.33333,0,0,1.33333,-134.281,-546.528)">
        <path d="M403.2,564L411.12,567.6L403.2,571.2" style="fill:none;fill-rule:nonzero;stroke:black;stroke-width:0.72px;"/>
    </g>
    <g transform="matrix(-1.15461,0.666831,0.666831,1.15461,532.081,-642.517)">
        <path d="M404.107,536.62L419.223,536.62" style="fill:none;fill-rule:nonzero;stroke:black;stroke-width:0.72px;"/>
    </g>
    <g transform="matrix(-1.15468,-0.666702,-0.666702,1.15468,1284.66,-80.4883)">
        <path d="M416.876,535.42L436.794,535.42" style="fill:none;fill-rule:nonzero;stroke:black;stroke-width:0.72px;"/>
    </g>
    <g transform="matrix(-1.15468,0.666702,0.666702,1.15468,613.642,-661.133)">
        <path d="M434.126,535.42L454.044,535.42" style="fill:none;fill-rule:nonzero;stroke:black;stroke-width:0.72px;"/>
    </g>
    <g transform="matrix(-1.15478,-0.666529,-0.666529,1.15478,1365.86,-62.2084)">
        <path d="M451.713,536.68L466.597,536.68" style="fill:none;fill-rule:nonzero;stroke:black;stroke-width:0.72px;"/>
    </g>
</svg>
