<?xml version="1.0" encoding="UTF-8" standalone="no"?>
<!DOCTYPE svg PUBLIC "-//W3C//DTD SVG 1.1//EN" "http://www.w3.org/Graphics/SVG/1.1/DTD/svg11.dtd">
<svg width="100%" height="100%" viewBox="0 0 400 180" version="1.1" xmlns="http://www.w3.org/2000/svg" xmlns:xlink="http://www.w3.org/1999/xlink" xml:space="preserve" xmlns:serif="http://www.serif.com/" style="fill-rule:evenodd;clip-rule:evenodd;stroke-linecap:round;stroke-linejoin:round;stroke-miterlimit:10;">
    <g transform="matrix(1.33333,0,0,1.33333,-130.612,-136.745)">
        <text x="100.08px" y="146.16px" style="font-family:'ArialMT', 'Arial', sans-serif;font-size:10px;">Ar</text>
    </g>
    <g transform="matrix(1.33333,0,0,1.33333,-130.612,-136.745)">
        <text x="134.4px" y="163.2px" style="font-family:'ArialMT', 'Arial', sans-serif;font-size:10px;">O</text>
    </g>
    <g transform="matrix(1.33333,0,0,1.33333,-130.612,-136.745)">
        <text x="134.64px" y="128.88px" style="font-family:'ArialMT', 'Arial', sans-serif;font-size:10px;">R</text>
    </g>
    <g transform="matrix(1.33333,0,0,1.33333,-130.612,-136.745)">
        <text x="142.56px" y="162.72px" style="font-family:'ArialMT', 'Arial', sans-serif;font-size:10px;">:</text>
    </g>
    <g transform="matrix(1.09883,-0.755219,0.755219,1.09883,-130.612,-136.745)">
        <text x="16.31px" y="212.139px" style="font-family:'ArialMT', 'Arial', sans-serif;font-size:10px;">:</text>
    </g>
    <g transform="matrix(1.33333,0,0,1.33333,-130.612,-136.745)">
        <text x="196.8px" y="145.68px" style="font-family:'ArialMT', 'Arial', sans-serif;font-size:10px;">Ar</text>
        <text x="206.88px" y="140.64px" style="font-family:'ArialMT', 'Arial', sans-serif;font-size:6px;">-</text>
    </g>
    <g transform="matrix(1.33333,0,0,1.33333,-130.612,-136.745)">
        <text x="192.48px" y="204.72px" style="font-family:'ArialMT', 'Arial', sans-serif;font-size:10px;">ArH</text>
    </g>
    <g transform="matrix(1.33333,0,0,1.33333,-130.612,-136.745)">
        <text x="219.36px" y="149.52px" style="font-family:'ArialMT', 'Arial', sans-serif;font-size:18px;">+</text>
        <text x="243.12px" y="146.16px" style="font-family:'ArialMT', 'Arial', sans-serif;font-size:10px;">O</text>
        <text x="251.04px" y="139.2px" style="font-family:'ArialMT', 'Arial', sans-serif;font-size:8px;">+</text>
        <text x="283.2px" y="146.16px" style="font-family:'ArialMT', 'Arial', sans-serif;font-size:10px;"><tspan x="283.2px " y="146.16px ">R</tspan></text>
    </g>
    <g transform="matrix(1.33333,0,0,1.33333,-130.612,-136.745)">
        <text x="249.36px" y="218.4px" style="font-family:'ArialMT', 'Arial', sans-serif;font-size:10px;">R</text>
    </g>
    <g transform="matrix(1.33333,0,0,1.33333,-130.612,-136.745)">
        <text x="279.12px" y="235.44px" style="font-family:'ArialMT', 'Arial', sans-serif;font-size:10px;">Cl</text>
    </g>
    <g transform="matrix(1.33333,0,0,1.33333,-130.612,-136.745)">
        <text x="278.88px" y="201.12px" style="font-family:'ArialMT', 'Arial', sans-serif;font-size:10px;">O</text>
    </g>
    <g transform="matrix(1.33333,0,0,1.33333,-130.612,-136.745)">
        <text x="357.36px" y="129.12px" style="font-family:'ArialMT', 'Arial', sans-serif;font-size:10px;">R</text>
    </g>
    <g transform="matrix(1.33333,0,0,1.33333,-130.612,-136.745)">
        <text x="386.88px" y="146.16px" style="font-family:'ArialMT', 'Arial', sans-serif;font-size:10px;">O</text>
    </g>
    <g transform="matrix(1.33333,0,0,1.33333,-130.612,-136.745)">
        <text x="386.88px" y="111.84px" style="font-family:'ArialMT', 'Arial', sans-serif;font-size:10px;">O</text>
    </g>
    <g transform="matrix(1.33333,0,0,1.33333,-130.612,-136.745)">
        <text x="357.12px" y="163.44px" style="font-family:'ArialMT', 'Arial', sans-serif;font-size:10px;">R</text>
    </g>
    <g transform="matrix(1.33333,0,0,1.33333,-130.612,-136.745)">
        <text x="386.88px" y="180.72px" style="font-family:'ArialMT', 'Arial', sans-serif;font-size:10px;">O</text>
    </g>
    <g transform="matrix(1.33333,0,0,1.33333,-130.612,-880.425)">
        <path d="M111.12,699.84L128.4,699.84" style="fill:none;fill-rule:nonzero;stroke:black;stroke-width:0.72px;"/>
    </g>
    <g transform="matrix(0.666267,1.15493,1.15493,-0.666267,-844.564,372.922)">
        <path d="M123.701,693.375L136.689,693.375" style="fill:none;fill-rule:nonzero;stroke:black;stroke-width:0.72px;"/>
    </g>
    <g transform="matrix(0.667127,1.15443,1.15443,-0.667127,-843.112,369.108)">
        <path d="M126.145,694.26L140.975,694.26" style="fill:none;fill-rule:nonzero;stroke:black;stroke-width:0.72px;"/>
    </g>
    <g transform="matrix(0.666796,-1.15463,-1.15463,-0.666796,772.262,667.602)">
        <path d="M124.936,705.84L138.794,705.84" style="fill:none;fill-rule:nonzero;stroke:black;stroke-width:0.72px;"/>
    </g>
    <g transform="matrix(1.33333,0,0,1.33333,-130.612,-834.025)">
        <path d="M131.76,688.56L128.88,689.28L127.68,689.04L126.72,688.8L125.52,688.32L124.8,687.84L123.84,687.12L123.12,686.16L122.64,685.44L122.16,684.24L121.92,683.28L121.92,682.56L121.68,682.08L121.92,680.64L122.4,679.2L123.12,677.76L124.08,676.8L125.28,675.84L126,675.6" style="fill:none;fill-rule:nonzero;stroke:black;stroke-width:0.48px;"/>
    </g>
    <g transform="matrix(1.13285,-0.70315,-0.70315,-1.13285,376.171,934.476)">
        <path d="M119.12,686.922L127.312,686.922L119.971,683.286L121.033,685.452L119.12,686.922Z" style="stroke:black;stroke-width:0.48px;"/>
    </g>
    <g transform="matrix(1.33333,0,0,1.33333,-130.612,-903.785)">
        <path d="M104.16,709.68L104.64,708.24L105.36,707.04L106.32,705.84L108.72,703.92L110.16,703.44L111.84,703.2L113.76,703.2L114.96,703.44L117.84,704.88L118.8,705.6L119.52,706.56L120.96,709.44L121.2,710.64L121.2,711.84L120.96,714" style="fill:none;fill-rule:nonzero;stroke:black;stroke-width:0.48px;"/>
    </g>
    <g transform="matrix(-0.350823,1.28635,1.28635,0.350823,-865.554,-350.119)">
        <path d="M103.409,709.743L111.618,709.743L104.314,713.722L105.472,711.301L103.409,709.743Z" style="stroke:black;stroke-width:0.48px;"/>
    </g>
    <g transform="matrix(1.33333,0,0,1.33333,-130.612,-875.305)">
        <path d="M147.84,697.92L181.92,697.92" style="fill:none;fill-rule:nonzero;stroke:black;stroke-width:0.72px;"/>
    </g>
    <g transform="matrix(1.33333,0,0,1.33333,-130.612,-882.985)">
        <path d="M147.84,700.8L181.92,700.8" style="fill:none;fill-rule:nonzero;stroke:black;stroke-width:0.72px;"/>
    </g>
    <g transform="matrix(1.33333,0,0,1.33333,-130.612,-879.145)">
        <path d="M177.36,695.76L185.28,699.36L177.36,702.96" style="fill:none;fill-rule:nonzero;stroke:black;stroke-width:0.72px;"/>
    </g>
    <g transform="matrix(0,1.33333,1.33333,0,-760.212,-176.905)">
        <path d="M187.32,672.12L212.52,672.12" style="fill:none;fill-rule:nonzero;stroke:black;stroke-width:0.72px;"/>
    </g>
    <g transform="matrix(0,1.33333,1.33333,0,-756.372,-180.745)">
        <path d="M190.2,672.12L215.4,672.12" style="fill:none;fill-rule:nonzero;stroke:black;stroke-width:0.72px;"/>
    </g>
    <g transform="matrix(1.33333,0,0,1.33333,-130.612,-774.505)">
        <path d="M204.96,656.16L201.36,664.08L197.76,656.16" style="fill:none;fill-rule:nonzero;stroke:black;stroke-width:0.72px;"/>
    </g>
    <g transform="matrix(1.33333,0,0,1.33333,-130.612,-880.425)">
        <path d="M252,699.84L266.88,699.84" style="fill:none;fill-rule:nonzero;stroke:black;stroke-width:0.72px;"/>
    </g>
    <g transform="matrix(1.33333,0,0,1.33333,-130.612,-889.385)">
        <path d="M256.56,703.2L266.88,703.2" style="fill:none;fill-rule:nonzero;stroke:black;stroke-width:0.72px;"/>
    </g>
    <g transform="matrix(1.33333,0,0,1.33333,-130.612,-871.465)">
        <path d="M252,696.48L266.88,696.48" style="fill:none;fill-rule:nonzero;stroke:black;stroke-width:0.72px;"/>
    </g>
    <g transform="matrix(1.33333,0,0,1.33333,-130.612,-880.425)">
        <path d="M266.88,699.84L282.24,699.84" style="fill:none;fill-rule:nonzero;stroke:black;stroke-width:0.72px;"/>
    </g>
    <g transform="matrix(0,1.33333,1.33333,0,-674.452,-263.305)">
        <path d="M251.88,672.36L277.08,672.36" style="fill:none;fill-rule:nonzero;stroke:black;stroke-width:0.72px;"/>
    </g>
    <g transform="matrix(0,1.33333,1.33333,0,-670.612,-267.145)">
        <path d="M254.76,672.36L279.96,672.36" style="fill:none;fill-rule:nonzero;stroke:black;stroke-width:0.72px;"/>
    </g>
    <g transform="matrix(1.33333,0,0,1.33333,-130.612,-775.145)">
        <path d="M269.52,656.4L265.92,664.32L262.32,656.4" style="fill:none;fill-rule:nonzero;stroke:black;stroke-width:0.72px;"/>
    </g>
    <g transform="matrix(1.33333,0,0,1.33333,-130.612,-687.785)">
        <path d="M257.52,627.6L272.88,627.6" style="fill:none;fill-rule:nonzero;stroke:black;stroke-width:0.72px;"/>
    </g>
    <g transform="matrix(0.666796,1.15463,1.15463,-0.666796,-664.133,252.421)">
        <path d="M269.416,621.6L283.274,621.6" style="fill:none;fill-rule:nonzero;stroke:black;stroke-width:0.72px;"/>
    </g>
    <g transform="matrix(0.667127,-1.15443,-1.15443,-0.667127,785.585,884.966)">
        <path d="M270.625,633.18L285.455,633.18" style="fill:none;fill-rule:nonzero;stroke:black;stroke-width:0.72px;"/>
    </g>
    <g transform="matrix(0.666267,-1.15493,-1.15493,-0.666267,784.916,880.083)">
        <path d="M268.181,634.065L281.169,634.065" style="fill:none;fill-rule:nonzero;stroke:black;stroke-width:0.72px;"/>
    </g>
    <g transform="matrix(1.33333,0,0,1.33333,-130.612,-873.385)">
        <path d="M303.84,697.2L337.92,697.2" style="fill:none;fill-rule:nonzero;stroke:black;stroke-width:0.72px;"/>
    </g>
    <g transform="matrix(1.33333,0,0,1.33333,-130.612,-881.065)">
        <path d="M303.84,700.08L337.92,700.08" style="fill:none;fill-rule:nonzero;stroke:black;stroke-width:0.72px;"/>
    </g>
    <g transform="matrix(1.33333,0,0,1.33333,-130.612,-877.225)">
        <path d="M333.36,695.04L341.28,698.64L333.36,702.24" style="fill:none;fill-rule:nonzero;stroke:black;stroke-width:0.72px;"/>
    </g>
    <g transform="matrix(1.33333,0,0,1.33333,-130.612,-925.865)">
        <path d="M365.52,716.88L380.88,716.88" style="fill:none;fill-rule:nonzero;stroke:black;stroke-width:0.72px;"/>
    </g>
    <g transform="matrix(0.666796,1.15463,1.15463,-0.666796,-695.232,68.213)">
        <path d="M377.416,710.88L391.274,710.88" style="fill:none;fill-rule:nonzero;stroke:black;stroke-width:0.72px;"/>
    </g>
    <g transform="matrix(0.667127,-1.15443,-1.15443,-0.667127,960.603,950.166)">
        <path d="M378.625,722.46L393.455,722.46" style="fill:none;fill-rule:nonzero;stroke:black;stroke-width:0.72px;"/>
    </g>
    <g transform="matrix(0.666267,-1.15493,-1.15493,-0.666267,960.071,945.26)">
        <path d="M376.181,723.345L389.169,723.345" style="fill:none;fill-rule:nonzero;stroke:black;stroke-width:0.72px;"/>
    </g>
    <g transform="matrix(-0.666515,1.15479,1.15479,0.666515,-156.917,-834.915)">
        <path d="M377.363,688.47L391.427,688.47" style="fill:none;fill-rule:nonzero;stroke:black;stroke-width:0.72px;"/>
    </g>
    <g transform="matrix(-1.33333,0,0,1.33333,864.268,-833.865)">
        <path d="M365.28,682.38L380.88,682.38" style="fill:none;fill-rule:nonzero;stroke:black;stroke-width:0.72px;"/>
    </g>
    <g transform="matrix(0.666267,1.15493,1.15493,-0.666267,-655.978,92.9719)">
        <path d="M376.181,675.915L389.169,675.915" style="fill:none;fill-rule:nonzero;stroke:black;stroke-width:0.72px;"/>
    </g>
    <g transform="matrix(0.666813,1.15462,1.15462,-0.666813,-654.708,88.9892)">
        <path d="M378.607,676.77L393.503,676.77" style="fill:none;fill-rule:nonzero;stroke:black;stroke-width:0.72px;"/>
    </g>
</svg>
