<?xml version="1.0" encoding="UTF-8" standalone="no"?>
<!DOCTYPE svg PUBLIC "-//W3C//DTD SVG 1.1//EN" "http://www.w3.org/Graphics/SVG/1.1/DTD/svg11.dtd">
<svg width="100%" height="100%" viewBox="0 0 360 190" version="1.1" xmlns="http://www.w3.org/2000/svg" xmlns:xlink="http://www.w3.org/1999/xlink" xml:space="preserve" xmlns:serif="http://www.serif.com/" style="fill-rule:evenodd;clip-rule:evenodd;stroke-linecap:round;stroke-linejoin:round;stroke-miterlimit:10;">
    <g transform="matrix(1.33333,0,0,1.33333,-48.2184,-73.1574)">
        <text x="40.8px" y="65.76px" style="font-family:'ArialMT', 'Arial', sans-serif;font-size:10px;">Cl</text>
        <text x="48.96px" y="89.76px" style="font-family:'ArialMT', 'Arial', sans-serif;font-size:10px;">R</text>
    </g>
    <g transform="matrix(1.33333,0,0,1.33333,-48.2184,-73.1574)">
        <text x="145.68px" y="82.8px" style="font-family:'ArialMT', 'Arial', sans-serif;font-size:10px;">R <tspan x="165.532px " y="82.8px ">ะก</tspan></text>
        <text x="185.384px" y="82.56px" style="font-family:'ArialMT', 'Arial', sans-serif;font-size:10px;">Cl</text>
    </g>
    <g transform="matrix(0.0140006,-1.33326,1.33326,0.0140006,-48.2184,-73.1574)">
        <text x="-72.229px" y="170.928px" style="font-family:'ArialMT', 'Arial', sans-serif;font-size:10px;">:</text>
    </g>
    <g transform="matrix(1.33333,0,0,1.33333,-48.2184,-73.1574)">
        <text x="215.76px" y="86.4px" style="font-family:'ArialMT', 'Arial', sans-serif;font-size:18px;">+</text>
        <text x="240.72px" y="82.8px" style="font-family:'ArialMT', 'Arial', sans-serif;font-size:10px;">H</text>
        <text x="247.932px" y="85.44px" style="font-family:'ArialMT', 'Arial', sans-serif;font-size:8px;">2</text>
        <text x="252.253px" y="82.8px" style="font-family:'ArialMT', 'Arial', sans-serif;font-size:10px;">C	<tspan x="272.16px " y="82.8px ">C</tspan>H</text>
        <text x="286.576px" y="85.44px" style="font-family:'ArialMT', 'Arial', sans-serif;font-size:8px;">2</text>
    </g>
    <g transform="matrix(1.33333,0,0,1.33333,-48.2184,-73.1574)">
        <text x="153.12px" y="174.48px" style="font-family:'ArialMT', 'Arial', sans-serif;font-size:10px;">R</text>
    </g>
    <g transform="matrix(1.33333,0,0,1.33333,-48.2184,-73.1574)">
        <text x="182.88px" y="191.52px" style="font-family:'ArialMT', 'Arial', sans-serif;font-size:10px;">Cl</text>
    </g>
    <g transform="matrix(1.33333,0,0,1.33333,-48.2184,-73.1574)">
        <text x="182.88px" y="157.2px" style="font-family:'ArialMT', 'Arial', sans-serif;font-size:10px;">Cl</text>
    </g>
    <g transform="matrix(-1.33328,0.0113784,0.0113784,1.33328,147.305,-1005.87)">
        <path d="M66.65,770.415L86.57,770.415" style="fill:none;fill-rule:nonzero;stroke:black;stroke-width:0.72px;"/>
    </g>
    <g transform="matrix(-0.676524,-1.14895,-1.14895,0.676524,971.108,-399.21)">
        <path d="M61.742,761.745L81.668,761.745" style="fill:none;fill-rule:nonzero;stroke:black;stroke-width:0.72px;"/>
    </g>
    <g transform="matrix(0.656539,-1.16049,-1.16049,-0.656539,891.147,628.572)">
        <path d="M71.704,761.83L91.626,761.83" style="fill:none;fill-rule:nonzero;stroke:black;stroke-width:0.72px;"/>
    </g>
    <g transform="matrix(-0.658059,1.15963,1.15963,0.658059,-846.229,-561.46)">
        <path d="M50.849,778.335L54.171,778.335" style="fill:none;fill-rule:nonzero;stroke:black;stroke-width:0.72px;"/>
    </g>
    <g transform="matrix(-0.654816,1.16146,1.16146,0.654816,-841.754,-559.113)">
        <path d="M53.41,777.035L56.2,777.035" style="fill:none;fill-rule:nonzero;stroke:black;stroke-width:0.72px;"/>
    </g>
    <g transform="matrix(-0.659598,1.15875,1.15875,0.659598,-833.297,-562.754)">
        <path d="M55.983,775.735L58.227,775.735" style="fill:none;fill-rule:nonzero;stroke:black;stroke-width:0.72px;"/>
    </g>
    <g transform="matrix(-0.654792,1.16148,1.16148,0.654792,-829.611,-559.263)">
        <path d="M58.545,774.435L60.255,774.435" style="fill:none;fill-rule:nonzero;stroke:black;stroke-width:0.72px;"/>
    </g>
    <g transform="matrix(-0.663983,1.15625,1.15625,0.663983,-818.918,-566.133)">
        <path d="M61.118,773.135L62.282,773.135" style="fill:none;fill-rule:nonzero;stroke:black;stroke-width:0.72px;"/>
    </g>
    <g transform="matrix(-0.663823,1.15634,1.15634,0.663823,-812.906,-566.063)">
        <path d="M63.684,771.83L64.306,771.83" style="fill:none;fill-rule:nonzero;stroke:black;stroke-width:0.72px;"/>
    </g>
    <g transform="matrix(-0.661519,1.15766,1.15766,0.661519,-807.995,-564.442)">
        <path d="M66.25,770.535L66.33,770.535" style="fill:none;fill-rule:nonzero;stroke:black;stroke-width:0.72px;"/>
    </g>
    <g transform="matrix(-1.04419,0.829124,0.829124,1.04419,-536.7,-819.954)">
        <path d="M53.701,763.966L67.402,763.966L66.99,767.307L53.701,763.966Z" style="stroke:black;stroke-width:0.24px;"/>
    </g>
    <g transform="matrix(1.33333,0,0,1.33333,-48.2184,-978.757)">
        <path d="M97.2,760.56L131.28,760.56" style="fill:none;fill-rule:nonzero;stroke:black;stroke-width:0.72px;"/>
    </g>
    <g transform="matrix(1.33333,0,0,1.33333,-48.2184,-986.437)">
        <path d="M97.2,763.44L131.28,763.44" style="fill:none;fill-rule:nonzero;stroke:black;stroke-width:0.72px;"/>
    </g>
    <g transform="matrix(1.33333,0,0,1.33333,-48.2184,-982.597)">
        <path d="M126.72,758.4L134.64,762L126.72,765.6" style="fill:none;fill-rule:nonzero;stroke:black;stroke-width:0.72px;"/>
    </g>
    <g transform="matrix(1.33333,0,0,1.33333,-48.2184,-985.797)">
        <path d="M153.84,763.2L164.64,763.2" style="fill:none;fill-rule:nonzero;stroke:black;stroke-width:0.72px;"/>
    </g>
    <g transform="matrix(1.33333,0,0,1.33333,-48.2184,-985.797)">
        <path d="M173.76,763.2L184.56,763.2" style="fill:none;fill-rule:nonzero;stroke:black;stroke-width:0.72px;"/>
    </g>
    <g transform="matrix(1.33333,0,0,1.33333,-48.2184,-964.037)">
        <path d="M165.6,752.88L171.36,752.88L171.36,753.36L167.04,753.36L167.04,756.72L171.36,756.72L171.36,757.2L165.6,757.2L165.6,752.88Z" style="stroke:black;stroke-width:0.02px;"/>
    </g>
    <g transform="matrix(1.33333,0,0,1.33333,-48.2184,-964.037)">
        <path d="M172.8,752.88L167.04,752.88L167.04,753.36L171.36,753.36L171.36,756.72L167.04,756.72L167.04,757.2L172.8,757.2L172.8,752.88Z" style="stroke:black;stroke-width:0.02px;"/>
    </g>
    <g transform="matrix(1.33333,0,0,1.33333,-48.2184,-981.317)">
        <path d="M260.4,761.52L271.2,761.52" style="fill:none;fill-rule:nonzero;stroke:black;stroke-width:0.72px;"/>
    </g>
    <g transform="matrix(1.33333,0,0,1.33333,-48.2184,-990.277)">
        <path d="M260.4,764.88L271.2,764.88" style="fill:none;fill-rule:nonzero;stroke:black;stroke-width:0.72px;"/>
    </g>
    <g transform="matrix(0,1.33333,1.33333,0,-785.978,-140.197)">
        <path d="M152.76,722.76L186.12,722.76" style="fill:none;fill-rule:nonzero;stroke:black;stroke-width:0.72px;"/>
    </g>
    <g transform="matrix(0,1.33333,1.33333,0,-782.138,-144.037)">
        <path d="M155.64,722.76L189,722.76" style="fill:none;fill-rule:nonzero;stroke:black;stroke-width:0.72px;"/>
    </g>
    <g transform="matrix(1.33333,0,0,1.33333,-48.2184,-835.077)">
        <path d="M174.48,702.72L170.88,710.64L167.28,702.72" style="fill:none;fill-rule:nonzero;stroke:black;stroke-width:0.72px;"/>
    </g>
    <g transform="matrix(1.33333,0,0,1.33333,-48.2184,-741.317)">
        <path d="M161.28,671.52L176.64,671.52" style="fill:none;fill-rule:nonzero;stroke:black;stroke-width:0.72px;"/>
    </g>
    <g transform="matrix(0.666796,1.15463,1.15463,-0.666796,-696.598,397.855)">
        <path d="M173.176,665.52L187.034,665.52" style="fill:none;fill-rule:nonzero;stroke:black;stroke-width:0.72px;"/>
    </g>
    <g transform="matrix(0.666796,-1.15463,-1.15463,-0.666796,854.11,805.764)">
        <path d="M173.176,677.52L187.034,677.52" style="fill:none;fill-rule:nonzero;stroke:black;stroke-width:0.72px;"/>
    </g>
</svg>
