<?xml version="1.0" encoding="UTF-8" standalone="no"?>
<!DOCTYPE svg PUBLIC "-//W3C//DTD SVG 1.1//EN" "http://www.w3.org/Graphics/SVG/1.1/DTD/svg11.dtd">
<svg width="100%" height="100%" viewBox="0 0 500 80" version="1.1" xmlns="http://www.w3.org/2000/svg" xmlns:xlink="http://www.w3.org/1999/xlink" xml:space="preserve" xmlns:serif="http://www.serif.com/" style="fill-rule:evenodd;clip-rule:evenodd;stroke-linecap:round;stroke-linejoin:round;stroke-miterlimit:10;">
    <g transform="matrix(1.33333,0,0,1.33333,-69.8267,-62.2374)">
        <text x="112.32px" y="67.2px" style="font-family:'ArialMT', 'Arial', sans-serif;font-size:10px;">Cl</text>
    </g>
    <g transform="matrix(1.33333,0,0,1.33333,-69.8267,-62.2374)">
        <text x="85.2px" y="57.84px" style="font-family:'ArialMT', 'Arial', sans-serif;font-size:10px;">Cl</text>
    </g>
    <g transform="matrix(1.33333,0,0,1.33333,-69.8267,-62.2374)">
        <text x="57.84px" y="67.2px" style="font-family:'ArialMT', 'Arial', sans-serif;font-size:10px;">H</text>
        <text x="60.96px" y="91.2px" style="font-family:'ArialMT', 'Arial', sans-serif;font-size:10px;">R</text>
    </g>
    <g transform="matrix(1.33333,0,0,1.33333,-69.8267,-62.2374)">
        <text x="214.8px" y="83.52px" style="font-family:'ArialMT', 'Arial', sans-serif;font-size:10px;">CH</text>
        <text x="229.2px" y="86.16px" style="font-family:'ArialMT', 'Arial', sans-serif;font-size:8px;">2</text>
    </g>
    <g transform="matrix(1.33333,0,0,1.33333,-69.8267,-62.2374)">
        <text x="184.8px" y="100.56px" style="font-family:'ArialMT', 'Arial', sans-serif;font-size:10px;">R</text>
    </g>
    <g transform="matrix(1.33333,0,0,1.33333,-69.8267,-62.2374)">
        <text x="247.92px" y="86.4px" style="font-family:'ArialMT', 'Arial', sans-serif;font-size:18px;">+</text>
        <text x="271.2px" y="83.28px" style="font-family:'ArialMT', 'Arial', sans-serif;font-size:10px;">СH</text>
        <text x="289.92px" y="99.84px" style="font-family:'ArialMT', 'Arial', sans-serif;font-size:10px;">Cl</text>
    </g>
    <g transform="matrix(1.33333,0,0,1.33333,-69.8267,-62.2374)">
        <text x="287.04px" y="65.28px" style="font-family:'ArialMT', 'Arial', sans-serif;font-size:10px;">Cl</text>
    </g>
    <g transform="matrix(-0.0233344,-1.33313,1.33313,-0.0233344,-69.8267,-62.2374)">
        <text x="-79.533px" y="274.89px" style="font-family:'ArialMT', 'Arial', sans-serif;font-size:10px;">:</text>
    </g>
    <g transform="matrix(1.33333,0,0,1.33333,-69.8267,-62.2374)">
        <text x="362.16px" y="83.28px" style="font-family:'ArialMT', 'Arial', sans-serif;font-size:10px;">H</text>
    </g>
    <g transform="matrix(1.33333,0,0,1.33333,-69.8267,-62.2374)">
        <text x="391.92px" y="100.32px" style="font-family:'ArialMT', 'Arial', sans-serif;font-size:10px;">Cl</text>
    </g>
    <g transform="matrix(1.33333,0,0,1.33333,-69.8267,-62.2374)">
        <text x="391.92px" y="66px" style="font-family:'ArialMT', 'Arial', sans-serif;font-size:10px;">Cl</text>
        <text x="402px" y="83.04px" style="font-family:'ArialMT', 'Arial', sans-serif;font-size:10px;">Cl</text>
    </g>
    <g transform="matrix(0.666702,-1.15468,-1.15468,-0.666702,870.368,661.899)">
        <path d="M83.821,760.105L103.739,760.105" style="fill:none;fill-rule:nonzero;stroke:black;stroke-width:0.72px;"/>
    </g>
    <g transform="matrix(1.33333,0,0,1.33333,-69.8267,-989.624)">
        <path d="M78.84,768.73L98.76,768.73" style="fill:none;fill-rule:nonzero;stroke:black;stroke-width:0.72px;"/>
    </g>
    <g transform="matrix(0.666702,1.15468,1.15468,-0.666702,-891.628,456.828)">
        <path d="M73.861,760.105L93.779,760.105" style="fill:none;fill-rule:nonzero;stroke:black;stroke-width:0.72px;"/>
    </g>
    <g transform="matrix(1.22354,-0.529837,-0.529837,-1.22354,351.368,1031.33)">
        <path d="M97.579,771.76L112.225,771.76L112.034,773.433L111.84,775.098L97.579,771.76Z" style="stroke:black;stroke-width:0.24px;"/>
    </g>
    <g transform="matrix(-1.28757,0.346339,0.346339,1.28757,-90.729,-1021.2)">
        <path d="M93.674,781.605L96.946,781.605" style="fill:none;fill-rule:nonzero;stroke:black;stroke-width:0.72px;"/>
    </g>
    <g transform="matrix(-1.2889,0.34133,0.34133,1.2889,-84.02,-1015.31)">
        <path d="M94.686,779.055L97.304,779.055" style="fill:none;fill-rule:nonzero;stroke:black;stroke-width:0.72px;"/>
    </g>
    <g transform="matrix(-1.2882,0.34397,0.34397,1.2882,-83.4842,-1008.57)">
        <path d="M95.687,776.505L97.663,776.505" style="fill:none;fill-rule:nonzero;stroke:black;stroke-width:0.72px;"/>
    </g>
    <g transform="matrix(-1.28612,0.351673,0.351673,1.28612,-86.9761,-1001.25)">
        <path d="M96.697,773.955L98.023,773.955" style="fill:none;fill-rule:nonzero;stroke:black;stroke-width:0.72px;"/>
    </g>
    <g transform="matrix(-1.28995,0.33737,0.33737,1.28995,-72.8765,-996.365)">
        <path d="M97.709,771.405L98.381,771.405" style="fill:none;fill-rule:nonzero;stroke:black;stroke-width:0.72px;"/>
    </g>
    <g transform="matrix(-1.26491,0.421637,0.421637,1.26491,-137.493,-978.977)">
        <path d="M98.709,768.855L98.741,768.855" style="fill:none;fill-rule:nonzero;stroke:black;stroke-width:0.72px;"/>
    </g>
    <g transform="matrix(-0.666766,1.15464,1.15464,0.666766,-830.954,-568.257)">
        <path d="M65.5,775.49L68.78,775.49" style="fill:none;fill-rule:nonzero;stroke:black;stroke-width:0.72px;"/>
    </g>
    <g transform="matrix(-0.66586,1.15517,1.15517,0.66586,-825.312,-567.586)">
        <path d="M68.108,774.165L70.752,774.165" style="fill:none;fill-rule:nonzero;stroke:black;stroke-width:0.72px;"/>
    </g>
    <g transform="matrix(-0.667259,1.15436,1.15436,0.667259,-818.484,-568.616)">
        <path d="M70.721,772.845L72.719,772.845" style="fill:none;fill-rule:nonzero;stroke:black;stroke-width:0.72px;"/>
    </g>
    <g transform="matrix(-0.669989,1.15278,1.15278,0.669989,-810.976,-570.596)">
        <path d="M73.323,771.525L74.677,771.525" style="fill:none;fill-rule:nonzero;stroke:black;stroke-width:0.72px;"/>
    </g>
    <g transform="matrix(-0.669514,1.15305,1.15305,0.669514,-805.122,-570.257)">
        <path d="M75.932,770.21L76.648,770.21" style="fill:none;fill-rule:nonzero;stroke:black;stroke-width:0.72px;"/>
    </g>
    <g transform="matrix(-0.596285,1.19257,1.19257,0.596285,-835.162,-517.048)">
        <path d="M78.541,768.89L78.609,768.89" style="fill:none;fill-rule:nonzero;stroke:black;stroke-width:0.72px;"/>
    </g>
    <g transform="matrix(-1.05039,0.821251,0.821251,1.05039,-521.741,-819.395)">
        <path d="M65.731,762.346L79.58,762.346L79.375,764.017L79.164,765.679L65.731,762.346Z" style="stroke:black;stroke-width:0.24px;"/>
    </g>
    <g transform="matrix(1.33333,0,0,1.33333,-69.8267,-969.757)">
        <path d="M129.84,761.28L163.92,761.28" style="fill:none;fill-rule:nonzero;stroke:black;stroke-width:0.72px;"/>
    </g>
    <g transform="matrix(1.33333,0,0,1.33333,-69.8267,-977.437)">
        <path d="M129.84,764.16L163.92,764.16" style="fill:none;fill-rule:nonzero;stroke:black;stroke-width:0.72px;"/>
    </g>
    <g transform="matrix(1.33333,0,0,1.33333,-69.8267,-973.597)">
        <path d="M159.36,759.12L167.28,762.72L159.36,766.32" style="fill:none;fill-rule:nonzero;stroke:black;stroke-width:0.72px;"/>
    </g>
    <g transform="matrix(1.33333,0,0,1.33333,-69.8267,-972.957)">
        <path d="M198.48,762.48L213.84,762.48" style="fill:none;fill-rule:nonzero;stroke:black;stroke-width:0.72px;"/>
    </g>
    <g transform="matrix(1.33333,0,0,1.33333,-69.8267,-963.997)">
        <path d="M200.14,759.12L213.84,759.12" style="fill:none;fill-rule:nonzero;stroke:black;stroke-width:0.72px;"/>
    </g>
    <g transform="matrix(-0.666796,1.15463,1.15463,0.666796,-553.223,-677.905)">
        <path d="M188.086,756.48L201.944,756.48" style="fill:none;fill-rule:nonzero;stroke:black;stroke-width:0.72px;"/>
    </g>
    <g transform="matrix(0.754175,1.09954,1.09954,-0.754175,-732.484,306.871)">
        <path d="M284.137,754.32L291.703,754.32" style="fill:none;fill-rule:nonzero;stroke:black;stroke-width:0.72px;"/>
    </g>
    <g transform="matrix(0.574886,-1.20303,-1.20303,-0.574886,1075.78,819.851)">
        <path d="M282.309,771.6L290.821,771.6" style="fill:none;fill-rule:nonzero;stroke:black;stroke-width:0.72px;"/>
    </g>
    <g transform="matrix(1.33333,0,0,1.33333,-69.8267,-949.277)">
        <path d="M271.92,751.68L277.68,751.68L277.68,752.16L273.36,752.16L273.36,755.04L277.68,755.04L277.68,755.52L271.92,755.52L271.92,751.68Z" style="stroke:black;stroke-width:0.02px;"/>
    </g>
    <g transform="matrix(1.33333,0,0,1.33333,-69.8267,-949.277)">
        <path d="M279.84,751.68L274.08,751.68L274.08,752.16L278.4,752.16L278.4,755.04L274.08,755.04L274.08,755.52L279.84,755.52L279.84,751.68Z" style="stroke:black;stroke-width:0.02px;"/>
    </g>
    <g transform="matrix(1.33333,0,0,1.33333,-69.8267,-967.837)">
        <path d="M311.28,760.56L345.36,760.56" style="fill:none;fill-rule:nonzero;stroke:black;stroke-width:0.72px;"/>
    </g>
    <g transform="matrix(1.33333,0,0,1.33333,-69.8267,-975.517)">
        <path d="M311.28,763.44L345.36,763.44" style="fill:none;fill-rule:nonzero;stroke:black;stroke-width:0.72px;"/>
    </g>
    <g transform="matrix(1.33333,0,0,1.33333,-69.8267,-971.677)">
        <path d="M340.8,758.4L348.72,762L340.8,765.6" style="fill:none;fill-rule:nonzero;stroke:black;stroke-width:0.72px;"/>
    </g>
    <g transform="matrix(1.33333,0,0,1.33333,-69.8267,-973.597)">
        <path d="M370.32,762.72L385.68,762.72" style="fill:none;fill-rule:nonzero;stroke:black;stroke-width:0.72px;"/>
    </g>
    <g transform="matrix(0.666796,1.15463,1.15463,-0.666796,-684.175,106.624)">
        <path d="M382.216,756.72L396.074,756.72" style="fill:none;fill-rule:nonzero;stroke:black;stroke-width:0.72px;"/>
    </g>
    <g transform="matrix(0.666796,-1.15463,-1.15463,-0.666796,1077.14,997.259)">
        <path d="M382.216,768.72L396.074,768.72" style="fill:none;fill-rule:nonzero;stroke:black;stroke-width:0.72px;"/>
    </g>
    <g transform="matrix(1.33333,0,0,1.33333,-69.8267,-973.597)">
        <path d="M385.68,762.72L401.04,762.72" style="fill:none;fill-rule:nonzero;stroke:black;stroke-width:0.72px;"/>
    </g>
</svg>
