<?xml version="1.0" encoding="UTF-8" standalone="no"?>
<!DOCTYPE svg PUBLIC "-//W3C//DTD SVG 1.1//EN" "http://www.w3.org/Graphics/SVG/1.1/DTD/svg11.dtd">
<svg width="100%" height="100%" viewBox="0 0 640 75" version="1.1" xmlns="http://www.w3.org/2000/svg" xmlns:xlink="http://www.w3.org/1999/xlink" xml:space="preserve" xmlns:serif="http://www.serif.com/" style="fill-rule:evenodd;clip-rule:evenodd;stroke-linecap:round;stroke-linejoin:round;stroke-miterlimit:10;">
    <g transform="matrix(1.33333,0,0,1.33333,-63.7011,-62.8174)">
        <text x="50.88px" y="67.44px" style="font-family:'ArialMT', 'Arial', sans-serif;font-size:10px;">R</text>
        <text x="54px" y="91.44px" style="font-family:'ArialMT', 'Arial', sans-serif;font-size:10px;">H</text>
    </g>
    <g transform="matrix(1.33333,0,0,1.33333,-63.7011,-62.8174)">
        <text x="105.12px" y="67.44px" style="font-family:'ArialMT', 'Arial', sans-serif;font-size:10px;">O</text>
    </g>
    <g transform="matrix(1.33333,0,0,1.33333,-63.7011,-62.8174)">
        <text x="83.04px" y="58.08px" style="font-family:'ArialMT', 'Arial', sans-serif;font-size:10px;">H</text>
    </g>
    <g transform="matrix(1.33333,0,0,1.33333,-63.7011,-62.8174)">
        <text x="122.88px" y="77.28px" style="font-family:'ArialMT', 'Arial', sans-serif;font-size:10px;">Ph</text>
    </g>
    <g transform="matrix(1.33333,0,0,1.33333,-63.7011,-62.8174)">
        <text x="243.6px" y="80.4px" style="font-family:'ArialMT', 'Arial', sans-serif;font-size:10px;">CH</text>
        <text x="258px" y="83.04px" style="font-family:'ArialMT', 'Arial', sans-serif;font-size:8px;">2</text>
    </g>
    <g transform="matrix(1.33333,0,0,1.33333,-63.7011,-62.8174)">
        <text x="213.6px" y="97.44px" style="font-family:'ArialMT', 'Arial', sans-serif;font-size:10px;">R</text>
    </g>
    <g transform="matrix(1.33333,0,0,1.33333,-63.7011,-62.8174)">
        <text x="283.92px" y="85.92px" style="font-family:'ArialMT', 'Arial', sans-serif;font-size:18px;">+</text>
        <text x="311.52px" y="82.8px" style="font-family:'ArialMT', 'Arial', sans-serif;font-size:10px;">СH	<tspan x="338.4px " y="82.8px ">O</tspan></text>
        <text x="358.8px" y="82.56px" style="font-family:'ArialMT', 'Arial', sans-serif;font-size:10px;">Ph</text>
    </g>
    <g transform="matrix(-0.0115996,-1.33328,1.33328,-0.0115996,-63.7011,-62.8174)">
        <text x="-74.667px" y="315.442px" style="font-family:'ArialMT', 'Arial', sans-serif;font-size:10px;">:</text>
    </g>
    <g transform="matrix(1.33333,0,0,1.33333,-63.7011,-62.8174)">
        <text x="444.96px" y="89.04px" style="font-family:'ArialMT', 'Arial', sans-serif;font-size:10px;">Cl</text>
    </g>
    <g transform="matrix(1.33333,0,0,1.33333,-63.7011,-62.8174)">
        <text x="484.08px" y="89.04px" style="font-family:'ArialMT', 'Arial', sans-serif;font-size:10px;">O</text>
    </g>
    <g transform="matrix(1.33333,0,0,1.33333,-63.7011,-62.8174)">
        <text x="501.84px" y="79.2px" style="font-family:'ArialMT', 'Arial', sans-serif;font-size:10px;">Ph</text>
    </g>
    <g transform="matrix(0.666702,-1.15468,-1.15468,-0.666702,871.577,653.442)">
        <path d="M76.861,759.865L96.779,759.865" style="fill:none;fill-rule:nonzero;stroke:black;stroke-width:0.72px;"/>
    </g>
    <g transform="matrix(1.33333,0,0,1.33333,-63.7011,-989.564)">
        <path d="M71.88,768.49L91.8,768.49" style="fill:none;fill-rule:nonzero;stroke:black;stroke-width:0.72px;"/>
    </g>
    <g transform="matrix(0.666702,1.15468,1.15468,-0.666702,-889.865,464.444)">
        <path d="M66.901,759.865L86.819,759.865" style="fill:none;fill-rule:nonzero;stroke:black;stroke-width:0.72px;"/>
    </g>
    <g transform="matrix(-0.666766,1.15464,1.15464,0.666766,-838.472,-560.321)">
        <path d="M58.54,775.25L61.82,775.25" style="fill:none;fill-rule:nonzero;stroke:black;stroke-width:0.72px;"/>
    </g>
    <g transform="matrix(-0.66586,1.15517,1.15517,0.66586,-832.823,-559.646)">
        <path d="M61.148,773.925L63.792,773.925" style="fill:none;fill-rule:nonzero;stroke:black;stroke-width:0.72px;"/>
    </g>
    <g transform="matrix(-0.667259,1.15436,1.15436,0.667259,-826.006,-560.681)">
        <path d="M63.761,772.605L65.759,772.605" style="fill:none;fill-rule:nonzero;stroke:black;stroke-width:0.72px;"/>
    </g>
    <g transform="matrix(-0.669989,1.15278,1.15278,0.669989,-818.517,-562.672)">
        <path d="M66.363,771.285L67.717,771.285" style="fill:none;fill-rule:nonzero;stroke:black;stroke-width:0.72px;"/>
    </g>
    <g transform="matrix(-0.669514,1.15305,1.15305,0.669514,-812.659,-562.331)">
        <path d="M68.972,769.97L69.688,769.97" style="fill:none;fill-rule:nonzero;stroke:black;stroke-width:0.72px;"/>
    </g>
    <g transform="matrix(-0.596285,1.19257,1.19257,0.596285,-842.18,-508.864)">
        <path d="M71.581,768.65L71.649,768.65" style="fill:none;fill-rule:nonzero;stroke:black;stroke-width:0.72px;"/>
    </g>
    <g transform="matrix(-1.05039,0.821251,0.821251,1.05039,-532.009,-813.687)">
        <path d="M58.771,762.106L72.62,762.106L72.415,763.777L72.204,765.439L58.771,762.106Z" style="stroke:black;stroke-width:0.24px;"/>
    </g>
    <g transform="matrix(1.22442,-0.527799,-0.527799,-1.22442,354.894,1027.51)">
        <path d="M90.637,771.454L105.011,771.454L104.814,773.118L104.62,774.791L90.637,771.454Z" style="stroke:black;stroke-width:0.24px;"/>
    </g>
    <g transform="matrix(-1.28757,0.346339,0.346339,1.28757,-102.762,-1018.74)">
        <path d="M86.714,781.365L89.986,781.365" style="fill:none;fill-rule:nonzero;stroke:black;stroke-width:0.72px;"/>
    </g>
    <g transform="matrix(-1.2889,0.34133,0.34133,1.2889,-96.0632,-1012.88)">
        <path d="M87.726,778.815L90.344,778.815" style="fill:none;fill-rule:nonzero;stroke:black;stroke-width:0.72px;"/>
    </g>
    <g transform="matrix(-1.2882,0.34397,0.34397,1.2882,-95.5219,-1006.12)">
        <path d="M88.727,776.265L90.703,776.265" style="fill:none;fill-rule:nonzero;stroke:black;stroke-width:0.72px;"/>
    </g>
    <g transform="matrix(-1.28612,0.351673,0.351673,1.28612,-98.9975,-998.759)">
        <path d="M89.737,773.715L91.063,773.715" style="fill:none;fill-rule:nonzero;stroke:black;stroke-width:0.72px;"/>
    </g>
    <g transform="matrix(-1.28995,0.33737,0.33737,1.28995,-84.9279,-993.967)">
        <path d="M90.749,771.165L91.421,771.165" style="fill:none;fill-rule:nonzero;stroke:black;stroke-width:0.72px;"/>
    </g>
    <g transform="matrix(-1.26491,0.421637,0.421637,1.26491,-149.35,-975.999)">
        <path d="M91.749,768.615L91.781,768.615" style="fill:none;fill-rule:nonzero;stroke:black;stroke-width:0.72px;"/>
    </g>
    <g transform="matrix(1.15487,0.666381,0.666381,-1.15487,-557.971,843.125)">
        <path d="M113.388,773.315L122.532,773.315" style="fill:none;fill-rule:nonzero;stroke:black;stroke-width:0.72px;"/>
    </g>
    <g transform="matrix(1.33333,0,0,1.33333,-63.7011,-968.417)">
        <path d="M158.64,760.56L192.72,760.56" style="fill:none;fill-rule:nonzero;stroke:black;stroke-width:0.72px;"/>
    </g>
    <g transform="matrix(1.33333,0,0,1.33333,-63.7011,-976.097)">
        <path d="M158.64,763.44L192.72,763.44" style="fill:none;fill-rule:nonzero;stroke:black;stroke-width:0.72px;"/>
    </g>
    <g transform="matrix(1.33333,0,0,1.33333,-63.7011,-972.257)">
        <path d="M188.16,758.4L196.08,762L188.16,765.6" style="fill:none;fill-rule:nonzero;stroke:black;stroke-width:0.72px;"/>
    </g>
    <g transform="matrix(1.33333,0,0,1.33333,-63.7011,-981.857)">
        <path d="M227.28,765.6L242.64,765.6" style="fill:none;fill-rule:nonzero;stroke:black;stroke-width:0.72px;"/>
    </g>
    <g transform="matrix(1.33333,0,0,1.33333,-63.7011,-972.897)">
        <path d="M228.94,762.24L242.64,762.24" style="fill:none;fill-rule:nonzero;stroke:black;stroke-width:0.72px;"/>
    </g>
    <g transform="matrix(-0.666796,1.15463,1.15463,0.666796,-493.096,-717.978)">
        <path d="M216.886,759.6L230.744,759.6" style="fill:none;fill-rule:nonzero;stroke:black;stroke-width:0.72px;"/>
    </g>
    <g transform="matrix(1.33333,0,0,1.33333,-63.7011,-975.457)">
        <path d="M326.88,763.2L337.44,763.2" style="fill:none;fill-rule:nonzero;stroke:black;stroke-width:0.72px;"/>
    </g>
    <g transform="matrix(1.33333,0,0,1.33333,-63.7011,-975.457)">
        <path d="M347.28,763.2L357.84,763.2" style="fill:none;fill-rule:nonzero;stroke:black;stroke-width:0.72px;"/>
    </g>
    <g transform="matrix(1.33333,0,0,1.33333,-63.7011,-954.337)">
        <path d="M310.8,753.36L316.56,753.36L316.56,753.84L312.24,753.84L312.24,756.72L316.56,756.72L316.56,757.2L310.8,757.2L310.8,753.36Z" style="stroke:black;stroke-width:0.02px;"/>
    </g>
    <g transform="matrix(1.33333,0,0,1.33333,-63.7011,-954.337)">
        <path d="M318.72,753.36L312.96,753.36L312.96,753.84L317.28,753.84L317.28,756.72L312.96,756.72L312.96,757.2L318.72,757.2L318.72,753.36Z" style="stroke:black;stroke-width:0.02px;"/>
    </g>
    <g transform="matrix(1.33333,0,0,1.33333,-63.7011,-967.777)">
        <path d="M385.44,760.32L419.52,760.32" style="fill:none;fill-rule:nonzero;stroke:black;stroke-width:0.72px;"/>
    </g>
    <g transform="matrix(1.33333,0,0,1.33333,-63.7011,-975.457)">
        <path d="M385.44,763.2L419.52,763.2" style="fill:none;fill-rule:nonzero;stroke:black;stroke-width:0.72px;"/>
    </g>
    <g transform="matrix(1.33333,0,0,1.33333,-63.7011,-971.617)">
        <path d="M414.96,758.16L422.88,761.76L414.96,765.36" style="fill:none;fill-rule:nonzero;stroke:black;stroke-width:0.72px;"/>
    </g>
    <g transform="matrix(1.15452,-0.666974,-0.666974,-1.15452,527.571,1232.33)">
        <path d="M454.339,762.335L471.951,762.335" style="fill:none;fill-rule:nonzero;stroke:black;stroke-width:0.72px;"/>
    </g>
    <g transform="matrix(1.15471,0.666647,0.666647,-1.15471,-487.277,605.469)">
        <path d="M469.815,763.175L484.075,763.175" style="fill:none;fill-rule:nonzero;stroke:black;stroke-width:0.72px;"/>
    </g>
    <g transform="matrix(1.15487,-0.666381,-0.666381,-1.15487,532.709,1254.9)">
        <path d="M492.348,761.915L501.492,761.915" style="fill:none;fill-rule:nonzero;stroke:black;stroke-width:0.72px;"/>
    </g>
</svg>
