<?xml version="1.0" encoding="UTF-8" standalone="no"?>
<!DOCTYPE svg PUBLIC "-//W3C//DTD SVG 1.1//EN" "http://www.w3.org/Graphics/SVG/1.1/DTD/svg11.dtd">
<svg width="100%" height="100%" viewBox="0 0 330 50" version="1.1" xmlns="http://www.w3.org/2000/svg" xmlns:xlink="http://www.w3.org/1999/xlink" xml:space="preserve" xmlns:serif="http://www.serif.com/" style="fill-rule:evenodd;clip-rule:evenodd;stroke-linecap:round;stroke-linejoin:round;stroke-miterlimit:10;">
    <g transform="matrix(1.33333,0,0,1.33333,-81.7211,-71.4971)">
        <text x="64.56px" y="66.48px" style="font-family:'ArialMT', 'Arial', sans-serif;font-size:10px;">R</text>
    </g>
    <g transform="matrix(1.33333,0,0,1.33333,-81.7211,-71.4971)">
        <text x="124.32px" y="66.24px" style="font-family:'ArialMT', 'Arial', sans-serif;font-size:10px;">R</text>
        <text x="131.76px" y="59.28px" style="font-family:'ArialMT', 'Arial', sans-serif;font-size:8px;">1</text>
    </g>
    <g transform="matrix(1.33333,0,0,1.33333,-81.7211,-71.4971)">
        <text x="84.24px" y="86.4px" style="font-family:'ArialMT', 'Arial', sans-serif;font-size:10px;">H</text>
        <text x="104.4px" y="86.16px" style="font-family:'ArialMT', 'Arial', sans-serif;font-size:10px;">H</text>
    </g>
    <g transform="matrix(1.33333,0,0,1.33333,-81.7211,-71.4971)">
        <text x="152.64px" y="69.12px" style="font-family:'ArialMT', 'Arial', sans-serif;font-size:18px;">+</text>
        <text x="178.8px" y="66px" style="font-family:'ArialMT', 'Arial', sans-serif;font-size:10px;">N</text>
        <text x="186.013px" y="66px" style="font-family:'ArialMT', 'Arial', sans-serif;font-size:10px;">a</text>
        <text x="191.755px" y="59.04px" style="font-family:'ArialMT', 'Arial', sans-serif;font-size:8px;">+</text>
        <text x="196.572px" y="66px" style="font-family:'ArialMT', 'Arial', sans-serif;font-size:10px;">O</text>
        <text x="204.493px" y="66px" style="font-family:'ArialMT', 'Arial', sans-serif;font-size:10px;">C</text>
        <text x="211.695px" y="66px" style="font-family:'ArialMT', 'Arial', sans-serif;font-size:10px;">l</text>
        <text x="214.337px" y="59.04px" style="font-family:'ArialMT', 'Arial', sans-serif;font-size:8px;">-</text>
    </g>
    <g transform="matrix(1.33333,0,0,1.33333,-81.7211,-71.4971)">
        <text x="280.32px" y="65.52px" style="font-family:'ArialMT', 'Arial', sans-serif;font-size:10px;">T<tspan x="286.56px " y="65.52px ">M</tspan></text>
    </g>
    <g transform="matrix(1.33333,0,0,1.33333,-81.7211,-1027.66)">
        <path d="M72.72,779.52L88.08,779.52" style="fill:none;fill-rule:nonzero;stroke:black;stroke-width:0.72px;"/>
    </g>
    <g transform="matrix(1.33333,0,0,1.33333,-81.7211,-1023.18)">
        <path d="M88.08,777.84L108,777.84" style="fill:none;fill-rule:nonzero;stroke:black;stroke-width:0.72px;"/>
    </g>
    <g transform="matrix(1.33333,0,0,1.33333,-81.7211,-1032.14)">
        <path d="M88.08,781.2L108,781.2" style="fill:none;fill-rule:nonzero;stroke:black;stroke-width:0.72px;"/>
    </g>
    <g transform="matrix(1.33333,0,0,1.33333,-81.7211,-1027.66)">
        <path d="M108,779.52L123.36,779.52" style="fill:none;fill-rule:nonzero;stroke:black;stroke-width:0.72px;"/>
    </g>
    <g transform="matrix(0,1.33333,1.33333,0,-993.721,-95.8171)">
        <path d="M80.64,772.08L95.52,772.08" style="fill:none;fill-rule:nonzero;stroke:black;stroke-width:0.72px;"/>
    </g>
    <g transform="matrix(0,1.33333,1.33333,0,-967.321,-122.537)">
        <path d="M100.68,772.2L115.32,772.2" style="fill:none;fill-rule:nonzero;stroke:black;stroke-width:0.72px;"/>
    </g>
    <g transform="matrix(1.33333,0,0,1.33333,-81.7211,-1028.3)">
        <path d="M232.56,779.76L266.64,779.76" style="fill:none;fill-rule:nonzero;stroke:black;stroke-width:0.72px;"/>
    </g>
    <g transform="matrix(1.2958,0.314133,0.314133,-1.2958,-316.811,939.28)">
        <path d="M258.379,780.693L266.529,780.693L259.284,776.961L260.231,779.166L258.379,780.693Z" style="stroke:black;stroke-width:0.72px;"/>
    </g>
</svg>
