<?xml version="1.0" encoding="UTF-8" standalone="no"?>
<!DOCTYPE svg PUBLIC "-//W3C//DTD SVG 1.1//EN" "http://www.w3.org/Graphics/SVG/1.1/DTD/svg11.dtd">
<svg width="100%" height="100%" viewBox="0 0 650 250" version="1.1" xmlns="http://www.w3.org/2000/svg" xmlns:xlink="http://www.w3.org/1999/xlink" xml:space="preserve" xmlns:serif="http://www.serif.com/" style="fill-rule:evenodd;clip-rule:evenodd;stroke-linecap:round;stroke-linejoin:round;stroke-miterlimit:10;">
    <g transform="matrix(1.33333,0,0,1.33333,-52.7789,-60.2394)">
        <text x="72.96px" y="72px" style="font-family:'ArialMT', 'Arial', sans-serif;font-size:10px;">O</text>
    </g>
    <g transform="matrix(1.33333,0,0,1.33333,-52.7789,-60.2394)">
        <text x="45.84px" y="99.12px" style="font-family:'ArialMT', 'Arial', sans-serif;font-size:10px;">R</text>
    </g>
    <g transform="matrix(1.33333,0,0,1.33333,-52.7789,-60.2394)">
        <text x="176.16px" y="72.24px" style="font-family:'ArialMT', 'Arial', sans-serif;font-size:10px;">O</text>
        <text x="184.08px" y="65.28px" style="font-family:'ArialMT', 'Arial', sans-serif;font-size:8px;">–</text>
        <text x="186.24px" y="89.28px" style="font-family:'ArialMT', 'Arial', sans-serif;font-size:10px;">CH</text>
        <text x="200.64px" y="91.92px" style="font-family:'ArialMT', 'Arial', sans-serif;font-size:8px;">2</text>
    </g>
    <g transform="matrix(1.33333,0,0,1.33333,-52.7789,-60.2394)">
        <text x="200.64px" y="82.32px" style="font-family:'ArialMT', 'Arial', sans-serif;font-size:8px;">+</text>
    </g>
    <g transform="matrix(1.33333,0,0,1.33333,-52.7789,-60.2394)">
        <text x="149.04px" y="99.36px" style="font-family:'ArialMT', 'Arial', sans-serif;font-size:10px;">R</text>
    </g>
    <g transform="matrix(1.33333,0,0,1.33333,-52.7789,-60.2394)">
        <text x="173.04px" y="71.04px" style="font-family:'ArialMT', 'Arial', sans-serif;font-size:10px;">:</text>
        <text x="184.56px" y="71.52px" style="font-family:'ArialMT', 'Arial', sans-serif;font-size:10px;">:</text>
    </g>
    <g transform="matrix(-0.0209328,-1.33317,1.33317,-0.0209328,-52.7789,-60.2394)">
        <text x="-66.516px" y="179.458px" style="font-family:'ArialMT', 'Arial', sans-serif;font-size:10px;">:</text>
    </g>
    <g transform="matrix(1.33333,0,0,1.33333,-52.7789,-60.2394)">
        <text x="300.24px" y="72.72px" style="font-family:'ArialMT', 'Arial', sans-serif;font-size:10px;">O</text>
        <text x="308.16px" y="65.76px" style="font-family:'ArialMT', 'Arial', sans-serif;font-size:8px;">–</text>
    </g>
    <g transform="matrix(1.33333,0,0,1.33333,-52.7789,-60.2394)">
        <text x="273.12px" y="99.84px" style="font-family:'ArialMT', 'Arial', sans-serif;font-size:10px;">R</text>
    </g>
    <g transform="matrix(1.33333,0,0,1.33333,-52.7789,-60.2394)">
        <text x="328.08px" y="99.84px" style="font-family:'ArialMT', 'Arial', sans-serif;font-size:10px;">X</text>
    </g>
    <g transform="matrix(0.0162671,-1.33323,1.33323,0.0162671,-52.7789,-60.2394)">
        <text x="-60.474px" y="305.801px" style="font-family:'ArialMT', 'Arial', sans-serif;font-size:10px;">:</text>
    </g>
    <g transform="matrix(1.33333,0,0,1.33333,-52.7789,-60.2394)">
        <text x="296.4px" y="70.32px" style="font-family:'ArialMT', 'Arial', sans-serif;font-size:10px;">:</text>
        <text x="308.16px" y="72px" style="font-family:'ArialMT', 'Arial', sans-serif;font-size:10px;">:</text>
    </g>
    <g transform="matrix(1.33333,0,0,1.33333,-52.7789,-60.2394)">
        <text x="410.4px" y="93.84px" style="font-family:'ArialMT', 'Arial', sans-serif;font-size:10px;">R</text>
    </g>
    <g transform="matrix(1.33333,0,0,1.33333,-52.7789,-60.2394)">
        <text x="427.2px" y="64.08px" style="font-family:'ArialMT', 'Arial', sans-serif;font-size:10px;">O</text>
    </g>
    <g transform="matrix(1.33333,0,0,1.33333,-52.7789,-60.2394)">
        <text x="454.08px" y="86.88px" style="font-family:'ArialMT', 'Arial', sans-serif;font-size:18px;">+</text>
        <text x="481.2px" y="82.08px" style="font-family:'ArialMT', 'Arial', sans-serif;font-size:10px;">C</text>
        <text x="488.64px" y="75.12px" style="font-family:'ArialMT', 'Arial', sans-serif;font-size:8px;">-</text>
        <text x="491.52px" y="82.08px" style="font-family:'ArialMT', 'Arial', sans-serif;font-size:10px;">H</text>
        <text x="498.96px" y="84.72px" style="font-family:'ArialMT', 'Arial', sans-serif;font-size:8px;">2</text>
        <text x="503.52px" y="82.08px" style="font-family:'ArialMT', 'Arial', sans-serif;font-size:10px;">X</text>
    </g>
    <g transform="matrix(0.0721359,1.33138,-1.33138,0.0721359,-52.7789,-60.2394)">
        <text x="96.836px" y="-477.871px" style="font-family:'ArialMT', 'Arial', sans-serif;font-size:10px;">:</text>
    </g>
    <g transform="matrix(1.33333,0,0,1.33333,-52.7789,-60.2394)">
        <text x="61.92px" y="210.24px" style="font-family:'ArialMT', 'Arial', sans-serif;font-size:10px;">C</text>
        <text x="69.36px" y="203.28px" style="font-family:'ArialMT', 'Arial', sans-serif;font-size:8px;">-</text>
        <text x="72.24px" y="210.24px" style="font-family:'ArialMT', 'Arial', sans-serif;font-size:10px;">H</text>
        <text x="79.68px" y="212.88px" style="font-family:'ArialMT', 'Arial', sans-serif;font-size:8px;">2</text>
        <text x="84.24px" y="210.24px" style="font-family:'ArialMT', 'Arial', sans-serif;font-size:10px;">X<tspan x="90.72px 93.397px " y="210.24px 210.24px "> =</tspan></text>
    </g>
    <g transform="matrix(1.33333,0,0,1.33333,-52.7789,-60.2394)">
        <text x="138px" y="208.32px" style="font-family:'ArialMT', 'Arial', sans-serif;font-size:10px;">C</text>
    </g>
    <g transform="matrix(1.33333,0,0,1.33333,-52.7789,-60.2394)">
        <text x="126.48px" y="208.32px" style="font-family:'ArialMT', 'Arial', sans-serif;font-size:10px;">H</text>
        <text x="133.693px" y="210.96px" style="font-family:'ArialMT', 'Arial', sans-serif;font-size:8px;">2</text>
        <text x="145.2px" y="201.36px" style="font-family:'ArialMT', 'Arial', sans-serif;font-size:8px;">–</text>
        <text x="158.16px" y="208.32px" style="font-family:'ArialMT', 'Arial', sans-serif;font-size:10px;"><tspan x="158.16px " y="208.32px ">S</tspan></text>
        <text x="164.879px" y="201.36px" style="font-family:'ArialMT', 'Arial', sans-serif;font-size:8px;">+</text>
        <text x="167.76px" y="225.36px" style="font-family:'ArialMT', 'Arial', sans-serif;font-size:10px;">CH</text>
        <text x="182.16px" y="228px" style="font-family:'ArialMT', 'Arial', sans-serif;font-size:8px;">3</text>
    </g>
    <g transform="matrix(1.33333,0,0,1.33333,-52.7789,-60.2394)">
        <text x="165.12px" y="191.04px" style="font-family:'ArialMT', 'Arial', sans-serif;font-size:10px;">O</text>
        <text x="177.84px" y="208.08px" style="font-family:'ArialMT', 'Arial', sans-serif;font-size:10px;">CH</text>
        <text x="192.24px" y="210.72px" style="font-family:'ArialMT', 'Arial', sans-serif;font-size:8px;">3</text>
    </g>
    <g transform="matrix(-0.71836,-1.12327,1.12327,-0.71836,-52.7789,-60.2394)">
        <text x="-243.903px" y="11.446px" style="font-family:'ArialMT', 'Arial', sans-serif;font-size:10.001px;">:</text>
    </g>
    <g transform="matrix(1.33333,0,0,1.33333,-52.7789,-60.2394)">
        <text x="205.44px" y="208.32px" style="font-family:'ArialMT', 'Arial', sans-serif;font-size:10px;">;</text>
    </g>
    <g transform="matrix(1.33333,0,0,1.33333,-52.7789,-60.2394)">
        <text x="251.76px" y="207.84px" style="font-family:'ArialMT', 'Arial', sans-serif;font-size:10px;">C</text>
    </g>
    <g transform="matrix(1.33333,0,0,1.33333,-52.7789,-60.2394)">
        <text x="240.24px" y="207.84px" style="font-family:'ArialMT', 'Arial', sans-serif;font-size:10px;">H</text>
        <text x="247.453px" y="210.48px" style="font-family:'ArialMT', 'Arial', sans-serif;font-size:8px;">2</text>
        <text x="258.96px" y="200.88px" style="font-family:'ArialMT', 'Arial', sans-serif;font-size:8px;">–</text>
        <text x="271.92px" y="207.84px" style="font-family:'ArialMT', 'Arial', sans-serif;font-size:10px;"><tspan x="271.92px " y="207.84px ">S</tspan></text>
        <text x="278.639px" y="200.88px" style="font-family:'ArialMT', 'Arial', sans-serif;font-size:8px;">+</text>
        <text x="281.52px" y="224.88px" style="font-family:'ArialMT', 'Arial', sans-serif;font-size:10px;">CH</text>
        <text x="295.92px" y="227.52px" style="font-family:'ArialMT', 'Arial', sans-serif;font-size:8px;">3</text>
    </g>
    <g transform="matrix(1.33333,0,0,1.33333,-52.7789,-60.2394)">
        <text x="281.52px" y="190.56px" style="font-family:'ArialMT', 'Arial', sans-serif;font-size:10px;">CH</text>
        <text x="295.92px" y="193.2px" style="font-family:'ArialMT', 'Arial', sans-serif;font-size:8px;">3</text>
    </g>
    <g transform="matrix(0.61149,1.18485,-1.18485,0.61149,-52.7789,-60.2394)">
        <text x="289.909px" y="-131.925px" style="font-family:'ArialMT', 'Arial', sans-serif;font-size:10px;">:</text>
    </g>
    <g transform="matrix(1.33333,0,0,1.33333,-52.7789,-60.2394)">
        <text x="305.52px" y="208.56px" style="font-family:'ArialMT', 'Arial', sans-serif;font-size:10px;">;</text>
    </g>
    <g transform="matrix(1.33333,0,0,1.33333,-52.7789,-60.2394)">
        <text x="354.24px" y="216px" style="font-family:'ArialMT', 'Arial', sans-serif;font-size:10px;">C</text>
    </g>
    <g transform="matrix(1.33333,0,0,1.33333,-52.7789,-60.2394)">
        <text x="342.72px" y="216px" style="font-family:'ArialMT', 'Arial', sans-serif;font-size:10px;">H</text>
        <text x="349.93px" y="218.64px" style="font-family:'ArialMT', 'Arial', sans-serif;font-size:8px;">2</text>
        <text x="361.44px" y="209.04px" style="font-family:'ArialMT', 'Arial', sans-serif;font-size:8px;">–</text>
        <text x="374.4px" y="216px" style="font-family:'ArialMT', 'Arial', sans-serif;font-size:10px;"><tspan x="374.4px " y="216px ">S</tspan></text>
        <text x="394.08px" y="215.76px" style="font-family:'ArialMT', 'Arial', sans-serif;font-size:10px;">CH</text>
        <text x="408.499px" y="218.4px" style="font-family:'ArialMT', 'Arial', sans-serif;font-size:8px;">3</text>
    </g>
    <g transform="matrix(1.33333,0,0,1.33333,-52.7789,-60.2394)">
        <text x="373.92px" y="196.08px" style="font-family:'ArialMT', 'Arial', sans-serif;font-size:10px;">O</text>
    </g>
    <g transform="matrix(0.394259,1.27371,-1.27371,0.394259,-52.7789,-60.2394)">
        <text x="301.477px" y="-277.703px" style="font-family:'ArialMT', 'Arial', sans-serif;font-size:10px;">:</text>
    </g>
    <g transform="matrix(1.33333,0,0,1.33333,-52.7789,-60.2394)">
        <text x="422.16px" y="218.88px" style="font-family:'ArialMT', 'Arial', sans-serif;font-size:10px;">Na</text>
        <text x="434.88px" y="211.92px" style="font-family:'ArialMT', 'Arial', sans-serif;font-size:8px;">+</text>
    </g>
    <g transform="matrix(-0.666491,-1.1548,-1.1548,0.666491,994.603,-366.801)">
        <path d="M76.378,762.725L90.222,762.725" style="fill:none;fill-rule:nonzero;stroke:black;stroke-width:0.72px;"/>
    </g>
    <g transform="matrix(0.666491,-1.1548,-1.1548,-0.666491,874.896,634.886)">
        <path d="M63.378,762.725L77.222,762.725" style="fill:none;fill-rule:nonzero;stroke:black;stroke-width:0.72px;"/>
    </g>
    <g transform="matrix(1.33333,0,0,1.33333,-52.7789,-955.626)">
        <path d="M66.84,756.73L86.76,756.73" style="fill:none;fill-rule:nonzero;stroke:black;stroke-width:0.72px;"/>
    </g>
    <g transform="matrix(-1.15482,0.666452,0.666452,1.15482,-404.3,-851.591)">
        <path d="M53.008,753.025L67.832,753.025" style="fill:none;fill-rule:nonzero;stroke:black;stroke-width:0.72px;"/>
    </g>
    <g transform="matrix(1.33333,0,0,1.33333,-52.7789,-967.759)">
        <path d="M101.28,761.28L135.36,761.28" style="fill:none;fill-rule:nonzero;stroke:black;stroke-width:0.72px;"/>
    </g>
    <g transform="matrix(1.33333,0,0,1.33333,-52.7789,-975.439)">
        <path d="M101.28,764.16L135.36,764.16" style="fill:none;fill-rule:nonzero;stroke:black;stroke-width:0.72px;"/>
    </g>
    <g transform="matrix(1.33333,0,0,1.33333,-52.7789,-971.599)">
        <path d="M130.8,759.12L138.72,762.72L130.8,766.32" style="fill:none;fill-rule:nonzero;stroke:black;stroke-width:0.72px;"/>
    </g>
    <g transform="matrix(0.666491,-1.1548,-1.1548,-0.666491,943.437,754.222)">
        <path d="M166.578,762.485L180.422,762.485" style="fill:none;fill-rule:nonzero;stroke:black;stroke-width:0.72px;"/>
    </g>
    <g transform="matrix(1.33333,0,0,1.33333,-52.7789,-954.986)">
        <path d="M170.04,756.49L185.28,756.49" style="fill:none;fill-rule:nonzero;stroke:black;stroke-width:0.72px;"/>
    </g>
    <g transform="matrix(-1.15482,0.666452,0.666452,1.15482,-147.362,-919.772)">
        <path d="M156.208,752.785L171.032,752.785" style="fill:none;fill-rule:nonzero;stroke:black;stroke-width:0.72px;"/>
    </g>
    <g transform="matrix(1.33333,0,0,1.33333,-52.7789,-965.839)">
        <path d="M227.28,760.56L261.36,760.56" style="fill:none;fill-rule:nonzero;stroke:black;stroke-width:0.72px;"/>
    </g>
    <g transform="matrix(1.33333,0,0,1.33333,-52.7789,-973.519)">
        <path d="M227.28,763.44L261.36,763.44" style="fill:none;fill-rule:nonzero;stroke:black;stroke-width:0.72px;"/>
    </g>
    <g transform="matrix(1.33333,0,0,1.33333,-52.7789,-969.679)">
        <path d="M256.8,758.4L264.72,762L256.8,765.6" style="fill:none;fill-rule:nonzero;stroke:black;stroke-width:0.72px;"/>
    </g>
    <g transform="matrix(0.666491,-1.1548,-1.1548,-0.666491,1025.62,897.829)">
        <path d="M290.658,762.005L304.502,762.005" style="fill:none;fill-rule:nonzero;stroke:black;stroke-width:0.72px;"/>
    </g>
    <g transform="matrix(1.33333,0,0,1.33333,-52.7789,-953.706)">
        <path d="M294.12,756.01L314.04,756.01" style="fill:none;fill-rule:nonzero;stroke:black;stroke-width:0.72px;"/>
    </g>
    <g transform="matrix(-1.15482,0.666452,0.666452,1.15482,161.689,-1001.27)">
        <path d="M280.288,752.305L295.112,752.305" style="fill:none;fill-rule:nonzero;stroke:black;stroke-width:0.72px;"/>
    </g>
    <g transform="matrix(1.15477,0.666551,0.666551,-1.15477,-496.937,714.314)">
        <path d="M313.029,752.235L328.131,752.235" style="fill:none;fill-rule:nonzero;stroke:black;stroke-width:0.72px;"/>
    </g>
    <g transform="matrix(1.33333,0,0,1.33333,-52.7789,-989.839)">
        <path d="M292.56,779.52L291.12,778.8L289.68,777.84L288.48,776.88L287.28,775.44L286.56,774L285.6,770.64L285.6,768.72L285.84,767.52L286.08,766.56L286.56,765.36L287.04,764.4L287.76,763.44L289.2,762L290.16,761.28L293.04,759.84L294.24,759.6L295.92,759.6L299.28,760.08" style="fill:none;fill-rule:nonzero;stroke:black;stroke-width:0.48px;"/>
    </g>
    <g transform="matrix(1.26491,0.421637,0.421637,-1.26491,-354.573,888.457)">
        <path d="M284.957,761.006L293.305,761.006L286.171,764.953L287.234,762.524L284.957,761.006Z" style="stroke:black;stroke-width:0.48px;"/>
    </g>
    <g transform="matrix(1.33333,0,0,1.33333,-52.7789,-951.119)">
        <path d="M309.36,766.08L308.16,764.64L307.2,762.96L306.24,761.04L305.76,759.12L305.76,755.52L306,754.32L306.24,752.88L306.72,751.68L307.44,750.48L307.92,749.52L308.88,748.32L309.6,747.36L310.56,746.64L311.76,745.92L312.72,745.2L315.12,744.24L315.84,744" style="fill:none;fill-rule:nonzero;stroke:black;stroke-width:0.48px;"/>
    </g>
    <g transform="matrix(0.96185,0.923376,0.923376,-0.96185,-629.619,501.58)">
        <path d="M302.949,747.181L311.267,747.181L304.05,751.232L305.02,748.836L302.949,747.181Z" style="stroke:black;stroke-width:0.48px;"/>
    </g>
    <g transform="matrix(1.33333,0,0,1.33333,-52.7789,-967.759)">
        <path d="M351.84,761.28L385.92,761.28" style="fill:none;fill-rule:nonzero;stroke:black;stroke-width:0.72px;"/>
    </g>
    <g transform="matrix(1.33333,0,0,1.33333,-52.7789,-975.439)">
        <path d="M351.84,764.16L385.92,764.16" style="fill:none;fill-rule:nonzero;stroke:black;stroke-width:0.72px;"/>
    </g>
    <g transform="matrix(1.33333,0,0,1.33333,-52.7789,-971.599)">
        <path d="M381.36,759.12L389.28,762.72L381.36,766.32" style="fill:none;fill-rule:nonzero;stroke:black;stroke-width:0.72px;"/>
    </g>
    <g transform="matrix(-1.15457,0.6669,0.6669,1.15457,498.648,-1107.56)">
        <path d="M417.578,758.275L432.232,758.275" style="fill:none;fill-rule:nonzero;stroke:black;stroke-width:0.72px;"/>
    </g>
    <g transform="matrix(0,-1.33333,-1.33333,0,1547.94,611.601)">
        <path d="M423.9,769.29L438.6,769.29" style="fill:none;fill-rule:nonzero;stroke:black;stroke-width:0.72px;"/>
    </g>
    <g transform="matrix(0,-1.33333,-1.33333,0,1544.57,606.014)">
        <path d="M421.37,770.12L434.41,770.12" style="fill:none;fill-rule:nonzero;stroke:black;stroke-width:0.72px;"/>
    </g>
    <g transform="matrix(1.33333,0,0,1.33333,-52.7789,-638.159)">
        <path d="M146.16,637.68L157.2,637.68" style="fill:none;fill-rule:nonzero;stroke:black;stroke-width:0.72px;"/>
    </g>
    <g transform="matrix(0.666693,1.15469,1.15469,-0.666693,-668.12,450.711)">
        <path d="M162.63,629.04L170.39,629.04" style="fill:none;fill-rule:nonzero;stroke:black;stroke-width:0.72px;"/>
    </g>
    <g transform="matrix(0.534425,-1.22154,-1.22154,-0.534425,874.029,749.504)">
        <path d="M167.142,648.72L169.238,648.72" style="fill:none;fill-rule:nonzero;stroke:black;stroke-width:0.72px;"/>
    </g>
    <g transform="matrix(0.534425,-1.22154,-1.22154,-0.534425,871.097,745.021)">
        <path d="M163.472,648.72L165.568,648.72" style="fill:none;fill-rule:nonzero;stroke:black;stroke-width:0.72px;"/>
    </g>
    <g transform="matrix(1.33333,0,0,1.33333,-52.7789,-638.159)">
        <path d="M165.84,637.68L176.88,637.68" style="fill:none;fill-rule:nonzero;stroke:black;stroke-width:0.72px;"/>
    </g>
    <g transform="matrix(1.33333,0,0,1.33333,-52.7789,-639.439)">
        <path d="M259.92,638.16L270.96,638.16" style="fill:none;fill-rule:nonzero;stroke:black;stroke-width:0.72px;"/>
    </g>
    <g transform="matrix(0.666693,1.15469,1.15469,-0.666693,-592.837,319.034)">
        <path d="M276.39,629.52L284.15,629.52" style="fill:none;fill-rule:nonzero;stroke:black;stroke-width:0.72px;"/>
    </g>
    <g transform="matrix(0.667337,-1.15431,-1.15431,-0.667337,884.182,955.074)">
        <path d="M280.546,649.2L282.764,649.2" style="fill:none;fill-rule:nonzero;stroke:black;stroke-width:0.72px;"/>
    </g>
    <g transform="matrix(1.33333,0,0,1.33333,-52.7789,-640.719)">
        <path d="M335.52,618.96L342.72,618.96L342.72,619.44L336.96,619.44L336.96,657.84L342.72,657.84L342.72,658.32L335.52,658.32L335.52,618.96Z" style="stroke:black;stroke-width:0.02px;"/>
    </g>
    <g transform="matrix(1.33333,0,0,1.33333,-52.7789,-640.719)">
        <path d="M420,618.96L412.8,618.96L412.8,619.44L418.56,619.44L418.56,657.84L412.8,657.84L412.8,658.32L420,658.32L420,618.96Z" style="stroke:black;stroke-width:0.02px;"/>
    </g>
    <g transform="matrix(1.33333,0,0,1.33333,-52.7789,-617.679)">
        <path d="M362.4,630L373.44,630" style="fill:none;fill-rule:nonzero;stroke:black;stroke-width:0.72px;"/>
    </g>
    <g transform="matrix(1.33333,0,0,1.33333,-52.7789,-617.679)">
        <path d="M382.08,630L393.12,630" style="fill:none;fill-rule:nonzero;stroke:black;stroke-width:0.72px;"/>
    </g>
    <g transform="matrix(0,-1.33333,-1.33333,0,1306.26,715.121)">
        <path d="M374.64,639.84L384.24,639.84" style="fill:none;fill-rule:nonzero;stroke:black;stroke-width:0.72px;"/>
    </g>
    <g transform="matrix(0,-1.33333,-1.33333,0,1301.78,710.641)">
        <path d="M371.28,639.84L380.88,639.84" style="fill:none;fill-rule:nonzero;stroke:black;stroke-width:0.72px;"/>
    </g>
</svg>
