<?xml version="1.0" encoding="UTF-8" standalone="no"?>
<!DOCTYPE svg PUBLIC "-//W3C//DTD SVG 1.1//EN" "http://www.w3.org/Graphics/SVG/1.1/DTD/svg11.dtd">
<svg width="100%" height="100%" viewBox="0 0 730 410" version="1.1" xmlns="http://www.w3.org/2000/svg" xmlns:xlink="http://www.w3.org/1999/xlink" xml:space="preserve" xmlns:serif="http://www.serif.com/" style="fill-rule:evenodd;clip-rule:evenodd;stroke-linecap:round;stroke-linejoin:round;stroke-miterlimit:10;">
    <g transform="matrix(1.33333,0,0,1.33333,-51.6746,-67.1596)">
        <text x="68.16px" y="90.72px" style="font-family:'ArialMT', 'Arial', sans-serif;font-size:10px;">O</text>
    </g>
    <g transform="matrix(1.33333,0,0,1.33333,-51.6746,-67.1596)">
        <text x="41.04px" y="117.84px" style="font-family:'ArialMT', 'Arial', sans-serif;font-size:10px;">R</text>
    </g>
    <g transform="matrix(1.33333,0,0,1.33333,-51.6746,-67.1596)">
        <text x="111.36px" y="98.88px" style="font-family:'ArialMT', 'Arial', sans-serif;font-size:10px;">O</text>
    </g>
    <g transform="matrix(1.33333,0,0,1.33333,-51.6746,-67.1596)">
        <text x="86.88px" y="74.64px" style="font-family:'ArialMT', 'Arial', sans-serif;font-size:10px;">O</text>
    </g>
    <g transform="matrix(1.33333,0,0,1.33333,-51.6746,-67.1596)">
        <text x="144.96px" y="90px" style="font-family:'ArialMT', 'Arial', sans-serif;font-size:10px;">CH</text>
        <text x="159.36px" y="92.64px" style="font-family:'ArialMT', 'Arial', sans-serif;font-size:8px;">3</text>
    </g>
    <g transform="matrix(1.33333,0,0,1.33333,-51.6746,-67.1596)">
        <text x="270px" y="109.68px" style="font-family:'ArialMT', 'Arial', sans-serif;font-size:10px;">CH</text>
        <text x="284.4px" y="102.72px" style="font-family:'ArialMT', 'Arial', sans-serif;font-size:8px;">+</text>
    </g>
    <g transform="matrix(1.33333,0,0,1.33333,-51.6746,-67.1596)">
        <text x="310.08px" y="109.68px" style="font-family:'ArialMT', 'Arial', sans-serif;font-size:10px;">O</text>
    </g>
    <g transform="matrix(1.33333,0,0,1.33333,-51.6746,-67.1596)">
        <text x="252.48px" y="79.92px" style="font-family:'ArialMT', 'Arial', sans-serif;font-size:10px;">O</text>
        <text x="260.4px" y="72.96px" style="font-family:'ArialMT', 'Arial', sans-serif;font-size:8px;">–</text>
    </g>
    <g transform="matrix(1.33333,0,0,1.33333,-51.6746,-67.1596)">
        <text x="235.44px" y="109.68px" style="font-family:'ArialMT', 'Arial', sans-serif;font-size:10px;">R</text>
    </g>
    <g transform="matrix(1.33333,0,0,1.33333,-51.6746,-67.1596)">
        <text x="292.8px" y="79.92px" style="font-family:'ArialMT', 'Arial', sans-serif;font-size:10px;">O</text>
    </g>
    <g transform="matrix(1.33333,0,0,1.33333,-51.6746,-67.1596)">
        <text x="344.88px" y="109.68px" style="font-family:'ArialMT', 'Arial', sans-serif;font-size:10px;">CH</text>
        <text x="359.28px" y="112.32px" style="font-family:'ArialMT', 'Arial', sans-serif;font-size:8px;">3</text>
    </g>
    <g transform="matrix(0.0162671,-1.33323,1.33323,0.0162671,-51.6746,-67.1596)">
        <text x="-68.505px" y="257.415px" style="font-family:'ArialMT', 'Arial', sans-serif;font-size:10px;">:</text>
    </g>
    <g transform="matrix(1.33333,0,0,1.33333,-51.6746,-67.1596)">
        <text x="249.36px" y="78.96px" style="font-family:'ArialMT', 'Arial', sans-serif;font-size:10px;">:</text>
        <text x="260.4px" y="79.68px" style="font-family:'ArialMT', 'Arial', sans-serif;font-size:10px;">:</text>
    </g>
    <g transform="matrix(1.33333,0,0,1.33333,-51.6746,-67.1596)">
        <text x="496.8px" y="104.64px" style="font-family:'ArialMT', 'Arial', sans-serif;font-size:10px;">O</text>
    </g>
    <g transform="matrix(1.33333,0,0,1.33333,-51.6746,-67.1596)">
        <text x="445.2px" y="74.88px" style="font-family:'ArialMT', 'Arial', sans-serif;font-size:10px;">O</text>
        <text x="453.12px" y="67.92px" style="font-family:'ArialMT', 'Arial', sans-serif;font-size:8px;">–</text>
    </g>
    <g transform="matrix(1.33333,0,0,1.33333,-51.6746,-67.1596)">
        <text x="428.16px" y="104.64px" style="font-family:'ArialMT', 'Arial', sans-serif;font-size:10px;">R</text>
    </g>
    <g transform="matrix(1.33333,0,0,1.33333,-51.6746,-67.1596)">
        <text x="479.52px" y="74.88px" style="font-family:'ArialMT', 'Arial', sans-serif;font-size:10px;">O</text>
    </g>
    <g transform="matrix(1.33333,0,0,1.33333,-51.6746,-67.1596)">
        <text x="531.6px" y="104.64px" style="font-family:'ArialMT', 'Arial', sans-serif;font-size:10px;">CH</text>
        <text x="546px" y="107.28px" style="font-family:'ArialMT', 'Arial', sans-serif;font-size:8px;">3</text>
    </g>
    <g transform="matrix(1.33333,0,0,1.33333,-51.6746,-67.1596)">
        <text x="462.96px" y="124.56px" style="font-family:'ArialMT', 'Arial', sans-serif;font-size:10px;">Br</text>
    </g>
    <g transform="matrix(-0.0140006,-1.33326,1.33326,-0.0140006,-51.6746,-67.1596)">
        <text x="-71.336px" y="448.796px" style="font-family:'ArialMT', 'Arial', sans-serif;font-size:10px;">:</text>
    </g>
    <g transform="matrix(1.33333,0,0,1.33333,-51.6746,-67.1596)">
        <text x="453.12px" y="73.92px" style="font-family:'ArialMT', 'Arial', sans-serif;font-size:10px;">:</text>
        <text x="442.32px" y="74.16px" style="font-family:'ArialMT', 'Arial', sans-serif;font-size:10px;">:</text>
    </g>
    <g transform="matrix(1.33333,0,0,1.33333,-51.6746,-67.1596)">
        <text x="465.36px" y="223.44px" style="font-family:'ArialMT', 'Arial', sans-serif;font-size:18px;">+</text>
    </g>
    <g transform="matrix(1.33333,0,0,1.33333,-51.6746,-67.1596)">
        <text x="421.2px" y="234.48px" style="font-family:'ArialMT', 'Arial', sans-serif;font-size:10px;">R</text>
    </g>
    <g transform="matrix(1.33333,0,0,1.33333,-51.6746,-67.1596)">
        <text x="438px" y="204.72px" style="font-family:'ArialMT', 'Arial', sans-serif;font-size:10px;">O</text>
    </g>
    <g transform="matrix(1.33333,0,0,1.33333,-51.6746,-67.1596)">
        <text x="480.24px" y="236.88px" style="font-family:'ArialMT', 'Arial', sans-serif;font-size:10px;">Br</text>
    </g>
    <g transform="matrix(1.33333,0,0,1.33333,-51.6746,-67.1596)">
        <text x="524.64px" y="236.88px" style="font-family:'ArialMT', 'Arial', sans-serif;font-size:10px;">O</text>
    </g>
    <g transform="matrix(1.33333,0,0,1.33333,-51.6746,-67.1596)">
        <text x="524.64px" y="202.56px" style="font-family:'ArialMT', 'Arial', sans-serif;font-size:10px;">O</text>
    </g>
    <g transform="matrix(1.33333,0,0,1.33333,-51.6746,-67.1596)">
        <text x="554.64px" y="254.16px" style="font-family:'ArialMT', 'Arial', sans-serif;font-size:10px;">CH</text>
        <text x="569.04px" y="256.8px" style="font-family:'ArialMT', 'Arial', sans-serif;font-size:8px;">3</text>
    </g>
    <g transform="matrix(0.634168,1.17286,-1.17286,0.634168,-51.6746,-67.1596)">
        <text x="421.685px" y="-334.811px" style="font-family:'ArialMT', 'Arial', sans-serif;font-size:9.999px;">:</text>
    </g>
    <g transform="matrix(1.33333,0,0,1.33333,-51.6746,-67.1596)">
        <text x="427.68px" y="332.88px" style="font-family:'ArialMT', 'Arial', sans-serif;font-size:10px;">Br</text>
    </g>
    <g transform="matrix(1.33333,0,0,1.33333,-51.6746,-67.1596)">
        <text x="483.84px" y="323.04px" style="font-family:'ArialMT', 'Arial', sans-serif;font-size:10px;">O</text>
    </g>
    <g transform="matrix(1.33333,0,0,1.33333,-51.6746,-67.1596)">
        <text x="466.56px" y="352.8px" style="font-family:'ArialMT', 'Arial', sans-serif;font-size:10px;">O</text>
    </g>
    <g transform="matrix(1.33333,0,0,1.33333,-51.6746,-67.1596)">
        <text x="518.64px" y="323.04px" style="font-family:'ArialMT', 'Arial', sans-serif;font-size:10px;">CH</text>
        <text x="533.04px" y="325.68px" style="font-family:'ArialMT', 'Arial', sans-serif;font-size:8px;">3</text>
    </g>
    <g transform="matrix(-0.666491,-1.1548,-1.1548,0.666491,964.49,-341.827)">
        <path d="M71.578,744.005L85.422,744.005" style="fill:none;fill-rule:nonzero;stroke:black;stroke-width:0.72px;"/>
    </g>
    <g transform="matrix(0.666491,-1.1548,-1.1548,-0.666491,851.182,634.906)">
        <path d="M58.578,744.005L72.422,744.005" style="fill:none;fill-rule:nonzero;stroke:black;stroke-width:0.72px;"/>
    </g>
    <g transform="matrix(1.33333,0,0,1.33333,-51.6746,-912.626)">
        <path d="M62.04,738.01L81.96,738.01" style="fill:none;fill-rule:nonzero;stroke:black;stroke-width:0.72px;"/>
    </g>
    <g transform="matrix(-1.15482,0.666452,0.666452,1.15482,-402.663,-808.734)">
        <path d="M48.208,734.305L63.032,734.305" style="fill:none;fill-rule:nonzero;stroke:black;stroke-width:0.72px;"/>
    </g>
    <g transform="matrix(0.942809,-0.942809,-0.942809,-0.942809,685.529,848.353)">
        <path d="M79.042,745.055L98.968,745.055" style="fill:none;fill-rule:nonzero;stroke:black;stroke-width:0.72px;"/>
    </g>
    <g transform="matrix(1.28779,0.345505,0.345505,-1.28779,-306.162,985.571)">
        <path d="M95.796,750.175L110.654,750.175" style="fill:none;fill-rule:nonzero;stroke:black;stroke-width:0.72px;"/>
    </g>
    <g transform="matrix(-0.345029,-1.28792,-1.28792,0.345029,1087.13,-95.5351)">
        <path d="M88.841,759.305L102.869,759.305" style="fill:none;fill-rule:nonzero;stroke:black;stroke-width:0.72px;"/>
    </g>
    <g transform="matrix(-0.344996,-1.28793,-1.28793,0.344996,1080.93,-99.1217)">
        <path d="M85.031,758.875L99.949,758.875" style="fill:none;fill-rule:nonzero;stroke:black;stroke-width:0.72px;"/>
    </g>
    <g transform="matrix(0.942809,-0.942809,-0.942809,-0.942809,710.267,877.65)">
        <path d="M118.349,756.465L131.261,756.465" style="fill:none;fill-rule:nonzero;stroke:black;stroke-width:0.72px;"/>
    </g>
    <g transform="matrix(1.2879,0.345084,0.345084,-1.2879,-307.408,973.748)">
        <path d="M129.112,759.07L144.258,759.07" style="fill:none;fill-rule:nonzero;stroke:black;stroke-width:0.72px;"/>
    </g>
    <g transform="matrix(1.33333,0,0,1.33333,-51.6746,-942.68)">
        <path d="M175.44,749.28L209.52,749.28" style="fill:none;fill-rule:nonzero;stroke:black;stroke-width:0.72px;"/>
    </g>
    <g transform="matrix(1.33333,0,0,1.33333,-51.6746,-950.36)">
        <path d="M175.44,752.16L209.52,752.16" style="fill:none;fill-rule:nonzero;stroke:black;stroke-width:0.72px;"/>
    </g>
    <g transform="matrix(1.33333,0,0,1.33333,-51.6746,-946.52)">
        <path d="M204.96,747.12L212.88,750.72L204.96,754.32" style="fill:none;fill-rule:nonzero;stroke:black;stroke-width:0.72px;"/>
    </g>
    <g transform="matrix(-1.15467,-0.666718,-0.666718,1.15467,1096.95,-616.653)">
        <path d="M255.401,742.445L270.019,742.445" style="fill:none;fill-rule:nonzero;stroke:black;stroke-width:0.72px;"/>
    </g>
    <g transform="matrix(-1.22571,0.524801,0.524801,1.22571,308.377,-1004.06)">
        <path d="M289.614,744.61L297.186,744.61" style="fill:none;fill-rule:nonzero;stroke:black;stroke-width:0.72px;"/>
    </g>
    <g transform="matrix(-1.15457,-0.666895,-0.666895,1.15457,1197.37,-589.959)">
        <path d="M295.932,742.565L310.068,742.565" style="fill:none;fill-rule:nonzero;stroke:black;stroke-width:0.72px;"/>
    </g>
    <g transform="matrix(-1.15473,0.666619,0.666619,1.15473,262.394,-1008.79)">
        <path d="M317.999,742.515L332.341,742.515" style="fill:none;fill-rule:nonzero;stroke:black;stroke-width:0.72px;"/>
    </g>
    <g transform="matrix(0,-1.33333,-1.33333,0,1294.77,392.64)">
        <path d="M249.03,753.45L263.73,753.45" style="fill:none;fill-rule:nonzero;stroke:black;stroke-width:0.72px;"/>
    </g>
    <g transform="matrix(-1.15464,0.666766,0.666766,1.15464,75.2811,-958.383)">
        <path d="M242.611,742.41L257.369,742.41" style="fill:none;fill-rule:nonzero;stroke:black;stroke-width:0.72px;"/>
    </g>
    <g transform="matrix(0,-1.33333,-1.33333,0,1351.01,448.88)">
        <path d="M291.21,753.45L305.91,753.45" style="fill:none;fill-rule:nonzero;stroke:black;stroke-width:0.72px;"/>
    </g>
    <g transform="matrix(0,-1.33333,-1.33333,0,1346.53,444.4)">
        <path d="M287.85,753.45L302.55,753.45" style="fill:none;fill-rule:nonzero;stroke:black;stroke-width:0.72px;"/>
    </g>
    <g transform="matrix(1.1547,0.666669,0.666669,-1.1547,-486.347,697.668)">
        <path d="M330.41,742.48L344.89,742.48" style="fill:none;fill-rule:nonzero;stroke:black;stroke-width:0.72px;"/>
    </g>
    <g transform="matrix(1.33333,0,0,1.33333,-51.6746,-944.6)">
        <path d="M374.64,750L408.72,750" style="fill:none;fill-rule:nonzero;stroke:black;stroke-width:0.72px;"/>
    </g>
    <g transform="matrix(1.33333,0,0,1.33333,-51.6746,-952.28)">
        <path d="M374.64,752.88L408.72,752.88" style="fill:none;fill-rule:nonzero;stroke:black;stroke-width:0.72px;"/>
    </g>
    <g transform="matrix(1.33333,0,0,1.33333,-51.6746,-948.44)">
        <path d="M404.16,747.84L412.08,751.44L404.16,755.04" style="fill:none;fill-rule:nonzero;stroke:black;stroke-width:0.72px;"/>
    </g>
    <g transform="matrix(-1.15468,-0.666702,-0.666702,1.15468,1584.62,-495.889)">
        <path d="M447.766,746.16L467.684,746.16" style="fill:none;fill-rule:nonzero;stroke:black;stroke-width:0.72px;"/>
    </g>
    <g transform="matrix(-1.15468,0.666702,0.666702,1.15468,632.603,-1117.72)">
        <path d="M465.016,746.16L484.934,746.16" style="fill:none;fill-rule:nonzero;stroke:black;stroke-width:0.72px;"/>
    </g>
    <g transform="matrix(-1.15457,-0.666895,-0.666895,1.15457,1665.27,-477.975)">
        <path d="M482.652,747.605L496.788,747.605" style="fill:none;fill-rule:nonzero;stroke:black;stroke-width:0.72px;"/>
    </g>
    <g transform="matrix(-1.15473,0.666619,0.666619,1.15473,723.605,-1145.8)">
        <path d="M504.719,747.555L519.061,747.555" style="fill:none;fill-rule:nonzero;stroke:black;stroke-width:0.72px;"/>
    </g>
    <g transform="matrix(0,-1.33333,-1.33333,0,1558.45,642.88)">
        <path d="M441.75,758.49L456.45,758.49" style="fill:none;fill-rule:nonzero;stroke:black;stroke-width:0.72px;"/>
    </g>
    <g transform="matrix(-1.15464,0.666766,0.666766,1.15464,551.403,-1099.42)">
        <path d="M435.331,747.45L450.089,747.45" style="fill:none;fill-rule:nonzero;stroke:black;stroke-width:0.72px;"/>
    </g>
    <g transform="matrix(0,-1.33333,-1.33333,0,1606.69,691.12)">
        <path d="M477.93,758.49L492.63,758.49" style="fill:none;fill-rule:nonzero;stroke:black;stroke-width:0.72px;"/>
    </g>
    <g transform="matrix(0,-1.33333,-1.33333,0,1602.21,686.64)">
        <path d="M474.57,758.49L489.27,758.49" style="fill:none;fill-rule:nonzero;stroke:black;stroke-width:0.72px;"/>
    </g>
    <g transform="matrix(1.1547,0.666669,0.666669,-1.1547,-456.352,572.287)">
        <path d="M517.13,747.52L531.61,747.52" style="fill:none;fill-rule:nonzero;stroke:black;stroke-width:0.72px;"/>
    </g>
    <g transform="matrix(0,1.33333,1.33333,0,-408.315,-544.84)">
        <path d="M459,733.83L473.7,733.83" style="fill:none;fill-rule:nonzero;stroke:black;stroke-width:0.72px;"/>
    </g>
    <g transform="matrix(1.33333,0,0,1.33333,-51.6746,-975)">
        <path d="M447.36,769.92L445.44,770.16L444.24,770.16L443.04,769.92L442.08,769.44L440.88,768.96L440.16,768.48L439.2,767.76L438.48,767.04L437.76,766.08L436.8,764.16L436.56,762.96L436.56,759.84L436.8,758.64L437.28,757.44L438,756.24L438.72,755.28L439.68,754.32L440.88,753.6L442.08,753.12L442.56,752.88L443.28,752.64" style="fill:none;fill-rule:nonzero;stroke:black;stroke-width:0.48px;"/>
    </g>
    <g transform="matrix(1.2958,-0.314133,-0.314133,-1.2958,201.472,1166.43)">
        <path d="M439.099,751.947L447.249,751.947L440.004,755.679L440.951,753.474L439.099,751.947Z" style="stroke:black;stroke-width:0.48px;"/>
    </g>
    <g transform="matrix(1.33333,0,0,1.33333,-51.6746,-929.24)">
        <path d="M457.2,755.28L456,754.08L455.04,752.64L454.32,751.2L453.84,749.52L453.6,747.84L453.36,745.92L453.36,744.48L453.6,743.28L454.08,741.84L455.04,739.44L455.76,738.48L456.48,737.28L457.44,736.32L458.4,735.6L460.8,734.16L462,733.68L462.48,733.44L463.2,733.2" style="fill:none;fill-rule:nonzero;stroke:black;stroke-width:0.48px;"/>
    </g>
    <g transform="matrix(1.01785,0.861256,0.861256,-1.01785,-543.2,431.796)">
        <path d="M450.768,736.124L458.942,736.124L451.783,740.126L452.783,737.829L450.768,736.124Z" style="stroke:black;stroke-width:0.48px;"/>
    </g>
    <g transform="matrix(0,1.33333,1.33333,0,-336.155,-480.28)">
        <path d="M451.92,682.56L486.48,682.56" style="fill:none;fill-rule:nonzero;stroke:black;stroke-width:0.72px;"/>
    </g>
    <g transform="matrix(0,1.33333,1.33333,0,-332.315,-484.12)">
        <path d="M454.8,682.56L489.36,682.56" style="fill:none;fill-rule:nonzero;stroke:black;stroke-width:0.72px;"/>
    </g>
    <g transform="matrix(1.33333,0,0,1.33333,-51.6746,-720.28)">
        <path d="M474.24,661.92L470.64,669.84L467.04,661.92" style="fill:none;fill-rule:nonzero;stroke:black;stroke-width:0.72px;"/>
    </g>
    <g transform="matrix(-1.15457,0.6669,0.6669,1.15457,620.414,-771.785)">
        <path d="M428.378,617.635L443.032,617.635" style="fill:none;fill-rule:nonzero;stroke:black;stroke-width:0.72px;"/>
    </g>
    <g transform="matrix(0,-1.33333,-1.33333,0,1375.93,806.6)">
        <path d="M434.7,628.65L449.4,628.65" style="fill:none;fill-rule:nonzero;stroke:black;stroke-width:0.72px;"/>
    </g>
    <g transform="matrix(0,-1.33333,-1.33333,0,1372.55,801.014)">
        <path d="M432.17,629.48L445.21,629.48" style="fill:none;fill-rule:nonzero;stroke:black;stroke-width:0.72px;"/>
    </g>
    <g transform="matrix(1.33333,0,0,1.33333,-51.6746,-614.36)">
        <path d="M498.72,626.16L518.64,626.16" style="fill:none;fill-rule:nonzero;stroke:black;stroke-width:0.72px;"/>
    </g>
    <g transform="matrix(-0.666529,1.15478,1.15478,0.666529,222.623,-755.56)">
        <path d="M487.558,619.715L502.442,619.715" style="fill:none;fill-rule:nonzero;stroke:black;stroke-width:0.72px;"/>
    </g>
    <g transform="matrix(0.666796,1.15463,1.15463,-0.666796,-419.725,39.205)">
        <path d="M515.176,620.16L529.034,620.16" style="fill:none;fill-rule:nonzero;stroke:black;stroke-width:0.72px;"/>
    </g>
    <g transform="matrix(0.667127,-1.15443,-1.15443,-0.667127,1026.59,1239.22)">
        <path d="M516.385,631.74L531.215,631.74" style="fill:none;fill-rule:nonzero;stroke:black;stroke-width:0.72px;"/>
    </g>
    <g transform="matrix(0.666267,-1.15493,-1.15493,-0.666267,1026.13,1234.46)">
        <path d="M513.941,632.625L526.929,632.625" style="fill:none;fill-rule:nonzero;stroke:black;stroke-width:0.72px;"/>
    </g>
    <g transform="matrix(1.33333,0,0,1.33333,-51.6746,-568.36)">
        <path d="M533.52,608.91L548.52,608.91" style="fill:none;fill-rule:nonzero;stroke:black;stroke-width:0.72px;"/>
    </g>
    <g transform="matrix(0.666269,1.15493,1.15493,-0.666269,-379.763,15.7207)">
        <path d="M545.046,602.895L558.934,602.895" style="fill:none;fill-rule:nonzero;stroke:black;stroke-width:0.72px;"/>
    </g>
    <g transform="matrix(0,1.33333,1.33333,0,-177.755,-321.88)">
        <path d="M452.88,563.76L485.52,563.76" style="fill:none;fill-rule:nonzero;stroke:black;stroke-width:0.72px;"/>
    </g>
    <g transform="matrix(0,1.33333,1.33333,0,-173.915,-325.72)">
        <path d="M455.76,563.76L488.4,563.76" style="fill:none;fill-rule:nonzero;stroke:black;stroke-width:0.72px;"/>
    </g>
    <g transform="matrix(1.33333,0,0,1.33333,-51.6746,-406.04)">
        <path d="M474.24,544.08L470.64,552L467.04,544.08" style="fill:none;fill-rule:nonzero;stroke:black;stroke-width:0.72px;"/>
    </g>
    <g transform="matrix(-1.15478,0.666524,0.666524,1.15478,712.415,-532.42)">
        <path d="M437.588,518.675L454.492,518.675" style="fill:none;fill-rule:nonzero;stroke:black;stroke-width:0.72px;"/>
    </g>
    <g transform="matrix(-1.15468,-0.666702,-0.666702,1.15468,1443.05,74.8149)">
        <path d="M452.026,517.92L471.944,517.92" style="fill:none;fill-rule:nonzero;stroke:black;stroke-width:0.72px;"/>
    </g>
    <g transform="matrix(-1.15487,0.666378,0.666378,1.15487,790.392,-547.398)">
        <path d="M469.662,516.48L483.828,516.48" style="fill:none;fill-rule:nonzero;stroke:black;stroke-width:0.72px;"/>
    </g>
    <g transform="matrix(0,1.33333,1.33333,0,-100.555,-243.96)">
        <path d="M461.58,505.59L476.28,505.59" style="fill:none;fill-rule:nonzero;stroke:black;stroke-width:0.72px;"/>
    </g>
    <g transform="matrix(0,1.33333,1.33333,0,-96.0746,-248.44)">
        <path d="M464.94,505.59L479.64,505.59" style="fill:none;fill-rule:nonzero;stroke:black;stroke-width:0.72px;"/>
    </g>
    <g transform="matrix(1.15484,0.666431,0.666431,-1.15484,-306.841,630.712)">
        <path d="M491.762,516.515L506.068,516.515" style="fill:none;fill-rule:nonzero;stroke:black;stroke-width:0.72px;"/>
    </g>
    <g transform="matrix(1.15499,-0.666164,-0.666164,-1.15499,383.646,1303.95)">
        <path d="M504.14,516.565L518.65,516.565" style="fill:none;fill-rule:nonzero;stroke:black;stroke-width:0.72px;"/>
    </g>
</svg>
