<?xml version="1.0" encoding="UTF-8" standalone="no"?>
<!DOCTYPE svg PUBLIC "-//W3C//DTD SVG 1.1//EN" "http://www.w3.org/Graphics/SVG/1.1/DTD/svg11.dtd">
<svg width="100%" height="100%" viewBox="0 0 590 190" version="1.1" xmlns="http://www.w3.org/2000/svg" xmlns:xlink="http://www.w3.org/1999/xlink" xml:space="preserve" xmlns:serif="http://www.serif.com/" style="fill-rule:evenodd;clip-rule:evenodd;stroke-linecap:round;stroke-linejoin:round;stroke-miterlimit:10;">
    <g transform="matrix(1.33333,0,0,1.33333,-90.8934,-89.2861)">
        <text x="86.16px" y="133.44px" style="font-family:'ArialMT', 'Arial', sans-serif;font-size:10px;">O</text>
    </g>
    <g transform="matrix(1.33333,0,0,1.33333,-90.8934,-89.2861)">
        <text x="121.2px" y="127.68px" style="font-family:'ArialMT', 'Arial', sans-serif;font-size:10px;">O</text>
    </g>
    <g transform="matrix(1.33333,0,0,1.33333,-90.8934,-89.2861)">
        <text x="210.96px" y="151.44px" style="font-family:'ArialMT', 'Arial', sans-serif;font-size:10px;">O</text>
    </g>
    <g transform="matrix(1.33333,0,0,1.33333,-90.8934,-89.2861)">
        <text x="246px" y="145.68px" style="font-family:'ArialMT', 'Arial', sans-serif;font-size:10px;">O</text>
    </g>
    <g transform="matrix(1.33333,0,0,1.33333,-90.8934,-89.2861)">
        <text x="252px" y="104.4px" style="font-family:'ArialMT', 'Arial', sans-serif;font-size:10px;">O</text>
        <text x="156.72px" y="107.04px" style="font-family:'ArialMT', 'Arial', sans-serif;font-size:10px;">B</text>
    </g>
    <g transform="matrix(1.33333,0,0,1.33333,-90.8934,-89.2861)">
        <text x="291.84px" y="106.56px" style="font-family:'ArialMT', 'Arial', sans-serif;font-size:10px;">H</text>
        <text x="299.04px" y="106.56px" style="font-family:'ArialMT', 'Arial', sans-serif;font-size:10px;">Br</text>
    </g>
    <g transform="matrix(1.33333,0,0,1.33333,-90.8934,-89.2861)">
        <text x="341.28px" y="114.96px" style="font-family:'ArialMT', 'Arial', sans-serif;font-size:10px;">Br</text>
    </g>
    <g transform="matrix(1.33333,0,0,1.33333,-90.8934,-89.2861)">
        <text x="484.32px" y="114.96px" style="font-family:'ArialMT', 'Arial', sans-serif;font-size:10px;">Br</text>
    </g>
    <g transform="matrix(1.33333,0,0,1.33333,-90.8934,-89.2861)">
        <text x="414.72px" y="134.88px" style="font-family:'ArialMT', 'Arial', sans-serif;font-size:10px;">O</text>
    </g>
    <g transform="matrix(1.33333,0,0,1.33333,-90.8934,-89.2861)">
        <text x="413.52px" y="204.48px" style="font-family:'ArialMT', 'Arial', sans-serif;font-size:10px;">T<tspan x="419.76px " y="204.48px ">M</tspan></text>
    </g>
    <g transform="matrix(1.07047,-0.794904,-0.794904,-1.07047,507.955,923.951)">
        <path d="M93.676,720.095L107.514,720.095" style="fill:none;fill-rule:nonzero;stroke:black;stroke-width:0.72px;"/>
    </g>
    <g transform="matrix(0.424448,1.26397,1.26397,-0.424448,-924.621,236.297)">
        <path d="M93.022,733.66L112.938,733.66" style="fill:none;fill-rule:nonzero;stroke:black;stroke-width:0.72px;"/>
    </g>
    <g transform="matrix(1.08712,0.771973,0.771973,-1.08712,-627.037,794.612)">
        <path d="M72.643,719.885L86.477,719.885" style="fill:none;fill-rule:nonzero;stroke:black;stroke-width:0.72px;"/>
    </g>
    <g transform="matrix(1.33327,-0.0133862,-0.0133862,-1.33327,-80.9414,1034.43)">
        <path d="M79.889,743L99.811,743" style="fill:none;fill-rule:nonzero;stroke:black;stroke-width:0.72px;"/>
    </g>
    <g transform="matrix(-0.39949,1.27208,1.27208,0.39949,-890.567,-335.4)">
        <path d="M66.942,733.395L86.868,733.395" style="fill:none;fill-rule:nonzero;stroke:black;stroke-width:0.72px;"/>
    </g>
    <g transform="matrix(1.27213,0.399338,0.399338,-1.27213,-371.636,944.082)">
        <path d="M105.299,720.33L120.591,720.33" style="fill:none;fill-rule:nonzero;stroke:black;stroke-width:0.72px;"/>
    </g>
    <g transform="matrix(1.27221,0.399087,0.399087,-1.27221,-372.774,943.76)">
        <path d="M106.334,723.69L120.566,723.69" style="fill:none;fill-rule:nonzero;stroke:black;stroke-width:0.72px;"/>
    </g>
    <g transform="matrix(1.33333,0,0,1.33333,-90.8934,-915.526)">
        <path d="M142.08,730.8L181.68,730.8" style="fill:none;fill-rule:nonzero;stroke:black;stroke-width:0.72px;"/>
    </g>
    <g transform="matrix(1.2958,0.314133,0.314133,-1.2958,-313.792,950.017)">
        <path d="M173.419,731.733L181.569,731.733L174.324,728.001L175.271,730.206L173.419,731.733Z" style="stroke:black;stroke-width:0.72px;"/>
    </g>
    <g transform="matrix(1.07047,-0.794904,-0.794904,-1.07047,526.452,1027.89)">
        <path d="M218.476,702.095L232.314,702.095" style="fill:none;fill-rule:nonzero;stroke:black;stroke-width:0.72px;"/>
    </g>
    <g transform="matrix(0.424448,1.26397,1.26397,-0.424448,-788.441,94.9136)">
        <path d="M217.822,715.66L237.738,715.66" style="fill:none;fill-rule:nonzero;stroke:black;stroke-width:0.72px;"/>
    </g>
    <g transform="matrix(1.08712,0.771973,0.771973,-1.08712,-582.414,702.702)">
        <path d="M197.443,701.885L211.277,701.885" style="fill:none;fill-rule:nonzero;stroke:black;stroke-width:0.72px;"/>
    </g>
    <g transform="matrix(1.33327,-0.0133862,-0.0133862,-1.33327,-81.174,1036.1)">
        <path d="M204.689,725L224.611,725" style="fill:none;fill-rule:nonzero;stroke:black;stroke-width:0.72px;"/>
    </g>
    <g transform="matrix(-0.39949,1.27208,1.27208,0.39949,-651.413,-462.964)">
        <path d="M191.742,715.395L211.668,715.395" style="fill:none;fill-rule:nonzero;stroke:black;stroke-width:0.72px;"/>
    </g>
    <g transform="matrix(1.27213,0.399338,0.399338,-1.27213,-356.809,895.346)">
        <path d="M230.099,702.33L245.391,702.33" style="fill:none;fill-rule:nonzero;stroke:black;stroke-width:0.72px;"/>
    </g>
    <g transform="matrix(1.27221,0.399087,0.399087,-1.27221,-357.961,895.054)">
        <path d="M231.134,705.69L245.366,705.69" style="fill:none;fill-rule:nonzero;stroke:black;stroke-width:0.72px;"/>
    </g>
    <g transform="matrix(0.424448,1.26397,1.26397,-0.424448,-828.105,56.4209)">
        <path d="M223.022,750.78L242.938,750.78" style="fill:none;fill-rule:nonzero;stroke:black;stroke-width:0.72px;"/>
    </g>
    <g transform="matrix(-1.33327,0.0134312,0.0134312,1.33327,548.719,-947.054)">
        <path d="M236.15,741.415L251.04,741.415" style="fill:none;fill-rule:nonzero;stroke:black;stroke-width:0.72px;"/>
    </g>
    <g transform="matrix(-1.07059,0.794741,0.794741,1.07059,-128.123,-997.498)">
        <path d="M227.848,766.155L247.762,766.155" style="fill:none;fill-rule:nonzero;stroke:black;stroke-width:0.72px;"/>
    </g>
    <g transform="matrix(-0.399626,1.27204,1.27204,0.399626,-599.176,-603.221)">
        <path d="M252.565,753.595L267.145,753.595" style="fill:none;fill-rule:nonzero;stroke:black;stroke-width:0.72px;"/>
    </g>
    <g transform="matrix(-1.08687,-0.772323,-0.772323,1.08687,1115.49,-625.271)">
        <path d="M243.959,766.32L263.881,766.32" style="fill:none;fill-rule:nonzero;stroke:black;stroke-width:0.72px;"/>
    </g>
    <g transform="matrix(0.772639,-1.08665,-1.08665,-0.772639,834.741,874.539)">
        <path d="M221.793,732.245L241.707,732.245" style="fill:none;fill-rule:nonzero;stroke:black;stroke-width:0.72px;"/>
    </g>
    <g transform="matrix(0.772639,-1.08665,-1.08665,-0.772639,835.324,870.469)">
        <path d="M219.053,734.195L238.967,734.195" style="fill:none;fill-rule:nonzero;stroke:black;stroke-width:0.72px;"/>
    </g>
    <g transform="matrix(1.33333,0,0,1.33333,-90.8934,-916.806)">
        <path d="M277.2,731.28L325.44,731.28" style="fill:none;fill-rule:nonzero;stroke:black;stroke-width:0.72px;"/>
    </g>
    <g transform="matrix(1.2958,0.314133,0.314133,-1.2958,-308.547,904.839)">
        <path d="M317.179,732.213L325.329,732.213L318.084,728.481L319.031,730.686L317.179,732.213Z" style="stroke:black;stroke-width:0.72px;"/>
    </g>
    <g transform="matrix(-1.15468,-0.666702,-0.666702,1.15468,1334.3,-547.062)">
        <path d="M365.686,735.84L385.604,735.84" style="fill:none;fill-rule:nonzero;stroke:black;stroke-width:0.72px;"/>
    </g>
    <g transform="matrix(-1.15468,0.666702,0.666702,1.15468,396.048,-1059.45)">
        <path d="M382.936,735.84L402.854,735.84" style="fill:none;fill-rule:nonzero;stroke:black;stroke-width:0.72px;"/>
    </g>
    <g transform="matrix(-1.15468,-0.666702,-0.666702,1.15468,1420.14,-524.061)">
        <path d="M400.186,735.84L420.104,735.84" style="fill:none;fill-rule:nonzero;stroke:black;stroke-width:0.72px;"/>
    </g>
    <g transform="matrix(-1.15468,0.666702,0.666702,1.15468,481.885,-1082.45)">
        <path d="M417.436,735.84L437.354,735.84" style="fill:none;fill-rule:nonzero;stroke:black;stroke-width:0.72px;"/>
    </g>
    <g transform="matrix(-1.1546,0.66684,0.66684,1.1546,312.764,-1039.12)">
        <path d="M351.182,736.575L368.158,736.575" style="fill:none;fill-rule:nonzero;stroke:black;stroke-width:0.72px;"/>
    </g>
    <g transform="matrix(1.15468,0.666702,0.666702,-1.15468,-502.042,605.368)">
        <path d="M434.686,735.84L454.604,735.84" style="fill:none;fill-rule:nonzero;stroke:black;stroke-width:0.72px;"/>
    </g>
    <g transform="matrix(1.15468,-0.666702,-0.666702,-1.15468,482.212,1209.76)">
        <path d="M451.936,735.84L471.854,735.84" style="fill:none;fill-rule:nonzero;stroke:black;stroke-width:0.72px;"/>
    </g>
    <g transform="matrix(1.15482,0.666452,0.666452,-1.15482,-497.007,583.834)">
        <path d="M469.528,737.115L484.352,737.115" style="fill:none;fill-rule:nonzero;stroke:black;stroke-width:0.72px;"/>
    </g>
    <g transform="matrix(0,1.33333,1.33333,0,-499.453,-487.526)">
        <path d="M409.74,723.51L424.44,723.51" style="fill:none;fill-rule:nonzero;stroke:black;stroke-width:0.72px;"/>
    </g>
    <g transform="matrix(0,1.33333,1.33333,0,-494.973,-492.006)">
        <path d="M413.1,723.51L427.8,723.51" style="fill:none;fill-rule:nonzero;stroke:black;stroke-width:0.72px;"/>
    </g>
    <g transform="matrix(0,1.33333,1.33333,0,-431.853,-425.766)">
        <path d="M401.64,675L436.92,675" style="fill:none;fill-rule:nonzero;stroke:black;stroke-width:0.72px;"/>
    </g>
    <g transform="matrix(-0.314133,1.2958,1.2958,0.314133,-257.082,-599.532)">
        <path d="M414.979,662.253L423.129,662.253L415.884,658.521L416.831,660.726L414.979,662.253Z" style="stroke:black;stroke-width:0.72px;"/>
    </g>
</svg>
