<?xml version="1.0" encoding="UTF-8" standalone="no"?>
<!DOCTYPE svg PUBLIC "-//W3C//DTD SVG 1.1//EN" "http://www.w3.org/Graphics/SVG/1.1/DTD/svg11.dtd">
<svg width="100%" height="100%" viewBox="0 0 270 60" version="1.1" xmlns="http://www.w3.org/2000/svg" xmlns:xlink="http://www.w3.org/1999/xlink" xml:space="preserve" xmlns:serif="http://www.serif.com/" style="fill-rule:evenodd;clip-rule:evenodd;stroke-linecap:round;stroke-linejoin:round;stroke-miterlimit:10;">
    <g transform="matrix(1.33333,0,0,1.33333,-111.081,-71.2774)">
        <text x="86.16px" y="93.36px" style="font-family:'ArialMT', 'Arial', sans-serif;font-size:10px;">R</text>
    </g>
    <g transform="matrix(1.33333,0,0,1.33333,-111.081,-71.2774)">
        <text x="103.44px" y="63.6px" style="font-family:'ArialMT', 'Arial', sans-serif;font-size:10px;">Br</text>
    </g>
    <g transform="matrix(1.33333,0,0,1.33333,-111.081,-71.2774)">
        <text x="155.28px" y="93.36px" style="font-family:'ArialMT', 'Arial', sans-serif;font-size:10px;">Br</text>
    </g>
    <g transform="matrix(1.33333,0,0,1.33333,-111.081,-71.2774)">
        <text x="205.68px" y="76.32px" style="font-family:'ArialMT', 'Arial', sans-serif;font-size:10px;">Z<tspan x="211.92px " y="76.32px ">n</tspan></text>
    </g>
    <g transform="matrix(1.33333,0,0,1.33333,-111.081,-71.2774)">
        <text x="257.76px" y="83.28px" style="font-family:'ArialMT', 'Arial', sans-serif;font-size:10px;">T<tspan x="264px " y="83.28px ">M</tspan></text>
    </g>
    <g transform="matrix(-1.15485,0.666401,0.666401,1.15485,-366.203,-903.723)">
        <path d="M93.337,758.75L108.023,758.75" style="fill:none;fill-rule:nonzero;stroke:black;stroke-width:0.72px;"/>
    </g>
    <g transform="matrix(-1.15468,-0.666702,-0.666702,1.15468,681.682,-756.124)">
        <path d="M105.706,757.44L125.624,757.44" style="fill:none;fill-rule:nonzero;stroke:black;stroke-width:0.72px;"/>
    </g>
    <g transform="matrix(-1.15468,0.666702,0.666702,1.15468,-285.374,-921.853)">
        <path d="M122.956,757.44L142.874,757.44" style="fill:none;fill-rule:nonzero;stroke:black;stroke-width:0.72px;"/>
    </g>
    <g transform="matrix(0,-1.33333,-1.33333,0,1058,167.643)">
        <path d="M99.69,769.77L114.39,769.77" style="fill:none;fill-rule:nonzero;stroke:black;stroke-width:0.72px;"/>
    </g>
    <g transform="matrix(1.15464,0.666766,0.666766,-1.15464,-590.543,817.07)">
        <path d="M140.551,758.73L155.309,758.73" style="fill:none;fill-rule:nonzero;stroke:black;stroke-width:0.72px;"/>
    </g>
    <g transform="matrix(1.33333,0,0,1.33333,-111.081,-981.997)">
        <path d="M181.44,762.48L242.4,762.48" style="fill:none;fill-rule:nonzero;stroke:black;stroke-width:0.72px;"/>
    </g>
    <g transform="matrix(1.2958,0.314133,0.314133,-1.2958,-341.652,947.762)">
        <path d="M234.139,763.413L242.289,763.413L235.044,759.681L235.991,761.886L234.139,763.413Z" style="stroke:black;stroke-width:0.72px;"/>
    </g>
</svg>
