<?xml version="1.0" encoding="UTF-8" standalone="no"?>
<!DOCTYPE svg PUBLIC "-//W3C//DTD SVG 1.1//EN" "http://www.w3.org/Graphics/SVG/1.1/DTD/svg11.dtd">
<svg width="100%" height="100%" viewBox="0 0 730 450" version="1.1" xmlns="http://www.w3.org/2000/svg" xmlns:xlink="http://www.w3.org/1999/xlink" xml:space="preserve" xmlns:serif="http://www.serif.com/" style="fill-rule:evenodd;clip-rule:evenodd;stroke-linecap:round;stroke-linejoin:round;stroke-miterlimit:10;">
    <g transform="matrix(1.33333,0,0,1.33333,-53.7655,-61.0394)">
        <text x="86.4px" y="71.28px" style="font-family:'ArialMT', 'Arial', sans-serif;font-size:10px;">O</text>
    </g>
    <g transform="matrix(1.33333,0,0,1.33333,-53.7655,-61.0394)">
        <text x="113.52px" y="118.32px" style="font-family:'ArialMT', 'Arial', sans-serif;font-size:10px;">O</text>
    </g>
    <g transform="matrix(1.33333,0,0,1.33333,-53.7655,-61.0394)">
        <text x="130.8px" y="88.56px" style="font-family:'ArialMT', 'Arial', sans-serif;font-size:10px;">O</text>
    </g>
    <g transform="matrix(1.33333,0,0,1.33333,-53.7655,-61.0394)">
        <text x="165.6px" y="88.56px" style="font-family:'ArialMT', 'Arial', sans-serif;font-size:10px;">CH</text>
        <text x="180px" y="91.2px" style="font-family:'ArialMT', 'Arial', sans-serif;font-size:8px;">3</text>
    </g>
    <g transform="matrix(1.33333,0,0,1.33333,-53.7655,-61.0394)">
        <text x="284.4px" y="72px" style="font-family:'ArialMT', 'Arial', sans-serif;font-size:10px;">O</text>
        <text x="292.32px" y="65.04px" style="font-family:'ArialMT', 'Arial', sans-serif;font-size:8px;">–</text>
        <text x="294.48px" y="89.28px" style="font-family:'ArialMT', 'Arial', sans-serif;font-size:10px;">CH</text>
        <text x="308.88px" y="82.32px" style="font-family:'ArialMT', 'Arial', sans-serif;font-size:8px;">+</text>
        <text x="294.24px" y="123.84px" style="font-family:'ArialMT', 'Arial', sans-serif;font-size:10px;">O</text>
    </g>
    <g transform="matrix(1.33333,0,0,1.33333,-53.7655,-61.0394)">
        <text x="324.24px" y="106.56px" style="font-family:'ArialMT', 'Arial', sans-serif;font-size:10px;">O</text>
    </g>
    <g transform="matrix(1.33333,0,0,1.33333,-53.7655,-61.0394)">
        <text x="354.24px" y="123.84px" style="font-family:'ArialMT', 'Arial', sans-serif;font-size:10px;">CH</text>
        <text x="368.64px" y="126.48px" style="font-family:'ArialMT', 'Arial', sans-serif;font-size:8px;">3</text>
    </g>
    <g transform="matrix(-0.0209328,-1.33317,1.33317,-0.0209328,-53.7655,-61.0394)">
        <text x="-67.979px" y="287.928px" style="font-family:'ArialMT', 'Arial', sans-serif;font-size:10px;">:</text>
    </g>
    <g transform="matrix(1.33333,0,0,1.33333,-53.7655,-61.0394)">
        <text x="292.56px" y="70.32px" style="font-family:'ArialMT', 'Arial', sans-serif;font-size:10px;">:</text>
    </g>
    <g transform="matrix(1.33333,0,0,1.33333,-53.7655,-61.0394)">
        <text x="280.8px" y="69.84px" style="font-family:'ArialMT', 'Arial', sans-serif;font-size:10px;">:</text>
    </g>
    <g transform="matrix(1.33333,0,0,1.33333,-53.7655,-61.0394)">
        <text x="463.92px" y="77.04px" style="font-family:'ArialMT', 'Arial', sans-serif;font-size:10px;">O</text>
        <text x="471.84px" y="70.08px" style="font-family:'ArialMT', 'Arial', sans-serif;font-size:8px;">–</text>
    </g>
    <g transform="matrix(1.33333,0,0,1.33333,-53.7655,-61.0394)">
        <text x="493.92px" y="111.6px" style="font-family:'ArialMT', 'Arial', sans-serif;font-size:10px;">Br</text>
    </g>
    <g transform="matrix(1.33333,0,0,1.33333,-53.7655,-61.0394)">
        <text x="513.36px" y="77.04px" style="font-family:'ArialMT', 'Arial', sans-serif;font-size:10px;">O</text>
    </g>
    <g transform="matrix(1.33333,0,0,1.33333,-53.7655,-61.0394)">
        <text x="483.36px" y="59.76px" style="font-family:'ArialMT', 'Arial', sans-serif;font-size:10px;">O</text>
    </g>
    <g transform="matrix(1.33333,0,0,1.33333,-53.7655,-61.0394)">
        <text x="543.36px" y="94.32px" style="font-family:'ArialMT', 'Arial', sans-serif;font-size:10px;">CH</text>
        <text x="557.76px" y="96.96px" style="font-family:'ArialMT', 'Arial', sans-serif;font-size:8px;">3</text>
    </g>
    <g transform="matrix(1.33333,0,0,1.33333,-53.7655,-61.0394)">
        <text x="564px" y="207.6px" style="font-family:'ArialMT', 'Arial', sans-serif;font-size:10px;">O</text>
    </g>
    <g transform="matrix(1.33333,0,0,1.33333,-53.7655,-61.0394)">
        <text x="481.44px" y="231.36px" style="font-family:'ArialMT', 'Arial', sans-serif;font-size:18px;">+</text>
    </g>
    <g transform="matrix(1.33333,0,0,1.33333,-53.7655,-61.0394)">
        <text x="424.08px" y="219.12px" style="font-family:'ArialMT', 'Arial', sans-serif;font-size:10px;">CH</text>
        <text x="438.48px" y="212.16px" style="font-family:'ArialMT', 'Arial', sans-serif;font-size:8px;">–</text>
        <text x="409.2px" y="236.16px" style="font-family:'ArialMT', 'Arial', sans-serif;font-size:10px;">Br</text>
    </g>
    <g transform="matrix(1.33333,0,0,1.33333,-53.7655,-61.0394)">
        <text x="453.6px" y="236.16px" style="font-family:'ArialMT', 'Arial', sans-serif;font-size:10px;">O</text>
    </g>
    <g transform="matrix(1.33333,0,0,1.33333,-53.7655,-61.0394)">
        <text x="453.6px" y="201.84px" style="font-family:'ArialMT', 'Arial', sans-serif;font-size:10px;">O</text>
    </g>
    <g transform="matrix(1.33333,0,0,1.33333,-53.7655,-61.0394)">
        <text x="453.84px" y="270.72px" style="font-family:'ArialMT', 'Arial', sans-serif;font-size:10px;">CH</text>
        <text x="468.24px" y="273.36px" style="font-family:'ArialMT', 'Arial', sans-serif;font-size:8px;">3</text>
    </g>
    <g transform="matrix(-0.0233344,1.33313,-1.33313,-0.0233344,-53.7655,-61.0394)">
        <text x="200.41px" y="-430.293px" style="font-family:'ArialMT', 'Arial', sans-serif;font-size:10px;">:</text>
    </g>
    <g transform="matrix(1.33333,0,0,1.33333,-53.7655,-61.0394)">
        <text x="374.88px" y="366.96px" style="font-family:'ArialMT', 'Arial', sans-serif;font-size:10px;">Br</text>
    </g>
    <g transform="matrix(1.33333,0,0,1.33333,-53.7655,-61.0394)">
        <text x="431.04px" y="376.8px" style="font-family:'ArialMT', 'Arial', sans-serif;font-size:10px;">O</text>
    </g>
    <g transform="matrix(1.33333,0,0,1.33333,-53.7655,-61.0394)">
        <text x="413.76px" y="347.04px" style="font-family:'ArialMT', 'Arial', sans-serif;font-size:10px;">O</text>
    </g>
    <g transform="matrix(1.33333,0,0,1.33333,-53.7655,-61.0394)">
        <text x="465.84px" y="376.8px" style="font-family:'ArialMT', 'Arial', sans-serif;font-size:10px;">CH</text>
        <text x="480.24px" y="379.44px" style="font-family:'ArialMT', 'Arial', sans-serif;font-size:8px;">3</text>
    </g>
    <g transform="matrix(1.33333,0,0,1.33333,-53.7655,-61.0394)">
        <text x="460.32px" y="75.6px" style="font-family:'ArialMT', 'Arial', sans-serif;font-size:10px;">:</text>
        <text x="472.8px" y="76.08px" style="font-family:'ArialMT', 'Arial', sans-serif;font-size:10px;">:</text>
    </g>
    <g transform="matrix(0.0278662,1.33304,-1.33304,0.0278662,-53.7655,-61.0394)">
        <text x="75.442px" y="-464.365px" style="font-family:'ArialMT', 'Arial', sans-serif;font-size:10px;">:</text>
    </g>
    <g transform="matrix(0,-1.33333,-1.33333,0,1049.87,172.201)">
        <path d="M70.41,747.36L90.33,747.36" style="fill:none;fill-rule:nonzero;stroke:black;stroke-width:0.72px;"/>
    </g>
    <g transform="matrix(1.15468,0.666702,0.666702,-1.15468,-549.175,877.501)">
        <path d="M61.786,762.3L81.704,762.3" style="fill:none;fill-rule:nonzero;stroke:black;stroke-width:0.72px;"/>
    </g>
    <g transform="matrix(1.15468,-0.666702,-0.666702,-1.15468,447.358,978.504)">
        <path d="M61.786,732.42L81.704,732.42" style="fill:none;fill-rule:nonzero;stroke:black;stroke-width:0.72px;"/>
    </g>
    <g transform="matrix(1.15468,-0.666702,-0.666702,-1.15468,464.197,961.665)">
        <path d="M44.536,762.3L64.454,762.3" style="fill:none;fill-rule:nonzero;stroke:black;stroke-width:0.72px;"/>
    </g>
    <g transform="matrix(1.15468,0.666702,0.666702,-1.15468,-532.336,894.339)">
        <path d="M44.536,732.42L64.454,732.42" style="fill:none;fill-rule:nonzero;stroke:black;stroke-width:0.72px;"/>
    </g>
    <g transform="matrix(0,-1.33333,-1.33333,0,1003.87,126.201)">
        <path d="M35.91,747.36L55.83,747.36" style="fill:none;fill-rule:nonzero;stroke:black;stroke-width:0.72px;"/>
    </g>
    <g transform="matrix(-0.666846,-1.1546,-1.1546,0.666846,1021.23,-353.623)">
        <path d="M89.792,763.38L103.788,763.38" style="fill:none;fill-rule:nonzero;stroke:black;stroke-width:0.72px;"/>
    </g>
    <g transform="matrix(0.666846,-1.1546,-1.1546,-0.666846,883.529,649.574)">
        <path d="M76.872,763.38L90.868,763.38" style="fill:none;fill-rule:nonzero;stroke:black;stroke-width:0.72px;"/>
    </g>
    <g transform="matrix(1.33333,0,0,1.33333,-53.7655,-957.999)">
        <path d="M80.37,757.32L100.29,757.32" style="fill:none;fill-rule:nonzero;stroke:black;stroke-width:0.72px;"/>
    </g>
    <g transform="matrix(1.15468,0.666702,0.666702,-1.15468,-535.894,854.499)">
        <path d="M98.956,752.34L118.874,752.34" style="fill:none;fill-rule:nonzero;stroke:black;stroke-width:0.72px;"/>
    </g>
    <g transform="matrix(0,1.33333,1.33333,0,-886.006,-79.6794)">
        <path d="M108.54,740.04L123.18,740.04" style="fill:none;fill-rule:nonzero;stroke:black;stroke-width:0.72px;"/>
    </g>
    <g transform="matrix(0,1.33333,1.33333,0,-881.526,-84.1594)">
        <path d="M111.9,740.04L126.54,740.04" style="fill:none;fill-rule:nonzero;stroke:black;stroke-width:0.72px;"/>
    </g>
    <g transform="matrix(1.15476,-0.666568,-0.666568,-1.15476,468.855,1009.87)">
        <path d="M116.589,750.91L130.791,750.91" style="fill:none;fill-rule:nonzero;stroke:black;stroke-width:0.72px;"/>
    </g>
    <g transform="matrix(1.15477,0.666539,0.666539,-1.15477,-528.244,830.21)">
        <path d="M138.724,750.93L153.006,750.93" style="fill:none;fill-rule:nonzero;stroke:black;stroke-width:0.72px;"/>
    </g>
    <g transform="matrix(1.15465,-0.666746,-0.666746,-1.15465,475.251,1032.91)">
        <path d="M151.076,750.995L165.614,750.995" style="fill:none;fill-rule:nonzero;stroke:black;stroke-width:0.72px;"/>
    </g>
    <g transform="matrix(1.33333,0,0,1.33333,-53.7655,-922.479)">
        <path d="M193.68,744L227.76,744" style="fill:none;fill-rule:nonzero;stroke:black;stroke-width:0.72px;"/>
    </g>
    <g transform="matrix(1.33333,0,0,1.33333,-53.7655,-930.159)">
        <path d="M193.68,746.88L227.76,746.88" style="fill:none;fill-rule:nonzero;stroke:black;stroke-width:0.72px;"/>
    </g>
    <g transform="matrix(1.33333,0,0,1.33333,-53.7655,-926.319)">
        <path d="M223.2,741.84L231.12,745.44L223.2,749.04" style="fill:none;fill-rule:nonzero;stroke:black;stroke-width:0.72px;"/>
    </g>
    <g transform="matrix(0,-1.33333,-1.33333,0,1312.91,437.161)">
        <path d="M268.41,746.64L288.33,746.64" style="fill:none;fill-rule:nonzero;stroke:black;stroke-width:0.72px;"/>
    </g>
    <g transform="matrix(1.15468,0.666702,0.666702,-1.15468,-513.322,745.622)">
        <path d="M259.786,761.58L279.704,761.58" style="fill:none;fill-rule:nonzero;stroke:black;stroke-width:0.72px;"/>
    </g>
    <g transform="matrix(1.15468,-0.666702,-0.666702,-1.15468,482.251,1110.64)">
        <path d="M259.786,731.7L279.704,731.7" style="fill:none;fill-rule:nonzero;stroke:black;stroke-width:0.72px;"/>
    </g>
    <g transform="matrix(1.15468,-0.666702,-0.666702,-1.15468,499.091,1093.8)">
        <path d="M242.536,761.58L262.454,761.58" style="fill:none;fill-rule:nonzero;stroke:black;stroke-width:0.72px;"/>
    </g>
    <g transform="matrix(1.15468,0.666702,0.666702,-1.15468,-496.482,762.461)">
        <path d="M242.536,731.7L262.454,731.7" style="fill:none;fill-rule:nonzero;stroke:black;stroke-width:0.72px;"/>
    </g>
    <g transform="matrix(0,-1.33333,-1.33333,0,1266.91,391.161)">
        <path d="M233.91,746.64L253.83,746.64" style="fill:none;fill-rule:nonzero;stroke:black;stroke-width:0.72px;"/>
    </g>
    <g transform="matrix(0.666846,-1.1546,-1.1546,-0.666846,1014.66,878.664)">
        <path d="M274.872,762.66L288.868,762.66" style="fill:none;fill-rule:nonzero;stroke:black;stroke-width:0.72px;"/>
    </g>
    <g transform="matrix(1.33333,0,0,1.33333,-53.7655,-956.079)">
        <path d="M278.37,756.6L293.52,756.6" style="fill:none;fill-rule:nonzero;stroke:black;stroke-width:0.72px;"/>
    </g>
    <g transform="matrix(0.666655,1.15471,1.15471,-0.666655,-711.302,212.673)">
        <path d="M297.78,745.395L311.74,745.395" style="fill:none;fill-rule:nonzero;stroke:black;stroke-width:0.72px;"/>
    </g>
    <g transform="matrix(-0.666681,1.15469,1.15469,0.666681,-294.853,-755.81)">
        <path d="M295.55,733.695L310.55,733.695" style="fill:none;fill-rule:nonzero;stroke:black;stroke-width:0.72px;"/>
    </g>
    <g transform="matrix(-0.666851,1.15459,1.15459,0.666851,-286.971,-758.01)">
        <path d="M299.827,732.805L313.003,732.805" style="fill:none;fill-rule:nonzero;stroke:black;stroke-width:0.72px;"/>
    </g>
    <g transform="matrix(1.33333,0,0,1.33333,-53.7655,-910.079)">
        <path d="M308.25,739.35L323.28,739.35" style="fill:none;fill-rule:nonzero;stroke:black;stroke-width:0.72px;"/>
    </g>
    <g transform="matrix(0.666462,1.15482,1.15482,-0.666462,-671.455,189.492)">
        <path d="M327.688,728.13L341.612,728.13" style="fill:none;fill-rule:nonzero;stroke:black;stroke-width:0.72px;"/>
    </g>
    <g transform="matrix(1.33333,0,0,1.33333,-53.7655,-864.079)">
        <path d="M338.13,722.1L353.28,722.1" style="fill:none;fill-rule:nonzero;stroke:black;stroke-width:0.72px;"/>
    </g>
    <g transform="matrix(1.33333,0,0,1.33333,-53.7655,-923.759)">
        <path d="M380.16,744.48L414.24,744.48" style="fill:none;fill-rule:nonzero;stroke:black;stroke-width:0.72px;"/>
    </g>
    <g transform="matrix(1.33333,0,0,1.33333,-53.7655,-931.439)">
        <path d="M380.16,747.36L414.24,747.36" style="fill:none;fill-rule:nonzero;stroke:black;stroke-width:0.72px;"/>
    </g>
    <g transform="matrix(1.33333,0,0,1.33333,-53.7655,-927.599)">
        <path d="M409.68,742.32L417.6,745.92L409.68,749.52" style="fill:none;fill-rule:nonzero;stroke:black;stroke-width:0.72px;"/>
    </g>
    <g transform="matrix(0,-1.33333,-1.33333,0,1558.35,696.041)">
        <path d="M457.53,741.6L477.45,741.6" style="fill:none;fill-rule:nonzero;stroke:black;stroke-width:0.72px;"/>
    </g>
    <g transform="matrix(1.15468,0.666702,0.666702,-1.15468,-476.175,620.436)">
        <path d="M448.906,756.54L468.824,756.54" style="fill:none;fill-rule:nonzero;stroke:black;stroke-width:0.72px;"/>
    </g>
    <g transform="matrix(1.15468,-0.666702,-0.666702,-1.15468,512.678,1237.63)">
        <path d="M448.906,726.66L468.824,726.66" style="fill:none;fill-rule:nonzero;stroke:black;stroke-width:0.72px;"/>
    </g>
    <g transform="matrix(1.15468,-0.666702,-0.666702,-1.15468,529.517,1220.79)">
        <path d="M431.656,756.54L451.574,756.54" style="fill:none;fill-rule:nonzero;stroke:black;stroke-width:0.72px;"/>
    </g>
    <g transform="matrix(1.15468,0.666702,0.666702,-1.15468,-459.335,637.275)">
        <path d="M431.656,726.66L451.574,726.66" style="fill:none;fill-rule:nonzero;stroke:black;stroke-width:0.72px;"/>
    </g>
    <g transform="matrix(0,-1.33333,-1.33333,0,1512.35,650.041)">
        <path d="M423.03,741.6L442.95,741.6" style="fill:none;fill-rule:nonzero;stroke:black;stroke-width:0.72px;"/>
    </g>
    <g transform="matrix(0.0274969,-1.33305,-1.33305,-0.0274969,1566.81,695.547)">
        <path d="M461.554,757.62L473.676,757.62" style="fill:none;fill-rule:nonzero;stroke:black;stroke-width:0.72px;"/>
    </g>
    <g transform="matrix(1.33333,0,0,1.33333,-53.7655,-942.639)">
        <path d="M467.49,751.56L487.41,751.56" style="fill:none;fill-rule:nonzero;stroke:black;stroke-width:0.72px;"/>
    </g>
    <g transform="matrix(0.666846,1.1546,1.1546,-0.666846,-587.332,-2.14859)">
        <path d="M483.912,745.5L497.908,745.5" style="fill:none;fill-rule:nonzero;stroke:black;stroke-width:0.72px;"/>
    </g>
    <g transform="matrix(0.666702,-1.15468,-1.15468,-0.666702,1152.25,1123.31)">
        <path d="M482.431,760.185L502.349,760.185" style="fill:none;fill-rule:nonzero;stroke:black;stroke-width:0.72px;"/>
    </g>
    <g transform="matrix(1.33333,0,0,1.33333,-53.7655,-988.639)">
        <path d="M497.37,768.81L512.4,768.81" style="fill:none;fill-rule:nonzero;stroke:black;stroke-width:0.72px;"/>
    </g>
    <g transform="matrix(-0.666851,-1.15459,-1.15459,0.666851,1832.62,82.8091)">
        <path d="M488.947,775.355L502.123,775.355" style="fill:none;fill-rule:nonzero;stroke:black;stroke-width:0.72px;"/>
    </g>
    <g transform="matrix(-0.666681,-1.15469,-1.15469,0.666681,1824.85,80.884)">
        <path d="M484.67,774.465L499.67,774.465" style="fill:none;fill-rule:nonzero;stroke:black;stroke-width:0.72px;"/>
    </g>
    <g transform="matrix(0.666846,1.1546,1.1546,-0.666846,-579.439,-48.1434)">
        <path d="M516.752,757.62L530.748,757.62" style="fill:none;fill-rule:nonzero;stroke:black;stroke-width:0.72px;"/>
    </g>
    <g transform="matrix(1.33333,0,0,1.33333,-53.7655,-942.639)">
        <path d="M527.25,751.56L542.4,751.56" style="fill:none;fill-rule:nonzero;stroke:black;stroke-width:0.72px;"/>
    </g>
    <g transform="matrix(0,1.33333,1.33333,0,-316.486,-497.199)">
        <path d="M468.72,683.04L503.28,683.04" style="fill:none;fill-rule:nonzero;stroke:black;stroke-width:0.72px;"/>
    </g>
    <g transform="matrix(0,1.33333,1.33333,0,-312.646,-501.039)">
        <path d="M471.6,683.04L506.16,683.04" style="fill:none;fill-rule:nonzero;stroke:black;stroke-width:0.72px;"/>
    </g>
    <g transform="matrix(1.33333,0,0,1.33333,-53.7655,-715.439)">
        <path d="M491.04,662.4L487.44,670.32L483.84,662.4" style="fill:none;fill-rule:nonzero;stroke:black;stroke-width:0.72px;"/>
    </g>
    <g transform="matrix(0,-1.33333,-1.33333,0,1504.91,971.561)">
        <path d="M540.81,618.24L560.73,618.24" style="fill:none;fill-rule:nonzero;stroke:black;stroke-width:0.72px;"/>
    </g>
    <g transform="matrix(1.15468,0.666702,0.666702,-1.15468,-379.052,586.952)">
        <path d="M532.186,633.18L552.104,633.18" style="fill:none;fill-rule:nonzero;stroke:black;stroke-width:0.72px;"/>
    </g>
    <g transform="matrix(1.15468,-0.666702,-0.666702,-1.15468,445.312,1315.19)">
        <path d="M532.186,603.3L552.104,603.3" style="fill:none;fill-rule:nonzero;stroke:black;stroke-width:0.72px;"/>
    </g>
    <g transform="matrix(1.15468,-0.666702,-0.666702,-1.15468,462.151,1298.35)">
        <path d="M514.936,633.18L534.854,633.18" style="fill:none;fill-rule:nonzero;stroke:black;stroke-width:0.72px;"/>
    </g>
    <g transform="matrix(1.15468,0.666702,0.666702,-1.15468,-362.213,603.79)">
        <path d="M514.936,603.3L534.854,603.3" style="fill:none;fill-rule:nonzero;stroke:black;stroke-width:0.72px;"/>
    </g>
    <g transform="matrix(0,-1.33333,-1.33333,0,1458.91,925.561)">
        <path d="M506.31,618.24L526.23,618.24" style="fill:none;fill-rule:nonzero;stroke:black;stroke-width:0.72px;"/>
    </g>
    <g transform="matrix(1.1551,-0.665976,-0.665976,-1.1551,465.164,1320.39)">
        <path d="M550.728,630.045L563.922,630.045" style="fill:none;fill-rule:nonzero;stroke:black;stroke-width:0.72px;"/>
    </g>
    <g transform="matrix(1.15466,-0.666729,-0.666729,-1.15466,467.99,1319.37)">
        <path d="M548.916,633.435L564.054,633.435" style="fill:none;fill-rule:nonzero;stroke:black;stroke-width:0.72px;"/>
    </g>
    <g transform="matrix(1.33333,0,0,1.33333,-53.7655,-610.159)">
        <path d="M439.44,626.88L447.6,626.88" style="fill:none;fill-rule:nonzero;stroke:black;stroke-width:0.72px;"/>
    </g>
    <g transform="matrix(-0.666253,1.15494,1.15494,0.666253,77.4139,-661.701)">
        <path d="M418.042,617.795L426.828,617.795" style="fill:none;fill-rule:nonzero;stroke:black;stroke-width:0.72px;"/>
    </g>
    <g transform="matrix(0.666796,1.15463,1.15463,-0.666796,-469.998,126.87)">
        <path d="M444.136,620.88L457.994,620.88" style="fill:none;fill-rule:nonzero;stroke:black;stroke-width:0.72px;"/>
    </g>
    <g transform="matrix(0.667127,-1.15443,-1.15443,-0.667127,978,1162.85)">
        <path d="M445.345,632.46L460.175,632.46" style="fill:none;fill-rule:nonzero;stroke:black;stroke-width:0.72px;"/>
    </g>
    <g transform="matrix(0.666267,-1.15493,-1.15493,-0.666267,977.481,1158.06)">
        <path d="M442.901,633.345L455.889,633.345" style="fill:none;fill-rule:nonzero;stroke:black;stroke-width:0.72px;"/>
    </g>
    <g transform="matrix(-0.666515,1.15479,1.15479,0.666515,157.29,-656.271)">
        <path d="M444.083,598.47L458.147,598.47" style="fill:none;fill-rule:nonzero;stroke:black;stroke-width:0.72px;"/>
    </g>
    <g transform="matrix(0.666462,1.15482,1.15482,-0.666462,-430.081,149.585)">
        <path d="M444.118,586.35L458.042,586.35" style="fill:none;fill-rule:nonzero;stroke:black;stroke-width:0.72px;"/>
    </g>
    <g transform="matrix(0,1.33333,1.33333,0,-194.886,-240.559)">
        <path d="M418.8,541.2L451.92,541.2" style="fill:none;fill-rule:nonzero;stroke:black;stroke-width:0.72px;"/>
    </g>
    <g transform="matrix(0,1.33333,1.33333,0,-191.046,-244.399)">
        <path d="M421.68,541.2L454.8,541.2" style="fill:none;fill-rule:nonzero;stroke:black;stroke-width:0.72px;"/>
    </g>
    <g transform="matrix(1.33333,0,0,1.33333,-53.7655,-339.119)">
        <path d="M440.4,521.28L436.8,529.2L433.2,521.28" style="fill:none;fill-rule:nonzero;stroke:black;stroke-width:0.72px;"/>
    </g>
    <g transform="matrix(-1.15469,-0.666683,-0.666683,1.15469,1240.17,146.227)">
        <path d="M384.785,473.255L401.725,473.255" style="fill:none;fill-rule:nonzero;stroke:black;stroke-width:0.72px;"/>
    </g>
    <g transform="matrix(-1.15468,0.666702,0.666702,1.15468,648.35,-390.622)">
        <path d="M399.256,474L419.174,474" style="fill:none;fill-rule:nonzero;stroke:black;stroke-width:0.72px;"/>
    </g>
    <g transform="matrix(-1.15457,-0.666895,-0.666895,1.15457,1318.08,161.397)">
        <path d="M416.892,475.445L431.028,475.445" style="fill:none;fill-rule:nonzero;stroke:black;stroke-width:0.72px;"/>
    </g>
    <g transform="matrix(-1.15473,0.666619,0.666619,1.15473,739.326,-418.69)">
        <path d="M438.959,475.395L453.301,475.395" style="fill:none;fill-rule:nonzero;stroke:black;stroke-width:0.72px;"/>
    </g>
    <g transform="matrix(0,-1.33333,-1.33333,0,1154.03,972.441)">
        <path d="M412.17,486.33L426.87,486.33" style="fill:none;fill-rule:nonzero;stroke:black;stroke-width:0.72px;"/>
    </g>
    <g transform="matrix(0,-1.33333,-1.33333,0,1149.55,967.961)">
        <path d="M408.81,486.33L423.51,486.33" style="fill:none;fill-rule:nonzero;stroke:black;stroke-width:0.72px;"/>
    </g>
    <g transform="matrix(1.1547,0.666669,0.666669,-1.1547,-288.75,670.864)">
        <path d="M451.37,475.36L465.85,475.36" style="fill:none;fill-rule:nonzero;stroke:black;stroke-width:0.72px;"/>
    </g>
    <g transform="matrix(1.33333,0,0,1.33333,-53.7655,-970.159)">
        <path d="M473.76,753.84L475.2,754.32L476.64,755.04L478.56,757.44L479.28,758.64L479.76,760.08L479.76,761.04L480,761.76L479.76,762.96L479.52,763.92L479.28,765.12L478.8,766.08L478.08,767.04L477.36,767.76L476.4,768.48L474.48,769.44L473.52,769.68L472.32,769.92L471.84,769.92L469.68,769.68" style="fill:none;fill-rule:nonzero;stroke:black;stroke-width:0.48px;"/>
    </g>
    <g transform="matrix(-1.30594,-0.268871,-0.268871,1.30594,1399.46,-802.275)">
        <path d="M469.352,755.615L477.684,755.615L470.41,751.668L471.385,754.074L469.352,755.615Z" style="stroke:black;stroke-width:0.48px;"/>
    </g>
    <g transform="matrix(1.33333,0,0,1.33333,-53.7655,-925.039)">
        <path d="M485.76,740.88L485.76,742.08L485.52,743.28L484.56,745.2L483.84,746.16L483.12,746.88L481.2,748.32L480.24,748.56L479.04,749.04L477.84,749.04L477.36,749.28L476.16,749.04L475.2,748.8L474,748.56L473.04,748.08L472.32,747.36L471.36,746.64L470.64,745.92L469.2,743.04L468.96,741.84L468.96,740.64" style="fill:none;fill-rule:nonzero;stroke:black;stroke-width:0.48px;"/>
    </g>
    <g transform="matrix(0.0391987,-1.33276,-1.33276,-0.0391987,1565.08,742.123)">
        <path d="M479.695,743.041L487.858,743.041L480.541,746.907L481.572,744.537L479.695,743.041Z" style="stroke:black;stroke-width:0.48px;"/>
    </g>
</svg>
