<?xml version="1.0" encoding="UTF-8" standalone="no"?>
<!DOCTYPE svg PUBLIC "-//W3C//DTD SVG 1.1//EN" "http://www.w3.org/Graphics/SVG/1.1/DTD/svg11.dtd">
<svg width="100%" height="100%" viewBox="0 0 700 440" version="1.1" xmlns="http://www.w3.org/2000/svg" xmlns:xlink="http://www.w3.org/1999/xlink" xml:space="preserve" xmlns:serif="http://www.serif.com/" style="fill-rule:evenodd;clip-rule:evenodd;stroke-linecap:round;stroke-linejoin:round;stroke-miterlimit:10;">
    <g transform="matrix(1.33333,0,0,1.33333,-114.355,-81.2774)">
        <text x="91.44px" y="72px" style="font-family:'ArialMT', 'Arial', sans-serif;font-size:10px;">Ph</text>
        <text x="96.48px" y="93.6px" style="font-family:'ArialMT', 'Arial', sans-serif;font-size:10px;">H</text>
        <text x="103.68px" y="96.24px" style="font-family:'ArialMT', 'Arial', sans-serif;font-size:8px;">3</text>
        <text x="108px" y="93.6px" style="font-family:'ArialMT', 'Arial', sans-serif;font-size:10px;">C</text>
    </g>
    <g transform="matrix(1.33333,0,0,1.33333,-114.355,-81.2774)">
        <text x="125.04px" y="122.64px" style="font-family:'ArialMT', 'Arial', sans-serif;font-size:10px;">O</text>
    </g>
    <g transform="matrix(1.33333,0,0,1.33333,-114.355,-81.2774)">
        <text x="157.68px" y="111.12px" style="font-family:'ArialMT', 'Arial', sans-serif;font-size:10px;">O</text>
    </g>
    <g transform="matrix(1.33333,0,0,1.33333,-114.355,-81.2774)">
        <text x="190.8px" y="152.4px" style="font-family:'ArialMT', 'Arial', sans-serif;font-size:10px;">N</text>
    </g>
    <g transform="matrix(1.33333,0,0,1.33333,-114.355,-81.2774)">
        <text x="216.96px" y="174.96px" style="font-family:'ArialMT', 'Arial', sans-serif;font-size:10px;">CH</text>
        <text x="231.36px" y="177.6px" style="font-family:'ArialMT', 'Arial', sans-serif;font-size:8px;">3</text>
    </g>
    <g transform="matrix(1.33333,0,0,1.33333,-114.355,-81.2774)">
        <text x="184.32px" y="186.48px" style="font-family:'ArialMT', 'Arial', sans-serif;font-size:10px;">CH</text>
        <text x="198.72px" y="189.12px" style="font-family:'ArialMT', 'Arial', sans-serif;font-size:8px;">3</text>
    </g>
    <g transform="matrix(1.33333,0,0,1.33333,-114.355,-81.2774)">
        <text x="275.28px" y="70.8px" style="font-family:'ArialMT', 'Arial', sans-serif;font-size:10px;">Ph</text>
        <text x="278.64px" y="93.12px" style="font-family:'ArialMT', 'Arial', sans-serif;font-size:10px;">H</text>
        <text x="285.84px" y="95.76px" style="font-family:'ArialMT', 'Arial', sans-serif;font-size:8px;">3</text>
        <text x="290.16px" y="93.12px" style="font-family:'ArialMT', 'Arial', sans-serif;font-size:10px;">C</text>
    </g>
    <g transform="matrix(1.33333,0,0,1.33333,-114.355,-81.2774)">
        <text x="304.56px" y="123.6px" style="font-family:'ArialMT', 'Arial', sans-serif;font-size:10px;">O</text>
    </g>
    <g transform="matrix(1.33333,0,0,1.33333,-114.355,-81.2774)">
        <text x="338.16px" y="114.96px" style="font-family:'ArialMT', 'Arial', sans-serif;font-size:10px;">O<tspan x="346.08px " y="114.96px ">H</tspan></text>
    </g>
    <g transform="matrix(1.33333,0,0,1.33333,-114.355,-81.2774)">
        <text x="366.96px" y="82.56px" style="font-family:'ArialMT', 'Arial', sans-serif;font-size:18px;">+</text>
    </g>
    <g transform="matrix(1.33333,0,0,1.33333,-114.355,-81.2774)">
        <text x="432.72px" y="81.6px" style="font-family:'ArialMT', 'Arial', sans-serif;font-size:10px;">N</text>
    </g>
    <g transform="matrix(1.33333,0,0,1.33333,-114.355,-81.2774)">
        <text x="449.76px" y="111.6px" style="font-family:'ArialMT', 'Arial', sans-serif;font-size:10px;">CH</text>
        <text x="464.16px" y="114.24px" style="font-family:'ArialMT', 'Arial', sans-serif;font-size:8px;">3</text>
    </g>
    <g transform="matrix(1.33333,0,0,1.33333,-114.355,-81.2774)">
        <text x="467.04px" y="81.6px" style="font-family:'ArialMT', 'Arial', sans-serif;font-size:10px;">CH</text>
        <text x="481.44px" y="84.24px" style="font-family:'ArialMT', 'Arial', sans-serif;font-size:8px;">3</text>
    </g>
    <g transform="matrix(1.33333,0,0,1.33333,-114.355,-81.2774)">
        <text x="397.92px" y="101.52px" style="font-family:'ArialMT', 'Arial', sans-serif;font-size:10px;">O<tspan x="405.84px " y="101.52px ">H</tspan></text>
    </g>
    <g transform="matrix(1.33333,0,0,1.33333,-114.355,-81.2774)">
        <text x="238.08px" y="266.4px" style="font-family:'ArialMT', 'Arial', sans-serif;font-size:10px;">C</text>
    </g>
    <g transform="matrix(1.33333,0,0,1.33333,-114.355,-81.2774)">
        <text x="226.56px" y="266.4px" style="font-family:'ArialMT', 'Arial', sans-serif;font-size:10px;">H</text>
        <text x="233.76px" y="269.04px" style="font-family:'ArialMT', 'Arial', sans-serif;font-size:8px;">3</text>
    </g>
    <g transform="matrix(1.33333,0,0,1.33333,-114.355,-81.2774)">
        <text x="228px" y="232.32px" style="font-family:'ArialMT', 'Arial', sans-serif;font-size:10px;">Ph</text>
    </g>
    <g transform="matrix(1.33333,0,0,1.33333,-114.355,-81.2774)">
        <text x="265.44px" y="247.92px" style="font-family:'ArialMT', 'Arial', sans-serif;font-size:10px;">CH</text>
        <text x="279.84px" y="250.56px" style="font-family:'ArialMT', 'Arial', sans-serif;font-size:8px;">2</text>
        <text x="307.2px" y="250.8px" style="font-family:'ArialMT', 'Arial', sans-serif;font-size:18px;">+</text>
        <text x="343.2px" y="248.16px" style="font-family:'ArialMT', 'Arial', sans-serif;font-size:10px;">HC</text>
    </g>
    <g transform="matrix(1.33333,0,0,1.33333,-114.355,-81.2774)">
        <text x="379.92px" y="265.2px" style="font-family:'ArialMT', 'Arial', sans-serif;font-size:10px;">O<tspan x="387.84px " y="265.2px ">H</tspan></text>
    </g>
    <g transform="matrix(1.33333,0,0,1.33333,-114.355,-81.2774)">
        <text x="379.92px" y="230.88px" style="font-family:'ArialMT', 'Arial', sans-serif;font-size:10px;">O</text>
    </g>
    <g transform="matrix(0.0186667,1.3332,-1.3332,0.0186667,-114.355,-81.2774)">
        <text x="241.673px" y="-348.491px" style="font-family:'ArialMT', 'Arial', sans-serif;font-size:10px;">:</text>
    </g>
    <g transform="matrix(1.33333,0,0,1.33333,-114.355,-81.2774)">
        <text x="357.12px" y="360.72px" style="font-family:'ArialMT', 'Arial', sans-serif;font-size:10px;">CH</text>
        <text x="371.52px" y="353.76px" style="font-family:'ArialMT', 'Arial', sans-serif;font-size:8px;">–</text>
    </g>
    <g transform="matrix(1.33333,0,0,1.33333,-114.355,-81.2774)">
        <text x="386.64px" y="377.76px" style="font-family:'ArialMT', 'Arial', sans-serif;font-size:10px;">O<tspan x="394.56px " y="377.76px ">H</tspan></text>
    </g>
    <g transform="matrix(1.33333,0,0,1.33333,-114.355,-81.2774)">
        <text x="386.64px" y="343.44px" style="font-family:'ArialMT', 'Arial', sans-serif;font-size:10px;">O</text>
    </g>
    <g transform="matrix(1.33333,0,0,1.33333,-114.355,-81.2774)">
        <text x="337.2px" y="360.72px" style="font-family:'ArialMT', 'Arial', sans-serif;font-size:10px;">N</text>
        <text x="344.4px" y="353.76px" style="font-family:'ArialMT', 'Arial', sans-serif;font-size:8px;">+</text>
    </g>
    <g transform="matrix(1.33333,0,0,1.33333,-114.355,-81.2774)">
        <text x="317.28px" y="360.72px" style="font-family:'ArialMT', 'Arial', sans-serif;font-size:10px;">N</text>
    </g>
    <g transform="matrix(0.0186667,-1.3332,1.3332,0.0186667,-114.355,-81.2774)">
        <text x="-347.349px" y="366.819px" style="font-family:'ArialMT', 'Arial', sans-serif;font-size:10px;">:</text>
    </g>
    <g transform="matrix(1.33333,0,0,1.33333,-114.355,-81.2774)">
        <text x="540.96px" y="356.4px" style="font-family:'ArialMT', 'Arial', sans-serif;font-size:10px;">O</text>
    </g>
    <g transform="matrix(1.33333,0,0,1.33333,-114.355,-81.2774)">
        <text x="575.76px" y="356.4px" style="font-family:'ArialMT', 'Arial', sans-serif;font-size:10px;">CH</text>
        <text x="590.16px" y="359.04px" style="font-family:'ArialMT', 'Arial', sans-serif;font-size:8px;">3</text>
        <text x="489.6px" y="366.24px" style="font-family:'ArialMT', 'Arial', sans-serif;font-size:10px;">N</text>
    </g>
    <g transform="matrix(1.33333,0,0,1.33333,-114.355,-81.2774)">
        <text x="478.08px" y="366.24px" style="font-family:'ArialMT', 'Arial', sans-serif;font-size:10px;">H</text>
        <text x="485.28px" y="368.88px" style="font-family:'ArialMT', 'Arial', sans-serif;font-size:8px;">2</text>
    </g>
    <g transform="matrix(1.33333,0,0,1.33333,-114.355,-81.2774)">
        <text x="523.92px" y="386.16px" style="font-family:'ArialMT', 'Arial', sans-serif;font-size:10px;">O</text>
    </g>
    <g transform="matrix(0.247698,-1.31012,-1.31012,-0.247698,1039.57,388.608)">
        <path d="M127.402,766.955L147.318,766.955" style="fill:none;fill-rule:nonzero;stroke:black;stroke-width:0.72px;"/>
    </g>
    <g transform="matrix(1.25848,-0.440467,-0.440467,-1.25848,236.042,1040.56)">
        <path d="M119.851,773.45L139.769,773.45" style="fill:none;fill-rule:nonzero;stroke:black;stroke-width:0.72px;"/>
    </g>
    <g transform="matrix(1.01078,0.86954,0.86954,-1.01078,-737.118,683.695)">
        <path d="M118.001,763.665L137.919,763.665" style="fill:none;fill-rule:nonzero;stroke:black;stroke-width:0.72px;"/>
    </g>
    <g transform="matrix(-1.31015,-0.247574,-0.247574,1.31015,374.143,-970.701)">
        <path d="M104.5,771.65L120.55,771.65" style="fill:none;fill-rule:nonzero;stroke:black;stroke-width:0.72px;"/>
    </g>
    <g transform="matrix(-0.57808,1.2015,1.2015,0.57808,-807.756,-559.651)">
        <path d="M110.292,763.8L124.408,763.8" style="fill:none;fill-rule:nonzero;stroke:black;stroke-width:0.72px;"/>
    </g>
    <g transform="matrix(0.441063,1.25827,1.25827,-0.441063,-931.399,199.416)">
        <path d="M128.844,747.77L148.766,747.77" style="fill:none;fill-rule:nonzero;stroke:black;stroke-width:0.72px;"/>
    </g>
    <g transform="matrix(-0.869375,1.01092,1.01092,0.869375,-556.606,-712.908)">
        <path d="M128.76,733.935L143.36,733.935" style="fill:none;fill-rule:nonzero;stroke:black;stroke-width:0.72px;"/>
    </g>
    <g transform="matrix(-0.869767,1.01059,1.01059,0.869767,-548.432,-711.014)">
        <path d="M131.402,731.78L145.888,731.78" style="fill:none;fill-rule:nonzero;stroke:black;stroke-width:0.72px;"/>
    </g>
    <g transform="matrix(1.31019,0.247341,0.247341,-1.31019,-293.185,987.272)">
        <path d="M141.971,736.99L156.849,736.99" style="fill:none;fill-rule:nonzero;stroke:black;stroke-width:0.72px;"/>
    </g>
    <g transform="matrix(0.440018,1.25863,1.25863,-0.440018,-875.858,186.908)">
        <path d="M158.578,722.735L173.122,722.735" style="fill:none;fill-rule:nonzero;stroke:black;stroke-width:0.72px;"/>
    </g>
    <g transform="matrix(1.31015,0.247576,0.247576,-1.31015,-287.001,980.648)">
        <path d="M168.077,714.02L188.003,714.02" style="fill:none;fill-rule:nonzero;stroke:black;stroke-width:0.72px;"/>
    </g>
    <g transform="matrix(0.440011,1.25864,1.25864,-0.440011,-832.298,171.742)">
        <path d="M183.029,705.405L197.361,705.405" style="fill:none;fill-rule:nonzero;stroke:black;stroke-width:0.72px;"/>
    </g>
    <g transform="matrix(-0.86979,1.01057,1.01057,0.86979,-395.65,-651.808)">
        <path d="M179.115,683.295L192.375,683.295" style="fill:none;fill-rule:nonzero;stroke:black;stroke-width:0.72px;"/>
    </g>
    <g transform="matrix(1.31012,0.247719,0.247719,-1.31012,-280.758,974.093)">
        <path d="M198.827,691.09L214.113,691.09" style="fill:none;fill-rule:nonzero;stroke:black;stroke-width:0.72px;"/>
    </g>
    <g transform="matrix(0.440756,1.25838,1.25838,-0.440756,-780.551,159.501)">
        <path d="M209.16,682.875L223.56,682.875" style="fill:none;fill-rule:nonzero;stroke:black;stroke-width:0.72px;"/>
    </g>
    <g transform="matrix(0.439772,1.25872,1.25872,-0.439772,-795.229,209.96)">
        <path d="M176.554,671.415L191.076,671.415" style="fill:none;fill-rule:nonzero;stroke:black;stroke-width:0.72px;"/>
    </g>
    <g transform="matrix(1.33333,0,0,1.33333,-114.355,-996.477)">
        <path d="M195.36,764.16L229.44,764.16" style="fill:none;fill-rule:nonzero;stroke:black;stroke-width:0.72px;"/>
    </g>
    <g transform="matrix(1.33333,0,0,1.33333,-114.355,-1004.16)">
        <path d="M195.36,767.04L229.44,767.04" style="fill:none;fill-rule:nonzero;stroke:black;stroke-width:0.72px;"/>
    </g>
    <g transform="matrix(1.33333,0,0,1.33333,-114.355,-1000.32)">
        <path d="M224.88,762L232.8,765.6L224.88,769.2" style="fill:none;fill-rule:nonzero;stroke:black;stroke-width:0.72px;"/>
    </g>
    <g transform="matrix(0.358066,-1.28435,-1.28435,-0.358066,1180.99,706.71)">
        <path d="M310.564,765.165L330.486,765.165" style="fill:none;fill-rule:nonzero;stroke:black;stroke-width:0.72px;"/>
    </g>
    <g transform="matrix(1.29117,-0.332665,-0.332665,-1.29117,155.775,1113.03)">
        <path d="M303.595,772.275L323.515,772.275" style="fill:none;fill-rule:nonzero;stroke:black;stroke-width:0.72px;"/>
    </g>
    <g transform="matrix(0.933388,0.952136,0.952136,-0.933388,-716.195,440.252)">
        <path d="M300.923,762.68L320.837,762.68" style="fill:none;fill-rule:nonzero;stroke:black;stroke-width:0.72px;"/>
    </g>
    <g transform="matrix(-1.28439,-0.357932,-0.357932,1.28439,937.304,-873.427)">
        <path d="M288.186,771.94L304.204,771.94" style="fill:none;fill-rule:nonzero;stroke:black;stroke-width:0.72px;"/>
    </g>
    <g transform="matrix(-0.678012,1.14808,1.14808,0.678012,-387.099,-839.981)">
        <path d="M293.512,763.855L307.298,763.855" style="fill:none;fill-rule:nonzero;stroke:black;stroke-width:0.72px;"/>
    </g>
    <g transform="matrix(0.332665,1.29117,1.29117,-0.332665,-756.919,-118.747)">
        <path d="M310.375,745.925L330.295,745.925" style="fill:none;fill-rule:nonzero;stroke:black;stroke-width:0.72px;"/>
    </g>
    <g transform="matrix(-0.951605,0.933931,0.933931,0.951605,-75.1814,-927.955)">
        <path d="M309.358,732.46L323.692,732.46" style="fill:none;fill-rule:nonzero;stroke:black;stroke-width:0.72px;"/>
    </g>
    <g transform="matrix(-0.95223,0.933293,0.933293,0.95223,-67.1154,-924.42)">
        <path d="M311.327,729.905L326.113,729.905" style="fill:none;fill-rule:nonzero;stroke:black;stroke-width:0.72px;"/>
    </g>
    <g transform="matrix(1.28433,0.358148,0.358148,-1.28433,-361.163,887.109)">
        <path d="M322.546,734.275L337.474,734.275" style="fill:none;fill-rule:nonzero;stroke:black;stroke-width:0.72px;"/>
    </g>
    <g transform="matrix(-1.15457,-0.6669,-0.6669,1.15457,1457.89,-591.971)">
        <path d="M418.088,770.515L432.742,770.515" style="fill:none;fill-rule:nonzero;stroke:black;stroke-width:0.72px;"/>
    </g>
    <g transform="matrix(-1.15457,0.6669,0.6669,1.15457,484.439,-1173.94)">
        <path d="M439.898,770.515L454.552,770.515" style="fill:none;fill-rule:nonzero;stroke:black;stroke-width:0.72px;"/>
    </g>
    <g transform="matrix(-1.15468,0.666702,0.666702,1.15468,394.011,-1146.14)">
        <path d="M400.486,769.2L420.404,769.2" style="fill:none;fill-rule:nonzero;stroke:black;stroke-width:0.72px;"/>
    </g>
    <g transform="matrix(0,1.33333,1.33333,0,-534.875,-542.757)">
        <path d="M428.91,751.71L443.73,751.71" style="fill:none;fill-rule:nonzero;stroke:black;stroke-width:0.72px;"/>
    </g>
    <g transform="matrix(1.15491,0.666297,0.666297,-1.15491,-528.919,614.251)">
        <path d="M435.356,740.7L449.764,740.7" style="fill:none;fill-rule:nonzero;stroke:black;stroke-width:0.72px;"/>
    </g>
    <g transform="matrix(1.15481,0.666483,0.666483,-1.15481,-545.835,597.25)">
        <path d="M452.603,770.57L467.047,770.57" style="fill:none;fill-rule:nonzero;stroke:black;stroke-width:0.72px;"/>
    </g>
    <g transform="matrix(0,1.33333,1.33333,0,-587.755,-503.637)">
        <path d="M394.47,756.87L409.17,756.87" style="fill:none;fill-rule:nonzero;stroke:black;stroke-width:0.72px;"/>
    </g>
    <g transform="matrix(0,1.33333,1.33333,0,-595.475,-267.997)">
        <path d="M293.64,671.4L327.48,671.4" style="fill:none;fill-rule:nonzero;stroke:black;stroke-width:0.72px;"/>
    </g>
    <g transform="matrix(0,1.33333,1.33333,0,-591.635,-271.837)">
        <path d="M296.52,671.4L330.36,671.4" style="fill:none;fill-rule:nonzero;stroke:black;stroke-width:0.72px;"/>
    </g>
    <g transform="matrix(1.33333,0,0,1.33333,-114.355,-705.597)">
        <path d="M315.6,651.12L312,659.04L308.4,651.12" style="fill:none;fill-rule:nonzero;stroke:black;stroke-width:0.72px;"/>
    </g>
    <g transform="matrix(0.515816,-1.22952,-1.22952,-0.515816,814.252,861.354)">
        <path d="M239.642,591.195L253.858,591.195" style="fill:none;fill-rule:nonzero;stroke:black;stroke-width:0.72px;"/>
    </g>
    <g transform="matrix(0.806827,1.06151,1.06151,-0.806827,-625.491,463.247)">
        <path d="M238.492,603.21L252.208,603.21" style="fill:none;fill-rule:nonzero;stroke:black;stroke-width:0.72px;"/>
    </g>
    <g transform="matrix(1.33331,-0.00712526,-0.00712526,-1.33331,-110.102,1043.1)">
        <path d="M249.51,596.11L264.48,596.11" style="fill:none;fill-rule:nonzero;stroke:black;stroke-width:0.72px;"/>
    </g>
    <g transform="matrix(1.33331,-0.00711575,-0.00711575,-1.33331,-110.084,1043.1)">
        <path d="M249.49,599.47L264.48,599.47" style="fill:none;fill-rule:nonzero;stroke:black;stroke-width:0.72px;"/>
    </g>
    <g transform="matrix(1.33333,0,0,1.33333,-114.355,-552.957)">
        <path d="M358.56,597.84L373.92,597.84" style="fill:none;fill-rule:nonzero;stroke:black;stroke-width:0.72px;"/>
    </g>
    <g transform="matrix(0.666796,1.15463,1.15463,-0.666796,-546.167,211.061)">
        <path d="M370.456,591.84L384.314,591.84" style="fill:none;fill-rule:nonzero;stroke:black;stroke-width:0.72px;"/>
    </g>
    <g transform="matrix(0.667127,-1.15443,-1.15443,-0.667127,834.8,1076.9)">
        <path d="M371.665,603.42L386.495,603.42" style="fill:none;fill-rule:nonzero;stroke:black;stroke-width:0.72px;"/>
    </g>
    <g transform="matrix(0.666267,-1.15493,-1.15493,-0.666267,834.203,1072.1)">
        <path d="M369.221,604.305L382.209,604.305" style="fill:none;fill-rule:nonzero;stroke:black;stroke-width:0.72px;"/>
    </g>
    <g transform="matrix(1.33333,0,0,1.33333,-114.355,-530.237)">
        <path d="M350.64,587.04L356.4,587.04L356.4,587.52L352.08,587.52L352.08,591.12L356.4,591.12L356.4,591.6L350.64,591.6L350.64,587.04Z" style="stroke:black;stroke-width:0.02px;"/>
    </g>
    <g transform="matrix(1.33333,0,0,1.33333,-114.355,-530.237)">
        <path d="M358.08,587.04L352.32,587.04L352.32,587.52L356.64,587.52L356.64,591.12L352.32,591.12L352.32,591.6L358.08,591.6L358.08,587.04Z" style="stroke:black;stroke-width:0.02px;"/>
    </g>
    <g transform="matrix(0,1.33333,1.33333,0,-339.475,-164.317)">
        <path d="M351,536.52L384.36,536.52" style="fill:none;fill-rule:nonzero;stroke:black;stroke-width:0.72px;"/>
    </g>
    <g transform="matrix(0,1.33333,1.33333,0,-335.635,-168.157)">
        <path d="M353.88,536.52L387.24,536.52" style="fill:none;fill-rule:nonzero;stroke:black;stroke-width:0.72px;"/>
    </g>
    <g transform="matrix(1.33333,0,0,1.33333,-114.355,-346.557)">
        <path d="M372.72,516.48L369.12,524.4L365.52,516.48" style="fill:none;fill-rule:nonzero;stroke:black;stroke-width:0.72px;"/>
    </g>
    <g transform="matrix(1.33333,0,0,1.33333,-114.355,-252.797)">
        <path d="M372.48,485.28L380.64,485.28" style="fill:none;fill-rule:nonzero;stroke:black;stroke-width:0.72px;"/>
    </g>
    <g transform="matrix(0.666796,1.15463,1.15463,-0.666796,-411.723,278.327)">
        <path d="M377.176,479.28L391.034,479.28" style="fill:none;fill-rule:nonzero;stroke:black;stroke-width:0.72px;"/>
    </g>
    <g transform="matrix(0.667127,-1.15443,-1.15443,-0.667127,709.334,1159.65)">
        <path d="M378.385,490.86L393.215,490.86" style="fill:none;fill-rule:nonzero;stroke:black;stroke-width:0.72px;"/>
    </g>
    <g transform="matrix(0.666267,-1.15493,-1.15493,-0.666267,708.687,1154.94)">
        <path d="M375.941,491.745L388.929,491.745" style="fill:none;fill-rule:nonzero;stroke:black;stroke-width:0.72px;"/>
    </g>
    <g transform="matrix(-1.33333,0,0,1.33333,821.005,-252.797)">
        <path d="M345.36,485.28L356.16,485.28" style="fill:none;fill-rule:nonzero;stroke:black;stroke-width:0.72px;"/>
    </g>
    <g transform="matrix(-1.33333,0,0,1.33333,767.885,-252.797)">
        <path d="M325.44,485.28L336.24,485.28" style="fill:none;fill-rule:nonzero;stroke:black;stroke-width:0.72px;"/>
    </g>
    <g transform="matrix(-1.33333,0,0,1.33333,767.885,-243.837)">
        <path d="M325.44,481.92L336.24,481.92" style="fill:none;fill-rule:nonzero;stroke:black;stroke-width:0.72px;"/>
    </g>
    <g transform="matrix(-1.33333,0,0,1.33333,767.885,-261.757)">
        <path d="M325.44,488.64L336.24,488.64" style="fill:none;fill-rule:nonzero;stroke:black;stroke-width:0.72px;"/>
    </g>
    <g transform="matrix(1.33333,0,0,1.33333,-114.355,-247.677)">
        <path d="M415.2,483.36L449.28,483.36" style="fill:none;fill-rule:nonzero;stroke:black;stroke-width:0.72px;"/>
    </g>
    <g transform="matrix(1.33333,0,0,1.33333,-114.355,-255.357)">
        <path d="M415.2,486.24L449.28,486.24" style="fill:none;fill-rule:nonzero;stroke:black;stroke-width:0.72px;"/>
    </g>
    <g transform="matrix(1.33333,0,0,1.33333,-114.355,-251.517)">
        <path d="M444.72,481.2L452.64,484.8L444.72,488.4" style="fill:none;fill-rule:nonzero;stroke:black;stroke-width:0.72px;"/>
    </g>
    <g transform="matrix(-1.15468,-0.666702,-0.666702,1.15468,1500.39,181.819)">
        <path d="M509.206,484.56L529.124,484.56" style="fill:none;fill-rule:nonzero;stroke:black;stroke-width:0.72px;"/>
    </g>
    <g transform="matrix(-1.15468,0.666706,0.666706,1.15468,891.893,-516.639)">
        <path d="M526.845,483.105L540.945,483.105" style="fill:none;fill-rule:nonzero;stroke:black;stroke-width:0.72px;"/>
    </g>
    <g transform="matrix(-1.15462,-0.666805,-0.666805,1.15462,1591.29,209.952)">
        <path d="M548.876,483.175L563.254,483.175" style="fill:none;fill-rule:nonzero;stroke:black;stroke-width:0.72px;"/>
    </g>
    <g transform="matrix(-1.15481,0.666483,0.666483,1.15481,978.227,-539.887)">
        <path d="M561.323,483.19L575.767,483.19" style="fill:none;fill-rule:nonzero;stroke:black;stroke-width:0.72px;"/>
    </g>
    <g transform="matrix(-1.15464,0.666766,0.666766,1.15464,816.011,-503.651)">
        <path d="M496.771,485.85L511.529,485.85" style="fill:none;fill-rule:nonzero;stroke:black;stroke-width:0.72px;"/>
    </g>
    <g transform="matrix(0,1.33333,1.33333,0,-42.5146,-289.837)">
        <path d="M518.76,472.23L533.46,472.23" style="fill:none;fill-rule:nonzero;stroke:black;stroke-width:0.72px;"/>
    </g>
    <g transform="matrix(0,1.33333,1.33333,0,-38.0346,-294.317)">
        <path d="M522.12,472.23L536.82,472.23" style="fill:none;fill-rule:nonzero;stroke:black;stroke-width:0.72px;"/>
    </g>
</svg>
