<?xml version="1.0" encoding="UTF-8" standalone="no"?>
<!DOCTYPE svg PUBLIC "-//W3C//DTD SVG 1.1//EN" "http://www.w3.org/Graphics/SVG/1.1/DTD/svg11.dtd">
<svg width="100%" height="100%" viewBox="0 0 640 210" version="1.1" xmlns="http://www.w3.org/2000/svg" xmlns:xlink="http://www.w3.org/1999/xlink" xml:space="preserve" xmlns:serif="http://www.serif.com/" style="fill-rule:evenodd;clip-rule:evenodd;stroke-linecap:round;stroke-linejoin:round;stroke-miterlimit:10;">
    <g transform="matrix(1.08859,-0.769909,-0.769909,-1.08859,532.281,933.769)">
        <path d="M81.452,761.61L96.138,761.61" style="fill:none;fill-rule:nonzero;stroke:black;stroke-width:0.72px;"/>
    </g>
    <g transform="matrix(0.395641,1.27328,1.27328,-0.395641,-976.96,207.826)">
        <path d="M81.876,775.36L101.794,775.36" style="fill:none;fill-rule:nonzero;stroke:black;stroke-width:0.72px;"/>
    </g>
    <g transform="matrix(0.395509,1.27332,1.27332,-0.395509,-978.718,212.734)">
        <path d="M81.18,774.365L96.08,774.365" style="fill:none;fill-rule:nonzero;stroke:black;stroke-width:0.72px;"/>
    </g>
    <g transform="matrix(1.06843,0.79764,0.79764,-1.06843,-665.467,795.442)">
        <path d="M61.122,761.94L75.598,761.94" style="fill:none;fill-rule:nonzero;stroke:black;stroke-width:0.72px;"/>
    </g>
    <g transform="matrix(1.33322,0.0174015,0.0174015,-1.33322,-89.4724,1050.34)">
        <path d="M68.959,785L88.881,785" style="fill:none;fill-rule:nonzero;stroke:black;stroke-width:0.72px;"/>
    </g>
    <g transform="matrix(-0.428459,1.26262,1.26262,0.428459,-939.377,-397.845)">
        <path d="M55.802,775.7L75.718,775.7" style="fill:none;fill-rule:nonzero;stroke:black;stroke-width:0.72px;"/>
    </g>
    <g transform="matrix(-0.428338,1.26266,1.26266,0.428338,-932.443,-399.872)">
        <path d="M61.49,774.62L76.4,774.62" style="fill:none;fill-rule:nonzero;stroke:black;stroke-width:0.72px;"/>
    </g>
    <g transform="matrix(-1.30767,0.26033,0.26033,1.30767,51.9178,-991.171)">
        <path d="M113.458,761.395L133.382,761.395" style="fill:none;fill-rule:nonzero;stroke:black;stroke-width:0.72px;"/>
    </g>
    <g transform="matrix(-0.879237,-1.00236,-1.00236,0.879237,943.906,-491.454)">
        <path d="M110.257,751.96L130.183,751.96" style="fill:none;fill-rule:nonzero;stroke:black;stroke-width:0.72px;"/>
    </g>
    <g transform="matrix(0.428256,-1.26269,-1.26269,-0.428256,993.775,533.601)">
        <path d="M120.027,753.905L139.953,753.905" style="fill:none;fill-rule:nonzero;stroke:black;stroke-width:0.72px;"/>
    </g>
    <g transform="matrix(1.26262,0.428459,0.428459,-1.26262,-395.216,953.221)">
        <path d="M94.262,762.65L114.178,762.65" style="fill:none;fill-rule:nonzero;stroke:black;stroke-width:0.72px;"/>
    </g>
    <g transform="matrix(-0.740169,1.10902,1.10902,0.740169,-684.269,-629.962)">
        <path d="M101.03,752.7L117.26,752.7" style="fill:none;fill-rule:nonzero;stroke:black;stroke-width:0.72px;"/>
    </g>
    <g transform="matrix(1.33333,0,0,1.33333,-75.8212,-976.673)">
        <path d="M124.08,758.16L124.8,756.72L125.76,755.28L126.96,754.32L128.4,753.36L130.08,752.88L130.8,752.88L131.76,752.64L132.72,752.88L133.92,753.12L134.88,753.36L135.84,753.84L136.8,754.56L137.52,755.28L138.24,756.24L138.72,756.96L139.2,758.16L139.68,759.12L139.68,762L139.44,763.2L138.96,764.4L138.24,765.6L136.56,767.28L135.6,768L134.4,768.48L133.92,768.48L133.2,768.72" style="fill:none;fill-rule:nonzero;stroke:black;stroke-width:0.48px;"/>
    </g>
    <g transform="matrix(-1.28635,0.350823,0.350823,1.28635,18.4829,-975.222)">
        <path d="M133.497,757.021L141.707,757.021L134.466,753.274L135.56,755.463L133.497,757.021Z" style="stroke:black;stroke-width:0.48px;"/>
    </g>
    <g transform="matrix(1.33333,0,0,1.33333,-75.8212,-949.473)">
        <path d="M120.72,754.32L119.28,755.04L117.36,755.52L116.16,755.28L115.2,755.04L114.24,754.56L113.52,753.84L112.8,752.88L112.32,752.16L111.84,750.96L111.84,748.8L112.08,747.84L112.56,746.88L114,745.44" style="fill:none;fill-rule:nonzero;stroke:black;stroke-width:0.48px;"/>
    </g>
    <g transform="matrix(0.842231,-1.03365,-1.03365,-0.842231,755.591,797.88)">
        <path d="M107.832,751.971L116.191,751.971L108.803,748.119L110.058,750.379L107.832,751.971Z" style="stroke:black;stroke-width:0.48px;"/>
    </g>
    <g transform="matrix(1.33333,0,0,1.33333,-75.8212,-993.633)">
        <path d="M155.52,767.04L189.6,767.04" style="fill:none;fill-rule:nonzero;stroke:black;stroke-width:0.72px;"/>
    </g>
    <g transform="matrix(1.33333,0,0,1.33333,-75.8212,-1001.31)">
        <path d="M155.52,769.92L189.6,769.92" style="fill:none;fill-rule:nonzero;stroke:black;stroke-width:0.72px;"/>
    </g>
    <g transform="matrix(1.33333,0,0,1.33333,-75.8212,-997.473)">
        <path d="M185.04,764.88L192.96,768.48L185.04,772.08" style="fill:none;fill-rule:nonzero;stroke:black;stroke-width:0.72px;"/>
    </g>
    <g transform="matrix(-0.409572,-1.26887,-1.26887,0.409572,1331.84,16.6635)">
        <path d="M235.308,772.48L255.232,772.48" style="fill:none;fill-rule:nonzero;stroke:black;stroke-width:0.72px;"/>
    </g>
    <g transform="matrix(-0.410356,-1.26862,-1.26862,0.410356,1324.95,13.7473)">
        <path d="M234.618,771.445L249.532,771.445" style="fill:none;fill-rule:nonzero;stroke:black;stroke-width:0.72px;"/>
    </g>
    <g transform="matrix(1.33333,0.00200803,0.00200803,-1.33333,-77.3911,1051.34)">
        <path d="M222.29,781.975L242.21,781.975" style="fill:none;fill-rule:nonzero;stroke:black;stroke-width:0.72px;"/>
    </g>
    <g transform="matrix(1.07988,-0.782075,-0.782075,-1.07988,578.952,1049.06)">
        <path d="M235,758.68L249.73,758.68" style="fill:none;fill-rule:nonzero;stroke:black;stroke-width:0.72px;"/>
    </g>
    <g transform="matrix(0.414202,-1.26737,-1.26737,-0.414202,1104.71,619.56)">
        <path d="M209.232,772.52L229.158,772.52" style="fill:none;fill-rule:nonzero;stroke:black;stroke-width:0.72px;"/>
    </g>
    <g transform="matrix(0.414116,-1.26739,-1.26739,-0.414116,1106.36,624.504)">
        <path d="M214.931,771.475L229.839,771.475" style="fill:none;fill-rule:nonzero;stroke:black;stroke-width:0.72px;"/>
    </g>
    <g transform="matrix(1.07744,0.785437,0.785437,-1.07744,-615.019,683.32)">
        <path d="M214.715,758.8L229.145,758.8" style="fill:none;fill-rule:nonzero;stroke:black;stroke-width:0.72px;"/>
    </g>
    <g transform="matrix(1.26737,0.414202,0.414202,-1.26737,-373.569,894.896)">
        <path d="M247.837,759.905L267.763,759.905" style="fill:none;fill-rule:nonzero;stroke:black;stroke-width:0.72px;"/>
    </g>
    <g transform="matrix(0.274681,1.30473,1.30473,-0.274681,-769.426,-92.5219)">
        <path d="M261.489,749.685L276.051,749.685" style="fill:none;fill-rule:nonzero;stroke:black;stroke-width:0.72px;"/>
    </g>
    <g transform="matrix(1.33333,0,0,1.33333,-75.8212,-955.233)">
        <path d="M261.36,749.28L265.68,753.12L265.44,753.6L262.08,750.72L260.16,752.64L263.52,755.52L263.04,756L258.96,752.16L261.36,749.28Z" style="stroke:black;stroke-width:0.02px;"/>
    </g>
    <g transform="matrix(1.33333,0,0,1.33333,-75.8212,-952.993)">
        <path d="M266.64,752.4L262.32,748.56L262.08,748.8L265.2,751.68L263.28,753.84L260.16,750.96L259.68,751.2L264,755.04L266.64,752.4Z" style="stroke:black;stroke-width:0.02px;"/>
    </g>
    <g transform="matrix(1.33333,0,0,1.33333,-75.8212,-70.7528)">
        <text x="75.12px" y="91.44px" style="font-family:'ArialMT', 'Arial', sans-serif;font-size:10px;">S</text>
    </g>
    <g transform="matrix(1.33333,0,0,1.33333,-75.8212,-70.7528)">
        <text x="94.08px" y="102.96px" style="font-family:'ArialMT', 'Arial', sans-serif;font-size:10px;">Cl</text>
    </g>
    <g transform="matrix(1.33333,0,0,1.33333,-75.8212,-70.7528)">
        <text x="228.72px" y="94.56px" style="font-family:'ArialMT', 'Arial', sans-serif;font-size:10px;">S</text>
    </g>
    <g transform="matrix(1.33333,0,0,1.33333,-75.8212,-70.7528)">
        <text x="267.6px" y="108.48px" style="font-family:'ArialMT', 'Arial', sans-serif;font-size:10px;">Cl</text>
    </g>
    <g transform="matrix(0.909302,-0.975166,0.975166,0.909302,-75.8212,-70.7528)">
        <text x="121.822px" y="255.328px" style="font-family:'ArialMT', 'Arial', sans-serif;font-size:10px;">:</text>
    </g>
    <g transform="matrix(1.33333,0,0,1.33333,-75.8212,-70.7528)">
        <text x="289.2px" y="80.16px" style="font-family:'ArialMT', 'Arial', sans-serif;font-size:18px;">+</text>
        <text x="310.56px" y="77.28px" style="font-family:'ArialMT', 'Arial', sans-serif;font-size:10px;">H</text>
        <text x="317.772px" y="79.92px" style="font-family:'ArialMT', 'Arial', sans-serif;font-size:8px;">2</text>
        <text x="322.093px" y="77.28px" style="font-family:'ArialMT', 'Arial', sans-serif;font-size:10px;">C	<tspan x="342px " y="77.28px ">C</tspan>H</text>
        <text x="356.416px" y="79.92px" style="font-family:'ArialMT', 'Arial', sans-serif;font-size:8px;">2</text>
    </g>
    <g transform="matrix(1.33333,0,0,1.33333,-75.8212,-70.7528)">
        <text x="448.8px" y="95.76px" style="font-family:'ArialMT', 'Arial', sans-serif;font-size:10px;">S</text>
    </g>
    <g transform="matrix(1.33333,0,0,1.33333,-75.8212,-70.7528)">
        <text x="487.68px" y="109.44px" style="font-family:'ArialMT', 'Arial', sans-serif;font-size:10px;">H</text>
    </g>
    <g transform="matrix(1.33333,0,0,1.33333,-75.8212,-70.7528)">
        <text x="498.24px" y="76.56px" style="font-family:'ArialMT', 'Arial', sans-serif;font-size:10px;">Cl</text>
    </g>
    <g transform="matrix(1.33333,0,0,1.33333,-75.8212,-70.7528)">
        <text x="474.48px" y="70.56px" style="font-family:'ArialMT', 'Arial', sans-serif;font-size:10px;">Cl</text>
    </g>
    <g transform="matrix(1.33333,0,0,1.33333,-75.8212,-70.7528)">
        <text x="467.04px" y="204.72px" style="font-family:'ArialMT', 'Arial', sans-serif;font-size:10px;">S</text>
    </g>
    <g transform="matrix(1.33333,0,0,1.33333,-75.8212,-70.7528)">
        <text x="501.84px" y="199.44px" style="font-family:'ArialMT', 'Arial', sans-serif;font-size:10px;">CH</text>
        <text x="516.24px" y="202.08px" style="font-family:'ArialMT', 'Arial', sans-serif;font-size:8px;">3</text>
    </g>
    <g transform="matrix(1.33333,0,0,1.33333,-75.8212,-993.633)">
        <path d="M330.24,767.04L341.04,767.04" style="fill:none;fill-rule:nonzero;stroke:black;stroke-width:0.72px;"/>
    </g>
    <g transform="matrix(1.33333,0,0,1.33333,-75.8212,-1002.59)">
        <path d="M330.24,770.4L341.04,770.4" style="fill:none;fill-rule:nonzero;stroke:black;stroke-width:0.72px;"/>
    </g>
    <g transform="matrix(1.33333,0,0,1.33333,-75.8212,-992.353)">
        <path d="M379.92,766.56L414,766.56" style="fill:none;fill-rule:nonzero;stroke:black;stroke-width:0.72px;"/>
    </g>
    <g transform="matrix(1.33333,0,0,1.33333,-75.8212,-1000.03)">
        <path d="M379.92,769.44L414,769.44" style="fill:none;fill-rule:nonzero;stroke:black;stroke-width:0.72px;"/>
    </g>
    <g transform="matrix(1.33333,0,0,1.33333,-75.8212,-996.193)">
        <path d="M409.44,764.4L417.36,768L409.44,771.6" style="fill:none;fill-rule:nonzero;stroke:black;stroke-width:0.72px;"/>
    </g>
    <g transform="matrix(-0.420432,-1.26531,-1.26531,0.420432,1715.84,287.447)">
        <path d="M455.112,771.38L475.028,771.38" style="fill:none;fill-rule:nonzero;stroke:black;stroke-width:0.72px;"/>
    </g>
    <g transform="matrix(-0.420563,-1.26527,-1.26527,0.420563,1708.93,285.148)">
        <path d="M454.43,770.32L469.33,770.32" style="fill:none;fill-rule:nonzero;stroke:black;stroke-width:0.72px;"/>
    </g>
    <g transform="matrix(1.3333,-0.00937059,-0.00937059,-1.3333,-68.4902,1056.02)">
        <path d="M442.01,780.76L461.93,780.76" style="fill:none;fill-rule:nonzero;stroke:black;stroke-width:0.72px;"/>
    </g>
    <g transform="matrix(1.07311,-0.791338,-0.791338,-1.07311,644.014,1220.53)">
        <path d="M455.058,757.605L469.632,757.605" style="fill:none;fill-rule:nonzero;stroke:black;stroke-width:0.72px;"/>
    </g>
    <g transform="matrix(0.403526,-1.2708,-1.2708,-0.403526,1312.4,892.621)">
        <path d="M429.033,771.195L448.957,771.195" style="fill:none;fill-rule:nonzero;stroke:black;stroke-width:0.72px;"/>
    </g>
    <g transform="matrix(0.403349,-1.27086,-1.27086,-0.403349,1314.2,897.525)">
        <path d="M434.741,770.175L449.649,770.175" style="fill:none;fill-rule:nonzero;stroke:black;stroke-width:0.72px;"/>
    </g>
    <g transform="matrix(1.08417,0.776108,0.776108,-1.08417,-553.582,520.111)">
        <path d="M434.617,757.455L449.203,757.455" style="fill:none;fill-rule:nonzero;stroke:black;stroke-width:0.72px;"/>
    </g>
    <g transform="matrix(1.271,0.402918,0.402918,-1.271,-351.825,812.024)">
        <path d="M467.744,758.92L487.666,758.92" style="fill:none;fill-rule:nonzero;stroke:black;stroke-width:0.72px;"/>
    </g>
    <g transform="matrix(0.286639,1.30216,1.30216,-0.286639,-539.221,-368.373)">
        <path d="M481.449,748.755L496.101,748.755" style="fill:none;fill-rule:nonzero;stroke:black;stroke-width:0.72px;"/>
    </g>
    <g transform="matrix(0.984817,-0.89884,-0.89884,-0.984817,779.31,1229.2)">
        <path d="M485.416,760.51L499.064,760.51" style="fill:none;fill-rule:nonzero;stroke:black;stroke-width:0.72px;"/>
    </g>
    <g transform="matrix(-0.286047,-1.30229,-1.30229,0.286047,1704.3,448.601)">
        <path d="M478.34,763.035L492.93,763.035" style="fill:none;fill-rule:nonzero;stroke:black;stroke-width:0.72px;"/>
    </g>
    <g transform="matrix(0,1.33333,1.33333,0,-391.181,-516.033)">
        <path d="M452.76,706.2L486.6,706.2" style="fill:none;fill-rule:nonzero;stroke:black;stroke-width:0.72px;"/>
    </g>
    <g transform="matrix(0,1.33333,1.33333,0,-387.341,-519.873)">
        <path d="M455.64,706.2L489.48,706.2" style="fill:none;fill-rule:nonzero;stroke:black;stroke-width:0.72px;"/>
    </g>
    <g transform="matrix(1.33333,0,0,1.33333,-75.8212,-787.873)">
        <path d="M474.72,685.92L471.12,693.84L467.52,685.92" style="fill:none;fill-rule:nonzero;stroke:black;stroke-width:0.72px;"/>
    </g>
    <g transform="matrix(-0.404327,-1.27055,-1.27055,0.404327,1605.98,515.458)">
        <path d="M473.651,662.27L493.569,662.27" style="fill:none;fill-rule:nonzero;stroke:black;stroke-width:0.72px;"/>
    </g>
    <g transform="matrix(-0.404419,-1.27052,-1.27052,0.404419,1599.14,513.089)">
        <path d="M472.959,661.25L487.861,661.25" style="fill:none;fill-rule:nonzero;stroke:black;stroke-width:0.72px;"/>
    </g>
    <g transform="matrix(1.33331,0.00803198,0.00803198,-1.33331,-81.2059,1048.01)">
        <path d="M460.67,671.82L480.59,671.82" style="fill:none;fill-rule:nonzero;stroke:black;stroke-width:0.72px;"/>
    </g>
    <g transform="matrix(1.08313,-0.777563,-0.777563,-1.08313,548.698,1263.31)">
        <path d="M473.344,648.505L488.006,648.505" style="fill:none;fill-rule:nonzero;stroke:black;stroke-width:0.72px;"/>
    </g>
    <g transform="matrix(0.419429,-1.26564,-1.26564,-0.419429,1180.71,1025.5)">
        <path d="M447.569,662.42L467.501,662.42" style="fill:none;fill-rule:nonzero;stroke:black;stroke-width:0.72px;"/>
    </g>
    <g transform="matrix(0.41949,-1.26562,-1.26562,-0.41949,1182.25,1030.53)">
        <path d="M453.272,661.365L468.178,661.365" style="fill:none;fill-rule:nonzero;stroke:black;stroke-width:0.72px;"/>
    </g>
    <g transform="matrix(1.07456,0.789362,0.789362,-1.07456,-468.76,520.655)">
        <path d="M452.994,648.67L467.486,648.67" style="fill:none;fill-rule:nonzero;stroke:black;stroke-width:0.72px;"/>
    </g>
    <g transform="matrix(1.26597,0.418437,0.418437,-1.26597,-314.724,801.389)">
        <path d="M486.251,650.425L501.259,650.425" style="fill:none;fill-rule:nonzero;stroke:black;stroke-width:0.72px;"/>
    </g>
</svg>
