<?xml version="1.0" encoding="UTF-8" standalone="no"?>
<!DOCTYPE svg PUBLIC "-//W3C//DTD SVG 1.1//EN" "http://www.w3.org/Graphics/SVG/1.1/DTD/svg11.dtd">
<svg width="100%" height="100%" viewBox="0 0 270 55" version="1.1" xmlns="http://www.w3.org/2000/svg" xmlns:xlink="http://www.w3.org/1999/xlink" xml:space="preserve" xmlns:serif="http://www.serif.com/" style="fill-rule:evenodd;clip-rule:evenodd;stroke-linecap:round;stroke-linejoin:round;stroke-miterlimit:10;">
    <g transform="matrix(1.33333,0,0,1.33333,-76.1745,-76.6528)">
        <text x="109.2px" y="71.76px" style="font-family:'ArialMT', 'Arial', sans-serif;font-size:10px;">O<tspan x="117.12px " y="71.76px ">H</tspan></text>
    </g>
    <g transform="matrix(1.33333,0,0,1.33333,-76.1745,-76.6528)">
        <text x="162px" y="73.44px" style="font-family:'ArialMT', 'Arial', sans-serif;font-size:10px;">CH</text>
        <text x="176.4px" y="76.08px" style="font-family:'ArialMT', 'Arial', sans-serif;font-size:6px;">2</text>
        <text x="180px" y="73.44px" style="font-family:'ArialMT', 'Arial', sans-serif;font-size:10px;">I</text>
        <text x="182.88px" y="76.08px" style="font-family:'ArialMT', 'Arial', sans-serif;font-size:6px;">2</text>
        <text x="157.68px" y="91.92px" style="font-family:'ArialMT', 'Arial', sans-serif;font-size:10px;">Z</text>
        <text x="163.92px" y="91.92px" style="font-family:'ArialMT', 'Arial', sans-serif;font-size:10px;">n</text>
        <text x="172.278px" y="91.92px" style="font-family:'ArialMT', 'Arial', sans-serif;font-size:10px;">/</text>
        <text x="178.145px" y="91.92px" style="font-family:'ArialMT', 'Arial', sans-serif;font-size:10px;">Cu</text>
    </g>
    <g transform="matrix(1.33333,0,0,1.33333,-76.1745,-76.6528)">
        <text x="229.68px" y="82.8px" style="font-family:'ArialMT', 'Arial', sans-serif;font-size:10px;">T<tspan x="235.92px " y="82.8px ">M</tspan></text>
    </g>
    <g transform="matrix(-1.07962,0.782437,0.782437,1.07962,-512.917,-876.165)">
        <path d="M59.985,773.885L79.905,773.885" style="fill:none;fill-rule:nonzero;stroke:black;stroke-width:0.72px;"/>
    </g>
    <g transform="matrix(-0.410979,-1.26841,-1.26841,0.410979,999.293,-194.884)">
        <path d="M54.99,758.565L74.91,758.565" style="fill:none;fill-rule:nonzero;stroke:black;stroke-width:0.72px;"/>
    </g>
    <g transform="matrix(-0.411427,-1.26827,-1.26827,0.411427,1006.11,-192.98)">
        <path d="M60.696,759.6L75.604,759.6" style="fill:none;fill-rule:nonzero;stroke:black;stroke-width:0.72px;"/>
    </g>
    <g transform="matrix(-1.0782,-0.784388,-0.784388,1.0782,738.388,-752.797)">
        <path d="M76.104,773.87L96.026,773.87" style="fill:none;fill-rule:nonzero;stroke:black;stroke-width:0.72px;"/>
    </g>
    <g transform="matrix(-1.33333,-0.00133802,-0.00133802,1.33333,132.788,-951.535)">
        <path d="M68.02,749.08L87.95,749.08" style="fill:none;fill-rule:nonzero;stroke:black;stroke-width:0.72px;"/>
    </g>
    <g transform="matrix(0.412993,-1.26776,-1.26776,-0.412993,969.255,463.202)">
        <path d="M81.075,758.54L100.995,758.54" style="fill:none;fill-rule:nonzero;stroke:black;stroke-width:0.72px;"/>
    </g>
    <g transform="matrix(1.26855,-0.410571,-0.410571,-1.26855,246.641,1037.54)">
        <path d="M93.759,770.295L108.601,770.295" style="fill:none;fill-rule:nonzero;stroke:black;stroke-width:0.72px;"/>
    </g>
    <g transform="matrix(1.33333,0,0,1.33333,-76.1745,-986.093)">
        <path d="M142.56,762L211.68,762" style="fill:none;fill-rule:nonzero;stroke:black;stroke-width:0.72px;"/>
    </g>
    <g transform="matrix(1.2958,0.314133,0.314133,-1.2958,-307.748,952.055)">
        <path d="M203.419,762.933L211.569,762.933L204.324,759.201L205.271,761.406L203.419,762.933Z" style="stroke:black;stroke-width:0.72px;"/>
    </g>
</svg>
