<?xml version="1.0" encoding="UTF-8" standalone="no"?>
<!DOCTYPE svg PUBLIC "-//W3C//DTD SVG 1.1//EN" "http://www.w3.org/Graphics/SVG/1.1/DTD/svg11.dtd">
<svg width="100%" height="100%" viewBox="0 0 630 60" version="1.1" xmlns="http://www.w3.org/2000/svg" xmlns:xlink="http://www.w3.org/1999/xlink" xml:space="preserve" xmlns:serif="http://www.serif.com/" style="fill-rule:evenodd;clip-rule:evenodd;stroke-linecap:round;stroke-linejoin:round;stroke-miterlimit:10;">
    <g transform="matrix(1.33333,0,0,1.33333,-83.8267,-59.7646)">
        <text x="122.16px" y="55.44px" style="font-family:'ArialMT', 'Arial', sans-serif;font-size:10px;">O</text>
        <text x="130.08px" y="55.44px" style="font-family:'ArialMT', 'Arial', sans-serif;font-size:10px;">T<tspan x="136.32px " y="55.44px ">s</tspan></text>
    </g>
    <g transform="matrix(1.33333,0,0,1.33333,-83.8267,-59.7646)">
        <text x="264.24px" y="55.92px" style="font-family:'ArialMT', 'Arial', sans-serif;font-size:10px;">O<tspan x="272.16px " y="55.92px ">H</tspan></text>
    </g>
    <g transform="matrix(1.33333,0,0,1.33333,-83.8267,-59.7646)">
        <text x="404.64px" y="65.28px" style="font-family:'ArialMT', 'Arial', sans-serif;font-size:10px;">O<tspan x="412.56px " y="65.28px ">H</tspan></text>
    </g>
    <g transform="matrix(0.666412,-1.15485,-1.15485,-0.666412,847.988,636.016)">
        <path d="M62.336,765.12L82.264,765.12" style="fill:none;fill-rule:nonzero;stroke:black;stroke-width:0.72px;"/>
    </g>
    <g transform="matrix(1.33333,0,0,1.33333,-83.8267,-954.511)">
        <path d="M67.32,756.49L87.24,756.49" style="fill:none;fill-rule:nonzero;stroke:black;stroke-width:0.72px;"/>
    </g>
    <g transform="matrix(-0.892323,0.990726,0.990726,0.892323,-670.9,-758.942)">
        <path d="M73.986,781.15L93.904,781.15" style="fill:none;fill-rule:nonzero;stroke:black;stroke-width:0.72px;"/>
    </g>
    <g transform="matrix(-0.666412,-1.15485,-1.15485,0.666412,964.269,-372.252)">
        <path d="M72.296,765.12L92.224,765.12" style="fill:none;fill-rule:nonzero;stroke:black;stroke-width:0.72px;"/>
    </g>
    <g transform="matrix(-1.21814,-0.542139,-0.542139,1.21814,595.889,-884.778)">
        <path d="M89.749,784.5L109.671,784.5" style="fill:none;fill-rule:nonzero;stroke:black;stroke-width:0.72px;"/>
    </g>
    <g transform="matrix(-1.3041,0.277681,0.277681,1.3041,-38.6746,-964.798)">
        <path d="M87.022,758.565L106.948,758.565" style="fill:none;fill-rule:nonzero;stroke:black;stroke-width:0.72px;"/>
    </g>
    <g transform="matrix(0.139231,-1.32604,-1.32604,-0.139231,1066.64,285.594)">
        <path d="M97.811,770.545L117.729,770.545" style="fill:none;fill-rule:nonzero;stroke:black;stroke-width:0.72px;"/>
    </g>
    <g transform="matrix(1.22452,-0.527571,-0.527571,-1.22452,342.747,1038.3)">
        <path d="M107.646,783.419L122.052,783.419L121.854,785.083L121.661,786.756L107.646,783.419Z" style="stroke:black;stroke-width:0.24px;"/>
    </g>
    <g transform="matrix(1.33333,0,0,1.33333,-83.8267,-997.365)">
        <path d="M153.36,772.56L187.44,772.56" style="fill:none;fill-rule:nonzero;stroke:black;stroke-width:0.72px;"/>
    </g>
    <g transform="matrix(1.33333,0,0,1.33333,-83.8267,-1005.04)">
        <path d="M153.36,775.44L187.44,775.44" style="fill:none;fill-rule:nonzero;stroke:black;stroke-width:0.72px;"/>
    </g>
    <g transform="matrix(1.33333,0,0,1.33333,-83.8267,-1001.2)">
        <path d="M182.88,770.4L190.8,774L182.88,777.6" style="fill:none;fill-rule:nonzero;stroke:black;stroke-width:0.72px;"/>
    </g>
    <g transform="matrix(0.666412,-1.15485,-1.15485,-0.666412,942.19,800.417)">
        <path d="M204.416,764.64L224.344,764.64" style="fill:none;fill-rule:nonzero;stroke:black;stroke-width:0.72px;"/>
    </g>
    <g transform="matrix(1.33333,0,0,1.33333,-83.8267,-953.231)">
        <path d="M209.4,756.01L229.32,756.01" style="fill:none;fill-rule:nonzero;stroke:black;stroke-width:0.72px;"/>
    </g>
    <g transform="matrix(-0.892323,0.990726,0.990726,0.892323,-354.203,-898.636)">
        <path d="M216.066,780.67L235.984,780.67" style="fill:none;fill-rule:nonzero;stroke:black;stroke-width:0.72px;"/>
    </g>
    <g transform="matrix(-0.666412,-1.15485,-1.15485,0.666412,1247.84,-207.212)">
        <path d="M214.376,764.64L234.304,764.64" style="fill:none;fill-rule:nonzero;stroke:black;stroke-width:0.72px;"/>
    </g>
    <g transform="matrix(-1.21814,-0.542139,-0.542139,1.21814,958.142,-806.526)">
        <path d="M231.829,784.02L251.751,784.02" style="fill:none;fill-rule:nonzero;stroke:black;stroke-width:0.72px;"/>
    </g>
    <g transform="matrix(-1.3041,0.277681,0.277681,1.3041,336.185,-1002.99)">
        <path d="M229.102,758.085L249.028,758.085" style="fill:none;fill-rule:nonzero;stroke:black;stroke-width:0.72px;"/>
    </g>
    <g transform="matrix(-1.30414,0.277477,0.277477,1.30414,333.592,-1011.44)">
        <path d="M230.917,761.37L245.813,761.37" style="fill:none;fill-rule:nonzero;stroke:black;stroke-width:0.72px;"/>
    </g>
    <g transform="matrix(0.139231,-1.32604,-1.32604,-0.139231,1235.66,474.571)">
        <path d="M239.891,770.065L259.809,770.065" style="fill:none;fill-rule:nonzero;stroke:black;stroke-width:0.72px;"/>
    </g>
    <g transform="matrix(1.22452,-0.527571,-0.527571,-1.22452,357.954,1113.31)">
        <path d="M249.726,782.939L264.132,782.939L263.934,784.603L263.741,786.276L249.726,782.939Z" style="stroke:black;stroke-width:0.24px;"/>
    </g>
    <g transform="matrix(1.33333,0,0,1.33333,-83.8267,-996.725)">
        <path d="M297.12,772.32L331.2,772.32" style="fill:none;fill-rule:nonzero;stroke:black;stroke-width:0.72px;"/>
    </g>
    <g transform="matrix(1.33333,0,0,1.33333,-83.8267,-1004.4)">
        <path d="M297.12,775.2L331.2,775.2" style="fill:none;fill-rule:nonzero;stroke:black;stroke-width:0.72px;"/>
    </g>
    <g transform="matrix(1.33333,0,0,1.33333,-83.8267,-1000.56)">
        <path d="M326.64,770.16L334.56,773.76L326.64,777.36" style="fill:none;fill-rule:nonzero;stroke:black;stroke-width:0.72px;"/>
    </g>
    <g transform="matrix(-1.07962,0.782437,0.782437,1.07962,187.242,-1106.08)">
        <path d="M355.425,780.365L375.345,780.365" style="fill:none;fill-rule:nonzero;stroke:black;stroke-width:0.72px;"/>
    </g>
    <g transform="matrix(-0.410979,-1.26841,-1.26841,0.410979,1515.2,185.441)">
        <path d="M350.43,765.045L370.35,765.045" style="fill:none;fill-rule:nonzero;stroke:black;stroke-width:0.72px;"/>
    </g>
    <g transform="matrix(-0.411427,-1.26827,-1.26827,0.411427,1522.15,187.299)">
        <path d="M356.136,766.08L371.044,766.08" style="fill:none;fill-rule:nonzero;stroke:black;stroke-width:0.72px;"/>
    </g>
    <g transform="matrix(-1.0782,-0.784388,-0.784388,1.0782,1448.28,-519.796)">
        <path d="M371.544,780.35L391.466,780.35" style="fill:none;fill-rule:nonzero;stroke:black;stroke-width:0.72px;"/>
    </g>
    <g transform="matrix(-1.33333,-0.00133802,-0.00133802,1.33333,912.984,-951.531)">
        <path d="M363.46,755.56L383.39,755.56" style="fill:none;fill-rule:nonzero;stroke:black;stroke-width:0.72px;"/>
    </g>
    <g transform="matrix(0.412993,-1.26776,-1.26776,-0.412993,1241.72,848.674)">
        <path d="M376.515,765.02L396.435,765.02" style="fill:none;fill-rule:nonzero;stroke:black;stroke-width:0.72px;"/>
    </g>
    <g transform="matrix(1.26855,-0.410571,-0.410571,-1.26855,260.79,1175.31)">
        <path d="M389.199,776.775L404.041,776.775" style="fill:none;fill-rule:nonzero;stroke:black;stroke-width:0.72px;"/>
    </g>
    <g transform="matrix(1.33333,0,0,1.33333,-83.8267,-998.645)">
        <path d="M436.8,773.04L470.88,773.04" style="fill:none;fill-rule:nonzero;stroke:black;stroke-width:0.72px;"/>
    </g>
    <g transform="matrix(1.33333,0,0,1.33333,-83.8267,-1006.32)">
        <path d="M436.8,775.92L470.88,775.92" style="fill:none;fill-rule:nonzero;stroke:black;stroke-width:0.72px;"/>
    </g>
    <g transform="matrix(1.33333,0,0,1.33333,-83.8267,-1002.48)">
        <path d="M466.32,770.88L474.24,774.48L466.32,778.08" style="fill:none;fill-rule:nonzero;stroke:black;stroke-width:0.72px;"/>
    </g>
    <g transform="matrix(-1.07962,0.782437,0.782437,1.07962,528.337,-1216.68)">
        <path d="M496.785,780.365L516.705,780.365" style="fill:none;fill-rule:nonzero;stroke:black;stroke-width:0.72px;"/>
    </g>
    <g transform="matrix(-0.410979,-1.26841,-1.26841,0.410979,1761.78,364.744)">
        <path d="M491.79,765.045L511.71,765.045" style="fill:none;fill-rule:nonzero;stroke:black;stroke-width:0.72px;"/>
    </g>
    <g transform="matrix(-0.411427,-1.26827,-1.26827,0.411427,1768.79,366.582)">
        <path d="M497.496,766.08L512.404,766.08" style="fill:none;fill-rule:nonzero;stroke:black;stroke-width:0.72px;"/>
    </g>
    <g transform="matrix(-1.0782,-0.784388,-0.784388,1.0782,1789.18,-408.915)">
        <path d="M512.904,780.35L532.826,780.35" style="fill:none;fill-rule:nonzero;stroke:black;stroke-width:0.72px;"/>
    </g>
    <g transform="matrix(-1.33333,-0.00133802,-0.00133802,1.33333,1289.94,-951.342)">
        <path d="M504.82,755.56L524.75,755.56" style="fill:none;fill-rule:nonzero;stroke:black;stroke-width:0.72px;"/>
    </g>
    <g transform="matrix(0.412993,-1.26776,-1.26776,-0.412993,1371.82,1027.88)">
        <path d="M517.875,765.02L537.795,765.02" style="fill:none;fill-rule:nonzero;stroke:black;stroke-width:0.72px;"/>
    </g>
    <g transform="matrix(0.412499,-1.26792,-1.26792,-0.412499,1370.57,1022.58)">
        <path d="M517.184,766.055L532.086,766.055" style="fill:none;fill-rule:nonzero;stroke:black;stroke-width:0.72px;"/>
    </g>
</svg>
