<?xml version="1.0" encoding="UTF-8" standalone="no"?>
<!DOCTYPE svg PUBLIC "-//W3C//DTD SVG 1.1//EN" "http://www.w3.org/Graphics/SVG/1.1/DTD/svg11.dtd">
<svg width="100%" height="100%" viewBox="0 0 340 100" version="1.1" xmlns="http://www.w3.org/2000/svg" xmlns:xlink="http://www.w3.org/1999/xlink" xml:space="preserve" xmlns:serif="http://www.serif.com/" style="fill-rule:evenodd;clip-rule:evenodd;stroke-linecap:round;stroke-linejoin:round;stroke-miterlimit:10;">
    <g transform="matrix(1.33333,0,0,1.33333,-96.2411,-16.3974)">
        <text x="76.08px" y="81.84px" style="font-family:'ArialMT', 'Arial', sans-serif;font-size:10px;">Ph</text>
    </g>
    <g transform="matrix(1.33333,0,0,1.33333,-96.2411,-16.3974)">
        <text x="150.96px" y="81.84px" style="font-family:'ArialMT', 'Arial', sans-serif;font-size:10px;">Ph</text>
    </g>
    <g transform="matrix(1.33333,0,0,1.33333,-96.2411,-16.3974)">
        <text x="133.2px" y="52.08px" style="font-family:'ArialMT', 'Arial', sans-serif;font-size:10px;">O</text>
    </g>
    <g transform="matrix(1.33333,0,0,1.33333,-96.2411,-16.3974)">
        <text x="211.44px" y="40.08px" style="font-family:'ArialMT', 'Arial', sans-serif;font-size:10px;">C</text>
    </g>
    <g transform="matrix(1.33333,0,0,1.33333,-96.2411,-16.3974)">
        <text x="199.92px" y="40.08px" style="font-family:'ArialMT', 'Arial', sans-serif;font-size:10px;">H</text>
        <text x="207.133px" y="42.72px" style="font-family:'ArialMT', 'Arial', sans-serif;font-size:8px;">2</text>
        <text x="218.64px" y="33.12px" style="font-family:'ArialMT', 'Arial', sans-serif;font-size:8px;">–</text>
        <text x="231.6px" y="40.08px" style="font-family:'ArialMT', 'Arial', sans-serif;font-size:10px;"><tspan x="231.6px " y="40.08px ">S</tspan></text>
        <text x="238.319px" y="33.12px" style="font-family:'ArialMT', 'Arial', sans-serif;font-size:8px;">+</text>
        <text x="241.2px" y="57.12px" style="font-family:'ArialMT', 'Arial', sans-serif;font-size:10px;">CH</text>
        <text x="255.6px" y="59.76px" style="font-family:'ArialMT', 'Arial', sans-serif;font-size:8px;">3</text>
    </g>
    <g transform="matrix(1.33333,0,0,1.33333,-96.2411,-16.3974)">
        <text x="231.6px" y="22.8px" style="font-family:'ArialMT', 'Arial', sans-serif;font-size:10px;">CH</text>
        <text x="246px" y="25.44px" style="font-family:'ArialMT', 'Arial', sans-serif;font-size:8px;">3</text>
    </g>
    <g transform="matrix(0.0140006,1.33326,-1.33326,0.0140006,-96.2411,-16.3974)">
        <text x="31.376px" y="-212.802px" style="font-family:'ArialMT', 'Arial', sans-serif;font-size:10px;">:</text>
    </g>
    <g transform="matrix(1.33333,0,0,1.33333,-96.2411,-16.3974)">
        <text x="298.08px" y="71.52px" style="font-family:'ArialMT', 'Arial', sans-serif;font-size:10px;">T<tspan x="304.32px " y="71.52px ">M</tspan></text>
    </g>
    <g transform="matrix(-1.15469,0.666693,0.666693,1.15469,-370.785,-873.763)">
        <path d="M88.24,770.06L103.76,770.06" style="fill:none;fill-rule:nonzero;stroke:black;stroke-width:0.72px;"/>
    </g>
    <g transform="matrix(-1.15468,-0.666702,-0.666702,1.15468,693.454,-732.786)">
        <path d="M101.386,768.96L121.304,768.96" style="fill:none;fill-rule:nonzero;stroke:black;stroke-width:0.72px;"/>
    </g>
    <g transform="matrix(-1.15463,-0.666781,-0.666781,1.15463,698.115,-740.375)">
        <path d="M103.177,772.285L121.433,772.285" style="fill:none;fill-rule:nonzero;stroke:black;stroke-width:0.72px;"/>
    </g>
    <g transform="matrix(-1.15468,0.666702,0.666702,1.15468,-288.962,-892.755)">
        <path d="M118.636,768.96L138.554,768.96" style="fill:none;fill-rule:nonzero;stroke:black;stroke-width:0.72px;"/>
    </g>
    <g transform="matrix(1.15464,0.666766,0.666766,-1.15464,-584.156,872.772)">
        <path d="M136.231,770.25L150.989,770.25" style="fill:none;fill-rule:nonzero;stroke:black;stroke-width:0.72px;"/>
    </g>
    <g transform="matrix(0,-1.33333,-1.33333,0,1130.68,249.643)">
        <path d="M131.55,781.29L146.25,781.29" style="fill:none;fill-rule:nonzero;stroke:black;stroke-width:0.72px;"/>
    </g>
    <g transform="matrix(0,-1.33333,-1.33333,0,1126.2,245.163)">
        <path d="M128.19,781.29L142.89,781.29" style="fill:none;fill-rule:nonzero;stroke:black;stroke-width:0.72px;"/>
    </g>
    <g transform="matrix(1.33333,0,0,1.33333,-96.2411,-959.117)">
        <path d="M177.12,774.48L284.4,774.48" style="fill:none;fill-rule:nonzero;stroke:black;stroke-width:0.72px;"/>
    </g>
    <g transform="matrix(1.2958,0.314133,0.314133,-1.2958,-329.005,988.998)">
        <path d="M276.139,775.413L284.289,775.413L277.044,771.681L277.991,773.886L276.139,775.413Z" style="stroke:black;stroke-width:0.72px;"/>
    </g>
    <g transform="matrix(1.33333,0,0,1.33333,-96.2411,-1042.96)">
        <path d="M219.6,805.92L230.64,805.92" style="fill:none;fill-rule:nonzero;stroke:black;stroke-width:0.72px;"/>
    </g>
    <g transform="matrix(0.666693,1.15469,1.15469,-0.666693,-856.888,297.597)">
        <path d="M236.07,797.28L243.83,797.28" style="fill:none;fill-rule:nonzero;stroke:black;stroke-width:0.72px;"/>
    </g>
    <g transform="matrix(0.0268145,-1.33306,-1.33306,-0.0268145,1296.67,355.538)">
        <path d="M231.659,814.44L238.621,814.44" style="fill:none;fill-rule:nonzero;stroke:black;stroke-width:0.72px;"/>
    </g>
</svg>
