<?xml version="1.0" encoding="UTF-8" standalone="no"?>
<!DOCTYPE svg PUBLIC "-//W3C//DTD SVG 1.1//EN" "http://www.w3.org/Graphics/SVG/1.1/DTD/svg11.dtd">
<svg width="100%" height="100%" viewBox="0 0 750 230" version="1.1" xmlns="http://www.w3.org/2000/svg" xmlns:xlink="http://www.w3.org/1999/xlink" xml:space="preserve" xmlns:serif="http://www.serif.com/" style="fill-rule:evenodd;clip-rule:evenodd;stroke-linecap:round;stroke-linejoin:round;stroke-miterlimit:10;">
    <g transform="matrix(1.33333,0,0,1.33333,-51.7661,-57.2491)">
        <text x="43.68px" y="76.8px" style="font-family:'ArialMT', 'Arial', sans-serif;font-size:10px;">Ph</text>
    </g>
    <g transform="matrix(1.33333,0,0,1.33333,-51.7661,-57.2491)">
        <text x="113.76px" y="111.36px" style="font-family:'ArialMT', 'Arial', sans-serif;font-size:10px;">Ph</text>
    </g>
    <g transform="matrix(1.33333,0,0,1.33333,-51.7661,-57.2491)">
        <text x="112.32px" y="77.04px" style="font-family:'ArialMT', 'Arial', sans-serif;font-size:10px;">O</text>
    </g>
    <g transform="matrix(1.33333,0,0,1.33333,-51.7661,-57.2491)">
        <text x="200.16px" y="99.84px" style="font-family:'ArialMT', 'Arial', sans-serif;font-size:10px;">Ph</text>
    </g>
    <g transform="matrix(1.33333,0,0,1.33333,-51.7661,-57.2491)">
        <text x="275.04px" y="99.84px" style="font-family:'ArialMT', 'Arial', sans-serif;font-size:10px;">Ph</text>
    </g>
    <g transform="matrix(1.33333,0,0,1.33333,-51.7661,-57.2491)">
        <text x="257.28px" y="70.08px" style="font-family:'ArialMT', 'Arial', sans-serif;font-size:10px;">O</text>
    </g>
    <g transform="matrix(1.33333,0,0,1.33333,-51.7661,-57.2491)">
        <text x="352.8px" y="99.12px" style="font-family:'ArialMT', 'Arial', sans-serif;font-size:10px;">Ph</text>
    </g>
    <g transform="matrix(1.33333,0,0,1.33333,-51.7661,-57.2491)">
        <text x="427.68px" y="99.12px" style="font-family:'ArialMT', 'Arial', sans-serif;font-size:10px;">Ph</text>
    </g>
    <g transform="matrix(1.33333,0,0,1.33333,-51.7661,-57.2491)">
        <text x="375.36px" y="69.36px" style="font-family:'ArialMT', 'Arial', sans-serif;font-size:10px;">O<tspan x="383.28px " y="69.36px ">H</tspan></text>
    </g>
    <g transform="matrix(1.33333,0,0,1.33333,-51.7661,-57.2491)">
        <text x="409.92px" y="69.36px" style="font-family:'ArialMT', 'Arial', sans-serif;font-size:10px;">O</text>
    </g>
    <g transform="matrix(0.00693324,-1.33332,1.33332,0.00693324,-51.7661,-57.2491)">
        <text x="-59.03px" y="380.952px" style="font-family:'ArialMT', 'Arial', sans-serif;font-size:10px;">:</text>
    </g>
    <g transform="matrix(1.33333,0,0,1.33333,-51.7661,-57.2491)">
        <text x="372.24px" y="67.68px" style="font-family:'ArialMT', 'Arial', sans-serif;font-size:10px;">:</text>
    </g>
    <g transform="matrix(1.33333,0,0,1.33333,-51.7661,-57.2491)">
        <text x="453.84px" y="92.64px" style="font-family:'ArialMT', 'Arial', sans-serif;font-size:18px;">+</text>
        <text x="475.2px" y="90px" style="font-family:'ArialMT', 'Arial', sans-serif;font-size:10px;">CH</text>
        <text x="489.621px" y="92.64px" style="font-family:'ArialMT', 'Arial', sans-serif;font-size:6px;">2</text>
    </g>
    <g transform="matrix(0.0233344,1.33313,-1.33313,0.0233344,-51.7661,-57.2491)">
        <text x="87.236px" y="-476.146px" style="font-family:'ArialMT', 'Arial', sans-serif;font-size:10px;">:</text>
    </g>
    <g transform="matrix(1.33333,0,0,1.33333,-51.7661,-57.2491)">
        <text x="340.08px" y="208.56px" style="font-family:'ArialMT', 'Arial', sans-serif;font-size:10px;">O</text>
        <text x="348px" y="201.6px" style="font-family:'ArialMT', 'Arial', sans-serif;font-size:8px;">+</text>
        <text x="360.24px" y="208.56px" style="font-family:'ArialMT', 'Arial', sans-serif;font-size:10px;"><tspan x="360.24px " y="208.56px ">H</tspan></text>
    </g>
    <g transform="matrix(1.33333,0,0,1.33333,-51.7661,-57.2491)">
        <text x="304.56px" y="191.28px" style="font-family:'ArialMT', 'Arial', sans-serif;font-size:10px;">Ph</text>
    </g>
    <g transform="matrix(1.33333,0,0,1.33333,-51.7661,-57.2491)">
        <text x="391.68px" y="193.68px" style="font-family:'ArialMT', 'Arial', sans-serif;font-size:18px;">+</text>
    </g>
    <g transform="matrix(1.33333,0,0,1.33333,-51.7661,-57.2491)">
        <text x="462.24px" y="207.84px" style="font-family:'ArialMT', 'Arial', sans-serif;font-size:10px;">Ph</text>
    </g>
    <g transform="matrix(1.33333,0,0,1.33333,-51.7661,-57.2491)">
        <text x="444.48px" y="178.08px" style="font-family:'ArialMT', 'Arial', sans-serif;font-size:10px;">O</text>
    </g>
    <g transform="matrix(1.33333,0,0,1.33333,-51.7661,-57.2491)">
        <text x="427.44px" y="207.84px" style="font-family:'ArialMT', 'Arial', sans-serif;font-size:10px;">C</text>
    </g>
    <g transform="matrix(1.33333,0,0,1.33333,-51.7661,-57.2491)">
        <text x="415.92px" y="207.84px" style="font-family:'ArialMT', 'Arial', sans-serif;font-size:10px;">H</text>
        <text x="423.12px" y="210.48px" style="font-family:'ArialMT', 'Arial', sans-serif;font-size:8px;">2</text>
    </g>
    <g transform="matrix(1.33333,0,0,1.33333,-51.7661,-57.2491)">
        <text x="461.76px" y="168px" style="font-family:'ArialMT', 'Arial', sans-serif;font-size:10px;">CH</text>
        <text x="476.16px" y="170.64px" style="font-family:'ArialMT', 'Arial', sans-serif;font-size:8px;">3</text>
    </g>
    <g transform="matrix(1.33333,0,0,1.33333,-51.7661,-57.2491)">
        <text x="527.28px" y="156.72px" style="font-family:'ArialMT', 'Arial', sans-serif;font-size:10px;">C</text>
    </g>
    <g transform="matrix(1.33333,0,0,1.33333,-51.7661,-57.2491)">
        <text x="515.76px" y="156.72px" style="font-family:'ArialMT', 'Arial', sans-serif;font-size:10px;">H</text>
        <text x="522.974px" y="159.36px" style="font-family:'ArialMT', 'Arial', sans-serif;font-size:8px;">2</text>
        <text x="534.48px" y="149.76px" style="font-family:'ArialMT', 'Arial', sans-serif;font-size:8px;">–</text>
        <text x="547.44px" y="156.72px" style="font-family:'ArialMT', 'Arial', sans-serif;font-size:10px;"><tspan x="547.44px " y="156.72px ">S</tspan></text>
        <text x="554.135px" y="149.76px" style="font-family:'ArialMT', 'Arial', sans-serif;font-size:8px;">+</text>
        <text x="567.12px" y="156.72px" style="font-family:'ArialMT', 'Arial', sans-serif;font-size:10px;"><tspan x="567.12px " y="156.72px ">C</tspan>H</text>
        <text x="557.04px" y="173.76px" style="font-family:'ArialMT', 'Arial', sans-serif;font-size:10px;">CH</text>
        <text x="571.44px" y="176.4px" style="font-family:'ArialMT', 'Arial', sans-serif;font-size:8px;">3</text>
    </g>
    <g transform="matrix(1.33333,0,0,1.33333,-51.7661,-57.2491)">
        <text x="581.52px" y="159.36px" style="font-family:'ArialMT', 'Arial', sans-serif;font-size:8px;">3</text>
    </g>
    <g transform="matrix(1.33333,0,0,1.33333,-51.7661,-57.2491)">
        <text x="546.96px" y="136.8px" style="font-family:'ArialMT', 'Arial', sans-serif;font-size:10px;">O</text>
    </g>
    <g transform="matrix(-0.0140006,-1.33326,1.33326,-0.0140006,-51.7661,-57.2491)">
        <text x="-153.799px" y="530.494px" style="font-family:'ArialMT', 'Arial', sans-serif;font-size:10px;">:</text>
    </g>
    <g transform="matrix(0.309189,-1.29699,-1.29699,-0.309189,1026.05,402.27)">
        <path d="M79.338,760.5L99.262,760.5" style="fill:none;fill-rule:nonzero;stroke:black;stroke-width:0.72px;"/>
    </g>
    <g transform="matrix(1.27778,-0.380858,-0.380858,-1.27778,245.042,1053.94)">
        <path d="M72.105,767.345L92.025,767.345" style="fill:none;fill-rule:nonzero;stroke:black;stroke-width:0.72px;"/>
    </g>
    <g transform="matrix(0.968552,0.916343,0.916343,-0.968552,-716.945,715.85)">
        <path d="M69.795,757.655L89.715,757.655" style="fill:none;fill-rule:nonzero;stroke:black;stroke-width:0.72px;"/>
    </g>
    <g transform="matrix(-1.29715,-0.308528,-0.308528,1.29715,354.87,-930.622)">
        <path d="M56.662,766.36L72.738,766.36" style="fill:none;fill-rule:nonzero;stroke:black;stroke-width:0.72px;"/>
    </g>
    <g transform="matrix(1.33265,0.0428374,0.0428374,-1.33265,-83.8485,1060.64)">
        <path d="M86.985,750.49L106.905,750.49" style="fill:none;fill-rule:nonzero;stroke:black;stroke-width:0.72px;"/>
    </g>
    <g transform="matrix(0.736418,1.11152,1.11152,-0.736418,-813.877,497.971)">
        <path d="M104.083,744.925L116.667,744.925" style="fill:none;fill-rule:nonzero;stroke:black;stroke-width:0.72px;"/>
    </g>
    <g transform="matrix(0.601947,-1.18972,-1.18972,-0.601947,930.234,645.245)">
        <path d="M104.014,756.545L120.006,756.545" style="fill:none;fill-rule:nonzero;stroke:black;stroke-width:0.72px;"/>
    </g>
    <g transform="matrix(0.60262,-1.18938,-1.18938,-0.60262,928.335,641.14)">
        <path d="M101.483,757.305L115.777,757.305" style="fill:none;fill-rule:nonzero;stroke:black;stroke-width:0.72px;"/>
    </g>
    <g transform="matrix(1.33333,0,0,1.33333,-51.7661,-948.129)">
        <path d="M145.92,755.04L180,755.04" style="fill:none;fill-rule:nonzero;stroke:black;stroke-width:0.72px;"/>
    </g>
    <g transform="matrix(1.33333,0,0,1.33333,-51.7661,-955.809)">
        <path d="M145.92,757.92L180,757.92" style="fill:none;fill-rule:nonzero;stroke:black;stroke-width:0.72px;"/>
    </g>
    <g transform="matrix(1.33333,0,0,1.33333,-51.7661,-951.969)">
        <path d="M175.44,752.88L183.36,756.48L175.44,760.08" style="fill:none;fill-rule:nonzero;stroke:black;stroke-width:0.72px;"/>
    </g>
    <g transform="matrix(-1.15469,0.666693,0.666693,1.15469,-5.59634,-952.554)">
        <path d="M212.32,752.06L227.84,752.06" style="fill:none;fill-rule:nonzero;stroke:black;stroke-width:0.72px;"/>
    </g>
    <g transform="matrix(-1.15468,-0.666702,-0.666702,1.15468,1034.64,-646.129)">
        <path d="M225.466,750.96L245.384,750.96" style="fill:none;fill-rule:nonzero;stroke:black;stroke-width:0.72px;"/>
    </g>
    <g transform="matrix(-1.15463,-0.666781,-0.666781,1.15463,1039.3,-653.709)">
        <path d="M227.257,754.285L245.513,754.285" style="fill:none;fill-rule:nonzero;stroke:black;stroke-width:0.72px;"/>
    </g>
    <g transform="matrix(-1.15468,0.666702,0.666702,1.15468,76.2259,-971.547)">
        <path d="M242.716,750.96L262.634,750.96" style="fill:none;fill-rule:nonzero;stroke:black;stroke-width:0.72px;"/>
    </g>
    <g transform="matrix(1.15464,0.666766,0.666766,-1.15464,-505.507,752.405)">
        <path d="M260.311,752.25L275.069,752.25" style="fill:none;fill-rule:nonzero;stroke:black;stroke-width:0.72px;"/>
    </g>
    <g transform="matrix(0,-1.33333,-1.33333,0,1316.59,398.231)">
        <path d="M255.63,763.29L270.33,763.29" style="fill:none;fill-rule:nonzero;stroke:black;stroke-width:0.72px;"/>
    </g>
    <g transform="matrix(0,-1.33333,-1.33333,0,1312.11,393.751)">
        <path d="M252.27,763.29L266.97,763.29" style="fill:none;fill-rule:nonzero;stroke:black;stroke-width:0.72px;"/>
    </g>
    <g transform="matrix(1.33333,0,0,1.33333,-51.7661,-947.489)">
        <path d="M302.64,754.8L336.72,754.8" style="fill:none;fill-rule:nonzero;stroke:black;stroke-width:0.72px;"/>
    </g>
    <g transform="matrix(1.33333,0,0,1.33333,-51.7661,-955.169)">
        <path d="M302.64,757.68L336.72,757.68" style="fill:none;fill-rule:nonzero;stroke:black;stroke-width:0.72px;"/>
    </g>
    <g transform="matrix(1.33333,0,0,1.33333,-51.7661,-951.329)">
        <path d="M332.16,752.64L340.08,756.24L332.16,759.84" style="fill:none;fill-rule:nonzero;stroke:black;stroke-width:0.72px;"/>
    </g>
    <g transform="matrix(-1.15469,0.666693,0.666693,1.15469,373.695,-1056.11)">
        <path d="M364.96,752.78L380.48,752.78" style="fill:none;fill-rule:nonzero;stroke:black;stroke-width:0.72px;"/>
    </g>
    <g transform="matrix(-1.15468,-0.666702,-0.666702,1.15468,1414.89,-546.155)">
        <path d="M378.106,751.68L398.024,751.68" style="fill:none;fill-rule:nonzero;stroke:black;stroke-width:0.72px;"/>
    </g>
    <g transform="matrix(-1.15468,0.666702,0.666702,1.15468,455.516,-1075.1)">
        <path d="M395.356,751.68L415.274,751.68" style="fill:none;fill-rule:nonzero;stroke:black;stroke-width:0.72px;"/>
    </g>
    <g transform="matrix(1.15464,0.666766,0.666766,-1.15464,-478.712,650.501)">
        <path d="M412.951,752.97L427.709,752.97" style="fill:none;fill-rule:nonzero;stroke:black;stroke-width:0.72px;"/>
    </g>
    <g transform="matrix(0,-1.33333,-1.33333,0,1472.83,552.551)">
        <path d="M372.09,764.01L386.79,764.01" style="fill:none;fill-rule:nonzero;stroke:black;stroke-width:0.72px;"/>
    </g>
    <g transform="matrix(0,-1.33333,-1.33333,0,1521.07,600.791)">
        <path d="M408.27,764.01L422.97,764.01" style="fill:none;fill-rule:nonzero;stroke:black;stroke-width:0.72px;"/>
    </g>
    <g transform="matrix(0,-1.33333,-1.33333,0,1516.59,596.311)">
        <path d="M404.91,764.01L419.61,764.01" style="fill:none;fill-rule:nonzero;stroke:black;stroke-width:0.72px;"/>
    </g>
    <g transform="matrix(1.33333,0,0,1.33333,-51.7661,-981.089)">
        <path d="M377.04,777.36L374.4,777.36L373.2,777.12L372.24,776.88L370.32,775.92L368.4,774.48L367.68,773.76L367.2,772.8L366.48,771.84L366.24,770.88L365.76,769.68L365.52,768.48L365.52,766.08L365.76,764.88L366.72,762.48L368.16,760.56L369.12,759.6L370.08,758.88L371.28,758.4L372.24,757.92L373.44,757.44L374.16,757.44" style="fill:none;fill-rule:nonzero;stroke:black;stroke-width:0.48px;"/>
    </g>
    <g transform="matrix(1.31915,-0.193992,-0.193992,-1.31915,100.626,1126.9)">
        <path d="M368.627,756.855L376.874,756.855L369.695,760.822L370.568,758.51L368.627,756.855Z" style="stroke:black;stroke-width:0.48px;"/>
    </g>
    <g transform="matrix(1.33333,0,0,1.33333,-51.7661,-926.049)">
        <path d="M390.24,758.4L389.04,757.2L388.32,756L387.36,754.56L386.4,751.68L385.92,750L385.92,746.88L386.16,745.44L387.12,743.04L387.6,741.6L388.32,740.64L389.04,739.44L390.96,737.52L393.36,736.08L394.56,735.6L395.04,735.36L395.76,735.12" style="fill:none;fill-rule:nonzero;stroke:black;stroke-width:0.48px;"/>
    </g>
    <g transform="matrix(1.03365,0.842231,0.842231,-1.03365,-558.162,517.911)">
        <path d="M383.579,738.03L391.937,738.03L384.667,742.013L385.777,739.511L383.579,738.03Z" style="stroke:black;stroke-width:0.48px;"/>
    </g>
    <g transform="matrix(1.33333,0,0,1.33333,-51.7661,-927.969)">
        <path d="M474.72,745.68L480.48,745.68L480.48,746.16L476.16,746.16L476.16,748.8L480.48,748.8L480.48,749.28L474.72,749.28L474.72,745.68Z" style="stroke:black;stroke-width:0.02px;"/>
    </g>
    <g transform="matrix(1.33333,0,0,1.33333,-51.7661,-927.969)">
        <path d="M482.88,745.68L477.12,745.68L477.12,746.16L481.44,746.16L481.44,748.8L477.12,748.8L477.12,749.28L482.88,749.28L482.88,745.68Z" style="stroke:black;stroke-width:0.02px;"/>
    </g>
    <g transform="matrix(0,1.33333,1.33333,0,-463.766,-402.689)">
        <path d="M378.36,705L413.64,705" style="fill:none;fill-rule:nonzero;stroke:black;stroke-width:0.72px;"/>
    </g>
    <g transform="matrix(0,1.33333,1.33333,0,-459.926,-406.529)">
        <path d="M381.24,705L416.52,705" style="fill:none;fill-rule:nonzero;stroke:black;stroke-width:0.72px;"/>
    </g>
    <g transform="matrix(1.33333,0,0,1.33333,-51.7661,-769.249)">
        <path d="M401.04,684L397.44,691.92L393.84,684" style="fill:none;fill-rule:nonzero;stroke:black;stroke-width:0.72px;"/>
    </g>
    <g transform="matrix(1.33333,0,0,1.33333,-51.7661,-634.529)">
        <path d="M348.96,637.44L359.28,637.44" style="fill:none;fill-rule:nonzero;stroke:black;stroke-width:0.72px;"/>
    </g>
    <g transform="matrix(-0.666706,-1.15468,-1.15468,0.666706,1372.12,157.802)">
        <path d="M330.435,648.585L344.535,648.585" style="fill:none;fill-rule:nonzero;stroke:black;stroke-width:0.72px;"/>
    </g>
    <g transform="matrix(-0.666704,-1.15468,-1.15468,0.666704,1379.88,160.043)">
        <path d="M332.86,649.425L348.9,649.425" style="fill:none;fill-rule:nonzero;stroke:black;stroke-width:0.72px;"/>
    </g>
    <g transform="matrix(-1.33333,0,0,1.33333,817.194,-680.529)">
        <path d="M317.76,654.69L333.96,654.69" style="fill:none;fill-rule:nonzero;stroke:black;stroke-width:0.72px;"/>
    </g>
    <g transform="matrix(-1.15451,-0.666992,-0.666992,1.15451,1509.42,-234.014)">
        <path d="M447.349,644.205L462.281,644.205" style="fill:none;fill-rule:nonzero;stroke:black;stroke-width:0.72px;"/>
    </g>
    <g transform="matrix(0,-1.33333,-1.33333,0,1419.75,789.391)">
        <path d="M441,655.29L455.7,655.29" style="fill:none;fill-rule:nonzero;stroke:black;stroke-width:0.72px;"/>
    </g>
    <g transform="matrix(-1.15454,0.66694,0.66694,1.15454,615.951,-836.248)">
        <path d="M434.678,645.96L448.432,645.96" style="fill:none;fill-rule:nonzero;stroke:black;stroke-width:0.72px;"/>
    </g>
    <g transform="matrix(-1.15456,0.666909,0.666909,1.15456,620.333,-828.36)">
        <path d="M434.548,642.565L450.242,642.565" style="fill:none;fill-rule:nonzero;stroke:black;stroke-width:0.72px;"/>
    </g>
    <g transform="matrix(1.1544,-0.667192,-0.667192,-1.1544,478.975,1249.86)">
        <path d="M452.783,672.9L461.377,672.9" style="fill:none;fill-rule:nonzero;stroke:black;stroke-width:0.72px;"/>
    </g>
    <g transform="matrix(0.942809,0.942809,0.942809,-0.942809,-537.505,294.949)">
        <path d="M497.631,728.64L532.929,728.64" style="fill:none;fill-rule:nonzero;stroke:black;stroke-width:0.72px;"/>
    </g>
    <g transform="matrix(0.942809,0.942809,0.942809,-0.942809,-538.566,292.389)">
        <path d="M499.551,730.56L534.849,730.56" style="fill:none;fill-rule:nonzero;stroke:black;stroke-width:0.72px;"/>
    </g>
    <g transform="matrix(1.33333,0,0,1.33333,-51.7661,-851.489)">
        <path d="M528,714.72L531.12,722.88L522.96,719.76" style="fill:none;fill-rule:nonzero;stroke:black;stroke-width:0.72px;"/>
    </g>
    <g transform="matrix(1.33333,0,0,1.33333,-51.7661,-772.769)">
        <path d="M535.44,689.28L546.48,689.28" style="fill:none;fill-rule:nonzero;stroke:black;stroke-width:0.72px;"/>
    </g>
    <g transform="matrix(0.666693,1.15469,1.15469,-0.666693,-467.179,-30.1935)">
        <path d="M551.91,680.64L559.67,680.64" style="fill:none;fill-rule:nonzero;stroke:black;stroke-width:0.72px;"/>
    </g>
    <g transform="matrix(1.33333,0,0,1.33333,-51.7661,-772.769)">
        <path d="M555.12,689.28L566.16,689.28" style="fill:none;fill-rule:nonzero;stroke:black;stroke-width:0.72px;"/>
    </g>
    <g transform="matrix(0,-1.33333,-1.33333,0,1617.03,869.791)">
        <path d="M547.68,699.12L557.28,699.12" style="fill:none;fill-rule:nonzero;stroke:black;stroke-width:0.72px;"/>
    </g>
    <g transform="matrix(0,-1.33333,-1.33333,0,1612.55,865.311)">
        <path d="M544.32,699.12L553.92,699.12" style="fill:none;fill-rule:nonzero;stroke:black;stroke-width:0.72px;"/>
    </g>
</svg>
