<?xml version="1.0" encoding="UTF-8" standalone="no"?>
<!DOCTYPE svg PUBLIC "-//W3C//DTD SVG 1.1//EN" "http://www.w3.org/Graphics/SVG/1.1/DTD/svg11.dtd">
<svg width="100%" height="100%" viewBox="0 0 590 200" version="1.1" xmlns="http://www.w3.org/2000/svg" xmlns:xlink="http://www.w3.org/1999/xlink" xml:space="preserve" xmlns:serif="http://www.serif.com/" style="fill-rule:evenodd;clip-rule:evenodd;stroke-linecap:round;stroke-linejoin:round;stroke-miterlimit:10;">
    <g transform="matrix(1.33333,0,0,1.33333,-70.3146,-70.2374)">
        <text x="132.72px" y="92.88px" style="font-family:'ArialMT', 'Arial', sans-serif;font-size:10px;">Ph</text>
    </g>
    <g transform="matrix(1.33333,0,0,1.33333,-70.3146,-70.2374)">
        <text x="57.84px" y="92.88px" style="font-family:'ArialMT', 'Arial', sans-serif;font-size:10px;">Ph</text>
    </g>
    <g transform="matrix(1.33333,0,0,1.33333,-70.3146,-70.2374)">
        <text x="132.24px" y="72.96px" style="font-family:'ArialMT', 'Arial', sans-serif;font-size:10px;">O</text>
    </g>
    <g transform="matrix(1.33333,0,0,1.33333,-70.3146,-70.2374)">
        <text x="286.32px" y="93.12px" style="font-family:'ArialMT', 'Arial', sans-serif;font-size:10px;">Ph</text>
    </g>
    <g transform="matrix(1.33333,0,0,1.33333,-70.3146,-70.2374)">
        <text x="211.44px" y="93.12px" style="font-family:'ArialMT', 'Arial', sans-serif;font-size:10px;">Ph</text>
    </g>
    <g transform="matrix(1.33333,0,0,1.33333,-70.3146,-70.2374)">
        <text x="268.56px" y="63.36px" style="font-family:'ArialMT', 'Arial', sans-serif;font-size:10px;">O</text>
    </g>
    <g transform="matrix(1.33333,0,0,1.33333,-70.3146,-70.2374)">
        <text x="307.2px" y="86.16px" style="font-family:'ArialMT', 'Arial', sans-serif;font-size:18px;">+</text>
        <text x="328.56px" y="83.28px" style="font-family:'ArialMT', 'Arial', sans-serif;font-size:10px;">CH</text>
        <text x="342.981px" y="85.92px" style="font-family:'ArialMT', 'Arial', sans-serif;font-size:6px;">2</text>
    </g>
    <g transform="matrix(0.0186667,-1.3332,1.3332,0.0186667,-70.3146,-70.2374)">
        <text x="-70.805px" y="335.104px" style="font-family:'ArialMT', 'Arial', sans-serif;font-size:10px;">:</text>
    </g>
    <g transform="matrix(1.33333,0,0,1.33333,-70.3146,-70.2374)">
        <text x="431.04px" y="83.52px" style="font-family:'ArialMT', 'Arial', sans-serif;font-size:10px;">C</text>
    </g>
    <g transform="matrix(1.33333,0,0,1.33333,-70.3146,-70.2374)">
        <text x="419.52px" y="83.52px" style="font-family:'ArialMT', 'Arial', sans-serif;font-size:10px;">H</text>
        <text x="426.733px" y="86.16px" style="font-family:'ArialMT', 'Arial', sans-serif;font-size:8px;">2</text>
        <text x="438.24px" y="76.56px" style="font-family:'ArialMT', 'Arial', sans-serif;font-size:8px;">–</text>
        <text x="451.2px" y="83.52px" style="font-family:'ArialMT', 'Arial', sans-serif;font-size:10px;"><tspan x="451.2px " y="83.52px ">S</tspan></text>
        <text x="457.919px" y="76.56px" style="font-family:'ArialMT', 'Arial', sans-serif;font-size:8px;">+</text>
        <text x="460.8px" y="100.56px" style="font-family:'ArialMT', 'Arial', sans-serif;font-size:10px;">CH</text>
        <text x="475.2px" y="103.2px" style="font-family:'ArialMT', 'Arial', sans-serif;font-size:8px;">3</text>
    </g>
    <g transform="matrix(1.33333,0,0,1.33333,-70.3146,-70.2374)">
        <text x="451.2px" y="66.24px" style="font-family:'ArialMT', 'Arial', sans-serif;font-size:10px;">CH</text>
        <text x="465.6px" y="68.88px" style="font-family:'ArialMT', 'Arial', sans-serif;font-size:8px;">3</text>
    </g>
    <g transform="matrix(1.33333,0,0,1.33333,-70.3146,-70.2374)">
        <text x="319.92px" y="180px" style="font-family:'ArialMT', 'Arial', sans-serif;font-size:10px;">C</text>
    </g>
    <g transform="matrix(1.33333,0,0,1.33333,-70.3146,-70.2374)">
        <text x="308.4px" y="180px" style="font-family:'ArialMT', 'Arial', sans-serif;font-size:10px;">H</text>
        <text x="315.612px" y="182.64px" style="font-family:'ArialMT', 'Arial', sans-serif;font-size:8px;">2</text>
        <text x="327.12px" y="173.04px" style="font-family:'ArialMT', 'Arial', sans-serif;font-size:8px;">–</text>
        <text x="340.08px" y="180px" style="font-family:'ArialMT', 'Arial', sans-serif;font-size:10px;"><tspan x="340.08px " y="180px ">S</tspan></text>
        <text x="349.68px" y="197.04px" style="font-family:'ArialMT', 'Arial', sans-serif;font-size:10px;">CH</text>
        <text x="364.08px" y="199.68px" style="font-family:'ArialMT', 'Arial', sans-serif;font-size:8px;">3</text>
    </g>
    <g transform="matrix(1.33333,0,0,1.33333,-70.3146,-70.2374)">
        <text x="349.44px" y="162.72px" style="font-family:'ArialMT', 'Arial', sans-serif;font-size:10px;">O</text>
    </g>
    <g transform="matrix(-0.0209328,1.33317,-1.33317,-0.0209328,-70.3146,-70.2374)">
        <text x="163.512px" y="-323.487px" style="font-family:'ArialMT', 'Arial', sans-serif;font-size:10px;">:</text>
    </g>
    <g transform="matrix(-0.0697355,1.33151,-1.33151,-0.0697355,-70.3146,-70.2374)">
        <text x="49.766px" y="-435.208px" style="font-family:'ArialMT', 'Arial', sans-serif;font-size:10px;">:</text>
    </g>
    <g transform="matrix(-1.15468,-0.666702,-0.666702,1.15468,666.788,-771.279)">
        <path d="M83.206,757.92L103.124,757.92" style="fill:none;fill-rule:nonzero;stroke:black;stroke-width:0.72px;"/>
    </g>
    <g transform="matrix(-1.15463,-0.666781,-0.666781,1.15463,662.238,-763.605)">
        <path d="M83.077,754.595L101.333,754.595" style="fill:none;fill-rule:nonzero;stroke:black;stroke-width:0.72px;"/>
    </g>
    <g transform="matrix(-1.15468,0.666702,0.666702,1.15468,-300.908,-907.006)">
        <path d="M100.456,757.92L120.374,757.92" style="fill:none;fill-rule:nonzero;stroke:black;stroke-width:0.72px;"/>
    </g>
    <g transform="matrix(-1.15485,-0.666401,-0.666401,1.15485,747.656,-753.217)">
        <path d="M118.057,759.23L132.743,759.23" style="fill:none;fill-rule:nonzero;stroke:black;stroke-width:0.72px;"/>
    </g>
    <g transform="matrix(-1.15486,0.666395,0.666395,1.15486,-382.556,-888.065)">
        <path d="M69.997,759.005L85.583,759.005" style="fill:none;fill-rule:nonzero;stroke:black;stroke-width:0.72px;"/>
    </g>
    <g transform="matrix(0,-1.33333,-1.33333,0,1118.89,180.563)">
        <path d="M109.08,772.86L129,772.86" style="fill:none;fill-rule:nonzero;stroke:black;stroke-width:0.72px;"/>
    </g>
    <g transform="matrix(1.15457,-0.666895,-0.666895,-1.15457,463.192,998.78)">
        <path d="M118.092,766.435L132.228,766.435" style="fill:none;fill-rule:nonzero;stroke:black;stroke-width:0.72px;"/>
    </g>
    <g transform="matrix(-1.15457,-0.666895,-0.666895,1.15457,760.773,-802.993)">
        <path d="M118.092,779.285L132.228,779.285" style="fill:none;fill-rule:nonzero;stroke:black;stroke-width:0.72px;"/>
    </g>
    <g transform="matrix(1.33333,0,0,1.33333,-70.3146,-977.757)">
        <path d="M159.12,761.28L193.2,761.28" style="fill:none;fill-rule:nonzero;stroke:black;stroke-width:0.72px;"/>
    </g>
    <g transform="matrix(1.33333,0,0,1.33333,-70.3146,-985.437)">
        <path d="M159.12,764.16L193.2,764.16" style="fill:none;fill-rule:nonzero;stroke:black;stroke-width:0.72px;"/>
    </g>
    <g transform="matrix(1.33333,0,0,1.33333,-70.3146,-981.597)">
        <path d="M188.64,759.12L196.56,762.72L188.64,766.32" style="fill:none;fill-rule:nonzero;stroke:black;stroke-width:0.72px;"/>
    </g>
    <g transform="matrix(-1.15468,-0.666702,-0.666702,1.15468,1048.79,-668.277)">
        <path d="M236.806,757.68L256.724,757.68" style="fill:none;fill-rule:nonzero;stroke:black;stroke-width:0.72px;"/>
    </g>
    <g transform="matrix(-1.15463,-0.666781,-0.666781,1.15463,1044.23,-660.59)">
        <path d="M236.677,754.355L254.933,754.355" style="fill:none;fill-rule:nonzero;stroke:black;stroke-width:0.72px;"/>
    </g>
    <g transform="matrix(-1.15468,0.666702,0.666702,1.15468,81.4113,-1008.81)">
        <path d="M254.056,757.68L273.974,757.68" style="fill:none;fill-rule:nonzero;stroke:black;stroke-width:0.72px;"/>
    </g>
    <g transform="matrix(-1.15485,-0.666401,-0.666401,1.15485,1129.68,-650.26)">
        <path d="M271.657,758.99L286.343,758.99" style="fill:none;fill-rule:nonzero;stroke:black;stroke-width:0.72px;"/>
    </g>
    <g transform="matrix(-1.15486,0.666395,0.666395,1.15486,-0.209652,-989.826)">
        <path d="M223.597,758.765L239.183,758.765" style="fill:none;fill-rule:nonzero;stroke:black;stroke-width:0.72px;"/>
    </g>
    <g transform="matrix(0,-1.33333,-1.33333,0,1322.13,391.403)">
        <path d="M266.97,770.01L281.67,770.01" style="fill:none;fill-rule:nonzero;stroke:black;stroke-width:0.72px;"/>
    </g>
    <g transform="matrix(0,-1.33333,-1.33333,0,1317.65,386.923)">
        <path d="M263.61,770.01L278.31,770.01" style="fill:none;fill-rule:nonzero;stroke:black;stroke-width:0.72px;"/>
    </g>
    <g transform="matrix(1.33333,0,0,1.33333,-70.3146,-957.277)">
        <path d="M328.8,751.92L334.56,751.92L334.56,752.4L330.24,752.4L330.24,754.8L334.56,754.8L334.56,755.28L328.8,755.28L328.8,751.92Z" style="stroke:black;stroke-width:0.02px;"/>
    </g>
    <g transform="matrix(1.33333,0,0,1.33333,-70.3146,-957.277)">
        <path d="M336.72,751.92L330.96,751.92L330.96,752.4L335.28,752.4L335.28,754.8L330.96,754.8L330.96,755.28L336.72,755.28L336.72,751.92Z" style="stroke:black;stroke-width:0.02px;"/>
    </g>
    <g transform="matrix(1.33333,0,0,1.33333,-70.3146,-977.757)">
        <path d="M364.56,761.28L398.64,761.28" style="fill:none;fill-rule:nonzero;stroke:black;stroke-width:0.72px;"/>
    </g>
    <g transform="matrix(1.33333,0,0,1.33333,-70.3146,-985.437)">
        <path d="M364.56,764.16L398.64,764.16" style="fill:none;fill-rule:nonzero;stroke:black;stroke-width:0.72px;"/>
    </g>
    <g transform="matrix(1.33333,0,0,1.33333,-70.3146,-981.597)">
        <path d="M394.08,759.12L402,762.72L394.08,766.32" style="fill:none;fill-rule:nonzero;stroke:black;stroke-width:0.72px;"/>
    </g>
    <g transform="matrix(1.33333,0,0,1.33333,-70.3146,-980.957)">
        <path d="M439.2,762.48L450.24,762.48" style="fill:none;fill-rule:nonzero;stroke:black;stroke-width:0.72px;"/>
    </g>
    <g transform="matrix(0.666693,1.15469,1.15469,-0.666693,-634.408,19.1471)">
        <path d="M455.67,753.84L463.43,753.84" style="fill:none;fill-rule:nonzero;stroke:black;stroke-width:0.72px;"/>
    </g>
    <g transform="matrix(0.0268145,-1.33306,-1.33306,-0.0268145,1551.6,651.194)">
        <path d="M451.259,771L458.221,771" style="fill:none;fill-rule:nonzero;stroke:black;stroke-width:0.72px;"/>
    </g>
    <g transform="matrix(0,1.33333,1.33333,0,-582.955,-349.277)">
        <path d="M316.08,717.84L350.64,717.84" style="fill:none;fill-rule:nonzero;stroke:black;stroke-width:0.72px;"/>
    </g>
    <g transform="matrix(0,1.33333,1.33333,0,-579.115,-353.117)">
        <path d="M318.96,717.84L353.52,717.84" style="fill:none;fill-rule:nonzero;stroke:black;stroke-width:0.72px;"/>
    </g>
    <g transform="matrix(1.33333,0,0,1.33333,-70.3146,-817.437)">
        <path d="M338.4,697.2L334.8,705.12L331.2,697.2" style="fill:none;fill-rule:nonzero;stroke:black;stroke-width:0.72px;"/>
    </g>
    <g transform="matrix(1.33333,0,0,1.33333,-70.3146,-723.677)">
        <path d="M328.08,666L339.12,666" style="fill:none;fill-rule:nonzero;stroke:black;stroke-width:0.72px;"/>
    </g>
    <g transform="matrix(0.666693,1.15469,1.15469,-0.666693,-597.081,211.773)">
        <path d="M344.55,657.36L352.31,657.36" style="fill:none;fill-rule:nonzero;stroke:black;stroke-width:0.72px;"/>
    </g>
    <g transform="matrix(0.666719,-1.15467,-1.15467,-0.666719,941.341,1007.16)">
        <path d="M345.485,674.06L354.585,674.06" style="fill:none;fill-rule:nonzero;stroke:black;stroke-width:0.72px;"/>
    </g>
    <g transform="matrix(0.666627,-1.15472,-1.15472,-0.666627,939.598,1002.63)">
        <path d="M342.375,674.565L350.515,674.565" style="fill:none;fill-rule:nonzero;stroke:black;stroke-width:0.72px;"/>
    </g>
</svg>
