<?xml version="1.0" encoding="UTF-8" standalone="no"?>
<!DOCTYPE svg PUBLIC "-//W3C//DTD SVG 1.1//EN" "http://www.w3.org/Graphics/SVG/1.1/DTD/svg11.dtd">
<svg width="100%" height="100%" viewBox="0 0 435 205" version="1.1" xmlns="http://www.w3.org/2000/svg" xmlns:xlink="http://www.w3.org/1999/xlink" xml:space="preserve" xmlns:serif="http://www.serif.com/" style="fill-rule:evenodd;clip-rule:evenodd;stroke-linecap:round;">
    <g id="Layer-1" serif:id="Layer 1" transform="matrix(1,0,0,1,-347.39,-322.325)">
        <g id="path2201" transform="matrix(1,0,0,1,295.627,244.503)">
            <path d="M160.42,87.534C251.93,86.404 460.93,110.13 474.49,163.23C488.04,216.32 434.95,276.2 380.72,279.59C326.49,282.98 67.78,253.6 64.39,208.41C61.005,163.23 93.767,89.79 160.42,87.53L160.42,87.534Z" style="fill:rgb(255,238,170);fill-rule:nonzero;"/>
        </g>
        <g id="path2307" transform="matrix(1,0,0,1,282.827,198.553)">
            <path d="M70.043,210.67C115.23,115.78 209.003,109 302.773,188.08C387.073,259.18 476.753,177.91 483.523,129.33" style="fill:none;fill-rule:nonzero;stroke:black;stroke-width:2px;"/>
        </g>
        <g id="path2539" transform="matrix(1,0,0,1,285.114,226.443)">
            <path d="M70.043,210.67C115.23,115.78 209.003,109 302.773,188.08C387.073,259.18 476.753,177.91 483.523,129.33" style="fill:none;fill-rule:nonzero;stroke:black;stroke-width:2px;"/>
        </g>
        <g id="path2541" transform="matrix(1,0,0,1,285.847,252.483)">
            <path d="M70.043,210.67C115.23,115.78 209.003,109 302.773,188.08C387.073,259.18 476.753,177.91 483.523,129.33" style="fill:none;fill-rule:nonzero;stroke:black;stroke-width:2px;"/>
        </g>
        <g id="path2543" transform="matrix(1,0,0,1,289.736,279.793)">
            <path d="M70.043,210.67C115.23,115.78 209.003,109 302.773,188.08C387.073,259.18 476.753,177.91 483.523,129.33" style="fill:none;fill-rule:nonzero;stroke:black;stroke-width:2px;"/>
        </g>
        <g id="path2545" transform="matrix(1,0,0,1,293.387,307.923)">
            <path d="M70.043,210.67C115.23,115.78 209.003,109 302.773,188.08C387.073,259.18 476.753,177.91 483.523,129.33" style="fill:none;fill-rule:nonzero;stroke:black;stroke-width:2px;"/>
        </g>
        <g id="path54110" transform="matrix(1.4374,0,0,1.2818,380.767,312.683)">
            <path d="M22.562,9.844C22.211,9.881 21.896,10.058 21.688,10.344C21.479,10.63 21.396,10.997 21.469,11.344C24.562,27.695 25.697,42.084 24.938,55.531C23.126,53.288 20.175,51.813 16.844,51.812C11.34,51.812 6.875,55.802 6.875,60.719C6.875,65.635 11.34,69.625 16.844,69.625C21.731,69.625 25.805,66.491 26.656,62.344C26.841,62.149 26.971,61.913 27,61.625C28.265,48.974 27.732,35.57 25.531,20.719C33.014,25.803 40.745,30.711 51.125,33.25C51.82,37.659 52.363,43.079 52.562,48.562C52.806,55.267 52.49,61.998 51.562,66.781C49.973,63.744 46.53,61.625 42.531,61.625C37.027,61.625 32.563,65.615 32.562,70.531C32.562,75.448 37.027,79.437 42.531,79.438C47.065,79.438 50.885,76.734 52.094,73.031C52.177,72.946 52.254,72.862 52.312,72.75C54.938,67.689 55.413,58.145 55.062,48.5C54.712,38.855 53.438,29.342 51.812,24.625C51.672,24.215 51.329,23.908 50.906,23.812C39.71,21.205 31.719,15.746 23.406,10.062C23.16,9.891 22.861,9.813 22.562,9.844ZM24.406,13.719C31.76,18.705 39.404,23.478 49.562,26C49.936,27.173 50.31,28.73 50.656,30.531C40.401,27.811 32.829,22.696 25,17.344C24.803,16.136 24.624,14.947 24.406,13.719Z" style="fill-rule:nonzero;"/>
        </g>
        <g id="path2567" transform="matrix(-1,0,0,-1,420.747,545.303)">
            <path d="M-69.906,114.72C-70.012,114.71 -70.143,114.74 -70.25,114.75C-70.756,114.8 -71.2,115.01 -71.5,115.38C-71.8,115.74 -71.917,116.21 -71.812,116.66C-67.366,137.62 -65.72,156.08 -66.812,173.31C-69.416,170.44 -73.681,168.53 -78.469,168.53C-86.38,168.53 -92.781,173.64 -92.781,179.94C-92.781,186.24 -86.38,191.38 -78.469,191.38C-71.444,191.37 -65.567,187.35 -64.344,182.03C-64.079,181.78 -63.885,181.46 -63.844,181.09C-62.025,164.88 -62.806,147.72 -65.969,128.69L-69.031,115.03C-69.296,114.87 -69.588,114.74 -69.906,114.72Z" style="fill-rule:nonzero;"/>
        </g>
        <g id="path2575" transform="matrix(1.4374,0,0,1.2818,514.357,368.863)">
            <path d="M50.656,30.531C51.002,32.332 50.43,28.841 51.125,33.25C51.82,37.659 52.363,43.079 52.562,48.562C52.806,55.267 53.134,55.54 53.734,55.58C52.145,52.543 48.701,50.424 44.703,50.424C39.199,50.424 34.734,54.414 34.734,59.33C34.734,64.247 39.199,68.236 44.703,68.236C49.237,68.236 53.056,65.533 54.265,61.83C54.349,61.744 54.463,61.676 54.484,61.549C55.034,58.157 55.413,58.145 55.062,48.5C54.712,38.855 53.438,29.342 51.812,24.625C51.672,24.215 51.329,23.908 50.906,23.812C39.71,21.205 31.719,15.746 23.406,10.062C23.16,9.891 22.861,9.813 22.562,9.844C22.211,9.881 21.896,10.058 21.688,10.344C21.479,10.63 21.396,10.997 21.469,11.344C24.562,27.695 25.697,42.084 24.938,55.531C23.126,53.288 20.175,51.813 16.844,51.812C11.34,51.812 6.875,55.802 6.875,60.719C6.875,65.635 11.34,69.625 16.844,69.625C21.731,69.625 25.805,66.491 26.656,62.344C26.841,62.149 26.971,61.913 27,61.625C28.265,48.974 27.732,35.57 25.531,20.719C23.331,5.868 25.197,18.552 25,17.344C24.803,16.136 24.624,14.947 24.406,13.719C31.76,18.705 39.404,23.478 49.562,26C49.936,27.173 50.31,28.73 50.656,30.531Z" style="fill-rule:nonzero;"/>
        </g>
        <g id="path2195" transform="matrix(1,0,0,1,713.497,324.723)">
            <path d="M-69.906,114.72C-70.012,114.71 -70.143,114.74 -70.25,114.75C-70.756,114.8 -71.2,115.01 -71.5,115.38C-71.8,115.74 -71.917,116.21 -71.812,116.66C-67.366,137.62 -65.72,156.08 -66.812,173.31C-69.416,170.44 -73.681,168.53 -78.469,168.53C-86.38,168.53 -92.781,173.64 -92.781,179.94C-92.781,186.24 -86.38,191.38 -78.469,191.38C-71.444,191.37 -65.567,187.35 -64.344,182.03C-64.079,181.78 -63.885,181.46 -63.844,181.09C-62.025,164.88 -62.806,147.72 -65.969,128.69L-69.031,115.03C-69.296,114.87 -69.588,114.74 -69.906,114.72Z" style="fill-rule:nonzero;"/>
        </g>
        <g id="path2197" transform="matrix(1.4374,0,0,1.2818,672.517,411.793)">
            <path d="M50.656,30.531C51.002,32.332 50.43,28.841 51.125,33.25C51.82,37.659 52.363,43.079 52.562,48.562C52.806,55.267 53.134,55.54 53.734,55.58C52.145,52.543 48.701,50.424 44.703,50.424C39.199,50.424 34.734,54.414 34.734,59.33C34.734,64.247 39.199,68.236 44.703,68.236C49.237,68.236 53.056,65.533 54.265,61.83C54.349,61.744 54.463,61.676 54.484,61.549C55.034,58.157 55.413,58.145 55.062,48.5C54.712,38.855 53.438,29.342 51.812,24.625C51.672,24.215 51.329,23.908 50.906,23.812C39.71,21.205 31.719,15.746 23.406,10.062C23.16,9.891 22.861,9.813 22.562,9.844C22.211,9.881 21.896,10.058 21.688,10.344C21.479,10.63 21.396,10.997 21.469,11.344C24.562,27.695 25.697,42.084 24.938,55.531C23.126,53.288 20.175,51.813 16.844,51.812C11.34,51.812 6.875,55.802 6.875,60.719C6.875,65.635 11.34,69.625 16.844,69.625C21.731,69.625 25.805,66.491 26.656,62.344C26.841,62.149 26.971,61.913 27,61.625C28.265,48.974 27.732,35.57 25.531,20.719C23.331,5.868 25.197,18.552 25,17.344C24.803,16.136 24.624,14.947 24.406,13.719C31.76,18.705 39.404,23.478 49.562,26C49.936,27.173 50.31,28.73 50.656,30.531Z" style="fill-rule:nonzero;"/>
        </g>
    </g>
</svg>
